<?xml version="1.0" standalone="no"?>
<!DOCTYPE svg PUBLIC "-//W3C//DTD SVG 20010904//EN"
 "http://www.w3.org/TR/2001/REC-SVG-20010904/DTD/svg10.dtd">
<svg version="1.0" xmlns="http://www.w3.org/2000/svg"
 width="1079.000000pt" height="1125.000000pt" viewBox="0 0 1079.000000 1125.000000"
 preserveAspectRatio="xMidYMid meet">
<metadata>
Created by potrace 1.16, written by Peter Selinger 2001-2019
</metadata>
<g transform="translate(0.000000,1125.000000) scale(0.100000,-0.100000)"
fill="#000000" stroke="none">
<path d="M5047 10187 c-27 -7 -46 -15 -43 -20 3 -4 1 -3 -6 3 -8 7 -17 5 -27
-4 -9 -7 -43 -20 -76 -29 -91 -23 -166 -53 -157 -62 4 -4 -2 -3 -12 2 -13 7
-34 6 -70 -4 -28 -8 -78 -22 -111 -30 -162 -39 -185 -46 -185 -57 0 -7 -3 -7
-8 -1 -11 16 -44 15 -38 -1 3 -8 1 -14 -3 -14 -5 0 -11 4 -13 10 -2 5 -37 -1
-83 -15 -44 -13 -110 -32 -147 -41 -36 -10 -64 -22 -62 -26 3 -4 -5 -4 -17 1
-14 5 -40 3 -68 -6 -77 -23 -359 -28 -471 -8 -52 9 -107 19 -122 21 -15 2 -55
13 -90 26 -93 32 -236 32 -340 -2 -46 -14 -74 -28 -70 -35 3 -5 -1 -4 -10 3
-13 11 -23 10 -54 -3 -22 -9 -49 -25 -61 -37 -12 -12 -27 -17 -34 -13 -7 5
-10 4 -5 -3 10 -17 -33 -35 -90 -36 -47 -1 -57 -6 -101 -46 -92 -85 -165 -145
-198 -162 -18 -10 -51 -39 -72 -64 -44 -55 -137 -147 -188 -188 -61 -49 -139
-250 -105 -271 6 -3 9 -18 9 -33 -1 -27 -1 -27 -8 3 -5 22 -9 8 -13 -55 -4
-47 -13 -105 -22 -129 -23 -62 -21 -159 5 -223 17 -41 22 -76 23 -158 1 -93
-3 -113 -26 -170 -15 -36 -40 -110 -56 -166 -16 -55 -45 -129 -66 -163 -20
-34 -36 -68 -36 -74 0 -7 -20 -44 -45 -82 -25 -39 -45 -75 -45 -81 0 -6 -17
-38 -38 -70 -21 -33 -45 -80 -53 -104 -8 -25 -20 -44 -27 -43 -6 2 -9 -3 -7
-10 3 -6 -21 -41 -53 -77 -32 -36 -73 -92 -92 -125 -19 -33 -47 -72 -62 -86
-29 -28 -30 -45 -7 -124 13 -46 14 -138 1 -162 -25 -47 -9 -129 60 -303 32
-79 94 -164 184 -249 43 -41 72 -71 64 -66 -9 5 -11 4 -6 -4 4 -6 11 -9 16 -6
5 3 20 0 32 -7 49 -26 147 -54 163 -46 9 6 15 5 15 -2 0 -5 7 -10 15 -10 17 0
173 -60 218 -83 15 -8 48 -33 73 -56 46 -42 61 -51 48 -28 -4 7 -3 9 2 4 5 -5
9 -12 9 -17 0 -4 18 -25 40 -46 34 -33 43 -51 59 -119 25 -104 65 -198 82
-191 8 3 11 0 8 -8 -5 -13 51 -55 79 -60 6 -1 24 -10 39 -20 20 -13 37 -16 60
-12 67 14 186 25 281 25 68 1 107 6 128 16 16 9 35 13 41 9 6 -4 8 -3 5 3 -14
23 56 32 263 36 219 4 240 6 322 33 42 14 50 14 78 -1 18 -9 38 -14 46 -11 8
3 13 2 10 -3 -3 -5 1 -12 10 -15 8 -3 13 -10 10 -15 -3 -5 0 -8 7 -8 21 2 187
-82 276 -140 165 -106 191 -125 184 -136 -3 -5 -2 -7 4 -4 14 9 95 -52 86 -65
-3 -6 -2 -8 3 -5 13 8 96 -77 86 -88 -4 -4 -2 -5 5 -1 6 3 14 2 18 -4 4 -6 10
-8 15 -5 5 3 12 0 16 -6 4 -8 3 -9 -4 -5 -22 13 -12 -7 29 -60 23 -30 45 -52
49 -49 4 3 14 -3 21 -12 10 -12 10 -14 2 -9 -16 9 -17 -6 -1 -22 7 -7 8 -12 4
-12 -5 0 -3 -7 4 -15 7 -8 16 -13 20 -10 5 3 24 -13 42 -36 76 -93 152 -169
165 -164 8 2 12 1 9 -4 -9 -13 46 -32 95 -33 124 -2 127 -1 180 52 55 55 65
58 115 34 26 -12 37 -14 48 -5 14 12 47 -22 113 -119 17 -25 52 -69 77 -98 25
-30 43 -59 40 -64 -4 -6 -2 -8 4 -4 6 3 13 2 17 -4 4 -6 10 -8 15 -5 5 3 12 0
16 -6 4 -8 3 -9 -4 -5 -23 14 -11 -6 31 -51 60 -65 127 -128 137 -128 5 0 12
-4 17 -9 5 -5 3 -6 -4 -2 -34 19 -3 -18 90 -111 56 -56 116 -119 132 -139 38
-48 132 -150 219 -237 38 -39 64 -73 60 -79 -4 -6 -3 -8 4 -4 12 7 167 -156
167 -176 0 -7 6 -14 13 -14 6 -1 15 -3 20 -4 4 -1 10 -2 13 -2 4 1 15 -8 25
-20 11 -12 13 -18 7 -14 -7 4 -13 3 -13 -1 0 -5 6 -15 13 -21 6 -7 12 -18 12
-25 0 -7 6 -12 13 -12 8 0 20 -8 27 -19 8 -10 19 -15 26 -10 7 4 10 3 6 -3 -4
-6 15 -34 41 -63 26 -28 47 -56 47 -61 0 -5 3 -8 7 -6 3 1 17 -8 30 -21 14
-12 27 -20 30 -17 3 3 11 -2 19 -12 9 -11 10 -14 2 -9 -18 10 -16 -2 2 -21 8
-8 12 -19 9 -25 -4 -6 -2 -8 3 -5 6 4 18 -2 28 -13 10 -11 22 -17 28 -13 6 3
7 1 3 -6 -5 -7 9 -31 36 -59 23 -26 63 -71 88 -101 25 -29 80 -90 123 -134 42
-45 75 -88 72 -95 -3 -7 -1 -11 4 -8 5 3 14 -1 21 -9 7 -8 16 -13 20 -10 4 3
14 -3 21 -13 13 -15 12 -16 -3 -3 -30 23 -20 1 19 -43 37 -42 63 -60 47 -35
-7 12 -5 12 9 0 9 -7 15 -17 12 -21 -3 -5 9 -22 26 -39 32 -32 45 -40 33 -19
-4 7 2 4 14 -6 25 -21 31 -36 7 -16 -8 7 -15 8 -15 2 0 -5 7 -15 15 -22 8 -6
13 -17 12 -23 -1 -6 5 -11 13 -12 8 0 24 -15 36 -33 35 -51 174 -199 348 -371
87 -86 217 -215 290 -286 72 -72 151 -144 176 -161 25 -17 43 -37 42 -45 -2
-8 0 -10 4 -6 4 4 38 -22 74 -58 37 -36 71 -65 76 -63 5 2 10 -1 11 -5 2 -15
56 -66 63 -62 4 3 14 -3 21 -12 10 -12 10 -14 2 -9 -31 18 -7 -15 58 -79 39
-38 78 -83 86 -100 9 -16 24 -41 34 -54 11 -13 19 -38 19 -56 0 -61 69 -81
119 -34 20 19 40 20 322 23 279 4 303 5 328 23 29 22 62 106 64 164 1 21 5 35
8 33 20 -12 103 262 87 290 -5 10 -5 16 0 16 5 0 12 33 15 73 3 39 13 142 22
227 16 158 18 393 4 384 -4 -2 -13 5 -19 16 -6 11 -15 18 -19 15 -5 -2 -8 3
-7 13 0 9 -5 16 -12 14 -8 -1 -11 2 -8 7 9 14 -57 125 -82 137 -13 6 -23 15
-22 19 1 3 -10 19 -23 35 -22 24 -32 28 -67 25 -74 -5 -193 38 -275 101 -27
20 -35 34 -35 57 0 26 -20 109 -38 157 -3 8 -6 21 -6 29 -1 18 -19 22 -137 30
-80 5 -102 11 -135 33 -62 41 -114 89 -108 99 3 5 0 8 -7 7 -6 -2 -15 10 -20
25 -4 15 -22 51 -41 80 -30 47 -33 60 -38 146 -5 88 -7 95 -32 114 -23 17 -31
18 -56 8 -27 -11 -36 -9 -98 23 -38 19 -75 45 -82 56 -7 11 -17 18 -22 15 -5
-3 -12 0 -16 6 -4 8 -3 9 4 5 24 -15 11 13 -32 68 -23 30 -47 52 -51 48 -5 -4
-5 -2 -1 5 4 7 2 20 -3 30 -5 10 -15 39 -22 66 -6 26 -16 50 -20 53 -17 10
-10 95 11 123 59 84 37 181 -62 275 -34 33 -66 60 -70 60 -3 1 -10 5 -15 10
-5 5 -3 6 5 2 17 -10 15 0 -5 25 -55 68 -195 228 -221 253 -29 27 -35 28 -132
31 -118 3 -138 13 -182 91 -22 41 -26 57 -22 99 3 31 0 67 -9 92 -12 36 -12
44 2 66 13 22 13 30 1 51 -7 14 -21 28 -30 31 -20 6 -163 174 -163 191 0 7 -3
11 -7 9 -4 -2 -24 14 -45 35 -22 22 -35 40 -31 40 5 0 3 7 -4 15 -6 8 -15 13
-19 12 -8 -2 -81 59 -81 68 0 4 6 3 13 -1 8 -5 8 -3 -2 9 -7 9 -17 15 -21 12
-5 -3 -11 -1 -15 5 -4 6 -10 8 -15 5 -4 -3 -14 3 -21 12 -10 12 -10 14 -1 9
16 -9 15 -1 -4 63 -14 49 -14 53 4 69 10 9 34 37 53 62 19 25 44 53 56 63 13
10 23 26 23 35 0 14 2 15 10 2 7 -12 12 -12 29 4 54 49 29 130 -54 170 -29 15
-58 33 -65 41 -7 8 -16 13 -20 10 -5 -3 -6 3 -4 12 3 11 -8 31 -24 48 -15 17
-40 48 -55 70 -15 22 -29 38 -31 35 -3 -3 -8 -1 -13 4 -5 5 -3 6 5 2 6 -4 12
-5 12 -3 0 10 -72 112 -75 107 -2 -3 -7 -1 -12 4 -5 5 -3 6 5 2 22 -13 12 5
-38 66 -27 34 -47 65 -44 69 2 4 -8 16 -22 26 -54 36 -198 197 -199 223 -1 12
-17 30 -24 26 -13 -9 -84 71 -76 85 5 7 4 10 -3 5 -6 -4 -16 4 -23 16 -6 13
-20 32 -30 43 -10 11 -18 25 -18 30 -1 6 -6 10 -13 10 -7 0 -35 38 -63 84 -28
46 -54 82 -57 80 -9 -6 -48 33 -42 42 2 4 -5 13 -16 19 -11 6 -17 16 -14 22 4
6 3 8 -4 4 -6 -3 -13 -2 -17 4 -4 6 -10 8 -15 5 -5 -3 -12 0 -16 6 -4 8 -3 9
4 5 18 -11 14 3 -9 35 -11 16 -17 34 -13 40 4 8 3 9 -4 5 -6 -3 -16 3 -22 14
-6 11 -15 18 -20 15 -5 -3 -12 0 -16 6 -4 8 -3 9 4 5 20 -12 14 2 -24 54 -49
68 -57 161 -25 293 45 186 69 331 59 351 -6 11 -6 16 0 13 5 -4 11 34 15 93 6
92 41 245 68 293 18 33 56 151 67 212 17 88 2 196 -37 276 -18 35 -38 83 -46
106 -19 61 -76 144 -142 205 -86 81 -162 162 -189 202 -29 42 -54 117 -54 162
0 17 -7 48 -15 67 -8 20 -15 55 -15 77 0 45 -16 84 -30 75 -6 -3 -7 1 -4 9 3
8 -10 46 -30 83 -20 37 -36 72 -36 78 0 14 -106 116 -145 140 -16 10 -38 29
-47 41 -28 35 -100 54 -197 53 -47 0 -108 -6 -134 -12z m141 -93 c23 0 42 4
42 9 0 5 7 1 16 -7 8 -9 19 -16 24 -16 5 0 11 -13 15 -30 7 -33 48 -70 77 -70
10 0 30 11 44 25 l24 24 31 -42 c17 -23 34 -41 37 -40 4 1 8 -8 8 -20 2 -28
39 -134 59 -169 8 -14 15 -36 15 -48 0 -11 5 -18 10 -15 12 8 13 -17 1 -30
-13 -15 6 -163 29 -230 12 -33 22 -65 22 -72 1 -7 5 -10 9 -7 4 2 13 -6 20
-18 6 -13 41 -56 76 -95 36 -40 62 -73 58 -73 -4 0 -2 -7 5 -15 7 -8 16 -13
20 -10 8 5 120 -113 118 -124 -1 -3 6 -30 15 -60 9 -30 17 -65 17 -77 0 -12
11 -36 25 -52 14 -17 25 -35 25 -42 0 -6 5 -8 12 -4 7 5 8 3 3 -6 -8 -13 -8
-42 0 -165 2 -27 -1 -57 -6 -66 -5 -10 -3 -21 4 -29 9 -10 9 -11 -1 -6 -10 6
-12 -2 -11 -31 1 -21 -5 -60 -13 -88 -50 -161 -54 -177 -63 -272 -3 -37 -8
-87 -11 -111 -6 -62 -64 -332 -79 -367 -13 -32 -14 -70 -2 -81 4 -4 6 -23 6
-43 l-2 -36 -8 40 c-5 29 -7 16 -5 -50 2 -78 6 -98 29 -139 15 -27 24 -53 20
-59 -3 -5 -1 -7 4 -4 6 4 28 -23 49 -60 22 -36 61 -89 88 -117 27 -28 49 -54
48 -59 -1 -4 3 -6 10 -5 6 2 16 -6 22 -17 6 -11 19 -32 29 -47 11 -15 15 -33
11 -39 -4 -7 -3 -9 4 -5 6 3 18 -7 28 -23 10 -17 22 -27 28 -24 6 3 8 3 4 -2
-10 -10 10 -46 39 -68 12 -10 35 -38 49 -63 14 -24 30 -44 36 -44 6 0 8 -6 5
-14 -3 -8 2 -20 11 -28 15 -12 16 -11 3 7 -7 11 -2 8 12 -7 26 -27 44 -38 32
-18 -10 16 1 11 16 -7 10 -11 10 -14 2 -9 -7 4 -13 3 -13 -3 0 -5 5 -13 10
-16 6 -4 8 -11 4 -16 -3 -5 -1 -8 4 -7 5 2 40 -31 78 -73 78 -86 138 -141 147
-133 3 3 4 -3 3 -13 0 -9 4 -18 11 -18 6 0 15 -4 20 -9 5 -5 3 -6 -4 -2 -24
14 -12 -9 27 -54 22 -24 40 -48 40 -53 0 -4 4 -5 10 -2 6 3 7 -1 4 -9 -4 -9 5
-29 20 -47 14 -17 23 -36 20 -41 -4 -6 -2 -8 3 -5 6 4 14 0 17 -9 3 -8 11 -12
17 -8 8 4 9 3 5 -5 -4 -6 2 -24 13 -40 11 -15 17 -31 13 -35 -4 -4 -2 -6 4 -4
6 2 33 -21 59 -50 26 -29 53 -51 60 -48 23 8 11 -21 -16 -39 -15 -11 -40 -40
-55 -67 -15 -26 -34 -50 -42 -53 -14 -5 -74 53 -66 66 2 4 1 9 -4 11 -17 7
-63 78 -57 88 4 6 3 9 -2 8 -13 -4 -74 68 -65 77 4 5 2 5 -4 2 -10 -6 -44 25
-44 41 0 4 -9 13 -21 20 -12 8 -18 19 -15 27 3 8 2 14 -2 12 -10 -3 -62 49
-62 63 0 5 -5 10 -12 10 -6 0 -9 2 -6 5 3 3 -24 34 -60 68 -130 124 -166 163
-200 217 -20 30 -54 75 -76 99 -23 24 -40 48 -38 55 2 6 1 8 -3 4 -4 -4 -16 2
-27 12 -17 16 -23 16 -46 5 -15 -7 -54 -18 -87 -23 -99 -16 -155 -35 -155 -52
0 -6 -4 -8 -10 -5 -5 3 -10 1 -10 -5 0 -6 -11 -16 -25 -22 -15 -7 -24 -17 -21
-25 3 -8 2 -12 -3 -9 -5 3 -14 -8 -21 -24 -7 -17 -25 -47 -41 -66 -36 -46 -44
-71 -27 -91 9 -12 9 -15 0 -9 -8 5 -16 -2 -22 -20 -6 -15 -22 -40 -35 -56 -14
-16 -25 -35 -25 -42 0 -7 -11 -27 -25 -46 -16 -22 -25 -47 -25 -72 0 -40 2
-41 59 -38 28 1 33 -1 28 -15 -4 -9 -3 -14 2 -11 5 3 16 -5 25 -19 9 -14 14
-25 11 -25 -3 0 3 -9 13 -19 9 -11 29 -32 43 -48 14 -15 41 -48 60 -73 19 -24
42 -53 52 -64 9 -11 17 -23 17 -27 0 -4 12 -21 26 -38 14 -17 22 -36 18 -42
-4 -7 -3 -9 3 -6 6 4 18 -5 28 -19 9 -14 19 -23 22 -20 4 3 12 1 20 -5 9 -8
13 -8 13 -1 0 6 -5 14 -11 17 -6 4 -8 14 -5 22 3 8 2 12 -3 9 -5 -3 -20 11
-33 32 -14 20 -44 59 -66 86 -23 28 -40 52 -37 54 2 2 -12 17 -31 34 -19 16
-31 35 -27 41 3 6 1 7 -5 3 -7 -4 -12 -4 -12 1 0 4 -16 25 -36 45 -20 22 -32
43 -28 50 4 6 3 8 -3 5 -6 -4 -18 9 -27 28 -18 38 -38 55 -44 37 -8 -25 -22
-11 -22 21 0 21 8 41 20 52 11 10 20 23 20 29 0 11 10 32 48 98 11 20 24 53
28 72 3 20 13 40 21 45 8 4 14 10 13 12 -1 2 7 23 18 47 13 29 37 56 78 86 62
45 111 62 208 71 33 3 63 8 68 11 4 3 8 1 8 -4 0 -4 12 -22 28 -40 47 -54 57
-66 91 -117 19 -28 86 -101 150 -162 64 -62 112 -113 106 -113 -5 0 1 -7 13
-16 14 -9 21 -22 18 -31 -3 -8 -1 -11 4 -8 6 3 10 3 10 -2 0 -4 16 -25 36 -45
20 -22 32 -43 28 -50 -4 -7 -3 -8 4 -4 7 4 12 4 12 -1 0 -4 16 -26 36 -48 20
-22 67 -84 106 -138 38 -53 74 -95 79 -91 5 3 4 -7 -1 -21 -24 -62 6 -242 45
-275 8 -7 13 -16 10 -20 -3 -5 0 -12 6 -16 8 -5 10 -2 4 7 -4 8 6 1 22 -16 16
-16 57 -55 92 -85 34 -30 70 -64 79 -74 10 -11 35 -38 57 -61 113 -117 165
-179 137 -161 -8 5 -12 -1 -12 -18 0 -30 10 -57 19 -52 3 2 7 -29 9 -70 2 -41
7 -88 12 -105 11 -37 58 -101 70 -94 4 2 7 -3 6 -12 0 -9 19 -32 44 -51 43
-33 46 -34 112 -27 59 5 68 4 68 -10 0 -9 10 -26 23 -38 58 -56 103 -92 110
-89 5 1 5 -3 2 -9 -9 -13 54 -81 68 -72 6 3 7 1 4 -4 -8 -13 92 -154 113 -161
13 -5 13 -3 0 14 -14 18 -14 18 2 5 10 -7 16 -17 13 -21 -3 -4 9 -22 25 -40
36 -38 38 -61 8 -101 -31 -42 -32 -173 -1 -236 11 -24 23 -40 26 -36 4 3 7 1
7 -5 0 -6 -4 -13 -10 -17 -15 -10 5 -50 73 -141 34 -47 62 -90 62 -97 0 -7 6
-13 13 -13 6 -1 14 -2 17 -3 3 0 7 0 9 2 8 5 45 -36 40 -44 -6 -10 171 -101
180 -92 3 4 6 2 7 -3 0 -5 2 -18 4 -29 2 -11 7 -36 10 -55 9 -54 16 -71 25
-65 4 3 6 -5 2 -17 -4 -17 -2 -20 11 -15 10 4 14 1 12 -6 -6 -17 70 -143 84
-139 6 1 10 -2 9 -8 -4 -14 97 -94 161 -126 42 -22 74 -30 128 -32 l72 -4 20
-52 c12 -28 22 -60 24 -71 10 -53 20 -76 33 -71 7 3 11 0 9 -7 -6 -17 120 -88
160 -90 18 -1 31 -5 29 -9 -4 -7 81 -38 105 -38 23 0 131 -46 148 -62 33 -33
80 -88 74 -88 -3 0 -6 -99 -6 -219 0 -121 3 -217 8 -214 4 2 7 -1 7 -6 0 -6
-4 -11 -10 -11 -6 0 -10 -36 -11 -87 -1 -49 -4 -113 -8 -143 l-6 -55 -33 44
c-34 46 -83 102 -230 258 -47 51 -90 100 -95 109 -5 9 -17 24 -26 33 -9 9 -42
48 -73 86 -30 39 -70 83 -86 99 -17 16 -29 34 -25 39 3 6 1 7 -4 4 -6 -4 -21
7 -33 23 -22 28 -49 43 -34 18 4 -7 3 -8 -5 -4 -6 4 -9 11 -6 16 7 11 -166
180 -178 173 -6 -3 -7 -1 -3 5 7 12 -50 69 -65 65 -4 -2 -6 3 -3 10 4 12 -160
172 -177 172 -4 0 -11 4 -16 9 -5 5 -3 6 5 2 31 -18 6 14 -45 58 -65 56 -220
213 -263 266 -16 19 -56 69 -89 110 -33 41 -95 112 -138 157 -113 119 -138
154 -126 168 5 4 3 5 -3 2 -6 -3 -21 8 -34 26 -14 17 -54 63 -91 102 -37 38
-83 90 -104 115 -20 25 -76 86 -124 135 -48 50 -123 137 -167 195 -43 57 -103
130 -131 161 -29 31 -49 59 -45 63 4 4 2 6 -4 4 -7 -2 -40 27 -74 65 -34 37
-67 64 -72 60 -7 -3 -8 -1 -4 5 8 13 -70 93 -87 89 -6 -1 -11 5 -12 14 0 10
-17 35 -37 58 -21 22 -38 43 -38 47 0 4 -17 24 -37 44 -21 21 -47 48 -59 61
-11 13 -32 33 -45 45 -24 20 -102 109 -127 146 -8 10 -25 30 -38 43 -14 14
-22 30 -19 35 4 6 1 9 -5 8 -7 -2 -40 29 -74 68 -91 105 -103 120 -129 161
-14 21 -54 76 -91 121 -36 46 -63 89 -59 94 3 7 1 8 -5 4 -6 -4 -19 5 -28 19
-9 14 -22 24 -29 21 -7 -2 -18 1 -24 7 -6 6 -11 7 -11 1 0 -16 100 -129 111
-126 6 1 7 -2 4 -9 -4 -6 4 -23 18 -37 14 -15 33 -41 44 -58 54 -92 127 -185
218 -279 28 -28 73 -80 102 -116 78 -95 113 -130 125 -123 7 4 8 2 4 -4 -7
-12 71 -89 86 -84 5 1 7 -2 3 -8 -4 -6 5 -24 19 -41 15 -17 24 -35 20 -40 -3
-5 -1 -8 3 -7 5 2 38 -28 74 -66 85 -91 138 -141 152 -141 7 -1 11 -7 9 -14
-4 -18 58 -82 71 -74 6 3 7 1 3 -5 -4 -6 13 -33 38 -59 25 -26 68 -75 96 -108
28 -33 55 -60 60 -60 5 0 12 -4 17 -9 5 -5 3 -6 -4 -2 -24 13 -13 -10 24 -55
60 -73 116 -128 124 -124 3 3 6 -3 5 -13 0 -10 6 -16 16 -16 10 1 16 -2 13 -6
-7 -11 56 -81 66 -74 4 2 11 -1 15 -7 4 -8 3 -9 -4 -5 -32 19 -3 -18 76 -99
86 -90 127 -137 198 -231 21 -27 56 -68 78 -92 23 -24 41 -48 41 -55 1 -7 6
-11 12 -10 16 3 75 -66 67 -79 -4 -6 -3 -8 3 -5 10 6 18 -2 75 -79 13 -16 31
-39 41 -49 10 -11 37 -41 60 -66 23 -25 56 -61 72 -80 56 -62 147 -139 157
-133 6 4 8 2 5 -4 -4 -5 129 -146 295 -314 167 -167 334 -344 372 -393 88
-114 191 -233 311 -360 65 -70 95 -107 91 -114 -7 -11 40 -35 53 -27 7 5 11
-3 11 -21 0 -33 -33 -175 -51 -218 -16 -40 -17 -43 -31 -96 -10 -39 -17 -48
-46 -59 -26 -9 -31 -14 -21 -21 9 -5 -16 -9 -64 -9 -44 0 -76 4 -73 9 4 5 -12
7 -34 5 -21 -2 -42 1 -45 6 -3 5 -29 25 -58 44 -29 20 -68 49 -87 66 -86 76
-180 141 -191 134 -7 -4 -10 -3 -6 3 4 6 -12 28 -36 50 -61 57 -163 180 -200
241 -18 29 -37 50 -44 48 -7 -3 -15 0 -19 6 -4 7 -3 8 4 4 17 -10 15 9 -3 24
-8 7 -12 17 -8 23 3 5 1 7 -5 3 -6 -3 -20 7 -32 24 -12 17 -25 28 -30 25 -5
-3 -12 0 -16 6 -4 8 -3 9 4 5 22 -13 12 6 -34 67 -25 34 -68 100 -96 147 -28
47 -65 104 -84 126 -18 23 -30 44 -27 48 4 3 1 6 -5 6 -7 0 -12 6 -12 14 0 7
-7 20 -17 27 -21 18 -88 122 -85 132 1 5 -1 6 -6 3 -5 -3 -24 14 -43 37 -19
22 -49 57 -66 77 -18 19 -33 38 -33 42 0 4 -33 47 -74 97 -41 49 -72 92 -68
97 4 4 2 4 -4 1 -7 -4 -23 8 -37 26 -13 17 -68 77 -122 132 -53 55 -114 123
-135 150 -20 28 -50 64 -66 81 -68 74 -178 221 -179 239 -1 6 -6 9 -12 8 -14
-3 -169 165 -165 179 1 5 -2 7 -7 4 -5 -4 -12 -2 -16 4 -4 6 -10 8 -15 5 -5
-3 -12 0 -16 6 -4 8 -3 9 4 5 18 -11 14 3 -8 26 -10 12 -17 26 -13 31 3 6 1 7
-5 3 -6 -3 -20 5 -31 20 -11 14 -25 23 -30 20 -5 -4 -13 -1 -17 5 -4 8 -3 9 4
5 20 -12 13 10 -8 29 -11 10 -17 22 -13 28 3 6 1 7 -6 3 -11 -7 -83 42 -107
73 -7 8 -16 11 -24 6 -9 -5 -11 -4 -6 4 8 12 -72 108 -86 104 -4 -2 -5 4 -2
11 4 9 -34 55 -103 123 -59 59 -106 112 -105 118 2 5 0 6 -4 2 -8 -8 -134 110
-134 126 0 4 -42 50 -92 102 -90 90 -165 172 -245 265 -21 25 -91 98 -156 163
-65 64 -115 122 -112 127 4 6 2 9 -2 8 -14 -4 -94 92 -87 103 3 5 1 8 -4 7 -5
-2 -35 29 -67 67 -31 39 -83 97 -114 130 -32 33 -86 94 -122 135 -35 41 -68
80 -74 86 -30 32 -70 89 -70 98 0 6 -6 12 -12 12 -7 1 -15 3 -18 4 -3 1 -10 3
-17 4 -6 0 -12 11 -13 23 -1 19 -60 99 -106 145 -10 10 -30 34 -46 55 -15 21
-36 47 -45 57 -19 21 -24 41 -8 31 6 -3 10 1 10 9 0 9 -3 16 -7 17 -5 0 -17 3
-28 6 -39 11 -91 6 -160 -14 -36 -10 -104 -57 -108 -75 -3 -9 3 -24 13 -33 10
-9 19 -31 19 -48 0 -55 5 -76 15 -70 6 4 6 -1 2 -13 -4 -10 -4 -15 0 -12 6 7
34 -15 34 -26 0 -8 164 -180 320 -336 69 -69 150 -153 179 -187 30 -35 58 -60
64 -56 6 4 7 1 2 -6 -4 -7 2 -22 14 -35 12 -13 21 -29 19 -37 -2 -7 2 -13 8
-14 15 0 160 -155 156 -167 -1 -5 2 -7 7 -4 5 3 33 -27 63 -66 29 -40 62 -81
73 -90 11 -10 16 -17 10 -18 -5 0 7 -17 27 -37 20 -21 45 -56 57 -77 24 -46
161 -207 170 -201 4 2 7 -5 8 -15 1 -11 36 -52 78 -92 43 -40 90 -92 106 -115
16 -23 35 -48 43 -55 32 -32 104 -126 128 -168 26 -45 105 -134 276 -309 50
-52 92 -99 92 -104 0 -5 24 -37 53 -70 30 -34 66 -79 81 -99 16 -21 33 -35 39
-31 5 3 7 1 4 -5 -4 -5 8 -28 27 -51 50 -59 63 -71 71 -63 5 4 5 1 1 -6 -5 -8
7 -31 31 -59 21 -26 56 -74 79 -108 22 -33 45 -60 51 -60 17 0 26 -12 15 -19
-10 -6 -93 78 -201 204 -35 41 -87 99 -115 128 -28 29 -54 59 -59 67 -4 8 -13
15 -19 15 -6 0 -5 -7 3 -17 12 -16 11 -16 -8 0 -12 11 -20 24 -17 31 4 10 -50
60 -66 61 -12 1 -30 17 -26 24 6 10 -124 154 -132 146 -7 -7 -43 26 -37 35 3
4 -10 24 -28 44 -33 35 -55 48 -41 24 4 -8 3 -9 -2 -5 -5 5 -9 15 -9 23 0 8
-57 71 -126 141 -69 71 -133 139 -142 153 -9 14 -115 126 -236 250 -237 243
-354 377 -344 393 3 6 1 7 -5 3 -6 -3 -13 -2 -17 4 -4 6 -11 8 -16 5 -5 -3 -6
1 -3 10 4 9 -1 24 -10 34 -9 10 -14 21 -11 24 3 4 2 5 -2 2 -9 -7 -53 36 -53
52 0 7 -12 19 -26 25 -22 10 -28 10 -39 -6 -13 -16 -14 -16 -19 2 -7 21 -71
52 -107 52 -33 0 -83 -25 -117 -59 -31 -31 -35 -32 -101 -29 -38 2 -69 5 -68
8 2 7 -64 75 -74 75 -4 0 -11 4 -16 9 -5 5 -3 6 5 2 30 -18 5 18 -85 119 -53
61 -100 109 -105 107 -5 -1 -7 2 -3 7 3 6 -1 21 -9 33 -8 13 -15 28 -16 33 0
6 -4 11 -10 11 -5 1 -13 3 -17 4 -5 1 -11 2 -14 2 -4 -1 -15 9 -25 21 l-19 22
23 -19 c27 -23 30 -6 2 19 -10 9 -18 20 -17 24 1 3 -2 7 -6 8 -14 3 -102 88
-99 95 1 5 -2 7 -6 5 -5 -1 -40 21 -78 49 -123 90 -239 161 -401 244 -87 45
-162 85 -168 90 -18 14 -66 18 -103 9 -122 -30 -226 -40 -392 -38 -172 3 -176
2 -245 -26 -55 -23 -88 -29 -156 -31 -48 -1 -96 -7 -108 -13 -11 -6 -51 -11
-88 -11 -78 1 -114 -2 -108 -9 3 -2 -2 -12 -11 -22 -28 -31 -56 -7 -86 74 -25
65 -51 163 -51 195 0 6 -4 12 -9 12 -4 0 -8 7 -8 16 0 8 -4 12 -10 9 -5 -3 -7
0 -4 8 3 9 -30 50 -90 110 -118 117 -182 152 -377 208 -79 23 -160 49 -179 59
-52 28 -150 129 -191 198 -20 34 -39 59 -43 57 -3 -3 -2 0 3 6 5 6 -1 37 -16
77 -42 116 -44 132 -21 161 17 23 20 39 18 141 -1 63 0 126 2 140 1 14 -2 24
-7 23 -16 -3 -12 40 6 68 10 14 32 41 50 61 19 20 41 45 49 56 9 12 30 36 47
55 40 44 56 74 47 90 -4 6 -4 9 1 5 11 -10 87 122 81 139 -3 8 -2 12 3 9 4 -3
14 6 21 19 7 13 18 22 23 18 6 -4 7 -1 2 6 -4 8 1 24 12 39 11 15 47 84 80
154 46 96 58 129 49 139 -7 8 -7 10 0 6 13 -8 88 227 81 254 -3 10 0 17 5 16
12 -2 15 12 24 103 5 52 1 87 -20 170 -29 117 -32 176 -11 235 10 29 11 43 3
53 -9 10 -8 12 2 10 14 -3 15 2 29 143 13 132 46 197 136 269 36 28 81 71 100
94 19 24 69 65 110 91 41 27 75 53 75 57 0 5 -4 6 -10 3 -16 -10 -11 1 7 16
11 10 14 10 9 2 -12 -21 1 -15 48 21 25 19 42 37 38 42 -4 4 -2 4 4 1 12 -7
47 18 109 78 23 22 65 53 93 68 66 36 235 77 316 77 67 0 168 -22 203 -45 15
-10 24 -11 29 -4 4 8 9 8 13 1 6 -10 71 -27 205 -54 27 -5 133 -8 235 -6 166
3 198 7 298 33 68 17 108 32 100 37 -6 4 -7 8 -2 8 6 0 16 -5 22 -11 7 -7 17
-8 29 -1 20 11 263 72 304 77 82 10 116 17 182 39 40 13 100 29 133 36 33 7
69 16 80 21 11 4 40 13 65 20 24 6 66 22 92 35 26 13 61 24 78 24 17 0 30 5
30 13 0 8 3 8 8 1 4 -5 26 -10 50 -10z m-346 -4032 c-1 -8 2 -11 7 -8 4 3 20
-11 33 -32 14 -20 39 -53 56 -72 68 -78 112 -135 112 -146 0 -7 26 -41 58 -76
32 -35 84 -97 117 -138 33 -41 66 -82 75 -91 14 -16 71 -80 141 -159 17 -19
47 -55 67 -80 20 -25 44 -52 52 -60 9 -8 23 -27 33 -42 9 -15 46 -61 82 -102
35 -40 61 -77 57 -81 -4 -5 -2 -5 4 -2 14 8 197 -170 189 -183 -4 -6 -3 -9 2
-8 15 5 85 -80 77 -93 -4 -7 -3 -9 3 -6 5 3 35 -21 67 -54 56 -58 75 -72 60
-46 -4 6 -4 9 0 5 4 -3 8 -10 8 -15 0 -4 19 -28 41 -53 23 -25 71 -79 107
-119 73 -84 112 -124 158 -163 33 -29 48 -36 36 -16 -5 7 -3 8 5 4 7 -5 10
-11 6 -14 -7 -8 66 -82 76 -76 4 2 11 -1 15 -7 4 -8 3 -9 -4 -5 -7 4 -12 3
-12 -3 0 -5 3 -11 8 -13 4 -1 27 -28 51 -58 62 -77 184 -191 198 -185 7 2 15
-1 19 -7 4 -7 3 -8 -4 -4 -21 13 -13 -10 11 -31 21 -19 136 -141 230 -244 23
-25 65 -70 92 -100 75 -81 175 -215 167 -224 -4 -5 -1 -5 6 -1 7 4 15 1 18 -9
4 -9 13 -14 20 -11 7 3 16 0 20 -6 4 -7 3 -8 -4 -4 -22 13 -12 -6 21 -43 17
-21 41 -49 52 -63 11 -14 64 -72 117 -129 176 -189 203 -221 203 -239 0 -8 6
-15 13 -15 7 0 25 -18 40 -41 33 -50 78 -104 87 -104 3 0 3 5 -1 12 -4 7 -3 8
4 4 6 -4 9 -12 7 -19 -3 -7 14 -33 37 -58 57 -62 100 -116 118 -148 8 -14 18
-28 21 -31 11 -10 69 -99 69 -107 0 -4 20 -39 45 -78 25 -38 45 -73 45 -77 0
-4 16 -29 36 -55 20 -27 45 -61 57 -77 12 -16 32 -40 45 -55 13 -14 49 -61 82
-103 32 -42 60 -74 63 -72 3 3 8 0 13 -7 4 -8 3 -10 -4 -5 -22 13 -12 -7 23
-48 106 -124 119 -137 132 -132 8 3 12 2 9 -3 -7 -10 48 -62 102 -95 23 -15
40 -31 37 -36 -3 -6 1 -7 9 -4 10 4 18 -1 22 -11 4 -9 13 -14 20 -11 7 3 16 0
20 -6 4 -7 3 -8 -4 -4 -7 4 -12 3 -12 -2 0 -6 7 -12 15 -16 8 -3 14 -11 13
-18 -2 -7 4 -12 12 -13 9 0 35 -16 58 -36 l41 -35 -141 -2 c-77 -1 -143 -4
-146 -7 -9 -8 -32 17 -25 28 3 6 1 7 -5 3 -11 -7 -75 78 -75 100 0 7 -3 12 -6
11 -3 -1 -35 29 -71 66 -36 37 -65 67 -63 67 1 0 -20 20 -46 45 -46 43 -77 61
-51 30 20 -24 5 -18 -16 7 -10 12 -13 18 -6 14 13 -8 17 6 5 18 -5 4 -8 13 -8
19 0 7 -5 12 -12 12 -6 0 -26 14 -44 30 -86 77 -141 115 -123 83 4 -8 3 -10
-2 -5 -5 5 -9 12 -9 16 0 9 -52 71 -60 71 -3 0 -3 -6 1 -12 4 -7 -2 -5 -13 5
-13 11 -20 28 -18 43 1 13 -2 27 -8 31 -6 3 -7 1 -3 -5 14 -22 -6 -12 -26 13
-11 14 -24 25 -30 25 -6 0 -5 -7 3 -17 13 -16 12 -17 -3 -4 -10 7 -16 17 -13
21 3 5 -16 28 -42 52 -92 83 -243 241 -238 248 3 4 -2 13 -10 20 -8 7 -15 9
-15 4 0 -4 -16 7 -35 26 -19 18 -32 36 -30 40 3 4 -2 13 -10 20 -8 7 -15 9
-15 5 0 -4 -7 -2 -15 5 -8 7 -15 9 -15 4 0 -4 -6 -2 -12 4 -7 7 -13 26 -13 43
0 16 -10 42 -23 57 -12 15 -39 46 -59 70 -20 23 -48 60 -62 81 -61 90 -87 120
-99 116 -7 -3 -11 -1 -8 4 3 5 -3 19 -14 31 -11 12 -17 27 -13 33 3 5 1 7 -5
3 -6 -3 -32 19 -59 50 -26 31 -88 101 -138 156 -49 54 -101 119 -115 142 -14
24 -36 57 -50 75 -14 17 -47 60 -74 94 -27 34 -54 67 -60 72 -21 18 -86 102
-86 110 0 5 -20 31 -45 59 -25 28 -83 94 -129 146 -45 52 -88 95 -94 95 -6 0
-17 7 -24 15 -11 12 -11 12 5 1 34 -26 16 7 -23 43 -22 20 -40 38 -40 41 0 10
-84 80 -92 77 -5 -1 -7 2 -3 8 4 6 -12 36 -35 66 -22 30 -38 59 -35 64 4 6 3
9 -2 8 -13 -4 -74 68 -65 77 4 5 2 5 -5 1 -7 -4 -34 23 -69 69 -31 42 -74 90
-95 107 -21 17 -59 57 -84 89 -26 33 -50 57 -55 54 -5 -3 -12 0 -16 6 -4 8 -3
9 4 5 26 -16 9 8 -40 61 -29 30 -59 67 -67 81 -7 15 -20 35 -28 44 -8 9 -12
22 -7 29 4 7 3 10 -4 5 -6 -3 -13 -2 -17 4 -4 6 -10 8 -15 5 -5 -3 -12 0 -16
6 -4 8 -3 9 4 5 22 -14 12 6 -29 54 -23 27 -45 47 -50 45 -4 -3 -11 0 -15 6
-4 8 -3 9 4 5 31 -19 -15 52 -67 105 -93 93 -177 187 -248 275 -45 56 -117
135 -159 175 -42 41 -95 93 -117 116 -22 23 -44 40 -48 37 -5 -3 -6 1 -3 9 3
8 -2 20 -10 27 -9 7 -13 17 -9 23 3 5 1 7 -4 4 -6 -4 -36 20 -67 53 -34 35
-62 57 -69 53 -7 -3 -9 -3 -5 2 4 4 -1 19 -12 33 -11 13 -17 28 -14 33 3 5 0
8 -7 7 -17 -4 -59 76 -54 102 2 12 -5 30 -16 41 -25 25 -13 44 43 69 46 20
154 22 150 2z"/>
<path d="M4932 9921 c-34 -10 -65 -19 -67 -20 -3 0 -10 -1 -16 -1 -5 0 -7 -6
-3 -12 6 -10 5 -10 -7 -1 -21 17 -77 2 -138 -38 -28 -18 -61 -34 -74 -35 -12
-1 -74 -7 -137 -12 -137 -12 -204 -26 -247 -52 -17 -10 -53 -21 -80 -25 -67
-9 -175 -54 -169 -71 3 -8 0 -11 -9 -8 -7 3 -16 -3 -19 -13 -9 -28 6 -242 18
-262 2 -3 7 -49 11 -101 4 -52 10 -116 14 -142 5 -27 9 -84 10 -128 2 -77 1
-82 -39 -150 -22 -38 -45 -70 -49 -70 -5 0 -11 -9 -14 -20 -17 -67 94 66 118
140 12 39 13 104 1 119 -8 11 -8 13 2 7 9 -5 12 4 12 34 0 27 -4 39 -11 34 -8
-4 -7 0 1 15 6 12 8 32 4 44 -4 12 -8 61 -9 108 -2 47 -8 112 -15 145 -19 87
-19 222 0 234 8 5 18 6 22 4 4 -3 8 0 8 5 0 6 9 11 19 11 11 0 22 4 25 9 3 4
29 11 57 15 29 4 73 18 99 31 26 13 56 24 66 24 11 -1 30 2 44 5 14 3 63 9
110 11 129 8 190 22 243 55 27 17 55 30 63 30 9 0 64 12 123 26 81 20 119 25
154 20 26 -4 45 -11 42 -16 -3 -5 4 -14 16 -21 18 -9 21 -9 17 2 -6 15 17 19
102 19 49 0 93 -17 83 -33 -4 -7 1 -8 13 -3 14 5 16 4 8 -4 -9 -9 -8 -18 2
-38 8 -16 14 -58 14 -105 0 -46 6 -92 15 -113 8 -20 12 -41 8 -47 -3 -5 -1 -7
5 -3 6 3 13 -3 17 -14 4 -12 11 -17 18 -13 9 5 9 3 1 -8 -5 -8 -10 -18 -9 -24
4 -31 30 -106 51 -147 13 -26 24 -60 24 -75 0 -15 9 -47 19 -69 21 -45 149
-180 201 -210 26 -16 30 -23 25 -44 -10 -41 -5 -121 9 -149 7 -14 16 -39 20
-54 4 -15 10 -26 14 -23 8 5 10 -1 18 -85 4 -42 1 -65 -11 -89 -13 -24 -14
-35 -4 -46 6 -8 7 -14 2 -14 -6 0 -13 -17 -17 -37 -3 -21 -22 -78 -42 -128
-20 -49 -44 -111 -54 -137 -10 -26 -27 -62 -38 -80 -47 -77 -101 -188 -121
-249 -12 -36 -36 -88 -53 -115 -50 -78 -119 -224 -112 -236 4 -6 3 -8 -3 -5
-5 3 -34 -31 -64 -75 -30 -45 -111 -140 -181 -212 -72 -73 -126 -137 -123
-144 3 -7 1 -11 -4 -8 -4 3 -16 -3 -26 -14 -10 -11 -22 -17 -28 -13 -5 3 -7 1
-4 -4 9 -14 -63 -104 -76 -96 -5 3 -7 1 -4 -4 8 -13 -81 -95 -206 -192 -110
-84 -151 -111 -171 -111 -8 0 -37 -18 -65 -40 -47 -37 -234 -140 -255 -140 -5
0 -30 -13 -55 -30 -26 -16 -89 -45 -141 -64 -125 -45 -165 -63 -355 -158 -146
-72 -312 -177 -300 -190 3 -2 -5 -4 -18 -3 -12 1 -24 -1 -27 -5 -6 -8 -156
-54 -230 -70 -30 -7 -74 -18 -98 -26 -58 -19 -62 -18 -103 19 -20 18 -55 41
-78 51 -22 11 -41 22 -41 26 0 4 -15 7 -34 8 -47 2 -104 38 -125 81 -11 20
-33 52 -50 71 -48 53 -102 141 -94 153 3 5 1 7 -4 4 -6 -4 -16 7 -23 23 -7 16
-17 27 -23 23 -6 -4 -7 -1 -3 6 19 31 -28 102 -81 122 -35 13 -243 41 -264 36
-11 -3 -16 0 -13 7 6 16 -43 39 -140 65 -44 12 -85 25 -92 29 -33 18 -107 143
-111 187 -8 89 -10 161 -5 170 4 6 7 16 9 24 6 45 19 67 71 128 76 90 115 143
105 143 -4 0 -3 4 2 8 12 9 55 69 55 77 0 3 -5 3 -12 -1 -7 -4 -8 -3 -4 4 4 6
13 9 21 5 8 -3 15 0 15 6 0 16 100 160 121 175 33 23 47 75 39 147 -4 37 -14
77 -23 89 -16 22 -12 54 12 99 10 17 20 21 55 19 24 -2 42 -6 40 -9 -2 -4 3
-10 12 -13 8 -3 12 -11 8 -17 -4 -7 -3 -9 4 -5 6 3 16 0 24 -7 21 -21 78 -59
78 -52 0 8 80 -34 117 -63 20 -15 41 -22 53 -19 11 3 18 2 15 -3 -3 -4 10 -13
28 -20 17 -6 47 -18 65 -26 45 -19 56 -18 156 15 55 18 94 38 103 51 8 12 21
19 29 16 8 -3 13 -1 11 3 -2 8 49 61 58 61 4 0 16 9 67 53 12 9 24 17 28 17 4
0 29 21 56 46 53 50 124 100 137 96 5 -1 6 2 3 7 -4 5 -2 12 4 16 6 4 7 11 4
17 -4 7 -2 8 4 4 6 -4 29 9 50 28 22 20 43 32 47 28 5 -4 6 -2 2 4 -3 5 24 32
60 60 93 70 174 145 167 156 -3 4 -1 7 5 6 15 -4 102 83 94 95 -3 6 -1 7 5 3
12 -7 116 74 216 168 32 31 62 53 67 50 5 -3 8 -2 7 3 -1 4 25 35 60 67 65 62
71 73 47 82 -10 4 -33 -12 -63 -42 -112 -114 -357 -326 -366 -316 -4 4 -6 2
-4 -5 4 -14 -90 -103 -105 -100 -6 1 -11 -4 -12 -10 0 -19 -65 -74 -77 -67 -6
4 -8 2 -5 -3 4 -6 0 -16 -8 -23 -8 -7 -12 -16 -9 -21 3 -5 -1 -6 -9 -3 -16 6
-50 -23 -42 -36 3 -5 0 -12 -6 -16 -8 -4 -9 -3 -5 4 13 22 -12 12 -41 -15
-109 -105 -236 -217 -284 -251 -11 -7 -24 -10 -31 -6 -6 4 -8 3 -5 -3 6 -10
-72 -83 -88 -83 -3 0 -13 -7 -22 -15 -8 -8 -19 -12 -25 -9 -6 4 -8 2 -5 -3 4
-6 -1 -14 -11 -18 -9 -3 -19 -7 -21 -8 -2 -1 -19 -17 -38 -34 -19 -18 -42 -33
-51 -34 -9 0 -24 -2 -32 -5 -50 -13 -72 -15 -87 -9 -10 5 -24 9 -32 11 -48 10
-61 16 -55 26 4 6 3 8 -3 5 -14 -9 -75 17 -93 38 -7 9 -19 14 -27 11 -7 -3
-13 1 -13 8 0 8 -20 22 -45 31 -24 10 -52 26 -61 36 -9 11 -21 19 -26 19 -4 0
-32 15 -61 34 -86 57 -118 53 -151 -18 -29 -61 -32 -87 -14 -119 11 -20 29
-191 19 -181 -2 2 -11 -2 -20 -10 -9 -8 -20 -15 -26 -15 -5 -1 -10 -7 -10 -15
0 -8 -9 -25 -20 -38 -11 -12 -25 -34 -31 -48 -17 -39 -178 -262 -224 -311 -26
-28 -51 -71 -71 -123 -30 -78 -31 -84 -21 -166 9 -81 41 -179 70 -208 7 -8 24
-29 38 -47 19 -25 40 -38 81 -50 30 -9 62 -14 69 -11 8 3 14 1 14 -4 0 -6 8
-10 19 -10 10 0 35 -13 55 -29 24 -19 54 -32 84 -36 26 -3 58 -8 70 -11 18 -4
22 -1 16 8 -6 10 -4 10 7 2 8 -6 39 -16 70 -23 65 -14 99 -35 99 -61 0 -16 14
-46 80 -166 12 -23 40 -61 62 -85 22 -24 49 -61 59 -81 11 -21 37 -49 58 -63
22 -13 42 -29 45 -34 4 -5 30 -15 59 -21 28 -6 59 -15 67 -21 11 -8 6 -9 -17
-4 -36 7 -43 -4 -17 -29 37 -38 112 -52 184 -34 19 5 42 10 50 12 8 2 47 13
85 24 39 11 97 26 130 33 33 7 78 19 100 26 41 14 153 82 192 116 12 11 27 16
34 12 7 -5 10 -4 6 2 -4 5 5 16 18 23 13 7 22 16 20 21 -3 4 3 5 14 2 11 -3
77 25 160 66 78 39 147 68 153 65 6 -4 8 -3 5 3 -4 6 27 21 75 37 45 15 103
38 130 52 26 13 51 25 55 26 5 0 24 11 43 23 36 22 92 49 168 80 23 10 42 22
42 28 0 5 8 6 17 3 10 -4 14 -4 10 0 -9 9 61 61 137 101 34 17 60 36 59 42 -2
6 3 8 11 5 11 -4 63 30 86 56 3 3 23 19 45 36 92 67 198 169 250 239 16 22 41
51 55 64 14 12 25 30 25 40 0 9 5 16 11 16 17 0 236 231 261 276 13 22 39 62
58 91 20 28 33 58 31 65 -3 8 -2 12 3 9 5 -3 15 9 22 27 7 17 26 52 41 77 16
24 26 51 23 58 -2 7 -1 11 4 8 5 -3 27 31 50 75 34 68 39 84 29 98 -7 9 -9 13
-4 9 9 -7 32 33 122 207 59 114 109 245 126 330 5 28 16 73 23 100 27 96 27
146 0 187 -25 37 -34 75 -16 63 19 -11 22 35 7 99 -21 90 -43 139 -57 130 -7
-4 -9 -3 -6 3 4 6 -10 22 -31 36 -92 62 -192 178 -192 222 0 11 -9 39 -21 60
-11 22 -32 76 -45 120 -13 44 -35 103 -48 130 -18 37 -26 73 -30 142 -3 61
-10 100 -21 117 -9 14 -13 31 -9 37 4 8 3 9 -4 5 -7 -4 -12 -2 -12 4 0 7 -7 9
-16 6 -9 -3 -12 -2 -9 4 9 15 -60 41 -92 36 -15 -3 -32 -2 -37 3 -6 5 -36 11
-66 15 -30 3 -71 8 -90 11 -19 2 -63 -4 -98 -14z"/>
<path d="M3285 9393 c-145 -14 -233 -28 -223 -35 10 -6 10 -8 1 -8 -6 0 -15 4
-18 10 -7 11 -74 6 -136 -10 -24 -7 -90 -14 -147 -16 -63 -2 -109 -8 -121 -16
-32 -23 -101 -88 -101 -95 0 -5 -16 -25 -35 -46 -19 -21 -35 -44 -35 -51 0 -8
-9 -33 -20 -57 -11 -24 -20 -61 -20 -82 0 -21 -9 -63 -20 -95 -37 -105 -52
-356 -26 -442 7 -25 19 -85 26 -135 13 -91 42 -165 77 -197 25 -23 100 -25
141 -4 18 9 30 21 27 26 -3 5 0 12 6 16 8 4 9 3 5 -4 -12 -20 10 -13 39 12 16
14 33 22 38 19 6 -3 7 -1 3 5 -3 6 -1 14 5 17 5 4 8 13 5 21 -3 7 0 16 6 20 7
4 8 3 4 -4 -13 -22 2 -12 38 24 20 20 34 39 31 42 -9 9 36 51 49 46 7 -3 60
38 118 90 136 121 148 133 140 142 -4 4 -2 4 4 1 12 -7 44 15 99 65 17 15 35
28 41 28 7 0 14 6 17 13 3 8 45 45 94 82 48 38 104 82 124 99 56 48 79 66 79
62 0 -2 17 12 38 31 20 20 51 42 69 49 35 15 57 47 51 73 -3 9 1 29 7 45 16
38 1 88 -39 130 -17 17 -38 44 -47 61 -34 62 -54 69 -216 70 -82 1 -161 0
-178 -2z m321 -64 c8 -6 14 -19 14 -28 0 -9 18 -38 40 -65 22 -26 40 -54 40
-61 0 -13 -18 -30 -32 -30 -3 0 -10 -4 -15 -9 -5 -6 -2 -6 7 -1 13 8 13 6 2
-7 -7 -9 -28 -20 -45 -24 -45 -10 -78 -50 -73 -91 3 -18 0 -36 -6 -39 -7 -4
-8 -2 -4 4 16 26 -13 9 -71 -44 -35 -30 -67 -52 -73 -49 -6 4 -9 2 -8 -4 5
-18 -239 -214 -255 -204 -6 3 -7 1 -3 -5 3 -6 2 -13 -4 -17 -6 -4 -8 -10 -5
-15 3 -5 0 -12 -6 -16 -8 -4 -9 -3 -5 4 11 18 -10 14 -25 -4 -18 -22 -133
-110 -139 -106 -3 1 -6 -2 -6 -8 -1 -5 -3 -13 -4 -17 -1 -5 -2 -11 -2 -14 1
-4 -8 -15 -18 -24 -11 -10 -20 -15 -20 -11 0 4 -16 -5 -35 -20 -19 -14 -33
-30 -30 -34 3 -4 -2 -13 -10 -20 -8 -7 -15 -9 -15 -6 0 4 -20 -9 -45 -30 -25
-20 -45 -41 -45 -46 0 -6 8 -4 18 3 15 13 16 12 3 -3 -7 -10 -18 -15 -23 -12
-5 3 -16 -3 -24 -14 -19 -27 -118 -92 -141 -92 -22 0 -73 77 -73 110 0 12 -7
48 -14 79 -13 48 -22 95 -25 124 -1 5 -7 5 -13 1 -10 -6 -10 -4 0 8 14 17 14
196 0 205 -5 2 -7 21 -7 41 l2 37 7 -40 7 -40 3 45 c4 83 8 115 19 143 6 16
11 42 11 58 0 51 21 117 46 144 13 14 33 47 44 73 15 33 36 58 70 83 48 35 54
36 162 43 62 3 124 8 138 10 14 2 66 9 115 16 50 6 117 15 150 19 102 13 405
13 421 0z"/>
</g>
</svg>
