<?xml version="1.0" standalone="no"?>
<!DOCTYPE svg PUBLIC "-//W3C//DTD SVG 20010904//EN"
 "http://www.w3.org/TR/2001/REC-SVG-20010904/DTD/svg10.dtd">
<svg version="1.0" xmlns="http://www.w3.org/2000/svg"
 width="1266.000000pt" height="879.000000pt" viewBox="0 0 1266.000000 879.000000"
 preserveAspectRatio="xMidYMid meet">
<metadata>
Created by potrace 1.16, written by Peter Selinger 2001-2019
</metadata>
<g transform="translate(0.000000,879.000000) scale(0.100000,-0.100000)"
fill="#000000" stroke="none">
<path d="M8196 7324 c-11 -7 -35 -17 -55 -20 -19 -4 -57 -20 -84 -36 -26 -15
-51 -28 -54 -28 -4 0 -23 -11 -43 -25 -27 -18 -73 -33 -166 -51 -71 -13 -149
-29 -174 -35 -25 -6 -103 -15 -175 -19 -73 -5 -161 -17 -200 -28 -38 -11 -90
-23 -115 -27 -25 -4 -58 -13 -75 -20 -16 -7 -55 -19 -85 -28 -30 -9 -116 -34
-190 -56 -156 -46 -238 -69 -297 -81 -23 -5 -68 -16 -100 -24 -143 -37 -222
-48 -333 -47 -111 2 -250 -15 -250 -29 0 -4 -40 -13 -90 -19 -49 -7 -90 -16
-90 -21 0 -11 -155 -38 -255 -46 -44 -3 -89 -9 -100 -14 -11 -5 -74 -11 -140
-14 -66 -3 -149 -13 -185 -22 -36 -9 -128 -24 -205 -34 -119 -15 -194 -31
-265 -57 -8 -4 -20 -7 -27 -9 -7 -1 -36 -13 -65 -27 -29 -14 -80 -30 -113 -37
-33 -6 -67 -15 -76 -20 -9 -4 -76 -16 -150 -25 -74 -9 -143 -20 -154 -25 -11
-4 -58 -13 -104 -19 -46 -6 -89 -14 -95 -19 -14 -12 -118 -39 -179 -48 -26 -3
-50 -10 -53 -15 -3 -5 -16 -9 -29 -9 -13 0 -26 -4 -29 -8 -3 -5 -37 -14 -76
-21 -39 -7 -77 -19 -85 -27 -7 -8 -18 -14 -23 -14 -21 0 -112 -34 -112 -41 0
-5 -18 -14 -40 -20 -22 -7 -40 -16 -40 -20 0 -4 -26 -17 -57 -28 -32 -12 -69
-27 -83 -35 -14 -8 -40 -17 -58 -21 -19 -4 -46 -18 -60 -31 -49 -45 -146 -114
-189 -134 -23 -11 -71 -47 -106 -80 -36 -33 -69 -60 -73 -60 -5 0 -15 -9 -22
-20 -7 -11 -16 -20 -22 -20 -5 0 -20 -10 -33 -22 -12 -13 -41 -39 -62 -60 -22
-20 -57 -54 -78 -77 -20 -23 -40 -41 -44 -41 -10 0 -132 -134 -133 -147 0 -6
-23 -35 -51 -65 -66 -69 -119 -133 -119 -144 0 -5 -10 -19 -23 -30 -12 -12
-40 -47 -62 -79 -33 -49 -40 -67 -43 -121 -3 -37 -8 -61 -14 -58 -5 3 -22 1
-38 -6 -23 -9 -31 -22 -41 -61 -7 -27 -16 -49 -19 -49 -7 0 -23 -63 -41 -158
-9 -47 -9 -77 -1 -115 6 -29 15 -156 19 -283 7 -199 11 -233 26 -248 9 -10 20
-28 23 -42 3 -13 10 -24 14 -24 4 0 18 -27 30 -60 12 -33 26 -60 30 -60 9 0
14 -20 25 -98 4 -23 14 -49 22 -58 9 -8 13 -17 11 -19 -10 -10 -280 -7 -353 4
-176 27 -276 20 -301 -21 -5 -7 -18 -18 -28 -24 -56 -30 -93 -138 -73 -213 6
-25 17 -50 24 -54 7 -4 13 -14 13 -22 0 -7 15 -22 33 -33 26 -16 60 -21 182
-27 83 -5 168 -10 190 -12 22 -2 206 -6 409 -8 355 -3 370 -4 395 -24 14 -12
41 -27 58 -35 18 -8 33 -19 33 -24 0 -6 10 -12 23 -16 33 -8 116 -64 189 -128
36 -32 70 -58 76 -58 6 0 17 -7 26 -15 8 -8 34 -24 58 -34 24 -10 69 -42 101
-70 32 -28 69 -54 83 -57 13 -3 24 -10 24 -14 0 -4 14 -13 30 -19 17 -6 57
-30 89 -55 32 -24 69 -50 82 -57 13 -6 26 -15 29 -19 3 -4 19 -14 35 -23 17
-8 42 -26 56 -38 28 -26 54 -42 134 -85 28 -15 52 -30 55 -34 3 -4 22 -13 42
-21 21 -7 38 -16 38 -20 0 -4 43 -15 95 -24 52 -10 95 -21 95 -24 0 -4 33 -18
73 -30 39 -12 90 -31 112 -41 22 -11 82 -26 133 -34 51 -8 97 -18 102 -21 14
-9 211 -35 267 -35 28 0 54 -4 57 -9 3 -4 63 -11 133 -15 147 -8 383 -35 398
-46 6 -4 47 -13 93 -20 45 -8 82 -17 82 -21 0 -4 37 -10 83 -12 45 -3 120 -9
167 -15 47 -6 157 -16 245 -22 88 -6 182 -16 210 -21 84 -16 412 -39 560 -39
156 0 333 19 472 50 51 11 132 24 180 29 106 12 156 21 163 31 16 23 119 30
429 30 182 0 331 4 331 9 0 4 33 11 73 13 150 11 432 42 437 49 3 4 50 12 105
19 55 7 125 20 155 30 30 10 89 24 130 31 41 6 80 15 85 19 6 4 28 10 50 14
40 6 135 44 145 58 3 3 19 9 35 13 39 9 89 27 95 35 6 9 115 46 204 71 39 10
73 23 76 29 7 11 115 40 152 40 24 0 154 62 168 79 3 4 24 13 48 19 23 7 58
24 78 37 19 13 48 26 64 30 17 4 30 10 30 14 0 5 16 11 35 14 20 3 65 20 100
36 36 17 67 31 70 31 2 0 34 21 70 48 37 26 83 55 103 66 20 10 39 22 42 26 3
4 20 15 39 25 19 9 39 21 45 26 6 5 40 32 75 60 74 58 109 94 132 136 8 15 29
35 45 43 61 31 199 154 223 198 12 23 56 75 129 153 28 30 52 59 52 62 0 3 10
17 23 30 32 35 57 70 57 80 0 5 15 30 33 56 18 25 41 66 51 91 10 25 21 47 24
50 4 3 25 42 47 88 21 45 42 82 45 82 12 0 30 51 36 103 6 52 -20 216 -35 227
-4 3 -12 61 -18 130 -6 68 -15 126 -20 127 -5 2 -7 17 -5 33 2 17 -1 37 -9 46
-7 8 -15 54 -19 100 -4 47 -11 89 -16 92 -5 4 -17 33 -27 64 -20 63 -23 67
-61 70 -15 1 -28 10 -32 20 -3 10 -10 18 -15 18 -5 0 -9 5 -9 11 0 14 -76 89
-90 89 -5 0 -14 8 -19 19 -6 10 -22 22 -36 25 -14 4 -25 11 -25 16 0 5 -13 16
-29 24 -15 8 -34 29 -41 45 -7 17 -16 29 -20 26 -4 -2 -13 7 -20 20 -7 14 -16
25 -19 25 -3 0 -33 25 -66 55 -33 31 -74 61 -92 67 -17 6 -37 22 -44 35 -7 13
-16 23 -21 23 -4 0 -19 22 -32 48 -13 27 -32 54 -40 61 -9 8 -16 18 -16 23 0
11 -130 138 -141 138 -4 0 -14 8 -21 18 -7 10 -30 28 -51 41 -21 13 -58 42
-82 65 -66 62 -68 64 -178 121 -56 29 -115 60 -132 69 -16 9 -46 19 -65 22
-19 4 -37 10 -40 13 -3 4 -40 15 -82 25 -43 10 -78 21 -78 26 0 4 -9 10 -20
13 -11 3 -20 14 -20 25 0 23 -275 304 -321 328 -17 8 -54 38 -82 65 -55 52
-196 159 -210 159 -10 0 -107 70 -205 147 -37 29 -70 53 -74 53 -5 0 -8 8 -8
17 0 9 -3 14 -6 10 -3 -3 -15 3 -27 14 -11 10 -29 19 -38 19 -10 0 -30 11 -46
24 -15 12 -39 29 -53 36 -14 7 -41 26 -60 41 -19 16 -68 45 -108 66 -40 21
-97 50 -125 65 -45 24 -64 27 -137 27 -57 0 -91 -5 -104 -15z m196 -421 c18
-10 38 -26 45 -35 30 -38 100 -98 128 -109 65 -23 115 -49 115 -59 0 -5 7 -10
15 -10 9 0 39 -24 68 -54 29 -29 73 -66 97 -81 46 -29 41 -46 -8 -26 -15 6
-42 12 -59 13 -19 1 -33 8 -33 15 0 7 -3 13 -8 13 -4 0 -13 14 -20 30 -8 17
-19 30 -25 30 -7 1 -28 14 -47 30 -22 20 -45 30 -66 30 -17 0 -37 7 -44 15 -7
8 -18 15 -24 15 -6 0 -37 27 -69 60 -31 33 -62 60 -67 60 -5 0 -15 9 -22 20
-7 11 -20 20 -29 20 -12 0 -16 6 -12 20 7 25 22 25 65 3z m-3247 -371 c-6 -5
-37 -17 -70 -27 -33 -11 -64 -23 -69 -27 -6 -4 -20 -8 -33 -8 -12 0 -44 -7
-70 -16 -26 -9 -80 -18 -119 -19 -39 -1 -82 -9 -96 -16 -65 -35 -154 -128
-159 -166 -2 -12 -6 -26 -15 -48 -4 -11 -9 -27 -12 -35 -3 -8 -7 -66 -8 -128
-2 -63 -10 -162 -18 -220 -8 -59 -18 -133 -22 -165 -6 -59 -6 -59 -52 -79 -85
-36 -117 -51 -122 -57 -3 -3 -27 -17 -54 -31 -98 -50 -119 -62 -132 -75 -8 -7
-28 -17 -46 -20 -44 -10 -144 -61 -189 -96 -20 -16 -42 -29 -48 -29 -6 0 -11
-4 -11 -9 0 -6 -18 -20 -40 -32 -22 -13 -40 -26 -40 -30 0 -5 -17 -16 -37 -26
-43 -20 -51 -26 -137 -108 -35 -33 -89 -82 -121 -110 -65 -55 -133 -122 -243
-237 -56 -60 -82 -98 -117 -172 -25 -52 -45 -99 -45 -104 0 -6 -6 -17 -13 -24
-8 -7 -22 -38 -32 -68 -10 -30 -25 -66 -34 -80 -12 -19 -17 -58 -19 -175 -4
-136 -2 -152 15 -172 11 -12 28 -33 39 -48 10 -14 33 -34 49 -44 26 -15 31
-24 32 -60 2 -55 35 -122 87 -176 77 -81 96 -104 106 -131 l10 -26 -92 5
c-121 7 -331 32 -476 57 -63 11 -127 20 -143 20 -15 0 -30 4 -33 9 -3 4 -30 9
-60 9 -30 0 -97 6 -150 12 -92 12 -95 13 -105 42 -6 16 -33 50 -61 75 -28 25
-60 66 -71 91 -12 25 -27 52 -35 59 -8 8 -14 21 -14 29 0 8 -7 17 -15 21 -15
5 -25 21 -80 123 -11 20 -30 51 -42 67 -13 17 -23 35 -23 41 0 5 -13 26 -30
47 -16 20 -32 46 -36 58 -4 12 -11 25 -17 28 -12 8 -46 177 -46 232 -1 21 3
47 9 57 5 10 15 62 21 116 6 55 22 130 35 167 13 38 24 82 24 99 0 26 56 130
80 148 4 3 15 20 24 38 9 18 50 65 92 105 41 39 87 90 101 112 40 59 75 95 86
88 6 -3 7 -1 4 4 -4 6 8 21 25 34 18 13 57 49 88 80 53 54 99 94 171 149 18
14 60 48 94 76 33 28 75 59 94 69 19 9 43 26 54 36 12 10 26 19 33 19 6 0 14
7 18 15 3 8 21 23 41 32 19 9 35 20 35 24 0 3 21 12 48 19 46 12 152 59 162
71 3 4 15 9 28 13 12 4 22 12 22 17 0 5 5 9 10 9 6 0 39 13 73 29 34 16 89 35
122 42 33 7 62 16 65 20 3 3 50 14 105 24 55 10 105 21 110 25 6 4 46 16 90
25 44 10 84 20 89 23 6 3 19 7 30 8 12 1 44 7 71 13 28 7 97 19 155 27 58 8
114 18 125 23 11 6 58 17 105 26 47 9 87 20 90 25 3 4 32 16 65 25 33 10 62
21 65 25 5 7 50 19 215 54 39 8 126 20 195 26 69 7 130 16 135 20 6 5 31 10
55 13 25 2 49 4 55 5 6 1 6 -1 0 -6z m4806 -438 c8 -6 33 -16 57 -23 23 -6 42
-16 42 -21 0 -6 8 -10 18 -11 9 0 40 -13 67 -29 28 -16 70 -39 95 -51 25 -12
47 -25 50 -29 3 -4 23 -17 45 -28 22 -12 49 -33 60 -47 34 -44 84 -94 113
-112 56 -35 102 -75 102 -89 0 -13 18 -39 51 -73 9 -9 21 -31 27 -49 14 -41
75 -107 114 -123 16 -6 52 -34 81 -60 29 -27 59 -55 67 -63 8 -8 28 -32 44
-54 15 -22 46 -53 68 -68 22 -16 47 -37 57 -47 9 -10 28 -25 44 -33 15 -8 27
-21 27 -29 0 -7 6 -20 13 -27 17 -18 47 -82 47 -102 0 -9 4 -16 9 -16 5 0 15
-17 21 -37 7 -21 18 -47 24 -58 7 -11 20 -46 30 -78 14 -45 16 -67 8 -96 -5
-23 -8 -145 -5 -292 4 -266 5 -258 -40 -322 -10 -14 -21 -42 -24 -63 -3 -22
-9 -41 -13 -44 -4 -3 -12 -31 -18 -63 -7 -35 -22 -71 -37 -89 -14 -16 -25 -35
-25 -42 0 -7 -11 -26 -25 -42 -19 -21 -24 -37 -21 -56 6 -31 0 -38 -175 -204
-156 -148 -180 -169 -201 -177 -10 -3 -18 -11 -18 -17 0 -5 -21 -20 -47 -32
-27 -12 -50 -25 -53 -28 -12 -15 -190 -109 -235 -124 -27 -9 -61 -25 -75 -36
-52 -43 -135 -90 -157 -90 -13 0 -23 -4 -23 -10 0 -5 -19 -14 -42 -21 -41 -11
-188 -77 -198 -89 -8 -10 -108 -50 -124 -50 -8 0 -21 -6 -28 -13 -7 -7 -32
-19 -56 -26 -23 -8 -47 -20 -53 -28 -6 -7 -15 -13 -20 -13 -5 0 -37 -13 -71
-29 -35 -16 -82 -35 -105 -42 -24 -7 -43 -16 -43 -21 0 -4 -5 -8 -12 -8 -7 0
-48 -18 -93 -40 -77 -38 -120 -51 -305 -89 -47 -10 -95 -22 -105 -28 -11 -5
-51 -18 -90 -28 -38 -10 -79 -24 -90 -31 -11 -6 -38 -17 -60 -24 -22 -7 -46
-18 -54 -24 -9 -7 -124 -13 -340 -18 -179 -4 -418 -11 -531 -17 -493 -26 -588
-32 -640 -41 -68 -13 -1614 -14 -1638 -1 -9 4 -62 11 -117 14 -55 3 -129 10
-165 16 -36 6 -128 17 -205 26 -77 9 -171 23 -210 31 -38 7 -108 17 -155 20
-47 4 -98 12 -115 19 -16 7 -67 16 -112 19 -58 4 -106 15 -158 36 -41 16 -93
33 -115 36 -22 4 -40 10 -40 14 0 4 -47 15 -105 26 -58 10 -105 22 -105 26 0
4 -23 8 -51 8 -37 0 -63 7 -97 27 -26 15 -49 30 -52 34 -3 3 -26 16 -52 27
-27 11 -48 25 -48 30 0 5 -19 14 -42 21 -103 29 -214 66 -226 76 -7 5 -31 27
-53 48 -23 20 -47 37 -54 37 -7 0 -28 13 -48 29 -20 15 -50 34 -67 41 -16 7
-30 16 -30 21 0 4 -18 14 -40 20 -22 7 -40 16 -40 20 0 4 -21 15 -47 25 -49
19 -59 25 -95 58 -12 11 -42 30 -67 44 -25 13 -60 37 -79 53 -30 26 -31 29
-10 25 52 -12 220 -19 523 -21 176 -2 335 -3 353 -4 26 -1 35 -7 48 -33 20
-41 146 -141 199 -158 22 -7 45 -16 50 -20 6 -4 31 -15 57 -25 27 -10 48 -22
48 -26 0 -5 5 -9 10 -9 6 0 39 -13 73 -29 34 -16 89 -35 122 -42 33 -7 62 -16
65 -19 9 -11 74 -38 120 -50 25 -7 50 -16 56 -21 6 -5 39 -16 75 -24 35 -9 73
-20 84 -25 11 -4 52 -16 90 -25 39 -9 84 -22 101 -30 18 -8 66 -20 108 -27 42
-6 76 -15 76 -19 0 -4 19 -10 43 -14 61 -9 210 -47 222 -55 6 -4 57 -15 115
-25 58 -9 112 -20 120 -25 9 -4 43 -10 75 -13 33 -4 110 -11 170 -17 61 -6
165 -20 233 -31 115 -19 152 -20 574 -14 448 6 452 7 512 31 67 27 76 29 76
13 0 -6 7 -17 16 -26 18 -19 115 -13 246 13 74 15 80 15 92 -1 12 -16 14 -16
45 -1 17 10 71 22 119 27 48 6 94 14 102 19 9 4 83 15 165 25 83 10 155 21
160 25 6 4 30 11 55 15 24 4 51 11 60 16 22 11 104 29 136 29 15 0 24 3 20 7
-10 10 142 50 284 75 63 11 117 23 120 27 6 8 112 41 132 41 8 0 28 6 44 14
16 8 40 20 54 25 36 15 64 34 73 49 4 6 14 12 21 12 7 0 33 11 57 23 24 13 61
29 82 36 20 7 37 16 37 21 0 4 13 13 29 20 44 18 102 76 103 102 0 43 8 68 22
68 7 0 32 21 56 46 29 32 67 57 128 85 48 22 97 45 109 51 11 6 50 38 85 72
34 34 79 68 98 76 19 7 42 19 50 25 8 6 36 24 63 39 26 15 47 31 47 36 0 6 5
10 12 10 14 0 22 7 130 116 43 42 80 85 83 96 4 10 10 18 14 18 5 0 20 24 35
53 18 36 32 92 46 181 11 71 23 132 27 135 16 12 33 63 33 99 0 47 -18 112
-30 112 -6 0 -10 8 -10 18 0 30 -29 120 -44 135 -19 19 -44 70 -48 98 -2 13
-6 29 -10 34 -3 6 -11 36 -18 68 -7 31 -19 62 -27 68 -7 6 -13 17 -13 24 0 7
-18 35 -40 63 -22 27 -40 55 -40 62 0 6 -20 31 -44 54 -24 24 -47 53 -51 65
-3 12 -20 28 -37 37 l-30 16 6 134 c4 101 2 152 -10 211 -10 49 -15 126 -14
206 0 82 -3 127 -10 127 -5 0 -10 10 -10 23 0 12 -7 32 -15 44 -11 16 -13 28
-6 47 6 13 11 83 12 153 l3 129 46 -10 c26 -6 53 -16 61 -22z m-3461 -63 c0
-4 27 -11 59 -15 33 -4 61 -12 63 -18 6 -16 125 -22 184 -10 49 11 104 3 204
-27 19 -6 54 -10 77 -9 45 2 59 -4 48 -21 -7 -12 -127 -15 -187 -5 -21 4 -35
10 -32 15 3 5 -36 9 -86 9 -58 0 -89 -4 -85 -10 4 -6 -5 -10 -19 -10 -14 0
-26 5 -26 10 0 6 -12 10 -26 10 -14 0 -23 4 -20 9 3 4 -6 6 -19 3 -14 -2 -33
2 -42 9 -22 19 -256 20 -274 2 -17 -17 -72 -16 -115 2 -31 13 -33 16 -22 34
10 16 16 18 32 9 24 -13 164 -4 179 11 13 13 107 15 107 2z m-1297 -204 c18
-8 46 -14 64 -15 17 0 45 -8 62 -16 22 -12 61 -16 153 -16 68 0 129 4 135 8 7
4 29 6 49 4 26 -3 38 -11 44 -28 11 -29 40 -31 47 -4 7 25 41 26 58 3 11 -15
18 -16 61 -4 83 22 158 25 194 6 23 -12 58 -16 131 -16 54 0 103 3 109 6 8 5
62 11 145 15 34 2 130 -21 144 -34 18 -17 43 -21 55 -9 3 4 47 6 97 6 67 -1
96 -6 108 -17 26 -24 53 -21 49 6 -2 17 4 23 31 31 23 5 43 5 58 -2 34 -16 43
-14 43 10 0 19 4 20 83 15 45 -2 102 -7 127 -10 148 -15 259 -16 300 -2 42 14
70 12 70 -5 0 -5 11 -9 25 -9 16 0 25 6 25 15 0 20 83 20 175 -1 150 -34 156
-34 193 -25 136 36 186 43 221 32 101 -31 205 -39 326 -26 87 10 134 10 179 3
95 -17 224 -9 254 15 7 5 29 13 50 18 20 4 50 11 65 15 21 5 33 2 48 -15 11
-11 30 -21 43 -21 13 0 27 -7 30 -16 3 -9 6 -134 6 -279 0 -202 -3 -264 -12
-268 -10 -3 -10 -7 1 -20 21 -26 11 -166 -15 -195 -36 -43 -80 -64 -119 -56
-31 5 -35 4 -35 -15 0 -18 -6 -21 -38 -21 -20 0 -52 -4 -71 -10 -23 -6 -40 -6
-55 2 -11 6 -57 12 -101 13 -82 2 -275 29 -331 46 -41 12 -117 12 -131 -2 -11
-11 -98 -8 -173 5 -19 4 -54 9 -77 12 -28 3 -43 10 -43 20 0 9 -11 14 -30 14
-21 0 -28 -4 -24 -14 4 -10 -16 -14 -92 -18 -108 -6 -134 -2 -134 18 0 18 -39
18 -46 1 -4 -12 -14 -11 -57 3 -56 17 -157 26 -247 22 -164 -9 -318 2 -375 28
-21 10 -87 14 -230 15 -204 2 -294 14 -328 43 -13 12 -42 15 -115 15 -116 0
-131 -2 -157 -19 -28 -20 -149 -19 -165 1 -17 20 -108 20 -130 0 -12 -11 -46
-16 -132 -18 -81 -2 -120 -7 -132 -16 -14 -12 -30 -12 -94 -2 -108 18 -362 25
-436 12 -171 -29 -296 -23 -296 15 0 19 -28 25 -45 8 -9 -10 -29 -14 -52 -12
l-38 3 -3 71 c-3 67 -1 73 23 93 29 22 26 41 -6 41 -17 0 -19 8 -19 93 0 52 3
96 6 100 4 3 8 25 9 49 3 39 16 58 49 72 7 3 2 13 -12 25 -20 18 -21 24 -12
63 5 24 10 60 10 81 0 25 4 37 15 37 7 0 18 7 23 16 8 14 14 15 45 3 28 -10
41 -10 59 -1 13 6 59 13 103 15 44 2 102 4 128 5 26 1 62 -4 80 -11z m-742
-401 c3 -58 2 -59 -32 -76 -83 -42 -193 -101 -203 -108 -6 -5 -31 -15 -56 -22
-25 -8 -47 -17 -50 -20 -3 -4 -26 -15 -52 -25 -27 -10 -48 -21 -48 -26 0 -4
-8 -10 -18 -14 -11 -3 -48 -30 -83 -61 -35 -31 -77 -62 -93 -71 -25 -13 -56
-42 -93 -87 -7 -8 -20 -34 -30 -58 -9 -24 -25 -54 -35 -67 -10 -13 -18 -28
-18 -33 0 -11 -61 -73 -86 -86 -11 -6 -35 -41 -54 -79 -19 -37 -47 -84 -62
-103 -16 -19 -28 -40 -28 -46 0 -6 -9 -19 -20 -29 -11 -10 -20 -22 -20 -27 0
-5 -21 -30 -46 -56 -26 -26 -58 -64 -72 -84 -23 -36 -24 -44 -20 -145 4 -90 9
-118 31 -167 22 -48 29 -82 36 -185 9 -124 23 -174 56 -201 8 -7 15 -22 15
-34 0 -12 6 -28 13 -36 6 -7 -2 -3 -20 9 -17 12 -35 30 -38 41 -3 11 -23 37
-43 57 -64 65 -111 134 -117 172 -4 20 -10 44 -16 53 -5 10 -9 23 -9 30 -1 19
-33 54 -56 62 -10 4 -30 16 -43 27 -22 18 -25 30 -29 104 -5 96 5 198 19 190
5 -4 9 2 9 11 0 27 33 124 42 124 9 0 88 161 88 178 0 20 63 102 73 95 7 -3 9
-3 5 2 -11 12 189 228 283 305 53 44 96 82 146 128 13 12 28 22 33 22 5 0 15
6 22 13 33 31 270 177 288 177 5 0 10 4 10 10 0 5 18 14 40 20 22 6 40 14 40
18 0 5 17 14 38 21 30 10 217 97 282 131 8 4 16 7 17 6 1 0 3 -27 4 -60z m11
-263 c3 -133 -2 -207 -13 -211 -12 -5 -12 -148 1 -172 5 -10 13 -51 16 -92 4
-40 11 -79 17 -86 6 -7 8 -50 5 -105 -4 -58 -1 -104 6 -126 8 -22 10 -51 5
-80 -14 -83 -10 -259 6 -298 8 -19 15 -62 15 -94 0 -58 1 -59 40 -81 22 -13
40 -27 40 -32 0 -31 96 -49 119 -23 27 34 89 39 348 32 139 -4 253 -11 253
-16 0 -5 42 -9 93 -9 50 -1 126 -5 167 -10 41 -4 76 -5 77 -2 4 9 132 6 140
-2 12 -11 523 -7 523 5 0 5 4 8 9 5 4 -3 149 -12 322 -21 241 -12 345 -13 449
-5 74 5 168 10 208 10 41 0 72 4 72 10 0 10 23 8 54 -5 10 -4 21 -4 25 1 12
17 859 20 1024 4 68 -6 123 -8 130 -3 13 10 24 10 47 0 8 -3 103 -8 210 -11
281 -7 378 -17 421 -43 20 -11 64 -24 99 -28 72 -8 213 2 204 16 -3 5 1 9 9 9
14 0 67 61 67 77 0 8 9 15 45 41 21 14 45 62 45 89 0 16 6 38 14 49 8 11 26
60 41 110 15 49 29 97 32 107 3 9 0 17 -6 17 -8 0 -9 6 -3 18 6 9 13 36 17 60
4 23 10 42 14 42 4 0 20 -29 36 -65 16 -36 32 -65 37 -65 4 0 8 -16 8 -35 0
-19 -4 -35 -9 -35 -12 0 -20 -39 -25 -117 -4 -65 -10 -90 -30 -138 -8 -16 -20
-45 -27 -62 -8 -18 -17 -33 -20 -33 -14 0 -87 -76 -93 -97 -4 -12 -29 -49 -56
-84 -28 -34 -50 -66 -50 -71 0 -18 -75 -84 -124 -108 -51 -26 -84 -67 -85
-107 -1 -34 -22 -72 -42 -78 -11 -4 -40 -29 -66 -56 -27 -27 -74 -63 -106 -79
-57 -30 -70 -38 -107 -71 -9 -9 -44 -26 -76 -37 -33 -12 -54 -22 -49 -22 6 -1
-17 -8 -50 -16 -32 -8 -62 -18 -65 -22 -8 -10 -78 -42 -95 -42 -7 0 -15 -4
-17 -9 -6 -16 -198 -102 -253 -113 -30 -6 -55 -14 -55 -18 0 -4 -14 -10 -32
-14 -17 -3 -54 -17 -83 -30 -28 -14 -64 -27 -80 -31 -17 -4 -47 -13 -69 -21
-48 -18 -221 -44 -298 -44 -31 0 -59 -4 -62 -9 -7 -10 -129 -27 -256 -36 -90
-6 -180 -24 -180 -36 0 -15 -236 -45 -242 -31 -2 5 -27 12 -56 15 -41 5 -54 3
-59 -8 -3 -8 -13 -15 -22 -15 -9 0 -26 -7 -38 -15 -12 -8 -41 -18 -65 -20 -80
-10 -941 11 -968 23 -23 10 -157 26 -332 39 -38 3 -68 9 -68 14 0 5 -12 9 -26
9 -47 0 -338 51 -351 62 -7 5 -47 14 -90 19 -43 5 -107 18 -143 29 -71 21
-146 40 -285 73 -49 11 -92 24 -95 28 -3 3 -23 9 -45 13 -21 4 -64 20 -95 36
-30 15 -82 35 -115 45 -33 9 -69 23 -81 30 -11 7 -49 19 -83 26 -34 6 -68 18
-75 25 -7 7 -31 17 -54 23 -23 7 -44 15 -47 20 -7 13 -144 81 -161 81 -8 0
-14 5 -14 10 0 6 -6 10 -14 10 -8 0 -30 14 -48 30 -18 17 -37 31 -43 31 -5 1
8 5 30 8 48 8 555 5 640 -4 129 -13 137 -16 179 -59 21 -22 52 -62 68 -88 17
-27 36 -48 43 -48 8 0 20 -6 27 -12 23 -21 57 -38 76 -38 10 0 22 -4 28 -10 9
-9 76 -15 269 -25 55 -3 123 -7 150 -10 51 -6 484 -7 910 -1 211 3 245 5 280
22 25 12 41 27 43 40 3 18 -6 24 -49 39 -49 15 -213 36 -411 50 -165 13 -163
24 2 17 178 -8 403 -6 435 3 11 3 28 16 38 30 17 23 17 25 0 42 -36 36 -243
60 -578 68 -128 3 -298 12 -405 22 -30 2 -67 5 -82 6 -42 3 -43 15 -3 26 27 7
73 6 169 -5 72 -8 137 -17 144 -19 25 -9 342 -20 527 -19 236 2 283 16 259 78
-3 9 -14 16 -24 16 -9 0 -30 7 -47 15 -41 21 -148 33 -288 34 -66 1 -160 3
-210 6 -49 3 -142 7 -205 10 -319 14 -370 23 -305 53 46 21 352 11 700 -23 39
-4 133 -8 210 -8 160 -1 215 11 215 47 0 29 -44 50 -145 70 -44 8 -87 18 -95
21 -8 2 -35 9 -60 15 -25 6 -54 14 -65 19 -29 13 -382 52 -505 55 -58 2 -114
6 -125 9 -25 6 -198 17 -350 21 -232 7 -389 -49 -529 -189 -41 -41 -51 -46
-89 -44 -23 1 -98 -2 -167 -6 -78 -4 -157 -2 -210 5 -220 29 -498 60 -592 67
-73 5 -79 7 -98 37 -42 67 -90 162 -90 181 0 8 -4 15 -8 15 -4 0 -5 33 -1 73
9 95 -1 175 -24 199 -15 16 -37 97 -37 138 0 16 -4 32 -10 35 -13 8 -13 55 0
55 6 0 10 9 10 19 0 18 88 125 118 144 6 4 12 14 12 21 0 12 38 68 75 109 8
10 23 33 32 52 9 19 20 35 25 35 4 0 8 8 8 18 0 10 25 41 55 68 31 27 65 68
76 91 11 24 25 46 30 49 6 3 15 18 20 32 20 51 65 111 93 123 15 7 45 26 66
43 20 17 54 45 75 61 20 17 45 37 54 46 9 9 33 22 54 30 20 7 37 16 37 20 0 4
24 15 53 24 28 10 59 23 67 29 8 7 33 18 55 25 21 8 45 20 53 27 7 8 19 14 26
14 8 0 19 7 26 15 24 29 30 14 32 -82z m5438 -209 c0 -8 16 -30 35 -50 19 -19
38 -46 41 -59 3 -14 10 -25 16 -25 5 0 15 -15 23 -32 8 -18 24 -44 35 -58 24
-30 58 -138 62 -197 2 -24 6 -43 10 -43 4 0 9 -8 13 -19 3 -10 16 -30 29 -44
15 -17 27 -44 31 -77 4 -27 16 -69 27 -92 17 -36 19 -47 9 -80 -7 -21 -16 -38
-20 -38 -9 0 -26 -79 -37 -172 -3 -32 -10 -58 -14 -58 -5 0 -11 -18 -15 -40
-4 -22 -14 -47 -22 -56 -9 -8 -27 -32 -40 -52 -39 -57 -115 -136 -203 -210
-56 -47 -75 -49 -41 -6 11 15 21 33 21 40 0 8 5 14 10 14 6 0 10 6 10 13 0 7
18 30 40 51 22 21 40 44 40 52 0 8 4 14 8 14 11 0 30 55 38 110 4 25 11 48 16
51 5 3 12 35 14 70 6 73 22 148 37 167 7 9 7 16 0 20 -5 4 -13 21 -17 37 -10
44 -27 85 -36 85 -4 0 -11 11 -14 25 -4 14 -17 49 -30 78 -13 28 -27 69 -30
90 -4 20 -10 37 -15 37 -12 0 -36 51 -33 69 1 9 -6 59 -16 111 -22 116 -20
302 4 293 8 -3 14 -12 14 -19z m-5003 -30 c28 -14 41 -15 72 -5 48 14 103 14
172 0 72 -14 117 -14 227 1 66 10 95 11 103 3 32 -32 -349 -64 -386 -33 -12
10 -21 10 -41 1 -14 -6 -40 -11 -59 -11 -19 0 -37 -4 -40 -10 -9 -15 -48 -12
-83 6 -23 11 -32 22 -32 40 0 29 18 31 67 8z m4627 -77 c23 -21 24 -25 10 -39
-12 -11 -16 -39 -17 -104 -2 -92 10 -278 20 -304 3 -8 5 -48 4 -89 -1 -41 3
-77 9 -81 6 -4 3 -14 -8 -26 -10 -11 -22 -32 -26 -47 -5 -20 -13 -27 -31 -27
-29 0 -31 11 -11 48 21 39 37 93 30 104 -20 32 -39 526 -21 571 8 22 11 22 41
-6z m-4116 -198 c169 -26 385 -32 1007 -27 228 2 461 -4 531 -13 44 -5 148
-13 232 -18 91 -5 158 -13 165 -20 15 -15 169 -15 185 1 8 8 15 8 25 0 8 -7
25 -12 38 -12 159 -1 389 -13 406 -22 17 -8 26 -8 38 2 20 17 961 18 978 1 15
-15 37 -14 51 2 16 19 156 11 156 -9 0 -8 5 -14 10 -14 15 0 12 -80 -4 -95
-10 -11 -13 -31 -9 -75 8 -82 -10 -138 -46 -142 -35 -4 -34 -32 2 -36 26 -3
27 -5 27 -71 0 -58 -3 -71 -21 -82 l-21 -14 21 -27 c14 -18 21 -41 21 -72 l0
-45 -52 -3 c-29 -2 -129 0 -223 3 -418 16 -1092 27 -1445 24 -212 -2 -599 -3
-860 -3 -261 0 -503 0 -537 -1 -51 -2 -63 1 -63 13 0 21 -39 21 -46 1 -5 -13
-45 -15 -278 -14 -247 0 -557 10 -791 25 -86 6 -92 7 -103 32 -20 47 -42 171
-52 296 -10 136 -13 161 -30 261 -25 151 -23 180 10 140 17 -21 35 -19 52 7
14 21 15 21 199 10 151 -10 196 -9 249 2 36 8 78 12 93 9 16 -3 54 -9 85 -14z
m-3768 -384 c4 -11 13 -39 19 -62 6 -23 17 -48 24 -55 7 -7 23 -33 35 -58 12
-25 40 -70 62 -100 22 -30 47 -69 55 -87 8 -17 18 -33 22 -35 10 -4 83 -112
83 -123 0 -20 75 -118 106 -138 18 -12 34 -25 34 -28 0 -4 -47 -7 -104 -8
-100 -2 -105 -1 -117 21 -7 13 -22 35 -35 51 -12 15 -26 46 -29 70 -4 23 -22
67 -40 97 -19 30 -41 70 -49 88 -9 18 -25 46 -36 62 -16 23 -23 54 -30 142 -5
62 -12 136 -15 163 -2 28 -2 43 1 35 3 -8 9 -24 14 -35z m-305 -718 c26 -13
65 -16 350 -21 428 -9 547 -14 620 -31 11 -2 63 -7 115 -11 52 -3 98 -8 101
-10 4 -2 28 -6 55 -9 27 -3 89 -13 137 -21 48 -8 116 -17 150 -20 34 -2 94 -9
132 -14 106 -15 140 -18 260 -25 263 -14 298 -17 440 -35 39 -5 113 -12 165
-15 52 -4 97 -8 101 -10 3 -3 35 -7 70 -10 35 -4 83 -10 107 -16 23 -5 134 -8
246 -6 l203 3 34 28 c19 15 58 50 87 77 30 28 68 56 85 64 18 7 48 20 67 28
69 29 153 39 339 39 127 -1 217 -6 281 -17 52 -9 156 -18 230 -20 74 -1 146
-5 160 -9 14 -3 43 -8 65 -11 121 -13 201 -26 271 -46 43 -12 93 -25 109 -28
45 -10 36 -25 -20 -32 -55 -7 -239 -3 -337 6 -35 3 -126 12 -203 19 -200 19
-351 15 -393 -10 -39 -22 -53 -61 -28 -79 27 -21 295 -40 691 -50 110 -3 223
-8 250 -11 65 -8 119 -30 109 -45 -5 -9 -83 -10 -313 -5 -333 8 -345 8 -441
24 -36 6 -107 14 -158 18 -77 6 -99 4 -131 -11 -32 -14 -61 -48 -61 -70 0 -15
67 -34 140 -40 47 -3 93 -9 104 -12 34 -10 1 -22 -74 -28 -124 -9 -180 -28
-180 -61 0 -29 42 -36 295 -49 72 -3 198 -13 280 -20 83 -8 193 -17 245 -20
97 -6 221 -22 229 -31 13 -12 -31 -15 -300 -20 -637 -12 -776 -10 -1089 11
-174 12 -248 46 -325 151 -53 73 -92 100 -166 115 -30 6 -215 12 -414 15 -198
2 -407 7 -465 11 -58 4 -125 7 -150 6 -25 0 -115 -1 -200 -2 -174 -2 -606 23
-785 46 -22 2 -218 6 -435 7 -217 2 -456 8 -530 14 -74 6 -183 11 -242 12
l-106 0 -23 36 c-28 45 -36 114 -18 156 15 36 70 89 103 100 31 10 138 7 161
-5z m1130 -387 c8 0 20 -6 27 -13 7 -7 29 -19 48 -27 19 -8 54 -34 78 -57 23
-24 49 -43 57 -43 8 0 15 -4 15 -10 0 -5 11 -10 25 -10 17 0 29 -8 36 -22 10
-23 98 -71 151 -82 15 -3 34 -13 42 -21 8 -9 30 -21 48 -27 18 -6 35 -14 38
-18 3 -4 39 -28 80 -55 41 -27 83 -58 92 -70 9 -12 35 -27 57 -35 23 -7 41
-16 41 -20 0 -10 80 -30 117 -30 17 0 56 -17 92 -41 35 -22 78 -47 97 -55 19
-8 37 -21 41 -29 3 -8 11 -15 18 -15 7 0 15 -4 17 -9 2 -6 52 -15 113 -21 60
-6 112 -15 115 -20 3 -5 38 -16 78 -25 40 -8 85 -21 100 -29 15 -7 49 -17 75
-20 27 -4 57 -16 66 -25 14 -14 48 -22 135 -31 64 -7 116 -16 116 -20 0 -4 50
-13 111 -20 61 -6 126 -18 145 -26 18 -8 53 -14 77 -14 24 0 47 -4 53 -9 5 -6
70 -15 144 -21 74 -6 200 -19 280 -28 80 -9 253 -19 385 -22 132 -3 228 -7
212 -8 -22 -2 -29 -8 -33 -31 -6 -26 -9 -28 -33 -20 -22 7 -213 23 -561 46
-52 3 -97 9 -100 13 -3 3 -66 14 -140 25 -74 10 -140 22 -146 26 -5 5 -104 13
-220 19 -115 7 -216 14 -224 18 -8 3 -53 11 -100 18 -148 22 -293 51 -370 74
-41 12 -84 24 -95 27 -11 4 -22 9 -25 13 -3 4 -41 15 -85 25 -44 9 -84 21 -90
25 -5 4 -35 13 -65 20 -30 6 -66 20 -80 29 -14 9 -40 23 -57 30 -18 8 -33 17
-33 20 0 4 -18 17 -40 30 -43 24 -133 82 -165 106 -10 8 -22 15 -27 15 -7 0
-99 60 -108 70 -10 12 -95 67 -136 88 -23 12 -48 27 -55 35 -8 7 -43 31 -79
52 -36 22 -67 42 -70 45 -3 3 -23 14 -45 23 -22 10 -64 40 -93 67 -29 28 -55
50 -59 50 -3 0 -20 11 -38 24 -18 14 -47 32 -66 40 -19 9 -26 14 -16 11 10 -3
25 -5 32 -5z m8263 -60 c-7 -11 -20 -23 -29 -25 -9 -3 -44 -30 -78 -59 -34
-29 -83 -64 -109 -77 -25 -13 -51 -27 -57 -32 -5 -4 -39 -26 -75 -49 -36 -22
-76 -49 -90 -58 -32 -21 -117 -60 -130 -60 -5 0 -10 -4 -10 -9 0 -5 -15 -12
-34 -15 -32 -6 -145 -61 -156 -75 -3 -4 -30 -15 -61 -25 -31 -9 -71 -27 -88
-40 -21 -16 -52 -25 -97 -30 -59 -6 -100 -20 -114 -38 -3 -3 -32 -14 -65 -23
-33 -10 -65 -21 -70 -25 -6 -5 -33 -14 -60 -21 -28 -6 -59 -17 -70 -24 -11 -7
-46 -21 -78 -31 -31 -10 -57 -21 -57 -26 0 -4 -8 -8 -17 -8 -20 0 -133 -39
-149 -51 -6 -5 -36 -11 -67 -15 -31 -4 -57 -10 -57 -15 0 -5 -7 -6 -15 -3 -8
4 -21 2 -28 -4 -6 -5 -30 -13 -52 -17 -22 -4 -44 -10 -50 -14 -13 -10 -135
-34 -142 -28 -2 3 20 14 49 25 29 11 78 31 108 45 30 13 85 30 123 38 37 7 67
16 67 19 0 4 33 12 73 19 39 7 99 21 132 31 33 10 81 24 108 31 26 6 47 15 47
20 0 4 17 13 38 20 20 6 64 27 98 45 33 19 68 34 77 34 8 0 22 6 29 13 7 8 31
20 52 27 22 7 53 21 70 30 17 10 49 23 71 30 22 7 45 16 50 20 6 4 36 15 67
25 32 10 63 24 69 31 6 8 17 14 25 14 7 0 19 6 26 13 7 7 18 14 23 15 26 5 45
14 45 22 0 4 12 11 28 15 15 3 55 20 90 36 34 16 66 29 71 29 5 0 16 6 23 13
7 6 31 21 53 32 22 11 42 23 45 26 3 3 41 23 85 44 44 22 82 42 85 45 3 3 16
11 30 18 14 6 52 30 85 51 69 45 80 49 63 21z m-4128 -1018 c223 -6 244 -8
165 -15 -49 -4 -121 -12 -160 -17 -92 -12 -390 -6 -535 10 l-115 14 55 12 c36
8 104 10 195 7 77 -3 255 -8 395 -11z"/>
</g>
</svg>
