<?xml version="1.0" standalone="no"?>
<!DOCTYPE svg PUBLIC "-//W3C//DTD SVG 20010904//EN"
 "http://www.w3.org/TR/2001/REC-SVG-20010904/DTD/svg10.dtd">
<svg version="1.0" xmlns="http://www.w3.org/2000/svg"
 width="1037.000000pt" height="1083.000000pt" viewBox="0 0 1037.000000 1083.000000"
 preserveAspectRatio="xMidYMid meet">
<metadata>
Created by potrace 1.16, written by Peter Selinger 2001-2019
</metadata>
<g transform="translate(0.000000,1083.000000) scale(0.100000,-0.100000)"
fill="#000000" stroke="none">
<path d="M7495 10454 c-5 -2 -74 -8 -153 -13 -210 -15 -522 -92 -615 -151 -97
-62 -127 -119 -127 -244 0 -85 36 -117 182 -165 105 -35 104 -36 -43 -70 -103
-24 -329 -106 -425 -154 -38 -19 -80 -38 -94 -42 -44 -13 -229 -117 -271 -153
-53 -46 -156 -183 -186 -250 -18 -37 -23 -61 -18 -82 7 -32 35 -53 58 -44 10
3 25 -13 48 -52 66 -112 75 -124 136 -192 35 -39 83 -80 110 -94 26 -14 49
-33 51 -41 3 -14 -19 -72 -72 -192 -7 -16 -13 -33 -12 -36 0 -3 -4 -12 -10
-20 -6 -8 -16 -34 -23 -59 -7 -25 -17 -54 -22 -65 -15 -32 -28 -82 -59 -225
-36 -162 -50 -401 -31 -515 9 -53 9 -78 1 -100 -7 -17 -16 -55 -21 -85 -13
-73 -13 -73 -22 -87 -4 -6 -7 -74 -6 -150 1 -76 0 -217 -1 -314 -2 -155 1
-185 20 -255 12 -43 30 -95 40 -114 10 -20 21 -54 25 -75 4 -22 24 -78 45
-125 21 -47 41 -96 45 -110 l8 -25 -23 20 -23 20 6 -25 c4 -14 7 -31 7 -38 0
-7 11 -17 24 -24 32 -14 43 -44 55 -148 16 -136 94 -348 164 -440 44 -59 137
-146 199 -187 36 -23 70 -43 74 -43 4 0 25 -8 46 -17 40 -18 50 -39 21 -46
-13 -3 -10 -6 10 -12 20 -5 46 -2 81 10 50 17 53 17 86 0 27 -14 65 -19 180
-21 140 -4 149 -2 240 27 52 17 100 37 106 45 6 8 14 11 17 7 4 -3 7 -2 7 4 0
14 49 35 62 27 6 -4 8 -2 4 4 -3 6 2 15 11 21 10 6 14 11 9 11 -5 0 -3 7 4 15
7 8 9 15 5 15 -4 0 12 17 35 38 42 36 89 93 163 198 21 30 42 54 46 54 5 0 14
15 22 33 7 17 15 34 19 37 3 3 29 55 58 115 29 61 57 118 63 127 5 10 9 23 9
30 0 7 6 24 13 38 7 14 19 46 26 73 8 26 18 47 23 47 5 0 6 5 3 10 -3 6 -2 10
3 10 5 0 14 21 20 48 6 26 17 74 25 107 9 33 24 96 35 140 27 111 29 113 76
126 95 25 256 121 256 154 0 5 18 29 39 52 21 23 37 44 34 47 -3 3 2 8 11 12
9 3 13 10 10 15 -3 5 -1 9 4 9 12 0 39 65 58 138 19 73 18 135 -6 228 -27 104
-39 134 -58 134 -8 0 -13 3 -10 6 10 9 -94 102 -134 120 -21 9 -38 21 -38 26
0 5 -10 8 -22 7 -13 -1 -31 1 -40 5 -10 5 -31 1 -49 -8 -18 -9 -36 -16 -41
-16 -11 0 -10 58 2 65 6 3 10 19 10 34 0 15 7 36 15 47 8 10 15 37 15 59 1 53
23 135 39 144 7 5 12 10 11 12 -1 2 1 11 4 19 35 111 49 151 83 245 21 61 45
136 53 168 7 31 16 57 19 58 3 1 31 2 61 4 55 3 203 47 229 68 14 12 46 31 71
44 8 4 23 18 34 30 10 13 21 22 24 18 3 -3 42 32 86 77 82 85 172 211 183 257
3 14 12 35 19 46 8 11 14 28 14 38 0 10 3 16 8 14 4 -3 8 31 10 74 2 64 -1 81
-13 85 -12 5 -14 18 -9 68 4 36 2 78 -5 101 -6 22 -20 81 -31 130 -20 99 -65
222 -103 288 -36 60 -256 271 -362 346 -49 35 -113 83 -142 107 -95 76 -351
195 -518 239 -33 9 -100 18 -150 21 -202 10 -230 11 -240 8z m265 -153 c124
-12 202 -39 387 -133 160 -81 287 -165 436 -287 182 -149 256 -243 297 -376
12 -39 35 -105 52 -149 24 -66 30 -98 35 -200 5 -114 4 -126 -22 -201 -33 -98
-74 -161 -162 -251 -72 -75 -116 -110 -173 -139 -19 -10 -37 -21 -40 -25 -7
-11 -143 -50 -174 -50 -38 0 -63 16 -81 49 -8 16 -27 33 -42 39 -16 5 -35 22
-43 38 -8 16 -20 36 -27 45 -7 9 -26 42 -43 75 -30 61 -62 104 -77 104 -12 -1
-43 -67 -43 -93 1 -42 41 -110 106 -180 45 -47 62 -72 54 -77 -7 -4 -54 -8
-106 -9 -51 -1 -120 -6 -151 -11 -32 -6 -145 -15 -250 -21 -163 -9 -214 -9
-325 4 -73 9 -160 19 -193 22 -263 27 -697 123 -825 182 l-85 39 53 18 c62 20
122 56 122 73 0 19 -77 7 -123 -20 -69 -40 -86 -42 -96 -14 -13 33 -72 77
-104 77 -43 0 -196 184 -253 304 -16 33 -16 36 6 73 59 97 136 164 290 251
148 83 542 215 782 262 100 20 135 88 81 157 -72 90 -85 99 -191 133 l-102 33
6 36 c3 20 16 46 28 58 24 25 135 73 167 73 12 0 79 18 148 41 104 34 146 42
241 49 165 10 331 11 440 1z m-1500 -1676 c103 -53 362 -123 590 -160 52 -8
131 -22 175 -30 44 -9 134 -20 200 -25 66 -6 172 -14 235 -20 175 -15 435 -13
532 4 46 8 116 16 156 18 l72 4 0 -36 c0 -20 -4 -40 -9 -45 -6 -6 -14 -28 -20
-50 -19 -76 -30 -111 -71 -220 -45 -120 -66 -185 -75 -229 -11 -51 -43 -69
-172 -93 -145 -29 -244 -41 -388 -49 -60 -4 -115 -11 -122 -16 -6 -5 -36 -8
-66 -7 -29 1 -59 -1 -66 -5 -6 -4 -17 -3 -24 2 -7 5 -21 6 -32 1 -24 -9 -189
-12 -198 -3 -3 4 -53 6 -111 5 -64 -1 -107 2 -111 8 -3 7 -43 11 -93 11 -152
0 -449 45 -604 91 l-68 20 0 60 c0 55 10 122 42 269 6 30 14 60 17 65 3 6 6
12 6 15 1 3 9 23 19 45 9 22 21 56 26 75 22 85 29 108 48 151 38 88 73 159 78
159 3 0 18 -7 34 -15z m-202 -947 c7 -7 12 -8 12 -4 0 5 6 4 13 -2 28 -23 115
-40 327 -62 47 -5 128 -13 180 -19 119 -13 696 -13 810 0 47 5 128 14 180 19
52 5 127 13 165 19 39 5 94 13 123 17 l52 7 0 -39 c0 -21 -11 -74 -24 -118
-27 -91 -52 -273 -41 -306 7 -23 47 -43 70 -34 8 3 22 32 31 65 15 53 53 109
75 109 4 0 11 10 14 23 10 32 55 76 95 93 49 21 102 3 163 -55 66 -63 91 -130
90 -243 0 -47 -6 -101 -13 -120 -24 -63 -41 -97 -50 -103 -6 -3 -10 -14 -11
-23 -1 -25 -139 -142 -212 -179 -66 -35 -111 -41 -140 -19 -14 11 -24 11 -47
3 -26 -10 -33 -8 -54 12 -30 28 -56 22 -56 -13 0 -26 7 -35 60 -80 l33 -27
-18 -82 c-33 -153 -91 -373 -103 -392 -4 -5 -7 -12 -8 -15 0 -3 -5 -16 -11
-30 -6 -14 -21 -50 -32 -80 -47 -118 -116 -241 -202 -355 -74 -99 -216 -235
-288 -277 -62 -36 -174 -53 -346 -53 -127 0 -148 3 -228 29 -48 15 -100 38
-115 50 -15 12 -38 29 -52 38 -45 28 -125 105 -140 134 -8 16 -27 46 -43 67
-16 20 -25 37 -21 37 4 0 0 8 -8 18 -19 21 -48 114 -52 162 -2 30 -25 81 -53
115 -4 6 -9 35 -11 65 -2 30 -7 69 -12 85 -4 17 -11 47 -15 68 -3 21 -19 81
-36 134 -16 52 -29 114 -29 137 0 29 -3 37 -10 26 -10 -17 -15 -14 -24 17 -4
12 -2 24 4 28 16 10 12 28 -6 21 -12 -5 -15 -2 -10 10 4 10 -5 65 -20 124 -21
88 -24 114 -15 144 6 23 7 125 4 272 -6 231 6 421 29 451 5 7 5 14 -1 17 -6 4
-8 20 -4 37 5 25 2 31 -16 36 -34 9 -19 53 19 53 9 0 21 -5 28 -12z"/>
<path d="M7357 9677 c-3 -9 5 -27 18 -41 20 -22 28 -24 42 -15 25 15 153 -33
353 -132 238 -118 420 -247 420 -298 0 -16 45 -35 64 -28 50 20 -27 122 -155
206 -113 74 -349 193 -524 262 -144 57 -208 71 -218 46z"/>
<path d="M6450 7547 c-23 -9 -75 -21 -145 -33 -53 -9 -125 -53 -125 -76 0 -21
169 20 248 60 60 30 64 33 54 49 -5 7 -15 7 -32 0z"/>
<path d="M7200 7484 c-19 -7 -45 -13 -57 -13 -28 -1 -37 -15 -18 -31 10 -8 32
-10 68 -6 69 9 97 -3 122 -50 16 -32 28 -41 61 -49 25 -6 54 -23 72 -42 16
-18 38 -33 49 -33 10 0 28 -3 40 -6 l23 -6 -17 46 c-11 28 -23 46 -33 46 -9 0
-26 13 -38 29 -12 16 -35 32 -53 36 -17 4 -33 15 -36 24 -7 26 -83 71 -118 70
-16 -1 -46 -7 -65 -15z"/>
<path d="M6402 7390 c-13 -6 -43 -24 -68 -40 -24 -17 -59 -36 -77 -42 -56 -20
-126 -80 -161 -139 -19 -32 -32 -60 -28 -63 3 -3 19 -6 36 -6 17 0 55 -11 84
-25 30 -14 65 -25 77 -25 13 0 27 -5 31 -11 3 -6 21 -17 39 -24 64 -27 295 35
295 80 0 8 13 21 29 29 72 38 47 197 -37 240 -27 14 -142 37 -178 35 -10 0
-29 -4 -42 -9z m48 -71 c0 -5 -3 -8 -7 -6 -10 5 -43 -30 -35 -37 3 -3 1 -6 -5
-6 -41 0 -42 -166 -2 -191 6 -3 2 -9 -10 -12 -22 -5 -57 35 -46 53 3 5 0 7 -8
4 -8 -3 -18 0 -23 7 -5 8 -3 10 6 4 9 -5 11 -4 6 4 -4 6 -12 9 -17 6 -9 -6
-69 25 -69 35 0 14 49 52 60 45 6 -3 9 -3 8 2 -4 13 22 54 31 48 5 -3 12 2 15
11 4 9 9 14 13 10 3 -3 12 3 20 14 15 21 63 28 63 9z"/>
<path d="M7180 7270 c-31 -4 -65 -12 -77 -18 -31 -17 -132 -133 -140 -160 -6
-25 23 -88 58 -128 11 -11 19 -26 19 -32 0 -8 16 -12 43 -12 23 -1 102 -3 174
-6 78 -3 140 -1 150 5 16 8 15 10 -7 14 -14 3 -50 11 -81 17 -31 7 -73 11 -93
8 -20 -2 -36 -3 -36 -1 0 2 27 29 60 61 68 67 74 91 34 133 -34 36 -23 56 17
32 45 -27 83 -72 109 -133 13 -30 33 -65 44 -77 22 -26 58 -30 75 -9 10 12 7
18 -13 31 -13 9 -29 30 -35 48 -16 45 -91 157 -106 157 -6 0 -32 15 -56 34
-54 41 -69 45 -139 36z"/>
<path d="M6623 6792 c-17 -20 -34 -48 -38 -61 -4 -14 -16 -38 -26 -55 -11 -17
-19 -37 -19 -44 0 -7 -22 -48 -50 -92 -27 -44 -50 -84 -50 -90 0 -5 -13 -31
-29 -57 -16 -27 -39 -80 -51 -119 -18 -60 -20 -77 -11 -112 7 -23 18 -48 27
-57 22 -21 64 -30 83 -16 30 21 42 24 65 12 48 -26 117 -10 160 38 17 19 17
21 3 21 -10 0 -17 4 -17 9 0 10 -84 -10 -117 -28 -50 -26 -83 2 -83 69 0 16
-4 32 -10 35 -23 14 -2 107 58 250 11 28 33 82 47 120 15 39 33 77 40 85 17
19 60 130 51 130 -1 0 -16 -17 -33 -38z"/>
<path d="M7196 5971 c-19 -19 -46 -34 -80 -41 -28 -7 -94 -25 -146 -42 -91
-28 -102 -29 -245 -26 -150 3 -150 3 -215 38 -36 19 -67 38 -70 42 -8 10 -100
21 -100 11 0 -14 30 -53 41 -53 6 0 29 -13 52 -29 93 -64 185 -102 270 -111
127 -15 184 -12 295 15 57 14 117 25 134 25 57 0 148 31 168 58 28 35 26 93
-3 120 -32 30 -68 28 -101 -7z"/>
<path d="M3255 7575 c-144 -34 -193 -55 -265 -114 -36 -29 -84 -60 -107 -71
-52 -23 -192 -164 -241 -243 -20 -33 -37 -63 -37 -66 0 -6 -22 -46 -85 -161
-59 -108 -80 -156 -111 -259 -19 -63 -40 -113 -54 -125 -27 -26 -78 -162 -70
-187 4 -11 13 -19 21 -19 8 0 14 -7 14 -16 0 -12 7 -14 33 -9 17 4 38 12 46
19 11 8 15 8 18 -1 13 -38 75 10 99 77 10 27 21 50 25 50 4 0 10 -22 14 -48 8
-57 13 -67 41 -74 32 -8 53 9 77 60 l21 47 4 -37 c4 -50 31 -68 99 -68 29 0
62 -5 72 -11 15 -10 22 -8 40 10 11 11 27 21 34 21 6 0 29 43 51 95 21 52 40
95 42 95 1 0 10 -26 19 -57 19 -66 67 -146 101 -168 30 -20 74 -19 88 1 10 14
22 6 83 -53 39 -38 92 -86 119 -108 26 -22 59 -49 72 -62 13 -12 34 -25 46
-29 11 -3 35 -17 52 -30 50 -37 146 -81 192 -88 62 -9 152 -78 168 -128 4 -13
12 -17 24 -13 18 6 119 -28 129 -43 5 -7 174 -93 191 -97 3 -1 25 -11 50 -22
25 -12 68 -29 95 -39 28 -10 59 -23 70 -30 11 -6 31 -15 45 -19 14 -4 53 -20
88 -36 35 -16 69 -29 76 -29 6 0 16 -4 21 -8 6 -4 35 -16 65 -26 30 -11 62
-24 70 -31 8 -6 26 -10 38 -9 13 1 43 -8 65 -20 59 -31 194 -66 370 -97 37 -6
71 -17 75 -24 13 -22 46 -32 147 -44 55 -6 130 -16 168 -21 86 -13 137 -13
137 0 0 6 5 10 10 10 17 0 7 -95 -20 -185 -13 -42 -30 -154 -40 -265 -17 -199
-32 -316 -41 -333 -6 -10 -9 -57 -8 -103 1 -46 -1 -87 -5 -91 -8 -9 -8 -268 1
-277 4 -3 6 -28 4 -55 -1 -27 2 -52 8 -56 6 -3 11 -18 11 -33 0 -32 26 -208
42 -277 6 -27 17 -58 26 -67 16 -19 47 -24 56 -10 9 15 7 126 -3 192 -58 364
-50 694 29 1270 12 87 27 156 39 178 18 33 24 107 9 119 -21 17 -60 23 -79 12
-15 -8 -20 -5 -25 15 -9 36 -33 53 -89 60 -103 14 -194 31 -201 39 -4 4 -21 7
-38 7 -25 0 -82 16 -166 47 -8 3 -38 5 -66 4 -29 -2 -55 2 -58 7 -3 5 -23 13
-43 16 -21 4 -58 13 -83 20 -25 8 -65 19 -90 26 -25 7 -91 28 -146 47 -56 18
-111 33 -122 33 -12 0 -23 4 -26 8 -3 4 -40 19 -83 32 -43 13 -85 30 -94 37
-8 7 -23 13 -31 13 -9 0 -21 7 -28 15 -7 8 -19 15 -26 15 -13 0 -49 16 -239
106 -103 48 -142 64 -157 64 -9 0 -21 7 -28 15 -7 8 -19 15 -27 15 -19 0 -84
52 -146 118 -57 59 -179 124 -254 134 -45 6 -343 263 -358 308 -3 8 -15 20
-27 25 -21 9 -23 16 -22 91 1 68 5 87 28 127 28 47 97 140 138 187 13 14 37
43 53 64 39 49 94 106 103 106 4 0 23 15 41 33 19 17 64 51 99 74 54 36 64 39
68 25 16 -49 31 -81 56 -122 15 -25 36 -61 47 -81 11 -20 40 -58 65 -85 112
-122 133 -144 140 -144 5 0 17 -11 28 -25 11 -14 26 -25 34 -25 8 0 14 -5 14
-11 0 -5 16 -17 35 -25 20 -8 44 -23 55 -34 11 -11 25 -20 31 -20 6 0 89 -54
186 -120 96 -66 178 -120 183 -120 4 0 19 -9 33 -20 14 -11 106 -61 204 -111
162 -83 283 -134 418 -176 28 -8 73 -25 100 -37 28 -13 70 -28 95 -35 25 -7
57 -19 72 -27 14 -8 37 -14 50 -14 13 0 34 -7 46 -16 12 -8 30 -14 40 -13 9 2
33 -4 52 -13 19 -9 62 -20 95 -23 l60 -7 -35 26 c-19 15 -75 46 -125 71 -80
39 -123 59 -256 118 -19 9 -66 31 -105 48 -38 18 -72 33 -76 34 -5 2 -10 4
-13 5 -3 1 -8 3 -12 5 -18 5 -51 18 -91 36 -42 19 -91 33 -167 49 -22 4 -53
13 -70 18 -16 6 -50 16 -75 23 -72 21 -238 108 -260 137 -3 4 -16 13 -30 20
-14 6 -45 27 -70 46 -25 19 -48 35 -52 35 -4 1 -37 23 -73 51 -66 50 -107 92
-316 320 -63 69 -124 133 -136 143 -33 26 -70 114 -78 184 -8 75 -23 92 -68
75 -29 -11 -32 -10 -73 34 -23 24 -48 58 -55 74 -13 28 -41 49 -124 90 -22 11
-60 35 -84 55 -54 43 -90 45 -236 10z m203 -110 c26 -20 52 -36 57 -36 13 0
63 -48 125 -120 l49 -56 -52 -39 c-77 -58 -317 -301 -317 -321 0 -11 -29 -40
-45 -45 -5 -2 -10 -10 -10 -18 0 -10 -8 -14 -23 -12 -17 3 -34 -9 -64 -40 -22
-24 -69 -74 -104 -111 -61 -64 -79 -93 -120 -197 -10 -25 -23 -52 -30 -60 -18
-22 -94 -42 -145 -38 -40 3 -44 5 -42 28 1 14 7 39 14 55 6 17 13 41 15 54 2
13 26 70 54 127 42 85 63 113 121 168 39 36 74 66 79 66 16 0 21 89 8 128 -16
47 -25 53 -65 46 -29 -5 -33 -3 -33 14 0 36 -19 35 -60 -2 -22 -20 -44 -36
-50 -36 -18 0 -132 -155 -166 -227 -19 -40 -39 -75 -45 -78 -5 -4 -9 -14 -7
-23 2 -16 -31 -98 -68 -167 -9 -16 -25 -48 -36 -70 -44 -92 -43 -90 -73 -88
-16 1 -36 -4 -45 -11 -8 -7 -23 -16 -32 -19 -32 -11 -21 29 28 100 31 47 44
75 41 92 -3 14 11 56 33 105 20 44 45 104 54 132 9 29 32 71 50 95 19 24 60
89 91 144 32 55 76 122 98 148 24 29 40 60 42 79 3 45 53 80 157 112 47 14
110 42 138 61 63 42 210 87 308 94 12 0 44 -15 70 -34z m-587 -526 c-20 -25
-39 -45 -43 -43 -3 2 -4 -4 -2 -13 5 -22 -40 -109 -54 -106 -7 2 -9 -4 -5 -14
4 -11 3 -14 -5 -9 -8 5 -10 1 -5 -10 4 -12 3 -15 -5 -10 -8 4 -10 2 -6 -7 3
-8 -2 -21 -10 -30 -8 -8 -12 -17 -9 -21 4 -3 1 -6 -6 -6 -8 0 -11 -8 -8 -20 3
-11 2 -20 -3 -20 -9 0 -40 -106 -40 -137 0 -11 -8 -27 -17 -34 -17 -13 -17
-13 -3 6 14 18 14 19 -2 7 -9 -8 -15 -19 -12 -26 3 -8 -2 -16 -12 -20 -14 -6
-16 -1 -12 37 6 53 37 138 48 132 5 -3 6 5 2 17 -3 11 -1 19 4 16 5 -4 9 21 9
55 1 62 34 157 55 157 6 0 9 3 8 8 -2 4 33 44 77 89 63 65 81 79 86 66 4 -11
-7 -35 -30 -64z"/>
<path d="M2836 5886 c-19 -16 -34 -42 -42 -73 -27 -100 -12 -138 58 -149 64
-11 168 59 168 113 0 10 -5 35 -11 55 -11 42 -40 62 -104 72 -33 5 -45 2 -69
-18z"/>
<path d="M7877 5832 c-10 -10 -17 -33 -17 -50 0 -28 6 -34 58 -60 196 -97 243
-121 314 -163 25 -15 49 -25 52 -22 3 3 8 -2 12 -11 3 -9 12 -16 20 -16 8 0
14 -4 14 -10 0 -5 6 -10 13 -10 6 0 35 -12 62 -26 28 -14 76 -39 107 -55 31
-16 60 -33 63 -39 3 -5 13 -10 22 -10 9 0 46 -17 82 -37 36 -21 70 -38 74 -38
4 0 11 -5 15 -10 4 -6 19 -16 35 -24 15 -8 27 -18 27 -23 0 -4 5 -8 11 -8 7 0
43 -21 82 -47 38 -27 77 -52 86 -58 9 -5 30 -19 46 -30 17 -12 42 -26 58 -33
15 -6 27 -16 27 -22 0 -5 3 -9 8 -8 4 1 21 -11 38 -27 18 -17 38 -35 45 -42
34 -29 67 -69 70 -83 3 -20 -9 -48 -38 -86 -13 -17 -23 -34 -23 -38 0 -3 -16
-29 -35 -56 -19 -27 -35 -52 -35 -55 0 -2 -36 -54 -81 -115 -44 -61 -104 -148
-133 -194 -30 -45 -62 -91 -72 -101 -11 -10 -19 -23 -19 -28 0 -5 -7 -14 -15
-20 -18 -15 -61 -73 -79 -109 -12 -24 -31 -48 -114 -149 -15 -19 -68 -87 -118
-152 -50 -65 -109 -137 -130 -159 -21 -23 -39 -44 -39 -46 0 -3 -19 -28 -41
-54 -34 -41 -40 -54 -35 -79 7 -37 -4 -37 -59 1 -24 17 -58 33 -75 36 -17 4
-33 11 -36 15 -3 5 -12 9 -20 9 -14 0 -24 7 -59 38 -8 7 -19 11 -24 8 -5 -4
-16 1 -24 9 -9 8 -19 15 -24 15 -4 0 -29 11 -55 24 -25 13 -59 29 -75 35 -45
18 -86 46 -83 56 6 21 135 165 148 165 7 0 10 5 7 10 -3 6 -2 10 4 10 6 0 25
17 43 37 18 20 40 44 48 52 8 9 26 32 40 51 33 48 105 120 119 120 6 0 11 5
11 10 0 6 15 26 33 46 17 19 40 49 50 67 9 17 17 27 17 22 0 -5 12 8 27 30 37
55 146 185 155 185 4 0 8 6 8 13 0 7 27 46 60 87 84 106 83 116 -24 218 -81
76 -191 160 -229 175 -11 4 -15 12 -11 18 5 8 3 9 -5 4 -8 -4 -27 5 -49 22
-41 31 -78 57 -127 88 -104 64 -155 101 -155 113 0 6 -4 12 -10 12 -6 0 -6 9
0 26 9 23 8 25 -12 18 -47 -14 -126 -52 -133 -64 -4 -6 0 -19 9 -29 17 -18 13
-73 -6 -98 -5 -6 -9 -36 -8 -65 2 -29 0 -60 -3 -68 -17 -46 -27 -314 -26 -682
1 -466 4 -440 -75 -518 -25 -25 -46 -52 -46 -59 0 -8 -12 -28 -27 -44 -19 -20
-24 -31 -15 -34 18 -7 15 -16 -15 -49 -48 -52 -73 -64 -135 -64 -31 0 -60 -4
-63 -10 -3 -5 -44 -10 -91 -10 -88 0 -124 -10 -124 -35 0 -8 -6 -15 -13 -15
-8 0 -19 -12 -26 -26 -10 -22 -16 -25 -40 -21 -20 4 -33 1 -42 -9 -11 -13 -33
-15 -138 -10 -69 3 -236 7 -371 8 -425 5 -895 20 -906 30 -7 5 -16 8 -20 7 -5
-1 -16 0 -24 3 -8 4 -23 9 -32 12 -25 8 -22 19 13 57 20 22 29 40 27 58 -5 44
-33 37 -57 -14 -11 -25 -23 -45 -26 -45 -3 0 -5 16 -5 35 0 24 5 35 15 35 10
0 15 10 15 29 0 23 -10 38 -42 64 -65 52 -165 117 -206 134 l-37 15 20 -23
c18 -20 18 -22 2 -16 -10 4 -43 13 -75 22 -31 8 -82 24 -112 36 -30 11 -89 27
-130 35 -41 8 -99 23 -128 34 -151 57 -387 100 -542 100 -69 0 -175 6 -235 14
-61 8 -141 17 -180 19 l-70 5 50 -13 50 -13 -95 0 c-109 0 -182 15 -90 18 l55
2 -40 10 c-23 6 -135 8 -270 5 -183 -4 -249 -10 -324 -26 -51 -11 -143 -25
-205 -31 -94 -9 -252 -38 -306 -58 -8 -3 -18 -6 -22 -6 -3 -1 -10 -4 -14 -9
-4 -4 -18 -7 -31 -7 -14 0 -33 -5 -44 -11 -20 -10 -67 -20 -176 -39 -59 -9
-101 -26 -222 -88 -143 -73 -201 -134 -201 -210 0 -34 31 -75 89 -114 20 -14
24 -26 25 -75 l1 -58 -310 1 c-170 1 -377 -2 -460 -6 -82 -5 -289 -16 -460
-25 -177 -10 -356 -14 -417 -11 -76 4 -109 3 -114 -5 -13 -22 -5 -64 20 -109
25 -44 26 -49 27 -260 1 -118 4 -227 8 -242 7 -29 45 -72 146 -163 36 -33 71
-71 77 -85 5 -14 14 -119 18 -234 5 -115 12 -233 16 -263 l6 -53 54 0 54 0 0
78 c0 42 -5 132 -12 200 -12 127 -7 159 23 130 60 -60 421 -349 510 -410 39
-26 77 -56 87 -67 9 -11 49 -38 87 -59 161 -89 273 -158 322 -199 28 -24 70
-54 93 -67 41 -23 72 -59 90 -103 7 -18 18 -23 45 -23 23 0 34 -4 33 -12 -8
-38 974 -37 1322 1 52 6 298 15 545 21 248 5 493 14 545 20 52 6 178 15 280
21 410 21 706 44 855 65 286 40 318 44 550 59 50 4 104 8 120 10 17 3 95 7
175 10 80 3 186 8 235 11 50 2 410 9 800 14 753 9 834 12 1180 35 235 16 408
35 545 60 47 9 138 18 203 22 132 7 124 1 129 93 3 38 6 45 26 48 19 3 22 10
22 44 0 31 -7 46 -32 72 -48 48 -67 74 -61 80 4 3 -1 6 -11 6 -9 0 -19 7 -22
15 -4 8 -10 13 -14 10 -5 -3 -13 3 -19 12 -6 10 -11 14 -11 8 0 -5 -10 2 -23
16 -12 15 -38 34 -57 42 -19 8 -46 24 -59 36 -26 23 -41 27 -41 11 0 -13 -67
-13 -75 -1 -3 5 -31 12 -63 16 -31 3 -66 10 -77 15 -26 11 -98 28 -155 36 -74
11 -92 15 -109 23 -9 5 -70 19 -136 31 -66 12 -131 26 -145 30 -14 5 -65 16
-115 25 -125 21 -235 46 -265 58 -14 5 -35 9 -47 8 -11 -1 -24 3 -28 8 -3 6
-22 11 -41 11 -19 0 -60 9 -91 20 -32 11 -79 20 -105 20 -27 0 -56 4 -66 9
-15 8 -174 46 -307 73 -27 6 -90 21 -140 34 -49 12 -139 35 -200 49 -60 15
-117 30 -125 33 -8 3 -19 7 -25 7 -5 1 -17 4 -25 7 -55 19 -123 37 -175 48
-33 6 -76 15 -95 20 -34 9 -52 13 -215 46 -44 9 -90 20 -102 25 -13 5 -53 15
-90 24 -38 8 -77 19 -88 24 -11 4 -56 17 -100 27 -55 14 -80 24 -80 34 0 19
123 33 215 24 111 -11 790 -5 849 7 30 6 71 8 92 5 44 -7 44 -6 53 54 l7 46
-80 -7 c-122 -11 -467 -12 -1141 -5 -480 5 -626 10 -665 21 -27 8 -69 19 -93
26 -52 15 -102 68 -102 107 0 28 44 82 66 82 6 0 29 9 52 20 52 25 168 50 310
67 29 3 55 10 58 15 3 4 13 0 22 -11 16 -20 39 -20 746 -31 l730 -11 29 -25
c27 -22 70 -31 131 -25 11 1 59 -11 107 -26 l87 -27 -21 -41 c-12 -22 -22 -42
-22 -45 -1 -3 -7 -16 -13 -30 -11 -24 -38 -138 -49 -210 -12 -83 87 -96 174
-22 38 33 49 38 56 27 18 -33 157 -82 194 -68 10 3 29 15 42 25 28 21 41 23
41 6 1 -7 17 -25 37 -40 51 -39 100 -38 138 2 25 27 31 29 41 16 16 -22 103
-57 146 -59 28 -1 50 8 94 38 32 22 67 45 78 50 12 6 32 32 45 59 l25 50 -19
80 c-10 45 -20 116 -22 159 l-5 77 75 0 c111 0 197 -46 198 -106 0 -72 -12
-98 -59 -129 -25 -16 -64 -37 -87 -45 -47 -17 -56 -34 -20 -38 30 -4 117 40
163 82 46 42 62 77 62 133 0 40 -6 54 -33 83 -53 57 -83 71 -151 74 -62 3
-106 18 -106 36 0 6 8 10 18 10 10 0 25 12 33 28 7 15 36 55 64 88 119 146
151 187 165 209 19 33 42 40 57 19 14 -19 15 -19 30 16 6 14 32 54 59 90 29
40 47 73 45 87 -2 20 61 124 81 131 4 2 6 7 3 12 -3 5 5 17 17 27 24 19 118
137 118 148 0 3 19 31 43 62 23 30 48 66 55 79 7 13 18 24 23 24 6 0 7 5 4 10
-3 6 1 13 9 16 9 3 16 13 16 20 0 8 7 17 15 20 8 4 15 11 15 18 1 19 56 86 65
78 5 -4 5 -2 2 4 -3 6 12 37 33 70 22 32 40 65 40 72 0 6 5 12 10 12 6 0 10 6
10 14 0 7 9 25 21 40 11 14 18 30 15 35 -3 5 1 11 9 15 9 3 15 18 15 35 0 23
-14 44 -65 94 -36 36 -65 70 -65 76 0 6 -4 10 -8 8 -5 -1 -30 19 -57 46 -27
26 -52 47 -57 47 -5 0 -32 17 -61 39 -29 21 -76 50 -104 64 -28 14 -53 34 -57
43 -4 9 -9 14 -12 11 -4 -3 -21 5 -38 18 -17 13 -116 66 -219 119 -104 52
-195 100 -203 107 -8 6 -14 8 -14 4 0 -5 -8 -1 -17 7 -10 8 -101 57 -203 107
-212 106 -244 124 -284 163 -35 33 -56 35 -79 10z m55 -749 c5 -11 86 -63 98
-63 6 0 16 -5 23 -11 10 -8 119 -82 216 -144 120 -77 201 -142 201 -160 0 -16
-46 -101 -73 -137 -68 -87 -88 -114 -152 -193 -130 -163 -217 -262 -352 -402
-18 -18 -37 -33 -43 -33 -6 0 -10 35 -11 88 -7 529 -5 582 22 882 15 177 16
180 44 180 13 0 25 -3 27 -7z m-4307 -1104 c22 -5 96 -12 165 -14 315 -10 524
-35 960 -115 165 -30 387 -100 403 -127 5 -8 16 -11 26 -8 19 6 175 -71 238
-118 38 -28 42 -37 43 -73 0 -36 -4 -43 -45 -72 -51 -36 -67 -39 -85 -17 -7 8
-16 15 -21 15 -5 0 -31 15 -57 34 -26 18 -61 36 -77 39 -17 4 -64 13 -105 22
-159 33 -298 49 -570 66 -241 15 -792 19 -925 7 -60 -5 -157 -9 -214 -9 -134
1 -502 -36 -530 -53 -6 -4 -37 -11 -68 -17 -120 -21 -150 -27 -228 -48 -44
-12 -90 -26 -102 -33 -15 -8 -30 -8 -50 -1 -15 6 -48 17 -73 24 -25 7 -69 26
-97 41 -58 31 -83 35 -83 14 0 -34 -103 -27 -124 8 -9 14 -6 21 14 37 14 11
32 25 40 32 46 37 121 80 188 107 42 18 81 36 87 41 5 5 18 9 29 9 22 0 62 12
156 46 36 13 76 24 88 24 12 0 64 11 116 25 52 14 108 25 124 25 17 0 33 4 37
10 3 5 12 7 19 4 8 -3 17 -1 21 5 3 6 25 11 48 11 82 0 234 41 222 60 -8 14
377 13 430 -1z m4063 -375 c13 -9 21 -21 19 -28 -3 -8 6 -10 31 -8 24 3 33 1
28 -7 -4 -7 -1 -9 8 -5 19 7 70 -23 110 -65 17 -17 38 -31 48 -31 11 0 17 -4
14 -9 -3 -4 6 -6 21 -3 15 3 23 1 20 -4 -3 -6 3 -10 13 -10 10 0 16 4 14 8
-16 25 105 -4 130 -30 15 -17 14 -19 -9 -32 -30 -16 -45 -63 -45 -138 0 -61
18 -142 32 -142 5 0 6 -4 3 -10 -3 -5 -1 -10 5 -10 6 0 9 -4 6 -9 -4 -5 -2
-11 4 -13 5 -1 15 -30 21 -63 l11 -60 -46 -42 c-51 -46 -68 -47 -91 -2 -16 31
-20 53 -7 45 13 -8 -2 67 -18 92 -19 28 -72 30 -99 3 -11 -11 -17 -22 -13 -25
3 -3 0 -6 -7 -6 -9 0 -12 -11 -9 -35 2 -19 0 -35 -5 -35 -4 0 -5 -4 -2 -10 3
-5 1 -10 -4 -10 -6 0 -11 -7 -11 -15 0 -8 -2 -15 -4 -15 -2 0 -12 -3 -22 -7
-14 -5 -16 -3 -11 11 4 11 3 15 -4 10 -8 -5 -10 4 -7 29 2 20 0 33 -4 31 -4
-3 -8 9 -8 26 0 48 -29 90 -62 90 -28 0 -78 -43 -78 -67 0 -7 -5 -13 -11 -13
-5 0 -7 -4 -4 -10 3 -5 1 -10 -5 -10 -6 0 -8 -5 -5 -10 3 -6 -6 -15 -20 -20
-31 -12 -58 -13 -51 -2 2 4 -8 8 -22 7 -21 0 -28 5 -30 25 -4 34 -23 71 -34
64 -4 -3 -8 0 -8 5 0 6 -9 11 -20 11 -11 0 -20 -5 -20 -12 0 -6 -3 -8 -6 -5
-4 4 -34 -21 -67 -56 l-59 -62 5 35 c3 19 9 54 12 78 4 23 10 40 15 37 4 -3 6
5 2 17 -3 13 -1 19 5 15 7 -4 9 0 7 10 -3 10 9 40 26 67 l32 49 -23 44 c-14
27 -28 42 -36 39 -7 -3 -13 -2 -13 2 0 5 -30 14 -67 22 -85 16 -94 20 -87 32
4 6 0 14 -7 19 -9 5 18 9 69 9 46 0 81 -3 79 -7 -3 -5 10 -8 28 -8 18 0 32 2
29 4 -9 9 71 42 92 38 14 -2 21 0 17 6 -4 6 0 8 10 4 9 -3 19 -1 23 5 5 7 2 8
-6 3 -9 -5 -11 -4 -6 4 4 6 15 10 23 9 10 -2 17 6 19 21 5 28 69 102 80 93 4
-4 4 -2 0 5 -8 14 14 53 29 53 6 0 21 -7 33 -16z m-3772 -44 c10 -10 160 -21
544 -40 206 -10 475 -41 580 -68 46 -12 104 -42 95 -50 -23 -23 -167 -46 -350
-57 -55 -3 -176 -12 -270 -20 -281 -23 -1137 -27 -1347 -5 -478 49 -498 52
-498 85 0 7 15 17 33 20 17 4 37 11 42 15 6 4 66 17 135 29 69 13 160 29 203
37 42 8 97 14 120 14 65 0 252 30 255 41 5 13 445 12 458 -1z m-1771 -150 c20
-13 47 -20 80 -20 28 0 70 -6 95 -14 25 -8 72 -20 105 -27 33 -7 67 -16 76
-20 9 -5 53 -10 98 -13 45 -2 87 -8 94 -14 23 -18 118 -32 357 -52 63 -5 153
-13 200 -19 91 -10 1068 -7 1110 3 31 8 312 27 474 33 l119 4 -6 -68 c-6 -81
6 -114 63 -167 39 -35 69 -52 144 -78 44 -15 74 -50 78 -92 5 -47 -37 -71
-126 -71 l-73 0 -46 47 c-26 25 -47 55 -47 65 0 21 -20 80 -37 108 -11 18 -12
17 -13 -15 0 -19 -3 -52 -6 -72 -5 -30 -3 -38 9 -38 19 0 57 -46 57 -69 0 -39
23 -52 114 -61 60 -6 95 -15 108 -26 19 -18 19 -18 -4 -30 -47 -24 -286 -83
-363 -89 -44 -3 -276 -2 -515 4 -1063 25 -1381 46 -1548 101 -50 16 -111 30
-134 31 -24 0 -74 8 -113 18 -61 15 -67 18 -42 24 42 11 32 27 -18 27 -63 0
-94 19 -136 82 -20 29 -43 64 -52 78 -86 128 -96 145 -168 278 -37 67 -40 133
-7 156 29 20 37 20 73 -4z m-325 -211 c91 -6 178 -15 193 -21 27 -10 77 -74
77 -98 0 -6 23 -33 50 -61 28 -27 50 -56 50 -62 0 -23 -23 -37 -60 -37 -81 0
-183 -91 -154 -137 15 -26 153 -93 280 -136 119 -41 154 -60 154 -82 0 -8 15
-17 38 -20 89 -16 210 -47 247 -65 60 -29 127 -41 245 -43 109 -3 111 -4 176
-52 15 -11 64 12 72 35 3 8 14 25 25 37 l20 22 -24 5 c-13 3 -46 7 -74 9 -27
3 -79 10 -115 15 -36 6 -101 16 -145 23 -44 6 -88 18 -97 26 -16 14 -18 14
-24 -1 -8 -21 -67 -22 -84 -1 -7 8 -19 15 -28 15 -9 0 -29 4 -46 9 -17 6 -58
15 -91 22 -33 7 -76 20 -95 28 -19 8 -39 14 -44 12 -9 -2 -39 11 -108 46 -14
7 -32 13 -38 13 -15 0 -137 98 -144 115 -5 14 45 55 67 55 8 0 20 6 26 14 10
11 19 12 42 4 17 -6 33 -8 36 -4 12 11 51 -35 46 -54 -4 -13 4 -23 24 -34 45
-23 204 -65 306 -81 51 -8 117 -24 147 -35 103 -41 392 -82 695 -100 99 -6
223 -16 275 -21 98 -10 541 -27 780 -30 l135 -2 -90 -8 c-49 -5 -144 -11 -210
-13 -66 -2 -133 -9 -149 -15 -15 -6 -105 -14 -199 -18 -159 -6 -170 -5 -164
11 4 10 7 22 7 27 0 5 7 9 15 9 8 0 15 5 15 10 0 26 -104 -6 -130 -40 -16 -21
-20 -21 -192 -17 -186 5 -213 1 -186 -30 8 -10 19 -28 22 -40 6 -19 16 -22
109 -27 155 -9 467 -9 705 0 194 8 215 11 228 28 8 11 14 28 14 38 0 13 10 20
30 25 17 3 33 9 35 13 5 9 84 -8 101 -22 13 -9 16 -9 247 51 87 23 176 51 199
62 59 30 117 51 163 58 35 5 41 10 51 41 6 19 21 39 33 45 11 5 24 19 27 30
10 34 66 85 93 85 20 1 12 7 -29 24 -66 27 -77 52 -26 58 63 7 106 -2 106 -22
0 -26 66 -54 170 -74 47 -8 103 -20 125 -25 22 -6 72 -17 110 -26 39 -9 86
-20 105 -25 19 -5 80 -18 135 -30 55 -12 104 -26 110 -31 5 -5 19 -9 31 -9 13
0 25 -4 28 -9 3 -5 15 -7 25 -4 10 3 22 0 25 -6 4 -6 20 -11 36 -11 16 0 49
-6 72 -14 71 -22 117 -34 243 -61 66 -15 142 -33 169 -41 26 -8 58 -14 70 -15
11 0 15 -3 9 -6 -28 -11 -10 -21 55 -33 98 -17 234 -59 227 -70 -4 -6 1 -7 11
-3 10 3 15 2 12 -3 -3 -5 7 -9 23 -10 22 -1 27 2 19 12 -7 8 -7 14 -1 18 5 4
12 3 15 -2 3 -5 19 -7 36 -4 16 2 36 0 43 -6 13 -11 83 -28 257 -63 132 -26
179 -37 220 -49 19 -5 53 -10 74 -10 35 0 79 -10 276 -59 25 -7 81 -18 125
-26 120 -21 178 -35 200 -47 18 -10 126 -33 275 -58 30 -5 80 -17 110 -25 30
-9 91 -24 135 -34 44 -10 98 -23 120 -31 44 -14 87 -48 79 -61 -3 -5 -110 -9
-237 -10 -128 0 -272 -4 -322 -8 -49 -4 -110 -3 -135 2 -39 9 -119 4 -310 -17
-9 -1 -21 -6 -29 -10 -7 -5 -18 -3 -24 3 -14 14 -94 14 -102 0 -4 -6 -48 -9
-115 -8 -59 1 -112 -1 -117 -4 -5 -3 -61 -11 -124 -17 -63 -6 -141 -15 -173
-20 -33 -5 -107 -10 -165 -10 -58 -1 -185 -6 -281 -11 -309 -15 -432 -17 -585
-9 -82 4 -204 3 -270 -2 -66 -5 -184 -9 -263 -8 -80 0 -151 -4 -162 -10 -10
-6 -137 -15 -282 -20 -297 -12 -325 -14 -335 -23 -3 -4 -391 -7 -861 -7 l-854
0 -18 23 -18 22 -669 0 -668 1 -45 24 c-49 27 -60 34 -96 68 -14 12 -31 22
-39 22 -8 0 -15 5 -15 10 0 6 -5 10 -11 10 -7 0 -58 31 -114 69 -56 38 -116
76 -135 86 -18 9 -42 25 -52 35 -10 9 -44 35 -76 56 -31 21 -63 47 -70 56 -7
10 -19 18 -25 18 -7 0 -20 9 -30 20 -9 11 -23 20 -31 20 -8 0 -16 7 -20 15 -3
8 -12 15 -21 15 -14 0 -46 25 -99 76 -11 11 -37 31 -56 44 -19 13 -37 27 -40
30 -3 3 -31 24 -62 48 -32 23 -58 47 -58 52 0 6 -6 10 -14 10 -8 0 -44 29 -80
65 -36 36 -67 65 -70 65 -4 0 -28 21 -54 48 -27 26 -77 72 -111 102 -81 71
-273 261 -268 266 2 2 50 7 108 10 57 4 109 11 116 16 6 5 49 9 95 8 46 -1 90
0 98 3 22 8 291 26 459 32 79 3 147 7 149 10 9 8 177 6 352 -6z m-1297 -275
c26 -25 47 -48 47 -52 1 -9 157 -137 198 -162 18 -11 40 -33 51 -50 10 -17 34
-43 53 -58 19 -15 104 -84 189 -154 85 -71 165 -137 179 -147 14 -11 43 -35
66 -53 22 -18 75 -58 117 -88 42 -30 77 -58 77 -62 0 -4 5 -8 10 -8 6 0 33
-16 60 -35 27 -19 53 -35 56 -35 6 0 104 -63 213 -135 24 -17 51 -34 60 -40 9
-5 33 -20 52 -32 21 -14 52 -23 74 -23 21 0 35 -3 31 -7 -4 -4 -15 -8 -24 -8
-30 0 -46 -54 -46 -156 -1 -86 -3 -97 -21 -105 -27 -12 -32 -81 -10 -124 20
-38 17 -42 -22 -34 -20 4 -37 18 -54 46 -13 22 -44 52 -69 66 -25 15 -72 49
-105 75 -51 41 -260 170 -377 234 l-33 18 40 5 c39 6 39 7 15 17 -29 13 -64
40 -128 101 -25 23 -49 42 -54 42 -8 0 -89 66 -193 157 -222 195 -273 241
-290 263 -10 14 -34 39 -53 55 -84 76 -123 114 -169 167 l-50 58 -7 138 c-4
76 -4 146 0 155 12 34 65 20 117 -29z m8730 -1120 l87 -7 0 -37 c0 -36 -1 -37
-42 -43 -24 -4 -104 -15 -178 -26 -151 -22 -361 -43 -675 -66 -115 -8 -244
-20 -285 -25 -41 -6 -284 -13 -540 -15 -474 -5 -655 -10 -700 -20 -14 -3 -133
-8 -265 -10 -132 -3 -303 -9 -380 -15 -77 -6 -201 -15 -275 -20 -229 -17 -362
-29 -425 -40 -33 -6 -186 -15 -340 -21 -154 -5 -307 -14 -341 -19 -33 -4 -108
-6 -165 -3 -57 3 -151 0 -209 -6 -58 -6 -148 -16 -200 -21 -52 -6 -264 -15
-470 -20 -712 -18 -776 -20 -945 -31 -232 -14 -868 -29 -877 -20 -5 4 -11 35
-14 69 -6 56 -5 62 12 62 34 0 47 15 34 37 -9 14 -10 47 -4 128 l9 110 95 6
c52 3 106 2 120 -3 18 -7 27 -5 36 7 10 13 19 14 55 6 24 -6 184 -15 354 -21
171 -6 366 -15 435 -20 147 -12 345 -30 414 -37 39 -5 48 -3 44 8 -3 8 -26 17
-57 20 -100 13 -65 22 54 14 186 -12 2215 -16 2325 -4 52 5 291 14 530 19 239
6 568 14 730 20 162 5 412 9 555 10 143 0 314 5 380 11 66 6 230 13 365 15
135 3 290 9 345 14 98 8 234 6 408 -6z"/>
<path d="M2205 2410 c-186 -8 -262 -16 -305 -30 -14 -5 -37 -11 -52 -14 -27
-6 -28 -9 -28 -66 0 -33 4 -68 9 -78 5 -9 17 -35 27 -56 20 -42 84 -116 101
-116 5 0 15 -10 22 -22 8 -15 38 -32 89 -51 42 -15 109 -40 147 -54 63 -24 81
-27 185 -24 179 4 411 27 453 44 30 13 37 21 37 44 0 29 17 83 38 120 17 30
-4 151 -32 185 -25 30 -154 79 -270 102 -105 21 -205 25 -421 16z m381 -69
c137 -9 204 -28 204 -59 0 -13 -27 -14 -237 -9 -216 6 -340 19 -428 45 -25 8
-15 10 60 16 50 4 99 8 110 10 40 6 163 5 291 -3z m-626 -49 c0 -14 69 -30
155 -37 44 -3 127 -13 185 -22 95 -15 432 -22 510 -11 23 3 25 0 28 -44 2 -25
-3 -68 -11 -94 -12 -42 -18 -49 -53 -61 -43 -15 -130 -26 -355 -44 l-146 -12
-56 27 c-31 14 -61 26 -67 26 -17 0 -113 42 -130 57 -8 7 -27 22 -42 33 -47
36 -96 159 -71 183 9 10 53 9 53 -1z"/>
<path d="M2780 5605 c-7 -8 -32 -58 -56 -111 -24 -53 -44 -97 -46 -98 -46 -20
-60 -53 -32 -77 16 -13 102 -18 199 -11 17 1 56 -1 87 -4 54 -5 59 -4 88 24
52 53 34 122 -38 142 -58 16 -90 13 -104 -11 -14 -22 -97 -69 -122 -69 -10 0
1 27 35 88 54 96 58 116 30 132 -25 13 -26 13 -41 -5z"/>
<path d="M2744 5182 c-23 -16 -74 -114 -92 -178 -33 -111 -36 -151 -17 -180
20 -31 108 -74 151 -74 22 0 36 -8 52 -30 18 -23 30 -30 58 -30 19 0 44 5 55
10 28 16 50 65 49 113 -1 23 5 60 14 82 34 88 8 167 -79 244 -49 42 -157 67
-191 43z m145 -167 c37 -40 39 -46 31 -76 -5 -17 -12 -34 -15 -37 -10 -10
-114 -11 -120 -2 -4 6 -19 10 -36 10 -32 0 -33 2 -19 28 5 9 19 40 31 69 31
75 64 77 128 8z"/>
<path d="M3213 4730 c-24 -10 -35 -27 -57 -91 -32 -90 -8 -155 67 -189 104
-48 207 -6 207 84 0 44 -89 164 -142 192 -30 16 -44 17 -75 4z"/>
<path d="M2723 4518 c-13 -6 -23 -14 -23 -18 0 -7 -99 -53 -144 -66 -16 -5
-38 -21 -49 -35 -17 -24 -18 -30 -6 -55 21 -42 53 -54 151 -54 100 0 185 15
211 38 23 21 23 97 -2 138 -18 30 -75 65 -103 63 -7 0 -23 -5 -35 -11z"/>
</g>
</svg>
