<?xml version="1.0" standalone="no"?>
<!DOCTYPE svg PUBLIC "-//W3C//DTD SVG 20010904//EN"
 "http://www.w3.org/TR/2001/REC-SVG-20010904/DTD/svg10.dtd">
<svg version="1.0" xmlns="http://www.w3.org/2000/svg"
 width="1008.000000pt" height="1125.000000pt" viewBox="0 0 1008.000000 1125.000000"
 preserveAspectRatio="xMidYMid meet">
<metadata>
Created by potrace 1.16, written by Peter Selinger 2001-2019
</metadata>
<g transform="translate(0.000000,1125.000000) scale(0.100000,-0.100000)"
fill="#000000" stroke="none">
<path d="M6698 10217 c-15 -7 -76 -54 -136 -106 l-110 -94 -183 2 c-101 1
-193 4 -204 7 -12 3 -66 -2 -121 -10 -98 -15 -103 -14 -205 9 -148 35 -309 48
-553 43 -211 -4 -211 -4 -290 -36 -43 -18 -90 -41 -105 -51 -20 -14 -54 -20
-140 -25 -125 -8 -143 -14 -183 -60 -33 -38 -35 -69 -5 -96 19 -19 29 -21 77
-15 130 17 288 4 315 -24 13 -16 10 -20 -33 -53 -65 -50 -127 -118 -202 -218
-91 -122 -233 -264 -321 -321 -41 -27 -82 -61 -89 -76 -8 -16 -29 -41 -47 -56
-45 -39 -59 -69 -72 -155 -6 -41 -20 -90 -30 -110 -36 -71 -75 -215 -74 -276
1 -46 -7 -81 -38 -160 -22 -55 -46 -113 -54 -128 -8 -14 -15 -35 -15 -46 0
-11 -7 -39 -16 -63 -41 -117 -124 -417 -124 -451 0 -23 4 -22 76 3 45 15 82
20 156 19 90 0 103 -3 190 -41 232 -102 276 -127 356 -203 126 -121 171 -228
258 -616 8 -36 19 -112 23 -169 7 -88 6 -108 -7 -132 -16 -26 -16 -29 4 -56
28 -38 69 -56 127 -57 41 -1 52 3 73 27 21 25 24 38 24 113 0 64 4 91 18 111
20 31 40 120 41 180 1 29 8 50 26 71 14 17 32 45 40 64 27 64 185 274 275 367
30 31 71 84 89 116 19 33 53 81 75 106 23 25 49 60 58 78 15 27 20 30 37 21
28 -14 35 -46 17 -72 -23 -32 -20 -62 9 -90 47 -47 128 -43 177 9 34 35 48 73
48 127 0 31 15 71 55 153 30 62 55 115 55 118 0 14 92 135 100 130 4 -3 43 29
85 70 43 41 81 75 84 76 3 1 33 3 66 4 37 2 83 14 120 30 40 18 90 30 154 36
52 6 98 12 101 14 4 2 33 0 66 -4 32 -4 92 -5 132 -2 79 7 87 -1 32 -34 -54
-32 -180 -165 -205 -215 -10 -19 -36 -54 -59 -77 -143 -145 -158 -197 -68
-253 65 -41 108 -40 164 5 122 97 280 169 398 180 41 4 109 18 150 32 66 22
85 24 165 19 143 -11 213 -25 275 -56 58 -29 100 -70 100 -97 0 -22 36 -86 60
-108 13 -11 33 -42 45 -70 26 -57 72 -104 132 -135 34 -17 57 -21 120 -19 65
1 90 -3 148 -26 39 -15 93 -33 120 -41 28 -7 88 -33 135 -58 47 -24 108 -51
136 -60 94 -31 174 -125 174 -205 0 -45 19 -87 45 -101 24 -13 25 -16 19 -99
-3 -47 -10 -108 -15 -136 -5 -27 -14 -95 -20 -150 -6 -55 -12 -101 -14 -103
-1 -2 -27 12 -56 31 -115 72 -167 90 -279 98 -58 5 -133 11 -167 15 -52 5 -69
3 -103 -15 -32 -16 -59 -21 -123 -21 -94 0 -133 -17 -167 -72 -34 -56 -19
-142 29 -168 29 -15 93 -12 119 6 20 14 30 13 109 -2 49 -9 113 -28 143 -42
86 -38 319 -127 388 -148 l63 -19 -6 -50 c-9 -69 -131 -251 -241 -360 -44 -44
-96 -102 -115 -129 l-34 -48 -1 -228 c-1 -130 -7 -252 -14 -286 -13 -64 -87
-212 -158 -314 -25 -36 -89 -110 -144 -165 -84 -85 -105 -113 -143 -191 -24
-49 -48 -109 -54 -132 -14 -50 -46 -89 -114 -139 -148 -107 -265 -252 -350
-433 -22 -47 -63 -123 -90 -170 -54 -92 -209 -290 -279 -357 -99 -94 -365
-236 -490 -260 -18 -3 -53 -16 -78 -28 -76 -38 -340 -68 -366 -43 -11 12 -88
-3 -97 -18 -4 -8 -22 -21 -39 -30 -39 -20 -87 -12 -119 22 -18 19 -31 24 -50
20 -14 -3 -38 2 -55 11 -18 10 -66 19 -124 23 -52 4 -106 13 -120 20 -23 13
-20 15 65 27 144 22 258 51 289 75 16 12 35 21 42 21 7 0 11 4 8 9 -3 4 -1 8
4 8 4 0 27 16 51 36 46 40 91 118 91 159 0 40 -27 95 -47 96 -10 0 -13 3 -5 6
20 8 14 40 -10 47 -13 3 -116 6 -229 6 -183 0 -208 -2 -222 -17 -8 -10 -16
-22 -16 -28 -1 -6 -43 -11 -104 -12 -127 -1 -286 -37 -483 -106 -40 -14 -81
-23 -93 -20 -12 3 -21 1 -21 -5 0 -13 -38 -27 -140 -52 -47 -11 -134 -38 -195
-61 -60 -22 -130 -47 -153 -56 -60 -21 -178 -112 -295 -227 -54 -53 -104 -96
-111 -96 -7 0 -38 -21 -68 -47 -112 -97 -163 -134 -208 -153 -13 -6 -47 -27
-74 -47 -28 -20 -90 -59 -138 -87 -47 -28 -114 -76 -148 -106 -34 -30 -90 -80
-123 -110 -39 -34 -76 -79 -100 -122 -20 -37 -46 -73 -56 -80 -10 -7 -29 -34
-41 -58 -11 -25 -30 -62 -41 -82 -14 -28 -19 -57 -19 -122 0 -106 4 -116 45
-116 l32 0 0 89 c1 106 24 175 89 261 23 30 49 69 57 85 17 34 174 185 192
185 4 0 18 14 33 31 14 18 42 39 62 48 19 9 54 29 77 44 24 15 46 27 49 27 4
0 29 16 56 35 27 20 72 44 101 55 29 11 88 50 132 85 44 36 105 85 135 108 30
22 66 55 80 71 93 112 212 210 320 262 225 109 243 117 440 189 100 36 183 62
325 102 121 34 141 37 300 41 187 4 422 17 495 27 l47 7 23 -46 22 -46 -22
-44 c-13 -27 -41 -60 -73 -84 -106 -81 -128 -91 -227 -106 -186 -28 -266 -39
-350 -46 -93 -8 -175 -23 -259 -47 -29 -8 -65 -16 -80 -18 -68 -9 -158 -46
-186 -76 -17 -17 -47 -42 -68 -56 -21 -13 -64 -48 -96 -76 -31 -29 -88 -70
-125 -92 -108 -64 -186 -124 -266 -206 -194 -197 -260 -268 -260 -281 0 -8
-16 -29 -35 -48 -39 -37 -43 -51 -20 -70 24 -20 59 4 101 66 19 30 43 59 53
66 10 7 34 35 54 61 50 66 87 101 125 121 18 9 78 46 133 81 65 41 119 68 152
75 62 13 168 69 296 157 51 35 133 85 181 109 48 25 96 54 106 66 29 31 93 60
133 60 48 -1 196 -9 306 -17 81 -7 95 -11 136 -41 26 -19 51 -34 57 -34 6 0
33 -18 61 -40 28 -22 53 -40 57 -40 11 0 49 -53 49 -70 0 -10 10 -15 33 -15
29 0 32 -2 32 -32 0 -49 -38 -71 -93 -54 -119 35 -118 35 -228 7 -128 -33
-156 -43 -194 -71 -17 -13 -53 -24 -84 -28 -38 -5 -70 -17 -108 -42 -29 -19
-57 -35 -63 -35 -5 0 -10 -4 -10 -10 0 -5 -5 -10 -11 -10 -6 0 -26 -12 -46
-27 -20 -16 -69 -46 -109 -68 -82 -45 -117 -87 -169 -199 -25 -54 -52 -89
-109 -146 -73 -71 -76 -76 -76 -120 0 -25 5 -51 12 -58 31 -31 78 6 78 62 0
21 17 48 63 101 34 40 69 81 78 91 22 26 122 120 188 177 70 60 166 115 254
146 83 29 120 26 278 -22 148 -45 166 -53 203 -82 45 -37 46 -37 111 -84 33
-24 79 -62 102 -84 48 -46 62 -37 44 30 -6 21 -11 41 -11 45 0 3 35 -5 78 -18
290 -92 629 -140 899 -128 l143 6 177 -104 c227 -134 275 -163 343 -207 l55
-36 157 -3 158 -3 30 33 c16 18 30 40 30 49 0 10 -25 29 -62 49 -35 19 -88 47
-118 63 -179 98 -255 138 -450 237 -91 46 -177 92 -192 102 -14 10 -37 18 -50
18 -23 0 -763 363 -962 473 -163 89 -296 178 -296 198 0 5 51 9 113 9 142 0
235 14 314 45 34 14 71 25 82 25 11 0 35 6 53 14 47 19 98 36 137 46 18 5 45
19 60 32 14 13 55 39 91 57 35 18 82 48 105 66 22 18 50 38 63 44 12 7 34 31
49 54 14 23 52 69 83 102 60 62 85 99 139 200 18 33 45 80 61 105 16 25 37 61
46 80 10 19 49 88 88 153 70 119 130 187 232 264 81 61 120 111 134 173 7 30
29 89 48 130 30 62 52 90 140 175 108 103 178 198 239 320 74 149 73 141 74
408 1 197 4 248 17 272 25 50 88 130 116 149 29 18 164 187 210 262 30 48 56
128 56 172 0 13 9 35 20 49 23 30 24 44 8 89 -11 31 -10 35 20 62 37 35 40 64
12 107 -11 17 -18 37 -16 45 3 8 7 53 11 99 3 46 13 113 21 148 8 35 14 69 13
76 -1 7 -1 40 0 75 1 49 5 66 21 80 11 9 29 25 40 35 13 10 20 30 20 51 0 39
18 97 36 111 6 6 14 24 17 40 3 17 12 57 20 90 20 77 57 295 57 330 0 17 10
37 26 52 14 13 23 27 19 31 -4 4 -13 -1 -20 -11 -19 -27 -28 -4 -15 42 6 23 7
48 2 63 -5 12 -12 58 -16 101 -6 71 -5 77 12 77 10 0 28 10 39 23 56 61 58
118 7 194 -19 29 -46 85 -59 124 -30 88 -102 239 -184 384 -53 94 -61 115 -56
145 8 46 -8 64 -71 87 -43 15 -66 35 -154 133 -249 275 -445 437 -660 542 -58
29 -148 76 -202 106 -133 74 -379 168 -508 193 -105 21 -105 21 -165 79 -102
98 -245 208 -326 250 -69 36 -85 40 -146 40 -37 -1 -80 -6 -95 -13z m-1333
-7425 c-53 -45 -116 -85 -208 -130 -61 -29 -142 -75 -181 -101 -105 -70 -219
-129 -273 -141 -27 -6 -65 -22 -86 -36 -22 -14 -41 -24 -43 -21 -7 7 39 42
118 91 43 26 104 67 137 92 32 24 76 51 97 60 22 9 60 39 85 66 42 46 52 52
137 74 51 13 105 30 120 38 28 16 113 22 97 8z"/>
<path d="M3860 7487 c-46 -17 -148 -86 -181 -124 -62 -70 -110 -207 -130 -370
-21 -169 10 -326 97 -495 39 -75 137 -208 154 -208 15 0 12 20 -9 49 -27 38
-88 165 -116 243 -36 100 -58 240 -50 318 4 36 9 82 11 103 6 58 41 190 65
247 42 97 139 150 251 137 112 -14 239 -131 310 -287 26 -57 58 -190 58 -243
l0 -49 -112 -112 c-130 -130 -168 -179 -175 -233 -5 -36 -1 -42 75 -123 44
-47 83 -82 86 -79 4 4 -2 25 -14 47 -11 22 -24 56 -27 75 -11 71 3 98 113 227
57 67 111 135 120 151 21 42 19 124 -5 207 -47 155 -170 382 -249 458 -68 65
-186 91 -272 61z"/>
<path d="M6546 7450 c-27 -5 -76 -18 -110 -29 -33 -11 -97 -27 -140 -35 -102
-20 -150 -51 -182 -119 -29 -63 -30 -81 -4 -107 24 -24 54 -25 93 -5 22 11
130 27 269 39 31 3 194 -24 302 -49 111 -26 230 -70 288 -108 106 -68 389
-311 485 -417 19 -22 41 -40 48 -40 8 0 24 -15 36 -32 32 -46 49 -57 85 -58
64 0 93 73 59 152 -12 31 -12 38 0 54 36 47 7 111 -99 219 -26 28 -61 68 -76
90 -39 56 -67 79 -124 101 -30 12 -81 49 -135 97 -151 137 -299 210 -465 232
-148 19 -274 25 -330 15z"/>
<path d="M3912 7003 c-5 -10 -12 -58 -16 -108 -6 -75 -4 -96 11 -127 10 -21
24 -40 32 -43 19 -8 74 51 90 95 38 104 31 141 -34 179 -44 26 -71 27 -83 4z"/>
<path d="M6389 6797 c-26 -7 -61 -25 -78 -39 -17 -15 -41 -30 -52 -33 -12 -4
-42 -20 -67 -36 -25 -16 -54 -29 -64 -29 -33 0 -19 -27 21 -38 53 -17 68 -15
92 9 l21 21 62 -60 c93 -89 184 -144 332 -196 127 -46 217 -60 385 -60 169 -1
183 3 194 54 11 49 -25 100 -127 181 -167 133 -225 169 -283 176 -16 2 -48 9
-70 17 -121 41 -285 56 -366 33z m492 -153 c48 -24 216 -141 270 -186 67 -56
65 -75 -8 -84 -88 -11 -268 4 -360 29 -80 22 -81 23 -55 35 16 7 47 40 70 75
32 49 42 73 42 105 0 23 2 42 5 42 4 0 20 -7 36 -16z"/>
<path d="M8036 6259 c-10 -26 -14 -53 -11 -71 8 -34 10 -57 24 -211 15 -160
24 -196 89 -338 46 -100 92 -299 92 -398 0 -87 -11 -121 -50 -156 -13 -11 -31
-39 -40 -61 -15 -35 -24 -43 -55 -48 -20 -4 -38 -13 -41 -21 -3 -8 -21 -19
-41 -25 -34 -12 -62 -55 -46 -71 4 -4 36 -4 71 0 50 6 68 13 85 33 12 13 34
32 48 41 14 8 32 30 39 49 7 18 29 57 49 87 33 49 36 60 40 139 2 48 -2 111
-9 142 -21 95 -77 252 -120 334 -29 57 -38 81 -29 87 8 5 10 21 5 48 -3 23 -3
41 0 41 7 0 85 -61 111 -87 67 -64 315 -104 354 -57 6 8 20 14 31 14 91 0 -74
212 -240 308 -41 23 -77 42 -82 42 -4 0 -21 7 -36 15 -16 8 -37 15 -46 15 -28
0 -108 43 -108 57 0 7 -4 13 -10 13 -5 0 -10 20 -10 43 0 30 -6 49 -18 60 -26
23 -28 22 -46 -24z m407 -319 c30 -1 137 -121 137 -155 0 -25 -1 -25 -82 -25
-83 0 -158 14 -158 29 0 4 9 16 20 26 24 21 40 74 40 130 0 39 0 39 16 17 8
-12 21 -22 27 -22z"/>
<path d="M3894 5962 c-6 -4 -21 -41 -33 -82 -51 -171 -175 -546 -182 -554 -5
-6 -9 -16 -9 -24 0 -31 -86 -206 -164 -332 -35 -58 -92 -152 -127 -210 -281
-477 -454 -710 -579 -783 -28 -16 -115 -43 -230 -71 -259 -64 -306 -74 -695
-156 -22 -5 -71 -16 -110 -24 -87 -19 -446 -95 -500 -106 -54 -11 -126 -26
-210 -45 -38 -9 -131 -29 -205 -45 -153 -33 -351 -78 -371 -84 -8 -2 -26 -7
-42 -10 -23 -6 -26 -9 -18 -25 6 -10 8 -21 5 -23 -2 -3 4 -11 13 -19 17 -13
17 -12 4 6 -8 11 10 -6 39 -38 59 -65 57 -65 188 -31 30 7 95 20 145 28 51 8
175 29 277 47 102 17 208 35 235 39 28 4 104 19 170 34 66 15 127 28 135 28 8
0 38 6 65 13 28 8 91 24 140 36 183 44 579 162 650 193 17 8 55 21 85 31 102
32 316 151 375 209 7 6 42 35 78 65 60 49 121 112 229 236 98 113 255 345 343
510 55 101 165 321 165 329 0 2 13 33 29 68 58 126 81 186 192 503 32 92 69
212 69 227 0 41 -118 86 -156 60z"/>
<path d="M7473 5551 c-35 -22 -104 -118 -135 -188 -21 -49 -19 -75 12 -111 27
-32 40 -21 29 25 -7 33 -4 47 22 98 40 78 83 125 128 141 24 8 36 18 36 31 0
26 -52 28 -92 4z"/>
<path d="M7370 5063 c-27 -34 -17 -44 70 -68 140 -39 197 -57 241 -77 37 -16
50 -18 68 -9 71 39 -60 134 -229 167 -106 20 -125 18 -150 -13z"/>
<path d="M5175 4864 c-36 -22 -91 -63 -122 -91 -32 -29 -85 -73 -118 -100 -34
-26 -72 -58 -85 -71 -22 -20 -111 -88 -346 -264 -28 -21 -56 -38 -62 -38 -15
0 -15 -15 -1 -41 9 -17 17 -19 48 -14 60 10 274 -47 302 -81 13 -16 39 -19 39
-5 0 10 79 71 92 71 4 0 8 -6 8 -14 0 -8 4 -16 9 -18 6 -2 1 -28 -9 -58 -21
-63 -43 -261 -35 -317 3 -21 10 -139 17 -263 6 -124 14 -265 17 -315 l6 -90
29 0 c16 0 33 7 39 16 10 16 9 23 -18 69 -11 19 -15 67 -15 205 0 99 -6 232
-13 295 -20 188 -15 293 17 369 21 49 26 72 21 102 -4 21 -11 41 -16 45 -5 3
-9 38 -9 79 0 41 -5 96 -10 123 -11 47 -10 50 20 82 28 30 37 33 78 31 84 -3
82 -2 82 -100 0 -117 30 -236 69 -272 25 -23 29 -35 34 -105 4 -43 11 -122 16
-174 28 -274 41 -445 41 -537 0 -94 7 -122 28 -110 11 7 -6 271 -49 781 -11
124 -15 141 -35 159 -21 18 -33 55 -48 145 -5 28 -1 38 27 65 53 53 207 180
282 232 135 94 148 116 92 159 -72 55 -206 97 -298 94 -50 -3 -70 -9 -124 -44z
m296 -44 c52 -16 102 -35 112 -43 18 -12 15 -16 -40 -57 -32 -24 -87 -69 -123
-100 -36 -30 -102 -84 -148 -118 l-82 -63 -1 38 c-3 92 -7 107 -35 130 -24 19
-41 23 -97 23 -80 0 -115 -16 -137 -64 -13 -27 -13 -40 -3 -86 7 -30 15 -89
19 -131 l6 -76 -64 -45 -64 -44 -44 33 c-45 33 -137 66 -217 79 -24 4 -43 10
-43 13 0 4 35 31 78 61 42 29 93 67 113 84 85 72 168 136 177 136 5 0 29 17
53 38 68 57 231 186 260 204 28 18 102 28 155 21 17 -2 73 -17 125 -33z"/>
<path d="M6211 4696 c-17 -32 -10 -41 47 -62 77 -29 97 -52 131 -164 11 -34
32 -77 47 -98 59 -78 189 -199 262 -244 178 -109 267 -147 462 -192 92 -22
114 -24 180 -15 41 5 88 13 105 18 16 5 70 22 118 36 48 15 100 37 115 49 15
12 46 32 69 43 36 17 44 18 54 6 20 -23 28 -1 18 49 -12 56 -104 162 -174 202
-111 61 -233 94 -250 66 -9 -15 -25 -12 -25 4 0 35 -190 146 -249 146 -17 0
-55 6 -85 14 -30 8 -88 14 -128 14 -76 0 -288 32 -374 56 -27 8 -69 17 -93 20
-42 6 -104 29 -164 61 -39 21 -52 19 -66 -9z m375 -197 c74 -39 134 -69 134
-66 0 2 -33 26 -72 53 -77 52 -93 67 -78 72 5 2 67 -6 138 -17 70 -12 169 -21
219 -21 176 0 422 -97 406 -160 -3 -11 -1 -21 3 -21 5 -1 25 -3 44 -5 65 -7
272 -123 332 -187 36 -38 41 -57 14 -57 -7 0 -30 -13 -52 -30 -24 -18 -51 -30
-72 -30 -32 0 -152 -29 -206 -50 -92 -35 -348 17 -483 98 -198 118 -253 155
-303 204 -30 30 -66 63 -80 73 -37 29 -65 73 -85 135 -10 30 -20 61 -23 68 -9
25 34 10 164 -59z"/>
<path d="M337 2757 c-18 -46 7 -361 30 -375 23 -15 127 -219 158 -311 18 -53
41 -114 50 -136 18 -43 22 -124 10 -216 -9 -70 3 -95 52 -108 65 -18 97 15
123 130 32 141 40 235 25 288 -7 25 -16 63 -20 84 -8 51 -188 405 -247 488
-47 66 -149 169 -166 169 -6 0 -12 -6 -15 -13z"/>
<path d="M1020 2365 c0 -7 10 -19 92 -108 37 -39 67 -75 68 -78 0 -12 164
-167 230 -218 301 -237 496 -381 515 -381 3 0 24 -13 47 -30 53 -39 88 -40 88
-4 0 21 -27 53 -118 143 -65 64 -139 134 -166 156 -27 22 -58 49 -70 60 -12
11 -46 40 -75 65 -29 25 -62 53 -74 63 -11 9 -24 17 -28 17 -4 0 -11 9 -14 20
-3 11 -12 20 -18 20 -7 0 -39 25 -72 56 -52 48 -186 144 -200 144 -3 0 -43 18
-90 40 -78 37 -115 48 -115 35z"/>
</g>
</svg>
