<?xml version="1.0" standalone="no"?>
<!DOCTYPE svg PUBLIC "-//W3C//DTD SVG 20010904//EN"
 "http://www.w3.org/TR/2001/REC-SVG-20010904/DTD/svg10.dtd">
<svg version="1.0" xmlns="http://www.w3.org/2000/svg"
 width="1277.000000pt" height="775.000000pt" viewBox="0 0 1277.000000 775.000000"
 preserveAspectRatio="xMidYMid meet">
<metadata>
Created by potrace 1.16, written by Peter Selinger 2001-2019
</metadata>
<g transform="translate(0.000000,775.000000) scale(0.100000,-0.100000)"
fill="#000000" stroke="none">
<path d="M7640 7192 c-115 -58 -118 -60 -204 -129 -70 -57 -128 -114 -214
-208 -97 -107 -243 -264 -284 -306 -21 -21 -38 -41 -38 -44 0 -7 -195 -209
-271 -282 -30 -29 -75 -67 -100 -84 -24 -18 -53 -42 -64 -54 -11 -12 -36 -32
-56 -44 -21 -12 -44 -33 -53 -46 -9 -14 -35 -33 -56 -43 -22 -9 -40 -20 -40
-24 0 -5 -7 -8 -15 -8 -29 0 -171 -108 -271 -206 -113 -111 -169 -183 -226
-291 -21 -41 -43 -81 -48 -91 -5 -9 -23 -48 -40 -87 -18 -38 -47 -101 -65
-140 -18 -38 -41 -92 -51 -120 -10 -27 -39 -75 -65 -105 -26 -30 -78 -103
-116 -162 -137 -214 -143 -222 -198 -242 -81 -29 -123 -36 -260 -41 -93 -3
-153 0 -210 11 -44 8 -86 16 -92 16 -7 1 -13 8 -13 15 0 17 -13 34 -62 81 -34
32 -36 36 -21 47 15 11 12 15 -26 34 -86 44 -186 61 -337 57 -120 -3 -231 -20
-262 -40 -5 -3 -28 -6 -53 -7 -58 -2 -251 -38 -264 -50 -5 -5 -15 -9 -23 -9
-8 0 -55 -20 -106 -44 -51 -25 -105 -48 -119 -51 -15 -4 -27 -10 -27 -14 0 -3
-13 -12 -30 -19 -68 -31 -179 -149 -226 -241 -21 -42 -44 -83 -50 -91 -17 -23
-53 -140 -55 -180 -2 -19 -13 -79 -26 -132 -13 -54 -21 -104 -18 -110 4 -7 0
-5 -8 4 -18 22 -57 24 -57 3 0 -8 -3 -15 -8 -15 -13 0 -33 -57 -26 -76 4 -12
3 -15 -3 -7 -12 16 -45 -10 -37 -30 3 -10 -3 -20 -18 -28 -25 -14 -88 -21 -88
-10 0 3 -11 8 -25 9 -14 1 -25 -2 -25 -7 0 -6 -8 -9 -17 -9 -10 1 -28 -2 -40
-6 -14 -5 -23 -3 -23 3 0 6 7 11 15 11 8 0 12 6 9 14 -4 11 -13 11 -44 4 -36
-9 -38 -12 -34 -43 2 -21 -1 -37 -8 -42 -7 -4 -18 -17 -24 -28 -6 -11 -17 -20
-25 -21 -8 0 -22 -4 -31 -8 -9 -4 -22 -5 -28 -1 -5 3 -10 1 -10 -6 0 -6 -8 -9
-20 -6 -11 3 -20 1 -20 -4 0 -5 -11 -11 -25 -15 -14 -3 -25 -10 -25 -15 0 -5
-18 -17 -40 -26 -22 -10 -40 -21 -40 -25 0 -5 -9 -8 -19 -8 -11 0 -23 -5 -26
-10 -3 -5 -17 -10 -31 -10 -13 0 -24 -5 -24 -10 0 -7 -6 -7 -18 -1 -13 7 -23
6 -30 -1 -9 -9 -12 -8 -12 5 0 10 -8 17 -20 17 -11 0 -20 -7 -20 -15 0 -17
-35 -21 -45 -5 -7 12 -95 4 -109 -10 -5 -5 -26 -10 -46 -9 -34 0 -34 1 -10 11
23 11 20 12 -35 18 -65 7 -172 -5 -192 -21 -7 -6 -16 -9 -20 -6 -4 2 -33 0
-63 -5 -30 -4 -107 -11 -170 -14 -71 -3 -118 -10 -122 -17 -6 -9 -8 -9 -8 1 0
20 -20 14 -70 -23 -26 -19 -58 -35 -71 -34 -54 2 -176 -12 -204 -23 -16 -7
-38 -21 -48 -31 -10 -10 -39 -28 -62 -38 l-44 -19 -90 57 c-50 32 -90 62 -91
66 0 4 48 7 108 6 103 -2 196 13 208 33 11 18 -6 21 -63 10 -32 -6 -112 -13
-178 -16 -166 -6 -194 -20 -111 -56 63 -27 187 -110 180 -121 -3 -5 -14 -9
-25 -9 -41 0 -8 -18 41 -22 31 -3 63 -14 82 -28 17 -12 38 -20 49 -17 22 6 25
-3 7 -22 -11 -11 -10 -13 4 -8 9 3 44 2 76 -3 33 -6 89 -11 127 -12 59 -2 68
-5 76 -25 6 -16 14 -21 31 -17 13 2 39 5 58 6 26 1 43 10 65 33 25 27 40 34
88 39 39 4 57 3 57 -5 0 -6 -8 -13 -18 -16 -22 -5 -46 -39 -29 -40 7 0 20 -4
30 -8 9 -4 17 -3 17 3 0 5 24 13 52 16 29 4 66 15 83 25 51 31 135 40 260 26
33 -3 69 -6 80 -6 16 0 17 -2 5 -9 -24 -15 -6 -20 31 -10 47 14 59 13 59 -6 0
-12 6 -15 25 -10 14 4 25 2 25 -3 0 -5 17 -9 38 -9 33 0 77 -7 77 -12 0 -3 53
-11 78 -13 9 -1 17 -6 17 -11 0 -5 3 -6 6 -3 4 3 15 2 26 -4 29 -16 60 -20
181 -28 5 -1 5 -5 2 -11 -9 -14 28 -12 44 3 11 9 13 9 7 0 -5 -9 0 -13 14 -13
12 0 19 4 16 8 -2 4 4 9 15 9 11 1 17 -2 14 -8 -4 -5 13 -9 39 -9 35 0 46 4
50 18 4 10 12 19 19 20 24 2 82 10 87 12 3 1 9 2 14 1 4 -1 14 4 22 10 8 6 14
9 14 5 0 -3 15 0 33 7 33 14 95 16 115 3 7 -4 12 -2 12 3 0 6 10 11 23 11 12
0 39 5 60 11 29 8 38 15 34 28 -3 12 2 16 18 16 11 -1 26 -5 33 -9 7 -4 17 -4
24 0 6 4 37 13 67 19 33 7 55 17 54 23 -2 8 13 12 40 12 58 0 110 26 98 48
-11 20 30 45 63 37 35 -9 174 22 197 44 26 24 17 42 -19 39 -26 -3 -28 0 -31
42 0 12 -12 31 -26 44 -14 13 -25 28 -25 35 0 6 -16 21 -35 33 -43 29 -44 39
-3 34 45 -5 84 10 69 28 -13 16 -71 19 -88 4 -10 -8 -18 -7 -31 4 -24 21 -78
41 -110 40 -15 0 -32 5 -39 10 -8 6 -19 2 -33 -12 -14 -14 -29 -20 -43 -16
-11 3 -28 0 -36 -7 -9 -6 -13 -7 -9 -3 15 18 -24 33 -68 26 -24 -4 -46 -5 -49
-2 -3 3 -40 7 -82 9 -151 6 -153 7 -173 33 -19 25 -9 46 15 33 5 -4 7 -3 3 2
-9 9 29 45 47 45 15 0 26 35 15 47 -4 4 -4 17 0 28 6 15 10 3 15 -42 6 -50 11
-63 25 -63 22 0 83 21 90 31 9 13 45 13 68 0 13 -7 30 -10 38 -7 8 3 14 2 14
-3 0 -19 66 -34 146 -35 46 0 84 -4 84 -8 0 -4 5 -8 11 -8 6 0 24 -9 40 -21
25 -18 31 -19 44 -6 7 8 30 18 50 21 19 4 33 11 30 15 -3 5 1 11 8 14 28 11
38 -10 40 -84 2 -67 4 -74 22 -74 17 0 22 10 31 72 6 40 12 126 13 190 2 156
17 265 46 338 13 33 27 73 31 90 8 31 63 116 99 150 11 11 28 31 38 45 39 56
-2 -62 -57 -161 -56 -102 -63 -127 -81 -289 -6 -54 14 -160 31 -160 8 0 14 -7
14 -15 0 -8 5 -15 11 -15 6 0 7 -5 2 -12 -4 -7 -8 -17 -9 -23 -13 -74 -17
-104 -15 -126 0 -15 -6 -32 -14 -39 -32 -26 -9 -60 28 -42 12 6 71 22 131 36
95 22 168 54 196 87 3 3 13 9 24 12 16 6 18 4 13 -20 -3 -16 -9 -36 -13 -47
-6 -17 -3 -18 27 -14 19 3 53 -1 77 -9 46 -15 83 -14 89 2 5 17 -37 36 -93 42
-50 5 -54 8 -54 32 0 15 -6 35 -13 45 -12 17 -17 16 -75 -12 -34 -17 -76 -33
-92 -37 -16 -4 -32 -11 -35 -16 -4 -5 -11 -9 -17 -9 -7 0 -9 17 -5 51 6 47 12
56 76 117 59 57 72 76 86 124 25 89 22 189 -9 281 -14 43 -35 90 -46 104 -20
26 -28 59 -11 49 5 -4 7 3 4 13 -3 11 0 36 7 56 7 20 14 50 17 68 9 60 47 147
68 153 11 4 22 9 25 13 5 6 22 14 125 62 73 34 179 34 222 -1 43 -35 56 -63
34 -78 -14 -10 -14 -13 9 -31 53 -42 403 -82 476 -54 16 7 67 19 114 28 107
20 133 30 145 57 13 29 35 35 35 9 0 -11 4 -23 10 -26 10 -6 50 -91 50 -106 0
-5 14 -31 31 -59 34 -55 89 -207 89 -246 0 -17 6 -24 19 -24 21 0 36 27 23 44
-5 6 -9 21 -10 34 -1 28 19 25 33 -6 5 -12 15 -20 22 -18 7 3 15 1 17 -3 3 -4
36 -11 73 -14 43 -4 70 -12 75 -21 11 -20 125 -19 132 0 3 8 16 13 28 13 l23
-2 -22 -4 c-14 -3 -23 -12 -23 -22 0 -16 9 -18 58 -19 82 0 144 -9 152 -23 6
-8 42 -10 131 -5 299 14 393 18 529 21 80 1 161 8 180 14 20 6 54 8 79 5 31
-5 42 -4 37 5 -5 7 1 11 14 11 12 0 18 5 15 10 -3 6 1 10 10 10 8 0 18 7 21
15 4 8 10 15 15 15 5 0 32 16 59 35 27 19 57 35 65 35 8 0 15 5 15 10 0 6 6
10 14 10 8 0 17 7 20 16 4 10 14 14 25 11 13 -3 18 0 15 8 -8 19 24 27 34 8 5
-8 15 -14 23 -11 21 7 49 -23 44 -46 -3 -12 -2 -26 2 -31 9 -12 93 -40 108
-36 6 2 33 4 60 6 77 4 122 15 173 41 26 13 53 24 60 24 6 0 12 5 12 10 0 6
11 10 25 10 14 0 25 5 25 10 0 6 11 10 24 10 14 0 28 5 31 10 3 6 15 10 26 10
10 0 19 5 19 10 0 6 7 10 16 10 18 0 77 31 82 43 2 4 10 7 18 7 8 0 14 5 14
10 0 6 6 10 14 10 8 0 17 6 20 13 3 6 4 0 1 -14 -8 -46 13 -53 107 -34 46 9
92 19 102 22 21 6 104 86 121 116 7 11 32 22 73 29 34 6 62 15 62 20 0 4 6 8
13 8 15 0 57 44 57 60 0 9 -21 10 -82 5 -88 -7 -98 -5 -233 56 -27 12 -52 22
-55 22 -32 -1 -312 129 -435 203 -38 23 -113 65 -165 94 -52 29 -104 61 -115
70 -60 52 -569 300 -616 300 -30 0 -30 15 0 61 15 24 28 46 28 49 2 10 38 73
60 104 12 17 27 41 32 54 6 12 14 22 18 22 5 0 17 19 28 41 10 23 25 44 32 46
7 3 13 14 13 24 0 10 4 19 10 19 5 0 16 13 24 28 17 33 56 80 139 165 31 33
57 63 57 66 0 8 37 32 70 47 29 13 50 8 50 -12 0 -8 4 -14 8 -14 12 0 337
-324 334 -332 -1 -5 2 -8 7 -8 10 0 93 -81 187 -183 31 -33 60 -78 74 -113 59
-153 144 -309 217 -400 18 -23 33 -45 33 -49 0 -10 74 -109 112 -150 15 -16
28 -36 28 -42 0 -7 6 -13 13 -13 6 0 21 -14 32 -30 11 -16 23 -30 28 -30 4 0
17 -10 29 -22 27 -27 106 -88 114 -88 9 0 98 -62 106 -74 4 -6 8 -8 8 -3 0 4
33 -17 73 -46 64 -48 310 -177 336 -177 5 0 12 -4 15 -9 3 -5 0 -8 -7 -8 -23
2 -87 -15 -87 -23 0 -4 -16 -11 -36 -14 -19 -4 -43 -16 -52 -27 -9 -10 -20
-19 -25 -19 -5 0 -15 -7 -23 -15 -9 -8 -24 -15 -35 -15 -12 0 -23 -10 -29 -25
-5 -14 -13 -24 -17 -23 -15 3 -43 -14 -37 -23 7 -12 -3 -11 -26 1 -15 8 -23 6
-37 -8 -12 -13 -33 -19 -62 -19 -25 0 -47 -6 -52 -14 -6 -11 -9 -10 -14 4 -5
11 -12 14 -23 9 -10 -4 -30 -6 -47 -4 -16 2 -40 4 -52 5 -13 1 -23 5 -23 10 0
4 -6 7 -14 7 -7 0 -19 7 -26 15 -11 13 -7 14 30 9 46 -7 260 24 260 36 0 5 15
8 34 8 19 0 47 7 63 15 15 8 50 22 78 30 65 19 75 42 14 31 -24 -4 -55 -8 -69
-9 -14 -2 -25 -3 -25 -4 0 -1 -11 -4 -25 -6 -14 -2 -59 -11 -100 -19 -41 -8
-78 -12 -83 -9 -4 2 -13 0 -20 -5 -7 -5 -24 -10 -39 -10 -22 0 -28 6 -30 27
-3 23 -7 26 -39 23 -22 -2 -42 2 -51 11 -8 8 -29 18 -47 22 -18 4 -42 16 -53
27 -16 16 -22 18 -29 7 -6 -11 -11 -10 -27 4 -10 9 -21 15 -24 12 -2 -3 -18
-7 -34 -9 -16 -2 -51 -11 -79 -19 -27 -8 -71 -18 -98 -22 -26 -3 -45 -11 -42
-16 4 -5 -2 -12 -12 -15 -10 -3 -25 -8 -33 -11 -8 -4 -23 -5 -32 -4 -10 1 -18
-4 -18 -12 0 -25 -124 -71 -221 -82 -19 -2 -56 -13 -81 -24 -25 -11 -49 -17
-52 -14 -3 3 -17 -2 -31 -11 -14 -9 -25 -14 -25 -11 0 8 -35 -27 -35 -34 -1
-14 -17 -31 -26 -26 -5 4 -9 1 -9 -5 0 -7 -7 -9 -15 -6 -9 3 -18 -1 -22 -10
-8 -21 4 -29 21 -15 10 8 16 9 21 1 4 -7 12 -7 25 0 16 8 18 8 14 -5 -4 -8
-16 -15 -29 -15 -13 0 -26 -7 -29 -16 -4 -10 -13 -13 -26 -9 -11 4 -20 2 -20
-4 0 -6 -9 -11 -20 -11 -11 0 -20 -4 -20 -10 0 -14 -37 -13 -42 2 -4 12 -118
-19 -118 -33 0 -12 -68 -31 -81 -23 -8 4 -9 3 -5 -4 4 -7 1 -12 -6 -13 -7 0
-38 -2 -68 -4 -30 -1 -68 -8 -85 -15 -16 -7 -37 -14 -45 -16 -78 -14 -164 -43
-171 -57 -6 -9 -17 -17 -24 -17 -8 0 -15 -7 -15 -15 0 -12 -28 -35 -44 -35
-12 0 -6 28 7 33 8 3 9 8 2 15 -7 8 -22 8 -50 0 -22 -6 -61 -13 -87 -15 -27
-3 -48 -10 -48 -16 0 -7 -7 -4 -15 7 -10 14 -22 17 -43 13 -33 -7 -58 5 -47
23 6 10 2 11 -17 7 -22 -6 -26 -3 -32 24 -3 17 -3 35 0 40 7 12 -17 11 -35 0
-11 -7 -22 -2 -39 16 -20 22 -27 25 -43 15 -15 -10 -20 -8 -29 7 -5 11 -10 26
-10 35 0 8 -6 16 -12 19 -8 2 -1 10 15 17 15 7 27 20 27 29 0 19 -63 58 -68
42 -2 -6 -8 -11 -13 -11 -6 0 -8 4 -5 9 3 5 -7 11 -22 14 -15 3 -29 1 -31 -5
-2 -6 -12 0 -22 13 -10 13 -19 19 -19 12 0 -6 -9 -10 -20 -8 -11 2 -20 1 -20
-3 0 -11 -64 -13 -70 -2 -4 7 -20 5 -43 -5 -20 -8 -46 -15 -57 -15 -11 0 -20
-7 -20 -15 0 -8 -9 -15 -19 -15 -35 0 -51 -12 -51 -36 0 -14 7 -27 15 -30 12
-5 12 -8 0 -20 -7 -8 -16 -14 -20 -14 -3 0 -24 -19 -46 -41 -30 -31 -39 -47
-35 -63 7 -30 -4 -66 -20 -66 -12 0 -18 -12 -15 -32 0 -3 -17 -9 -39 -13 -26
-4 -40 -12 -40 -22 0 -11 7 -14 25 -9 14 3 36 9 50 12 19 5 25 2 25 -9 0 -12
8 -15 38 -10 43 7 35 -13 -10 -21 -14 -2 -37 -11 -50 -20 -14 -9 -28 -13 -31
-9 -4 3 -7 2 -7 -4 0 -6 -8 -9 -19 -6 -10 3 -22 0 -25 -6 -4 -6 -18 -11 -31
-11 -13 0 -26 -4 -30 -9 -3 -5 -30 -13 -60 -16 -37 -5 -55 -12 -55 -21 0 -8
-10 -14 -22 -15 -13 0 -30 -2 -38 -5 -8 -2 -36 -8 -63 -14 -26 -5 -57 -15 -68
-21 -34 -18 -2 -29 36 -13 18 7 35 11 37 8 3 -2 17 0 32 6 27 10 66 19 101 24
11 2 28 6 38 9 9 4 25 10 35 14 9 3 23 5 30 4 6 -1 12 3 12 8 0 5 9 8 20 6 10
-2 31 6 45 17 14 11 29 18 32 14 3 -3 -2 -8 -11 -12 -22 -8 -21 -28 2 -20 15
5 15 5 1 -6 -25 -21 -30 -71 -10 -104 15 -25 32 -72 35 -96 2 -13 18 -23 54
-33 29 -8 40 -7 54 5 56 50 108 71 202 82 45 5 103 15 130 23 27 8 61 15 75
14 14 0 -32 -14 -102 -32 l-128 -31 3 -30 c3 -28 0 -31 -29 -34 -21 -2 -33 -9
-33 -18 0 -11 -8 -14 -27 -12 -23 2 -29 -1 -31 -21 -4 -26 11 -46 36 -47 45
-2 132 -45 154 -77 15 -21 27 -28 44 -24 13 2 24 0 24 -4 0 -5 7 -9 16 -9 9 0
32 -9 50 -21 19 -11 34 -17 34 -13 0 5 7 -2 16 -14 8 -12 22 -22 30 -22 8 0
14 -4 14 -9 0 -4 11 -6 25 -3 18 3 31 -2 45 -19 l19 -24 1 23 c0 29 18 29 22
0 4 -27 38 -38 38 -13 0 14 3 15 14 6 8 -6 18 -11 22 -10 5 1 22 -3 38 -10 16
-6 45 -11 65 -11 45 1 212 -40 206 -50 -3 -5 -2 -16 1 -24 5 -14 18 -16 70
-13 35 3 64 1 64 -3 0 -5 15 -8 34 -7 19 0 33 5 30 9 -3 4 -1 8 4 8 5 0 33 16
61 35 63 44 118 75 132 75 5 0 15 5 22 10 7 6 45 28 86 48 41 20 79 46 85 57
13 24 20 29 120 83 43 23 87 42 98 42 11 0 22 11 28 25 8 20 16 25 45 25 50 0
71 14 78 50 5 20 15 34 32 40 14 5 25 14 25 20 0 25 67 7 114 -30 14 -11 61
-17 195 -22 97 -4 195 -7 218 -7 23 0 44 -5 48 -10 8 -14 93 -2 121 16 28 18
154 30 154 15 0 -7 28 -9 88 -5 103 7 247 3 247 -6 0 -5 177 -13 238 -12 41 1
67 -2 67 -9 0 -13 55 -13 80 0 11 6 49 13 86 15 37 3 70 8 75 10 4 3 5 21 2
40 -4 22 -2 35 6 35 10 0 10 18 -4 130 -4 34 -3 36 55 63 33 16 60 35 60 42 0
8 9 20 20 28 10 7 24 25 29 40 6 15 15 27 21 27 5 0 10 9 10 20 0 11 5 20 11
20 6 0 25 11 43 25 18 14 38 25 44 25 6 0 15 6 19 13 4 6 21 19 37 27 17 8 41
25 54 38 14 12 33 22 43 22 13 0 21 12 29 40 8 29 18 44 36 50 13 5 24 14 24
18 0 17 52 62 71 62 13 0 19 7 19 23 0 13 9 32 20 42 13 12 20 31 20 54 0 24
7 42 20 54 11 9 20 26 20 36 0 11 5 23 10 26 6 3 10 15 10 26 0 10 5 19 10 19
12 0 13 40 2 57 -4 6 -16 11 -26 10 -11 -1 -20 5 -21 16 -2 9 3 17 10 17 18 0
100 90 123 137 26 51 44 144 30 160 -16 20 1 33 45 33 42 0 221 42 327 75 71
23 90 40 90 81 0 36 30 55 54 35 10 -8 17 -7 26 4 10 12 8 21 -14 49 -14 19
-26 42 -26 50 0 20 -14 20 -30 1 -10 -12 -10 -15 4 -15 19 0 22 -16 4 -23 -21
-7 -58 15 -58 33 0 30 26 43 59 32 23 -8 32 -7 42 4 19 23 37 16 85 -32 26
-25 43 -41 40 -36 -3 6 0 13 6 15 9 4 10 8 3 14 -6 4 -11 34 -10 66 0 32 -4
57 -10 58 -27 3 -30 5 -30 14 0 6 10 9 23 7 14 -2 22 3 22 12 0 8 3 22 7 32 4
10 2 15 -3 11 -6 -3 -6 16 0 54 5 32 13 59 18 59 4 0 8 7 8 15 0 8 -8 15 -17
15 -20 0 -81 21 -101 34 -8 4 -41 10 -75 12 -79 5 -137 -23 -179 -84 -50 -73
-174 -107 -285 -79 -48 13 -49 12 -72 -16 -19 -23 -25 -42 -26 -91 -1 -33 -5
-69 -9 -79 -12 -26 13 -79 33 -72 46 14 81 -76 43 -112 -30 -30 -56 -49 -48
-35 4 6 4 12 -1 13 -4 0 -39 2 -78 5 -38 2 -88 6 -110 8 -22 3 -76 8 -120 11
-44 4 -96 8 -115 11 -19 2 -42 4 -50 5 -8 0 -22 3 -30 6 -8 3 -24 7 -35 9 -11
2 -33 6 -50 9 -16 3 -43 7 -60 9 -16 2 -34 4 -40 5 -5 1 -3 6 5 11 9 5 63 11
120 15 58 3 134 9 170 12 36 3 106 7 155 8 50 2 100 3 113 4 32 1 28 30 -12
83 -30 40 -43 47 -108 65 -151 42 -319 79 -398 87 -25 3 -56 7 -70 10 -14 2
-47 7 -75 11 -27 3 -81 15 -120 27 -142 40 -206 61 -210 68 -2 3 20 19 50 34
73 37 164 137 208 228 20 40 37 84 39 98 2 20 11 27 45 34 35 7 47 5 78 -14
50 -31 59 -59 36 -114 l-19 -43 23 0 c13 0 26 6 29 14 5 12 14 10 49 -10 99
-59 358 -187 376 -187 11 0 32 -5 46 -12 19 -9 28 -9 37 0 9 9 3 15 -25 27
-20 8 -46 15 -58 15 -24 0 -122 52 -156 83 -13 11 -23 17 -23 13 0 -4 -29 9
-63 29 -35 19 -70 35 -79 35 -32 0 -82 50 -95 95 -13 43 -58 89 -93 96 -31 6
-116 -14 -142 -33 -31 -21 -36 -38 -13 -38 30 0 -38 -138 -80 -160 -14 -7 -25
-19 -25 -27 0 -7 -3 -13 -7 -13 -5 0 -22 -14 -40 -30 -18 -17 -36 -30 -42 -30
-5 0 -16 -6 -23 -12 -7 -7 -30 -22 -51 -32 -35 -18 -39 -18 -74 -3 -21 9 -49
19 -63 23 -14 4 -42 20 -63 36 -20 17 -59 36 -87 43 -27 7 -62 21 -77 32 -15
10 -41 25 -57 33 -44 22 -116 90 -128 119 -5 14 -18 59 -29 100 -10 41 -35
120 -55 175 -20 56 -43 124 -51 151 -30 96 -66 190 -75 193 -4 2 -6 7 -3 12 2
4 -7 29 -20 56 -14 27 -25 52 -25 56 0 3 -18 38 -40 77 -22 39 -40 77 -40 86
0 9 -7 18 -15 21 -8 4 -15 11 -15 17 0 5 -22 43 -50 84 -27 40 -50 75 -50 78
0 9 -88 135 -138 198 -30 38 -55 75 -56 83 -1 8 -23 36 -48 62 -25 26 -78 80
-116 120 -39 39 -74 72 -79 72 -4 0 -42 -17 -83 -38z m154 -52 c26 -29 59 -75
73 -101 13 -27 29 -49 34 -49 6 0 7 -4 4 -10 -3 -5 -1 -10 5 -10 6 0 8 -4 5
-10 -3 -5 -2 -10 4 -10 5 0 20 -17 32 -37 13 -21 31 -47 41 -57 10 -11 18 -23
18 -26 0 -7 28 -43 54 -70 8 -9 24 -37 35 -63 11 -26 25 -47 31 -47 5 0 10 -5
10 -11 0 -6 22 -49 49 -95 27 -46 53 -93 56 -106 4 -13 15 -39 26 -58 10 -19
25 -53 35 -75 9 -22 39 -85 65 -141 27 -55 49 -107 49 -115 0 -8 4 -19 9 -24
5 -6 16 -35 26 -65 10 -30 30 -82 45 -115 15 -33 38 -94 50 -135 13 -41 27
-80 31 -86 5 -6 7 -18 4 -27 -4 -8 5 -27 19 -43 42 -48 45 -52 40 -57 -3 -3 4
-8 15 -12 12 -3 21 -12 21 -20 0 -8 10 -17 23 -21 12 -3 40 -19 61 -35 22 -16
46 -29 53 -29 7 0 38 -11 70 -26 32 -14 60 -25 63 -26 16 -2 49 -18 54 -27 7
-11 98 -55 136 -65 14 -4 39 -13 55 -21 64 -28 81 -34 115 -41 19 -3 40 -10
45 -14 6 -5 28 -9 50 -11 22 -1 49 -7 60 -13 11 -5 36 -11 55 -11 19 -1 44 -5
55 -8 11 -4 74 -16 140 -27 66 -11 163 -31 215 -44 52 -13 115 -26 140 -30 35
-5 51 -14 72 -40 l26 -33 -121 1 c-67 0 -151 -3 -187 -7 -36 -4 -102 -10 -147
-13 -46 -3 -106 -9 -134 -13 -28 -5 -70 -7 -94 -5 -26 1 -51 -3 -62 -12 -17
-14 -17 -15 2 -29 12 -10 30 -13 46 -10 15 4 30 1 34 -5 3 -5 11 -8 16 -4 5 3
16 1 23 -5 7 -6 30 -13 52 -16 21 -3 59 -10 84 -15 37 -8 154 -26 220 -35 46
-6 177 -16 255 -19 50 -3 95 -5 101 -5 7 -1 14 -11 17 -23 2 -13 12 -39 20
-59 l16 -35 -82 -1 c-99 -2 -351 29 -462 57 -164 41 -305 60 -305 41 0 -13 84
-41 167 -56 16 -2 83 -16 151 -30 115 -23 290 -47 446 -60 92 -8 90 -8 98 -27
5 -13 -20 -85 -36 -105 -1 -1 -29 4 -61 11 -56 13 -112 20 -370 46 -187 20
-289 35 -391 60 -91 23 -107 24 -102 9 8 -23 226 -81 353 -94 33 -3 87 -10
120 -15 33 -5 101 -12 150 -15 114 -7 258 -26 268 -35 5 -4 -13 -20 -38 -35
-26 -15 -54 -35 -63 -45 -8 -11 -19 -17 -22 -15 -13 8 -67 14 -180 20 -63 3
-142 11 -175 16 -33 6 -67 11 -75 11 -53 0 -246 21 -265 28 -15 6 -25 5 -27
-1 -2 -5 -49 -3 -123 6 -141 17 -173 19 -160 6 10 -10 172 -71 184 -69 3 0 21
0 39 -1 46 -1 37 -19 -22 -42 -44 -16 -50 -17 -72 -2 -13 8 -24 13 -24 9 0 -5
-47 18 -127 63 -10 6 -50 26 -88 44 -92 44 -195 112 -270 179 -78 69 -205 197
-205 207 0 4 -8 16 -18 27 -28 30 -102 132 -102 141 0 7 -15 27 -60 80 -5 7
-10 15 -10 20 0 4 -11 18 -24 32 -25 28 -96 159 -96 179 0 7 -4 12 -10 12 -5
0 -10 8 -10 19 0 27 -25 84 -52 117 -13 16 -39 52 -58 79 -19 28 -48 61 -65
75 -16 14 -86 83 -155 154 -69 70 -131 133 -138 140 -100 84 -347 344 -443
466 -31 39 -45 50 -47 38 -3 -18 28 -87 51 -109 7 -8 20 -24 28 -37 9 -12 34
-41 55 -64 21 -24 49 -55 62 -69 l22 -27 -93 -94 c-153 -153 -307 -339 -307
-371 0 -5 -33 -63 -72 -130 -69 -116 -136 -244 -158 -301 -5 -14 -14 -26 -20
-26 -5 0 -10 -9 -10 -19 0 -11 -10 -41 -21 -68 -30 -67 -89 -234 -89 -250 0
-7 6 -13 13 -13 15 1 117 207 117 238 0 12 5 22 10 22 6 0 10 -7 10 -15 0 -8
4 -15 8 -15 5 0 14 -11 20 -25 6 -14 17 -25 23 -25 6 0 20 -10 30 -21 18 -21
18 -23 1 -35 -10 -8 -12 -13 -5 -14 7 0 10 -6 7 -14 -3 -8 5 -29 18 -46 l23
-32 -26 -22 c-15 -13 -30 -33 -34 -45 -3 -11 -12 -21 -18 -21 -7 0 -24 -13
-38 -29 -21 -24 -36 -30 -85 -35 -98 -11 -124 -16 -124 -26 0 -6 -7 -10 -15
-10 -8 0 -15 -4 -15 -10 0 -5 -13 -7 -30 -3 -23 4 -30 2 -30 -10 0 -19 -111
-41 -121 -25 -4 6 -12 7 -19 3 -18 -11 -80 -12 -80 -1 0 4 -9 6 -20 3 -11 -3
-20 -1 -20 4 0 5 -13 9 -30 9 -19 0 -40 10 -58 28 -18 18 -53 35 -93 46 -35
10 -136 53 -224 97 -121 59 -173 91 -212 129 l-53 51 0 64 c0 61 24 131 69
205 5 8 28 53 52 100 62 123 80 154 95 163 8 4 14 14 14 20 0 31 205 238 254
256 6 2 16 9 23 15 6 6 28 22 48 36 21 14 45 33 56 42 10 10 30 20 44 24 14 3
25 9 25 13 0 3 20 15 45 26 25 11 45 23 45 27 0 5 6 8 14 8 8 0 38 13 67 28
114 60 128 78 52 69 l-48 -7 35 31 c19 17 55 43 79 59 45 30 251 232 251 247
0 4 20 24 45 43 24 19 44 41 45 49 0 8 6 11 16 7 8 -3 12 -2 9 4 -3 6 -1 10 5
10 6 0 16 11 22 25 6 13 19 27 30 30 10 4 18 10 18 15 0 8 47 63 113 132 15
16 27 33 27 38 0 7 58 75 118 137 12 13 22 27 22 32 0 16 91 104 157 151 37
27 77 56 88 65 10 8 23 15 27 15 5 0 34 18 65 39 66 45 67 45 137 -29z m-744
-1947 c41 -19 80 -36 85 -37 18 -3 241 -115 276 -139 19 -12 50 -29 69 -37 19
-7 51 -24 70 -37 19 -13 39 -23 45 -23 5 -1 23 -12 40 -25 23 -19 27 -27 17
-37 -9 -9 -12 -9 -12 4 0 9 -10 20 -22 24 -12 3 -29 13 -36 21 -9 9 -18 11
-24 5 -6 -6 -24 -2 -48 9 -22 11 -46 19 -55 19 -8 0 -23 4 -33 9 -65 33 -75
36 -80 23 -4 -13 -65 -8 -87 8 -5 3 -32 15 -60 25 -27 10 -54 22 -59 26 -6 5
-19 9 -29 9 -17 0 -116 49 -142 70 -14 12 -66 0 -72 -17 -4 -11 -8 -10 -18 3
-9 14 -8 24 7 56 10 21 23 50 28 64 13 32 31 29 140 -23z m729 -387 c6 -8 42
-29 79 -49 37 -19 83 -44 102 -55 19 -11 53 -30 75 -40 47 -24 371 -152 400
-158 11 -3 27 -7 35 -9 8 -2 26 -4 40 -5 18 -2 14 -4 -15 -10 -28 -6 -54 -4
-85 6 -30 10 -46 12 -48 5 -6 -17 -32 -13 -32 4 0 19 2 19 -49 -5 -26 -13 -50
-18 -64 -14 -48 14 -149 66 -154 80 -3 8 -11 14 -19 14 -7 0 -21 11 -30 25 -9
14 -27 28 -40 31 -13 3 -24 10 -24 14 0 5 -16 18 -35 30 -20 12 -41 27 -48 34
-6 6 -21 18 -33 26 -29 21 -88 90 -76 90 5 0 15 -6 21 -14z m-4479 -395 c0 -5
-22 -26 -50 -47 -27 -21 -50 -41 -50 -44 0 -3 -10 -17 -22 -31 -31 -34 -45
-56 -70 -109 -11 -25 -29 -57 -40 -72 -11 -16 -16 -28 -11 -28 4 0 0 -5 -9
-11 -20 -11 -41 -79 -32 -102 5 -14 -16 -89 -36 -127 -34 -63 -25 -203 15
-232 6 -5 3 -8 -6 -8 -9 0 -29 -7 -45 -15 -15 -8 -29 -13 -30 -12 -1 1 4 38
12 82 16 85 17 92 28 170 17 112 71 294 108 365 18 36 115 141 200 217 16 14
38 17 38 4z m4228 -16 c42 -4 112 -28 112 -39 0 -19 -70 -86 -90 -86 -10 0
-26 -3 -36 -7 -12 -4 -15 -3 -10 6 6 9 -2 11 -30 9 -32 -3 -40 1 -50 22 -14
27 -2 52 21 44 19 -8 55 14 55 32 0 8 -7 17 -15 20 -8 4 -12 10 -9 16 3 5 12
4 20 -3 8 -6 22 -13 32 -14z m2057 -79 c44 -4 121 -9 170 -12 50 -2 128 -9
174 -14 45 -5 86 -9 90 -8 3 0 24 0 46 -1 35 -2 37 -3 17 -11 -13 -6 -37 -20
-55 -34 -18 -13 -49 -27 -69 -30 -21 -4 -38 -11 -38 -16 0 -6 -13 -10 -30 -10
-16 0 -30 4 -30 8 0 5 -14 9 -31 9 -17 0 -34 4 -37 9 -20 27 -71 44 -116 38
-47 -7 -51 -3 -47 33 1 10 -17 12 -71 9 -101 -6 -158 -17 -158 -30 0 -6 -15
-11 -33 -12 l-32 0 28 10 c15 5 27 13 27 18 0 4 11 8 25 8 14 0 25 5 25 10 0
6 6 10 14 10 7 0 19 7 26 15 7 8 15 13 19 11 3 -2 42 -7 86 -10z m-1115 -230
c8 -1 27 -7 41 -14 27 -11 27 -11 20 -83 -1 -11 -51 -17 -51 -7 0 6 -6 8 -14
5 -24 -9 -95 14 -123 41 -16 15 -31 27 -35 27 -3 0 -9 3 -12 6 -11 11 -56 -3
-56 -16 0 -8 -9 -17 -21 -20 -17 -6 -33 -30 -38 -57 0 -5 -10 -17 -22 -29 -12
-12 -18 -27 -14 -39 11 -33 -39 -77 -96 -85 -27 -4 -49 -10 -49 -14 0 -4 -27
-5 -60 -3 -46 2 -59 0 -57 -10 2 -7 2 -10 0 -5 -8 13 -37 8 -78 -13 -22 -12
-59 -23 -82 -27 -24 -3 -43 -10 -43 -15 0 -6 -7 -8 -15 -4 -8 3 -15 1 -15 -4
0 -4 -13 -11 -30 -15 -16 -4 -32 -11 -35 -16 -4 -5 -19 -9 -35 -9 -15 0 -30
-6 -33 -14 -3 -8 -20 -17 -37 -21 -18 -4 -40 -15 -50 -25 -19 -19 -88 -45 -97
-36 -3 3 -20 -1 -38 -8 -18 -8 -51 -17 -74 -21 -23 -4 -41 -12 -41 -19 0 -9
-21 -15 -61 -19 -34 -3 -65 -10 -68 -15 -6 -9 -67 -25 -106 -28 -11 0 -38 -7
-60 -15 -22 -7 -44 -12 -48 -11 -5 1 -20 -7 -34 -18 -14 -11 -29 -17 -34 -14
-5 3 -9 1 -9 -3 0 -5 -10 -9 -22 -10 -20 -2 -21 0 -7 10 9 7 23 32 30 55 11
38 15 43 36 37 13 -3 23 -1 23 5 0 7 8 9 20 5 20 -6 50 14 50 34 0 6 6 11 14
11 8 0 17 7 20 16 4 9 13 14 22 10 8 -3 12 -2 9 3 -3 5 3 12 12 15 10 3 23 16
28 28 8 17 22 25 60 31 28 4 57 10 65 14 8 3 24 8 34 10 11 2 74 17 140 34 67
17 128 32 136 34 8 2 15 4 15 5 0 1 9 3 20 5 47 8 76 16 118 34 25 11 48 17
51 14 3 -4 14 1 23 9 10 9 37 18 59 22 23 3 59 15 79 26 21 12 44 19 51 16 7
-3 19 0 27 7 26 24 97 57 121 57 15 0 26 4 26 9 0 5 17 15 38 21 20 6 44 14
52 18 8 3 20 6 25 7 29 2 75 32 77 50 5 36 120 49 258 31z m-4530 -91 c5 -12
14 -25 20 -27 6 -2 11 -29 12 -61 1 -32 5 -60 10 -63 4 -3 3 -14 -3 -25 -6
-12 -8 -23 -5 -26 3 -3 0 -15 -7 -27 -6 -11 -12 -25 -12 -31 -1 -18 -34 -60
-64 -83 l-30 -22 -26 24 c-14 13 -25 34 -25 50 0 14 -4 26 -9 26 -16 0 -19
104 -5 158 15 58 36 95 72 130 19 18 27 20 43 11 11 -5 24 -21 29 -34z m5523
-210 c14 -6 15 -10 6 -22 -19 -22 2 -36 34 -24 18 7 28 7 33 0 3 -6 18 -8 32
-4 26 6 26 6 8 -14 -10 -11 -22 -18 -27 -16 -16 11 -89 -8 -89 -22 0 -8 -7
-13 -17 -11 -12 3 -17 12 -15 27 2 20 -1 22 -24 17 -14 -4 -46 -4 -71 0 -42 6
-43 7 -27 25 9 11 23 19 31 19 7 0 13 5 13 11 0 5 4 8 9 4 5 -3 12 -1 16 5 4
6 11 8 16 5 5 -4 9 -2 9 2 0 10 37 9 63 -2z"/>
<path d="M10460 6380 c-59 -47 -235 -144 -302 -166 -114 -39 -286 -81 -378
-94 -47 -6 -114 -15 -150 -20 -36 -5 -99 -12 -140 -16 -87 -7 -255 -48 -289
-70 -16 -11 -20 -19 -12 -27 7 -7 15 -6 26 3 8 7 41 19 73 27 31 8 73 18 92
23 42 11 202 29 283 32 32 1 61 6 63 10 3 4 22 8 42 8 47 1 161 27 362 84 72
20 167 68 270 135 47 31 93 59 103 63 9 4 17 12 17 18 0 16 -33 11 -60 -10z"/>
<path d="M2904 5484 c-12 -3 -40 -21 -62 -40 -22 -18 -43 -34 -47 -34 -13 0
-131 -98 -168 -139 -43 -47 -91 -121 -83 -128 2 -3 -18 -50 -45 -105 -46 -96
-55 -133 -23 -107 8 6 14 16 14 22 0 19 63 141 86 167 12 14 59 66 104 117
118 133 168 168 261 186 62 11 82 12 107 2 38 -17 57 -65 34 -89 -12 -12 -13
-19 -5 -27 20 -20 45 33 41 87 -3 42 -7 49 -38 67 -34 19 -132 31 -176 21z"/>
<path d="M4120 5145 c-19 -7 -77 -16 -129 -19 -105 -8 -336 -63 -400 -95 -44
-23 -51 -44 -26 -77 13 -17 14 -17 15 -2 0 11 14 24 34 32 34 14 190 50 296
67 88 15 433 37 455 29 21 -8 28 -6 -125 -44 -80 -20 -189 -39 -340 -61 -63
-9 -146 -21 -185 -26 -88 -13 -285 -54 -345 -72 -33 -10 -46 -20 -48 -36 -3
-17 2 -21 22 -21 15 0 34 4 44 10 9 5 60 18 112 30 101 22 119 25 220 40 36 5
81 12 100 15 19 2 89 12 155 20 66 9 147 23 180 31 33 9 96 24 140 33 93 20
125 35 126 59 5 66 -13 77 -125 74 -76 -2 -95 1 -100 13 -6 18 -27 18 -76 0z"/>
<path d="M1571 5046 c-7 -8 -14 -58 -16 -113 -9 -213 -17 -368 -20 -373 -2 -3
-6 -43 -9 -90 -4 -47 -9 -99 -12 -116 -4 -21 -1 -34 11 -44 27 -23 45 12 46
89 0 36 2 80 4 96 3 17 5 62 4 100 0 261 4 421 11 429 23 24 50 -109 55 -268
3 -71 9 -154 14 -185 6 -31 12 -101 15 -155 3 -58 10 -102 17 -106 7 -5 10
-28 8 -61 -2 -32 2 -64 10 -78 20 -37 29 -9 19 60 -6 35 -6 77 -1 102 5 23 6
58 2 77 -4 19 -9 76 -10 125 -2 50 -9 104 -16 122 -7 18 -13 56 -13 84 0 72
-49 269 -73 297 -24 26 -30 27 -46 8z"/>
<path d="M11030 4623 c-41 -13 -104 -49 -114 -65 -6 -10 -16 -18 -22 -18 -6 0
-27 -14 -45 -30 -43 -39 -99 -65 -168 -80 -30 -6 -75 -23 -100 -38 -25 -16
-54 -31 -63 -35 -10 -3 -18 -17 -18 -30 0 -17 -9 -26 -35 -36 -19 -6 -53 -29
-75 -50 -34 -32 -40 -43 -40 -78 0 -23 -8 -50 -18 -64 -10 -13 -26 -42 -36
-64 -29 -68 -43 -90 -65 -100 -11 -5 -25 -21 -31 -36 -6 -14 -22 -32 -36 -39
-13 -8 -24 -16 -24 -19 0 -3 -14 -22 -31 -41 -16 -19 -37 -47 -45 -62 -8 -16
-21 -28 -29 -28 -7 0 -20 -6 -27 -14 -8 -7 -28 -21 -46 -30 -18 -9 -32 -20
-32 -25 0 -5 -13 -14 -29 -20 -15 -7 -55 -37 -87 -66 -33 -30 -62 -55 -66 -55
-4 0 -14 -13 -23 -29 -8 -16 -32 -37 -55 -48 -28 -13 -43 -27 -50 -50 -6 -17
-17 -34 -25 -37 -23 -9 -8 -106 22 -133 16 -16 23 -33 23 -61 0 -57 16 -68
130 -88 67 -12 191 -6 204 10 6 8 58 24 116 36 58 12 123 29 145 37 22 8 49
17 60 20 32 8 88 34 115 54 14 9 52 26 83 38 47 16 63 18 89 9 24 -8 33 -8 36
0 2 6 22 16 45 22 23 6 61 20 84 31 24 10 47 19 52 19 6 0 14 6 18 13 28 43
197 74 430 81 l43 1 0 69 0 68 -67 -6 c-96 -8 -118 -12 -130 -19 -7 -5 -13 37
-18 129 -7 127 -3 162 13 138 4 -6 38 -9 85 -6 62 3 80 8 83 21 3 9 10 24 15
33 5 10 9 47 9 84 0 60 -2 65 -19 59 -19 -6 -31 -8 -97 -21 -18 -3 -35 -1 -38
4 -4 7 16 14 51 18 32 4 61 9 66 10 4 1 11 2 16 3 4 0 5 19 1 42 -6 29 -20 52
-54 85 l-47 44 -14 -34 c-8 -20 -15 -40 -15 -46 0 -5 -5 -10 -10 -10 -7 0 -7
7 0 20 6 11 9 24 6 29 -6 9 -17 115 -21 206 -2 28 -4 50 -5 50 -3 0 -10 38
-13 62 -1 13 -4 23 -7 23 -3 0 -5 27 -5 60 0 33 -3 60 -7 60 -5 0 -7 5 -5 11
2 14 -12 19 -33 12z m-30 -550 c0 -7 6 -13 13 -12 36 4 68 -3 74 -16 8 -22
-23 -42 -75 -50 -24 -4 -54 -9 -65 -12 -44 -10 -132 -22 -136 -17 -2 2 3 4 12
4 10 0 17 4 17 10 0 13 -32 28 -50 23 -8 -3 -5 3 8 12 13 9 29 14 37 11 8 -3
14 0 12 7 -1 8 9 11 29 9 25 -2 38 4 65 32 25 27 36 33 46 24 7 -6 13 -17 13
-25z"/>
<path d="M2325 4283 c-46 -5 -117 -25 -147 -40 -19 -9 -28 -21 -28 -37 0 -13
-7 -29 -16 -37 -11 -9 -14 -22 -10 -43 8 -37 21 -46 55 -36 14 5 51 11 81 14
152 14 218 50 206 111 -11 54 -60 78 -141 68z"/>
<path d="M4537 3848 c-16 -11 -38 -41 -50 -67 -19 -41 -22 -61 -21 -175 l1
-130 32 -28 c17 -15 31 -32 31 -38 0 -5 9 -10 20 -10 13 0 20 7 20 18 0 14 14
23 58 35 32 9 71 27 87 41 17 14 33 26 36 26 12 0 28 75 24 121 -3 48 -40 134
-74 173 -41 47 -123 64 -164 34z m123 -53 c4 -12 0 -45 -12 -80 -16 -50 -17
-72 -10 -135 5 -41 7 -78 5 -82 -2 -5 -17 -8 -32 -8 -15 0 -31 -4 -36 -10 -10
-9 -10 20 -4 179 2 52 5 65 20 68 17 5 32 30 28 49 -1 5 -1 17 0 27 1 24 31
18 41 -8z"/>
<path d="M11256 2701 c-30 -60 -46 -104 -41 -111 6 -9 4 -11 -5 -5 -10 6 -12
4 -7 -9 4 -9 3 -15 -2 -12 -8 6 -31 -36 -31 -57 0 -7 -9 -20 -20 -30 -11 -9
-20 -24 -20 -32 0 -8 -6 -15 -12 -15 -9 0 -9 -3 1 -9 8 -5 14 -23 13 -40 0
-17 4 -31 9 -31 5 0 9 -10 9 -22 1 -30 19 -53 50 -62 14 -4 39 -13 55 -21 17
-7 40 -16 53 -20 26 -7 27 3 13 81 -5 27 -11 150 -12 272 -1 122 -3 222 -3
222 -1 0 -23 -44 -50 -99z"/>
<path d="M5400 2774 c-166 -16 -350 -57 -350 -76 0 -5 -7 -8 -16 -8 -8 0 -35
-11 -60 -25 -25 -14 -51 -25 -59 -25 -8 0 -15 -7 -15 -16 0 -10 -6 -14 -15
-11 -8 4 -17 2 -21 -4 -12 -20 -74 -37 -364 -99 -296 -64 -577 -135 -597 -152
-29 -24 2 -25 69 -2 39 13 107 31 152 39 45 8 96 20 113 26 18 6 93 23 165 39
302 65 367 80 438 104 41 14 81 26 88 26 7 0 49 18 95 40 172 83 375 104 865
88 82 -3 95 -1 104 15 20 38 8 40 -213 43 -118 2 -223 5 -234 7 -11 2 -76 -2
-145 -9z"/>
<path d="M1506 2751 c-9 -10 -43 -26 -74 -36 -31 -9 -68 -20 -82 -25 -14 -5
-89 -16 -167 -25 -78 -8 -154 -20 -167 -25 -14 -5 -91 -23 -171 -39 -141 -29
-148 -30 -213 -16 -170 37 -197 59 -117 94 25 11 63 23 83 27 48 8 87 33 74
46 -10 10 -66 -5 -172 -44 -65 -25 -66 -25 -74 -60 -5 -20 -2 -30 12 -37 28
-15 240 -68 303 -75 51 -7 57 -5 62 13 3 12 12 21 21 21 9 0 71 13 139 29 67
17 167 34 222 40 172 18 313 57 346 97 20 24 -4 38 -25 15z"/>
<path d="M2722 2623 c-30 -6 -22 -28 9 -27 13 1 58 -4 99 -11 41 -7 107 -16
147 -19 141 -12 323 -62 323 -90 0 -18 -68 -49 -212 -96 -35 -12 -94 -34 -133
-50 -38 -16 -97 -39 -130 -51 -113 -42 -315 -162 -315 -186 0 -15 16 -17 24
-4 13 20 217 131 306 166 52 21 114 46 137 56 24 11 49 19 57 19 8 0 17 4 20
9 3 5 18 11 33 14 51 10 162 53 200 78 48 31 51 65 8 89 -44 24 -177 57 -280
70 -84 10 -204 27 -250 34 -11 2 -30 2 -43 -1z"/>
<path d="M10585 2408 c-44 -4 -147 -15 -230 -23 -82 -9 -182 -18 -221 -21 -39
-2 -82 -7 -95 -9 -30 -6 -82 -12 -184 -20 -44 -3 -123 -12 -175 -20 -52 -7
-135 -18 -185 -25 -49 -6 -112 -15 -140 -20 -27 -5 -93 -16 -145 -25 -189 -31
-387 -66 -475 -85 -49 -10 -128 -26 -175 -35 -47 -9 -110 -23 -141 -31 -31 -7
-82 -15 -114 -16 -36 -2 -60 -8 -63 -16 -7 -23 92 -13 290 28 358 74 286 61
728 134 113 19 243 39 290 45 47 7 117 16 155 21 39 5 102 12 140 15 39 4 104
11 145 16 82 10 340 37 435 45 33 3 111 9 174 15 87 7 116 7 122 -2 5 -9 14
-9 36 -1 15 6 41 12 56 14 15 2 26 8 25 13 -4 12 -142 14 -253 3z"/>
<path d="M7215 1860 c-80 -16 -112 -21 -235 -35 -146 -16 -282 -42 -504 -95
-315 -75 -316 -75 -526 -35 -112 21 -164 26 -303 25 -92 0 -207 -4 -255 -10
-48 -5 -112 -13 -142 -16 -30 -4 -152 -8 -270 -9 -346 -5 -325 -4 -312 -17 6
-6 22 -13 34 -15 52 -8 447 -10 503 -2 33 4 89 10 125 13 36 3 92 9 125 12 33
4 146 7 251 7 184 0 281 -10 369 -38 63 -20 144 -10 405 50 195 44 349 77 383
81 16 2 32 6 36 8 3 2 45 9 91 16 47 6 117 17 155 25 39 8 87 17 108 20 20 3
37 10 37 15 0 11 -18 11 -75 0z"/>
<path d="M1100 1588 c0 -21 32 -64 106 -140 130 -135 269 -260 339 -306 39
-25 82 -53 97 -64 15 -10 30 -18 33 -18 12 0 94 -57 155 -109 36 -31 122 -113
192 -182 87 -88 136 -129 157 -134 16 -3 48 -15 70 -26 49 -23 112 -45 172
-58 43 -10 78 -13 274 -26 44 -3 134 -18 200 -34 175 -42 185 -44 185 -32 0
14 -26 24 -120 46 -41 9 -102 23 -135 31 -33 8 -112 16 -175 19 -179 9 -268
28 -425 94 -11 5 -39 17 -62 26 -24 10 -43 21 -43 26 0 11 -172 181 -266 263
-45 39 -108 87 -140 106 -137 80 -203 128 -298 218 -56 53 -136 129 -179 169
-59 56 -77 78 -72 93 4 12 -2 23 -17 34 -27 19 -48 21 -48 4z"/>
<path d="M4805 1145 c-66 -12 -127 -25 -137 -29 -9 -4 -29 -25 -44 -48 -15
-22 -44 -48 -63 -58 -52 -26 -179 -48 -316 -55 -221 -10 -330 -16 -375 -20
-25 -2 -142 -6 -260 -9 -118 -4 -249 -9 -290 -11 -41 -3 -122 -8 -180 -10 -58
-3 -150 -10 -205 -16 -55 -6 -111 -12 -125 -13 -14 0 -24 -5 -22 -11 3 -12 73
-13 157 -2 85 11 204 16 490 23 138 3 275 7 305 8 381 16 467 21 559 31 87 9
233 37 266 51 32 13 85 60 85 75 0 13 50 35 110 49 30 6 84 19 120 27 97 22
339 19 438 -6 137 -34 305 -80 377 -102 165 -51 285 -65 285 -34 0 8 -18 12
-52 13 -29 0 -93 12 -143 25 -309 87 -438 121 -495 133 -103 21 -341 16 -485
-11z"/>
</g>
</svg>
