<?xml version="1.0" standalone="no"?>
<!DOCTYPE svg PUBLIC "-//W3C//DTD SVG 20010904//EN"
 "http://www.w3.org/TR/2001/REC-SVG-20010904/DTD/svg10.dtd">
<svg version="1.0" xmlns="http://www.w3.org/2000/svg"
 width="587.000000pt" height="991.000000pt" viewBox="0 0 587.000000 991.000000"
 preserveAspectRatio="xMidYMid meet">
<metadata>
Created by potrace 1.16, written by Peter Selinger 2001-2019
</metadata>
<g transform="translate(0.000000,991.000000) scale(0.100000,-0.100000)"
fill="#000000" stroke="none">
<path d="M749 9013 c-6 -16 -15 -36 -20 -45 -12 -24 -11 -75 1 -83 6 -3 10
-16 10 -29 0 -12 8 -31 18 -42 9 -10 26 -37 37 -58 27 -53 45 -77 89 -113 19
-16 96 -16 117 0 8 7 19 21 23 32 8 20 8 20 16 -1 7 -19 29 -34 46 -33 4 0 10
-4 13 -9 9 -14 71 -26 71 -13 0 6 9 11 21 11 11 0 34 9 50 21 16 11 29 17 29
12 0 -17 67 -82 91 -88 30 -7 88 14 117 43 20 20 20 20 31 -21 19 -72 32 -82
109 -82 58 0 71 3 93 25 14 14 35 46 47 72 l20 47 174 -4 c96 -2 186 -8 203
-15 22 -8 35 -8 52 1 13 7 26 10 29 7 9 -10 -15 -120 -31 -138 -9 -10 -15 -36
-15 -68 0 -58 -9 -64 -43 -27 -26 29 -52 26 -61 -8 -7 -28 -37 -33 -161 -25
-22 2 -43 8 -47 13 -11 15 -136 10 -200 -8 -31 -10 -90 -19 -130 -21 -40 -2
-77 -5 -83 -7 -15 -4 -86 11 -115 23 -14 6 -105 14 -203 18 -111 4 -182 11
-190 19 -6 6 -27 11 -47 11 -35 0 -36 1 -34 38 0 20 4 65 9 100 8 62 8 62 -18
62 -42 0 -57 -10 -57 -40 0 -15 -7 -46 -15 -69 -8 -23 -11 -39 -6 -36 12 7 20
-65 10 -91 -9 -25 9 -198 22 -202 5 -2 9 -8 9 -13 0 -13 53 -79 63 -79 4 0 19
-11 33 -25 14 -14 29 -25 35 -25 6 0 8 -4 5 -9 -3 -4 13 -13 35 -20 22 -7 43
-20 46 -29 4 -9 13 -23 20 -30 7 -7 13 -24 13 -36 0 -13 11 -38 25 -57 13 -19
32 -45 42 -59 14 -18 18 -44 18 -105 1 -103 16 -265 25 -265 4 0 10 -62 13
-137 4 -76 14 -178 22 -228 8 -50 15 -160 15 -250 0 -88 5 -193 10 -234 11
-81 48 -168 92 -213 15 -16 28 -34 28 -40 0 -6 2 -9 5 -6 3 3 18 -6 33 -21 15
-14 61 -48 101 -76 40 -27 92 -69 115 -92 23 -24 45 -43 49 -43 4 0 17 -9 29
-20 12 -11 28 -20 35 -20 7 0 13 -4 13 -9 0 -5 20 -14 45 -20 25 -6 45 -15 45
-20 0 -5 13 -12 30 -16 28 -6 29 -9 32 -68 3 -51 7 -63 24 -72 12 -6 29 -17
38 -24 10 -8 34 -12 66 -9 27 1 50 0 50 -4 0 -5 9 -8 20 -8 12 0 38 -9 60 -20
22 -11 46 -20 54 -20 9 0 39 -11 68 -24 29 -13 70 -30 91 -37 34 -12 37 -16
32 -44 -3 -16 -10 -82 -15 -145 -5 -63 -11 -135 -14 -160 -2 -25 -5 -189 -6
-365 -1 -306 10 -551 31 -658 5 -27 7 -52 4 -57 -2 -4 3 -16 13 -26 9 -10 19
-32 20 -49 2 -16 10 -37 18 -46 12 -14 12 -18 -3 -31 -10 -8 -26 -18 -35 -21
-24 -8 -31 -58 -26 -179 5 -105 45 -359 58 -368 6 -4 16 -43 46 -189 3 -13 11
-38 18 -56 8 -18 17 -56 21 -86 4 -30 18 -88 31 -129 13 -41 24 -89 24 -107 0
-18 5 -33 10 -33 6 0 10 -15 10 -33 0 -18 5 -38 12 -45 7 -7 9 -12 5 -12 -3 0
7 -36 23 -81 17 -44 30 -90 30 -101 0 -12 7 -29 16 -39 9 -10 21 -50 27 -89 6
-38 15 -70 18 -70 4 0 10 -22 14 -50 4 -27 11 -52 15 -55 5 -3 11 -24 15 -48
4 -23 11 -46 15 -52 4 -5 14 -37 21 -70 7 -33 16 -68 21 -78 5 -10 13 -39 18
-65 5 -26 14 -69 20 -97 6 -27 18 -84 26 -125 26 -123 33 -139 61 -146 56 -14
63 40 23 166 -10 30 -21 81 -25 112 -3 32 -10 60 -14 63 -5 2 -11 27 -15 54
-4 27 -13 62 -21 78 -8 15 -15 43 -15 61 0 17 -4 32 -9 32 -5 0 -12 17 -16 38
-4 20 -10 42 -15 47 -8 11 -34 105 -55 200 -16 72 -33 133 -44 160 -5 11 -19
52 -31 90 -11 39 -25 79 -30 90 -15 37 -40 127 -40 146 0 10 -4 21 -10 24 -5
3 -10 15 -10 25 0 11 -7 41 -16 67 -16 45 -25 83 -54 208 -6 28 -15 59 -21 70
-5 11 -13 47 -19 80 -5 33 -16 98 -24 145 -8 47 -19 134 -23 194 -8 99 -7 111
9 125 13 11 18 30 18 63 0 26 4 50 10 53 6 3 10 14 10 23 0 14 9 16 57 14 32
-2 63 -7 68 -12 6 -4 44 -11 85 -15 41 -3 80 -11 87 -16 6 -6 96 -12 200 -16
103 -3 190 -9 191 -14 5 -12 149 -11 157 1 8 14 248 13 261 0 7 -7 70 -9 180
-7 179 5 300 19 349 41 52 24 104 40 110 34 3 -3 -3 -50 -14 -104 -21 -105
-27 -149 -43 -309 -5 -55 -14 -104 -19 -109 -5 -6 -9 -25 -9 -44 0 -42 -17
-118 -36 -157 -8 -16 -19 -57 -24 -90 -5 -33 -16 -87 -25 -120 -9 -33 -21 -85
-26 -115 -14 -85 -34 -168 -42 -176 -4 -4 -7 -14 -7 -23 0 -9 -7 -29 -15 -45
-8 -15 -15 -36 -15 -45 0 -9 -4 -21 -10 -27 -9 -9 -25 -91 -37 -189 -3 -22 -9
-44 -14 -49 -5 -6 -9 -20 -9 -32 0 -12 -7 -41 -15 -65 -9 -24 -21 -93 -27
-154 -5 -60 -14 -114 -18 -120 -4 -5 -11 -45 -15 -87 -3 -43 -13 -101 -21
-130 -25 -94 -13 -178 25 -178 19 0 41 26 41 49 0 11 5 23 11 27 7 4 9 21 6
40 -3 19 -1 36 4 39 5 4 9 27 9 53 0 26 5 65 10 87 5 22 14 87 21 145 6 58 17
136 25 173 8 38 14 83 14 102 0 19 4 36 9 39 5 4 12 30 16 59 8 59 13 78 56
202 33 95 56 183 65 250 3 22 10 50 16 62 6 12 8 29 5 37 -4 9 -3 16 2 16 5 0
14 21 20 47 7 27 19 71 27 98 8 28 18 70 21 95 3 25 9 50 14 55 8 11 11 34 49
335 12 90 25 169 29 175 5 5 11 53 14 105 5 81 23 261 43 430 3 25 0 61 -5 80
-12 39 -30 340 -20 340 13 0 29 53 29 93 0 24 4 47 8 53 22 24 32 103 32 253
0 101 4 161 10 161 6 0 10 5 10 12 0 6 10 22 22 36 17 17 23 35 22 65 -1 36
-51 201 -89 292 -6 17 -18 48 -25 70 -7 22 -18 54 -26 70 -30 69 -64 159 -64
172 0 7 -4 13 -9 13 -5 0 -12 14 -16 30 -4 17 -11 30 -16 30 -5 0 -9 9 -9 21
0 12 -6 35 -14 52 -8 18 -24 64 -36 102 -13 39 -30 79 -39 90 -9 11 -29 46
-45 77 -37 73 -63 101 -85 93 -9 -4 -70 -9 -135 -11 -66 -2 -125 -9 -131 -14
-7 -5 -15 -7 -18 -3 -4 3 -25 0 -47 -7 -31 -10 -43 -11 -52 -2 -14 14 -53 16
-77 2 -12 -6 -23 -31 -31 -70 -7 -33 -16 -63 -20 -65 -4 -3 -15 16 -25 41 -31
82 -19 357 21 469 9 28 35 74 57 102 33 45 43 52 68 49 20 -2 41 -17 65 -45
47 -55 100 -81 164 -81 79 0 126 32 170 118 21 40 24 42 70 42 34 0 56 7 81
25 19 14 47 33 62 42 16 10 41 27 55 38 14 10 34 21 45 22 24 4 88 58 105 90
7 13 24 40 38 60 13 20 34 68 46 106 42 141 9 392 -68 509 -13 21 -29 60 -35
88 -6 27 -15 52 -20 56 -5 3 -7 10 -4 15 4 5 1 9 -4 9 -6 0 -11 21 -11 50 0
27 -5 72 -11 100 -9 43 -8 59 10 115 22 67 28 163 12 193 -5 9 -14 36 -20 59
-6 22 -26 63 -44 90 -58 84 -131 117 -208 94 -46 -14 -75 -42 -100 -97 -10
-22 -29 -46 -43 -53 -54 -30 -133 -189 -124 -253 l5 -29 -41 39 c-76 72 -90
82 -143 102 -58 22 -138 26 -192 10 -19 -5 -135 -15 -257 -20 l-222 -11 -86
30 c-114 40 -139 54 -219 118 -103 83 -132 63 -76 -54 18 -37 34 -83 36 -103
2 -19 10 -42 18 -51 21 -22 19 -26 -17 -32 -61 -10 -128 -30 -128 -39 0 -4 -9
-8 -20 -8 -11 0 -20 -5 -20 -10 0 -6 -6 -10 -12 -8 -7 1 -23 -3 -34 -10 -20
-11 -23 -8 -33 33 -6 24 -11 57 -11 74 0 16 -10 55 -22 86 -21 55 -22 57 -52
51 -17 -4 -86 -9 -153 -12 -101 -6 -129 -4 -164 10 -33 13 -58 15 -125 10
l-84 -7 0 79 c0 85 -13 116 -54 135 -11 5 -32 16 -46 24 -14 8 -44 15 -67 15
-33 0 -48 -6 -68 -27 -14 -16 -28 -39 -31 -53 -3 -14 -12 -38 -20 -55 -8 -16
-13 -23 -10 -15 4 19 -32 89 -59 112 -27 23 -87 23 -108 0 -10 -10 -17 -21
-17 -25 0 -3 -11 -22 -23 -41 l-24 -34 -13 37 c-7 20 -16 38 -19 41 -4 3 -21
24 -40 48 -18 23 -39 42 -47 42 -51 0 -163 -73 -164 -107 -1 -33 -46 -10 -77
39 -4 7 -27 30 -51 51 -55 48 -106 52 -123 10z m171 -202 c12 -36 27 -72 32
-78 7 -9 6 -15 -5 -19 -44 -16 -130 109 -134 194 l-2 53 44 -42 c32 -31 49
-58 65 -108z m234 113 c9 -3 16 -11 16 -18 0 -6 6 -23 14 -38 8 -15 17 -40 21
-57 4 -17 11 -31 15 -31 17 0 -18 -64 -40 -72 -26 -10 -69 0 -89 19 -35 36
-30 149 9 183 25 22 30 23 54 14z m551 -28 c0 0 6 -11 13 -23 17 -32 16 -118
-3 -133 -8 -7 -15 -23 -15 -36 0 -24 -31 -88 -55 -113 -18 -19 -62 -6 -70 21
-13 40 -7 113 14 166 12 29 21 62 21 74 0 36 29 60 64 52 17 -3 31 -7 31 -8z
m2532 -6 c36 -22 78 -96 88 -156 l7 -39 -22 34 c-21 33 -22 33 -74 27 -41 -4
-57 -2 -66 9 -7 8 -17 15 -23 15 -6 0 -23 12 -39 26 -29 28 -27 44 10 87 20
23 79 22 119 -3z m-2794 -76 c4 -21 10 -50 13 -64 4 -19 -3 -35 -28 -64 -40
-46 -57 -44 -83 11 -22 45 -22 52 12 119 24 47 28 51 52 45 20 -6 28 -16 34
-47z m2187 -191 c105 -39 169 -93 205 -171 23 -50 27 -54 53 -49 24 5 29 1 46
-34 10 -21 27 -46 37 -55 18 -16 18 -18 -7 -47 -22 -27 -25 -38 -22 -79 7 -68
39 -102 91 -95 35 5 37 4 37 -23 0 -36 -75 -197 -83 -177 -8 21 -61 31 -99 18
-38 -13 -116 -108 -191 -231 -39 -64 -50 -92 -57 -147 -4 -37 -13 -88 -20
-112 -6 -26 -8 -67 -4 -98 5 -44 4 -53 -9 -53 -25 0 -137 -146 -157 -206 -11
-30 -23 -60 -27 -67 -36 -57 -57 -313 -33 -407 6 -25 14 -56 17 -70 4 -13 19
-38 35 -55 30 -32 37 -72 14 -81 -8 -3 -26 -23 -41 -44 -15 -22 -38 -46 -52
-56 -32 -20 -107 -21 -154 -2 -40 17 -89 59 -89 77 0 6 -4 11 -9 11 -5 0 -13
9 -16 21 -7 21 -45 65 -45 52 0 -4 -7 4 -17 17 -9 14 -27 37 -41 52 -25 27
-26 31 -26 185 -1 149 -2 160 -26 203 -19 34 -32 46 -53 48 -26 3 -27 1 -27
-40 0 -24 4 -48 10 -54 5 -5 13 -43 16 -84 l7 -75 -34 26 c-47 35 -97 59 -125
59 -15 0 -47 -23 -89 -64 -41 -40 -74 -64 -88 -64 -27 0 -153 -18 -187 -26
-113 -29 -182 -33 -222 -12 -15 8 -40 17 -57 21 -17 4 -33 11 -36 16 -11 17
-71 10 -90 -11 -25 -28 -69 -25 -99 5 -14 14 -29 25 -34 25 -22 0 -47 46 -58
108 -17 87 -34 163 -41 182 -3 8 -7 20 -8 25 0 6 -4 17 -8 25 -3 8 -11 38 -16
65 -5 28 -17 82 -26 120 -20 90 -43 264 -44 335 0 30 -5 71 -11 90 -5 19 -10
56 -10 81 l0 46 43 7 c54 9 116 37 117 54 0 6 5 12 10 12 21 0 91 88 123 153
7 15 16 25 19 21 4 -3 4 3 1 15 -9 33 36 44 147 36 117 -8 126 -15 122 -97 -3
-51 -1 -63 19 -84 37 -40 63 -29 71 31 19 129 19 145 -5 196 -23 46 -23 49 -5
49 44 0 87 29 107 71 12 24 21 51 21 61 0 25 38 98 64 124 11 12 38 24 58 27
20 3 52 12 70 21 72 32 112 46 137 46 56 0 71 10 71 46 0 22 -5 34 -14 34 -11
0 -31 39 -23 46 9 9 246 5 264 -4 12 -7 31 -12 42 -12 12 0 30 -5 41 -12 14
-9 25 -9 42 -1 13 6 93 14 179 17 106 3 167 10 190 20 45 19 55 19 109 -1z
m-1281 -116 c15 -39 14 -108 -3 -133 -8 -12 -18 -44 -22 -73 -9 -68 -21 -73
-31 -14 -15 93 -4 240 23 308 7 16 10 13 15 -20 3 -22 11 -53 18 -68z m-1364
-178 c22 -5 96 -10 163 -10 98 1 136 -4 184 -20 52 -17 78 -19 177 -15 64 2
128 5 144 5 15 0 41 7 57 16 38 20 140 19 188 -1 29 -12 67 -15 172 -12 l134
3 13 -25 c7 -14 9 -26 5 -27 -4 -1 -19 -4 -34 -7 -32 -7 -56 -63 -39 -94 14
-27 8 -30 -47 -21 -26 4 -75 8 -109 8 l-61 1 -7 43 c-12 74 -26 87 -97 87 -68
0 -178 -41 -178 -67 0 -7 -5 -13 -11 -13 -14 0 -39 -26 -39 -40 0 -6 -4 -9 -9
-6 -5 3 -11 0 -14 -7 -5 -14 -229 -5 -295 12 -52 15 -218 12 -265 -4 -37 -13
-38 -12 -79 25 -43 40 -78 106 -78 145 0 18 7 25 28 28 47 7 56 7 97 -4z m863
-172 c7 -18 12 -45 12 -60 0 -33 -57 -142 -96 -183 -31 -33 -94 -79 -94 -69 0
3 -10 0 -22 -6 -13 -7 -39 -12 -59 -10 -21 1 -40 -2 -44 -8 -3 -6 -15 -11 -26
-11 -25 0 -26 -44 0 -62 15 -11 20 -36 30 -133 33 -340 46 -432 69 -485 5 -14
16 -70 22 -125 7 -55 15 -104 18 -110 4 -5 7 -12 8 -15 6 -31 17 -68 25 -82 5
-10 9 -34 9 -53 0 -71 86 -170 178 -204 l61 -23 -4 -137 c-3 -128 -15 -311
-20 -311 -1 0 -47 23 -101 51 -101 52 -146 82 -188 124 -13 13 -67 55 -121 93
-104 76 -128 104 -165 197 -22 57 -23 75 -27 320 -1 143 -7 278 -12 300 -6 22
-13 83 -17 135 -3 52 -13 126 -20 163 -8 38 -14 84 -14 103 0 19 -4 34 -10 34
-6 0 -10 30 -10 69 0 39 5 73 10 76 12 8 13 55 1 55 -5 0 -12 12 -15 26 -4 14
-16 35 -27 47 -36 38 -49 63 -69 131 l-19 66 87 0 c48 0 118 -7 157 -15 38 -8
96 -15 127 -15 l58 0 -3 -47 c-2 -46 -1 -48 27 -51 33 -4 46 10 46 51 0 15 5
27 10 27 6 0 10 7 10 14 0 17 52 97 76 117 19 16 92 46 114 48 9 1 21 -13 28
-32z m958 -1617 c14 -52 32 -99 40 -103 8 -4 14 -15 14 -22 0 -8 4 -15 9 -15
5 0 12 -11 15 -25 4 -14 34 -52 69 -86 34 -34 61 -66 59 -71 -1 -5 2 -7 7 -4
5 3 33 -5 62 -18 31 -14 85 -28 127 -32 40 -4 70 -9 68 -12 -3 -2 1 -17 10
-33 8 -16 23 -84 34 -151 10 -68 30 -163 43 -213 14 -49 28 -123 31 -163 3
-40 17 -105 30 -145 13 -39 33 -126 46 -192 13 -70 56 -221 102 -360 93 -283
85 -258 88 -267 1 -4 30 -65 65 -135 62 -128 121 -216 197 -299 l41 -44 -59
-2 c-33 -1 -72 -1 -89 0 -16 0 -185 1 -375 2 -335 0 -566 14 -665 39 -22 6
-57 11 -78 11 -20 0 -45 4 -55 10 -9 5 -43 12 -74 15 l-57 6 -17 57 c-9 31
-21 68 -26 82 -13 32 -14 81 -2 103 8 14 18 9 79 -38 75 -58 128 -78 190 -73
32 2 41 7 43 25 2 12 13 25 24 29 34 10 114 102 143 163 27 58 49 101 95 186
14 28 35 86 44 130 23 103 47 181 84 279 36 92 52 183 52 298 0 46 7 151 16
233 8 83 14 204 12 270 -1 66 1 125 5 132 14 22 -4 43 -39 43 -28 0 -35 -5
-40 -25 -3 -14 -3 -42 1 -63 13 -70 17 -185 7 -206 -16 -34 -32 -194 -32 -318
0 -137 -27 -307 -63 -396 -14 -34 -35 -102 -47 -150 -36 -153 -51 -195 -95
-259 -24 -35 -51 -86 -61 -115 -17 -53 -94 -148 -120 -148 -7 0 -20 -10 -28
-21 -28 -41 -98 -11 -204 86 -49 44 -75 91 -77 139 -1 23 -5 47 -9 54 -11 18
-6 611 6 618 5 3 8 37 7 75 -1 41 3 74 10 82 6 8 14 68 18 141 l6 126 -36 0
c-19 0 -42 7 -51 15 -8 8 -18 15 -23 15 -8 0 -126 46 -154 60 -9 5 -33 12 -53
15 -20 4 -36 11 -36 17 0 5 -6 8 -12 7 -7 -1 -26 3 -41 9 -16 7 -47 12 -69 12
-40 0 -40 0 -34 33 11 54 25 227 25 316 1 46 5 100 11 120 5 20 12 66 15 103
l7 67 41 -17 c51 -21 269 -24 308 -5 13 6 70 17 125 23 l102 12 58 54 59 54
23 -23 c14 -14 32 -58 48 -117z m1234 29 c4 -8 14 -29 23 -47 9 -19 17 -40 17
-48 0 -8 5 -14 10 -14 6 0 10 -11 10 -25 0 -14 9 -42 20 -62 11 -21 20 -47 20
-58 0 -11 8 -34 19 -51 10 -17 22 -41 26 -55 4 -13 27 -65 51 -115 24 -51 44
-98 44 -105 1 -8 9 -32 20 -54 11 -22 19 -50 20 -63 0 -12 4 -30 10 -40 5 -9
19 -50 31 -90 11 -39 25 -74 30 -77 4 -3 6 -12 2 -20 -3 -8 0 -15 6 -15 6 0
11 -17 11 -37 0 -31 -7 -45 -41 -76 -34 -32 -74 -56 -116 -70 -5 -1 -13 30
-19 68 -7 39 -19 104 -27 145 -9 41 -25 131 -37 200 -12 69 -26 134 -31 145
-4 11 -15 47 -24 81 -18 66 -45 94 -71 73 -16 -13 -19 -55 -4 -64 6 -3 10 -23
10 -44 0 -20 5 -42 11 -48 9 -9 19 -82 35 -255 3 -32 9 -58 14 -58 4 0 6 -9 3
-20 -3 -11 0 -26 6 -34 6 -7 14 -35 17 -62 3 -27 14 -71 24 -99 10 -27 22 -70
25 -95 4 -25 13 -70 21 -100 8 -30 14 -73 14 -95 0 -23 3 -45 7 -49 15 -15 44
-205 53 -351 6 -82 15 -162 21 -177 11 -27 9 -85 -11 -258 -12 -110 -18 -130
-34 -130 -7 0 -35 -10 -62 -22 -27 -12 -68 -25 -92 -28 -40 -6 -46 -4 -89 34
-117 102 -233 292 -288 467 -15 46 -37 109 -50 139 -46 108 -114 327 -135 435
-11 61 -32 156 -45 212 -14 56 -25 124 -26 150 0 46 -20 130 -53 223 -8 25
-23 92 -32 150 -15 99 -23 133 -39 171 -4 12 7 23 46 43 28 15 61 36 72 47 11
10 24 19 28 19 14 0 61 54 71 83 5 15 14 27 19 27 5 0 9 4 9 9 0 6 13 29 29
53 16 24 32 60 36 81 8 42 6 41 138 60 119 16 239 14 247 -4z m306 -1222 c12
-49 -6 -251 -23 -268 -7 -7 -14 14 -22 68 -7 43 -17 103 -22 133 -6 30 -12 63
-14 73 -2 11 3 17 15 17 11 0 22 5 25 10 14 22 32 8 41 -33z"/>
<path d="M3292 8498 c-16 -16 -16 -80 0 -96 7 -7 22 -12 34 -12 16 0 25 -11
37 -42 9 -24 15 -52 13 -63 -15 -73 -27 -254 -19 -285 13 -51 50 -53 86 -6 41
53 55 153 34 239 -9 36 -17 79 -17 95 0 28 -73 144 -107 170 -21 15 -46 15
-61 0z"/>
<path d="M2241 7693 c-12 -13 -12 -19 -1 -36 7 -12 23 -41 36 -66 13 -24 29
-50 35 -57 6 -7 7 -19 3 -25 -4 -8 -3 -9 4 -5 7 4 12 1 12 -8 0 -9 5 -16 11
-16 5 0 7 -5 3 -12 -4 -6 -3 -8 3 -5 15 9 98 -75 86 -87 -4 -3 1 -6 10 -6 9 0
17 -4 17 -10 0 -10 22 -38 77 -97 17 -19 33 -38 35 -42 2 -4 27 -25 56 -45 28
-21 52 -42 52 -47 0 -5 7 -9 15 -9 8 0 15 -5 15 -12 0 -6 3 -8 6 -5 4 4 15 -3
25 -15 12 -13 31 -21 56 -22 34 -1 38 2 41 25 3 24 -36 79 -56 79 -7 0 -56 32
-131 87 -14 10 -29 24 -35 32 -6 7 -26 29 -43 48 -18 19 -33 37 -33 39 0 6
-30 40 -76 87 -42 43 -144 185 -144 200 0 11 -42 46 -55 46 -5 0 -16 -7 -24
-16z"/>
<path d="M2994 5825 c-29 -45 0 -136 49 -154 24 -9 67 3 79 22 4 7 8 31 8 55
0 31 -4 42 -15 42 -8 0 -15 4 -15 8 0 5 -9 18 -20 30 -28 30 -65 28 -86 -3z"/>
<path d="M2849 5039 c-23 -23 -21 -56 3 -107 17 -33 53 -47 70 -26 7 9 21 24
31 35 24 27 22 39 -19 82 -40 42 -56 45 -85 16z"/>
<path d="M3336 3415 c-13 -10 -19 -30 -22 -77 -2 -35 -8 -110 -12 -168 -10
-129 -7 -275 7 -355 14 -84 37 -453 32 -515 -1 -14 0 -70 3 -125 3 -55 8 -164
10 -242 4 -157 13 -181 62 -169 41 11 53 56 43 156 -5 47 -11 204 -15 350 -4
187 -10 271 -19 285 -8 13 -16 81 -20 178 -4 86 -10 157 -14 157 -17 0 11 426
29 444 13 13 13 56 0 56 -5 0 -10 6 -10 14 0 27 -44 33 -74 11z"/>
<path d="M3970 1680 c-11 -11 -20 -27 -20 -36 0 -31 26 -42 121 -49 52 -4 105
-13 119 -20 14 -6 52 -18 85 -25 33 -7 64 -18 70 -24 5 -7 30 -21 55 -31 25
-10 59 -24 77 -31 17 -8 36 -14 42 -14 6 0 11 -4 11 -9 0 -5 14 -14 30 -21 17
-7 38 -26 46 -41 8 -16 23 -29 33 -29 10 0 22 -7 25 -16 23 -59 -20 -84 -143
-84 -107 0 -288 18 -318 32 -12 6 -40 11 -63 12 -22 1 -40 4 -40 7 0 9 -66 27
-147 40 -40 7 -73 16 -73 20 0 19 -41 49 -66 49 -42 0 -70 -52 -44 -83 6 -7
20 -27 33 -46 12 -19 27 -34 32 -34 6 1 16 -3 23 -9 7 -6 15 -9 18 -6 2 3 33
-1 67 -9 34 -8 82 -18 107 -22 25 -4 54 -12 65 -18 11 -5 42 -11 68 -12 27 -1
58 -6 68 -12 11 -5 98 -13 194 -16 147 -5 181 -4 217 10 78 30 118 82 118 154
0 37 -26 103 -41 103 -5 0 -9 6 -9 13 -1 12 -50 51 -114 91 -17 11 -35 26 -39
33 -5 7 -12 11 -18 8 -5 -4 -9 -2 -9 2 0 5 -20 15 -45 22 -25 7 -45 16 -45 20
0 4 -27 13 -60 20 -33 8 -60 18 -60 23 0 6 -9 8 -20 5 -11 -3 -20 -2 -20 3 0
4 -12 11 -27 14 -179 43 -272 47 -303 16z"/>
<path d="M2926 1595 c-27 -14 -53 -25 -58 -25 -4 0 -17 -8 -28 -17 -11 -10
-23 -16 -27 -15 -3 2 -9 0 -12 -5 -3 -4 -28 -24 -56 -43 -27 -19 -56 -40 -63
-47 -7 -7 -18 -13 -23 -13 -5 0 -9 -6 -9 -14 0 -8 -9 -18 -20 -21 -11 -3 -20
-11 -20 -17 0 -5 -10 -24 -22 -41 -35 -48 -48 -76 -54 -118 -8 -47 2 -89 20
-89 8 0 17 -12 20 -26 4 -14 15 -38 25 -53 10 -14 29 -43 42 -64 48 -75 171
-100 309 -62 36 9 81 21 101 26 19 5 71 33 115 64 43 30 117 78 164 107 47 29
104 72 128 96 38 37 43 47 40 80 -3 32 -7 37 -29 40 -21 2 -29 -2 -37 -25 -11
-32 -41 -66 -80 -90 -15 -10 -90 -58 -167 -108 -115 -75 -152 -94 -205 -105
-36 -7 -80 -20 -98 -27 -26 -11 -46 -11 -89 -3 -31 5 -58 10 -59 10 -7 0 -54
56 -54 63 0 5 -9 22 -20 37 -13 18 -23 52 -26 92 -6 63 -6 63 33 105 22 24 38
45 36 47 -6 6 67 66 80 66 7 0 18 9 24 19 7 11 26 22 43 26 16 4 30 10 30 14
0 4 27 20 59 34 33 15 62 31 66 37 3 5 17 10 30 10 24 0 35 17 35 56 0 22 -4
24 -47 24 -31 0 -65 -9 -97 -25z"/>
</g>
</svg>
