<?xml version="1.0" standalone="no"?>
<!DOCTYPE svg PUBLIC "-//W3C//DTD SVG 20010904//EN"
 "http://www.w3.org/TR/2001/REC-SVG-20010904/DTD/svg10.dtd">
<svg version="1.0" xmlns="http://www.w3.org/2000/svg"
 width="858.000000pt" height="1125.000000pt" viewBox="0 0 858.000000 1125.000000"
 preserveAspectRatio="xMidYMid meet">
<metadata>
Created by potrace 1.16, written by Peter Selinger 2001-2019
</metadata>
<g transform="translate(0.000000,1125.000000) scale(0.100000,-0.100000)"
fill="#000000" stroke="none">
<path d="M3820 10413 c-117 -6 -333 -34 -450 -59 -213 -45 -505 -150 -602
-216 -14 -10 -29 -18 -32 -18 -14 0 -153 -99 -202 -143 -28 -25 -61 -62 -75
-81 -36 -53 -50 -47 -48 20 5 109 44 209 114 290 42 48 26 56 -43 23 -130 -63
-234 -225 -246 -382 -2 -32 -6 -60 -9 -63 -3 -3 -29 2 -58 10 -69 21 -232 21
-313 0 -107 -27 -268 -127 -251 -154 3 -5 31 1 63 12 44 16 89 22 200 26 89 2
147 0 155 -6 6 -6 29 -13 50 -17 35 -7 58 -28 45 -41 -3 -2 -30 -9 -59 -14
-57 -10 -211 -58 -219 -69 -3 -3 -25 -17 -50 -30 -140 -76 -282 -246 -347
-416 -110 -289 -109 -693 2 -956 44 -105 167 -297 238 -371 7 -7 34 -39 61
-70 l48 -58 -30 0 c-16 0 -59 -9 -94 -20 -71 -22 -121 -66 -156 -136 -86 -171
30 -439 229 -534 55 -26 76 -30 144 -30 44 0 94 4 111 9 l31 9 7 -67 c3 -36 6
-89 6 -117 0 -129 66 -364 138 -487 179 -313 678 -552 1195 -574 l138 -6 -7
-76 c-3 -42 -8 -77 -9 -79 -1 -1 -56 3 -121 9 -151 15 -407 6 -489 -16 -116
-32 -164 -67 -318 -229 -80 -83 -175 -185 -211 -226 -63 -70 -113 -146 -103
-156 2 -3 40 35 83 83 243 270 397 426 452 456 108 58 285 77 536 57 137 -11
157 -15 152 -29 -29 -90 -45 -126 -54 -126 -17 0 -25 -13 -16 -27 5 -7 10 -40
11 -73 4 -68 29 -168 50 -203 8 -12 11 -27 8 -32 -3 -5 0 -7 7 -5 8 3 21 -8
31 -27 13 -25 36 -42 90 -67 40 -18 74 -31 77 -30 3 2 19 -4 34 -15 25 -16 44
-18 155 -13 78 3 147 11 181 22 30 9 67 17 83 17 15 1 27 6 27 13 0 7 12 21
28 31 15 10 33 23 40 31 7 7 21 18 31 25 32 23 70 102 76 158 9 83 -8 213 -34
248 -11 17 -21 37 -21 45 0 8 -7 20 -16 28 -14 11 -10 15 29 30 25 10 77 20
117 23 39 3 93 8 121 12 43 6 49 4 50 -12 0 -11 3 -14 6 -6 7 17 105 15 175
-4 32 -9 55 -20 52 -25 -3 -5 4 -9 15 -9 11 0 78 -25 149 -55 72 -30 137 -55
145 -55 9 0 21 -8 26 -17 6 -10 11 -15 11 -10 0 4 16 -2 37 -13 20 -10 39 -17
43 -15 4 3 13 -2 20 -10 7 -8 20 -15 29 -15 9 0 21 -4 27 -9 5 -5 38 -21 74
-34 133 -49 450 -181 450 -186 0 -3 -25 -32 -55 -65 -30 -32 -55 -62 -55 -66
0 -5 -10 -10 -22 -12 -16 -2 -24 -11 -26 -28 -3 -23 -60 -116 -89 -148 -7 -7
-13 -21 -13 -31 0 -9 -4 -21 -8 -26 -5 -6 -14 -41 -21 -80 -7 -38 -19 -94 -27
-122 -21 -77 -42 -73 -204 34 -91 60 -158 118 -227 196 -30 35 -33 36 -43 18
-5 -11 -13 -66 -16 -123 -6 -93 5 -213 33 -358 3 -14 5 -47 6 -75 0 -27 5 -53
11 -57 6 -4 4 -13 -5 -24 -12 -16 -12 -17 2 -12 14 5 18 -4 24 -55 3 -34 15
-111 25 -172 10 -60 21 -126 24 -145 3 -19 17 -98 31 -175 39 -205 38 -202 26
-210 -7 -4 -17 -2 -24 3 -16 13 -124 30 -262 42 -137 12 -324 35 -390 48 -33
7 -52 7 -56 0 -4 -6 -28 -7 -60 -4 -30 4 -199 8 -376 11 -178 2 -327 7 -333
10 -5 3 -10 1 -10 -4 0 -6 -21 -11 -50 -11 -36 0 -52 5 -59 18 -10 16 -10 16
-11 0 0 -10 -7 -18 -15 -18 -8 0 -15 7 -15 16 0 8 -5 12 -10 9 -6 -4 -8 -10
-5 -15 6 -10 -252 -14 -289 -4 -14 3 -26 12 -26 18 0 7 -19 26 -43 43 -24 16
-53 49 -66 73 -12 23 -35 59 -51 79 -101 125 -180 252 -180 290 0 14 -22 70
-49 125 -26 56 -54 122 -61 149 -7 26 -16 49 -20 52 -7 5 -71 -133 -100 -218
-18 -55 -37 -152 -32 -170 1 -4 -2 -16 -7 -26 -6 -9 -29 -130 -51 -267 -23
-137 -47 -252 -53 -256 -5 -3 -35 -9 -66 -13 -31 -4 -74 -13 -96 -21 -22 -7
-62 -14 -88 -14 -26 0 -85 -9 -130 -19 -166 -39 -183 -43 -238 -50 -67 -10
-130 -32 -126 -44 5 -15 52 -8 262 43 261 63 655 126 900 145 39 3 131 10 205
16 74 7 178 13 230 14 702 16 802 17 919 7 69 -7 198 -17 286 -22 88 -6 198
-15 245 -20 274 -31 446 -54 530 -70 52 -10 129 -24 170 -30 263 -42 839 -204
1025 -289 22 -10 63 -27 90 -37 122 -46 380 -190 515 -288 124 -90 263 -249
312 -354 64 -141 61 -309 -7 -443 -45 -90 -78 -134 -164 -220 -151 -150 -367
-280 -680 -410 -97 -40 -446 -154 -561 -183 -299 -75 -717 -148 -1040 -181
-443 -44 -481 -46 -1001 -41 -584 5 -778 17 -1194 72 -232 30 -343 47 -390 59
-30 8 -108 24 -172 35 -402 71 -980 269 -1289 443 -367 206 -590 485 -578 722
4 72 20 144 46 203 27 64 6 89 -24 29 -56 -112 -61 -298 -13 -467 9 -30 29
-118 45 -195 16 -77 37 -160 46 -185 13 -34 19 -90 23 -232 3 -102 9 -189 13
-193 21 -21 28 16 28 148 0 152 -10 213 -58 374 -51 167 -83 286 -78 290 2 2
11 -17 20 -43 23 -67 113 -182 204 -260 286 -245 763 -458 1353 -603 112 -28
215 -52 229 -55 14 -2 81 -16 150 -30 197 -41 621 -98 855 -116 626 -47 1429
-34 1915 31 85 11 187 25 225 29 188 24 610 113 800 170 77 23 156 46 175 51
109 27 433 159 575 234 224 118 435 288 524 421 l30 45 -5 -163 c-3 -90 -9
-176 -14 -193 -9 -31 -30 -214 -30 -266 0 -16 5 -29 11 -29 5 0 7 5 4 10 -9
14 13 227 30 291 10 35 15 105 15 197 0 109 4 152 16 180 22 51 42 137 49 213
19 184 -100 416 -295 577 -303 248 -728 438 -1315 586 -137 35 -308 74 -380
86 -71 13 -164 31 -205 39 l-74 17 -9 44 c-4 25 -17 92 -28 150 -12 58 -23
114 -24 125 -2 11 -20 118 -40 238 -21 120 -35 221 -32 224 4 3 28 -5 54 -17
26 -13 73 -34 103 -47 30 -14 75 -34 100 -45 25 -12 64 -29 88 -39 25 -11 46
-28 51 -42 25 -66 216 -186 310 -195 48 -4 51 -3 94 41 25 25 55 63 66 85 11
23 25 44 31 47 6 4 32 0 58 -9 286 -93 409 -78 647 78 197 130 506 455 640
674 6 9 25 40 43 70 60 98 128 236 169 342 41 106 118 343 135 414 15 65 24
75 61 69 19 -3 59 0 89 6 64 14 84 39 75 95 -5 31 -4 35 11 28 9 -5 46 -7 82
-5 36 1 75 3 87 3 43 0 163 30 201 49 20 10 47 30 59 43 26 28 54 99 60 154 4
35 0 46 -26 76 -56 64 -141 88 -366 103 l-101 7 4 66 c5 89 -20 144 -102 227
-129 129 -308 185 -593 185 -275 0 -434 -86 -615 -330 -30 -42 -108 -192 -108
-210 0 -9 -80 -11 -367 -5 -203 3 -372 10 -377 15 -5 5 12 35 38 70 26 34 45
68 42 76 -3 8 -19 17 -36 20 -30 6 -33 13 -42 69 -3 17 -10 20 -51 17 -42 -3
-47 -1 -53 22 -3 13 -16 34 -28 45 -22 20 -24 21 -70 5 l-48 -16 -34 36 c-23
24 -39 34 -51 29 -12 -5 -15 -2 -10 9 17 45 45 169 53 236 6 49 8 53 28 48
130 -38 297 13 398 120 107 116 150 324 90 440 -37 73 -143 144 -214 144 -23
0 -23 12 2 35 27 24 110 147 154 229 156 286 198 657 106 936 -23 71 -29 108
-34 230 -8 216 -52 385 -149 575 -94 184 -287 413 -452 536 -300 225 -676 379
-1080 443 -92 15 -403 38 -450 34 -11 -1 -49 -3 -85 -5z m387 -53 c141 -11
326 -46 476 -89 104 -31 222 -73 254 -91 10 -5 41 -19 68 -30 28 -11 57 -24
65 -29 8 -4 44 -23 80 -41 74 -38 189 -108 208 -127 7 -7 18 -13 23 -13 6 0 7
-4 4 -10 -3 -5 0 -10 8 -10 8 0 20 -7 27 -15 7 -8 21 -15 31 -15 11 0 19 -6
19 -13 0 -8 50 -62 111 -120 104 -100 189 -202 189 -230 1 -15 35 -57 47 -57
6 0 8 -20 6 -45 -3 -28 0 -45 6 -45 6 0 11 10 12 23 0 15 8 5 25 -32 17 -37
21 -57 13 -61 -7 -5 -6 -9 3 -13 8 -2 23 -31 33 -63 11 -33 22 -63 26 -69 4
-5 10 -29 14 -53 4 -24 12 -45 18 -48 7 -2 11 -25 10 -57 -3 -121 33 -425 46
-386 6 18 40 -129 46 -201 3 -30 7 -73 10 -96 8 -71 -13 -256 -39 -354 -42
-156 -123 -350 -146 -350 -6 0 -9 -3 -8 -7 2 -9 -21 -55 -31 -63 -4 -3 -23
-28 -43 -56 -39 -53 -165 -177 -233 -230 -39 -29 -81 -35 -72 -10 3 7 1 64 -5
127 -5 63 -10 121 -10 129 0 22 -38 248 -49 300 -6 25 -12 56 -15 70 -2 14
-12 74 -22 134 -28 158 -25 368 8 451 12 33 27 63 33 66 5 4 27 4 49 1 22 -2
63 0 91 6 29 6 81 16 117 22 36 6 72 12 80 14 8 2 16 12 18 24 3 20 0 21 -140
22 -203 1 -278 14 -445 81 -57 23 -103 45 -103 50 0 5 23 9 50 9 56 0 67 17
23 38 -15 6 -30 12 -34 12 -10 0 -109 61 -150 93 -20 15 -41 27 -47 27 -5 0
-22 14 -36 31 -14 17 -26 28 -26 25 0 -4 -22 8 -49 26 -26 18 -57 38 -67 44
-11 6 40 1 111 -12 134 -25 287 -72 341 -105 32 -20 64 -25 64 -11 0 10 -83
90 -137 131 -41 31 -70 34 -59 5 3 -8 0 -11 -10 -7 -10 4 -12 9 -4 18 13 16 3
45 -16 45 -10 0 -14 15 -14 55 0 30 -4 55 -10 55 -5 0 -10 -21 -10 -46 0 -39
-2 -45 -14 -35 -11 9 -15 9 -19 -1 -4 -8 -6 -7 -6 5 -1 9 -8 17 -16 17 -8 0
-15 5 -15 11 0 6 -9 9 -20 6 -11 -3 -20 -1 -20 5 0 6 -13 8 -29 6 -17 -2 -29
0 -28 6 1 5 -16 13 -38 18 -22 5 -66 16 -97 24 -135 35 -223 44 -438 44 -207
-1 -248 -4 -445 -31 -68 -10 -84 -14 -65 -20 14 -4 -13 -5 -60 -3 -55 4 -121
0 -185 -11 -55 -9 -118 -18 -140 -21 l-40 -6 25 21 c14 11 30 21 36 21 15 0
59 49 51 56 -7 8 -258 -11 -353 -26 -86 -14 -140 -12 -289 9 -165 24 -194 30
-227 42 l-26 11 29 31 c39 41 35 63 -11 59 l-35 -4 40 28 c157 106 460 226
630 249 74 10 125 24 125 35 0 16 -245 11 -335 -6 -44 -8 -89 -16 -100 -18
-35 -6 -149 -36 -177 -47 -14 -6 -42 -14 -61 -19 l-36 -8 22 34 c12 18 30 35
40 38 23 6 22 33 -2 45 -21 12 -89 -4 -106 -24 -17 -21 -85 -57 -85 -45 0 42
89 183 174 275 31 33 56 63 56 68 0 4 7 7 15 7 8 0 15 5 15 10 0 6 -7 10 -15
10 -8 0 -15 5 -15 10 0 6 7 10 15 10 9 0 18 6 21 13 3 9 16 12 34 9 17 -2 30
0 30 6 0 6 9 14 20 17 11 3 26 12 33 20 43 43 270 134 397 160 19 4 41 12 49
18 7 7 37 13 65 14 28 1 62 5 76 8 14 3 48 9 75 12 28 3 82 8 120 13 102 11
381 11 522 0z m-2182 -890 c-10 -53 -31 -86 -64 -99 -36 -15 -84 -11 -92 8 -3
9 -13 1 -29 -25 -31 -50 -35 -58 -22 -50 6 4 8 -2 4 -16 -5 -19 -7 -20 -10 -5
-5 22 -15 22 -37 -3 -10 -11 -25 -20 -34 -21 -10 0 -12 -2 -3 -6 6 -2 10 -8 7
-13 -6 -11 15 -60 26 -60 5 0 13 9 19 20 6 11 20 20 30 20 11 0 20 5 20 10 0
6 7 10 16 10 8 0 12 4 9 10 -3 6 1 7 9 4 9 -3 16 -1 16 6 0 6 4 9 9 6 4 -3 16
3 26 14 10 11 24 20 32 20 8 0 12 4 8 9 -3 5 0 13 6 17 8 5 9 3 4 -6 -9 -14
22 -7 68 17 29 15 36 4 12 -21 -8 -8 -15 -19 -15 -25 0 -6 -13 -24 -29 -40
-26 -27 -27 -31 -13 -45 15 -15 13 -16 -23 -17 -37 0 -38 -1 -15 -10 20 -8 22
-12 10 -20 -12 -7 -12 -11 -3 -17 10 -6 10 -22 3 -67 -5 -33 -10 -61 -10 -62
0 -13 20 4 40 34 30 45 78 93 92 93 5 0 7 12 3 29 -6 28 -4 30 27 33 20 2 32
8 31 16 -2 6 4 12 13 12 10 0 14 6 10 15 -3 8 -2 15 3 15 5 0 11 14 15 30 3
17 10 30 16 30 5 0 10 -13 10 -30 0 -21 5 -30 16 -30 13 0 14 -3 4 -15 -18
-22 -2 -40 19 -21 19 18 31 12 31 -15 0 -10 7 -25 16 -33 8 -9 13 -16 10 -16
-3 0 5 -24 17 -52 13 -29 29 -75 37 -103 7 -27 17 -55 21 -60 4 -6 11 -35 14
-65 3 -30 8 -66 11 -80 l4 -25 -21 25 c-15 16 -23 21 -26 13 -7 -18 -33 -16
-33 2 0 9 -9 25 -20 37 -11 12 -23 37 -26 56 -4 18 -13 36 -21 39 -22 9 -26
-4 -9 -29 9 -12 16 -39 16 -59 0 -46 8 -69 25 -69 22 0 52 -90 80 -235 23
-122 26 -158 23 -285 -3 -84 -9 -154 -16 -167 -26 -50 -30 -60 -37 -103 -6
-37 -131 -374 -165 -445 -5 -11 -28 -64 -50 -119 -21 -54 -42 -101 -45 -104
-8 -8 -16 4 -18 27 -2 25 -17 28 -17 4 -1 -16 -2 -16 -16 2 -8 11 -29 38 -46
59 -18 22 -55 69 -83 105 -27 36 -55 71 -62 76 -6 6 -35 39 -64 75 -30 36 -66
79 -80 95 -15 17 -44 53 -65 80 -20 28 -41 52 -46 53 -4 2 -8 8 -8 13 0 5 -16
33 -35 62 -19 28 -35 57 -35 63 0 6 -8 22 -18 35 -30 39 -81 201 -98 311 -18
118 -13 361 10 488 18 99 63 222 87 239 10 7 19 20 19 27 0 8 9 14 20 14 11 0
20 5 20 10 0 6 -4 10 -10 10 -5 0 -10 5 -10 11 0 5 5 7 10 4 6 -3 13 2 16 12
22 68 100 163 191 230 37 27 83 40 83 23 0 -10 3 -10 15 0 8 6 34 13 57 13 47
2 58 10 58 45 0 13 4 21 8 18 4 -2 14 -1 22 4 20 13 33 -25 25 -70z m2235
-259 c0 -5 -26 -12 -57 -16 -32 -3 -85 -10 -118 -15 -33 -6 -86 -12 -118 -16
-43 -4 -57 -9 -53 -19 2 -7 -4 -15 -14 -18 -13 -3 -17 -11 -13 -26 4 -18 14
-21 82 -24 42 -2 -9 -3 -114 -1 -104 2 -223 6 -263 9 -40 3 -81 1 -91 -5 -40
-21 -284 -37 -535 -34 -103 1 -192 6 -196 11 -7 7 283 9 315 3 45 -10 355 18
355 32 0 4 23 8 52 8 28 0 77 5 107 10 31 6 81 14 111 19 30 5 85 16 121 24
36 9 108 20 160 27 52 6 126 17 164 24 90 17 105 18 105 7z m-1663 -175 c73
-37 195 -74 338 -102 76 -15 154 -18 510 -21 683 -4 786 -11 1020 -69 123 -30
187 -52 335 -113 256 -106 341 -137 476 -171 l142 -36 -16 -29 c-56 -107 -57
-286 -2 -575 21 -111 69 -401 76 -460 2 -19 4 -206 4 -415 -1 -349 -2 -385
-21 -447 -22 -75 -57 -156 -91 -210 -21 -34 -25 -35 -42 -22 -28 20 -32 18
-73 -21 -20 -19 -40 -35 -45 -35 -4 0 -25 9 -45 20 -39 21 -63 25 -63 13 -1
-5 -13 -23 -29 -41 -26 -30 -34 -33 -96 -38 -80 -5 -85 -8 -85 -38 0 -28 52
-133 81 -164 11 -13 19 -25 18 -27 -15 -14 -214 -100 -268 -116 -36 -10 -80
-24 -96 -29 -33 -10 -182 -38 -255 -47 -25 -3 -52 -11 -60 -18 -8 -7 -37 -26
-65 -42 -165 -97 -385 -109 -562 -31 -54 24 -132 74 -149 97 -9 12 -38 14
-160 12 -150 -2 -316 18 -404 50 -19 7 -48 17 -65 23 -111 40 -249 131 -346
229 -59 60 -139 161 -139 176 0 6 -4 11 -8 11 -7 0 -28 42 -91 182 -39 87 -54
214 -49 428 5 189 6 199 42 325 83 285 92 348 75 498 -18 163 -16 190 19 244
47 73 120 231 138 298 28 106 33 137 40 295 7 171 -1 253 -40 375 -13 41 -22
75 -20 75 1 0 34 -15 71 -34z m-740 -1489 c17 -23 42 -53 54 -66 l23 -24 -30
7 c-16 4 -58 10 -94 13 -57 4 -69 2 -99 -19 -58 -39 -76 -72 -75 -136 0 -57
11 -88 59 -167 29 -47 31 -65 8 -65 -19 0 -123 60 -123 71 0 4 -7 14 -15 23
-43 42 -55 209 -20 274 40 77 133 131 225 131 53 0 56 -1 87 -42z m4034 -213
c84 -42 123 -121 116 -230 -2 -38 -7 -80 -10 -93 -10 -39 -55 -101 -74 -101
-4 0 -28 -14 -52 -30 -24 -17 -48 -30 -54 -30 -18 0 3 60 45 126 65 104 57
182 -25 248 -33 26 -47 31 -95 31 -32 0 -72 -4 -91 -9 l-34 -8 37 33 c21 18
52 46 69 62 29 27 36 29 83 24 29 -3 67 -13 85 -23z m1624 -828 c22 -8 56 -15
76 -16 88 -1 271 -128 319 -220 41 -80 31 -181 -20 -217 -21 -15 -65 -92 -86
-152 -10 -26 -10 -38 -1 -52 7 -11 15 -19 19 -19 15 0 89 -133 86 -155 -1 -13
5 -32 15 -43 15 -16 16 -25 8 -41 -16 -30 -52 -51 -85 -51 l-30 0 28 29 28 29
-24 16 c-14 9 -36 15 -49 13 -13 -2 -36 -1 -51 4 -16 4 -28 4 -28 -1 0 -12 27
-20 65 -20 43 0 53 -16 26 -44 -21 -20 -22 -21 -52 -3 -17 9 -37 17 -44 17 -8
0 -30 14 -48 30 -19 17 -39 30 -43 30 -13 1 -64 70 -64 87 0 7 7 13 15 13 8 0
15 -4 15 -10 0 -5 5 -10 10 -10 16 0 12 18 -10 40 -11 11 -20 27 -20 35 0 8
-4 15 -10 15 -5 0 -10 -15 -10 -32 l-1 -33 -19 24 c-14 16 -20 38 -20 72 0 46
4 61 37 137 8 19 12 36 9 39 -13 13 -36 -10 -60 -61 -49 -103 -25 -236 55
-299 19 -14 41 -32 49 -39 9 -7 32 -24 53 -38 42 -28 43 -30 22 -70 -27 -52
-59 -61 -161 -46 -48 7 -90 18 -92 24 -2 7 -9 12 -15 12 -31 0 -146 116 -177
177 -16 31 -18 47 -11 61 5 10 9 49 7 87 -2 60 2 77 31 138 18 38 33 76 33 85
-1 29 -59 -46 -97 -125 -28 -57 -35 -85 -35 -130 0 -59 35 -173 53 -173 5 0 9
-7 9 -15 0 -8 5 -15 10 -15 6 0 15 -10 21 -23 5 -12 26 -33 46 -47 35 -24 36
-25 12 -31 -13 -4 -39 -7 -57 -8 -38 -1 -185 57 -177 70 10 15 -19 49 -42 49
-28 0 -44 29 -41 72 2 24 -1 33 -12 33 -49 0 -58 183 -15 296 15 38 25 76 23
86 -3 15 -10 12 -43 -20 -130 -123 -135 -129 -160 -213 -14 -44 -25 -88 -25
-97 0 -9 -4 -17 -8 -17 -5 0 -14 -12 -21 -27 -9 -21 -9 -28 0 -34 10 -6 10
-16 -1 -50 -23 -68 -56 -89 -117 -73 -21 6 -30 21 -44 84 -41 177 -37 280 16
403 21 48 41 87 45 87 4 0 13 14 20 30 7 17 17 30 23 30 6 0 8 3 4 6 -3 3 5
17 19 31 13 13 24 27 24 31 0 11 111 124 144 147 15 11 33 25 40 31 21 20 121
61 176 72 30 7 64 14 75 16 45 11 321 -3 360 -18z m-2009 -183 l31 -37 43 19
c49 22 68 15 84 -33 16 -46 29 -56 56 -42 29 15 52 5 50 -22 -4 -43 0 -48 31
-48 l30 0 -32 -45 c-18 -25 -35 -45 -38 -45 -3 0 -32 12 -64 27 l-58 28 5 63
c3 34 1 62 -3 62 -17 0 -31 -28 -37 -74 -7 -45 -7 -46 -43 -46 -77 0 -81 5
-81 81 0 102 -24 91 -36 -17 l-7 -54 -57 0 -57 0 -6 56 c-10 97 -28 90 -42
-15 -2 -18 -5 -34 -7 -36 -2 -1 -24 -5 -50 -7 l-46 -5 -17 43 c-9 24 -23 44
-31 44 -16 0 -16 -2 -5 -52 8 -34 6 -41 -25 -73 -19 -21 -31 -42 -28 -50 4 -9
0 -15 -9 -15 -26 0 -127 151 -127 189 0 11 30 14 105 11 38 -1 41 1 53 34 15
40 43 48 78 21 32 -24 63 -18 99 21 36 37 42 37 83 1 l22 -21 32 30 c18 16 34
32 36 37 9 18 39 4 68 -30z m-461 -422 c18 -59 83 -80 349 -116 160 -22 219
-25 264 -13 87 21 171 25 422 17 146 -5 302 -11 346 -15 l82 -6 12 -76 c21
-136 56 -182 137 -182 47 0 93 48 117 123 l17 55 37 -9 c20 -5 52 -9 69 -9 26
0 36 -6 48 -30 20 -38 39 -63 88 -109 l39 -36 -24 -18 c-12 -11 -81 -72 -151
-136 -70 -64 -132 -117 -136 -119 -9 -3 -203 -195 -263 -260 -20 -22 -49 -58
-63 -81 l-27 -40 -37 16 c-20 9 -56 23 -81 32 -40 14 -45 19 -42 43 5 46 -23
84 -91 122 -34 19 -75 37 -92 41 -83 16 -116 17 -144 5 -28 -11 -42 -8 -153
35 -68 27 -141 56 -163 65 -22 10 -58 23 -80 31 -22 7 -45 17 -51 21 -6 4 -28
14 -50 22 -21 8 -68 27 -104 44 -67 31 -140 62 -295 127 -49 21 -103 43 -120
51 -104 46 -256 75 -370 69 -97 -4 -230 -19 -268 -30 l-29 -8 6 54 c3 30 5 57
6 60 0 4 19 19 42 34 35 24 57 29 137 35 53 4 103 10 111 13 8 4 33 8 55 11
40 4 226 64 235 76 3 4 24 14 47 23 23 9 66 32 95 51 62 41 65 42 73 17z
m-835 -360 c0 -26 11 -57 35 -97 50 -83 65 -141 61 -232 -4 -91 -20 -131 -76
-195 -67 -76 -170 -118 -325 -132 -119 -12 -252 24 -339 90 -18 14 -48 53 -67
88 -30 56 -34 71 -37 162 -2 64 2 116 10 145 l14 44 94 -3 c122 -3 267 14 354
41 65 20 229 98 251 119 18 17 25 9 25 -30z m3464 -162 c-20 -63 -40 -121 -45
-131 -4 -9 -22 -54 -40 -100 -52 -136 -124 -294 -138 -302 -5 -4 -15 -23 -22
-44 -15 -47 -48 -94 -60 -87 -5 4 -9 -4 -9 -16 0 -12 -16 -48 -36 -81 -30 -49
-39 -57 -46 -44 -14 25 -31 19 -24 -9 4 -14 2 -25 -4 -25 -5 0 -10 -9 -10 -19
0 -11 -6 -26 -13 -33 -7 -7 -30 -35 -50 -61 -20 -26 -43 -54 -50 -61 -7 -8
-26 -28 -41 -46 -15 -19 -41 -36 -59 -39 -27 -6 -32 -11 -33 -36 0 -25 -4 -30
-23 -27 -23 2 -51 -18 -51 -37 0 -5 -7 -14 -17 -19 -10 -6 -14 -16 -10 -26 4
-9 2 -16 -3 -16 -6 0 -18 -8 -28 -17 -44 -42 -74 -63 -82 -58 -16 10 -62 -18
-57 -36 3 -10 -4 -21 -17 -28 -11 -6 -34 -20 -51 -31 -76 -51 -215 -102 -215
-79 0 5 -13 9 -30 9 -28 0 -40 -13 -22 -23 4 -2 1 -2 -6 0 -8 1 -28 3 -45 3
-27 0 -32 4 -32 25 0 14 6 25 13 25 17 0 15 29 -3 36 -8 4 -15 12 -15 20 0 8
-10 14 -25 14 -14 0 -25 6 -26 13 0 9 -2 9 -5 0 -3 -7 -12 -9 -20 -6 -8 3 -14
0 -14 -6 0 -6 -7 -11 -15 -11 -8 0 -16 -6 -16 -12 -1 -7 -3 -23 -4 -36 -3 -31
-10 -36 -28 -17 -9 8 -23 15 -31 15 -9 0 -16 5 -16 11 0 7 -9 9 -24 5 -26 -6
-66 21 -59 42 7 19 -25 14 -36 -5 -10 -17 -12 -17 -41 0 -18 9 -39 17 -47 17
-13 0 -13 3 -3 15 10 12 9 16 -4 21 -9 3 -16 11 -16 17 0 6 -7 18 -15 27 -18
20 -26 143 -13 205 7 33 15 45 31 47 20 4 20 5 -8 18 -16 8 -31 15 -33 16 -5
3 26 120 43 159 9 22 18 45 19 50 1 6 10 27 19 49 9 21 17 42 17 46 0 4 7 13
15 20 9 7 14 15 11 17 -2 3 7 21 20 41 69 104 138 176 162 169 15 -4 138 -54
225 -90 18 -8 25 -17 21 -27 -28 -65 -43 -201 -25 -228 9 -15 8 -19 34 98 9
36 23 87 32 115 22 62 111 182 190 255 32 30 91 85 130 121 38 37 106 99 150
137 44 39 109 97 145 130 36 33 69 57 75 53 13 -10 92 -30 130 -33 17 -1 55 4
86 11 51 12 58 12 96 -8 48 -24 147 -38 165 -24 7 6 25 13 40 17 14 3 37 19
50 35 13 15 24 27 26 26 1 -1 -14 -53 -34 -116z m-1578 -328 c102 -48 124 -67
124 -106 l0 -34 -41 14 c-23 8 -47 15 -54 15 -20 0 -121 -103 -155 -157 -134
-215 -203 -461 -204 -718 0 -136 5 -179 29 -224 35 -68 75 -63 136 15 40 52
59 66 59 44 0 -19 -37 -84 -69 -120 -42 -49 -91 -48 -192 2 -107 53 -164 107
-184 174 -19 65 -21 276 -5 380 26 160 94 382 148 479 54 95 137 198 180 222
17 9 32 21 32 24 0 14 55 28 92 25 21 -2 67 -18 104 -35z"/>
<path d="M4375 8191 c-6 -11 9 -22 73 -51 89 -40 57 -40 -55 1 -59 22 -114 37
-122 34 -23 -9 -4 -19 144 -74 238 -90 397 -162 473 -215 40 -28 87 -59 105
-70 18 -10 44 -27 59 -37 23 -16 27 -16 32 -3 4 10 13 13 26 9 38 -12 20 15
-24 37 -25 12 -47 28 -49 37 -2 9 -76 51 -163 95 -234 116 -333 166 -391 198
-69 37 -101 49 -108 39z"/>
<path d="M3370 8124 c-63 -13 -168 -33 -233 -44 -65 -11 -126 -25 -135 -30 -9
-5 -58 -18 -107 -30 -101 -24 -121 -32 -111 -49 8 -13 66 -14 118 -2 23 5 40
5 47 -2 6 -6 60 5 163 36 145 44 407 107 442 107 9 0 16 5 16 10 0 6 -7 10
-15 10 -8 0 -15 5 -15 10 0 15 -43 11 -170 -16z"/>
<path d="M4481 7810 c-24 -5 -54 -18 -65 -29 -12 -11 -53 -30 -91 -42 -121
-37 -165 -67 -165 -113 0 -9 5 -16 10 -16 6 0 10 9 10 19 0 29 45 56 135 80
44 12 97 33 117 47 29 21 53 27 116 31 70 5 88 2 150 -21 56 -22 75 -35 98
-67 37 -53 146 -132 283 -203 61 -32 111 -62 111 -67 0 -5 -35 -6 -78 -2 -94
7 -197 -9 -267 -42 -113 -54 -248 -42 -409 35 -113 54 -216 138 -216 177 0 12
-4 25 -10 28 -17 10 -11 -45 8 -77 29 -50 144 -127 255 -171 96 -38 108 -41
207 -41 101 -1 108 0 170 33 64 34 67 35 215 39 l150 4 68 -32 c37 -17 71 -29
75 -26 4 2 26 1 49 -3 45 -9 75 1 57 19 -5 5 -30 13 -54 16 -64 9 -144 39
-192 72 -24 15 -86 50 -138 76 -114 58 -188 110 -255 181 -79 83 -218 121
-344 95z"/>
<path d="M3028 7779 c-37 -13 -79 -41 -125 -81 -89 -79 -296 -178 -373 -178
-37 0 -75 -31 -67 -55 5 -13 13 -15 30 -10 90 28 472 22 612 -10 113 -27 281
-31 349 -10 79 25 128 69 129 118 0 20 5 37 9 37 36 0 -46 90 -122 133 -62 35
-199 69 -300 73 -67 3 -97 -1 -142 -17z m329 -33 c69 -19 129 -48 175 -86 34
-28 36 -33 31 -72 -8 -61 -15 -71 -73 -102 -52 -28 -53 -28 -194 -23 -79 2
-171 12 -209 21 -37 9 -140 20 -228 25 -88 5 -163 11 -166 14 -3 3 32 24 79
45 59 27 104 57 151 101 94 89 134 103 272 97 61 -3 134 -12 162 -20z"/>
<path d="M3143 7690 c-67 -40 -72 -100 -14 -153 44 -39 90 -52 153 -44 45 6
98 49 98 79 0 33 -28 75 -72 107 -51 38 -115 42 -165 11z"/>
<path d="M4512 7678 c-74 -46 -80 -142 -12 -210 35 -35 42 -38 93 -38 73 0
102 12 128 52 28 46 20 107 -23 161 -18 23 -37 45 -43 49 -21 15 -110 7 -143
-14z"/>
<path d="M3105 6830 c4 -6 19 -17 34 -24 21 -11 34 -34 60 -103 54 -144 85
-202 166 -318 89 -128 135 -178 226 -246 125 -93 233 -129 390 -129 185 0 319
60 468 210 79 79 131 150 231 317 l73 122 49 6 c73 10 57 25 -27 25 -41 0 -78
0 -82 1 -4 0 -9 -4 -11 -10 -2 -6 5 -11 15 -11 14 -1 12 -6 -14 -29 -83 -77
-284 -166 -430 -193 -109 -20 -372 -17 -468 5 -213 49 -392 143 -511 270 -62
65 -66 72 -46 75 32 5 22 25 -14 29 -16 1 -48 5 -72 8 -27 3 -41 1 -37 -5z
m272 -243 c68 -45 293 -143 351 -153 15 -2 52 -10 82 -16 127 -27 467 -9 560
29 14 5 50 18 80 29 30 10 70 27 88 36 18 10 39 18 46 18 7 0 23 9 36 20 30
26 44 25 29 -1 -34 -64 -161 -245 -200 -284 -28 -29 -29 -29 -58 -12 -36 21
-90 22 -137 2 -82 -34 -317 -43 -545 -19 -46 5 -64 2 -99 -16 l-43 -22 -54 54
c-102 101 -191 237 -253 387 l-30 75 37 -40 c21 -22 70 -61 110 -87z"/>
<path d="M280 3458 c-87 -219 -150 -395 -150 -417 0 -44 117 -115 213 -129 54
-9 76 -18 112 -47 39 -32 55 -38 116 -45 63 -7 75 -12 108 -43 71 -70 411
-217 850 -369 127 -44 135 -43 238 13 l53 28 92 -44 c63 -30 100 -42 116 -38
19 4 37 -8 100 -69 77 -74 125 -102 200 -112 79 -11 152 42 152 112 l0 35 -23
-21 c-13 -12 -33 -22 -44 -22 -35 0 -81 47 -100 102 -27 77 -80 131 -150 153
-32 10 -65 24 -73 31 -8 7 -54 31 -101 53 l-85 41 -24 76 c-23 77 -60 134 -86
134 -30 0 -93 -73 -133 -153 -50 -103 -74 -194 -69 -269 2 -32 3 -58 2 -58
-10 0 -247 86 -386 139 -288 110 -462 192 -517 244 -43 40 -52 44 -115 50 -59
6 -75 12 -120 46 -41 32 -63 41 -111 46 -65 8 -139 42 -179 84 l-25 26 34 101
c40 121 174 465 185 478 8 8 123 -73 132 -91 1 -5 27 -19 57 -33 30 -14 72
-40 94 -57 22 -19 67 -41 105 -53 37 -10 84 -33 104 -50 20 -17 51 -33 70 -37
18 -3 122 -51 232 -105 109 -55 200 -97 203 -95 7 8 -389 204 -427 212 -19 4
-55 22 -80 40 -25 18 -71 40 -103 48 -34 9 -72 28 -93 46 -19 17 -57 42 -84
56 -28 14 -85 52 -127 85 -43 33 -81 60 -85 60 -3 0 -39 -82 -78 -182z m1556
-630 c10 -18 25 -60 35 -92 18 -59 18 -60 -2 -73 -32 -23 -62 -93 -65 -153
l-2 -55 -63 -32 c-85 -42 -110 -45 -127 -13 -41 77 54 358 146 430 36 29 59
25 78 -12z m304 -289 c70 -15 116 -57 156 -145 18 -39 44 -81 59 -93 30 -23
84 -28 103 -9 26 26 11 -22 -16 -53 -24 -27 -37 -33 -84 -37 -44 -3 -63 0 -99
19 -24 13 -47 22 -51 21 -4 -1 -37 30 -74 68 -37 38 -80 74 -96 81 -15 6 -28
19 -28 28 2 44 48 131 71 131 4 0 31 -5 59 -11z"/>
<path d="M518 3301 c-10 -10 -18 -25 -18 -33 0 -8 -9 -27 -21 -42 -11 -14 -25
-43 -31 -64 -12 -43 -26 -64 -39 -56 -5 3 -9 1 -9 -4 0 -4 24 -16 53 -25 29
-9 73 -30 98 -46 24 -16 157 -81 294 -145 138 -64 320 -154 405 -200 145 -78
156 -82 166 -64 5 10 12 17 15 14 2 -2 5 11 6 30 1 20 18 66 37 104 20 38 36
73 36 78 0 5 -46 30 -102 54 -217 96 -471 216 -665 315 -112 57 -204 103 -205
102 -2 0 -11 -8 -20 -18z"/>
<path d="M4956 2810 c11 -4 47 -11 80 -15 100 -12 335 -72 455 -116 193 -71
390 -176 597 -317 140 -97 237 -194 276 -276 15 -31 30 -56 35 -56 21 0 -59
131 -118 192 -94 101 -399 302 -591 390 -205 94 -431 163 -639 194 -106 16
-126 17 -95 4z"/>
</g>
</svg>
