<?xml version="1.0" standalone="no"?>
<!DOCTYPE svg PUBLIC "-//W3C//DTD SVG 20010904//EN"
 "http://www.w3.org/TR/2001/REC-SVG-20010904/DTD/svg10.dtd">
<svg version="1.0" xmlns="http://www.w3.org/2000/svg"
 width="939.000000pt" height="1127.000000pt" viewBox="0 0 939.000000 1127.000000"
 preserveAspectRatio="xMidYMid meet">
<metadata>
Created by potrace 1.16, written by Peter Selinger 2001-2019
</metadata>
<g transform="translate(0.000000,1127.000000) scale(0.100000,-0.100000)"
fill="#000000" stroke="none">
<path d="M4011 10380 c-57 -6 -78 -13 -90 -28 -17 -22 -73 -40 -137 -43 -36
-2 -40 -5 -36 -23 4 -15 2 -18 -12 -13 -11 4 -15 3 -10 -4 4 -8 -6 -10 -33 -8
-30 3 -39 1 -36 -8 3 -7 0 -13 -5 -13 -15 0 -26 -68 -14 -83 6 -6 11 -16 13
-22 4 -17 41 -4 70 25 32 31 65 40 154 40 68 0 86 11 106 68 9 26 16 32 39 32
23 0 40 -15 40 -36 0 -2 -16 -4 -36 -4 -31 0 -37 -4 -50 -35 -13 -33 -17 -35
-60 -35 -33 0 -52 -6 -63 -18 -20 -23 -84 -35 -101 -19 -10 9 -11 9 -6 0 5 -9
0 -13 -13 -13 -11 0 -22 -9 -26 -20 -5 -15 -15 -20 -39 -20 -28 0 -36 5 -46
30 -7 16 -10 38 -8 47 4 15 -2 18 -34 17 -43 -1 -51 -6 -55 -33 -1 -12 5 -21
17 -24 26 -7 26 -37 0 -37 -11 0 -20 -5 -20 -11 0 -7 -9 -9 -21 -6 -12 3 -18
3 -15 0 3 -3 -1 -12 -9 -20 -18 -17 -75 -28 -107 -20 -20 5 -23 12 -23 47 l1
40 -36 -6 c-19 -4 -38 -11 -41 -16 -3 -5 -19 -10 -35 -12 -21 -3 -28 -8 -26
-21 4 -21 -17 -47 -33 -41 -7 2 -10 -6 -7 -25 2 -17 0 -30 -7 -30 -6 -1 -17
-2 -23 -3 -7 0 -13 -10 -13 -21 -2 -43 -18 -86 -36 -96 -11 -5 -19 -18 -19
-28 0 -10 -7 -24 -15 -31 -8 -7 -15 -18 -15 -25 0 -20 -31 -76 -46 -82 -8 -3
-14 -16 -14 -30 0 -14 -10 -33 -22 -42 -15 -13 -21 -28 -20 -54 1 -26 -3 -37
-13 -37 -16 0 -34 -29 -28 -47 2 -6 -1 -15 -8 -19 -8 -5 -10 -3 -4 7 5 8 4 11
0 6 -5 -4 -10 -17 -12 -30 -2 -12 -9 -26 -15 -32 -8 -7 -9 -6 -3 5 5 8 4 12 0
7 -5 -4 -9 -20 -10 -35 0 -19 -5 -27 -17 -26 -11 1 -14 -4 -11 -14 4 -10 2
-13 -5 -8 -8 5 -10 2 -6 -9 7 -18 -15 -67 -27 -60 -4 3 -5 -5 -1 -17 3 -13 1
-19 -5 -15 -6 4 -8 -4 -5 -20 3 -14 1 -23 -4 -20 -5 3 -9 -11 -9 -31 0 -29 -4
-37 -18 -37 -15 0 -18 -11 -21 -75 -2 -48 -9 -85 -19 -100 -8 -14 -19 -46 -22
-73 -5 -32 -14 -52 -29 -62 -19 -14 -21 -26 -24 -145 -2 -114 0 -130 14 -130
10 0 14 -5 10 -16 -3 -8 -2 -13 3 -10 11 7 35 -69 27 -83 -5 -7 -1 -9 11 -5
17 5 17 5 1 -6 -20 -13 -21 -61 -1 -53 8 3 13 -3 13 -17 0 -13 8 -24 20 -27
11 -3 18 -9 15 -12 -2 -4 2 -8 10 -8 8 0 12 4 9 9 -3 4 4 8 15 8 18 0 21 -6
21 -43 0 -40 -2 -44 -35 -57 l-36 -14 2 -63 c1 -34 6 -60 11 -57 4 3 8 -4 8
-15 0 -11 4 -22 9 -25 4 -3 10 -41 13 -83 3 -48 11 -88 20 -103 18 -27 36
-146 22 -137 -5 3 -9 -5 -9 -18 0 -13 4 -21 9 -18 5 3 7 -6 4 -20 -3 -17 -1
-24 5 -20 6 4 8 0 4 -11 -4 -10 -3 -15 3 -11 9 6 14 -10 13 -42 -1 -7 4 -10 9
-6 7 4 9 -6 6 -26 -3 -18 0 -35 5 -38 6 -4 7 -1 2 8 -6 10 -5 11 4 3 7 -6 13
-20 14 -32 0 -11 5 -18 11 -15 5 4 7 -3 4 -15 -4 -13 -2 -20 4 -16 5 4 9 -4 8
-17 -4 -48 0 -57 29 -61 17 -2 28 -1 25 4 -7 11 19 10 50 -2 23 -8 26 -15 26
-58 0 -26 9 -73 20 -105 11 -31 20 -71 20 -90 0 -18 9 -50 20 -72 23 -44 28
-153 8 -173 -14 -14 -18 -63 -3 -54 5 4 14 7 19 7 11 0 14 15 22 145 7 103 7
104 20 66 8 -21 11 -42 9 -47 -3 -4 6 -16 21 -25 21 -14 25 -24 22 -49 -3 -27
-1 -31 14 -27 17 4 24 -12 19 -41 -1 -5 4 -5 10 -1 8 5 10 -2 7 -24 -2 -17 -1
-29 4 -26 4 3 8 0 8 -5 0 -6 7 -11 16 -11 11 0 15 -6 12 -18 -7 -26 34 -18 51
10 10 15 10 18 0 13 -8 -5 -10 -4 -5 3 4 7 16 12 26 12 10 0 22 5 26 12 5 7 3
8 -6 3 -9 -5 -11 -4 -6 3 12 20 46 14 46 -8 0 -11 5 -20 11 -20 5 0 7 -4 4
-10 -3 -5 0 -7 9 -4 13 5 15 -18 15 -161 1 -97 -2 -164 -8 -161 -9 6 -18 -31
-27 -116 -6 -47 -16 -56 -57 -49 -5 1 -6 -3 -2 -9 3 -5 0 -10 -8 -10 -8 0 -17
-9 -20 -19 -3 -13 -17 -22 -41 -26 -20 -4 -36 -11 -36 -17 0 -5 -4 -7 -9 -4
-5 3 -8 -2 -7 -12 0 -11 -7 -18 -21 -20 -17 -3 -23 -10 -23 -28 0 -27 -23 -58
-35 -46 -4 4 -5 2 -4 -3 2 -6 -1 -25 -5 -43 -7 -32 -45 -59 -71 -53 -5 2 -7 0
-3 -4 11 -12 -29 -48 -44 -39 -7 4 -10 4 -6 0 3 -4 -2 -16 -13 -27 -11 -11
-17 -24 -14 -29 4 -6 -3 -10 -14 -10 -16 0 -21 -6 -21 -26 0 -17 -6 -28 -20
-31 -13 -3 -20 -14 -20 -28 0 -17 -7 -25 -22 -27 -15 -2 -24 -11 -26 -25 -2
-15 -10 -23 -23 -23 -11 0 -19 -7 -19 -17 0 -9 -3 -14 -6 -10 -7 7 -44 -60
-44 -78 0 -6 -9 -18 -20 -28 -11 -9 -20 -25 -20 -36 0 -20 -25 -35 -41 -26 -5
4 -6 -1 -2 -10 8 -22 -13 -35 -59 -35 -28 0 -38 -4 -38 -16 0 -8 -4 -12 -10
-9 -6 4 -7 -1 -3 -11 5 -14 2 -16 -20 -12 -15 3 -24 1 -21 -3 3 -5 -2 -9 -10
-9 -9 0 -16 -6 -16 -14 0 -17 -47 -49 -60 -41 -5 3 -12 0 -16 -6 -5 -8 -2 -10
7 -5 8 4 3 -2 -11 -14 -14 -12 -19 -18 -11 -14 10 5 12 3 6 -5 -4 -7 -18 -11
-30 -9 -18 4 -22 1 -17 -10 3 -10 1 -13 -6 -8 -8 4 -10 2 -6 -8 6 -16 -29 -32
-46 -21 -6 4 -9 1 -8 -7 2 -7 -6 -13 -18 -12 -14 0 -20 -6 -20 -20 1 -12 -7
-22 -18 -24 -10 -2 -30 -17 -43 -33 -14 -16 -31 -29 -38 -29 -8 0 -20 -8 -27
-17 -15 -21 -52 -43 -70 -43 -8 0 -18 -10 -23 -22 -6 -14 -18 -23 -31 -22 -15
0 -20 -5 -17 -16 2 -8 -5 -26 -16 -39 -12 -13 -21 -34 -21 -47 0 -13 -5 -26
-12 -30 -7 -5 -9 -2 -4 7 4 8 0 5 -8 -5 -10 -13 -16 -39 -16 -72 0 -34 -5 -56
-15 -64 -16 -13 -21 -35 -6 -26 5 4 18 -13 29 -36 22 -48 36 -112 23 -103 -5
3 -7 -3 -4 -14 3 -11 -2 -21 -11 -24 -9 -4 -16 -18 -16 -32 0 -15 -3 -24 -7
-22 -5 3 -9 -15 -9 -39 -1 -42 -19 -78 -33 -70 -4 3 -7 -8 -6 -22 0 -20 -5
-27 -20 -27 -11 0 -21 -6 -21 -13 -1 -6 -2 -19 -3 -28 -1 -11 -7 -15 -21 -11
-10 3 -19 2 -18 -2 2 -10 -12 -65 -22 -82 -18 -33 -29 -138 -34 -313 -3 -99
-8 -182 -11 -184 -3 -3 -5 -14 -5 -24 0 -11 -3 -17 -7 -15 -5 3 -9 -13 -11
-35 -1 -22 -7 -50 -13 -60 -8 -15 -8 -19 0 -14 17 11 13 0 -6 -20 -10 -9 -17
-33 -18 -54 0 -21 -3 -36 -7 -34 -10 6 1 -66 14 -93 6 -12 8 -28 5 -37 -4 -9
-1 -13 6 -10 19 7 10 -146 -10 -168 -11 -12 -16 -47 -19 -125 -5 -134 -13
-215 -22 -209 -4 2 -7 -13 -7 -34 0 -21 3 -36 8 -33 4 2 8 -2 8 -9 3 -25 18
78 18 125 1 27 5 46 9 43 5 -3 6 9 4 26 -4 28 -3 30 21 26 20 -4 24 -1 20 11
-4 14 -3 14 5 1 6 -8 11 -35 11 -60 0 -25 7 -71 16 -103 8 -32 13 -63 10 -68
-4 -5 0 -6 8 -3 11 4 13 -1 10 -19 -3 -14 0 -28 6 -31 6 -4 11 -16 11 -28 0
-11 8 -22 20 -25 17 -5 25 -21 21 -45 0 -4 5 -5 13 -2 18 7 78 -45 72 -63 -3
-8 -2 -12 3 -8 16 9 42 -7 37 -22 -4 -9 -2 -11 6 -7 7 5 9 2 6 -7 -4 -11 5
-14 41 -14 44 0 46 -2 49 -30 2 -16 12 -35 23 -43 10 -7 19 -22 19 -33 0 -17
8 -19 89 -19 80 0 90 -2 96 -19 3 -11 16 -21 28 -23 14 -2 23 -11 25 -25 2
-13 10 -23 18 -23 8 0 14 -4 14 -9 0 -17 40 -23 57 -9 12 9 15 9 9 1 -11 -19
8 -16 31 4 28 25 43 57 43 92 0 43 9 60 41 76 21 11 35 12 54 5 15 -6 54 -10
88 -10 58 0 63 -2 82 -30 11 -17 26 -28 32 -25 7 2 13 0 13 -5 0 -6 8 -10 18
-10 11 0 24 -11 30 -25 6 -14 18 -25 26 -25 7 0 16 -7 20 -15 7 -20 43 -19 54
0 7 13 11 11 22 -10 11 -21 21 -25 57 -25 24 0 43 3 43 8 0 4 11 20 24 35 13
16 31 38 40 50 l15 22 7 -22 c11 -39 124 -46 124 -8 0 6 13 26 29 46 17 20 33
48 36 62 4 15 11 28 16 28 5 1 15 2 22 3 7 1 11 13 9 33 -2 17 1 34 7 38 6 3
11 17 11 31 0 17 4 23 12 18 6 -4 8 -3 4 4 -10 16 5 93 17 85 6 -3 7 -1 3 5
-8 14 3 62 15 62 5 0 9 -7 9 -15 0 -8 7 -15 16 -15 21 0 45 -25 47 -49 0 -11
4 -18 7 -16 13 8 30 -12 32 -37 1 -15 5 -26 8 -26 24 2 31 -5 28 -29 -3 -26 0
-28 26 -25 26 3 28 1 24 -22 -3 -14 -2 -24 1 -23 19 6 81 -28 81 -44 0 -13 11
-20 35 -25 19 -3 35 -11 35 -18 0 -7 3 -7 8 1 5 8 44 15 103 19 62 5 100 12
112 22 19 17 51 76 36 67 -5 -3 -6 1 -3 9 6 14 24 21 47 17 5 -1 5 4 1 10 -5
9 -2 10 9 6 10 -4 16 -2 14 6 -1 7 4 11 11 9 6 -1 11 4 10 10 -2 7 6 13 18 12
14 0 20 6 20 20 -1 12 8 25 22 31 12 5 22 16 22 23 0 7 3 11 8 9 4 -3 8 9 8
26 4 76 17 166 24 162 5 -3 6 4 3 15 -8 28 15 54 34 39 8 -7 12 -17 9 -24 -2
-6 5 -11 17 -11 13 1 22 -5 22 -14 0 -8 9 -15 20 -15 11 0 19 -5 18 -12 -2 -8
4 -10 14 -6 11 4 14 3 9 -5 -9 -15 24 -4 39 12 34 37 84 44 162 24 41 -10 88
-40 78 -50 -2 -2 15 -2 37 0 31 3 39 1 33 -8 -5 -8 -4 -11 3 -6 6 3 29 2 51
-3 23 -5 39 -5 36 -1 -6 10 107 23 128 14 10 -3 17 -10 17 -15 0 -5 12 -9 26
-9 14 0 23 -4 20 -8 -3 -5 3 -8 12 -8 57 0 93 -5 88 -12 -2 -4 11 -6 31 -4 27
4 34 1 28 -8 -5 -8 -4 -11 3 -7 13 9 44 -2 37 -12 -6 -11 98 -16 297 -16 130
0 170 3 180 14 10 10 10 12 1 7 -7 -4 -13 -5 -13 -2 0 12 113 52 133 47 5 -1
6 3 3 8 -3 5 0 14 8 20 11 9 21 8 45 -7 17 -10 28 -21 25 -24 -2 -3 7 -8 21
-12 23 -6 29 -19 28 -63 -1 -7 3 -10 8 -8 10 7 28 -26 28 -51 0 -10 3 -38 7
-61 6 -39 9 -43 36 -43 19 0 27 -4 22 -12 -4 -6 -3 -8 4 -5 15 10 43 -3 35
-16 -3 -5 -2 -7 4 -4 5 3 30 7 56 8 26 2 43 7 40 12 -4 6 5 8 20 5 15 -3 24
-1 21 3 -4 8 52 14 79 10 4 0 6 2 6 6 -3 21 2 44 9 40 4 -3 7 9 7 26 0 28 3
32 31 35 29 3 32 0 37 -35 4 -21 7 -57 7 -80 l0 -43 45 0 45 0 0 50 c0 59 -15
66 -25 13 l-8 -38 -23 51 c-13 31 -24 77 -26 112 -1 34 -7 58 -12 55 -5 -4 -7
3 -4 15 4 13 2 19 -6 16 -21 -8 -35 33 -37 109 -2 63 -4 74 -17 69 -12 -4 -14
0 -10 16 4 12 3 20 -2 17 -9 -5 -21 34 -25 80 -1 17 -8 57 -14 89 -11 53 -11
61 3 72 9 6 16 23 16 38 0 15 4 25 8 22 5 -3 5 23 0 57 -13 95 -17 107 -34
107 -13 0 -15 13 -13 75 1 44 -3 80 -9 88 -7 8 -9 17 -5 21 4 4 0 4 -10 0 -9
-3 -17 -13 -17 -21 0 -9 -6 -13 -15 -10 -8 4 -17 1 -21 -5 -4 -7 -3 -8 4 -4 7
4 12 2 12 -3 0 -6 -7 -11 -16 -11 -11 0 -14 5 -10 16 3 9 6 18 6 20 0 2 7 4
15 4 8 0 15 5 15 10 0 6 -7 10 -15 10 -8 0 -15 7 -15 15 0 8 6 15 14 15 13 0
31 104 20 122 -3 4 -34 8 -70 8 -57 0 -64 2 -64 19 0 16 8 20 43 23 45 3 45 1
32 76 -6 30 -5 32 23 32 35 0 42 13 42 81 0 42 3 49 20 49 15 0 20 7 20 26 0
16 4 23 12 18 6 -4 8 -3 5 3 -4 6 0 26 7 45 14 34 24 115 25 211 1 27 4 46 9
44 4 -3 7 18 7 46 0 42 3 52 16 51 11 -1 15 4 11 18 -5 19 25 61 38 53 5 -3 6
4 3 15 -4 14 1 22 20 29 30 12 37 29 37 97 0 41 -5 59 -20 74 -11 11 -20 29
-20 39 0 11 9 23 20 26 25 8 29 65 4 65 -11 0 -14 5 -10 16 3 9 6 18 6 20 0 3
5 2 12 -2 7 -4 8 -3 4 5 -16 25 3 58 35 65 17 3 28 10 24 16 -3 5 1 10 9 10 9
0 16 5 16 10 0 6 9 10 20 10 30 0 70 29 70 51 0 10 11 30 25 44 22 21 35 25
85 25 49 0 61 -3 70 -20 6 -11 9 -24 6 -29 -3 -5 2 -8 12 -7 13 1 18 -8 20
-38 4 -43 -12 -70 -22 -38 -5 15 -17 21 -51 24 -24 1 -42 1 -40 -1 3 -2 -3
-17 -11 -33 -9 -17 -13 -32 -10 -35 3 -3 -3 -18 -14 -33 -12 -16 -22 -53 -26
-94 -5 -50 -12 -70 -26 -80 -11 -8 -19 -22 -18 -33 5 -40 0 -74 -10 -68 -5 3
-7 0 -4 -8 3 -8 1 -18 -5 -22 -6 -3 -11 -15 -11 -26 0 -11 -3 -18 -7 -16 -5 3
-9 -20 -10 -49 -1 -51 -17 -89 -32 -80 -3 2 -7 -14 -8 -35 -1 -42 -19 -73 -38
-65 -7 2 -10 -6 -7 -26 3 -20 1 -29 -6 -24 -6 3 -8 -1 -6 -11 3 -10 -2 -27
-11 -38 -9 -11 -13 -13 -9 -5 4 8 4 12 -1 8 -4 -4 -10 -43 -12 -85 -4 -60 -9
-82 -24 -96 -10 -10 -19 -29 -19 -43 0 -14 -4 -22 -10 -19 -6 4 -10 -7 -10
-25 0 -17 -4 -29 -9 -25 -15 8 -25 -59 -26 -160 0 -117 8 -194 19 -187 5 3 7
-2 3 -10 -4 -11 0 -15 11 -13 10 1 16 9 14 20 -2 9 1 14 6 11 6 -4 8 3 5 15
-4 15 0 22 15 26 15 3 24 19 32 54 7 28 18 49 25 49 7 0 16 13 20 30 4 16 15
32 26 35 12 4 19 15 19 30 0 18 4 23 16 18 10 -4 17 1 21 16 3 11 9 18 14 15
5 -3 9 2 9 11 0 9 4 14 9 11 5 -4 12 7 16 22 6 28 57 75 81 75 7 0 10 6 7 14
-5 12 10 17 45 16 7 -1 11 1 8 4 -10 10 16 45 29 39 9 -3 12 0 9 9 -3 8 -18
15 -32 17 -19 2 -27 9 -27 23 0 11 5 19 11 18 7 -1 10 6 7 17 -6 24 14 77 39
102 10 10 18 24 18 32 0 8 15 17 34 20 19 4 39 13 46 21 7 8 19 15 26 15 8 0
14 5 14 10 0 6 27 10 60 10 48 0 61 -4 69 -19 9 -17 7 -19 -17 -17 -19 1 -28
-3 -28 -14 0 -10 10 -15 27 -15 15 0 25 4 21 9 -3 5 2 6 12 3 10 -4 15 -3 11
3 -5 9 16 15 38 11 5 -1 5 4 1 10 -5 9 -2 10 10 6 10 -4 15 -3 11 3 -7 12 40
24 56 14 8 -4 9 -3 5 4 -5 8 2 12 18 12 14 0 26 5 26 11 0 6 7 9 15 6 8 -4 17
-1 21 5 5 7 2 8 -6 3 -9 -6 -11 -4 -5 4 4 7 16 11 26 8 11 -3 17 -2 14 2 -6
10 65 32 78 24 6 -3 7 -1 3 5 -4 7 -1 12 9 12 9 0 14 -4 11 -8 -3 -5 1 -9 8
-9 8 0 11 8 8 20 -3 11 -1 18 4 14 6 -3 11 6 12 20 1 13 4 29 8 34 3 5 43 9
90 9 83 0 84 0 84 -25 0 -29 17 -34 27 -8 4 10 16 27 28 39 12 11 24 27 27 35
4 11 31 15 119 17 100 3 116 6 135 25 36 36 48 43 67 39 10 -2 28 7 40 21 19
20 32 24 87 26 43 1 69 7 76 17 6 7 16 14 23 14 6 0 11 7 11 15 0 9 11 20 25
25 16 6 25 17 25 31 0 18 5 21 29 17 17 -2 28 -1 26 3 -6 9 24 21 36 14 5 -4
6 2 2 11 -4 12 -3 15 5 10 8 -5 10 -1 5 10 -5 13 -3 16 10 11 9 -3 16 -3 16 1
-3 20 2 33 11 27 6 -4 7 1 3 11 -5 14 -2 16 18 12 20 -3 25 0 27 15 1 18 13
32 36 40 4 1 7 57 6 122 -4 180 -4 183 -12 178 -5 -2 -8 7 -8 21 0 14 -4 26
-10 26 -5 0 -10 14 -10 30 0 17 -5 30 -11 30 -6 0 -8 7 -5 16 4 10 2 13 -6 8
-8 -5 -9 -2 -5 10 4 9 3 15 -2 12 -16 -10 -30 19 -33 69 -3 43 -6 50 -25 53
-21 3 -21 0 -20 -80 2 -80 1 -83 -22 -86 -13 -2 -21 1 -17 6 3 5 -6 7 -21 4
-23 -4 -25 -2 -20 17 3 12 1 19 -4 15 -16 -10 -86 6 -107 24 -16 14 -17 20 -7
29 7 6 15 9 18 6 10 -9 19 45 15 87 -3 31 0 39 10 35 8 -3 16 -5 18 -5 3 0 3
-3 1 -7 -3 -5 19 -8 48 -8 29 0 51 3 48 8 -2 4 9 10 26 13 16 4 32 13 35 21 4
8 13 13 21 10 10 -4 12 -1 8 10 -4 10 -2 14 4 10 7 -5 9 1 5 15 -4 17 -2 20
12 15 11 -5 15 -3 10 5 -5 8 -2 9 10 5 9 -4 15 -3 12 1 -7 11 25 73 34 67 4
-3 7 85 6 194 0 119 -5 197 -10 193 -5 -3 -7 2 -3 11 3 9 1 19 -5 23 -7 5 -8
2 -3 -6 5 -8 4 -11 -3 -6 -6 4 -9 13 -6 20 3 7 -1 16 -8 18 -9 4 -14 -7 -15
-40 -3 -51 -17 -75 -27 -44 -4 11 -5 26 -4 33 2 9 -4 13 -15 11 -17 -3 -26 10
-31 45 -2 10 -9 18 -17 18 -7 0 -18 9 -24 20 -5 12 -20 32 -32 45 -13 13 -23
30 -23 38 0 9 -7 13 -20 9 -17 -4 -20 0 -20 25 0 23 -4 29 -15 24 -8 -3 -15
-1 -15 4 0 6 -6 10 -14 10 -7 0 -23 14 -36 30 -13 17 -31 30 -41 30 -12 0 -19
7 -19 20 0 13 -7 20 -20 20 -13 0 -20 7 -20 19 0 12 -13 28 -31 38 -22 13 -29
24 -26 39 2 15 -1 21 -12 20 -11 -1 -16 8 -17 29 0 22 -4 29 -17 27 -17 -3
-41 31 -30 42 3 3 19 6 35 6 18 0 28 5 28 15 0 8 -5 15 -11 15 -6 0 -8 9 -4
21 6 18 4 20 -13 15 -15 -5 -24 -1 -32 15 -11 20 -10 21 13 17 18 -4 24 -1 20
9 -3 7 -12 13 -20 13 -17 0 -69 50 -65 62 1 5 -3 7 -9 5 -7 -1 -21 13 -32 32
-12 19 -16 31 -9 27 8 -5 10 -2 6 8 -3 9 -10 16 -16 16 -5 0 -6 4 -3 10 4 6
-1 7 -12 3 -10 -3 -15 -3 -12 1 4 4 -5 20 -20 35 -14 15 -37 44 -51 64 -14 20
-30 35 -35 33 -6 -2 -19 17 -29 43 -10 25 -24 51 -31 56 -7 6 -15 33 -19 60
-9 80 -11 87 -35 113 -12 14 -20 31 -17 38 3 8 2 13 -2 13 -4 -1 -22 2 -40 6
-26 6 -33 12 -29 26 3 11 1 17 -4 13 -5 -3 -9 -1 -9 3 0 5 -10 13 -22 18 -13
6 -24 20 -26 31 -2 12 -12 24 -23 27 -11 3 -19 14 -19 27 0 13 -8 24 -20 27
-13 4 -20 14 -20 30 0 16 -7 27 -19 30 -11 3 -21 15 -23 27 -2 16 -11 22 -36
24 -18 2 -30 7 -27 12 2 4 -3 7 -13 6 -9 0 -16 4 -15 9 1 6 -11 10 -27 10 -16
0 -28 -4 -27 -10 1 -5 -9 -11 -22 -13 -15 -2 -21 0 -17 7 4 6 1 9 -7 6 -7 -3
-22 5 -33 17 -19 23 -19 23 1 8 18 -14 19 -14 7 1 -8 11 -21 15 -34 11 -18 -4
-20 -2 -16 16 4 12 2 20 -3 16 -5 -3 -9 -1 -9 4 0 5 -9 12 -20 15 -11 3 -20
14 -20 25 0 21 -23 46 -33 35 -4 -3 -7 5 -7 18 0 30 -15 54 -28 45 -7 -4 -13
14 -17 48 -5 40 -12 55 -25 59 -11 3 -20 17 -23 38 -8 53 -12 68 -22 76 -4 4
-5 1 -1 -7 4 -8 0 -6 -8 4 -9 11 -16 28 -16 38 0 10 -7 21 -15 24 -16 7 -39
69 -31 83 4 5 1 13 -5 17 -8 5 -9 3 -4 -7 6 -11 5 -11 -4 -3 -16 15 -33 92
-25 107 4 7 4 9 0 5 -12 -11 -49 29 -41 43 6 8 4 10 -5 4 -10 -6 -12 -3 -8 13
3 12 3 21 -1 20 -29 -3 -41 4 -41 27 0 19 -5 25 -21 25 -16 0 -20 5 -16 20 3
11 1 18 -4 14 -5 -3 -9 2 -9 10 0 8 -9 18 -20 21 -11 3 -20 13 -20 21 0 18
-25 46 -34 37 -3 -4 -6 6 -6 21 0 16 -4 25 -10 21 -5 -3 -10 -1 -10 4 0 6 -7
11 -15 11 -8 0 -15 8 -15 18 0 12 -13 23 -36 32 -20 8 -40 25 -45 37 -5 15
-17 23 -31 23 -14 0 -27 9 -33 22 -6 12 -23 29 -40 38 -17 9 -30 25 -30 36 -1
10 -7 18 -14 16 -19 -4 -41 17 -41 39 0 10 -9 23 -21 30 -14 7 -19 17 -16 30
3 10 1 17 -4 13 -5 -3 -9 0 -9 7 0 6 -8 18 -17 26 -11 9 -12 12 -3 7 9 -4 12
-3 7 2 -9 9 -14 11 -47 13 -11 0 -20 7 -20 15 0 23 -20 30 -105 36 -73 5 -80
7 -79 26 0 25 2 25 -119 31 -80 4 -100 2 -113 -11 -9 -9 -19 -14 -24 -11 -5 3
-12 0 -16 -6 -5 -8 -3 -9 6 -4 9 6 11 4 5 -4 -4 -7 -18 -11 -31 -8 -13 2 -21
0 -18 -5 3 -4 -8 -11 -25 -14 -18 -4 -31 -13 -31 -21 0 -10 -6 -13 -16 -9 -8
3 -12 2 -9 -4 4 -6 -14 -10 -45 -10 -43 0 -51 3 -46 16 4 10 2 13 -6 8 -8 -5
-9 -2 -5 9 3 9 3 16 -1 15 -20 -5 -50 14 -45 30 3 13 -7 22 -37 36 -28 12 -40
23 -36 33 3 8 1 11 -4 8 -6 -3 -10 -2 -10 3 0 5 -9 12 -20 15 -12 3 -20 14
-20 26 0 12 -6 21 -16 21 -8 0 -12 4 -9 10 3 5 0 7 -9 4 -9 -3 -17 2 -21 15
-3 12 -13 21 -20 21 -25 0 -65 23 -65 37 0 8 -13 19 -30 24 -16 6 -30 15 -30
20 0 17 -42 51 -56 45 -9 -3 -16 4 -20 20 -4 17 -19 30 -45 41 -22 8 -39 22
-39 29 0 8 -11 19 -25 24 -14 5 -25 14 -25 20 0 6 -13 18 -30 29 -16 10 -27
21 -23 25 4 4 0 4 -8 1 -11 -4 -19 1 -24 17 -4 13 -7 26 -6 29 0 4 -8 5 -18 2
-13 -3 -20 2 -25 21 -4 16 -13 26 -24 26 -20 0 -73 55 -63 66 3 4 1 4 -6 1
-18 -11 -43 3 -43 24 0 11 -7 19 -16 19 -9 0 -12 5 -8 12 4 7 3 8 -4 4 -7 -4
-22 3 -34 15 -13 12 -16 18 -8 14 9 -5 12 -4 7 1 -9 9 -14 11 -47 13 -14 1
-20 7 -18 18 2 13 -9 22 -42 33 -25 8 -46 15 -48 16 -2 1 -4 11 -5 22 -1 13
-6 18 -16 14 -9 -3 -12 -1 -8 5 5 7 -1 9 -15 5 -13 -3 -19 -1 -15 5 4 6 -1 10
-11 9 -10 0 -17 6 -16 15 1 12 -10 16 -49 18 -28 1 -54 4 -57 6 -4 2 -6 -6 -6
-18 1 -18 -5 -23 -35 -25 -26 -2 -38 1 -43 13 -3 9 -2 13 4 10 6 -3 10 -4 10
-1 0 3 -13 12 -30 21 -20 10 -27 20 -23 31 4 10 -2 17 -16 21 -11 3 -18 9 -15
14 3 5 4 8 2 8 -2 -1 -36 -5 -77 -9z m207 -366 c12 -8 22 -21 22 -29 0 -7 10
-15 23 -17 12 -2 26 -13 31 -25 7 -15 25 -24 67 -33 53 -12 58 -15 63 -45 4
-18 15 -43 26 -55 11 -13 20 -29 20 -37 0 -7 12 -18 27 -24 16 -6 36 -17 45
-26 9 -8 34 -21 55 -28 21 -7 42 -22 48 -33 5 -11 19 -25 32 -31 15 -7 23 -19
23 -36 0 -14 5 -25 11 -25 5 0 15 -13 20 -30 6 -16 19 -32 30 -35 15 -5 19
-16 19 -50 0 -34 4 -45 19 -50 14 -4 21 -19 26 -55 5 -35 14 -55 28 -65 12 -9
20 -18 19 -20 -8 -12 11 -87 24 -92 8 -3 11 -9 9 -14 -7 -11 21 -115 40 -151
10 -18 15 -58 15 -127 0 -71 6 -119 19 -163 11 -35 25 -98 32 -140 6 -43 16
-78 20 -78 12 0 26 -64 33 -148 4 -45 12 -80 21 -89 12 -12 15 -48 15 -194 0
-98 -5 -211 -11 -251 -17 -116 -51 -278 -59 -278 -4 0 -12 -26 -19 -57 -7 -32
-21 -76 -31 -98 -10 -22 -20 -66 -23 -98 -2 -41 -10 -64 -25 -80 -12 -13 -22
-31 -22 -39 0 -9 -9 -20 -20 -23 -15 -5 -20 -15 -20 -43 0 -23 -8 -44 -21 -58
-12 -13 -23 -35 -24 -48 -2 -14 -13 -41 -24 -60 -12 -18 -21 -41 -21 -50 0 -9
-9 -26 -20 -38 -11 -12 -20 -31 -20 -42 0 -36 -12 -66 -25 -66 -7 0 -16 -19
-20 -46 -5 -33 -16 -56 -39 -80 -29 -29 -41 -34 -121 -45 -113 -15 -277 2
-309 32 -11 11 -28 19 -37 19 -24 0 -72 22 -82 37 -4 7 -34 18 -67 25 -46 9
-60 16 -60 30 0 17 -12 22 -65 30 -13 2 -24 16 -31 36 -6 19 -15 37 -21 40 -6
4 -13 17 -17 30 -4 13 -15 22 -27 22 -12 0 -19 7 -19 20 0 13 -10 24 -25 30
-14 5 -25 16 -25 25 0 8 -11 20 -24 26 -13 6 -29 22 -35 35 -6 13 -15 24 -21
24 -5 0 -10 7 -10 15 0 8 -8 22 -19 32 -10 10 -21 30 -25 46 -4 18 -13 27 -26
27 -14 0 -20 7 -20 21 0 17 -6 20 -32 18 -84 -5 -111 27 -62 76 29 29 27 64
-5 100 -10 11 -30 41 -45 66 -14 25 -35 54 -46 64 -27 25 -25 34 7 32 43 -3
41 32 -5 106 -84 133 -100 182 -58 171 16 -4 25 -1 29 10 4 9 13 16 21 16 33
0 35 78 4 123 -13 18 -26 34 -30 35 -5 2 -8 15 -8 28 0 21 5 24 34 24 49 0 64
23 42 62 -16 26 -18 53 -17 191 0 88 3 162 6 165 2 3 11 -1 20 -8 13 -11 15
-5 17 51 1 35 1 91 0 124 -2 33 0 80 3 105 7 44 7 44 21 20 11 -19 13 -46 8
-107 l-6 -83 80 0 c93 0 112 5 112 31 0 10 6 19 13 19 9 0 19 26 29 70 13 64
13 71 -1 69 -29 -3 -41 1 -41 12 0 8 13 9 40 5 44 -7 42 -9 55 83 5 38 4 42
-9 32 -11 -9 -18 -7 -35 14 -17 22 -18 30 -8 46 16 26 77 27 78 2 1 -10 9 7
18 37 10 30 16 58 14 63 -2 4 3 10 11 13 10 4 16 18 16 35 0 27 -2 28 -20 17
-11 -7 -23 -21 -26 -31 -9 -28 -39 -16 -42 17 -2 18 -11 30 -23 33 -53 14 5
57 70 51 28 -2 37 -8 42 -28 6 -21 7 -19 9 15 3 61 10 98 23 113 9 11 20 159
26 339 1 17 6 22 24 20 20 -2 22 3 25 43 1 25 5 64 8 88 4 28 2 42 -5 42 -13
0 -15 98 -2 118 16 26 21 -31 21 -263 0 -211 -2 -234 -20 -270 -16 -32 -20
-59 -20 -142 0 -92 -2 -105 -21 -124 -17 -17 -23 -38 -27 -91 -3 -46 -9 -71
-18 -75 -8 -3 -14 -20 -14 -39 0 -30 -19 -117 -35 -155 -3 -9 0 -20 7 -26 17
-14 103 -41 154 -49 46 -7 66 8 43 31 -21 20 -88 55 -104 55 -20 0 -19 10 2
25 11 8 18 34 22 90 5 58 11 80 25 91 13 9 17 22 14 48 -3 29 -1 33 10 24 16
-14 32 5 32 40 0 12 6 22 14 22 15 0 20 18 31 105 4 28 13 69 21 93 11 33 14
113 14 372 0 304 1 329 18 333 37 10 79 6 100 -9z m1758 -689 c15 -14 33 -26
40 -26 8 -1 20 -2 27 -3 6 -1 26 -13 42 -28 17 -16 38 -28 47 -28 31 0 48 -12
48 -36 0 -12 6 -27 13 -31 8 -4 17 -26 20 -48 4 -22 14 -44 23 -50 9 -5 30
-22 47 -37 18 -15 40 -28 49 -28 10 0 20 -10 24 -25 3 -14 12 -25 18 -25 23 0
65 -25 69 -41 3 -9 20 -19 41 -23 27 -5 37 -13 42 -31 4 -16 13 -25 25 -25 12
0 19 -7 19 -20 0 -11 11 -27 24 -36 14 -8 28 -30 32 -47 3 -17 13 -37 21 -45
8 -8 17 -28 20 -45 3 -16 14 -32 24 -34 12 -4 19 -19 24 -54 4 -27 11 -49 15
-49 11 0 30 -57 30 -89 0 -15 8 -31 20 -39 11 -7 20 -21 20 -32 0 -10 6 -23
13 -27 8 -4 24 -27 37 -50 13 -24 27 -43 32 -43 4 0 8 -8 8 -18 0 -11 9 -27
19 -36 11 -10 22 -28 25 -41 4 -14 15 -29 26 -35 11 -6 20 -20 20 -31 0 -12 8
-23 20 -26 11 -3 20 -14 20 -25 0 -10 10 -30 23 -44 12 -14 32 -36 45 -50 12
-14 22 -29 22 -35 0 -5 11 -14 25 -19 14 -5 25 -16 25 -25 0 -8 9 -20 20 -27
11 -7 20 -17 20 -23 0 -6 14 -23 31 -38 19 -16 29 -33 25 -42 -3 -8 0 -17 6
-21 7 -5 8 -2 3 6 -5 9 -4 11 3 6 18 -11 16 -181 -2 -209 -8 -12 -17 -57 -21
-99 -4 -43 -10 -78 -14 -78 -10 0 -31 -62 -31 -94 0 -19 -6 -29 -20 -33 -14
-4 -20 -14 -20 -35 0 -16 -4 -27 -9 -24 -5 4 -7 -3 -4 -14 4 -14 0 -20 -11
-20 -9 0 -19 -13 -24 -32 -7 -29 -13 -33 -45 -36 -34 -3 -37 -1 -37 22 0 15
-8 30 -20 36 -11 6 -18 15 -15 20 6 10 -25 80 -36 80 -5 0 -11 16 -15 35 -3
19 -10 32 -15 29 -5 -3 -9 0 -9 6 0 6 -4 8 -10 5 -5 -3 -10 3 -10 15 0 11 -9
28 -20 37 -11 10 -20 23 -20 30 0 7 -8 21 -17 31 -10 10 -24 30 -32 45 -8 15
-22 35 -32 46 -11 12 -16 27 -13 38 4 12 3 14 -3 6 -7 -10 -13 -8 -25 6 -9 11
-13 23 -10 27 4 4 2 4 -4 1 -15 -9 -38 19 -28 34 4 7 3 9 -4 5 -12 -7 -26 29
-17 44 3 5 23 10 44 10 41 0 55 19 44 60 -5 18 -14 20 -114 20 -99 0 -159 11
-159 30 0 4 -18 10 -41 14 -28 5 -43 12 -46 25 -5 20 -21 24 -125 37 -32 3
-58 10 -58 14 0 18 -33 40 -61 40 -22 0 -29 5 -29 20 0 14 -11 22 -40 31 -27
8 -40 18 -40 30 0 10 -8 24 -18 31 -17 13 -42 72 -42 100 0 9 -4 18 -10 20 -5
2 -13 25 -16 52 -6 44 -5 50 17 67 13 10 57 24 98 31 74 12 74 13 93 55 17 40
38 57 38 33 0 -6 12 -15 26 -20 15 -6 35 -21 45 -34 10 -13 30 -27 43 -30 15
-4 26 -14 28 -29 2 -18 10 -23 40 -25 22 -2 47 3 62 13 24 16 25 19 11 38 -8
12 -15 28 -15 37 0 18 -69 132 -87 143 -7 4 -13 16 -13 27 0 10 -9 22 -20 25
-11 3 -20 11 -20 16 0 5 -6 9 -14 9 -8 0 -18 9 -21 20 -3 11 -12 20 -19 20
-14 0 -46 62 -46 89 0 12 -10 21 -26 25 -33 9 -64 -1 -64 -19 0 -8 -9 -19 -19
-25 -11 -5 -22 -23 -26 -39 -3 -16 -13 -32 -21 -35 -23 -9 -18 -85 7 -112 29
-31 19 -100 -16 -106 -28 -6 -33 -3 -62 39 -27 38 -45 143 -41 234 3 70 -5 79
-56 59 l-28 -10 4 -129 c3 -112 6 -132 23 -151 19 -22 19 -22 -5 -41 -29 -22
-49 -24 -85 -7 -20 9 -25 18 -25 49 0 21 -5 41 -11 44 -6 4 -8 14 -5 22 3 8 1
11 -4 8 -6 -4 -10 21 -10 67 0 54 5 84 20 113 11 22 20 50 20 62 0 14 6 23 15
23 22 0 39 76 29 130 -7 36 -14 46 -31 48 -19 3 -23 -1 -23 -23 0 -18 -6 -29
-19 -32 -12 -3 -21 -17 -26 -39 -3 -19 -12 -34 -19 -34 -20 0 -26 -23 -26 -96
0 -36 -4 -64 -10 -64 -5 0 -10 -11 -10 -24 0 -13 -7 -27 -16 -30 -8 -3 -13
-10 -9 -15 3 -5 0 -13 -6 -17 -6 -3 -15 0 -20 7 -12 19 -11 149 1 149 6 0 10
9 10 19 0 11 5 23 10 26 6 3 10 30 10 58 0 36 6 60 20 77 11 14 20 34 20 46 0
11 11 30 25 42 19 17 25 32 25 62 0 52 -22 63 -56 26 -14 -14 -29 -26 -34 -26
-6 0 -9 -3 -9 -7 4 -25 -3 -41 -21 -46 -12 -3 -20 -14 -20 -26 0 -11 -9 -25
-20 -31 -11 -6 -20 -17 -20 -26 0 -8 -11 -20 -25 -26 -14 -6 -25 -15 -25 -19
0 -4 -11 -20 -25 -35 -14 -15 -25 -35 -25 -45 0 -12 -7 -19 -20 -19 -11 0 -20
-7 -20 -15 0 -8 -6 -15 -14 -15 -22 0 -26 58 -6 83 11 13 19 47 22 86 3 44 9
66 20 72 9 5 19 23 23 39 4 17 13 30 21 30 7 0 16 11 20 24 3 13 17 33 30 45
13 11 24 25 24 31 0 5 7 10 15 10 8 0 18 12 21 26 4 14 17 30 30 34 13 5 24
16 24 24 0 9 17 20 42 27 23 6 50 20 59 30 9 10 21 19 28 19 6 0 11 4 11 10 0
5 7 7 15 3 9 -3 21 2 28 10 17 23 68 47 99 47 15 0 39 -11 54 -25z m-753 -53
c10 -9 16 -21 13 -28 -3 -8 1 -11 10 -7 7 3 14 0 14 -6 0 -6 9 -11 20 -11 11
0 21 -6 22 -12 0 -7 2 -20 2 -28 1 -8 8 -14 14 -12 24 5 54 -19 49 -39 -3 -11
-1 -16 5 -13 18 11 27 -19 12 -40 -8 -11 -14 -27 -14 -35 0 -7 -10 -22 -22
-32 -17 -16 -22 -35 -29 -109 -4 -50 -13 -98 -20 -107 -8 -9 -12 -27 -11 -41
2 -13 0 -22 -5 -19 -5 3 -7 -7 -5 -24 2 -16 13 -34 24 -40 13 -7 18 -19 16
-37 -3 -24 0 -27 26 -24 15 2 26 0 23 -5 -7 -11 75 -4 88 8 5 5 17 9 27 9 14
0 18 -8 18 -35 0 -19 5 -35 11 -35 6 0 9 -9 6 -20 -3 -11 0 -23 5 -27 7 -4 8
-1 3 7 -5 9 -4 11 3 6 7 -4 12 -21 12 -38 0 -21 6 -31 20 -35 13 -3 20 -14 20
-29 0 -12 5 -26 10 -29 6 -4 8 -11 5 -16 -4 -5 2 -6 11 -2 13 5 16 3 11 -10
-5 -12 1 -19 18 -23 14 -3 23 -9 20 -13 -2 -4 9 -5 26 -3 27 4 35 -4 30 -31
-1 -5 4 -5 10 -1 8 5 10 2 7 -7 -4 -10 4 -14 31 -14 27 0 36 -4 36 -17 0 -10
6 -23 13 -30 6 -6 12 -9 12 -5 0 4 9 3 21 -4 15 -8 20 -18 16 -35 -2 -13 0
-21 4 -18 11 7 31 -34 23 -48 -4 -7 -3 -8 4 -4 8 5 12 -1 12 -17 0 -29 24 -80
33 -71 4 4 9 -12 13 -35 4 -22 11 -41 15 -41 5 0 25 -16 43 -35 25 -25 43 -35
65 -35 21 0 35 -7 47 -24 8 -14 25 -26 37 -28 12 -2 26 -13 32 -25 7 -18 21
-24 57 -29 26 -4 46 -10 43 -13 -2 -4 10 -5 26 -3 21 3 36 -1 49 -16 10 -11
17 -22 14 -25 -3 -2 7 -2 22 1 20 4 25 2 19 -8 -6 -9 -4 -11 4 -5 13 8 74 -43
66 -55 -2 -4 7 -5 22 -2 24 4 25 2 21 -25 -4 -27 -2 -29 23 -25 19 3 31 -2 42
-19 9 -12 14 -26 11 -31 -3 -4 1 -5 9 -3 18 7 51 -30 44 -49 -4 -9 -1 -18 5
-22 7 -5 8 -2 3 7 -4 8 2 4 14 -9 12 -12 19 -26 16 -31 -3 -5 0 -13 6 -17 8
-5 9 -3 4 6 -5 9 -4 11 4 6 6 -4 8 -12 5 -18 -4 -6 4 -19 17 -29 13 -9 24 -28
24 -41 0 -16 7 -24 23 -26 12 -2 20 -7 17 -12 -7 -12 16 -71 26 -64 5 3 9 0 9
-6 0 -10 -3 -17 -31 -71 -6 -12 -9 -44 -8 -72 2 -40 -1 -52 -12 -51 -11 1 -14
-12 -12 -55 3 -81 5 -90 19 -84 8 3 11 -2 8 -14 -3 -12 10 -34 38 -63 41 -43
72 -104 66 -131 -2 -7 2 -13 9 -14 18 0 24 -10 27 -51 2 -22 9 -40 15 -40 6
-1 16 -2 22 -3 5 0 7 -6 3 -13 -4 -7 -3 -8 5 -4 15 10 43 -19 39 -41 -2 -10 2
-18 9 -18 21 0 24 -13 14 -53 -8 -28 -18 -42 -34 -46 -12 -3 -27 -15 -32 -28
-6 -13 -18 -22 -27 -22 -10 1 -17 -1 -16 -5 0 -3 0 -17 -1 -30 -1 -18 -5 -22
-21 -18 -11 3 -18 1 -14 -4 3 -5 0 -9 -5 -9 -6 0 -11 -9 -11 -20 0 -14 -7 -20
-22 -21 -51 -4 -94 3 -104 17 -6 8 -17 14 -23 14 -7 0 -9 5 -6 10 4 6 3 9 -2
8 -18 -5 -74 12 -68 22 3 6 0 7 -9 4 -9 -3 -16 -2 -16 3 0 5 -28 15 -62 22
-49 9 -95 10 -213 0 -82 -6 -158 -12 -167 -12 -9 -1 -14 -5 -12 -9 3 -4 -4 -8
-15 -8 -11 0 -22 4 -25 9 -3 4 -38 12 -78 17 -97 11 -247 11 -241 0 3 -5 -8
-7 -25 -4 -18 3 -28 0 -26 -6 8 -20 -56 -38 -136 -40 -43 0 -76 -4 -73 -8 2
-5 -1 -8 -6 -8 -6 0 -11 -7 -11 -15 0 -11 -11 -15 -40 -15 -27 0 -43 5 -46 15
-4 8 -18 15 -34 15 -41 0 -134 22 -142 34 -4 6 -4 14 -1 20 3 5 1 6 -5 2 -7
-4 -28 -3 -47 3 -19 5 -33 6 -31 3 8 -14 -23 -45 -39 -38 -9 3 -14 2 -11 -3 3
-4 -15 -11 -41 -15 -62 -8 -95 -8 -89 2 2 4 -11 6 -31 4 -20 -3 -33 -1 -30 4
3 5 -21 8 -53 6 l-57 -4 -7 34 c-11 52 -18 301 -9 295 5 -3 6 15 3 41 -7 58 7
132 28 152 14 14 15 13 2 -5 -12 -17 -12 -18 0 -8 7 7 15 32 17 55 3 24 9 48
15 53 8 7 9 5 3 -5 -5 -8 -4 -12 0 -7 5 4 10 17 12 30 2 12 8 26 13 31 6 6 10
20 10 32 0 12 6 24 14 27 8 3 17 21 21 39 12 58 16 68 31 68 9 0 14 11 14 34
0 18 9 45 20 59 11 14 20 39 20 57 0 17 4 29 8 26 5 -3 7 7 4 22 -2 19 3 33
17 46 11 10 17 24 14 34 -4 8 -2 13 3 9 5 -3 8 12 6 35 -3 26 -1 38 6 34 5 -3
10 0 9 7 -1 31 4 48 12 43 5 -4 7 4 3 16 -3 12 -1 19 4 15 6 -3 8 9 6 30 -3
23 -1 33 6 29 6 -4 8 2 5 13 -8 31 17 162 29 154 6 -3 9 -2 5 3 -3 5 -2 28 3
51 4 27 4 40 -2 37 -6 -4 -9 17 -6 54 1 33 0 58 -3 56 -4 -2 -9 27 -12 64 -3
37 -10 110 -17 162 -6 52 -10 104 -7 117 2 13 0 20 -6 16 -6 -4 -8 4 -5 20 3
16 1 25 -6 24 -6 -1 -10 6 -10 15 1 10 -3 15 -8 12 -6 -4 -9 14 -6 49 1 31 -1
53 -6 50 -5 -4 -7 3 -4 15 3 12 3 21 -1 20 -27 -3 -33 4 -29 41 2 22 0 37 -5
34 -5 -3 -8 12 -7 33 4 76 0 103 -17 120 -14 13 -18 37 -20 103 -1 47 -3 119
-4 159 -1 40 2 76 6 80 5 4 5 0 0 -8 -5 -9 -4 -12 1 -7 4 4 9 18 9 30 0 15 6
22 20 22 15 0 19 7 20 30 0 23 5 30 20 30 15 0 19 6 17 21 -2 15 6 26 30 37
35 18 62 14 91 -11z m2201 -1549 c0 -15 5 -19 25 -15 20 4 23 2 18 -12 -4 -10
-3 -15 3 -11 6 3 10 -1 10 -9 0 -8 8 -21 19 -28 10 -7 20 -22 22 -33 3 -11 14
-21 26 -23 14 -2 19 -8 16 -21 -3 -11 5 -24 21 -35 25 -16 39 -55 14 -40 -7 4
-8 3 -4 -5 4 -6 -2 -24 -13 -40 -12 -16 -21 -37 -21 -48 0 -10 -9 -24 -20 -31
-15 -9 -20 -23 -20 -57 0 -27 -9 -63 -21 -88 -12 -23 -21 -43 -20 -44 5 -10
-1 -103 -6 -100 -5 3 -6 -20 -5 -50 3 -43 1 -54 -9 -48 -8 5 -10 4 -5 -3 4 -7
4 -18 -1 -24 -11 -18 -14 -34 -23 -112 -4 -40 -13 -72 -21 -77 -8 -5 -9 -9 -4
-9 6 0 2 -5 -7 -11 -10 -5 -18 -19 -18 -29 0 -11 -6 -20 -13 -20 -24 0 -77
-31 -77 -45 0 -8 -15 -17 -36 -21 -19 -3 -41 -15 -47 -25 -10 -15 -24 -19 -75
-19 -46 0 -64 4 -68 15 -3 8 -21 24 -40 35 -18 12 -33 24 -32 28 3 12 -26 82
-34 82 -14 0 -8 38 7 44 11 4 15 -1 15 -18 0 -35 20 -86 34 -86 17 0 48 -35
39 -44 -4 -4 1 -4 11 0 14 5 17 4 12 -4 -5 -9 8 -12 46 -12 67 0 128 17 128
35 0 7 10 17 23 21 12 4 27 15 34 24 7 10 25 23 41 29 21 9 31 22 40 57 7 24
12 55 12 67 0 13 9 40 20 62 15 29 20 59 20 118 0 43 4 86 10 96 5 10 15 52
21 92 6 41 18 82 26 91 9 9 18 38 20 63 4 27 11 45 18 45 17 0 25 23 25 76 0
37 -3 44 -20 44 -15 0 -20 7 -20 25 0 18 -5 25 -20 25 -15 0 -20 7 -20 25 0
14 -5 25 -11 25 -5 0 -8 4 -5 8 2 4 -7 7 -20 7 -24 -2 -26 -5 -29 -76 -2 -41
-6 -87 -10 -104 -3 -16 -10 -72 -15 -124 -5 -51 -15 -101 -23 -110 -7 -9 -20
-36 -27 -61 -8 -25 -20 -48 -27 -53 -12 -7 -29 -71 -22 -83 2 -3 -9 -12 -24
-21 -18 -9 -27 -20 -23 -29 4 -9 -4 -19 -19 -26 -14 -6 -26 -15 -26 -20 -1 -4
-2 -11 -3 -15 0 -5 -11 -18 -23 -30 -13 -13 -23 -27 -23 -33 0 -5 -6 -10 -13
-10 -8 0 -34 -14 -60 -31 -26 -17 -52 -27 -58 -23 -8 4 -9 3 -5 -4 4 -7 1 -12
-8 -12 -10 0 -16 9 -16 24 0 22 6 26 44 31 25 4 47 13 50 21 3 7 23 22 46 34
22 11 38 25 34 31 -3 5 5 21 18 34 12 13 30 31 38 41 26 31 80 144 80 166 0
12 3 18 7 15 11 -12 33 43 44 111 5 37 15 69 21 73 6 4 12 62 15 145 5 176 11
226 26 221 7 -2 12 -13 11 -24z m266 -279 c0 -51 -3 -64 -15 -64 -9 0 -18 -12
-21 -30 -4 -19 -13 -30 -24 -30 -14 0 -18 -13 -23 -82 -4 -55 -10 -86 -20 -93
-10 -7 -16 -39 -21 -104 -6 -91 -18 -126 -40 -118 -8 3 -10 -7 -8 -31 4 -26 1
-33 -8 -27 -9 5 -11 4 -6 -4 10 -15 -3 -53 -15 -46 -5 4 -9 26 -9 51 0 25 4
43 9 40 4 -3 6 6 3 19 -2 14 2 32 9 41 9 10 16 61 20 142 5 99 10 128 23 137
9 7 16 24 16 39 0 15 4 25 9 22 4 -3 6 7 3 21 -4 21 2 32 24 51 16 13 23 21
17 18 -9 -5 -11 -2 -7 8 3 9 11 13 17 9 5 -3 7 -1 3 5 -11 18 12 65 30 58 9
-3 12 -2 9 5 -9 14 3 42 15 34 5 -3 10 -35 10 -71z m50 -165 c0 -18 10 -51 22
-75 12 -24 20 -46 17 -48 -2 -2 -29 -6 -59 -7 l-55 -4 -3 69 c-4 88 0 96 43
96 33 0 35 -2 35 -31z m-4213 -231 c-4 -14 1 -18 19 -18 14 0 27 -7 31 -17 4
-10 15 -29 25 -42 10 -13 18 -32 18 -41 0 -10 9 -20 20 -23 12 -3 20 -14 20
-25 0 -11 6 -22 14 -25 8 -3 20 -18 28 -34 8 -18 22 -29 39 -31 15 -2 32 -13
39 -27 7 -13 21 -26 32 -28 11 -3 22 -15 25 -26 3 -12 13 -21 22 -21 9 0 27
-10 41 -21 39 -31 129 -89 140 -89 20 0 60 -24 60 -36 0 -11 56 -34 83 -34 5
0 23 -11 41 -25 33 -25 34 -25 222 -23 186 3 189 3 199 26 13 29 49 26 53 -5
2 -13 8 -23 14 -23 7 0 9 -16 5 -43 -4 -26 -1 -58 8 -82 8 -22 14 -61 15 -86
0 -33 6 -51 20 -64 11 -10 20 -31 20 -47 0 -15 5 -28 10 -28 6 0 10 -6 10 -12
0 -7 24 -36 53 -64 28 -28 52 -56 52 -62 0 -18 -44 -53 -78 -63 -44 -12 -133
-11 -217 3 -56 10 -78 10 -113 -1 -23 -7 -114 -16 -202 -20 -123 -5 -167 -10
-186 -22 -13 -9 -39 -20 -57 -24 -32 -7 -148 8 -208 26 -18 5 -85 12 -149 14
-65 2 -121 8 -124 13 -3 4 -23 21 -43 36 -21 16 -38 34 -38 42 0 7 -11 21 -25
30 -21 14 -25 24 -25 69 0 52 14 80 74 148 9 9 16 32 16 50 0 17 9 52 20 76
18 38 20 65 20 222 0 108 -4 180 -10 184 -5 3 -10 15 -10 26 0 10 -4 19 -9 19
-4 0 -11 34 -13 75 -3 50 -10 81 -22 93 -16 18 -23 102 -9 115 11 12 35 -16
30 -35z m3313 -85 c7 -24 17 -43 22 -43 5 0 6 -5 2 -12 -4 -6 -3 -8 3 -5 6 4
19 -1 29 -9 10 -9 13 -12 5 -8 -9 4 -12 3 -8 -3 7 -12 73 -1 88 14 4 4 9 20
11 36 2 15 7 27 11 27 4 0 12 0 18 0 5 0 8 -4 5 -8 -2 -4 12 -6 32 -4 35 4 36
3 20 -14 -9 -9 -27 -18 -40 -19 -15 -1 -23 -8 -23 -21 0 -15 -8 -20 -37 -22
-32 -3 -38 -7 -38 -26 0 -27 -24 -51 -40 -41 -6 3 -8 10 -5 15 3 4 -3 7 -13 6
-10 0 -18 7 -20 20 -2 12 -11 24 -21 27 -22 5 -32 48 -24 107 4 25 7 41 8 35
2 -5 8 -29 15 -52z m308 -612 c2 -32 0 -42 -10 -38 -7 2 -13 10 -12 18 1 8 -9
15 -23 15 -14 1 -23 -4 -23 -13 0 -8 -4 -11 -10 -8 -6 3 -7 -1 -4 -9 5 -14 -9
-21 -37 -18 -3 1 -4 -11 -1 -25 3 -17 1 -24 -6 -19 -6 4 -8 -1 -5 -13 7 -26
-15 -64 -33 -57 -8 3 -13 2 -10 -3 7 -10 -18 -34 -26 -25 -3 3 -9 0 -14 -7 -4
-8 -3 -10 4 -5 7 4 12 4 12 1 0 -3 -16 -13 -35 -21 -19 -8 -35 -21 -35 -29 0
-19 2 -19 45 5 46 26 49 25 20 -4 -25 -26 -47 -30 -128 -28 -40 2 -50 6 -54
22 -3 11 -14 20 -24 20 -10 0 -21 5 -24 10 -3 6 -14 10 -23 10 -17 0 -59 39
-55 51 1 3 -9 4 -22 1 -32 -6 -73 21 -77 50 -2 14 -12 24 -28 28 -21 5 -17 8
23 14 67 10 128 -1 134 -25 4 -12 18 -21 42 -25 79 -13 112 -25 104 -37 -5 -9
-3 -9 8 0 8 6 40 19 72 28 43 12 57 21 57 35 0 11 9 24 20 30 11 6 20 20 20
30 0 13 7 20 20 20 15 0 22 8 26 29 5 22 10 27 25 24 10 -3 19 -1 19 3 0 5 15
9 32 8 31 -1 33 -3 36 -43z m-1893 -154 c1 -1 6 -13 13 -27 7 -14 14 -35 14
-46 2 -16 7 -20 22 -16 11 3 17 1 13 -5 -4 -5 6 -8 24 -5 21 3 29 0 29 -11 0
-15 -26 -31 -38 -23 -4 2 -7 -6 -7 -19 0 -13 4 -21 8 -18 5 3 15 -3 22 -13 18
-23 20 -68 3 -58 -6 4 -8 3 -5 -4 8 -12 -2 -42 -14 -42 -5 0 -9 9 -9 20 0 13
-7 20 -20 20 -18 0 -20 7 -20 65 0 37 -4 65 -10 65 -5 0 -10 7 -10 15 0 9 -12
18 -30 21 -16 4 -28 9 -26 13 2 3 -8 6 -22 6 -15 0 -27 5 -27 10 0 6 5 9 12 9
7 -1 12 1 12 5 -1 3 2 16 6 29 6 19 12 22 34 17 14 -4 26 -7 26 -8z m1923 -52
c-3 -13 -2 -22 3 -20 11 7 17 -22 18 -78 0 -26 3 -52 6 -57 11 -18 -7 -80 -22
-80 -10 0 -13 6 -9 16 4 10 2 13 -6 8 -7 -5 -9 -2 -5 9 4 12 2 14 -10 10 -13
-5 -15 -2 -11 15 4 14 2 20 -4 16 -6 -4 -9 14 -6 49 1 30 0 53 -4 50 -5 -2 -8
5 -8 17 0 12 4 18 10 15 6 -3 7 1 4 9 -9 25 3 46 27 46 17 0 20 -5 17 -25z
m-3838 -74 c5 -11 10 -28 10 -39 0 -11 9 -22 20 -25 12 -3 20 -14 20 -26 0
-12 5 -21 11 -21 5 0 7 -5 3 -12 -4 -6 -3 -8 4 -5 19 13 43 -4 37 -27 -2 -11
-2 -15 1 -8 3 6 10 12 15 12 6 0 8 -4 4 -10 -3 -5 9 -13 27 -18 18 -5 32 -14
31 -20 -2 -7 4 -9 14 -5 11 4 14 3 9 -5 -4 -7 -1 -12 9 -12 9 0 14 -3 12 -7
-3 -5 11 -8 31 -8 124 -2 193 -6 189 -12 -3 -5 17 -6 44 -5 27 2 49 0 49 -5 0
-17 135 -36 202 -29 35 4 68 7 75 8 6 1 9 7 6 14 -6 15 50 22 119 13 26 -3 45
-2 43 1 -9 14 239 21 335 9 70 -8 128 -9 214 -1 107 9 121 13 146 37 16 15 33
25 38 21 5 -3 7 5 5 18 -4 17 1 27 15 35 27 14 32 6 20 -36 -10 -36 -42 -72
-65 -73 -6 0 -18 -9 -26 -19 -13 -19 -30 -20 -428 -23 -332 -2 -419 -6 -441
-17 -16 -8 -28 -19 -28 -25 0 -7 -33 -11 -95 -11 -52 0 -95 4 -95 8 0 23 -82
40 -218 45 -133 5 -144 7 -165 28 -12 13 -27 24 -32 24 -6 0 -22 14 -37 30
-17 19 -36 30 -53 30 -20 0 -26 4 -21 16 3 8 2 12 -4 9 -6 -3 -10 1 -10 9 0 9
-9 16 -20 16 -16 0 -20 7 -20 30 0 17 -5 30 -11 30 -5 0 -7 4 -4 10 4 6 -1 7
-11 3 -13 -5 -16 -3 -11 9 6 16 -20 34 -32 22 -3 -3 -6 -37 -5 -76 0 -54 4
-73 17 -83 9 -7 17 -19 17 -26 0 -26 84 -89 119 -89 10 0 30 -9 45 -21 24 -19
111 -37 179 -39 10 0 15 -4 12 -10 -3 -5 0 -7 9 -4 8 3 27 -1 43 -9 15 -8 71
-20 123 -26 52 -7 97 -16 98 -22 2 -5 9 -9 17 -9 7 0 18 -7 25 -15 7 -9 19
-14 25 -11 7 2 16 1 21 -4 5 -5 57 -5 117 -2 59 4 107 3 107 -2 0 -4 49 -7
109 -4 86 2 113 7 128 21 11 9 24 17 30 17 6 0 13 5 15 11 2 7 74 13 197 18
162 7 196 11 206 24 6 9 36 21 66 28 54 11 119 35 119 45 0 3 -4 2 -10 -1 -23
-14 -8 3 23 25 17 13 27 17 20 9 -11 -14 -13 -19 -13 -41 0 -13 -44 -38 -67
-38 -7 0 -13 -8 -13 -18 0 -10 -8 -18 -17 -19 -71 -5 -123 -17 -123 -30 0 -8
-5 -11 -11 -8 -6 4 -16 -1 -23 -10 -11 -15 -37 -18 -182 -23 -151 -4 -172 -7
-199 -26 -29 -20 -39 -21 -353 -20 -320 1 -329 2 -394 35 -10 5 -40 9 -67 9
-44 0 -49 3 -55 25 -4 14 -11 23 -16 20 -6 -3 -10 -1 -10 6 0 7 -13 10 -35 7
-19 -2 -35 0 -35 5 0 5 -9 7 -21 4 -15 -4 -23 1 -31 19 -7 14 -17 23 -25 20
-7 -3 -13 -2 -13 3 0 5 -16 12 -37 16 -21 4 -45 17 -55 31 -11 13 -26 24 -34
24 -8 0 -14 7 -14 15 0 8 -8 19 -19 24 -12 7 -20 26 -24 62 -4 29 -11 57 -17
63 -5 5 -10 27 -10 47 0 63 84 117 110 70z m-146 -161 c-5 -5 -25 -10 -44 -12
-27 -2 -36 -8 -38 -25 -2 -12 -12 -25 -23 -28 -12 -4 -19 -15 -19 -31 0 -17
-6 -24 -19 -24 -12 0 -21 -9 -25 -24 -3 -14 -15 -28 -26 -31 -11 -3 -20 -13
-20 -21 0 -18 -25 -46 -34 -37 -3 4 -6 1 -6 -6 0 -7 -4 -9 -10 -6 -5 3 -10 -1
-10 -9 0 -9 -4 -16 -10 -16 -5 0 -10 -6 -10 -14 0 -17 -39 -68 -49 -62 -4 3
-5 -10 -3 -27 2 -22 -3 -39 -18 -54 -11 -13 -17 -23 -13 -23 4 -1 -5 -8 -21
-16 -22 -12 -31 -13 -40 -4 -8 9 -8 14 2 17 6 3 12 11 12 19 0 8 9 14 20 14
16 0 20 9 26 59 5 45 10 58 23 57 10 -1 17 8 19 27 2 19 9 27 23 27 13 0 19 7
19 24 0 22 29 44 51 38 3 0 4 9 2 22 -5 23 19 42 38 31 5 -4 6 1 3 10 -8 19
15 48 32 41 9 -3 11 0 7 11 -4 10 -2 14 4 10 5 -3 9 4 9 16 -1 16 5 22 20 21
14 0 20 4 17 13 -8 20 21 41 63 45 39 3 65 -15 48 -32z m2026 -198 c-7 -30
-15 -40 -25 -36 -10 4 -15 0 -15 -14 0 -28 -26 -52 -57 -52 -14 0 -31 -7 -37
-16 -17 -22 -153 -40 -208 -27 -34 9 -37 11 -15 12 15 0 27 6 27 12 0 5 4 8 9
4 5 -3 41 -2 80 1 61 6 70 9 73 28 2 15 15 25 43 34 24 7 44 21 50 35 6 13 18
22 32 21 12 0 21 2 20 5 0 3 3 17 7 30 14 41 29 8 16 -37z m-2465 -292 c0 -9
-24 -19 -67 -28 -61 -13 -68 -17 -68 -38 0 -17 -6 -24 -20 -24 -11 0 -20 -5
-20 -11 0 -5 -5 -7 -12 -3 -7 5 -8 3 -4 -5 9 -14 -24 -42 -38 -34 -5 4 -6 1
-2 -5 5 -8 0 -12 -14 -12 -14 0 -20 -5 -18 -17 2 -14 -4 -18 -29 -18 -17 0
-30 -2 -27 -4 7 -7 -46 -51 -62 -51 -23 0 -11 25 14 28 16 2 22 10 22 28 0 16
6 24 16 24 9 0 23 8 31 18 8 9 11 11 7 3 -4 -9 -3 -12 4 -7 6 4 9 12 6 19 -6
16 39 42 58 34 11 -4 13 3 10 25 -4 29 -3 30 26 26 17 -2 29 -1 27 3 -3 4 2
10 11 13 8 3 13 10 10 15 -7 11 38 29 84 34 47 5 55 3 55 -13z m4301 -67 c-4
-9 -2 -11 6 -7 7 5 9 0 6 -14 -4 -12 -2 -19 3 -16 5 3 12 -3 16 -13 4 -10 10
-20 15 -23 4 -4 9 -22 10 -42 2 -20 8 -36 13 -35 6 1 9 -6 9 -15 -1 -10 2 -16
6 -13 13 8 19 -24 17 -84 -3 -69 -18 -81 -79 -58 -38 15 -44 21 -46 49 -1 17
-10 37 -19 43 -10 7 -14 19 -10 29 4 10 3 15 -3 11 -8 -5 -12 190 -4 206 2 3
17 4 34 1 22 -3 30 -9 26 -19z m-2950 -958 c4 -8 13 -15 21 -15 9 0 13 -6 10
-14 -4 -10 -1 -13 9 -9 11 4 14 -5 14 -41 0 -40 3 -46 21 -46 13 0 19 -5 16
-13 -3 -8 5 -12 22 -13 14 0 54 -1 88 -2 l61 -2 -11 -37 c-12 -40 -14 -43 -51
-85 -23 -26 -29 -27 -111 -26 -60 1 -89 -3 -95 -11 -4 -7 -11 -11 -16 -9 -4 1
-14 -26 -21 -62 -21 -108 -23 -112 -38 -106 -9 3 -12 0 -8 -10 3 -9 -1 -14
-12 -14 -9 0 -19 9 -22 20 -3 11 -14 20 -24 20 -13 0 -19 7 -19 21 0 12 -11
43 -24 69 -14 27 -28 70 -32 97 -8 56 -30 100 -55 106 -11 3 -20 19 -25 42 -8
42 3 55 49 55 16 0 27 5 27 13 0 20 45 37 96 37 38 0 47 4 51 21 4 12 11 18
20 15 8 -3 11 -1 8 4 -3 6 5 10 20 10 14 0 28 -7 31 -15z m-168 -745 c18 0 46
-35 38 -48 -2 -4 18 -5 45 -4 l49 4 0 -42 c0 -22 -4 -39 -8 -36 -4 2 -8 -4 -8
-14 0 -10 4 -16 8 -14 4 3 8 -1 8 -9 0 -16 -27 -30 -41 -21 -5 3 -9 16 -9 30
0 21 -4 24 -38 24 -24 0 -39 5 -40 13 -3 41 -7 55 -14 51 -5 -3 -11 8 -14 25
-4 17 -10 31 -15 31 -14 0 -11 28 4 33 6 2 13 -2 15 -10 2 -7 11 -13 20 -13z
m-956 -165 c-3 -20 0 -25 17 -25 11 0 21 -6 22 -12 1 -7 2 -20 3 -28 2 -8 3
-23 4 -32 1 -10 9 -18 18 -18 10 0 14 -5 10 -16 -3 -8 -2 -12 4 -9 6 3 10 1
10 -5 0 -7 7 -27 16 -46 16 -32 16 -39 0 -98 -21 -77 -15 -241 9 -263 4 -5 5
-1 0 7 -5 10 -5 12 2 5 16 -16 36 -102 28 -116 -5 -8 -4 -10 3 -5 7 4 13 4 13
-1 1 -4 3 -21 6 -38 2 -16 5 -62 6 -101 1 -40 6 -69 11 -66 5 3 7 -44 4 -111
-5 -114 -17 -155 -41 -140 -5 3 -7 2 -4 -4 9 -14 -15 -64 -28 -60 -5 2 -10 11
-10 20 0 8 -4 19 -9 24 -5 5 -6 2 -1 -6 5 -9 4 -12 -3 -7 -7 4 -12 36 -12 81
0 49 -4 75 -12 77 -13 5 -49 150 -51 210 -1 20 -5 34 -8 32 -3 -2 -4 19 -1 47
3 34 1 54 -7 58 -7 4 -13 17 -14 29 0 11 -5 18 -9 16 -11 -7 -21 42 -12 57 4
7 3 9 -3 6 -16 -10 -35 19 -39 56 -2 17 -6 53 -9 79 -6 50 12 141 26 133 4 -3
14 13 20 36 7 22 19 43 26 46 7 3 13 14 13 25 0 10 4 17 8 14 4 -2 6 11 4 31
-3 25 -10 37 -24 41 -15 4 -19 11 -16 33 3 15 1 26 -4 23 -4 -3 -8 6 -8 20 0
21 5 26 24 26 19 0 22 -4 18 -25z"/>
<path d="M4477 9213 c-40 -55 -59 -123 -34 -123 9 0 31 25 49 55 32 53 34 55
76 55 34 0 66 -12 133 -47 82 -45 89 -47 105 -31 18 17 12 38 -12 38 -8 0 -51
20 -97 44 -50 27 -102 47 -133 51 l-51 6 -36 -48z"/>
<path d="M4499 8875 c-71 -24 -99 -53 -99 -101 0 -19 -5 -53 -11 -76 -22 -86
26 -128 147 -128 72 0 165 30 200 65 13 13 25 40 29 61 13 82 13 81 55 88 22
3 40 11 40 16 0 6 11 15 25 20 30 11 24 40 -9 40 -12 0 -42 7 -67 15 -24 7
-90 15 -147 17 -82 2 -114 -1 -163 -17z"/>
<path d="M4174 8626 c-3 -9 -4 -27 0 -39 11 -44 172 -267 326 -452 114 -137
169 -241 169 -320 0 -102 -22 -148 -78 -162 -26 -6 -142 12 -208 33 -43 14
-98 10 -109 -8 -4 -6 4 -21 18 -34 18 -19 48 -29 126 -44 181 -35 238 -23 275
57 17 39 22 65 21 138 -1 137 -9 152 -231 425 -175 214 -265 346 -267 388 -1
30 -32 43 -42 18z"/>
<path d="M3803 8509 c-26 -28 -70 -92 -96 -142 -45 -85 -48 -96 -43 -142 6
-47 4 -52 -26 -76 -39 -33 -43 -82 -9 -110 34 -28 61 -11 101 63 56 105 64
111 135 104 144 -16 186 0 195 76 5 41 -8 169 -23 230 -8 30 -59 48 -135 48
-48 0 -53 -3 -99 -51z"/>
<path d="M4672 7421 c-30 -19 -63 -31 -102 -35 -32 -4 -90 -16 -129 -26 -111
-31 -215 -24 -264 19 -16 14 -21 14 -45 0 -17 -9 -28 -25 -30 -41 -3 -25 3
-30 65 -59 117 -54 203 -78 312 -91 102 -11 160 -8 190 11 12 8 13 19 4 68
-14 71 -2 88 60 88 33 0 42 4 45 18 3 17 -42 77 -57 77 -3 0 -26 -13 -49 -29z"/>
</g>
</svg>
