<?xml version="1.0" standalone="no"?>
<!DOCTYPE svg PUBLIC "-//W3C//DTD SVG 20010904//EN"
 "http://www.w3.org/TR/2001/REC-SVG-20010904/DTD/svg10.dtd">
<svg version="1.0" xmlns="http://www.w3.org/2000/svg"
 width="1270.000000pt" height="1093.000000pt" viewBox="0 0 1270.000000 1093.000000"
 preserveAspectRatio="xMidYMid meet">
<metadata>
Created by potrace 1.16, written by Peter Selinger 2001-2019
</metadata>
<g transform="translate(0.000000,1093.000000) scale(0.100000,-0.100000)"
fill="#000000" stroke="none">
<path d="M9528 10149 c-15 -8 -18 -25 -18 -106 0 -73 4 -101 16 -114 8 -9 18
-42 21 -73 3 -31 10 -56 14 -56 5 0 9 -20 9 -45 0 -25 -4 -45 -10 -45 -5 0
-10 -9 -10 -20 0 -12 -10 -39 -21 -62 -19 -37 -20 -48 -10 -92 5 -28 16 -88
22 -133 7 -46 16 -83 21 -83 4 0 8 -49 8 -110 l0 -110 -137 -1 c-76 -1 -297 0
-491 1 -264 1 -356 -1 -367 -10 -8 -7 -28 -10 -45 -8 -16 3 -30 1 -30 -4 0 -9
-84 -11 -93 -1 -4 3 -25 6 -47 6 -22 0 -43 -3 -47 -6 -3 -4 -15 -7 -25 -7 -14
0 -18 -8 -18 -35 0 -28 4 -35 19 -35 10 0 32 -3 48 -6 21 -4 35 -1 47 11 9 9
23 14 32 11 8 -3 12 -2 9 4 -9 15 58 12 80 -4 34 -23 71 -26 465 -31 401 -4
424 -7 459 -49 7 -8 21 -12 33 -8 31 8 48 -23 48 -86 0 -68 -18 -133 -42 -150
-24 -17 -23 -43 2 -49 12 -3 25 -22 35 -54 9 -27 21 -51 26 -54 15 -10 10 -55
-6 -61 -11 -5 -15 -21 -15 -60 0 -41 4 -54 15 -54 12 0 15 -13 15 -55 0 -31
-7 -72 -15 -92 -18 -44 -22 -352 -4 -370 8 -8 6 -17 -7 -32 -18 -20 -27 -21
-206 -21 -130 0 -189 -3 -194 -12 -4 -6 -3 -8 3 -5 16 10 75 -4 70 -17 -3 -7
10 -10 41 -7 24 2 42 -1 39 -5 -6 -11 242 -8 252 2 3 4 0 4 -8 -1 -10 -6 -12
-4 -7 4 5 7 15 10 23 7 8 -3 11 -2 8 3 -3 5 4 12 15 16 11 3 22 17 25 31 17
81 18 82 26 34 5 -25 13 -46 19 -48 5 -2 10 -12 10 -22 0 -10 9 -22 20 -25 11
-4 18 -9 16 -13 -2 -4 6 -8 17 -9 75 -6 118 -17 113 -29 -3 -8 0 -11 9 -7 19
7 186 -17 181 -26 -3 -4 12 -5 32 -3 28 2 33 1 22 -7 -31 -22 15 -31 166 -31
139 0 152 -2 169 -20 l19 -21 -215 4 c-229 5 -287 11 -296 33 -4 11 -30 14
-109 14 -98 0 -104 -1 -104 -21 0 -13 -10 -23 -30 -30 -16 -6 -30 -15 -30 -21
0 -5 -3 -7 -7 -5 -5 3 -7 -29 -5 -70 3 -56 1 -73 -8 -68 -7 4 -10 18 -7 31 2
13 0 21 -4 18 -5 -3 -9 7 -9 21 0 14 4 24 8 21 5 -3 4 22 -1 55 -8 47 -15 63
-31 70 -32 13 -195 28 -247 22 -29 -3 -49 -1 -53 6 -4 6 -16 11 -26 11 -10 0
-22 5 -26 12 -5 7 -3 8 6 3 7 -5 11 -4 7 1 -3 5 -75 9 -160 9 -85 0 -154 2
-152 5 2 3 -5 6 -15 6 -10 0 -16 -4 -14 -8 3 -4 -45 -8 -106 -8 -61 0 -109 3
-107 8 7 11 -516 3 -527 -8 -18 -18 -113 -9 -102 9 2 3 -39 5 -91 3 -58 -2
-93 0 -89 6 3 6 -28 9 -80 7 -47 -1 -125 1 -174 4 -48 3 -86 3 -84 -1 3 -5 -6
-8 -20 -8 -16 0 -26 6 -26 15 0 10 -10 15 -31 15 -16 0 -28 4 -25 9 7 11 -77
-9 -85 -21 -8 -13 -164 -23 -156 -11 5 7 -1 9 -15 5 -14 -3 -19 -1 -14 6 3 6
1 14 -5 18 -8 5 -9 3 -4 -6 6 -10 4 -12 -11 -6 -10 4 -56 10 -101 13 -45 3
-81 9 -79 12 2 3 -24 5 -57 3 -41 -2 -57 1 -47 7 16 9 231 20 225 11 -2 -3 5
-6 15 -6 10 0 16 4 14 8 -3 4 56 8 130 8 84 0 136 4 136 10 0 6 -36 10 -87 11
-49 0 -124 4 -168 9 -44 4 -129 13 -188 19 -60 6 -117 16 -127 21 -17 9 -19
30 -22 302 -4 279 -5 295 -26 335 -28 53 -27 54 4 120 23 50 24 56 10 72 -9
10 -16 24 -16 32 0 8 -4 19 -9 24 -5 6 -11 43 -14 83 -6 103 -8 102 174 102
83 0 148 4 145 9 -3 4 14 14 37 22 32 10 139 13 443 15 414 2 449 5 442 42 -2
9 -14 19 -28 20 -14 2 -29 8 -34 13 -6 5 -30 9 -55 9 -26 0 -66 5 -91 11 -27
7 -227 12 -505 14 -577 4 -525 2 -525 20 0 8 -4 15 -10 15 -13 0 -13 102 0
169 14 73 15 630 1 644 -8 8 -18 7 -36 -3 -21 -11 -25 -20 -25 -61 0 -26 -4
-51 -10 -54 -14 -8 -13 -105 1 -105 7 0 9 -21 5 -62 -3 -35 -5 -67 -5 -73 7
-172 12 -231 21 -236 5 -4 14 -53 18 -110 7 -88 6 -107 -7 -121 -9 -10 -25
-18 -35 -18 -11 0 -29 -5 -41 -12 -12 -7 -65 -13 -117 -14 -52 -1 -142 -7
-200 -14 -58 -6 -158 -15 -224 -19 -109 -7 -120 -9 -139 -32 -19 -24 -20 -24
-211 -24 -105 0 -197 -4 -203 -8 -21 -14 -15 -37 10 -37 12 0 30 -9 40 -20 21
-24 83 -27 114 -5 30 21 195 36 259 23 100 -20 434 6 434 34 0 5 52 8 116 8
107 0 116 -1 121 -20 3 -13 14 -20 29 -20 12 0 26 -5 30 -12 13 -20 16 -289
10 -718 -5 -377 0 -337 -38 -346 -18 -4 -292 -8 -609 -8 -470 -1 -579 -4 -592
-15 -24 -19 -159 -11 -184 11 -10 9 -27 18 -37 19 -18 4 -19 16 -23 167 -2
133 -1 162 11 162 8 0 17 8 21 18 9 24 18 192 21 419 3 191 10 233 39 233 13
0 35 57 35 90 -1 28 -25 47 -68 55 -35 6 -47 3 -63 -11 -24 -22 -116 -24 -524
-11 -201 7 -269 12 -300 25 -32 13 -95 17 -312 21 -202 5 -275 9 -285 19 -18
18 -23 208 -9 377 11 126 23 182 52 238 10 19 -1 68 -26 117 -7 14 -16 42 -20
63 -6 33 -11 37 -36 37 -16 0 -30 -3 -30 -7 -1 -5 -3 -28 -4 -53 -5 -103 -26
-254 -37 -267 -13 -16 -15 -236 -3 -364 9 -101 -8 -144 -63 -153 -53 -8 -162
-7 -162 2 0 4 -16 6 -35 4 -19 -2 -42 1 -50 8 -8 6 -27 10 -42 9 -15 -2 -35 1
-43 6 -37 24 -704 28 -755 5 -16 -7 -35 -12 -42 -11 -6 1 -14 -3 -18 -9 -10
-17 -81 -12 -96 7 -11 13 -14 71 -14 277 0 208 -3 265 -14 282 l-14 21 -43
-21 c-27 -13 -45 -29 -49 -44 -3 -12 -5 -132 -5 -265 1 -133 -2 -250 -5 -260
-7 -15 -32 -17 -289 -19 -154 -2 -321 -2 -371 0 -106 3 -198 -6 -190 -19 4 -5
1 -9 -5 -9 -6 0 -8 -5 -5 -10 4 -6 3 -10 -2 -9 -16 4 -43 -13 -43 -28 0 -8 19
-23 43 -33 40 -18 70 -19 437 -18 l393 0 17 -22 c11 -15 19 -51 24 -105 5 -69
2 -93 -15 -146 -24 -71 -43 -340 -27 -371 11 -23 9 -200 -4 -351 -4 -37 -28
-54 -89 -62 -27 -4 -53 -14 -57 -22 -7 -11 -24 -14 -74 -11 -49 2 -64 0 -61
-9 3 -7 18 -13 35 -13 16 0 27 -3 25 -7 -3 -5 17 -8 43 -8 26 0 46 4 43 9 -3
4 17 7 45 5 27 -2 48 -1 46 2 -4 7 31 37 64 57 33 19 69 15 86 -10 18 -25 21
-42 6 -33 -6 3 -7 -1 -4 -10 8 -20 -15 -67 -29 -58 -6 3 -7 1 -3 -5 3 -6 1
-14 -4 -17 -15 -9 -62 3 -55 15 3 5 0 12 -6 16 -8 5 -9 3 -4 -6 6 -10 4 -11
-11 -5 -31 13 -165 25 -219 20 -27 -3 -98 -2 -157 2 -58 5 -104 5 -102 1 3 -5
-63 -8 -146 -8 -83 0 -149 3 -147 8 3 4 -10 7 -28 7 -18 0 -31 -3 -29 -6 7
-12 -86 -14 -124 -4 -36 11 -37 11 -14 24 17 9 83 11 265 8 133 -3 259 -8 280
-12 42 -8 107 1 107 15 0 6 -27 10 -59 10 -35 0 -63 5 -67 12 -5 7 -2 8 7 3 8
-5 11 -4 6 1 -4 4 -23 7 -42 6 -18 -2 -36 1 -39 6 -8 14 -190 14 -243 0 -32
-8 -47 -7 -57 1 -21 18 -135 19 -145 2 -6 -9 -16 -11 -27 -7 -10 4 -15 4 -11
0 4 -4 0 -16 -9 -25 -14 -16 -15 -23 -4 -50 18 -43 98 -67 127 -38 8 8 131 12
405 13 333 1 398 -1 423 -14 l30 -15 6 -435 c4 -239 7 -448 7 -464 1 -15 -3
-37 -9 -47 -9 -18 -27 -19 -332 -20 -177 0 -376 -4 -442 -8 -66 -3 -145 -3
-175 1 -30 4 -67 5 -83 2 -25 -5 -27 -9 -27 -55 l0 -49 160 0 c106 0 160 4
160 11 0 5 4 7 10 4 6 -3 7 1 4 9 -5 14 9 16 111 16 64 0 114 -4 111 -8 -3 -5
14 -10 37 -11 71 -6 118 -1 111 11 -3 4 76 8 175 8 152 0 180 -2 175 -14 -3
-8 4 -24 16 -36 l21 -21 -20 -34 c-11 -20 -16 -37 -10 -40 13 -9 11 -62 -3
-85 -11 -17 -10 -22 2 -30 19 -12 21 -163 3 -181 -17 -17 -17 -136 0 -142 9
-4 9 -6 0 -6 -17 -1 -16 -41 2 -65 11 -15 13 -36 8 -91 -3 -40 -2 -102 1 -138
7 -57 10 -67 27 -67 10 0 19 -5 19 -11 0 -6 -7 -8 -17 -5 -10 4 -14 4 -10 0 4
-4 -3 -12 -16 -18 -12 -6 -23 -21 -25 -32 -4 -31 -45 -34 -398 -34 -203 0
-312 -4 -331 -11 -15 -7 -38 -11 -50 -11 -11 1 -24 -5 -27 -13 -4 -11 -24 -15
-83 -15 -91 -1 -146 -11 -168 -34 -21 -21 -127 -21 -215 0 -36 8 -76 12 -90 9
-50 -13 -85 -65 -74 -109 4 -18 11 -22 34 -18 23 3 32 -2 46 -24 10 -16 23
-32 28 -36 28 -20 533 -27 992 -13 l291 8 5 -26 c5 -28 -20 -57 -50 -57 -9 0
-25 -14 -34 -30 -9 -17 -24 -30 -32 -30 -9 0 -18 -10 -22 -22 -3 -13 -27 -40
-53 -61 -108 -88 -121 -100 -121 -108 0 -5 -18 -32 -40 -60 -22 -28 -40 -57
-40 -65 0 -8 -3 -14 -8 -14 -8 0 -23 -26 -42 -73 -17 -39 -38 -47 -122 -46
-40 0 -87 -4 -105 -9 -17 -6 -35 -7 -39 -4 -4 4 -4 1 0 -6 6 -10 -6 -12 -51
-11 -32 1 -107 -6 -167 -15 -59 -9 -116 -14 -126 -11 -29 9 -29 -5 -1 -85 l26
-75 44 -3 c34 -3 51 -10 72 -33 18 -20 37 -29 57 -29 21 0 37 -8 50 -25 11
-14 23 -25 27 -25 3 0 13 -7 21 -15 15 -14 42 -20 74 -15 8 1 34 17 57 36 52
43 73 38 63 -16 -4 -22 -4 -37 1 -35 4 3 10 1 14 -5 3 -5 26 -10 51 -10 37 0
46 4 55 24 10 21 20 25 94 31 45 3 119 3 163 0 69 -6 84 -11 102 -32 19 -22
27 -24 62 -19 54 9 81 24 74 42 -4 9 3 18 18 23 12 5 41 30 63 55 38 43 74 58
88 37 3 -5 18 -12 34 -16 16 -3 35 -13 42 -21 6 -8 26 -14 45 -14 31 0 38 -5
73 -46 12 -14 33 -16 152 -12 118 3 140 6 158 22 12 11 37 20 55 20 19 1 32 4
30 7 -5 9 211 16 303 10 44 -3 79 -3 76 2 -2 4 1 7 8 7 7 0 9 -8 6 -21 -3 -12
-3 -18 0 -15 3 3 12 -1 20 -9 9 -10 34 -15 67 -15 43 0 56 4 68 21 11 18 24
21 75 21 33 0 70 -5 81 -11 15 -8 41 -8 91 -1 81 11 119 26 143 54 11 13 18
16 18 8 0 -26 28 -40 87 -44 49 -2 59 0 55 11 -3 9 -1 12 5 8 7 -4 9 0 7 10
-3 12 5 24 26 35 26 15 46 16 126 11 52 -3 97 -10 100 -15 7 -11 57 -10 109 3
63 16 90 49 90 110 0 28 4 48 10 45 10 -3 10 -12 2 -86 -6 -55 7 -70 59 -70
35 0 50 5 68 24 16 18 37 27 77 32 30 3 64 13 77 21 13 8 30 12 37 9 8 -3 17
0 21 6 5 7 2 8 -6 3 -9 -6 -11 -4 -6 4 5 8 31 11 74 10 60 -2 67 -1 67 17 0
12 8 20 23 22 12 2 22 8 22 13 0 5 14 9 30 9 37 0 100 25 100 39 0 7 29 11 74
11 118 0 166 9 166 32 0 29 -27 51 -55 45 -14 -2 -25 -1 -25 4 0 10 -195 1
-230 -11 -14 -5 -38 -11 -53 -14 -17 -4 -25 -11 -21 -18 5 -7 0 -9 -14 -6 -13
4 -20 2 -16 -4 4 -6 -31 -8 -94 -6 -57 2 -98 -1 -95 -6 3 -5 -6 -7 -20 -4 -16
3 -24 1 -20 -5 3 -5 -6 -7 -23 -4 -16 3 -53 9 -81 12 -36 5 -53 11 -53 21 0 8
-10 14 -22 15 -13 0 -61 4 -108 9 -74 7 -91 5 -132 -12 -34 -14 -63 -19 -106
-16 -33 1 -59 1 -56 -1 7 -7 -36 -32 -45 -27 -5 3 -8 -2 -7 -12 1 -11 -6 -17
-21 -16 -12 0 -20 -3 -17 -8 3 -4 -5 -8 -16 -8 -16 0 -20 4 -16 16 4 10 2 13
-6 8 -7 -5 -9 -1 -6 12 4 16 -1 19 -26 19 -20 0 -30 5 -28 13 1 8 -2 11 -8 7
-5 -3 -10 -1 -10 5 0 7 -19 10 -54 8 -30 -1 -52 -6 -50 -10 3 -5 -13 -8 -35
-8 -23 0 -41 4 -41 10 0 5 -12 13 -27 16 -15 4 -45 24 -67 46 -22 21 -48 38
-57 38 -9 0 -19 9 -22 20 -3 13 -17 22 -36 26 -17 4 -31 13 -31 20 0 8 -16 21
-36 29 -26 11 -34 19 -30 30 3 9 2 14 -2 11 -11 -6 -92 31 -92 42 0 6 7 13 16
16 10 4 14 16 12 38 -3 29 -7 33 -36 36 -18 2 -31 6 -28 10 2 4 -18 7 -46 8
-38 1 -52 6 -64 23 -8 11 -26 21 -39 21 -14 0 -26 7 -30 19 -3 10 -18 21 -34
24 -22 5 -30 13 -35 38 -5 25 -10 30 -26 26 -11 -3 -20 0 -20 5 0 7 28 9 83 4
46 -4 285 -11 533 -16 247 -5 517 -14 599 -19 83 -5 258 -12 390 -16 132 -3
310 -12 395 -20 85 -8 243 -17 350 -20 207 -7 791 -7 812 0 7 2 130 6 273 9
255 6 533 21 608 32 23 4 41 13 48 26 6 11 9 21 7 22 -2 2 -12 8 -23 15 -17
10 -13 11 27 9 25 -2 44 0 42 4 -6 9 39 21 62 16 15 -3 17 -13 15 -73 -3 -105
-9 -189 -12 -200 -6 -18 24 -195 32 -195 5 0 6 -7 2 -16 -3 -9 -1 -19 5 -23 6
-3 12 -39 13 -78 2 -59 5 -70 17 -65 11 4 14 1 9 -12 -4 -9 -3 -15 2 -11 5 3
12 -4 16 -15 7 -23 -2 -60 -16 -60 -13 0 -11 17 4 24 6 3 2 3 -11 0 -31 -8
-75 22 -69 46 3 14 1 17 -11 13 -9 -4 -13 -2 -9 3 4 6 -6 9 -24 6 -22 -3 -29
0 -29 12 0 10 9 16 25 16 20 0 25 5 25 26 0 29 5 29 -139 8 -30 -5 -42 -4 -37
4 4 7 -17 13 -59 17 -36 4 -68 11 -71 16 -7 12 -134 11 -134 -1 0 -5 -9 -10
-21 -10 -11 0 -27 -7 -36 -15 -8 -8 -19 -13 -24 -10 -5 4 -6 -1 -3 -9 4 -11 0
-16 -11 -16 -9 0 -14 4 -11 8 3 5 -9 6 -26 4 -26 -4 -30 -2 -25 12 3 8 3 15
-1 14 -17 -5 -122 14 -128 23 -3 5 -10 7 -15 4 -5 -4 -9 -1 -9 5 0 35 -90 62
-154 46 -23 -6 -26 -12 -26 -47 0 -63 12 -76 75 -84 36 -4 55 -11 55 -20 0
-16 101 -27 225 -26 44 1 135 -1 203 -5 111 -5 122 -7 122 -24 0 -11 9 -24 21
-30 12 -7 18 -18 15 -26 -3 -9 -1 -12 4 -9 6 3 10 2 10 -3 0 -5 13 -15 30 -22
16 -7 35 -22 43 -34 18 -27 28 -88 13 -83 -6 3 -11 -6 -11 -18 0 -13 3 -21 7
-19 11 7 38 -7 32 -17 -3 -5 2 -6 10 -3 9 3 16 1 16 -5 0 -6 -6 -11 -13 -11
-7 0 -24 -8 -37 -18 -14 -9 -56 -24 -95 -33 -65 -14 -70 -17 -70 -42 1 -24 -4
-27 -75 -43 -65 -14 -80 -22 -114 -58 l-40 -41 -214 -3 c-147 -2 -212 0 -207
7 3 6 0 9 -7 7 -26 -8 -1650 -17 -1645 -9 3 5 -12 7 -34 5 -24 -3 -39 0 -39 7
0 12 44 26 58 17 4 -3 7 8 4 23 -3 24 -10 30 -40 35 -96 16 -183 3 -196 -29
-4 -11 -2 -14 6 -9 7 5 9 2 5 -8 -4 -12 -1 -14 15 -10 15 3 19 1 16 -9 -9 -26
-88 -30 -518 -24 -239 3 -491 5 -559 4 -68 0 -121 3 -118 7 3 5 -26 8 -64 6
-37 -2 -103 4 -145 12 -42 9 -114 16 -159 16 -85 0 -119 6 -110 20 2 4 -7 5
-20 2 -14 -2 -28 -8 -31 -13 -3 -5 -18 -9 -33 -9 -15 0 -32 -5 -37 -10 -6 -6
-38 -12 -71 -13 -34 -1 -59 -6 -56 -10 3 -5 -42 -7 -100 -5 -58 2 -103 0 -101
-3 5 -9 -595 -22 -668 -14 -83 9 -219 -10 -236 -32 -18 -24 -15 -80 4 -87 9
-3 160 -6 337 -6 299 0 322 1 341 19 12 10 48 23 81 29 39 7 458 11 1205 12
1123 1 1466 -6 1497 -32 7 -5 20 -8 28 -4 8 3 15 1 15 -3 0 -11 164 -26 179
-16 6 3 130 6 275 5 206 0 265 2 270 12 5 10 7 10 12 1 7 -17 104 -18 104 -1
0 6 3 8 7 5 3 -4 12 -2 20 4 25 21 95 27 207 18 77 -7 114 -14 122 -24 13 -18
44 -20 44 -3 0 6 3 8 7 5 3 -4 11 -2 18 3 18 15 115 15 125 0 4 -7 15 -10 24
-7 9 4 16 2 16 -4 0 -6 55 -9 155 -7 85 2 155 0 155 -4 0 -5 63 -8 140 -8 97
0 140 3 140 11 0 8 4 8 13 0 16 -13 274 -13 282 0 3 4 12 6 19 3 7 -3 19 2 26
11 14 17 65 20 75 5 4 -6 11 -8 16 -5 5 4 9 1 9 -4 0 -6 21 -11 50 -11 36 0
50 4 50 14 0 21 68 27 436 34 296 6 344 9 360 23 20 17 154 25 615 34 90 2
191 9 224 15 35 6 103 8 166 4 75 -5 108 -3 113 5 4 6 16 11 27 11 11 0 18 -4
14 -9 -3 -6 33 -10 92 -10 54 0 127 -3 162 -7 59 -6 65 -5 81 16 13 17 30 24
69 28 35 3 55 10 61 22 5 10 33 22 66 29 32 7 64 20 72 27 7 8 20 14 28 14 8
0 14 4 14 9 0 4 11 6 24 4 17 -4 29 3 44 22 13 16 26 24 33 19 7 -4 9 -3 5 4
-3 6 9 15 30 22 22 7 39 21 44 36 6 15 18 24 30 24 11 0 23 7 26 15 4 8 10 12
15 9 5 -3 6 2 3 10 -4 10 3 15 22 18 25 3 29 8 36 47 4 24 3 62 -2 84 -5 23
-7 44 -5 48 3 3 -7 4 -22 1 -23 -4 -25 -2 -20 17 3 13 1 19 -6 14 -6 -4 -8 2
-5 15 4 12 2 20 -3 16 -5 -3 -9 6 -9 20 0 21 -5 26 -25 26 -18 0 -25 5 -25 19
0 19 -48 51 -76 51 -7 0 -19 14 -28 30 -18 37 -15 37 89 4 55 -18 108 -26 170
-29 50 -1 120 -10 156 -18 73 -18 275 -82 300 -96 9 -5 38 -13 65 -17 27 -4
58 -13 69 -20 11 -7 49 -20 85 -29 75 -18 142 -47 365 -155 88 -43 192 -88
230 -100 73 -23 238 -105 290 -145 17 -12 40 -25 53 -29 12 -4 27 -16 32 -26
6 -11 27 -22 48 -26 60 -11 100 -32 148 -76 44 -40 44 -41 44 -109 l0 -68 -42
-12 c-47 -12 -95 -37 -145 -73 -48 -35 -128 -44 -418 -51 -143 -4 -323 -13
-400 -21 -77 -7 -183 -14 -236 -14 -53 0 -99 -3 -103 -7 -12 -13 -160 -31
-172 -22 -10 8 -1364 6 -1674 -3 -247 -7 -840 -28 -895 -33 -319 -24 -2560
-28 -2880 -4 -132 9 -530 26 -810 33 -99 3 -306 12 -460 21 -324 18 -1977 31
-2493 20 l-313 -7 1 -27 c3 -44 1 -51 -26 -78 l-26 -26 398 7 c603 12 2409 9
2486 -4 36 -5 175 -14 309 -20 134 -5 354 -14 489 -20 135 -6 439 -15 675 -20
237 -6 529 -15 650 -21 469 -22 1958 10 2805 62 206 13 239 14 935 23 516 7
777 19 970 46 77 11 173 20 215 20 41 0 103 5 138 10 158 26 234 32 487 40
308 9 356 17 413 73 20 20 57 43 82 52 73 26 80 37 80 126 0 73 -2 81 -31 114
-25 28 -29 38 -19 50 14 16 5 35 -16 35 -8 0 -14 5 -14 11 0 15 -64 39 -146
53 -55 10 -90 24 -146 58 -104 65 -141 82 -251 118 -53 17 -99 36 -103 41 -3
6 -46 29 -95 51 -49 23 -89 45 -89 50 0 5 -4 7 -9 3 -5 -3 -13 -1 -16 5 -15
24 -207 109 -305 135 -227 59 -345 95 -348 105 -2 6 -8 7 -14 4 -6 -4 -13 -2
-17 3 -10 15 -354 104 -377 97 -12 -3 -25 -1 -28 5 -11 17 -66 14 -66 -4 0 -8
-9 -15 -20 -15 -11 0 -20 5 -20 11 0 5 -16 17 -35 25 -19 8 -35 17 -35 20 0 3
26 4 57 3 l56 -3 0 40 c0 31 -3 38 -17 36 -31 -6 -86 18 -86 38 0 20 -19 30
-56 30 -15 0 -24 6 -24 15 0 11 12 15 46 15 25 0 43 -4 40 -9 -4 -5 3 -7 14
-4 16 4 19 2 14 -11 -5 -14 3 -16 56 -16 33 0 59 -4 56 -8 -3 -5 8 -6 24 -4
41 6 80 -5 80 -23 0 -8 9 -15 20 -15 11 0 20 -4 20 -10 0 -5 22 -10 48 -10 35
0 56 -6 72 -20 13 -11 29 -20 37 -20 8 0 12 -3 9 -8 -2 -4 14 -6 36 -4 22 3
38 0 35 -4 -3 -5 14 -8 37 -6 33 3 45 -1 61 -20 l20 -23 -25 20 -25 20 17 -21
c13 -15 26 -19 54 -16 20 3 34 1 31 -4 -3 -5 15 -7 40 -5 31 2 43 0 39 -8 -5
-7 -1 -8 10 -4 13 5 15 3 9 -7 -5 -9 -4 -11 3 -6 15 9 55 -18 44 -29 -4 -5 -2
-5 5 -1 7 4 35 4 63 0 40 -5 50 -10 50 -25 0 -15 7 -19 33 -19 18 0 38 -5 44
-11 6 -6 19 -9 29 -7 11 2 28 -7 39 -19 17 -19 34 -23 123 -29 56 -4 105 -11
109 -17 4 -6 1 -7 -8 -2 -8 5 -11 4 -6 -1 5 -5 12 -9 15 -9 4 -1 23 -6 42 -13
19 -6 76 -15 125 -20 l90 -7 -4 37 -3 38 -53 0 c-30 0 -57 5 -60 10 -3 6 -15
10 -25 10 -10 0 -20 4 -22 10 -5 15 -118 42 -160 38 -30 -3 -39 1 -48 18 -10
17 -28 23 -96 34 -55 8 -84 16 -84 25 0 16 -17 23 -82 31 -53 7 -84 26 -74 43
3 5 -4 7 -16 3 -12 -3 -19 -1 -15 4 3 6 -9 8 -30 6 -27 -4 -34 -1 -28 8 5 9 4
11 -4 6 -21 -13 -64 3 -59 22 4 15 -6 17 -81 20 -82 2 -87 4 -109 32 -22 28
-27 30 -97 30 -62 0 -76 3 -84 19 -8 13 -27 20 -71 25 -33 4 -59 10 -56 14 2
4 -10 7 -27 7 -25 0 -32 4 -32 19 0 16 -11 19 -85 23 -84 5 -115 16 -107 37 3
8 -7 10 -31 8 -19 -3 -32 0 -29 4 3 5 -13 8 -35 6 -34 -4 -45 0 -75 29 -19 19
-39 42 -44 52 -9 15 -4 17 36 17 26 0 44 -4 41 -8 -3 -5 9 -6 26 -4 21 3 33 0
40 -12 5 -9 20 -16 33 -16 14 0 25 -5 25 -11 0 -7 12 -9 31 -7 25 4 33 0 41
-18 11 -24 35 -34 81 -34 16 0 26 -3 24 -7 -3 -5 18 -6 45 -4 28 2 48 -1 45
-6 -3 -5 4 -10 15 -10 12 -1 24 -6 27 -11 3 -5 33 -13 66 -18 55 -8 60 -11 60
-35 0 -16 5 -25 15 -25 221 -3 230 -4 230 -23 0 -17 10 -20 68 -26 108 -10
121 -14 128 -40 5 -22 12 -24 87 -28 90 -5 135 -14 156 -31 7 -6 59 -16 115
-21 68 -7 100 -14 99 -22 -2 -7 4 -10 12 -7 8 4 15 1 15 -5 0 -6 12 -11 28
-11 38 0 73 -11 67 -20 -3 -5 5 -6 17 -2 13 3 19 1 15 -5 -12 -19 16 -31 85
-38 84 -9 168 8 168 34 0 19 -56 41 -104 41 -15 0 -25 4 -22 9 4 5 -4 7 -15 4
-13 -4 -26 0 -33 8 -6 8 -47 21 -91 28 -54 8 -85 19 -95 31 -11 14 -33 19 -87
22 -63 3 -75 7 -98 32 -19 21 -33 27 -51 23 -13 -2 -27 0 -30 4 -3 5 -40 9
-82 9 -66 0 -80 3 -92 20 -10 14 -26 20 -55 20 -23 0 -50 7 -61 15 -10 8 -26
15 -35 15 -9 0 -19 6 -22 14 -4 9 -28 17 -61 21 -31 4 -56 12 -56 17 0 5 -15
15 -34 23 -19 8 -38 20 -42 27 -4 6 -9 203 -10 437 -3 438 3 538 33 527 8 -3
11 -2 8 4 -3 5 10 6 32 3 21 -3 40 -10 41 -15 2 -4 46 -8 98 -8 53 0 93 -3 91
-7 -3 -5 18 -6 45 -4 28 2 48 -1 45 -5 -3 -5 23 -9 57 -9 l62 0 -6 30 c-5 25
-12 31 -45 37 -22 4 -78 7 -124 7 -68 1 -82 4 -78 15 4 9 1 13 -7 10 -6 -2
-29 2 -49 11 -20 8 -65 15 -101 15 -57 0 -81 8 -97 33 -1 1 -5 97 -10 212 -10
250 -9 236 -26 253 -18 19 -16 86 4 125 13 26 17 78 22 289 4 141 10 260 13
264 9 9 139 -15 156 -29 8 -6 69 -12 138 -13 92 -1 130 -6 142 -17 9 -7 38
-20 64 -26 48 -14 213 -20 224 -8 13 13 -7 56 -29 63 -12 4 -25 11 -28 16 -3
5 -86 12 -183 15 -159 5 -176 8 -176 24 0 20 -63 37 -169 46 -43 4 -70 12 -82
24 -11 11 -28 19 -38 19 -23 0 -31 19 -31 70 0 27 -7 45 -22 59 -17 16 -19 23
-9 35 18 21 25 167 37 741 6 283 4 274 70 344 31 34 33 34 57 18 25 -16 27
-16 46 10 37 46 21 78 -43 87 -32 5 -47 13 -51 27 -4 10 -11 19 -16 19 -5 0
-9 118 -9 291 0 324 1 321 -67 323 -32 1 -37 -3 -45 -29 -5 -17 -6 -142 -3
-287 4 -141 4 -265 0 -276 -3 -12 -18 -23 -35 -27 -17 -4 -30 -11 -30 -16 0
-13 -88 -11 -126 3 -28 10 -36 9 -52 -5 -19 -18 -122 -25 -122 -9 0 8 -99 23
-245 39 -86 9 -227 8 -277 -2 -52 -10 -62 14 -60 137 2 57 -2 99 -8 103 -5 3
-10 37 -10 75 0 38 -4 72 -10 75 -12 7 -14 175 -2 175 4 0 14 45 20 100 13 99
6 170 -18 185 -6 4 -10 59 -10 125 0 65 -3 125 -6 134 -7 18 -68 22 -96 5z
m-39 -1085 c7 -2 11 -12 9 -22 -4 -14 2 -17 37 -17 23 0 42 5 41 10 -1 6 4 10
9 10 6 0 9 -5 9 -12 -1 -7 3 -11 10 -10 6 1 9 -5 8 -13 -2 -8 -4 -56 -5 -107
0 -51 -3 -90 -6 -88 -3 2 -5 -52 -3 -118 2 -81 0 -119 -7 -112 -5 6 -11 94
-13 205 l-3 195 -34 -4 c-18 -2 -31 0 -28 5 3 5 -18 7 -45 5 -28 -2 -48 1 -45
6 3 5 -7 9 -21 8 -21 0 -27 5 -26 20 0 19 -5 20 -99 17 -54 -2 -97 0 -94 5 3
4 -12 8 -33 8 -21 0 -36 -4 -33 -8 3 -4 -23 -7 -58 -5 -38 2 -64 8 -66 15 -3
9 25 13 109 15 127 4 366 -1 387 -8z m-2778 -18 c1 -6 1 -13 1 -16 0 -3 80 -4
179 -2 150 2 179 1 179 -11 0 -16 -63 -32 -82 -21 -7 4 -8 3 -4 -4 9 -15 -84
-16 -133 -2 -22 6 -59 6 -109 -1 -57 -8 -77 -8 -86 2 -8 9 -8 10 3 4 9 -5 12
-4 8 2 -3 5 -20 8 -38 5 -24 -3 -30 -1 -27 9 3 8 18 14 34 15 19 0 28 5 26 14
-2 7 2 17 9 21 15 9 39 1 40 -15z m3980 -45 c37 -22 48 -71 18 -71 -18 0 -24
-11 -35 -72 -3 -21 -9 -36 -13 -34 -4 3 -5 -11 -3 -30 2 -19 -1 -41 -8 -49 -6
-8 -9 -19 -5 -25 3 -5 2 -10 -2 -10 -14 0 -33 62 -33 104 0 27 -7 43 -25 60
-14 13 -25 30 -25 38 0 8 -5 19 -11 25 -17 17 -1 33 32 33 17 0 32 6 35 15 4
8 10 12 15 9 5 -3 6 2 3 10 -9 22 18 20 57 -3z m-679 -77 c144 -2 282 -4 306
-4 31 0 44 -5 49 -17 7 -18 30 -37 48 -39 6 0 18 -4 28 -9 9 -4 33 -5 52 -3
34 4 35 3 40 -37 13 -97 5 -1149 -10 -1163 -3 -4 -64 -7 -134 -7 -105 1 -131
4 -145 17 -16 17 -55 23 -211 33 -87 6 -155 22 -155 36 0 4 -41 8 -90 11 -50
2 -95 9 -101 15 -5 5 -13 37 -16 69 -3 32 -11 69 -19 80 -10 18 -11 33 -2 75
12 56 18 247 20 679 1 238 2 257 21 282 l20 27 19 -21 c17 -20 28 -21 280 -24z
m-6442 -2 l35 -8 0 -337 c0 -274 3 -339 14 -346 9 -6 10 -11 2 -15 -19 -12
-13 -237 6 -259 15 -16 14 -20 -9 -52 l-25 -36 -474 0 c-261 0 -541 -3 -624
-8 -82 -4 -168 -6 -190 -3 l-40 4 -3 415 c-3 297 -1 413 7 409 6 -4 9 -1 5 7
-3 8 2 21 10 30 8 8 12 17 9 21 -4 3 -1 6 4 6 7 0 14 32 18 74 8 84 17 93 95
99 105 7 1128 6 1160 -1z m542 -2 c50 0 87 -4 84 -9 -4 -5 10 -5 32 0 47 11
135 12 128 1 -3 -5 7 -7 22 -4 17 2 47 -6 77 -22 l49 -27 276 1 c151 0 287 0
303 0 17 0 27 -5 27 -15 0 -8 6 -15 13 -15 17 0 42 -45 33 -59 -4 -6 -13 -11
-20 -11 -35 0 -37 -23 -40 -461 l-3 -433 -30 -13 c-17 -6 -33 -19 -36 -28 -4
-10 -19 -15 -42 -15 -20 0 -34 4 -31 8 2 4 -4 8 -14 8 -10 0 -16 -4 -13 -9 3
-5 -12 -8 -35 -5 -22 2 -38 0 -35 -5 3 -4 -24 -7 -59 -5 -52 2 -63 6 -62 20 2
24 -38 27 -516 32 -228 3 -426 7 -439 9 -33 5 -39 26 -41 132 -1 103 -19 183
-43 197 -13 7 -17 23 -17 64 0 30 4 53 8 50 4 -3 4 30 0 72 -10 87 -3 142 16
142 16 0 31 63 16 68 -6 2 -7 10 0 21 5 10 12 74 15 142 8 151 10 166 33 173
9 3 71 3 136 1 66 -3 159 -5 208 -5z m-382 -1071 c0 -5 4 -8 9 -4 5 3 12 1 16
-5 3 -5 40 -10 81 -10 44 0 74 -4 74 -10 0 -7 -23 -9 -60 -7 -38 3 -57 1 -53
-6 3 -6 -6 -8 -25 -5 -17 2 -29 1 -27 -3 3 -4 1 -20 -4 -35 -5 -16 -12 -42
-16 -57 -4 -21 -10 -27 -22 -23 -13 5 -14 4 -3 -9 7 -9 10 -18 6 -22 -10 -11
-17 3 -23 46 -4 26 -11 41 -20 41 -8 0 -11 4 -8 10 3 6 -1 7 -9 4 -11 -4 -19
2 -25 17 -5 13 -7 27 -5 30 2 3 -8 4 -22 1 -14 -2 -35 0 -47 6 -12 6 -33 13
-47 14 -14 2 5 7 43 12 37 4 67 12 67 17 0 5 27 9 60 9 36 0 60 -4 60 -11z
m-913 -13 c9 -9 63 -7 63 2 0 11 80 6 92 -6 16 -16 -24 -23 -104 -19 -37 2
-65 0 -62 -5 3 -4 -36 -8 -86 -8 -50 0 -89 3 -87 8 3 4 -17 7 -43 7 -26 0 -46
-3 -43 -7 2 -5 -29 -8 -70 -8 -54 0 -78 4 -87 15 -11 13 7 15 149 15 88 0 161
3 161 8 0 8 108 7 117 -2z m3942 0 c6 -4 11 -14 11 -22 0 -9 7 -23 16 -31 14
-15 14 -17 -1 -25 -9 -6 -23 -7 -31 -4 -9 3 -12 1 -9 -4 3 -6 -5 -10 -19 -10
-14 0 -28 -4 -31 -10 -4 -6 -13 -5 -25 2 -10 7 -17 15 -15 18 2 4 -4 6 -13 6
-72 0 -112 6 -112 15 0 7 12 10 29 7 17 -2 28 -1 25 4 -3 4 11 8 30 8 31 0 36
3 36 23 0 13 2 26 4 28 7 7 93 2 105 -5z m-3354 -62 c61 -3 124 -12 140 -19
17 -8 38 -16 48 -19 18 -6 20 -55 17 -443 -1 -85 3 -133 9 -133 7 0 7 -8 1
-26 -6 -14 -10 -86 -10 -159 0 -122 2 -135 20 -148 19 -13 18 -14 -16 -30 -19
-9 -55 -17 -79 -17 -25 0 -45 -4 -45 -10 0 -5 -10 -10 -23 -10 -13 0 -27 -4
-33 -10 -5 -5 -77 -12 -159 -16 -111 -5 -154 -10 -167 -22 -10 -8 -28 -12 -42
-10 -14 3 -23 1 -20 -3 7 -12 -42 -22 -71 -15 -14 4 -23 11 -20 16 3 5 -1 7
-9 4 -8 -3 -28 2 -45 10 -25 13 -73 16 -293 16 -149 0 -279 5 -300 10 -35 10
-37 14 -43 58 -3 26 -10 70 -15 97 -12 63 -3 775 10 809 12 34 30 36 314 39
181 1 240 5 244 15 2 8 29 12 85 13 45 0 91 4 102 9 20 9 184 6 400 -6z m1520
-38 c50 -3 102 -5 117 -6 16 0 37 -11 51 -26 20 -22 30 -25 56 -19 17 4 31 11
31 16 0 5 10 9 23 9 13 0 29 6 36 13 9 9 156 12 673 11 640 -2 662 -2 677 -21
9 -10 23 -22 32 -25 24 -9 26 -47 29 -463 1 -203 4 -373 7 -377 2 -5 17 -8 33
-8 20 0 31 6 35 20 4 11 10 18 14 16 10 -7 12 14 17 167 5 128 4 139 -16 164
-19 25 -20 37 -19 235 l2 210 28 20 c15 11 30 30 33 41 5 19 10 20 88 14 46
-4 109 -7 141 -7 44 0 57 -3 57 -15 0 -9 9 -15 24 -15 12 0 36 -4 52 -10 39
-13 154 -28 149 -20 -9 15 78 20 345 20 274 0 345 -7 361 -32 16 -25 4 -592
-12 -582 -5 3 -6 -1 -3 -9 3 -8 -2 -21 -10 -30 -18 -18 -23 -122 -6 -132 13
-8 13 -55 -1 -55 -6 0 -9 -26 -8 -72 2 -62 0 -73 -17 -79 -23 -9 -433 -11
-497 -3 -26 4 -45 10 -42 13 2 4 -12 5 -31 3 -20 -3 -41 1 -51 9 -13 11 -81
14 -327 16 -171 1 -339 -3 -373 -8 -35 -5 -81 -6 -103 -3 -47 8 -93 48 -85 75
12 38 -27 44 -273 45 -128 1 -235 -3 -238 -7 -3 -5 2 -22 11 -38 32 -64 46
-61 -292 -61 -381 0 -473 6 -473 30 0 10 -6 22 -12 27 -16 12 -69 23 -63 13 3
-4 -9 -10 -27 -14 -17 -3 -28 -9 -25 -13 4 -3 -3 -15 -16 -26 -20 -18 -32 -19
-132 -13 -60 3 -132 6 -158 6 -34 0 -46 3 -41 12 4 7 3 8 -4 4 -6 -4 -42 1
-79 10 -54 13 -140 17 -428 20 -252 2 -367 7 -382 16 -18 9 -23 20 -23 53 0
22 -5 46 -11 52 -7 7 -12 138 -16 374 -6 391 -2 436 39 454 23 10 953 11 1133
1z m3514 -93 c25 -3 53 0 66 7 15 8 42 10 81 5 115 -13 347 -16 357 -6 16 16
112 13 182 -5 33 -8 127 -17 210 -20 82 -3 154 -9 159 -14 9 -9 9 -239 0 -264
-9 -23 -20 -355 -11 -349 4 2 7 -5 7 -17 0 -12 -3 -19 -7 -17 -5 3 -5 -56 -2
-131 3 -76 2 -141 -3 -147 -6 -6 -207 -12 -546 -15 -306 -3 -543 -9 -552 -14
-17 -11 -90 -9 -105 4 -5 4 -41 11 -80 15 -126 11 -112 -14 -113 212 0 159 3
204 15 233 23 49 33 140 39 325 3 88 9 169 15 181 10 19 17 20 93 16 59 -3 86
-1 91 8 5 7 17 9 34 5 14 -4 46 -9 70 -12z m2166 -13 c3 -5 17 -10 30 -10 18
0 26 -8 35 -35 16 -47 7 -65 -30 -65 -27 0 -30 -3 -30 -31 0 -16 -3 -28 -7
-26 -5 3 -8 -12 -8 -33 0 -21 3 -36 6 -34 7 4 1 -171 -7 -194 -2 -7 -8 -10
-14 -7 -6 4 -8 11 -4 16 3 5 1 16 -6 24 -7 9 -10 58 -8 148 2 75 1 134 -1 132
-7 -8 -42 16 -36 25 3 4 -4 6 -14 3 -14 -3 -19 0 -18 13 2 14 -7 20 -33 25
-19 4 -27 7 -17 8 10 0 25 8 33 16 9 8 28 15 44 15 16 0 32 5 35 10 3 6 15 10
25 10 10 0 22 -4 25 -10z m-550 -77 c93 -5 123 -10 132 -22 9 -13 35 -16 145
-17 73 -1 139 -2 146 -3 8 -1 12 -23 12 -76 0 -41 4 -83 9 -93 35 -69 44 -218
22 -349 -10 -54 -10 -86 -2 -123 6 -28 11 -140 11 -249 l0 -198 -32 -7 c-24
-5 -36 -1 -50 14 -13 13 -32 20 -57 20 -42 0 -141 28 -141 40 0 4 -27 10 -61
14 -37 4 -62 12 -65 21 -7 16 -72 30 -200 43 -64 6 -100 15 -120 29 -16 11
-49 21 -73 22 -83 4 -86 7 -94 94 -7 73 2 259 12 253 3 -2 7 54 7 126 1 81 6
134 13 141 17 17 14 96 -5 115 -13 13 -15 29 -11 86 3 38 10 72 15 75 5 3 12
19 16 35 l7 29 122 -7 c67 -3 176 -9 242 -13z m-5795 -852 c69 -5 85 -9 84
-22 -1 -12 5 -14 24 -11 14 3 22 1 19 -4 -3 -5 23 -8 60 -6 42 3 63 0 59 -6
-4 -6 2 -8 14 -5 11 3 20 1 20 -5 0 -6 -15 -14 -32 -17 -60 -11 -258 -20 -258
-12 0 4 -4 5 -10 2 -5 -3 -10 -1 -10 5 0 17 -422 10 -427 -7 -3 -7 -11 -9 -19
-6 -8 3 -14 -1 -14 -11 0 -14 -16 -16 -115 -16 -70 0 -115 4 -115 10 0 6 5 10
10 10 6 0 10 5 10 11 0 5 -10 9 -22 7 -31 -4 -34 20 -3 32 32 12 68 13 61 2
-3 -5 9 -6 26 -4 21 3 29 1 24 -7 -5 -7 -1 -9 8 -5 11 4 16 0 16 -10 0 -12 10
-16 35 -16 25 0 35 4 35 16 0 10 5 14 16 10 8 -3 12 -2 9 4 -7 12 40 24 56 14
8 -4 9 -3 5 4 -4 7 -1 12 10 12 9 0 25 10 35 21 13 15 26 20 43 17 16 -3 23
-1 19 5 -6 10 85 6 327 -12z m1946 -7 c-3 -9 -2 -12 5 -9 5 4 21 -1 34 -9 22
-15 25 -24 25 -80 0 -44 -5 -67 -15 -76 -37 -31 -85 49 -85 143 0 41 3 47 21
47 15 0 19 -5 15 -16z m-3789 -31 c-3 -5 55 -7 129 -5 118 3 133 1 128 -12 -4
-12 -20 -16 -54 -16 -46 0 -49 -1 -60 -35 -10 -30 -16 -35 -42 -35 l-30 0 4
-77 c3 -76 3 -78 -25 -91 -15 -7 -32 -24 -37 -37 -5 -13 -17 -28 -27 -33 -14
-9 -18 -23 -17 -84 0 -94 8 -133 25 -133 8 0 15 -11 17 -25 2 -14 6 -32 9 -40
4 -8 7 -19 7 -23 1 -5 8 -14 17 -21 9 -6 18 -20 20 -31 3 -12 17 -24 37 -30
17 -5 32 -15 32 -22 0 -20 30 -30 104 -36 48 -3 74 -10 82 -21 13 -19 140 -23
146 -5 2 5 20 11 40 12 20 1 34 5 31 10 -2 4 11 7 30 7 37 0 54 15 81 68 12
22 22 32 32 28 9 -3 12 -1 9 4 -3 6 -1 10 5 10 7 0 19 9 28 21 15 18 31 21
142 25 150 6 201 -1 207 -27 4 -13 14 -19 34 -19 21 0 27 -4 23 -15 -4 -8 -1
-15 5 -15 6 0 11 -18 11 -42 1 -24 7 -65 14 -93 9 -34 10 -56 4 -69 -8 -14 -7
-17 3 -11 9 6 11 3 6 -9 -4 -9 -3 -15 2 -12 5 3 12 -1 15 -10 9 -23 7 -46 -2
-40 -5 3 -7 -8 -4 -23 3 -23 -1 -29 -20 -34 -32 -9 -1223 -8 -1272 1 -34 6
-40 12 -56 54 -10 26 -16 49 -13 51 2 2 -7 2 -19 0 -22 -4 -23 -2 -23 79 0 71
3 83 18 86 27 5 23 50 -5 54 -15 2 -24 11 -26 27 -2 13 0 21 5 18 5 -3 9 4 9
16 1 77 5 97 19 97 17 0 18 5 19 76 1 44 -1 50 -16 46 -15 -3 -18 2 -18 31 0
19 5 37 10 39 6 2 13 32 17 68 3 36 9 73 14 82 5 9 9 51 9 92 l0 76 35 14 c19
8 35 20 35 27 0 7 14 10 39 7 22 -2 37 0 35 4 -3 5 2 8 11 8 9 0 14 -3 12 -7z
m3239 -1 c-2 -4 13 -6 34 -4 21 2 41 -1 44 -7 4 -6 16 -11 27 -11 11 0 18 -4
15 -8 -2 -4 29 -4 70 1 76 10 106 3 141 -29 27 -25 37 -93 24 -157 -11 -56
-41 -107 -63 -107 -20 0 -45 -41 -70 -115 -25 -75 -44 -161 -40 -177 1 -5 -2
-8 -8 -8 -5 0 -10 -7 -10 -16 0 -9 -5 -12 -12 -8 -6 4 -8 3 -5 -3 4 -6 0 -23
-7 -38 -8 -15 -18 -61 -21 -101 -4 -41 -12 -74 -17 -74 -5 0 -8 -6 -6 -12 3
-7 -1 -19 -9 -26 -8 -9 -13 -39 -13 -87 0 -47 -4 -77 -12 -81 -16 -10 -58 -11
-64 -2 -7 11 -171 10 -178 -1 -3 -4 -17 -6 -32 -3 -18 3 -30 0 -36 -12 -12
-22 -100 -22 -122 0 -9 8 -20 13 -25 10 -5 -3 -14 1 -22 10 -14 17 -18 251 -5
272 4 7 20 12 36 12 41 0 80 17 80 35 0 10 10 15 28 15 16 0 38 10 50 23 28
28 50 50 86 87 29 28 29 32 34 157 4 110 2 130 -12 142 -9 7 -16 10 -16 5 0
-4 -17 9 -37 30 -69 68 -80 76 -105 76 -17 0 -28 8 -36 25 -6 14 -20 25 -30
25 -28 0 -72 23 -72 38 0 17 -25 42 -42 42 -7 0 -1 10 15 21 15 11 27 30 27
41 0 18 5 20 49 16 27 -1 47 0 44 5 -2 4 71 7 162 7 91 0 164 -3 161 -8z
m2038 -74 c18 -24 123 -26 140 -2 17 23 155 23 172 -1 7 -10 37 -20 76 -25 90
-14 415 -13 440 1 20 11 179 16 195 6 17 -11 108 -17 328 -22 259 -6 373 -14
381 -26 3 -5 16 -9 28 -9 39 0 51 -25 47 -101 -3 -83 12 -139 40 -139 13 0 19
-7 19 -21 0 -17 -5 -20 -23 -17 -27 5 -26 9 -33 -94 -6 -78 -6 -78 -35 -78
-23 0 -29 4 -29 23 0 12 -3 31 -6 42 -6 25 -79 59 -110 51 -41 -11 -165 95
-147 126 2 4 -17 16 -42 27 -25 11 -45 24 -45 30 0 5 -14 12 -31 16 -17 4 -56
18 -86 32 -79 36 -188 63 -260 63 -43 0 -66 5 -78 16 -24 24 -127 24 -154 0
-14 -13 -45 -22 -98 -27 -43 -5 -100 -13 -128 -19 -27 -6 -60 -12 -72 -13 -11
-1 -19 -5 -16 -9 2 -5 -15 -8 -39 -8 -63 0 -119 -18 -125 -41 -3 -10 -9 -16
-14 -13 -5 3 -9 1 -9 -4 0 -5 -9 -12 -19 -15 -38 -10 -40 -208 -3 -245 37 -38
51 -69 43 -98 -6 -23 -17 -31 -57 -43 -27 -9 -50 -19 -52 -23 -2 -5 -14 -8
-27 -8 -13 0 -36 -5 -51 -11 -24 -8 -31 -7 -44 9 -27 35 -200 41 -200 7 0 -8
-7 -11 -18 -8 -10 2 -30 0 -45 -6 -31 -12 -35 -39 -13 -92 8 -19 17 -58 21
-87 6 -47 4 -56 -16 -78 -12 -13 -28 -24 -36 -24 -7 0 -13 -4 -13 -10 0 -6
-106 -10 -275 -12 -151 -2 -275 0 -275 5 0 4 -13 7 -29 7 -28 0 -30 3 -37 48
-9 55 -9 76 1 277 5 99 3 183 -5 245 -6 52 -14 125 -17 163 -3 37 -10 70 -14
73 -5 3 -9 20 -9 38 0 33 -23 65 -34 48 -3 -5 -14 -49 -25 -98 -20 -90 -22
-238 -6 -341 7 -40 10 -43 39 -45 l31 -1 -31 -4 c-42 -5 -45 -18 -53 -197 l-6
-148 -43 -15 c-24 -8 -50 -12 -57 -9 -9 3 -15 49 -20 166 -5 104 -12 165 -19
173 -7 6 -10 21 -8 34 2 13 0 23 -6 23 -5 0 -13 21 -16 48 -15 111 -18 122
-32 122 -8 0 -14 7 -14 15 0 8 -4 15 -10 15 -5 0 -7 7 -4 15 4 8 1 15 -5 15
-6 0 -11 9 -11 20 0 12 -10 25 -24 31 -23 11 -40 52 -38 89 4 62 27 167 38
176 10 8 192 11 630 10 574 -1 616 -2 628 -18z m1972 -80 c5 -7 3 -8 -6 -3 -8
5 -11 4 -7 -2 3 -5 20 -8 38 -5 18 3 29 1 26 -4 -3 -5 24 -7 60 -6 69 4 117
-3 109 -17 -3 -4 6 -6 19 -3 29 5 78 -5 71 -16 -2 -4 14 -6 36 -4 23 3 38 0
35 -5 -3 -5 9 -7 26 -5 19 2 40 -3 52 -13 11 -9 14 -13 6 -9 -9 4 -12 3 -8 -4
4 -5 16 -8 26 -5 10 3 22 0 25 -6 4 -6 32 -11 62 -11 30 0 53 -4 50 -8 -3 -5
8 -6 24 -4 24 3 32 -1 41 -21 7 -15 17 -23 25 -20 8 3 21 0 29 -7 8 -6 19 -9
25 -5 5 3 10 1 10 -4 0 -6 9 -11 20 -11 13 0 20 -7 20 -19 0 -14 8 -21 28 -23
24 -3 28 -9 36 -50 6 -33 15 -48 29 -52 12 -3 16 -9 11 -17 -4 -7 -3 -10 4 -5
6 3 13 2 17 -4 3 -5 1 -10 -6 -10 -31 0 -49 -33 -49 -92 0 -32 4 -58 10 -58 5
0 7 -7 4 -15 -4 -8 -1 -15 5 -15 6 0 11 -11 11 -24 0 -14 5 -28 10 -31 6 -3
10 -43 10 -88 0 -71 -3 -85 -20 -97 -15 -11 -20 -26 -20 -62 0 -26 4 -48 8
-48 12 0 32 -47 32 -75 0 -18 -7 -26 -25 -31 -19 -5 -25 -13 -25 -35 0 -16 4
-29 8 -29 8 0 6 -38 -4 -87 -5 -26 -39 -39 -59 -23 -8 7 -36 11 -65 8 -27 -1
-50 0 -50 4 0 5 -3 7 -7 6 -11 -2 -46 14 -60 28 -6 6 -35 14 -63 18 -29 4 -61
15 -72 25 -23 22 -61 31 -128 31 -53 0 -83 8 -75 20 3 5 -5 6 -17 2 -14 -3
-19 -1 -14 6 4 8 -9 16 -39 23 -25 6 -43 14 -41 17 3 2 -5 13 -19 24 -13 10
-25 28 -27 40 -2 12 -16 29 -33 38 -16 9 -31 26 -33 37 -2 12 -13 29 -25 38
-18 13 -22 24 -19 56 3 22 0 39 -6 39 -6 0 -14 25 -17 55 -6 45 -11 55 -26 55
-14 0 -19 7 -19 29 0 16 -4 31 -10 33 -5 2 -12 114 -16 269 l-7 266 24 16 c28
20 26 20 35 5z m-4379 -92 c4 -8 17 -15 28 -17 11 -2 25 -14 30 -27 6 -13 20
-25 32 -28 23 -6 39 -36 28 -54 -8 -14 -52 -13 -61 2 -5 7 -3 8 6 3 8 -5 11
-4 7 2 -4 7 -26 7 -62 1 -31 -5 -61 -5 -67 -2 -7 5 -8 2 -3 -6 6 -9 -2 -11
-32 -9 -27 3 -39 1 -36 -7 7 -18 -25 -37 -52 -32 -14 3 -28 1 -32 -5 -4 -6 -1
-7 7 -2 9 5 11 4 6 -3 -10 -17 -43 -15 -50 4 -3 9 -4 19 -1 24 3 4 -3 14 -13
21 -16 13 -16 13 -2 -6 14 -19 14 -19 -3 -6 -20 15 -19 58 1 54 6 -2 14 8 18
22 7 27 52 42 99 33 15 -3 22 -1 18 5 -4 6 0 8 10 4 9 -3 21 1 29 11 12 16 11
16 -7 2 -19 -14 -19 -14 -6 3 9 12 23 17 38 14 12 -2 20 0 17 4 -3 5 6 9 20 9
14 0 29 -6 33 -14z m-2496 -119 c-5 -5 -23 -10 -39 -11 -21 -1 -28 -5 -24 -15
3 -9 1 -12 -6 -7 -8 4 -10 2 -6 -7 3 -10 -4 -17 -21 -21 -16 -4 -23 -11 -19
-18 5 -7 2 -9 -7 -6 -10 4 -15 -1 -15 -12 0 -11 5 -16 15 -12 8 3 12 1 8 -5
-4 -6 0 -14 9 -17 9 -3 14 -13 11 -21 -4 -9 -1 -12 9 -8 19 7 17 -7 -5 -34
-23 -28 -58 -30 -66 -4 -3 11 -16 21 -28 23 -29 4 -29 33 0 32 12 0 19 4 16 9
-4 6 0 8 8 5 11 -4 13 5 10 50 -2 46 -1 54 12 49 11 -4 14 -1 10 9 -3 8 1 14
11 14 9 0 16 4 16 9 0 10 87 20 103 12 5 -2 4 -8 -2 -14z m1525 -96 c-3 -5 2
-8 12 -7 10 0 17 -6 16 -15 -1 -12 5 -14 24 -11 16 3 23 1 18 -6 -4 -6 2 -8
16 -5 13 3 20 3 16 -1 -3 -4 7 -20 23 -34 23 -21 31 -38 36 -79 4 -37 10 -53
20 -53 10 0 13 -6 9 -16 -3 -8 -2 -12 4 -9 6 4 10 -15 10 -49 0 -63 -2 -72
-13 -68 -4 1 -23 -9 -41 -23 -18 -14 -38 -25 -45 -25 -7 0 -9 -4 -6 -10 4 -6
-16 -10 -53 -10 -59 0 -60 0 -66 31 -3 17 -6 41 -6 53 0 12 -9 27 -20 34 -22
13 -17 37 6 28 9 -3 11 0 7 11 -4 9 -2 14 3 11 5 -4 9 9 9 27 0 18 -4 31 -9
27 -5 -3 -7 2 -3 11 4 11 2 14 -7 11 -17 -6 -40 22 -30 37 4 8 3 9 -4 5 -9 -5
-12 10 -12 54 0 44 3 59 12 54 7 -4 8 -3 4 4 -12 20 3 32 40 32 19 0 33 -4 30
-9z m-446 -241 c0 -16 6 -30 13 -33 10 -3 10 -9 0 -26 -7 -11 -13 -47 -13 -78
0 -48 4 -60 21 -71 13 -8 19 -20 16 -31 -3 -14 1 -17 19 -13 30 6 56 -15 52
-42 -2 -16 2 -20 17 -19 28 4 53 -13 39 -27 -17 -17 -296 -9 -302 9 -3 8 0 11
5 8 5 -3 9 3 9 13 0 11 -2 17 -4 15 -3 -2 -17 2 -32 10 -25 13 -27 17 -20 59
4 25 3 43 -2 40 -4 -3 -8 40 -8 95 0 98 1 101 24 107 14 3 30 3 37 -2 7 -4 9
-3 5 4 -4 7 8 12 36 14 72 5 88 -1 88 -32z m955 20 c-4 -6 1 -7 10 -3 13 4 16
1 13 -18 -3 -22 0 -24 31 -21 18 2 31 0 28 -5 -3 -4 24 -6 60 -5 56 3 65 2 60
-12 -3 -8 -1 -18 5 -22 7 -4 8 -3 4 4 -11 18 10 14 25 -5 12 -14 12 -16 0 -8
-9 5 -12 4 -7 -3 4 -6 14 -8 23 -5 13 5 15 2 10 -11 -4 -10 -3 -15 3 -11 6 4
10 -22 10 -68 0 -59 4 -78 20 -97 11 -12 17 -27 13 -33 -3 -5 -1 -7 4 -4 6 4
13 1 16 -6 11 -29 -34 -38 -216 -42 -100 -3 -208 -6 -240 -7 -31 -2 -57 1 -57
6 0 4 -7 6 -15 3 -8 -4 -17 -1 -21 4 -9 16 18 61 33 55 7 -3 12 -2 10 2 -1 4
9 19 22 32 13 14 20 18 16 10 -5 -8 -5 -12 0 -8 10 9 13 88 3 81 -5 -2 -8 14
-8 37 0 25 4 39 10 35 6 -3 7 1 4 9 -5 12 1 16 21 16 26 0 27 1 23 55 l-3 55
48 0 c29 0 46 -4 42 -10z m3364 -134 c6 -7 30 -16 52 -20 29 -5 43 -12 46 -26
3 -11 12 -20 20 -20 10 0 13 -9 11 -32 -4 -43 -32 -49 -50 -11 -26 53 -120 54
-182 1 -29 -25 -36 -37 -32 -54 5 -17 1 -26 -14 -34 -16 -9 -20 -21 -20 -60 0
-38 4 -50 15 -50 8 0 15 -9 15 -20 0 -14 10 -22 39 -30 25 -6 41 -17 44 -30 3
-13 14 -20 30 -20 13 0 30 -7 37 -15 7 -8 19 -15 27 -15 7 0 16 -7 19 -15 4
-9 19 -15 36 -15 29 0 75 -27 74 -43 -2 -14 66 -48 83 -42 27 11 104 16 136 9
27 -6 28 -8 10 -15 -11 -4 -36 -8 -55 -8 -33 -1 -38 -6 -69 -62 -25 -45 -32
-68 -27 -90 5 -27 3 -30 -25 -36 -23 -4 -29 -10 -27 -27 2 -12 -6 -28 -19 -39
-26 -21 -47 -79 -41 -117 3 -19 -1 -31 -14 -39 -22 -14 -23 -47 -2 -59 23 -13
13 -46 -14 -50 -12 -2 -26 -12 -32 -22 -9 -17 -39 -30 -102 -44 -17 -4 -28
-13 -28 -23 0 -13 -3 -14 -12 -5 -17 17 -73 15 -88 -3 -16 -19 -4 -52 21 -60
16 -5 18 -10 8 -21 -6 -8 -20 -14 -30 -14 -11 0 -28 -9 -38 -19 -11 -11 -38
-25 -60 -31 -29 -8 -39 -15 -35 -25 4 -8 15 -15 25 -15 12 0 19 -7 19 -19 0
-19 -39 -33 -127 -47 -27 -3 -43 -11 -43 -20 0 -9 -11 -14 -29 -14 -17 0 -33
-4 -36 -10 -3 -5 -20 -10 -36 -10 -19 0 -37 -8 -48 -21 -15 -19 -33 -22 -162
-30 -79 -5 -154 -12 -165 -14 -29 -6 -38 -34 -19 -55 8 -9 15 -20 15 -25 0
-12 -238 6 -260 20 -6 4 -18 1 -26 -6 -11 -9 -18 -9 -26 -1 -9 9 -7 12 10 12
13 0 34 11 47 24 14 15 58 33 118 50 155 44 183 57 268 124 16 13 29 32 29 41
0 10 14 33 30 51 17 18 30 37 30 42 0 4 13 8 29 8 21 0 32 -6 36 -20 4 -12 15
-20 29 -20 26 0 46 -18 46 -41 0 -20 46 -27 133 -20 45 3 48 4 45 30 -2 19
-10 27 -26 29 -17 3 -23 9 -19 21 3 14 -7 22 -44 36 -27 9 -49 23 -49 31 0 8
-10 14 -24 14 -15 0 -26 7 -29 20 -3 11 -17 24 -31 30 -20 7 -26 16 -26 39 0
24 -5 29 -29 34 -21 4 -30 13 -33 29 -2 18 -10 24 -35 26 -25 2 -33 8 -33 23
0 11 -7 19 -17 19 -25 0 -53 30 -53 57 0 12 -4 23 -10 23 -5 0 -10 7 -10 15 0
8 -4 15 -10 15 -6 0 -10 32 -10 75 0 63 3 78 20 92 16 14 20 30 20 75 0 54 2
58 26 64 14 4 43 2 64 -5 20 -6 49 -11 64 -11 19 0 29 -7 35 -24 8 -18 19 -24
54 -28 25 -3 58 -15 74 -26 46 -33 76 -36 98 -12 18 20 18 21 -5 45 -15 16
-19 25 -10 25 10 0 9 5 -3 18 -10 10 -17 28 -17 40 0 18 -6 22 -29 22 -17 0
-33 5 -36 10 -3 6 -14 10 -24 10 -10 0 -21 9 -24 20 -4 15 -14 20 -37 20 -22
0 -41 9 -61 29 -39 39 -38 67 1 76 17 4 37 14 46 23 13 12 20 13 35 4 24 -16
102 -15 117 0 17 17 16 138 -1 138 -17 0 -49 34 -41 43 4 4 -5 11 -19 16 -33
13 -40 25 -32 61 7 32 38 42 49 15 3 -8 15 -15 27 -15 12 0 39 -5 60 -12 57
-17 188 4 237 37 20 14 49 25 63 25 15 0 37 9 50 20 29 23 33 24 48 6z m-1419
-340 c0 -9 19 -15 62 -19 82 -7 198 3 195 17 -3 14 94 9 108 -6 7 -8 5 -9 -5
-3 -8 5 -12 4 -7 0 4 -5 25 -8 46 -6 24 1 42 -3 50 -13 8 -9 21 -16 30 -17 9
-1 5 -4 -9 -9 -32 -10 -113 -12 -107 -2 3 4 -24 5 -60 4 -36 -2 -63 0 -60 5 3
4 -23 8 -58 8 -35 0 -61 -4 -58 -9 3 -5 -10 -7 -30 -4 -21 2 -33 0 -30 -6 4
-5 -3 -7 -15 -4 -16 4 -19 2 -15 -10 4 -8 2 -13 -3 -9 -5 3 -10 -3 -10 -13 0
-10 3 -17 7 -14 4 2 9 -1 11 -8 2 -6 40 -17 84 -24 l79 -12 -65 -1 c-68 -2
-302 0 -357 2 -32 2 -36 17 -3 17 33 0 50 12 50 34 0 14 10 28 25 36 14 7 25
19 25 26 0 7 5 16 12 20 7 5 8 3 3 -6 -5 -8 -4 -11 3 -6 6 4 9 13 6 21 -6 14
15 21 69 24 17 0 27 -4 27 -13z m-1040 -37 c0 -15 -5 -19 -16 -15 -8 3 -13 2
-11 -2 3 -4 -186 -9 -420 -10 -234 -2 -423 0 -420 5 3 4 -19 8 -48 8 -29 0
-51 -3 -48 -7 2 -5 -14 -8 -37 -8 -23 0 -39 3 -36 8 2 4 -14 6 -35 4 -22 -3
-70 0 -107 4 -65 8 -63 9 73 15 232 11 557 10 550 -1 -4 -7 3 -7 20 0 30 12
148 14 142 3 -3 -5 71 -8 163 -8 92 0 166 3 164 7 -5 8 15 16 44 17 16 1 22
-5 22 -20z m-2901 -233 c25 -13 86 -44 135 -68 48 -23 91 -49 93 -55 3 -7 14
-13 25 -13 10 0 36 -13 56 -29 20 -16 47 -32 59 -35 11 -4 28 -18 37 -31 10
-16 26 -25 41 -25 18 0 25 -5 25 -19 0 -12 11 -23 29 -29 16 -6 35 -23 43 -39
7 -16 23 -29 36 -31 13 -2 22 -10 22 -21 0 -10 14 -23 33 -32 17 -8 32 -21 32
-29 0 -8 9 -17 20 -20 11 -3 26 -18 33 -33 8 -17 21 -27 36 -27 19 0 24 -8 32
-50 10 -48 10 -50 -10 -44 -12 4 -25 12 -31 19 -5 7 -25 15 -44 19 -45 8 -61
23 -61 55 0 34 -52 61 -81 42 -10 -6 -32 -11 -49 -11 -16 0 -30 -4 -30 -10 0
-5 -13 -22 -30 -37 -16 -14 -30 -32 -30 -40 0 -10 -7 -11 -27 -6 -23 6 -183 8
-425 4 -27 0 -48 -5 -48 -11 0 -12 -24 -13 -48 -1 -9 5 -29 14 -44 21 -15 7
-28 22 -30 34 -2 14 -12 22 -33 26 -18 3 -34 14 -40 28 -8 19 -17 22 -61 22
-46 0 -52 -3 -58 -24 -5 -20 -14 -25 -58 -29 -29 -4 -89 -6 -132 -6 -116 0
-168 -10 -188 -34 -13 -17 -28 -21 -73 -22 -70 0 -86 16 -68 66 10 26 9 34 -2
46 -19 18 -19 28 0 47 8 8 15 23 15 34 0 11 7 25 15 32 8 7 15 23 15 36 0 14
8 25 20 29 11 3 20 15 20 25 0 10 7 21 16 24 8 3 12 10 9 16 -3 6 2 13 12 17
23 9 37 23 46 46 3 9 14 17 22 17 18 0 45 23 45 37 0 5 16 15 35 23 19 8 35
18 35 23 0 5 7 4 15 -3 12 -10 18 -10 32 1 27 21 52 53 53 65 0 23 71 32 264
33 191 1 200 0 245 -23z"/>
<path d="M8065 9903 c-11 -3 -25 -9 -31 -14 -15 -12 -16 -530 -1 -582 10 -38
11 -38 23 -15 8 13 13 32 14 44 0 12 10 25 25 32 17 8 25 20 26 39 6 171 5
472 -2 486 -10 17 -18 19 -54 10z"/>
<path d="M5176 9694 c-10 -27 -7 -372 4 -379 6 -3 10 -16 10 -28 0 -19 3 -18
20 11 11 18 20 44 20 57 0 14 5 25 10 25 6 0 10 19 10 43 0 23 7 51 15 61 11
15 15 48 15 123 l0 103 -49 0 c-35 0 -51 -4 -55 -16z"/>
<path d="M8038 8956 c3 -33 -1 -62 -9 -77 -10 -19 -12 -117 -11 -459 2 -246 7
-451 12 -471 9 -31 15 -38 43 -42 17 -3 36 -1 41 3 9 9 16 768 8 887 -4 61 -8
73 -27 83 -22 12 -45 67 -45 109 0 11 -4 21 -8 21 -5 0 -7 -24 -4 -54z"/>
<path d="M9750 3330 c0 -22 -265 -26 -1205 -19 -170 1 -365 -1 -432 -3 -71 -3
-165 0 -225 7 -84 10 -106 10 -118 0 -12 -11 -412 -13 -2167 -13 -1183 0
-2157 -3 -2164 -7 -6 -5 -87 -9 -178 -10 -103 -1 -175 -6 -188 -13 -15 -9
-132 -12 -395 -12 -282 0 -377 -3 -386 -12 -10 -10 -17 -10 -32 0 -27 16 -865
18 -876 1 -3 -6 -19 -9 -35 -7 -16 3 -29 1 -29 -4 0 -4 -27 -8 -61 -8 -51 0
-62 -3 -66 -19 -2 -10 -16 -24 -30 -30 -55 -25 3 -100 87 -113 25 -3 107 -7
182 -7 79 -1 139 -5 143 -11 3 -5 19 -10 36 -10 16 0 29 -4 29 -10 0 -5 8 -10
18 -10 23 0 42 -19 42 -42 0 -14 9 -18 43 -20 77 -3 192 4 208 13 25 13 79
-12 86 -39 3 -13 3 -48 -1 -78 -3 -30 -2 -63 4 -74 5 -11 15 -29 20 -40 13
-27 13 -470 0 -470 -5 0 -10 -20 -10 -44 0 -25 5 -48 10 -51 19 -12 10 -52
-14 -69 -34 -22 -43 -70 -20 -113 18 -32 18 -35 2 -44 -10 -6 -18 -16 -18 -23
0 -24 -29 -28 -236 -37 -208 -9 -248 -16 -271 -49 -8 -11 -21 -20 -29 -20 -8
0 -14 -9 -14 -19 0 -13 9 -21 30 -26 20 -4 30 -13 30 -25 0 -33 61 -40 146
-16 82 23 313 40 362 26 l43 -11 -1 -182 c-1 -106 3 -193 9 -209 9 -25 16 -28
56 -28 40 0 45 2 45 23 0 13 3 26 6 30 9 8 10 167 2 167 -5 0 -8 37 -8 83 1
122 -16 116 331 117 156 0 331 1 389 2 120 2 278 -11 286 -24 3 -4 108 -8 233
-8 126 0 248 -3 273 -6 l45 -6 7 -242 c8 -284 9 -294 45 -302 14 -3 33 -8 42
-10 9 -3 27 4 40 15 19 15 21 21 11 34 -9 11 -12 73 -11 235 l1 220 24 11 c13
6 24 15 24 21 0 15 163 13 179 -2 8 -9 58 -13 169 -14 522 -4 682 -3 732 7 30
6 66 11 80 11 30 1 322 -22 368 -28 l32 -5 1 -67 c1 -37 3 -101 5 -142 2 -41
3 -95 2 -120 -8 -227 0 -296 32 -287 11 3 25 -1 31 -9 21 -26 47 10 54 75 3
31 11 92 17 136 8 61 8 94 -1 135 -7 30 -14 105 -17 167 l-5 111 49 16 c28 10
60 14 73 11 29 -7 470 -18 765 -19 182 -1 215 1 230 15 29 25 138 40 254 35
58 -2 106 -5 108 -5 1 -1 2 -10 2 -20 0 -11 5 -23 11 -27 8 -5 10 -34 7 -93
-3 -47 -3 -158 1 -245 l6 -160 30 -8 c17 -5 40 -6 53 -3 l22 5 0 238 c0 130 4
244 10 252 7 11 44 16 157 21 101 4 163 12 196 24 39 14 72 17 178 13 92 -3
133 -8 138 -17 9 -14 359 -30 701 -31 237 0 277 -5 285 -32 9 -26 -6 -269 -15
-263 -5 3 -6 -4 -3 -15 3 -11 0 -20 -6 -20 -6 0 -11 -17 -11 -40 0 -40 0 -40
38 -40 65 0 65 -1 66 199 1 132 5 184 14 193 9 9 72 15 215 20 111 4 222 13
247 19 78 20 242 23 297 4 40 -14 108 -17 398 -21 199 -3 365 -9 385 -15 45
-14 64 -50 50 -98 -12 -43 7 -111 32 -111 9 0 19 8 22 18 3 10 19 23 35 29 26
9 30 17 36 67 6 49 10 56 30 56 12 0 29 7 36 16 12 15 29 16 134 9 172 -11
229 -8 328 17 63 16 87 26 87 37 0 18 -55 80 -73 82 -7 1 -123 2 -258 3 -219
1 -247 3 -263 18 -16 16 -17 54 -17 495 1 449 3 498 28 563 4 8 5 19 4 24 -1
6 3 20 10 33 10 19 9 26 -4 41 -21 23 -22 48 -1 56 12 5 15 18 14 54 -2 26 -2
53 -1 61 1 12 30 13 179 9 174 -6 536 2 545 12 2 3 7 22 10 42 5 35 4 38 -21
44 -15 3 -34 8 -42 11 -8 4 -20 5 -27 4 -6 -1 -14 3 -18 9 -3 5 -16 10 -27 10
-11 0 -26 8 -33 17 -11 15 -43 19 -252 26 -131 4 -308 13 -393 18 -180 12
-900 19 -900 9z m796 -213 c4 -5 17 -1203 14 -1319 0 -16 -13 -18 -132 -18
-165 0 -370 18 -379 32 -10 16 -840 17 -860 2 -18 -15 -151 -25 -170 -14 -12
8 -14 55 -14 277 0 147 2 318 3 378 9 338 15 484 21 493 3 6 26 8 54 5 37 -5
47 -9 47 -24 0 -29 38 -24 52 6 8 18 19 25 40 25 16 0 28 5 28 13 0 16 98 47
149 47 49 0 69 -21 52 -56 -19 -43 -14 -52 34 -60 68 -10 135 3 135 26 0 13
-8 20 -27 22 -23 2 -29 8 -31 36 l-3 32 90 0 c50 0 91 4 91 9 0 13 51 21 183
30 101 7 121 11 141 30 21 20 39 23 192 30 138 7 283 6 290 -2z m-5443 -27 c6
-22 6 -22 140 -22 76 0 92 3 111 21 15 14 35 21 64 21 37 0 44 -4 53 -27 13
-34 2 -332 -13 -350 -6 -7 -8 -25 -5 -39 3 -17 0 -27 -10 -31 -11 -4 -13 -15
-8 -42 4 -20 10 -40 13 -46 3 -5 5 -27 3 -49 -2 -24 2 -42 11 -47 10 -7 13
-59 13 -251 0 -134 -1 -275 -3 -315 -4 -70 -4 -72 -34 -82 -20 -7 -171 -11
-427 -11 -328 0 -430 4 -596 21 -110 11 -261 25 -335 29 -74 5 -151 13 -170
18 l-35 8 -3 229 c-3 217 7 353 28 380 5 6 11 56 15 113 4 56 11 102 16 102
14 0 11 194 -3 208 -9 9 -9 12 0 12 7 0 12 16 12 40 l0 40 202 -1 c140 -1 203
2 206 10 5 15 99 14 106 -1 5 -10 7 -10 12 0 3 6 14 12 25 12 10 0 19 5 19 10
0 6 32 10 75 10 63 0 75 -3 75 -16 0 -20 28 -43 53 -44 9 0 17 -4 17 -10 0 -6
27 -10 60 -10 45 0 60 4 60 14 0 8 15 17 35 20 20 4 35 13 35 21 0 14 10 19
66 30 18 3 40 15 50 26 23 25 60 25 67 -1z m1079 -41 c9 -5 35 -9 57 -9 40 0
41 -1 47 -41 l7 -41 101 7 c56 3 127 11 158 16 45 8 69 6 110 -6 82 -24 347
-14 356 14 2 6 17 11 33 11 22 0 29 -5 29 -20 0 -11 5 -20 10 -20 6 0 10 -10
10 -23 0 -13 7 -32 15 -43 20 -26 20 -103 0 -110 -21 -8 -19 -51 2 -63 16 -9
16 -12 -7 -36 -28 -29 -27 -20 -16 -350 5 -154 10 -203 21 -215 17 -19 20
-116 5 -140 -5 -8 -5 -17 -1 -20 4 -3 11 -29 15 -58 6 -50 6 -53 -21 -63 -17
-7 -114 -12 -242 -13 -162 -1 -215 -4 -218 -13 -3 -7 -15 -13 -28 -13 -13 0
-26 -4 -29 -8 -8 -13 -530 -22 -601 -11 -113 17 -220 30 -295 35 -41 3 -79 10
-84 15 -13 12 -16 226 -5 314 5 39 15 122 23 185 8 63 15 177 16 253 0 75 4
137 8 137 4 0 6 16 4 36 -3 27 0 39 12 46 21 12 22 81 1 98 -18 15 -22 156 -4
162 22 7 495 -5 511 -13z m-2442 -147 c0 -124 -3 -162 -15 -178 -8 -10 -15
-27 -15 -36 0 -10 -7 -18 -15 -18 -12 0 -15 -16 -15 -80 0 -43 6 -99 13 -122
14 -43 14 -218 1 -304 -4 -26 -2 -44 5 -48 6 -4 11 -17 11 -30 0 -12 5 -27 11
-33 6 -6 13 -45 16 -87 l6 -77 -224 5 c-364 9 -513 17 -523 27 -14 13 -243 12
-248 -1 -5 -16 -553 -19 -553 -3 0 6 -3 15 -7 19 -10 10 -10 224 0 224 4 0 6
31 4 70 -2 42 0 70 6 70 6 0 13 23 17 50 4 28 11 50 16 50 5 0 9 60 9 133 0
138 10 205 31 218 10 6 9 12 -5 28 -15 16 -18 35 -17 98 1 42 3 78 5 80 2 2
12 4 22 3 138 -4 280 2 289 14 6 7 42 15 88 19 89 8 167 25 167 38 0 14 58 11
62 -3 6 -17 470 -17 476 0 4 14 62 16 62 2 0 -6 36 -10 88 -10 75 0 90 3 105
20 13 16 29 20 72 20 l55 0 0 -158z m3659 141 c9 -10 25 -23 36 -29 11 -6 21
-20 23 -31 2 -16 13 -22 45 -27 66 -10 72 -17 56 -62 -8 -22 -22 -47 -31 -58
-14 -16 -15 -21 -3 -32 10 -10 47 -14 143 -14 72 0 137 3 146 6 12 4 16 20 16
54 l0 47 51 7 c60 8 247 -3 255 -15 7 -12 64 -12 64 0 0 4 26 11 57 15 31 4
61 10 67 15 19 15 111 32 177 33 73 1 120 -9 132 -28 4 -7 23 -16 42 -20 29
-5 35 -11 35 -31 0 -25 2 -25 44 -20 42 6 45 5 50 -21 3 -15 6 -63 5 -107 0
-44 2 -147 5 -230 7 -223 9 -695 3 -701 -3 -3 -177 -8 -387 -11 -298 -4 -390
-2 -425 8 -25 7 -45 17 -45 21 0 4 -16 8 -35 8 -19 0 -35 -4 -35 -10 0 -6 -28
-10 -65 -10 -37 0 -65 4 -65 10 0 17 -290 13 -341 -5 -53 -19 -108 -12 -139
17 l-23 21 7 331 c10 507 12 549 24 579 6 15 18 27 27 27 23 0 19 49 -7 70
-21 17 -21 19 -8 61 8 24 14 47 12 52 -1 4 3 7 8 7 6 0 10 13 10 29 0 16 3 36
6 45 8 21 43 20 63 -1z"/>
</g>
</svg>
