<?xml version="1.0" standalone="no"?>
<!DOCTYPE svg PUBLIC "-//W3C//DTD SVG 20010904//EN"
 "http://www.w3.org/TR/2001/REC-SVG-20010904/DTD/svg10.dtd">
<svg version="1.0" xmlns="http://www.w3.org/2000/svg"
 width="920.000000pt" height="1125.000000pt" viewBox="0 0 920.000000 1125.000000"
 preserveAspectRatio="xMidYMid meet">
<metadata>
Created by potrace 1.16, written by Peter Selinger 2001-2019
</metadata>
<g transform="translate(0.000000,1125.000000) scale(0.100000,-0.100000)"
fill="#000000" stroke="none">
<path d="M4120 10326 c-14 -8 -70 -16 -130 -19 -230 -11 -391 -83 -552 -248
-86 -87 -135 -157 -195 -274 -40 -78 -94 -220 -108 -280 -7 -35 -43 -99 -75
-135 -21 -24 -66 -95 -102 -163 -34 -64 -70 -190 -97 -342 -30 -166 -42 -608
-21 -772 22 -175 65 -353 107 -443 54 -116 70 -160 59 -160 -3 0 -25 32 -50
70 -31 47 -52 70 -65 70 -11 0 -21 -5 -23 -12 -2 -6 -29 -15 -59 -19 -123 -18
-128 -22 -129 -89 0 -14 -9 -44 -21 -65 -19 -37 -20 -51 -15 -165 14 -282 103
-608 202 -737 31 -41 177 -153 199 -153 9 0 22 13 28 30 6 17 14 30 18 30 4 0
10 11 13 24 3 14 20 34 36 46 35 25 38 52 9 81 -14 14 -27 18 -42 13 -26 -8
-94 -77 -102 -105 -4 -10 -10 -19 -15 -19 -10 0 -89 160 -128 260 -37 95 -70
202 -83 271 -18 90 -30 479 -16 479 5 0 6 -4 3 -9 -3 -4 5 -6 17 -4 13 2 33
-5 49 -19 14 -13 35 -30 45 -39 10 -9 44 -46 77 -83 37 -43 68 -69 86 -73 24
-4 29 -11 35 -50 7 -46 -2 -123 -13 -123 -4 0 -29 18 -57 40 -59 47 -95 51
-130 16 -35 -36 -39 -79 -16 -195 12 -57 21 -113 21 -125 0 -11 9 -36 20 -53
17 -28 25 -33 59 -33 22 0 43 5 47 11 3 6 14 -2 25 -20 15 -25 25 -31 51 -31
46 1 67 20 82 77 8 26 24 73 36 103 12 30 39 114 61 185 62 206 92 260 139
250 23 -5 31 0 55 37 25 38 29 54 32 128 1 47 3 88 3 91 0 3 12 4 28 1 22 -3
33 -15 60 -71 17 -37 32 -71 32 -75 0 -4 7 -15 16 -24 15 -15 14 -17 -14 -30
-60 -29 -70 -123 -15 -155 7 -5 10 -14 7 -20 -4 -7 -4 -9 1 -5 4 4 16 3 26 -2
13 -7 38 -5 86 9 59 16 71 17 89 4 15 -9 28 -11 46 -4 33 12 45 29 59 81 11
43 10 49 -23 118 -19 39 -31 72 -27 72 4 0 11 -4 14 -10 3 -5 15 -10 26 -10
10 0 19 -5 19 -12 0 -13 71 -121 83 -126 4 -2 14 -10 21 -18 8 -8 19 -14 25
-14 6 0 11 -4 11 -10 0 -5 14 -10 30 -10 17 0 30 -4 30 -10 0 -5 9 -10 20 -10
11 0 20 4 20 9 0 5 12 11 28 13 33 4 45 44 15 55 -21 7 -130 113 -117 113 5 0
4 4 -3 8 -6 4 -19 27 -28 52 -9 25 -23 62 -31 82 -23 61 1 88 42 49 11 -10 30
-22 42 -25 12 -4 22 -11 22 -16 0 -5 14 -11 30 -15 17 -4 28 -10 25 -14 -2 -5
7 -6 20 -3 14 2 25 8 25 13 0 5 6 9 14 9 28 0 60 89 64 181 l4 86 22 -22 c11
-11 30 -38 41 -58 11 -20 24 -37 29 -37 5 0 7 -3 3 -6 -3 -3 3 -23 14 -42 10
-20 19 -42 19 -49 0 -7 5 -13 10 -13 6 0 10 -6 10 -12 0 -7 6 -25 14 -39 21
-41 38 -149 34 -225 l-3 -69 35 -3 c19 -2 32 -1 28 3 -4 4 2 16 12 27 10 12
22 35 26 52 3 17 10 36 14 41 4 6 10 29 14 52 6 40 16 55 80 126 16 18 50 64
76 104 35 53 50 69 59 60 13 -13 14 -51 2 -75 -5 -9 -23 -62 -41 -117 -17 -55
-34 -107 -37 -115 -4 -8 -14 -43 -23 -78 -14 -54 -15 -65 -3 -82 14 -20 63
-28 63 -10 0 6 5 10 11 10 6 0 17 7 25 15 9 8 12 15 8 15 -4 0 5 11 20 25 14
13 26 31 26 40 0 8 4 15 8 15 5 0 14 19 21 41 12 40 13 41 27 20 12 -17 26
-21 65 -21 29 0 49 4 49 11 0 6 7 9 14 6 10 -4 13 -1 9 9 -3 7 -1 14 5 14 5 0
12 10 16 23 3 13 15 34 26 47 23 26 27 15 6 -15 -7 -11 -17 -31 -21 -45 -10
-34 -41 -71 -50 -62 -5 4 -5 1 -1 -6 5 -8 -3 -29 -19 -52 -23 -33 -25 -41 -13
-59 13 -22 68 -30 68 -11 0 6 9 10 21 10 11 0 17 5 14 10 -3 6 1 10 9 10 8 0
17 8 20 18 4 9 15 28 26 42 l19 25 -6 -43 -6 -42 35 0 c37 0 58 15 58 40 0 17
43 60 60 60 6 0 16 -11 22 -25 8 -17 19 -25 37 -25 15 0 38 11 53 25 15 14 30
25 33 25 18 0 222 203 230 231 8 24 25 25 20 2 -13 -62 -86 -170 -107 -157 -5
3 -7 0 -6 -8 2 -7 -3 -12 -10 -10 -6 1 -11 -4 -10 -10 2 -7 -3 -12 -10 -10 -6
1 -11 -2 -10 -8 3 -11 -74 -84 -114 -108 -15 -9 -28 -20 -28 -24 0 -12 66 -20
102 -13 96 19 233 128 281 226 44 88 52 146 38 267 -7 59 -17 114 -21 122 -4
8 -13 63 -19 122 -7 59 -17 121 -22 138 -9 23 -7 40 6 77 37 106 30 273 -16
365 -14 28 -19 59 -19 125 0 95 -14 153 -55 236 -22 44 -95 150 -114 167 -43
38 -201 252 -201 273 0 5 -44 76 -97 156 -101 152 -173 280 -192 343 -7 20
-22 43 -35 51 -12 9 -63 69 -111 134 -143 191 -153 197 -331 201 -129 4 -132
3 -172 -23 -22 -15 -43 -33 -46 -41 -8 -20 -53 -17 -78 5 -24 23 -152 87 -188
95 -14 3 -36 0 -50 -8z"/>
<path d="M4880 7265 c-6 -19 -16 -35 -21 -35 -18 0 -9 -32 10 -37 17 -4 18 -8
8 -24 -17 -27 -1 -39 75 -56 34 -8 87 -28 115 -44 29 -16 55 -29 58 -29 11 0
104 -50 110 -60 6 -9 63 -38 107 -53 15 -5 16 -11 8 -33 -15 -39 -48 -248 -55
-350 -7 -99 -22 -183 -38 -201 -5 -7 -6 -13 -1 -13 4 0 3 -5 -4 -12 -7 -7 -12
-19 -12 -28 0 -8 -6 -26 -13 -40 -7 -14 -21 -52 -31 -85 -21 -70 -62 -182 -76
-207 -6 -10 -10 -22 -10 -28 0 -5 -13 -39 -30 -75 -16 -36 -30 -70 -30 -75 0
-6 -4 -18 -9 -28 -5 -9 -21 -48 -36 -87 -15 -38 -31 -79 -35 -90 -26 -65 -31
-86 -28 -116 2 -28 8 -34 28 -37 22 -2 29 6 55 60 17 34 28 63 27 66 -2 3 1 8
6 11 14 8 152 273 225 431 25 53 47 121 43 129 -3 4 7 49 20 101 20 78 26 134
34 310 9 225 17 279 57 370 82 186 99 290 47 290 -14 0 -54 -74 -94 -173 -25
-63 -40 -68 -55 -19 -6 23 -18 35 -40 42 -18 6 -64 39 -103 74 -39 36 -102 81
-139 102 -37 20 -85 47 -105 60 -49 31 -54 30 -68 -11z"/>
<path d="M4180 7194 c-38 -14 -105 -29 -160 -34 -130 -14 -216 -29 -272 -48
-46 -15 -53 -24 -50 -62 1 -9 -9 -20 -21 -25 -23 -11 -35 -42 -20 -55 4 -5 35
-4 68 1 136 20 130 25 58 -45 -63 -61 -82 -98 -83 -164 0 -22 2 -22 63 -16 36
3 114 -1 187 -10 161 -21 194 -20 274 4 63 20 66 22 77 62 13 51 7 88 -25 134
-31 46 -86 83 -139 93 -31 7 -6 9 99 10 94 1 144 5 152 13 18 18 14 49 -8 55
-17 5 -17 7 -5 20 18 18 19 49 3 59 -7 5 -24 7 -39 6 -16 -1 -29 4 -33 13 -8
22 -51 18 -126 -11z m-200 -233 c-16 -32 -12 -103 10 -144 24 -44 28 -44 -105
-22 -49 8 -94 15 -100 15 -16 0 118 130 155 150 45 24 53 25 40 1z m212 -6
c25 -17 41 -38 52 -71 25 -73 22 -78 -37 -97 -73 -23 -82 -22 -63 5 17 24 20
79 7 146 -5 23 -5 42 -2 42 4 0 23 -11 43 -25z"/>
<path d="M4897 7003 c-35 -20 -50 -35 -54 -55 -3 -15 -9 -28 -14 -28 -5 0 -9
-9 -9 -20 0 -11 4 -20 9 -20 6 0 11 -15 13 -32 2 -28 10 -37 48 -56 41 -22 52
-23 135 -16 50 3 115 8 145 10 97 7 105 9 108 26 4 20 -2 28 -83 110 -106 107
-203 134 -298 81z"/>
<path d="M4490 6892 c0 -132 6 -152 41 -152 24 0 34 68 25 173 -7 85 -17 107
-47 107 -18 0 -19 -9 -19 -128z"/>
<path d="M7335 6515 c-22 -7 -63 -23 -90 -35 -28 -12 -78 -36 -113 -51 -34
-16 -71 -29 -81 -29 -10 0 -23 -6 -29 -12 -19 -24 -34 -101 -27 -145 5 -37 9
-43 31 -43 20 0 30 11 55 65 24 49 37 65 52 65 11 0 34 4 51 9 237 72 243 73
291 40 23 -15 75 -38 116 -52 133 -45 209 -79 219 -98 15 -27 12 -77 -11 -159
-11 -41 -22 -84 -23 -95 -1 -11 -14 -58 -28 -105 -31 -100 -46 -206 -28 -195
17 11 82 149 117 250 60 174 79 331 46 381 -9 14 -42 37 -72 51 -82 37 -207
98 -281 138 -71 38 -122 43 -195 20z"/>
<path d="M3274 6429 c-14 -23 -17 -192 -5 -262 13 -73 29 -134 42 -152 4 -5
12 -37 19 -70 7 -33 16 -69 20 -80 4 -11 14 -40 21 -65 7 -25 30 -82 51 -127
20 -45 40 -94 44 -108 3 -14 10 -25 15 -25 5 0 6 -6 3 -13 -3 -8 2 -20 11 -27
8 -7 15 -18 15 -25 0 -7 6 -18 14 -24 8 -7 17 -24 21 -39 4 -15 10 -29 14 -32
18 -12 60 -84 54 -93 -3 -6 -1 -7 5 -3 11 7 17 -6 13 -27 -1 -5 3 -6 8 -3 5 3
17 -7 26 -22 47 -72 128 -172 175 -215 28 -26 49 -51 46 -56 -3 -5 2 -8 12 -7
9 0 16 -5 15 -11 -2 -7 3 -12 10 -10 6 1 11 -3 10 -10 -2 -8 4 -10 14 -6 12 5
14 3 8 -7 -5 -8 -4 -11 2 -7 5 3 25 -4 44 -16 57 -38 163 -70 211 -64 93 12
108 18 108 42 0 29 -81 102 -160 144 -165 86 -216 114 -220 120 -3 3 -17 14
-31 23 -57 36 -133 116 -183 192 -29 45 -60 89 -70 99 -10 9 -14 17 -9 17 4 0
3 4 -3 8 -29 20 -147 238 -158 292 -1 3 -5 11 -9 18 -8 11 -19 47 -79 257 -19
68 -33 124 -63 263 -27 127 -43 160 -61 131z"/>
<path d="M6546 6211 c-3 -5 -31 -20 -61 -35 -47 -22 -56 -30 -53 -49 2 -18 9
-22 38 -22 19 0 54 4 78 8 24 4 41 4 39 0 -3 -5 20 -8 52 -9 68 -1 133 -12
127 -22 -3 -4 11 -6 31 -4 25 3 34 1 29 -7 -4 -6 -2 -9 7 -5 8 3 47 -2 88 -11
41 -8 89 -15 107 -15 18 0 31 -3 29 -7 -3 -5 14 -7 36 -5 38 3 47 -1 91 -42
27 -25 53 -46 57 -46 5 0 9 -4 9 -9 0 -5 9 -13 21 -16 12 -4 31 -15 43 -26 11
-10 30 -25 41 -34 11 -9 14 -13 6 -9 -9 4 -12 3 -7 -4 4 -6 12 -9 19 -6 7 2
34 -16 61 -41 59 -57 81 -55 71 8 -4 23 -13 52 -21 64 -18 29 -19 52 -2 35 45
-45 192 65 170 127 -8 20 -74 6 -144 -31 -51 -28 -58 -35 -53 -56 6 -23 5 -23
-22 -5 -33 21 -28 17 -140 124 -49 47 -105 92 -124 101 -27 12 -72 16 -208 17
-196 2 -259 7 -316 27 -46 16 -91 18 -99 5z"/>
<path d="M5497 6178 c-68 -6 -107 -26 -107 -53 0 -17 153 -85 193 -85 9 0 17
-5 17 -10 0 -6 17 -45 39 -88 107 -214 116 -227 146 -202 17 14 21 110 6 138
-5 9 -12 43 -16 74 l-7 57 35 6 c49 9 188 -14 337 -57 43 -12 119 -27 143 -27
30 -1 20 43 -18 81 -28 28 -49 38 -98 47 -34 7 -96 21 -137 31 -41 10 -97 24
-125 30 -27 6 -66 15 -85 20 -165 40 -232 48 -323 38z"/>
<path d="M4830 6126 c-12 -36 -25 -46 -32 -25 -9 27 -81 -14 -155 -88 -47 -47
-85 -76 -104 -80 -16 -3 -32 -10 -35 -15 -9 -14 26 -48 50 -48 24 0 115 41
156 70 16 12 44 20 67 20 32 0 41 5 61 35 12 19 22 43 22 53 0 10 5 23 11 29
16 16 7 77 -13 81 -11 2 -20 -8 -28 -32z"/>
<path d="M2860 6010 c-85 -46 -230 -142 -364 -238 -164 -120 -169 -123 -270
-176 -49 -26 -110 -66 -135 -90 -161 -150 -198 -188 -239 -246 -110 -153 -246
-451 -332 -724 -46 -149 -104 -359 -114 -416 -3 -19 -9 -46 -12 -60 -14 -58
-54 -290 -60 -345 -4 -33 -8 -63 -10 -66 -8 -14 -19 -277 -18 -434 1 -174 18
-353 35 -369 5 -6 9 -2 10 12 1 12 2 25 3 30 2 4 6 34 10 67 4 33 11 96 17
140 5 44 11 96 13 115 2 19 7 51 10 70 3 19 8 55 10 80 14 131 18 167 22 190
3 14 12 75 20 135 8 61 17 117 20 125 4 8 8 33 11 55 2 22 6 47 9 55 4 8 15
60 25 115 32 174 75 358 98 420 32 84 78 227 96 295 33 126 87 219 193 329 28
30 52 57 52 59 0 3 8 12 18 21 27 25 95 105 112 131 16 24 45 55 76 80 11 8
41 33 69 55 27 22 58 47 68 55 11 8 24 20 31 25 6 6 31 26 56 45 25 19 47 38
48 42 2 5 10 8 18 8 8 0 14 3 14 8 0 4 18 16 40 26 22 10 48 27 59 37 11 11
25 19 31 19 5 0 10 4 10 8 0 5 12 15 28 23 15 8 29 17 32 20 12 14 100 69 109
69 6 0 11 4 11 8 0 5 12 15 27 23 15 8 39 25 55 39 15 14 63 43 106 65 42 21
80 44 84 49 4 6 -12 16 -40 24 -86 25 -104 24 -162 -8z"/>
<path d="M6445 5890 c-3 -5 -16 -10 -29 -10 -29 0 -142 -40 -240 -84 -43 -20
-85 -36 -92 -36 -8 0 -14 -3 -14 -8 0 -4 -15 -13 -32 -20 -60 -25 -83 -37
-103 -55 -10 -10 -25 -15 -33 -12 -7 2 -10 1 -7 -5 3 -5 -18 -28 -47 -51 -145
-114 -397 -358 -445 -430 -14 -21 -29 -36 -33 -34 -5 3 -6 -4 -3 -14 3 -11 10
-22 17 -24 18 -7 66 4 66 14 0 5 7 9 15 9 8 0 15 5 15 10 0 6 5 10 11 10 5 0
37 27 69 60 32 33 63 60 67 60 5 0 15 9 23 20 8 11 18 20 23 20 5 0 15 7 24
15 8 9 43 34 77 57 33 23 63 45 64 50 2 4 8 8 13 8 11 0 42 27 118 100 48 47
69 60 147 86 l91 31 23 -51 22 -51 -30 -55 c-31 -59 -43 -151 -23 -187 5 -10
18 -35 27 -56 22 -50 104 -134 138 -143 14 -3 26 -9 26 -13 0 -11 89 -34 110
-28 11 3 23 1 26 -4 3 -5 10 -7 15 -3 5 3 26 -11 45 -32 l36 -37 -6 -76 c-4
-41 -11 -80 -15 -86 -5 -5 -11 -23 -14 -40 -3 -16 -20 -70 -37 -120 -73 -203
-81 -381 -17 -393 35 -7 48 17 47 87 -2 61 18 168 40 216 31 69 79 254 80 308
0 4 23 7 50 7 77 0 75 18 -12 108 -41 42 -80 86 -86 98 -6 11 -33 29 -59 39
-72 27 -138 58 -141 67 -2 4 -10 8 -18 8 -8 0 -14 5 -14 10 0 6 -5 10 -11 10
-14 0 -72 60 -95 99 -10 17 -21 31 -24 31 -8 0 -5 39 4 68 8 23 25 28 42 14
12 -11 86 -32 113 -32 26 0 144 -37 186 -58 43 -21 91 -63 87 -76 -2 -6 0 -8
3 -4 11 11 47 -11 39 -24 -4 -6 -3 -8 3 -5 6 4 19 -1 29 -9 10 -9 12 -12 4 -8
-9 4 -12 3 -7 -2 5 -5 13 -10 18 -10 5 -1 14 -2 20 -3 5 0 7 -6 3 -13 -4 -6
-3 -8 3 -5 9 6 55 -22 73 -43 3 -3 23 -19 45 -36 22 -16 45 -35 51 -43 7 -8
21 -12 37 -9 15 3 27 1 27 -3 0 -14 34 -10 56 6 19 14 18 15 -6 37 -14 13 -45
39 -70 58 -25 19 -54 42 -64 50 -11 8 -30 25 -43 38 -13 12 -28 22 -33 22 -4
0 -10 3 -12 8 -1 4 -41 37 -88 74 -47 36 -100 80 -118 97 -18 17 -38 31 -43
31 -6 0 -7 5 -4 10 3 6 0 10 -8 10 -8 0 -28 7 -45 16 -17 8 -60 22 -94 30 -87
21 -143 51 -170 90 -13 19 -26 34 -30 34 -22 0 9 29 40 38 80 23 120 32 140
32 32 0 132 52 132 68 0 19 -30 41 -56 42 -12 0 -33 9 -47 20 -27 22 -52 26
-62 10z"/>
<path d="M2886 5848 c-14 -45 36 -458 79 -658 9 -41 18 -84 20 -95 2 -11 11
-45 19 -75 8 -30 22 -84 31 -120 8 -36 19 -74 24 -85 5 -11 15 -42 22 -70 7
-27 19 -61 26 -75 7 -14 13 -32 13 -40 0 -8 6 -27 14 -41 7 -15 24 -57 36 -94
32 -97 129 -278 205 -381 16 -23 38 -53 47 -65 40 -56 76 -94 125 -134 29 -24
49 -46 45 -50 -4 -5 -1 -5 5 -1 16 9 56 -12 48 -24 -3 -6 0 -8 7 -5 7 3 38 -4
68 -15 70 -25 80 -25 80 3 0 22 -37 74 -100 139 -45 48 -62 68 -56 68 3 0 -10
17 -29 38 -56 59 -58 62 -129 165 -37 53 -64 97 -61 97 4 0 -2 12 -13 28 -33
46 -154 294 -177 362 -9 25 -18 50 -30 75 -15 32 -43 125 -51 165 -3 14 -7 32
-11 40 -3 8 -7 22 -9 30 -2 8 -10 40 -19 70 -19 64 -47 167 -70 260 -8 36 -20
79 -25 95 -8 28 -42 157 -55 215 -3 14 -10 41 -15 60 -5 19 -14 56 -21 83 -11
45 -35 63 -43 35z"/>
<path d="M6621 5828 c0 -31 5 -35 72 -67 71 -34 239 -139 245 -153 2 -5 10 -8
18 -8 8 0 14 -3 14 -7 0 -5 20 -21 45 -36 25 -16 42 -33 39 -38 -3 -5 -2 -9 3
-8 20 3 34 -2 28 -11 -3 -6 1 -7 9 -4 9 3 16 1 16 -5 0 -6 4 -11 9 -11 5 0 38
-18 74 -40 36 -21 77 -42 91 -46 21 -5 26 -2 32 20 4 17 0 35 -10 51 -9 14
-13 25 -9 25 4 0 -5 12 -19 28 -13 15 -39 47 -57 72 -17 26 -46 54 -64 64 -17
11 -41 28 -52 40 -11 12 -31 27 -44 34 -13 8 -39 22 -58 33 -18 10 -42 19 -51
19 -10 0 -22 4 -27 8 -6 5 -44 19 -85 32 -41 13 -79 27 -84 32 -6 4 -38 8 -73
8 l-63 0 1 -32z"/>
<path d="M4323 5695 c-46 -49 -110 -77 -190 -84 -47 -4 -78 -11 -81 -18 -2 -7
3 -13 12 -13 9 0 16 -3 16 -7 0 -11 50 -33 73 -33 10 0 16 -4 13 -8 -3 -5 23
-4 57 1 61 9 149 43 156 60 2 5 16 -4 32 -19 15 -15 26 -32 22 -37 -3 -6 -1
-7 5 -3 6 3 14 1 17 -4 5 -8 -11 -10 -52 -8 -56 3 -58 2 -61 -23 -2 -21 4 -32
28 -49 27 -19 41 -22 95 -17 53 4 71 10 105 37 43 34 56 80 23 80 -15 0 -15 2
2 14 35 24 65 29 65 12 0 -13 12 -16 55 -16 68 0 70 11 18 87 -32 46 -41 53
-70 53 -26 0 -45 -10 -82 -45 -26 -25 -55 -45 -64 -45 -16 0 -39 21 -87 79
-31 38 -75 41 -107 6z"/>
<path d="M7645 5597 c-18 -38 -35 -132 -35 -193 0 -41 -3 -45 -97 -149 -50
-55 -67 -89 -64 -129 3 -54 -14 -127 -44 -190 -18 -37 -21 -52 -12 -58 20 -13
33 -9 61 17 15 14 31 25 35 25 14 0 29 45 41 126 16 108 21 118 84 159 63 42
83 79 68 124 -6 16 -9 55 -6 88 13 195 13 213 -1 213 -8 0 -21 -15 -30 -33z"/>
<path d="M5660 5574 c-14 -14 -45 -37 -70 -50 -56 -30 -80 -45 -98 -62 -23
-21 -69 -42 -77 -34 -3 4 -5 0 -3 -8 2 -8 -3 -14 -10 -12 -8 1 -11 -2 -7 -7 3
-6 -3 -15 -14 -20 -11 -6 -25 -17 -33 -24 -7 -7 -35 -28 -61 -46 -40 -27 -48
-37 -42 -55 3 -11 7 -27 7 -33 3 -36 130 1 184 52 12 11 43 39 70 62 27 23 76
67 109 98 33 31 72 64 88 73 15 9 27 20 27 24 0 4 7 8 16 8 11 0 14 8 12 28
-3 23 -8 27 -38 30 -28 2 -41 -3 -60 -24z"/>
<path d="M4120 5415 c0 -15 45 -105 52 -105 5 0 6 -4 3 -10 -3 -5 -1 -10 5
-10 7 0 10 -7 6 -15 -3 -8 0 -14 7 -12 7 1 11 -4 10 -10 -2 -7 3 -12 10 -10 6
1 11 -5 9 -13 -2 -8 -1 -12 3 -8 4 4 33 -7 65 -23 31 -16 70 -29 85 -29 32 0
106 20 120 32 5 4 17 8 26 8 21 0 140 114 158 152 27 54 -5 62 -77 19 -51 -30
-84 -43 -117 -46 -11 -2 -40 -6 -65 -10 -59 -9 -220 33 -220 57 0 5 -6 8 -14
8 -8 0 -16 7 -20 15 -5 13 -46 22 -46 10z"/>
<path d="M2177 5343 c-11 -10 -8 -42 5 -66 7 -12 13 -29 14 -37 2 -8 7 -33 13
-55 11 -48 26 -126 42 -220 6 -38 15 -77 19 -85 13 -25 40 -161 46 -230 3 -35
8 -68 10 -72 9 -15 44 -300 59 -488 9 -102 20 -214 25 -250 9 -62 27 -295 34
-425 1 -33 6 -84 11 -112 7 -49 10 -53 34 -53 45 0 61 41 61 162 0 121 -16
385 -30 478 -5 36 -14 115 -21 175 -6 61 -15 124 -20 140 -4 17 -11 59 -14 95
-4 36 -9 69 -12 73 -3 5 -14 64 -23 131 -58 385 -62 408 -121 621 -11 39 -22
82 -24 97 -2 14 -8 35 -14 45 -5 10 -16 33 -23 51 -10 24 -19 32 -39 32 -14 0
-29 -3 -32 -7z"/>
<path d="M5816 5327 c-25 -21 -28 -28 -23 -60 3 -22 16 -46 31 -59 17 -15 30
-41 36 -70 6 -27 15 -69 21 -95 17 -81 55 -287 62 -348 5 -41 26 -170 37 -230
5 -27 14 -95 20 -150 6 -55 15 -125 20 -155 8 -48 22 -199 22 -240 0 -8 4 -62
9 -120 4 -58 11 -148 14 -200 3 -52 10 -120 14 -150 5 -30 12 -101 16 -157 6
-101 5 -103 -15 -103 -12 0 -35 -9 -51 -21 -16 -11 -36 -18 -44 -15 -8 3 -14
0 -12 -7 1 -7 -8 -12 -20 -11 -12 0 -20 -3 -17 -7 5 -9 -77 -49 -100 -49 -9 0
-16 -4 -16 -10 0 -5 -6 -10 -13 -10 -7 0 -32 -9 -55 -20 -22 -11 -47 -20 -55
-20 -7 0 -17 -4 -22 -9 -10 -9 -126 -52 -209 -77 -26 -9 -55 -13 -63 -10 -9 4
-11 2 -7 -6 5 -8 2 -9 -10 -5 -11 5 -15 3 -10 -4 5 -8 -3 -10 -24 -7 -19 3
-29 1 -25 -6 4 -5 -1 -7 -11 -3 -9 4 -15 3 -12 -1 8 -14 -279 -80 -379 -87
-33 -2 -96 -9 -140 -14 -169 -22 -501 -33 -633 -21 -70 6 -161 13 -202 16 -41
2 -97 9 -125 14 -27 5 -81 12 -120 15 -38 4 -83 11 -100 15 -16 5 -55 14 -85
20 -55 12 -167 43 -225 62 -28 10 -57 22 -130 54 -16 7 -52 20 -80 29 -63 21
-165 64 -175 75 -3 3 -25 14 -50 25 -42 19 -65 33 -95 63 -8 6 -17 12 -22 12
-5 0 -15 9 -23 20 -8 11 -22 20 -31 20 -58 0 -41 -92 30 -158 41 -37 128 -88
201 -115 14 -5 33 -13 42 -18 10 -5 23 -9 29 -9 6 0 50 -18 98 -41 47 -22 106
-47 131 -55 25 -8 54 -19 65 -24 47 -21 265 -90 285 -90 11 0 18 -4 15 -10 -4
-6 1 -7 11 -3 10 3 15 2 12 -3 -4 -5 8 -9 25 -10 18 0 64 -6 102 -13 196 -34
231 -36 535 -36 295 0 397 7 555 34 28 5 68 12 90 16 22 3 56 10 75 15 19 5
62 14 95 21 51 10 195 46 370 91 22 6 47 10 55 10 27 1 155 27 201 41 24 8 78
25 119 37 41 13 79 27 85 32 5 4 17 8 26 8 10 0 19 4 21 8 4 9 93 72 103 72 4
0 14 8 23 17 16 15 18 11 29 -63 6 -43 17 -153 23 -244 13 -188 19 -210 54
-210 39 0 48 54 42 228 -12 288 -27 558 -36 637 -5 44 -14 163 -20 265 -6 102
-15 212 -20 245 -5 33 -14 121 -20 195 -6 74 -15 162 -20 195 -6 33 -17 119
-25 190 -16 136 -28 223 -44 315 -5 30 -16 98 -25 150 -9 52 -21 113 -27 135
-6 22 -13 49 -15 60 -5 35 -28 110 -35 115 -3 3 -9 19 -13 35 -18 76 -65 96
-120 52z"/>
<path d="M4727 5188 c2 -5 -17 -8 -44 -8 -84 0 -231 -38 -320 -82 -47 -23 -50
-29 -27 -52 8 -9 12 -16 7 -16 -11 0 47 -39 75 -51 13 -5 21 -12 19 -16 -3 -5
5 -9 16 -10 12 -1 47 -7 77 -14 62 -15 389 -18 455 -5 39 7 71 19 107 37 10 5
24 9 31 9 15 0 161 73 184 91 20 17 16 57 -6 64 -11 3 -39 -3 -63 -13 -56 -25
-110 -42 -130 -42 -9 0 -18 -4 -20 -9 -1 -5 -27 -12 -57 -16 -30 -4 -61 -10
-70 -15 -84 -42 -402 -38 -421 5 -3 6 22 19 55 31 33 11 67 23 75 26 42 17 77
21 215 29 199 11 245 18 245 35 0 9 -12 14 -32 15 -18 1 -110 4 -205 8 -94 3
-169 3 -166 -1z"/>
<path d="M5255 4982 c-16 -9 -37 -25 -46 -34 -9 -10 -20 -18 -24 -18 -4 0 -20
-9 -36 -21 -16 -11 -36 -18 -44 -15 -10 3 -12 0 -8 -11 5 -13 1 -15 -19 -11
-19 4 -25 1 -21 -9 3 -8 -2 -13 -14 -13 -10 0 -43 -9 -73 -20 -41 -15 -80 -20
-152 -20 -85 0 -109 4 -200 36 -199 68 -190 66 -177 41 19 -36 137 -145 182
-169 75 -40 110 -48 207 -48 120 0 206 30 298 105 55 44 192 201 192 219 0 12
-35 5 -65 -12z"/>
<path d="M7564 4922 c-18 -37 -31 -70 -30 -73 0 -4 -6 -15 -14 -25 -18 -22
-36 -58 -46 -94 -4 -14 -16 -45 -27 -70 -11 -25 -21 -47 -22 -50 -3 -10 -18
-46 -35 -85 -10 -22 -32 -81 -49 -131 l-31 -91 11 -149 c13 -184 24 -324 39
-474 6 -63 10 -127 7 -142 -2 -15 0 -25 5 -22 4 3 8 -21 8 -54 0 -32 4 -72 9
-88 6 -16 12 -65 15 -109 7 -105 24 -253 29 -262 3 -5 8 -39 11 -78 4 -38 11
-86 16 -105 5 -19 14 -66 20 -105 18 -106 61 -243 78 -250 37 -14 45 56 32
285 -15 275 -50 667 -70 790 -5 30 -14 91 -20 135 -6 44 -15 98 -20 120 -5 22
-14 69 -20 105 -7 36 -18 92 -25 125 -22 95 -39 197 -38 231 1 29 60 221 83
269 28 60 140 424 140 455 0 5 -6 10 -12 10 -7 -1 -27 -31 -44 -68z"/>
<path d="M5083 4661 c-7 -81 -24 -226 -32 -266 -5 -27 -14 -77 -20 -110 -6
-33 -23 -105 -37 -160 -15 -55 -34 -134 -44 -175 -9 -41 -19 -82 -23 -90 -3
-8 -10 -37 -16 -65 -21 -107 -21 -115 -5 -122 23 -9 65 41 93 112 13 33 30 74
37 90 29 66 66 307 84 545 15 193 12 240 -15 250 -15 6 -21 3 -22 -9z"/>
<path d="M6567 4210 c-3 -11 6 -41 19 -68 41 -79 56 -133 65 -232 5 -52 13
-126 19 -165 6 -38 15 -99 20 -135 30 -225 41 -310 44 -345 3 -47 23 -225 36
-340 5 -44 14 -145 20 -225 13 -176 26 -232 55 -228 14 2 22 14 27 43 22 126
-11 856 -41 913 -6 11 -8 22 -5 25 3 3 1 21 -5 39 -6 18 -13 56 -17 83 -3 28
-10 57 -14 65 -5 9 -12 43 -15 75 -4 33 -9 64 -12 68 -2 4 -6 24 -8 45 -2 20
-11 78 -20 127 -9 50 -16 105 -15 122 1 42 -20 82 -65 122 -41 36 -80 41 -88
11z"/>
<path d="M4135 3590 c-354 -16 -612 -46 -949 -109 -59 -11 -113 -18 -119 -14
-5 3 -7 2 -4 -3 3 -6 -20 -16 -51 -23 -104 -23 -193 -62 -228 -99 -42 -45 -50
-68 -33 -98 16 -30 25 -30 91 0 87 39 116 48 129 40 8 -5 9 -3 4 6 -6 10 -4
12 9 7 9 -4 15 -3 12 2 -3 5 4 11 17 13 12 3 67 17 122 32 55 15 132 31 170
36 39 5 120 16 180 24 121 18 216 29 376 46 136 15 963 15 1164 0 83 -5 182
-12 220 -14 39 -3 81 -7 95 -10 14 -3 52 -8 85 -11 33 -3 94 -9 135 -15 41 -5
120 -14 175 -19 120 -12 226 -32 220 -41 -2 -4 6 -5 20 -3 15 3 22 10 18 19
-3 8 -6 14 -7 14 -1 0 -59 20 -130 45 -188 65 -317 95 -556 126 -47 6 -112 15
-146 20 -33 5 -83 9 -111 9 -28 0 -72 4 -99 9 -71 13 -599 20 -809 11z"/>
<path d="M4340 3306 c-3 -3 -62 -10 -130 -16 -163 -14 -298 -33 -430 -61 -30
-6 -74 -12 -97 -13 -22 0 -39 -5 -35 -10 3 -5 -5 -7 -16 -4 -12 4 -20 2 -16
-3 3 -5 -5 -9 -18 -9 -29 -1 -115 -23 -124 -33 -4 -4 -16 -7 -27 -7 -25 0 -78
-16 -132 -41 -22 -10 -51 -21 -65 -25 -28 -7 -60 -32 -60 -47 0 -10 25 -8 165
14 94 14 202 25 370 38 77 6 203 16 280 22 171 15 770 15 880 1 44 -6 131 -14
192 -17 62 -4 127 -11 145 -16 18 -5 62 -9 98 -9 l65 0 -43 40 c-23 22 -47 40
-52 40 -6 0 -10 5 -10 10 0 6 -7 10 -15 10 -8 0 -15 5 -15 10 0 6 -9 10 -20
10 -11 0 -20 5 -20 10 0 6 -8 10 -18 10 -10 0 -22 4 -27 8 -6 5 -30 14 -55 21
-25 7 -54 17 -65 21 -20 8 -46 13 -160 32 -65 10 -537 23 -545 14z"/>
<path d="M2095 3188 c-20 -17 -49 -53 -64 -79 -20 -35 -31 -45 -38 -38 -15 15
-113 21 -113 7 0 -6 -3 -8 -6 -5 -8 7 -64 -53 -64 -68 0 -6 -14 -27 -31 -48
-17 -20 -28 -41 -25 -46 4 -5 2 -11 -3 -13 -5 -1 -12 -19 -16 -40 -6 -30 -4
-37 13 -42 20 -7 91 30 92 47 0 11 50 78 74 100 23 20 30 21 48 4 7 -7 36 -24
63 -37 28 -14 71 -41 96 -60 45 -33 47 -38 58 -105 16 -104 18 -115 40 -180
25 -76 42 -171 35 -190 -4 -10 -20 -15 -45 -15 -72 0 -116 69 -149 230 -14 64
-51 150 -73 169 -32 26 -60 9 -92 -55 -20 -39 -36 -59 -45 -56 -8 3 -44 36
-81 74 -139 142 -228 133 -283 -31 -14 -44 -26 -90 -26 -101 0 -49 66 -25 94
33 8 18 24 43 35 55 l20 23 56 -27 c41 -20 82 -55 145 -123 49 -52 86 -99 83
-105 -3 -6 -3 -8 2 -4 10 9 35 -10 35 -27 0 -14 -42 -35 -70 -35 -24 0 -89 36
-127 71 -53 47 -107 79 -136 79 l-28 0 22 -32 c59 -85 179 -179 253 -199 44
-12 107 1 138 28 39 35 30 135 -17 185 -13 14 -21 29 -18 32 4 3 1 6 -5 6 -23
0 -23 40 1 75 23 34 25 35 30 13 3 -13 15 -57 26 -98 12 -41 23 -87 26 -102 2
-15 9 -33 14 -40 6 -7 26 -33 44 -58 18 -24 44 -50 57 -56 113 -53 164 -60
175 -23 9 27 9 197 1 239 l-8 35 26 -45 c14 -25 33 -58 41 -75 8 -16 35 -51
59 -77 40 -44 48 -48 89 -48 35 0 53 6 77 27 l32 26 -6 76 c-6 71 -14 121 -31
199 -4 17 -4 32 0 32 5 0 33 -26 64 -59 81 -85 131 -115 178 -107 45 8 130 63
136 88 12 43 -29 110 -126 212 -21 22 -44 54 -52 71 -12 31 -27 48 -121 149
-23 24 -51 59 -64 77 -13 19 -36 46 -52 62 -15 15 -28 32 -28 37 0 6 -27 10
-59 10 -57 0 -61 -2 -103 -44 l-44 -43 -44 40 c-77 68 -129 75 -185 25z m146
-80 c13 -18 26 -35 29 -38 3 -3 17 -21 30 -40 13 -19 27 -37 30 -40 20 -18
131 -196 136 -218 3 -15 9 -38 14 -52 4 -14 14 -59 21 -100 7 -41 15 -82 19
-90 4 -8 11 -34 15 -57 l7 -43 -34 7 c-18 3 -38 13 -45 22 -16 21 -58 107 -73
151 -7 19 -18 49 -25 65 -7 17 -16 41 -20 55 -4 14 -19 44 -34 68 -20 33 -31
41 -48 39 -12 -2 -21 -1 -19 2 5 7 -21 63 -44 99 -8 12 -23 22 -33 22 -23 0
-51 15 -107 57 -39 30 -41 34 -17 28 19 -5 27 -3 27 6 0 13 28 34 82 64 10 5
18 13 18 17 0 5 11 8 24 8 16 0 32 -11 47 -32z m303 -60 c23 -23 66 -78 94
-121 29 -43 65 -92 81 -110 62 -68 82 -93 97 -125 9 -19 13 -36 10 -39 -5 -6
-69 36 -74 49 -2 4 -9 8 -15 8 -7 0 -25 12 -42 28 -16 15 -48 40 -69 56 -59
44 -97 84 -149 158 -47 66 -65 114 -54 142 10 26 73 2 121 -46z"/>
<path d="M5984 2869 c-39 -34 -69 -52 -104 -64 -25 -8 -48 -18 -62 -26 -10 -5
-26 -9 -36 -9 -10 0 -22 -3 -26 -7 -10 -11 -131 -31 -187 -32 -38 -1 -53 -7
-81 -33 -19 -18 -45 -49 -58 -68 -33 -48 -46 -60 -55 -52 -5 4 -5 2 -2 -4 6
-11 -161 -174 -177 -174 -4 0 -16 -9 -28 -20 -12 -11 -28 -20 -35 -20 -7 0
-13 -5 -13 -11 0 -6 -9 -9 -20 -6 -11 3 -18 0 -17 -7 1 -6 -10 -11 -25 -11
-15 1 -26 -4 -25 -9 1 -6 -8 -12 -20 -14 -13 -2 -23 -7 -23 -12 0 -4 -10 -10
-22 -13 -13 -3 -43 -11 -68 -17 -25 -7 -61 -13 -80 -15 -19 -1 -60 -8 -90 -14
-199 -43 -329 -55 -595 -55 -234 0 -365 10 -460 34 -71 17 -87 14 -83 -17 3
-24 16 -34 106 -78 97 -49 202 -81 336 -105 74 -13 284 -13 357 -1 30 5 86 15
124 21 374 64 629 173 819 350 27 25 55 52 64 60 13 12 14 12 8 -7 -11 -35 15
-46 82 -36 108 17 701 5 852 -17 36 -5 94 -11 130 -14 77 -6 199 -21 330 -41
52 -8 129 -17 170 -19 41 -3 127 -10 190 -16 150 -15 147 -15 214 18 65 33 62
36 -43 53 -36 6 -88 15 -116 19 -27 4 -79 13 -115 19 -36 5 -123 15 -195 21
-71 6 -164 16 -205 21 -102 12 -332 26 -650 39 -146 6 -301 15 -345 20 -44 5
-110 13 -147 16 -38 4 -68 11 -68 15 0 9 16 30 60 78 23 26 33 29 150 40 172
16 234 39 316 116 47 45 68 87 59 122 -8 34 -37 28 -91 -18z"/>
<path d="M2900 2850 c0 -6 8 -23 17 -38 37 -57 80 -95 146 -128 37 -19 67 -41
67 -49 0 -8 3 -15 8 -15 4 0 23 -30 42 -67 47 -89 150 -195 208 -211 23 -7 47
-10 52 -7 13 8 13 45 0 45 -11 0 -120 108 -120 120 0 11 -108 197 -130 224
-45 55 -76 74 -172 100 -31 9 -60 21 -63 26 -8 13 -55 13 -55 0z"/>
</g>
</svg>
