<?xml version="1.0" standalone="no"?>
<!DOCTYPE svg PUBLIC "-//W3C//DTD SVG 20010904//EN"
 "http://www.w3.org/TR/2001/REC-SVG-20010904/DTD/svg10.dtd">
<svg version="1.0" xmlns="http://www.w3.org/2000/svg"
 width="970.000000pt" height="1125.000000pt" viewBox="0 0 970.000000 1125.000000"
 preserveAspectRatio="xMidYMid meet">
<metadata>
Created by potrace 1.16, written by Peter Selinger 2001-2019
</metadata>
<g transform="translate(0.000000,1125.000000) scale(0.100000,-0.100000)"
fill="#000000" stroke="none">
<path d="M4053 10022 c-36 -4 -83 -51 -83 -84 0 -68 -58 -208 -86 -208 -6 0
-60 20 -120 45 -59 25 -113 45 -119 45 -5 0 -23 7 -39 15 -16 8 -67 27 -115
41 -47 14 -111 34 -141 44 -54 18 -87 23 -142 21 -20 -1 -29 -8 -37 -31 -5
-17 -8 -37 -5 -44 11 -28 116 -106 264 -195 85 -52 171 -104 190 -116 19 -12
84 -50 143 -85 110 -64 127 -80 110 -103 -14 -16 -53 -136 -53 -160 0 -22 -59
-130 -107 -198 -26 -37 -33 -56 -33 -94 0 -41 5 -53 45 -99 43 -51 45 -56 45
-115 0 -34 5 -69 11 -79 8 -13 9 -32 2 -65 -9 -38 -7 -51 7 -75 21 -34 76 -78
105 -84 13 -2 19 -10 17 -23 -1 -11 -3 -52 -3 -92 0 -57 5 -81 25 -121 36 -72
115 -154 178 -184 55 -27 186 -58 243 -58 19 0 40 -7 48 -14 20 -21 33 -126
16 -136 -15 -10 -6 -98 17 -166 l16 -47 -49 -41 c-26 -22 -102 -91 -168 -151
-66 -61 -152 -137 -192 -168 -64 -52 -74 -57 -92 -45 -18 11 -26 10 -56 -6
l-34 -19 -53 40 c-29 22 -125 90 -213 150 -88 61 -168 120 -178 131 -14 16
-19 39 -20 108 -2 70 -7 99 -25 135 -26 54 -85 117 -150 160 -89 59 -98 75
-111 196 -6 59 -15 140 -20 178 -11 84 -17 152 -31 350 -6 83 -13 165 -16 183
-7 35 -34 59 -99 86 -36 15 -139 26 -149 15 -5 -5 3 -77 28 -244 8 -55 17
-122 21 -150 3 -27 12 -90 20 -140 16 -106 20 -132 35 -245 6 -47 13 -96 15
-110 12 -65 17 -183 9 -177 -17 10 -74 -22 -84 -48 -16 -41 -12 -68 16 -120
23 -44 25 -55 19 -124 -6 -71 -5 -78 18 -109 22 -29 24 -41 20 -90 -6 -80 13
-130 65 -165 46 -31 56 -56 72 -172 44 -332 52 -392 55 -405 2 -8 6 -44 10
-80 4 -36 9 -68 11 -71 2 -4 11 -58 19 -120 9 -63 18 -125 20 -139 2 -14 7
-43 10 -65 13 -80 86 -501 95 -540 5 -22 14 -69 19 -105 6 -36 13 -76 16 -90
3 -14 24 -131 46 -260 23 -129 42 -242 44 -250 6 -31 16 -117 19 -171 2 -31 9
-66 15 -77 9 -17 64 -332 85 -487 29 -210 94 -637 111 -729 8 -43 15 -98 15
-122 0 -23 4 -45 9 -48 4 -3 13 -47 20 -98 7 -51 16 -111 21 -133 6 -22 14
-74 20 -115 19 -142 39 -179 95 -179 68 -1 76 1 82 15 3 8 -2 44 -11 82 -8 37
-25 141 -36 232 -11 91 -23 172 -25 180 -2 8 -9 56 -15 105 -6 50 -13 101 -15
115 -2 14 -11 79 -20 145 -17 127 -37 264 -81 540 -15 94 -28 198 -30 233 -2
34 -8 79 -13 100 -5 20 -12 62 -16 92 -4 30 -10 71 -15 90 -5 19 -11 58 -14
86 -3 28 -19 134 -36 235 -16 101 -34 213 -39 249 -5 36 -19 128 -31 205 -12
77 -34 228 -50 335 -16 107 -32 206 -34 220 -3 14 -16 90 -30 170 -14 80 -41
237 -61 350 -53 299 -85 513 -79 519 3 3 8 1 12 -6 4 -6 34 -41 68 -79 33 -38
93 -105 131 -149 74 -84 182 -194 299 -306 38 -36 89 -90 114 -119 25 -29 68
-68 95 -86 43 -28 60 -33 120 -35 50 -1 84 4 120 18 53 21 62 26 223 142 57
40 105 71 108 68 3 -3 8 -20 10 -39 3 -18 9 -58 15 -88 7 -44 5 -70 -11 -140
-35 -145 -40 -159 -72 -195 -38 -44 -39 -74 -2 -126 27 -40 27 -41 15 -102
-23 -116 -50 -174 -98 -215 -43 -35 -71 -75 -78 -111 -2 -9 -6 -61 -10 -116
-8 -112 -9 -115 -89 -141 -125 -41 -179 -84 -201 -158 -19 -62 -19 -107 -1
-171 22 -76 107 -277 179 -421 35 -71 67 -147 70 -169 4 -22 16 -51 27 -65 36
-45 77 -133 120 -260 23 -69 54 -150 67 -180 21 -48 23 -64 18 -122 -4 -38 -3
-68 2 -68 4 0 7 -35 7 -77 l-2 -78 -92 -22 c-210 -50 -310 -112 -327 -200 -10
-57 17 -244 42 -294 9 -17 13 -29 8 -27 -4 2 -20 10 -35 17 -24 12 -31 11 -72
-15 -50 -32 -57 -43 -49 -73 8 -30 47 -27 67 4 19 28 48 32 86 10 14 -8 40
-14 58 -15 22 0 39 -8 55 -26 37 -43 69 -54 158 -54 72 0 88 -4 140 -31 55
-30 60 -31 77 -16 17 16 21 15 58 -3 42 -22 80 -19 100 8 10 14 16 14 64 -6
63 -26 83 -27 105 -6 15 16 19 16 51 0 39 -18 66 -10 84 24 8 15 19 18 53 16
23 -2 49 -6 57 -10 34 -14 44 9 41 91 -3 75 -3 183 -1 249 1 18 -15 67 -34
109 -20 43 -36 83 -36 89 0 5 12 20 28 32 25 21 27 27 26 101 0 83 -14 134
-130 478 -86 254 -92 275 -84 275 5 0 39 -21 77 -46 164 -112 187 -127 227
-144 22 -10 76 -21 118 -25 91 -8 81 13 98 -215 15 -198 17 -213 54 -311 67
-180 221 -373 401 -504 44 -32 96 -72 115 -89 20 -17 54 -46 77 -64 23 -19 52
-43 65 -54 13 -11 58 -50 101 -86 42 -37 77 -74 77 -82 0 -17 -40 -81 -73
-117 -21 -24 -77 -172 -77 -205 0 -20 -19 -25 -21 -5 0 6 -5 -3 -10 -21 -8
-27 -5 -43 16 -90 14 -31 30 -64 36 -72 5 -8 18 -33 28 -55 25 -53 120 -157
140 -153 8 2 18 14 21 27 l6 25 33 -30 34 -30 -69 -12 c-127 -23 -238 -32
-374 -31 -199 2 -186 -5 -235 119 -57 146 -104 231 -185 338 -38 50 -76 107
-83 125 -23 53 -73 103 -129 127 -50 22 -62 23 -220 17 -165 -6 -167 -6 -200
18 -60 44 -122 73 -193 90 -39 10 -98 30 -133 46 -100 46 -142 41 -291 -30
l-123 -60 -196 -2 c-418 -6 -481 -3 -581 19 -129 30 -344 113 -454 177 -51 29
-125 67 -165 84 -40 18 -98 47 -130 65 -219 128 -586 226 -972 261 -83 8 -260
48 -336 77 -76 28 -169 119 -209 203 -58 119 -148 271 -201 336 -65 82 -124
132 -284 242 -69 47 -165 114 -213 148 -49 34 -112 73 -140 87 -68 33 -265
100 -344 116 l-63 14 0 -53 0 -52 78 -16 c44 -9 133 -38 199 -66 67 -28 124
-51 128 -51 4 0 53 -33 107 -73 159 -115 189 -135 259 -177 160 -95 240 -195
395 -489 69 -131 166 -219 290 -261 85 -29 227 -58 351 -70 60 -6 142 -17 183
-25 41 -8 109 -19 151 -24 76 -10 244 -53 362 -92 71 -23 421 -194 514 -251
65 -39 104 -57 188 -88 28 -10 87 -32 132 -49 46 -16 136 -40 200 -52 125 -22
177 -23 628 -1 l150 7 108 54 c139 69 175 73 263 32 36 -17 72 -31 78 -31 34
0 163 -52 212 -86 64 -44 60 -44 286 -30 136 9 136 9 180 -17 34 -19 53 -41
78 -89 19 -34 62 -101 97 -148 79 -106 132 -208 172 -328 42 -126 43 -128 103
-149 43 -14 84 -18 213 -18 154 0 302 16 565 60 47 8 114 17 150 21 36 4 91
17 123 30 95 38 279 150 345 210 67 60 162 172 205 241 33 52 53 63 197 103
108 29 307 96 465 155 39 15 115 35 170 46 94 17 148 32 465 126 197 58 272
70 466 78 98 3 222 8 274 10 52 2 103 4 113 5 10 0 17 8 17 20 0 25 12 24
-270 5 -310 -21 -435 -34 -467 -46 -16 -6 -95 -28 -178 -49 -82 -21 -194 -50
-248 -64 -54 -14 -140 -32 -190 -41 -51 -8 -128 -29 -172 -46 -140 -54 -366
-126 -485 -154 -63 -15 -131 -37 -151 -50 -20 -13 -73 -71 -118 -129 -97 -126
-179 -196 -321 -276 -137 -76 -140 -78 -241 -93 l-85 -14 15 34 c14 31 18 33
67 33 54 0 70 14 62 51 -3 15 0 15 44 4 22 -6 27 -3 33 17 11 34 38 56 76 60
27 2 37 10 47 33 8 17 41 50 74 75 75 57 128 114 128 140 0 13 7 20 19 20 25
0 53 28 44 43 -4 7 -8 65 -10 130 l-2 118 -76 104 c-42 58 -92 117 -111 132
-44 33 -62 69 -54 108 4 20 0 43 -13 70 -20 41 -224 246 -287 289 -34 23 -265
155 -325 186 -130 66 -275 179 -282 218 -2 9 -5 106 -8 215 -2 109 -7 201 -10
206 -3 5 -8 49 -11 98 -2 48 -7 102 -9 118 -2 17 -7 90 -11 163 -5 101 -4 132
5 132 7 0 50 -9 96 -21 158 -38 181 -19 134 112 -42 114 -158 429 -174 469
-36 91 -113 305 -110 308 1 1 24 -7 51 -18 84 -37 252 -26 344 21 83 42 171
177 198 305 24 111 34 272 22 347 -31 193 -96 394 -201 623 -87 191 -115 301
-134 534 -23 272 -35 359 -60 430 -75 206 -190 390 -311 498 -89 79 -154 109
-290 132 -174 29 -212 19 -362 -95 -7 -5 -27 -23 -43 -40 -25 -24 -32 -27 -39
-15 -17 26 -12 67 9 73 27 7 34 63 15 127 -16 56 -88 207 -138 292 l-28 48 30
-6 c55 -11 107 29 149 113 35 71 36 74 35 190 -2 203 -44 319 -165 449 -68 73
-261 248 -327 295 -25 18 -47 35 -50 39 -8 12 -212 135 -260 157 -25 11 -94
37 -154 57 -100 34 -117 37 -205 34 -53 -1 -110 -4 -128 -6z m97 -274 c32 -22
61 -47 65 -56 10 -25 -6 -123 -21 -129 -7 -3 -48 14 -91 37 -133 72 -173 107
-144 125 5 3 17 27 26 54 l16 49 46 -20 c25 -11 71 -38 103 -60z m-160 -393
c14 -8 39 -14 56 -15 17 0 44 -10 59 -22 15 -13 66 -43 114 -68 l86 -45 -3
-90 c-2 -76 0 -95 17 -122 12 -18 29 -33 39 -33 16 0 20 -10 26 -62 5 -55 11
-67 41 -96 19 -18 35 -38 35 -43 0 -6 10 -9 22 -7 17 2 26 15 38 58 25 84 38
100 83 100 101 0 161 -117 135 -263 -12 -63 -40 -113 -70 -120 -12 -4 -36 3
-59 16 -41 24 -56 20 -40 -12 8 -15 7 -46 -5 -121 -20 -124 -13 -181 24 -215
15 -14 34 -25 43 -25 12 0 18 -13 22 -53 8 -76 35 -126 80 -150 23 -12 45 -34
57 -56 l18 -37 -34 -2 c-40 -3 -98 -27 -173 -71 -29 -18 -70 -33 -89 -34 l-36
-2 -9 60 c-17 120 -18 114 43 137 59 22 71 33 63 55 -7 19 -32 16 -109 -13
-113 -43 -214 -35 -329 26 -86 45 -135 91 -166 157 -16 34 -18 54 -13 111 11
116 -11 179 -59 167 -28 -7 -83 45 -74 70 11 27 35 28 85 5 64 -31 189 -40
198 -15 9 23 -14 35 -45 23 -39 -14 -111 -1 -111 21 0 11 -13 20 -42 28 -74
20 -130 103 -69 103 40 0 31 22 -43 103 -89 96 -93 114 -43 197 45 74 124 238
132 275 10 41 47 95 65 95 8 -1 26 -7 40 -15z m485 -259 c261 -142 462 -270
537 -344 91 -88 237 -360 238 -441 0 -23 -1 -24 -20 -6 -20 18 -50 14 -50 -7
0 -7 7 -35 15 -61 16 -54 39 -253 30 -267 -3 -5 -19 -1 -36 8 -29 16 -31 16
-44 -2 -9 -12 -15 -42 -15 -73 0 -47 -2 -53 -24 -59 -14 -3 -29 -3 -35 0 -5 4
-14 -1 -18 -9 -8 -14 -16 -12 -67 10 -31 14 -62 23 -67 19 -10 -6 -68 38 -82
63 -5 7 -11 26 -13 40 -7 38 -12 43 -44 43 -36 0 -56 20 -71 69 -9 29 -9 47 0
73 18 55 -7 90 -49 68 -31 -16 -60 20 -60 73 0 60 21 158 34 162 6 2 23 6 38
9 103 23 158 242 95 380 -35 75 -112 136 -173 136 -49 0 -76 -22 -95 -77 -8
-25 -16 -33 -34 -33 -31 0 -37 22 -29 97 5 53 4 64 -10 69 -10 4 -25 -1 -35
-10 -27 -25 -43 0 -35 55 6 48 12 69 17 69 1 0 48 -24 102 -54z m-1230 -1323
c96 -81 109 -110 110 -247 0 -88 3 -110 15 -114 8 -3 33 -19 55 -37 32 -25
205 -144 278 -190 19 -12 47 -160 47 -248 0 -32 -7 -88 -15 -125 -16 -69 -73
-193 -92 -199 -10 -4 -53 39 -169 168 -169 187 -204 232 -204 261 0 34 -18 48
-63 48 -53 0 -222 91 -242 131 -20 37 -19 71 2 107 17 29 17 30 -15 66 -36 42
-42 92 -18 151 14 34 14 36 -20 76 -34 41 -39 55 -28 83 8 20 25 20 129 0 79
-16 134 -14 164 5 17 11 7 61 -13 61 -16 0 -26 21 -26 56 0 31 11 26 105 -53z
m1740 4 c84 -34 130 -73 249 -212 77 -89 183 -253 287 -440 69 -126 214 -461
268 -621 45 -137 91 -334 91 -396 0 -21 -23 -23 -67 -8 -27 10 -31 18 -52 108
-85 354 -278 794 -484 1102 -28 41 -53 77 -57 80 -4 3 -26 32 -49 65 -78 111
-174 200 -255 234 -62 27 -212 31 -268 8 -35 -15 -38 -15 -38 1 0 25 11 37 50
57 19 10 38 22 41 27 8 13 117 25 179 20 30 -2 78 -14 105 -25z m-62 -155
c118 -53 240 -228 329 -472 11 -30 26 -62 34 -70 12 -12 14 -11 14 10 0 14 -5
42 -11 63 -28 103 22 35 130 -175 113 -218 232 -519 287 -723 29 -110 30 -118
5 -110 -24 7 -36 -13 -44 -73 -6 -51 -34 -85 -92 -114 -22 -12 -52 -31 -67
-44 -37 -30 -114 -51 -222 -58 -49 -4 -94 -10 -100 -13 -16 -11 -129 -4 -220
12 -130 23 -177 32 -180 36 -6 8 -56 196 -71 269 -9 40 -22 92 -29 115 -8 22
-19 81 -25 130 -7 50 -14 98 -17 107 -3 12 7 29 32 50 21 18 60 55 88 82 61
59 80 60 188 14 38 -16 72 -27 74 -25 21 20 -67 97 -128 112 -32 8 -34 15 -12
56 8 17 13 34 10 37 -17 17 -66 -20 -117 -89 -31 -41 -70 -84 -86 -94 -15 -10
-57 -46 -93 -81 -73 -70 -114 -104 -127 -104 -4 0 -20 -10 -33 -22 -119 -106
-265 -179 -367 -183 -55 -2 -68 1 -107 26 -24 16 -61 50 -82 76 -52 64 -144
156 -174 175 -23 14 -23 16 -9 39 16 26 51 119 69 184 29 108 31 278 4 349
-10 26 14 19 49 -15 80 -77 143 -99 112 -40 -8 16 -12 31 -9 34 10 10 70 -35
92 -70 39 -58 70 -29 33 31 -26 41 -22 53 25 86 20 13 76 63 126 112 49 48
113 107 141 130 28 24 77 67 108 96 31 29 97 80 145 112 l89 60 95 -4 c70 -2
108 -9 143 -24z m-319 -1169 c4 -21 20 -90 36 -153 44 -174 70 -308 70 -355 0
-40 -2 -42 -25 -37 -30 5 -40 -14 -25 -52 13 -34 24 -126 16 -126 -7 0 -74 43
-96 62 -8 7 -32 32 -52 56 l-36 43 34 56 c18 30 36 76 40 101 6 40 8 43 19 28
29 -39 30 22 5 219 -12 91 -12 195 -1 195 5 0 12 -17 15 -37z m1159 -394 c12
-7 23 -13 25 -14 1 -1 -7 -22 -18 -46 -25 -56 -26 -130 -2 -151 29 -25 129
-77 136 -71 3 4 6 47 6 96 0 74 -3 94 -21 118 -19 27 -19 29 -2 29 35 0 43
-16 53 -101 16 -146 19 -208 12 -213 -14 -8 -121 22 -157 44 -54 34 -59 50
-70 223 -7 103 -5 108 38 86z m-65 -184 c6 -47 6 -75 -1 -87 -17 -27 -167 -84
-307 -117 -147 -34 -212 -43 -310 -42 -100 2 -282 26 -313 43 -23 12 -43 58
-52 122 l-8 49 34 -6 c19 -4 81 -15 139 -26 58 -11 128 -24 155 -29 57 -11 79
-10 260 14 162 20 191 30 296 103 46 31 87 55 91 52 4 -3 11 -37 16 -76z
m-1115 -145 c36 -36 109 -80 134 -80 24 0 37 -36 44 -123 4 -51 10 -100 14
-109 5 -13 0 -19 -22 -24 -58 -13 -110 -33 -188 -73 -44 -23 -83 -41 -88 -41
-4 0 -7 16 -5 36 1 22 -3 39 -12 44 -18 11 -30 -5 -30 -45 0 -16 -3 -40 -6
-51 -6 -22 -49 -48 -64 -39 -14 9 -22 83 -15 135 7 52 11 58 65 99 18 14 38
34 46 46 22 34 64 158 64 190 0 36 10 75 19 75 3 0 23 -18 44 -40z m1277 -72
c19 -10 46 -18 61 -18 19 0 34 -9 47 -27 18 -27 26 -47 85 -208 14 -38 42
-110 62 -160 64 -158 235 -638 230 -644 -7 -6 -416 61 -483 80 -132 38 -290
143 -421 283 -161 171 -296 288 -453 392 -59 39 -105 73 -103 76 9 9 131 -34
220 -78 50 -24 121 -69 159 -99 72 -58 116 -71 116 -35 0 12 -18 31 -52 53
-29 19 -75 53 -103 76 -60 50 -151 95 -260 128 -125 38 -125 38 -125 78 0 41
-6 40 126 21 121 -18 171 -15 379 21 101 17 193 45 310 96 l80 34 45 -25 c25
-14 61 -33 80 -44z m-860 -381 c105 -65 230 -170 324 -273 105 -114 217 -209
346 -295 105 -69 158 -93 240 -105 30 -4 58 -9 63 -10 4 -1 21 -2 37 -3 17 0
30 -6 30 -13 -1 -26 -54 -51 -144 -68 -50 -10 -156 -34 -236 -54 -80 -19 -165
-37 -190 -40 -25 -3 -110 -15 -190 -26 -356 -53 -396 -49 -434 43 l-20 47 27
28 c30 31 36 80 14 121 -20 40 -37 38 -37 -4 0 -20 -6 -43 -14 -50 -16 -17
-28 -5 -65 65 -41 77 -46 83 -60 66 -10 -11 -6 -27 18 -75 17 -33 31 -69 31
-80 0 -10 21 -58 46 -106 46 -85 80 -167 170 -410 126 -337 214 -623 214 -692
0 -38 -4 -46 -32 -63 -58 -35 -169 -37 -308 -6 -14 4 -43 8 -64 11 -22 3 -49
11 -61 19 -11 7 -34 16 -51 20 -18 4 -50 23 -73 42 -37 32 -41 40 -41 80 0 46
9 54 30 29 17 -20 30 -19 30 3 0 19 -18 69 -110 307 -34 88 -68 180 -75 205
-17 57 -61 158 -165 380 -45 96 -110 238 -143 315 -56 128 -61 146 -61 212 0
63 3 76 24 99 25 26 109 74 130 74 12 0 156 71 322 158 53 28 135 63 182 77
47 14 95 34 108 44 22 19 24 18 73 -6 27 -14 79 -44 115 -66z m1105 -952 c22
-219 33 -371 40 -565 7 -158 26 -334 38 -347 4 -3 14 -3 23 1 14 5 16 15 10
61 -3 30 -4 55 -1 55 14 0 37 -67 32 -95 -10 -59 38 -78 49 -20 3 19 10 35 15
35 10 0 117 -57 184 -97 125 -76 207 -123 215 -123 13 0 140 -98 201 -155 90
-84 139 -145 139 -174 0 -84 -113 -218 -217 -257 -24 -9 -43 -20 -43 -23 0 -4
-29 -22 -65 -40 -63 -32 -136 -45 -240 -42 -56 2 -132 46 -230 132 -105 92
-194 166 -291 241 -169 131 -249 225 -323 374 -51 103 -67 166 -81 329 -6 72
-23 236 -36 365 -42 393 -41 358 -8 371 33 13 115 31 259 59 102 19 251 61
282 79 10 5 21 7 25 3 4 -4 14 -79 23 -167z m-676 1 c6 -7 18 -74 26 -147 7
-74 17 -159 21 -191 l7 -56 -74 2 c-83 3 -120 17 -235 94 -208 137 -232 160
-254 234 l-8 27 91 1 c51 0 103 2 117 4 41 6 101 17 175 31 94 17 120 18 134
1z m-1159 -1498 c35 -17 87 -31 145 -38 50 -6 101 -14 115 -16 37 -6 438 -5
490 1 25 4 66 13 92 21 26 9 52 13 57 9 11 -6 9 -70 -2 -81 -4 -4 -28 1 -53
11 -41 15 -48 16 -55 3 -4 -8 -17 -25 -27 -38 l-18 -23 -42 24 -41 24 -23 -22
c-23 -21 -23 -21 -47 -2 -30 24 -62 24 -111 -1 -50 -26 -75 -25 -112 2 -25 17
-34 19 -49 10 -29 -18 -55 -14 -87 13 -35 29 -57 32 -70 8 -8 -14 -15 -12 -55
16 -33 24 -53 32 -77 29 -27 -3 -37 3 -68 41 -21 24 -32 42 -27 40 6 -3 35
-17 65 -31z m3050 -395 c0 -24 -4 -43 -9 -43 -5 0 -12 -19 -16 -42 -7 -40 -45
-103 -72 -121 -7 -4 -13 -15 -13 -22 0 -8 -5 -15 -11 -15 -19 0 -79 -52 -79
-70 0 -19 -33 -54 -42 -44 -4 3 -9 -4 -13 -15 -6 -19 -21 -25 -50 -22 -10 1
-36 -27 -68 -72 -11 -16 -17 -17 -39 -6 -40 17 -58 6 -58 -37 0 -34 -2 -36
-27 -31 -29 5 -94 -16 -92 -30 5 -31 -2 -35 -52 -31 -51 5 -67 -2 -88 -39 -7
-14 -13 -15 -39 -4 -16 7 -42 25 -57 41 l-27 28 47 8 c26 3 88 24 137 45 115
49 375 186 402 211 12 11 32 26 46 35 26 16 95 96 143 166 24 36 27 49 27 126
l0 86 25 -30 c17 -21 24 -43 25 -72z"/>
<path d="M3964 9111 c-11 -3 -33 -15 -48 -27 -25 -18 -27 -25 -21 -53 4 -21
11 -31 20 -27 8 3 17 -4 21 -16 3 -11 40 -56 81 -99 57 -59 86 -82 115 -90 36
-9 71 -3 41 8 -7 3 -29 56 -48 118 -20 62 -45 126 -57 141 -12 16 -23 30 -24
32 -5 8 -62 18 -80 13z"/>
<path d="M6316 3263 c-14 -14 -4 -35 29 -64 43 -38 104 -163 112 -230 3 -27 1
-60 -6 -76 -10 -26 -16 -71 -12 -100 3 -30 28 -9 45 36 18 51 23 137 11 194
-12 55 -85 185 -118 210 -45 33 -53 37 -61 30z"/>
</g>
</svg>
