<?xml version="1.0" standalone="no"?>
<!DOCTYPE svg PUBLIC "-//W3C//DTD SVG 20010904//EN"
 "http://www.w3.org/TR/2001/REC-SVG-20010904/DTD/svg10.dtd">
<svg version="1.0" xmlns="http://www.w3.org/2000/svg"
 width="1187.000000pt" height="1125.000000pt" viewBox="0 0 1187.000000 1125.000000"
 preserveAspectRatio="xMidYMid meet">
<metadata>
Created by potrace 1.16, written by Peter Selinger 2001-2019
</metadata>
<g transform="translate(0.000000,1125.000000) scale(0.100000,-0.100000)"
fill="#000000" stroke="none">
<path d="M6242 10491 c1 -3 -4 -25 -10 -48 -7 -23 -12 -61 -12 -85 2 -108 -1
-158 -10 -153 -6 3 -7 -1 -4 -10 11 -27 -13 -45 -47 -33 -16 5 -32 15 -36 21
-4 6 -1 7 7 2 8 -5 11 -4 7 2 -4 6 -19 8 -33 5 -20 -4 -25 -2 -19 8 5 8 4 11
-3 6 -6 -3 -55 6 -109 20 -140 38 -156 40 -450 70 l-63 6 0 -27 c0 -15 10 -41
22 -58 13 -18 22 -34 21 -37 -1 -3 1 -7 4 -10 4 -3 3 1 -2 9 -6 10 -4 12 4 7
7 -5 10 -15 6 -24 -3 -9 -3 -13 1 -10 3 4 22 -14 41 -39 20 -27 31 -49 26 -54
-5 -5 -43 -18 -84 -29 -41 -11 -83 -24 -94 -29 -55 -24 -85 -32 -96 -25 -8 5
-9 3 -4 -6 6 -10 3 -12 -13 -8 -12 4 -20 3 -17 -2 3 -4 -9 -13 -25 -20 l-30
-13 27 -14 c16 -8 78 -19 138 -24 61 -5 146 -13 190 -19 44 -6 229 -12 411
-13 253 -2 335 -5 346 -15 10 -8 71 -17 160 -23 191 -14 708 -23 708 -12 0 4
-24 31 -53 58 -29 28 -42 41 -28 30 l26 -20 -23 26 c-13 15 -31 25 -40 23 -9
-3 -28 6 -42 18 -14 13 -19 19 -10 13 13 -9 13 -8 2 7 -8 10 -17 17 -20 16 -4
-1 -17 1 -29 6 -34 11 -28 45 13 89 32 34 67 116 43 101 -5 -3 -9 -1 -9 4 0
13 -60 22 -190 28 -58 3 -111 11 -119 17 -12 9 -13 9 -7 0 5 -10 -5 -13 -40
-13 -26 0 -74 -6 -107 -12 -58 -12 -60 -12 -81 13 -53 64 -81 104 -81 116 0 7
-9 20 -20 30 -19 17 -19 17 -5 -3 8 -11 3 -6 -13 10 -15 17 -25 36 -23 43 3 6
-3 17 -12 25 -16 12 -16 11 -2 -7 14 -19 14 -19 -3 -6 -10 8 -16 20 -13 28 3
8 2 11 -4 8 -5 -3 -14 3 -19 13 -10 18 -52 38 -49 23z"/>
<path d="M4785 9909 c-38 -5 -84 -7 -102 -4 -19 4 -36 0 -45 -8 -8 -8 -24 -18
-37 -22 -23 -7 -46 -49 -35 -66 12 -20 -6 -79 -24 -79 -9 0 -35 -12 -57 -25
-34 -21 -53 -25 -120 -25 -91 0 -155 -14 -155 -34 0 -18 -52 -36 -100 -36 -26
0 -43 -7 -60 -25 -13 -14 -34 -25 -48 -25 -13 0 -36 -8 -50 -18 -44 -31 -110
-52 -158 -52 -51 0 -84 -14 -84 -35 0 -18 -17 -22 -115 -31 -44 -3 -87 -12
-95 -19 -8 -6 -42 -17 -75 -24 -85 -19 -129 -32 -136 -43 -3 -5 -52 -16 -109
-24 -71 -9 -110 -20 -124 -32 -21 -19 -124 -42 -184 -42 -17 0 -37 -7 -46 -15
-10 -10 -54 -20 -121 -28 -94 -12 -109 -16 -128 -39 -20 -25 -29 -27 -115 -30
-85 -3 -96 -5 -114 -27 -14 -19 -34 -27 -76 -32 -116 -16 -161 -26 -177 -42
-12 -13 -34 -17 -83 -17 -101 0 -194 -17 -213 -39 -8 -10 -24 -21 -35 -23 -10
-2 -25 -16 -32 -31 -7 -15 -21 -27 -31 -27 -10 0 -24 -15 -34 -35 -9 -19 -23
-35 -31 -35 -8 0 -23 -13 -33 -30 -9 -16 -21 -30 -25 -30 -13 0 -9 -58 6 -93
7 -18 17 -73 20 -122 9 -104 23 -170 44 -203 13 -20 13 -29 3 -59 -10 -25 -10
-38 -2 -46 14 -14 15 -77 1 -77 -12 0 -13 -47 -1 -54 21 -13 33 -488 17 -676
-7 -84 -13 -108 -28 -118 -22 -16 -23 -35 -3 -52 19 -16 19 -44 0 -64 -21 -20
-19 -42 5 -59 20 -14 21 -24 19 -266 l-1 -252 -26 -24 c-24 -23 -25 -26 -13
-63 8 -22 10 -46 6 -52 -5 -7 -10 -106 -12 -219 -2 -113 -7 -231 -12 -261 -5
-30 -10 -151 -11 -269 -1 -156 -6 -220 -15 -235 -21 -33 -26 -76 -30 -233 -3
-166 8 -298 27 -321 8 -8 20 -81 29 -170 14 -136 19 -158 37 -173 21 -16 22
-28 26 -186 5 -210 13 -273 38 -293 12 -10 21 -34 25 -70 3 -36 13 -63 27 -78
20 -23 21 -32 21 -345 0 -301 -1 -324 -20 -357 -15 -27 -20 -63 -25 -164 -5
-113 -9 -130 -27 -145 -11 -9 -24 -34 -28 -56 -4 -22 -11 -62 -17 -90 -5 -27
-13 -106 -18 -175 -4 -69 -11 -149 -15 -178 -7 -45 -5 -56 12 -75 11 -12 23
-34 27 -49 16 -73 20 -83 38 -98 12 -10 21 -34 25 -69 4 -40 11 -55 24 -58 10
-3 20 -18 23 -34 3 -16 9 -42 12 -59 7 -35 85 -118 137 -145 21 -11 43 -28 48
-38 5 -9 16 -17 24 -17 7 0 25 -15 39 -32 25 -32 26 -32 129 -36 l104 -4 33
43 c19 23 44 61 56 83 12 23 33 47 46 55 21 12 29 12 58 -2 18 -10 43 -17 55
-17 11 0 26 -5 32 -11 6 -6 93 -12 229 -16 120 -2 223 -8 229 -13 5 -4 44 -11
85 -15 91 -8 533 -11 725 -5 118 4 147 2 183 -13 41 -16 137 -18 1605 -21 946
-2 1700 -8 1912 -16 193 -6 384 -9 425 -6 66 5 808 36 900 38 19 0 73 -3 120
-7 l85 -7 38 35 c21 20 41 37 45 39 22 10 92 110 92 131 0 48 13 86 30 92 10
3 21 17 24 30 3 13 16 30 28 36 12 7 62 52 110 101 48 48 95 88 103 88 8 0 15
4 15 8 0 4 12 13 28 19 36 16 103 56 174 104 32 21 60 39 63 39 3 0 29 11 58
25 28 14 83 30 122 36 52 8 76 17 92 35 18 19 32 24 73 24 43 0 50 -3 50 -20
0 -12 13 -25 35 -36 19 -9 35 -22 35 -29 0 -20 48 -35 115 -35 53 0 68 4 85
22 11 12 20 34 20 48 0 41 50 131 109 199 20 23 21 35 21 206 l0 182 29 36
c19 24 31 54 35 87 5 41 12 53 31 62 14 6 25 14 26 17 0 3 4 107 7 229 6 200
9 225 25 237 15 11 21 40 32 155 10 110 18 146 32 162 14 16 19 40 21 114 3
80 1 101 -17 139 -16 33 -24 81 -32 178 -10 122 -27 208 -79 392 -34 122 -18
373 30 462 21 39 22 43 6 58 -9 9 -16 30 -16 46 0 40 -24 95 -47 107 -17 10
-18 49 -20 979 -2 1090 -4 1170 -38 1237 -18 36 -23 62 -24 135 0 80 -12 158
-29 201 -3 8 -6 71 -7 140 -1 90 2 131 12 146 8 12 15 64 19 130 6 133 22 230
39 244 13 11 14 125 0 193 -4 20 -3 43 2 50 5 6 10 73 12 148 l2 137 -26 6
c-14 4 -25 13 -25 22 0 8 -11 25 -24 37 -13 12 -27 38 -30 57 -13 62 -17 70
-38 70 -13 0 -24 10 -31 29 -6 16 -20 32 -31 35 -38 10 -448 6 -590 -6 -109
-9 -182 -9 -321 1 -206 13 -402 3 -455 -24 -25 -13 -53 -15 -143 -12 -62 3
-188 -2 -282 -10 -189 -16 -371 -11 -416 13 -20 10 -49 12 -106 9 -43 -3 -178
-8 -301 -11 -194 -5 -226 -4 -248 10 -38 26 -164 37 -344 30 -91 -3 -251 -2
-357 3 -165 7 -194 11 -212 27 -18 16 -45 19 -278 23 -255 5 -331 13 -420 47
-33 12 -112 17 -400 22 -197 4 -374 7 -393 6 -57 -1 -80 6 -80 28 0 12 -10 24
-23 29 -13 5 -31 20 -39 33 -15 23 -22 25 -105 25 -48 0 -119 -4 -158 -8z
m293 -244 c108 -3 102 -2 102 -20 0 -8 8 -15 19 -15 10 0 24 7 31 15 19 23 45
18 58 -10 14 -29 47 -33 74 -8 17 15 19 15 36 0 16 -15 54 -16 310 -16 292 0
315 -2 348 -36 7 -7 52 -15 99 -19 49 -3 101 -14 119 -23 17 -9 39 -20 50 -25
28 -14 185 -28 238 -22 73 10 137 -3 165 -34 l25 -27 325 -3 325 -2 44 -25
c43 -24 50 -25 244 -25 122 0 201 4 205 10 9 14 168 13 182 -1 8 -8 122 -13
365 -15 718 -8 1550 -9 1555 -2 12 21 133 -4 133 -27 0 -6 -23 -17 -51 -24
-35 -9 -53 -20 -56 -32 -6 -22 -33 -31 -87 -27 -29 2 -41 -2 -50 -17 -6 -11
-12 -22 -14 -25 -2 -2 -40 -7 -85 -10 -73 -4 -83 -7 -93 -29 -18 -35 -32 -41
-111 -41 -52 0 -73 -4 -73 -12 -1 -24 -46 -46 -110 -53 -36 -4 -72 -13 -81
-21 -18 -16 -104 -44 -135 -44 -12 0 -37 -11 -57 -24 -23 -16 -54 -26 -84 -28
-39 -2 -50 -7 -58 -25 -8 -19 -18 -23 -58 -23 -40 0 -49 4 -58 24 -8 17 -23
26 -48 30 -42 7 -37 7 -159 0 -72 -5 -97 -3 -110 8 -47 38 -135 62 -182 48
-19 -6 -46 -10 -59 -10 -13 0 -34 -11 -47 -25 l-23 -25 -2008 2 -2008 3 -53
28 c-46 24 -71 29 -178 37 -68 5 -137 5 -152 1 -35 -10 -988 -6 -1024 4 -16 4
-28 11 -28 15 0 7 129 30 171 30 11 0 24 10 30 24 13 28 43 36 138 36 84 0
105 6 116 33 9 20 20 23 105 27 100 6 125 13 134 36 3 9 20 14 47 14 51 0 97
13 162 46 26 13 64 24 86 24 43 0 101 18 101 31 0 5 8 9 18 9 9 0 36 7 58 15
27 9 52 11 70 6 43 -12 104 -1 146 25 32 20 50 24 123 24 84 0 87 1 116 33
l29 32 139 1 c76 1 144 5 150 8 14 9 33 81 35 131 l1 40 50 6 c28 4 79 4 113
1 35 -2 103 -6 150 -7z m5343 -467 c18 -34 20 -224 3 -284 -11 -38 -13 -68 -6
-115 4 -35 8 -117 8 -181 -1 -112 -2 -118 -27 -145 -24 -25 -28 -39 -34 -125
-4 -53 -3 -142 0 -198 7 -92 10 -104 33 -125 25 -24 26 -29 28 -157 2 -154
-12 -306 -31 -328 -7 -8 -16 -26 -20 -39 -4 -14 -8 -207 -8 -429 l0 -404 21
-17 c21 -15 23 -27 27 -148 3 -72 9 -143 15 -158 6 -15 10 -124 10 -251 0
-185 2 -224 14 -224 21 0 26 -23 26 -131 l0 -99 35 -14 c34 -15 35 -17 35 -70
0 -31 4 -56 9 -56 23 0 40 -31 34 -63 -2 -18 5 -72 16 -121 20 -84 20 -92 6
-136 -10 -30 -15 -81 -15 -141 1 -52 1 -233 0 -404 0 -170 0 -340 1 -377 1
-54 -4 -75 -21 -103 -15 -24 -25 -64 -32 -118 -8 -71 -13 -85 -36 -104 -27
-22 -27 -24 -30 -168 -3 -128 -6 -146 -22 -155 -22 -12 -34 -50 -34 -110 -1
-36 -5 -47 -23 -55 -23 -10 -43 -68 -43 -124 0 -21 -7 -34 -22 -42 -31 -16
-38 -28 -38 -71 0 -29 -6 -41 -30 -58 -16 -12 -30 -27 -30 -35 0 -17 -20 -24
-51 -18 -42 8 -109 -15 -118 -40 -6 -16 -24 -27 -61 -37 -33 -9 -55 -21 -57
-31 -3 -11 -20 -19 -45 -23 -23 -4 -54 -18 -70 -31 -16 -14 -38 -25 -48 -25
-11 0 -24 -9 -30 -20 -6 -11 -22 -23 -35 -26 -17 -4 -25 -13 -25 -28 0 -26
-10 -41 -33 -49 -11 -4 -21 -16 -24 -27 -3 -12 -18 -27 -34 -36 -16 -8 -29
-21 -29 -30 0 -8 -13 -20 -29 -25 -18 -6 -32 -20 -35 -35 -4 -13 -13 -24 -21
-24 -9 0 -21 -12 -27 -26 -7 -14 -27 -32 -45 -39 -18 -8 -33 -19 -33 -24 0 -6
-7 -11 -15 -11 -13 0 -15 23 -17 138 -3 204 -4 199 26 227 24 23 26 29 26 117
0 91 1 94 32 127 l32 34 3 291 c2 160 1 310 -2 333 -3 23 -18 59 -33 80 -25
36 -27 46 -30 173 l-4 136 34 64 33 65 -3 210 c-3 210 -17 309 -45 327 -12 7
-13 57 -20 661 -2 213 -3 219 -24 237 -20 16 -23 28 -23 92 0 83 -15 133 -48
166 -20 20 -22 30 -17 62 4 22 4 69 0 104 -7 59 -10 66 -35 74 -29 11 -40 44
-40 130 0 35 -4 44 -25 54 -20 9 -26 21 -31 60 -4 26 -10 48 -15 48 -19 0 -47
44 -53 82 -4 23 -15 62 -26 87 -14 33 -21 81 -25 171 -11 234 -19 307 -37 326
-9 11 -19 46 -23 79 -9 83 -13 92 -38 99 -27 6 -54 96 -68 221 -17 154 -23
640 -9 721 7 41 16 74 20 74 20 0 30 61 30 178 0 131 6 152 41 152 10 0 19 11
22 29 5 25 11 29 58 34 28 4 59 13 68 20 9 8 51 22 94 31 50 11 80 23 86 35 7
12 33 21 88 30 48 8 92 22 115 37 29 18 51 24 97 24 49 0 61 4 73 21 9 14 30
25 58 30 99 18 131 27 148 43 10 8 47 20 82 25 35 4 66 13 68 20 7 22 61 41
114 41 44 0 59 5 87 29 34 29 69 41 122 41 15 0 31 5 34 10 10 17 34 11 46
-12z m-1807 -424 c9 -3 16 -12 16 -19 0 -16 39 -42 70 -47 16 -2 26 -12 31
-30 4 -15 15 -35 24 -44 9 -10 13 -23 9 -33 -14 -34 -25 -89 -34 -171 -5 -47
-16 -100 -25 -117 -11 -23 -18 -83 -25 -210 -5 -98 -12 -199 -16 -225 -4 -29
-2 -59 5 -75 7 -17 13 -127 15 -283 5 -256 8 -292 31 -320 7 -8 16 -39 19 -69
5 -35 16 -65 31 -82 30 -36 39 -128 27 -269 -6 -58 -6 -127 -1 -155 4 -27 8
-72 8 -98 1 -38 6 -53 26 -71 16 -15 25 -34 25 -55 0 -19 9 -40 23 -53 12 -13
26 -45 32 -73 8 -40 14 -51 32 -53 31 -5 36 -23 42 -164 5 -114 8 -129 29
-151 34 -37 41 -83 42 -271 0 -145 2 -172 17 -188 15 -17 18 -57 22 -361 3
-188 5 -457 5 -597 1 -247 0 -256 -23 -305 -22 -48 -23 -60 -24 -290 -1 -206
1 -245 16 -279 20 -46 22 -144 4 -171 -8 -11 -19 -47 -25 -79 -7 -34 -21 -70
-33 -83 -20 -20 -22 -38 -28 -185 -4 -90 -10 -169 -15 -176 -13 -21 -22 -13
-35 31 -7 23 -25 68 -42 99 -16 31 -29 64 -29 73 0 9 -13 29 -28 43 -26 25
-29 35 -35 116 -5 66 -10 92 -22 98 -26 15 -45 65 -45 122 0 35 -7 67 -19 88
-10 18 -24 59 -30 90 -7 32 -20 64 -30 70 -9 7 -23 33 -30 58 -7 25 -17 52
-22 60 -26 43 -31 81 -34 297 -4 226 -4 232 -28 270 -19 29 -26 56 -30 116 -7
96 6 195 28 211 12 9 18 40 25 131 5 66 18 154 28 195 16 66 16 80 5 109 -12
28 -11 42 2 94 14 55 17 102 15 307 0 42 23 215 29 220 34 27 56 230 47 439
-6 133 -8 147 -31 177 -14 18 -25 39 -25 46 0 25 -26 87 -46 109 -18 19 -19
43 -26 323 -3 165 -7 308 -7 316 0 8 0 59 0 113 1 53 -3 103 -9 110 -25 31
-40 217 -43 511 -1 243 0 260 17 272 11 8 26 19 33 26 8 7 24 15 35 18 12 3
28 20 36 37 8 17 23 34 33 37 16 4 18 11 12 48 -4 24 -11 45 -16 46 -5 2 -16
18 -23 36 -10 25 -25 37 -62 51 -42 16 -53 17 -93 5 -36 -10 -249 -13 -956
-16 -500 -1 -980 -6 -1065 -10 -85 -5 -168 -7 -183 -5 -16 1 -45 -6 -65 -16
-31 -15 -67 -19 -215 -21 -125 -3 -188 0 -208 9 -21 8 -99 11 -257 11 -153 -1
-257 4 -319 13 -51 8 -148 15 -215 15 -197 1 -379 16 -429 37 -37 15 -73 18
-227 18 -123 0 -185 -4 -190 -11 -4 -6 -30 -17 -57 -24 -41 -10 -69 -10 -150
0 -114 15 -131 15 -201 5 -42 -6 -56 -4 -79 11 -25 17 -59 20 -289 26 -144 3
-427 7 -629 7 -391 1 -409 -1 -451 -48 -11 -11 -27 -21 -36 -21 -24 0 -37 -18
-45 -62 -4 -21 -12 -38 -18 -38 -6 0 -19 -7 -29 -17 -16 -14 -18 -34 -18 -168
0 -127 -3 -161 -21 -211 -17 -51 -20 -85 -21 -245 -2 -167 0 -190 17 -215 14
-22 20 -53 23 -134 2 -58 8 -110 13 -115 4 -6 11 -31 15 -55 4 -25 14 -50 23
-57 10 -7 18 -33 21 -69 4 -43 10 -60 25 -68 11 -6 23 -15 27 -21 4 -5 8 -125
8 -265 0 -254 8 -330 36 -361 13 -15 18 -162 17 -540 -1 -34 -10 -80 -23 -115
-22 -58 -23 -67 -27 -669 -3 -335 -9 -614 -14 -619 -5 -6 -9 -19 -9 -31 0 -12
-5 -26 -11 -32 -14 -14 -32 -413 -27 -582 3 -108 4 -114 29 -135 24 -19 27
-30 33 -109 3 -49 14 -135 23 -190 10 -56 18 -133 19 -172 3 -136 1 -132 34
-145 35 -15 34 -7 34 -206 1 -107 5 -155 14 -166 9 -12 10 -23 2 -42 -20 -54
-6 -126 24 -126 16 0 26 -43 26 -111 0 -42 5 -53 37 -88 53 -55 131 -68 265
-45 173 30 282 37 568 37 326 1 503 -6 542 -21 63 -25 282 -33 816 -30 547 3
547 3 582 -19 55 -34 197 -44 553 -41 l312 3 40 -24 c35 -21 57 -24 180 -30
77 -3 174 -5 215 -3 41 2 545 5 1118 7 925 3 1046 6 1067 19 38 25 45 20 45
-31 0 -41 -5 -52 -37 -85 -32 -33 -43 -38 -84 -38 -25 0 -88 -9 -140 -20 -86
-18 -133 -20 -544 -20 -374 0 -461 3 -515 16 -44 11 -152 19 -335 25 -375 12
-551 30 -572 58 -17 23 -257 24 -293 0 -46 -29 -105 -42 -156 -34 -60 9 -238
9 -319 0 -33 -3 -70 -2 -83 2 -14 5 -67 4 -129 -2 -80 -8 -108 -15 -118 -28
-21 -29 -130 -40 -309 -34 -117 5 -163 10 -175 21 -19 17 -79 23 -301 32 -157
6 -207 3 -430 -26 -57 -8 -91 -8 -105 -1 -27 13 -98 23 -170 23 -79 -1 -290
-18 -301 -25 -5 -3 -58 -10 -119 -16 -130 -13 -249 -3 -267 22 -8 10 -39 20
-78 26 -84 13 -306 16 -391 6 -45 -5 -68 -4 -73 3 -4 7 -29 9 -70 5 -74 -7
-116 1 -116 22 0 11 -11 15 -37 15 -73 1 -127 17 -150 45 -14 15 -38 29 -58
32 -27 4 -37 12 -42 30 -5 23 -9 25 -51 20 -41 -4 -48 -2 -82 32 -24 22 -43
52 -50 79 -7 26 -20 48 -36 59 l-25 16 3 139 c3 131 4 140 26 156 19 15 23 31
33 132 10 109 12 117 42 148 l32 33 0 207 c0 242 -18 468 -45 567 -11 39 -24
106 -30 150 -11 87 -52 181 -95 221 -16 15 -25 34 -25 54 0 20 -9 39 -24 53
-21 20 -24 34 -31 142 -6 103 -11 128 -36 180 -18 37 -29 76 -29 101 0 40 -35
124 -51 124 -4 0 -10 28 -14 63 -4 36 -17 79 -31 103 l-25 42 5 268 c2 148 5
279 5 292 1 23 1 61 1 112 0 17 0 47 0 68 0 20 0 61 0 90 0 36 4 54 14 58 21
8 27 95 31 423 3 206 8 297 16 307 9 11 9 23 -1 53 -11 33 -10 42 5 64 15 24
15 28 0 57 -13 26 -14 36 -4 65 10 27 10 40 0 61 -9 21 -9 34 0 56 9 22 9 35
0 54 -6 15 -11 80 -11 158 0 114 3 135 18 152 30 32 41 100 46 306 7 247 0
348 -24 348 -33 0 -39 23 -38 150 0 69 -3 199 -6 289 -6 127 -4 166 5 172 7 4
60 5 117 2 117 -7 324 12 363 32 58 31 265 37 975 29 607 -8 694 -11 710 -25
46 -38 55 -39 1635 -39 1508 -1 1732 3 1799 32 34 14 174 27 415 37 293 13
378 22 391 39 8 11 44 16 140 22 180 10 260 11 278 4z m-368 -445 c8 -6 14
-29 14 -54 0 -26 6 -47 15 -55 38 -31 43 -69 48 -329 4 -241 5 -255 25 -270
19 -15 20 -29 27 -366 11 -619 9 -592 27 -612 15 -17 20 -42 34 -163 4 -30 13
-63 22 -73 32 -36 42 -90 42 -225 0 -73 -4 -140 -9 -150 -29 -54 -49 -113 -54
-161 -4 -30 -10 -57 -14 -60 -17 -12 -33 -52 -33 -79 0 -15 -5 -33 -11 -39 -7
-7 -10 -105 -10 -287 l1 -277 -24 -26 c-15 -16 -26 -43 -30 -75 -4 -27 -17
-68 -29 -91 -21 -40 -22 -53 -22 -282 l1 -240 38 -70 c21 -38 49 -89 62 -113
13 -23 24 -51 24 -62 0 -10 5 -22 10 -25 6 -4 10 -60 10 -135 0 -75 -4 -131
-10 -135 -5 -3 -10 -22 -10 -41 0 -19 -4 -34 -10 -34 -14 0 -13 -73 2 -105 6
-14 14 -25 18 -25 20 0 33 -68 39 -195 5 -103 11 -147 23 -165 21 -33 43 -123
35 -144 -6 -15 -15 -16 -64 -10 -32 5 -67 7 -78 7 -296 -21 -979 -28 -1830
-20 -458 4 -598 12 -632 34 -18 12 -29 13 -56 4 -25 -8 -42 -9 -62 -1 -21 8
-36 8 -56 -1 -21 -8 -37 -8 -62 0 -25 8 -42 9 -62 1 -21 -8 -36 -8 -58 1 -23
10 -36 10 -63 0 -19 -7 -40 -9 -46 -4 -7 4 -42 8 -78 9 -121 2 -265 15 -274
25 -6 5 -22 9 -38 9 -17 0 -37 10 -53 27 -28 31 -31 49 -11 72 17 20 46 107
46 138 0 13 7 26 15 29 9 4 15 19 15 40 0 26 4 34 18 34 10 0 22 4 28 10 5 5
30 11 56 12 25 2 44 6 41 11 -2 4 12 7 32 7 20 0 44 4 54 10 10 5 41 10 69 12
27 2 48 7 45 12 -4 5 6 7 20 4 16 -3 24 -1 20 5 -4 6 4 8 20 5 16 -3 24 -1 20
5 -3 6 6 8 26 5 17 -2 29 -2 26 0 -3 3 13 13 36 24 30 13 46 15 59 8 13 -7 21
-7 26 2 5 7 3 8 -6 3 -9 -5 -11 -4 -6 4 5 7 18 11 29 9 26 -3 50 10 41 23 -9
15 24 106 73 199 24 47 49 89 54 95 5 5 9 19 9 30 0 12 15 37 33 56 17 20 23
24 12 10 l-20 -26 27 24 c16 14 24 29 21 39 -4 10 -2 13 5 8 8 -5 10 -1 5 10
-4 12 -3 15 5 10 7 -4 10 -2 7 6 -3 7 11 38 30 68 20 30 41 67 48 83 6 15 16
27 20 27 5 0 5 4 2 10 -3 6 -1 10 5 10 6 0 8 5 5 10 -3 6 -1 10 5 10 6 0 9 4
6 9 -3 5 0 13 7 19 9 8 12 4 14 -16 1 -15 6 -54 13 -87 6 -33 15 -89 20 -125
5 -36 13 -88 19 -117 5 -28 6 -76 2 -107 -4 -30 -4 -53 0 -50 11 7 23 -42 13
-57 -4 -8 -3 -9 4 -5 7 4 12 1 12 -9 0 -9 -4 -14 -9 -11 -4 3 -6 -6 -3 -21 4
-19 2 -24 -8 -18 -8 5 -5 -5 5 -23 10 -17 22 -29 27 -26 4 3 8 0 8 -5 0 -6 6
-10 13 -8 6 1 11 -3 10 -10 -2 -8 4 -10 14 -6 10 4 14 2 10 -4 -5 -7 0 -9 12
-6 10 3 22 -1 26 -8 6 -8 4 -10 -5 -4 -8 5 -11 4 -6 -3 4 -6 12 -9 19 -7 15 6
110 -39 101 -47 -3 -4 4 -4 17 -1 17 5 20 3 14 -7 -5 -9 -4 -11 4 -6 14 9 53
-2 46 -13 -2 -5 7 -6 22 -3 19 4 24 2 18 -8 -5 -9 -4 -11 4 -6 11 7 101 -15
151 -37 51 -23 419 -39 570 -24 89 8 176 28 209 46 12 7 32 11 42 8 10 -3 17
-1 14 4 -7 10 40 23 54 15 5 -4 13 -1 17 5 5 8 3 9 -6 4 -9 -6 -11 -4 -5 4 4
7 18 11 31 8 14 -2 21 0 17 6 -4 6 0 8 10 4 10 -4 14 -1 12 6 -2 7 21 28 51
47 68 43 114 93 114 125 0 29 10 56 19 51 3 -2 6 17 7 42 0 26 6 64 11 84 6
21 7 35 2 32 -12 -7 -11 13 2 38 9 16 8 19 -2 13 -9 -6 -11 -2 -7 13 4 12 3
20 -1 18 -10 -7 -34 81 -27 99 3 9 2 13 -4 10 -12 -7 -24 40 -14 56 4 7 3 10
-2 6 -6 -3 -15 2 -21 12 -9 14 -7 25 9 49 11 18 22 32 25 32 2 0 1 -5 -3 -12
-4 -6 -3 -8 3 -5 6 4 8 17 6 31 -3 13 1 27 8 31 8 6 10 4 4 -5 -5 -9 -4 -11 4
-6 6 4 9 11 6 16 -3 5 1 23 10 39 20 40 21 178 0 207 -8 12 -11 24 -7 28 3 4
-2 4 -12 0 -13 -5 -17 -4 -12 4 4 8 2 10 -8 6 -14 -5 -76 21 -76 32 0 3 6 2
13 -2 6 -4 9 -3 5 1 -5 5 -20 10 -35 11 -14 2 -30 9 -35 16 -8 14 -4 70 14
153 6 28 9 74 7 103 -2 29 0 52 5 52 5 0 6 22 2 49 -8 58 -10 56 104 66 52 5
88 15 117 32 23 13 47 22 52 19 5 -4 13 -1 17 5 5 8 2 10 -7 5 -8 -4 -3 2 11
13 14 11 30 19 36 17 14 -5 57 38 48 47 -3 3 10 26 30 50 20 24 36 49 36 56 0
6 5 11 11 11 6 0 9 9 6 20 -3 11 -1 20 4 20 5 0 8 3 8 8 -4 21 2 43 10 38 4
-3 4 16 -1 42 -5 26 -10 55 -11 65 -1 9 -5 17 -10 17 -4 0 -6 3 -4 8 3 4 -7
16 -20 27 -14 11 -35 29 -46 39 l-20 19 24 18 c45 33 79 64 79 72 0 16 53 86
61 81 5 -3 6 1 3 9 -2 7 3 23 13 33 10 11 14 13 8 4 -9 -13 -8 -13 7 -1 10 7
16 17 13 21 -8 12 6 41 16 34 5 -3 6 3 2 12 -5 13 -3 15 7 9 8 -5 11 -4 6 3
-3 6 4 28 16 49 40 68 66 127 62 135 -3 5 -1 8 4 8 5 0 9 6 9 14 0 7 9 33 20
57 20 43 21 109 2 109 -5 0 -9 6 -9 13 0 6 -10 25 -23 40 l-22 28 -21 -43
c-12 -24 -42 -88 -67 -143 -90 -200 -86 -191 -139 -256 -21 -26 -38 -49 -38
-52 0 -15 -56 -97 -70 -103 -8 -3 -60 -17 -115 -29 -90 -21 -121 -23 -300 -21
l-200 2 -100 49 c-82 40 -191 114 -252 171 -6 6 -16 26 -20 45 -11 41 6 91 55
161 17 26 32 51 32 57 0 6 32 74 71 151 60 118 69 142 59 155 -11 14 -20 9
-65 -39 -58 -61 -112 -141 -150 -222 -8 -17 -25 -42 -39 -55 -14 -13 -26 -28
-26 -32 0 -4 -13 -37 -30 -72 -32 -69 -33 -102 -3 -161 15 -30 15 -34 -5 -65
-27 -44 -52 -120 -52 -156 0 -15 -1 -61 -3 -102 -3 -70 5 -105 40 -192 13 -30
61 -89 73 -89 12 0 81 -47 102 -70 19 -20 23 -48 10 -65 -10 -14 -69 -55 -80
-55 -4 0 -48 -25 -98 -57 -49 -31 -97 -56 -106 -55 -9 0 -19 -5 -21 -12 -7
-18 -140 -80 -217 -101 -36 -9 -99 -28 -140 -42 -41 -13 -110 -29 -155 -35
-44 -5 -98 -15 -120 -21 -22 -7 -63 -12 -92 -12 -41 0 -56 5 -75 25 -14 14
-53 50 -87 80 -35 30 -73 66 -85 79 -11 13 -35 40 -53 60 -18 19 -40 51 -50
71 -10 19 -30 51 -44 70 -14 19 -31 55 -38 80 -16 54 -18 61 -29 80 -5 8 -14
25 -20 37 -17 34 -16 239 2 303 9 30 16 65 16 76 0 27 36 117 67 166 13 21 23
44 23 52 0 8 3 16 8 18 11 5 70 82 82 109 6 13 32 34 58 46 46 21 138 33 159
20 5 -4 25 -8 44 -9 19 -1 45 -8 59 -15 14 -7 30 -13 36 -13 7 0 32 -20 57
-45 26 -25 49 -45 52 -45 17 0 155 -159 155 -179 0 -10 24 -21 45 -21 15 0 69
90 79 132 3 14 16 39 29 55 23 28 128 207 177 301 33 62 114 184 134 201 9 7
16 19 16 26 0 15 72 128 105 165 13 14 44 57 70 95 26 39 80 106 121 150 40
44 85 95 99 113 31 37 54 40 136 16 29 -9 65 -18 78 -21 13 -2 47 -15 75 -27
101 -47 149 -66 166 -66 9 0 20 -3 24 -7 3 -4 16 -8 27 -10 30 -5 210 -101
231 -123 11 -11 23 -20 28 -20 10 0 160 -105 175 -123 12 -14 72 -57 80 -57 3
0 5 8 5 18 0 10 4 22 9 27 5 6 12 31 16 56 6 41 4 48 -20 70 -15 13 -35 31
-45 41 -10 9 -21 14 -24 11 -3 -4 -6 -1 -6 6 0 7 -4 10 -8 7 -11 -7 -37 11
-37 26 0 7 -10 13 -22 13 -13 0 -24 5 -25 10 -1 6 -19 21 -39 34 -21 14 -36
28 -33 33 3 4 -1 5 -8 3 -8 -3 -22 2 -33 11 -11 8 -14 12 -6 8 9 -5 12 -3 7 5
-4 6 -12 9 -17 6 -14 -10 -50 5 -43 17 4 7 2 8 -4 4 -12 -7 -78 19 -100 41 -7
7 -21 14 -30 15 -54 4 -102 19 -97 29 4 5 -2 6 -11 2 -11 -4 -15 -2 -11 4 4 6
1 11 -6 10 -33 -1 -47 4 -47 17 0 24 34 76 46 72 7 -3 10 3 7 13 -2 9 6 25 19
36 l23 20 -20 -25 -20 -25 22 18 c12 11 19 25 17 32 -3 7 0 16 7 21 8 5 10 3
4 -6 -5 -9 -4 -11 4 -6 6 4 9 12 5 17 -3 5 8 31 24 57 17 26 40 70 52 97 13
28 35 76 51 108 17 35 29 74 29 98 0 22 4 38 8 35 4 -2 6 11 4 31 -4 27 -1 34
8 28 8 -5 11 -4 7 2 -7 12 14 134 22 128 3 -2 5 33 3 77 l-4 80 -41 -6 c-103
-14 -127 -19 -133 -27 -3 -5 -52 -9 -109 -9 -58 0 -107 -4 -110 -10 -4 -6 -80
-10 -196 -10 l-189 0 0 -41 c0 -44 -55 -272 -73 -300 -11 -18 -4 -49 12 -49 6
0 20 11 33 23 49 50 117 98 129 91 7 -4 9 -3 6 3 -7 11 82 90 95 85 5 -1 8 2
8 8 0 5 21 23 48 40 38 24 58 30 105 30 71 0 105 -21 148 -88 38 -60 38 -110
2 -182 -38 -74 -80 -96 -179 -93 l-72 3 -43 -89 c-24 -49 -47 -87 -51 -85 -4
3 -5 -1 -3 -8 3 -8 -5 -25 -17 -38 -26 -27 -108 -149 -108 -160 0 -13 -200
-209 -220 -215 -11 -4 -18 -10 -15 -15 10 -16 -80 -81 -172 -125 -18 -8 -33
-20 -33 -25 0 -5 -17 -18 -37 -28 -21 -10 -54 -27 -73 -38 -51 -29 -148 -64
-176 -64 -13 0 -24 -4 -24 -10 0 -5 -7 -7 -15 -4 -8 4 -15 2 -15 -4 0 -10 -2
-11 -120 -35 -173 -35 -230 -40 -373 -33 -78 3 -173 13 -212 22 -38 8 -91 19
-117 24 -26 5 -63 16 -82 25 -19 9 -39 14 -44 11 -5 -3 -20 1 -33 8 -14 7 -38
16 -53 20 -15 4 -24 11 -21 16 4 6 -1 7 -11 3 -13 -5 -15 -3 -9 7 5 9 4 11 -4
6 -6 -4 -45 13 -87 38 -42 25 -79 46 -81 46 -7 0 -153 110 -210 159 -29 24
-49 49 -46 55 3 6 3 8 -2 4 -4 -4 -25 10 -47 32 l-40 39 -5 180 c-5 151 -4
181 8 181 11 0 11 2 -1 11 -11 8 -12 12 -2 16 13 5 17 79 4 87 -16 10 -55 231
-54 305 1 24 -4 51 -10 58 -8 10 -5 13 13 13 17 0 28 9 37 30 18 40 12 64 -18
68 -52 7 -43 22 12 22 31 0 69 5 85 11 19 8 165 14 433 18 l405 6 39 24 39 25
626 3 c375 3 630 8 636 14 5 5 27 9 50 9 23 0 46 5 52 11 9 9 118 13 365 17
194 2 355 7 358 9 10 11 292 -6 306 -18z m-5275 -83 c70 -16 80 -16 140 -1 35
9 74 19 87 22 12 3 45 -4 74 -17 45 -19 79 -23 258 -31 113 -4 235 -5 271 -2
88 8 225 -13 262 -39 28 -20 38 -21 295 -15 147 3 276 8 287 12 11 3 28 0 39
-8 25 -19 13 -52 -23 -65 -24 -9 -29 -17 -33 -54 -5 -47 5 -68 33 -68 25 0 32
-31 25 -114 -9 -110 -10 -548 -2 -671 5 -60 15 -122 22 -137 9 -17 10 -29 4
-33 -17 -10 -11 -48 11 -71 21 -22 22 -33 25 -331 5 -428 9 -485 40 -512 23
-20 24 -27 24 -128 0 -91 3 -113 21 -142 17 -29 21 -53 24 -187 2 -84 6 -157
9 -162 3 -5 6 -89 6 -186 1 -137 5 -186 17 -214 18 -41 42 -192 43 -264 0 -35
6 -54 25 -76 14 -17 28 -44 31 -61 4 -18 15 -37 24 -44 29 -20 42 -90 35 -186
-6 -69 -11 -89 -27 -102 -16 -12 -22 -35 -30 -110 -6 -61 -16 -103 -27 -119
-13 -18 -20 -54 -25 -120 -10 -126 -12 -134 -46 -147 -27 -10 -28 -13 -35
-104 -4 -52 -4 -132 -1 -179 7 -115 7 -106 0 -187 -3 -40 -10 -73 -15 -73 -5
0 -16 -17 -25 -37 -13 -32 -13 -44 -3 -76 11 -32 10 -40 -2 -48 -14 -9 -154
-15 -242 -11 -41 2 -48 0 -58 -21 -11 -23 -16 -25 -126 -29 l-115 -4 -25 -32
c-23 -30 -28 -32 -88 -32 -68 0 -115 -15 -115 -36 0 -21 -22 -28 -83 -26 -53
2 -61 0 -86 -27 -22 -23 -39 -31 -85 -36 -38 -5 -65 -4 -80 4 -16 9 -29 9 -50
2 -15 -6 -43 -11 -63 -11 -23 0 -40 -7 -52 -21 -14 -18 -31 -23 -95 -27 -68
-4 -79 -7 -88 -27 -10 -23 -56 -35 -132 -35 -35 0 -56 -15 -56 -41 0 -14 -13
-17 -86 -20 -77 -4 -88 -7 -102 -27 -21 -33 -83 -31 -122 4 -27 24 -30 33 -29
83 2 71 -13 108 -43 113 -22 3 -23 8 -26 88 -2 67 -7 89 -22 105 -26 28 -42
108 -35 180 3 33 2 136 -3 228 -7 162 -9 169 -32 187 l-24 18 2 674 c1 754 -5
897 -43 976 -24 50 -25 60 -25 241 l0 190 27 21 27 21 1 202 c0 166 -3 212
-18 260 -10 31 -22 57 -27 57 -6 0 -10 51 -10 125 0 77 -4 125 -10 125 -5 0
-10 5 -10 12 0 6 -7 19 -16 29 -20 22 -37 220 -23 258 16 40 0 111 -26 123
-26 12 -35 34 -35 93 0 49 -7 61 -43 74 -20 8 -27 17 -27 37 0 15 -10 41 -23
58 -13 17 -27 40 -32 51 -4 11 -12 178 -17 370 -4 193 -9 370 -10 395 -2 58
22 118 58 147 29 23 30 23 279 20 194 -2 267 -7 326 -21z m4637 -712 c12 -4
22 -11 22 -16 0 -5 -4 -6 -10 -3 -5 3 -7 0 -4 -8 6 -16 -102 -137 -122 -137
-7 0 -16 5 -20 12 -5 7 -3 8 6 3 9 -5 11 -4 6 4 -4 6 -12 9 -17 5 -16 -10 -39
17 -39 45 0 34 34 84 62 93 30 8 87 9 116 2z m-2636 -631 c13 -16 25 -50 49
-138 16 -61 30 -174 39 -328 13 -219 19 -255 41 -262 18 -6 69 20 69 35 0 5
10 12 21 15 12 4 40 24 63 45 23 20 63 45 89 55 26 10 50 22 53 26 3 5 39 9
80 9 74 0 131 -19 187 -63 27 -22 20 -61 -18 -109 -48 -60 -125 -219 -125
-259 0 -13 -9 -53 -20 -88 -15 -50 -18 -84 -15 -155 6 -113 15 -175 26 -182 5
-3 9 -16 9 -29 0 -13 7 -36 15 -52 8 -15 28 -57 45 -93 17 -36 44 -87 61 -115
16 -27 32 -56 35 -63 9 -18 -36 -79 -73 -99 -17 -9 -34 -24 -36 -33 -2 -9 -21
-30 -41 -45 -30 -23 -46 -28 -86 -26 -70 2 -279 47 -331 71 -24 11 -53 20 -63
20 -18 0 -19 6 -10 158 14 259 10 371 -16 439 -18 47 -23 84 -26 195 -3 113
-8 148 -28 205 -22 58 -26 91 -30 230 -3 122 -1 164 8 172 7 6 19 30 26 53 8
24 25 62 38 86 23 40 23 44 8 61 -20 22 -50 17 -70 -10 -12 -17 -14 -10 -20
58 -4 43 -12 83 -18 90 -13 16 -24 138 -12 130 6 -3 16 -2 24 4 22 13 35 11
52 -8z m224 -99 c6 -8 14 -14 18 -14 4 0 40 -16 80 -35 40 -19 77 -35 83 -35
16 0 177 -208 185 -239 2 -11 -11 -13 -62 -12 -99 2 -206 -33 -265 -87 -28
-25 -51 -40 -57 -34 -4 4 -13 60 -18 123 -5 63 -16 161 -24 219 -21 147 -22
141 17 134 17 -4 37 -13 43 -20z m1584 -14 c0 -16 -78 -160 -106 -197 -13 -17
-24 -36 -24 -41 0 -5 -12 -22 -26 -37 -14 -15 -23 -33 -20 -41 3 -7 1 -16 -3
-18 -4 -3 -32 -54 -61 -113 -30 -59 -57 -110 -60 -113 -4 -3 -13 -18 -21 -34
-20 -42 -33 -42 -71 -1 -28 31 -103 98 -189 170 -13 11 -69 31 -124 45 -55 14
-100 31 -100 37 0 12 62 83 73 83 4 0 28 20 54 44 51 46 36 42 268 77 41 6 98
22 126 35 28 13 58 24 67 24 9 0 18 4 21 9 3 4 19 11 34 14 16 3 51 19 78 36
51 30 84 39 84 21z m-1097 -159 c125 -20 255 -33 265 -27 6 3 20 3 31 -2 20
-7 15 -14 -54 -84 -41 -42 -75 -81 -75 -87 0 -6 -5 -11 -11 -11 -5 0 -8 -4 -5
-9 7 -11 -20 -34 -32 -27 -5 3 -18 -4 -28 -17 l-19 -22 25 20 25 20 -19 -23
c-11 -12 -23 -19 -27 -15 -4 5 -26 42 -49 83 -22 41 -50 86 -60 100 -11 14
-21 36 -23 50 -2 14 -9 25 -16 25 -15 0 -32 26 -24 38 3 4 11 6 19 3 8 -3 43
-10 77 -15z m1421 -731 c14 -5 26 -14 26 -20 0 -6 5 -8 10 -5 6 3 10 1 10 -4
0 -6 3 -10 8 -9 12 3 82 -23 82 -31 0 -12 103 -53 147 -59 24 -2 41 -7 39 -11
-2 -3 8 -6 22 -7 114 -1 163 -5 158 -12 -4 -6 193 2 267 11 23 3 27 0 27 -20
0 -26 -77 -108 -130 -140 -17 -9 -30 -25 -30 -34 0 -34 64 -39 103 -9 14 11
27 20 29 20 3 0 24 18 48 40 29 27 52 40 72 40 15 0 28 -5 28 -11 0 -5 4 -8 9
-5 5 3 12 -1 15 -10 26 -68 -60 -209 -158 -258 -118 -58 -222 -39 -326 61
-103 99 -149 53 -57 -55 15 -19 26 -39 24 -45 -5 -15 -82 -27 -127 -20 -36 6
-132 51 -138 65 -2 4 -14 22 -26 40 -12 19 -21 39 -18 46 2 7 -1 12 -8 12 -6
0 -8 5 -5 10 3 6 1 10 -5 10 -6 0 -9 3 -6 8 2 4 -6 32 -20 62 -13 30 -23 72
-24 92 0 20 -4 39 -9 42 -29 18 -61 -35 -61 -101 0 -31 -2 -33 -20 -23 -24 13
-75 90 -72 108 2 6 -1 12 -7 12 -11 0 -9 19 3 38 4 7 5 21 1 30 -11 24 -12 62
-3 62 4 0 8 10 7 23 0 30 12 79 23 94 8 10 16 8 38 -7 15 -11 39 -24 54 -30z
m175 -691 c50 -29 64 -32 133 -30 71 1 79 -1 93 -23 18 -27 23 -141 8 -171
-10 -20 -28 -111 -37 -197 -5 -44 -3 -49 32 -83 20 -19 67 -46 103 -60 85 -33
102 -62 64 -107 -14 -16 -25 -40 -25 -53 0 -13 -15 -39 -32 -58 -33 -34 -33
-34 -153 -41 -239 -14 -268 -17 -318 -37 -51 -20 -106 -33 -194 -45 -26 -3
-59 -12 -73 -19 -14 -8 -54 -23 -90 -35 -36 -12 -69 -25 -75 -30 -5 -4 -32
-11 -59 -15 -26 -3 -69 -20 -95 -36 -26 -16 -65 -31 -85 -34 -21 -2 -63 -16
-93 -30 -30 -14 -61 -25 -68 -25 -15 0 -25 22 -25 57 0 14 -6 39 -14 56 -20
44 -28 101 -27 180 1 43 -4 78 -14 97 -34 66 -10 100 71 100 58 0 85 9 121 43
13 11 51 34 85 51 71 35 101 71 100 116 -1 47 -18 61 -69 58 -24 -1 -46 -5
-49 -10 -3 -4 -13 -8 -23 -8 -10 0 -36 -12 -57 -26 -21 -15 -67 -33 -100 -40
-34 -7 -80 -22 -101 -33 -67 -34 -367 -108 -413 -102 -8 1 -68 1 -133 1 -114
-1 -176 -14 -192 -40 -8 -13 24 -52 36 -45 4 3 11 0 14 -6 4 -5 13 -8 21 -5 7
3 16 1 19 -5 4 -5 10 -7 15 -4 5 3 38 1 73 -5 40 -7 76 -8 98 -3 30 8 98 -3
128 -21 12 -8 -41 -157 -70 -196 -15 -19 -30 -45 -34 -58 -4 -13 -24 -49 -45
-81 -22 -32 -54 -88 -72 -125 -37 -75 -41 -77 -128 -46 -30 11 -65 19 -78 20
-13 0 -36 7 -51 15 -16 8 -48 18 -72 21 -24 4 -60 15 -79 25 -51 26 -110 35
-121 18 -15 -24 -23 1 -11 34 7 19 12 41 12 50 0 9 9 32 21 51 11 19 23 60 26
91 4 34 11 59 19 62 8 3 14 19 14 35 0 17 5 48 11 68 22 73 -11 144 -82 175
-95 41 -130 120 -96 211 l12 30 70 -12 c39 -8 93 -18 121 -23 28 -5 68 -17 89
-25 20 -9 48 -16 60 -16 42 0 130 34 173 67 24 18 47 33 51 33 4 0 13 11 19
25 7 14 22 30 35 36 13 6 31 24 41 40 9 16 25 29 35 29 23 0 108 -74 116 -100
4 -11 13 -20 21 -20 8 0 20 -12 27 -27 14 -34 24 -43 66 -65 55 -30 193 -19
346 28 28 9 75 22 105 29 96 23 153 41 210 67 47 22 131 50 152 52 3 1 10 4
14 9 4 4 16 7 26 7 10 0 36 18 58 40 22 22 43 40 46 40 9 0 125 71 147 89 19
16 99 47 126 50 8 0 39 -13 70 -30z m338 -961 c54 -81 66 -128 61 -248 -4
-126 -12 -143 -97 -200 -61 -42 -136 -71 -246 -96 -44 -9 -85 -22 -92 -27 -7
-5 -88 -8 -180 -8 -176 1 -241 10 -452 66 -52 14 -102 25 -112 25 -9 0 -33 11
-53 25 -20 14 -42 25 -47 25 -19 0 -83 34 -96 50 -7 8 -13 34 -13 57 0 39 2
42 43 62 24 12 51 21 60 21 10 0 39 11 65 23 26 13 94 36 152 51 58 15 158 45
223 67 65 21 128 39 139 39 12 0 49 9 82 19 88 28 129 37 241 56 55 10 110 20
123 24 13 3 56 7 97 9 l73 3 29 -43z m-2342 -298 c253 -60 279 -70 283 -101 2
-21 -3 -28 -25 -36 -48 -18 -183 -53 -298 -78 -38 -8 -89 -20 -113 -25 -23 -6
-53 -10 -67 -10 -25 0 -25 1 -20 73 11 141 31 217 58 217 6 0 89 -18 182 -40z
m-232 -899 c7 -28 71 -33 518 -37 389 -3 409 -4 470 -25 60 -21 81 -22 317
-22 213 1 256 3 277 17 13 9 41 16 62 16 21 0 109 1 196 3 87 2 160 0 163 -5
7 -12 41 -10 63 4 15 9 28 9 60 -2 32 -10 44 -11 53 -2 15 15 61 15 76 0 9 -9
20 -8 50 1 35 12 41 11 77 -13 36 -25 44 -26 166 -26 130 0 173 -8 194 -37 10
-13 41 -17 186 -20 204 -5 215 -6 222 -33 3 -12 19 -26 36 -33 16 -6 32 -18
34 -27 6 -22 84 -33 172 -24 l66 7 -3 -146 c-3 -101 -8 -150 -17 -161 -12 -14
-48 -16 -280 -16 -146 1 -324 5 -396 10 -71 5 -203 10 -292 12 -151 3 -163 5
-193 26 -29 22 -46 24 -202 32 -93 4 -183 4 -199 0 -30 -9 -81 1 -135 25 -43
20 -254 38 -390 33 -108 -3 -113 -4 -139 -32 -25 -27 -29 -28 -103 -24 -73 4
-92 10 -152 43 -20 11 -135 14 -590 18 -560 4 -580 5 -655 37 -60 26 -750 42
-825 20 -47 -15 -369 -13 -387 1 -21 18 -15 37 15 43 15 2 71 8 126 11 83 6
99 10 103 25 5 18 14 20 176 37 38 3 62 11 70 23 7 9 31 20 55 24 43 6 49 9
111 40 19 10 69 21 110 26 87 10 107 16 133 42 16 16 36 18 158 18 91 0 147
-4 159 -12 15 -9 25 -9 46 0 14 7 50 12 80 12 79 0 101 11 110 57 4 21 9 41
11 45 9 15 32 8 37 -11z"/>
<path d="M6241 8158 c-7 -12 -15 -47 -18 -78 -8 -89 27 -146 116 -189 36 -17
51 -19 85 -11 82 18 113 37 145 90 57 92 33 210 -42 210 -24 0 -28 -3 -19 -12
31 -31 0 -98 -45 -98 -24 0 -53 30 -53 55 0 10 7 27 17 37 15 17 13 18 -78 18
-86 0 -95 -2 -108 -22z"/>
<path d="M5325 8138 c-11 -5 -33 -26 -50 -46 -28 -33 -30 -41 -30 -120 l0 -84
50 -44 c49 -43 50 -44 123 -44 63 0 78 4 107 25 18 15 32 33 30 43 -1 9 0 11
2 5 8 -22 23 -14 23 11 0 13 6 26 14 29 20 8 20 136 0 144 -8 3 -14 11 -14 19
0 8 -4 14 -10 14 -5 0 -10 7 -10 15 0 8 -11 17 -25 21 -14 3 -25 10 -25 15 0
12 -160 10 -185 -3z"/>
<path d="M5594 7676 c-8 -20 33 -79 73 -105 26 -17 54 -23 116 -27 73 -4 87
-2 127 19 60 31 65 57 13 58 -94 1 -249 35 -277 61 -15 13 -46 9 -52 -6z"/>
<path d="M6524 7679 c-29 -15 -56 -71 -52 -110 2 -27 0 -34 -14 -33 -10 1 -15
-3 -12 -8 9 -14 -35 -56 -67 -63 -15 -4 -30 -14 -33 -23 -3 -9 -20 -23 -38
-31 -18 -8 -41 -20 -50 -28 -9 -8 -28 -16 -41 -17 -14 0 -23 -4 -21 -7 2 -4
-49 -24 -114 -45 -115 -38 -120 -38 -274 -39 -86 -1 -155 2 -153 5 2 3 -12 4
-30 2 -19 -2 -48 1 -65 7 -23 7 -29 7 -24 -1 5 -7 2 -9 -9 -5 -27 10 -15 -16
14 -31 15 -7 44 -29 65 -49 22 -20 67 -53 102 -73 34 -20 59 -40 55 -44 -4 -4
0 -4 9 -1 10 4 40 -5 70 -20 32 -16 64 -25 80 -23 16 3 28 1 28 -3 0 -4 36 -7
80 -8 44 -1 80 3 80 8 0 4 11 6 25 4 35 -7 188 70 246 124 27 25 60 65 74 89
14 24 30 44 35 44 7 0 20 25 25 50 10 49 18 69 25 65 4 -3 6 4 3 14 -5 20 62
105 77 96 10 -6 30 41 30 74 0 28 -26 59 -67 80 -25 13 -31 13 -59 0z"/>
<path d="M5724 5748 c-21 -16 -41 -34 -43 -41 -12 -35 -53 -87 -64 -81 -7 4
-8 3 -4 -2 4 -4 18 -9 30 -9 14 0 23 -7 26 -20 2 -11 17 -39 34 -62 27 -38 35
-43 69 -43 27 0 38 -4 38 -15 0 -20 17 -19 29 3 8 13 13 14 19 4 6 -9 13 -7
30 8 12 12 22 25 22 30 0 5 7 7 16 3 11 -4 15 -1 12 13 -2 11 2 18 10 17 6 -2
12 2 12 8 0 6 -7 8 -16 5 -12 -5 -14 -1 -8 17 3 12 10 27 15 33 6 7 5 22 -1
39 -6 15 -8 31 -4 36 3 5 0 9 -5 9 -6 0 -11 5 -11 10 0 15 -38 50 -53 50 -8 0
-17 3 -21 7 -4 4 -26 8 -50 9 -33 1 -51 -5 -82 -28z"/>
</g>
</svg>
