<?xml version="1.0" standalone="no"?>
<!DOCTYPE svg PUBLIC "-//W3C//DTD SVG 20010904//EN"
 "http://www.w3.org/TR/2001/REC-SVG-20010904/DTD/svg10.dtd">
<svg version="1.0" xmlns="http://www.w3.org/2000/svg"
 width="672.000000pt" height="987.000000pt" viewBox="0 0 672.000000 987.000000"
 preserveAspectRatio="xMidYMid meet">
<metadata>
Created by potrace 1.16, written by Peter Selinger 2001-2019
</metadata>
<g transform="translate(0.000000,987.000000) scale(0.100000,-0.100000)"
fill="#000000" stroke="none">
<path d="M2898 9009 c-23 -12 -46 -35 -58 -58 -19 -38 -19 -63 -21 -763 0
-399 -4 -730 -7 -735 -4 -6 -72 -13 -152 -16 -145 -6 -183 -15 -280 -61 -99
-46 -184 -119 -238 -201 -15 -22 -29 -42 -32 -45 -7 -7 -36 -70 -48 -105 -33
-94 -42 -179 -42 -393 l0 -219 -59 -41 c-67 -48 -215 -170 -281 -234 -109
-104 -218 -237 -350 -427 -127 -183 -322 -588 -369 -766 -5 -16 -13 -41 -19
-55 -6 -14 -18 -52 -27 -85 -9 -33 -23 -82 -30 -110 -8 -27 -21 -81 -30 -120
-8 -38 -22 -98 -30 -133 -8 -35 -15 -73 -15 -85 0 -12 -7 -60 -15 -107 -61
-352 -61 -788 1 -1100 38 -193 118 -443 180 -562 8 -14 14 -33 14 -41 0 -9 3
-17 8 -19 4 -1 18 -25 32 -53 21 -42 69 -127 105 -187 26 -43 129 -189 148
-210 12 -13 47 -55 78 -94 114 -140 366 -372 446 -409 17 -8 34 -19 37 -24 7
-10 180 -83 251 -104 114 -35 231 -38 1255 -35 l1005 3 98 28 c218 61 357 137
516 282 280 254 468 499 611 800 29 61 56 119 61 130 4 11 17 42 28 69 12 27
21 56 21 65 0 9 4 21 9 26 6 6 14 28 20 50 6 22 17 65 25 95 52 191 64 262 87
515 22 241 -13 636 -84 970 -9 39 -21 95 -27 125 -6 30 -16 59 -21 65 -5 5 -9
19 -9 32 0 12 -6 40 -14 60 -7 21 -21 65 -31 98 -10 33 -24 74 -30 90 -7 17
-19 53 -28 80 -32 104 -175 417 -245 535 -11 19 -30 53 -42 75 -150 275 -470
635 -705 792 l-33 22 -4 268 -4 268 -34 80 c-40 96 -51 114 -108 183 -39 46
-151 142 -166 142 -4 0 -25 9 -49 19 -108 48 -131 53 -279 59 l-148 5 0 389
c0 259 -4 405 -12 436 -10 43 -37 73 -337 376 -179 181 -346 341 -370 357 -53
34 -100 37 -153 8z m254 -550 c-2 -8 0 -11 4 -7 10 11 35 -12 27 -26 -3 -6 -3
-8 2 -4 11 11 36 -12 28 -25 -3 -5 -1 -7 4 -4 12 7 36 -16 28 -26 -3 -4 -2 -5
2 -2 10 8 33 -16 26 -28 -3 -5 -2 -7 4 -4 6 4 47 -31 92 -77 l81 -84 -2 -358
-3 -359 -157 -3 -158 -3 0 517 c0 408 3 515 13 511 6 -2 11 -11 9 -18z m842
-1335 c9 -3 13 -10 10 -15 -3 -5 2 -6 10 -3 20 8 86 -26 131 -67 18 -17 46
-56 62 -87 28 -55 28 -56 28 -256 l0 -201 -948 -3 -948 -2 3 212 c4 244 5 246
94 335 54 54 96 78 121 69 8 -3 12 -2 8 3 -3 5 1 12 7 14 18 8 1403 8 1422 1z
m-1186 -962 c4 -9 6 -111 6 -227 -1 -115 -2 -415 -3 -665 l-1 -455 -62 6 c-35
3 -119 11 -188 18 -69 6 -171 16 -227 22 -57 5 -174 12 -260 15 -87 2 -239 9
-337 14 -99 6 -242 10 -319 10 l-139 0 8 32 c3 18 12 46 20 63 7 16 19 46 27
65 57 136 127 278 189 384 42 72 117 187 128 196 4 3 26 32 50 65 75 103 324
344 429 413 l94 62 289 0 c264 -1 289 -2 296 -18z m642 -706 c0 -455 -4 -717
-10 -721 -5 -3 -45 2 -87 11 -43 9 -93 16 -111 15 -18 -1 -50 3 -72 9 l-40 11
0 694 0 695 160 0 160 0 0 -714z m949 693 c19 -11 40 -26 47 -32 7 -7 27 -23
45 -37 86 -65 230 -209 295 -295 21 -27 41 -52 45 -55 10 -8 159 -229 159
-237 0 -3 6 -14 14 -22 12 -14 198 -372 196 -379 0 -1 7 -16 15 -32 8 -16 15
-32 14 -35 -1 -6 16 -52 37 -101 25 -57 96 -279 99 -309 l3 -31 -91 4 c-656
24 -908 35 -1042 47 -259 22 -398 36 -430 44 l-30 7 -3 742 -2 742 297 0 c284
0 300 -1 332 -21z m-129 -4419 c-33 -10 -1937 -10 -1970 0 -14 4 430 8 985 8
556 0 999 -4 985 -8z"/>
</g>
</svg>
