<?xml version="1.0" standalone="no"?>
<!DOCTYPE svg PUBLIC "-//W3C//DTD SVG 20010904//EN"
 "http://www.w3.org/TR/2001/REC-SVG-20010904/DTD/svg10.dtd">
<svg version="1.0" xmlns="http://www.w3.org/2000/svg"
 width="1127.000000pt" height="841.000000pt" viewBox="0 0 1127.000000 841.000000"
 preserveAspectRatio="xMidYMid meet">
<metadata>
Created by potrace 1.16, written by Peter Selinger 2001-2019
</metadata>
<g transform="translate(0.000000,841.000000) scale(0.100000,-0.100000)"
fill="#000000" stroke="none">
<path d="M3948 7159 c-10 -5 -18 -19 -18 -30 0 -31 -44 -43 -113 -29 -44 9
-62 8 -73 0 -8 -7 -25 -9 -39 -6 -14 4 -35 1 -47 -5 -12 -6 -56 -13 -97 -15
-42 -1 -76 -3 -76 -5 0 -2 -156 -7 -455 -13 -135 -3 -247 -6 -250 -7 -18 -6
-145 -3 -193 4 -52 9 -63 7 -105 -14 -26 -13 -49 -26 -52 -29 -3 -3 -17 -11
-31 -18 -24 -13 -26 -18 -36 -157 -6 -79 -14 -149 -19 -156 -4 -7 -8 -22 -9
-33 -6 -82 -40 -244 -60 -294 -8 -19 -15 -42 -15 -52 0 -10 -7 -21 -16 -24 -8
-3 -14 -14 -13 -23 1 -10 -1 -26 -6 -35 -4 -10 -5 -24 -2 -32 3 -7 1 -31 -4
-52 -6 -22 -12 -46 -13 -54 -14 -70 -34 -129 -54 -152 -8 -9 -11 -21 -8 -27 4
-6 2 -18 -3 -28 -5 -10 -14 -36 -19 -58 -6 -22 -21 -76 -35 -120 -13 -44 -35
-123 -48 -175 -12 -52 -31 -107 -41 -121 -37 -50 -58 -164 -62 -334 -3 -105
-10 -183 -21 -225 -14 -54 -15 -76 -5 -142 10 -73 9 -83 -24 -217 -20 -81 -43
-152 -55 -167 -11 -14 -25 -50 -32 -80 -7 -30 -16 -54 -20 -54 -5 0 -16 -15
-25 -32 -9 -18 -24 -41 -34 -50 -23 -22 -54 -150 -45 -186 9 -32 13 -53 18
-105 3 -21 7 -41 11 -44 3 -3 6 -23 6 -44 0 -30 7 -46 35 -73 19 -20 35 -38
35 -41 0 -19 53 -58 91 -66 44 -10 72 -3 111 29 13 11 24 12 50 3 18 -6 91
-27 162 -46 71 -19 143 -44 160 -54 31 -18 221 -65 234 -57 13 7 126 -15 142
-28 26 -23 99 -45 323 -96 121 -28 278 -66 350 -84 73 -19 187 -46 255 -60
148 -32 599 -143 772 -191 123 -35 149 -40 300 -69 212 -41 302 -60 372 -78
45 -12 85 -17 95 -13 10 5 28 7 40 6 25 -3 38 17 48 72 4 20 12 37 19 37 6 0
22 9 36 20 14 11 33 20 43 20 9 0 17 5 17 10 0 6 8 10 19 10 10 0 36 8 57 17
45 19 38 17 89 28 22 5 46 8 53 7 6 -2 12 1 12 6 0 9 31 17 97 26 13 1 26 6
30 9 15 15 55 7 60 -13 3 -11 9 -20 14 -20 5 0 9 -6 9 -12 0 -15 45 -38 75
-38 23 0 75 21 75 31 0 3 11 18 24 32 17 18 31 55 46 124 16 72 29 104 46 121
13 13 24 29 24 37 0 8 8 19 18 24 17 9 62 136 62 174 0 8 8 25 18 38 11 13 27
50 37 82 10 33 25 65 32 73 21 20 34 72 34 129 0 61 26 230 39 253 19 32 52
177 54 229 0 29 3 53 5 53 2 0 24 -15 50 -34 25 -18 60 -41 78 -50 35 -17 109
-21 133 -7 8 6 17 8 21 6 3 -3 -30 -77 -74 -166 l-80 -161 19 -36 c10 -21 18
-42 17 -49 0 -7 -25 -52 -55 -100 -49 -78 -122 -200 -155 -258 -6 -11 -32 -62
-58 -112 -38 -78 -50 -93 -70 -94 -14 -1 -29 -3 -35 -4 -5 -1 -23 -3 -40 -4
-17 0 -39 -10 -50 -21 -22 -22 -21 -40 7 -116 l15 -41 -51 -51 c-85 -86 -117
-171 -82 -220 32 -45 173 -112 219 -103 6 1 12 -2 12 -7 0 -9 17 -12 175 -33
84 -12 255 -13 315 -4 19 3 49 8 67 10 38 6 251 70 299 90 32 13 34 16 31 61
l-2 48 45 17 c54 20 80 58 142 206 24 57 45 103 48 103 3 0 21 -15 40 -33 76
-71 168 -127 312 -186 44 -18 47 -22 43 -48 -6 -31 0 -42 32 -61 35 -19 43
-14 26 16 -14 25 -14 32 5 92 11 36 18 67 16 69 -3 3 -16 -7 -30 -21 -23 -23
-30 -25 -63 -16 -20 5 -45 13 -56 17 -11 5 -36 15 -55 22 -19 7 -37 15 -40 18
-3 3 -21 15 -40 25 -64 35 -124 87 -170 146 -43 56 -47 59 -108 70 -120 21
-198 58 -279 134 -28 25 -33 27 -33 11 0 -29 158 -175 190 -175 5 0 10 -4 10
-10 0 -5 9 -10 20 -10 11 0 20 -4 20 -8 0 -5 23 -15 50 -22 28 -7 50 -17 50
-21 0 -4 -10 -29 -21 -56 -12 -26 -33 -82 -48 -122 -17 -46 -37 -82 -52 -93
-44 -32 -125 -45 -259 -42 -207 4 -261 20 -395 114 -94 66 -184 95 -270 86
-63 -6 -64 -6 -88 26 -30 42 -35 88 -7 88 10 0 21 4 24 9 3 5 20 8 38 7 42 -3
93 21 106 48 107 228 226 452 272 513 16 21 17 21 86 -46 144 -139 317 -245
494 -304 126 -42 203 -52 385 -51 171 0 245 10 370 47 48 15 66 21 105 39 60
27 147 85 189 125 31 31 36 32 52 17 20 -18 39 -87 39 -143 0 -42 5 -47 29
-32 15 10 40 -4 193 -111 101 -71 111 -85 105 -156 -2 -17 0 -37 4 -43 5 -9
-17 -137 -26 -147 -2 -2 -23 7 -47 20 -106 59 -217 72 -351 42 -99 -23 -174
-63 -250 -134 -60 -56 -67 -59 -103 -55 l-38 5 23 -21 c13 -13 21 -29 18 -39
-22 -85 215 -175 448 -172 116 2 179 17 273 65 133 68 172 122 171 242 0 111
-9 141 -48 168 -34 23 -35 25 -32 84 l2 60 -158 118 c-87 65 -163 124 -169
131 -6 8 -14 32 -18 54 -3 21 -15 55 -27 74 -11 19 -22 52 -25 73 -2 21 -6 48
-9 61 -3 12 -2 22 1 22 11 0 63 -43 134 -109 91 -85 118 -98 168 -82 22 8 61
33 87 57 26 24 47 44 48 44 1 0 17 -4 35 -9 29 -9 58 -5 103 13 12 5 22 -6 42
-47 14 -29 40 -68 58 -86 31 -31 36 -33 83 -27 53 6 82 30 88 71 2 16 14 21
57 28 30 4 63 15 72 23 21 19 59 126 59 166 0 103 -149 247 -360 350 -25 12
-49 23 -55 24 -40 6 -54 17 -45 34 8 15 -2 29 -58 81 -69 66 -144 125 -244
193 -51 35 -57 42 -51 65 7 33 22 51 39 51 34 0 116 23 129 37 14 13 13 19 -8
57 -27 48 -26 53 37 156 44 72 52 80 81 80 35 1 43 13 60 95 18 84 26 300 14
370 -21 119 -32 165 -59 244 -10 31 -30 83 -45 115 -14 32 -24 64 -21 71 2 7
18 15 35 18 17 4 31 11 31 16 0 15 -106 107 -170 148 -38 25 -63 49 -71 68
-23 62 -27 71 -50 120 -33 69 -78 135 -93 135 -6 0 -20 -20 -31 -45 -10 -25
-22 -48 -27 -51 -5 -3 -33 8 -62 24 -99 56 -242 109 -346 127 -133 24 -315 14
-383 -21 -28 -15 -29 -20 -10 -71 3 -7 -7 -15 -24 -19 -54 -13 -158 -57 -201
-86 -24 -15 -46 -28 -50 -28 -4 0 -24 -16 -44 -35 -28 -25 -38 -43 -39 -67 -1
-18 -3 -40 -4 -48 -1 -8 -3 -27 -4 -42 -1 -32 -10 -40 -120 -123 -44 -33 -80
-63 -81 -67 0 -4 12 -18 26 -31 24 -23 25 -26 11 -53 -89 -175 -107 -447 -42
-649 14 -44 30 -88 35 -97 22 -39 13 -56 -33 -59 -64 -6 -70 -3 -98 44 -24 39
-25 48 -17 107 10 83 7 226 -7 265 -21 61 -55 106 -92 122 -46 19 -112 12
-131 -14 -12 -16 -13 -14 -7 19 4 20 3 44 -3 54 -5 9 -6 32 -1 53 4 20 10 63
12 96 5 61 9 77 32 130 8 17 22 56 31 88 9 31 25 67 35 79 11 11 19 33 20 47
1 31 1 34 29 130 11 41 17 77 13 80 -17 13 -34 53 -28 70 3 10 -1 24 -10 31
-8 7 -15 18 -15 26 0 7 -19 18 -42 24 -24 6 -68 17 -98 25 -30 8 -89 19 -130
26 -41 6 -128 26 -193 45 -66 19 -149 35 -190 38 -39 2 -79 6 -87 8 -29 9 -66
17 -160 34 -52 9 -129 29 -170 44 -41 15 -87 28 -101 28 -46 2 -203 42 -219
56 -20 18 -75 35 -180 57 -114 24 -232 58 -250 74 -8 7 -49 20 -90 30 -113 27
-189 52 -229 77 -29 18 -201 68 -398 115 -13 3 -23 10 -23 17 -1 31 -33 50
-112 67 -95 21 -116 22 -140 8z m146 -128 c3 -5 26 -12 51 -15 25 -4 52 -14
60 -22 8 -9 23 -13 34 -9 12 3 21 0 25 -10 3 -8 16 -15 29 -15 13 0 27 -4 33
-9 9 -8 65 -23 212 -57 48 -11 76 -22 82 -35 6 -10 26 -21 45 -25 18 -3 49
-17 67 -30 30 -23 103 -50 121 -46 13 4 77 -27 77 -36 0 -15 43 -29 190 -63
74 -17 140 -37 146 -45 6 -7 23 -18 38 -23 38 -15 153 -41 179 -41 12 0 58
-11 102 -24 44 -13 127 -36 185 -50 157 -39 539 -130 673 -161 113 -27 149
-45 88 -45 -17 0 -33 -5 -36 -11 -4 -6 -19 -7 -35 -4 -16 3 -31 2 -35 -4 -4
-7 -22 -9 -46 -5 -22 4 -44 2 -52 -4 -8 -7 -26 -8 -49 -3 -20 5 -40 5 -45 1
-4 -4 -66 -13 -138 -19 -71 -7 -142 -15 -158 -18 -23 -5 -29 -2 -34 16 -3 11
-6 21 -7 21 -33 0 -126 27 -141 40 -33 31 -76 42 -131 35 -42 -5 -95 4 -275
45 -123 29 -264 63 -314 76 -49 13 -236 58 -415 100 -179 42 -343 82 -365 89
-22 8 -159 41 -305 75 -177 42 -272 68 -285 81 -21 19 -135 59 -170 59 -11 0
-128 27 -259 60 -132 33 -241 60 -243 60 -2 0 -3 3 -3 8 0 4 52 7 116 7 64 0
118 3 120 6 2 4 24 2 49 -3 25 -5 54 -7 63 -3 9 4 64 9 122 12 117 6 121 6
240 -2 47 -3 92 -4 100 -4 23 2 111 0 150 -3 31 -3 37 1 50 29 13 28 20 33 52
33 20 0 39 -4 42 -9z m-1533 -156 c33 -9 102 -18 152 -20 60 -3 140 -17 232
-41 77 -19 231 -58 343 -85 121 -29 214 -58 230 -69 23 -17 244 -76 542 -145
116 -26 581 -137 695 -165 212 -52 358 -80 440 -85 44 -2 125 -13 180 -25 55
-11 130 -23 168 -25 127 -9 200 -25 230 -54 34 -31 51 -69 39 -85 -5 -6 -17
-33 -26 -60 -9 -27 -22 -56 -30 -65 -22 -24 -56 -145 -97 -346 -11 -55 -24
-118 -29 -140 -4 -22 -6 -44 -3 -49 4 -5 8 -39 10 -75 3 -61 -7 -128 -27 -176
-15 -36 -22 -125 -10 -125 6 0 10 -10 9 -22 -1 -13 1 -31 6 -40 4 -10 5 -25 1
-33 -3 -8 2 -22 11 -30 13 -14 14 -24 5 -70 -6 -30 -9 -76 -6 -102 4 -31 -2
-77 -14 -128 -11 -45 -16 -85 -11 -91 5 -5 1 -34 -7 -65 -9 -29 -18 -65 -21
-79 -52 -265 -89 -411 -113 -455 -36 -64 -70 -202 -70 -281 0 -40 -5 -66 -13
-71 -6 -4 -19 -21 -27 -38 -8 -16 -20 -34 -26 -40 -7 -5 -22 -45 -34 -88 -24
-82 -40 -106 -40 -62 0 15 -7 52 -16 82 -10 33 -14 74 -11 100 2 24 1 46 -4
49 -5 2 -7 19 -4 37 2 18 -3 85 -11 151 -15 110 -15 122 1 173 11 33 19 96 20
156 3 98 15 150 42 172 6 6 21 39 33 75 12 35 26 73 32 84 6 10 12 31 13 45 2
14 11 49 20 76 9 28 21 68 27 90 5 22 14 48 19 57 5 10 9 22 9 27 0 6 11 26
24 46 14 20 36 82 51 146 24 102 25 117 14 178 -13 76 -13 80 31 281 17 80 33
172 34 205 2 33 18 126 36 207 31 136 35 147 58 153 33 8 75 42 78 62 7 43
-43 87 -101 89 -22 0 -71 9 -110 19 -533 133 -831 199 -950 210 -77 7 -214 39
-280 66 -11 4 -47 13 -80 20 -33 6 -94 24 -135 39 -41 15 -115 37 -165 49 -49
13 -110 33 -135 46 -58 31 -151 54 -215 53 -27 0 -70 7 -95 17 -25 9 -63 20
-85 22 -22 3 -43 10 -46 15 -3 5 -55 22 -115 38 -481 123 -508 129 -535 112
-11 -7 -24 -10 -29 -7 -6 3 -15 -5 -21 -19 -6 -13 -19 -26 -28 -29 -12 -3 -22
-27 -35 -83 -9 -43 -23 -85 -30 -94 -24 -28 -49 -124 -58 -220 -10 -121 -8
-232 6 -263 5 -11 -3 -68 -22 -150 -17 -73 -28 -146 -25 -162 2 -17 -3 -60
-12 -95 -10 -36 -23 -94 -31 -129 -7 -35 -20 -71 -27 -80 -20 -22 -48 -122
-106 -369 -28 -116 -61 -235 -75 -264 -14 -29 -40 -107 -57 -173 -27 -103 -32
-141 -35 -269 -2 -85 -8 -154 -14 -160 -13 -13 -13 -66 0 -66 14 0 12 -34 -4
-99 -24 -95 -33 -161 -24 -167 5 -4 6 -24 3 -45 -13 -78 19 -99 185 -119 133
-16 135 -16 235 -39 98 -23 166 -43 235 -72 40 -16 367 -103 430 -114 121 -21
213 -49 249 -76 15 -11 83 -33 151 -49 69 -16 154 -36 190 -45 35 -9 73 -24
85 -34 19 -18 168 -61 260 -76 37 -6 129 -27 595 -136 96 -22 213 -52 259 -66
50 -14 96 -22 113 -19 24 5 28 2 28 -17 0 -36 -30 -47 -116 -42 -95 5 -93 5
-324 62 -102 25 -207 56 -235 69 -27 13 -113 39 -190 58 -149 37 -215 60 -215
75 0 13 -107 34 -139 27 -24 -5 -59 2 -277 55 -53 13 -96 17 -122 13 -48 -8
-183 20 -227 46 -58 35 -247 84 -340 89 -22 1 -59 11 -82 22 -39 19 -101 31
-226 43 -84 8 -158 29 -167 46 -6 12 -46 26 -122 45 -62 15 -120 29 -128 33
-8 3 -28 7 -45 9 -16 2 -37 12 -45 22 -8 11 -29 22 -47 26 -19 4 -35 14 -38
25 -3 11 -15 22 -26 25 -10 4 -19 12 -19 20 0 7 -9 15 -21 17 -21 3 -39 29
-57 86 -13 40 9 135 38 167 10 11 23 39 29 62 6 23 22 50 35 60 24 19 51 114
76 268 16 95 16 298 1 303 -6 2 -11 18 -11 36 0 18 -4 36 -9 42 -6 5 -7 24 -1
50 9 37 7 104 -5 264 -3 30 -5 65 -5 78 0 32 49 224 62 239 6 7 8 19 5 28 -4
8 -2 17 3 20 6 4 10 19 10 34 0 15 3 31 7 35 5 4 8 11 8 14 0 4 10 28 23 53
18 37 70 221 99 349 3 14 9 30 14 35 4 6 8 20 8 30 0 11 5 43 11 70 5 28 15
75 21 105 6 30 22 72 35 92 13 20 28 58 34 84 6 26 20 73 30 105 22 64 26 115
10 121 -7 2 -3 32 9 83 11 44 23 105 27 135 7 60 20 84 41 76 7 -3 41 -13 74
-21z m266 -252 c40 -7 103 -27 140 -44 37 -17 81 -29 98 -28 34 3 75 -8 75
-21 0 -4 10 -10 23 -13 12 -3 54 -14 92 -25 39 -11 104 -27 145 -37 41 -9 85
-26 97 -37 23 -21 192 -67 250 -68 17 0 38 -3 47 -6 22 -8 20 -34 -2 -34 -11
0 -24 -11 -30 -25 -9 -20 -8 -26 5 -33 18 -11 19 -3 -30 -192 -36 -135 -43
-174 -53 -305 -3 -38 -22 -144 -43 -235 -30 -129 -35 -168 -26 -178 9 -10 9
-25 0 -67 -7 -29 -10 -64 -8 -78 5 -24 -26 -209 -47 -282 -5 -16 -11 -70 -13
-120 -3 -49 -6 -94 -8 -100 -3 -11 8 -58 22 -96 13 -34 -7 -116 -32 -130 -11
-5 -19 -15 -19 -22 0 -7 -13 -38 -29 -69 -16 -32 -34 -73 -41 -93 -6 -19 -18
-35 -25 -35 -15 0 -36 -59 -61 -170 -11 -50 -25 -83 -40 -99 -16 -15 -22 -31
-19 -43 7 -21 3 -22 -84 -8 -44 8 -67 8 -76 0 -9 -7 -21 -7 -39 0 -34 13 -79
13 -92 0 -5 -5 -24 -6 -49 0 -26 6 -44 5 -52 -2 -7 -6 -27 -8 -44 -4 -18 3
-38 1 -45 -5 -8 -7 -27 -9 -46 -4 -46 10 -208 13 -213 4 -3 -4 -23 -5 -45 -2
-22 3 -46 1 -53 -5 -8 -7 -26 -8 -50 -2 -21 4 -39 4 -43 -1 -9 -15 -46 -10
-60 9 -8 11 -11 32 -7 60 3 23 2 42 -3 42 -16 0 -7 181 14 280 11 53 18 107
15 122 -5 25 7 81 67 333 73 302 92 395 95 465 2 41 5 86 9 100 18 82 26 106
40 115 34 26 67 208 67 375 -1 19 -1 51 -1 70 0 19 7 59 16 88 11 40 12 57 4
67 -7 8 -10 27 -9 42 2 15 -1 35 -6 43 -26 41 -22 126 14 276 17 72 31 144 31
158 0 51 53 103 90 89 8 -3 48 -12 87 -20z m1175 -308 c73 -14 178 -36 233
-49 55 -13 107 -20 115 -16 18 9 112 -4 173 -24 23 -8 60 -18 82 -22 22 -3
114 -24 205 -45 91 -21 183 -39 205 -39 22 0 72 -7 110 -15 39 -8 126 -26 195
-40 69 -14 147 -32 173 -41 41 -13 47 -19 41 -36 -3 -11 -1 -30 6 -42 9 -18 6
-47 -18 -154 -16 -73 -25 -135 -20 -138 4 -3 6 -15 4 -27 -3 -12 -16 -74 -29
-137 -14 -63 -33 -151 -42 -195 -19 -89 -27 -222 -14 -246 11 -22 -16 -144
-40 -183 -11 -17 -27 -46 -35 -63 -8 -18 -19 -33 -25 -33 -13 0 -59 -144 -66
-212 -4 -31 -17 -71 -29 -88 -37 -57 -65 -104 -76 -129 -20 -44 -51 -206 -46
-233 3 -15 -6 -78 -20 -139 -23 -102 -24 -117 -13 -194 9 -62 9 -95 1 -128 -6
-24 -9 -66 -5 -94 6 -53 -6 -74 -31 -54 -8 7 -51 18 -97 27 -235 43 -288 54
-339 72 -57 21 -250 67 -530 128 -147 32 -199 47 -250 74 -9 4 -36 11 -60 15
-25 4 -49 11 -55 15 -5 4 -32 11 -59 15 -27 3 -56 10 -65 15 -9 4 -36 13 -60
20 -24 6 -54 21 -66 33 -12 12 -31 27 -41 33 -17 10 -17 13 -3 35 9 13 29 69
44 124 15 55 41 120 56 144 16 25 29 52 29 61 0 10 11 34 25 54 14 20 28 48
31 61 3 14 10 25 15 25 4 0 16 16 25 35 14 30 15 44 5 102 -7 38 -12 79 -12
93 -1 14 -5 30 -10 36 -10 12 -1 67 30 191 11 43 23 94 26 113 3 19 10 52 14
72 5 20 5 40 0 45 -5 5 -4 36 1 71 6 34 8 75 5 91 -3 16 8 88 25 159 16 72 30
156 30 189 0 32 7 90 15 128 9 39 22 104 31 145 22 107 82 320 93 334 15 18 1
67 -23 76 -36 15 -2 11 136 -15z m2678 -150 c0 -11 -7 -45 -16 -75 -8 -30 -26
-99 -39 -154 -16 -67 -30 -102 -43 -112 -13 -9 -26 -39 -36 -86 -25 -107 -25
-107 -14 -114 11 -7 5 -70 -12 -136 -9 -31 -15 -38 -33 -37 -64 6 -113 -24
-143 -87 -23 -48 -2 -138 41 -174 8 -7 15 -19 15 -26 0 -16 -31 -19 -46 -4 -6
6 -34 13 -62 15 -85 9 -134 -30 -148 -114 -9 -55 19 -96 105 -161 38 -28 72
-58 75 -67 4 -9 -9 -55 -28 -102 -32 -80 -34 -90 -24 -136 6 -27 16 -57 24
-66 8 -8 14 -30 14 -47 0 -17 5 -34 11 -37 6 -4 7 -19 4 -36 -4 -17 -2 -29 4
-29 13 0 3 -92 -16 -145 -8 -22 -19 -58 -23 -80 -5 -22 -23 -96 -39 -165 -17
-69 -36 -150 -42 -180 -6 -30 -19 -63 -29 -72 -10 -9 -24 -34 -31 -55 -6 -21
-20 -44 -30 -51 -10 -6 -23 -37 -30 -67 -7 -31 -23 -67 -36 -81 -13 -14 -23
-34 -23 -44 0 -11 -9 -24 -19 -29 -10 -6 -24 -24 -29 -41 -6 -16 -17 -30 -25
-30 -8 0 -18 -11 -21 -25 -4 -14 -13 -25 -21 -25 -8 0 -15 -5 -15 -10 0 -7
-13 -8 -34 -4 -24 4 -42 1 -57 -9 -12 -9 -28 -13 -35 -10 -8 3 -20 1 -27 -5
-6 -6 -33 -13 -59 -17 -27 -4 -48 -11 -48 -16 0 -5 -6 -9 -14 -9 -8 0 -16 -7
-20 -15 -3 -8 -12 -15 -21 -15 -8 0 -15 -4 -15 -8 0 -5 -16 -14 -35 -22 -19
-8 -35 -17 -35 -22 0 -4 -9 -8 -20 -8 -12 0 -20 -7 -20 -16 0 -10 -6 -14 -15
-11 -8 4 -17 2 -20 -3 -17 -27 -22 -4 -9 43 7 28 14 62 14 75 0 12 11 32 25
44 14 12 28 37 31 57 4 20 17 47 29 61 33 36 97 308 84 356 -12 42 11 137 40
168 24 26 71 228 69 301 0 28 7 79 16 115 9 36 19 85 22 109 3 25 13 65 21 90
18 52 27 229 12 247 -6 8 -6 29 2 59 9 37 9 52 0 67 -8 13 -10 35 -6 59 5 27
3 39 -5 39 -6 0 -10 10 -9 23 2 12 0 28 -5 35 -15 24 -15 125 0 202 17 91 19
216 3 226 -16 10 -5 132 26 274 33 155 42 183 65 213 11 14 28 54 36 89 16 66
36 86 89 88 51 3 111 8 120 11 6 1 35 3 65 4 30 1 109 8 175 14 66 7 149 15
185 17 35 3 66 6 67 8 2 2 24 3 48 2 39 0 45 -3 45 -21z m968 -132 c109 -167
151 -223 241 -318 82 -87 128 -112 157 -87 34 31 231 58 265 36 36 -22 -30
-265 -87 -322 -8 -7 -14 -17 -14 -20 0 -4 -29 -39 -65 -77 -35 -39 -64 -73
-65 -76 0 -10 84 -50 105 -49 120 2 127 1 151 -21 28 -26 30 -49 8 -112 -30
-89 -107 -108 -208 -52 -25 14 -47 25 -50 25 -2 0 0 -15 5 -32 7 -27 5 -38
-11 -60 -11 -15 -20 -34 -20 -43 0 -17 37 -35 90 -41 38 -5 60 -26 60 -58 0
-19 -7 -21 -73 -23 -92 -2 -156 -18 -307 -73 -69 -26 -101 -32 -170 -33 -47 0
-96 2 -110 5 -129 31 -174 50 -250 106 -181 134 -321 439 -321 703 0 195 55
357 164 484 44 50 70 63 66 32 -4 -30 3 -45 25 -55 60 -27 141 99 94 147 -11
10 -9 15 6 27 18 13 25 8 88 -56 86 -89 101 -90 116 -7 12 65 37 127 51 127 5
0 31 -35 59 -77z m-837 -593 c15 -18 31 -54 37 -85 18 -90 1 -267 -33 -348
-20 -49 -144 -186 -200 -223 -21 -14 -26 -14 -48 1 -35 23 -40 68 -11 111 l24
34 -20 33 c-36 58 -19 166 32 201 32 23 17 28 -22 8 -19 -9 -40 -28 -47 -42
-19 -38 -16 -115 7 -162 19 -40 19 -41 0 -66 -26 -33 -25 -57 5 -114 l25 -47
-39 -21 c-22 -11 -48 -20 -58 -20 -35 1 -121 136 -123 191 0 10 -16 21 -42 28
-51 15 -94 53 -114 100 -19 45 -18 64 7 95 18 23 27 26 82 26 34 -1 79 -7 99
-14 33 -12 39 -11 53 4 19 21 19 49 0 56 -23 9 -56 74 -62 124 -5 40 -2 50 22
78 21 25 35 32 62 32 32 0 45 -9 112 -80 92 -97 123 -108 84 -29 -18 35 -19
100 -2 131 15 27 47 38 99 34 35 -3 50 -11 71 -36z m64 -480 c25 -37 27 -45
21 -102 l-6 -63 25 40 c14 22 25 50 25 63 0 14 6 22 18 23 9 1 26 3 37 4 82
10 83 10 105 -17 20 -26 20 -28 4 -60 -34 -64 -28 -265 9 -332 33 -59 99 -124
153 -151 106 -52 276 -46 380 12 54 31 151 124 164 158 10 27 71 69 139 96 81
31 86 32 111 36 54 7 156 8 165 2 6 -3 26 -9 46 -13 43 -8 190 -80 271 -133
86 -57 190 -130 220 -155 14 -13 40 -34 56 -47 l30 -25 -32 -40 c-60 -75 -148
-248 -181 -356 -20 -65 -25 -91 -25 -117 0 -31 14 -45 22 -22 5 14 58 0 58
-15 0 -18 -39 -52 -75 -67 -37 -14 -71 -13 -94 3 -20 15 -126 105 -152 129
-41 40 -265 209 -276 209 -24 0 -13 -18 30 -51 57 -45 97 -85 97 -98 0 -5 8
-14 17 -19 15 -9 23 -32 24 -74 0 -10 4 -20 8 -23 17 -10 -1 -55 -25 -61 -13
-3 -24 -10 -24 -14 0 -5 -12 -15 -27 -23 -16 -7 -64 -33 -107 -56 -202 -109
-461 -154 -672 -117 -153 27 -191 40 -355 120 -126 62 -263 160 -371 265 -71
68 -76 80 -54 122 7 14 16 38 20 54 9 35 49 122 122 267 30 58 54 109 54 112
0 14 -18 3 -60 -35 -25 -22 -56 -46 -70 -53 -41 -21 -104 -19 -153 4 -63 30
-157 127 -206 211 l-42 72 22 68 c12 38 25 69 28 69 4 0 14 -13 24 -29 15 -25
15 -30 2 -41 -19 -16 -19 -34 0 -50 13 -11 29 -7 93 25 42 21 100 56 127 77
68 53 198 181 227 224 12 18 24 34 24 34 1 0 14 -18 29 -40z m384 -253 c35
-39 136 -92 234 -122 39 -11 72 -26 74 -32 5 -15 -43 -44 -101 -59 -45 -12
-58 -12 -105 3 -62 19 -117 66 -126 109 -4 16 -9 36 -12 44 -9 22 -7 90 2 90
3 0 19 -15 34 -33z m1743 -525 c117 -60 246 -170 286 -244 24 -43 23 -75 -4
-113 -17 -22 -29 -28 -63 -29 -45 -1 -70 18 -128 99 -12 16 -25 27 -28 23 -4
-4 4 -21 19 -38 30 -37 32 -50 10 -96 -20 -41 -65 -68 -105 -62 -23 4 -26 2
-18 -9 7 -7 23 -13 36 -13 26 0 83 29 83 42 0 19 19 6 28 -20 15 -44 4 -91
-27 -106 -70 -35 -133 8 -155 105 -8 35 -55 56 -86 39 -12 -6 -42 -12 -67 -13
-39 -2 -48 2 -71 31 -22 26 -30 30 -40 20 -9 -9 -12 -9 -13 3 -2 27 3 64 11
74 4 6 12 32 19 58 27 111 127 294 164 299 28 4 77 -12 149 -50z m-5792 -348
c19 -8 60 -17 91 -21 52 -5 57 -4 64 16 7 24 20 27 28 7 6 -15 23 -20 261 -76
97 -23 186 -51 210 -65 43 -25 256 -78 279 -69 13 5 148 -22 232 -46 22 -6 50
-11 62 -11 12 0 25 -4 28 -9 3 -6 16 -10 27 -10 12 0 31 -8 42 -18 12 -10 48
-25 80 -32 32 -8 66 -21 75 -30 17 -17 57 -32 139 -50 28 -7 52 -15 52 -20 0
-4 12 -22 28 -39 20 -23 38 -32 65 -35 21 -2 40 -6 43 -8 2 -3 -4 -36 -14 -74
-19 -68 -20 -69 -51 -66 -29 2 -119 24 -401 97 -58 15 -114 36 -126 46 -21 20
-136 59 -185 63 -14 2 -42 12 -61 24 -47 29 -224 73 -268 66 -36 -6 -62 2
-116 35 -27 17 -225 68 -452 118 -35 7 -89 26 -120 42 -57 28 -304 94 -476
126 -49 9 -98 21 -108 26 -23 12 -13 32 11 24 36 -11 428 -1 441 11 7 8 81 -7
120 -22z m5515 -709 c16 -13 20 -31 23 -108 3 -72 1 -95 -10 -105 -12 -9 -21
-1 -52 44 l-37 56 20 37 c12 25 16 43 10 52 -23 37 7 53 46 24z m-2349 -37 c5
-3 23 -9 41 -12 86 -19 235 -183 257 -283 l7 -31 -67 -12 c-81 -15 -269 -8
-362 15 -70 17 -145 52 -179 84 -56 53 -38 132 44 201 38 32 223 59 259 38z
m2087 -43 c32 -8 75 -24 96 -35 44 -22 129 -103 141 -134 25 -67 -105 -145
-278 -167 -176 -22 -415 23 -456 86 -23 34 -20 55 13 106 75 119 311 189 484
144z"/>
<path d="M7584 5849 c-37 -24 -53 -56 -54 -105 0 -30 6 -46 23 -62 33 -31 64
-27 103 12 33 33 39 51 34 106 -4 54 -60 80 -106 49z"/>
<path d="M7170 5424 c0 -17 27 -54 81 -110 17 -17 20 -37 23 -122 3 -111 14
-139 67 -171 37 -23 127 -26 173 -7 52 22 115 84 166 164 26 41 58 79 71 86
29 14 34 35 15 61 -12 16 -19 18 -43 9 -20 -7 -27 -16 -26 -32 2 -13 -6 -27
-20 -36 -31 -20 -113 -34 -172 -30 -81 5 -84 6 -202 69 -12 6 -47 37 -77 68
-31 31 -56 54 -56 51z m417 -308 c12 -12 -11 -39 -61 -70 -54 -34 -119 -39
-156 -13 l-22 16 26 26 c41 40 84 56 148 52 32 -2 61 -7 65 -11z"/>
</g>
</svg>
