<?xml version="1.0" standalone="no"?>
<!DOCTYPE svg PUBLIC "-//W3C//DTD SVG 20010904//EN"
 "http://www.w3.org/TR/2001/REC-SVG-20010904/DTD/svg10.dtd">
<svg version="1.0" xmlns="http://www.w3.org/2000/svg"
 width="1277.000000pt" height="747.000000pt" viewBox="0 0 1277.000000 747.000000"
 preserveAspectRatio="xMidYMid meet">
<metadata>
Created by potrace 1.16, written by Peter Selinger 2001-2019
</metadata>
<g transform="translate(0.000000,747.000000) scale(0.100000,-0.100000)"
fill="#000000" stroke="none">
<path d="M3705 6293 c-79 -10 -105 -27 -105 -71 0 -37 -45 -59 -137 -67 -47
-5 -73 -12 -77 -21 -3 -7 -23 -17 -45 -20 -23 -4 -46 -13 -52 -20 -6 -8 -17
-14 -24 -14 -7 0 -32 -9 -56 -20 -24 -11 -58 -20 -76 -20 -20 0 -36 -7 -42
-17 -6 -11 -28 -19 -68 -24 -65 -8 -172 -36 -189 -50 -6 -5 -37 -11 -70 -15
-32 -4 -66 -13 -74 -20 -9 -7 -43 -16 -75 -20 -33 -4 -65 -10 -71 -15 -6 -5
-36 -11 -68 -15 -32 -4 -64 -14 -73 -22 -8 -9 -40 -18 -72 -20 -32 -3 -66 -12
-78 -22 -12 -10 -49 -20 -83 -24 -33 -4 -60 -11 -60 -15 0 -4 -39 -11 -87 -15
-60 -4 -92 -11 -99 -21 -6 -8 -14 -15 -17 -15 -11 0 -57 -47 -57 -58 0 -6 -8
-13 -18 -16 -28 -9 -52 -58 -40 -80 6 -11 15 -57 19 -104 5 -47 13 -90 18 -96
10 -13 16 -171 16 -434 0 -158 -3 -194 -15 -202 -12 -7 -12 -12 0 -35 12 -23
12 -28 0 -35 -13 -8 -13 -13 -1 -32 10 -16 13 -61 13 -171 0 -129 -2 -150 -17
-161 -15 -10 -15 -16 -6 -34 7 -13 9 -28 5 -34 -5 -7 -9 -44 -9 -83 -7 -291
-18 -494 -28 -520 -16 -41 -16 -284 0 -316 7 -13 17 -66 22 -118 5 -59 14 -96
22 -102 10 -6 15 -45 19 -142 3 -77 10 -140 16 -148 7 -8 15 -30 19 -49 4 -19
13 -38 19 -42 16 -11 15 -400 -1 -420 -7 -8 -16 -54 -19 -101 -4 -48 -10 -87
-15 -87 -4 0 -13 -24 -19 -54 -6 -30 -18 -57 -26 -60 -11 -4 -14 -28 -14 -109
0 -90 3 -107 20 -127 11 -13 20 -33 20 -46 0 -12 6 -29 14 -37 8 -8 18 -31 21
-51 4 -20 11 -36 15 -36 5 0 12 -15 16 -32 10 -47 28 -71 73 -96 21 -12 41
-29 45 -37 3 -8 11 -15 17 -15 7 0 18 -8 25 -17 10 -14 27 -18 81 -18 65 0 71
2 101 33 18 18 32 38 32 44 0 11 35 10 350 -9 52 -3 103 -9 112 -14 20 -11
305 -12 311 -1 9 14 168 14 184 0 13 -10 199 -13 952 -14 515 0 1026 -4 1136
-8 120 -4 328 -3 520 4 176 7 359 11 408 10 55 -1 87 2 87 9 0 6 18 15 40 21
l40 11 0 65 c0 48 4 66 15 70 8 4 15 13 15 21 0 8 9 17 19 20 11 3 22 11 25
19 3 8 12 14 20 14 7 0 16 7 20 15 3 8 12 15 19 15 13 0 40 20 88 65 9 8 26
15 38 15 12 0 24 6 27 14 3 8 20 17 39 20 18 4 36 13 39 21 3 8 15 15 26 15
11 0 29 9 40 20 11 11 29 20 39 20 11 0 26 7 35 15 8 8 29 18 45 21 25 5 31 3
31 -10 0 -9 8 -20 17 -23 9 -4 25 -15 35 -25 29 -29 128 -23 128 8 0 8 8 14
19 14 13 0 21 10 25 34 4 19 12 36 19 39 8 2 13 46 15 148 3 98 8 149 17 159
7 8 15 30 19 49 3 19 13 39 22 46 13 9 17 38 21 141 3 79 10 141 19 161 8 17
14 54 14 83 0 29 7 67 16 85 18 38 15 129 -6 205 -8 29 -12 111 -12 235 1 105
-3 217 -8 250 -5 33 -14 94 -21 135 -6 41 -18 83 -27 93 -14 16 -16 91 -18
683 -2 580 -5 668 -18 696 -9 17 -16 43 -16 57 0 14 -7 64 -15 111 -13 76 -13
95 0 170 8 47 15 106 15 132 0 26 5 59 11 75 7 15 13 99 15 186 2 128 0 157
-11 157 -7 0 -17 9 -20 20 -3 11 -10 20 -15 20 -5 0 -12 15 -15 34 -5 22 -14
36 -26 39 -10 3 -19 12 -19 21 0 13 -15 16 -87 18 -49 1 -106 2 -128 1 -22 -1
-165 -2 -319 -2 -170 -1 -286 -5 -297 -12 -11 -5 -105 -12 -210 -14 -105 -3
-194 -7 -198 -9 -4 -3 -34 -1 -67 5 -78 12 -124 13 -280 4 -107 -6 -137 -4
-160 8 -23 12 -83 16 -285 18 -170 3 -261 8 -270 15 -8 7 -81 14 -184 17 -108
4 -188 12 -220 21 -37 11 -119 17 -294 21 l-243 6 -33 34 c-32 34 -34 35 -106
34 -41 -1 -87 -4 -104 -6z m274 -160 c7 -13 11 -13 29 -2 19 12 23 11 36 -6
13 -17 18 -18 36 -7 14 8 26 10 33 4 7 -5 91 -9 188 -9 147 0 181 -3 200 -17
13 -9 42 -16 65 -16 23 0 61 -9 85 -20 34 -15 66 -20 142 -20 83 0 100 -3 117
-20 19 -19 33 -20 215 -20 165 0 200 -3 221 -17 22 -14 48 -15 204 -10 99 4
181 3 184 -1 3 -5 280 -9 617 -10 341 -1 617 -6 622 -11 5 -5 -6 -14 -26 -20
-19 -7 -38 -19 -41 -27 -4 -12 -14 -14 -37 -9 -22 5 -34 3 -43 -10 -6 -9 -32
-19 -56 -22 -26 -3 -53 -14 -64 -25 -14 -15 -27 -19 -52 -15 -23 4 -39 0 -54
-13 -12 -10 -40 -22 -63 -25 -23 -4 -51 -14 -62 -21 -11 -8 -29 -14 -40 -14
-11 0 -38 -9 -60 -20 -22 -11 -52 -20 -67 -20 -18 0 -28 -5 -28 -15 0 -21 -56
-20 -68 2 -8 14 -26 17 -93 18 -54 1 -97 8 -121 18 -49 22 -117 22 -148 0 -24
-17 -98 -18 -1235 -18 -1171 1 -1211 1 -1245 20 -33 18 -57 19 -387 16 -349
-2 -489 4 -448 20 11 4 37 8 57 8 23 1 44 8 55 20 12 12 38 20 82 24 44 4 67
10 73 21 7 12 25 16 67 16 37 0 63 5 70 14 6 7 34 16 62 19 28 4 62 13 75 22
13 8 36 15 52 15 15 0 45 9 66 20 26 13 57 19 92 18 34 -1 61 4 78 15 16 11
46 17 79 17 41 0 58 5 72 20 15 17 31 20 105 20 87 0 88 0 95 28 5 15 7 40 6
55 l-3 28 126 -2 c100 -1 128 -5 135 -16z m3175 -270 c3 -10 4 -109 3 -220 -3
-172 -6 -205 -20 -221 -14 -15 -17 -40 -17 -131 0 -96 3 -116 19 -137 17 -22
19 -39 17 -147 -2 -91 -7 -130 -19 -152 -14 -26 -17 -66 -17 -276 0 -196 3
-249 14 -258 15 -13 25 -113 32 -326 3 -77 9 -144 14 -149 6 -6 10 -39 10 -74
0 -55 3 -65 20 -69 15 -4 20 -14 20 -39 0 -18 6 -37 14 -41 13 -8 30 -111 26
-163 0 -14 -3 -160 -6 -325 -3 -239 -7 -306 -19 -331 -8 -18 -15 -49 -15 -71
0 -26 -6 -44 -20 -56 -17 -14 -20 -29 -20 -99 -1 -57 -5 -89 -15 -102 -8 -11
-15 -34 -15 -51 0 -18 -8 -37 -20 -48 -13 -11 -20 -29 -20 -52 0 -24 -6 -37
-20 -45 -12 -6 -20 -21 -20 -36 0 -38 -38 -74 -77 -74 -20 0 -41 -8 -53 -20
-11 -11 -34 -23 -50 -27 -17 -3 -30 -12 -30 -19 0 -9 -11 -14 -30 -14 -17 0
-33 -6 -36 -14 -3 -8 -16 -17 -30 -20 -13 -4 -24 -11 -24 -16 0 -6 -7 -10 -15
-10 -8 0 -15 -6 -15 -14 0 -15 -86 -106 -100 -106 -6 0 -10 -4 -10 -9 0 -12
-47 -61 -59 -61 -6 0 -14 -8 -20 -17 -5 -10 -12 -16 -14 -13 -3 3 -7 51 -8
108 -3 90 -1 105 14 113 13 8 17 24 17 71 0 48 4 66 20 83 19 21 21 35 21 212
0 181 -7 233 -30 248 -7 3 -11 42 -11 91 0 65 5 93 20 121 17 31 20 57 20 150
0 114 -14 213 -31 213 -5 0 -9 108 -9 258 0 202 -3 262 -14 277 -7 11 -15 49
-18 84 -3 45 -9 66 -21 73 -13 7 -17 23 -17 73 0 51 -4 67 -18 77 -12 8 -21
32 -25 63 -4 27 -14 53 -22 58 -8 4 -15 18 -15 30 0 13 -9 30 -20 40 -11 9
-20 27 -20 39 0 13 -6 34 -13 48 -8 15 -16 81 -20 160 -5 97 -11 138 -22 150
-8 9 -15 33 -15 53 0 25 -6 39 -18 46 -34 18 -47 118 -47 372 0 179 3 240 13
252 8 10 13 45 13 101 0 75 2 86 20 91 10 4 19 12 19 20 0 14 21 25 50 25 10
0 31 7 46 15 16 8 39 15 51 15 12 0 28 6 35 14 8 7 34 17 59 21 24 4 54 13 66
21 12 8 38 14 57 14 19 0 39 6 43 13 4 7 35 18 67 25 33 6 62 16 65 20 3 5 23
12 44 15 20 3 44 12 51 20 8 8 37 17 64 21 28 3 55 13 62 21 7 8 27 15 46 15
18 0 36 5 39 10 10 15 23 12 29 -7z m-1084 -273 c6 -11 19 -20 30 -20 28 0 54
-59 40 -94 -5 -15 -10 -47 -10 -70 0 -24 -7 -61 -17 -82 -23 -55 -22 -609 2
-656 8 -17 15 -42 15 -55 0 -14 9 -37 20 -53 18 -25 19 -43 18 -185 -1 -136 1
-160 15 -170 10 -7 17 -22 17 -34 0 -12 9 -29 20 -38 11 -10 20 -30 20 -45 0
-17 5 -28 14 -28 20 0 26 -23 26 -102 0 -55 4 -75 20 -95 17 -22 20 -41 20
-142 0 -74 4 -121 11 -128 8 -8 13 -119 16 -363 4 -304 2 -358 -12 -400 -13
-38 -15 -77 -11 -192 2 -78 7 -163 11 -187 8 -47 -4 -102 -36 -163 -14 -28
-19 -58 -19 -125 0 -99 -12 -135 -29 -90 -6 16 -11 34 -11 41 0 7 -7 21 -15
32 -8 10 -15 26 -15 34 0 9 -9 23 -20 33 -14 12 -20 29 -20 59 0 26 -8 55 -20
73 -12 18 -20 47 -20 72 0 23 -4 44 -9 48 -5 3 -13 20 -16 38 -4 17 -16 48
-25 67 -47 90 -49 104 -53 245 -2 111 -7 147 -21 174 -14 26 -17 51 -14 109 2
48 8 77 16 80 7 2 12 20 12 40 0 20 5 64 12 97 6 33 12 89 14 125 12 312 16
355 32 384 13 24 18 65 20 188 4 148 2 159 -17 184 -12 15 -21 34 -21 43 0 9
-7 26 -15 39 -13 17 -17 65 -20 239 -6 242 -11 317 -25 342 -5 10 -10 106 -11
214 -1 196 -1 197 22 217 13 10 30 19 37 20 6 0 12 7 12 15 0 9 7 18 15 21 17
7 20 49 5 67 -6 7 -17 21 -24 32 -11 14 -25 19 -57 19 -24 -1 -334 -4 -689 -8
-683 -8 -684 -8 -715 -22 -48 -22 -940 18 -1008 45 -43 17 -192 14 -254 -6
-43 -14 -66 -15 -122 -7 -38 5 -83 6 -101 3 -20 -4 -45 -2 -66 7 -27 11 -111
14 -417 14 -371 0 -384 -1 -402 -20 -10 -11 -24 -20 -31 -20 -8 0 -17 -12 -20
-27 -4 -16 -15 -34 -25 -41 -15 -10 -19 -33 -24 -125 -15 -296 -16 -370 -6
-380 6 -6 11 -41 11 -78 0 -37 5 -71 10 -74 5 -3 10 -19 10 -36 0 -16 4 -29 9
-29 5 0 11 -18 15 -40 3 -21 12 -43 20 -47 10 -6 15 -49 18 -190 3 -124 8
-186 16 -196 21 -25 25 -348 5 -394 -12 -30 -16 -106 -20 -407 -3 -282 -8
-382 -19 -415 -20 -63 -20 -429 0 -437 9 -3 16 -29 20 -72 4 -37 12 -94 18
-127 6 -33 10 -84 9 -113 -1 -46 2 -55 18 -59 18 -4 20 -16 24 -117 3 -61 5
-132 6 -159 0 -33 5 -49 16 -53 10 -4 15 -20 15 -51 0 -36 6 -50 30 -75 30
-30 32 -30 108 -25 42 3 118 11 167 17 102 14 504 7 570 -9 23 -6 198 -11 418
-11 340 0 381 -2 410 -17 28 -15 65 -18 278 -19 206 -2 251 -5 278 -18 34 -18
3 -18 1006 -13 297 1 546 6 553 10 16 11 32 0 32 -21 -1 -36 -44 -69 -101 -76
-212 -25 -445 -25 -799 -1 -41 3 -158 10 -259 15 -131 6 -187 13 -192 22 -12
19 -170 18 -193 -1 -13 -11 -66 -14 -240 -15 -197 -1 -225 -3 -240 -19 -15
-14 -37 -17 -150 -17 -91 0 -136 4 -144 12 -14 14 -296 18 -416 6 -38 -4 -93
-2 -123 3 -36 7 -87 7 -161 -1 -59 -7 -151 -14 -205 -17 -86 -5 -100 -3 -118
13 -19 17 -42 19 -227 21 -113 2 -208 7 -211 12 -3 4 -27 11 -52 15 -27 4 -54
15 -64 26 -10 11 -26 20 -35 20 -10 0 -20 7 -24 15 -3 9 -18 15 -34 15 -32 0
-72 29 -72 52 0 9 -9 27 -20 41 -16 20 -20 40 -20 105 0 55 4 83 14 91 8 6 16
42 20 84 6 52 13 78 28 94 20 22 21 29 14 205 -3 101 -11 206 -17 233 -5 28
-15 79 -20 115 -12 73 -42 145 -64 154 -8 3 -15 16 -15 29 0 14 -6 30 -14 36
-8 7 -15 43 -19 91 -4 44 -13 90 -21 102 -7 13 -17 44 -20 70 -4 25 -14 52
-21 58 -8 7 -15 26 -15 42 0 16 -7 42 -15 59 -12 21 -16 64 -17 157 -2 201 4
406 12 417 14 18 19 98 22 300 1 116 6 207 12 217 7 12 7 21 -1 29 -8 8 -9 19
-2 36 5 15 5 31 0 42 -6 10 -6 23 -1 31 5 8 5 21 -1 31 -13 24 -11 173 2 186
20 20 29 89 29 238 1 135 -1 151 -18 165 -17 13 -19 32 -22 155 -1 77 -3 156
-4 175 l-1 35 140 5 c97 4 148 10 165 20 21 13 98 15 515 12 444 -3 491 -5
508 -20 18 -16 91 -17 1021 -16 900 0 1007 2 1056 17 37 11 124 20 263 26 114
5 214 14 220 19 15 13 60 18 169 20 78 2 88 0 98 -18z m-261 -245 c26 -5 31
-11 31 -35 0 -16 5 -32 11 -35 21 -14 27 -55 30 -204 2 -101 7 -155 15 -158 7
-3 13 -96 18 -295 3 -161 11 -297 16 -303 5 -6 12 -38 16 -71 4 -32 14 -67 23
-78 12 -13 17 -43 19 -111 3 -77 0 -100 -17 -138 -12 -25 -21 -60 -21 -76 0
-20 -5 -31 -14 -31 -21 0 -26 -47 -26 -236 0 -101 -4 -175 -10 -179 -5 -3 -14
-25 -20 -48 -6 -23 -16 -53 -23 -66 -8 -16 -12 -74 -11 -170 l2 -146 38 -75
c36 -71 39 -80 37 -160 0 -47 -4 -106 -8 -132 -6 -39 -3 -54 14 -81 16 -26 21
-51 21 -103 1 -38 8 -87 17 -109 8 -22 16 -53 17 -70 1 -26 -2 -30 -24 -28
-14 1 -135 -3 -269 -8 -134 -4 -249 -5 -255 -1 -6 4 -236 8 -511 9 -275 0
-522 4 -550 8 -27 3 -56 6 -62 6 -31 -2 -107 -2 -135 0 -7 0 -22 0 -33 0 -75
-3 -166 6 -177 17 -6 6 -26 12 -43 12 -17 0 -40 7 -52 15 -21 15 -21 15 -2 52
14 28 19 59 19 123 1 114 14 219 33 261 8 19 15 48 14 65 0 16 7 45 16 64 10
18 17 48 17 67 0 21 6 36 16 40 8 3 14 15 12 27 -1 11 1 27 6 34 4 7 5 30 1
51 -5 28 -14 42 -33 52 -15 7 -37 22 -49 32 -21 18 -21 26 -22 280 -1 196 -5
274 -16 310 -8 26 -17 82 -21 125 -4 42 -13 92 -21 111 -9 23 -13 72 -12 150
1 137 -10 268 -24 295 -5 11 -16 159 -24 330 -22 470 -22 446 -6 446 10 0 13
10 11 32 -2 25 -9 34 -28 38 -44 11 218 30 405 30 143 1 184 4 199 15 17 13
80 15 387 15 258 0 376 3 396 12 37 15 606 35 662 23z m-3124 -56 c28 0 68 0
90 2 22 1 58 -3 80 -9 22 -6 123 -13 225 -15 142 -4 195 -9 230 -22 39 -15 68
-16 206 -11 88 3 163 4 167 0 9 -9 -4 -34 -18 -34 -28 0 -35 -67 -7 -72 16 -3
17 -24 17 -268 0 -188 3 -271 12 -286 9 -16 9 -24 1 -32 -9 -9 -7 -16 5 -30
14 -16 18 -54 23 -263 5 -194 9 -246 20 -252 10 -6 14 -28 14 -73 0 -36 6 -77
14 -92 10 -19 16 -89 21 -237 4 -115 12 -218 17 -228 5 -10 12 -50 15 -90 3
-44 13 -84 24 -103 11 -17 19 -37 19 -44 0 -7 8 -19 18 -26 23 -17 22 -147 -2
-173 -10 -10 -16 -36 -16 -62 0 -24 -6 -56 -14 -70 -7 -14 -17 -56 -20 -92 -6
-53 -11 -67 -27 -72 -18 -6 -19 -17 -19 -160 0 -135 -2 -158 -19 -186 -15 -24
-17 -37 -10 -51 17 -31 1 -38 -91 -38 -69 0 -89 -3 -94 -15 -4 -11 -22 -15
-71 -15 -53 0 -68 -4 -82 -20 -13 -14 -30 -20 -60 -20 -31 0 -48 -6 -60 -20
-12 -14 -30 -20 -57 -20 -24 0 -43 -6 -51 -16 -9 -13 -33 -17 -99 -20 -62 -2
-93 -8 -105 -19 -10 -8 -36 -15 -60 -15 -28 0 -44 -5 -47 -15 -4 -8 -16 -15
-29 -15 -44 0 -85 -13 -85 -26 0 -10 -13 -14 -41 -14 -23 0 -56 -9 -78 -22
-37 -21 -38 -21 -64 -2 -22 16 -26 27 -27 67 0 40 -4 50 -20 54 -17 4 -20 14
-20 56 0 30 -6 57 -15 66 -10 13 -15 57 -19 180 -4 125 -9 168 -20 180 -13 14
-16 90 -18 496 -3 435 -5 483 -20 512 -14 25 -18 56 -18 147 0 99 2 116 18
125 25 14 25 259 -1 310 -11 22 -17 57 -17 97 0 45 -6 75 -21 104 -19 37 -21
52 -15 126 6 77 4 85 -14 96 -14 9 -20 24 -20 50 0 23 -6 42 -17 50 -10 7 -28
33 -40 58 -21 41 -23 64 -28 250 -3 113 -8 214 -11 224 -8 24 15 97 36 114 11
10 56 11 190 7 96 -3 198 -6 225 -6z m1507 -3169 c190 -4 292 -10 311 -18 38
-16 328 -17 345 0 17 17 447 18 482 2 14 -6 67 -14 119 -16 74 -3 95 -8 103
-21 8 -14 27 -17 128 -17 110 0 119 -1 125 -20 3 -11 12 -20 20 -20 7 0 16 -7
19 -16 5 -13 19 -15 74 -12 l67 3 0 -85 c1 -47 -1 -91 -4 -99 -6 -20 -663 -8
-695 12 -34 22 -68 27 -189 28 -70 0 -129 6 -153 14 -57 21 -297 20 -314 0
-18 -22 -109 -20 -140 3 -23 15 -60 17 -369 19 -268 2 -354 5 -390 17 -60 19
-367 29 -486 16 -108 -12 -265 -3 -265 15 0 8 26 15 72 19 40 4 75 10 78 15 3
5 32 12 65 16 33 4 71 13 85 20 47 23 125 48 178 56 30 4 62 15 71 23 13 12
39 16 104 16 47 0 89 -5 92 -10 4 -7 12 -7 25 0 10 5 39 10 64 10 35 0 46 4
46 16 0 8 5 24 11 35 10 20 11 20 24 2 12 -16 37 -18 297 -23z"/>
<path d="M9199 6202 c-35 -53 -70 -101 -79 -107 -8 -5 -60 -10 -115 -11 -87
-1 -176 -13 -237 -30 -29 -9 -20 -41 20 -73 l37 -31 -39 -33 c-22 -17 -94 -86
-160 -152 -112 -110 -171 -180 -283 -333 -50 -68 -147 -259 -163 -322 -7 -25
-17 -51 -22 -57 -16 -19 -2 -40 30 -47 l29 -7 -5 -159 c-4 -150 -3 -162 22
-240 14 -45 26 -94 26 -110 0 -16 4 -31 9 -35 6 -3 30 -39 54 -79 50 -81 62
-97 125 -167 39 -43 47 -69 22 -69 -29 0 -300 -152 -300 -168 0 -4 -17 -18
-38 -32 -20 -14 -39 -27 -42 -30 -3 -3 -27 -25 -55 -50 -83 -74 -105 -107
-105 -156 0 -45 40 -139 98 -232 96 -151 126 -198 136 -207 6 -5 28 -32 50
-58 21 -27 49 -54 62 -59 32 -15 30 -30 -6 -66 -38 -38 -39 -78 -4 -137 56
-96 160 -155 273 -155 l58 0 7 -50 c4 -27 4 -60 0 -74 -3 -15 2 -47 14 -79
l20 -53 -26 -12 c-97 -44 -105 -56 -97 -136 4 -44 14 -80 26 -97 10 -15 19
-32 19 -37 0 -6 5 -12 12 -14 9 -3 9 -20 0 -74 -19 -104 -19 -184 -1 -224 9
-19 21 -46 26 -60 16 -40 128 -96 241 -120 134 -30 379 -29 398 1 3 5 27 9 54
9 44 0 85 11 155 40 11 5 31 12 45 15 30 8 136 60 202 99 l47 27 0 127 c0 70
2 152 5 182 3 30 5 69 6 85 l0 30 21 -25 c11 -14 35 -47 53 -75 18 -27 45 -61
60 -74 14 -14 26 -28 26 -32 0 -8 27 -49 71 -109 14 -19 31 -49 38 -67 17 -43
43 -64 83 -68 18 -1 74 -8 123 -15 50 -6 110 -13 135 -15 25 -2 80 -8 123 -14
132 -17 498 -14 528 5 4 2 41 11 81 18 151 29 206 50 215 84 6 24 -15 150 -27
167 -4 6 -11 24 -14 41 -8 37 -120 154 -147 154 -10 0 -21 5 -24 10 -3 6 -15
10 -26 10 -10 0 -19 5 -19 10 0 6 -7 10 -16 10 -15 0 -15 2 -1 24 12 17 14 38
10 82 -6 67 -24 94 -62 94 -14 1 -51 7 -81 14 -49 11 -56 16 -76 55 -12 24
-27 46 -33 50 -14 9 -81 121 -101 170 -13 31 -12 36 4 45 10 6 27 19 38 28 26
22 38 16 70 -37 34 -56 113 -100 168 -92 81 11 141 78 156 175 l7 43 51 -7
c28 -4 95 -6 148 -6 112 1 160 19 203 76 39 51 42 95 12 142 -13 22 -32 45
-41 53 -9 7 -16 21 -16 30 0 10 -7 26 -15 37 -26 34 -17 57 28 80 71 34 89 99
52 190 -15 38 -89 88 -159 108 -78 23 -205 48 -215 42 -4 -3 -21 -2 -36 3 -21
5 -31 16 -37 39 -8 28 -19 37 -83 67 -41 19 -78 35 -83 35 -5 0 -62 23 -128
50 -344 146 -329 137 -276 164 39 20 157 141 206 211 64 92 87 159 106 319 11
91 14 147 8 159 -11 22 10 32 51 24 18 -4 33 -1 40 7 17 21 -4 151 -38 235
-17 41 -31 80 -31 88 0 8 -8 27 -18 41 -10 15 -26 43 -36 62 -18 37 -52 88
-87 130 -11 14 -40 51 -65 83 -25 31 -49 57 -55 57 -22 0 -6 18 36 39 24 12
47 26 50 32 8 11 -35 68 -52 68 -6 1 -24 11 -40 24 -51 42 -269 161 -350 191
-147 55 -188 68 -263 86 -47 12 -101 25 -121 30 -20 6 -48 10 -62 10 -35 0
-57 10 -57 26 0 7 16 41 36 74 20 34 32 66 28 70 -22 21 -399 -75 -459 -116
-11 -8 -23 -14 -27 -14 -13 0 -28 39 -33 87 -16 155 -25 158 -106 35z m298
-998 c60 -8 229 -87 346 -161 53 -34 69 -40 73 -29 6 15 -7 84 -21 118 -18 43
64 30 235 -37 97 -38 161 -73 258 -142 62 -44 63 -47 57 -82 -3 -20 -8 -52
-10 -71 -4 -31 -28 -171 -42 -242 -7 -35 13 -37 51 -7 15 11 48 36 74 55 26
19 56 41 68 49 18 13 25 14 55 1 62 -26 89 -59 89 -111 0 -37 -6 -52 -33 -81
-37 -40 -102 -59 -146 -42 -29 11 -43 -2 -89 -82 -41 -71 -102 -142 -182 -211
-161 -139 -318 -213 -540 -254 -104 -19 -316 -19 -380 0 -25 7 -76 21 -115 30
-62 15 -114 35 -210 81 -89 44 -207 133 -280 214 -22 24 -49 54 -60 65 -11 12
-37 46 -57 77 l-37 57 -67 -1 c-66 -1 -67 -1 -105 40 -32 34 -39 49 -39 82 0
55 53 116 108 123 42 5 119 -24 175 -67 19 -14 37 -26 41 -26 4 0 28 -14 52
-31 49 -33 64 -32 47 4 -40 82 -96 293 -95 354 0 24 -4 45 -9 48 -7 5 -6 28 6
91 6 30 95 44 300 47 61 1 212 -14 288 -28 37 -7 69 -10 71 -6 6 9 -20 101
-39 139 -10 19 -13 37 -9 42 13 13 75 16 109 7 17 -5 44 -11 62 -13z m-703
-1117 c80 -71 137 -129 207 -212 33 -38 80 -93 105 -121 25 -28 53 -63 62 -77
9 -14 51 -71 92 -126 41 -55 87 -119 102 -141 15 -22 32 -40 37 -40 6 0 23 17
38 37 57 76 168 181 198 188 17 3 38 10 47 16 23 12 80 12 115 -1 53 -20 193
-198 193 -245 0 -13 7 -39 16 -60 17 -42 15 -159 -4 -230 -20 -73 -86 -176
-167 -263 -91 -96 -72 -90 -245 -80 -52 3 -113 10 -135 16 -22 6 -64 13 -92
17 -29 4 -55 11 -59 16 -3 5 -13 9 -22 9 -9 0 -29 6 -44 14 -14 8 -43 19 -64
26 -57 19 -181 77 -188 88 -11 18 4 39 50 71 61 45 88 99 87 181 0 67 -24 152
-50 182 -12 13 -13 26 -6 60 8 38 6 49 -16 90 -50 89 -200 258 -228 258 -31 0
-8 -50 70 -151 15 -20 27 -40 27 -46 0 -5 13 -23 30 -40 18 -18 32 -45 35 -69
6 -37 4 -42 -47 -90 -114 -111 -230 -148 -459 -147 -136 1 -177 12 -200 56 -7
12 -33 47 -59 77 -26 30 -56 70 -66 88 -23 40 -58 100 -100 170 -48 81 -40
104 65 200 47 43 100 87 116 98 17 10 38 26 48 35 43 39 387 197 432 198 11 1
47 -23 79 -52z m1639 -36 c23 -11 101 -43 172 -71 72 -28 144 -57 160 -65 17
-8 75 -33 130 -55 55 -23 103 -44 107 -48 17 -17 16 -86 -3 -145 -11 -34 -25
-80 -31 -102 -7 -22 -24 -62 -39 -90 -15 -27 -39 -72 -53 -100 -14 -27 -36
-63 -49 -79 l-23 -29 -45 73 c-24 39 -55 93 -69 118 -27 50 -34 61 -149 229
-142 207 -161 227 -189 199 -14 -14 -14 -17 0 -33 8 -10 23 -35 33 -55 9 -21
21 -38 25 -38 4 0 18 -19 30 -42 12 -24 35 -59 51 -79 16 -20 29 -40 29 -44 0
-9 67 -120 97 -161 13 -17 23 -36 23 -41 0 -9 48 -105 117 -233 17 -33 16 -51
-3 -78 -30 -43 -259 -206 -314 -223 -19 -6 -44 -17 -55 -24 -20 -12 -173 -58
-230 -69 -20 -4 -39 0 -56 11 -15 10 -45 30 -67 45 -22 15 -43 32 -47 39 -4 6
4 34 18 62 53 105 69 161 74 255 5 87 -4 153 -27 187 -4 6 -10 23 -14 39 -9
36 -65 123 -100 155 -32 30 -32 41 -4 66 65 55 189 58 268 5 42 -28 120 -64
125 -58 4 3 7 100 9 214 2 177 5 215 20 247 10 20 22 37 27 37 5 0 28 -9 52
-19z m-168 -81 c-3 -11 -7 -77 -7 -147 0 -71 -2 -131 -5 -135 -2 -4 -21 3 -41
17 -44 28 -147 49 -198 39 -43 -8 -44 -9 20 87 45 68 56 78 130 116 93 48 110
52 101 23z m-1094 -107 c19 -9 41 -18 49 -18 8 -1 44 -9 80 -18 36 -9 111 -21
167 -26 90 -8 107 -13 155 -43 89 -58 89 -62 6 -88 -65 -20 -80 -30 -151 -101
-43 -44 -82 -79 -87 -79 -5 0 -11 8 -14 18 -4 10 -14 27 -24 38 -23 26 -92
132 -92 142 0 4 -16 24 -36 43 -42 40 -108 149 -91 149 2 0 19 -8 38 -17z
m736 -118 c-28 -58 -55 -104 -59 -103 -20 7 -168 142 -168 153 0 8 18 15 48
18 83 10 166 25 192 35 14 5 28 8 31 6 4 -2 -16 -51 -44 -109z m1363 -50 c153
-31 236 -84 221 -142 -8 -33 -63 -64 -113 -65 -18 -1 -57 6 -85 15 -29 8 -55
11 -58 6 -3 -4 14 -22 37 -38 67 -47 118 -105 118 -135 0 -5 -36 -6 -82 -2
-90 7 -151 0 -145 -18 2 -6 33 -14 68 -18 88 -9 154 -25 200 -49 38 -19 40
-22 37 -61 -6 -87 -61 -98 -357 -66 -3 0 -23 0 -45 -1 l-38 -1 7 -37 c13 -71
8 -111 -16 -142 -48 -61 -99 -50 -154 34 -34 50 -36 57 -22 73 26 30 29 60 12
107 l-17 44 35 48 c41 56 157 256 157 271 0 5 14 37 30 70 17 34 30 71 30 84
0 50 27 54 180 23z m-2241 -427 c25 -83 24 -123 -4 -167 -14 -23 -29 -41 -33
-41 -5 0 -13 17 -18 37 -12 50 -30 52 -36 6 -3 -21 -20 -72 -37 -114 -27 -64
-37 -79 -72 -99 -42 -23 -123 -30 -141 -12 -5 5 0 19 10 33 28 37 34 59 16 66
-10 3 -27 -9 -50 -36 -81 -94 -199 -102 -295 -19 -56 48 -74 126 -33 142 10 4
32 -3 53 -17 47 -30 87 -47 111 -47 33 0 21 23 -27 55 -91 60 -82 85 27 84 36
-1 110 6 164 16 105 18 186 53 276 120 60 45 74 44 89 -7z m11 -470 c41 -17
84 -39 95 -48 38 -30 227 -80 360 -95 22 -2 67 -8 100 -13 75 -12 154 -9 191
8 16 7 49 41 74 76 25 35 53 66 63 70 11 3 34 -8 65 -34 58 -48 82 -61 146
-78 42 -11 54 -11 85 2 20 8 52 19 71 24 126 32 215 66 252 98 23 19 88 -1 88
-28 0 -10 15 -40 33 -66 18 -27 41 -68 50 -91 29 -73 101 -123 178 -123 15 0
31 -5 35 -11 9 -16 -88 -105 -123 -113 -16 -4 -48 -11 -72 -16 -25 -6 -52 -16
-60 -24 -9 -7 -34 -19 -56 -27 -33 -10 -220 -80 -290 -108 -100 -40 -235 -85
-239 -80 -2 2 -23 30 -47 62 -24 33 -59 78 -77 100 -26 34 -82 136 -82 151 0
7 55 18 105 21 66 4 159 36 163 56 5 26 -38 37 -124 31 -110 -8 -224 -3 -308
13 -161 31 -213 43 -256 59 -48 18 -98 13 -107 -10 -12 -32 18 -73 66 -90 25
-10 57 -25 70 -33 12 -8 48 -15 79 -16 45 -2 57 -6 63 -21 3 -10 4 -23 0 -29
-3 -5 -6 -48 -8 -95 -1 -47 -5 -105 -9 -128 -5 -39 -9 -43 -28 -38 -11 3 -49
12 -83 20 -34 7 -66 17 -73 21 -6 4 -35 11 -63 15 -29 5 -83 15 -120 24 -38 8
-101 18 -140 22 -40 4 -83 11 -96 15 -13 5 -90 9 -171 10 -160 0 -161 0 -196
62 -33 55 -38 46 61 110 43 28 50 37 53 69 2 22 -7 66 -22 108 -26 70 -34 134
-18 144 4 2 29 7 56 10 27 3 67 17 90 30 50 30 73 28 176 -16z m1951 -509
c107 -34 182 -108 198 -195 5 -27 7 -51 5 -54 -14 -14 -203 -50 -317 -61 -154
-14 -392 -2 -617 32 -118 17 -120 18 -120 38 0 15 25 26 133 60 72 23 150 47
172 52 22 6 63 19 90 30 28 10 55 19 61 19 12 0 147 41 234 70 63 22 112 25
161 9z m-1981 -104 c221 -24 317 -40 475 -77 114 -27 132 -35 140 -65 7 -30
-5 -47 -48 -64 -18 -7 -43 -20 -57 -29 -14 -10 -38 -20 -55 -23 -16 -3 -70
-19 -120 -37 -122 -42 -312 -65 -400 -49 -27 5 -67 12 -87 14 -58 8 -142 43
-168 70 -18 19 -24 39 -28 94 -5 79 -1 102 28 149 20 32 20 32 102 32 46 0
144 -7 218 -15z"/>
<path d="M9254 4830 c-45 -20 -84 -72 -84 -111 0 -33 46 -98 76 -110 102 -38
204 37 182 135 -11 50 -19 60 -73 85 -53 25 -49 25 -101 1z"/>
<path d="M9944 4831 c-42 -11 -50 -17 -68 -53 -16 -32 -12 -108 5 -108 5 0 9
-6 9 -12 0 -7 15 -23 33 -34 27 -18 43 -21 83 -17 73 8 114 54 114 128 0 29
-8 44 -35 71 -37 36 -70 42 -141 25z"/>
<path d="M9190 4440 c-29 -29 -25 -56 15 -87 20 -15 44 -46 54 -68 30 -69 115
-151 179 -176 76 -29 182 -39 245 -22 65 17 172 76 224 124 24 22 48 39 55 39
9 1 8 4 -2 10 -9 5 -34 5 -60 -1 -25 -5 -92 -13 -150 -17 -103 -7 -119 -5
-260 29 -85 20 -218 98 -204 120 6 10 -14 51 -30 61 -19 13 -45 9 -66 -12z"/>
<path d="M9815 3266 c-43 -19 -73 -94 -45 -111 6 -3 10 -14 10 -24 0 -10 8
-25 18 -33 22 -19 72 -32 72 -18 0 5 11 10 24 10 18 0 32 12 53 45 15 25 32
45 36 45 15 0 -46 71 -74 86 -34 17 -55 17 -94 0z"/>
</g>
</svg>
