<?xml version="1.0" standalone="no"?>
<!DOCTYPE svg PUBLIC "-//W3C//DTD SVG 20010904//EN"
 "http://www.w3.org/TR/2001/REC-SVG-20010904/DTD/svg10.dtd">
<svg version="1.0" xmlns="http://www.w3.org/2000/svg"
 width="791.000000pt" height="1020.000000pt" viewBox="0 0 791.000000 1020.000000"
 preserveAspectRatio="xMidYMid meet">
<metadata>
Created by potrace 1.16, written by Peter Selinger 2001-2019
</metadata>
<g transform="translate(0.000000,1020.000000) scale(0.100000,-0.100000)"
fill="#000000" stroke="none">
<path d="M4255 9650 c-4 -6 -8 -42 -11 -81 -5 -83 -9 -92 -32 -80 -46 24 -282
71 -359 71 -21 0 -15 -17 23 -70 20 -28 35 -52 33 -54 -2 -2 -53 -20 -114 -41
-181 -62 -348 -153 -490 -269 -84 -70 -108 -99 -93 -114 7 -7 17 -12 23 -12 6
0 19 -6 29 -13 17 -13 17 -16 -12 -58 -66 -98 -95 -153 -122 -224 -33 -89 -59
-198 -62 -265 l-3 -65 40 -1 c39 0 39 0 42 -44 2 -25 7 -58 12 -75 5 -16 13
-53 16 -82 4 -28 19 -78 34 -110 32 -66 148 -195 210 -233 45 -28 50 -41 22
-55 -11 -6 -59 -32 -108 -59 -48 -27 -122 -68 -163 -91 -126 -69 -139 -78
-146 -108 -3 -16 -11 -30 -17 -31 -7 -2 -43 -11 -82 -20 -96 -24 -194 -73
-216 -110 -45 -74 -29 -155 37 -182 19 -8 34 -20 34 -27 0 -18 -23 -76 -49
-126 -20 -39 -22 -49 -12 -82 14 -46 59 -86 109 -95 33 -7 154 6 207 21 17 5
23 -3 40 -52 24 -70 66 -103 130 -103 34 0 48 6 77 34 19 18 40 48 48 65 15
37 26 38 62 8 l28 -23 -52 -129 c-29 -72 -53 -131 -54 -133 -1 -2 -30 -11 -65
-20 l-64 -17 1 -60 c1 -33 3 -69 5 -79 4 -19 -27 -36 -116 -62 -24 -7 -31 -16
-33 -40 -2 -21 -12 -36 -33 -48 -31 -18 -59 -72 -59 -112 0 -27 15 -32 24 -9
3 8 12 15 20 15 12 0 14 -10 9 -48 -7 -60 4 -70 99 -89 170 -33 322 -25 603
33 178 36 256 61 262 85 3 12 14 19 28 19 15 0 26 8 30 20 3 11 12 20 19 20 7
0 20 8 29 18 13 14 13 20 3 35 -7 9 -21 17 -30 17 -21 0 -14 31 19 75 12 17
39 61 59 98 21 38 40 67 42 64 8 -8 39 -212 36 -236 -3 -19 -8 -22 -33 -19
-17 3 -32 1 -35 -4 -3 -4 3 -33 12 -63 17 -54 19 -55 54 -55 21 0 68 -13 106
-28 38 -16 96 -36 129 -44 143 -38 391 -29 509 18 33 13 69 24 80 24 44 0 62
12 79 51 21 48 22 79 2 79 -11 0 -15 12 -15 48 0 27 -9 75 -20 108 l-20 58 25
53 c14 30 25 71 25 93 0 35 -4 42 -40 65 -22 14 -45 25 -51 25 -8 0 -9 25 -3
88 4 48 7 99 6 113 -1 25 3 27 50 33 91 12 161 63 192 138 23 55 20 95 -9 124
-29 28 -31 42 -10 50 20 8 86 115 143 232 96 198 105 257 45 323 -21 23 -64
60 -98 82 -33 23 -67 48 -75 56 -16 16 -133 71 -192 90 -21 7 -40 17 -44 22
-3 6 12 38 34 72 126 196 154 344 116 605 -6 38 -5 42 14 42 11 0 24 4 27 10
7 11 -70 176 -109 233 -14 21 -26 40 -26 44 0 3 -39 50 -87 106 -94 107 -243
249 -308 293 -22 14 -42 28 -44 30 -2 2 8 17 23 34 14 17 26 38 26 45 0 20
-74 28 -191 23 l-98 -5 -58 78 c-59 80 -67 87 -78 69z m40 -892 c-12 -40 -28
-128 -24 -132 2 -3 47 7 99 20 92 25 278 43 362 36 29 -2 39 -8 43 -25 17 -68
5 -228 -26 -351 -11 -43 -19 -80 -17 -81 2 -2 45 30 96 71 79 63 99 74 132 74
31 0 44 -6 69 -35 35 -40 38 -60 17 -110 -18 -41 -42 -55 -98 -55 -43 0 -44
-1 -71 -56 -15 -31 -46 -81 -69 -112 -50 -69 -172 -188 -213 -209 -16 -9 -40
-24 -53 -34 -36 -28 -200 -87 -272 -99 -184 -29 -386 7 -534 94 -101 59 -248
200 -293 281 -7 12 -14 13 -39 3 -17 -6 -42 -8 -57 -4 -35 8 -87 65 -87 95 0
33 34 85 65 99 23 11 33 8 95 -33 39 -25 77 -48 86 -52 19 -7 18 2 -11 122 -9
39 -22 96 -27 128 l-11 59 44 39 c130 116 370 237 363 183 -1 -5 -5 -30 -8
-56 -5 -30 -3 -48 3 -48 5 0 45 26 88 59 125 93 242 149 317 150 35 1 38 -1
31 -21z m681 -853 c127 -48 235 -107 326 -179 89 -71 89 -71 85 -111 -5 -49
-86 -225 -144 -316 -40 -63 -46 -68 -95 -80 -29 -8 -102 -14 -163 -14 -103 0
-114 2 -175 31 -36 17 -82 48 -103 67 -35 32 -38 40 -32 69 4 18 11 38 16 44
17 21 99 188 99 201 0 52 -91 -63 -166 -210 -17 -33 -19 -48 -12 -75 7 -24 5
-44 -7 -75 -41 -110 -16 -225 62 -278 23 -17 43 -36 43 -44 0 -14 -69 -58
-169 -109 -30 -16 -62 -32 -70 -36 -28 -15 -154 -49 -225 -60 -38 -6 -73 -13
-78 -16 -25 -15 -173 125 -210 198 -65 128 -72 178 -42 304 14 62 24 84 79
172 24 38 58 54 118 54 62 0 112 -29 182 -106 33 -36 65 -66 71 -66 6 0 21 21
32 48 11 26 43 85 71 131 28 46 51 86 51 89 0 3 18 29 40 58 22 29 40 56 40
60 0 12 114 169 164 227 50 56 52 57 97 53 25 -3 77 -16 115 -31z m-1387 -171
c6 -15 14 -46 18 -70 5 -41 4 -44 -18 -44 -13 0 -30 -9 -37 -20 -12 -20 -167
-327 -227 -449 -16 -34 -33 -61 -37 -61 -4 0 -20 19 -34 43 -15 23 -36 55 -48
72 -50 73 -106 216 -106 271 0 30 6 36 68 72 152 90 378 211 393 211 9 1 21
-11 28 -25z m139 -49 c29 -14 55 -25 59 -25 9 0 60 -61 87 -102 l18 -28 -28 0
c-46 0 -105 -20 -140 -47 l-32 -24 -6 28 c-3 15 -8 60 -11 98 -4 39 -9 82 -11
98 -7 33 -1 33 64 2z m782 -42 c-17 -32 -39 -74 -51 -93 -11 -19 -38 -70 -60
-113 l-40 -78 -63 58 c-57 54 -113 83 -160 83 -29 0 -17 27 29 64 36 30 60 40
122 52 82 15 185 49 218 71 35 23 36 14 5 -44z m-452 -39 c34 -3 62 -9 62 -14
0 -8 -77 -98 -100 -117 -23 -19 -29 -13 -66 56 -19 35 -40 71 -46 79 -11 13
-6 14 37 9 28 -4 78 -9 113 -13z m-433 -136 c5 -72 10 -98 20 -98 8 0 41 19
74 42 71 49 145 62 199 34 44 -23 47 -33 19 -70 -50 -65 -87 -177 -87 -264 0
-81 37 -186 92 -265 l20 -27 -52 -52 -51 -51 -62 6 c-126 12 -268 70 -400 165
-50 36 -70 62 -63 84 78 235 278 674 283 618 1 -14 5 -69 8 -122z m-574 -81
c15 -58 103 -209 180 -313 36 -47 38 -54 33 -100 -5 -40 -3 -54 11 -68 18 -17
17 -20 -8 -72 -35 -72 -67 -82 -110 -34 -26 29 -29 38 -24 80 3 26 1 52 -4 57
-6 6 -51 1 -127 -13 -164 -33 -212 -23 -212 45 0 33 5 40 38 58 37 21 71 33
150 53 62 16 43 34 -28 27 -32 -3 -69 -9 -84 -13 -48 -12 -21 53 45 110 47 40
45 57 -4 37 -18 -8 -47 -16 -65 -18 -33 -5 -92 13 -92 27 0 5 -2 15 -6 23 -7
20 43 77 86 95 61 26 154 51 184 49 23 -2 31 -8 37 -30z m1951 -244 c77 -2
134 -7 136 -13 2 -5 -15 -26 -37 -47 -69 -62 -40 -76 39 -19 35 25 51 31 63
24 25 -13 21 -50 -9 -94 -33 -49 -49 -61 -98 -75 -48 -13 -86 0 -138 49 -44
42 -60 36 -34 -13 10 -18 15 -38 12 -44 -10 -16 -72 -13 -106 4 -33 17 -75 91
-88 152 -9 43 -25 50 -30 13 -6 -43 -19 -44 -45 -4 -27 41 -30 92 -9 146 l11
27 101 -52 100 -51 132 -3z m-194 -289 c12 -8 44 -16 69 -17 45 -2 48 -4 54
-34 3 -18 0 -56 -7 -85 -8 -29 -14 -69 -14 -89 0 -35 3 -39 55 -65 31 -14 57
-30 60 -34 5 -8 -26 -72 -45 -95 -8 -10 -33 -15 -74 -16 -64 0 -117 -8 -201
-29 -98 -24 -251 -72 -327 -102 -42 -16 -81 -28 -86 -24 -8 5 -25 89 -38 194
l-6 52 34 0 c30 0 112 42 156 80 17 15 15 59 -4 67 -9 3 -39 -3 -67 -15 -170
-68 -295 -97 -405 -94 -74 3 -131 -20 -112 -43 14 -17 53 -25 137 -29 35 -1
65 -5 68 -7 8 -9 -16 -83 -36 -108 -11 -13 -19 -28 -19 -33 0 -4 -11 -25 -23
-46 -13 -20 -31 -49 -40 -63 l-16 -27 -58 15 c-70 17 -86 22 -238 68 -66 20
-133 42 -148 50 -16 8 -47 18 -70 21 -59 8 -95 23 -129 55 -37 33 -32 44 23
53 51 8 90 47 109 107 7 24 22 58 32 75 10 17 18 41 18 53 0 35 43 45 91 21
48 -25 209 -63 261 -63 43 1 100 33 141 80 16 18 35 33 41 33 7 0 32 -21 56
-47 51 -58 75 -72 116 -73 39 0 256 55 297 75 17 8 36 15 44 15 18 0 95 40
108 56 12 15 142 84 159 84 6 0 22 -7 34 -16z m191 -537 c21 -44 26 -116 12
-167 -15 -54 -177 -109 -321 -110 -85 0 -255 29 -315 55 -16 6 -43 17 -58 24
-32 13 -44 37 -30 60 14 22 142 67 378 133 87 25 205 45 267 47 45 1 47 0 67
-42z m-1544 -72 c44 -9 96 -20 115 -25 19 -5 95 -23 169 -39 187 -41 195 -56
54 -90 -252 -60 -438 -79 -599 -61 l-114 13 0 36 c0 41 47 141 70 149 8 3 23
11 32 19 34 29 99 41 148 28 25 -7 81 -20 125 -30z"/>
<path d="M4296 8460 c-54 -35 -67 -79 -41 -131 25 -47 79 -62 135 -39 56 23
68 109 22 153 -37 35 -79 42 -116 17z"/>
<path d="M3745 8393 c-34 -38 -34 -91 1 -132 21 -26 33 -31 69 -31 38 0 47 5
74 37 33 40 40 84 19 108 -7 8 -19 21 -26 30 -8 10 -30 15 -62 15 -41 0 -54
-5 -75 -27z"/>
<path d="M4396 8154 c-9 -8 -16 -26 -16 -38 0 -44 -106 -114 -222 -146 -62
-17 -96 -20 -177 -17 -55 3 -102 2 -105 0 -9 -10 109 -83 167 -103 147 -52
287 9 357 155 16 33 38 69 50 80 26 24 25 50 -2 69 -28 20 -33 20 -52 0z"/>
<path d="M3956 7118 c-24 -28 -33 -44 -24 -46 7 -2 20 -17 29 -34 17 -36 58
-52 94 -38 22 8 45 55 45 90 0 30 -34 61 -71 66 -33 5 -40 1 -73 -38z"/>
<path d="M5700 6189 c-52 -3 -133 -4 -180 -2 l-85 4 -97 -73 c-54 -40 -96 -74
-94 -76 2 -2 126 -3 275 -4 154 0 274 -4 277 -9 3 -5 -8 -14 -25 -20 -17 -6
-31 -15 -31 -20 0 -5 -13 -9 -29 -9 -16 0 -31 -5 -33 -11 -2 -5 -24 -13 -48
-16 -25 -4 -51 -12 -58 -20 -7 -7 -27 -13 -43 -13 -17 0 -37 -7 -45 -15 -9 -8
-29 -15 -45 -15 -17 0 -37 -7 -45 -15 -9 -8 -30 -15 -48 -15 -19 0 -39 -7 -46
-15 -7 -8 -25 -15 -41 -15 -16 0 -29 -4 -29 -10 0 -15 -58 -12 -63 3 -2 8 -24
11 -71 9 -47 -2 -73 2 -89 13 -29 20 -120 20 -137 0 -11 -13 -133 -15 -992
-15 -883 0 -982 2 -1016 16 -32 14 -78 16 -334 15 -293 -2 -395 4 -353 20 11
4 35 8 53 8 19 1 35 7 38 16 5 11 21 15 60 15 39 0 56 4 60 15 4 11 21 15 59
15 38 0 55 4 59 15 3 9 18 15 38 15 18 0 46 7 62 15 15 8 40 15 55 15 15 0 32
5 39 12 15 15 16 48 2 48 -5 0 -10 7 -10 15 0 10 -10 15 -30 15 -18 0 -33 -6
-36 -15 -4 -10 -20 -15 -48 -15 -22 -1 -52 -7 -66 -15 -14 -8 -37 -14 -51 -15
-15 0 -40 -7 -55 -15 -16 -8 -41 -15 -55 -15 -15 0 -40 -7 -55 -15 -16 -8 -45
-15 -64 -15 -20 0 -41 -5 -46 -10 -6 -6 -35 -13 -65 -17 -30 -3 -58 -12 -62
-19 -5 -9 -26 -14 -56 -14 -29 0 -53 -6 -60 -14 -6 -7 -34 -16 -61 -20 -27 -4
-52 -11 -55 -16 -3 -6 -38 -10 -76 -10 -53 0 -71 -4 -75 -15 -4 -8 -10 -15
-15 -15 -12 0 -49 -38 -49 -50 0 -5 -6 -10 -13 -10 -24 0 -41 -46 -29 -77 23
-60 38 -276 35 -503 -4 -247 -4 -246 -1 -375 1 -66 -2 -129 -6 -140 -5 -11
-10 -58 -11 -105 -6 -233 -18 -436 -26 -444 -13 -14 -11 -260 1 -272 6 -6 13
-42 16 -80 4 -38 12 -78 19 -90 8 -12 15 -62 17 -120 4 -94 13 -135 45 -197
18 -35 14 -320 -5 -339 -7 -7 -12 -38 -12 -70 0 -53 -10 -89 -46 -161 -20 -40
-19 -190 1 -207 8 -7 15 -22 15 -34 0 -11 7 -30 15 -40 8 -11 15 -28 15 -39 0
-10 7 -25 15 -33 8 -9 15 -24 15 -34 0 -15 36 -52 85 -88 6 -4 23 -17 39 -30
38 -29 109 -31 133 -2 10 11 23 20 30 20 7 0 13 7 13 17 0 15 16 16 174 10 96
-4 187 -12 201 -17 33 -12 242 -13 249 -1 7 10 112 7 226 -7 41 -5 334 -8 650
-6 316 1 716 -1 890 -5 173 -5 403 -4 510 1 107 5 242 9 300 9 73 1 110 5 124
15 11 8 28 14 38 14 15 0 18 9 18 55 0 40 4 57 15 61 8 4 15 12 15 20 0 8 7
14 15 14 8 0 15 5 15 10 0 6 7 10 15 10 8 0 15 4 15 9 0 4 20 21 45 37 25 15
45 32 45 36 0 4 9 8 19 8 11 0 26 7 34 15 8 7 26 17 41 21 14 3 26 10 26 14 0
4 12 11 26 14 15 4 33 14 41 21 8 8 23 15 34 15 10 0 19 4 19 9 0 5 9 13 21
16 16 5 28 -1 51 -26 40 -43 99 -47 141 -8 15 15 27 33 27 42 0 8 5 17 12 19
8 3 12 39 12 119 1 92 4 119 19 139 9 13 17 34 17 46 0 12 7 24 15 28 12 4 15
27 15 114 0 66 4 112 11 119 6 6 14 42 16 80 3 37 10 73 15 80 18 23 19 93 1
126 -15 28 -17 64 -15 273 1 203 -1 244 -13 254 -8 7 -15 22 -15 34 0 12 -7
32 -16 44 -14 21 -16 79 -15 515 0 271 -4 519 -9 552 -5 33 -18 109 -28 168
-17 96 -17 117 -6 180 7 40 13 96 13 125 1 28 5 52 10 52 5 0 9 59 10 131 0
126 0 131 -24 153 -14 13 -25 30 -25 38 0 8 -10 26 -23 40 -21 22 -33 26 -108
29 -46 2 -127 1 -179 -2z m245 -241 c3 -13 4 -93 2 -179 -1 -121 -5 -160 -17
-174 -23 -28 -21 -195 3 -219 15 -15 17 -33 15 -120 -2 -73 -7 -108 -18 -121
-21 -26 -22 -431 -1 -444 10 -7 15 -52 19 -195 3 -102 9 -186 13 -186 5 0 9
-25 9 -55 0 -44 4 -56 20 -65 15 -8 19 -17 14 -34 -4 -17 0 -27 12 -34 17 -9
18 -32 15 -328 -1 -180 -6 -323 -12 -330 -5 -6 -12 -33 -16 -60 -3 -27 -12
-55 -20 -62 -8 -8 -13 -37 -13 -77 0 -35 -4 -67 -10 -70 -5 -3 -10 -22 -10
-41 0 -22 -6 -37 -15 -40 -8 -4 -18 -23 -21 -44 -4 -22 -13 -41 -20 -44 -8 -3
-14 -17 -14 -31 0 -14 -4 -25 -10 -25 -5 0 -10 -7 -10 -15 0 -11 -11 -15 -40
-15 -29 0 -42 -5 -50 -20 -6 -11 -21 -20 -34 -20 -13 0 -26 -7 -30 -15 -3 -8
-17 -15 -31 -15 -14 0 -25 -4 -25 -10 0 -5 -6 -10 -13 -10 -11 0 -47 -34 -47
-45 0 -6 -69 -75 -75 -75 -9 0 -45 -40 -45 -50 0 -5 -7 -10 -15 -10 -9 0 -18
-7 -21 -15 -13 -33 -21 -1 -19 75 1 45 7 86 13 92 7 7 12 34 12 62 0 32 6 56
16 67 24 27 24 337 0 371 -22 30 -22 140 0 173 13 19 15 49 12 160 -2 80 -7
139 -14 143 -6 4 -11 85 -13 222 -1 118 -6 217 -10 220 -5 3 -11 30 -15 62 -5
35 -13 58 -22 62 -10 4 -14 22 -14 66 0 47 -3 60 -15 60 -10 0 -15 10 -15 34
0 19 -7 41 -15 50 -8 8 -15 24 -15 36 0 11 -7 23 -15 26 -8 4 -15 16 -15 28 0
11 -6 32 -13 46 -8 14 -17 75 -20 135 -4 60 -12 114 -17 119 -6 6 -10 25 -10
43 0 17 -6 36 -13 40 -8 4 -20 31 -28 58 -19 67 -20 446 -1 452 8 3 12 28 12
79 0 59 3 74 15 74 8 0 15 6 15 13 0 11 49 31 128 52 12 4 22 10 22 14 0 5 22
11 50 15 27 4 52 11 55 16 3 6 21 10 40 10 20 0 35 6 39 15 3 10 19 15 44 15
21 0 47 7 58 15 10 8 28 15 39 15 11 0 29 7 39 15 11 8 32 15 46 15 14 0 35 7
46 15 10 8 31 15 46 15 15 0 30 5 33 10 10 17 24 11 30 -12z m-882 -218 c9
-11 22 -20 29 -20 16 0 39 -48 27 -56 -5 -3 -9 -24 -9 -47 -1 -23 -7 -60 -16
-82 -21 -59 -21 -518 1 -551 8 -13 15 -33 15 -44 0 -11 7 -31 15 -43 11 -17
14 -53 13 -151 -1 -111 1 -130 15 -138 9 -5 17 -20 17 -33 0 -14 5 -25 10 -25
6 0 10 -8 10 -18 0 -11 9 -29 20 -42 15 -17 20 -38 20 -79 1 -33 7 -64 15 -75
11 -14 15 -47 15 -116 0 -53 4 -100 10 -106 6 -6 12 -129 15 -293 5 -244 4
-291 -10 -335 -17 -52 -16 -211 0 -314 5 -28 3 -48 -4 -55 -6 -6 -11 -20 -11
-32 0 -12 -7 -30 -15 -41 -9 -12 -14 -44 -15 -91 0 -39 -3 -78 -6 -87 -9 -24
-24 -9 -24 23 0 16 -7 34 -15 41 -8 7 -15 20 -15 30 0 10 -7 20 -15 24 -10 3
-15 19 -15 44 0 21 -7 47 -15 58 -8 10 -15 35 -15 54 0 19 -7 44 -15 54 -8 11
-15 32 -15 47 0 15 -7 29 -15 33 -8 3 -15 16 -15 29 0 13 -5 28 -12 35 -8 8
-13 54 -15 132 -2 89 -6 126 -18 142 -19 28 -20 126 -1 153 13 20 27 113 32
215 10 231 17 306 30 324 10 15 14 54 14 148 0 130 -2 138 -51 230 -5 10 -9
107 -9 216 0 145 -3 201 -12 210 -16 16 -25 382 -10 382 5 0 26 16 46 35 37
35 37 35 21 68 -17 36 -60 58 -90 46 -11 -4 -251 -8 -533 -8 -307 -1 -531 -5
-560 -11 -89 -20 -796 5 -840 29 -16 9 -52 11 -120 7 -187 -12 -332 -14 -332
-5 0 5 -145 9 -329 9 -280 0 -330 -2 -341 -15 -7 -8 -19 -15 -26 -15 -8 0 -14
-7 -14 -15 0 -8 -9 -22 -19 -32 -46 -43 -43 -527 3 -598 9 -13 16 -34 16 -45
0 -12 7 -28 15 -36 12 -12 15 -44 15 -150 0 -75 4 -144 10 -154 5 -10 12 -81
15 -157 3 -110 1 -144 -10 -167 -12 -23 -15 -82 -15 -315 0 -186 -5 -300 -12
-326 -6 -22 -13 -115 -15 -208 -3 -141 -1 -170 12 -183 9 -9 15 -34 15 -62 0
-26 6 -72 14 -103 7 -31 11 -72 8 -90 -3 -24 0 -36 14 -46 18 -13 24 -72 24
-219 0 -17 6 -44 15 -60 8 -16 15 -39 15 -52 0 -57 46 -68 201 -52 129 14 332
17 429 6 36 -4 214 -9 395 -12 262 -4 337 -8 362 -19 24 -12 76 -15 230 -15
139 -1 205 -4 220 -13 18 -10 161 -12 640 -10 340 2 626 6 636 9 24 8 32 -20
13 -49 -24 -35 -86 -41 -396 -40 -370 1 -667 17 -705 37 -37 20 -87 20 -140 1
-29 -11 -88 -15 -210 -15 -133 -1 -174 -4 -189 -15 -24 -18 -232 -22 -238 -4
-4 12 -233 17 -331 7 -39 -5 -87 -3 -113 2 -30 7 -71 7 -127 0 -168 -22 -243
-24 -268 -6 -19 13 -52 16 -186 16 -90 0 -164 4 -168 9 -3 6 -26 13 -51 17
-25 3 -48 13 -51 20 -3 8 -13 14 -23 14 -10 0 -21 7 -24 16 -4 9 -13 13 -24
10 -21 -7 -56 26 -67 62 -3 12 -11 22 -16 22 -14 0 -11 148 3 152 6 2 13 31
16 64 2 33 11 67 20 77 11 12 16 40 17 90 2 104 -11 274 -26 332 -7 28 -16 67
-21 88 -5 21 -18 47 -29 58 -10 10 -19 28 -19 39 0 11 -7 23 -15 26 -11 5 -15
23 -15 73 -1 42 -6 73 -15 85 -8 11 -15 31 -15 45 -1 14 -7 37 -15 51 -8 14
-15 36 -15 50 0 14 -7 34 -16 45 -12 17 -15 56 -12 243 1 122 5 222 9 222 15
0 20 98 20 390 1 233 4 312 14 335 13 28 17 104 16 253 -1 47 -4 62 -15 62
-12 0 -16 26 -18 143 -2 78 -1 145 2 149 3 5 56 10 117 12 61 2 120 9 131 15
31 17 804 15 820 -1 17 -17 1543 -24 1654 -8 76 11 283 28 378 31 30 1 60 5
65 10 10 7 55 12 170 17 30 1 45 -3 58 -18z m-217 -200 c18 0 24 -6 24 -22 0
-12 6 -29 14 -37 11 -12 15 -51 17 -154 2 -98 6 -140 15 -145 10 -5 13 -65 15
-240 1 -128 6 -235 10 -237 4 -3 10 -29 14 -58 4 -28 14 -61 21 -72 19 -27 18
-171 -1 -205 -8 -14 -14 -36 -15 -49 0 -13 -7 -29 -16 -35 -13 -10 -15 -37
-15 -170 1 -127 -2 -161 -14 -173 -8 -8 -15 -25 -15 -37 0 -13 -7 -37 -16 -55
-20 -40 -17 -252 4 -273 8 -8 12 -51 12 -140 0 -105 3 -130 15 -134 8 -4 15
-18 15 -33 0 -14 7 -35 15 -45 10 -13 15 -44 15 -85 1 -38 7 -77 15 -91 8 -14
14 -34 15 -46 0 -20 -5 -21 -197 -28 -109 -4 -207 -6 -218 -6 -11 1 -207 3
-435 4 -231 1 -422 6 -430 11 -8 5 -80 10 -160 10 -196 2 -206 3 -223 19 -7 8
-25 16 -38 18 -18 2 -23 8 -20 23 2 11 6 78 8 148 4 98 8 130 19 134 9 3 14
21 14 52 1 25 7 64 15 86 8 22 15 50 15 62 0 12 7 28 15 37 17 17 21 111 5
121 -5 3 -10 14 -10 24 0 10 -9 30 -20 44 -11 14 -20 34 -20 44 0 10 -5 24
-11 30 -7 7 -13 86 -16 215 -3 111 -9 205 -14 208 -13 9 -30 144 -39 324 -5
93 -14 182 -21 198 -8 20 -12 117 -13 319 -1 247 1 291 14 299 10 7 11 12 4
18 -6 4 -13 15 -17 25 -3 9 -14 17 -24 17 -10 0 -13 3 -8 9 6 5 116 12 245 16
136 4 243 11 255 17 13 7 137 13 345 15 183 2 334 8 345 13 20 10 338 20 424
13 24 -2 54 -3 67 -3z m-2579 -45 c24 -4 57 -2 77 5 28 9 40 8 65 -4 24 -13
65 -16 193 -16 136 0 168 -3 187 -16 20 -15 44 -16 172 -11 127 5 149 4 149
-8 0 -8 -5 -15 -10 -15 -6 0 -16 -12 -22 -26 -10 -22 -10 -28 6 -39 16 -12 18
-36 21 -232 4 -220 6 -256 17 -283 4 -8 9 -103 11 -210 3 -133 8 -195 16 -198
6 -2 11 -26 11 -58 0 -30 6 -65 14 -77 11 -16 16 -70 20 -197 3 -96 10 -191
16 -210 5 -19 10 -51 10 -71 0 -19 7 -44 15 -55 8 -10 15 -27 15 -37 0 -10 7
-20 15 -23 11 -5 15 -23 15 -74 0 -51 -4 -69 -15 -74 -11 -4 -15 -20 -15 -55
0 -27 -4 -52 -9 -55 -5 -3 -12 -33 -16 -66 -5 -41 -11 -60 -21 -60 -11 0 -14
-25 -14 -131 0 -106 -3 -133 -16 -146 -10 -11 -14 -26 -10 -45 5 -28 5 -28
-47 -30 -28 -1 -61 -1 -72 -1 -11 0 -24 -6 -28 -13 -5 -9 -27 -14 -63 -14 -39
0 -56 -4 -60 -15 -4 -10 -20 -15 -44 -15 -22 0 -48 -8 -62 -19 -16 -13 -33
-18 -47 -14 -13 3 -29 -1 -41 -12 -14 -13 -38 -18 -87 -19 -43 -1 -68 -6 -71
-14 -2 -7 -22 -12 -47 -12 -29 0 -45 -5 -49 -15 -3 -10 -19 -15 -46 -15 -27 0
-43 -5 -46 -15 -4 -10 -20 -15 -45 -15 -26 0 -42 -5 -45 -15 -15 -37 -86 -1
-83 41 4 37 -1 54 -16 54 -11 0 -15 12 -15 46 0 27 -6 51 -15 60 -12 12 -15
43 -15 142 -1 94 -4 132 -15 146 -12 15 -14 86 -15 398 0 312 -3 386 -15 415
-21 50 -21 216 0 233 20 17 20 189 0 245 -8 22 -15 63 -15 91 0 28 -6 59 -15
70 -10 13 -14 45 -15 100 0 60 -4 85 -15 94 -8 7 -15 28 -15 46 0 24 -5 34
-15 34 -8 0 -15 8 -15 17 0 9 -7 24 -15 33 -11 13 -16 57 -20 196 -3 98 -8
186 -10 195 -7 20 20 85 37 93 16 7 248 0 305 -9z m1015 -2567 c4 -10 61 -14
234 -16 157 -1 237 -6 253 -15 30 -15 273 -16 292 -1 20 16 377 12 406 -4 12
-7 53 -12 90 -12 38 0 74 -5 80 -11 6 -6 53 -14 104 -17 84 -4 95 -8 117 -31
20 -22 32 -26 78 -25 l55 0 -3 -75 -3 -76 -279 2 c-229 2 -283 6 -302 18 -17
11 -52 15 -137 15 -66 0 -117 4 -124 11 -16 16 -255 17 -260 2 -6 -18 -84 -16
-119 2 -24 12 -80 15 -305 15 -232 0 -283 3 -315 16 -33 14 -76 16 -284 14
-293 -4 -330 -3 -330 9 0 5 29 12 65 16 36 3 65 10 65 15 0 4 27 10 60 14 33
4 60 11 60 16 0 6 10 10 23 10 12 0 34 6 49 14 14 8 49 17 77 21 28 4 51 11
51 17 0 6 35 9 88 8 171 -4 172 -4 183 30 11 31 24 39 31 18z"/>
</g>
</svg>
