<?xml version="1.0" standalone="no"?>
<!DOCTYPE svg PUBLIC "-//W3C//DTD SVG 20010904//EN"
 "http://www.w3.org/TR/2001/REC-SVG-20010904/DTD/svg10.dtd">
<svg version="1.0" xmlns="http://www.w3.org/2000/svg"
 width="983.000000pt" height="870.000000pt" viewBox="0 0 983.000000 870.000000"
 preserveAspectRatio="xMidYMid meet">
<metadata>
Created by potrace 1.16, written by Peter Selinger 2001-2019
</metadata>
<g transform="translate(0.000000,870.000000) scale(0.100000,-0.100000)"
fill="#000000" stroke="none">
<path d="M4163 7443 c-14 -9 -23 -26 -23 -43 0 -34 -26 -47 -103 -53 -33 -2
-62 -8 -65 -14 -4 -6 -18 -14 -32 -18 -14 -4 -49 -18 -79 -32 -30 -14 -72 -28
-93 -31 -21 -2 -43 -11 -49 -18 -6 -8 -30 -14 -55 -14 -23 0 -45 -4 -48 -9 -3
-5 -26 -12 -51 -15 -24 -4 -47 -11 -50 -16 -3 -5 -30 -12 -60 -15 -30 -4 -55
-11 -55 -16 0 -4 -27 -11 -60 -15 -33 -4 -60 -10 -60 -14 0 -5 -27 -11 -60
-15 -33 -4 -60 -11 -60 -15 0 -5 -25 -12 -55 -15 -30 -4 -60 -13 -66 -21 -6
-8 -25 -14 -41 -14 -16 0 -45 -7 -65 -15 -19 -8 -62 -15 -95 -15 -43 0 -60 -4
-64 -15 -4 -8 -10 -15 -15 -15 -14 0 -49 -33 -49 -47 0 -7 -6 -13 -13 -13 -21
0 -41 -44 -29 -66 5 -11 12 -50 16 -88 4 -38 10 -74 13 -79 16 -26 21 -496 5
-506 -11 -7 -10 -81 1 -99 10 -15 7 -242 -4 -257 -6 -9 -14 -146 -24 -440 -2
-49 -8 -103 -14 -118 -13 -35 -15 -239 -2 -253 6 -5 15 -47 20 -94 6 -47 16
-86 21 -88 6 -2 10 -45 10 -100 0 -67 5 -106 15 -126 8 -15 15 -38 15 -51 0
-12 7 -28 15 -35 22 -18 22 -302 0 -344 -9 -16 -15 -55 -15 -92 0 -35 -4 -64
-10 -64 -5 0 -12 -17 -16 -37 -4 -21 -13 -44 -21 -51 -19 -20 -18 -175 2 -192
8 -7 15 -20 15 -29 0 -10 7 -26 15 -37 8 -10 15 -29 15 -40 0 -12 7 -27 15
-34 8 -7 15 -23 15 -35 0 -14 14 -35 38 -54 20 -18 43 -37 51 -44 63 -54 123
-62 178 -25 18 13 33 29 33 37 0 11 30 12 177 6 98 -4 188 -11 201 -16 34 -13
246 -11 259 2 8 8 15 3 25 -18 8 -15 22 -40 31 -54 17 -25 16 -27 -50 -130
-89 -140 -187 -307 -234 -400 l-38 -76 -61 -7 c-93 -11 -110 -20 -110 -57 0
-18 7 -56 16 -84 l17 -52 -48 -44 c-57 -52 -105 -132 -105 -175 0 -74 84 -124
266 -158 209 -39 301 -46 456 -34 156 12 481 94 492 125 3 7 1 25 -4 39 -16
40 -13 44 45 70 65 28 92 65 157 216 24 54 47 98 51 98 5 0 30 -18 55 -41 61
-54 187 -123 286 -158 81 -29 81 -29 81 -64 0 -39 20 -61 65 -72 48 -12 70
-33 70 -68 0 -68 92 -112 310 -148 184 -31 398 4 525 86 98 63 116 97 114 223
-2 125 -7 142 -53 165 l-38 20 5 59 c6 69 19 57 -206 211 -124 86 -157 113
-157 131 0 13 -12 45 -26 72 -21 40 -54 155 -54 186 0 17 20 3 134 -91 66 -55
130 -102 143 -106 32 -8 98 23 154 73 44 39 47 40 85 31 31 -8 50 -7 84 5 24
8 45 14 45 13 1 -1 12 -24 25 -50 12 -26 37 -63 55 -82 27 -30 39 -35 76 -35
58 0 108 30 116 70 5 26 10 30 40 30 50 0 100 24 116 57 7 15 22 53 32 85 18
54 18 58 1 102 -20 52 -86 129 -145 170 -41 29 -54 56 -26 56 8 0 15 4 15 9 0
4 20 21 45 37 25 15 45 32 45 36 0 4 11 8 24 8 13 0 26 7 30 15 3 8 14 15 25
15 11 0 26 6 33 14 8 7 25 17 38 21 14 4 27 10 30 14 3 3 27 17 53 30 l48 23
29 -32 c20 -22 40 -33 68 -37 34 -5 43 -1 71 26 17 16 31 37 31 46 0 8 5 15
10 15 6 0 10 44 10 113 0 78 4 119 14 132 7 11 16 33 20 50 4 16 13 33 19 37
8 5 13 47 15 115 2 59 8 113 12 118 4 6 11 42 15 80 4 39 12 75 17 82 10 13 6
87 -11 193 -7 40 -8 137 -4 255 5 169 4 192 -11 204 -9 7 -16 23 -16 35 0 12
-7 32 -16 44 -14 20 -16 89 -17 565 -2 416 -5 547 -15 564 -11 20 -33 153 -34
208 -1 49 22 248 30 259 5 6 10 67 10 135 1 118 0 124 -24 146 -13 12 -24 29
-24 38 0 8 -15 30 -32 48 l-33 32 -165 -7 c-91 -4 -238 -7 -327 -6 -98 1 -164
-3 -167 -9 -9 -14 -739 -13 -747 1 -4 6 -62 10 -150 10 -79 -1 -182 3 -229 9
-47 6 -153 13 -236 17 -87 4 -157 12 -165 18 -9 7 -92 14 -224 18 -208 6 -209
6 -231 31 -20 24 -27 25 -120 24 -73 0 -105 -4 -121 -16z m289 -116 c4 -7 12
-6 23 3 14 12 18 12 25 -1 8 -11 44 -14 184 -15 112 -1 180 -5 189 -12 7 -6
33 -14 57 -17 25 -4 62 -13 83 -21 20 -8 71 -14 111 -14 53 0 79 -4 90 -15 12
-12 46 -15 176 -15 124 0 166 -3 183 -15 18 -11 66 -14 252 -13 668 2 1075 -3
1075 -12 0 -5 -6 -10 -14 -10 -7 0 -24 -9 -38 -19 -14 -12 -33 -18 -45 -15
-13 4 -22 0 -26 -10 -4 -11 -19 -16 -46 -16 -27 0 -43 -5 -49 -16 -6 -11 -23
-17 -46 -18 -20 -1 -40 -6 -44 -12 -4 -6 -24 -14 -44 -18 -20 -4 -50 -13 -65
-21 -15 -8 -40 -15 -54 -15 -15 0 -29 -7 -33 -15 -3 -9 -18 -15 -36 -15 -16 0
-30 -4 -30 -10 0 -14 -57 -13 -62 2 -2 6 -35 13 -79 15 -40 3 -80 10 -87 16
-19 15 -109 12 -129 -4 -13 -12 -182 -14 -997 -13 -887 1 -986 3 -1029 18 -39
13 -87 16 -250 16 -378 -2 -443 0 -427 10 8 5 29 10 47 10 17 0 38 6 46 14 7
8 39 17 70 21 32 4 57 11 57 16 0 5 24 9 54 9 36 0 56 4 59 14 3 7 28 16 56
20 27 4 53 11 56 16 3 6 18 10 33 10 15 0 38 8 51 17 16 10 42 16 75 15 30 -1
60 5 73 14 12 7 42 14 66 14 27 0 49 6 57 15 9 11 33 15 85 15 78 0 84 5 85
68 0 22 2 23 103 21 60 -1 105 -6 109 -12z m2592 -224 c3 -10 4 -92 2 -182 -3
-124 -7 -165 -17 -172 -22 -13 -19 -200 3 -222 13 -14 16 -34 13 -119 -2 -68
-9 -113 -19 -133 -22 -43 -23 -376 -1 -418 11 -21 17 -80 21 -213 4 -101 11
-184 16 -184 4 0 8 -25 8 -55 0 -40 4 -57 15 -61 8 -4 15 -19 15 -35 0 -16 7
-32 17 -37 15 -9 16 -40 14 -328 -1 -182 -6 -323 -11 -330 -6 -6 -13 -33 -16
-60 -4 -27 -13 -53 -21 -57 -9 -5 -13 -29 -13 -75 0 -38 -5 -73 -12 -80 -6 -6
-11 -25 -10 -42 0 -19 -5 -33 -14 -37 -8 -3 -17 -22 -20 -43 -4 -22 -13 -41
-20 -44 -8 -3 -14 -14 -14 -26 0 -30 -31 -60 -62 -60 -16 0 -36 -9 -45 -20
-10 -11 -27 -20 -39 -20 -12 0 -24 -7 -28 -15 -3 -8 -17 -15 -31 -15 -14 0
-25 -4 -25 -10 0 -5 -5 -10 -10 -10 -12 0 -170 -161 -170 -172 0 -5 -7 -8 -15
-8 -9 0 -18 -7 -21 -15 -4 -8 -10 -12 -15 -9 -14 8 -7 163 8 176 8 6 13 32 13
61 0 32 6 57 16 68 23 25 22 343 -1 368 -21 24 -21 143 1 176 13 19 15 49 12
161 -2 99 -7 139 -15 142 -10 3 -13 55 -13 217 0 118 -4 216 -9 219 -4 3 -11
33 -15 66 -5 39 -12 63 -22 67 -10 4 -14 22 -14 64 0 43 -4 59 -14 59 -8 0
-16 16 -19 42 -3 24 -11 44 -16 46 -6 2 -11 15 -11 28 0 14 -7 27 -15 30 -8 4
-15 16 -15 28 0 11 -6 32 -13 46 -8 14 -17 75 -20 135 -4 60 -12 114 -17 119
-6 6 -10 25 -10 43 0 17 -6 36 -13 40 -28 17 -39 90 -44 280 -5 163 -3 196 11
224 9 18 16 57 16 90 0 47 4 63 24 83 13 15 33 26 44 26 11 0 23 4 26 9 3 4
24 11 46 15 22 3 40 10 40 14 0 7 58 24 135 39 17 3 37 11 45 18 8 7 36 16 63
20 26 4 47 11 47 16 0 5 10 9 23 9 12 0 31 6 42 14 11 7 38 16 60 20 22 4 45
11 50 16 9 7 66 26 87 29 4 1 9 -7 12 -16z m-888 -217 c3 -8 15 -17 27 -20 23
-6 51 -52 37 -61 -4 -2 -10 -32 -13 -65 -3 -33 -10 -67 -17 -75 -8 -10 -12
-87 -11 -266 0 -208 3 -256 16 -275 8 -13 15 -33 15 -44 0 -11 7 -31 15 -43
11 -17 14 -53 13 -151 -1 -76 3 -130 9 -134 13 -10 43 -72 43 -91 0 -9 9 -24
20 -34 16 -13 20 -29 20 -74 1 -35 6 -66 15 -77 11 -14 15 -47 15 -116 0 -53
4 -100 9 -106 6 -5 13 -137 16 -295 5 -249 4 -292 -10 -327 -13 -31 -15 -64
-11 -158 2 -66 7 -139 11 -162 5 -28 3 -48 -4 -55 -6 -6 -11 -20 -11 -32 0
-12 -7 -30 -15 -41 -9 -12 -15 -43 -15 -84 0 -74 -8 -112 -21 -104 -5 3 -9 15
-9 28 0 12 -7 31 -15 42 -8 10 -15 26 -15 35 0 9 -7 19 -15 23 -9 3 -15 18
-15 38 0 18 -7 46 -15 62 -8 15 -15 42 -15 60 0 17 -7 40 -15 50 -8 11 -15 30
-15 42 0 12 -7 27 -15 34 -8 7 -15 20 -15 30 0 9 -7 31 -16 49 -9 18 -14 33
-13 34 41 22 45 28 62 108 24 115 18 367 -13 484 -26 101 -30 284 -6 330 12
22 16 61 16 152 0 124 -2 133 -51 225 -5 10 -9 107 -9 216 0 145 -3 201 -12
210 -15 15 -25 382 -11 382 4 0 25 16 46 35 l38 35 -16 34 c-19 40 -60 61 -96
48 -13 -5 -202 -10 -419 -10 -607 -1 -689 -3 -696 -14 -12 -19 -732 10 -804
33 -21 6 -74 8 -135 5 -175 -11 -310 -12 -321 -4 -6 4 -155 9 -331 10 -294 3
-323 2 -340 -14 -11 -10 -25 -18 -31 -18 -7 0 -12 -8 -12 -18 0 -10 -9 -26
-21 -35 -18 -16 -20 -28 -18 -90 1 -40 -3 -99 -10 -132 -13 -59 -11 -101 8
-250 11 -87 21 -125 32 -125 5 0 9 -14 9 -30 0 -18 6 -33 15 -36 12 -5 15 -32
15 -153 0 -111 3 -152 14 -167 20 -29 20 -287 0 -326 -11 -21 -14 -89 -14
-326 0 -241 -3 -308 -15 -342 -22 -61 -22 -345 0 -354 10 -4 15 -20 15 -53 0
-27 5 -64 10 -83 6 -19 12 -63 14 -98 3 -43 9 -67 20 -75 13 -10 16 -35 17
-135 2 -88 6 -125 16 -133 7 -6 13 -27 13 -47 0 -71 44 -83 225 -61 86 11 273
13 400 6 122 -7 123 -8 90 -79 l-25 -55 -77 -11 c-103 -16 -190 -16 -195 1 -4
9 -51 13 -181 15 -97 2 -177 7 -177 12 0 4 -22 10 -49 14 -29 4 -51 12 -55 21
-3 8 -14 15 -25 15 -10 0 -21 7 -25 15 -3 8 -12 12 -21 9 -18 -7 -59 30 -69
64 -4 12 -12 22 -17 22 -15 0 -10 122 6 150 8 14 14 46 15 71 0 32 6 53 21 70
19 22 20 32 14 191 -3 107 -11 182 -20 209 -8 23 -15 54 -15 69 0 35 -28 102
-46 113 -8 4 -14 17 -14 28 0 11 -7 27 -15 35 -10 11 -15 36 -15 80 0 35 -4
64 -10 64 -5 0 -12 17 -15 38 -3 20 -12 50 -20 65 -8 16 -15 39 -15 51 0 12
-7 32 -16 44 -13 19 -15 54 -12 236 3 141 8 219 15 228 8 9 12 80 14 210 1
108 5 202 10 209 4 8 3 19 -2 26 -7 8 -7 18 0 31 6 11 7 22 4 26 -4 4 -9 49
-11 101 -3 72 0 99 12 117 23 36 28 306 5 318 -12 7 -15 35 -17 159 l-3 151
116 0 c75 0 124 4 138 12 31 18 804 13 826 -5 10 -9 195 -13 735 -15 678 -2
814 1 1061 27 50 5 133 10 185 12 52 1 100 5 105 10 16 11 53 16 138 18 58 1
79 -2 83 -13z m-223 -201 c29 -5 37 -11 37 -28 0 -11 6 -28 14 -36 11 -12 15
-50 17 -151 1 -98 6 -138 15 -145 10 -8 14 -64 15 -243 1 -128 6 -235 10 -237
4 -3 10 -29 14 -58 4 -28 13 -55 19 -59 13 -9 22 -176 10 -188 -5 -5 -56 23
-114 61 -100 67 -105 73 -126 127 -12 31 -36 82 -54 112 -76 129 -91 136 -123
60 -11 -27 -25 -50 -29 -50 -5 0 -37 14 -71 31 -249 126 -554 168 -749 103
-39 -13 -48 -20 -48 -39 0 -13 5 -27 10 -30 21 -13 8 -22 -62 -44 -93 -30
-188 -78 -259 -131 l-56 -41 -7 -82 c-6 -73 -17 -107 -35 -107 -16 0 -30 97
-34 236 -3 93 -9 160 -17 174 -9 17 -13 103 -14 317 -1 251 1 295 14 304 11 8
12 12 3 16 -7 2 -13 13 -13 24 0 11 -10 23 -22 28 -28 10 131 21 320 21 96 0
150 4 165 13 16 8 119 14 352 20 285 6 449 12 720 25 33 2 77 0 98 -3z m-2592
-47 c45 -9 66 -9 98 1 33 9 45 9 63 -1 15 -8 81 -14 197 -16 136 -3 180 -7
198 -20 20 -13 47 -14 169 -8 124 5 144 4 144 -9 0 -8 -7 -15 -15 -15 -8 0
-15 -6 -15 -14 0 -8 -3 -21 -6 -29 -3 -9 1 -17 12 -19 15 -3 17 -25 20 -228 4
-274 4 -274 15 -280 5 -3 11 -98 15 -210 4 -132 10 -207 17 -212 6 -4 12 -34
13 -67 l2 -60 -48 -37 c-50 -38 -52 -46 -14 -77 l22 -17 -34 -85 c-50 -123
-67 -225 -61 -365 5 -119 35 -249 77 -330 32 -63 28 -70 -37 -70 -57 0 -58 0
-85 43 -27 43 -28 45 -17 128 13 103 4 208 -23 272 -66 153 -251 155 -274 2
l-6 -45 -45 39 c-73 65 -147 67 -208 6 -60 -61 -57 -134 11 -214 20 -23 34
-44 31 -47 -3 -3 -29 2 -58 10 -136 41 -229 -10 -229 -125 0 -36 54 -95 145
-159 28 -19 51 -44 53 -55 1 -11 -11 -54 -28 -94 -16 -41 -30 -89 -30 -108 0
-40 28 -99 71 -148 29 -33 30 -35 10 -35 -12 0 -24 -7 -27 -15 -4 -10 -20 -15
-50 -15 -30 0 -46 -5 -50 -15 -7 -18 -45 -20 -62 -3 -7 7 -12 24 -12 39 0 38
-10 59 -26 59 -10 0 -14 14 -14 49 0 31 -5 51 -12 53 -9 3 -14 44 -16 144 -2
84 -8 141 -14 145 -7 5 -12 135 -13 403 -2 299 -5 399 -15 411 -19 23 -23 204
-5 232 18 27 21 197 4 240 -6 15 -12 56 -14 90 -2 34 -10 72 -19 86 -12 17
-16 45 -15 100 1 58 -2 80 -15 92 -9 9 -16 30 -16 46 0 16 -4 29 -9 29 -5 0
-18 19 -30 43 -18 37 -20 65 -23 255 -2 201 -1 215 17 228 24 18 204 19 286 2z
m1529 -1065 c92 -133 246 -318 302 -363 82 -65 86 -66 164 -35 57 23 85 28
164 29 l95 1 -2 -70 c-3 -124 -66 -248 -190 -377 l-65 -67 44 -22 c35 -19 57
-22 121 -21 124 4 162 -30 135 -120 -14 -48 -56 -93 -93 -101 -37 -6 -102 10
-152 38 -24 13 -43 22 -43 21 0 -2 5 -17 11 -34 9 -26 8 -36 -8 -59 -37 -52
-37 -52 9 -73 24 -11 58 -20 75 -20 26 0 36 -6 49 -31 20 -39 8 -49 -51 -47
-63 2 -205 -29 -312 -68 -93 -34 -105 -36 -223 -36 -149 0 -235 18 -329 67
-81 43 -169 118 -187 160 -7 17 -34 60 -60 95 -90 123 -143 286 -151 465 -9
190 41 371 128 466 22 24 47 56 56 71 25 40 43 43 43 8 0 -20 8 -35 24 -45 22
-15 27 -15 55 -1 16 9 37 26 45 38 18 25 22 93 6 103 -16 10 -12 23 10 35 18
9 26 5 57 -30 47 -52 93 -87 127 -96 24 -6 26 -4 26 28 0 31 29 132 45 158 11
19 21 10 75 -67z m-920 -598 c17 -9 40 -34 52 -58 41 -77 27 -319 -24 -422
-24 -48 -193 -215 -217 -215 -59 0 -81 73 -35 121 l25 26 -25 38 c-37 55 -42
96 -17 147 25 52 71 83 108 73 14 -3 39 -20 55 -37 15 -16 28 -25 28 -18 0 21
-67 80 -91 80 -39 0 -103 -42 -121 -80 -23 -45 -23 -88 0 -148 18 -46 18 -48
0 -77 -24 -40 -23 -63 7 -119 l25 -46 -57 -25 -57 -25 -34 32 c-41 40 -69 93
-78 147 -5 33 -11 41 -28 41 -35 1 -100 35 -129 69 -57 68 -40 147 34 163 30
6 128 -4 164 -18 7 -3 23 4 35 16 l22 22 -25 26 c-31 32 -66 108 -67 140 0 31
26 79 49 92 55 29 111 3 191 -89 36 -42 60 -61 76 -61 l23 0 -24 36 c-28 41
-34 118 -12 146 31 39 96 49 147 23z m113 -517 c19 -30 26 -50 22 -67 -3 -13
-9 -37 -12 -55 -6 -28 -5 -30 11 -17 22 19 46 65 46 90 0 16 9 21 43 25 111
14 107 14 128 -16 21 -28 21 -29 2 -66 -14 -29 -18 -60 -18 -147 0 -98 3 -116
26 -166 53 -114 150 -180 291 -199 184 -26 355 48 452 194 31 46 48 61 109 90
193 95 364 89 575 -18 136 -70 441 -269 442 -289 0 -4 -20 -32 -45 -63 -82
-101 -182 -329 -198 -451 -4 -32 -2 -43 8 -43 7 0 15 5 17 11 5 14 58 0 58
-15 0 -18 -50 -63 -83 -75 -51 -20 -74 -12 -149 47 -171 136 -392 292 -414
292 -21 0 -17 -18 7 -25 11 -4 52 -36 90 -72 55 -53 72 -75 84 -116 25 -84 24
-87 -69 -145 -336 -212 -723 -257 -1086 -127 -185 67 -418 211 -552 342 l-57
56 24 61 c27 71 97 223 161 349 50 99 42 112 -26 41 -77 -80 -154 -95 -247
-49 -92 46 -254 231 -252 289 0 12 10 48 23 80 l22 59 22 -30 c19 -27 20 -32
6 -52 -19 -26 -12 -51 14 -51 35 0 177 77 252 137 42 33 112 99 155 146 44 48
82 87 85 87 3 0 18 -19 33 -42z m1967 -55 c0 -10 7 -27 15 -37 10 -13 15 -44
15 -90 1 -47 6 -78 15 -90 8 -11 15 -30 15 -43 0 -23 -1 -23 -135 -23 -116 0
-135 2 -135 16 0 25 19 54 36 54 8 0 46 7 85 16 78 18 86 32 49 92 -25 41 -25
45 3 87 24 38 37 44 37 18z m241 -682 c202 -69 409 -234 409 -326 0 -67 -93
-106 -157 -66 -17 11 -42 38 -55 60 -15 27 -31 41 -49 43 -25 4 -24 3 13 -32
21 -20 38 -43 38 -51 1 -8 17 -27 38 -42 34 -27 42 -28 95 -23 62 6 64 3 24
-41 -40 -45 -123 -18 -152 50 l-12 29 -21 -36 c-24 -41 -63 -60 -104 -52 -30
6 -39 -8 -12 -18 31 -12 62 -6 99 19 20 15 38 25 40 23 29 -36 32 -91 5 -118
-22 -22 -97 -28 -131 -10 -24 13 -49 61 -49 94 0 18 -9 30 -32 42 -27 14 -36
14 -72 3 -22 -8 -58 -14 -79 -14 -32 0 -45 6 -66 33 -21 24 -30 29 -39 20 -6
-6 -15 -8 -19 -4 -10 10 24 134 42 152 8 8 20 34 26 57 16 59 40 117 54 125 6
4 24 28 40 54 34 55 45 57 126 29z m-2383 -450 c182 -163 412 -280 642 -326
105 -21 355 -30 465 -16 223 27 419 107 537 219 24 22 42 32 53 28 25 -9 45
-70 45 -136 0 -61 11 -75 37 -49 8 8 28 1 75 -27 126 -75 237 -154 242 -171
11 -36 9 -169 -3 -220 l-13 -52 -56 28 c-194 97 -471 53 -640 -104 -65 -60
-97 -68 -152 -40 -39 20 -43 42 -20 109 23 68 17 90 -15 50 -22 -28 -23 -28
-77 -16 -30 7 -101 36 -159 64 -91 44 -115 61 -191 139 -48 49 -96 89 -105 89
-91 1 -255 65 -321 125 -62 55 -74 33 -15 -27 67 -69 177 -140 248 -162 33
-10 65 -19 72 -21 10 -3 9 -13 -1 -43 -22 -62 -88 -216 -99 -230 -34 -44 -130
-63 -314 -63 -190 0 -252 15 -367 88 -143 90 -193 108 -311 108 l-99 0 -23 34
c-44 65 -29 86 72 100 42 6 75 17 86 28 10 10 56 93 103 185 94 187 205 378
219 378 5 0 43 -31 85 -69z m2166 -642 c30 -14 36 -34 36 -134 0 -111 -8 -118
-58 -51 -23 30 -42 61 -42 69 0 8 10 26 21 41 16 20 19 30 10 39 -13 13 -15
47 -1 47 5 0 20 -5 34 -11z m-2419 -99 c65 -31 172 -139 213 -216 17 -34 32
-66 32 -72 0 -31 -250 -41 -426 -18 -155 21 -267 85 -267 153 0 72 65 145 151
170 76 21 236 12 297 -17z m2165 4 c43 -9 91 -30 127 -53 62 -40 123 -107 123
-136 0 -20 -51 -70 -94 -92 -91 -47 -303 -72 -454 -54 -242 30 -302 76 -237
186 75 129 322 198 535 149z m-1847 -140 c54 -6 69 -15 47 -29 -5 -3 -10 -24
-10 -45 0 -31 6 -43 30 -62 l29 -23 -59 -3 c-56 -2 -60 -1 -60 20 0 24 -52
122 -70 133 -19 12 -10 27 13 21 13 -3 49 -8 80 -12z"/>
<path d="M4809 5383 c-60 -37 -80 -130 -36 -171 33 -32 71 -28 113 11 29 26
37 42 41 79 5 40 2 50 -20 72 -30 30 -61 33 -98 9z"/>
<path d="M4346 4952 c-6 -10 79 -115 112 -138 20 -14 22 -24 22 -97 1 -109 21
-156 82 -186 123 -59 270 14 369 184 23 39 43 61 58 65 35 8 46 45 21 70 -11
11 -26 20 -34 20 -18 0 -46 -38 -46 -61 0 -26 -75 -51 -165 -56 -131 -7 -247
45 -340 152 -44 52 -67 65 -79 47z m476 -320 c23 -23 -70 -87 -140 -98 -39 -6
-112 10 -112 25 0 14 55 60 90 76 40 18 143 16 162 -3z"/>
</g>
</svg>
