<?xml version="1.0" standalone="no"?>
<!DOCTYPE svg PUBLIC "-//W3C//DTD SVG 20010904//EN"
 "http://www.w3.org/TR/2001/REC-SVG-20010904/DTD/svg10.dtd">
<svg version="1.0" xmlns="http://www.w3.org/2000/svg"
 width="841.000000pt" height="1125.000000pt" viewBox="0 0 841.000000 1125.000000"
 preserveAspectRatio="xMidYMid meet">
<metadata>
Created by potrace 1.16, written by Peter Selinger 2001-2019
</metadata>
<g transform="translate(0.000000,1125.000000) scale(0.100000,-0.100000)"
fill="#000000" stroke="none">
<path d="M3314 10096 c3 -13 8 -35 12 -49 5 -23 2 -26 -48 -42 -61 -20 -205
-90 -229 -111 -8 -8 -21 -14 -28 -14 -6 0 -51 -38 -99 -84 -117 -113 -163
-200 -112 -213 25 -7 25 -9 -6 -63 -29 -51 -74 -198 -74 -242 0 -21 13 -46 40
-79 l41 -48 -15 -98 c-8 -54 -12 -102 -9 -106 3 -5 16 -7 30 -4 22 4 27 -1 44
-42 45 -106 69 -140 159 -231 92 -92 161 -137 273 -179 l29 -11 -27 -33 c-36
-43 -43 -45 -90 -34 -32 7 -51 22 -91 70 -86 105 -174 157 -238 141 -37 -9
-86 -63 -86 -93 1 -25 1 -25 12 -6 44 80 102 95 179 47 64 -41 161 -162 180
-225 11 -34 14 -207 4 -237 -15 -46 -87 -24 -95 29 -4 29 -11 36 -40 45 -46
14 -62 26 -83 56 -34 49 -13 120 38 131 30 7 30 7 3 8 -56 2 -88 -87 -52 -147
8 -15 38 -38 65 -51 37 -19 49 -30 49 -47 0 -27 39 -60 81 -69 17 -4 28 -12
25 -18 -3 -7 -10 -29 -17 -51 l-13 -38 -58 5 c-33 3 -74 14 -94 27 -34 19 -39
20 -68 6 -52 -24 -83 -28 -121 -16 -43 14 -70 50 -61 84 6 23 21 38 106 106
l25 20 -33 -11 c-19 -7 -52 -29 -74 -50 -38 -36 -40 -41 -36 -84 10 -84 61
-108 169 -80 83 22 100 13 129 -64 26 -69 63 -107 116 -117 20 -4 81 -4 137
-2 125 6 186 29 218 83 12 20 25 33 29 28 4 -4 26 -67 49 -140 l41 -131 37 -9
c33 -8 38 -13 46 -48 23 -104 97 -395 110 -431 15 -41 15 -42 -12 -75 -52 -63
-55 -76 -26 -103 14 -13 39 -29 55 -36 27 -11 29 -15 33 -83 7 -135 25 -161
102 -155 28 2 66 12 85 22 19 10 45 24 57 30 13 6 23 14 23 19 0 4 6 7 13 7
18 0 128 89 215 174 63 62 162 190 164 213 0 4 8 19 17 33 9 14 32 54 50 89
l34 64 -31 26 -31 26 18 44 c21 52 15 86 -36 208 -17 40 -28 74 -25 78 3 3 19
5 36 5 57 0 164 28 247 64 l83 36 23 -22 c20 -19 26 -20 50 -9 l27 12 -25 12
c-13 7 -33 31 -44 55 -20 43 -42 51 -38 13 3 -27 -51 -64 -148 -99 -61 -22
-93 -27 -182 -28 -98 -2 -111 -4 -141 -27 -78 -60 -169 -97 -238 -97 -21 0
-38 -4 -38 -10 0 -16 129 -12 195 6 33 8 80 26 104 40 24 13 45 23 46 22 1 -2
9 -21 17 -43 9 -22 28 -66 43 -99 20 -44 25 -67 20 -93 -6 -32 -110 -183 -127
-183 -4 0 -36 -25 -70 -56 -74 -66 -112 -86 -193 -103 -133 -28 -215 -71 -255
-137 -19 -29 -25 -33 -53 -27 -65 12 -73 40 -27 98 17 21 30 50 30 64 0 15
-16 74 -36 131 -44 130 -105 359 -96 364 4 2 39 4 77 5 161 4 356 64 521 159
98 56 268 221 339 327 81 122 135 271 135 371 0 18 4 35 10 39 15 9 82 -23
118 -57 30 -30 32 -30 32 -10 0 24 14 29 173 62 54 11 104 17 115 12 33 -12
101 -80 122 -122 l20 -40 -27 -6 c-53 -12 -151 -74 -196 -123 -75 -84 -132
-238 -121 -325 3 -29 -1 -39 -29 -62 -29 -25 -30 -27 -8 -21 16 4 32 -1 49
-14 31 -24 52 -24 108 2 126 57 283 194 341 299 38 69 66 178 57 225 -7 39
-68 113 -119 145 -26 16 -42 20 -71 14 -33 -6 -39 -3 -69 29 l-32 35 -79 -15
c-43 -9 -119 -23 -169 -33 -73 -14 -93 -15 -105 -5 -8 7 -33 19 -55 26 -22 7
-52 21 -67 31 -14 10 -30 18 -36 18 -11 0 -37 29 -31 35 2 2 36 6 74 9 132 12
170 18 192 32 25 16 43 70 43 132 0 23 5 42 10 42 6 0 10 5 10 11 0 8 -5 8
-15 -1 -8 -7 -27 -10 -41 -7 -16 3 -27 0 -31 -9 -10 -26 -20 -14 -61 69 -48
96 -82 195 -85 245 -2 30 3 39 31 58 31 22 122 53 212 73 69 15 191 9 223 -12
33 -21 36 -69 7 -107 -17 -23 -25 -25 -89 -23 -41 1 -71 -3 -71 -8 0 -6 4 -8
10 -4 19 12 62 -8 72 -34 20 -50 18 -75 -9 -103 -30 -32 -14 -39 17 -8 11 11
20 33 20 50 0 36 16 39 54 9 34 -27 33 -54 -4 -91 -27 -26 -36 -30 -67 -25
-19 4 -43 12 -52 20 -21 18 -63 7 -76 -20 -6 -11 -17 -28 -24 -37 -8 -9 -11
-20 -7 -24 10 -9 46 35 46 55 0 11 7 14 23 10 12 -3 42 -11 66 -17 49 -12 76
-7 108 22 29 27 37 65 22 101 -10 24 -10 32 -1 35 15 5 42 55 42 78 0 32 -49
121 -77 139 -67 44 -258 23 -415 -46 -60 -26 -71 -28 -81 -16 -15 18 -131 8
-282 -24 l-99 -21 -18 22 c-17 21 -17 24 -2 48 65 99 66 117 10 128 -38 7 -36
2 -66 126 -10 40 -10 51 6 77 18 31 18 31 -14 76 -18 25 -32 49 -32 53 0 10
-153 162 -164 162 -4 0 -25 13 -45 28 -54 43 -159 98 -225 118 -59 19 -78 36
-57 57 6 6 11 17 11 24 0 18 -48 16 -160 -7 -81 -17 -97 -17 -115 -6 -30 20
-156 56 -195 56 -29 0 -32 -2 -26 -24z m400 -499 c64 -78 96 -184 96 -319 0
-46 3 -58 15 -58 28 0 79 32 109 67 32 39 69 57 98 47 20 -6 58 -81 58 -116 0
-30 -61 -85 -109 -98 l-43 -11 26 -24 c15 -14 26 -35 26 -50 0 -33 23 -33 66
0 33 25 68 32 92 17 9 -6 6 -15 -13 -32 -39 -36 -94 -123 -146 -231 -96 -196
-247 -299 -445 -305 -168 -5 -318 47 -477 165 -133 99 -227 276 -227 426 0 42
11 58 25 35 3 -5 17 -10 30 -10 26 0 45 25 45 59 0 24 -46 81 -66 81 -16 0
-16 2 -8 24 5 13 22 16 78 16 44 0 79 5 90 13 17 13 17 15 -6 49 -31 46 -53
97 -44 105 3 4 50 -1 104 -11 116 -21 366 -32 403 -18 17 7 36 32 59 78 35 71
93 144 115 144 8 0 30 -19 49 -43z m1057 -404 c10 -107 25 -170 61 -258 35
-84 69 -144 97 -169 18 -17 21 -17 21 -3 0 18 33 40 44 30 20 -20 -9 -115 -41
-131 -10 -5 -49 -13 -87 -16 -70 -6 -292 -40 -354 -54 -18 -4 -32 -11 -31 -17
0 -5 6 -8 13 -6 6 3 50 7 97 9 81 4 89 2 128 -23 45 -31 46 -35 26 -118 -73
-309 -265 -545 -552 -679 -46 -22 -91 -41 -101 -43 -9 -3 -60 -16 -112 -29
-52 -14 -126 -28 -165 -31 -38 -3 -88 -8 -110 -10 -22 -2 -46 -1 -52 3 -15 9
-44 81 -104 257 -45 133 -63 161 -65 105 -1 -14 -2 -42 -3 -62 -1 -49 -55
-110 -109 -126 -49 -15 -175 -15 -241 -1 -53 11 -68 24 -94 82 l-17 38 27 -3
c20 -2 29 -9 31 -26 3 -17 9 -22 25 -20 47 7 88 188 84 370 l-3 116 36 -5 c33
-5 59 -25 80 -62 5 -9 12 -12 16 -8 7 7 3 22 -20 78 -5 11 3 29 23 52 17 19
31 39 31 44 0 5 14 8 30 5 24 -3 34 -13 49 -46 23 -52 107 -131 167 -156 55
-24 147 -26 197 -5 59 24 165 122 193 176 36 72 48 148 35 223 -9 52 -8 70 8
124 37 122 124 222 234 272 84 37 226 78 371 105 145 28 136 27 137 18z m-915
-687 c-28 -73 -114 -132 -180 -123 -39 5 -85 28 -109 55 -17 19 -16 19 38 26
65 7 119 28 195 72 32 19 59 29 64 24 5 -5 2 -27 -8 -54z m1656 -204 c19 -19
9 -93 -20 -157 -72 -152 -287 -333 -384 -323 -29 3 -35 8 -46 43 -15 44 -10
125 10 172 20 46 94 147 137 186 46 41 104 73 158 87 47 11 130 7 145 -8z
m-1240 -1242 c94 -17 98 -20 70 -74 -33 -62 -201 -210 -287 -253 -92 -46 -154
-38 -181 24 -26 63 -6 126 64 203 90 100 179 127 334 100z"/>
<path d="M3147 9333 c-15 -18 -20 -40 -18 -76 1 -23 54 -77 75 -77 52 0 75 93
35 144 -24 31 -68 35 -92 9z"/>
<path d="M3510 9105 c-10 -12 -10 -21 0 -45 16 -40 6 -64 -57 -131 -72 -77
-142 -106 -268 -111 -72 -3 -81 -14 -12 -17 84 -2 96 -7 152 -60 29 -28 64
-53 78 -56 68 -18 160 57 173 140 3 26 3 77 -1 114 -4 36 -8 86 -9 111 -2 67
-26 91 -56 55z"/>
<path d="M3428 5759 c-10 -6 -18 -22 -18 -37 0 -33 -35 -52 -96 -52 -25 0 -49
-6 -58 -15 -8 -8 -25 -15 -38 -15 -13 0 -29 -5 -36 -12 -14 -14 -76 -38 -117
-45 -16 -3 -35 -9 -41 -14 -6 -5 -32 -12 -58 -15 -25 -4 -46 -11 -46 -15 0 -5
-11 -9 -25 -9 -14 0 -42 -7 -62 -15 -19 -8 -48 -15 -63 -15 -15 0 -41 -7 -56
-15 -16 -8 -43 -15 -61 -15 -17 0 -35 -4 -38 -10 -3 -5 -21 -10 -38 -10 -18 0
-45 -7 -61 -15 -15 -8 -40 -15 -55 -15 -14 0 -38 -6 -52 -14 -14 -7 -47 -16
-72 -20 -26 -4 -49 -11 -52 -17 -4 -5 -33 -9 -66 -9 l-60 0 -58 -60 -58 -60
13 -52 c8 -29 14 -66 14 -84 0 -17 3 -34 7 -38 20 -20 22 -448 3 -471 -9 -11
-10 -19 -2 -27 8 -8 7 -16 -1 -31 -9 -15 -9 -21 1 -24 14 -5 18 -243 3 -243
-4 0 -12 -111 -16 -247 -4 -137 -11 -253 -17 -260 -13 -17 -14 -217 -1 -245 7
-13 15 -53 18 -90 4 -38 10 -68 15 -68 4 0 9 -47 12 -105 2 -64 8 -109 16
-117 6 -6 12 -20 12 -30 0 -10 7 -29 15 -42 13 -19 15 -50 13 -160 -3 -89 -8
-140 -16 -148 -7 -7 -12 -39 -12 -74 0 -35 -4 -65 -9 -69 -5 -3 -12 -19 -16
-35 -4 -17 -14 -44 -22 -61 -18 -35 -13 -161 6 -167 6 -2 11 -11 11 -21 0 -9
7 -26 15 -37 8 -10 15 -29 15 -41 0 -12 4 -23 8 -25 4 -1 14 -21 23 -42 9 -26
25 -44 46 -55 18 -9 33 -22 33 -28 0 -7 6 -13 14 -13 8 0 16 -5 18 -11 2 -6
27 -14 55 -16 48 -5 53 -3 85 29 l33 34 165 -9 c91 -5 255 -10 365 -11 110 0
205 -4 211 -8 12 -8 1977 -11 2161 -3 68 2 131 9 140 14 10 5 26 12 36 15 13
4 17 16 17 51 0 37 5 52 28 74 15 15 35 30 45 34 9 3 17 11 17 17 0 5 5 10 10
10 6 0 29 14 52 30 22 17 47 30 55 30 7 0 13 3 13 8 0 4 25 18 55 31 30 14 55
28 55 33 0 4 11 8 24 8 13 0 26 7 30 15 7 20 56 20 56 0 0 -8 5 -15 11 -15 6
0 17 -7 25 -15 9 -8 28 -15 44 -15 16 0 35 7 44 15 8 8 18 15 23 15 4 0 16 18
26 39 12 28 17 63 17 138 0 77 3 103 15 113 8 7 15 23 15 35 0 12 7 28 15 35
11 10 15 36 15 111 0 54 4 100 9 103 4 3 11 36 14 73 4 37 11 69 17 71 14 5
12 106 -2 121 -10 9 -13 71 -13 241 0 170 -3 232 -12 241 -7 7 -13 23 -13 35
0 12 -7 27 -15 34 -13 11 -15 80 -15 507 0 416 -2 499 -15 530 -8 19 -15 54
-15 78 0 23 -3 45 -7 49 -10 10 -12 136 -2 136 7 0 13 63 23 240 3 41 7 94 10
118 4 32 2 44 -9 48 -8 4 -15 12 -15 20 0 8 -4 14 -10 14 -5 0 -13 12 -16 26
-4 15 -15 35 -25 45 -17 17 -38 18 -317 15 -164 -1 -305 -7 -313 -12 -21 -14
-671 -14 -688 0 -9 7 -81 12 -205 13 -106 1 -204 6 -219 12 -16 6 -80 11 -143
11 -77 0 -126 5 -149 14 -26 11 -84 15 -217 17 -178 1 -184 2 -207 25 -22 22
-32 24 -115 24 -50 0 -99 -5 -108 -11z m263 -111 c6 -9 12 -8 25 3 12 10 18
11 21 2 3 -8 52 -12 166 -12 127 -1 165 -5 177 -16 9 -8 33 -15 54 -15 20 0
53 -7 73 -15 20 -9 66 -15 110 -15 56 0 75 -4 79 -15 5 -12 32 -15 156 -15 82
0 158 -4 168 -10 14 -7 1027 -24 1208 -20 6 0 12 -4 12 -8 0 -11 -61 -36 -83
-34 -10 1 -20 -5 -23 -13 -4 -10 -20 -15 -45 -15 -26 0 -42 -5 -45 -15 -4 -9
-19 -15 -41 -15 -19 0 -41 -7 -49 -15 -9 -8 -27 -15 -42 -15 -15 0 -36 -7 -46
-15 -11 -8 -32 -15 -47 -15 -14 0 -32 -7 -39 -15 -7 -8 -23 -15 -36 -15 -13 0
-24 -4 -24 -10 0 -15 -47 -12 -53 4 -4 10 -29 16 -79 20 -40 3 -97 8 -126 12
-37 4 -57 2 -69 -8 -23 -19 -1820 -16 -1855 4 -17 9 -90 12 -303 10 -154 -2
-293 1 -310 6 l-30 9 40 7 c22 4 52 14 67 22 14 8 44 14 66 14 22 0 42 5 44
10 2 6 23 13 46 15 24 2 49 8 55 13 7 5 32 13 57 17 24 4 51 11 60 15 38 19
118 39 153 39 22 -1 44 4 50 10 6 6 30 11 53 11 25 0 47 6 54 15 9 11 32 15
81 15 l68 0 7 38 c4 20 12 40 18 45 17 11 169 -2 177 -15z m2388 -362 c0 -135
-3 -165 -14 -170 -22 -8 -22 -191 0 -200 12 -4 15 -24 15 -91 0 -54 -6 -99
-15 -122 -20 -47 -22 -408 -2 -416 9 -3 13 -50 15 -173 2 -93 8 -173 13 -179
5 -5 9 -30 9 -56 0 -32 5 -49 15 -53 8 -3 15 -17 15 -31 0 -14 6 -28 14 -31 8
-3 14 -15 13 -27 0 -12 1 -40 2 -62 7 -129 0 -514 -10 -517 -6 -2 -13 -25 -16
-51 -3 -26 -12 -52 -19 -58 -9 -8 -14 -33 -14 -75 0 -36 -4 -64 -10 -64 -5 0
-10 -16 -10 -35 0 -22 -6 -38 -15 -41 -9 -4 -15 -19 -15 -39 0 -20 -6 -35 -15
-39 -8 -3 -15 -14 -15 -26 0 -32 -31 -60 -66 -60 -19 0 -34 -6 -38 -15 -3 -8
-17 -15 -31 -15 -14 0 -25 -4 -25 -10 0 -5 -5 -10 -11 -10 -16 0 -99 -53 -99
-63 0 -5 -35 -42 -77 -84 l-78 -74 -3 82 c-2 55 1 85 9 89 6 4 12 28 13 52 0
25 7 52 15 62 21 25 19 310 -3 351 -20 38 -21 115 -1 141 17 23 21 244 5 275
-6 10 -13 108 -16 217 -3 108 -10 201 -15 207 -5 5 -9 31 -9 57 0 34 -5 50
-15 54 -11 5 -15 21 -15 60 0 41 -4 54 -15 54 -11 0 -15 11 -15 40 0 22 -3 40
-8 40 -7 0 -41 68 -60 125 -6 17 -14 74 -18 128 -3 53 -10 100 -15 103 -5 3
-9 20 -9 39 0 18 -5 35 -11 37 -31 10 -44 114 -44 342 0 87 3 120 13 124 8 2
12 26 12 71 0 78 12 93 93 118 29 8 64 21 79 29 14 8 38 14 51 14 14 0 29 5
32 10 3 6 19 10 35 10 16 0 35 7 44 15 8 8 25 15 38 15 13 0 36 7 52 15 15 8
39 15 51 15 13 0 25 5 27 10 2 6 21 13 43 17 22 3 47 11 55 19 14 12 68 23 82
17 4 -2 7 -77 7 -167z m-824 -37 c4 -5 18 -14 31 -19 13 -5 24 -16 24 -25 0
-8 5 -15 12 -15 9 0 9 -3 0 -12 -7 -7 -12 -27 -12 -46 0 -19 -7 -58 -16 -88
-20 -69 -17 -485 4 -506 6 -6 12 -21 12 -33 0 -12 5 -26 11 -32 6 -6 11 -64
13 -139 1 -88 6 -129 14 -132 7 -2 12 -15 12 -28 0 -15 6 -24 15 -24 9 0 15
-9 15 -24 0 -13 7 -29 15 -36 10 -8 15 -31 15 -70 0 -38 4 -60 13 -62 8 -3 13
-36 15 -104 2 -54 8 -103 13 -109 13 -13 12 -572 -1 -580 -14 -9 -13 -231 2
-272 9 -25 9 -39 1 -51 -6 -10 -14 -32 -17 -50 -4 -17 -12 -34 -17 -37 -5 -4
-9 -39 -9 -80 0 -74 -13 -106 -25 -63 -8 28 -38 91 -46 98 -3 3 -9 26 -13 53
-4 26 -11 47 -17 47 -5 0 -9 15 -9 34 0 18 -7 47 -15 62 -8 16 -15 37 -15 47
0 9 -4 17 -9 17 -5 0 -12 13 -16 30 -4 16 -11 32 -16 35 -5 4 -9 57 -9 118 -1
83 -4 117 -15 131 -19 26 -20 129 -1 145 14 12 24 95 31 276 5 134 14 206 28
223 5 7 10 63 11 125 1 110 -5 137 -44 208 -5 9 -10 99 -11 200 -1 115 -6 189
-13 198 -7 8 -12 80 -14 180 l-4 167 26 14 c14 7 33 24 42 38 14 21 14 28 3
49 -18 33 -58 53 -86 42 -12 -4 -51 -8 -85 -7 -283 5 -939 -5 -944 -14 -11
-18 -714 11 -752 31 -26 14 -179 15 -187 1 -4 -7 -46 -8 -118 -4 -62 3 -245 8
-408 10 -257 4 -298 3 -309 -11 -7 -8 -19 -15 -26 -15 -8 0 -14 -9 -14 -20 0
-11 -7 -23 -15 -26 -12 -5 -15 -25 -15 -89 0 -46 -4 -87 -10 -90 -12 -8 -14
-202 -1 -209 4 -3 11 -40 14 -83 3 -43 11 -79 16 -81 6 -2 11 -16 11 -32 0
-16 6 -30 13 -32 14 -5 28 -217 28 -438 -1 -309 -17 -745 -29 -773 -17 -39
-17 -314 0 -319 11 -4 17 -41 34 -203 4 -38 13 -74 20 -80 8 -6 14 -50 17
-123 3 -63 10 -119 16 -125 6 -6 11 -25 11 -42 0 -19 8 -39 20 -50 18 -16 30
-17 122 -9 112 9 233 9 758 -1 268 -5 352 -9 377 -21 23 -10 76 -14 213 -14
123 0 188 -4 203 -12 29 -16 1155 -12 1174 4 10 8 13 4 13 -20 0 -40 -12 -47
-105 -62 -126 -19 -895 5 -903 28 -5 16 -124 16 -139 1 -8 -8 -70 -12 -182
-13 -121 -1 -174 -5 -183 -13 -15 -16 -214 -18 -223 -3 -7 11 -521 7 -662 -5
-64 -6 -87 -4 -99 6 -13 10 -58 15 -173 16 -94 2 -157 7 -159 13 -2 5 -21 10
-43 10 -26 0 -42 5 -45 15 -4 8 -14 15 -24 15 -10 0 -21 7 -24 16 -4 10 -12
14 -23 10 -18 -7 -63 36 -63 61 0 7 -4 13 -10 13 -12 0 -14 137 -1 144 5 3 12
30 15 60 4 30 14 60 22 67 10 8 14 36 13 108 -1 198 -38 401 -76 424 -7 4 -13
19 -13 32 0 13 -5 25 -12 27 -6 2 -13 32 -16 69 -3 35 -7 66 -11 69 -7 6 -29
78 -38 125 -3 17 -12 40 -20 51 -11 17 -13 64 -11 223 1 111 6 201 9 201 14 0
20 97 20 370 1 157 5 292 9 300 5 9 11 75 15 147 6 111 5 132 -8 139 -12 7
-16 37 -18 144 l-4 135 110 6 c61 4 135 12 165 18 63 13 698 4 716 -10 16 -13
1547 -13 1572 0 11 6 71 13 133 16 168 9 202 12 219 18 42 17 186 21 195 6z
m-169 -206 c3 -10 12 -30 20 -45 10 -18 14 -61 14 -146 0 -66 4 -122 9 -124 5
-1 12 -95 15 -208 7 -212 19 -309 43 -347 11 -16 13 -44 11 -100 -4 -73 -11
-99 -45 -180 -8 -20 -13 -74 -13 -153 0 -106 -3 -132 -25 -192 -30 -83 -35
-228 -10 -298 10 -27 15 -80 15 -146 0 -57 3 -104 8 -104 14 0 42 -97 42 -144
0 -26 7 -63 15 -83 30 -72 34 -70 -152 -73 -197 -4 -150 -4 -630 -1 -211 1
-383 5 -383 9 0 4 -71 8 -158 8 -124 1 -165 4 -188 17 -16 8 -37 18 -48 21
-13 5 -16 11 -10 24 5 9 10 70 12 134 2 86 7 120 18 128 8 7 14 30 14 54 0 38
21 118 41 158 12 24 11 105 -1 113 -5 3 -10 14 -10 24 0 10 -7 24 -15 31 -8 7
-15 23 -15 35 0 12 -6 28 -14 34 -11 9 -14 53 -15 198 -1 103 -6 190 -11 193
-14 9 -32 147 -40 305 -4 83 -12 166 -19 185 -16 51 -15 541 2 559 10 11 10
14 0 18 -7 3 -13 13 -13 24 0 14 -8 19 -27 21 -65 3 135 15 283 17 107 1 164
5 172 13 8 8 102 13 319 16 169 2 314 7 323 12 8 5 115 9 238 10 205 0 223 -1
228 -17z m-2421 -25 c35 -10 55 -10 90 0 36 10 51 10 68 0 14 -8 81 -13 181
-15 107 -2 165 -8 174 -16 11 -8 56 -11 154 -10 116 2 138 0 138 -12 0 -8 -7
-15 -15 -15 -18 0 -21 -46 -3 -52 9 -3 13 -58 15 -209 4 -262 3 -253 13 -259
4 -3 10 -88 12 -189 3 -130 8 -186 16 -189 7 -2 12 -26 12 -61 0 -31 5 -62 12
-69 7 -7 13 -69 16 -174 2 -90 7 -167 12 -173 4 -5 10 -39 14 -75 3 -35 11
-69 16 -74 6 -6 10 -18 10 -27 0 -9 7 -19 15 -23 11 -4 15 -21 15 -65 0 -43
-4 -60 -15 -65 -11 -4 -15 -20 -15 -55 0 -27 -4 -53 -10 -56 -6 -3 -10 -23
-10 -43 0 -21 -8 -49 -17 -62 -13 -19 -18 -49 -19 -131 -1 -59 -7 -116 -13
-127 -6 -12 -11 -32 -11 -46 0 -24 -3 -26 -47 -27 -27 -1 -54 0 -62 1 -8 1
-17 -4 -21 -10 -4 -7 -30 -14 -58 -15 -31 -2 -58 -9 -67 -19 -10 -9 -33 -16
-56 -16 -21 0 -39 -4 -39 -10 0 -5 -15 -10 -34 -10 -21 0 -36 -6 -40 -15 -4
-11 -22 -15 -71 -15 -46 0 -71 -5 -81 -15 -9 -8 -31 -15 -50 -15 -19 0 -34 -4
-34 -10 0 -5 -16 -10 -35 -10 -22 0 -38 -6 -41 -15 -4 -10 -20 -15 -44 -15
-21 0 -43 -7 -50 -15 -29 -34 -70 -6 -70 48 0 22 -6 37 -15 41 -10 3 -15 19
-15 43 0 21 -7 46 -15 56 -9 13 -14 52 -14 134 -1 64 -6 122 -11 128 -7 8 -11
134 -11 341 0 203 -4 346 -11 374 -17 70 -22 241 -7 251 16 9 16 196 1 226 -7
12 -12 46 -12 76 0 36 -5 59 -15 67 -11 9 -15 33 -15 92 0 57 -4 84 -15 94 -8
9 -15 26 -15 39 0 12 -6 25 -13 28 -31 12 -46 99 -49 279 -2 225 -7 218 133
218 54 0 119 -5 144 -12z m969 -2363 c4 -13 37 -15 211 -15 135 0 214 -4 228
-11 25 -14 232 -14 297 -1 59 12 319 9 345 -4 11 -6 49 -12 85 -13 36 -1 69
-6 74 -11 6 -6 45 -10 87 -10 56 0 82 -4 93 -15 8 -8 17 -15 21 -15 4 0 14 -7
23 -16 12 -12 27 -15 59 -10 l44 6 -3 -73 -3 -72 -255 3 c-204 2 -261 5 -287
17 -22 11 -60 15 -120 14 -48 0 -101 4 -116 10 -36 14 -237 15 -237 1 0 -13
-93 -13 -106 -1 -5 5 -128 11 -274 13 -179 3 -272 8 -287 16 -15 8 -103 12
-297 12 -265 0 -348 10 -216 25 33 4 60 10 60 15 0 4 23 10 52 12 29 3 54 11
56 17 2 6 14 11 27 11 12 0 39 7 58 15 20 8 50 15 67 15 16 0 30 5 30 10 0 6
42 10 108 9 122 -1 140 4 148 37 7 27 19 31 28 9z"/>
</g>
</svg>
