<?xml version="1.0" standalone="no"?>
<!DOCTYPE svg PUBLIC "-//W3C//DTD SVG 20010904//EN"
 "http://www.w3.org/TR/2001/REC-SVG-20010904/DTD/svg10.dtd">
<svg version="1.0" xmlns="http://www.w3.org/2000/svg"
 width="1050.000000pt" height="1125.000000pt" viewBox="0 0 1050.000000 1125.000000"
 preserveAspectRatio="xMidYMid meet">
<metadata>
Created by potrace 1.16, written by Peter Selinger 2001-2019
</metadata>
<g transform="translate(0.000000,1125.000000) scale(0.100000,-0.100000)"
fill="#000000" stroke="none">
<path d="M4056 10588 c-10 -5 -24 -7 -31 -4 -8 3 -17 1 -20 -4 -4 -6 -15 -10
-26 -10 -10 0 -27 -4 -37 -9 -21 -11 -62 -27 -84 -35 -13 -4 -18 -16 -18 -40
0 -20 -13 -69 -30 -111 -16 -42 -30 -85 -30 -96 0 -12 -6 -33 -14 -47 -8 -15
-19 -38 -25 -52 -6 -14 -15 -32 -19 -40 -18 -31 -42 -87 -58 -135 -39 -119
-172 -355 -201 -355 -13 0 -17 -11 -14 -42 1 -9 -8 -22 -19 -28 -16 -8 -20
-18 -16 -33 4 -18 -25 -89 -74 -177 -5 -8 -23 -44 -41 -79 -19 -35 -42 -66
-51 -69 -10 -2 -21 -16 -25 -31 -3 -14 -14 -37 -23 -51 -24 -37 -36 -59 -66
-120 -25 -51 -84 -151 -124 -210 -9 -14 -21 -36 -25 -50 -4 -13 -14 -30 -21
-38 -8 -7 -14 -20 -14 -29 0 -8 -9 -26 -20 -40 -11 -14 -20 -31 -20 -37 0 -7
-13 -22 -29 -34 -17 -12 -53 -65 -84 -124 -56 -106 -66 -131 -88 -233 -7 -33
-21 -78 -32 -100 -11 -22 -21 -58 -22 -80 -2 -46 -4 -52 -55 -160 -51 -108
-56 -128 -64 -265 -2 -34 -21 -80 -71 -175 -37 -72 -80 -155 -96 -185 -16 -31
-39 -60 -52 -65 -12 -6 -38 -40 -59 -80 -20 -38 -45 -75 -56 -80 -11 -6 -32
-26 -47 -44 -16 -18 -38 -36 -49 -41 -25 -9 -116 -175 -116 -211 0 -13 0 -31
0 -39 0 -15 -6 -92 -15 -195 -8 -88 -5 -115 15 -155 11 -21 24 -41 29 -45 6
-3 8 -12 5 -19 -3 -7 2 -19 11 -26 8 -7 15 -19 15 -28 0 -32 101 -92 145 -86
60 8 76 12 89 23 7 6 22 8 32 4 52 -19 384 -210 416 -239 20 -18 55 -42 78
-54 47 -24 50 -36 13 -43 -94 -20 -157 -37 -166 -46 -6 -6 -19 -11 -29 -11
-28 0 -186 -71 -263 -119 -60 -37 -119 -75 -125 -81 -10 -11 -79 -60 -83 -60
-3 0 -19 25 -38 55 -18 30 -39 57 -46 59 -14 6 -43 -32 -68 -89 -30 -69 -66
-188 -72 -235 -5 -41 -13 -52 -100 -134 -97 -91 -163 -169 -163 -192 0 -7 19
-17 43 -21 49 -10 50 -17 24 -105 -54 -178 -76 -437 -53 -608 19 -140 45 -255
71 -315 8 -16 19 -47 26 -67 12 -35 15 -37 63 -40 50 -3 50 -3 133 -101 46
-55 83 -102 83 -107 0 -4 -7 -27 -15 -50 -8 -23 -15 -55 -15 -70 0 -32 14 -36
134 -39 79 -2 102 -16 110 -66 5 -27 -2 -36 -73 -97 -67 -57 -241 -239 -291
-304 -8 -11 -21 -27 -29 -37 -12 -15 -11 -20 3 -36 17 -19 16 -20 -21 -37 -34
-16 -96 -55 -163 -101 -95 -67 -250 -229 -290 -304 -26 -50 -32 -73 -33 -123
0 -52 6 -72 39 -136 49 -93 81 -114 165 -106 55 5 56 5 72 -29 24 -50 61 -70
126 -69 52 1 57 4 91 43 31 36 66 116 75 171 2 12 14 14 58 12 35 -2 76 3 108
13 50 17 52 17 78 -4 45 -37 144 -81 183 -81 45 0 72 21 169 137 41 49 79 94
86 100 6 7 21 25 32 39 11 14 25 23 31 19 16 -10 9 -135 -12 -195 -10 -30 -19
-79 -19 -108 l0 -52 -191 -189 -191 -189 12 -78 13 -78 -40 -33 c-38 -31 -41
-37 -41 -86 0 -85 20 -199 45 -249 30 -59 71 -90 176 -133 243 -99 543 -64
843 98 72 39 107 90 103 152 -3 39 -1 41 61 82 85 56 84 54 67 123 -6 23 -1
28 61 60 129 66 297 201 354 285 13 19 29 35 35 35 6 0 28 -28 48 -62 80 -133
103 -167 148 -220 44 -52 51 -56 102 -62 66 -9 81 -23 72 -71 -8 -40 7 -74 32
-74 9 1 42 -4 72 -10 214 -42 461 -52 626 -26 96 15 302 68 336 86 10 5 26 9
36 9 10 0 22 4 27 9 6 5 35 19 65 32 130 54 230 142 230 202 0 67 -68 157
-173 229 -44 30 -57 44 -52 56 12 30 16 166 6 182 -8 12 -32 15 -107 15 l-96
0 -46 65 c-38 53 -190 250 -260 335 -52 63 -121 145 -152 178 -52 57 -53 62
-32 120 l20 53 -41 59 c-22 33 -43 62 -46 65 -3 3 -20 25 -36 50 -16 25 -32
47 -35 50 -6 6 -100 149 -100 152 0 2 35 3 78 3 90 0 110 10 204 101 167 162
249 335 207 436 -7 18 -32 63 -56 100 -64 99 -62 108 56 225 92 92 111 133 90
195 -16 50 -69 103 -110 112 -40 8 -107 -2 -136 -20 -13 -8 -23 -12 -23 -9 0
4 -13 -3 -29 -14 -31 -22 -61 -28 -61 -11 0 6 11 27 23 48 49 77 62 164 33
220 -30 59 -119 107 -176 95 -38 -7 -100 -61 -125 -107 -24 -44 -34 -45 -42
-6 -10 54 -18 40 -18 -35 0 -46 -5 -79 -12 -86 -20 -20 -15 -31 9 -27 16 2 35
26 70 88 26 47 61 97 79 112 64 54 147 43 190 -25 29 -45 22 -126 -17 -203
-16 -32 -30 -62 -32 -66 -2 -4 8 -14 21 -22 22 -15 28 -14 88 10 81 33 177 38
207 10 36 -32 43 -100 17 -161 -18 -44 -83 -104 -127 -117 -31 -9 -38 -16 -39
-37 -2 -88 -36 -187 -86 -249 l-18 -22 -68 19 c-37 10 -71 22 -74 25 -4 4 -1
21 7 39 7 18 15 55 17 83 4 46 2 55 -27 87 -26 30 -29 39 -20 57 19 35 17 150
-4 193 -21 42 -80 82 -138 92 -29 5 -42 2 -66 -15 -30 -22 -58 -68 -47 -78 3
-3 5 0 5 6 0 7 15 26 33 43 28 27 37 30 76 26 53 -6 88 -31 115 -82 29 -56 29
-120 0 -173 l-23 -43 35 -32 c23 -22 37 -44 41 -70 5 -33 2 -42 -22 -68 -16
-16 -34 -29 -40 -29 -11 0 -147 83 -179 110 -110 92 -186 193 -186 248 0 12
-4 23 -9 26 -5 3 -12 26 -15 51 -4 24 -11 47 -15 50 -10 5 -22 105 -23 181 0
56 22 117 54 151 44 47 148 53 189 12 36 -36 32 -13 -4 25 -30 31 -40 36 -81
36 -91 0 -152 -46 -182 -138 -13 -43 -16 -75 -11 -160 5 -97 33 -232 56 -273
9 -15 -33 -128 -55 -148 -16 -15 -135 -19 -141 -5 -2 7 3 42 12 78 24 93 25
106 32 241 8 159 -16 322 -62 430 -7 17 -21 48 -30 70 -9 22 -36 74 -61 116
-24 42 -44 80 -44 86 0 5 11 23 25 39 14 16 25 32 25 36 0 4 -63 41 -139 83
-111 61 -140 81 -145 102 -4 14 -5 28 -2 30 3 3 90 -39 193 -93 103 -54 217
-112 253 -130 561 -275 1033 -516 1350 -691 41 -23 104 -53 140 -66 36 -14
144 -63 240 -109 96 -47 196 -90 222 -97 26 -7 55 -21 65 -30 43 -40 89 -59
138 -59 28 1 57 -1 65 -3 9 -3 25 17 46 56 18 36 39 61 50 63 10 2 23 8 28 13
6 5 20 9 32 9 13 0 26 5 29 10 4 6 10 8 15 5 4 -3 37 0 72 5 34 6 90 12 123
14 33 2 67 7 76 10 8 4 28 2 43 -4 17 -6 33 -7 40 -1 9 7 130 8 161 0 6 -1 18
1 28 6 10 4 30 2 47 -5 24 -10 29 -17 24 -35 -4 -15 0 -24 10 -28 9 -4 16 -15
16 -26 0 -13 15 -29 45 -46 38 -23 51 -25 92 -19 30 4 53 14 62 26 7 11 24 23
36 28 17 7 41 44 86 135 51 103 69 131 100 152 21 14 45 36 54 50 9 13 22 22
28 20 15 -5 65 69 114 168 21 43 50 87 66 99 16 11 47 53 69 92 23 40 51 77
64 83 22 10 72 93 79 130 1 9 5 34 9 56 4 22 13 54 20 70 8 17 22 50 31 75 9
25 21 52 26 60 5 8 13 24 18 36 5 12 25 45 44 75 34 55 102 185 130 250 8 19
13 47 10 61 -3 14 0 42 6 64 6 22 7 42 2 47 -17 17 -1 54 209 451 32 61 99
197 149 301 49 105 107 222 128 260 78 143 150 310 158 365 4 30 16 75 27 100
10 25 21 57 23 72 5 40 64 160 90 183 13 11 40 52 60 90 20 39 51 84 69 100
18 17 43 57 56 90 13 33 30 67 37 76 7 8 13 20 13 26 0 5 8 17 19 27 28 25 55
92 46 113 -5 10 -7 24 -6 31 1 8 -3 19 -8 26 -8 9 -8 23 0 45 9 24 9 35 0 44
-6 6 -11 21 -11 33 0 12 -6 27 -13 33 -29 23 -227 120 -331 160 -100 39 -179
80 -233 122 -38 28 -205 97 -253 104 -24 4 -74 24 -111 46 -37 21 -71 39 -75
39 -24 0 -288 132 -319 159 -23 21 -84 53 -135 72 -103 38 -237 109 -257 137
-23 32 -124 93 -195 118 -62 22 -309 163 -338 194 -14 15 -88 58 -165 96 -92
46 -153 83 -180 110 -47 47 -98 81 -215 142 -47 24 -123 65 -170 90 -47 25
-101 54 -120 64 -28 14 -38 28 -49 64 -14 46 -16 48 -100 86 -47 21 -99 45
-114 53 -50 26 -85 20 -108 -20 -19 -32 -25 -35 -65 -35 -28 0 -64 10 -96 26
-40 20 -61 25 -92 21 -25 -4 -50 0 -67 9 -20 10 -35 11 -52 5 -14 -6 -27 -7
-30 -4 -3 3 -23 5 -44 5 -21 -1 -62 6 -91 14 -29 8 -62 12 -73 9 -10 -4 -45 3
-78 15 -32 11 -65 18 -74 14 -8 -3 -29 2 -46 11 -17 8 -57 17 -89 19 -31 2
-76 12 -99 21 -24 9 -50 15 -58 12 -8 -4 -40 3 -72 14 -32 12 -72 21 -90 20
-17 0 -57 10 -89 23 -42 17 -62 21 -74 14 -12 -8 -26 -5 -51 7 -19 10 -59 20
-89 21 -30 2 -81 12 -112 23 -31 11 -65 17 -76 14 -11 -2 -33 2 -49 11 -67 34
-131 53 -147 44z m36 -252 c73 -35 159 -68 190 -74 37 -7 127 -46 250 -108
106 -53 198 -100 203 -104 6 -5 119 -62 251 -129 169 -84 249 -129 265 -150
34 -42 79 -66 809 -433 360 -182 696 -352 745 -378 141 -76 465 -220 520 -232
28 -6 61 -16 75 -23 44 -22 213 -96 280 -122 94 -37 101 -39 150 -51 25 -6 89
-31 143 -56 75 -36 97 -51 97 -66 0 -11 9 -29 19 -39 25 -25 24 -79 -2 -106
-11 -11 -32 -40 -48 -65 -15 -25 -43 -59 -61 -76 -31 -29 -168 -262 -168 -285
0 -5 -9 -27 -20 -47 -79 -149 -139 -290 -138 -328 0 -23 -5 -50 -11 -62 -6
-11 -8 -34 -5 -50 5 -23 -9 -58 -67 -172 -62 -120 -73 -151 -74 -194 0 -28 -4
-56 -8 -62 -4 -7 0 -17 8 -24 13 -10 12 -16 -1 -43 -13 -24 -14 -35 -5 -49 16
-26 14 -38 -18 -109 -16 -38 -30 -89 -34 -125 -4 -49 -14 -77 -47 -134 -46
-78 -64 -127 -50 -135 12 -7 0 -39 -38 -101 -17 -27 -73 -142 -126 -256 -120
-260 -171 -351 -227 -409 -53 -55 -142 -228 -159 -313 -15 -73 -29 -106 -46
-106 -7 0 -29 -20 -50 -45 -20 -25 -41 -45 -48 -45 -6 0 -30 -38 -54 -84 -59
-117 -105 -155 -84 -70 6 22 9 73 7 114 -3 57 1 85 15 118 12 26 17 54 14 71
-3 15 1 44 10 65 9 21 16 53 16 70 0 17 4 47 10 65 6 22 6 39 0 46 -5 7 -8 14
-6 16 3 2 7 30 10 62 3 45 19 87 67 185 49 99 63 137 64 177 3 62 52 164 94
194 16 12 43 45 60 74 17 29 42 66 57 82 14 17 36 53 49 80 12 28 39 74 59
104 20 29 39 65 42 80 4 14 12 31 20 37 7 6 17 19 21 30 17 39 68 113 80 114
20 0 72 81 133 205 57 118 58 121 59 210 1 89 1 89 65 220 136 276 170 351
172 375 4 50 23 98 103 261 44 91 81 170 81 176 0 19 24 31 69 37 24 2 48 9
54 15 6 6 19 11 28 11 23 0 30 24 23 71 -8 49 -52 99 -88 99 -14 0 -61 18
-104 40 -42 22 -171 86 -287 143 -115 57 -327 162 -470 234 -143 71 -298 147
-345 168 -47 20 -93 42 -104 47 -10 5 -33 11 -50 13 -36 3 -115 41 -262 126
-55 31 -135 74 -178 94 -43 20 -106 56 -140 80 -34 24 -111 69 -172 101 -103
54 -205 121 -219 143 -15 25 -177 102 -234 112 -40 7 -83 25 -128 53 -37 23
-84 48 -103 55 -19 8 -49 27 -66 43 -32 30 -128 81 -526 282 -223 112 -250
124 -278 116 -17 -5 -37 -7 -44 -4 -6 2 -23 -7 -35 -20 -13 -14 -28 -23 -33
-20 -17 11 -40 -20 -84 -108 -23 -49 -58 -103 -77 -121 -41 -38 -141 -236
-131 -260 3 -10 -8 -46 -25 -83 -17 -37 -29 -69 -27 -72 3 -2 1 -13 -5 -23 -8
-16 -15 -60 -21 -139 0 -8 2 -22 6 -31 4 -10 -24 -77 -74 -179 -55 -110 -82
-177 -84 -204 -1 -26 -20 -76 -48 -131 -26 -50 -61 -123 -79 -163 -19 -43 -46
-85 -64 -100 -38 -32 -109 -159 -271 -486 -79 -159 -133 -255 -161 -286 -44
-49 -53 -65 -169 -287 -62 -119 -72 -146 -63 -161 9 -15 5 -36 -23 -108 -20
-49 -41 -113 -48 -142 -7 -29 -18 -59 -26 -67 -23 -22 -36 -67 -24 -79 16 -16
12 -56 -12 -95 -12 -20 -25 -38 -29 -41 -4 -3 -15 -30 -24 -60 -9 -30 -26 -72
-37 -93 -11 -21 -17 -45 -14 -54 4 -9 -3 -40 -14 -69 -14 -38 -17 -60 -11 -77
13 -34 62 -72 118 -93 221 -81 285 -106 313 -123 8 -5 56 -28 105 -52 50 -23
111 -57 137 -75 26 -19 64 -40 85 -49 20 -9 40 -19 43 -23 17 -25 104 -75 343
-196 147 -75 273 -136 279 -136 23 0 189 -103 207 -129 20 -28 264 -169 337
-195 97 -34 144 -65 216 -143 18 -20 189 -108 333 -172 107 -48 970 -480 1069
-536 45 -25 80 -38 102 -37 39 2 39 1 19 -38 -19 -36 -69 -49 -111 -27 -16 8
-56 20 -89 27 -38 8 -127 47 -255 113 -107 55 -230 118 -272 139 -43 20 -97
55 -120 76 -24 21 -128 83 -233 137 -183 95 -264 147 -265 171 0 6 -32 28 -71
49 -54 28 -83 37 -116 37 -41 -1 -100 19 -113 38 -8 11 -123 70 -137 70 -17 0
-83 32 -83 41 0 14 -105 51 -154 54 -71 4 -296 114 -296 145 0 14 -199 125
-295 164 -49 21 -105 44 -123 52 -18 8 -39 14 -48 14 -8 0 -17 7 -20 15 -12
30 -176 109 -304 146 -89 26 -210 89 -210 109 0 24 -224 160 -263 160 -9 0
-29 11 -45 25 -17 14 -37 25 -45 25 -19 0 -69 39 -62 50 3 4 -15 20 -40 34
-43 26 -70 57 -59 69 3 3 -3 12 -15 19 -12 7 -21 23 -21 34 0 15 -9 25 -30 33
-20 6 -30 17 -30 30 0 11 -4 22 -9 25 -5 3 -8 37 -6 75 3 70 35 149 74 185 47
43 66 66 95 111 19 31 40 51 56 55 34 8 97 124 184 339 26 63 49 133 51 155 2
23 11 59 20 80 22 52 30 143 14 162 -9 11 -9 21 1 43 8 20 9 35 2 47 -7 13 -1
38 25 98 19 44 32 89 29 99 -2 10 2 37 10 59 8 22 14 60 14 84 0 23 5 55 11
71 6 15 11 45 10 66 -1 28 17 74 70 180 39 78 79 151 90 163 10 11 19 28 19
36 0 9 7 24 16 32 9 9 17 28 19 42 1 13 9 30 18 37 8 7 17 21 19 31 1 10 12
24 23 30 31 17 39 31 126 201 45 88 94 179 109 202 16 22 31 50 34 61 4 11 13
26 21 32 8 7 15 21 15 31 0 11 9 27 20 36 11 10 20 27 20 39 0 12 7 27 15 34
8 7 15 21 15 32 0 38 71 165 109 196 21 17 48 52 61 79 12 26 34 66 49 88 14
22 41 73 60 113 29 65 32 77 21 98 -11 20 -11 27 3 42 10 10 17 22 17 26 0 5
18 45 39 89 21 45 53 112 69 150 17 37 33 67 36 67 3 0 66 -29 138 -64z m684
-34 c15 -8 24 -8 32 0 12 12 67 -1 124 -29 21 -10 32 -11 46 -2 15 9 29 5 76
-20 46 -24 62 -28 73 -20 10 9 30 7 82 -10 37 -12 75 -19 84 -15 8 3 25 0 38
-6 12 -7 48 -14 79 -15 41 -2 71 -11 104 -30 34 -20 56 -26 79 -22 22 3 47 -3
80 -20 38 -20 56 -24 90 -19 37 6 52 1 121 -35 l78 -41 29 28 c16 15 29 33 29
40 0 7 5 16 11 19 13 9 93 -21 109 -41 7 -7 20 -14 30 -14 9 0 25 -9 34 -19
10 -11 28 -21 40 -23 11 -2 25 -13 31 -25 7 -16 18 -23 37 -23 21 0 28 -5 28
-20 0 -13 9 -22 28 -26 15 -4 32 -12 37 -18 11 -13 150 -86 180 -95 51 -15
184 -97 189 -116 3 -11 29 -36 58 -55 29 -19 59 -44 67 -54 24 -32 49 -49 138
-97 65 -34 91 -53 102 -77 13 -26 42 -45 160 -104 79 -40 165 -84 190 -97 26
-13 54 -35 63 -50 14 -24 130 -87 298 -162 30 -13 66 -34 80 -46 15 -12 64
-38 110 -59 46 -20 129 -61 184 -91 81 -45 304 -157 875 -441 54 -26 49 -39
-16 -44 -41 -4 -65 -1 -81 10 -19 12 -27 13 -46 3 -20 -11 -30 -10 -66 9 -36
18 -46 20 -65 10 -19 -10 -30 -9 -69 10 -31 16 -49 20 -58 13 -15 -11 -19 -10
-73 5 -22 6 -57 11 -77 10 -20 0 -42 3 -49 8 -7 4 -40 9 -73 11 -141 8 -166
15 -166 42 0 19 -43 61 -63 61 -21 0 -107 44 -107 55 0 38 -129 111 -175 99
-36 -9 -158 50 -1245 603 -195 99 -530 269 -745 378 -333 169 -399 206 -451
254 -33 31 -85 67 -115 81 -190 90 -649 324 -674 345 l-30 24 50 -13 c28 -7
60 -18 71 -24z m-511 -340 c119 -54 211 -105 247 -138 48 -43 84 -61 135 -66
31 -4 48 -13 71 -39 24 -28 167 -114 261 -158 104 -49 143 -73 183 -113 45
-44 249 -158 284 -158 31 0 94 -40 94 -60 0 -16 -5 -19 -24 -14 -18 4 -29 -1
-45 -22 -20 -25 -20 -29 -6 -50 14 -23 12 -31 -61 -164 -85 -156 -184 -371
-184 -399 0 -10 -7 -24 -15 -31 -9 -8 -13 -21 -9 -32 3 -11 -1 -34 -9 -52 -8
-17 -33 -69 -55 -116 -144 -299 -161 -341 -150 -359 8 -13 4 -30 -21 -77 -21
-41 -32 -79 -35 -118 -3 -41 -10 -64 -25 -80 -12 -12 -21 -27 -21 -33 0 -12
-31 -82 -97 -222 -24 -52 -48 -117 -54 -145 -6 -28 -20 -76 -33 -106 -18 -44
-22 -70 -20 -130 2 -41 -2 -88 -8 -105 -21 -53 -58 -105 -76 -105 -10 0 -30
-22 -50 -55 -18 -30 -41 -59 -51 -64 -10 -6 -35 -37 -56 -70 -27 -45 -44 -61
-60 -61 -17 0 -32 -20 -73 -94 -29 -51 -52 -100 -52 -108 0 -9 -9 -27 -20 -41
-11 -14 -20 -29 -20 -35 0 -5 -9 -17 -20 -27 -11 -10 -20 -14 -20 -10 0 4 -9
0 -20 -10 -11 -10 -20 -23 -20 -30 0 -6 -6 -19 -13 -29 -13 -17 -16 -17 -68
10 -101 51 -110 54 -126 45 -11 -6 -36 1 -80 21 -56 26 -67 29 -92 18 -25 -10
-35 -8 -72 10 -35 18 -49 20 -74 12 -26 -7 -37 -6 -56 9 -18 14 -34 18 -61 13
-30 -4 -52 2 -113 31 -50 24 -83 34 -96 30 -12 -4 -41 1 -65 10 -26 10 -56 14
-69 11 -15 -4 -38 0 -56 10 -21 10 -43 14 -66 9 -21 -4 -40 -2 -49 6 -8 7 -40
13 -72 13 -31 1 -62 5 -69 9 -21 13 -26 66 -9 92 19 28 21 66 5 82 -8 8 -7 17
2 34 23 42 36 88 28 96 -10 10 8 82 26 103 29 33 108 225 111 269 2 37 45 130
217 471 209 414 231 463 240 525 9 57 20 90 39 114 10 13 18 32 18 42 0 10 4
21 10 24 5 3 18 26 30 51 11 27 28 48 40 51 39 10 135 197 150 291 5 30 23 83
41 118 24 51 30 72 25 100 -6 27 0 49 25 102 17 37 35 70 41 73 16 10 25 63
14 81 -7 13 -6 27 7 54 11 23 14 40 8 48 -5 6 -9 41 -10 77 -1 64 2 72 99 270
55 112 100 211 100 221 0 26 64 93 92 96 13 1 50 -11 83 -26z m1490 -788 c39
-14 151 -67 250 -117 139 -70 193 -93 237 -98 42 -5 91 -24 180 -70 68 -34
148 -74 178 -88 30 -14 131 -63 224 -109 175 -86 232 -110 278 -117 14 -2 35
-8 45 -14 22 -12 202 -98 376 -180 168 -79 191 -95 182 -130 -4 -14 -7 -32 -6
-38 0 -7 1 -23 2 -35 1 -13 -25 -79 -58 -148 -92 -194 -95 -201 -84 -214 6 -8
-21 -74 -84 -206 -134 -279 -145 -304 -145 -316 0 -6 -7 -17 -15 -24 -8 -7
-15 -27 -15 -46 0 -18 -4 -35 -9 -38 -10 -6 -19 -55 -26 -126 -6 -81 -53 -179
-113 -239 -29 -29 -60 -64 -69 -77 -8 -13 -23 -24 -32 -24 -15 0 -81 -86 -81
-105 0 -5 -6 -16 -14 -24 -8 -9 -30 -55 -50 -103 -49 -118 -71 -154 -106 -168
-17 -7 -30 -16 -30 -20 0 -4 -20 -29 -46 -54 -57 -58 -174 -292 -173 -346 1
-24 -19 -76 -66 -170 -57 -113 -68 -145 -71 -195 -7 -128 -12 -152 -42 -212
-20 -38 -32 -77 -32 -101 0 -52 -18 -102 -37 -102 -8 0 -28 11 -45 25 -16 14
-36 25 -45 25 -8 0 -90 35 -181 79 -92 43 -183 84 -202 90 -19 6 -43 20 -55
30 -33 31 -232 133 -725 374 -107 53 -205 105 -217 116 -12 12 -29 21 -36 21
-8 0 -22 11 -31 25 -9 14 -22 25 -28 25 -6 0 -34 11 -62 25 -49 24 -64 32
-103 55 -10 6 -29 15 -43 21 -14 6 -32 15 -40 19 -8 5 -44 24 -78 42 -46 24
-67 42 -77 63 -7 17 -24 39 -39 48 -33 22 -33 34 3 72 16 16 59 87 96 158 39
74 76 132 88 138 27 14 51 42 77 89 10 19 42 59 69 88 28 30 51 58 51 63 0 5
6 9 14 9 7 0 30 21 50 47 29 38 36 56 38 97 1 28 3 74 5 101 1 28 4 73 5 100
3 40 25 95 116 282 72 148 111 239 108 251 -4 10 7 56 23 103 16 46 32 102 37
124 4 22 32 90 62 150 66 133 122 262 115 269 -8 8 17 75 72 191 28 61 58 126
65 145 15 36 97 198 110 215 4 6 29 52 55 103 26 51 57 101 69 110 25 20 29
79 7 106 -14 16 -13 17 20 2 19 -8 66 -27 104 -42z m2615 -879 c25 -2 58 -8
73 -14 16 -6 39 -8 52 -5 13 3 41 0 62 -7 21 -7 57 -14 80 -15 24 -2 52 -8 63
-14 11 -6 30 -8 43 -5 13 4 47 -1 75 -10 29 -10 63 -14 77 -11 14 4 35 1 48
-6 12 -6 37 -11 55 -9 18 1 51 -4 75 -10 23 -6 60 -13 82 -14 80 -6 115 -17
115 -34 0 -23 -63 -145 -94 -182 -14 -17 -26 -39 -26 -49 0 -19 -68 -159 -91
-186 -7 -8 -18 -13 -25 -10 -15 6 -49 -46 -98 -148 -30 -63 -36 -87 -31 -114
10 -56 -101 -269 -156 -297 -36 -19 -274 -492 -264 -525 4 -13 -1 -38 -14 -65
-12 -25 -21 -49 -21 -53 0 -15 -71 -173 -120 -269 -29 -55 -44 -95 -39 -100 6
-6 -3 -36 -22 -77 -30 -63 -30 -68 -14 -86 16 -17 16 -20 -1 -45 -15 -22 -15
-30 -5 -47 10 -16 10 -24 -2 -41 -8 -12 -20 -47 -27 -77 -8 -30 -24 -67 -37
-81 -28 -31 -206 -374 -278 -536 -13 -28 -34 -57 -47 -64 -26 -14 -37 -26 -74
-81 -13 -21 -31 -38 -39 -38 -15 0 -69 -78 -93 -133 -6 -15 -23 -32 -37 -37
-15 -6 -32 -25 -41 -45 -9 -22 -21 -35 -32 -35 -20 0 -52 -31 -71 -67 -6 -13
-17 -20 -25 -17 -7 3 -22 -6 -33 -19 -10 -13 -35 -32 -55 -41 -34 -16 -39 -17
-60 -2 -26 18 -69 21 -85 5 -8 -8 -17 -8 -33 1 -17 9 -29 9 -46 1 -15 -6 -33
-7 -47 -2 -30 12 -137 -6 -159 -25 -9 -9 -21 -13 -26 -10 -5 3 -17 -1 -28 -8
-10 -8 -24 -12 -30 -9 -7 2 -15 0 -19 -6 -3 -6 -17 -11 -29 -11 -13 0 -29 -6
-35 -14 -7 -8 -21 -12 -31 -9 -12 3 -20 0 -20 -7 0 -8 -8 -10 -22 -7 -12 3
-30 1 -41 -4 -24 -13 -24 -16 33 105 35 73 52 97 74 108 18 8 40 32 56 63 15
27 39 56 54 65 26 14 91 119 137 220 11 25 34 71 51 103 20 39 31 78 34 115 4
68 65 198 100 214 12 6 31 22 41 37 37 49 143 289 143 322 0 31 34 107 181
404 44 88 59 131 59 161 0 22 4 44 9 50 19 21 38 99 28 115 -7 12 -3 30 16 70
30 63 33 77 22 103 -5 11 -3 33 5 55 16 44 20 141 7 159 -7 8 -6 21 2 38 6 14
11 42 11 63 0 23 21 85 56 167 31 71 56 142 56 158 -1 16 6 46 14 65 11 27 12
41 4 56 -20 38 15 151 112 356 93 195 102 211 151 260 25 24 62 77 83 117 33
64 41 73 60 68 15 -4 24 -1 28 10 4 12 13 14 29 9 12 -4 42 -9 67 -10z m-5060
-1994 c30 -12 60 -19 66 -17 6 2 38 -5 70 -16 32 -11 79 -21 104 -23 95 -7
156 -17 193 -31 21 -8 53 -14 71 -12 34 2 206 -75 206 -92 0 -6 6 -10 12 -10
7 0 36 -10 65 -22 l53 -22 28 27 c33 32 42 34 42 8 0 -25 16 -34 295 -175 170
-86 242 -128 275 -161 40 -39 249 -155 280 -155 6 0 22 -7 35 -16 13 -9 29
-13 35 -9 6 4 22 0 35 -9 13 -9 33 -16 44 -16 11 0 26 -7 35 -15 8 -8 21 -15
29 -15 8 0 25 -8 38 -19 13 -10 34 -21 46 -25 11 -4 27 -13 33 -21 7 -8 20
-15 30 -15 9 0 27 -9 40 -20 13 -11 28 -20 34 -20 22 0 116 -56 122 -72 3 -9
46 -39 95 -65 58 -31 92 -55 95 -69 3 -13 42 -40 116 -80 61 -32 112 -66 114
-74 7 -47 37 -91 74 -110 21 -11 46 -20 54 -20 28 0 28 -20 0 -68 -16 -26 -36
-64 -46 -84 -10 -21 -26 -38 -34 -38 -16 0 -402 195 -454 229 -14 9 -65 37
-114 61 -63 32 -95 54 -108 76 -17 30 -134 102 -223 139 -22 9 -56 33 -76 53
-36 37 -198 132 -269 157 -24 8 -41 10 -47 4 -18 -18 -133 41 -133 68 0 20
-50 49 -276 163 -120 61 -225 117 -233 124 -9 8 -29 18 -46 21 -44 11 -114 53
-165 101 -45 42 -370 218 -515 279 -101 43 -218 108 -223 124 -6 17 19 12 98
-18z m-92 -919 c28 -45 43 -85 56 -144 14 -63 85 -16 165 110 28 43 39 52 63
52 l28 0 -6 -53 c-10 -86 41 -157 112 -157 39 0 59 27 55 78 -1 17 2 32 6 32
19 0 104 -71 178 -148 35 -37 122 -197 150 -277 9 -27 21 -59 25 -70 35 -88
42 -361 15 -505 -3 -14 -7 -34 -9 -45 -9 -44 -59 -199 -82 -251 -31 -70 -107
-188 -153 -237 -84 -88 -222 -174 -322 -201 -30 -8 -66 -19 -80 -24 -25 -10
-255 -9 -294 1 -11 3 -38 10 -60 15 -94 25 -275 35 -364 20 -66 -12 -76 -4
-59 47 11 33 19 41 53 50 47 12 96 38 114 59 10 12 6 22 -24 55 -34 38 -36 43
-29 87 l7 48 -49 -41 c-134 -109 -235 -100 -299 28 -56 109 -14 162 135 172
58 4 119 30 158 67 12 11 22 22 22 24 0 2 -19 16 -42 32 -154 105 -283 259
-326 390 -32 99 -37 141 -15 152 50 27 228 30 312 6 30 -8 64 -13 77 -10 28 7
102 89 164 181 55 83 170 295 225 417 22 48 45 88 52 88 6 0 24 -21 41 -48z
m1184 -1271 c151 -132 372 -261 473 -276 11 -2 39 -7 62 -10 54 -9 65 10 33
55 l-22 31 20 42 c18 37 21 39 28 22 4 -11 10 -22 14 -25 14 -11 60 -115 60
-134 -1 -33 -44 -131 -97 -218 -58 -96 -156 -193 -210 -207 -112 -29 -145 -21
-258 58 -33 23 -61 37 -63 32 -2 -6 12 -30 31 -53 46 -57 194 -278 245 -364
89 -153 85 -143 66 -173 -33 -51 -119 -157 -166 -203 -26 -27 -45 -48 -42 -48
11 0 -137 -127 -221 -190 -100 -74 -201 -140 -214 -140 -5 0 -11 -3 -13 -8 -3
-7 -50 -28 -126 -56 -18 -7 -38 -18 -44 -24 -7 -7 -20 -12 -31 -12 -10 0 -26
-4 -35 -9 -9 -5 -30 -11 -47 -14 -16 -3 -41 -9 -55 -15 -71 -30 -320 -46 -460
-31 -99 11 -293 55 -332 75 -16 8 -28 12 -28 10 0 -4 -132 51 -202 84 -33 15
-38 35 -31 113 4 51 12 71 53 131 26 39 68 93 94 120 46 50 55 66 36 66 -13 0
-204 -191 -320 -319 -188 -209 -190 -211 -247 -211 -41 0 -60 6 -99 33 -26 18
-49 38 -51 44 -6 18 57 47 70 34 31 -31 40 -2 17 54 -4 11 -16 43 -26 70 -10
28 -30 72 -46 98 -15 26 -28 51 -28 56 0 20 -133 195 -202 265 -60 61 -75 82
-69 95 18 33 351 347 414 390 12 8 24 17 27 21 3 3 39 28 80 56 140 95 248
129 399 126 67 -1 133 -15 231 -49 64 -22 83 -35 127 -84 92 -100 198 -156
334 -177 79 -12 235 16 321 57 84 40 168 129 199 210 51 134 26 369 -48 453
-14 15 -13 22 3 61 l18 43 92 2 92 3 11 -34 c13 -37 66 -105 75 -96 4 3 -3 27
-14 53 -11 26 -20 59 -20 72 0 33 41 114 57 114 3 0 41 -31 85 -69z m-507
-331 c14 -23 6 -151 -13 -193 -25 -57 -52 -81 -131 -119 -56 -27 -72 -30 -125
-26 -70 6 -139 35 -144 61 -2 9 3 17 11 17 15 0 214 98 237 117 66 54 103 90
121 119 21 35 33 41 44 24z m-1919 -956 c110 -131 264 -394 264 -451 0 -24
-14 -31 -25 -13 -4 6 -19 -7 -36 -29 -15 -22 -37 -45 -48 -50 -24 -13 -95 -14
-139 -2 -22 7 -36 6 -44 -2 -7 -7 -26 -22 -42 -35 -16 -12 -24 -22 -17 -22 16
0 14 -43 -5 -90 -20 -49 -55 -75 -112 -84 -39 -6 -46 -3 -73 24 -26 26 -30 36
-28 80 4 71 10 77 55 46 44 -29 89 -33 122 -10 28 19 30 39 3 24 -25 -13 -72
-13 -105 0 -14 5 -39 30 -55 56 -37 60 -33 97 16 143 20 19 29 31 19 28 -10
-4 -24 -7 -32 -7 -8 0 -26 -24 -39 -52 -13 -29 -37 -69 -53 -88 -27 -31 -35
-35 -80 -35 -129 0 -155 103 -62 243 38 56 166 194 220 237 105 82 179 122
251 134 3 1 23 -20 45 -45z m2860 -46 c77 -84 256 -323 376 -502 75 -112 90
-122 193 -118 78 2 85 1 99 -21 9 -13 13 -35 10 -52 -6 -36 -53 -107 -65 -99
-15 9 -140 6 -152 -4 -7 -5 -27 -14 -45 -20 -45 -15 -126 -71 -196 -134 -32
-29 -74 -67 -94 -85 -19 -17 -47 -37 -61 -43 -14 -7 -33 -16 -41 -20 -23 -11
-118 -37 -200 -54 -174 -38 -383 -37 -435 1 -6 5 -29 40 -52 78 -89 152 -133
230 -133 237 0 3 26 19 58 34 31 15 84 49 117 75 57 45 159 151 179 188 5 9
13 18 17 21 12 8 22 60 12 60 -5 0 -25 -22 -46 -50 -43 -58 -119 -118 -197
-155 -30 -14 -62 -30 -70 -34 -8 -4 -39 -14 -69 -22 -42 -11 -58 -20 -70 -42
-97 -176 -223 -297 -408 -391 -63 -31 -96 -33 -131 -5 -15 11 -28 16 -30 11
-1 -5 13 -41 33 -80 34 -69 35 -74 20 -102 -17 -32 -51 -54 -103 -64 -29 -5
-41 0 -90 38 -115 89 -211 122 -415 141 -36 3 -200 -21 -225 -34 -106 -53
-149 -77 -166 -93 -34 -32 -56 -41 -56 -23 0 15 -4 25 -28 72 -7 13 -12 32
-12 42 0 11 -5 23 -10 26 -6 4 -8 15 -5 26 3 10 1 45 -5 77 -10 50 -10 64 3
88 17 31 91 105 225 224 78 70 84 73 107 60 14 -7 27 -11 30 -8 3 3 2 32 -4
65 -10 66 0 143 24 180 l15 23 53 -36 c84 -58 198 -107 322 -138 134 -33 398
-41 545 -16 30 5 71 12 90 15 19 3 53 11 75 16 22 6 60 15 84 20 25 5 48 15
53 22 4 6 8 9 8 5 0 -9 103 28 174 63 130 64 291 175 386 265 25 23 54 51 65
61 11 10 47 50 80 88 33 39 62 72 66 75 3 3 15 22 28 43 12 20 26 37 30 37 4
0 21 -15 37 -32z m-3169 -509 c4 -26 -12 -56 -50 -96 -42 -45 -91 -45 -136 -3
-45 44 -41 54 22 46 46 -6 57 -4 83 16 16 12 37 33 48 46 20 25 28 23 33 -9z
m3914 -366 c53 -24 94 -64 121 -117 18 -34 19 -44 8 -79 -22 -74 -128 -155
-255 -196 -142 -46 -161 -51 -230 -62 -83 -13 -268 -21 -291 -12 -22 8 -12 53
33 156 85 194 196 295 358 326 76 15 204 7 256 -16z m-670 -295 c-30 -55 -46
-108 -43 -143 1 -11 -2 -26 -6 -33 -11 -16 -142 -27 -142 -12 0 6 6 10 14 10
21 0 46 45 46 84 0 22 -9 45 -26 65 -25 30 -25 31 -5 31 11 0 38 6 58 14 139
50 141 49 104 -16z m-202 -23 c77 -39 45 -153 -39 -139 -59 10 -96 55 -85 103
10 47 70 64 124 36z m-159 -46 c0 -32 38 -90 69 -105 l24 -12 -24 -4 c-30 -4
-186 19 -217 32 -20 9 -22 15 -18 57 2 27 5 50 5 53 1 3 37 5 81 5 79 0 80 0
80 -26z m-2212 -33 c-5 -38 -1 -48 23 -74 16 -17 29 -36 29 -43 0 -15 -73
-168 -81 -168 -13 -2 -38 77 -45 139 -13 110 -11 138 9 152 11 7 26 18 35 25
29 21 35 15 30 -31z m667 -6 c76 -12 95 -17 149 -45 62 -32 81 -48 124 -101
72 -93 21 -162 -180 -242 -36 -15 -181 -49 -238 -57 -135 -18 -284 -8 -385 26
-67 22 -99 45 -120 85 -13 26 -12 32 17 83 31 58 108 137 168 176 45 28 153
67 205 73 22 2 42 6 45 9 7 6 157 1 215 -7z"/>
<path d="M3145 5109 c-33 -19 -45 -41 -45 -84 0 -130 154 -210 208 -108 16 30
15 88 -3 123 -30 57 -115 94 -160 69z"/>
<path d="M3647 4964 c-4 -4 -7 -20 -7 -36 0 -47 -28 -100 -81 -154 l-51 -51
31 -6 c56 -11 137 42 156 104 15 46 -25 166 -48 143z"/>
<path d="M3804 4628 c-9 -17 -55 -70 -103 -118 -122 -122 -211 -161 -367 -162
-97 0 -142 15 -146 50 -4 34 -50 62 -75 46 -10 -6 -22 -23 -27 -37 -12 -32 11
-62 53 -70 18 -4 41 -24 69 -60 43 -57 124 -130 182 -164 120 -70 292 -36 345
68 19 36 19 82 0 189 -14 80 -14 86 3 110 36 48 104 180 93 180 -6 0 -18 -14
-27 -32z m-204 -426 c70 -35 77 -61 22 -85 -70 -31 -169 -17 -244 35 -38 26
-35 43 10 56 96 29 144 28 212 -6z"/>
</g>
</svg>
