<?xml version="1.0" standalone="no"?>
<!DOCTYPE svg PUBLIC "-//W3C//DTD SVG 20010904//EN"
 "http://www.w3.org/TR/2001/REC-SVG-20010904/DTD/svg10.dtd">
<svg version="1.0" xmlns="http://www.w3.org/2000/svg"
 width="1027.000000pt" height="895.000000pt" viewBox="0 0 1027.000000 895.000000"
 preserveAspectRatio="xMidYMid meet">
<metadata>
Created by potrace 1.16, written by Peter Selinger 2001-2019
</metadata>
<g transform="translate(0.000000,895.000000) scale(0.100000,-0.100000)"
fill="#000000" stroke="none">
<path d="M3992 7843 c-30 -12 -32 -17 -32 -61 0 -47 -1 -48 -47 -69 -33 -15
-73 -23 -127 -25 -68 -3 -81 -6 -94 -26 -11 -17 -24 -22 -54 -22 -28 0 -49 -7
-70 -25 -16 -14 -38 -25 -48 -25 -10 0 -34 -9 -52 -19 -18 -11 -58 -23 -88
-27 -34 -4 -60 -14 -67 -24 -9 -12 -34 -19 -85 -24 -40 -4 -80 -13 -88 -20 -8
-8 -42 -16 -75 -20 -32 -4 -62 -11 -65 -16 -9 -14 -50 -27 -115 -35 -33 -4
-67 -12 -75 -19 -8 -7 -51 -18 -95 -25 -45 -6 -83 -17 -87 -25 -5 -8 -37 -16
-88 -20 -56 -5 -82 -12 -88 -23 -6 -10 -34 -18 -87 -24 -53 -6 -85 -14 -99
-27 -15 -14 -43 -21 -95 -26 -43 -4 -79 -12 -85 -20 -7 -9 -45 -16 -111 -20
-83 -5 -103 -10 -117 -26 -9 -11 -22 -20 -28 -20 -14 0 -54 -40 -70 -70 -6
-11 -16 -20 -23 -20 -7 -1 -22 -17 -35 -36 -21 -34 -22 -72 -2 -99 5 -5 11
-50 15 -100 4 -49 13 -101 20 -115 7 -14 12 -56 11 -95 -1 -38 2 -117 7 -175
21 -237 11 -504 -20 -523 -17 -11 -16 -35 2 -54 14 -14 14 -17 0 -32 -19 -22
-19 -47 0 -55 22 -8 23 -391 1 -399 -11 -5 -14 -42 -15 -193 -1 -103 -4 -190
-6 -195 -3 -4 -8 -104 -11 -221 -5 -170 -10 -219 -23 -243 -13 -25 -16 -62
-16 -208 0 -131 3 -180 12 -185 14 -9 28 -79 39 -192 4 -45 12 -79 20 -85 10
-7 16 -55 23 -178 7 -132 12 -172 25 -186 9 -10 16 -34 16 -54 0 -26 6 -40 22
-51 22 -16 22 -18 20 -273 -3 -225 -5 -258 -20 -269 -13 -9 -17 -34 -20 -115
-2 -68 -8 -108 -16 -114 -7 -5 -19 -35 -26 -65 -8 -30 -21 -61 -29 -68 -13
-10 -17 -40 -20 -139 -3 -111 -1 -128 16 -152 10 -14 25 -46 33 -71 8 -25 20
-49 27 -53 7 -4 13 -26 13 -48 0 -32 4 -42 19 -46 14 -3 21 -17 26 -50 5 -34
16 -54 50 -89 24 -24 53 -44 65 -44 13 0 24 -9 30 -25 5 -14 16 -25 24 -25 8
0 19 -6 23 -13 11 -19 68 -37 115 -37 43 0 108 23 108 39 0 5 9 13 21 16 11 4
24 18 29 31 9 22 14 24 82 24 170 -1 448 -20 513 -35 79 -19 221 -17 433 6
116 12 125 12 170 -6 46 -19 81 -20 1272 -21 674 -1 1331 -6 1460 -12 129 -6
238 -8 243 -5 13 8 629 27 779 24 119 -2 127 -1 138 19 7 12 21 20 38 20 49 0
55 11 54 98 -2 71 0 81 17 87 10 3 21 15 24 26 3 11 15 23 26 26 12 3 21 11
21 18 0 7 14 15 30 19 17 3 30 11 30 19 0 7 16 19 35 26 19 7 40 21 45 32 6
10 16 19 23 19 7 0 20 9 30 20 9 11 26 20 37 20 11 0 30 11 42 25 14 16 32 25
51 25 19 0 38 9 53 25 13 14 34 25 48 25 15 0 30 8 36 20 7 13 21 20 40 20 28
0 60 22 60 41 0 5 17 9 38 9 32 0 41 -5 50 -25 6 -14 17 -25 24 -25 7 0 19 -9
26 -20 10 -17 23 -20 76 -20 73 0 96 6 96 25 0 8 10 15 22 17 15 2 24 13 31
38 5 19 15 42 23 51 11 12 14 53 14 183 0 141 3 173 17 197 10 16 20 29 24 29
4 0 10 20 13 45 5 28 12 45 21 45 18 0 25 54 29 215 1 100 6 136 18 155 11 16
19 60 24 125 5 66 12 103 21 110 7 6 16 39 20 77 5 54 2 79 -15 125 -29 83
-47 324 -31 416 5 27 9 119 10 204 0 151 0 156 -25 192 -14 20 -26 46 -26 57
0 35 -12 64 -26 64 -8 0 -15 10 -15 23 -1 12 -3 387 -4 832 l-3 810 -26 69
c-18 46 -26 88 -26 130 0 34 -5 67 -11 73 -15 15 -15 201 0 216 6 6 11 48 11
102 0 58 6 111 17 146 11 37 17 94 18 179 1 69 6 153 10 187 8 61 7 62 -19 74
-14 7 -26 18 -26 26 0 7 -9 22 -20 33 -11 11 -20 31 -20 45 0 15 -9 31 -25 41
-14 9 -25 22 -25 30 0 7 -16 16 -34 20 -40 7 -425 -2 -501 -12 -27 -4 -114 -1
-191 6 -145 13 -300 4 -329 -20 -15 -13 -395 -17 -712 -8 -43 1 -153 0 -244
-3 -112 -3 -170 0 -180 7 -29 23 -71 26 -365 29 -247 2 -306 6 -325 18 -19 12
-71 16 -239 19 -167 4 -223 9 -250 21 -66 29 -125 34 -524 37 -165 2 -179 4
-183 21 -3 10 -13 21 -23 24 -10 3 -21 13 -24 21 -5 13 -29 15 -154 13 -93 -2
-160 -8 -180 -16z m364 -167 c34 -1 56 -7 68 -19 17 -16 20 -16 35 -2 22 19
37 19 45 0 4 -11 18 -15 48 -14 24 1 147 1 274 0 214 -1 232 -3 248 -20 13
-14 38 -22 84 -26 37 -4 87 -16 112 -28 36 -17 69 -21 170 -24 111 -2 128 -5
155 -25 29 -22 38 -23 279 -26 220 -2 252 -4 269 -20 18 -16 74 -17 755 -20
1271 -5 1277 -5 1277 -21 0 -8 -13 -19 -30 -24 -16 -5 -39 -18 -50 -28 -15
-13 -30 -17 -55 -13 -30 5 -36 2 -45 -18 -9 -20 -18 -23 -74 -26 -52 -3 -64
-6 -68 -22 -6 -22 -58 -36 -97 -26 -18 4 -31 0 -44 -14 -20 -22 -71 -40 -112
-40 -14 0 -33 -8 -42 -19 -10 -12 -36 -21 -73 -26 -37 -4 -62 -13 -73 -26 -11
-12 -29 -19 -55 -19 -24 0 -40 -5 -43 -15 -4 -10 -20 -15 -50 -15 -32 0 -44 4
-44 15 0 9 -9 15 -23 15 -13 0 -29 6 -35 12 -10 10 -17 10 -32 0 -34 -21 -110
-14 -165 14 -44 23 -58 25 -118 20 -40 -4 -75 -12 -84 -21 -8 -8 -25 -18 -37
-21 -13 -3 -698 -4 -1522 -1 l-1499 4 -43 23 -44 23 -498 1 c-274 1 -502 4
-506 9 -13 13 3 19 68 24 47 4 67 11 79 25 14 18 68 29 182 37 4 1 7 8 7 16 0
12 15 15 74 15 65 0 78 3 101 24 19 18 42 26 92 31 42 4 77 14 92 26 13 11 40
19 60 19 20 0 52 10 71 21 28 17 52 22 123 23 73 1 90 4 98 19 8 14 24 17 84
17 67 0 77 3 101 27 26 26 31 27 123 25 53 -1 101 2 106 6 17 12 35 61 35 97
0 31 3 34 33 38 17 2 61 2 97 -1 36 -3 88 -6 116 -6z m4044 -351 c8 -10 10
-47 6 -132 -3 -65 -5 -125 -6 -133 0 -8 2 -71 4 -139 4 -120 4 -124 -20 -146
-23 -22 -24 -27 -24 -170 0 -144 1 -148 25 -170 24 -23 24 -25 22 -177 -2
-139 -4 -157 -24 -191 -23 -37 -23 -44 -23 -352 0 -305 1 -315 20 -325 15 -8
20 -20 19 -48 -1 -20 3 -95 9 -167 6 -71 11 -183 11 -247 -1 -96 2 -121 15
-134 10 -10 14 -24 10 -36 -3 -11 -3 -46 1 -77 6 -50 11 -60 32 -70 20 -9 24
-17 20 -39 -6 -31 8 -62 27 -62 10 0 14 -17 14 -65 0 -36 5 -80 12 -99 7 -23
7 -41 0 -60 -6 -17 -10 -169 -10 -401 0 -302 -3 -376 -13 -382 -15 -9 -37 -86
-37 -130 0 -16 -9 -36 -20 -46 -20 -17 -22 -33 -24 -178 -1 -29 -7 -52 -18
-63 -12 -12 -18 -33 -18 -67 0 -38 -4 -51 -17 -56 -26 -10 -33 -23 -33 -68 0
-45 -7 -58 -32 -68 -11 -4 -18 -17 -18 -31 0 -35 -10 -56 -26 -56 -8 0 -14 -9
-14 -20 0 -17 -7 -20 -39 -20 -50 0 -91 -15 -91 -34 0 -16 -21 -26 -55 -26
-14 0 -29 -8 -34 -19 -6 -10 -26 -22 -45 -25 -19 -4 -39 -13 -46 -21 -7 -8
-19 -15 -26 -15 -8 0 -22 -9 -31 -20 -10 -11 -23 -20 -30 -20 -8 0 -16 -13
-19 -30 -4 -16 -11 -30 -16 -30 -13 0 -78 -65 -78 -79 0 -6 -9 -11 -20 -11
-12 0 -22 -9 -26 -24 -3 -13 -14 -26 -25 -29 -10 -3 -19 -12 -19 -21 0 -9 -8
-16 -20 -16 -10 0 -24 -9 -30 -20 -22 -41 -30 -7 -29 121 1 120 3 130 22 144
18 13 22 27 25 93 3 59 9 82 24 98 17 20 19 39 21 220 3 238 -5 331 -29 349
-15 11 -18 30 -18 130 -1 105 1 118 19 131 19 14 20 27 20 217 0 170 -3 208
-17 237 -15 30 -18 80 -22 348 -5 297 -6 315 -26 348 -12 18 -19 38 -15 44 12
20 -7 122 -26 138 -14 12 -19 30 -19 67 0 83 -10 125 -30 125 -21 0 -30 27
-30 93 0 33 -4 47 -14 47 -7 0 -19 19 -26 44 -8 28 -19 46 -31 49 -14 4 -19
14 -19 37 0 17 -9 49 -20 72 -15 31 -22 78 -30 206 -8 113 -16 172 -26 186 -7
11 -14 39 -14 61 0 45 -7 58 -32 68 -10 3 -18 15 -18 26 0 11 -7 41 -16 67
-11 33 -18 110 -24 263 -8 244 1 407 24 425 12 8 16 37 18 121 3 105 4 110 25
113 14 2 23 11 25 25 2 18 11 23 43 25 22 2 45 10 51 18 6 8 38 19 70 25 32 6
63 16 69 23 5 7 37 19 70 25 33 7 70 19 82 27 12 8 43 14 67 14 35 0 48 5 56
20 6 11 21 20 35 20 42 0 127 24 132 37 3 7 21 13 43 13 22 0 48 8 63 20 15
12 51 25 82 30 31 5 67 18 82 30 17 13 41 20 69 20 24 0 44 5 44 10 0 15 16
12 30 -5z m-1353 -345 c15 -17 36 -30 50 -30 15 0 23 -6 23 -17 0 -9 7 -25 17
-35 13 -15 14 -23 5 -41 -6 -12 -16 -58 -21 -102 -6 -44 -16 -96 -24 -115 -19
-47 -26 -257 -18 -561 5 -209 9 -250 22 -265 9 -11 20 -39 24 -64 4 -25 15
-53 24 -64 13 -15 16 -44 17 -170 1 -256 1 -264 24 -271 15 -5 20 -15 20 -40
0 -24 6 -38 20 -45 13 -7 20 -21 20 -40 0 -19 10 -40 30 -60 29 -29 30 -34 30
-119 0 -63 4 -92 14 -100 24 -20 36 -95 36 -222 0 -96 3 -126 15 -139 14 -15
16 -78 18 -471 2 -432 1 -456 -18 -494 -17 -35 -19 -62 -20 -210 0 -140 3
-178 18 -213 19 -47 23 -118 6 -124 -6 -2 -17 -30 -24 -62 -8 -32 -21 -66 -29
-75 -12 -14 -16 -41 -16 -124 0 -105 -11 -164 -30 -152 -5 3 -12 22 -16 43 -3
20 -14 49 -25 64 -10 15 -19 36 -19 46 0 10 -11 29 -24 41 -18 17 -24 36 -29
88 -3 46 -10 71 -22 79 -11 8 -18 32 -21 71 -3 32 -14 74 -24 93 -9 19 -21 52
-24 73 -4 21 -14 41 -22 44 -7 3 -14 12 -14 21 0 8 -11 39 -25 67 -23 50 -24
62 -24 225 0 160 -1 175 -20 201 -18 24 -21 43 -21 126 0 81 4 103 20 128 15
23 20 47 20 102 0 39 5 84 11 100 7 15 13 80 15 143 9 314 21 438 43 464 24
27 24 448 1 468 -9 7 -22 31 -29 53 -7 22 -19 47 -27 55 -10 11 -13 86 -15
320 -1 214 -6 311 -14 325 -20 34 -25 91 -31 348 -6 226 -5 247 10 247 9 0 19
7 23 16 3 8 17 20 30 25 14 5 27 18 30 29 3 11 12 20 19 20 19 0 18 64 -1 80
-8 7 -15 18 -15 24 0 21 -78 49 -113 41 -31 -7 -211 -10 -1224 -18 -392 -4
-486 -7 -499 -18 -13 -11 -53 -14 -168 -13 -271 1 -560 12 -621 23 -33 6 -121
11 -195 11 -85 0 -163 6 -210 16 -166 35 -343 40 -379 11 -7 -6 -43 -11 -80
-11 -180 1 -274 6 -298 15 -16 6 -223 12 -502 16 l-476 6 -30 -25 c-16 -14
-40 -28 -52 -32 -13 -4 -23 -15 -23 -26 0 -11 -11 -31 -25 -46 -34 -37 -39
-61 -31 -164 5 -72 3 -96 -11 -132 -23 -56 -27 -343 -5 -357 9 -6 15 -35 17
-87 4 -98 21 -176 40 -187 10 -5 15 -23 15 -52 0 -25 3 -45 8 -45 4 0 14 -5
22 -10 12 -8 16 -50 20 -240 4 -191 8 -232 20 -240 13 -8 15 -47 17 -236 2
-197 0 -231 -15 -258 -15 -27 -18 -85 -22 -501 -5 -420 -7 -475 -23 -515 -15
-37 -19 -88 -24 -286 l-6 -241 23 -23 c20 -20 25 -38 31 -124 5 -56 13 -117
19 -136 7 -19 13 -72 14 -117 2 -75 5 -84 30 -108 26 -24 27 -28 25 -122 -4
-199 1 -256 22 -276 14 -13 19 -31 19 -70 0 -44 5 -57 29 -83 24 -25 41 -33
85 -38 31 -4 64 -5 74 -2 10 3 67 10 127 16 61 5 136 15 169 20 42 8 62 8 72
-1 9 -7 23 -8 41 -3 54 17 319 5 568 -26 45 -6 270 -9 511 -8 386 3 434 1 450
-13 31 -27 63 -30 366 -30 278 0 293 -1 332 -22 l41 -21 950 3 c808 2 952 4
966 17 24 21 29 17 29 -23 -1 -24 -9 -48 -23 -64 -19 -23 -32 -27 -102 -33
-44 -4 -83 -13 -87 -19 -11 -19 -764 -12 -815 7 -28 10 -109 16 -298 20 -274
7 -352 14 -366 37 -14 23 -184 19 -234 -6 -37 -17 -63 -19 -305 -20 -258 0
-266 -1 -295 -23 -28 -21 -41 -22 -188 -23 -140 -1 -161 2 -179 18 -18 16 -41
18 -247 17 -124 0 -257 -5 -295 -12 -52 -8 -74 -8 -90 1 -31 17 -285 12 -366
-7 -85 -21 -270 -22 -270 -2 0 24 -38 28 -295 32 -197 3 -252 7 -260 17 -6 8
-37 17 -70 22 -40 5 -69 15 -88 31 -16 13 -37 24 -47 24 -10 0 -20 9 -23 21
-5 18 -11 21 -39 15 -28 -5 -37 -1 -64 27 -17 17 -34 44 -38 60 -3 15 -16 37
-28 49 -19 19 -20 29 -16 114 4 71 10 99 23 114 12 13 19 44 24 106 5 66 11
89 25 99 28 21 35 75 30 264 -5 198 -18 337 -34 356 -6 7 -15 49 -20 93 -5 44
-14 89 -19 99 -6 10 -16 31 -21 46 -6 16 -19 31 -30 34 -15 4 -20 14 -20 39 0
21 -8 40 -21 53 -19 17 -23 36 -29 126 -4 64 -11 109 -18 114 -7 4 -17 34 -23
67 -6 32 -19 73 -29 90 -10 17 -21 51 -25 75 -4 24 -16 58 -26 76 -21 33 -21
17 -10 488 2 78 2 90 2 157 0 34 5 50 16 57 15 8 18 43 24 283 5 150 8 281 8
291 1 9 1 25 1 35 0 9 1 68 2 130 2 63 0 116 -4 118 -5 3 -8 52 -8 109 0 86 3
110 20 138 21 36 30 145 29 367 0 100 -4 116 -27 122 -16 5 -18 23 -21 179 -2
96 -4 199 -5 229 l-1 55 180 6 c129 4 195 10 232 23 47 15 109 16 637 14 568
-3 585 -4 606 -23 22 -20 40 -20 1054 -25 1095 -5 1446 0 1561 26 39 8 156 19
260 24 237 11 326 20 343 33 8 6 73 14 145 17 73 4 138 7 144 8 7 1 25 -11 40
-28z m-328 -306 c26 -5 32 -12 37 -43 4 -20 15 -46 26 -58 18 -19 20 -40 24
-195 6 -233 8 -248 21 -256 15 -9 21 -112 28 -456 3 -148 9 -274 14 -280 5 -6
11 -29 15 -51 3 -22 9 -59 12 -82 4 -24 10 -43 14 -43 18 0 30 -70 30 -174 0
-87 -5 -120 -19 -152 -10 -23 -22 -60 -26 -83 -4 -22 -13 -44 -20 -49 -24 -13
-33 -119 -29 -312 l5 -185 -26 -35 c-15 -20 -25 -47 -25 -68 0 -18 -6 -40 -14
-48 -32 -31 -33 -392 -1 -440 10 -15 14 -73 17 -215 3 -186 4 -195 26 -217 12
-12 22 -34 22 -48 0 -15 9 -42 21 -60 16 -26 21 -57 26 -141 5 -79 11 -116 25
-138 10 -16 18 -46 18 -65 l0 -36 -222 -2 c-123 -1 -269 -7 -326 -13 -56 -6
-110 -8 -120 -3 -9 4 -53 10 -96 13 l-79 6 -19 55 c-19 54 -19 56 1 100 27 59
35 113 23 137 -6 11 -30 28 -53 38 l-42 19 7 66 c3 36 6 86 6 111 l0 46 51 7
c92 12 162 64 196 143 22 54 17 91 -18 123 -30 27 -31 28 -11 39 11 6 24 21
27 33 4 13 20 37 35 53 36 38 120 210 120 245 0 14 11 41 25 60 18 24 25 47
25 78 0 40 -5 50 -47 91 -27 26 -70 62 -98 81 -27 18 -52 37 -55 41 -8 10
-144 77 -205 100 -51 19 -66 32 -47 41 13 6 49 63 95 149 62 117 85 243 68
385 -6 54 -14 111 -17 126 -5 22 -2 27 17 30 19 2 24 9 22 28 -1 24 -49 134
-75 174 -7 11 -27 43 -44 71 -71 114 -338 384 -410 414 -35 14 -36 37 -3 67
10 9 19 25 19 35 0 23 -82 34 -201 26 l-87 -7 -47 65 c-56 78 -82 96 -90 62
-4 -13 -5 -27 -4 -33 4 -23 -2 -90 -10 -103 -7 -11 -19 -10 -67 7 -83 28 -157
42 -293 55 -36 3 -35 -15 5 -67 20 -26 32 -51 28 -56 -5 -4 -35 -15 -67 -24
-200 -57 -440 -192 -578 -324 -75 -71 -78 -66 -87 143 -4 99 -6 308 -4 464 2
238 5 289 18 309 10 15 12 28 6 35 -5 7 -12 25 -16 40 -5 21 -14 29 -39 35
-61 13 208 30 476 31 141 1 257 5 257 10 0 24 80 30 522 36 260 3 490 11 520
17 29 5 150 12 268 14 118 3 222 6 230 8 27 6 256 6 289 0z m-4005 -69 c65
-20 130 -19 173 2 30 14 40 15 67 4 60 -25 122 -31 352 -34 210 -2 233 -4 260
-22 26 -18 46 -20 184 -20 85 0 189 2 230 5 72 5 75 4 78 -17 3 -17 -2 -23
-17 -23 -24 0 -27 -5 -36 -52 -7 -34 -5 -39 19 -47 l25 -10 0 -298 c0 -164 3
-318 6 -343 3 -25 6 -60 6 -79 0 -18 7 -40 15 -49 10 -9 13 -24 9 -43 -4 -16
-3 -34 2 -41 4 -7 9 -96 10 -197 1 -104 7 -199 14 -219 8 -25 8 -36 0 -41 -6
-4 -11 -18 -10 -32 1 -13 -2 -70 -6 -126 l-8 -103 25 0 c34 0 57 -56 69 -170
4 -47 11 -95 15 -107 3 -13 2 -23 -2 -23 -12 0 1 -309 15 -343 21 -53 15 -70
-36 -97 -93 -49 -123 -72 -123 -97 0 -13 -6 -25 -12 -27 -7 -2 -38 -9 -68 -16
-30 -7 -74 -23 -97 -36 -23 -13 -49 -24 -57 -24 -9 0 -34 -17 -57 -37 -31 -28
-39 -42 -35 -59 4 -13 2 -26 -4 -29 -5 -3 -10 -18 -10 -31 0 -24 29 -59 79
-94 20 -14 20 -17 6 -58 -9 -24 -24 -61 -35 -83 -11 -21 -20 -48 -20 -59 0
-43 38 -92 85 -110 39 -16 152 -13 210 5 35 10 47 10 49 2 2 -7 9 -31 15 -54
7 -27 24 -52 46 -71 l35 -28 1 -148 c1 -137 -1 -149 -20 -167 -14 -13 -21 -32
-21 -55 0 -54 -16 -63 -121 -66 -75 -2 -94 -6 -103 -20 -9 -15 -26 -18 -93
-18 -75 0 -83 -2 -100 -25 -15 -21 -29 -26 -86 -32 -50 -4 -70 -11 -77 -23
-11 -21 -38 -29 -65 -20 -22 8 -54 -5 -71 -28 -9 -12 -37 -16 -119 -18 -87 -3
-110 -7 -120 -21 -8 -11 -31 -18 -74 -21 -45 -3 -64 -9 -71 -22 -7 -12 -26
-19 -66 -22 -41 -4 -61 -10 -73 -25 -12 -16 -28 -21 -71 -21 -44 -1 -58 -5
-69 -21 -9 -15 -24 -21 -48 -21 -47 0 -72 31 -73 88 0 50 -14 82 -35 82 -12 0
-15 15 -15 65 0 52 -4 68 -21 84 -19 17 -21 33 -25 197 -4 192 -9 230 -30 254
-10 12 -14 132 -16 615 -3 578 -4 601 -23 629 -17 26 -19 47 -20 189 0 145 2
160 19 173 17 12 19 28 20 161 1 120 -3 158 -17 201 -11 31 -20 87 -21 138 -2
72 -6 90 -27 117 -22 30 -24 41 -24 157 -1 116 -3 128 -23 148 -15 15 -22 34
-22 61 0 30 -5 42 -25 55 -14 9 -25 24 -25 33 0 9 -11 31 -24 48 -25 32 -25
35 -30 306 -3 151 -6 290 -7 309 -2 58 11 95 39 112 38 23 354 25 426 3z
m2588 -1417 c-6 -18 -13 -50 -15 -70 -6 -43 1 -46 63 -28 124 37 405 59 431
33 24 -24 13 -218 -22 -357 -11 -43 -18 -80 -16 -82 2 -3 35 21 73 52 128 105
164 116 215 65 39 -39 41 -105 4 -145 -13 -14 -32 -27 -42 -27 -10 -1 -31 -2
-48 -3 -26 -1 -34 -9 -60 -56 -16 -30 -43 -75 -59 -100 -34 -53 -183 -200
-223 -221 -15 -7 -43 -24 -61 -36 -50 -33 -189 -80 -277 -93 -152 -23 -356 12
-485 83 -116 64 -214 151 -287 255 -27 38 -41 51 -52 46 -44 -19 -80 -16 -105
9 -34 34 -41 68 -24 119 23 68 49 71 140 14 85 -52 104 -57 94 -23 -14 48 -55
214 -61 247 -6 33 -3 38 53 86 73 65 147 113 237 153 66 30 112 37 108 16 -12
-78 -14 -105 -6 -105 5 0 41 25 79 56 112 90 317 180 348 153 4 -4 4 -22 -2
-41z m618 -802 c167 -52 279 -110 398 -205 82 -65 83 -66 79 -106 -5 -48 -88
-225 -149 -315 -40 -60 -47 -66 -93 -76 -28 -7 -98 -13 -158 -13 -98 -1 -113
1 -171 28 -65 29 -146 97 -146 122 0 8 7 28 16 44 58 107 104 202 104 212 0
50 -82 -51 -162 -200 -19 -35 -22 -74 -9 -96 6 -9 2 -29 -10 -55 -26 -57 -25
-157 1 -211 12 -24 39 -54 66 -74 l47 -33 -24 -23 c-20 -19 -60 -42 -219 -126
-27 -14 -164 -51 -220 -59 -30 -4 -66 -11 -80 -15 -18 -4 -33 0 -50 15 -183
156 -242 281 -215 455 15 99 102 236 158 250 14 4 51 1 83 -5 53 -11 63 -18
134 -91 89 -92 81 -93 144 31 21 41 63 113 93 160 29 47 59 94 66 105 44 72
129 189 171 237 56 63 71 67 146 44z m-1545 -43 c22 -19 57 -47 78 -60 21 -13
37 -29 35 -36 -4 -12 -147 -92 -153 -85 -6 6 -12 218 -6 218 3 0 24 -17 46
-37z m244 -172 c16 -49 15 -92 -3 -85 -8 3 -23 -3 -32 -14 -18 -22 -162 -299
-228 -442 l-39 -84 -26 34 c-36 46 -65 95 -100 166 -35 73 -75 199 -68 217 5
12 66 48 322 188 151 83 153 83 174 20z m147 -32 c49 -23 74 -43 104 -83 22
-29 40 -56 40 -59 0 -4 -14 -7 -31 -7 -47 0 -111 -21 -137 -44 -32 -28 -38
-15 -46 101 -4 52 -10 101 -13 109 -8 21 13 17 83 -17z m784 17 c0 -16 -62
-129 -80 -146 -3 -3 -22 -39 -42 -80 -57 -115 -48 -111 -117 -47 -48 44 -75
61 -124 75 l-62 19 48 44 c43 39 56 45 123 56 70 11 160 39 214 69 25 14 40
17 40 10z m-480 -90 c43 -3 64 -8 62 -16 -4 -19 -106 -130 -115 -127 -5 1 -24
30 -41 64 -18 34 -38 68 -44 76 -17 20 -6 26 36 16 20 -4 66 -10 102 -13z
m-417 -203 c6 -38 15 -38 69 -1 105 71 151 83 207 54 49 -26 55 -40 28 -72
-49 -59 -87 -174 -87 -267 0 -69 14 -116 63 -215 l41 -83 -48 -44 c-53 -50
-73 -54 -168 -34 -119 24 -230 76 -345 161 -71 52 -71 66 3 235 8 17 14 34 14
38 0 13 100 234 151 335 l54 105 7 -95 c4 -52 9 -105 11 -117z m-583 -2 c0
-28 79 -171 143 -260 l62 -86 -3 -66 c-1 -44 2 -71 12 -84 12 -17 12 -24 -5
-58 -27 -52 -64 -65 -96 -35 -22 20 -24 30 -21 76 3 33 0 56 -7 62 -8 6 -37 4
-86 -6 -41 -9 -106 -18 -145 -21 -80 -6 -104 7 -104 57 0 35 22 50 134 87 121
41 106 60 -31 40 -50 -7 -51 -7 -45 15 3 12 27 44 54 71 26 26 48 52 48 57 0
14 -31 11 -60 -5 -55 -32 -140 -11 -140 35 0 51 70 96 200 130 72 18 90 16 90
-9z m1756 -223 c40 -18 73 -22 187 -26 80 -3 137 -9 137 -14 0 -6 -18 -27 -40
-47 -22 -20 -40 -40 -40 -44 0 -17 39 -5 78 24 86 63 111 -12 33 -99 -31 -33
-99 -57 -137 -48 -13 3 -44 24 -69 46 -47 41 -74 45 -55 10 6 -10 15 -22 20
-25 6 -3 10 -15 10 -26 0 -16 -7 -19 -42 -19 -79 0 -124 48 -154 160 -13 53
-28 58 -32 13 -4 -43 -23 -42 -46 2 -15 27 -18 47 -13 94 3 33 8 64 11 70 4 6
25 -1 55 -19 26 -16 70 -39 97 -52z m-3 -318 c26 -11 57 -18 69 -15 50 12 60
-28 37 -148 -16 -81 -11 -93 51 -124 57 -29 61 -38 39 -79 -30 -60 -37 -64
-103 -65 -115 -1 -337 -56 -525 -130 -88 -35 -91 -35 -91 -8 0 11 -5 29 -11
40 -6 12 -12 46 -13 77 -2 31 -6 65 -11 75 -11 25 12 47 50 47 18 0 43 8 56
18 13 10 36 23 52 30 30 13 53 52 44 76 -9 22 -45 20 -91 -3 -21 -11 -52 -23
-69 -27 -18 -3 -43 -12 -57 -19 -45 -23 -183 -47 -266 -46 -65 1 -86 -2 -104
-17 -18 -15 -20 -20 -9 -29 17 -13 92 -27 134 -25 17 1 40 0 51 -3 20 -5 21
-7 10 -44 -16 -56 -118 -230 -135 -231 -7 0 -84 21 -170 46 -86 25 -181 53
-211 61 -30 8 -59 19 -65 23 -5 4 -36 13 -68 19 -60 11 -97 26 -97 40 0 4 -12
13 -27 20 -22 10 -24 14 -12 25 8 7 33 18 56 25 49 14 86 55 102 116 6 22 17
49 24 60 8 11 18 34 21 52 9 42 43 50 92 22 43 -24 202 -62 256 -62 43 1 100
33 141 80 16 18 34 33 40 33 6 0 38 -28 70 -61 l59 -62 60 7 c129 13 370 93
434 143 31 25 129 83 139 83 1 0 23 -9 48 -20z m-1413 -32 c17 -12 30 -26 30
-31 0 -4 -11 -32 -24 -60 -13 -29 -36 -85 -51 -124 -16 -40 -32 -73 -37 -73
-4 0 -8 48 -8 106 0 96 3 111 27 155 14 27 28 49 30 49 2 0 17 -10 33 -22z
m1600 -498 c23 -45 27 -131 7 -170 -19 -37 -86 -69 -188 -90 -75 -16 -109 -17
-188 -10 -115 10 -217 33 -288 66 -43 19 -53 29 -53 48 0 13 6 28 13 33 6 6
84 33 172 61 216 68 354 99 452 101 52 1 53 0 73 -39z m-1650 -44 c64 -15 242
-56 385 -87 138 -29 165 -38 165 -54 0 -22 -103 -48 -380 -95 -77 -14 -290
-12 -367 2 l-65 12 6 40 c8 45 54 136 69 136 6 0 18 7 27 15 13 12 80 42 100
44 3 1 30 -5 60 -13z m716 -131 c27 -8 65 -15 85 -15 25 0 45 -8 64 -26 33
-31 88 -56 209 -95 75 -25 108 -30 205 -32 130 -2 172 3 275 33 80 24 166 80
166 109 0 34 24 43 53 21 22 -17 40 -20 141 -20 105 0 116 -2 126 -20 10 -19
21 -20 150 -20 l140 0 47 -46 48 -46 73 5 c52 3 75 0 80 -9 4 -7 6 -60 4 -117
l-3 -105 -41 -7 c-22 -4 -135 -4 -252 0 -116 4 -293 8 -393 9 -175 2 -184 3
-207 25 -23 22 -33 23 -205 26 -134 2 -186 7 -198 17 -12 9 -65 14 -200 16
-170 3 -186 2 -198 -15 -19 -25 -159 -24 -178 1 -15 21 -115 26 -577 29 -309
2 -338 4 -370 22 -33 18 -61 19 -489 19 -337 1 -455 4 -458 13 -5 15 15 20
107 28 41 4 82 13 90 20 8 6 51 17 94 23 53 7 82 16 88 26 5 10 22 16 43 16
19 0 37 5 40 10 3 6 16 10 29 10 12 0 27 5 34 12 7 7 41 15 77 19 38 4 73 13
84 23 13 12 38 16 98 16 l81 0 -5 -60 c-7 -71 -8 -70 147 -95 156 -25 326 -15
520 29 248 57 278 66 284 92 11 42 25 74 34 74 5 0 31 -7 58 -15z"/>
<path d="M5308 4912 c-94 -62 -34 -205 73 -173 77 23 104 103 51 154 -45 43
-80 49 -124 19z"/>
<path d="M4769 4851 c-38 -39 -39 -87 -3 -130 21 -26 33 -31 67 -31 45 1 64
11 88 50 25 41 22 75 -10 109 -40 43 -100 44 -142 2z"/>
<path d="M5410 4610 c-12 -12 -19 -28 -15 -39 10 -34 -84 -98 -202 -137 -65
-21 -95 -25 -183 -24 -58 1 -109 1 -114 1 -5 -1 11 -15 34 -32 196 -142 394
-107 485 87 15 32 36 69 47 81 24 26 21 51 -9 70 -19 13 -24 12 -43 -7z"/>
<path d="M5009 3615 c-27 -15 -73 -72 -61 -77 4 -2 18 -18 31 -35 12 -18 31
-33 42 -33 10 0 19 -5 19 -11 0 -8 5 -8 15 1 8 7 15 9 15 5 0 -4 7 -2 15 5 23
19 35 76 23 110 -5 17 -11 30 -12 30 0 0 -15 4 -32 9 -21 6 -38 4 -55 -4z"/>
</g>
</svg>
