<?xml version="1.0" standalone="no"?>
<!DOCTYPE svg PUBLIC "-//W3C//DTD SVG 20010904//EN"
 "http://www.w3.org/TR/2001/REC-SVG-20010904/DTD/svg10.dtd">
<svg version="1.0" xmlns="http://www.w3.org/2000/svg"
 width="1100.000000pt" height="924.000000pt" viewBox="0 0 1100.000000 924.000000"
 preserveAspectRatio="xMidYMid meet">
<metadata>
Created by potrace 1.16, written by Peter Selinger 2001-2019
</metadata>
<g transform="translate(0.000000,924.000000) scale(0.100000,-0.100000)"
fill="#000000" stroke="none">
<path d="M6231 8164 c-7 -8 -58 -81 -112 -160 -54 -80 -120 -173 -147 -207
-26 -34 -62 -86 -81 -114 -18 -30 -38 -50 -44 -46 -6 3 -7 1 -3 -6 4 -6 -22
-50 -62 -104 -38 -50 -117 -163 -176 -249 -59 -87 -113 -164 -120 -171 -7 -7
-53 -71 -101 -142 -49 -72 -114 -164 -145 -205 -31 -41 -74 -101 -95 -132 -21
-32 -41 -55 -45 -53 -4 3 -7 -3 -6 -13 0 -9 -5 -16 -12 -14 -8 1 -11 -2 -7 -8
3 -5 -25 -51 -63 -102 -38 -51 -97 -136 -132 -188 -35 -52 -96 -140 -137 -195
-40 -55 -106 -147 -146 -205 -159 -228 -239 -335 -249 -332 -5 1 -7 -2 -3 -8
6 -9 -88 -154 -121 -187 -6 -7 -49 -67 -95 -135 -45 -68 -108 -157 -139 -198
-31 -41 -74 -101 -95 -132 -21 -32 -41 -55 -45 -53 -4 3 -7 -3 -6 -13 0 -9 -5
-16 -11 -15 -7 2 -12 0 -12 -5 3 -20 -2 -32 -13 -26 -6 4 -8 3 -5 -3 4 -6 -15
-39 -41 -74 -27 -35 -97 -136 -157 -224 -59 -88 -113 -164 -119 -170 -7 -5
-54 -71 -105 -145 -154 -225 -273 -385 -283 -382 -5 1 -7 -2 -3 -8 5 -9 -68
-122 -101 -157 -7 -7 -54 -75 -105 -150 -51 -76 -120 -174 -153 -219 -34 -44
-85 -117 -115 -161 -30 -45 -59 -79 -63 -77 -5 3 -7 0 -6 -6 4 -16 -113 -176
-137 -186 -24 -11 -33 -68 -14 -90 17 -20 6564 -21 6592 0 18 14 24 82 8 88
-5 1 -59 109 -121 238 -62 129 -120 246 -130 260 -10 14 -55 104 -100 200 -45
96 -115 238 -155 315 -41 77 -108 214 -151 305 -42 91 -82 168 -88 172 -6 5
-7 8 -1 8 6 0 5 4 -2 8 -18 11 -114 222 -106 235 3 5 2 7 -4 4 -6 -4 -37 49
-71 121 -34 70 -72 147 -86 172 -38 67 -443 891 -450 917 -4 13 -14 29 -22 37
-8 8 -66 124 -130 257 -65 134 -130 265 -145 292 -16 26 -29 50 -29 53 0 7
-413 845 -440 894 -11 19 -47 91 -80 160 -212 434 -343 686 -360 695 -10 5
-20 19 -22 30 -4 26 -57 32 -77 9z m151 -324 c57 -118 111 -226 120 -240 9
-14 65 -126 124 -250 59 -124 120 -246 136 -271 15 -25 28 -49 28 -53 0 -7
436 -893 451 -916 5 -8 48 -94 95 -190 155 -316 645 -1305 655 -1320 5 -8 41
-80 80 -160 120 -247 660 -1334 670 -1350 20 -31 140 -283 136 -286 -2 -2
-1426 -3 -3165 -2 l-3162 3 40 60 c22 33 45 59 51 57 6 -1 8 1 5 6 -3 5 20 46
52 91 422 602 462 656 471 654 5 -1 8 5 7 15 0 9 5 16 12 14 8 -1 11 2 8 7 -7
11 163 247 175 244 5 -2 6 3 4 10 -2 6 31 62 75 122 44 61 112 157 151 215 40
58 102 146 139 195 37 50 84 116 105 147 21 32 42 55 48 51 5 -3 7 -2 4 4 -4
6 1 19 9 29 9 10 12 13 8 5 -5 -9 -3 -12 5 -7 6 4 9 12 6 17 -6 8 40 82 68
111 7 7 62 85 122 173 60 88 130 187 155 220 26 33 69 93 95 132 26 40 51 70
55 68 4 -3 7 3 6 13 0 9 5 16 12 14 8 -1 11 2 8 7 -8 12 163 247 176 243 5 -1
7 2 3 7 -5 9 114 194 140 216 6 6 44 60 85 120 40 61 103 151 140 200 36 50
88 122 115 160 46 67 77 107 60 76 -5 -10 -4 -12 4 -7 6 4 9 12 5 17 -3 5 23
49 59 97 35 48 83 115 107 149 24 34 48 59 53 56 6 -3 7 -1 3 5 -7 12 65 125
125 198 19 22 63 84 98 137 35 53 67 95 71 92 4 -3 7 3 6 13 0 9 5 16 12 14 8
-1 11 2 8 7 -3 4 16 37 42 72 27 35 93 129 147 209 55 80 104 150 111 155 6 6
56 75 110 155 128 191 137 201 145 193 5 -5 55 -105 111 -223z"/>
</g>
</svg>
