<?xml version="1.0" standalone="no"?>
<!DOCTYPE svg PUBLIC "-//W3C//DTD SVG 20010904//EN"
 "http://www.w3.org/TR/2001/REC-SVG-20010904/DTD/svg10.dtd">
<svg version="1.0" xmlns="http://www.w3.org/2000/svg"
 width="1100.000000pt" height="1125.000000pt" viewBox="0 0 1100.000000 1125.000000"
 preserveAspectRatio="xMidYMid meet">
<metadata>
Created by potrace 1.16, written by Peter Selinger 2001-2019
</metadata>
<g transform="translate(0.000000,1125.000000) scale(0.100000,-0.100000)"
fill="#000000" stroke="none">
<path d="M5795 9803 c-222 -12 -540 -65 -771 -129 -71 -19 -138 -37 -148 -39
-97 -21 -355 -128 -552 -229 -360 -186 -655 -405 -974 -725 -80 -80 -148 -144
-153 -143 -4 1 -6 -2 -5 -7 5 -15 -43 -72 -54 -65 -6 4 -8 3 -5 -3 8 -13 -22
-55 -34 -47 -5 3 -8 1 -7 -4 2 -6 -25 -48 -59 -93 -170 -232 -317 -492 -438
-774 -202 -472 -310 -1047 -291 -1550 22 -589 153 -1083 430 -1620 104 -202
150 -278 275 -449 47 -65 85 -123 83 -128 -1 -5 2 -7 7 -3 10 5 34 -29 36 -50
1 -5 6 -9 13 -8 6 2 16 -6 22 -17 6 -11 8 -20 4 -20 -3 0 -1 -7 6 -15 7 -8 16
-13 20 -10 10 6 52 -44 45 -55 -2 -4 9 -20 25 -35 17 -16 30 -25 30 -21 0 5
67 -56 148 -136 150 -146 304 -270 509 -409 62 -42 109 -80 105 -84 -4 -5 -1
-5 5 -1 16 9 56 -17 45 -29 -4 -5 -1 -5 5 -1 16 9 56 -17 45 -29 -4 -5 -1 -5
5 -1 15 8 96 -37 86 -48 -4 -4 1 -4 11 0 15 6 17 4 11 -6 -5 -8 -4 -11 2 -7 6
4 71 -22 144 -57 319 -153 627 -252 969 -311 328 -56 921 -56 1250 0 344 59
708 178 1012 331 49 25 94 42 100 38 7 -5 8 -2 3 6 -6 10 -4 12 9 7 9 -4 15
-3 12 1 -2 4 52 41 122 82 242 144 554 385 731 564 58 58 108 103 111 101 9
-5 38 26 39 40 2 19 42 66 52 60 5 -4 8 -2 7 3 -2 5 29 49 68 98 164 204 312
436 425 666 24 48 46 85 51 82 4 -3 5 3 1 12 -5 13 -3 15 7 9 8 -5 11 -4 6 3
-9 15 24 93 37 85 5 -3 7 -1 3 5 -3 6 11 55 33 109 121 304 203 642 242 993
17 148 17 582 0 730 -62 559 -231 1067 -506 1524 -36 59 -65 112 -65 117 0 5
-5 9 -11 9 -5 0 -7 5 -4 10 3 6 -1 13 -9 16 -9 3 -16 10 -16 16 0 27 -197 282
-335 434 -43 47 -135 138 -204 202 -69 64 -125 120 -123 124 1 4 -1 7 -5 6
-15 -4 -63 34 -56 45 3 5 2 7 -3 4 -6 -3 -50 26 -99 64 -246 192 -529 359
-817 483 -110 47 -263 103 -301 110 -12 2 -71 18 -131 35 -382 108 -820 156
-1231 134z m525 -263 c581 -53 1126 -247 1610 -574 58 -39 115 -76 127 -82 91
-49 358 -293 525 -481 190 -213 398 -498 382 -525 -4 -7 -4 -10 1 -6 11 11 38
-29 29 -44 -4 -6 -3 -8 3 -5 16 10 163 -291 233 -476 99 -261 158 -485 202
-767 20 -129 22 -182 22 -475 0 -293 -2 -346 -22 -475 -54 -346 -148 -664
-289 -985 -51 -115 -135 -265 -144 -259 -5 3 -6 -3 -2 -12 4 -11 2 -15 -4 -11
-6 4 -10 -1 -9 -11 0 -9 -5 -16 -12 -14 -8 1 -11 -2 -7 -8 7 -11 -19 -53 -27
-44 -3 3 -5 -3 -4 -13 0 -10 -5 -17 -12 -15 -8 1 -11 -2 -7 -8 7 -11 -18 -53
-27 -45 -2 3 -5 -1 -5 -8 0 -21 -55 -97 -66 -90 -5 3 -7 1 -4 -4 28 -46 -631
-734 -676 -706 -6 3 -7 1 -3 -5 8 -13 -28 -35 -39 -24 -5 4 -5 2 -1 -5 8 -14
-27 -36 -39 -25 -5 4 -5 2 -1 -5 8 -14 -27 -36 -39 -25 -5 4 -5 2 -2 -4 6 -10
-156 -124 -198 -140 -11 -4 -22 -10 -25 -13 -9 -11 -143 -81 -295 -156 -317
-155 -643 -253 -1040 -312 -172 -25 -707 -25 -880 0 -412 60 -759 167 -1092
336 -136 69 -236 123 -243 132 -3 3 -13 8 -23 12 -45 17 -206 130 -200 141 3
6 3 8 -2 4 -11 -11 -47 11 -39 24 4 6 3 8 -3 5 -6 -4 -19 1 -29 9 -10 9 -12
12 -4 8 9 -4 12 -3 7 2 -5 5 -12 8 -15 7 -15 -3 -42 19 -36 29 4 6 3 8 -3 5
-6 -4 -22 2 -34 14 -13 11 -18 17 -10 13 9 -5 12 -3 7 5 -4 6 -11 9 -15 7 -4
-3 -20 6 -37 20 -16 14 -23 22 -15 18 9 -5 12 -3 7 5 -4 6 -11 9 -16 6 -12 -7
-169 138 -283 263 -182 198 -396 479 -382 502 4 6 1 9 -7 8 -7 -2 -12 5 -11
15 0 10 -2 16 -5 13 -9 -10 -34 33 -26 46 4 7 3 8 -4 4 -14 -8 -36 30 -26 46
4 6 3 8 -3 5 -13 -8 -46 50 -37 65 4 7 3 8 -4 4 -20 -12 -227 440 -246 534 -2
14 -20 79 -39 145 -92 318 -126 542 -134 881 -9 416 32 729 148 1105 16 53 29
102 29 108 0 46 214 516 231 506 5 -3 6 2 2 11 -5 13 -3 15 7 9 9 -5 11 -4 6
3 -9 15 24 73 37 65 6 -3 7 -1 3 5 -9 15 18 55 29 44 5 -4 5 -1 1 5 -9 16 17
56 29 45 5 -4 5 -1 1 6 -9 14 90 160 203 301 112 139 270 312 379 414 102 94
294 250 309 249 4 0 12 6 16 14 4 8 12 14 18 14 5 0 43 22 83 49 264 178 585
334 876 426 206 65 499 124 710 144 126 12 499 12 630 1z"/>
</g>
</svg>
