<?xml version="1.0" standalone="no"?>
<!DOCTYPE svg PUBLIC "-//W3C//DTD SVG 20010904//EN"
 "http://www.w3.org/TR/2001/REC-SVG-20010904/DTD/svg10.dtd">
<svg version="1.0" xmlns="http://www.w3.org/2000/svg"
 width="795.000000pt" height="1125.000000pt" viewBox="0 0 795.000000 1125.000000"
 preserveAspectRatio="xMidYMid meet">
<metadata>
Created by potrace 1.16, written by Peter Selinger 2001-2019
</metadata>
<g transform="translate(0.000000,1125.000000) scale(0.100000,-0.100000)"
fill="#000000" stroke="none">
<path d="M4350 10435 c-8 -2 -58 -9 -110 -15 -245 -30 -464 -91 -705 -199 -38
-17 -78 -36 -87 -41 -79 -45 -147 -77 -152 -72 -3 3 -6 0 -6 -6 0 -15 -55 -43
-65 -34 -5 4 -5 1 -1 -5 4 -7 3 -13 -3 -13 -12 0 -159 -99 -218 -148 -24 -19
-43 -32 -43 -29 0 4 -13 -6 -29 -21 -57 -54 -126 -107 -136 -104 -5 2 -7 1 -3
-3 3 -4 -12 -23 -35 -42 -53 -46 -326 -323 -318 -323 3 0 1 -4 -5 -8 -5 -4
-33 -35 -61 -69 -28 -34 -54 -59 -58 -55 -4 4 -5 2 -3 -3 1 -6 -36 -62 -83
-125 -141 -190 -273 -392 -378 -582 -33 -60 -155 -300 -156 -308 -1 -3 -16
-35 -33 -73 -18 -37 -32 -70 -32 -72 0 -2 -11 -28 -24 -57 -104 -230 -230
-611 -310 -943 -53 -217 -51 -206 -87 -410 -46 -263 -66 -434 -89 -760 -28
-392 1 -991 65 -1345 7 -41 18 -102 24 -135 11 -62 38 -194 51 -255 7 -29 36
-139 70 -265 4 -16 18 -59 29 -95 12 -36 31 -96 43 -135 12 -38 25 -74 28 -80
3 -5 19 -44 34 -85 31 -84 36 -97 64 -160 11 -25 30 -67 42 -95 42 -97 135
-276 191 -370 10 -16 26 -43 35 -60 31 -55 128 -200 162 -243 19 -23 31 -42
26 -42 -4 0 -1 -6 7 -12 9 -7 33 -35 55 -63 21 -27 41 -52 44 -55 3 -3 20 -23
39 -45 18 -22 56 -64 83 -93 27 -28 46 -52 41 -52 -4 0 3 -6 17 -13 13 -7 30
-24 37 -37 7 -14 13 -21 13 -17 0 4 6 2 14 -5 8 -7 11 -17 8 -22 -3 -5 -1 -7
4 -3 5 3 42 -25 83 -63 40 -37 73 -68 74 -67 1 0 36 -24 77 -54 41 -30 94 -67
118 -83 23 -16 42 -33 42 -39 0 -6 3 -8 6 -4 6 6 104 -50 115 -66 3 -5 8 -8
10 -6 7 4 156 -69 163 -80 4 -6 11 -9 16 -6 5 3 17 2 27 -3 10 -6 29 -14 43
-20 14 -5 39 -15 55 -22 49 -20 139 -48 212 -65 155 -37 192 -44 268 -54 102
-14 447 -14 534 -1 198 32 391 80 511 127 36 14 75 29 88 34 56 22 73 30 167
77 95 47 148 75 206 111 14 9 48 29 75 46 27 16 51 33 52 37 2 4 8 8 14 8 5 0
36 20 67 45 32 24 62 41 67 37 5 -4 6 -3 2 2 -7 8 67 69 76 64 2 -2 14 9 26
25 12 15 27 24 33 20 7 -3 9 -3 5 1 -3 4 28 38 70 75 43 38 85 78 96 89 10 12
23 19 29 15 5 -3 7 -2 4 4 -8 13 37 56 47 46 4 -5 6 -1 4 7 -2 8 3 14 10 12 6
-1 11 2 10 6 -3 7 100 125 194 224 14 15 23 28 20 28 -4 0 -2 4 3 8 13 9 142
173 176 224 14 21 28 37 30 35 2 -1 3 0 2 2 -1 2 24 42 56 90 199 296 385 646
511 961 23 58 45 114 50 125 5 11 18 49 30 85 12 36 28 79 35 95 7 17 27 77
44 135 18 58 38 123 45 145 13 37 18 57 47 168 6 23 17 62 24 87 11 42 18 70
45 197 127 598 180 1300 135 1804 -21 243 -35 376 -45 447 -24 161 -33 211
-45 267 -7 33 -18 84 -24 113 -27 130 -44 199 -91 372 -26 94 -104 326 -141
417 -17 43 -35 87 -39 98 -25 62 -94 214 -132 290 -27 54 -52 100 -109 203
-10 17 -15 32 -11 32 4 0 -1 5 -10 11 -10 5 -18 14 -18 19 0 6 -16 32 -35 59
-19 26 -35 52 -35 55 0 4 -33 53 -72 109 -40 56 -71 107 -70 112 2 6 0 7 -3 3
-9 -9 -71 73 -66 87 1 6 0 7 -4 3 -4 -4 -19 7 -34 25 -14 18 -44 52 -66 76
-22 24 -39 47 -37 52 1 5 -3 8 -10 7 -6 -2 -17 7 -23 19 -7 13 -14 21 -16 19
-2 -2 -10 2 -17 10 -7 8 -9 14 -5 14 4 0 -3 6 -17 13 -14 8 -23 20 -22 28 2 8
0 11 -3 7 -4 -4 -28 13 -54 36 -25 24 -65 60 -88 79 -23 19 -41 36 -40 38 1 2
0 3 -2 2 -7 -4 -111 80 -111 90 0 6 -3 7 -6 4 -4 -3 -39 15 -78 42 -115 78
-235 143 -396 214 -217 96 -579 168 -832 166 -68 -1 -130 -3 -138 -4z m445
-145 c115 -20 170 -32 210 -45 22 -7 67 -21 100 -30 127 -37 375 -148 375
-167 0 -6 3 -9 6 -5 18 18 384 -233 384 -263 0 -6 4 -9 8 -7 12 3 132 -106
126 -115 -3 -5 0 -7 8 -6 7 2 12 -3 10 -10 -1 -8 2 -11 7 -8 5 3 42 -31 82
-77 41 -45 79 -85 84 -89 6 -4 7 -8 4 -8 -3 0 16 -23 42 -52 26 -29 45 -56 43
-60 -3 -4 -1 -8 3 -8 19 0 191 -251 281 -410 36 -64 160 -313 192 -384 80
-180 193 -510 240 -696 4 -19 14 -55 20 -80 7 -24 14 -56 16 -70 3 -14 7 -31
9 -39 6 -15 29 -131 45 -221 40 -231 41 -241 72 -520 17 -155 17 -912 0 -1075
-24 -224 -33 -300 -48 -390 -8 -49 -19 -119 -25 -155 -33 -205 -92 -464 -156
-685 -40 -138 -125 -396 -155 -470 -30 -76 -35 -87 -49 -125 -7 -19 -27 -66
-44 -105 -18 -38 -41 -90 -51 -114 -31 -74 -161 -327 -209 -409 -5 -9 -27 -47
-48 -85 -21 -37 -43 -67 -49 -67 -6 0 -9 -3 -6 -6 11 -11 -155 -264 -174 -264
-6 0 -8 -3 -5 -6 6 -6 -26 -60 -43 -74 -3 -3 -19 -23 -35 -45 -17 -22 -32 -42
-35 -45 -3 -3 -29 -35 -58 -72 -30 -37 -64 -76 -77 -87 -14 -10 -22 -20 -20
-23 7 -6 -278 -293 -313 -316 -15 -9 -35 -27 -45 -40 -10 -12 -23 -20 -28 -16
-5 3 -8 1 -7 -4 6 -20 -322 -259 -336 -245 -3 4 -6 2 -6 -4 0 -13 -40 -37
-177 -110 -57 -30 -103 -50 -103 -46 0 4 -4 3 -8 -4 -15 -24 -332 -141 -446
-165 -111 -23 -146 -28 -276 -43 -225 -25 -410 -15 -655 37 -180 38 -481 159
-597 239 -14 11 -29 19 -33 19 -10 0 -158 104 -240 169 -112 88 -225 193 -219
203 3 4 0 7 -8 6 -7 -2 -12 3 -10 10 1 6 -2 11 -7 10 -11 -4 -130 124 -131
140 0 7 -3 11 -7 9 -5 -3 -24 16 -43 42 -19 25 -42 54 -52 64 -10 10 -15 24
-12 30 4 7 4 9 -1 5 -4 -4 -22 12 -39 35 -45 61 -156 228 -156 234 0 3 -10 19
-22 36 -79 110 -285 547 -349 737 -10 30 -25 75 -35 100 -21 60 -108 361 -123
430 -7 30 -16 73 -21 95 -55 244 -97 524 -120 795 -13 161 -13 768 0 930 19
225 65 577 91 698 5 23 19 88 30 145 12 56 25 118 29 137 4 19 13 59 19 88 6
30 14 58 18 65 3 6 10 27 14 46 18 91 129 447 169 546 7 17 16 39 20 50 20 53
90 226 111 275 29 67 208 424 251 500 69 121 311 487 337 510 3 3 25 30 47 60
23 30 54 69 68 85 15 17 50 58 79 92 29 35 58 63 65 63 7 0 11 4 8 8 -2 4 47
59 110 122 63 63 114 112 114 109 0 -3 25 19 55 48 72 67 253 203 378 282 341
216 724 350 1072 375 85 6 397 -4 460 -14z"/>
</g>
</svg>
