<?xml version="1.0" standalone="no"?>
<!DOCTYPE svg PUBLIC "-//W3C//DTD SVG 20010904//EN"
 "http://www.w3.org/TR/2001/REC-SVG-20010904/DTD/svg10.dtd">
<svg version="1.0" xmlns="http://www.w3.org/2000/svg"
 width="1079.000000pt" height="1125.000000pt" viewBox="0 0 1079.000000 1125.000000"
 preserveAspectRatio="xMidYMid meet">
<metadata>
Created by potrace 1.16, written by Peter Selinger 2001-2019
</metadata>
<g transform="translate(0.000000,1125.000000) scale(0.100000,-0.100000)"
fill="#000000" stroke="none">
<path d="M2878 9624 c-4 -3 -14 -7 -24 -8 -9 -2 -20 -11 -23 -22 -3 -10 -7
-1481 -8 -3267 -2 -2535 0 -3253 9 -3270 7 -12 12 -25 11 -28 -1 -3 3 -7 10
-9 7 -2 1478 -5 3270 -7 l3258 -3 30 29 29 30 -2 3268 c-2 2534 -6 3268 -15
3268 -7 0 -18 6 -25 13 -9 9 -676 12 -3263 12 -1789 0 -3254 -3 -3257 -6z
m6372 -3304 l0 -3120 -3120 0 -3120 0 0 3120 0 3120 3120 0 3120 0 0 -3120z"/>
</g>
</svg>
