<?xml version="1.0" standalone="no"?>
<!DOCTYPE svg PUBLIC "-//W3C//DTD SVG 20010904//EN"
 "http://www.w3.org/TR/2001/REC-SVG-20010904/DTD/svg10.dtd">
<svg version="1.0" xmlns="http://www.w3.org/2000/svg"
 width="566.000000pt" height="387.000000pt" viewBox="0 0 566.000000 387.000000"
 preserveAspectRatio="xMidYMid meet">
<metadata>
Created by potrace 1.16, written by Peter Selinger 2001-2019
</metadata>
<g transform="translate(0.000000,387.000000) scale(0.100000,-0.100000)"
fill="#000000" stroke="none">
<path d="M2790 3065 c-41 -8 -115 -26 -165 -40 -99 -29 -318 -132 -356 -168
-13 -12 -57 -49 -96 -81 -96 -77 -163 -151 -247 -272 -113 -161 -176 -317
-211 -523 -20 -111 -19 -333 1 -452 24 -144 113 -395 157 -441 23 -24 90 -133
90 -145 0 -7 4 -10 8 -7 8 4 34 -36 31 -46 -1 -3 2 -5 7 -5 5 0 40 -31 77 -69
38 -38 93 -87 121 -109 29 -21 50 -44 46 -50 -3 -6 -1 -7 5 -3 6 3 33 -7 59
-23 26 -16 84 -47 128 -67 44 -21 82 -41 85 -45 8 -12 171 -57 267 -74 178
-31 434 -16 608 36 162 48 394 183 516 300 185 178 288 339 358 564 13 39 25
77 28 85 3 8 8 20 10 25 30 85 43 375 22 505 -14 91 -73 267 -129 387 -61 128
-128 226 -227 328 -43 44 -78 85 -78 90 0 6 -5 10 -11 10 -7 0 -47 26 -90 58
-144 108 -359 198 -549 231 -111 20 -360 20 -465 1z m348 -176 c105 -11 196
-32 252 -56 122 -54 240 -115 235 -122 -2 -5 3 -8 13 -7 9 0 16 -5 14 -12 -1
-8 2 -11 8 -7 24 15 239 -182 224 -206 -4 -7 -3 -9 3 -6 13 8 35 -16 31 -34
-2 -8 3 -13 9 -12 15 3 117 -167 151 -250 85 -212 101 -481 40 -712 -26 -100
-67 -205 -80 -205 -5 0 -6 -4 -3 -10 3 -5 1 -10 -6 -10 -7 0 -10 -3 -6 -6 3
-3 2 -11 -4 -18 -5 -6 -35 -51 -67 -101 -67 -102 -154 -194 -251 -263 -36 -25
-73 -53 -81 -61 -29 -28 -196 -100 -289 -125 -275 -74 -575 -47 -809 72 -81
41 -217 137 -217 152 0 7 -9 14 -19 16 -44 6 -226 219 -210 245 4 8 3 9 -4 5
-14 -8 -36 30 -26 46 5 7 3 8 -6 3 -10 -6 -12 -4 -7 9 4 9 3 15 -2 12 -13 -8
-69 124 -96 227 -13 49 -29 135 -35 191 -6 56 -13 109 -16 118 -3 10 -1 33 5
50 5 18 15 74 21 123 6 50 27 137 46 194 38 115 101 244 115 235 5 -3 9 -2 8
3 -4 21 2 34 13 27 7 -4 8 -3 4 5 -9 14 19 49 121 153 42 43 80 75 86 71 6 -3
7 -1 3 5 -7 11 27 36 37 26 3 -3 8 0 13 7 4 8 3 10 -4 5 -7 -4 -12 -5 -12 -3
0 11 132 89 200 119 41 18 76 36 78 40 2 4 10 4 18 1 8 -3 14 -1 14 5 0 12
153 51 246 61 101 12 134 12 242 0z"/>
</g>
</svg>
