<?xml version="1.0" standalone="no"?>
<!DOCTYPE svg PUBLIC "-//W3C//DTD SVG 20010904//EN"
 "http://www.w3.org/TR/2001/REC-SVG-20010904/DTD/svg10.dtd">
<svg version="1.0" xmlns="http://www.w3.org/2000/svg"
 width="929.000000pt" height="375.000000pt" viewBox="0 0 929.000000 375.000000"
 preserveAspectRatio="xMidYMid meet">
<metadata>
Created by potrace 1.16, written by Peter Selinger 2001-2019
</metadata>
<g transform="translate(0.000000,375.000000) scale(0.100000,-0.100000)"
fill="#000000" stroke="none">
<path d="M5855 3095 c-103 -19 -285 -75 -285 -88 0 -6 -3 -8 -6 -5 -7 8 -147
-69 -250 -137 -120 -80 -273 -244 -354 -381 -36 -60 -69 -112 -75 -116 -7 -5
-7 -8 0 -8 6 0 5 -4 -1 -8 -20 -12 -92 -243 -110 -350 -22 -136 -15 -386 14
-517 41 -181 120 -347 252 -527 69 -94 245 -248 363 -317 53 -32 94 -61 90
-66 -5 -4 -3 -5 4 -1 7 3 38 -4 70 -17 32 -13 79 -29 106 -36 26 -8 47 -17 47
-21 0 -4 42 -16 93 -26 131 -27 438 -27 552 0 44 10 85 21 90 25 6 4 46 20 90
35 97 34 218 94 294 145 123 85 263 224 349 349 27 39 53 68 57 64 5 -4 5 -2
2 5 -4 6 20 68 53 137 90 187 120 324 120 547 0 187 -30 354 -85 474 -12 28
-34 75 -47 105 -79 176 -263 394 -430 508 -48 32 -84 63 -80 67 4 5 2 5 -4 2
-7 -4 -51 14 -100 39 -103 54 -165 77 -289 106 -118 28 -409 35 -530 13z m353
-185 c195 -22 418 -102 527 -192 11 -9 49 -40 85 -68 78 -61 164 -158 216
-243 21 -34 41 -64 46 -65 4 -2 6 -8 2 -13 -3 -5 -1 -9 4 -9 15 0 71 -135 97
-234 69 -255 49 -519 -56 -773 -17 -40 -35 -73 -41 -73 -5 0 -7 -4 -4 -9 4 -5
3 -11 -2 -13 -4 -1 -33 -42 -65 -89 -83 -125 -259 -291 -289 -273 -6 4 -8 3
-4 -4 6 -11 -42 -41 -169 -106 -204 -104 -508 -131 -755 -65 -90 24 -182 59
-192 73 -5 7 -8 7 -8 1 0 -6 -3 -6 -8 1 -4 5 -38 27 -77 48 -127 69 -216 145
-317 272 -76 96 -112 153 -147 238 -106 255 -125 517 -56 776 100 373 414 686
789 785 152 41 274 51 424 35z"/>
<path d="M2355 3059 c-92 -17 -190 -42 -215 -55 -14 -7 -68 -31 -121 -54 -53
-23 -132 -63 -175 -90 -78 -48 -215 -163 -255 -214 -11 -15 -24 -24 -29 -21
-9 6 -23 -12 -26 -32 -1 -6 -25 -41 -54 -78 -98 -129 -183 -328 -220 -520 -25
-132 -27 -357 -4 -490 32 -189 121 -403 223 -538 29 -39 54 -78 56 -87 1 -8 7
-15 12 -15 6 0 42 -31 79 -69 38 -38 92 -87 119 -109 28 -22 49 -43 48 -47 -1
-4 5 -7 15 -6 9 0 16 -5 14 -12 -1 -8 1 -11 6 -8 5 3 71 -27 147 -65 204 -103
355 -139 585 -139 240 0 389 35 596 140 155 78 222 125 333 232 42 40 79 73
83 73 10 0 22 14 24 29 2 13 67 109 92 135 26 27 104 195 137 295 52 157 68
278 63 469 -5 174 -24 279 -74 418 -29 82 -105 239 -126 260 -25 26 -90 122
-92 135 -2 15 -14 29 -25 29 -4 0 -41 33 -82 72 -124 122 -284 224 -434 278
-27 10 -54 22 -60 26 -19 13 -120 40 -210 54 -99 16 -349 18 -430 4z m324
-189 c51 -6 129 -19 172 -30 88 -21 222 -75 244 -96 7 -8 16 -14 20 -14 18 0
134 -83 128 -92 -3 -6 -1 -8 5 -4 6 3 23 -6 39 -20 15 -15 19 -20 8 -13 -18
13 -19 13 -6 -3 7 -10 17 -16 21 -13 11 7 39 -19 120 -110 39 -44 68 -85 66
-92 -3 -7 0 -12 7 -10 7 1 11 -6 11 -15 -1 -10 2 -16 6 -13 12 8 77 -124 113
-231 18 -55 36 -104 39 -109 42 -68 39 -481 -4 -532 -6 -7 -8 -20 -4 -28 3 -8
2 -15 -3 -15 -5 0 -14 -21 -20 -47 -18 -69 -82 -204 -94 -196 -6 3 -7 1 -3 -5
8 -13 -17 -56 -26 -46 -3 3 -5 -3 -4 -13 0 -10 -5 -17 -12 -15 -8 1 -11 -2 -7
-8 3 -5 -6 -27 -22 -47 -42 -58 -162 -174 -173 -168 -5 3 -12 0 -16 -6 -5 -8
-2 -10 7 -5 31 16 -50 -48 -114 -90 -190 -124 -369 -177 -607 -177 -196 0
-357 35 -505 111 -88 45 -220 136 -220 152 0 7 -9 14 -19 16 -39 6 -205 192
-191 214 4 6 1 9 -7 8 -7 -2 -12 5 -12 14 1 10 -2 15 -7 13 -9 -6 -67 103
-100 188 -11 28 -26 66 -34 82 -50 109 -63 393 -27 569 12 55 25 102 29 105 5
3 17 31 27 61 25 74 96 211 106 205 4 -3 7 3 6 13 0 9 5 16 12 14 8 -1 11 2 7
8 -13 21 153 208 190 214 11 2 19 9 18 15 -3 10 22 28 42 30 6 1 10 6 10 11 0
15 185 125 254 151 114 43 273 74 396 78 22 0 82 -4 134 -9z"/>
</g>
</svg>
