<?xml version="1.0" standalone="no"?>
<!DOCTYPE svg PUBLIC "-//W3C//DTD SVG 20010904//EN"
 "http://www.w3.org/TR/2001/REC-SVG-20010904/DTD/svg10.dtd">
<svg version="1.0" xmlns="http://www.w3.org/2000/svg"
 width="958.000000pt" height="727.000000pt" viewBox="0 0 958.000000 727.000000"
 preserveAspectRatio="xMidYMid meet">
<metadata>
Created by potrace 1.16, written by Peter Selinger 2001-2019
</metadata>
<g transform="translate(0.000000,727.000000) scale(0.100000,-0.100000)"
fill="#000000" stroke="none">
<path d="M4530 6195 c-177 -33 -421 -129 -509 -202 -19 -15 -74 -60 -121 -99
-204 -168 -353 -405 -422 -670 -40 -156 -50 -393 -24 -556 26 -152 115 -405
159 -450 22 -21 90 -132 90 -145 0 -7 4 -10 8 -7 8 4 34 -36 31 -46 -1 -3 2
-5 7 -5 5 0 40 -31 77 -69 105 -105 214 -181 369 -256 206 -99 340 -130 565
-130 251 0 391 35 628 157 124 64 178 103 288 207 54 52 103 92 109 88 5 -3 7
-2 3 3 -4 4 12 35 36 69 24 33 63 95 87 136 24 41 47 78 52 81 5 3 8 9 8 12 0
4 8 27 19 51 129 302 134 707 13 1016 -14 36 -48 102 -75 148 -26 46 -46 88
-42 93 3 5 0 8 -8 7 -7 -2 -12 5 -12 14 1 10 -2 16 -6 15 -4 -1 -34 32 -67 74
-34 42 -84 95 -112 119 -27 23 -49 45 -48 49 1 3 -2 8 -8 9 -30 11 -45 24 -39
35 4 7 4 9 0 6 -4 -4 -50 21 -101 56 -139 93 -306 157 -494 190 -107 19 -357
18 -461 0z m348 -176 c96 -10 208 -34 227 -48 6 -4 33 -16 60 -26 120 -43 331
-167 319 -186 -3 -5 -2 -8 3 -7 14 5 63 -41 143 -133 88 -101 138 -183 181
-294 95 -245 110 -496 44 -741 -27 -104 -83 -236 -96 -228 -5 3 -6 -3 -2 -12
5 -13 3 -15 -7 -9 -9 5 -11 4 -6 -3 18 -29 -202 -294 -246 -297 -3 0 -10 -4
-15 -9 -5 -5 -3 -6 5 -2 6 4 12 5 12 2 0 -14 -181 -132 -254 -167 -304 -142
-690 -138 -984 10 -67 34 -226 143 -238 164 -5 7 0 6 12 -3 18 -14 18 -14 5 2
-7 10 -18 15 -23 12 -21 -13 -216 215 -202 237 4 7 3 9 -4 5 -14 -8 -36 30
-26 46 5 7 3 8 -6 3 -10 -6 -12 -4 -7 9 4 9 3 15 -2 12 -13 -8 -69 124 -96
228 -22 79 -49 272 -47 331 2 34 20 164 33 223 26 126 129 369 150 356 5 -3 9
-2 8 3 -4 21 2 34 13 27 6 -4 8 -3 5 3 -9 14 21 52 116 150 44 45 85 79 90 76
6 -3 7 -1 3 5 -7 11 27 36 37 26 3 -3 8 0 13 7 4 8 3 10 -4 5 -7 -4 -12 -5
-12 -2 0 12 158 101 237 132 48 20 102 41 118 49 43 18 124 36 208 45 107 11
129 11 235 -1z"/>
<path d="M6540 2884 c-14 -3 -34 -9 -45 -13 -11 -5 -47 -14 -80 -21 -135 -28
-329 -111 -444 -190 -121 -83 -267 -229 -349 -347 -27 -40 -53 -69 -57 -65 -5
4 -5 2 -1 -5 4 -7 -9 -43 -27 -80 -48 -95 -117 -294 -133 -383 -25 -141 -12
-470 23 -550 3 -8 7 -17 8 -20 1 -3 4 -12 8 -20 3 -8 23 -60 43 -115 56 -153
124 -266 232 -388 75 -85 178 -176 259 -232 35 -23 60 -45 55 -50 -4 -5 -2 -5
5 -1 7 4 43 -9 80 -27 37 -19 102 -46 143 -61 41 -15 89 -33 105 -40 17 -8 77
-22 133 -31 176 -29 494 -10 587 35 11 5 54 22 95 36 159 56 307 143 418 246
36 34 67 56 74 52 6 -4 8 -3 4 4 -8 14 43 74 56 65 6 -3 8 -2 5 4 -4 6 8 28
26 49 106 125 210 342 247 519 8 33 18 66 24 73 14 19 21 345 8 407 -48 235
-125 433 -223 575 -80 117 -242 278 -359 357 -111 75 -346 171 -460 189 -25 4
-48 12 -52 18 -7 10 -358 19 -408 10z m289 -194 c105 -11 221 -37 287 -65 21
-9 41 -15 43 -15 2 1 7 -2 10 -7 3 -4 41 -25 83 -46 43 -22 76 -43 73 -47 -3
-4 3 -7 13 -6 9 0 16 -4 15 -10 -1 -7 5 -11 15 -10 9 0 17 -6 17 -14 0 -9 8
-14 18 -12 24 4 219 -191 215 -215 -2 -10 3 -18 12 -18 8 0 14 -8 14 -17 -1
-10 3 -16 8 -15 6 1 31 -38 57 -88 25 -49 49 -92 53 -95 14 -11 58 -152 75
-239 19 -101 21 -302 4 -406 -7 -38 -25 -108 -41 -155 -33 -98 -133 -286 -150
-282 -6 1 -9 -2 -5 -7 18 -30 -227 -284 -256 -265 -5 3 -8 0 -7 -8 2 -7 -5
-12 -14 -12 -10 1 -16 -2 -13 -6 9 -15 -195 -122 -287 -152 -48 -15 -120 -33
-160 -40 -94 -15 -282 -15 -378 1 -81 13 -284 77 -303 95 -7 7 -39 27 -72 45
-183 103 -314 233 -416 416 -18 33 -36 62 -39 65 -4 3 -19 34 -33 70 -104 263
-111 544 -18 813 26 76 110 224 176 312 83 111 232 244 256 230 5 -4 8 -1 7 7
-2 7 5 12 14 12 10 -1 16 2 13 6 -7 12 183 108 268 135 87 28 206 48 313 53
18 1 77 -3 133 -8z"/>
<path d="M2970 2825 c-175 -32 -423 -130 -505 -199 -16 -13 -71 -58 -120 -99
-208 -170 -357 -406 -427 -673 -54 -211 -51 -497 8 -702 40 -138 89 -248 155
-344 34 -51 62 -98 62 -105 0 -6 4 -10 8 -7 8 4 34 -36 31 -46 -1 -3 2 -5 7
-5 5 0 40 -31 77 -69 38 -38 93 -87 121 -109 29 -21 50 -44 46 -50 -3 -6 -1
-7 5 -3 6 4 30 -5 54 -20 75 -48 281 -142 348 -159 243 -63 530 -61 746 6 92
28 232 95 343 164 117 72 286 233 356 340 181 274 245 477 245 774 0 256 -50
448 -173 659 -20 35 -34 68 -31 73 3 5 0 8 -8 7 -7 -2 -12 5 -12 14 1 10 -2
16 -6 15 -3 -1 -35 33 -70 76 -34 43 -82 94 -106 114 -24 20 -41 40 -39 44 3
4 -2 12 -10 19 -8 7 -15 9 -15 6 0 -4 -9 -2 -20 4 -12 6 -18 16 -14 23 4 7 4
9 0 5 -4 -3 -44 19 -89 49 -138 95 -317 165 -502 197 -111 20 -359 20 -465 1z
m345 -175 c105 -12 185 -28 203 -43 6 -5 12 -6 12 -2 0 4 6 3 13 -2 6 -5 35
-18 62 -28 124 -45 331 -167 319 -187 -4 -6 -3 -8 3 -5 10 6 96 -78 178 -174
162 -191 254 -515 226 -796 -6 -59 -22 -149 -36 -199 -27 -104 -83 -236 -96
-228 -5 3 -6 -3 -2 -12 5 -13 3 -15 -7 -9 -9 5 -11 4 -6 -4 17 -27 -229 -321
-256 -305 -6 4 -8 3 -5 -3 9 -15 -142 -119 -237 -164 -304 -142 -691 -138
-984 10 -60 30 -232 147 -232 157 0 3 5 2 12 -2 7 -4 8 -3 4 5 -4 6 -11 9 -16
6 -12 -8 -136 115 -184 182 -21 30 -34 58 -30 64 4 8 3 9 -4 5 -14 -8 -36 30
-26 46 5 7 3 8 -6 3 -10 -6 -12 -4 -7 9 4 9 3 15 -2 12 -13 -8 -69 125 -96
228 -13 50 -29 132 -35 181 -6 50 -14 100 -17 112 -3 12 0 44 6 70 6 26 15 84
21 128 20 140 134 436 161 419 5 -3 9 -2 8 3 -4 21 2 34 13 27 6 -4 8 -3 5 3
-9 14 21 52 116 150 44 45 85 79 90 76 6 -3 7 -1 3 5 -7 11 27 36 37 26 3 -3
8 0 13 7 4 8 3 10 -4 5 -7 -4 -12 -5 -12 -3 0 3 28 23 63 45 68 45 162 89 247
117 30 10 60 21 65 25 24 18 187 45 295 49 19 0 76 -4 125 -9z"/>
</g>
</svg>
