<?xml version="1.0" standalone="no"?>
<!DOCTYPE svg PUBLIC "-//W3C//DTD SVG 20010904//EN"
 "http://www.w3.org/TR/2001/REC-SVG-20010904/DTD/svg10.dtd">
<svg version="1.0" xmlns="http://www.w3.org/2000/svg"
 width="1237.000000pt" height="779.000000pt" viewBox="0 0 1237.000000 779.000000"
 preserveAspectRatio="xMidYMid meet">
<metadata>
Created by potrace 1.16, written by Peter Selinger 2001-2019
</metadata>
<g transform="translate(0.000000,779.000000) scale(0.100000,-0.100000)"
fill="#000000" stroke="none">
<path d="M7730 7395 c-142 -24 -363 -98 -382 -128 -4 -7 -8 -8 -8 -4 0 4 -6 3
-12 -3 -32 -27 -131 -79 -141 -73 -6 3 -7 1 -3 -5 6 -10 -17 -29 -39 -31 -5
-1 -10 -5 -10 -9 0 -5 -29 -34 -65 -64 -37 -31 -78 -72 -94 -92 -15 -20 -31
-34 -36 -31 -10 6 -24 -14 -25 -35 0 -8 -6 -15 -14 -15 -8 0 -15 -7 -17 -16
-1 -10 -27 -53 -57 -98 -193 -283 -251 -715 -146 -1089 32 -114 91 -243 149
-328 29 -41 53 -83 54 -92 2 -9 8 -17 15 -17 15 0 31 -26 24 -39 -3 -5 -1 -6
5 -2 5 3 25 -12 42 -34 18 -22 62 -66 99 -97 36 -31 66 -61 66 -66 0 -6 8 -11
19 -13 10 -1 24 -8 30 -15 8 -9 8 -10 -3 -4 -10 5 -12 4 -7 -4 4 -6 11 -9 16
-6 5 3 41 -15 80 -41 275 -181 704 -235 1064 -134 112 31 225 81 306 134 39
26 76 44 82 40 7 -4 8 -3 4 4 -6 10 17 29 39 31 6 1 10 5 10 9 0 5 32 36 72
70 39 34 81 75 93 92 11 16 24 29 28 27 4 -1 7 0 8 3 3 18 27 49 36 47 7 -1
12 7 13 18 0 11 6 19 13 17 8 -1 11 1 8 6 -3 5 17 41 43 80 121 179 191 433
191 697 0 270 -72 526 -201 713 -28 40 -52 81 -54 90 -1 9 -8 16 -14 15 -9 -3
-23 15 -33 42 -1 6 -6 9 -10 8 -4 -2 -20 13 -35 33 -15 20 -56 61 -93 92 -36
30 -65 60 -65 66 0 6 -9 11 -20 11 -11 0 -20 7 -20 15 0 8 -7 15 -15 15 -18 0
-152 74 -162 89 -5 7 -8 7 -8 1 0 -5 -4 -5 -8 1 -18 28 -217 93 -364 119 -101
18 -343 18 -448 0z m450 -201 c109 -22 231 -64 224 -76 -4 -7 -2 -8 4 -4 18
11 184 -79 244 -132 29 -25 91 -85 138 -132 160 -161 256 -377 291 -650 14
-110 14 -137 0 -240 -29 -208 -100 -396 -206 -545 -50 -69 -199 -217 -265
-262 -66 -45 -215 -117 -290 -141 -235 -75 -495 -75 -730 0 -75 24 -224 96
-290 141 -66 44 -215 193 -265 262 -90 125 -160 294 -189 450 -31 169 -38 249
-27 278 6 16 11 42 11 58 0 98 54 278 126 419 68 132 116 194 246 311 263 237
622 333 978 263z"/>
<path d="M2130 4494 c-92 -17 -247 -60 -263 -74 -20 -17 -221 -114 -234 -113
-7 0 -11 -4 -10 -11 1 -6 -6 -10 -15 -10 -10 1 -16 -2 -15 -5 1 -4 -27 -32
-63 -61 -36 -30 -89 -79 -117 -108 -29 -30 -53 -51 -53 -47 0 4 -7 2 -15 -5
-8 -7 -13 -16 -10 -20 3 -5 -14 -32 -38 -62 -113 -139 -204 -353 -242 -565
-19 -112 -20 -344 0 -454 8 -46 26 -124 40 -173 26 -91 119 -299 146 -326 8
-8 44 -53 80 -100 74 -94 141 -161 239 -235 36 -27 68 -54 72 -60 4 -5 8 -6 8
-2 0 5 8 1 18 -9 27 -28 212 -111 308 -139 140 -40 245 -55 398 -55 171 0 280
18 441 71 126 42 210 84 311 155 34 24 65 40 69 36 5 -4 5 -2 1 5 -5 10 23 34
44 37 3 1 4 4 3 7 -1 4 20 25 46 48 27 22 77 75 112 118 34 43 66 77 71 75 5
-1 7 2 4 7 -3 5 19 50 49 99 66 108 106 206 141 343 36 143 45 389 19 541 -24
143 -90 350 -119 370 -6 4 -7 8 -3 8 4 0 3 6 -3 13 -22 26 -123 193 -123 204
0 7 -4 10 -8 7 -7 -4 -35 37 -31 44 1 1 -1 2 -4 1 -3 0 -49 42 -102 93 -112
108 -173 150 -332 231 -199 102 -358 138 -600 136 -80 -1 -179 -7 -220 -15z
m475 -204 c97 -20 189 -52 275 -95 54 -27 220 -141 220 -151 0 -3 -6 -2 -12 2
-8 4 -10 3 -5 -2 5 -5 12 -9 15 -9 22 -2 59 -35 126 -116 91 -108 129 -166
120 -181 -5 -7 -3 -8 6 -3 10 6 12 4 7 -9 -4 -9 -3 -15 2 -12 13 8 69 -124 96
-228 59 -219 53 -443 -17 -664 -16 -51 -33 -90 -38 -87 -6 3 -7 0 -4 -8 14
-38 -89 -195 -215 -329 -129 -137 -290 -237 -466 -290 -38 -11 -75 -24 -80
-29 -54 -42 -466 -41 -544 1 -9 5 -47 19 -86 31 -96 30 -188 72 -262 121 -35
22 -63 42 -63 45 0 2 5 1 12 -3 7 -4 8 -3 4 5 -4 6 -12 8 -18 5 -13 -8 -222
201 -214 214 3 6 1 14 -5 18 -8 5 -9 3 -4 -7 8 -12 6 -12 -9 0 -9 8 -15 20
-12 28 3 8 2 12 -2 9 -18 -11 -141 235 -142 282 0 6 -5 12 -11 12 -5 0 -7 5
-4 10 4 6 2 16 -3 23 -14 16 -39 144 -47 238 -9 103 14 311 42 379 4 8 7 17 8
20 1 3 5 14 10 25 4 11 16 41 26 67 36 92 89 189 101 182 7 -4 8 -3 4 4 -18
29 198 273 226 256 6 -4 8 -3 4 4 -3 6 12 23 35 39 23 15 49 36 59 45 10 9 21
14 24 10 3 -3 6 -1 6 5 0 15 153 87 245 116 69 22 129 33 260 51 57 8 241 -5
330 -24z"/>
<path d="M5974 4365 c-212 -40 -393 -114 -526 -214 -28 -22 -56 -37 -61 -34
-6 3 -7 1 -3 -5 8 -13 -28 -35 -39 -24 -5 4 -5 2 -2 -4 4 -7 -17 -32 -47 -58
-30 -26 -83 -81 -117 -124 -34 -42 -66 -76 -71 -74 -5 1 -7 -2 -3 -8 3 -5 -13
-37 -35 -71 -121 -177 -190 -428 -190 -689 0 -278 65 -507 203 -714 37 -54 64
-104 60 -109 -3 -6 -1 -7 5 -3 10 6 38 -31 34 -44 -1 -3 2 -5 7 -5 5 0 40 -31
77 -69 116 -115 212 -182 394 -270 165 -81 331 -116 545 -116 137 0 264 16
380 49 70 20 259 108 336 156 22 14 44 23 50 20 5 -4 8 -3 7 2 -2 5 29 35 67
67 39 33 90 80 113 105 24 25 48 45 52 44 4 -1 14 4 20 12 7 8 9 15 6 15 -4 0
-2 9 4 20 6 11 16 17 22 14 6 -4 8 -3 5 3 -3 5 12 34 33 64 110 153 183 335
215 533 19 117 19 340 0 447 -30 173 -121 417 -183 489 -12 14 -49 62 -82 107
-60 81 -156 174 -255 249 -27 21 -52 41 -55 45 -9 13 -134 78 -210 109 -41 17
-127 45 -190 62 -106 28 -130 31 -305 34 -131 2 -212 -1 -261 -11z m341 -175
c97 -11 184 -28 200 -40 6 -4 35 -15 65 -25 83 -27 169 -68 244 -115 36 -23
66 -44 66 -46 0 -3 -6 -2 -12 2 -7 4 -11 5 -8 1 3 -3 10 -6 15 -7 24 -5 45
-22 39 -32 -4 -6 -3 -8 3 -5 5 3 46 -31 90 -76 95 -98 125 -136 116 -150 -3
-5 -2 -7 4 -4 23 14 125 -199 158 -332 9 -37 21 -74 26 -84 19 -36 29 -219 19
-325 -6 -57 -15 -111 -20 -120 -5 -9 -18 -52 -29 -94 -24 -91 -80 -220 -92
-212 -5 3 -6 -3 -2 -12 5 -13 3 -15 -7 -9 -9 5 -11 4 -6 -3 10 -16 -12 -54
-26 -46 -7 4 -8 3 -4 -5 16 -26 -189 -262 -214 -246 -5 3 -12 0 -16 -6 -5 -8
-2 -10 7 -5 29 15 -48 -46 -111 -88 -188 -126 -376 -180 -620 -179 -189 1
-344 35 -493 110 -70 35 -230 144 -243 166 -5 7 0 6 12 -3 18 -14 18 -14 5 3
-8 9 -16 15 -19 13 -11 -12 -47 21 -127 116 -47 56 -83 108 -80 116 2 7 1 10
-5 7 -12 -7 -33 32 -24 47 5 7 3 8 -6 3 -10 -6 -12 -4 -7 9 4 9 3 15 -2 12
-13 -8 -69 124 -96 228 -86 320 -30 676 148 941 50 74 206 237 220 228 6 -3 7
-1 4 4 -15 23 221 159 343 198 30 10 60 21 65 25 24 18 187 45 295 49 19 0 76
-4 125 -9z"/>
<path d="M9494 4345 c-183 -34 -356 -100 -478 -183 -43 -30 -86 -55 -95 -57
-9 -1 -16 -6 -16 -12 0 -6 -28 -34 -62 -62 -34 -29 -85 -80 -114 -114 -28 -34
-56 -62 -62 -62 -6 0 -11 -8 -13 -17 -1 -9 -25 -50 -53 -90 -130 -189 -201
-439 -201 -708 0 -274 65 -508 198 -709 31 -47 57 -93 57 -101 1 -8 6 -14 13
-13 9 2 33 -29 36 -47 1 -3 4 -4 8 -3 4 2 22 -16 40 -38 18 -23 60 -64 93 -92
33 -27 60 -55 60 -61 1 -6 7 -10 14 -8 18 4 42 -18 34 -31 -3 -6 -1 -7 5 -3 6
4 29 -4 50 -18 54 -34 186 -100 195 -98 4 1 7 -2 7 -7 0 -10 135 -54 235 -77
95 -21 361 -30 467 -15 105 15 305 69 323 88 8 7 17 14 20 13 8 0 145 70 187
96 21 14 44 22 50 18 7 -4 8 -3 4 4 -6 10 17 29 39 31 6 1 10 5 10 10 0 4 27
31 61 59 34 28 73 67 88 87 15 19 31 33 36 30 10 -6 35 23 35 44 0 9 5 15 11
14 6 -1 11 3 11 10 0 12 57 102 80 125 23 24 90 174 122 274 81 254 83 547 6
813 -24 82 -107 273 -123 285 -15 10 -75 103 -75 116 0 7 -3 11 -7 9 -4 -3
-29 22 -55 56 -26 33 -79 87 -118 121 -40 34 -72 66 -72 71 0 6 -7 11 -16 12
-9 2 -52 27 -95 57 -125 86 -296 150 -486 183 -102 18 -355 18 -454 0z m337
-176 c57 -5 108 -14 114 -18 5 -5 26 -12 45 -16 115 -22 260 -84 375 -160 92
-61 242 -210 304 -303 74 -110 149 -298 166 -417 4 -27 10 -54 12 -58 3 -5 7
-27 8 -50 2 -23 6 -59 10 -80 7 -42 -24 -243 -55 -354 -25 -91 -80 -214 -91
-207 -5 3 -6 -3 -2 -12 5 -13 3 -15 -7 -9 -9 6 -11 4 -5 -4 19 -32 -226 -324
-256 -305 -5 3 -8 1 -7 -4 8 -26 -239 -181 -263 -166 -7 4 -9 3 -5 -4 7 -12
-112 -53 -229 -78 -107 -23 -331 -23 -440 0 -110 23 -197 52 -280 94 -89 44
-226 142 -218 155 3 6 1 7 -5 3 -14 -8 -154 129 -200 197 -18 26 -30 52 -26
59 4 7 3 8 -4 4 -14 -8 -36 30 -26 46 5 7 3 8 -6 3 -10 -6 -12 -4 -7 9 4 9 3
15 -2 12 -13 -8 -69 124 -96 227 -13 49 -29 135 -35 191 -6 56 -13 109 -16
118 -3 10 -1 33 5 50 5 18 15 73 21 121 19 154 85 332 170 458 55 81 197 228
275 284 108 77 288 157 405 180 19 4 40 11 46 16 9 7 121 23 200 28 12 0 68
-4 125 -10z"/>
</g>
</svg>
