<?xml version="1.0" standalone="no"?>
<!DOCTYPE svg PUBLIC "-//W3C//DTD SVG 20010904//EN"
 "http://www.w3.org/TR/2001/REC-SVG-20010904/DTD/svg10.dtd">
<svg version="1.0" xmlns="http://www.w3.org/2000/svg"
 width="1225.000000pt" height="812.000000pt" viewBox="0 0 1225.000000 812.000000"
 preserveAspectRatio="xMidYMid meet">
<metadata>
Created by potrace 1.16, written by Peter Selinger 2001-2019
</metadata>
<g transform="translate(0.000000,812.000000) scale(0.100000,-0.100000)"
fill="#000000" stroke="none">
<path d="M7290 7350 c-182 -44 -256 -67 -353 -107 -32 -13 -63 -21 -69 -17 -6
4 -8 3 -5 -3 3 -5 -24 -26 -61 -47 -37 -21 -89 -56 -115 -78 -26 -22 -56 -41
-65 -42 -9 -2 -17 -7 -17 -12 0 -5 -33 -43 -74 -83 -40 -41 -93 -101 -118
-135 -25 -33 -50 -60 -55 -58 -5 1 -7 -2 -3 -8 8 -13 -19 -52 -30 -42 -5 4 -5
2 -1 -5 4 -7 -10 -45 -31 -85 -20 -40 -36 -76 -35 -80 1 -5 -2 -8 -8 -8 -11 0
-51 -122 -75 -230 -26 -116 -31 -375 -10 -502 18 -108 70 -289 87 -299 5 -3 9
-9 9 -13 -2 -11 49 -107 107 -201 71 -114 228 -278 337 -350 204 -135 353
-197 554 -230 126 -21 383 -16 501 10 107 24 230 64 230 75 0 6 3 9 8 8 8 -2
140 64 194 98 21 14 43 22 49 19 5 -4 8 -2 7 3 -2 5 35 40 83 79 47 39 97 87
113 107 15 20 31 34 36 31 4 -2 13 2 20 10 7 8 9 15 6 15 -4 0 -2 9 4 20 6 11
16 17 22 14 6 -4 8 -3 5 2 -3 6 10 32 29 59 72 103 89 132 120 207 82 193 114
350 114 559 0 147 -15 255 -54 391 -28 95 -113 288 -128 288 -5 0 -6 5 -3 10
3 6 2 10 -3 10 -4 0 -31 32 -58 72 -63 93 -136 171 -227 244 -39 32 -80 66
-89 76 -54 53 -270 150 -417 187 -58 15 -113 31 -121 36 -19 12 -364 17 -410
5z m299 -190 c100 -11 225 -39 287 -65 22 -9 41 -15 43 -15 2 1 7 -3 10 -8 3
-5 29 -19 56 -31 49 -22 175 -99 175 -108 0 -2 -5 -1 -12 3 -7 4 -8 3 -4 -5 4
-6 11 -9 16 -6 4 3 19 -4 31 -16 13 -11 17 -17 9 -13 -9 4 -12 3 -7 -2 5 -5
12 -8 15 -8 21 4 186 -172 176 -187 -3 -5 0 -8 8 -7 7 2 12 -5 12 -14 -1 -10
2 -15 7 -12 8 5 13 -10 10 -29 -1 -5 3 -6 8 -3 22 14 127 -238 152 -365 6 -35
16 -70 22 -77 13 -16 13 -295 0 -324 -5 -13 -21 -70 -35 -128 -27 -111 -85
-253 -99 -244 -5 3 -6 -3 -2 -12 5 -13 3 -15 -7 -9 -9 5 -11 4 -6 -3 10 -16
-12 -54 -26 -46 -7 4 -8 3 -4 -5 18 -28 -199 -272 -226 -255 -6 4 -8 3 -5 -3
3 -5 -12 -23 -34 -39 -23 -16 -49 -37 -60 -46 -31 -29 -158 -90 -170 -82 -7 4
-9 3 -5 -4 4 -6 -24 -20 -72 -36 -287 -96 -602 -78 -867 48 -500 238 -751 810
-593 1353 11 40 25 70 29 67 5 -3 6 2 3 10 -7 18 74 190 103 221 10 11 36 43
56 70 60 79 166 183 238 230 91 61 279 150 371 175 129 35 255 45 397 30z"/>
<path d="M3730 7295 c-41 -8 -115 -26 -164 -40 -96 -28 -300 -120 -328 -149
-10 -9 -52 -43 -95 -75 -146 -110 -290 -284 -368 -446 -95 -195 -135 -374
-135 -599 0 -171 18 -280 71 -441 46 -137 99 -241 172 -334 28 -36 50 -71 50
-77 0 -7 4 -11 8 -9 4 3 28 -21 55 -52 26 -31 82 -83 124 -116 41 -33 74 -63
73 -67 -1 -4 5 -7 15 -6 9 0 16 -5 14 -12 -1 -8 2 -11 7 -8 5 3 50 -18 100
-48 96 -57 222 -103 361 -133 128 -27 441 -25 566 4 92 22 303 96 313 111 4 4
42 30 86 57 44 26 97 62 117 77 21 16 42 27 48 23 6 -4 9 -2 8 3 -2 5 41 55
94 113 53 57 106 115 116 129 35 46 110 184 142 260 17 41 37 89 45 105 18 41
41 135 54 222 14 91 14 321 1 399 -17 98 -42 197 -56 224 -7 14 -31 68 -54
121 -23 53 -63 132 -90 175 -48 79 -161 213 -213 254 -15 12 -25 25 -22 30 6
9 -12 23 -31 26 -7 1 -45 27 -85 57 -137 102 -347 189 -534 221 -111 20 -360
20 -465 1z m430 -187 c36 -6 70 -15 77 -20 7 -5 17 -7 23 -3 5 3 10 2 10 -3 0
-5 21 -15 47 -21 69 -18 204 -82 196 -94 -3 -6 -1 -7 5 -3 13 8 56 -17 46 -26
-3 -3 3 -5 13 -4 10 0 17 -5 15 -12 -1 -8 2 -11 8 -7 22 14 208 -152 214 -191
2 -10 9 -19 16 -19 16 0 107 -132 152 -220 150 -293 149 -708 -2 -1005 -12
-23 -26 -48 -31 -54 -5 -6 -31 -45 -59 -87 -27 -42 -58 -82 -67 -90 -17 -13
-17 -13 -3 6 14 19 14 19 -2 6 -10 -7 -15 -17 -12 -22 13 -21 -217 -215 -239
-202 -7 3 -9 3 -5 -2 11 -11 -29 -38 -44 -29 -7 5 -8 3 -3 -6 6 -10 4 -12 -9
-7 -9 4 -15 3 -12 -2 8 -13 -124 -69 -228 -96 -333 -90 -713 -23 -971 170 -81
61 -206 186 -198 198 3 6 1 7 -4 4 -22 -13 -141 189 -188 318 -10 28 -22 55
-26 60 -15 20 -39 136 -50 236 -7 71 -7 134 0 205 10 101 38 234 51 244 3 3
17 34 29 70 40 111 110 237 125 223 4 -4 4 0 1 8 -3 9 2 22 11 30 16 12 17 12
9 -1 -4 -8 -5 -12 -1 -8 4 3 7 8 5 10 -6 8 23 48 32 43 5 -4 8 -3 7 2 -6 20
165 188 181 178 5 -3 13 0 17 6 5 8 3 9 -7 4 -12 -8 -12 -6 0 9 8 9 20 15 28
12 8 -3 11 -1 8 4 -6 9 8 14 28 11 5 -1 6 3 3 8 -9 13 118 76 230 114 55 18
104 36 110 39 10 7 105 24 174 32 50 6 214 -3 290 -16z"/>
<path d="M1663 4435 c-176 -33 -300 -78 -421 -151 -40 -25 -77 -42 -83 -39 -5
4 -8 1 -7 -7 2 -7 -5 -12 -14 -12 -10 1 -16 -2 -15 -6 1 -3 -33 -35 -76 -69
-43 -35 -96 -85 -119 -112 -22 -27 -44 -46 -49 -44 -9 6 -23 -14 -24 -35 0 -8
-7 -14 -15 -12 -8 2 -12 1 -9 -3 4 -3 -21 -49 -56 -100 -136 -204 -205 -446
-205 -721 0 -153 15 -258 55 -398 26 -91 119 -299 146 -326 8 -8 44 -53 80
-100 73 -94 141 -161 239 -235 36 -27 71 -55 79 -63 27 -26 238 -121 326 -147
141 -41 246 -55 399 -55 167 0 280 18 426 66 133 44 252 104 343 173 39 29 77
54 84 55 14 2 28 14 28 25 0 4 35 43 78 86 43 44 103 116 133 161 51 77 144
259 144 283 0 6 4 11 9 11 11 0 47 131 66 242 36 205 7 522 -62 678 -104 232
-164 328 -289 459 -49 51 -88 99 -86 105 2 6 0 8 -4 4 -4 -4 -34 12 -68 36
-34 23 -95 62 -136 87 -41 24 -77 46 -80 50 -10 13 -205 81 -289 101 -113 26
-420 34 -528 13z m347 -185 c52 -6 136 -21 186 -35 103 -27 236 -83 228 -96
-3 -5 3 -6 12 -2 13 5 15 3 9 -7 -5 -9 -4 -11 3 -6 29 18 294 -202 297 -246 0
-3 4 -10 9 -15 5 -5 6 -3 2 5 -4 6 -5 12 -2 12 13 0 134 -184 168 -256 141
-300 137 -693 -10 -979 -45 -88 -137 -220 -151 -217 -7 1 -10 -2 -7 -7 17 -27
-228 -242 -255 -225 -8 4 -9 3 -5 -4 7 -12 -108 -74 -199 -107 -27 -10 -56
-23 -62 -28 -7 -5 -13 -6 -13 -2 0 4 -6 3 -13 -3 -26 -22 -192 -45 -317 -45
-120 0 -290 24 -316 44 -6 5 -14 6 -17 2 -4 -3 -7 -1 -7 5 0 7 -6 12 -12 12
-47 1 -293 124 -282 142 3 4 -1 5 -9 2 -8 -3 -20 3 -28 12 -12 15 -12 17 0 9
10 -5 12 -4 7 4 -4 6 -12 9 -17 5 -13 -8 -190 166 -182 179 3 6 1 7 -5 3 -11
-7 -36 27 -26 37 3 3 0 8 -7 13 -8 5 -10 3 -4 -7 8 -12 6 -12 -9 0 -9 8 -14
21 -11 30 3 8 3 12 -1 8 -16 -15 -87 116 -129 238 -16 44 -32 85 -36 90 -12
16 -36 152 -43 240 -10 116 19 347 47 383 5 6 6 12 2 12 -4 0 -3 6 2 13 5 6
18 35 28 62 45 124 167 331 187 319 6 -4 8 -2 4 4 -7 12 157 169 234 222 161
110 388 180 615 188 22 1 83 -3 135 -8z"/>
<path d="M5550 4324 c-14 -3 -34 -9 -45 -13 -11 -5 -47 -14 -80 -21 -133 -27
-330 -112 -445 -191 -117 -80 -272 -234 -347 -345 -58 -85 -119 -211 -157
-323 -17 -53 -35 -101 -39 -107 -17 -29 -37 -199 -37 -323 0 -135 18 -291 38
-327 6 -10 21 -50 33 -89 12 -38 32 -96 46 -128 13 -32 21 -63 17 -69 -4 -6
-3 -8 3 -5 5 3 29 -28 53 -70 76 -134 236 -306 376 -402 46 -32 80 -62 76 -66
-4 -5 -2 -5 5 -1 10 6 130 -49 143 -66 12 -16 222 -78 318 -93 79 -13 140 -16
265 -12 238 7 366 39 552 137 136 72 226 135 320 227 44 42 83 77 88 77 4 1 7
5 6 9 0 4 22 36 49 70 62 79 124 186 161 279 33 81 81 241 81 267 0 9 6 23 13
29 16 17 17 432 1 453 -6 8 -17 43 -23 78 -26 133 -111 333 -191 451 -79 115
-235 271 -350 350 -118 80 -350 177 -470 196 -25 4 -48 12 -52 18 -7 10 -358
19 -408 10z m289 -194 c55 -6 135 -20 178 -31 84 -21 327 -135 318 -148 -2 -5
3 -8 13 -7 9 0 16 -4 15 -10 -1 -7 5 -11 15 -10 9 0 17 -6 17 -14 0 -8 8 -14
17 -12 23 4 193 -162 183 -178 -5 -8 -4 -11 2 -7 13 8 35 -16 31 -34 -2 -7 4
-13 12 -14 8 0 14 -8 14 -17 -1 -10 3 -16 8 -15 6 1 31 -38 57 -88 25 -49 49
-92 53 -95 14 -11 58 -153 72 -234 24 -134 28 -215 16 -331 -16 -143 -49 -256
-112 -380 -96 -188 -175 -288 -310 -391 -35 -27 -71 -56 -82 -66 -10 -9 -48
-32 -85 -51 -307 -161 -673 -176 -994 -41 -80 34 -156 75 -179 97 -7 7 -39 32
-70 55 -113 83 -223 213 -288 342 -12 25 -28 48 -34 52 -6 5 -7 8 -1 8 7 0 7
3 0 8 -34 24 -90 224 -106 372 -15 153 5 330 55 478 28 82 133 275 146 267 4
-3 7 3 6 12 0 10 6 18 14 18 8 1 14 7 12 14 -4 18 18 42 31 34 6 -3 7 -1 3 6
-14 22 173 199 195 185 5 -3 8 0 7 8 -2 7 5 12 14 12 10 -1 16 3 15 10 -1 6 6
10 15 10 10 -1 15 2 13 7 -8 13 232 126 315 148 69 19 188 36 266 40 18 0 77
-4 133 -9z"/>
<path d="M9015 4286 c-223 -43 -416 -125 -555 -236 -34 -28 -67 -47 -73 -43
-5 3 -7 1 -4 -4 4 -6 -19 -32 -50 -59 -31 -26 -83 -82 -116 -124 -33 -41 -64
-74 -69 -72 -5 1 -7 -2 -3 -7 3 -6 -16 -43 -41 -83 -122 -190 -184 -417 -184
-678 0 -146 17 -276 51 -386 34 -110 80 -224 90 -224 6 0 8 -4 5 -9 -4 -5 -2
-11 2 -13 4 -1 25 -32 47 -68 21 -36 44 -72 52 -81 8 -9 13 -23 11 -30 -2 -8
2 -13 9 -12 10 2 34 -28 37 -47 1 -3 4 -4 8 -3 4 2 22 -16 40 -38 18 -23 60
-64 93 -92 33 -27 60 -55 60 -61 1 -6 7 -10 14 -8 18 4 42 -18 34 -31 -3 -5
-1 -7 4 -4 11 7 172 -78 185 -98 5 -6 8 -6 8 0 0 6 3 6 8 -1 18 -26 202 -84
342 -109 109 -19 329 -19 445 0 132 21 330 84 347 109 4 6 8 7 8 3 0 -4 6 -3
13 3 22 19 202 122 217 125 8 1 15 6 15 12 0 6 30 36 67 67 36 31 78 72 93 91
14 19 29 34 33 32 4 -1 7 0 8 3 3 19 27 49 37 47 7 -1 11 4 9 12 -2 7 3 21 11
30 8 9 34 50 58 91 24 41 48 78 54 82 5 4 6 8 2 8 -5 0 -2 6 6 14 23 23 95
252 112 356 49 306 -10 649 -154 883 -23 38 -39 72 -35 78 3 5 0 8 -8 7 -7 -2
-12 5 -12 14 1 10 -2 16 -6 15 -4 -1 -34 32 -67 74 -34 42 -84 95 -112 119
-27 23 -49 47 -48 52 1 6 -6 12 -15 13 -9 2 -42 24 -74 49 -109 89 -255 157
-444 208 -106 28 -130 31 -305 34 -130 2 -212 -1 -260 -10z m344 -176 c100
-11 195 -32 251 -57 217 -96 367 -184 353 -206 -3 -5 -2 -7 4 -4 13 8 137
-116 198 -198 193 -257 260 -638 170 -971 -27 -104 -83 -236 -96 -228 -5 3 -6
-3 -2 -12 5 -13 3 -15 -7 -9 -9 5 -11 4 -6 -3 16 -26 -143 -226 -246 -308
-122 -97 -144 -112 -223 -151 -165 -83 -312 -116 -510 -116 -277 1 -492 74
-700 241 -133 106 -298 303 -279 333 5 8 3 9 -6 4 -10 -6 -12 -4 -7 9 4 9 3
15 -2 12 -13 -8 -69 124 -96 228 -86 320 -30 676 148 941 50 74 206 237 220
228 6 -3 7 -1 4 4 -9 14 89 81 200 137 50 25 94 46 98 46 3 0 25 9 48 19 59
27 156 51 246 60 109 12 135 12 240 1z"/>
</g>
</svg>
