<?xml version="1.0" standalone="no"?>
<!DOCTYPE svg PUBLIC "-//W3C//DTD SVG 20010904//EN"
 "http://www.w3.org/TR/2001/REC-SVG-20010904/DTD/svg10.dtd">
<svg version="1.0" xmlns="http://www.w3.org/2000/svg"
 width="1245.000000pt" height="1125.000000pt" viewBox="0 0 1245.000000 1125.000000"
 preserveAspectRatio="xMidYMid meet">
<metadata>
Created by potrace 1.16, written by Peter Selinger 2001-2019
</metadata>
<g transform="translate(0.000000,1125.000000) scale(0.100000,-0.100000)"
fill="#000000" stroke="none">
<path d="M5620 10634 c-121 -22 -370 -106 -390 -132 -3 -4 -52 -38 -110 -77
-173 -115 -291 -240 -398 -420 -23 -38 -46 -76 -52 -82 -6 -7 -7 -13 -3 -13 4
0 3 -4 -3 -8 -26 -18 -84 -202 -109 -342 -20 -112 -19 -331 1 -445 16 -91 65
-258 90 -307 8 -15 14 -31 13 -34 0 -4 3 -10 8 -13 5 -3 28 -39 51 -78 102
-173 227 -310 382 -416 44 -30 76 -58 72 -62 -4 -5 -2 -5 4 -2 7 4 44 -11 83
-32 39 -22 71 -36 71 -33 0 4 4 2 8 -4 9 -15 143 -59 247 -82 113 -24 417 -24
530 0 99 22 238 67 246 80 3 5 8 8 10 7 8 -7 178 92 258 149 143 102 254 226
353 395 23 39 45 74 48 77 10 9 47 102 73 186 75 237 77 536 6 772 -32 105
-71 202 -82 202 -6 0 -8 3 -4 6 3 3 2 11 -4 18 -5 6 -41 61 -80 121 -107 163
-232 284 -409 395 -30 19 -56 38 -58 42 -11 24 -267 109 -401 133 -106 18
-347 18 -451 -1z m451 -200 c100 -19 195 -52 297 -103 52 -26 80 -46 76 -53
-4 -7 -3 -8 5 -4 17 11 125 -70 207 -155 150 -157 248 -347 291 -568 32 -168
17 -410 -37 -567 -33 -95 -82 -194 -93 -187 -6 3 -7 1 -3 -5 8 -13 -17 -56
-26 -46 -3 3 -5 -3 -4 -13 0 -10 -4 -17 -10 -16 -7 1 -11 -5 -10 -15 0 -9 -5
-16 -12 -14 -8 1 -11 -2 -8 -7 20 -31 -264 -295 -295 -275 -8 4 -9 3 -5 -4 8
-14 -30 -36 -46 -26 -7 5 -8 3 -3 -6 6 -10 4 -12 -9 -7 -9 4 -15 3 -12 -2 13
-21 -199 -98 -334 -122 -154 -27 -367 -13 -520 33 -86 26 -201 79 -194 89 3 5
-3 6 -12 2 -13 -5 -15 -3 -9 7 5 9 4 11 -3 6 -13 -8 -56 17 -46 26 3 3 -3 5
-13 4 -10 0 -17 5 -15 12 1 8 -2 11 -8 7 -26 -16 -280 230 -265 256 4 5 1 8
-7 7 -7 -2 -12 5 -12 14 1 10 -3 16 -10 15 -6 -1 -10 6 -10 15 1 10 -2 15 -7
13 -11 -8 -31 33 -23 47 5 7 3 8 -6 3 -10 -6 -12 -4 -7 9 4 9 3 15 -2 12 -9
-6 -61 103 -84 179 -66 212 -68 465 -5 675 27 91 89 221 101 213 6 -3 7 -1 3
5 -10 16 12 54 26 46 7 -4 8 -3 4 4 -25 41 295 361 336 336 7 -4 8 -3 4 4 -9
15 144 92 249 125 69 22 127 33 260 51 50 7 224 -4 306 -20z"/>
<path d="M7590 7353 c-89 -15 -243 -58 -316 -88 -47 -20 -90 -32 -96 -29 -6 4
-8 3 -5 -3 4 -6 -15 -22 -41 -36 -86 -47 -191 -126 -269 -204 -43 -43 -81 -78
-85 -78 -12 0 -23 -16 -23 -33 0 -9 -6 -17 -12 -17 -7 0 -12 -2 -11 -5 4 -13
-24 -50 -34 -44 -6 4 -8 3 -5 -3 4 -6 -22 -58 -57 -115 -73 -123 -126 -270
-151 -427 -27 -159 -17 -389 23 -541 28 -110 79 -246 102 -272 19 -24 112
-183 114 -198 2 -8 8 -15 15 -15 13 0 32 -26 25 -36 -2 -4 3 -12 11 -19 8 -7
15 -9 15 -5 0 4 37 -30 83 -75 169 -168 375 -277 633 -336 108 -25 370 -30
489 -10 185 32 382 109 523 205 63 43 192 156 223 196 12 14 24 23 29 20 4 -3
13 2 20 10 7 8 9 15 6 15 -4 0 -2 9 4 20 6 11 16 19 22 17 7 -1 12 5 13 13 0
8 17 40 37 72 21 31 45 72 55 92 9 20 21 36 25 36 5 0 6 5 3 10 -3 6 -2 10 3
10 13 0 69 146 92 238 31 126 40 200 40 338 0 243 -55 457 -166 642 -35 57
-61 109 -57 115 3 6 1 7 -5 3 -9 -5 -33 24 -36 44 -1 3 -4 4 -8 3 -8 -3 -25
25 -27 42 -1 6 -4 10 -8 10 -5 0 -45 37 -91 82 -132 131 -311 241 -486 298
-154 49 -260 65 -433 64 -87 -1 -169 -4 -183 -6z m413 -199 c149 -28 314 -101
432 -189 78 -58 197 -174 190 -185 -3 -5 0 -12 6 -16 8 -5 10 -2 5 7 -4 8 2 3
13 -10 12 -12 19 -27 16 -31 -3 -5 0 -12 6 -16 8 -5 10 -2 5 7 -4 8 2 3 13
-11 20 -24 25 -36 22 -53 -1 -5 3 -6 8 -2 6 3 33 -41 60 -98 148 -306 155
-639 20 -963 -29 -70 -138 -246 -161 -260 -7 -5 -8 -3 -3 6 5 9 4 11 -4 6 -6
-4 -9 -11 -6 -16 9 -15 -116 -129 -210 -191 -49 -33 -95 -63 -101 -69 -7 -5
-15 -6 -18 -3 -3 4 -6 2 -6 -4 0 -15 -128 -67 -225 -92 -179 -45 -335 -49
-521 -11 -101 21 -254 76 -254 91 0 6 -4 7 -10 4 -5 -3 -10 -1 -10 6 0 7 -3
10 -6 6 -3 -3 -11 -1 -18 4 -6 5 -51 36 -101 68 -92 60 -219 176 -210 191 3 5
0 12 -6 16 -8 5 -9 3 -4 -6 5 -8 4 -11 -3 -6 -24 14 -130 186 -160 257 -107
258 -126 510 -56 769 28 105 119 304 135 295 5 -4 9 -3 8 2 -3 20 2 34 11 28
5 -3 7 0 4 8 -3 8 3 20 12 28 15 12 17 12 9 0 -5 -10 -4 -12 4 -7 6 4 9 11 6
16 -3 4 4 19 16 31 11 13 17 18 13 10 -5 -9 -3 -12 5 -7 6 4 9 11 6 16 -7 12
102 118 185 181 36 27 103 69 150 93 128 66 220 92 425 120 51 7 225 -4 308
-20z"/>
<path d="M4078 7305 c-260 -49 -496 -169 -673 -342 -44 -43 -83 -78 -87 -78
-13 0 -33 -26 -33 -43 0 -9 -7 -17 -15 -17 -8 -1 -14 -7 -12 -14 4 -18 -18
-42 -31 -34 -6 3 -7 1 -3 -5 4 -6 -4 -28 -17 -49 -13 -21 -37 -63 -52 -92 -15
-30 -33 -60 -40 -67 -20 -20 -82 -222 -99 -323 -30 -177 -17 -424 30 -591 19
-67 64 -183 74 -190 4 -3 22 -34 40 -70 18 -36 46 -84 62 -108 17 -24 31 -51
33 -60 1 -9 8 -16 14 -15 10 3 36 -36 33 -47 -1 -3 2 -5 6 -5 4 0 46 -37 92
-83 47 -46 120 -107 162 -136 43 -29 74 -57 70 -61 -4 -5 -2 -5 4 -2 7 4 47
-11 90 -32 81 -41 187 -77 309 -108 55 -14 113 -18 275 -18 191 0 213 2 313
27 252 64 434 168 622 354 50 49 81 78 70 64 -19 -25 -19 -25 0 -7 11 10 20
25 20 35 0 9 7 17 15 17 8 0 15 7 15 15 0 8 26 54 57 101 134 200 198 425 198
693 0 264 -59 477 -188 680 -35 56 -65 108 -67 116 -1 8 -8 15 -16 15 -8 0
-14 7 -14 16 0 18 -23 50 -33 46 -4 -1 -38 29 -77 67 -168 166 -342 263 -585
328 -105 28 -131 31 -300 34 -132 2 -207 -1 -262 -11z m455 -191 c158 -30 306
-96 438 -196 93 -70 192 -166 184 -178 -3 -5 0 -12 6 -16 8 -5 10 -2 5 7 -4 8
2 3 13 -10 12 -12 18 -28 14 -34 -3 -5 -1 -7 5 -4 14 9 93 -116 131 -207 128
-308 128 -619 1 -919 -34 -77 -115 -217 -127 -217 -2 0 -1 5 3 12 4 7 3 8 -5
4 -6 -4 -9 -11 -6 -16 3 -5 -7 -21 -21 -37 -15 -15 -20 -19 -13 -8 13 18 13
19 -3 6 -10 -7 -16 -17 -13 -21 9 -15 -98 -113 -227 -206 -255 -185 -679 -231
-1001 -110 -84 31 -207 95 -207 107 0 5 -6 9 -14 9 -8 0 -16 3 -18 8 -1 4 -29
26 -60 50 -74 55 -169 152 -161 165 3 6 1 7 -5 3 -11 -7 -36 27 -26 37 3 3 0
8 -7 13 -8 4 -10 3 -5 -4 4 -7 5 -12 3 -12 -12 0 -93 140 -127 217 -127 299
-128 612 -1 914 36 85 93 182 104 174 4 -3 5 -2 2 1 -8 12 16 45 28 38 7 -4 9
-4 5 1 -11 11 11 47 24 39 6 -4 8 -3 5 3 -8 13 87 111 163 167 30 23 63 49 74
58 10 9 49 33 87 53 231 121 489 159 752 109z"/>
<path d="M2045 4485 c-227 -42 -403 -118 -565 -243 -35 -28 -68 -48 -72 -45
-5 2 -7 0 -6 -5 3 -10 -111 -127 -123 -127 -11 0 -23 -14 -25 -28 -1 -7 -24
-43 -52 -79 -97 -129 -163 -271 -208 -452 -20 -79 -27 -136 -31 -261 -7 -192
10 -316 62 -471 34 -103 107 -260 130 -279 6 -5 32 -39 57 -75 138 -196 338
-353 563 -440 44 -17 94 -37 110 -45 82 -36 188 -50 380 -50 193 0 313 16 390
50 17 8 68 29 115 48 47 19 114 51 148 71 35 20 68 33 73 30 5 -3 8 0 7 8 -2
7 5 12 14 12 10 -1 16 2 15 6 -1 3 37 39 85 79 48 39 120 111 159 159 40 48
76 86 79 85 4 -1 7 5 6 15 0 9 4 16 10 15 7 -1 11 3 10 10 0 7 21 54 47 105
26 51 57 116 68 145 11 29 26 66 34 82 35 76 50 196 50 395 -1 170 -4 207 -24
290 -13 52 -27 100 -31 105 -4 6 -22 46 -39 90 -87 220 -226 400 -426 553 -33
26 -66 52 -74 60 -26 25 -194 104 -295 137 -55 19 -141 41 -191 49 -109 19
-350 20 -450 1z m333 -176 c97 -10 200 -32 230 -49 10 -5 49 -22 89 -38 92
-38 205 -101 198 -111 -2 -5 3 -8 12 -7 10 0 18 -6 18 -14 1 -8 7 -14 14 -12
18 4 42 -18 34 -31 -3 -6 -1 -7 6 -3 16 10 165 -141 215 -217 85 -131 152
-297 177 -444 27 -154 10 -386 -38 -538 -27 -85 -85 -205 -96 -198 -6 3 -7 1
-3 -5 8 -13 -17 -56 -26 -46 -3 3 -5 -3 -4 -13 0 -10 -5 -17 -12 -15 -8 1 -11
-2 -8 -7 15 -24 -253 -297 -281 -287 -8 3 -11 1 -8 -4 6 -9 -8 -14 -28 -11 -5
1 -6 -3 -2 -8 3 -6 -41 -33 -97 -60 -251 -122 -544 -149 -808 -75 -108 31
-286 118 -370 182 -80 60 -183 170 -174 184 4 6 2 8 -3 5 -13 -8 -35 16 -31
34 2 7 -4 13 -12 14 -8 0 -14 8 -14 17 1 10 -3 16 -10 15 -6 -1 -10 6 -10 15
1 10 -2 16 -6 13 -10 -6 -81 132 -111 215 -12 36 -26 70 -30 75 -21 28 -41
179 -41 305 0 127 20 278 42 305 4 6 15 35 25 65 25 77 99 224 151 297 55 78
160 182 239 238 65 46 223 129 268 140 15 4 27 11 27 16 0 5 7 6 15 3 8 -4 15
-2 15 3 0 5 6 10 13 11 6 0 38 8 69 17 55 15 166 31 236 34 18 0 76 -4 130
-10z"/>
<path d="M5880 4373 c-127 -20 -310 -70 -310 -86 0 -4 -4 -5 -10 -2 -5 3 -10
1 -10 -4 0 -6 -3 -10 -7 -9 -11 3 -149 -69 -213 -111 -30 -20 -62 -36 -70 -36
-8 -1 -14 -6 -13 -13 3 -10 -35 -38 -47 -34 -3 1 -5 -2 -5 -6 0 -4 -37 -46
-83 -92 -140 -143 -230 -292 -296 -490 -55 -164 -69 -274 -63 -469 4 -133 10
-187 31 -268 60 -239 165 -428 332 -598 38 -38 68 -73 67 -77 -4 -10 28 -33
46 -33 9 0 15 -7 13 -15 -2 -8 -1 -12 3 -8 4 4 48 -20 98 -54 204 -137 400
-197 669 -206 292 -8 531 55 742 198 43 28 86 53 95 55 9 1 15 8 14 14 -3 10
22 28 42 30 6 1 10 5 10 9 0 4 33 41 74 81 168 169 276 362 337 604 35 137 44
395 20 535 -20 115 -74 285 -121 376 -19 38 -32 74 -28 80 3 6 3 8 -2 4 -4 -4
-32 28 -62 72 -30 43 -91 116 -136 162 -45 46 -82 86 -82 91 0 4 -2 6 -5 5
-12 -4 -50 24 -47 34 1 7 -7 12 -18 13 -11 0 -20 7 -20 15 -1 8 -7 14 -14 12
-7 -1 -18 2 -25 7 -6 5 -65 38 -131 74 -202 108 -367 148 -609 146 -78 -1
-152 -3 -166 -6z m290 -193 c118 -13 229 -42 343 -90 77 -34 217 -115 217
-127 0 -2 -6 -1 -12 3 -7 4 -11 5 -8 1 3 -3 10 -6 15 -7 24 -5 45 -22 39 -32
-4 -6 -3 -8 3 -5 14 9 122 -101 195 -197 141 -187 210 -401 211 -651 1 -256
-66 -466 -211 -662 -69 -93 -169 -196 -182 -188 -5 3 -12 0 -16 -6 -5 -8 -2
-10 7 -5 8 4 3 -2 -10 -13 -12 -12 -27 -19 -31 -16 -5 3 -12 0 -16 -6 -5 -8
-3 -9 7 -4 12 8 12 6 0 -9 -8 -9 -20 -15 -28 -12 -8 3 -12 2 -9 -2 7 -12 -86
-66 -180 -106 -296 -124 -610 -122 -907 4 -103 45 -220 118 -210 133 3 5 1 7
-5 3 -6 -3 -23 6 -39 20 -15 15 -19 20 -8 13 18 -13 19 -13 6 3 -7 10 -17 15
-22 12 -12 -7 -99 84 -156 161 -69 95 -72 99 -72 109 1 5 -4 12 -9 15 -5 3
-21 29 -34 56 -118 234 -145 525 -73 791 26 100 82 234 97 234 5 0 6 5 3 10
-3 6 -1 10 4 10 6 0 11 7 11 15 0 8 5 15 11 15 5 0 8 4 5 9 -4 5 -2 11 2 13 4
1 29 32 54 68 52 73 163 186 179 182 6 -1 8 2 5 7 -9 14 159 123 246 159 145
60 305 97 443 101 22 0 83 -4 135 -9z"/>
<path d="M9295 4344 c-84 -15 -246 -61 -255 -73 -3 -4 -44 -25 -92 -48 -47
-23 -112 -58 -145 -79 -32 -22 -65 -39 -73 -39 -8 -1 -14 -6 -13 -13 3 -10
-35 -38 -47 -34 -3 1 -5 -1 -5 -6 0 -4 -35 -43 -79 -87 -138 -140 -235 -299
-301 -499 -54 -160 -68 -271 -62 -465 6 -183 28 -297 87 -445 17 -43 27 -82
24 -88 -5 -7 -2 -8 6 -3 10 6 12 4 7 -9 -4 -9 -3 -15 1 -12 4 2 31 -34 59 -82
51 -85 171 -230 226 -272 15 -12 25 -25 22 -30 -6 -10 24 -35 44 -35 9 0 15
-7 13 -15 -2 -8 0 -12 3 -8 4 4 47 -19 94 -52 206 -141 442 -210 716 -210 275
0 521 73 722 213 44 31 84 53 88 49 5 -4 5 -2 1 5 -6 11 16 30 39 32 6 1 10 5
10 9 0 4 33 41 74 82 170 171 276 361 337 603 21 81 27 135 31 268 6 195 -8
305 -63 468 -66 199 -156 348 -296 491 -46 46 -83 88 -83 92 0 4 -2 7 -5 6
-12 -4 -50 24 -47 34 1 7 -7 12 -18 13 -11 0 -19 5 -18 11 1 6 -4 11 -10 11
-7 0 -31 12 -54 26 -73 46 -265 137 -333 157 -166 50 -431 65 -605 34z m342
-184 c318 -33 594 -187 776 -435 29 -38 55 -72 59 -73 5 -2 6 -8 2 -13 -3 -5
0 -9 6 -9 6 0 31 -42 55 -93 149 -315 146 -684 -8 -992 -58 -117 -242 -345
-266 -331 -5 3 -15 -2 -22 -12 -13 -16 -12 -16 6 -3 19 14 19 13 -1 -8 -11
-12 -29 -24 -40 -25 -10 -2 -19 -8 -19 -15 0 -17 -138 -97 -230 -132 -44 -17
-118 -40 -165 -52 -47 -11 -95 -25 -107 -30 -30 -13 -286 -13 -316 0 -12 5
-65 20 -117 33 -52 12 -134 39 -183 60 -103 45 -220 118 -210 133 3 5 1 7 -5
3 -6 -3 -23 6 -39 20 -15 15 -19 20 -8 13 18 -13 19 -13 6 3 -7 10 -18 15 -23
12 -24 -15 -207 215 -268 336 -121 241 -148 527 -74 801 27 102 106 279 124
279 6 0 9 4 6 8 -3 5 3 18 12 28 10 10 38 46 63 79 63 82 197 207 212 199 7
-4 8 -3 4 1 -22 25 227 148 375 185 142 37 250 45 395 30z"/>
</g>
</svg>
