<?xml version="1.0" standalone="no"?>
<!DOCTYPE svg PUBLIC "-//W3C//DTD SVG 20010904//EN"
 "http://www.w3.org/TR/2001/REC-SVG-20010904/DTD/svg10.dtd">
<svg version="1.0" xmlns="http://www.w3.org/2000/svg"
 width="1166.000000pt" height="1125.000000pt" viewBox="0 0 1166.000000 1125.000000"
 preserveAspectRatio="xMidYMid meet">
<metadata>
Created by potrace 1.16, written by Peter Selinger 2001-2019
</metadata>
<g transform="translate(0.000000,1125.000000) scale(0.100000,-0.100000)"
fill="#000000" stroke="none">
<path d="M2553 10694 c-17 -7 -43 -29 -57 -47 -28 -36 -33 -53 -14 -41 7 5 8
3 4 -5 -5 -7 -11 -10 -14 -7 -3 4 -15 -2 -26 -13 -14 -13 -40 -21 -76 -23 -39
-3 -55 -9 -55 -19 -1 -39 -63 -179 -80 -179 -13 0 -48 -40 -54 -61 -1 -8 -5
-36 -7 -62 -3 -55 -44 -132 -73 -142 -40 -12 -55 -119 -21 -150 24 -22 26 -61
5 -113 -9 -20 -22 -79 -29 -131 -11 -73 -19 -96 -35 -107 -26 -19 -27 -50 -2
-63 10 -6 21 -8 24 -5 2 3 3 -46 0 -108 -4 -111 -15 -158 -54 -246 -11 -24
-26 -60 -33 -80 -8 -20 -17 -46 -22 -57 -4 -11 -8 -26 -10 -33 -1 -8 -10 -22
-18 -31 -9 -10 -16 -21 -16 -25 0 -5 -20 -38 -44 -75 -24 -36 -67 -113 -95
-171 -29 -57 -57 -110 -62 -117 -6 -7 -8 -17 -4 -23 4 -6 2 -9 -3 -8 -13 4
-74 -71 -153 -190 -38 -56 -85 -124 -104 -152 -19 -27 -37 -60 -41 -74 -3 -14
-10 -26 -16 -26 -5 0 -7 -4 -4 -8 3 -5 -20 -58 -51 -118 -92 -180 -104 -205
-123 -263 -10 -31 -30 -89 -45 -130 -15 -40 -25 -82 -22 -92 3 -11 0 -16 -8
-13 -8 3 -14 -6 -18 -23 -2 -15 -19 -80 -37 -143 l-33 -115 -3 -300 c-2 -317
13 -532 53 -730 10 -49 17 -98 16 -107 -2 -10 1 -18 5 -18 4 0 8 -10 8 -22 1
-13 9 -59 18 -103 9 -44 23 -116 32 -160 9 -44 35 -145 59 -225 24 -80 58
-199 75 -264 18 -66 45 -156 62 -200 16 -45 32 -92 34 -106 3 -13 9 -29 14
-35 4 -5 20 -46 35 -89 15 -44 47 -120 70 -170 24 -50 50 -113 58 -141 25 -83
241 -526 279 -572 5 -7 6 -18 2 -24 -4 -7 -3 -9 4 -5 11 7 82 -98 82 -122 0
-8 6 -12 14 -9 10 4 13 1 10 -7 -6 -15 60 -123 131 -216 22 -30 60 -86 84
-125 24 -38 48 -74 55 -80 16 -15 130 -155 149 -186 10 -14 14 -29 10 -34 -5
-4 -3 -5 4 -1 7 4 17 -2 23 -14 6 -12 47 -47 90 -80 101 -75 194 -155 290
-251 89 -89 190 -169 245 -194 22 -10 85 -59 140 -109 55 -50 104 -94 110 -98
5 -4 46 -37 89 -74 81 -67 160 -124 171 -124 3 0 3 6 -1 13 -4 7 -3 9 2 4 5
-5 9 -14 9 -19 0 -6 6 -13 14 -16 9 -3 11 0 6 9 -5 8 -4 11 1 6 5 -5 9 -14 9
-20 0 -7 9 -12 20 -12 11 -1 19 -6 18 -13 -2 -6 15 -24 37 -38 22 -15 37 -31
34 -35 -3 -5 -2 -9 3 -8 20 3 34 -2 28 -11 -3 -5 0 -8 7 -5 7 3 51 -17 98 -45
47 -27 90 -50 96 -50 7 0 38 -14 69 -30 31 -17 63 -30 71 -30 8 0 14 -5 14
-11 0 -6 7 -9 15 -5 8 3 15 2 15 -2 0 -4 10 -8 23 -9 56 -4 198 -34 248 -52
30 -11 77 -25 104 -32 177 -42 413 -119 446 -146 8 -7 21 -13 27 -13 7 0 12
-4 12 -8 0 -8 82 -27 165 -38 28 -4 93 -24 145 -45 153 -61 260 -99 279 -99 9
0 34 -9 56 -20 21 -11 48 -17 59 -14 12 3 71 -7 131 -21 143 -34 154 -37 193
-38 17 -1 32 -4 32 -7 0 -3 15 -5 33 -5 17 0 55 -4 82 -8 28 -5 122 -12 210
-17 88 -5 207 -16 265 -24 140 -21 367 -36 635 -42 161 -4 246 -10 317 -25 53
-10 112 -19 130 -19 18 0 121 -19 228 -42 l195 -42 255 1 c394 2 500 15 652
84 68 30 130 48 238 69 80 15 171 39 203 53 31 14 57 23 57 19 0 -4 7 2 15 12
8 11 15 15 15 9 0 -7 15 -8 48 -1 26 5 58 11 72 14 238 43 353 94 457 200 40
40 73 80 73 87 0 19 96 108 147 137 32 17 47 34 59 66 9 23 38 63 64 88 26 25
51 58 55 73 3 16 19 45 36 65 16 20 37 58 47 85 13 34 23 47 35 45 13 -2 17 4
17 27 0 20 8 35 23 46 18 13 22 25 23 73 0 31 6 73 14 93 12 33 11 41 -7 75
-13 27 -30 42 -52 50 -38 12 -90 64 -88 87 1 11 -26 31 -83 60 -47 24 -84 49
-83 55 2 6 -3 9 -11 6 -8 -3 -30 9 -50 27 -20 17 -39 29 -43 25 -10 -9 -32 14
-27 28 6 15 -22 30 -37 20 -5 -3 -8 0 -7 7 2 7 -14 19 -34 26 -54 18 -278 118
-319 142 -19 11 -83 34 -144 52 -60 17 -118 36 -127 40 -9 5 -34 12 -55 15
-21 3 -40 10 -41 15 -2 5 -7 7 -12 4 -4 -3 -28 4 -52 15 -25 11 -103 35 -174
54 -71 19 -149 42 -174 51 -25 9 -92 29 -150 45 -207 56 -295 81 -310 87 -8 3
-26 8 -40 10 -14 2 -36 8 -50 13 -14 5 -59 16 -101 24 -41 8 -100 25 -130 36
-137 55 -590 200 -625 200 -22 0 -115 20 -209 44 -240 61 -331 83 -405 96 -36
6 -122 30 -192 54 -82 27 -129 39 -132 32 -2 -6 -5 -3 -5 7 -1 10 -9 17 -21
17 -30 0 -34 1 -47 12 -7 5 -17 7 -22 4 -5 -4 -12 -2 -16 4 -4 6 -10 8 -14 6
-8 -5 -267 82 -391 133 -42 16 -98 35 -125 41 -28 6 -85 29 -127 51 -43 21
-78 37 -78 34 0 -4 -405 194 -491 240 -14 8 -29 12 -33 8 -3 -3 -6 -1 -6 5 0
6 -17 16 -37 23 -64 20 -114 49 -107 61 4 7 3 8 -4 4 -14 -8 -187 91 -216 123
-10 11 -22 18 -27 15 -5 -2 -14 4 -21 16 -7 11 -17 20 -21 20 -29 0 -230 167
-220 183 3 6 2 7 -4 4 -5 -3 -33 12 -61 34 -29 21 -54 39 -57 39 -2 0 -15 10
-28 23 -14 12 -46 37 -71 55 -26 18 -44 37 -42 41 6 9 -38 54 -45 46 -15 -15
-234 239 -222 257 3 6 1 8 -5 4 -6 -3 -23 10 -39 31 -15 21 -33 41 -39 45 -6
4 -24 26 -40 50 -16 24 -37 49 -46 56 -10 7 -18 19 -18 26 0 7 -12 24 -27 38
-16 14 -35 34 -43 44 -8 11 -31 39 -51 64 -30 38 -125 200 -121 207 1 2 0 8
-3 15 -66 200 -63 193 -170 378 -64 110 -164 308 -250 495 -15 33 -47 101 -70
150 -23 50 -40 96 -37 103 2 6 -1 12 -7 12 -6 0 -11 8 -11 18 0 10 -30 76 -66
148 -62 119 -143 304 -199 449 -12 33 -27 59 -31 58 -5 -1 -10 11 -10 25 -1
15 -13 52 -27 83 -62 132 -84 231 -137 609 -11 80 -23 197 -26 260 -3 63 -7
121 -10 128 -6 21 -3 451 4 512 6 43 11 55 24 54 10 -1 16 3 15 10 -1 6 6 10
15 10 10 -1 16 1 13 5 -2 4 16 24 40 45 25 20 45 42 45 48 0 6 -7 5 -17 -3
-10 -7 -7 -1 6 13 13 15 26 26 30 26 3 -1 40 14 81 34 41 20 109 52 151 71 68
31 82 42 116 94 22 32 45 79 53 106 11 42 16 47 41 47 36 0 64 38 55 75 -4 14
-21 42 -39 63 -18 20 -43 62 -56 92 -33 77 -38 85 -51 82 -6 -1 -9 2 -5 7 3 6
-8 22 -24 37 -17 15 -28 30 -26 34 10 16 -24 43 -61 49 -25 4 -39 12 -39 21
-1 8 -7 14 -14 12 -8 -2 -23 6 -35 16 -34 31 -60 41 -138 52 -49 7 -77 16 -86
28 -34 47 -42 52 -86 52 -31 0 -48 5 -54 16 -5 9 -21 17 -36 17 -14 0 -29 3
-32 8 -7 12 -23 10 -61 -7z m-195 -1190 c92 3 177 8 189 10 13 3 28 -3 39 -15
19 -21 64 -25 82 -7 10 10 11 1 5 -37 -8 -52 -11 -402 -4 -610 2 -66 11 -179
22 -251 18 -134 30 -248 33 -319 1 -23 5 -46 9 -52 4 -6 7 -22 6 -34 0 -13 1
-31 4 -39 21 -81 54 -179 82 -245 58 -139 161 -417 170 -459 3 -11 9 -24 15
-30 5 -5 10 -19 10 -29 0 -13 5 -17 16 -13 9 3 12 2 9 -5 -4 -5 11 -47 33 -92
23 -45 59 -127 82 -182 23 -55 58 -138 79 -185 22 -47 57 -128 80 -180 23 -52
82 -168 131 -257 50 -89 90 -169 90 -177 0 -8 3 -16 8 -18 13 -6 41 -71 72
-165 48 -148 177 -383 202 -367 7 4 8 3 4 -4 -8 -13 21 -62 36 -62 6 0 5 6 -2
15 -20 24 -5 18 16 -7 10 -12 13 -18 7 -14 -27 15 -11 -12 37 -66 28 -31 49
-62 48 -69 -2 -7 2 -13 8 -14 13 0 28 -16 73 -73 18 -23 37 -40 41 -37 5 3 12
0 16 -6 4 -8 3 -9 -4 -5 -7 4 -12 2 -12 -3 0 -6 5 -11 10 -11 6 0 10 -7 10
-16 0 -10 6 -14 15 -11 8 4 17 1 21 -5 4 -7 3 -8 -4 -4 -7 4 -12 4 -12 0 0 -8
82 -108 93 -112 4 -2 7 -8 7 -13 0 -6 -6 -7 -12 -3 -7 4 -5 -2 6 -14 10 -12
22 -20 26 -19 4 1 43 -32 86 -74 44 -41 91 -83 106 -93 15 -10 25 -23 21 -29
-3 -6 -1 -7 6 -3 15 10 43 -13 34 -27 -3 -6 -1 -7 6 -3 15 10 43 -13 34 -28
-3 -6 -2 -8 2 -3 5 4 19 0 32 -8 13 -9 29 -13 36 -9 7 4 9 3 4 -1 -4 -5 3 -19
15 -32 25 -27 47 -31 27 -5 -7 9 -1 6 13 -7 15 -13 25 -27 23 -32 -3 -4 14
-24 37 -44 24 -20 43 -42 43 -48 0 -7 9 -12 20 -12 11 0 19 -6 17 -13 -1 -8 1
-11 6 -8 5 3 35 -10 67 -29 63 -39 70 -41 59 -22 -4 7 -3 9 2 4 5 -5 9 -12 9
-15 0 -13 16 -32 26 -32 6 0 7 5 3 12 -4 7 -3 8 5 4 6 -4 9 -11 6 -16 -7 -12
37 -41 140 -92 50 -24 135 -67 190 -95 55 -27 111 -54 125 -58 44 -13 145 -59
152 -70 4 -5 8 -7 8 -3 0 3 42 -16 93 -42 300 -158 378 -193 432 -194 29 -1
52 -5 52 -10 -1 -5 9 -13 23 -18 14 -4 88 -28 165 -52 240 -77 328 -107 402
-137 95 -38 191 -68 198 -61 3 3 5 0 5 -7 0 -8 7 -11 15 -7 8 3 15 1 15 -5 0
-6 7 -9 15 -5 8 3 15 2 15 -2 0 -4 28 -8 63 -10 34 -1 89 -11 122 -22 88 -28
400 -107 473 -120 35 -6 113 -29 174 -52 61 -22 116 -41 122 -42 6 -1 17 -5
24 -9 6 -5 16 -6 20 -3 5 3 20 -1 35 -9 15 -8 27 -12 27 -10 0 2 44 -12 98
-32 53 -19 129 -44 167 -54 114 -31 243 -69 360 -104 108 -33 218 -62 262 -70
12 -1 26 -6 32 -9 5 -4 83 -26 173 -50 90 -24 186 -54 213 -66 47 -20 213 -73
315 -100 25 -7 87 -32 139 -56 51 -24 97 -44 101 -44 6 0 24 -55 22 -70 0 -3
9 -7 20 -7 26 -2 26 -1 31 -50 3 -23 8 -47 13 -54 8 -14 -23 -9 -173 26 -108
26 -195 38 -388 55 -66 5 -149 19 -185 31 -36 11 -139 29 -230 41 -91 11 -174
22 -185 23 -11 2 -45 7 -75 10 -30 4 -57 9 -59 11 -2 2 -13 -1 -24 -7 -12 -7
-17 -7 -13 -1 7 11 -40 25 -89 26 -16 1 -34 4 -40 7 -5 4 -28 7 -50 7 -37 1
-124 15 -535 87 -177 30 -438 86 -542 115 -102 28 -118 31 -118 19 0 -5 -5 -9
-10 -9 -6 0 -9 5 -8 12 2 7 -1 13 -7 14 -5 0 -30 5 -55 10 -25 4 -48 7 -52 6
-4 -1 -76 14 -160 33 -84 20 -198 45 -253 56 -55 11 -129 28 -165 38 -36 11
-108 29 -160 41 -52 12 -144 38 -205 57 -60 20 -120 36 -132 36 -13 1 -23 3
-23 7 0 3 -17 6 -38 6 -55 3 -237 48 -392 99 -141 46 -424 141 -450 152 -8 3
-18 5 -22 5 -5 -1 -8 2 -8 7 0 5 -6 8 -12 7 -7 0 -44 9 -83 21 -38 13 -128 39
-199 58 -71 20 -167 54 -215 76 -47 23 -104 48 -126 56 -22 9 -44 20 -49 25
-6 4 -17 8 -26 8 -24 0 -161 69 -285 144 -60 37 -115 64 -122 62 -7 -3 -12 0
-10 6 1 6 -28 27 -64 47 -57 31 -366 222 -394 243 -5 4 -24 19 -41 33 -18 14
-36 25 -42 25 -19 0 -132 92 -126 102 4 7 2 8 -5 4 -7 -5 -38 19 -80 59 -38
36 -75 65 -82 63 -8 -2 -13 3 -11 11 2 8 -39 57 -90 110 -181 188 -303 322
-303 334 0 7 -7 12 -15 12 -14 0 -107 116 -132 165 -7 14 -19 32 -28 41 -8 9
-24 29 -35 45 -11 15 -57 71 -101 123 -102 120 -246 331 -239 349 2 7 1 11 -4
8 -8 -5 -113 179 -126 222 -3 12 -11 22 -16 22 -5 0 -9 5 -9 12 0 6 -11 34
-24 62 -13 28 -42 90 -64 137 -34 73 -130 383 -146 472 -2 15 -7 30 -9 34 -3
5 -8 26 -11 47 -4 22 -16 76 -29 120 -37 137 -31 474 12 633 6 20 5 36 -3 44
-6 8 -7 10 -2 6 26 -20 50 70 62 233 9 111 78 356 137 480 75 159 96 241 72
280 -3 6 1 7 9 4 12 -5 16 1 18 22 1 27 3 42 7 54 1 3 4 113 6 245 3 205 1
251 -14 315 -14 57 -16 81 -7 99 l10 23 18 -23 c19 -22 21 -22 186 -15z m-244
-234 c1 -58 -3 -170 -9 -250 -17 -209 -53 -347 -131 -500 -24 -47 -45 -97 -46
-112 -1 -16 -6 -28 -10 -28 -4 0 -5 -9 -3 -20 2 -11 -1 -20 -6 -20 -6 0 -8 -4
-5 -9 3 -5 -5 -47 -19 -92 -14 -48 -32 -146 -40 -226 -11 -99 -21 -152 -34
-175 -10 -18 -29 -89 -42 -158 -19 -101 -23 -160 -23 -305 0 -174 1 -185 35
-320 20 -77 53 -194 74 -260 46 -149 59 -200 64 -268 1 -5 7 -5 14 -1 9 6 9 5
0 -7 -10 -12 -8 -25 11 -64 12 -28 35 -81 50 -120 51 -128 182 -397 209 -425
9 -11 17 -23 17 -29 0 -8 37 -62 109 -156 55 -71 162 -209 178 -229 96 -117
153 -197 148 -206 -4 -6 -2 -9 3 -8 5 2 25 -19 44 -46 18 -27 37 -48 42 -46
13 4 96 -82 89 -92 -3 -6 7 -22 22 -38 14 -15 27 -34 28 -41 4 -21 17 -40 26
-35 4 3 31 -22 60 -55 29 -32 56 -57 60 -54 5 2 19 -8 32 -23 l24 -27 -27 24
c-47 42 -31 9 23 -45 28 -28 51 -58 53 -67 3 -21 46 -68 56 -62 5 3 37 -22 72
-55 59 -55 89 -76 72 -48 -4 7 -3 8 5 4 6 -4 9 -11 6 -16 -3 -5 8 -18 25 -30
17 -12 28 -25 25 -30 -3 -4 3 -7 13 -6 9 0 16 -5 14 -12 -1 -8 2 -11 8 -7 6 4
39 -14 75 -39 66 -48 81 -55 69 -33 -4 7 -3 9 2 4 5 -5 9 -14 9 -19 0 -6 6
-13 14 -16 9 -3 11 0 6 8 -5 9 -4 11 4 6 6 -4 9 -11 6 -16 -7 -11 32 -33 45
-25 6 4 7 -1 3 -12 -6 -15 -4 -16 9 -5 13 10 16 10 14 0 0 -7 2 -14 6 -16 4
-1 49 -28 100 -59 191 -117 303 -183 311 -183 4 0 5 5 1 12 -4 7 -3 8 5 4 6
-4 9 -11 6 -16 -8 -12 33 -33 47 -24 6 4 8 3 4 -4 -3 -6 11 -21 34 -35 22 -13
37 -26 34 -29 -3 -3 1 -5 8 -5 7 1 69 -26 138 -59 177 -87 304 -148 313 -150
4 -1 10 -3 15 -4 4 -1 10 -2 14 -1 4 0 51 -12 105 -28 54 -16 122 -34 151 -40
29 -6 105 -32 170 -57 189 -76 597 -202 802 -249 80 -18 201 -51 270 -73 151
-49 190 -57 190 -43 0 6 5 11 10 11 6 0 9 -5 8 -12 -3 -11 49 -29 121 -42 15
-3 98 -20 186 -39 354 -77 575 -127 665 -151 85 -22 173 -40 248 -51 76 -10
108 -18 120 -27 7 -6 15 -8 18 -5 3 3 20 1 37 -4 39 -10 46 -11 267 -43 96
-14 216 -33 265 -41 50 -9 135 -22 190 -30 55 -7 154 -23 220 -34 66 -11 159
-25 207 -31 48 -6 134 -20 190 -31 57 -11 112 -21 123 -23 11 -3 34 -7 50 -10
17 -3 54 -7 83 -7 28 -1 52 -5 52 -8 0 -4 19 -6 43 -5 74 2 239 -17 317 -36
41 -10 109 -24 150 -31 80 -13 90 -20 84 -53 -2 -12 -6 -57 -9 -101 -5 -87
-10 -121 -22 -175 -4 -19 -8 -115 -7 -214 1 -147 4 -180 16 -187 10 -5 14 -21
13 -44 -2 -19 1 -38 6 -41 11 -6 12 -48 2 -58 -4 -4 -7 -17 -8 -30 0 -12 -17
-42 -38 -65 -37 -41 -68 -54 -126 -52 -16 1 -21 -3 -18 -13 4 -10 0 -12 -15
-8 -16 4 -19 2 -13 -9 6 -11 5 -11 -4 -3 -10 9 -20 8 -40 -2 -23 -12 -171 -46
-321 -74 -48 -9 -92 -20 -179 -45 -30 -8 -105 -22 -165 -30 -61 -9 -167 -27
-236 -40 -69 -13 -159 -29 -200 -35 -41 -6 -86 -14 -100 -17 -14 -2 -34 -4
-45 -4 -11 0 -43 -6 -70 -14 -103 -29 -433 -36 -560 -11 -94 19 -108 20 -100
6 3 -6 0 -10 -9 -10 -8 0 -16 4 -18 9 -1 5 -57 11 -123 14 -95 3 -130 8 -169
25 -39 18 -68 22 -147 22 -97 0 -224 24 -214 41 3 4 -3 5 -14 2 -10 -3 -88 2
-172 11 -104 11 -246 16 -434 15 -344 0 -398 6 -770 95 -129 30 -199 49 -205
56 -3 3 -14 6 -25 8 -19 3 -187 62 -290 102 -55 21 -145 53 -215 76 -165 55
-210 67 -246 68 -29 1 -40 5 -37 14 4 8 0 10 -11 6 -9 -3 -16 -1 -16 4 0 6 -8
11 -17 10 -10 0 -97 21 -193 47 -96 26 -220 56 -274 66 -62 12 -126 32 -170
53 -94 46 -149 69 -158 68 -5 -1 -8 3 -8 9 0 5 -4 7 -10 4 -5 -3 -10 -1 -10 6
0 7 -3 10 -6 6 -3 -3 -24 5 -45 19 -21 13 -41 24 -44 24 -15 0 -144 94 -139
101 3 5 -1 7 -8 4 -7 -3 -37 13 -66 35 -53 40 -68 48 -57 30 11 -18 -1 -11
-21 12 -15 19 -16 20 -1 9 9 -7 17 -9 17 -4 0 14 -59 55 -70 48 -5 -3 -8 0 -5
7 3 7 -13 26 -35 42 -21 16 -36 34 -33 40 3 6 3 8 -2 4 -11 -11 -47 11 -39 24
4 6 3 8 -3 5 -6 -4 -22 2 -36 13 -29 23 -42 26 -31 8 6 -10 3 -9 -8 0 -9 8
-15 19 -13 25 3 7 -13 24 -34 39 -42 30 -57 35 -45 16 4 -7 3 -8 -5 -4 -6 4
-9 11 -6 16 6 9 -29 32 -53 36 -21 4 -42 25 -35 37 3 5 1 7 -5 3 -10 -6 -153
100 -169 127 -4 7 -55 54 -113 104 -58 50 -118 105 -134 123 -15 17 -42 38
-59 46 -16 9 -35 20 -41 25 -6 5 -20 17 -31 27 -12 9 -47 55 -80 102 -32 47
-78 107 -101 133 -38 42 -244 346 -318 467 -15 25 -45 73 -66 108 -22 34 -37
62 -34 62 3 0 -2 7 -10 16 -9 8 -16 22 -16 30 0 8 -19 45 -41 82 -69 110 -210
400 -211 433 -1 13 -6 30 -11 37 -5 6 -6 12 -3 12 4 0 -2 17 -13 38 -72 134
-260 640 -246 662 3 5 0 10 -6 12 -6 2 -12 21 -12 41 -1 28 -5 36 -16 32 -11
-4 -12 -3 -1 10 10 12 5 37 -28 137 -45 139 -49 154 -99 403 -58 290 -61 311
-79 509 -12 143 -15 250 -11 435 5 260 8 277 67 467 112 363 138 436 193 539
11 22 23 47 27 55 23 54 100 196 138 255 120 186 155 235 164 228 6 -3 8 -2 5
4 -4 5 7 28 22 49 16 21 55 91 87 154 32 63 61 117 65 120 4 3 11 18 14 33 4
15 11 27 16 27 5 0 9 6 9 14 0 8 18 45 40 82 22 38 45 84 51 104 6 19 29 76
50 127 36 85 39 100 40 190 l1 98 15 -50 c8 -28 16 -96 17 -155z"/>
<path d="M2172 8348 c-16 -16 -15 -43 1 -56 24 -19 119 -32 196 -26 81 6 97
13 88 38 -5 13 -25 16 -106 16 -90 0 -99 2 -104 20 -6 23 -55 28 -75 8z"/>
</g>
</svg>
