<?xml version="1.0" standalone="no"?>
<!DOCTYPE svg PUBLIC "-//W3C//DTD SVG 20010904//EN"
 "http://www.w3.org/TR/2001/REC-SVG-20010904/DTD/svg10.dtd">
<svg version="1.0" xmlns="http://www.w3.org/2000/svg"
 width="1120.000000pt" height="1125.000000pt" viewBox="0 0 1120.000000 1125.000000"
 preserveAspectRatio="xMidYMid meet">
<metadata>
Created by potrace 1.16, written by Peter Selinger 2001-2019
</metadata>
<g transform="translate(0.000000,1125.000000) scale(0.100000,-0.100000)"
fill="#000000" stroke="none">
<path d="M4308 9795 c-22 -12 -44 -13 -125 -5 -138 15 -407 -3 -534 -36 -55
-14 -125 -24 -165 -24 -95 -1 -148 -15 -225 -60 -83 -49 -228 -87 -339 -89
-27 -1 -69 -12 -105 -29 -33 -16 -85 -34 -115 -41 -72 -17 -311 -87 -375 -111
-111 -41 -242 -109 -280 -147 -22 -22 -85 -76 -140 -120 -118 -95 -253 -237
-379 -401 -31 -39 -73 -88 -96 -108 -22 -20 -71 -77 -108 -128 -58 -76 -86
-129 -171 -324 -103 -234 -161 -388 -161 -426 0 -12 -7 -34 -16 -51 -35 -67
-56 -149 -50 -195 4 -25 10 -180 15 -345 7 -252 12 -312 29 -375 11 -41 28
-131 37 -200 9 -69 34 -217 55 -330 l38 -205 -7 -245 c-9 -268 -1 -421 23
-489 9 -24 16 -63 16 -86 0 -43 48 -196 78 -247 8 -14 25 -32 36 -38 36 -19
69 -209 66 -376 -1 -62 34 -99 93 -99 30 0 52 6 66 19 21 19 37 19 1501 -40
813 -33 1483 -63 1487 -68 10 -10 10 -104 -1 -181 -9 -67 -32 -125 -50 -125
-6 0 -42 -15 -80 -34 -55 -27 -75 -32 -102 -26 -45 10 -68 -7 -67 -51 0 -19 0
-92 0 -164 -2 -284 4 -604 13 -675 13 -98 30 -299 35 -425 5 -102 13 -137 54
-213 18 -35 33 -48 78 -68 30 -14 76 -27 102 -31 25 -3 63 -17 83 -29 20 -13
103 -48 185 -79 196 -74 252 -95 288 -111 17 -7 50 -18 75 -24 25 -7 73 -27
108 -45 36 -20 98 -41 145 -50 45 -9 111 -27 147 -39 36 -13 90 -29 120 -35
30 -7 64 -16 75 -21 25 -12 184 -47 247 -55 27 -3 92 -18 145 -32 122 -31 233
-58 298 -71 136 -28 251 -56 355 -90 63 -20 117 -37 120 -38 3 0 23 -6 45 -12
22 -7 76 -21 120 -31 44 -11 100 -27 125 -36 25 -10 87 -28 138 -41 52 -14
103 -29 114 -35 10 -6 27 -12 36 -14 9 -2 44 -10 77 -18 33 -9 74 -18 90 -21
17 -3 39 -7 50 -9 11 -3 40 -8 65 -12 25 -4 73 -16 107 -26 34 -11 97 -26 140
-34 88 -17 94 -18 108 -26 13 -8 98 -26 160 -34 28 -4 56 -12 63 -18 7 -6 79
-12 165 -15 133 -4 155 -7 173 -24 30 -27 81 -21 105 12 27 37 56 186 69 350
6 80 12 169 15 199 16 200 17 380 1 469 -26 150 -21 435 13 687 6 44 18 138
27 209 15 128 25 166 44 166 5 0 53 30 107 67 54 37 152 103 218 148 112 76
193 142 256 209 15 15 37 33 50 40 13 6 33 29 44 51 11 21 32 50 47 63 35 30
45 80 24 120 -9 17 -25 33 -36 37 -14 4 -20 15 -20 34 0 16 -9 40 -20 54 -24
30 -24 48 -6 170 8 50 14 140 14 200 0 63 4 113 11 120 23 28 39 132 29 188
-11 61 -7 145 16 334 9 72 20 182 26 245 6 63 17 148 25 189 20 99 21 490 1
587 -41 201 -44 271 -16 354 37 110 49 672 16 790 -9 36 -21 124 -25 195 -7
106 -16 157 -49 275 -66 234 -71 246 -261 595 -34 63 -180 273 -213 306 -58
58 -117 109 -127 109 -5 0 -45 33 -88 73 -83 79 -110 97 -142 97 -11 0 -38 22
-66 54 -40 48 -65 63 -218 139 -95 47 -190 91 -212 98 -22 6 -69 27 -105 45
-58 30 -368 119 -485 139 -22 4 -87 20 -145 36 -58 15 -175 42 -260 59 -85 17
-189 39 -230 50 -176 44 -350 70 -535 80 -105 6 -264 15 -355 20 -91 6 -291
14 -445 20 -154 5 -386 15 -515 21 -129 7 -352 12 -495 13 -235 1 -261 3 -273
19 -16 21 -76 22 -114 2z m-197 -126 c13 -6 134 -12 317 -15 317 -4 654 -13
712 -19 19 -2 141 -6 270 -9 485 -12 818 -27 920 -41 58 -8 152 -17 210 -20
148 -9 287 -30 447 -70 76 -18 204 -47 286 -64 81 -17 202 -47 270 -67 148
-45 331 -96 452 -128 50 -13 135 -44 189 -70 54 -25 102 -46 108 -46 6 0 36
-13 67 -29 31 -16 91 -46 133 -66 55 -25 87 -48 110 -76 18 -23 53 -51 78 -64
40 -20 71 -50 209 -198 19 -21 48 -45 63 -53 15 -8 28 -19 28 -24 0 -5 13 -24
29 -42 44 -51 53 -76 52 -140 0 -44 -7 -70 -26 -102 -14 -23 -25 -52 -25 -64
0 -14 -15 -29 -47 -49 -26 -15 -84 -65 -128 -110 -78 -80 -131 -114 -256 -166
-23 -9 -53 -36 -78 -69 -88 -116 -141 -139 -333 -146 -126 -4 -138 -6 -144
-24 -3 -11 -1 -25 4 -30 7 -7 82 -11 203 -10 l192 0 63 32 c45 22 73 44 96 76
31 43 104 94 137 94 57 2 172 80 243 168 15 17 31 32 36 32 11 0 77 50 109 82
12 12 25 36 29 52 3 17 10 36 14 41 15 18 50 129 50 156 0 30 26 57 40 43 9
-10 54 -112 100 -232 16 -40 33 -78 38 -85 25 -30 91 -267 116 -415 9 -50 16
-129 16 -175 0 -51 8 -110 21 -157 27 -101 34 -268 20 -515 -7 -137 -17 -226
-31 -280 -25 -98 -28 -329 -5 -415 12 -44 13 -76 5 -165 -5 -60 -10 -160 -10
-221 0 -69 -6 -129 -15 -160 -8 -27 -15 -80 -15 -117 0 -70 -17 -196 -52 -377
-21 -109 -40 -289 -40 -375 0 -27 6 -80 12 -116 12 -63 11 -73 -21 -205 -30
-125 -34 -154 -34 -280 0 -110 -3 -145 -15 -159 -9 -11 -15 -41 -16 -79 -1
-40 -6 -62 -15 -65 -7 -2 -29 -22 -49 -44 -34 -39 -329 -241 -338 -233 -2 3 3
45 12 93 23 126 13 496 -15 562 -14 33 -17 52 -10 76 7 25 2 52 -25 131 -18
55 -44 145 -58 200 -14 54 -47 153 -74 219 -28 66 -53 135 -57 154 -4 19 -31
93 -60 166 l-52 131 8 90 c10 129 -1 664 -15 664 -36 -1 -37 -13 -43 -314 -3
-163 -8 -294 -10 -292 -2 2 -10 26 -18 52 -11 41 -56 167 -85 239 -53 132
-187 365 -210 365 -5 0 -26 17 -46 37 -34 34 -43 37 -100 40 -41 1 -64 -2 -67
-10 -4 -11 -62 -13 -324 -8 l-52 1 -6 58 c-4 31 -13 109 -21 172 -8 63 -21
171 -29 240 -7 69 -19 139 -25 155 -7 17 -16 68 -20 114 -8 73 -14 92 -55 165
-51 87 -111 172 -158 221 -15 17 -46 59 -68 95 -65 106 -100 154 -214 291 -22
27 -53 65 -69 85 -17 20 -59 50 -100 71 -39 19 -78 41 -86 48 -38 32 -118 66
-266 113 -181 58 -242 87 -337 160 -36 27 -87 57 -114 67 -183 65 -248 97
-334 162 -117 88 -242 133 -371 133 -60 0 -87 -9 -123 -40 -34 -30 -147 -44
-335 -44 -124 1 -193 6 -235 17 -118 30 -193 39 -385 48 -107 4 -235 15 -285
23 -49 9 -117 16 -150 16 -33 0 -78 5 -100 10 -22 6 -146 12 -275 15 -129 2
-278 9 -331 15 -136 15 -674 5 -811 -15 -150 -22 -375 -79 -407 -103 -15 -11
-50 -31 -77 -45 -28 -14 -72 -43 -100 -64 -27 -21 -75 -54 -107 -73 -89 -53
-135 -97 -166 -159 -16 -31 -41 -67 -56 -81 -14 -13 -40 -49 -57 -80 -18 -30
-53 -79 -80 -108 -49 -55 -52 -62 -68 -147 -4 -27 -15 -75 -24 -106 -13 -44
-16 -119 -18 -355 -3 -271 -5 -303 -22 -339 l-19 -40 -12 70 c-7 39 -18 100
-24 138 -6 37 -9 102 -6 145 3 42 10 172 15 287 10 244 31 342 117 551 98 236
168 366 231 430 65 65 251 273 324 362 43 53 141 141 248 222 25 19 70 56 100
82 31 26 96 66 144 88 115 53 328 126 438 151 48 10 120 32 160 48 40 16 110
33 155 40 45 6 109 20 142 31 33 11 66 20 74 20 7 0 52 20 98 43 79 41 93 44
195 52 60 4 140 7 179 6 47 -2 91 4 135 18 112 35 255 50 291 30z m-731 -1218
c315 -12 548 -27 610 -41 25 -5 92 -9 150 -10 135 0 344 -16 487 -37 87 -12
153 -14 300 -9 103 3 205 9 226 12 33 5 37 4 37 -14 0 -30 45 -79 85 -92 l35
-12 0 -1136 0 -1137 -102 -28 c-57 -16 -134 -32 -173 -36 -38 -5 -106 -17
-150 -29 -85 -22 -216 -49 -275 -56 -56 -7 -224 -44 -251 -55 -13 -5 -57 -17
-97 -26 -40 -10 -75 -21 -78 -26 -3 -5 -15 -9 -27 -9 -24 0 -83 -63 -92 -99
-4 -14 -15 -37 -26 -53 -42 -58 -89 -176 -89 -222 0 -74 12 -93 71 -110 29 -9
63 -16 76 -16 15 0 23 -6 24 -17 0 -10 2 -38 4 -63 10 -116 19 -309 16 -340
-2 -19 -7 -43 -13 -53 -5 -10 -6 -26 -3 -37 6 -20 61 -52 109 -64 41 -10 132
-72 157 -107 l20 -29 -28 0 c-15 0 -246 9 -513 20 -267 11 -710 29 -985 40
-275 10 -545 22 -600 24 -55 3 -239 10 -410 16 -170 6 -329 13 -352 16 -43 5
-43 6 -43 45 0 22 -7 56 -15 76 -8 19 -15 55 -15 79 0 50 -33 178 -52 202 -7
9 -25 27 -40 40 -24 20 -28 32 -28 75 -1 29 -8 88 -16 132 -8 44 -19 134 -24
200 -5 66 -16 158 -26 205 -19 94 -23 327 -7 395 5 24 6 155 0 335 -11 367
-10 394 10 450 12 35 18 113 25 360 7 268 12 324 28 378 11 35 20 77 20 93 0
17 12 42 28 61 54 63 170 248 186 296 19 56 28 65 146 148 169 120 258 168
356 194 43 12 120 33 169 47 83 24 108 26 324 29 128 2 236 6 240 9 6 7 112 4
591 -14z m2073 -238 c18 -9 67 -41 110 -71 43 -30 108 -70 145 -88 l67 -34
-45 0 c-26 0 -51 -5 -58 -12 -21 -21 -11 -179 17 -286 7 -23 26 -58 42 -77 27
-30 37 -35 75 -35 39 0 48 5 95 52 87 87 125 207 83 267 -14 19 -7 17 42 -15
126 -81 205 -116 334 -149 65 -16 242 -80 354 -127 69 -29 91 -45 165 -121 47
-48 98 -102 113 -120 15 -18 41 -49 59 -70 17 -21 44 -64 59 -96 15 -32 38
-66 52 -77 13 -10 39 -39 58 -64 19 -25 44 -56 56 -70 30 -33 74 -153 74 -199
0 -20 4 -52 10 -71 15 -58 32 -199 36 -303 1 -54 10 -136 19 -184 9 -47 15
-87 13 -88 -2 -2 -82 -6 -178 -9 -228 -7 -320 -14 -405 -31 -38 -7 -102 -16
-142 -20 -39 -4 -87 -9 -105 -11 -18 -2 -161 -8 -318 -14 -157 -5 -309 -14
-338 -19 -29 -6 -81 -13 -115 -16 -34 -3 -116 -14 -182 -24 -66 -11 -148 -22
-182 -25 l-63 -6 0 1115 c0 772 3 1115 10 1115 6 0 25 -7 43 -17z m436 -265
c-33 -20 -38 -52 -13 -79 23 -25 12 -60 -33 -110 l-37 -41 -18 41 c-9 23 -20
65 -23 94 -3 28 -8 67 -11 85 -5 30 -3 32 26 32 17 0 33 6 36 14 4 11 13 11
53 -3 l48 -16 -28 -17z m1696 -1894 c72 -3 229 -7 349 -10 l219 -3 29 -28 c16
-15 55 -80 86 -143 61 -124 69 -140 105 -240 56 -149 67 -180 102 -280 41
-116 44 -125 73 -190 10 -25 25 -63 31 -85 7 -22 16 -49 21 -60 5 -11 17 -49
26 -85 10 -36 33 -101 52 -145 33 -78 98 -323 88 -332 -3 -3 -25 8 -49 25 -55
36 -149 65 -288 86 -58 9 -128 25 -155 35 -71 28 -212 68 -264 75 -127 17
-233 42 -415 101 -216 69 -392 115 -551 145 -119 22 -235 51 -364 90 -157 48
-288 79 -425 100 -71 11 -175 28 -230 36 -55 9 -131 23 -170 31 -38 8 -115 21
-170 29 -55 8 -138 27 -185 43 -47 17 -132 41 -190 55 -120 29 -253 74 -291
99 -41 27 -188 66 -259 68 -36 1 -78 8 -93 16 -15 8 -67 18 -115 24 -86 9
-118 17 -277 66 -44 14 -86 26 -93 26 -21 1 -9 38 19 59 33 25 315 88 524 118
75 10 270 45 430 75 39 8 140 30 225 49 85 20 174 36 196 36 23 0 79 6 125 14
46 8 131 17 189 21 58 4 123 11 145 15 22 5 146 10 275 11 129 1 273 6 320 10
47 5 131 13 187 19 143 15 219 21 368 29 130 8 156 7 400 -5z m-3382 -508 c47
-30 285 -106 361 -116 43 -5 84 -14 90 -19 6 -5 36 -16 66 -24 88 -25 202 -66
227 -82 12 -8 28 -15 34 -15 7 0 20 -6 28 -14 9 -7 72 -27 141 -45 226 -56
284 -71 355 -91 39 -11 110 -24 159 -30 49 -6 93 -13 97 -15 9 -6 114 -22 309
-45 248 -31 384 -60 697 -149 78 -22 192 -50 253 -61 194 -34 466 -107 720
-190 47 -16 121 -36 165 -45 44 -9 148 -32 230 -52 217 -52 353 -81 420 -89
22 -3 69 -20 105 -37 58 -29 65 -35 66 -62 0 -31 24 -70 83 -141 l35 -41 1
-209 c2 -216 -6 -295 -55 -514 -11 -47 -22 -125 -25 -175 -6 -89 -33 -293 -41
-306 -17 -28 -25 -537 -11 -699 15 -171 12 -238 -38 -726 -8 -71 -20 -111 -50
-156 l-26 -39 -142 5 c-113 3 -162 9 -237 30 -52 14 -144 37 -205 51 -60 14
-156 37 -213 51 -57 13 -162 37 -235 53 -73 16 -161 39 -197 51 -36 12 -112
35 -170 51 -239 64 -426 119 -489 144 -61 25 -177 55 -361 92 -41 9 -109 26
-150 38 -88 27 -141 39 -435 101 -121 25 -242 55 -270 65 -27 11 -90 26 -140
35 -59 10 -118 28 -170 53 -44 21 -107 46 -140 56 -127 38 -407 140 -481 176
-34 16 -83 33 -111 38 -70 11 -124 40 -148 81 -18 32 -20 54 -22 242 -1 114
-7 233 -13 265 -17 94 -31 484 -24 674 l7 176 66 31 c36 16 83 35 103 41 29
10 98 69 98 85 0 2 7 43 16 92 8 49 16 116 15 149 0 65 -29 172 -67 247 -42
84 -152 172 -228 183 -24 4 -47 10 -53 13 -15 10 -33 247 -33 437 0 88 -2 210
-4 270 -5 134 -4 137 37 111z"/>
<path d="M5822 9413 c3 -15 14 -18 83 -20 305 -9 710 -83 1005 -182 113 -39
237 -72 313 -86 42 -7 165 -45 324 -99 56 -20 131 -42 165 -51 35 -9 92 -29
128 -45 36 -16 134 -56 219 -90 97 -37 173 -74 205 -99 29 -21 70 -48 93 -59
67 -35 101 -69 122 -128 12 -30 41 -99 66 -153 25 -54 45 -111 45 -127 0 -21
-14 -43 -51 -82 -28 -28 -64 -60 -80 -69 -18 -11 -33 -31 -39 -53 -20 -72 -10
-77 46 -22 22 20 51 46 66 57 14 11 44 42 67 70 59 71 57 113 -8 256 -27 59
-54 124 -60 146 -19 67 -46 98 -127 146 -44 25 -93 56 -111 69 -31 24 -143 73
-313 139 -47 18 -90 37 -97 42 -7 5 -52 19 -100 32 -119 32 -208 59 -268 84
-64 26 -154 51 -333 91 -79 18 -174 44 -210 58 -60 22 -337 93 -532 135 -84
19 -311 42 -498 52 -117 6 -124 6 -120 -12z"/>
<path d="M6177 9033 c-4 -3 -7 -15 -7 -25 0 -16 6 -17 38 -12 29 4 78 -6 198
-40 169 -48 532 -169 635 -210 34 -14 167 -57 295 -95 129 -39 250 -79 269
-89 20 -10 79 -54 130 -98 70 -59 101 -92 120 -131 32 -66 32 -77 -6 -110 -40
-35 -52 -67 -44 -115 9 -52 40 -53 50 -2 4 21 22 53 46 79 32 35 39 49 39 84
0 85 -56 165 -210 301 -64 56 -92 67 -390 152 -58 16 -125 35 -150 42 -25 7
-88 29 -140 49 -52 20 -135 47 -185 62 -49 14 -144 44 -210 66 -212 71 -453
118 -478 92z"/>
<path d="M6160 8686 c0 -25 12 -46 26 -46 8 0 17 -7 20 -15 4 -9 19 -15 35
-15 72 0 324 -107 370 -157 14 -15 33 -49 43 -74 9 -25 30 -61 47 -80 65 -72
97 -115 103 -142 10 -40 40 -32 44 11 3 29 -5 44 -50 95 -29 34 -56 64 -60 67
-4 3 -23 37 -42 75 -18 39 -44 80 -57 92 -52 47 -165 98 -319 144 -41 12 -81
31 -88 41 -16 22 -72 25 -72 4z"/>
<path d="M7130 8175 c0 -52 58 -109 171 -170 59 -32 120 -75 169 -120 41 -39
100 -89 131 -112 89 -66 220 -214 280 -316 38 -65 85 -124 160 -202 59 -61
116 -130 128 -153 28 -55 39 -154 34 -308 -3 -111 -13 -163 -50 -276 -6 -21
13 -24 30 -5 7 6 30 50 51 96 l38 85 -4 180 c-3 180 -4 182 -36 250 -25 53
-57 94 -140 180 -76 78 -126 141 -170 212 -69 114 -177 232 -287 314 -38 29
-97 79 -130 112 -39 39 -97 81 -166 119 -58 33 -117 70 -130 82 l-24 22 29 3
c16 2 33 -1 39 -7 15 -15 47 -14 47 2 0 21 -66 47 -120 47 l-50 0 0 -35z"/>
<path d="M6870 8060 c0 -11 8 -23 18 -26 36 -12 59 -26 94 -60 20 -19 60 -46
89 -60 28 -14 59 -34 68 -43 9 -9 41 -36 70 -61 30 -25 71 -61 93 -82 45 -41
58 -51 146 -109 38 -25 95 -78 142 -133 43 -50 101 -107 128 -126 73 -52 93
-86 108 -190 8 -55 23 -108 39 -137 32 -62 32 -91 -5 -153 -29 -49 -38 -102
-22 -127 9 -15 97 -53 123 -53 36 0 19 26 -33 51 -31 14 -54 32 -56 42 -2 11
11 42 28 70 27 43 31 59 28 97 -3 25 -16 68 -30 96 -15 30 -30 84 -37 133 -13
100 -28 129 -88 178 -47 37 -87 76 -211 206 -34 36 -87 80 -116 96 -30 17 -72
48 -94 69 -22 20 -56 51 -77 67 -20 17 -51 44 -69 61 -17 18 -65 52 -107 77
-42 24 -90 59 -106 76 -17 17 -37 31 -45 31 -8 0 -23 7 -34 15 -27 20 -44 18
-44 -5z"/>
<path d="M9142 7864 c-24 -26 -3 -56 23 -34 8 7 21 10 29 7 24 -10 83 -147 95
-222 40 -252 45 -324 46 -650 1 -181 5 -378 10 -437 l8 -107 -37 -73 c-21 -40
-58 -104 -82 -143 -52 -82 -61 -112 -73 -237 -9 -91 -40 -179 -77 -216 -8 -7
-21 -26 -31 -42 -9 -17 -20 -30 -24 -30 -7 0 -34 -41 -70 -106 -23 -40 -33
-112 -21 -144 14 -35 95 -120 115 -120 29 0 19 23 -33 78 -53 56 -62 89 -40
148 10 27 98 148 137 189 70 74 113 171 113 255 0 70 21 128 88 242 86 148 97
192 81 331 -14 123 -14 141 -4 432 8 204 -2 342 -40 582 -32 197 -96 316 -169
311 -18 -1 -38 -8 -44 -14z"/>
<path d="M8913 7633 c-15 -3 -23 -12 -23 -24 0 -17 5 -18 39 -13 34 5 40 3 58
-22 57 -83 103 -296 123 -572 13 -171 10 -189 -50 -316 -61 -129 -85 -226 -56
-226 14 0 25 24 46 95 7 22 36 90 66 150 72 146 84 229 59 409 -30 227 -97
444 -154 504 -21 21 -52 26 -108 15z"/>
<path d="M8537 7553 c-13 -12 -7 -53 7 -53 36 0 155 -195 204 -335 28 -82 36
-121 42 -221 8 -132 7 -140 -39 -321 -37 -143 -37 -153 -11 -153 14 0 20 7 20
24 0 22 13 60 45 131 51 115 64 211 46 356 -23 198 -112 390 -250 542 -33 36
-51 44 -64 30z"/>
<path d="M3091 8016 c-71 -20 -101 -75 -101 -189 0 -76 21 -112 77 -133 59
-23 105 -12 158 37 59 54 85 111 85 182 0 45 -4 60 -22 77 -42 38 -114 48
-197 26z"/>
<path d="M4462 7940 c-66 -34 -86 -60 -81 -110 2 -14 -9 -45 -23 -70 -74 -125
-100 -228 -84 -334 6 -38 19 -60 72 -121 85 -96 110 -106 280 -108 l129 -2 72
39 c116 61 162 140 163 271 0 100 -16 162 -66 250 -60 107 -104 145 -204 177
-47 15 -110 30 -140 34 -49 5 -62 2 -118 -26z m198 -120 c92 -32 91 -31 153
-135 42 -69 42 -71 42 -167 0 -113 -12 -137 -89 -179 -86 -47 -306 -46 -321 2
-4 11 -26 36 -51 56 l-44 37 0 69 c0 55 6 83 31 140 50 114 73 145 114 153 19
3 35 12 35 19 0 6 10 17 23 23 12 6 22 11 22 11 0 1 38 -12 85 -29z"/>
<path d="M2435 7353 c-27 -2 -58 -11 -67 -20 -22 -20 -24 -86 -4 -103 13 -10
10 -19 -18 -63 -64 -101 -97 -238 -76 -316 22 -81 119 -135 345 -192 134 -33
205 -31 283 9 124 64 172 146 172 291 0 106 -60 187 -221 298 -122 84 -242
112 -414 96z m237 -161 c56 -25 138 -93 194 -160 40 -49 44 -59 44 -106 -1
-57 -13 -85 -51 -115 -32 -25 -104 -51 -144 -51 -68 -1 -292 59 -347 93 -31
18 -31 18 -25 91 7 90 52 190 110 243 40 35 41 36 108 30 38 -3 88 -14 111
-25z"/>
<path d="M3655 6991 c-92 -17 -146 -63 -195 -167 -23 -46 -39 -90 -38 -97 2
-7 -10 -41 -26 -76 -24 -53 -28 -78 -30 -155 -1 -83 2 -97 31 -158 53 -112
112 -152 243 -163 67 -6 82 -4 140 19 121 49 301 201 346 293 28 59 31 179 6
230 -51 100 -165 205 -275 253 -49 22 -145 32 -202 21z m109 -162 c100 -28
226 -154 226 -226 0 -19 -7 -44 -16 -58 -20 -31 -183 -169 -242 -205 -62 -38
-135 -47 -182 -23 -85 45 -114 211 -56 326 31 61 95 141 96 120 0 -20 44 -15
68 7 12 11 25 32 28 45 7 28 20 30 78 14z"/>
<path d="M4650 6334 c-41 -14 -64 -31 -91 -68 -26 -36 -29 -47 -29 -119 0
-141 54 -198 194 -205 l82 -4 54 43 c69 57 92 102 98 195 8 119 -31 155 -165
153 -43 0 -89 1 -103 4 -14 3 -32 4 -40 1z m48 -154 c10 0 27 9 37 20 21 23
52 25 78 6 21 -16 21 -24 1 -64 -23 -47 -60 -72 -108 -72 -61 0 -86 21 -86 75
0 34 5 47 22 59 21 15 23 15 30 -4 4 -11 16 -20 26 -20z"/>
<path d="M2175 5632 c-88 -3 -102 -8 -151 -54 -73 -68 -96 -128 -48 -128 14 0
23 -4 20 -9 -3 -5 -7 -51 -7 -103 -2 -106 7 -132 69 -200 55 -61 120 -88 215
-88 94 0 135 18 215 94 74 69 102 128 102 209 0 51 -5 69 -24 96 -37 49 -94
94 -166 131 -79 40 -145 56 -225 52z m151 -131 c88 -41 154 -104 154 -146 0
-53 -65 -134 -143 -177 -40 -23 -118 -23 -163 -2 -19 9 -49 35 -67 57 -30 39
-32 46 -31 122 0 59 6 91 21 125 12 25 22 37 22 28 1 -11 9 -18 21 -18 15 0
20 7 20 26 0 26 1 27 51 21 29 -4 80 -20 115 -36z"/>
<path d="M6477 7600 c-77 -14 -145 -121 -132 -209 3 -25 9 -118 13 -206 7
-158 8 -161 43 -230 66 -127 106 -150 254 -143 80 3 98 7 134 31 23 15 50 45
62 69 19 37 21 54 17 157 -5 128 -29 214 -94 347 -70 142 -175 207 -297 184z
m102 -172 c64 -66 122 -218 128 -338 5 -83 4 -86 -24 -112 -25 -23 -34 -26
-77 -21 -46 6 -50 9 -87 66 -33 52 -39 68 -39 116 0 31 7 88 15 126 8 39 15
89 15 113 0 44 14 82 29 82 5 0 23 -15 40 -32z"/>
<path d="M5630 7070 c-16 -31 -32 -174 -28 -255 4 -85 27 -120 84 -131 70 -13
150 44 195 141 27 58 26 157 -2 197 -27 37 -79 60 -130 57 -21 -2 -41 0 -45 4
-15 15 -63 7 -74 -13z"/>
<path d="M6735 5815 c11 -9 50 -35 88 -58 116 -73 179 -144 242 -271 30 -61
64 -138 75 -171 l19 -60 -5 55 c-8 70 -57 200 -103 270 -47 71 -148 155 -252
208 -46 24 -75 36 -64 27z"/>
<path d="M7597 5712 c-64 -2 -87 -6 -84 -15 2 -8 59 -14 193 -19 104 -3 202
-9 217 -13 21 -6 34 -19 47 -50 17 -39 36 -62 45 -53 9 9 -17 105 -32 116 -42
30 -165 41 -386 34z"/>
<path d="M7726 5119 c-32 -5 -61 -10 -63 -13 -2 -2 63 -3 144 -3 216 0 221 -2
413 -146 133 -101 113 -62 -25 50 -93 75 -134 98 -190 107 -71 11 -218 13
-279 5z"/>
<path d="M5537 4512 c-3 -4 -13 -61 -22 -125 -13 -97 -14 -132 -5 -195 16
-105 66 -177 138 -195 36 -8 154 12 174 30 54 49 39 184 -39 349 -41 88 -47
95 -71 92 -43 -5 -42 -58 3 -132 33 -55 65 -150 65 -194 0 -29 -21 -41 -89
-54 -60 -11 -62 -11 -90 16 -42 41 -55 106 -46 230 11 155 11 179 -2 183 -6 2
-14 0 -16 -5z"/>
<path d="M7442 4404 c-12 -8 -22 -22 -22 -30 0 -16 -16 -19 -25 -4 -3 6 -14
10 -24 10 -35 0 -44 -27 -44 -123 1 -148 43 -232 127 -253 41 -10 138 14 198
50 122 74 129 164 21 273 -26 27 -64 59 -84 71 -43 26 -114 29 -147 6z"/>
<path d="M6842 4334 c-13 -9 -32 -51 -53 -117 -49 -158 -59 -214 -46 -256 16
-47 72 -76 141 -73 57 2 105 34 201 131 50 52 59 66 59 97 0 69 -75 89 -122
32 -15 -18 -54 -60 -86 -95 -50 -53 -64 -63 -93 -63 -28 0 -33 4 -33 23 0 13
7 46 16 73 17 52 21 63 52 134 30 69 33 80 22 100 -14 25 -35 31 -58 14z"/>
<path d="M7656 3760 c-28 -11 -56 -26 -63 -33 -20 -20 -19 -83 1 -115 6 -10
11 -9 21 5 24 33 134 22 285 -27 71 -23 137 -48 146 -55 41 -29 -5 -168 -86
-265 -61 -73 -103 -74 -174 -4 -86 87 -146 197 -146 272 0 29 -39 40 -58 16
-20 -27 -8 -154 20 -213 45 -94 184 -201 260 -201 42 0 108 18 108 30 0 5 9
12 21 15 11 4 53 39 92 78 123 123 164 233 123 330 -29 71 -80 102 -246 147
-148 41 -238 47 -304 20z"/>
<path d="M5166 3678 c-50 -71 -69 -291 -31 -357 27 -46 61 -69 115 -79 89 -17
172 17 252 102 45 48 62 94 55 152 -6 54 -20 72 -74 96 -39 17 -45 17 -78 4
-51 -22 -46 -59 13 -99 54 -36 54 -59 0 -110 -97 -93 -201 -89 -217 9 -8 47 4
174 21 227 19 62 -23 103 -56 55z"/>
<path d="M6731 3354 c-12 -15 -21 -31 -21 -36 0 -4 -10 -6 -23 -3 -15 4 -32
-1 -50 -15 -102 -80 -80 -558 31 -673 21 -21 54 -42 77 -49 50 -14 264 -13
328 1 93 22 185 101 207 180 13 48 13 166 -1 216 -10 36 -44 87 -92 140 -10
11 -44 55 -75 97 -68 92 -118 128 -182 129 -25 1 -49 1 -53 0 -5 -1 -23 8 -42
19 -45 28 -79 26 -104 -6z m51 -136 c14 -10 48 -21 75 -24 87 -10 90 -11 139
-86 26 -40 55 -81 65 -90 59 -58 73 -88 72 -156 -2 -62 -4 -67 -40 -104 l-38
-38 -120 -2 c-189 -3 -176 -11 -215 143 -29 118 -32 140 -26 221 7 91 32 171
51 161 5 -4 22 -15 37 -25z"/>
<path d="M5923 3308 c-48 -24 -23 -69 68 -121 66 -38 87 -66 99 -127 9 -50 8
-58 -19 -117 -36 -77 -57 -87 -156 -80 -104 8 -133 21 -141 64 -17 90 38 286
85 304 15 6 21 14 17 25 -3 9 -6 18 -6 20 0 2 -9 4 -19 4 -29 0 -80 -65 -125
-160 -48 -102 -60 -202 -31 -263 45 -95 193 -140 346 -105 99 23 179 138 187
268 5 82 -10 138 -51 191 -57 74 -196 127 -254 97z"/>
<path d="M5162 3013 c-77 -27 -125 -96 -90 -131 8 -8 46 -12 106 -12 92 0 93
0 87 -22 -24 -79 -94 -90 -176 -28 -56 42 -81 47 -87 17 -6 -28 43 -101 89
-133 37 -25 52 -29 109 -29 61 0 71 3 113 35 64 49 90 105 85 181 -5 72 -37
111 -103 128 -56 14 -80 13 -133 -6z"/>
<path d="M7942 2793 c-35 -23 -46 -37 -58 -80 -18 -62 -11 -83 18 -57 13 12
33 18 61 17 40 -2 48 -8 170 -132 70 -72 132 -142 137 -156 19 -49 11 -88 -27
-147 -73 -109 -152 -146 -207 -95 -30 27 -77 111 -141 252 -10 22 -33 63 -50
90 -17 28 -34 58 -38 68 -5 13 -15 17 -34 15 -26 -3 -28 -7 -31 -55 -7 -129
168 -441 280 -499 36 -19 88 -20 148 -4 36 9 60 27 125 94 127 131 159 223
119 343 -18 53 -42 86 -163 226 -96 111 -135 138 -211 144 -48 4 -60 1 -98
-24z"/>
<path d="M1027 5923 c-4 -3 -7 -29 -7 -57 0 -28 -9 -84 -20 -124 -27 -96 -26
-102 10 -102 27 0 31 5 46 53 9 28 19 94 21 145 l5 92 -24 0 c-14 0 -28 -3
-31 -7z"/>
</g>
</svg>
