<?xml version="1.0" standalone="no"?>
<!DOCTYPE svg PUBLIC "-//W3C//DTD SVG 20010904//EN"
 "http://www.w3.org/TR/2001/REC-SVG-20010904/DTD/svg10.dtd">
<svg version="1.0" xmlns="http://www.w3.org/2000/svg"
 width="683.000000pt" height="908.000000pt" viewBox="0 0 683.000000 908.000000"
 preserveAspectRatio="xMidYMid meet">
<metadata>
Created by potrace 1.16, written by Peter Selinger 2001-2019
</metadata>
<g transform="translate(0.000000,908.000000) scale(0.100000,-0.100000)"
fill="#000000" stroke="none">
<path d="M2717 7685 c-164 -33 -212 -51 -286 -104 -92 -67 -185 -121 -208
-121 -23 0 -149 -67 -208 -110 -87 -64 -199 -179 -220 -225 -11 -22 -25 -44
-33 -49 -39 -23 -132 -118 -132 -133 0 -7 -5 -13 -10 -13 -6 0 -17 -15 -26
-32 -9 -18 -33 -46 -55 -63 -21 -16 -38 -36 -39 -42 0 -7 -9 -22 -20 -33 -11
-11 -23 -32 -26 -47 -4 -16 -10 -30 -13 -33 -10 -8 -31 -44 -37 -62 -4 -10
-10 -18 -15 -18 -5 0 -9 -8 -9 -18 0 -11 -9 -27 -19 -36 -11 -10 -25 -32 -32
-49 -7 -18 -19 -36 -26 -42 -6 -5 -21 -41 -32 -80 -31 -109 -45 -143 -73 -173
-14 -15 -28 -39 -32 -54 -3 -16 -10 -28 -15 -28 -5 0 -21 -46 -37 -102 -15
-57 -31 -105 -34 -108 -4 -3 -15 -27 -26 -55 -14 -38 -19 -74 -18 -150 1 -127
22 -209 90 -355 29 -63 57 -133 62 -155 13 -58 68 -165 105 -206 18 -19 70
-64 117 -101 47 -37 90 -71 95 -76 19 -15 120 -77 171 -105 61 -32 354 -130
439 -147 33 -6 75 -16 94 -22 26 -8 35 -7 42 3 19 31 8 37 -116 64 -44 10
-125 33 -180 52 -55 19 -122 41 -150 49 -27 8 -68 24 -90 36 -156 82 -158 83
-312 210 -82 68 -144 138 -110 125 27 -10 28 9 1 24 -30 16 -59 68 -70 124 -3
22 -18 62 -32 89 -26 52 -76 200 -93 275 -13 60 -14 180 0 214 8 22 15 26 33
22 16 -4 34 3 57 20 19 14 41 25 49 25 15 0 59 31 96 68 13 12 28 22 33 22 6
0 28 13 50 29 73 53 173 94 232 96 45 2 56 5 62 23 5 12 4 24 -1 27 -6 4 -6
15 2 28 14 26 80 98 86 93 2 -2 -2 -21 -8 -43 -15 -51 0 -93 34 -93 13 0 40 7
59 15 20 8 65 15 99 15 143 0 331 58 386 120 12 14 34 46 50 72 15 27 30 48
33 48 4 0 12 -21 18 -47 7 -27 21 -72 31 -100 19 -52 19 -53 0 -53 -27 0 -35
-19 -17 -38 11 -11 39 -16 94 -18 105 -3 215 -12 353 -29 63 -8 187 -17 275
-20 88 -3 180 -9 205 -14 146 -27 182 -35 250 -56 41 -13 104 -31 140 -40 36
-9 95 -30 132 -46 36 -16 78 -29 92 -29 25 0 25 2 21 50 -3 36 4 76 25 142 16
51 34 113 40 138 12 43 13 44 22 20 43 -107 71 -307 48 -335 -14 -17 -18 -80
-7 -92 4 -3 15 2 26 11 18 17 22 16 68 -4 26 -12 57 -25 68 -29 11 -5 36 -15
56 -24 21 -9 53 -19 73 -22 53 -10 95 25 120 100 25 71 33 55 35 -69 2 -99 5
-109 29 -103 18 4 154 -40 162 -53 3 -4 34 -17 70 -30 36 -12 74 -26 85 -30
58 -25 114 -52 146 -73 20 -12 58 -35 85 -51 27 -16 86 -52 132 -80 l82 -51
-2 -80 c-3 -74 -6 -85 -44 -145 -22 -36 -50 -83 -61 -105 -55 -105 -71 -131
-110 -175 -42 -47 -139 -118 -247 -181 -32 -19 -68 -41 -81 -49 -52 -34 -114
-67 -175 -94 -36 -15 -85 -38 -110 -51 -91 -46 -322 -113 -440 -129 -121 -16
-440 -16 -596 -1 -77 7 -83 6 -93 -13 -14 -26 -4 -32 51 -31 24 0 75 -4 113
-10 87 -13 404 -5 545 14 130 17 333 78 445 133 22 11 66 31 97 45 31 14 124
65 205 113 227 134 327 217 374 312 13 26 26 49 29 52 3 3 12 19 20 35 8 17
33 60 56 97 46 73 64 122 64 181 0 21 7 52 17 70 15 30 15 43 0 182 -9 83 -19
185 -22 228 -4 59 -15 105 -49 195 -103 269 -185 438 -259 531 -29 36 -64 84
-78 106 -94 145 -274 340 -480 520 -57 50 -110 97 -119 105 -8 8 -31 28 -50
43 -19 16 -59 50 -88 75 -43 37 -213 142 -229 142 -3 0 -40 16 -84 35 -44 19
-117 46 -162 59 -45 14 -120 38 -166 55 -46 17 -87 29 -90 26 -4 -2 -56 9
-117 26 -166 44 -276 61 -333 51 -52 -10 -108 -7 -156 8 -68 20 -150 19 -268
-5z"/>
<path d="M3155 5680 c-10 -17 11 -36 54 -49 22 -6 46 -17 53 -24 7 -7 42 -35
78 -61 90 -68 140 -117 140 -137 0 -25 19 -34 37 -16 32 32 -12 84 -170 205
-107 82 -175 110 -192 82z"/>
<path d="M2510 5578 c-26 -42 -47 -112 -65 -218 -9 -47 -24 -116 -35 -155 -10
-38 -28 -110 -39 -160 -11 -49 -31 -130 -45 -180 -13 -49 -29 -128 -36 -175
-7 -47 -32 -159 -55 -250 -24 -91 -49 -198 -55 -239 -6 -41 -24 -107 -41 -147
-35 -83 -61 -173 -53 -185 3 -5 -4 -30 -15 -56 -11 -26 -25 -68 -31 -93 -6
-25 -22 -79 -35 -120 -13 -41 -28 -100 -34 -130 -18 -95 -40 -200 -66 -330
-26 -125 -37 -177 -74 -365 -12 -55 -34 -149 -50 -208 -70 -257 -69 -480 4
-623 14 -27 25 -53 25 -57 0 -17 34 -82 50 -95 8 -6 31 -20 50 -29 62 -31 163
-106 179 -134 16 -28 49 -49 76 -49 8 0 15 -4 15 -8 0 -14 73 -50 101 -50 35
1 182 -97 242 -161 39 -41 52 -64 62 -109 9 -35 10 -61 4 -67 -15 -15 -10 -44
10 -54 21 -12 51 13 51 42 0 9 4 17 9 17 5 0 17 7 25 16 14 14 14 19 -4 54
-25 48 -19 116 11 125 10 3 49 -5 86 -18 77 -26 112 -23 129 12 7 13 28 33 46
45 212 131 253 176 288 313 6 22 25 63 44 90 18 26 40 62 49 78 9 17 27 42 41
56 37 39 64 96 72 148 3 25 15 84 26 131 18 75 20 104 14 260 -3 96 -8 231
-11 300 -6 202 -13 292 -29 392 -17 105 -58 415 -59 438 0 8 2 56 6 105 4 50
7 182 9 295 2 217 10 270 63 427 13 39 29 101 35 138 11 68 13 76 70 225 18
47 47 137 65 200 17 63 39 129 48 147 24 45 22 83 -3 83 -22 0 -70 -84 -90
-160 -20 -75 -71 -233 -85 -265 -7 -16 -45 -156 -83 -310 -76 -301 -90 -396
-93 -641 -1 -73 -7 -155 -13 -183 -7 -37 -7 -80 2 -154 20 -175 33 -276 37
-297 21 -121 27 -208 41 -710 7 -225 6 -238 -14 -298 -12 -34 -26 -82 -32
-107 -6 -28 -22 -57 -39 -74 -44 -43 -124 -176 -174 -291 -26 -58 -68 -108
-104 -124 -21 -9 -46 -22 -57 -27 -18 -10 -18 -8 -12 60 4 38 11 85 16 102 14
47 14 293 0 318 -14 27 -21 26 -44 -6 -26 -35 -36 -153 -30 -344 l5 -156 -35
-35 c-38 -38 -43 -59 -26 -104 6 -15 9 -28 8 -29 -6 -5 -106 14 -173 33 -38
11 -82 23 -97 26 -14 3 -40 18 -57 32 -32 27 -68 26 -57 -1 6 -17 2 -18 -22
-6 -120 60 -107 50 -186 143 -36 43 -55 58 -75 58 -19 0 -32 10 -50 40 -14 22
-38 44 -55 51 -17 7 -44 25 -61 40 -16 15 -46 31 -65 36 -22 6 -39 18 -46 34
-70 147 -92 213 -95 284 -4 87 14 274 33 350 11 44 24 103 29 130 48 279 202
877 239 930 12 18 40 99 49 145 10 49 55 184 71 212 17 30 47 161 49 212 1 28
4 53 7 58 3 4 7 38 9 76 2 37 17 122 34 188 16 65 32 148 34 184 5 72 57 345
87 455 10 39 22 97 25 130 8 73 28 156 62 253 13 40 22 80 19 88 -9 24 -35 16
-56 -18z"/>
<path d="M2734 2286 c-3 -8 -1 -24 5 -35 13 -23 20 -85 25 -213 2 -68 0 -88
-10 -88 -22 0 -63 -45 -55 -59 4 -7 3 -35 -2 -62 -7 -33 -7 -53 0 -60 7 -7 7
-27 2 -56 -5 -26 -5 -49 -1 -52 13 -9 26 -74 31 -158 1 -30 35 -38 66 -16 24
17 25 21 20 103 -3 47 -7 180 -10 295 -7 259 -13 341 -31 383 -14 34 -31 42
-40 18z"/>
<path d="M2220 2100 c-25 -25 -25 -44 -1 -84 11 -17 38 -89 61 -161 23 -71 46
-141 51 -154 8 -19 7 -26 -5 -33 -37 -21 -7 -66 35 -53 11 4 19 2 19 -4 0 -17
28 -13 38 5 6 12 -4 45 -35 116 -39 89 -106 294 -102 315 5 28 -4 54 -21 63
-15 8 -24 6 -40 -10z"/>
</g>
</svg>
