<?xml version="1.0" standalone="no"?>
<!DOCTYPE svg PUBLIC "-//W3C//DTD SVG 20010904//EN"
 "http://www.w3.org/TR/2001/REC-SVG-20010904/DTD/svg10.dtd">
<svg version="1.0" xmlns="http://www.w3.org/2000/svg"
 width="1154.000000pt" height="1125.000000pt" viewBox="0 0 1154.000000 1125.000000"
 preserveAspectRatio="xMidYMid meet">
<metadata>
Created by potrace 1.16, written by Peter Selinger 2001-2019
</metadata>
<g transform="translate(0.000000,1125.000000) scale(0.100000,-0.100000)"
fill="#000000" stroke="none">
<path d="M5326 10097 c-29 -21 -17 -169 28 -352 21 -82 40 -168 42 -190 3 -22
11 -50 17 -63 8 -17 8 -28 0 -40 -7 -13 -7 -21 3 -30 9 -8 12 -22 8 -38 -5
-18 0 -35 16 -56 16 -21 20 -38 16 -59 -3 -15 -1 -31 5 -35 6 -3 9 -20 7 -36
-3 -16 -1 -31 4 -34 4 -3 8 -21 8 -41 0 -20 9 -48 22 -65 17 -24 19 -36 12
-57 -9 -25 -11 -26 -99 -26 -50 0 -96 -4 -102 -8 -7 -4 -27 -2 -45 6 -56 25
-68 27 -88 15 -14 -9 -27 -9 -56 0 -27 8 -42 8 -51 1 -8 -7 -28 -8 -55 -3 -24
5 -55 7 -70 6 -15 -2 -43 1 -63 7 -21 5 -37 6 -41 0 -3 -5 -18 -9 -34 -9 -16
0 -32 -5 -35 -11 -4 -6 -19 -7 -36 -4 -17 4 -36 2 -44 -5 -9 -7 -24 -8 -47 -2
-22 6 -47 4 -78 -6 -61 -19 -138 -23 -176 -10 -27 10 -36 8 -63 -11 -23 -16
-39 -21 -57 -17 -14 4 -31 3 -37 -1 -23 -17 -85 -33 -101 -27 -9 4 -16 1 -16
-6 0 -9 -12 -11 -40 -7 -22 3 -40 1 -40 -4 0 -5 -11 -9 -24 -9 -14 0 -28 -5
-32 -11 -3 -6 -18 -9 -32 -6 -14 3 -33 1 -41 -3 -9 -4 -36 -17 -59 -29 -24
-11 -50 -21 -58 -21 -8 0 -14 -5 -14 -11 0 -8 -13 -9 -40 -5 -25 4 -40 2 -40
-4 0 -5 -5 -10 -11 -10 -6 0 -21 -13 -35 -29 -13 -16 -46 -37 -72 -47 -26 -10
-53 -22 -61 -28 -21 -16 -82 -35 -96 -30 -7 3 -16 1 -20 -5 -3 -6 -17 -11 -31
-11 -13 0 -23 -5 -22 -12 2 -7 -29 -28 -69 -48 -40 -19 -72 -41 -73 -47 0 -7
-12 -20 -27 -30 -16 -10 -31 -22 -35 -27 -4 -6 -10 -7 -14 -3 -4 4 -26 -9 -50
-28 -23 -19 -47 -35 -52 -35 -5 0 -12 -7 -16 -15 -3 -8 -17 -15 -31 -15 -14 0
-25 -3 -25 -8 0 -7 -29 -21 -72 -36 -10 -3 -18 -11 -18 -18 0 -13 -37 -35 -97
-58 -18 -7 -31 -17 -30 -23 3 -13 -75 -68 -90 -62 -6 2 -17 -3 -23 -10 -7 -8
-16 -13 -20 -10 -4 2 -12 -7 -18 -20 -7 -14 -20 -25 -31 -25 -13 0 -21 -8 -23
-22 -2 -15 -18 -30 -48 -45 -24 -12 -48 -31 -52 -43 -4 -11 -16 -20 -26 -20
-10 0 -25 -11 -32 -25 -7 -14 -16 -25 -20 -25 -12 0 -80 -68 -80 -79 0 -6 -13
-17 -30 -26 -16 -9 -30 -22 -30 -30 0 -15 -40 -42 -40 -28 -1 4 -8 -4 -16 -19
-8 -16 -21 -28 -28 -28 -7 0 -21 -18 -32 -40 -10 -22 -26 -42 -34 -45 -8 -3
-21 -19 -29 -36 -7 -17 -24 -35 -37 -41 -13 -6 -24 -16 -24 -22 0 -28 -50
-128 -73 -149 -16 -13 -30 -41 -38 -72 -6 -27 -17 -59 -24 -70 -6 -11 -17 -42
-24 -70 -7 -27 -19 -63 -26 -80 -8 -16 -21 -57 -31 -90 -9 -33 -20 -65 -24
-70 -5 -6 -14 -33 -21 -60 -6 -28 -17 -59 -24 -70 -6 -11 -20 -53 -30 -92 -10
-40 -22 -73 -26 -73 -4 0 -13 -24 -20 -53 -9 -41 -9 -59 0 -75 9 -18 8 -30 -8
-64 -10 -24 -26 -70 -35 -103 -8 -34 -23 -76 -32 -94 -14 -27 -15 -38 -5 -53
9 -15 9 -31 0 -74 -7 -30 -16 -54 -20 -54 -12 0 -40 -134 -29 -138 16 -6 12
-40 -11 -89 -17 -38 -19 -53 -11 -80 10 -31 -1 -99 -18 -113 -4 -3 -12 -27
-20 -55 -7 -27 -22 -70 -32 -94 -16 -36 -18 -48 -8 -66 10 -18 9 -33 -2 -71
-11 -39 -12 -54 -2 -73 7 -14 9 -33 5 -45 -9 -24 -8 -113 2 -136 4 -8 6 -31 5
-50 -3 -73 9 -143 27 -156 13 -10 16 -21 11 -48 -5 -25 -3 -36 5 -36 7 0 10
-13 7 -35 -2 -19 0 -36 5 -38 5 -1 8 -16 7 -32 -5 -66 -1 -106 10 -120 7 -8
10 -26 6 -40 -4 -14 -3 -25 1 -25 10 0 33 -72 33 -102 0 -13 9 -36 20 -53 14
-20 18 -39 14 -58 -3 -16 -1 -27 5 -27 6 0 11 -11 11 -25 0 -14 5 -25 10 -25
6 0 10 -14 10 -30 0 -28 55 -158 72 -170 12 -9 58 -100 58 -116 0 -7 4 -14 8
-14 5 0 15 -18 22 -40 7 -22 17 -40 22 -40 4 0 8 -9 8 -19 0 -11 4 -22 9 -25
4 -3 25 -39 45 -81 20 -41 41 -75 46 -75 6 0 10 -7 10 -16 0 -9 18 -34 40 -55
22 -22 40 -46 40 -54 0 -9 11 -33 25 -55 14 -22 25 -43 25 -47 0 -5 9 -19 20
-33 11 -14 20 -31 20 -39 0 -8 12 -30 27 -50 16 -20 28 -40 28 -46 0 -5 9 -14
21 -19 11 -5 28 -29 38 -54 11 -24 34 -59 52 -78 19 -18 34 -38 34 -44 0 -5 7
-10 15 -10 9 0 15 -9 15 -24 0 -13 7 -27 16 -30 8 -3 12 -10 9 -16 -3 -5 5
-14 19 -20 23 -8 30 -19 28 -41 -1 -3 24 -32 53 -65 30 -32 55 -62 55 -66 0
-4 18 -24 39 -45 22 -20 37 -42 35 -48 -3 -6 7 -17 21 -23 14 -6 25 -18 25
-27 0 -8 16 -23 35 -32 19 -9 35 -23 35 -30 0 -7 5 -13 10 -13 6 0 15 -11 21
-23 6 -14 31 -32 60 -45 28 -11 49 -27 49 -35 0 -9 18 -21 43 -29 30 -11 43
-21 45 -36 2 -15 14 -24 35 -30 19 -5 37 -18 44 -34 8 -16 24 -28 44 -32 39
-7 59 -23 53 -40 -3 -8 13 -18 43 -27 36 -10 49 -19 51 -36 2 -13 13 -23 30
-28 15 -3 37 -18 50 -33 16 -18 43 -32 85 -42 49 -13 65 -21 75 -42 7 -16 24
-29 42 -33 17 -4 32 -15 35 -26 4 -12 13 -18 21 -15 7 3 13 0 11 -6 -1 -6 15
-16 36 -21 20 -5 42 -18 48 -28 5 -10 16 -19 24 -19 8 0 15 -4 15 -9 0 -5 14
-12 30 -16 17 -4 30 -10 30 -14 0 -4 25 -13 55 -20 38 -9 60 -20 73 -38 13
-17 43 -35 88 -50 125 -43 208 -64 248 -64 40 1 152 -25 171 -40 6 -4 37 -15
70 -24 33 -9 74 -22 90 -30 83 -37 371 -119 386 -109 6 3 39 -2 75 -12 49 -13
70 -15 88 -6 18 8 29 7 46 -5 24 -17 210 -27 210 -11 0 13 32 9 64 -7 22 -12
32 -12 42 -4 10 8 25 9 56 1 27 -7 46 -7 54 -1 6 5 27 9 45 9 60 0 104 5 117
13 7 5 22 7 35 6 12 -1 30 1 40 6 9 4 29 5 42 3 14 -3 25 -1 25 3 0 5 26 9 59
9 41 0 62 5 71 15 9 11 22 14 42 10 15 -4 28 -3 28 2 0 5 18 7 40 5 26 -3 40
0 40 8 0 8 12 10 40 5 24 -4 40 -3 40 3 0 12 100 33 160 34 14 0 30 3 35 8 14
11 76 24 98 21 9 -1 17 2 17 7 0 12 52 23 98 23 17 -1 32 4 32 10 0 5 4 8 9 5
5 -3 14 0 20 8 7 8 26 13 44 12 18 -2 39 1 47 5 44 22 111 49 122 49 7 0 26 9
43 20 18 12 38 17 52 14 16 -4 61 13 147 55 68 34 134 61 146 61 12 0 51 14
86 31 35 16 68 28 73 25 5 -3 11 3 14 13 2 10 22 27 43 37 22 10 41 20 44 23
3 4 17 12 33 20 15 8 27 21 27 29 0 7 9 16 20 19 11 3 20 9 20 14 0 5 11 9 25
9 14 0 25 4 25 10 0 12 85 100 97 100 4 0 13 10 18 22 6 13 18 23 28 23 9 0
29 12 45 26 15 14 37 31 49 38 13 6 26 23 29 36 4 18 13 25 30 25 13 0 24 5
24 11 0 7 25 36 55 64 30 29 55 58 55 64 0 6 11 13 25 17 13 3 27 15 30 25 4
10 17 22 31 25 13 3 24 11 24 18 0 7 16 29 35 49 19 20 35 43 35 51 0 8 9 17
19 21 11 3 26 19 33 35 7 16 23 34 35 41 13 7 23 18 23 25 0 7 12 22 27 34 15
12 33 35 40 51 7 17 20 29 30 29 11 0 23 12 30 30 7 20 18 30 31 30 15 0 22 9
27 30 4 20 17 36 36 45 16 9 29 21 29 27 0 13 11 25 73 89 35 36 70 102 82
158 4 19 17 37 32 45 17 8 31 30 42 62 12 36 22 50 38 52 15 2 24 13 28 35 13
57 58 155 68 147 12 -9 35 35 50 93 17 65 49 123 66 119 6 -1 11 9 11 22 0 14
7 31 15 40 20 19 65 192 69 265 2 32 10 68 19 82 23 36 32 90 16 99 -10 7 -10
19 1 67 16 70 20 160 9 189 -4 13 -2 41 6 69 13 40 13 49 0 61 -12 12 -11 21
7 61 17 39 19 52 9 78 -8 24 -8 40 0 64 8 22 8 35 2 40 -6 3 -11 47 -11 96 0
95 -4 129 -16 158 -5 9 -5 28 -2 41 3 13 1 26 -4 28 -10 3 -20 62 -21 120 0
15 -4 30 -9 33 -5 3 -7 21 -4 40 2 20 0 35 -6 35 -5 0 -10 9 -10 20 0 11 -4
20 -10 20 -5 0 -10 8 -10 18 0 9 -7 25 -15 35 -9 12 -11 27 -6 40 6 15 1 31
-16 56 -13 19 -21 41 -18 49 6 16 -15 72 -27 72 -5 0 -8 16 -8 35 0 19 -6 44
-12 55 -10 15 -10 22 -1 31 14 14 100 -25 149 -68 17 -16 52 -45 77 -66 24
-20 52 -52 62 -70 9 -17 27 -53 41 -79 19 -38 29 -48 49 -48 35 0 57 46 49
102 -14 100 -44 164 -156 326 -17 24 -31 48 -32 55 -4 28 -36 58 -82 78 -27
12 -66 36 -86 53 -67 57 -133 103 -185 131 -29 15 -53 31 -53 37 0 5 -7 16
-15 24 -8 8 -11 22 -8 30 3 9 0 20 -8 25 -8 4 -14 12 -14 16 -1 4 -6 18 -13
29 -6 12 -8 24 -5 28 3 3 1 6 -5 6 -7 0 -12 6 -12 14 0 7 -7 19 -15 26 -8 7
-15 20 -15 30 0 10 -7 20 -15 24 -8 3 -15 12 -15 21 0 8 -4 15 -10 15 -5 0
-10 7 -10 15 0 18 -20 57 -35 67 -5 4 -10 13 -10 20 -1 21 -35 67 -56 73 -10
4 -19 14 -19 24 0 11 -12 24 -30 31 -18 8 -30 20 -30 31 0 12 -10 23 -25 29
-14 5 -25 16 -25 25 0 8 -4 15 -10 15 -5 0 -10 9 -10 20 0 13 -12 25 -35 34
-25 11 -33 19 -29 30 4 9 1 16 -6 16 -6 0 -33 21 -58 47 -26 26 -50 46 -54 45
-5 -1 -8 2 -8 7 0 5 -13 14 -30 20 -16 5 -30 17 -30 26 0 8 -11 20 -24 26 -13
6 -29 22 -35 35 -6 13 -16 24 -22 24 -13 0 -89 75 -89 88 0 4 -16 14 -35 21
-22 7 -34 18 -33 27 2 8 -8 20 -22 27 -14 7 -25 19 -25 26 0 15 -12 23 -62 41
-18 7 -35 21 -38 31 -4 10 -16 21 -29 25 -12 3 -34 18 -49 33 -14 16 -40 34
-57 41 -37 15 -38 36 -6 99 14 25 30 63 36 84 6 21 22 50 35 66 22 26 31 45
73 163 10 26 28 54 43 64 19 13 30 32 38 69 7 29 18 61 26 71 8 11 15 26 15
35 0 9 11 28 25 43 13 14 21 26 17 26 -4 0 0 6 9 13 9 7 21 28 27 47 7 20 33
72 58 115 25 44 57 100 71 125 41 73 170 262 211 307 20 23 71 80 112 127 41
47 80 86 87 86 8 0 18 11 23 24 5 13 18 27 29 31 11 3 30 26 42 51 19 39 20
49 9 70 -17 32 -36 30 -117 -7 -85 -40 -174 -110 -317 -248 -121 -118 -148
-152 -201 -257 -38 -75 -66 -114 -116 -164 -36 -36 -106 -112 -155 -170 -49
-58 -94 -109 -100 -115 -7 -5 -46 -60 -88 -121 -43 -61 -85 -120 -94 -130 -9
-11 -23 -30 -30 -44 -21 -39 -42 -61 -115 -118 l-67 -53 -25 28 c-13 15 -25
33 -25 38 0 6 -13 16 -30 22 -20 8 -30 18 -30 32 0 12 -6 21 -15 21 -8 0 -20
9 -27 20 -7 11 -18 20 -25 20 -7 0 -13 4 -13 10 0 5 -16 12 -35 16 -22 4 -43
17 -55 34 -12 17 -36 32 -66 40 -31 9 -49 21 -57 37 -9 20 -57 43 -92 43 -6 0
-18 13 -27 28 -12 20 -30 31 -66 41 -35 9 -52 19 -60 36 -7 16 -25 28 -51 35
-22 6 -43 15 -46 20 -3 6 -15 10 -26 10 -10 0 -24 9 -31 21 -15 24 -59 46
-125 63 -34 9 -51 19 -60 37 -9 19 -26 28 -65 38 -29 8 -57 17 -63 21 -5 4
-39 17 -75 28 -190 60 -182 56 -225 130 -21 37 -63 104 -92 149 -62 95 -123
202 -128 223 -9 36 -56 165 -81 217 -15 32 -29 78 -32 103 -2 25 -9 50 -14 57
-5 6 -8 17 -7 25 1 7 -2 22 -6 32 -5 11 -4 36 2 58 6 22 7 41 1 44 -5 3 -6 21
-2 40 4 22 2 34 -5 34 -6 0 -11 11 -11 24 0 12 -10 34 -22 48 -13 13 -32 48
-42 78 -10 30 -23 61 -29 68 -12 16 -48 15 -71 -1z m-420 -1178 c34 -9 48 -9
59 1 10 9 23 9 47 1 18 -5 71 -8 118 -6 47 3 99 0 117 -6 21 -7 44 -7 67 -1
20 6 38 6 43 1 5 -5 43 -11 84 -13 81 -5 134 -20 124 -36 -4 -6 -3 -16 2 -23
10 -12 29 -91 39 -162 10 -70 19 -549 10 -563 -2 -4 2 -47 10 -97 17 -109 28
-208 29 -255 0 -28 -4 -34 -17 -32 -11 2 -18 -3 -18 -13 0 -8 -4 -15 -10 -15
-5 0 -10 5 -10 10 0 6 -6 10 -12 10 -28 0 -85 21 -104 38 -33 30 -68 49 -104
57 -19 4 -44 14 -55 21 -11 8 -26 14 -34 14 -7 0 -50 18 -95 40 -47 23 -100
41 -127 43 -25 2 -50 6 -55 9 -5 3 -36 13 -69 22 -33 9 -69 21 -80 25 -34 15
-108 39 -154 51 -24 6 -55 16 -70 22 -14 5 -55 12 -90 14 -35 2 -69 8 -75 14
-5 5 -20 10 -31 10 -12 0 -45 11 -73 25 -29 14 -58 25 -65 25 -7 0 -17 4 -22
9 -6 5 -27 19 -47 30 -158 88 -154 86 -215 135 -24 19 -60 45 -80 57 -21 13
-46 30 -55 39 -9 8 -34 24 -55 35 -46 25 -73 50 -73 70 0 8 -7 15 -16 15 -10
0 -14 6 -10 15 16 43 -131 58 -154 15 -26 -48 -10 -87 66 -170 28 -30 59 -68
69 -85 34 -53 150 -188 216 -251 76 -71 194 -153 276 -190 32 -14 72 -32 90
-40 17 -8 34 -14 38 -14 12 0 120 -54 170 -85 49 -31 148 -69 256 -99 30 -9
91 -34 135 -57 101 -53 205 -105 319 -160 50 -23 122 -62 160 -85 39 -23 85
-49 103 -58 18 -9 30 -20 28 -25 -3 -4 6 -14 19 -21 14 -7 25 -17 25 -22 0
-12 149 -158 161 -158 5 0 9 -7 9 -15 0 -8 7 -15 15 -15 9 0 20 -11 25 -25 5
-14 17 -28 25 -31 8 -4 15 -15 15 -25 0 -10 4 -19 9 -19 4 0 5 -22 0 -48 -13
-86 -79 -327 -92 -337 -16 -13 -47 -73 -47 -90 0 -20 -143 -208 -184 -241 -19
-16 -52 -36 -73 -43 -21 -8 -62 -29 -92 -48 -32 -20 -76 -38 -110 -44 -31 -5
-76 -14 -101 -19 -25 -6 -69 -15 -98 -21 -69 -14 -82 -36 -53 -94 25 -50 36
-55 181 -88 249 -57 392 -35 518 78 28 26 56 44 62 40 6 -3 13 1 16 9 3 9 15
16 25 16 10 0 19 5 19 10 0 6 6 10 14 10 7 0 33 18 57 39 23 22 46 38 50 35 4
-2 16 6 26 18 10 13 34 32 53 42 19 11 41 28 48 38 7 10 20 18 28 18 8 0 17 7
20 15 4 8 13 15 20 15 8 0 20 11 26 25 6 14 17 25 23 25 7 0 18 7 25 15 7 8
21 15 31 15 11 0 19 5 19 10 0 6 7 10 15 10 18 0 52 18 82 44 12 10 26 15 31
12 5 -3 15 1 22 9 7 8 18 15 25 15 7 0 34 9 61 19 55 21 86 34 94 36 10 3 116
19 130 19 8 1 14 9 13 19 -1 13 4 17 15 12 10 -4 53 -10 97 -15 44 -5 107 -16
140 -25 33 -9 69 -14 80 -11 11 3 61 -6 110 -19 50 -14 106 -25 125 -25 35 0
112 -15 325 -66 61 -14 157 -35 215 -45 112 -21 249 -56 265 -69 6 -4 37 -11
70 -14 54 -6 120 -20 405 -86 47 -11 128 -29 180 -41 185 -41 230 -60 230 -96
0 -7 4 -21 9 -31 17 -30 24 -56 24 -81 0 -14 6 -31 13 -38 7 -8 11 -20 8 -28
-4 -8 -1 -15 5 -15 6 0 11 -9 11 -19 0 -11 5 -23 10 -26 6 -3 10 -16 10 -29 0
-12 5 -27 12 -34 7 -7 9 -12 5 -12 -3 0 0 -17 7 -37 7 -21 11 -43 9 -50 -2 -6
1 -14 6 -18 6 -3 11 -15 11 -26 0 -10 4 -19 8 -19 5 0 9 -16 10 -35 1 -19 6
-44 12 -55 6 -11 8 -24 5 -29 -3 -5 -1 -21 5 -35 11 -31 23 -127 21 -174 -1
-19 2 -39 6 -45 9 -14 11 -33 18 -187 3 -69 0 -132 -6 -157 -8 -30 -8 -51 -1
-72 7 -19 7 -31 1 -33 -5 -2 -11 -16 -13 -31 -1 -15 -5 -30 -8 -33 -3 -3 -2
-20 3 -38 5 -19 5 -45 -1 -65 -6 -22 -6 -38 2 -51 7 -10 8 -25 3 -36 -5 -11
-8 -41 -7 -69 1 -51 -41 -234 -62 -270 -7 -11 -18 -45 -25 -75 -14 -58 -43
-137 -67 -182 -8 -14 -14 -32 -14 -40 -1 -7 -9 -31 -20 -53 -11 -22 -19 -48
-20 -57 0 -10 -7 -18 -15 -18 -15 0 -65 -95 -65 -124 0 -8 -15 -30 -32 -48
-18 -18 -42 -51 -53 -73 -11 -22 -34 -58 -52 -79 -18 -22 -33 -48 -33 -59 0
-11 -9 -21 -20 -24 -15 -4 -19 -11 -14 -25 4 -13 -1 -26 -15 -39 -12 -11 -21
-24 -21 -29 0 -4 -18 -27 -40 -49 -22 -22 -40 -48 -40 -57 0 -9 -9 -18 -20
-21 -10 -3 -22 -13 -25 -24 -3 -10 -19 -29 -36 -43 -16 -14 -29 -27 -29 -30 0
-11 -35 -46 -45 -46 -6 0 -16 -14 -22 -30 -6 -17 -17 -29 -24 -28 -7 2 -19 -9
-26 -24 -7 -15 -22 -30 -33 -33 -11 -4 -20 -15 -20 -26 0 -10 -4 -19 -10 -19
-5 0 -10 -7 -10 -15 0 -8 -8 -15 -17 -15 -11 0 -24 -15 -35 -40 -9 -22 -23
-40 -31 -40 -7 0 -20 -11 -27 -25 -7 -14 -19 -25 -26 -25 -8 0 -20 -13 -29
-30 -9 -16 -22 -30 -30 -30 -9 0 -21 -11 -27 -25 -6 -14 -15 -25 -19 -25 -4 0
-33 -25 -64 -55 -30 -30 -58 -55 -61 -55 -3 0 -26 -21 -51 -47 -25 -27 -49
-47 -53 -46 -4 1 -18 -11 -30 -27 -13 -17 -29 -30 -36 -30 -8 0 -14 -7 -14
-15 0 -8 -5 -15 -10 -15 -6 0 -20 -11 -32 -25 -12 -14 -26 -25 -31 -25 -5 0
-20 -10 -32 -22 -35 -35 -53 -48 -66 -48 -6 0 -20 -11 -31 -25 -11 -14 -26
-25 -34 -25 -8 0 -14 -4 -14 -9 0 -5 -11 -12 -25 -15 -14 -4 -25 -11 -25 -16
0 -6 -11 -15 -25 -20 -14 -5 -25 -15 -25 -21 0 -6 -7 -8 -15 -5 -9 3 -18 -1
-21 -9 -4 -8 -17 -15 -30 -15 -13 0 -24 -4 -24 -9 0 -7 -52 -23 -85 -26 -5 0
-17 -5 -25 -10 -8 -5 -19 -10 -25 -10 -11 -1 -41 -13 -119 -49 -62 -28 -116
-44 -133 -39 -6 2 -14 -1 -18 -6 -3 -6 -15 -11 -26 -11 -10 0 -19 -4 -19 -10
0 -5 -11 -10 -25 -10 -14 0 -25 -4 -25 -10 0 -5 -9 -10 -19 -10 -11 0 -23 -4
-26 -10 -3 -5 -19 -10 -35 -10 -16 0 -32 -5 -35 -11 -4 -5 -12 -8 -18 -6 -7 2
-20 0 -30 -5 -24 -12 -66 -21 -94 -21 -13 1 -23 -3 -23 -8 0 -5 -11 -9 -23 -9
-13 0 -27 -3 -31 -8 -8 -7 -111 -31 -156 -35 -25 -3 -71 -14 -100 -24 -19 -6
-77 -14 -109 -13 -12 0 -28 -3 -34 -7 -9 -6 -41 -10 -117 -15 -8 0 -19 -4 -25
-8 -5 -4 -25 -7 -42 -5 -18 1 -33 -1 -33 -5 0 -6 -52 -20 -100 -25 -8 -1 -17
-3 -20 -4 -3 -1 -43 -4 -90 -5 -47 -2 -92 -7 -101 -10 -8 -4 -27 -2 -42 3 -17
7 -28 7 -32 1 -8 -13 -55 -13 -94 1 -21 8 -35 8 -44 1 -7 -7 -28 -7 -57 -2
-25 5 -55 6 -66 4 -12 -3 -45 2 -74 10 -29 9 -58 12 -64 8 -14 -10 -34 -8 -69
6 -16 7 -44 14 -62 16 -19 3 -40 8 -47 12 -6 4 -29 7 -49 5 -36 -2 -158 27
-195 47 -10 6 -64 22 -119 38 -55 15 -104 31 -110 35 -5 4 -39 15 -75 25 -36
10 -76 23 -89 30 -13 7 -29 10 -36 8 -7 -3 -16 -1 -20 5 -3 6 -17 11 -31 11
-13 0 -32 4 -42 10 -9 5 -52 19 -96 30 -43 11 -102 31 -130 44 -28 13 -81 36
-118 52 -38 15 -68 32 -68 38 0 15 -28 32 -68 40 -17 4 -44 21 -59 36 -15 16
-40 32 -56 36 -16 3 -32 14 -34 24 -5 19 -59 50 -87 50 -9 0 -16 5 -16 10 0 6
-6 10 -13 10 -8 0 -22 9 -33 21 -10 11 -38 29 -62 40 -23 11 -40 24 -37 29 3
5 -14 19 -39 30 -24 12 -47 28 -50 35 -3 8 -20 21 -38 28 -18 8 -48 28 -65 46
-18 17 -39 31 -47 31 -7 0 -27 13 -42 29 -16 16 -41 34 -56 40 -16 6 -28 17
-28 24 0 7 -17 23 -38 34 -20 11 -36 25 -35 31 2 7 -4 12 -12 12 -8 0 -15 5
-15 10 0 6 -7 10 -15 10 -8 0 -15 8 -15 18 0 9 -13 23 -30 30 -16 8 -30 20
-30 28 0 8 -11 19 -25 24 -15 6 -25 17 -25 30 0 11 -5 20 -11 20 -14 0 -67 58
-75 83 -3 9 -12 17 -20 17 -8 0 -19 11 -24 25 -5 14 -14 25 -20 25 -5 0 -10 8
-10 18 0 9 -9 23 -20 30 -11 7 -20 18 -20 26 0 8 -7 17 -16 20 -9 3 -14 13
-11 21 4 8 -2 16 -14 20 -11 4 -19 12 -17 18 1 7 -17 32 -39 56 -23 25 -40 48
-37 52 2 4 -3 9 -11 13 -8 3 -15 11 -15 18 0 7 -11 23 -24 35 -13 13 -36 46
-51 75 -36 71 -49 93 -62 109 -20 26 -53 89 -53 104 0 8 -5 15 -10 15 -6 0
-14 8 -17 17 -4 10 -30 52 -58 93 -28 41 -54 83 -58 93 -3 9 -11 17 -17 17 -5
0 -10 8 -10 19 0 10 -7 24 -15 31 -8 7 -15 19 -15 26 0 8 -4 14 -10 14 -5 0
-10 4 -10 10 0 10 -37 92 -110 245 -27 55 -54 118 -61 140 -6 22 -16 49 -21
61 -5 11 -8 24 -7 30 3 13 -10 64 -28 103 -9 19 -17 48 -18 64 -1 16 -7 32
-12 36 -6 3 -10 13 -11 21 -1 8 -6 38 -12 65 -6 28 -13 68 -15 90 -7 65 -10
79 -17 91 -5 7 -6 26 -4 43 2 17 0 31 -5 31 -5 0 -8 10 -8 23 1 12 -3 54 -9
92 -12 81 -12 81 -15 160 -2 33 -6 65 -10 72 -4 6 -3 23 3 38 7 18 7 31 1 39
-11 13 -3 83 10 92 4 2 6 11 3 19 -3 7 0 24 7 37 7 13 13 44 15 69 1 25 14 89
28 142 15 53 24 107 21 120 -4 13 3 56 14 97 12 44 17 78 12 83 -5 5 1 44 15
96 14 47 29 124 33 171 5 46 14 86 20 88 6 2 11 11 11 20 1 10 11 53 24 97 14
47 21 86 16 95 -5 9 2 48 16 95 13 44 23 88 24 98 0 9 4 17 9 17 5 0 16 30 25
67 10 37 21 72 26 78 4 5 17 39 28 75 26 81 49 146 66 185 8 17 17 46 21 65 8
37 38 99 53 109 10 7 72 137 72 151 0 6 15 25 33 43 18 17 39 46 46 64 7 18
24 39 37 48 13 8 24 20 24 26 0 11 68 79 80 79 4 0 16 11 26 25 10 14 23 25
29 25 6 0 16 14 24 31 7 17 20 33 27 36 8 3 35 25 60 49 24 24 49 44 55 44 5
0 15 11 21 25 6 14 17 25 25 25 7 0 21 9 30 20 10 11 22 20 28 20 13 0 75 59
75 71 0 5 6 9 14 9 7 0 19 7 26 15 7 8 21 15 31 15 11 0 19 5 19 11 0 6 7 9
15 5 9 -3 19 3 25 14 6 11 30 29 55 40 24 11 48 26 52 33 4 8 15 17 23 20 8 4
29 16 45 27 43 27 87 50 97 50 5 0 14 4 21 10 59 48 77 61 77 54 0 -4 8 3 19
14 10 12 20 19 23 17 3 -3 22 11 42 30 21 19 46 35 57 35 10 0 19 7 19 15 0 8
9 15 20 15 11 0 20 5 20 10 0 6 6 10 13 10 7 0 23 10 36 21 13 12 34 22 47 22
13 0 24 3 24 8 0 5 11 9 25 9 14 0 25 5 25 10 0 6 9 10 20 10 11 0 20 5 20 10
0 6 11 10 25 10 14 0 25 4 25 8 0 4 12 13 28 20 15 6 50 25 77 40 28 15 70 33
95 40 44 13 78 25 113 43 9 5 39 12 65 16 26 3 52 9 57 13 6 4 25 6 43 5 17
-2 32 1 32 6 0 5 16 9 35 9 20 0 52 7 71 15 20 8 40 13 44 10 5 -3 11 -1 15 5
3 5 21 10 40 10 19 0 37 5 40 11 4 6 14 8 22 5 17 -7 193 12 208 23 6 3 26 6
45 7 75 2 203 14 208 19 7 7 6 7 58 -6z m1139 -209 c6 -4 39 -16 75 -25 76
-21 112 -38 137 -64 10 -10 36 -24 58 -31 22 -7 44 -16 50 -21 5 -5 16 -9 26
-9 9 0 28 -11 43 -25 15 -14 31 -25 37 -25 5 0 9 -4 9 -9 0 -5 14 -13 32 -16
39 -9 68 -26 68 -41 0 -6 24 -21 53 -34 28 -13 60 -34 70 -47 10 -13 24 -23
31 -23 22 0 77 -31 89 -51 6 -10 19 -19 27 -19 8 0 24 -7 34 -15 11 -8 28 -15
38 -15 11 0 18 -7 18 -20 0 -11 5 -20 11 -20 6 0 25 -6 42 -14 18 -8 40 -17
50 -20 25 -8 16 -30 -14 -34 -44 -6 -90 -33 -139 -83 -26 -27 -52 -49 -57 -49
-6 0 -15 -11 -21 -25 -6 -14 -16 -25 -21 -25 -5 0 -28 -18 -51 -40 -23 -22
-50 -40 -61 -40 -10 0 -19 -7 -19 -15 0 -15 -48 -41 -57 -31 -3 2 -14 22 -26
43 -12 22 -44 71 -70 109 -26 38 -82 120 -123 183 -41 63 -81 122 -89 131 -8
9 -13 19 -10 22 3 3 -1 11 -10 18 -8 7 -15 19 -15 27 0 7 -7 16 -15 19 -8 4
-15 13 -15 20 0 8 -17 31 -37 52 -21 20 -38 39 -38 42 0 3 -13 19 -28 35 -16
17 -34 37 -41 45 -11 13 -74 107 -100 148 -6 10 -1 11 21 6 15 -4 33 -10 38
-14z m1127 -701 c37 -41 54 -95 46 -150 -3 -23 -6 -24 -58 -21 -97 7 -176 63
-196 140 -13 46 54 85 131 76 31 -3 48 -13 77 -45z m498 -334 c16 -8 34 -24
40 -34 5 -11 26 -25 45 -32 22 -8 35 -20 35 -31 0 -10 6 -18 13 -18 18 0 87
-36 81 -43 -3 -2 8 -14 24 -26 45 -32 92 -78 92 -90 0 -6 5 -11 11 -11 6 0 29
-18 52 -40 111 -105 160 -150 168 -150 5 0 9 -7 9 -15 0 -8 7 -15 15 -15 8 0
15 -4 15 -10 0 -5 7 -10 15 -10 8 0 15 -6 15 -14 0 -8 14 -23 30 -33 17 -9 30
-22 30 -29 0 -6 11 -16 25 -22 15 -7 25 -20 25 -32 0 -11 4 -20 8 -20 10 0
132 -120 132 -130 0 -4 9 -15 20 -25 11 -10 20 -24 20 -31 0 -7 6 -17 13 -21
6 -4 17 -17 23 -28 6 -11 23 -42 37 -68 15 -26 27 -54 27 -62 0 -8 5 -15 10
-15 6 0 10 -9 10 -20 0 -11 5 -20 10 -20 6 0 10 -6 10 -14 0 -8 6 -21 13 -28
6 -7 13 -21 13 -30 1 -14 -2 -15 -17 -8 -10 6 -21 15 -24 20 -3 6 -13 10 -21
10 -19 0 -162 64 -234 105 -14 8 -63 32 -110 54 -47 22 -96 47 -110 55 -14 8
-56 29 -95 46 -38 18 -155 74 -260 125 -104 51 -244 110 -310 132 -103 33
-120 42 -117 58 3 18 57 194 142 465 17 52 30 101 30 108 0 16 5 15 40 -3z"/>
</g>
</svg>
