<?xml version="1.0" standalone="no"?>
<!DOCTYPE svg PUBLIC "-//W3C//DTD SVG 20010904//EN"
 "http://www.w3.org/TR/2001/REC-SVG-20010904/DTD/svg10.dtd">
<svg version="1.0" xmlns="http://www.w3.org/2000/svg"
 width="929.000000pt" height="1100.000000pt" viewBox="0 0 929.000000 1100.000000"
 preserveAspectRatio="xMidYMid meet">
<metadata>
Created by potrace 1.16, written by Peter Selinger 2001-2019
</metadata>
<g transform="translate(0.000000,1100.000000) scale(0.100000,-0.100000)"
fill="#000000" stroke="none">
<path d="M2246 9485 c-4 -11 -21 -15 -65 -15 -43 0 -60 -4 -65 -15 -3 -10 -19
-15 -45 -15 -31 0 -44 -6 -64 -30 -16 -19 -35 -30 -51 -30 -19 0 -26 -5 -26
-20 0 -11 -9 -28 -20 -37 -11 -10 -20 -27 -20 -39 0 -12 -7 -24 -15 -28 -8 -3
-15 -17 -15 -32 0 -17 -6 -28 -20 -31 -13 -3 -20 -14 -20 -29 0 -13 -4 -24
-10 -24 -5 0 -10 -13 -10 -29 0 -29 -14 -41 -51 -41 -14 0 -19 -7 -19 -25 0
-14 -7 -28 -15 -31 -8 -4 -15 -12 -15 -19 0 -7 -9 -15 -20 -18 -12 -3 -20 -14
-20 -26 0 -12 -7 -24 -15 -27 -11 -5 -15 -21 -15 -60 0 -39 4 -56 15 -60 11
-4 15 -21 15 -59 0 -44 3 -54 20 -58 13 -3 20 -14 20 -29 0 -16 13 -35 35 -54
21 -17 35 -38 35 -51 0 -14 6 -23 15 -23 9 0 30 -10 47 -22 l30 -23 15 23 c12
18 25 22 63 22 39 0 49 -4 53 -20 3 -12 14 -20 25 -20 12 0 24 -4 27 -10 3 -5
17 -10 31 -10 14 0 37 -13 54 -30 16 -16 34 -30 40 -30 5 0 10 -5 10 -11 0 -6
10 -22 23 -35 29 -31 91 -33 107 -4 6 11 21 20 34 20 13 0 29 7 36 15 7 8 21
15 31 15 11 0 36 18 58 40 21 22 44 40 50 40 6 0 11 7 11 15 0 9 9 15 25 15
14 0 37 14 58 35 19 19 43 35 54 35 12 0 23 7 27 15 3 9 18 15 36 15 20 0 30
5 30 15 0 10 10 15 30 15 18 0 33 6 36 15 5 12 24 15 85 15 64 0 79 -3 79 -15
0 -9 9 -15 25 -15 14 0 28 -7 31 -15 4 -8 18 -15 34 -15 16 0 30 -7 34 -15 3
-9 18 -15 36 -15 20 0 30 -5 30 -15 0 -9 9 -15 21 -15 26 0 69 -44 69 -69 0
-10 9 -21 20 -24 13 -3 20 -14 20 -30 0 -14 7 -27 15 -31 10 -3 15 -19 15 -45
0 -34 5 -42 35 -61 31 -19 35 -26 35 -66 l0 -44 -70 0 c-40 0 -70 -4 -70 -10
0 -5 -18 -10 -40 -10 -26 0 -42 -5 -48 -17 -8 -13 -22 -16 -66 -14 -67 2 -96
-5 -96 -25 0 -9 -11 -14 -30 -14 -18 0 -33 -6 -36 -15 -4 -8 -17 -15 -30 -15
-17 0 -44 -20 -85 -60 -33 -33 -64 -60 -69 -60 -6 0 -10 -13 -10 -30 0 -16 -4
-30 -10 -30 -5 0 -37 -27 -71 -60 -33 -33 -65 -60 -70 -60 -5 0 -9 -7 -9 -15
0 -8 -7 -15 -15 -15 -10 0 -15 -10 -15 -29 0 -21 -6 -32 -20 -36 -12 -4 -20
-15 -20 -28 0 -33 -34 -57 -80 -57 -22 0 -40 5 -40 10 0 6 -45 10 -115 10 -70
0 -115 -4 -115 -10 0 -6 -33 -10 -79 -10 -61 0 -80 -3 -85 -15 -3 -8 -17 -15
-30 -15 -15 0 -30 -8 -36 -21 -7 -12 -18 -18 -26 -15 -8 3 -22 -3 -31 -14 -10
-11 -23 -20 -30 -20 -7 0 -13 -7 -13 -15 0 -8 -7 -15 -15 -15 -8 0 -15 -7 -15
-15 0 -10 -10 -15 -30 -15 -20 0 -30 -5 -30 -15 0 -8 -7 -15 -15 -15 -8 0 -15
-5 -15 -10 0 -6 -7 -13 -16 -17 -25 -10 -84 -72 -84 -89 0 -9 -13 -29 -30 -46
-16 -16 -30 -37 -30 -45 0 -17 -45 -63 -61 -63 -5 0 -9 -13 -9 -30 0 -20 -5
-30 -15 -30 -8 0 -15 -7 -15 -16 0 -9 -9 -18 -20 -21 -13 -3 -20 -14 -20 -28
0 -13 -7 -25 -15 -29 -10 -3 -15 -19 -15 -43 -1 -38 -27 -83 -49 -83 -6 0 -11
-11 -11 -25 0 -16 -6 -25 -15 -25 -10 0 -15 -10 -15 -31 0 -22 -5 -32 -20 -36
-16 -4 -20 -14 -20 -48 0 -29 -5 -45 -15 -49 -8 -3 -15 -15 -15 -26 0 -11 -7
-23 -15 -26 -11 -5 -15 -21 -15 -60 0 -43 -4 -56 -20 -66 -17 -11 -20 -24 -20
-80 0 -37 -5 -70 -10 -73 -14 -8 -14 -425 0 -425 6 0 10 -56 10 -149 0 -140 1
-149 20 -154 19 -5 20 -14 20 -126 0 -101 2 -121 15 -121 13 0 15 -27 15 -179
0 -150 2 -180 15 -185 12 -4 15 -31 15 -155 0 -140 1 -149 20 -154 18 -4 20
-14 20 -75 0 -53 4 -71 15 -76 10 -4 15 -20 15 -51 0 -33 4 -45 15 -45 12 0
15 -14 15 -70 0 -54 4 -72 15 -76 11 -5 15 -22 15 -65 0 -46 3 -59 15 -59 12
0 15 -15 15 -71 0 -62 2 -71 20 -76 18 -5 20 -14 20 -79 0 -57 4 -76 15 -80
11 -5 15 -23 15 -75 0 -53 4 -71 15 -75 11 -5 15 -23 15 -76 0 -61 2 -71 20
-75 14 -4 20 -14 20 -34 0 -16 5 -29 10 -29 6 0 10 -11 10 -25 0 -14 8 -29 20
-35 15 -8 20 -21 20 -49 0 -25 5 -41 15 -45 9 -3 15 -19 15 -41 0 -22 6 -38
15 -41 10 -4 15 -20 15 -49 0 -34 4 -44 20 -48 16 -4 20 -14 20 -46 0 -30 4
-41 15 -41 11 0 15 -12 15 -45 0 -35 4 -47 21 -56 14 -7 19 -17 16 -30 -3 -12
0 -22 9 -26 8 -3 14 -13 14 -24 0 -20 41 -69 59 -69 6 0 11 -7 11 -15 0 -8 7
-15 15 -15 8 0 15 -7 15 -15 0 -8 4 -15 9 -15 19 0 61 -48 61 -69 0 -16 6 -21
25 -21 14 0 28 -7 31 -15 4 -8 12 -15 20 -15 9 0 14 -11 14 -30 0 -19 5 -30
14 -30 16 0 31 -34 21 -50 -3 -5 -2 -10 3 -10 16 0 62 -48 62 -65 0 -24 79
-95 106 -95 15 0 24 -6 24 -15 0 -8 7 -15 15 -15 8 0 15 -7 15 -15 0 -10 10
-15 31 -15 30 0 59 -19 59 -39 0 -6 12 -11 26 -11 17 0 41 -16 74 -50 27 -27
57 -50 67 -50 10 0 31 -14 47 -30 19 -19 39 -30 58 -30 18 0 28 -5 28 -15 0
-10 10 -15 29 -15 16 0 31 -6 35 -15 3 -8 16 -15 30 -15 13 0 26 -7 30 -15 4
-10 20 -15 50 -15 30 0 46 -5 50 -15 4 -11 21 -15 61 -15 40 0 57 -4 61 -15 9
-22 415 -22 434 0 7 9 29 15 51 15 28 0 39 4 39 15 0 8 6 15 13 15 7 0 24 13
37 30 14 16 35 29 48 30 12 0 25 7 28 15 10 24 34 17 34 -10 0 -14 8 -29 20
-35 11 -6 20 -21 20 -34 0 -13 7 -26 15 -30 8 -3 15 -16 15 -30 0 -14 5 -28
10 -31 6 -3 10 -15 10 -27 0 -11 8 -22 20 -25 11 -3 20 -12 20 -19 0 -8 5 -14
11 -14 6 0 25 -16 43 -35 19 -19 43 -35 55 -35 11 0 21 -4 21 -9 0 -6 14 -18
30 -28 17 -9 30 -23 30 -30 0 -8 12 -13 30 -13 19 0 33 -7 40 -20 8 -15 21
-20 54 -20 30 0 46 -5 50 -15 4 -11 21 -15 61 -15 40 0 57 -4 61 -15 9 -23
732 -23 740 0 5 11 22 15 65 15 44 0 61 4 65 15 5 11 22 15 64 15 50 0 60 3
65 20 4 13 15 20 30 20 13 0 36 11 51 25 15 14 37 25 48 25 12 0 37 16 56 35
19 19 45 35 58 35 13 0 22 6 22 15 0 8 6 15 14 15 8 0 16 7 20 15 3 9 18 15
36 15 20 0 30 5 30 15 0 8 4 15 10 15 15 0 50 33 50 47 0 7 7 13 15 13 8 0 15
7 15 15 0 8 5 15 10 15 6 0 24 13 40 30 16 16 34 30 40 30 5 0 10 7 10 15 0 8
7 15 15 15 8 0 15 6 15 14 0 7 9 16 20 19 14 3 20 14 20 31 0 14 5 26 10 26 6
0 10 7 10 15 0 8 7 15 15 15 9 0 18 7 21 15 4 10 20 15 50 15 33 0 46 5 54 20
8 15 21 20 49 20 25 0 41 5 45 15 3 9 18 15 36 15 16 0 30 5 30 10 0 6 20 10
45 10 33 0 45 4 45 15 0 10 10 15 30 15 18 0 33 6 36 15 4 8 16 15 28 15 13 0
43 21 73 50 28 28 60 50 72 50 16 0 21 6 21 25 0 14 4 25 10 25 5 0 24 16 43
35 22 23 43 35 61 35 16 0 26 5 26 15 0 8 5 15 10 15 6 0 10 7 10 15 0 8 6 15
13 15 7 0 19 8 28 18 8 9 34 33 57 52 26 22 42 43 42 58 0 13 6 22 15 22 10 0
15 10 15 30 0 18 6 33 15 36 8 4 15 17 15 30 0 15 6 24 15 24 10 0 15 10 15
29 0 16 6 31 15 35 10 3 15 19 15 47 0 32 4 42 20 46 16 4 20 14 20 44 0 26 5
42 15 45 10 4 15 20 15 50 0 32 4 44 15 44 9 0 15 9 15 25 0 14 8 29 20 35 15
8 20 21 20 50 0 22 5 40 10 40 6 0 10 25 10 55 0 40 4 57 15 61 10 4 15 20 15
49 0 35 4 45 20 50 17 6 20 15 20 76 0 53 4 71 15 75 12 5 15 25 15 90 0 73 2
85 20 94 18 9 20 21 20 94 0 65 3 85 15 90 10 3 15 19 15 45 0 22 4 43 10 46
6 3 10 22 10 40 0 24 6 38 20 45 16 9 20 21 20 65 0 42 3 55 15 55 13 0 15 22
15 135 0 124 2 135 20 145 18 10 20 21 20 126 0 93 3 116 15 120 12 5 15 30
15 135 0 106 -3 131 -15 135 -10 4 -15 20 -15 50 0 32 4 44 15 44 12 0 15 13
15 55 0 40 4 57 15 61 11 5 15 24 15 81 0 66 2 75 20 80 16 4 20 14 20 44 0
21 4 41 10 44 6 3 10 50 10 107 0 91 2 100 20 105 19 5 20 14 20 179 0 163 -1
174 -20 184 -17 9 -20 21 -20 85 0 43 -4 75 -10 75 -6 0 -10 30 -10 70 0 59
-3 71 -20 80 -15 8 -20 21 -20 50 0 29 -4 40 -15 40 -12 0 -15 13 -15 59 0 43
-4 60 -15 65 -8 3 -15 15 -15 27 0 12 -8 23 -20 26 -14 4 -20 14 -20 34 0 19
-5 29 -15 29 -8 0 -15 4 -15 10 0 5 -29 39 -65 75 -37 37 -65 73 -65 85 0 11
-7 20 -15 20 -12 0 -15 14 -15 65 0 55 -3 68 -25 90 -14 14 -30 25 -35 25 -6
0 -10 5 -10 11 0 15 -131 139 -147 139 -7 0 -13 7 -13 15 0 8 -7 15 -15 15 -8
0 -15 7 -15 15 0 8 -7 15 -15 15 -8 0 -15 4 -15 8 0 12 -107 122 -119 122 -6
0 -11 5 -11 10 0 6 -5 10 -10 10 -6 0 -25 14 -42 32 -17 18 -40 33 -51 33 -11
1 -24 9 -29 18 -5 10 -20 17 -32 17 -13 0 -26 7 -30 15 -3 9 -18 15 -36 15
-20 0 -30 5 -30 15 0 11 -12 15 -44 15 -25 0 -48 5 -51 10 -3 6 -24 10 -46 10
-28 0 -42 6 -51 20 -12 19 -24 20 -310 20 -287 0 -298 -1 -308 -20 -9 -16 -21
-20 -63 -20 -29 0 -58 -5 -64 -11 -19 -19 -33 0 -33 42 0 21 -4 39 -10 39 -13
0 -80 66 -80 79 0 6 -6 11 -13 11 -8 0 -27 13 -43 30 -18 18 -39 30 -56 30
-18 0 -28 5 -28 15 0 10 -10 15 -29 15 -16 0 -31 6 -35 15 -3 8 -16 15 -30 15
-13 0 -26 7 -30 15 -3 10 -19 15 -44 15 -27 0 -45 7 -58 21 -13 15 -26 19 -47
15 -20 -4 -32 0 -44 14 -17 19 -31 20 -265 20 -218 0 -248 -2 -256 -16 -15
-27 -102 -22 -135 6 -15 13 -27 32 -27 42 0 10 -7 18 -15 18 -8 0 -15 6 -15
14 0 8 -7 16 -15 20 -8 3 -15 17 -15 30 0 15 -8 30 -20 36 -11 6 -20 20 -20
30 0 11 -4 20 -10 20 -5 0 -10 21 -10 46 0 37 -4 47 -20 51 -13 4 -20 14 -20
32 -1 16 -12 35 -30 51 -17 13 -30 31 -30 38 0 16 -45 62 -61 62 -5 0 -9 6 -9
13 -1 6 -14 23 -30 37 -17 13 -30 30 -30 38 0 18 -41 62 -57 62 -7 0 -13 7
-13 15 0 8 -7 15 -15 15 -8 0 -15 7 -15 15 0 9 -9 15 -23 15 -13 0 -34 14 -51
35 -16 19 -35 35 -43 35 -7 0 -13 5 -13 10 0 6 -7 10 -15 10 -8 0 -15 7 -15
15 0 10 -10 15 -30 15 -18 0 -33 6 -36 15 -4 8 -16 15 -28 15 -12 0 -34 15
-50 35 -21 25 -38 35 -58 35 -18 0 -28 5 -28 15 0 10 -11 15 -35 15 -24 0 -35
5 -35 15 0 9 -9 15 -24 15 -14 0 -28 5 -31 10 -3 6 -20 10 -36 10 -17 0 -32 6
-35 15 -4 8 -12 15 -20 15 -8 0 -14 7 -14 15 0 11 -11 15 -38 15 -25 0 -43 7
-55 20 -11 14 -29 20 -56 20 -25 0 -41 5 -45 15 -4 11 -21 15 -59 15 -36 0
-59 5 -67 15 -8 10 -31 15 -71 15 -32 0 -61 5 -64 10 -3 6 -28 10 -56 10 -37
0 -53 5 -66 20 -13 15 -30 20 -71 20 -38 0 -54 4 -58 15 -4 10 -20 15 -50 15
-30 0 -46 5 -50 15 -4 10 -20 15 -44 15 -21 0 -43 7 -50 15 -9 11 -33 15 -91
15 -64 0 -79 3 -79 15 0 9 -9 15 -24 15 -13 0 -26 -7 -30 -15z m1119 -1385 c3
-5 26 -10 51 -10 l44 0 0 -59 c0 -37 5 -65 14 -73 7 -8 16 -41 21 -73 4 -33
10 -64 15 -70 4 -5 10 -32 13 -59 3 -30 11 -52 21 -58 9 -5 16 -17 16 -27 0
-10 7 -24 15 -31 8 -7 15 -25 15 -41 0 -15 7 -34 15 -43 8 -8 15 -32 15 -53 0
-21 7 -48 15 -60 14 -21 14 -24 -5 -43 -11 -11 -25 -20 -30 -20 -12 0 -60 -33
-98 -67 -14 -13 -33 -23 -43 -23 -26 0 -96 -38 -103 -56 -3 -8 -10 -13 -16 -9
-5 3 -40 -9 -77 -27 -45 -21 -68 -28 -71 -20 -2 7 -8 12 -13 12 -13 0 -55 43
-51 53 1 5 -7 11 -18 14 -11 3 -20 12 -20 19 0 8 -6 14 -14 14 -7 0 -24 10
-38 23 -31 28 -85 67 -93 67 -3 0 -16 10 -28 23 -12 12 -33 28 -47 35 -28 13
-62 34 -70 42 -22 24 -127 82 -155 87 -32 5 -35 9 -35 40 0 21 6 36 15 39 8 4
15 15 15 25 0 10 7 19 15 19 9 0 19 8 22 18 4 9 26 37 50 61 24 24 43 46 43
50 0 7 107 121 114 121 3 0 26 20 52 45 25 25 54 45 64 45 10 0 25 7 34 15 10
10 36 15 84 15 50 0 73 4 82 15 7 8 27 15 44 16 17 0 40 4 51 9 28 12 63 12
70 0z m1709 -25 c12 -9 42 -15 72 -15 34 0 56 -5 64 -15 7 -8 24 -15 37 -15
23 0 81 -26 93 -42 3 -3 18 -10 33 -13 15 -4 27 -11 27 -16 0 -4 16 -11 35
-15 20 -3 35 -12 35 -20 0 -8 5 -14 11 -14 6 0 33 -23 60 -51 38 -39 49 -57
49 -82 -1 -32 -19 -67 -37 -67 -5 0 -22 -13 -39 -28 -16 -16 -48 -41 -71 -56
-24 -14 -43 -32 -43 -39 -1 -16 -35 -57 -49 -57 -6 0 -11 -6 -11 -14 0 -7 -15
-21 -34 -30 -28 -13 -72 -16 -246 -16 l-212 0 -46 48 c-26 26 -60 73 -76 105
-16 32 -33 60 -37 63 -5 3 -9 16 -9 28 0 13 -7 29 -15 36 -8 7 -15 19 -15 26
0 8 -8 22 -19 33 -13 13 -17 27 -14 45 4 19 -1 33 -14 46 -11 10 -28 47 -39
84 -11 38 -25 67 -34 70 -8 2 5 4 30 5 25 1 56 8 70 15 37 21 417 21 444 1z
m1396 -344 c25 -7 59 -19 77 -27 17 -8 43 -14 57 -14 14 0 26 -3 26 -8 0 -4
22 -17 49 -29 26 -13 54 -30 61 -38 7 -8 20 -15 29 -15 9 0 36 -18 59 -40 22
-22 45 -40 49 -40 12 0 113 -99 113 -111 0 -5 5 -9 10 -9 6 0 39 -28 73 -63
34 -35 70 -67 80 -70 9 -4 22 -18 27 -32 5 -14 15 -25 21 -25 17 0 38 -32 39
-57 0 -27 -12 -29 -34 -8 -8 8 -20 15 -27 15 -11 0 -68 24 -132 56 -16 8 -39
14 -52 14 -12 0 -25 7 -29 15 -3 10 -19 15 -43 15 -21 0 -47 7 -57 15 -11 9
-41 15 -69 15 -26 0 -57 5 -68 11 -20 10 -184 31 -254 31 -104 1 -316 -19
-327 -30 -7 -7 -24 -12 -39 -12 -15 0 -32 -7 -39 -15 -7 -8 -21 -15 -31 -15
-9 0 -24 -7 -33 -15 -8 -8 -26 -15 -39 -15 -14 0 -30 -6 -36 -14 -7 -8 -24
-17 -39 -21 -25 -5 -61 -31 -120 -86 l-23 -21 -6 21 c-3 12 -11 21 -18 21 -7
0 -15 8 -17 18 -3 10 -23 26 -44 36 -132 61 -171 83 -202 118 -67 74 -79 126
-39 170 12 13 33 41 47 61 14 20 37 41 52 46 15 5 43 27 64 47 42 44 71 61
119 70 19 3 35 10 35 14 0 5 30 12 68 15 37 4 74 11 82 16 24 14 527 5 580
-10z m-4094 -201 c5 -5 50 -13 99 -16 50 -4 102 -13 117 -20 15 -8 36 -14 48
-14 11 0 20 -4 20 -9 0 -5 14 -14 30 -20 17 -5 30 -14 30 -18 0 -4 19 -17 42
-28 23 -11 54 -31 70 -45 15 -14 44 -34 65 -45 21 -11 42 -25 46 -32 4 -7 12
-13 17 -13 13 0 50 -37 50 -50 0 -5 6 -10 14 -10 8 0 16 -7 20 -15 3 -8 12
-15 21 -15 8 0 15 -5 15 -11 0 -7 7 -17 16 -24 15 -11 15 -16 3 -56 -12 -37
-18 -44 -37 -41 -13 1 -30 9 -38 17 -11 11 -37 15 -88 15 -39 0 -77 5 -83 11
-7 7 -31 9 -65 5 -29 -3 -107 -9 -173 -14 -89 -5 -126 -12 -145 -25 -15 -10
-43 -17 -72 -17 -26 0 -50 -4 -53 -10 -3 -5 -18 -10 -32 -10 -14 0 -51 -16
-83 -35 -32 -19 -65 -35 -74 -35 -9 0 -16 -5 -16 -10 0 -6 -10 -15 -22 -20
-34 -15 -62 -33 -71 -47 -4 -7 -15 -13 -22 -13 -8 0 -15 -7 -15 -15 0 -8 -5
-15 -10 -15 -19 0 -149 -138 -156 -164 -3 -14 -10 -26 -15 -26 -4 0 -11 -16
-15 -35 -3 -19 -12 -39 -20 -46 -8 -6 -14 -20 -14 -30 0 -10 -4 -20 -9 -23
-12 -8 -51 -88 -51 -106 0 -7 -8 -22 -17 -33 -10 -11 -21 -45 -25 -80 -4 -34
-11 -87 -17 -117 -10 -60 -14 -511 -5 -547 8 -30 58 -32 74 -4 6 12 10 118 10
274 0 204 3 262 15 290 8 20 15 58 15 84 0 26 7 57 15 67 8 11 15 35 15 53 0
18 5 33 10 33 6 0 16 12 23 28 6 15 17 33 24 40 7 7 13 19 13 26 0 8 7 19 15
26 8 7 15 21 15 30 0 38 83 150 110 150 6 0 10 7 10 15 0 8 4 15 10 15 5 0 24
15 42 33 59 58 168 127 202 127 8 0 16 5 18 11 2 5 22 13 46 16 23 3 42 9 42
13 0 4 28 11 62 14 35 4 65 11 68 16 16 25 484 25 500 0 3 -5 23 -11 45 -15
22 -4 64 -18 93 -31 29 -13 59 -24 68 -24 8 0 17 -7 20 -15 4 -8 15 -15 25
-15 11 0 27 -9 36 -20 10 -11 23 -20 30 -20 7 0 13 -4 13 -10 0 -5 6 -10 14
-10 7 0 25 -9 39 -20 14 -11 33 -20 41 -20 9 0 22 -5 29 -10 48 -41 62 -50 74
-50 28 0 11 -34 -47 -92 -33 -33 -60 -62 -60 -65 0 -3 -16 -25 -35 -49 -19
-23 -35 -47 -35 -52 0 -5 -7 -15 -15 -22 -8 -7 -15 -23 -15 -35 0 -12 -7 -28
-15 -35 -8 -7 -15 -28 -15 -47 0 -20 -6 -36 -15 -39 -8 -3 -17 -26 -21 -52 -4
-26 -13 -59 -20 -74 -8 -15 -14 -38 -14 -51 0 -13 -7 -32 -15 -43 -8 -10 -15
-35 -15 -54 0 -19 -7 -44 -15 -54 -8 -11 -15 -40 -15 -66 0 -27 -7 -55 -17
-70 -15 -21 -18 -52 -20 -204 -2 -110 -7 -184 -14 -192 -15 -18 -22 -251 -29
-1009 -2 -167 22 -702 32 -720 6 -11 10 -47 9 -80 -1 -46 3 -67 19 -90 12 -18
20 -47 20 -71 0 -28 5 -44 15 -48 10 -3 15 -19 15 -44 0 -22 6 -45 14 -51 7
-6 16 -29 20 -51 3 -22 10 -40 15 -40 5 0 12 -12 15 -26 4 -15 14 -33 21 -41
8 -8 15 -27 15 -43 0 -16 7 -30 15 -34 8 -3 15 -17 15 -31 0 -14 7 -28 15 -31
8 -4 15 -18 15 -33 0 -15 11 -36 27 -51 14 -14 32 -39 39 -57 8 -17 18 -34 24
-38 5 -3 10 -21 10 -40 0 -18 6 -40 14 -48 8 -8 17 -35 21 -60 4 -26 11 -47
16 -47 5 0 9 -17 9 -38 0 -25 7 -43 20 -55 12 -10 20 -29 20 -47 0 -18 6 -33
15 -36 8 -4 15 -16 15 -29 0 -12 7 -28 15 -35 8 -7 15 -28 15 -47 0 -21 6 -36
15 -39 8 -4 15 -14 15 -23 0 -9 7 -29 15 -45 8 -15 15 -33 15 -40 0 -6 6 -23
14 -37 10 -20 11 -29 1 -42 -7 -10 -15 -17 -18 -17 -3 0 -26 -13 -50 -30 -25
-16 -49 -30 -55 -30 -5 0 -12 -6 -15 -13 -3 -9 -30 -17 -68 -21 -35 -3 -68
-11 -73 -16 -6 -6 -69 -10 -147 -10 -109 0 -139 3 -149 15 -8 10 -31 15 -69
15 -35 0 -65 6 -77 15 -10 8 -29 15 -41 15 -12 0 -25 5 -28 10 -3 6 -13 10
-22 10 -21 0 -106 42 -116 57 -4 6 -21 14 -37 18 -17 4 -30 11 -30 16 0 5 -9
9 -19 9 -11 0 -41 20 -68 45 -26 25 -56 48 -65 51 -10 3 -18 10 -18 15 0 5 -9
9 -19 9 -11 0 -23 5 -27 11 -3 6 -21 17 -38 24 -17 8 -46 25 -65 39 -19 14
-39 26 -43 26 -13 0 -118 113 -118 127 0 7 -5 13 -11 13 -5 0 -15 14 -20 30
-6 17 -15 30 -20 30 -5 0 -9 6 -9 14 0 7 -24 35 -52 63 -87 82 -178 180 -178
191 0 5 -7 12 -15 16 -8 3 -15 14 -15 24 0 11 -6 25 -14 31 -8 7 -17 23 -20
36 -4 14 -10 25 -15 25 -5 0 -12 13 -16 29 -3 16 -13 35 -21 42 -8 6 -14 22
-14 34 0 13 -7 36 -15 51 -8 16 -15 41 -15 55 0 14 -7 34 -15 45 -8 10 -15 31
-15 45 0 15 -9 38 -20 52 -11 14 -20 36 -20 49 0 27 -34 103 -50 113 -5 3 -10
14 -10 24 0 10 -7 24 -15 31 -9 7 -15 29 -15 51 0 21 -6 58 -14 81 -8 24 -16
77 -20 119 -3 42 -12 89 -21 105 -8 16 -15 39 -15 50 0 12 -7 38 -15 57 -8 20
-15 56 -15 80 0 24 -7 52 -15 63 -8 11 -15 41 -15 70 0 31 -5 56 -14 63 -7 6
-16 39 -20 73 -3 33 -10 66 -15 72 -4 6 -12 29 -16 51 -4 22 -12 43 -17 46 -6
4 -13 40 -15 80 -3 41 -10 83 -16 94 -6 11 -14 83 -17 160 -4 77 -12 150 -18
162 -8 14 -12 75 -12 167 0 124 -2 147 -17 162 -14 13 -19 42 -24 118 -28 423
-33 482 -43 488 -7 4 -12 52 -14 118 -3 89 -1 116 12 135 10 15 16 46 16 78 0
29 7 79 15 110 8 32 15 71 15 87 0 19 7 33 20 40 14 7 20 21 20 44 0 21 6 36
15 40 9 3 15 19 15 41 0 19 4 35 9 35 5 0 22 26 37 58 16 31 34 63 41 70 6 6
15 21 18 32 3 11 11 20 16 20 5 0 9 13 9 29 0 16 7 34 15 41 8 7 15 21 15 31
0 11 6 19 14 19 8 0 16 10 20 23 3 12 24 43 48 69 24 25 54 67 68 93 29 55 80
115 98 115 6 0 12 5 12 10 0 11 36 50 48 50 4 0 20 14 36 30 16 16 37 32 47
35 11 4 19 10 19 15 0 4 16 11 35 14 19 4 35 11 35 16 0 6 14 10 30 10 17 0
33 6 36 14 3 9 32 16 88 20 45 4 96 11 112 16 40 12 108 12 120 0z m4281 -296
c24 -3 45 -9 48 -15 4 -5 32 -9 63 -9 34 -1 65 -7 76 -15 11 -8 33 -15 49 -15
16 0 41 -6 55 -13 34 -18 108 -51 147 -67 17 -7 42 -19 57 -26 14 -8 33 -14
42 -14 8 0 20 -9 26 -20 6 -12 21 -20 35 -20 14 0 25 -4 25 -8 0 -4 21 -30 47
-57 56 -59 113 -132 113 -144 0 -5 7 -14 15 -21 8 -7 15 -21 15 -31 0 -11 8
-27 19 -38 13 -13 17 -27 14 -45 -4 -19 1 -33 14 -46 15 -13 22 -37 27 -87 10
-99 28 -174 43 -180 9 -4 13 -26 13 -73 0 -48 4 -71 15 -80 22 -18 22 -267 0
-296 -10 -13 -14 -45 -15 -99 0 -51 -5 -88 -14 -100 -7 -11 -16 -42 -20 -69
-3 -27 -10 -54 -15 -60 -5 -6 -11 -35 -13 -64 -3 -29 -12 -60 -22 -70 -10 -12
-16 -36 -16 -64 0 -28 -5 -48 -12 -50 -19 -7 -18 -156 1 -167 19 -12 18 -180
-1 -192 -9 -6 -14 -44 -16 -126 -3 -89 -8 -122 -20 -135 -11 -14 -16 -49 -20
-143 -3 -69 -8 -125 -12 -125 -4 0 -10 -27 -14 -60 -4 -33 -11 -60 -16 -60 -5
0 -12 -20 -15 -44 -4 -25 -13 -47 -21 -50 -8 -3 -14 -18 -14 -33 -1 -15 -7
-39 -15 -53 -8 -14 -14 -51 -15 -82 0 -31 -5 -69 -11 -85 -6 -15 -15 -63 -19
-106 -4 -49 -13 -84 -24 -95 -11 -13 -16 -37 -16 -85 0 -37 -4 -67 -9 -67 -5
0 -11 -19 -15 -42 -4 -23 -13 -46 -21 -52 -8 -6 -19 -36 -24 -66 -14 -82 -31
-144 -42 -155 -5 -5 -9 -19 -9 -32 0 -13 -9 -31 -20 -40 -13 -12 -20 -30 -20
-54 0 -20 -7 -42 -15 -49 -8 -7 -15 -23 -15 -36 0 -12 -4 -25 -9 -28 -5 -4
-12 -24 -16 -47 -4 -22 -13 -43 -21 -46 -7 -3 -16 -20 -20 -39 -3 -19 -10 -34
-14 -34 -5 0 -14 -16 -20 -35 -6 -19 -16 -35 -21 -35 -5 0 -9 -9 -9 -19 0 -11
-7 -26 -15 -35 -8 -8 -15 -19 -15 -25 0 -6 -4 -11 -10 -11 -5 0 -37 -27 -70
-60 -33 -33 -65 -60 -70 -60 -5 0 -13 -6 -17 -13 -4 -7 -20 -20 -34 -29 -15
-9 -51 -42 -80 -73 -30 -31 -63 -61 -74 -66 -11 -5 -39 -20 -62 -33 -22 -13
-53 -26 -67 -30 -14 -3 -26 -11 -26 -16 0 -6 -10 -10 -22 -10 -13 0 -35 -6
-50 -14 -15 -8 -40 -17 -57 -21 -17 -4 -31 -10 -31 -15 0 -8 -42 -22 -48 -15
-2 2 8 16 22 32 15 15 31 45 37 66 5 20 13 37 17 37 4 0 13 12 20 28 7 15 30
61 52 102 22 41 40 81 40 88 0 6 9 29 20 49 11 21 20 43 20 50 0 7 4 13 9 13
5 0 12 15 15 34 4 19 13 39 21 46 8 7 15 18 15 25 0 7 7 15 15 19 8 3 15 12
15 20 0 7 7 16 15 20 8 3 15 13 15 23 0 10 7 31 15 46 8 15 17 45 20 65 4 20
13 54 21 75 8 20 14 47 14 59 0 11 7 26 15 32 8 6 16 21 18 34 2 12 9 28 15
34 7 7 12 19 12 28 0 8 7 28 15 44 8 15 15 51 15 80 0 34 7 61 20 81 14 21 20
47 20 88 0 32 5 67 11 78 5 11 13 52 16 92 4 41 12 76 19 82 8 6 15 37 18 73
2 34 9 68 15 75 5 7 13 79 17 160 4 81 11 150 16 153 13 8 10 854 -3 854 -10
0 -9 50 7 284 3 57 2 92 -5 99 -6 6 -11 27 -11 46 0 19 -8 53 -19 75 -29 64
-40 114 -46 211 -4 50 -9 98 -11 108 -3 9 -1 17 5 17 6 0 11 -11 11 -25 0 -13
6 -28 13 -32 17 -11 53 -64 61 -91 4 -12 12 -22 17 -22 5 0 9 -6 9 -12 0 -15
108 -118 123 -118 6 0 1 10 -10 23 -44 46 -93 172 -93 237 0 14 -8 42 -19 63
-16 32 -34 116 -36 168 0 9 -6 23 -12 30 -6 8 -22 37 -37 66 -31 63 -46 74
-46 36 -1 -15 -7 -39 -15 -53 -8 -14 -14 -42 -15 -63 0 -23 -4 -36 -10 -32 -5
3 -10 14 -10 24 0 10 -7 24 -15 31 -8 7 -15 23 -15 35 0 13 -5 25 -11 27 -5 2
-13 28 -16 58 -3 30 -9 56 -13 58 -5 2 -21 29 -36 60 -16 31 -32 59 -35 62 -3
3 -9 14 -13 25 -3 11 -19 35 -36 53 -16 18 -30 39 -30 46 0 7 -22 34 -50 59
-27 25 -50 49 -50 52 0 11 -120 120 -190 172 -38 28 -115 63 -138 63 -11 0
-23 4 -26 9 -3 4 -27 11 -53 14 -26 3 -49 10 -51 16 -2 6 -12 11 -23 11 -10 0
-19 5 -19 10 0 6 7 10 16 10 8 0 30 11 48 25 18 14 47 28 64 31 17 4 37 13 43
20 6 8 22 14 36 14 13 0 26 7 29 15 4 9 19 15 38 15 17 0 41 7 52 15 31 21
325 27 471 9z m-789 -254 c9 -5 37 -13 62 -18 62 -13 171 -54 191 -72 10 -8
39 -31 65 -50 62 -45 114 -99 127 -133 3 -9 11 -17 17 -17 5 0 10 -7 10 -15 0
-8 6 -15 13 -15 16 0 41 -29 62 -73 9 -19 25 -43 36 -53 10 -9 19 -24 19 -33
0 -9 11 -33 25 -53 14 -21 30 -61 35 -90 6 -29 15 -57 20 -62 6 -6 10 -20 10
-32 0 -13 4 -26 10 -29 22 -13 60 -109 60 -150 0 -24 6 -48 14 -54 10 -9 15
-46 18 -141 2 -86 7 -133 16 -142 6 -6 12 -21 12 -33 0 -11 6 -30 14 -41 27
-38 41 -184 27 -279 -15 -101 -7 -241 15 -249 21 -8 21 -728 0 -768 -9 -16
-17 -81 -21 -173 -5 -92 -13 -158 -21 -174 -8 -14 -14 -48 -14 -76 0 -28 -7
-59 -15 -69 -9 -12 -15 -43 -15 -80 -1 -34 -7 -72 -15 -86 -8 -14 -14 -52 -15
-87 0 -41 -5 -67 -15 -77 -9 -9 -18 -44 -22 -90 -3 -42 -9 -76 -13 -76 -4 0
-11 -16 -14 -35 -4 -19 -11 -35 -15 -35 -5 0 -14 -20 -20 -45 -6 -25 -16 -45
-21 -45 -6 0 -10 -18 -10 -40 0 -27 -5 -43 -15 -46 -11 -5 -15 -21 -15 -60 0
-43 -4 -55 -20 -64 -11 -6 -20 -20 -20 -31 0 -19 -26 -68 -43 -80 -10 -7 -30
-41 -48 -79 -6 -14 -15 -33 -20 -42 -5 -10 -9 -26 -9 -37 0 -10 -7 -24 -15
-31 -8 -7 -15 -25 -15 -41 0 -15 -8 -36 -19 -46 -10 -10 -21 -30 -25 -45 -3
-16 -11 -28 -16 -28 -6 0 -10 -8 -10 -19 0 -10 -7 -24 -15 -31 -8 -7 -15 -18
-15 -26 0 -7 -6 -19 -14 -26 -7 -8 -17 -24 -20 -36 -13 -41 -72 -119 -149
-196 -42 -42 -77 -80 -77 -84 0 -12 -77 -92 -89 -92 -6 0 -18 -12 -28 -28 -10
-15 -27 -34 -37 -41 -11 -8 -39 -34 -62 -58 -23 -23 -55 -45 -70 -49 -16 -4
-40 -18 -55 -33 -26 -26 -49 -41 -129 -83 -25 -13 -51 -29 -58 -35 -7 -7 -22
-13 -32 -13 -10 0 -21 -4 -24 -9 -3 -4 -25 -11 -48 -15 -23 -4 -47 -11 -53
-16 -5 -4 -64 -12 -130 -16 -74 -4 -128 -12 -141 -21 -31 -20 -513 -15 -537 6
-9 7 -43 17 -74 21 -121 17 -202 48 -256 96 -7 6 -23 15 -35 18 -12 4 -22 12
-22 17 0 5 -5 9 -11 9 -17 0 -95 83 -118 126 -12 21 -32 57 -46 79 -13 22 -24
50 -25 61 0 12 -7 27 -15 34 -8 7 -15 21 -15 31 0 9 -7 25 -16 34 -15 14 -24
39 -41 115 -3 14 -14 36 -24 49 -11 13 -19 34 -19 47 0 13 -9 38 -20 56 -11
18 -20 41 -20 51 0 9 -4 17 -10 17 -5 0 -10 13 -10 30 0 16 -7 33 -15 37 -8 5
-19 31 -24 58 -5 27 -14 51 -20 53 -6 2 -11 19 -11 37 0 19 -7 40 -15 49 -8 8
-15 27 -15 41 0 15 -6 39 -14 53 -8 15 -17 38 -20 52 -3 14 -19 33 -36 43 -18
11 -30 26 -30 40 0 12 -7 31 -15 41 -8 11 -15 27 -15 37 0 9 -7 22 -15 29 -8
7 -15 21 -15 32 0 11 -9 31 -20 45 -11 14 -20 36 -20 49 0 12 -4 25 -9 29 -5
3 -12 19 -16 36 -4 17 -13 33 -21 36 -8 3 -14 17 -14 32 0 14 -6 38 -14 53 -8
14 -17 49 -21 77 -4 28 -11 51 -16 51 -5 0 -9 36 -9 79 0 62 -4 83 -18 97 -16
16 -17 70 -17 841 0 721 2 825 15 833 12 8 16 44 18 200 2 104 7 190 12 190 4
0 11 34 15 75 4 41 11 77 15 80 5 3 11 24 15 48 4 23 13 51 20 62 7 11 16 36
20 55 4 19 11 40 15 45 4 6 10 32 13 58 2 26 12 56 21 66 9 10 16 27 16 39 0
11 4 24 10 27 5 3 14 24 20 45 6 22 15 40 20 40 6 0 10 7 10 15 0 9 7 18 15
21 8 4 15 12 15 20 0 8 21 35 48 62 26 26 62 67 80 90 19 23 40 42 48 42 8 0
14 5 14 10 0 6 20 10 44 10 26 0 48 6 56 15 7 8 29 15 50 15 24 0 40 5 44 15
4 12 25 15 96 15 67 0 92 4 96 14 4 10 38 15 127 20 67 4 126 12 132 17 12 12
72 12 80 0 3 -6 27 -13 53 -17 26 -4 56 -13 67 -20 11 -8 29 -14 41 -14 12 0
27 -7 34 -15 7 -8 23 -15 37 -15 13 0 31 -7 39 -15 9 -8 31 -15 50 -15 22 0
37 -6 40 -15 4 -8 14 -15 24 -15 10 0 25 -7 34 -15 10 -10 35 -15 79 -15 48 0
66 4 71 15 3 8 12 15 21 15 8 0 15 7 15 15 0 8 7 15 15 15 8 0 15 7 15 15 0 9
9 15 25 15 14 0 28 7 31 15 4 8 11 15 18 15 6 0 41 27 76 60 36 34 75 63 88
66 12 4 22 12 22 20 0 10 13 14 46 14 25 0 55 5 67 12 12 7 65 15 117 20 125
9 167 17 181 34 13 16 139 20 167 4z"/>
</g>
</svg>
