<?xml version="1.0" standalone="no"?>
<!DOCTYPE svg PUBLIC "-//W3C//DTD SVG 20010904//EN"
 "http://www.w3.org/TR/2001/REC-SVG-20010904/DTD/svg10.dtd">
<svg version="1.0" xmlns="http://www.w3.org/2000/svg"
 width="983.000000pt" height="837.000000pt" viewBox="0 0 983.000000 837.000000"
 preserveAspectRatio="xMidYMid meet">
<metadata>
Created by potrace 1.16, written by Peter Selinger 2001-2019
</metadata>
<g transform="translate(0.000000,837.000000) scale(0.100000,-0.100000)"
fill="#000000" stroke="none">
<path d="M1866 7305 c-3 -9 -18 -15 -35 -15 -20 0 -30 -6 -34 -20 -4 -14 -14
-20 -35 -20 -17 0 -32 -6 -36 -15 -3 -9 -18 -15 -36 -15 -18 0 -33 -6 -36 -15
-4 -9 -19 -15 -35 -15 -22 0 -29 -5 -29 -20 0 -11 -7 -20 -15 -20 -8 0 -19 -9
-25 -20 -6 -12 -21 -20 -35 -20 -26 0 -57 -24 -68 -53 -3 -9 -13 -17 -22 -17
-8 0 -15 -7 -15 -15 0 -10 -11 -15 -35 -15 -25 0 -35 -4 -35 -15 0 -9 -7 -18
-16 -22 -20 -8 -84 -70 -84 -83 0 -5 -18 -21 -40 -37 -22 -15 -40 -36 -40 -45
0 -10 -7 -18 -15 -18 -9 0 -15 -10 -15 -26 0 -17 -6 -28 -20 -31 -11 -3 -20
-10 -20 -17 0 -14 -44 -56 -59 -56 -6 0 -11 -7 -11 -15 0 -9 -7 -18 -15 -21
-9 -4 -15 -19 -15 -35 0 -17 -6 -32 -15 -35 -9 -4 -15 -19 -15 -35 0 -22 -6
-32 -25 -39 -19 -7 -25 -17 -25 -39 0 -16 -6 -31 -15 -35 -9 -3 -15 -18 -15
-37 0 -22 -5 -32 -20 -36 -16 -4 -20 -14 -20 -49 0 -30 -5 -46 -15 -50 -9 -4
-15 -19 -15 -35 0 -17 -6 -32 -15 -35 -11 -4 -15 -21 -15 -56 0 -41 -3 -51
-20 -55 -16 -4 -20 -14 -20 -49 0 -30 -5 -46 -15 -50 -10 -4 -15 -20 -15 -50
0 -38 -4 -46 -25 -54 -23 -9 -25 -14 -25 -80 0 -56 -3 -70 -15 -70 -12 0 -15
-14 -15 -64 0 -48 -4 -65 -15 -70 -11 -4 -15 -20 -15 -57 0 -42 -3 -52 -20
-56 -18 -5 -20 -14 -20 -84 0 -62 -3 -81 -15 -85 -12 -5 -15 -31 -15 -146 0
-131 -1 -140 -20 -145 -20 -5 -20 -14 -20 -348 0 -334 0 -343 20 -348 18 -5
20 -14 20 -110 0 -84 3 -106 15 -111 12 -4 15 -25 15 -100 0 -85 2 -94 20 -99
17 -4 20 -14 20 -56 0 -39 4 -51 15 -51 11 0 15 -12 15 -50 0 -38 4 -50 15
-50 8 0 15 -8 15 -18 0 -9 10 -22 23 -27 14 -7 23 -20 25 -40 2 -16 10 -34 18
-38 8 -4 14 -18 14 -31 0 -15 7 -26 20 -29 15 -4 20 -14 20 -36 0 -21 5 -31
15 -31 8 0 15 -7 15 -15 0 -15 34 -55 47 -55 3 0 22 -18 42 -39 20 -22 47 -41
61 -43 19 -2 26 -10 28 -31 3 -27 33 -67 50 -67 5 0 22 -16 38 -35 16 -19 38
-35 49 -35 11 0 36 -18 55 -40 21 -24 44 -40 58 -40 12 0 25 -7 28 -15 4 -11
21 -15 55 -15 37 0 49 -4 49 -15 0 -11 11 -15 36 -15 27 0 37 -5 41 -20 4 -16
14 -20 49 -20 30 0 46 -5 50 -15 4 -10 20 -15 50 -15 30 0 46 -5 50 -15 5 -11
21 -15 61 -15 46 0 56 -3 60 -20 3 -13 14 -20 29 -20 13 0 28 -9 34 -20 9 -17
21 -20 76 -20 57 0 67 -3 71 -20 5 -17 14 -20 69 -20 50 0 64 -3 64 -15 0 -11
11 -15 35 -15 22 0 38 -6 41 -15 5 -13 75 -15 545 -15 470 0 540 2 545 15 5
13 62 15 429 15 367 0 424 2 429 15 4 12 26 15 105 15 79 0 100 -3 105 -15 4
-12 30 -15 141 -15 111 0 137 -3 141 -15 5 -12 30 -15 140 -15 123 0 134 -2
144 -20 10 -18 21 -20 111 -20 79 0 101 -3 105 -15 5 -12 24 -15 86 -15 71 0
80 -2 85 -20 5 -19 14 -20 154 -20 138 0 150 -1 161 -20 11 -17 24 -20 79 -20
50 0 68 -4 73 -15 4 -11 21 -15 67 -15 52 0 62 -3 66 -20 4 -17 14 -20 54 -20
35 0 51 -4 55 -15 5 -11 23 -15 71 -15 56 0 66 -3 70 -20 4 -14 14 -20 34 -20
17 0 32 -6 35 -15 4 -10 20 -15 50 -15 30 0 46 -5 50 -15 4 -9 19 -15 40 -15
28 0 36 -5 44 -25 9 -24 13 -25 101 -25 82 0 91 2 96 20 3 13 14 20 29 20 21
0 24 -5 24 -34 0 -21 6 -36 15 -40 8 -3 15 -12 15 -21 0 -11 10 -15 35 -15 24
0 35 -5 35 -15 0 -11 11 -15 35 -15 22 0 38 -6 41 -15 8 -21 90 -21 98 0 3 9
18 15 36 15 20 0 30 5 30 15 0 10 10 15 34 15 25 0 35 5 39 20 7 26 37 26 44
0 3 -13 14 -20 28 -20 12 0 28 -7 35 -15 11 -13 43 -15 198 -14 161 2 187 0
197 -15 8 -10 27 -16 55 -16 33 0 43 -4 47 -20 5 -18 14 -20 103 -20 89 0 98
2 103 20 4 18 14 20 75 20 53 0 71 4 76 15 3 8 16 15 29 15 14 0 30 7 37 15 7
8 23 15 36 15 15 0 24 6 24 15 0 9 11 20 24 24 13 5 26 17 30 26 3 10 13 14
23 11 13 -4 33 11 68 49 27 30 55 55 62 55 7 0 13 6 13 13 0 6 25 34 55 62 36
33 55 57 55 73 0 12 7 25 15 28 8 4 15 13 15 21 0 8 9 17 20 20 13 4 20 14 20
30 0 27 36 73 58 73 7 0 12 13 12 30 0 18 7 33 19 39 13 7 17 18 14 35 -4 17
1 28 16 38 12 7 21 23 21 36 0 15 7 26 20 29 14 4 20 14 20 34 0 17 6 32 15
35 9 4 15 19 15 39 0 20 6 35 15 39 10 4 15 20 15 52 0 37 4 47 20 51 16 4 20
14 20 49 0 30 5 46 15 50 11 5 15 23 15 75 0 65 2 70 25 79 24 9 26 15 24 60
-2 35 2 55 15 69 15 17 17 41 18 186 0 133 3 167 14 172 11 4 14 48 14 239 0
197 2 234 14 234 8 0 14 8 14 18 -1 9 1 29 5 44 6 21 3 30 -13 38 -15 8 -20
21 -20 55 0 33 -4 45 -15 45 -11 0 -15 12 -15 49 0 34 -4 51 -15 55 -8 3 -15
16 -15 30 0 14 -10 30 -25 40 -15 10 -25 26 -25 40 0 13 -7 26 -15 30 -10 4
-15 20 -15 50 0 35 -5 48 -20 56 -11 6 -20 21 -20 34 0 13 -7 26 -15 30 -9 3
-15 18 -15 36 0 18 -6 33 -15 36 -8 4 -15 13 -15 20 0 8 -7 17 -16 21 -29 11
-64 50 -64 72 0 22 -26 53 -53 64 -9 3 -17 13 -17 21 0 7 -7 16 -15 20 -8 3
-15 12 -15 21 0 10 -10 15 -34 15 -21 0 -36 6 -40 15 -3 9 -18 15 -37 15 -22
0 -32 5 -36 20 -4 15 -14 20 -39 20 -24 0 -34 5 -34 15 0 11 -12 15 -45 15
-28 0 -47 5 -52 15 -7 12 -42 15 -183 17 l-175 3 -3 33 c-2 17 -8 32 -13 32
-5 0 -14 11 -19 25 -5 14 -14 25 -20 25 -5 0 -10 7 -10 15 0 8 -9 15 -20 15
-11 0 -20 7 -20 15 0 8 -6 15 -14 15 -7 0 -16 9 -19 20 -4 15 -14 20 -36 20
-19 0 -34 6 -37 15 -4 10 -20 15 -50 15 -33 0 -46 5 -54 20 -9 17 -21 20 -91
20 -62 0 -81 3 -85 15 -5 12 -24 15 -85 15 -62 0 -81 3 -85 15 -5 12 -27 15
-110 15 -102 0 -105 1 -114 25 -9 24 -12 25 -110 25 -82 0 -100 3 -100 15 0
12 -18 15 -99 15 -87 0 -100 2 -112 20 -11 16 -27 20 -81 21 -49 2 -68 6 -68
16 0 10 -20 13 -80 13 -62 0 -82 3 -86 15 -4 10 -20 15 -44 15 -48 0 -70 8
-70 26 0 10 -15 14 -60 14 -40 0 -62 4 -67 14 -4 8 -21 16 -38 18 -20 2 -33
11 -40 26 -7 15 -18 22 -38 22 -15 0 -30 7 -33 15 -4 9 -19 15 -35 15 -17 0
-32 6 -35 15 -4 9 -19 15 -41 15 -26 0 -36 5 -40 20 -4 13 -14 20 -29 20 -14
0 -27 7 -30 15 -4 9 -19 15 -36 15 -21 0 -31 6 -35 20 -4 14 -14 20 -34 20
-17 0 -32 6 -35 15 -4 8 -18 15 -34 15 -15 0 -33 6 -40 14 -6 8 -26 16 -43 18
-24 2 -33 8 -35 26 -3 19 -9 22 -52 22 -33 0 -50 5 -54 15 -3 8 -17 15 -31 15
-14 0 -28 7 -31 15 -4 9 -19 15 -36 15 -21 0 -31 6 -35 20 -4 14 -14 20 -34
20 -17 0 -32 6 -35 15 -4 9 -19 15 -39 15 -25 0 -35 5 -40 20 -4 14 -15 20
-36 20 -17 0 -32 6 -35 15 -4 8 -17 15 -30 15 -13 0 -28 9 -34 20 -7 13 -21
20 -40 20 -20 0 -30 5 -30 15 0 9 -11 20 -25 25 -14 5 -25 14 -25 20 0 5 -11
10 -25 10 -14 0 -29 8 -35 20 -6 12 -21 20 -36 20 -13 0 -27 7 -30 15 -4 9
-19 15 -35 15 -17 0 -32 6 -35 15 -4 11 -21 15 -56 15 -41 0 -51 3 -55 20 -4
14 -14 20 -34 20 -15 0 -32 6 -36 14 -5 8 -27 16 -53 18 -35 2 -47 8 -55 26
-8 18 -18 22 -53 22 -29 0 -45 5 -48 15 -4 9 -19 15 -40 15 -24 0 -34 5 -34
15 0 12 -15 15 -71 15 -62 0 -71 2 -76 20 -4 16 -14 20 -49 20 -30 0 -46 5
-50 15 -5 12 -25 15 -91 15 -76 0 -85 2 -90 20 -5 17 -14 20 -63 20 -39 0 -62
5 -70 15 -8 9 -29 15 -56 15 -33 0 -46 5 -54 20 -8 16 -21 20 -59 20 -40 0
-50 3 -54 20 -5 18 -14 20 -91 20 -70 0 -86 3 -86 15 0 12 -16 15 -85 15 -67
0 -87 3 -91 15 -5 12 -26 15 -106 15 -91 0 -100 2 -105 20 -5 18 -14 20 -104
20 -79 0 -101 3 -105 15 -5 13 -50 15 -319 15 -269 0 -314 -2 -319 -15z m139
-65 c3 -5 -1 -10 -10 -10 -9 0 -28 -9 -42 -20 -14 -11 -34 -20 -44 -20 -11 0
-19 -7 -19 -15 0 -10 -10 -15 -30 -15 -20 0 -30 -5 -30 -15 0 -8 -9 -15 -20
-15 -11 0 -20 -7 -20 -15 0 -9 -12 -21 -27 -28 -16 -6 -32 -17 -36 -24 -4 -7
-17 -13 -29 -13 -14 0 -18 -5 -14 -15 3 -10 -1 -15 -13 -15 -10 0 -26 -9 -36
-20 -10 -11 -26 -20 -37 -20 -10 0 -18 -7 -18 -15 0 -8 -7 -15 -15 -15 -7 0
-18 -6 -22 -13 -4 -8 -28 -28 -53 -46 -25 -18 -49 -39 -53 -47 -4 -8 -12 -14
-17 -14 -9 0 -90 -75 -90 -84 0 -9 -39 -46 -47 -46 -5 0 -19 -17 -33 -38 -22
-33 -53 -76 -80 -109 -5 -6 -12 -23 -15 -36 -4 -14 -13 -28 -20 -30 -7 -3 -16
-18 -19 -33 -4 -15 -13 -33 -20 -38 -7 -6 -23 -35 -35 -65 -12 -29 -36 -74
-52 -101 -16 -26 -29 -54 -29 -62 0 -9 -7 -21 -15 -28 -18 -15 -65 -106 -65
-125 0 -8 -6 -20 -13 -27 -8 -7 -17 -30 -21 -51 -4 -20 -11 -37 -16 -37 -5 0
-12 -21 -16 -47 -4 -27 -11 -51 -16 -54 -6 -4 -13 -28 -15 -55 -3 -27 -11 -56
-19 -64 -7 -9 -16 -45 -20 -82 -4 -42 -12 -69 -20 -72 -10 -4 -14 -26 -14 -80
0 -57 -4 -75 -15 -80 -8 -3 -14 -9 -14 -13 1 -4 0 -15 -4 -23 -3 -8 -8 -33
-11 -54 -3 -22 -10 -42 -16 -46 -6 -4 -13 -31 -16 -61 -4 -30 -12 -63 -19 -75
-10 -15 -14 -79 -17 -224 -2 -151 -6 -204 -15 -208 -10 -3 -13 -42 -14 -145 0
-104 -3 -134 -10 -112 -11 35 -1 515 11 530 5 6 12 64 16 130 4 66 12 123 18
127 5 4 12 40 14 80 3 40 10 82 18 93 7 11 16 48 20 83 4 42 11 62 20 62 10 0
14 16 14 59 0 40 5 63 15 71 10 9 15 32 15 75 0 44 5 66 15 75 8 7 18 30 21
51 4 21 15 46 25 55 12 11 19 31 19 56 0 25 5 41 15 44 10 4 15 20 15 50 0 30
5 46 15 50 8 3 17 26 21 50 3 25 13 51 20 59 8 7 14 24 14 37 0 13 9 41 20 63
11 22 20 45 20 52 0 8 7 16 15 19 9 4 15 19 15 35 0 17 6 32 15 35 8 4 15 17
15 30 0 15 6 24 16 24 8 0 20 14 25 30 6 17 15 30 20 30 5 0 12 7 16 16 5 14
35 49 105 125 16 16 28 33 28 38 0 13 56 71 69 71 6 0 14 7 17 15 4 8 12 15
20 15 8 0 14 7 14 15 0 8 7 15 15 15 8 0 15 6 15 14 0 8 8 17 18 20 9 3 34 22
55 41 21 19 42 35 47 35 5 0 20 10 34 23 39 36 51 44 74 51 12 4 22 11 22 16
0 4 14 13 30 19 17 5 30 14 30 20 0 6 16 13 35 17 19 3 35 10 35 15 0 5 21 18
48 29 26 11 56 26 67 32 11 7 40 15 65 19 25 3 48 7 52 8 4 0 10 -3 13 -9z
m548 -20 c83 -5 112 -10 121 -22 9 -12 35 -17 109 -19 59 -3 101 -9 105 -15 4
-7 43 -15 87 -19 44 -4 87 -13 95 -20 8 -7 48 -15 88 -17 44 -2 76 -9 81 -16
4 -7 32 -15 62 -19 29 -3 60 -12 67 -20 7 -7 29 -13 48 -13 22 0 37 -6 40 -15
4 -10 21 -15 53 -15 25 0 58 -6 72 -14 15 -8 60 -17 100 -21 41 -3 90 -14 109
-23 19 -9 43 -15 53 -13 9 1 30 -7 46 -18 15 -11 47 -23 69 -27 23 -4 47 -13
53 -20 6 -8 28 -14 49 -14 21 0 43 -7 50 -15 7 -8 28 -15 47 -15 20 0 36 -6
39 -14 3 -8 23 -18 45 -21 22 -4 46 -13 53 -21 8 -8 28 -14 45 -14 17 0 48 -9
68 -20 21 -11 46 -20 55 -20 10 0 18 -4 18 -10 0 -5 9 -10 20 -10 12 0 32 -11
46 -25 14 -14 33 -25 44 -25 10 0 25 -6 32 -13 7 -7 25 -18 41 -24 15 -7 27
-17 27 -23 0 -5 9 -10 19 -10 11 0 26 -7 35 -15 8 -8 26 -15 40 -15 14 0 26
-5 26 -10 0 -6 12 -15 28 -21 40 -14 94 -42 121 -61 13 -10 31 -18 41 -18 9 0
25 -9 35 -20 10 -12 25 -18 32 -16 7 3 17 -4 23 -14 6 -11 21 -20 34 -20 13 0
26 -6 29 -14 3 -7 18 -17 34 -20 15 -4 35 -13 43 -20 8 -8 33 -16 54 -19 22
-4 42 -10 45 -15 3 -5 20 -13 38 -16 17 -4 34 -14 37 -22 3 -8 19 -14 36 -14
20 0 30 -5 30 -15 0 -11 11 -15 35 -15 21 0 38 -6 41 -14 3 -8 17 -17 32 -21
15 -4 35 -15 45 -26 10 -10 26 -19 37 -19 10 0 23 -7 28 -15 4 -9 26 -18 48
-22 21 -3 43 -12 47 -20 4 -7 17 -13 27 -13 11 0 20 -7 20 -15 0 -10 10 -15
29 -15 15 0 40 -9 54 -20 14 -11 31 -20 39 -20 8 0 19 -5 26 -12 6 -6 37 -15
68 -19 31 -4 60 -12 63 -18 4 -5 27 -13 51 -17 25 -4 57 -15 72 -25 16 -12 44
-19 75 -19 26 0 57 -7 67 -15 12 -9 42 -15 70 -15 28 0 64 -7 81 -16 16 -8 65
-18 110 -21 44 -3 88 -10 98 -15 10 -5 55 -13 99 -18 44 -4 83 -12 87 -17 3
-6 57 -13 119 -15 63 -3 119 -11 125 -17 6 -6 23 -11 37 -11 14 0 31 -5 38
-12 12 -12 -2 -24 -60 -50 -16 -7 -28 -16 -28 -21 0 -12 -27 -37 -39 -37 -6 0
-11 -7 -11 -15 0 -8 -9 -23 -20 -32 -11 -10 -20 -23 -20 -30 0 -7 -7 -13 -15
-13 -8 0 -15 -4 -15 -10 0 -12 -44 -55 -64 -63 -9 -4 -16 -13 -16 -22 0 -8 -7
-15 -15 -15 -8 0 -15 -8 -15 -18 0 -17 -15 -42 -50 -82 -20 -22 -37 -49 -52
-80 -7 -14 -18 -29 -25 -33 -7 -4 -13 -17 -13 -27 0 -11 -9 -24 -20 -30 -11
-6 -20 -17 -20 -25 0 -8 -8 -23 -17 -33 -32 -33 -53 -62 -53 -71 0 -5 -6 -14
-14 -20 -8 -7 -18 -26 -21 -42 -4 -16 -13 -29 -21 -29 -9 0 -14 -11 -14 -29 0
-16 -6 -31 -15 -35 -8 -3 -15 -14 -15 -25 0 -10 -6 -21 -14 -24 -7 -3 -18 -26
-25 -51 -7 -29 -17 -46 -26 -46 -10 0 -15 -11 -15 -34 0 -18 -6 -39 -14 -45
-8 -7 -17 -34 -21 -61 -4 -28 -11 -52 -15 -55 -5 -3 -12 -31 -16 -63 -4 -31
-10 -59 -15 -62 -5 -3 -13 -36 -18 -74 -5 -37 -14 -73 -20 -80 -5 -6 -13 -53
-17 -104 -4 -58 -12 -96 -20 -103 -10 -8 -14 -35 -14 -86 0 -65 -3 -79 -26
-109 -21 -26 -30 -32 -40 -23 -7 6 -18 8 -23 5 -5 -4 -12 -2 -16 4 -3 5 -18
10 -32 10 -15 0 -35 8 -46 17 -15 14 -42 19 -128 21 -85 3 -109 7 -109 18 0 8
-9 14 -19 14 -10 0 -21 7 -25 15 -3 8 -15 15 -26 15 -11 0 -23 7 -26 15 -4 8
-12 15 -20 15 -8 0 -29 15 -47 34 -17 18 -42 39 -54 45 -13 6 -23 17 -23 23 0
14 -74 88 -89 88 -6 0 -11 4 -11 10 0 5 -18 15 -40 21 -22 7 -40 15 -40 19 0
4 -16 11 -36 15 -20 3 -43 13 -51 21 -8 8 -27 14 -42 14 -16 0 -34 7 -41 15
-7 8 -17 15 -22 15 -5 0 -21 9 -35 20 -14 11 -34 20 -44 20 -11 0 -19 6 -19
14 0 15 -29 26 -69 26 -14 0 -33 8 -44 18 -16 15 -45 17 -208 20 -104 2 -189
8 -189 13 0 5 -10 9 -23 9 -12 0 -39 9 -60 20 -20 11 -52 20 -69 20 -18 0 -46
7 -63 16 -16 8 -65 19 -107 24 -43 5 -86 14 -97 20 -11 5 -53 10 -94 10 -54 0
-78 4 -87 15 -7 8 -20 15 -28 15 -9 0 -25 9 -37 20 -11 11 -52 51 -91 89 -39
38 -80 71 -90 73 -11 2 -18 9 -17 15 1 6 -13 14 -32 17 -19 4 -35 11 -35 17 0
5 -11 14 -25 19 -14 5 -25 14 -25 20 0 5 -8 10 -19 10 -10 0 -30 10 -44 23
-14 12 -37 31 -51 42 -14 11 -42 35 -63 52 -21 18 -44 33 -50 33 -7 0 -13 6
-13 14 0 8 -14 17 -31 21 -17 4 -33 13 -36 21 -3 8 -18 14 -33 14 -15 0 -33 7
-40 15 -7 8 -25 15 -40 15 -19 0 -29 6 -33 19 -3 11 -17 22 -36 26 -17 4 -31
11 -31 16 0 6 -13 15 -30 20 -16 6 -30 15 -30 20 0 5 -7 9 -15 9 -16 0 -61 43
-85 80 -24 38 -82 90 -100 90 -5 0 -14 9 -20 19 -7 13 -26 22 -58 27 -26 3
-52 11 -58 16 -7 5 -38 13 -70 18 -32 5 -60 14 -63 19 -3 5 -34 12 -68 16 -34
4 -67 13 -74 21 -7 9 -31 14 -65 14 -33 0 -58 5 -68 15 -8 8 -28 15 -45 15
-16 0 -34 6 -38 13 -4 7 -26 24 -48 37 -48 29 -85 66 -85 86 0 7 -6 14 -14 14
-8 0 -17 14 -21 30 -4 17 -13 30 -21 30 -8 0 -19 11 -24 25 -5 14 -14 25 -19
25 -5 0 -13 9 -16 21 -12 36 -100 127 -167 171 -27 17 -48 35 -48 40 0 4 -6 8
-14 8 -8 0 -16 7 -20 15 -3 8 -14 15 -25 15 -11 0 -26 7 -34 15 -8 8 -34 18
-58 21 -24 4 -54 13 -68 21 -14 7 -48 13 -74 13 -54 0 -87 13 -87 35 0 23 -86
102 -119 110 -27 6 -31 10 -25 28 4 12 13 26 20 30 8 4 14 19 14 32 0 14 8 29
20 35 11 6 20 17 20 24 0 18 51 96 62 96 4 0 8 6 8 13 0 8 9 24 20 37 11 13
20 29 20 37 0 7 7 13 15 13 8 0 15 7 15 15 0 8 5 15 10 15 6 0 15 11 20 25 5
14 14 25 19 25 4 0 38 29 74 65 36 36 71 65 76 65 6 0 11 7 11 15 0 8 6 15 14
15 7 0 16 9 19 20 3 11 12 20 20 20 8 0 17 9 20 21 3 12 10 18 16 14 6 -3 11
-1 11 5 0 11 56 70 66 70 3 0 18 14 34 30 16 17 34 30 39 30 13 0 34 38 27 49
-3 5 12 16 33 25 22 8 42 20 46 26 3 5 20 10 37 10 16 0 41 9 55 20 18 14 41
20 73 20 34 0 52 -5 65 -20 10 -11 24 -20 31 -20 8 0 19 9 26 20 7 11 20 20
30 20 9 0 20 5 23 10 4 6 11 7 17 4 6 -4 61 -10 121 -14z m-1215 -1052 c2 -25
8 -38 18 -38 8 0 14 -7 14 -15 0 -8 8 -15 19 -15 10 0 21 -9 24 -20 4 -17 14
-20 66 -20 46 0 63 -4 67 -15 5 -11 23 -15 76 -15 61 0 71 -2 75 -20 4 -13 14
-20 31 -20 25 0 92 -60 105 -94 4 -9 11 -16 18 -16 6 0 25 -16 42 -35 17 -19
37 -35 44 -35 7 0 13 -7 13 -15 0 -8 7 -15 15 -15 8 0 15 -7 15 -15 0 -8 7
-15 15 -15 8 0 15 -7 15 -15 0 -8 9 -19 20 -25 13 -7 20 -21 20 -39 0 -31 60
-101 86 -101 8 0 14 -4 14 -9 0 -19 51 -61 75 -61 14 0 28 -7 31 -15 4 -9 19
-15 36 -15 21 0 31 -6 35 -20 5 -17 14 -20 64 -20 48 0 61 -4 71 -20 11 -17
24 -20 79 -20 58 0 67 -3 72 -20 4 -16 14 -20 51 -20 32 0 48 -5 52 -15 5 -11
23 -15 70 -15 48 0 66 -4 70 -15 4 -8 12 -15 19 -15 8 0 17 -9 20 -20 3 -11
13 -20 21 -20 8 0 14 -7 14 -15 0 -8 9 -15 20 -15 11 0 20 -7 20 -14 0 -18 43
-66 59 -66 6 0 11 -6 11 -14 0 -8 7 -16 15 -20 8 -3 15 -12 15 -21 0 -11 10
-15 35 -15 22 0 38 -6 41 -15 4 -9 19 -15 36 -15 21 0 31 -6 35 -20 4 -13 14
-20 29 -20 14 0 27 -7 30 -15 4 -8 19 -15 35 -15 15 0 32 -6 36 -14 4 -8 21
-16 37 -18 16 -1 34 -12 40 -22 18 -31 45 -56 61 -56 8 0 15 -9 15 -20 0 -11
6 -20 14 -20 8 0 16 -7 20 -15 3 -8 17 -15 31 -15 14 0 28 -7 31 -15 4 -9 19
-15 40 -15 23 0 37 -6 41 -17 11 -29 42 -53 68 -53 14 0 28 -7 31 -15 4 -8 12
-15 20 -15 8 0 14 -6 14 -13 0 -15 54 -67 69 -67 6 0 11 -7 11 -15 0 -19 36
-55 55 -55 8 0 15 -7 15 -15 0 -10 10 -15 31 -15 22 0 32 -5 36 -20 5 -17 14
-20 69 -20 45 0 65 -4 71 -15 7 -11 35 -15 123 -17 108 -3 116 -4 125 -25 9
-20 17 -23 71 -23 46 0 63 -4 68 -15 3 -9 18 -15 36 -15 18 0 33 -6 36 -15 5
-13 36 -15 196 -15 181 0 190 -1 195 -20 5 -17 14 -20 69 -20 48 0 66 -4 70
-15 4 -8 15 -15 25 -15 12 0 19 -7 19 -20 0 -15 7 -20 25 -20 14 0 28 -7 31
-15 4 -9 19 -15 35 -15 17 0 32 -6 35 -15 4 -11 21 -15 55 -15 44 0 51 -3 59
-25 7 -19 17 -25 40 -25 20 0 30 -5 30 -15 0 -8 6 -15 14 -15 7 0 16 -9 19
-20 3 -11 12 -20 20 -20 8 0 17 -7 21 -15 3 -8 12 -15 21 -15 8 0 15 -7 15
-15 0 -10 10 -15 30 -15 19 0 33 -6 37 -17 8 -21 40 -53 53 -53 5 0 14 -9 20
-20 7 -13 21 -20 41 -20 18 0 32 -6 36 -17 17 -44 39 -53 138 -53 84 0 95 -2
105 -20 8 -16 21 -20 60 -20 37 0 50 -4 50 -14 0 -11 14 -16 48 -18 l47 -3 3
-99 c2 -90 1 -100 -18 -113 -19 -13 -20 -24 -20 -177 0 -155 1 -164 20 -169
19 -5 20 -14 20 -124 0 -107 2 -119 20 -131 15 -9 20 -23 20 -57 0 -33 4 -45
15 -45 12 0 15 -14 15 -65 0 -54 3 -66 20 -75 13 -7 20 -21 20 -39 0 -16 7
-31 15 -35 9 -3 15 -18 15 -36 0 -20 5 -30 15 -30 9 0 19 -8 22 -17 4 -10 12
-22 20 -26 7 -4 13 -24 13 -42 l0 -35 -71 0 c-62 0 -71 2 -76 20 -3 13 -14 20
-29 20 -13 0 -28 9 -34 20 -9 16 -21 20 -61 20 -42 0 -52 3 -56 20 -5 17 -14
20 -64 20 -44 0 -61 4 -65 15 -4 11 -21 15 -55 15 -35 0 -51 4 -55 15 -5 11
-23 15 -71 15 -56 0 -66 3 -70 20 -4 17 -14 20 -54 20 -35 0 -51 4 -55 15 -5
12 -29 15 -126 15 -111 0 -120 1 -125 20 -5 18 -14 20 -114 20 -98 0 -110 2
-121 20 -11 18 -24 20 -116 20 -82 0 -104 3 -108 15 -5 12 -29 15 -126 15
-111 0 -120 1 -125 20 -5 19 -14 20 -144 20 -117 0 -139 2 -139 15 0 13 -39
15 -290 15 -249 0 -291 -2 -296 -15 -5 -13 -52 -15 -335 -15 -318 0 -329 -1
-339 -20 -10 -20 -21 -20 -451 -20 -432 0 -441 0 -446 20 -5 17 -14 20 -64 20
-44 0 -61 4 -65 15 -4 11 -21 15 -56 15 -41 0 -51 3 -55 20 -5 17 -14 20 -69
20 -48 0 -66 4 -70 15 -4 10 -20 15 -49 15 -26 0 -47 6 -55 15 -8 9 -29 15
-55 15 -35 0 -46 5 -60 26 -14 22 -23 25 -52 22 -26 -3 -37 0 -44 14 -6 11
-21 18 -40 18 -17 0 -32 6 -35 15 -4 10 -20 15 -50 15 -33 0 -46 5 -54 20 -6
12 -21 20 -36 20 -13 0 -27 7 -30 15 -4 10 -21 15 -55 15 -38 0 -51 4 -59 20
-6 11 -17 20 -25 20 -8 0 -15 7 -15 15 0 8 -7 15 -15 15 -8 0 -15 6 -15 14 0
9 -12 16 -32 18 -32 3 -33 5 -36 52 -2 38 -9 56 -28 73 -14 13 -28 23 -32 23
-4 0 -17 11 -29 24 -26 27 -30 74 -8 82 9 4 15 19 15 39 0 20 -6 35 -15 39 -8
3 -15 16 -15 29 0 14 -7 30 -15 37 -9 7 -15 29 -15 51 0 28 -5 41 -20 49 -16
8 -20 21 -20 59 0 34 -5 51 -15 55 -12 4 -15 23 -15 85 0 70 -2 79 -20 84 -20
5 -20 14 -20 392 0 378 0 387 20 392 19 5 20 14 20 154 0 124 3 151 15 155 12
5 15 27 15 111 0 96 2 105 20 110 18 5 20 14 20 94 0 72 3 89 15 89 12 0 15
13 15 60 0 45 4 62 15 66 10 4 15 20 15 50 0 33 5 47 20 56 15 10 20 24 20 55
0 32 5 45 20 53 13 7 20 21 20 39 0 16 7 31 15 35 10 4 15 20 15 50 0 35 5 48
20 56 12 6 20 21 20 36 0 13 7 27 15 30 9 4 15 19 15 36 0 21 6 31 20 35 15 4
20 14 20 38 0 38 10 45 65 42 39 -2 40 -3 43 -39z m6302 -683 c10 -12 7 -15
-13 -20 -14 -4 -28 -13 -31 -21 -3 -8 -15 -14 -26 -14 -11 0 -20 -6 -20 -14 0
-8 -9 -17 -19 -21 -11 -3 -22 -12 -25 -20 -3 -8 -13 -15 -22 -15 -19 0 -74
-50 -74 -67 0 -7 -7 -10 -15 -7 -10 4 -15 0 -15 -15 0 -12 -6 -21 -15 -21 -8
0 -15 -7 -15 -15 0 -9 -8 -19 -17 -22 -21 -8 -57 -42 -66 -63 -4 -8 -16 -28
-27 -45 -25 -38 -40 -72 -40 -91 0 -8 -6 -14 -14 -14 -8 0 -17 -15 -20 -34 -4
-19 -13 -37 -21 -40 -8 -3 -15 -17 -15 -31 0 -14 -7 -28 -15 -31 -8 -4 -15
-19 -15 -35 0 -18 -7 -32 -20 -39 -12 -6 -20 -21 -20 -36 0 -13 -6 -27 -14
-30 -8 -3 -18 -20 -22 -37 -4 -18 -12 -41 -19 -52 -7 -11 -16 -35 -20 -52 -4
-18 -10 -33 -15 -33 -5 0 -12 -20 -16 -45 -3 -26 -13 -52 -20 -60 -8 -7 -14
-34 -14 -58 0 -25 -6 -49 -14 -56 -8 -7 -15 -42 -19 -89 -3 -42 -12 -90 -21
-107 -10 -19 -16 -56 -16 -103 0 -66 -11 -107 -34 -123 -4 -4 -9 -219 -10
-479 -1 -372 2 -474 12 -478 6 -2 10 -8 6 -13 -3 -5 0 -9 6 -9 6 0 8 -4 5 -10
-3 -5 -1 -10 4 -10 6 0 11 -16 11 -35 0 -19 9 -57 20 -85 11 -28 20 -58 20
-66 0 -9 7 -22 15 -30 8 -9 15 -33 15 -54 0 -24 5 -40 15 -44 9 -3 15 -18 15
-36 0 -17 6 -33 14 -36 8 -3 18 -20 22 -37 3 -18 12 -39 19 -47 7 -8 16 -30
20 -47 3 -18 10 -33 15 -33 14 0 20 -31 10 -51 -6 -10 -20 -19 -32 -19 -12 0
-30 -8 -41 -18 -15 -14 -37 -17 -111 -17 -84 1 -93 3 -118 27 -16 14 -28 30
-28 35 0 6 -7 16 -15 23 -8 7 -15 27 -15 46 0 18 -5 36 -11 39 -6 4 -8 13 -5
21 3 7 -2 17 -10 22 -10 5 -17 30 -21 68 -3 32 -12 68 -19 79 -8 11 -14 33
-14 50 0 17 -7 40 -15 51 -8 10 -15 29 -15 42 0 12 -9 39 -20 59 -11 21 -20
51 -20 68 0 17 -5 36 -12 43 -7 7 -15 63 -19 136 -4 68 -12 133 -18 144 -15
27 -14 247 0 274 6 12 13 69 16 127 3 58 11 126 18 151 7 25 16 74 20 110 4
36 11 68 18 72 6 3 13 35 15 70 3 35 9 66 15 70 6 3 12 32 15 65 2 32 10 63
16 68 7 6 15 28 19 49 3 21 15 49 27 61 13 14 20 35 20 61 0 21 7 48 15 58 8
11 15 29 15 40 0 12 7 34 15 50 8 15 15 46 15 67 0 22 4 39 9 39 9 0 21 20 55
87 6 13 17 23 24 23 7 0 15 14 19 31 3 17 12 33 19 36 8 3 14 16 14 29 0 13
15 38 35 58 19 19 37 47 41 61 4 15 12 29 19 31 7 3 15 18 19 35 3 17 12 29
21 29 8 0 15 6 15 14 0 8 7 16 15 20 8 3 15 12 15 21 0 8 6 15 14 15 7 0 16 9
19 20 3 11 12 20 21 20 9 0 16 8 16 20 0 13 7 20 20 20 11 0 20 6 20 14 0 8 9
18 20 21 11 3 20 13 20 21 0 8 7 14 15 14 8 0 15 7 15 15 0 8 6 15 14 15 7 0
16 9 19 20 3 11 12 20 21 20 9 0 16 7 16 15 0 8 9 15 20 15 11 0 20 7 20 15 0
9 9 15 24 15 14 0 32 10 40 22 9 12 16 18 16 13 0 -5 5 -4 12 3 7 7 20 12 29
12 9 0 19 6 22 14 5 13 28 18 103 24 12 1 27 -5 34 -13z m161 -62 c5 -28 4
-33 -12 -33 -11 0 -19 -6 -19 -13 0 -7 -9 -18 -20 -25 -11 -7 -20 -21 -20 -32
0 -11 -6 -20 -14 -20 -8 0 -17 -11 -20 -25 -4 -14 -11 -25 -17 -25 -5 0 -15
-13 -20 -30 -6 -16 -15 -30 -20 -30 -5 0 -9 -7 -9 -15 0 -8 -9 -19 -20 -25
-11 -6 -20 -18 -20 -26 0 -9 -15 -34 -33 -57 -18 -23 -39 -53 -45 -67 -21 -42
-38 -69 -55 -88 -10 -10 -17 -23 -17 -29 0 -6 -7 -13 -15 -17 -8 -3 -15 -16
-15 -29 0 -14 -7 -30 -15 -37 -8 -7 -15 -18 -15 -24 0 -6 -6 -23 -14 -38 -8
-15 -17 -42 -21 -60 -4 -18 -16 -48 -26 -66 -10 -18 -19 -41 -19 -50 0 -10 -6
-26 -14 -37 -8 -11 -15 -54 -18 -98 -2 -43 -8 -81 -14 -85 -6 -4 -14 -54 -18
-110 -3 -57 -12 -113 -19 -125 -18 -33 -18 -1324 1 -1336 8 -5 16 -35 19 -72
4 -35 12 -70 20 -77 7 -7 13 -26 13 -41 0 -16 7 -34 15 -41 8 -7 15 -25 15
-40 0 -15 9 -35 20 -45 11 -10 23 -36 26 -57 4 -21 11 -38 16 -38 9 0 20 -26
32 -72 l6 -28 -83 0 c-116 0 -167 27 -181 97 -4 17 -14 34 -22 37 -8 3 -14 19
-14 36 0 18 -6 33 -15 36 -9 4 -15 19 -15 35 0 17 -6 32 -15 35 -8 4 -15 14
-15 24 0 10 -7 26 -16 35 -9 9 -19 37 -22 63 -3 26 -11 52 -17 57 -7 6 -15 28
-18 49 -4 22 -13 44 -21 48 -8 5 -13 15 -10 23 4 8 2 15 -3 15 -5 0 -8 13 -5
28 2 18 -4 42 -17 63 -20 33 -21 45 -21 497 0 460 0 464 21 469 18 5 20 13 19
87 -2 79 2 103 21 139 5 10 12 48 16 85 3 37 11 76 18 87 6 11 15 45 18 75 4
30 11 56 17 58 5 2 13 21 16 43 4 21 13 44 20 50 8 6 14 25 14 41 0 16 6 31
15 34 9 4 15 19 15 38 0 17 9 42 20 56 11 14 20 30 20 36 0 6 9 19 20 29 11
10 19 23 17 29 -2 6 7 27 20 46 12 19 23 42 23 51 0 9 7 22 15 29 8 7 15 20
15 30 0 10 7 23 15 30 8 7 15 20 15 29 0 10 9 27 20 39 11 12 20 26 20 32 0 6
7 13 15 16 8 4 15 10 15 15 0 9 157 169 165 169 2 0 21 16 42 35 21 19 43 35
49 35 7 0 14 7 18 15 3 8 11 15 18 15 8 0 29 15 48 32 19 18 38 33 42 33 3 0
10 4 14 8 19 18 48 2 55 -30z m397 -60 c2 -8 20 -13 41 -13 23 0 48 -8 64 -20
14 -11 34 -20 45 -20 11 0 25 -7 32 -15 7 -8 23 -15 36 -15 13 0 32 -9 41 -20
10 -11 23 -20 29 -20 7 0 14 -7 18 -15 3 -8 12 -15 21 -15 8 0 15 -7 15 -15 0
-8 9 -19 20 -25 11 -6 20 -17 20 -25 0 -8 7 -15 15 -15 8 0 15 -7 15 -15 0 -8
9 -24 20 -35 11 -11 20 -24 20 -30 0 -5 9 -14 20 -20 11 -6 20 -21 20 -34 0
-13 7 -26 15 -30 8 -3 15 -14 15 -24 0 -10 7 -27 15 -38 8 -10 15 -30 15 -44
0 -14 9 -31 20 -38 11 -7 17 -18 14 -27 -4 -8 -2 -15 3 -15 5 0 8 -13 5 -30
-4 -25 -1 -30 16 -30 16 0 22 -9 27 -40 4 -22 11 -40 16 -40 5 0 12 -18 15
-40 4 -22 13 -45 20 -51 19 -16 18 -128 -1 -153 -11 -15 -12 -22 -4 -27 18
-11 19 -421 2 -426 -9 -3 -13 -27 -13 -71 0 -90 -11 -173 -21 -166 -15 9 -10
-13 6 -26 34 -28 4 -140 -37 -140 -32 0 -48 18 -48 52 0 15 -4 28 -10 28 -5 0
-10 -13 -10 -30 0 -24 8 -35 41 -57 35 -23 39 -30 34 -52 -4 -14 -13 -33 -22
-43 -8 -9 -16 -41 -18 -72 -2 -34 -10 -62 -19 -72 -10 -10 -16 -33 -16 -65 0
-35 -4 -51 -15 -55 -9 -4 -15 -19 -15 -40 0 -22 -5 -34 -14 -34 -8 0 -17 -15
-20 -35 -4 -19 -11 -35 -16 -35 -5 0 -14 -25 -21 -55 -7 -30 -15 -52 -19 -50
-4 3 -11 -11 -14 -31 -4 -19 -13 -37 -20 -40 -8 -3 -17 -20 -20 -37 -5 -24 -9
-28 -15 -18 -7 11 -12 3 -21 -27 -6 -23 -24 -57 -40 -76 -17 -18 -30 -38 -30
-44 0 -6 -6 -15 -12 -19 -17 -11 -58 -69 -58 -83 0 -5 -7 -10 -15 -10 -8 0
-15 -4 -15 -10 0 -15 -151 -163 -183 -179 -15 -8 -27 -18 -27 -23 0 -4 -7 -8
-15 -8 -9 0 -18 -7 -21 -15 -4 -8 -14 -15 -24 -15 -10 0 -23 -6 -29 -14 -6 -7
-29 -16 -51 -20 -22 -3 -40 -10 -40 -15 0 -5 -19 -12 -42 -16 -24 -3 -58 -13
-77 -22 -26 -12 -51 -14 -105 -9 -39 4 -75 11 -80 16 -6 6 -22 10 -36 10 -15
0 -37 9 -50 20 -13 11 -29 20 -35 20 -7 0 -15 7 -19 15 -3 8 -13 15 -22 15
-19 0 -53 39 -54 61 0 9 -7 22 -15 29 -8 7 -15 21 -15 31 0 10 -5 21 -10 24
-6 4 -8 10 -5 15 3 5 -1 12 -8 17 -8 4 -17 25 -20 47 -3 21 -13 46 -22 56 -8
9 -15 26 -15 37 0 11 -7 26 -15 33 -10 8 -15 30 -15 62 0 28 -8 63 -17 81 -16
29 -18 78 -21 537 -3 545 11 812 49 980 6 25 15 81 20 124 5 44 14 83 19 86 6
4 13 24 17 46 3 21 13 47 21 57 8 9 11 17 7 17 -5 0 -4 5 3 12 7 7 12 27 12
45 0 23 5 33 15 33 8 0 15 8 15 19 0 10 9 30 20 44 11 14 20 32 20 41 0 9 7
19 15 22 8 4 15 13 15 20 0 8 7 17 15 20 8 4 15 17 15 30 0 13 9 32 20 41 11
10 20 23 20 31 0 7 25 46 55 86 30 40 55 78 55 84 0 7 4 12 10 12 5 0 16 16
24 35 8 19 20 35 25 35 6 0 11 7 11 15 0 9 7 18 15 21 8 4 15 10 15 15 0 11
49 59 60 59 6 0 10 7 10 16 0 14 19 15 157 12 114 -2 157 -6 161 -15z m-7378
-134 c0 -63 -2 -71 -17 -67 -17 5 -18 -6 -15 -139 3 -124 1 -143 -12 -143 -14
0 -16 -19 -16 -125 0 -118 -1 -125 -20 -125 -19 0 -20 7 -20 210 0 180 2 210
15 210 12 0 15 14 15 70 0 68 1 70 25 70 24 0 25 3 25 55 0 30 5 55 10 55 6 0
10 -30 10 -71z"/>
</g>
</svg>
