<?xml version="1.0" standalone="no"?>
<!DOCTYPE svg PUBLIC "-//W3C//DTD SVG 20010904//EN"
 "http://www.w3.org/TR/2001/REC-SVG-20010904/DTD/svg10.dtd">
<svg version="1.0" xmlns="http://www.w3.org/2000/svg"
 width="1187.000000pt" height="812.000000pt" viewBox="0 0 1187.000000 812.000000"
 preserveAspectRatio="xMidYMid meet">
<metadata>
Created by potrace 1.16, written by Peter Selinger 2001-2019
</metadata>
<g transform="translate(0.000000,812.000000) scale(0.100000,-0.100000)"
fill="#000000" stroke="none">
<path d="M5550 7340 c0 -16 -7 -20 -34 -20 -25 0 -35 -5 -39 -20 -5 -18 -11
-20 -46 -14 -37 6 -41 5 -41 -15 0 -21 -2 -21 -257 -22 -623 -3 -588 -1 -591
-26 -3 -23 -5 -23 -163 -23 -152 0 -159 -1 -159 -20 0 -19 -7 -20 -96 -20 -87
0 -96 -2 -101 -20 -5 -17 -14 -20 -69 -20 -57 0 -64 -2 -64 -20 0 -18 -7 -20
-87 -21 -55 -1 -76 -4 -55 -8 18 -3 31 -10 30 -16 -3 -10 -27 -13 -140 -14
-61 -1 -68 -3 -68 -21 0 -17 -8 -19 -77 -22 -58 -2 -78 -7 -78 -17 0 -10 -20
-14 -80 -15 -75 -1 -80 -2 -83 -23 -3 -22 -8 -23 -83 -23 -72 0 -79 -2 -79
-20 0 -18 -7 -20 -56 -20 -47 0 -57 -3 -61 -20 -5 -17 -14 -20 -64 -20 -33 0
-59 -4 -59 -10 0 -5 9 -10 21 -10 11 0 17 -5 14 -10 -4 -6 -12 -10 -18 -9 -7
1 -40 1 -74 0 -55 -1 -63 -3 -63 -20 0 -16 -8 -20 -42 -23 -32 -2 -43 -8 -48
-23 -4 -15 -13 -20 -40 -20 -29 0 -36 -4 -38 -22 -3 -19 -10 -23 -38 -23 -24
0 -34 -5 -34 -15 0 -11 -12 -15 -45 -15 -38 0 -45 -3 -45 -20 0 -16 -7 -20
-36 -20 -27 0 -37 -5 -41 -20 -5 -17 -14 -20 -62 -21 -31 -1 -47 -4 -36 -6 11
-3 23 -10 27 -16 12 -20 -4 -28 -43 -22 -35 6 -39 5 -39 -14 0 -16 -7 -20 -42
-23 -36 -2 -44 -7 -46 -25 -2 -15 -10 -23 -23 -23 -12 0 -19 -7 -19 -20 0 -13
-7 -20 -20 -20 -13 0 -20 -7 -20 -20 0 -13 -7 -20 -20 -20 -13 0 -20 -7 -20
-20 0 -11 -6 -20 -14 -20 -7 0 -16 -9 -19 -20 -7 -29 -47 -27 -48 3 -1 16 -2
18 -6 5 -2 -10 -11 -18 -19 -18 -8 0 -14 -9 -14 -20 0 -13 -7 -20 -20 -20 -15
0 -20 -7 -20 -25 0 -18 -5 -25 -20 -25 -13 0 -20 -7 -20 -20 0 -13 -7 -20 -20
-20 -17 0 -20 -7 -20 -40 0 -33 -3 -40 -20 -40 -13 0 -20 -7 -20 -20 0 -13 -7
-20 -20 -20 -25 0 -36 -25 -20 -45 10 -12 10 -18 0 -30 -10 -12 -45 -15 -191
-15 -125 0 -179 3 -179 11 0 7 -9 9 -21 6 -17 -5 -20 -2 -16 14 5 18 -1 19
-129 19 -127 0 -134 1 -134 20 0 12 -7 20 -16 20 -13 0 -14 -3 -5 -14 18 -22
0 -27 -82 -26 -135 3 -141 2 -152 -22 -14 -31 -35 -35 -35 -6 0 13 -4 18 -8
12 -4 -6 -15 -14 -25 -17 -11 -4 -21 -16 -24 -27 -3 -11 -12 -20 -20 -20 -8 0
-17 -9 -20 -20 -3 -11 -12 -20 -20 -20 -8 0 -17 -9 -20 -20 -3 -11 -12 -20
-19 -20 -10 0 -14 -13 -14 -40 0 -33 -3 -40 -20 -40 -18 0 -20 -7 -20 -60 0
-53 -2 -60 -20 -60 -13 0 -20 -6 -19 -17 0 -11 3 -13 6 -5 2 6 10 12 17 12 10
0 12 -40 10 -175 -2 -96 -7 -175 -11 -175 -4 0 -10 73 -13 162 l-6 163 -2
-172 c-2 -167 -1 -173 18 -173 17 0 20 -7 20 -46 0 -40 2 -45 15 -34 8 7 16 9
16 4 4 -19 6 -40 8 -61 0 -13 8 -23 16 -23 11 0 15 -11 15 -40 0 -33 4 -40 19
-40 10 0 21 -9 24 -20 4 -15 14 -20 41 -20 30 0 38 -5 46 -25 8 -20 16 -25 45
-25 28 0 35 -4 35 -20 0 -17 7 -20 40 -20 33 0 40 -3 40 -20 0 -18 7 -20 60
-20 47 0 60 -3 60 -15 0 -12 13 -15 60 -15 53 0 60 -2 60 -20 0 -18 7 -20 83
-20 79 0 131 -13 97 -24 -8 -2 -22 -7 -30 -9 -8 -3 17 -6 57 -6 66 -1 72 -3
75 -23 3 -21 9 -23 63 -24 53 -1 60 -3 63 -22 3 -19 10 -22 57 -22 44 0 53 -3
58 -20 5 -18 14 -20 86 -20 74 0 81 -2 81 -20 0 -18 7 -20 55 -20 l55 0 0
-240 0 -240 25 0 25 0 0 -160 c0 -153 1 -160 20 -160 19 0 20 -7 20 -159 0
-150 1 -159 20 -164 19 -5 20 -14 20 -146 0 -134 1 -141 20 -141 19 0 20 -7
20 -100 0 -93 1 -100 20 -100 19 0 20 -7 20 -100 0 -93 1 -100 20 -100 16 0
19 -8 22 -62 3 -57 5 -63 26 -66 18 -3 22 -10 22 -43 0 -32 3 -39 20 -39 11 0
20 -7 20 -15 0 -8 6 -15 14 -15 26 0 28 -20 4 -29 -17 -7 -19 -10 -5 -10 10
-1 17 -9 17 -21 0 -13 7 -20 20 -20 17 0 20 -7 20 -40 0 -27 5 -43 15 -47 32
-12 105 -95 105 -119 0 -13 5 -24 10 -24 6 0 10 7 10 15 0 8 7 15 15 15 11 0
15 -12 15 -45 0 -38 3 -45 20 -45 13 0 20 -7 20 -20 0 -17 7 -20 40 -20 29 0
40 -4 40 -15 0 -8 -8 -15 -17 -16 -11 0 -13 -3 -5 -6 6 -2 12 -13 12 -24 0
-12 7 -19 19 -19 10 0 21 -9 24 -20 3 -11 12 -20 21 -20 9 0 16 -7 16 -15 0
-9 11 -20 24 -24 13 -5 26 -19 29 -31 5 -19 11 -22 41 -18 32 4 36 1 36 -19 0
-16 6 -23 20 -23 11 0 20 -7 20 -15 0 -8 9 -15 20 -15 13 0 20 -7 20 -20 0
-11 7 -20 15 -20 8 0 15 -9 15 -20 0 -14 7 -20 21 -20 12 0 23 -8 26 -20 3
-11 13 -20 23 -20 12 0 20 -9 22 -22 3 -20 8 -23 41 -20 34 3 37 1 37 -23 0
-23 4 -25 40 -25 33 0 40 -3 40 -20 0 -17 7 -20 39 -20 30 0 40 -4 44 -20 4
-15 14 -20 41 -20 25 0 36 -4 36 -15 0 -8 9 -15 20 -15 13 0 20 -7 20 -20 0
-17 7 -20 40 -20 33 0 40 -3 40 -20 0 -17 7 -20 39 -20 22 0 42 -4 45 -9 3 -5
16 -7 27 -4 18 5 20 3 14 -16 -6 -19 -3 -21 33 -21 31 0 41 -4 45 -20 4 -16
14 -20 46 -20 34 0 41 -3 41 -20 0 -17 7 -20 40 -20 33 0 40 -3 40 -20 0 -19
7 -20 99 -20 90 0 99 -2 104 -20 4 -15 14 -20 40 -20 25 0 37 -5 40 -17 4 -14
5 -12 6 5 0 12 7 22 14 22 28 0 57 -13 57 -25 0 -8 23 -15 65 -20 68 -7 90
-25 30 -25 -19 0 -35 -5 -35 -11 0 -7 31 -9 90 -7 88 3 90 2 90 -19 0 -22 4
-23 65 -23 58 0 65 -2 65 -20 0 -18 7 -20 54 -20 45 0 54 -3 59 -20 5 -19 14
-20 120 -20 106 0 115 -1 120 -20 5 -19 14 -20 146 -20 134 0 141 -1 141 -20
0 -19 7 -20 170 -20 163 0 170 1 170 20 0 17 7 20 49 20 40 0 50 -3 54 -20 5
-20 14 -20 512 -20 498 0 507 0 512 20 5 19 14 20 165 20 151 0 160 1 165 20
5 18 14 20 99 20 87 0 94 1 94 20 0 19 7 20 98 22 53 1 80 3 60 5 -25 3 -38 9
-38 19 0 11 25 14 145 14 144 0 145 0 145 23 0 21 4 22 77 22 73 0 78 1 81 22
3 19 10 23 43 23 28 0 39 4 39 15 0 12 13 15 56 15 47 0 57 3 61 20 5 17 14
20 64 20 52 0 59 2 59 20 0 17 7 20 40 20 33 0 40 3 40 20 0 16 7 20 36 20 27
0 37 5 41 19 4 15 15 21 47 23 34 2 42 7 44 26 3 18 10 22 38 22 27 0 34 4 34
20 0 17 7 20 40 20 33 0 40 3 40 20 0 17 7 20 45 20 33 0 45 4 45 15 0 11 11
15 36 15 27 0 37 5 41 20 3 11 12 20 20 20 8 0 17 9 20 20 3 11 11 20 18 20 8
0 15 10 17 23 3 19 9 22 43 22 34 0 40 3 43 22 2 15 10 23 23 23 12 0 19 7 19
20 0 17 7 20 40 20 33 0 40 3 40 20 0 13 7 20 20 20 13 0 20 7 20 20 0 13 7
20 20 20 11 0 20 6 20 14 0 7 9 16 20 19 12 3 20 14 20 25 0 13 6 19 17 18 12
0 19 7 21 21 2 15 10 23 23 23 12 0 19 7 19 20 0 13 7 20 20 20 13 0 20 7 20
20 0 13 7 20 20 20 13 0 20 7 20 20 0 13 7 20 20 20 17 0 20 7 20 39 0 33 4
40 23 43 18 2 23 10 25 41 3 35 22 54 22 22 0 -8 5 -15 10 -15 6 0 10 6 10 14
0 8 8 17 18 19 13 4 11 5 -5 6 -30 1 -33 41 -3 41 11 0 20 7 20 15 0 8 9 15
20 15 17 0 20 7 20 40 0 33 3 40 20 40 17 0 20 7 20 45 0 38 3 45 20 45 16 0
20 7 20 35 0 31 3 35 26 35 23 0 25 3 22 38 -2 29 1 39 17 47 16 8 21 22 23
68 3 49 6 57 22 57 17 0 20 7 20 54 0 45 3 54 20 59 18 5 20 14 20 86 0 74 2
81 20 81 19 0 20 7 20 200 0 169 2 202 15 206 11 5 15 21 15 60 0 47 3 54 19
54 26 0 30 19 29 120 0 79 1 85 21 88 20 3 21 9 21 123 0 112 1 119 20 119 19
0 20 7 20 245 0 238 1 245 20 245 11 0 20 7 20 15 0 10 16 15 63 17 53 3 62 6
59 21 -2 15 6 17 58 17 53 0 60 2 60 20 0 16 7 20 36 20 27 0 37 5 41 20 4 16
15 20 67 22 52 3 61 6 64 23 2 17 9 20 42 17 25 -3 40 0 40 7 0 6 -4 11 -10
11 -5 0 -10 4 -10 9 0 14 38 20 44 7 3 -7 5 -7 5 2 1 8 17 12 46 12 38 0 45 3
45 20 0 17 7 20 41 20 34 0 39 3 30 13 -13 16 -5 27 21 27 20 0 25 -26 6 -33
-8 -3 -6 -6 5 -6 11 -1 17 6 17 19 0 16 7 20 35 20 24 0 35 5 35 15 0 11 12
15 45 15 38 0 45 3 45 20 0 18 7 20 56 20 47 0 57 3 61 20 4 15 14 20 39 20
18 0 36 5 40 12 5 7 2 9 -9 5 -8 -3 -21 0 -27 8 -17 20 5 29 67 26 48 -2 53 0
53 18 0 14 6 21 20 21 13 0 20 7 20 20 0 13 7 20 20 20 13 0 20 7 20 20 0 14
7 20 21 20 21 0 22 3 16 63 -6 66 -1 107 14 107 5 0 12 -18 15 -40 14 -88 19
-29 16 199 -3 228 -4 239 -22 244 -16 4 -20 14 -20 46 0 34 -3 41 -20 41 -13
0 -20 7 -20 20 0 13 -7 20 -20 20 -13 0 -20 7 -20 20 0 13 -7 20 -20 20 -13 0
-20 7 -20 20 0 17 -7 20 -41 20 -32 0 -42 4 -46 20 -3 11 -11 20 -18 20 -8 0
-15 10 -17 23 -2 12 -9 21 -17 19 -7 -1 -15 7 -18 18 -3 11 -14 20 -24 20 -12
0 -19 7 -19 20 0 19 -7 20 -230 20 -223 0 -230 -1 -230 -20 0 -19 -7 -20 -137
-21 -76 0 -132 -3 -125 -6 6 -2 12 -10 12 -17 0 -7 -14 -10 -40 -8 -23 2 -47
-1 -55 -8 -26 -21 -45 -4 -45 40 0 33 -3 40 -20 40 -13 0 -20 7 -20 20 0 13
-7 20 -20 20 -13 0 -20 7 -20 20 0 13 -7 20 -20 20 -16 0 -20 7 -20 36 0 27
-5 37 -20 41 -11 3 -20 14 -20 25 0 11 -9 22 -20 25 -11 3 -20 14 -20 24 0 12
-7 19 -19 19 -11 0 -22 6 -24 13 -3 7 -6 5 -6 -5 -1 -26 -41 -24 -41 2 0 13
-7 20 -20 20 -13 0 -20 7 -20 20 0 11 -7 20 -15 20 -8 0 -15 9 -15 20 0 13 -7
20 -20 20 -13 0 -20 7 -20 20 0 17 -7 20 -39 20 -33 0 -40 4 -43 23 -2 18 -10
23 -45 25 -35 3 -43 7 -43 23 0 16 -7 19 -40 19 -33 0 -40 3 -40 20 0 16 -7
20 -34 20 -25 0 -35 5 -39 20 -3 11 -12 20 -20 20 -8 0 -17 9 -20 20 -4 17
-14 20 -66 20 -48 0 -61 3 -61 15 0 11 -11 15 -39 15 -33 0 -40 4 -43 23 -2
18 -10 22 -38 23 -28 0 -35 4 -35 20 0 16 -8 19 -62 22 -55 3 -63 6 -63 22 0
18 -7 20 -65 20 -58 0 -65 2 -65 20 0 16 -7 20 -34 20 -25 0 -35 5 -39 20 -4
17 -14 20 -60 20 -46 0 -55 3 -60 20 -5 18 -14 20 -99 20 -87 0 -94 1 -103 23
-9 21 -16 22 -108 22 -86 0 -97 2 -97 18 0 15 -10 17 -80 17 -73 0 -80 2 -80
20 0 18 -7 20 -60 20 -53 0 -60 2 -60 20 0 18 -7 20 -60 20 -53 0 -60 2 -60
20 0 19 -7 20 -99 20 -90 0 -99 2 -104 20 -5 19 -14 20 -120 20 -106 0 -115 2
-120 20 -5 18 -15 20 -163 22 -98 2 -159 7 -159 13 -1 33 -16 35 -249 35 -219
0 -234 1 -239 19 -4 18 -57 36 -57 20 0 -18 -32 -8 -37 11 -5 18 -14 20 -82
20 -88 0 -119 12 -75 28 21 8 -63 11 -313 11 -337 1 -343 1 -343 -19z m-225
-177 c5 -10 7 -29 6 -42 -2 -13 2 -33 7 -45 6 -12 13 -38 17 -58 4 -24 11 -38
20 -38 8 0 15 -5 15 -11 0 -13 39 -52 67 -67 15 -9 14 -11 -3 -20 -23 -12
-225 1 -268 18 -47 17 -289 12 -421 -10 -66 -11 -147 -20 -180 -20 -33 0 -85
-7 -115 -16 -30 -8 -103 -19 -162 -23 -59 -5 -113 -13 -120 -18 -7 -6 -57 -14
-110 -18 -69 -5 -98 -11 -98 -20 0 -8 -22 -14 -62 -19 -34 -3 -71 -12 -83 -20
-12 -8 -55 -18 -94 -22 -45 -4 -75 -12 -78 -20 -2 -7 -30 -16 -61 -20 -32 -3
-71 -12 -89 -19 -17 -8 -57 -17 -88 -20 -37 -5 -63 -14 -73 -26 -11 -12 -30
-19 -54 -19 -22 0 -40 -6 -45 -15 -5 -8 -31 -19 -57 -24 -27 -5 -53 -16 -58
-25 -6 -11 -23 -16 -57 -16 -29 0 -53 -6 -60 -14 -6 -7 -26 -16 -43 -20 -39
-8 -114 -42 -147 -68 -13 -10 -31 -18 -40 -18 -9 0 -24 -9 -34 -20 -9 -11 -25
-20 -34 -20 -10 0 -31 -9 -48 -20 -16 -11 -40 -20 -52 -20 -13 0 -32 -9 -43
-20 -11 -11 -29 -20 -40 -20 -11 0 -28 -9 -37 -20 -10 -11 -23 -20 -30 -20 -7
0 -21 -9 -30 -20 -10 -11 -30 -20 -46 -20 -15 0 -30 -7 -33 -15 -3 -8 -21 -17
-40 -21 -20 -4 -34 -12 -34 -20 0 -8 -11 -19 -25 -24 -14 -5 -28 -16 -31 -24
-3 -8 -19 -18 -35 -21 -16 -4 -29 -13 -29 -20 0 -8 -9 -16 -19 -20 -11 -3 -22
-12 -25 -20 -3 -8 -12 -15 -21 -15 -8 0 -15 -7 -15 -15 0 -8 -9 -19 -20 -25
-11 -6 -20 -17 -20 -24 0 -7 -9 -25 -20 -39 -11 -14 -20 -32 -20 -40 0 -9 -8
-18 -18 -21 -10 -4 -24 -22 -32 -41 -7 -19 -19 -36 -27 -39 -7 -3 -13 -15 -13
-26 0 -11 -8 -28 -19 -39 -14 -14 -20 -41 -25 -129 -10 -147 0 -243 25 -249
11 -3 19 -12 19 -21 0 -8 9 -24 20 -36 80 -82 119 -116 135 -116 7 0 15 -7 18
-14 3 -8 22 -18 41 -22 20 -3 36 -12 36 -19 0 -8 17 -16 40 -20 22 -4 50 -15
64 -26 13 -10 31 -19 39 -19 7 0 22 -9 32 -20 10 -11 26 -20 35 -20 10 0 20
-9 23 -20 3 -12 14 -20 26 -20 12 0 21 -6 21 -14 0 -15 21 -26 52 -26 11 0 22
-8 25 -20 3 -12 14 -20 27 -20 12 0 31 -6 42 -14 11 -8 37 -17 57 -21 20 -4
37 -13 37 -20 0 -14 12 -19 73 -30 21 -3 40 -12 43 -20 3 -7 23 -16 45 -20 21
-4 39 -12 39 -20 0 -8 21 -15 57 -19 31 -4 64 -13 73 -20 8 -7 35 -16 59 -19
25 -3 48 -12 53 -21 5 -9 21 -16 36 -16 15 0 35 -9 45 -20 13 -15 29 -20 67
-20 39 0 51 -4 60 -20 7 -14 21 -20 43 -20 18 0 46 -8 62 -18 17 -11 60 -21
99 -25 44 -4 73 -12 78 -21 5 -9 34 -17 80 -21 40 -4 82 -13 93 -20 11 -7 49
-16 85 -20 35 -3 73 -12 85 -18 11 -6 62 -17 114 -23 51 -6 96 -16 100 -22 3
-5 40 -12 81 -15 85 -5 121 -12 129 -26 3 -5 80 -11 171 -13 126 -3 172 -8
195 -20 17 -9 78 -22 135 -28 58 -7 114 -17 125 -24 13 -7 119 -13 295 -16
241 -5 279 -8 308 -24 30 -16 51 -18 195 -13 89 3 209 10 267 17 58 6 274 14
480 19 301 6 382 11 411 23 22 10 86 18 175 22 92 5 151 13 174 23 19 9 65 18
104 21 49 3 74 10 87 23 15 15 34 19 93 19 50 0 77 4 85 14 7 8 43 17 89 21
42 4 84 13 92 20 8 7 49 16 90 19 41 4 84 13 95 20 11 7 52 16 90 21 39 4 77
13 85 20 8 7 55 17 104 23 50 6 92 15 96 22 5 8 39 15 84 18 42 2 76 8 76 12
0 13 60 30 105 30 29 0 47 6 60 20 12 13 31 20 56 20 21 0 45 7 53 15 9 9 41
20 73 25 31 5 59 14 62 19 3 4 21 12 39 16 18 4 36 13 38 20 3 7 19 15 35 19
17 3 42 15 56 26 14 11 34 20 44 20 10 0 23 9 29 20 6 11 18 20 28 20 10 0 34
9 55 20 20 11 46 20 57 20 10 0 24 9 30 20 6 12 21 20 35 20 14 0 29 8 35 20
6 11 15 20 20 20 6 0 19 9 30 20 11 11 29 20 40 20 11 0 23 7 27 16 3 8 16 20
29 25 13 4 24 15 24 24 0 8 7 15 15 15 8 0 15 5 15 10 0 6 8 18 18 28 36 37
72 99 72 125 0 14 8 30 18 36 15 9 17 30 17 211 0 181 -2 202 -17 211 -10 6
-18 21 -18 35 0 14 -11 40 -25 58 -14 18 -25 36 -25 40 0 4 -18 24 -40 45 -22
20 -40 43 -40 49 0 7 -7 12 -16 12 -9 0 -27 9 -41 20 -14 11 -34 20 -44 20
-11 0 -19 5 -19 11 0 19 -50 60 -81 66 -16 3 -29 12 -29 19 0 8 -8 14 -19 14
-10 0 -30 11 -45 25 -15 14 -35 25 -45 25 -10 0 -21 9 -24 20 -3 11 -14 20
-25 20 -10 0 -31 9 -45 20 -14 11 -32 20 -40 20 -8 0 -26 9 -40 20 -14 11 -32
20 -41 20 -9 0 -25 9 -36 20 -11 11 -31 20 -45 20 -14 0 -33 9 -42 20 -11 12
-30 20 -49 20 -17 0 -37 7 -44 15 -7 8 -30 18 -52 22 -22 3 -47 14 -56 23 -10
9 -32 20 -50 23 -18 4 -40 13 -47 21 -8 8 -32 17 -54 21 -22 4 -45 13 -51 20
-6 7 -28 16 -50 20 -21 4 -46 13 -57 20 -10 8 -37 15 -60 15 -28 0 -45 5 -51
16 -6 10 -28 18 -58 22 -27 2 -60 13 -73 23 -13 11 -37 19 -52 19 -16 0 -37 8
-47 18 -11 11 -41 22 -73 25 -30 4 -73 14 -96 22 -24 8 -82 18 -130 21 -49 4
-99 12 -113 19 -14 7 -80 16 -147 20 -80 5 -126 12 -133 20 -6 7 -43 16 -83
20 -39 4 -81 13 -92 20 -11 8 -56 17 -100 20 -44 4 -83 12 -87 18 -7 12 -177
25 -338 27 -67 0 -101 5 -114 15 -12 9 -43 15 -80 15 -70 0 -98 12 -78 32 6 6
12 20 12 30 0 10 7 18 15 18 12 0 15 15 15 74 0 41 4 86 10 100 l10 26 199 0
c157 0 205 -3 227 -15 16 -8 54 -15 84 -15 83 0 223 -18 230 -29 3 -6 57 -13
120 -17 70 -4 121 -12 130 -19 8 -7 52 -18 98 -23 51 -6 90 -16 101 -26 10 -9
42 -19 72 -23 30 -3 60 -12 67 -20 7 -7 30 -13 49 -13 20 0 45 -7 55 -16 11
-11 45 -19 89 -23 41 -4 74 -12 79 -20 5 -9 42 -17 100 -22 51 -5 99 -14 108
-21 8 -7 51 -16 94 -19 44 -3 83 -10 86 -16 4 -6 23 -14 42 -17 47 -10 90 -27
90 -36 0 -5 18 -11 40 -15 23 -4 40 -12 40 -20 0 -8 19 -16 50 -20 28 -4 57
-13 65 -21 8 -8 35 -18 60 -23 26 -5 52 -14 58 -20 6 -6 26 -11 45 -11 25 0
35 -5 39 -20 4 -16 14 -20 44 -20 28 0 41 -5 49 -20 6 -11 20 -20 32 -20 11 0
31 -11 44 -25 13 -14 32 -25 42 -25 11 0 25 -7 32 -15 7 -8 18 -15 24 -15 7 0
27 -11 46 -25 19 -14 41 -25 50 -25 10 0 27 -9 40 -20 13 -11 33 -20 44 -20
12 0 27 -9 34 -20 7 -11 21 -20 32 -20 11 0 20 -4 20 -10 0 -5 6 -10 13 -10 7
0 27 -16 46 -35 18 -19 37 -35 42 -35 5 0 9 -7 9 -15 0 -9 9 -15 21 -15 12 0
23 -8 26 -20 3 -11 14 -20 24 -20 11 0 19 -7 19 -15 0 -8 5 -15 11 -15 13 0
69 -58 69 -71 0 -5 9 -18 20 -29 11 -11 20 -29 20 -41 0 -12 8 -23 20 -26 11
-3 20 -14 20 -24 0 -11 7 -19 15 -19 9 0 20 -11 25 -25 5 -14 14 -25 19 -25 5
0 12 -16 15 -35 4 -19 13 -35 20 -35 7 0 19 -18 26 -40 7 -22 19 -45 27 -51
19 -17 19 -229 -1 -229 -8 0 -17 -15 -21 -37 -4 -20 -18 -50 -31 -66 -13 -16
-24 -35 -24 -43 0 -8 -7 -17 -15 -20 -8 -4 -15 -14 -15 -24 0 -29 -11 -50 -26
-50 -8 0 -14 -9 -14 -20 0 -11 -9 -29 -20 -40 -11 -11 -20 -26 -20 -34 0 -8
-9 -18 -20 -21 -11 -3 -20 -15 -20 -25 0 -10 -9 -21 -19 -25 -10 -3 -21 -15
-24 -25 -3 -11 -12 -20 -21 -20 -9 0 -16 -6 -16 -13 0 -15 -44 -57 -60 -57 -5
0 -14 -9 -20 -20 -6 -11 -16 -20 -23 -20 -7 0 -20 -9 -30 -20 -9 -11 -23 -20
-32 -20 -8 0 -22 -11 -31 -25 -9 -14 -23 -25 -31 -25 -8 0 -26 -9 -40 -20 -14
-11 -31 -20 -38 -20 -7 0 -15 -7 -19 -15 -3 -8 -15 -15 -26 -15 -11 0 -29 -9
-39 -19 -10 -10 -33 -22 -50 -26 -17 -4 -34 -12 -38 -19 -5 -7 -28 -16 -52
-19 -24 -3 -47 -10 -50 -15 -3 -6 -34 -14 -69 -18 -43 -4 -67 -12 -75 -25 -7
-10 -26 -21 -42 -25 -17 -4 -38 -15 -48 -25 -10 -11 -30 -19 -45 -19 -15 0
-38 -9 -52 -20 -14 -11 -39 -20 -56 -20 -17 0 -37 -6 -43 -14 -6 -7 -39 -16
-73 -20 -34 -3 -69 -12 -77 -20 -9 -8 -41 -17 -71 -21 -30 -4 -62 -13 -70 -20
-8 -7 -45 -15 -82 -18 -37 -4 -79 -13 -92 -22 -14 -9 -59 -20 -101 -24 -45 -4
-80 -12 -85 -20 -4 -7 -36 -16 -71 -20 -36 -4 -75 -14 -89 -24 -15 -11 -43
-17 -75 -17 -31 0 -60 -6 -74 -17 -23 -16 -185 -35 -290 -34 -24 0 -56 -6 -72
-14 -19 -11 -61 -15 -137 -15 -70 0 -126 -5 -158 -15 -30 -10 -105 -18 -194
-21 -101 -4 -157 -11 -185 -22 -78 -32 -1837 -27 -1878 6 -7 5 -73 12 -147 15
-82 4 -152 12 -179 22 -27 9 -79 15 -140 15 -62 1 -110 6 -136 16 -22 9 -73
20 -114 24 -41 5 -93 15 -115 24 -23 8 -86 16 -142 18 -79 3 -105 7 -118 21
-14 14 -37 17 -127 17 -96 0 -111 2 -129 20 -16 16 -33 20 -83 20 -51 0 -68 4
-81 19 -12 13 -38 22 -73 27 -29 3 -61 13 -69 22 -8 8 -36 17 -62 20 -26 2
-55 11 -64 19 -10 9 -46 17 -85 21 -42 3 -71 10 -76 18 -4 8 -23 14 -42 14
-24 0 -38 6 -45 20 -7 13 -21 20 -41 20 -22 0 -32 5 -36 20 -4 15 -14 20 -37
20 -22 0 -40 8 -56 25 -13 14 -31 25 -41 25 -9 0 -22 7 -29 15 -7 8 -27 17
-46 21 -19 3 -34 12 -34 20 0 8 -6 14 -12 14 -7 0 -26 11 -42 25 -16 14 -35
25 -43 25 -7 0 -16 7 -19 15 -4 8 -12 15 -19 15 -7 0 -24 9 -38 20 -14 11 -31
20 -38 20 -6 0 -27 11 -45 25 -18 14 -40 25 -48 25 -9 0 -16 7 -16 16 0 8 -13
20 -29 25 -16 6 -32 17 -35 25 -3 8 -14 14 -25 14 -11 0 -25 9 -31 20 -6 11
-15 20 -20 20 -12 0 -60 48 -60 60 0 6 -5 10 -11 10 -13 0 -64 53 -73 75 -3 8
-12 15 -21 15 -8 0 -15 7 -15 15 0 9 -7 18 -15 21 -8 4 -15 12 -15 18 0 7 -11
23 -25 36 -14 13 -25 31 -25 40 0 10 -8 28 -19 41 -10 13 -21 41 -25 61 -4 21
-13 41 -20 45 -7 5 -16 30 -20 57 -3 27 -13 57 -22 67 -13 14 -15 44 -12 183
2 103 7 170 14 174 5 4 16 21 23 39 7 17 19 34 27 37 8 3 14 15 14 26 0 11 5
20 10 20 6 0 16 11 22 25 6 14 17 25 25 25 7 0 16 7 19 15 3 8 14 17 25 20 10
4 19 13 19 21 0 8 9 14 20 14 13 0 20 7 20 20 0 13 7 20 20 20 13 0 20 7 20
20 0 11 5 20 10 20 6 0 28 17 49 38 20 20 51 45 67 54 53 32 69 43 77 56 4 6
14 12 21 12 7 0 24 8 37 19 13 10 39 22 58 26 19 4 41 14 49 21 7 8 22 14 32
14 11 0 31 11 46 25 15 14 36 25 48 25 12 0 27 9 34 20 8 13 23 20 42 20 19 0
30 5 30 14 0 14 29 26 66 26 12 0 24 7 28 15 3 8 15 15 27 15 12 0 36 9 53 19
17 11 48 23 69 26 21 4 41 13 43 20 3 7 27 15 53 19 27 3 58 15 70 25 11 10
45 22 73 25 29 4 55 12 59 17 3 5 30 12 60 16 30 3 68 14 85 24 19 12 50 19
79 19 30 0 57 7 73 19 18 12 50 20 95 23 40 2 72 9 76 17 4 6 34 15 67 18 32
3 62 11 66 17 4 5 43 13 88 17 55 5 88 13 100 24 11 10 41 20 67 22 26 3 53
12 60 20 6 8 47 20 95 27 45 7 92 17 103 23 11 6 81 14 154 17 78 5 146 13
160 21 18 9 88 15 216 18 183 5 315 14 324 23 2 2 57 4 122 4 102 0 118 -2
124 -17z m110 -83 c3 -5 14 -10 25 -10 10 0 20 -7 23 -14 3 -8 24 -20 46 -26
23 -6 41 -15 41 -19 0 -5 21 -14 48 -21 26 -7 52 -17 58 -22 7 -5 43 -11 80
-14 38 -3 83 -12 101 -20 32 -14 134 -19 147 -7 9 9 27 13 105 23 35 4 66 12
70 17 3 6 28 13 55 17 27 3 57 12 65 20 19 17 81 35 99 29 26 -9 12 -56 -26
-92 -21 -20 -41 -44 -45 -53 -4 -10 -13 -18 -22 -18 -8 0 -15 -9 -15 -19 0
-11 -9 -22 -20 -26 -12 -4 -22 -19 -26 -41 -3 -19 -10 -34 -14 -34 -34 0 -41
-210 -7 -234 9 -7 17 -21 17 -30 0 -9 10 -27 23 -39 13 -12 26 -30 30 -39 3
-10 14 -18 22 -18 11 0 15 -7 13 -21 -4 -26 -62 -50 -138 -56 -30 -3 -61 -10
-68 -16 -23 -19 -161 -21 -228 -3 -34 9 -94 16 -132 16 -39 0 -83 5 -99 12
-15 6 -55 17 -87 22 -64 12 -83 31 -42 42 16 4 26 13 26 24 0 29 11 50 26 50
8 0 14 4 14 10 0 5 12 20 27 34 25 24 26 29 26 129 0 76 -5 112 -16 133 -9 16
-23 44 -32 62 -9 18 -22 35 -30 39 -8 3 -15 11 -15 19 0 7 -8 19 -18 26 -10 7
-21 21 -25 31 -3 9 -13 17 -22 17 -8 0 -15 7 -15 15 0 8 -7 15 -15 15 -9 0
-19 8 -22 18 -4 9 -12 21 -20 25 -7 4 -13 19 -13 32 0 25 14 33 25 15z m96
-277 c21 -20 29 -37 29 -61 0 -19 6 -35 15 -38 8 -3 17 -25 21 -49 5 -35 2
-51 -15 -78 -12 -19 -21 -42 -21 -51 0 -9 -7 -16 -15 -16 -8 0 -21 -16 -30
-35 -9 -19 -23 -39 -31 -46 -8 -6 -14 -18 -14 -27 0 -11 -9 -13 -41 -9 -22 3
-48 12 -57 20 -9 8 -28 18 -42 22 -14 4 -32 13 -40 20 -8 7 -26 16 -40 20 -49
15 -80 47 -80 82 0 18 5 33 11 33 5 0 14 12 20 28 9 26 151 132 177 132 6 0
17 8 24 19 7 10 27 21 45 25 17 4 34 14 37 22 8 20 14 18 47 -13z m887 -33
c23 -10 58 -22 76 -26 19 -3 37 -12 40 -19 2 -7 21 -15 40 -19 22 -4 36 -13
36 -22 0 -8 7 -17 15 -20 20 -8 20 -74 0 -100 -8 -10 -15 -27 -15 -36 0 -22
-39 -58 -62 -58 -10 0 -18 -6 -18 -13 0 -6 -15 -19 -32 -26 -18 -8 -39 -21
-46 -28 -17 -17 -31 -17 -38 2 -3 8 -21 23 -40 34 -19 11 -39 32 -44 46 -5 14
-16 25 -23 25 -10 0 -16 19 -21 63 -9 91 2 156 33 189 31 32 43 33 99 8z
m4260 -1206 c7 -2 10 -9 7 -15 -4 -6 2 -13 14 -16 12 -3 21 -12 21 -20 0 -8 9
-17 20 -20 15 -4 20 -14 20 -39 0 -22 -4 -33 -12 -31 -8 1 -17 -15 -22 -40 -9
-38 -13 -43 -38 -43 -18 0 -31 -7 -39 -22 -11 -21 -12 -21 -26 -2 -11 13 -17
15 -20 7 -3 -8 -25 -13 -59 -13 -30 0 -54 -4 -54 -10 0 -5 7 -10 15 -10 8 0
15 -4 15 -10 0 -6 -31 -10 -74 -10 -65 0 -74 -2 -79 -20 -4 -17 -14 -20 -66
-20 -59 0 -61 -1 -55 -23 5 -24 4 -24 -75 -25 l-80 -2 -6 54 c-4 30 -3 74 1
98 5 23 8 50 7 59 -2 9 6 19 17 22 17 4 20 14 20 55 0 52 15 76 31 51 6 -10 9
-11 9 -1 0 8 22 12 78 12 53 0 72 3 62 10 -8 5 -34 10 -57 10 -59 0 -54 18 5
22 62 4 403 -2 420 -8z m-9378 -26 c0 -9 5 -20 10 -23 6 -3 10 -40 10 -81 l0
-74 -30 0 c-23 0 -30 4 -30 20 0 18 -7 20 -61 20 -58 0 -61 1 -57 23 4 20 1
22 -39 18 -38 -3 -43 -1 -43 18 0 18 -6 21 -41 21 -36 0 -41 2 -36 20 3 11 2
18 -2 15 -5 -2 -6 6 -4 18 4 22 7 22 164 22 143 0 159 -2 159 -17z m240 -43
c0 -11 11 -15 40 -15 l40 0 0 -120 c0 -96 -3 -120 -14 -120 -7 0 -16 9 -19 20
-4 17 -14 20 -66 20 -59 0 -61 1 -61 26 0 25 -2 26 -55 22 -64 -4 -65 -2 -65
110 l0 72 100 0 c82 0 100 -3 100 -15z"/>
</g>
</svg>
