<?xml version="1.0" standalone="no"?>
<!DOCTYPE svg PUBLIC "-//W3C//DTD SVG 20010904//EN"
 "http://www.w3.org/TR/2001/REC-SVG-20010904/DTD/svg10.dtd">
<svg version="1.0" xmlns="http://www.w3.org/2000/svg"
 width="862.000000pt" height="1125.000000pt" viewBox="0 0 862.000000 1125.000000"
 preserveAspectRatio="xMidYMid meet">
<metadata>
Created by potrace 1.16, written by Peter Selinger 2001-2019
</metadata>
<g transform="translate(0.000000,1125.000000) scale(0.100000,-0.100000)"
fill="#000000" stroke="none">
<path d="M7805 10343 c-77 -4 -136 -14 -131 -21 2 -4 -7 -8 -21 -9 -14 0 -42
-8 -62 -16 -20 -8 -144 -50 -276 -92 -132 -42 -256 -83 -275 -90 -19 -7 -96
-32 -170 -55 -74 -23 -151 -48 -170 -55 -82 -30 -287 -97 -313 -102 l-29 -5 3
121 c1 69 -2 126 -7 131 -7 7 -868 9 -2407 8 l-2397 -3 -3 -4333 c-1 -2882 1
-4332 8 -4333 6 0 91 0 190 1 125 1 182 5 187 13 4 7 8 1855 8 4108 0 2253 3
4104 6 4113 6 15 165 16 1918 16 1051 1 1940 2 1976 3 50 2 59 1 39 -7 -23 -8
-27 -16 -33 -69 -3 -33 -6 -1874 -6 -4092 0 -3214 3 -4035 13 -4042 6 -6 30
-14 52 -18 22 -3 132 -37 245 -74 200 -66 556 -183 1085 -356 143 -47 268 -89
277 -95 10 -5 65 -26 123 -45 86 -28 122 -35 186 -35 l79 0 0 4684 c0 2576 -3
4697 -6 4714 -7 34 -18 38 -89 35z m55 -4714 l0 -4679 -32 -1 c-18 0 -45 -2
-60 -4 l-28 -4 0 2165 0 2164 25 -16 c24 -16 27 -15 45 1 17 15 36 89 34 130
-3 42 -19 97 -34 110 -26 24 -58 5 -63 -38 -2 -17 -5 1047 -7 2366 -2 1318 -4
2416 -5 2440 l0 42 55 5 c30 3 58 4 63 2 4 -2 7 -2109 7 -4683z m-155 -4668
c-3 -3 -20 2 -38 11 -18 9 -108 41 -202 71 -155 50 -665 217 -1305 427 -135
44 -251 80 -258 80 -10 0 -12 819 -10 4081 l3 4081 85 28 c47 15 182 60 300
98 118 39 404 132 635 207 465 152 665 216 740 238 l50 14 3 -4665 c1 -2566 0
-4668 -3 -4671z m-1373 9042 c-2 -65 -7 -120 -10 -123 -4 -3 -54 -21 -112 -39
-58 -18 -121 -39 -140 -46 -75 -27 -98 -30 -190 -27 -52 2 -969 6 -2037 8
l-1943 4 0 -22 c0 -13 0 -1869 0 -4125 l0 -4101 -37 -7 c-21 -3 -95 -5 -164
-3 l-126 3 3 45 c1 25 3 1959 3 4298 l1 4252 2378 0 2377 0 -3 -117z"/>
<path d="M7185 9376 c-51 -17 -311 -98 -440 -137 -197 -60 -265 -83 -265 -91
0 -4 10 -4 23 1 12 4 56 18 97 31 41 12 84 26 95 31 28 11 464 143 513 156
l22 5 0 -1945 c0 -1070 -3 -1948 -7 -1950 -5 -3 -71 -8 -147 -12 -163 -8 -231
-27 -231 -66 0 -43 42 -54 223 -57 l162 -3 0 -73 c0 -41 -3 -88 -6 -106 l-7
-32 -191 7 c-105 4 -199 9 -208 11 -10 1 -20 -1 -23 -7 -4 -5 26 -9 72 -10 43
0 87 -2 98 -4 11 -2 73 -5 137 -7 65 -2 118 -7 118 -12 0 -5 3 -6 6 -3 9 9 11
35 13 145 l1 92 65 0 65 0 0 -34 c0 -41 50 -102 76 -92 9 3 20 6 24 6 25 0 60
137 60 230 -1 74 -15 140 -31 151 -42 28 -118 -40 -119 -105 0 -38 -1 -38 -31
-32 -17 3 -49 6 -70 6 l-39 0 0 1960 c0 1078 -3 1960 -7 1959 -5 0 -26 -6 -48
-13z"/>
<path d="M6360 9118 c-36 -11 -91 -27 -122 -36 -32 -9 -58 -20 -58 -25 0 -4 5
-5 10 -2 7 4 10 -641 11 -1927 1 -1063 5 -1946 9 -1963 4 -16 8 -24 9 -16 1
10 16 12 66 8 36 -2 65 0 65 4 0 5 -28 9 -62 9 l-63 0 2 1933 c2 1062 3 1940
3 1949 0 11 11 20 28 24 42 10 182 56 182 60 0 6 -10 4 -80 -18z"/>
<path d="M6233 3275 l2 -1050 2 1033 3 1033 43 -5 c112 -14 151 -16 142 -7 -6
5 -48 12 -95 16 -48 3 -88 11 -92 18 -4 7 -7 -460 -5 -1038z"/>
<path d="M6540 4265 c58 -7 143 -16 190 -20 47 -3 123 -10 170 -15 47 -5 121
-12 165 -14 44 -3 117 -11 163 -18 l82 -12 1 -1141 c1 -627 0 -1147 -1 -1154
-1 -13 1 -13 14 -2 15 12 16 122 14 1170 l-3 1156 -31 -3 c-29 -3 -505 36
-701 58 -50 5 -109 9 -130 9 -21 -1 9 -7 67 -14z"/>
<path d="M6220 2180 c0 -13 -22 -6 260 -81 129 -34 349 -93 489 -131 140 -38
256 -66 259 -63 9 9 -6 17 -55 31 -27 7 -106 28 -178 47 -71 19 -175 47 -230
62 -55 14 -143 38 -195 51 -52 14 -128 34 -170 46 -41 11 -88 24 -105 28 -16
4 -40 10 -52 14 -15 5 -23 3 -23 -4z"/>
</g>
</svg>
