<?xml version="1.0" standalone="no"?>
<!DOCTYPE svg PUBLIC "-//W3C//DTD SVG 20010904//EN"
 "http://www.w3.org/TR/2001/REC-SVG-20010904/DTD/svg10.dtd">
<svg version="1.0" xmlns="http://www.w3.org/2000/svg"
 width="1277.000000pt" height="654.000000pt" viewBox="0 0 1277.000000 654.000000"
 preserveAspectRatio="xMidYMid meet">
<metadata>
Created by potrace 1.16, written by Peter Selinger 2001-2019
</metadata>
<g transform="translate(0.000000,654.000000) scale(0.100000,-0.100000)"
fill="#000000" stroke="none">
<path d="M1780 5350 c-8 -5 -25 -10 -38 -10 -42 0 -186 -96 -198 -132 -3 -10
-9 -18 -13 -18 -15 0 -49 -86 -49 -122 0 -21 8 -48 17 -60 10 -13 20 -30 23
-39 4 -9 38 -24 89 -38 100 -26 246 -70 274 -82 11 -4 54 -18 95 -30 41 -12
80 -25 85 -29 6 -5 36 -16 68 -25 32 -9 70 -23 85 -31 15 -8 32 -14 38 -14 5
0 34 -11 62 -25 29 -14 57 -25 64 -25 6 0 19 -6 27 -13 9 -8 35 -19 58 -26 23
-6 48 -17 55 -24 7 -7 29 -19 48 -26 19 -8 107 -49 195 -91 88 -43 176 -85
195 -94 19 -9 42 -21 50 -26 8 -5 47 -24 85 -42 39 -17 72 -36 73 -40 2 -4 8
-8 14 -8 16 0 143 -62 146 -72 2 -4 11 -8 20 -9 10 0 31 -9 47 -19 17 -11 53
-31 80 -45 75 -39 113 -61 127 -73 7 -5 45 -26 83 -46 39 -20 88 -48 110 -61
22 -14 47 -28 55 -32 8 -3 26 -15 39 -25 47 -36 112 -58 171 -58 48 0 64 -5
99 -31 42 -30 44 -41 10 -69 -3 -3 -27 -49 -52 -103 -48 -100 -78 -203 -77
-266 0 -20 0 -79 0 -131 -1 -125 8 -184 31 -214 10 -13 23 -36 29 -50 7 -20
15 -26 28 -22 13 5 22 -3 33 -28 11 -24 13 -38 6 -45 -19 -19 81 -236 133
-290 14 -14 37 -42 51 -61 15 -20 37 -46 50 -57 13 -12 44 -41 69 -63 46 -42
148 -112 210 -145 108 -56 311 -155 318 -155 5 0 26 -8 48 -19 21 -10 82 -33
134 -51 52 -18 100 -36 105 -40 6 -4 24 -10 40 -13 27 -5 76 -17 240 -62 28
-8 70 -17 95 -20 24 -4 49 -9 55 -13 11 -7 70 -17 190 -32 44 -6 103 -14 130
-20 140 -26 187 -32 390 -45 258 -18 821 -19 881 -2 10 3 79 9 153 12 74 4
146 11 160 16 14 6 41 8 59 4 18 -3 47 -2 65 4 18 5 68 15 112 21 153 21 399
72 485 101 14 4 41 11 60 14 19 3 55 12 80 20 25 7 72 21 105 30 33 9 83 25
110 36 28 10 56 19 64 19 7 0 27 6 44 14 18 8 50 20 72 26 74 23 332 129 365
151 8 5 38 20 65 34 64 31 170 91 204 114 14 10 33 21 41 24 25 11 136 91 198
143 20 16 50 40 67 53 94 71 339 307 396 382 15 19 47 59 70 89 130 164 156
233 144 384 -6 81 -11 101 -37 146 -4 8 -12 24 -17 35 -15 32 -84 120 -116
148 -17 13 -47 41 -69 61 -61 58 -164 125 -326 212 -51 27 -196 92 -235 104
-22 7 -48 16 -57 21 -9 5 -45 18 -80 29 -35 12 -67 26 -72 31 -6 5 -21 9 -34
9 -13 0 -33 5 -45 11 -27 15 -198 66 -307 91 -47 11 -141 33 -210 50 -68 16
-147 32 -175 35 -27 2 -63 10 -79 16 -16 6 -46 12 -65 14 -139 12 -167 16
-176 23 -12 10 -198 27 -380 36 -71 3 -143 7 -160 10 -221 30 -912 21 -1310
-17 -55 -5 -129 -12 -165 -15 -36 -3 -101 -10 -145 -15 -44 -5 -98 -12 -120
-14 -21 -3 -53 -9 -70 -14 -16 -5 -79 -16 -140 -25 -124 -19 -197 -32 -270
-51 -27 -7 -84 -21 -125 -30 -209 -48 -569 -172 -715 -247 -71 -37 -245 -136
-262 -150 -33 -27 -87 26 -89 88 -1 24 -4 54 -8 67 -5 23 -76 84 -174 151 -26
18 -67 47 -92 64 -63 45 -178 124 -209 143 -192 119 -260 160 -336 200 -107
58 -573 289 -581 289 -3 0 -20 6 -37 14 -75 34 -271 107 -377 141 -63 20 -134
45 -158 56 -23 10 -49 19 -57 19 -9 0 -57 13 -108 30 -139 45 -329 97 -357 98
-14 0 -38 3 -55 6 -16 3 -37 1 -45 -4z m-40 -181 c15 -7 20 -14 12 -17 -28 -9
-9 -21 31 -19 76 2 230 -12 237 -23 8 -13 70 -1 70 14 0 6 18 19 39 28 35 16
43 16 68 3 18 -9 41 -12 65 -8 31 4 38 2 38 -11 0 -17 40 -31 70 -23 11 3 21
-1 24 -9 3 -9 21 -14 46 -14 29 0 40 -4 40 -15 0 -11 12 -15 48 -15 26 -1 58
-7 72 -15 14 -8 21 -14 16 -15 -18 0 38 -40 58 -41 68 -2 131 -23 140 -44 3
-8 22 -17 43 -21 20 -4 44 -13 52 -21 8 -8 23 -12 34 -9 12 3 28 -5 46 -22 27
-28 116 -62 164 -62 22 0 30 -6 39 -30 6 -19 19 -32 34 -36 13 -3 24 -10 24
-14 0 -4 9 -10 21 -13 12 -3 18 -10 14 -16 -3 -6 2 -11 12 -11 11 0 28 -7 39
-15 10 -8 27 -15 37 -15 9 0 17 -4 17 -10 0 -5 11 -10 25 -10 16 0 25 -6 25
-15 0 -9 9 -15 24 -15 41 0 41 -43 0 -91 -8 -8 -17 -36 -20 -61 -6 -40 -4 -46
15 -51 13 -3 21 -13 21 -26 0 -18 4 -20 33 -14 17 3 29 2 25 -2 -5 -5 1 -14
11 -22 13 -8 17 -20 14 -34 -6 -21 -4 -21 40 -15 42 7 45 6 40 -14 -5 -20 -4
-21 47 -25 14 -1 35 -7 45 -13 11 -5 33 -8 48 -5 20 4 27 1 27 -11 0 -12 11
-15 52 -14 29 0 67 7 86 15 25 10 37 11 47 3 9 -7 20 -8 32 -3 20 10 108 -8
97 -20 -4 -4 5 -7 20 -7 23 0 27 -4 24 -22 -2 -19 -10 -24 -45 -26 -30 -2 -43
-8 -43 -18 0 -10 -7 -13 -25 -8 -22 5 -25 2 -31 -32 -7 -45 -34 -69 -87 -79
-30 -6 -37 -4 -37 9 0 9 -5 16 -11 16 -6 0 -23 9 -39 20 -15 11 -37 18 -48 15
-14 -2 -27 5 -40 21 -11 16 -29 26 -47 27 -46 3 -114 39 -115 60 0 13 -6 17
-22 15 -23 -3 -61 22 -58 39 3 16 -45 20 -62 5 -17 -14 -18 -13 -18 17 0 27
-4 32 -29 37 -19 4 -28 11 -24 19 3 9 -2 12 -15 8 -14 -3 -22 1 -26 14 -4 11
-14 20 -24 19 -44 0 -72 5 -71 12 4 23 -4 29 -37 25 -20 -2 -33 0 -30 6 3 5
-1 14 -9 21 -8 7 -15 9 -15 4 0 -4 -10 2 -22 13 -25 22 -109 56 -130 52 -7 -2
-29 3 -50 11 -25 9 -34 18 -30 28 6 18 -23 42 -51 42 -11 0 -26 8 -33 17 -9
13 -26 18 -63 18 -33 0 -57 6 -71 17 -11 10 -20 15 -20 11 0 -4 -6 1 -12 10
-8 9 -30 17 -51 19 -27 1 -36 6 -32 16 4 10 -5 12 -40 6 -39 -5 -44 -4 -39 10
4 11 1 16 -10 16 -9 0 -16 8 -16 19 0 31 -27 51 -59 45 -18 -4 -33 0 -44 10
-8 9 -32 16 -51 16 -25 0 -36 4 -36 15 0 10 -10 15 -27 15 -46 0 -75 11 -69
26 3 8 1 14 -5 14 -5 0 -26 7 -47 16 -20 9 -61 18 -90 20 -76 5 -166 23 -170
34 -2 6 -10 10 -18 10 -8 0 -26 12 -39 26 -20 21 -31 25 -54 21 -24 -5 -29 -3
-24 9 5 13 -3 15 -44 13 -27 -1 -54 1 -61 5 -7 4 -21 4 -32 1 -16 -5 -20 -2
-20 20 0 18 -7 28 -25 35 l-26 10 23 32 c24 34 58 65 92 85 17 10 24 9 36 -6
8 -10 26 -24 40 -32z m5966 -691 c5 -3 68 -9 139 -13 117 -6 226 -16 325 -30
104 -15 189 -27 220 -30 50 -5 158 -23 205 -35 77 -20 165 -38 235 -49 25 -4
59 -15 76 -24 17 -9 41 -13 52 -10 12 3 42 -4 67 -16 25 -11 50 -21 57 -21 6
0 25 -4 42 -10 239 -77 376 -126 390 -140 5 -5 15 -10 22 -10 12 0 193 -81
229 -102 11 -7 40 -23 64 -35 25 -13 52 -29 60 -36 9 -8 38 -26 65 -41 26 -16
56 -35 65 -45 9 -9 37 -34 62 -56 37 -33 112 -114 147 -160 22 -27 57 -154 56
-195 -5 -100 -13 -125 -61 -190 -84 -115 -222 -244 -303 -285 -19 -10 -37 -21
-40 -25 -9 -12 -151 -85 -260 -132 -166 -73 -174 -73 -138 8 12 27 22 73 23
102 3 55 -22 153 -43 174 -7 7 -12 16 -12 22 0 10 -3 13 -80 94 -28 28 -54 52
-59 52 -4 0 -16 8 -27 18 -21 19 -56 42 -107 71 -19 10 -43 24 -53 30 -16 9
-129 61 -199 91 -11 5 -31 12 -45 15 -14 4 -41 14 -60 23 -19 9 -53 22 -75 28
-22 7 -78 24 -125 39 -112 36 -328 92 -415 110 -87 17 -107 20 -225 40 -52 9
-115 20 -140 25 -25 5 -106 12 -180 16 -74 3 -137 7 -140 9 -15 10 -298 19
-550 19 -252 -1 -347 -4 -585 -19 -128 -8 -324 -30 -425 -46 -36 -6 -78 -12
-95 -14 -16 -1 -70 -10 -120 -20 -49 -9 -106 -19 -125 -22 -64 -9 -286 -76
-400 -120 -103 -39 -325 -151 -372 -186 -24 -18 -63 -47 -88 -64 -55 -39 -129
-106 -144 -131 -72 -120 -100 -154 -123 -145 -66 24 -210 175 -254 264 -84
170 -81 215 25 379 84 130 283 293 481 393 92 47 229 107 245 107 6 0 24 7 38
15 40 21 168 62 299 95 63 16 119 32 124 36 6 3 34 10 62 14 29 5 86 16 127
25 41 10 98 19 126 21 28 2 62 5 75 8 13 2 42 7 64 10 22 4 56 11 75 16 56 14
140 29 205 36 33 4 74 8 90 10 36 4 239 23 315 29 30 2 101 6 158 8 56 2 104
6 107 9 8 7 839 3 851 -4z m-356 -753 c220 -14 308 -21 415 -35 44 -6 118 -15
165 -19 47 -5 101 -14 120 -20 19 -6 51 -13 70 -15 19 -3 69 -12 110 -22 41
-9 82 -17 90 -19 8 -1 22 -5 30 -7 8 -3 35 -11 60 -17 62 -16 358 -111 395
-126 17 -7 66 -27 110 -45 44 -17 89 -37 100 -43 11 -6 50 -25 87 -44 212
-103 345 -255 349 -397 2 -90 -38 -202 -79 -216 -15 -6 -34 -14 -42 -18 -46
-26 -345 -107 -540 -146 -160 -32 -428 -78 -485 -82 -22 -2 -58 -6 -80 -10
-49 -8 -66 -10 -180 -18 -49 -4 -107 -12 -128 -17 -21 -6 -46 -7 -57 -4 -10 3
-56 1 -102 -5 -202 -25 -1041 -11 -1203 21 -28 5 -84 10 -125 10 -41 1 -82 5
-91 10 -8 4 -74 15 -145 24 -219 26 -409 61 -714 131 -36 8 -74 17 -85 19 -11
2 -46 13 -77 24 -32 12 -65 21 -74 21 -9 0 -30 6 -47 14 -18 8 -57 22 -87 31
-30 9 -73 25 -95 35 -22 9 -51 21 -65 25 -29 8 -67 25 -166 71 -39 19 -82 38
-95 44 -57 25 -105 60 -113 83 -20 54 133 246 257 323 23 15 44 30 47 34 7 10
180 104 217 118 27 10 157 63 198 81 122 52 510 134 800 168 109 12 119 13
203 18 45 2 86 6 91 9 4 3 97 8 207 11 109 4 201 8 203 10 4 5 437 -4 551 -10z"/>
<path d="M6697 3294 c-3 -3 -27 -7 -53 -8 -119 -9 -305 -48 -419 -88 -81 -29
-174 -89 -212 -136 -42 -52 -48 -88 -24 -144 64 -150 388 -266 836 -299 318
-23 715 18 910 96 98 39 170 83 211 129 38 41 44 54 44 92 0 107 -122 205
-334 268 -99 29 -245 63 -306 70 -25 3 -83 10 -130 15 -82 10 -514 14 -523 5z
m456 -44 c218 -19 381 -51 521 -102 187 -69 288 -161 257 -235 -49 -119 -264
-204 -616 -243 -97 -10 -450 -15 -510 -6 -16 2 -55 7 -85 10 -50 5 -102 13
-200 31 -19 4 -71 16 -115 27 -273 69 -411 183 -359 294 20 41 105 100 194
132 62 24 78 28 180 51 199 46 483 61 733 41z"/>
</g>
</svg>
