<?xml version="1.0" standalone="no"?>
<!DOCTYPE svg PUBLIC "-//W3C//DTD SVG 20010904//EN"
 "http://www.w3.org/TR/2001/REC-SVG-20010904/DTD/svg10.dtd">
<svg version="1.0" xmlns="http://www.w3.org/2000/svg"
 width="1008.000000pt" height="1231.000000pt" viewBox="0 0 1008.000000 1231.000000"
 preserveAspectRatio="xMidYMid meet">
<metadata>
Created by potrace 1.16, written by Peter Selinger 2001-2019
</metadata>
<g transform="translate(0.000000,1231.000000) scale(0.100000,-0.100000)"
fill="#000000" stroke="none">
<path d="M7304 10636 c-14 -11 -19 -25 -17 -60 2 -65 -17 -77 -70 -47 -69 40
-150 27 -206 -32 -20 -23 -23 -32 -16 -73 4 -26 13 -57 20 -68 7 -12 16 -36
20 -53 6 -29 4 -33 -14 -33 -12 0 -21 -4 -21 -8 0 -5 -22 -31 -49 -60 -50 -52
-111 -138 -111 -155 0 -5 -24 -48 -52 -96 -66 -107 -66 -107 -107 -178 -19
-32 -42 -69 -52 -83 -9 -14 -41 -63 -71 -110 -183 -284 -235 -360 -277 -406
-25 -28 -71 -90 -101 -137 -30 -48 -73 -115 -95 -149 l-40 -63 -100 -22 c-55
-12 -124 -23 -154 -23 -60 0 -259 -41 -336 -69 -27 -10 -84 -28 -125 -41 -77
-23 -180 -70 -305 -140 -38 -22 -79 -43 -90 -49 -12 -5 -27 -17 -35 -26 -8 -9
-24 -21 -37 -26 -18 -7 -113 -134 -113 -151 0 -18 -530 -880 -601 -978 -22
-30 -49 -73 -61 -95 -11 -22 -31 -49 -44 -60 -12 -11 -40 -54 -62 -95 -37 -73
-107 -185 -189 -300 -42 -59 -98 -153 -158 -265 -21 -38 -77 -137 -125 -220
-48 -82 -104 -184 -126 -225 -21 -41 -44 -82 -51 -90 -27 -31 -60 -75 -67 -90
-4 -8 -17 -31 -29 -51 -12 -20 -39 -65 -60 -100 -20 -35 -55 -89 -77 -119 -54
-75 -120 -175 -155 -235 -44 -77 -115 -179 -131 -188 -16 -9 -18 -50 -4 -77 7
-13 5 -24 -9 -41 -10 -13 -26 -37 -35 -54 -9 -16 -25 -43 -36 -60 -11 -16 -27
-43 -36 -60 -9 -16 -23 -35 -30 -43 -8 -7 -14 -18 -14 -23 0 -5 -16 -32 -35
-59 -19 -27 -35 -53 -35 -56 0 -12 -63 -104 -72 -104 -4 0 -8 -7 -8 -15 0 -8
-9 -23 -20 -32 -11 -10 -20 -23 -20 -30 0 -7 -9 -21 -20 -30 -11 -10 -20 -25
-20 -35 0 -9 -9 -22 -20 -28 -11 -6 -20 -18 -20 -27 0 -9 -6 -24 -13 -32 -7
-9 -24 -41 -37 -71 -23 -51 -73 -140 -128 -229 -12 -20 -27 -45 -32 -56 -6
-11 -16 -29 -22 -39 -18 -28 -81 -128 -93 -148 -5 -9 -27 -45 -48 -80 -21 -35
-52 -85 -70 -113 -30 -47 -31 -55 -29 -130 2 -50 8 -85 16 -95 8 -8 26 -53 41
-100 15 -47 31 -92 36 -100 5 -8 16 -29 24 -46 7 -17 21 -36 29 -44 9 -7 16
-17 16 -22 0 -6 12 -25 28 -44 15 -18 41 -51 57 -74 171 -235 339 -370 868
-699 33 -20 93 -58 136 -86 42 -27 87 -56 101 -63 14 -7 39 -21 55 -32 17 -11
37 -22 45 -26 58 -23 90 -34 125 -45 22 -6 51 -16 63 -20 90 -35 189 -51 347
-59 94 -5 181 -13 194 -18 24 -9 96 0 136 18 11 4 28 11 37 14 10 3 33 29 52
58 19 29 57 80 85 113 50 60 119 164 284 429 49 77 97 150 108 162 10 11 19
25 19 31 0 5 9 18 20 28 11 10 20 24 20 31 0 7 7 17 15 21 13 8 134 187 236
350 38 60 83 130 109 168 8 12 24 35 35 51 11 16 26 34 33 39 7 6 18 20 25 32
7 11 29 45 49 74 44 65 188 302 373 614 75 127 140 237 145 245 5 8 27 44 47
78 21 35 46 76 55 90 10 15 27 43 38 62 11 19 28 47 38 61 9 15 35 57 57 93
22 37 45 75 50 84 6 9 22 37 35 61 32 56 32 56 121 191 42 63 88 135 103 160
42 69 48 80 89 143 20 32 37 60 37 62 0 2 24 39 53 82 29 43 58 90 64 106 7
15 17 27 23 27 5 0 10 7 10 15 0 8 11 25 25 37 14 12 25 27 25 33 0 7 9 20 20
30 11 10 20 22 20 26 0 4 33 56 73 116 40 59 108 167 151 238 44 72 89 146
101 165 13 19 39 66 59 104 20 38 40 74 45 80 5 6 12 23 16 39 4 15 11 27 15
27 4 0 13 12 19 28 6 15 22 45 36 67 13 22 27 47 31 55 3 8 20 43 36 77 l30
62 -1 318 c0 343 1 331 -62 538 -37 120 -65 195 -96 254 -13 24 -23 51 -23 60
0 9 -7 25 -15 35 -8 11 -15 28 -15 38 0 9 -9 22 -20 28 -11 6 -20 18 -20 28 0
9 45 91 100 182 69 113 99 171 96 185 -4 14 11 47 43 95 26 41 67 111 91 155
23 44 48 86 54 94 6 7 34 53 61 102 28 49 96 167 153 263 56 96 112 194 123
218 11 24 24 50 29 58 4 8 17 33 28 55 14 29 25 39 38 36 51 -9 117 -1 160 19
37 18 51 32 67 69 17 39 18 52 9 91 -6 25 -13 62 -17 82 -3 23 -14 42 -25 48
-24 13 -26 39 -5 66 22 29 18 54 -16 104 -27 41 -47 56 -154 116 -92 51 -421
260 -474 301 -93 71 -154 113 -166 113 -6 0 -20 -6 -31 -14z m160 -206 c36
-27 86 -61 110 -75 25 -15 48 -34 51 -43 8 -24 269 -182 300 -182 18 0 28 -7
35 -25 5 -14 25 -31 45 -39 36 -15 47 -42 20 -52 -14 -6 -239 125 -524 303
-97 60 -127 85 -134 107 -8 24 -6 32 9 43 10 7 19 13 20 13 2 0 32 -22 68 -50z
m-230 -55 c48 -46 112 -91 306 -212 140 -87 389 -233 450 -263 25 -13 48 -27
52 -33 3 -6 -3 -30 -15 -53 -27 -57 -15 -68 24 -21 31 38 49 41 49 8 0 -33
-35 -65 -74 -68 -29 -1 -36 2 -36 17 0 13 -15 23 -57 36 -73 22 -323 166 -323
186 0 5 -11 13 -25 18 -14 5 -25 13 -25 18 0 8 -21 23 -155 107 -27 17 -63 40
-80 51 -36 23 -51 32 -102 62 -33 20 -93 97 -93 120 0 14 40 72 49 72 5 0 30
-20 55 -45z m-101 -221 c18 -9 36 -23 40 -30 4 -8 15 -14 23 -14 8 0 30 -15
49 -34 19 -19 64 -52 101 -73 70 -41 72 -42 185 -118 41 -27 124 -79 184 -115
106 -64 110 -68 113 -103 2 -27 -1 -39 -12 -43 -9 -3 -16 -15 -16 -25 0 -11
-9 -27 -20 -36 -11 -10 -20 -23 -20 -31 0 -12 -147 -270 -217 -379 -18 -29
-33 -55 -33 -58 0 -3 -24 -45 -53 -93 -29 -48 -56 -94 -60 -102 -16 -33 -72
-129 -118 -202 -27 -42 -49 -88 -49 -101 0 -14 -7 -30 -15 -37 -8 -7 -15 -17
-15 -22 0 -5 -40 -79 -90 -163 -49 -84 -90 -161 -90 -171 0 -9 16 -40 35 -69
19 -29 43 -74 54 -101 11 -27 31 -71 44 -99 13 -27 28 -66 32 -85 4 -19 15
-53 25 -75 20 -45 43 -117 61 -190 19 -78 21 -553 2 -635 -8 -36 -17 -77 -20
-92 -3 -15 -11 -32 -18 -38 -7 -6 -11 -19 -8 -30 3 -12 -3 -23 -16 -32 -12 -7
-21 -23 -21 -35 0 -13 -8 -24 -20 -28 -13 -4 -20 -15 -20 -31 0 -14 -7 -27
-15 -30 -8 -4 -15 -13 -15 -21 0 -18 -46 -98 -219 -381 -75 -122 -142 -234
-149 -248 -8 -14 -20 -28 -28 -31 -8 -3 -14 -14 -14 -24 0 -10 -9 -24 -20 -31
-11 -7 -20 -20 -20 -30 0 -9 -8 -23 -18 -30 -15 -11 -71 -93 -157 -228 -55
-87 -94 -149 -125 -200 -19 -30 -62 -98 -96 -151 -60 -92 -224 -363 -477 -784
-481 -801 -554 -917 -615 -993 -59 -72 -85 -111 -252 -377 -62 -99 -125 -193
-141 -210 -45 -49 -137 -190 -367 -560 -31 -49 -70 -103 -87 -120 -17 -16 -38
-41 -48 -55 -16 -24 -17 -25 -32 -6 -8 11 -15 26 -15 34 0 7 -11 37 -24 65
-13 29 -29 68 -37 87 -24 62 -67 117 -106 134 -34 15 -85 51 -150 106 -16 13
-23 29 -23 55 0 36 -24 95 -38 95 -4 0 -39 29 -77 66 -98 91 -138 118 -170
110 -30 -8 -50 -49 -35 -75 5 -10 21 -26 35 -35 14 -9 25 -24 25 -34 0 -10 20
-28 50 -45 27 -15 64 -43 82 -62 102 -106 118 -124 118 -132 0 -4 20 -21 45
-38 30 -20 48 -41 56 -65 6 -19 26 -51 44 -70 17 -19 41 -53 52 -76 26 -51 65
-180 67 -218 1 -28 -2 -30 -38 -32 -22 -2 -47 1 -57 7 -10 5 -83 11 -161 14
-138 4 -271 28 -302 54 -7 6 -32 13 -56 17 -59 9 -251 105 -370 185 -53 35
-135 89 -184 119 -298 188 -346 219 -346 230 0 5 -7 10 -16 10 -9 0 -35 19
-58 41 -22 23 -65 58 -93 77 -29 19 -53 39 -53 43 0 5 -19 25 -41 46 -23 21
-46 43 -50 48 -4 6 -26 31 -48 56 -23 25 -41 51 -41 56 0 5 -9 18 -20 28 -11
10 -20 22 -20 28 0 5 -11 22 -25 39 -14 16 -25 35 -25 42 0 7 -8 20 -18 30
-11 9 -27 42 -37 74 -10 31 -30 82 -43 111 -25 56 -23 74 9 94 11 7 24 4 44
-9 20 -13 48 -19 99 -19 80 -1 139 -15 165 -39 13 -12 35 -16 72 -15 42 1 67
-6 114 -30 33 -17 72 -40 86 -52 14 -11 46 -23 70 -26 24 -3 67 -16 96 -29 28
-13 59 -24 68 -24 9 0 55 -21 101 -46 70 -38 84 -50 84 -70 0 -35 59 -63 93
-45 21 11 30 10 68 -10 24 -12 58 -32 75 -45 17 -13 40 -24 52 -24 27 0 37
-16 37 -60 0 -29 5 -37 40 -57 50 -28 54 -28 64 0 7 17 3 28 -16 48 -23 26
-24 28 -9 51 25 39 6 76 -62 119 -81 52 -192 109 -212 109 -10 0 -23 7 -30 15
-7 8 -20 15 -29 15 -9 0 -36 12 -61 26 -92 53 -178 94 -198 94 -11 0 -56 20
-100 45 -44 25 -104 52 -134 61 -29 9 -69 22 -88 29 -19 8 -46 17 -60 20 -14
3 -47 12 -75 20 -52 15 -100 24 -250 50 -49 8 -93 19 -99 25 -6 6 57 119 170
309 98 165 210 353 247 418 37 65 86 145 107 178 22 33 50 77 62 99 25 42 35
58 60 96 8 14 69 111 133 215 65 105 131 201 147 215 28 24 29 27 20 68 -10
42 -9 44 75 180 46 75 97 154 114 174 16 20 29 44 29 52 0 8 6 19 13 23 7 4
18 20 24 36 7 15 17 27 23 27 5 0 10 8 10 18 0 11 9 27 20 37 11 10 20 26 20
36 0 10 8 24 18 31 35 26 132 187 132 220 0 9 6 21 13 25 7 4 18 19 25 33 35
67 46 86 59 93 7 4 13 16 13 26 0 10 7 24 15 31 8 6 17 20 20 31 12 37 201
352 301 502 32 49 64 99 71 110 7 12 17 29 23 37 14 19 37 59 49 85 5 12 16
27 25 34 9 7 16 22 16 33 0 11 8 22 19 25 26 7 91 90 92 117 0 12 10 35 22 52
88 125 156 235 419 674 118 196 199 321 216 332 17 11 29 29 32 50 4 24 13 37
35 47 17 8 33 19 37 26 4 7 29 20 55 30 26 10 55 24 63 31 8 7 26 17 40 23 14
6 32 15 40 21 20 13 113 53 180 78 171 62 268 85 430 102 47 5 121 16 165 25
44 8 94 15 112 15 38 0 36 -1 138 170 41 69 83 132 93 140 11 8 32 33 48 55
16 22 32 42 36 45 9 7 94 138 158 245 30 50 66 101 80 115 14 14 55 70 91 125
97 147 256 400 274 436 15 29 92 119 102 119 2 0 18 -7 36 -16z"/>
<path d="M2477 3132 c-22 -24 -22 -55 1 -75 26 -24 161 -88 197 -94 45 -7 75
11 75 46 0 35 -8 42 -90 71 -36 13 -77 31 -91 41 -41 29 -73 33 -92 11z"/>
<path d="M2800 3035 c-9 -11 -10 -25 -4 -47 9 -29 14 -32 74 -45 123 -25 176
-7 154 54 -9 26 -16 29 -84 40 -102 16 -125 16 -140 -2z"/>
<path d="M3138 2949 c-28 -16 -21 -55 16 -92 43 -44 81 -52 107 -24 26 28 25
33 -17 83 -37 46 -68 55 -106 33z"/>
<path d="M3340 2761 c-16 -32 -13 -40 45 -98 58 -57 105 -123 105 -147 0 -13
45 -52 86 -74 18 -10 27 -8 48 9 34 26 26 63 -20 102 -19 16 -34 34 -34 40 0
17 -50 88 -99 140 -38 40 -51 47 -83 47 -27 0 -40 -5 -48 -19z"/>
</g>
</svg>
