<?xml version="1.0" standalone="no"?>
<!DOCTYPE svg PUBLIC "-//W3C//DTD SVG 20010904//EN"
 "http://www.w3.org/TR/2001/REC-SVG-20010904/DTD/svg10.dtd">
<svg version="1.0" xmlns="http://www.w3.org/2000/svg"
 width="700.000000pt" height="883.000000pt" viewBox="0 0 700.000000 883.000000"
 preserveAspectRatio="xMidYMid meet">
<metadata>
Created by potrace 1.16, written by Peter Selinger 2001-2019
</metadata>
<g transform="translate(0.000000,883.000000) scale(0.100000,-0.100000)"
fill="#000000" stroke="none">
<path d="M2908 7133 c-16 -8 -28 -18 -28 -24 0 -5 -10 -19 -21 -30 -19 -19
-22 -37 -27 -129 l-5 -108 37 -77 c34 -71 36 -81 25 -109 -19 -49 -29 -56 -74
-56 -29 0 -45 -5 -49 -15 -3 -8 -17 -15 -31 -15 -14 0 -25 -5 -25 -10 0 -6
-11 -15 -25 -20 -14 -5 -25 -14 -25 -20 0 -5 -9 -10 -20 -10 -11 0 -20 -4 -20
-10 0 -5 -7 -10 -15 -10 -8 0 -20 -9 -27 -20 -7 -11 -22 -20 -34 -20 -12 0
-24 -7 -28 -15 -4 -12 -26 -15 -104 -15 l-98 0 -17 -38 c-20 -45 -22 -123 -5
-140 7 -7 12 -49 12 -113 1 -85 -2 -102 -16 -110 -10 -6 -18 -17 -18 -24 0 -8
-4 -15 -10 -15 -5 0 -12 -11 -16 -25 -3 -14 -12 -29 -19 -33 -7 -4 -22 -26
-34 -49 -12 -24 -25 -43 -30 -43 -5 0 -25 -33 -45 -72 -20 -40 -48 -93 -61
-118 -14 -25 -25 -56 -25 -70 0 -14 -9 -40 -20 -57 -18 -31 -23 -33 -75 -33
-40 0 -57 4 -61 15 -4 8 -12 15 -20 15 -8 0 -14 4 -14 9 0 6 -11 22 -25 37
-14 15 -25 33 -25 40 0 7 -9 21 -19 31 -11 10 -30 39 -44 64 -13 26 -34 57
-46 70 -11 12 -21 28 -21 35 0 7 -6 19 -13 26 -19 19 -77 141 -77 162 0 32
-29 77 -102 155 -35 37 -42 41 -50 27 -6 -11 -22 -16 -49 -16 -26 0 -42 -5
-45 -15 -4 -8 -15 -15 -25 -15 -10 0 -19 -5 -19 -11 0 -16 -31 -38 -52 -39
-10 0 -18 -7 -18 -15 0 -9 -9 -15 -25 -15 -14 0 -28 -7 -31 -15 -4 -8 -14 -15
-25 -15 -45 0 -53 -92 -12 -139 15 -17 33 -31 41 -31 7 0 15 -7 18 -15 4 -8
11 -15 18 -15 6 0 20 -20 31 -45 11 -25 23 -45 27 -45 13 0 44 -72 58 -135 7
-33 20 -69 27 -80 7 -11 13 -29 13 -42 0 -12 5 -25 10 -28 6 -3 10 -21 10 -40
0 -19 4 -36 9 -39 5 -4 12 -30 16 -59 3 -28 10 -63 16 -77 5 -14 16 -68 24
-120 9 -52 18 -104 21 -115 2 -11 11 -60 19 -110 27 -170 37 -220 46 -237 5
-10 9 -34 9 -53 0 -19 4 -43 10 -53 5 -9 14 -39 20 -67 28 -127 40 -176 49
-192 5 -10 18 -49 30 -88 12 -39 32 -80 46 -93 13 -13 27 -40 31 -59 4 -20 15
-44 26 -55 11 -11 24 -33 30 -49 5 -16 15 -29 21 -29 7 0 21 -20 32 -45 11
-25 23 -45 27 -45 11 0 48 -38 48 -50 0 -5 9 -10 20 -10 12 0 20 -7 20 -17 0
-18 14 -65 36 -123 7 -19 16 -53 20 -75 4 -22 12 -49 18 -60 6 -11 16 -45 22
-75 14 -65 28 -104 66 -185 15 -33 28 -68 28 -77 0 -20 87 -188 104 -203 7 -5
21 -29 32 -52 10 -23 24 -43 29 -43 14 -1 55 -94 55 -125 0 -18 -5 -25 -19
-25 -29 0 -35 -91 -10 -146 11 -22 19 -44 19 -48 0 -17 94 -126 108 -126 5 0
17 -10 28 -21 33 -36 125 -94 209 -130 l80 -34 330 3 c364 3 387 6 477 65 62
40 179 157 208 207 39 68 82 165 82 188 0 12 -6 30 -14 40 -50 61 -48 175 4
209 7 4 22 26 33 48 11 22 25 45 32 50 17 15 63 105 63 125 0 28 40 100 55
100 8 0 19 9 25 20 6 11 14 19 18 19 20 -3 31 3 37 21 4 12 22 38 41 58 60 63
64 68 64 80 0 7 5 12 10 12 6 0 10 5 10 10 0 6 9 19 20 30 11 11 20 27 20 35
0 8 6 15 13 15 6 0 21 12 32 26 11 14 28 34 38 45 9 10 17 23 17 28 0 5 17 26
39 47 21 22 41 49 45 62 4 12 14 22 22 22 8 0 14 6 14 13 0 6 11 25 25 42 14
16 51 79 81 140 31 60 62 115 68 120 7 6 15 21 19 35 3 14 21 68 40 120 19 52
42 118 52 145 10 28 24 66 31 85 21 52 44 183 74 420 13 96 13 644 0 730 -22
153 -49 281 -67 315 -6 11 -14 40 -18 65 -4 25 -11 50 -15 55 -4 6 -10 25 -14
43 -3 19 -15 46 -25 61 -11 15 -23 40 -26 57 -4 16 -15 48 -26 71 -10 24 -19
46 -19 50 0 5 -13 23 -29 42 -16 19 -35 46 -43 60 -26 50 -53 71 -93 71 -28 0
-38 -5 -42 -20 -4 -14 -14 -20 -34 -20 -19 0 -29 -5 -29 -15 0 -8 -7 -15 -15
-15 -16 0 -27 -8 -66 -42 -10 -10 -23 -18 -29 -18 -15 0 -47 -35 -55 -59 -3
-12 -13 -21 -21 -21 -7 0 -21 -17 -29 -37 -9 -21 -21 -42 -28 -48 -17 -14 -97
-176 -97 -196 0 -9 -6 -19 -14 -22 -7 -3 -16 -18 -19 -34 -13 -61 -103 -113
-121 -68 -3 8 -12 15 -21 15 -8 0 -15 7 -15 15 0 8 -4 15 -9 15 -5 0 -30 42
-55 93 -54 107 -60 169 -26 237 27 52 26 133 -1 194 l-20 47 -117 -2 c-78 -1
-117 2 -120 10 -2 6 -15 11 -28 11 -14 0 -27 7 -30 15 -4 9 -19 15 -39 15 -20
0 -35 6 -39 15 -3 9 -19 15 -41 15 -24 0 -35 4 -35 15 0 9 -9 15 -24 15 -14 0
-28 5 -31 10 -3 6 -14 10 -24 10 -10 0 -26 11 -35 25 -19 29 -22 95 -3 95 6 0
23 23 36 51 31 68 32 186 2 253 -11 25 -27 49 -35 52 -9 3 -16 12 -16 20 0 8
-9 14 -20 14 -11 0 -20 5 -20 10 0 16 -210 11 -242 -7z m218 -58 c4 -8 13 -15
20 -15 8 0 17 -7 20 -15 4 -8 11 -15 18 -15 16 0 46 -79 46 -121 0 -24 -10
-49 -29 -75 -37 -53 -54 -107 -49 -158 7 -57 36 -116 58 -116 10 0 23 -6 29
-14 7 -8 26 -18 42 -21 16 -4 31 -11 34 -16 4 -5 16 -9 27 -9 12 0 29 -7 38
-15 9 -8 26 -16 38 -18 12 -2 28 -9 34 -15 7 -7 23 -12 38 -13 15 0 19 -3 10
-6 -8 -3 -17 -9 -20 -13 -3 -4 -177 -12 -387 -17 -285 -8 -396 -8 -434 1 l-52
11 29 15 c16 8 48 27 70 43 23 15 49 27 57 27 9 0 18 4 21 9 3 4 23 11 45 15
44 7 96 59 106 108 9 40 -11 127 -46 194 -36 70 -38 126 -7 184 31 57 76 77
181 79 43 1 59 -3 63 -14z m1420 -702 c92 -103 241 -496 275 -728 13 -85 27
-698 18 -770 -15 -128 -30 -199 -59 -287 -17 -50 -30 -110 -30 -133 0 -74 -97
-331 -182 -480 -68 -119 -89 -150 -176 -260 -52 -66 -101 -125 -109 -131 -7
-6 -13 -14 -13 -17 0 -10 -30 -46 -98 -117 -52 -54 -61 -60 -51 -35 14 39 36
146 54 262 7 51 16 97 20 103 4 6 1 18 -6 26 -6 8 -8 18 -4 22 4 4 10 1 12 -5
5 -15 74 -18 88 -4 6 5 17 11 26 13 20 4 119 116 119 135 0 7 3 13 8 13 4 0
15 21 25 48 18 46 42 96 65 137 6 11 19 38 28 60 10 22 26 51 36 65 22 31 88
233 88 269 0 15 4 31 10 37 5 5 13 46 16 89 4 44 10 85 15 90 10 13 30 202 36
339 5 115 -24 584 -37 601 -4 6 -10 32 -14 59 -3 27 -10 54 -15 60 -5 6 -12
27 -16 46 -8 42 -66 149 -92 170 -10 8 -32 24 -48 34 -17 10 -38 27 -48 37
-31 33 -58 23 -119 -41 -96 -100 -141 -223 -168 -460 -6 -58 -16 -132 -21
-166 -5 -33 -9 -76 -9 -94 0 -48 -12 -29 -33 53 -34 135 -37 148 -46 165 -13
24 -72 182 -78 208 -3 11 2 28 10 36 9 8 43 72 77 142 86 178 225 377 251 360
4 -2 11 1 16 9 31 48 147 75 179 40z m-829 -205 c2 -59 20 -154 34 -180 25
-45 66 -103 84 -118 9 -8 21 -25 26 -38 5 -12 22 -28 38 -33 32 -11 45 -34 81
-139 12 -36 29 -76 36 -90 55 -104 106 -293 119 -445 32 -365 41 -1030 16
-1188 -8 -55 -10 -92 -4 -98 24 -24 -58 -327 -145 -534 -67 -162 -117 -259
-183 -357 -33 -49 -59 -95 -59 -104 0 -22 -62 -144 -73 -144 -9 0 -30 -17 -55
-42 -9 -10 -24 -18 -33 -18 -9 0 -30 -7 -45 -15 -16 -8 -36 -15 -44 -15 -8 0
-24 -7 -34 -15 -11 -8 -32 -15 -47 -15 -15 0 -30 -4 -34 -9 -3 -6 -27 -13 -53
-17 -26 -3 -51 -10 -57 -14 -5 -4 -61 -10 -124 -12 -79 -2 -116 -7 -119 -16
-6 -18 -162 -16 -198 3 -16 8 -41 15 -57 15 -15 0 -35 4 -45 9 -40 22 -86 41
-99 41 -7 0 -16 7 -19 15 -4 8 -11 15 -16 15 -22 0 -85 35 -110 62 -15 15 -32
28 -37 28 -6 0 -11 7 -11 15 0 8 -4 15 -9 15 -5 0 -20 17 -32 38 -13 20 -41
62 -63 92 -91 122 -159 257 -252 500 -7 19 -16 46 -19 60 -3 14 -10 34 -15 45
-15 36 -62 208 -80 294 -10 46 -22 86 -28 90 -18 11 -24 104 -29 451 -3 217
-1 363 6 395 6 28 15 100 20 160 19 214 41 407 50 424 5 9 12 47 16 85 4 38
14 81 21 95 8 14 14 32 14 39 0 7 4 20 9 30 4 9 29 60 55 112 43 90 155 270
192 312 28 30 44 88 44 161 l0 67 30 0 c17 0 47 -7 66 -15 29 -12 115 -15 487
-17 407 -2 457 -1 500 15 29 10 79 17 125 18 42 0 86 4 97 9 43 19 61 12 62
-22z m-2260 -90 c32 -36 80 -111 88 -138 4 -14 20 -52 35 -85 15 -33 29 -65
31 -71 6 -16 64 -110 134 -216 33 -49 64 -99 70 -109 5 -10 15 -19 21 -19 7 0
14 -7 18 -15 3 -8 14 -15 25 -15 11 0 33 -8 50 -17 34 -20 36 -33 21 -118 -21
-113 -56 -411 -71 -595 -12 -148 -7 -713 6 -778 6 -27 5 -31 -9 -26 -9 3 -16
12 -16 19 0 7 -3 15 -8 17 -13 5 -77 109 -126 202 -51 98 -134 340 -127 370 1
6 -2 19 -8 30 -5 12 -19 73 -30 136 -12 63 -25 135 -31 160 -5 25 -14 74 -20
110 -5 36 -17 97 -26 135 -24 108 -66 297 -84 381 -5 23 -27 93 -48 157 -51
151 -115 251 -209 328 -17 13 -16 29 0 29 23 0 70 28 117 70 25 22 50 40 57
40 7 0 16 6 20 14 8 13 34 22 79 25 11 0 30 -9 41 -21z m3034 -65 c18 -21 62
-99 98 -173 63 -132 65 -137 72 -240 4 -58 12 -148 19 -200 8 -70 9 -153 2
-315 -10 -220 -35 -381 -89 -564 -32 -110 -114 -316 -147 -370 -18 -31 -40
-72 -48 -91 -18 -42 -80 -118 -117 -142 -30 -20 -81 -20 -88 0 -3 7 -1 23 5
35 24 51 20 741 -7 1102 -8 109 -7 135 5 160 9 17 18 74 21 133 3 56 10 105
15 108 4 3 8 40 9 82 0 42 4 100 9 127 5 28 14 79 20 115 16 101 93 239 145
260 34 14 42 11 76 -27z"/>
</g>
</svg>
