<?xml version="1.0" standalone="no"?>
<!DOCTYPE svg PUBLIC "-//W3C//DTD SVG 20010904//EN"
 "http://www.w3.org/TR/2001/REC-SVG-20010904/DTD/svg10.dtd">
<svg version="1.0" xmlns="http://www.w3.org/2000/svg"
 width="1277.000000pt" height="1014.000000pt" viewBox="0 0 1277.000000 1014.000000"
 preserveAspectRatio="xMidYMid meet">
<metadata>
Created by potrace 1.16, written by Peter Selinger 2001-2019
</metadata>
<g transform="translate(0.000000,1014.000000) scale(0.100000,-0.100000)"
fill="#000000" stroke="none">
<path d="M5750 9440 c-85 -5 -263 -11 -395 -14 -239 -5 -347 -14 -480 -40
-116 -24 -283 -46 -410 -56 -183 -14 -486 -89 -645 -160 -47 -20 -110 -45
-140 -54 -30 -8 -84 -31 -120 -51 -62 -33 -189 -97 -200 -100 -3 0 -21 -11
-40 -23 -19 -12 -40 -22 -47 -22 -6 0 -18 -6 -25 -13 -7 -7 -35 -26 -63 -42
-27 -16 -72 -46 -98 -67 -27 -21 -53 -38 -57 -38 -5 0 -27 -18 -49 -40 -22
-22 -44 -40 -48 -40 -11 0 -63 -59 -63 -70 0 -5 -9 -11 -20 -15 -54 -17 -144
-208 -156 -330 -4 -38 -13 -87 -20 -109 -17 -48 -19 -207 -2 -224 6 -6 17 -57
24 -114 8 -71 17 -105 28 -113 11 -9 16 -28 16 -69 0 -33 6 -66 15 -79 8 -13
19 -56 25 -97 5 -41 14 -84 19 -95 29 -68 40 -182 19 -203 -7 -7 -30 -12 -52
-12 -25 0 -51 -8 -66 -20 -14 -11 -36 -20 -50 -20 -14 0 -38 -9 -55 -20 -16
-11 -42 -20 -56 -20 -14 0 -34 -9 -44 -20 -11 -12 -31 -20 -50 -20 -18 0 -43
-9 -57 -19 -14 -11 -36 -21 -49 -23 -30 -5 -136 -54 -144 -68 -3 -6 -16 -10
-28 -10 -12 0 -39 -11 -59 -25 -20 -14 -43 -25 -51 -25 -8 0 -22 -9 -32 -20
-10 -11 -28 -20 -41 -20 -13 0 -29 -8 -36 -19 -7 -10 -28 -22 -46 -25 -17 -4
-32 -12 -32 -17 0 -5 -11 -11 -24 -15 -14 -3 -32 -14 -42 -25 -9 -10 -24 -19
-32 -19 -9 0 -25 -9 -36 -19 -12 -10 -55 -37 -96 -59 -250 -131 -278 -153
-412 -327 -42 -55 -93 -120 -112 -145 -31 -40 -99 -140 -235 -347 -56 -86 -87
-198 -103 -369 -8 -94 -9 -154 -1 -215 12 -97 76 -312 104 -347 10 -14 19 -37
19 -52 0 -25 61 -118 157 -238 52 -66 201 -219 267 -275 27 -23 64 -56 83 -74
18 -17 41 -33 51 -35 9 -2 16 -9 15 -16 -2 -7 4 -9 14 -5 9 4 14 2 10 -3 -3
-6 9 -18 28 -28 18 -10 47 -35 64 -56 50 -62 298 -233 486 -334 188 -102 564
-255 688 -281 17 -3 27 -12 27 -23 0 -10 13 -22 33 -28 17 -7 73 -27 122 -46
183 -70 537 -181 634 -198 36 -6 117 -27 180 -45 64 -18 179 -45 256 -60 77
-14 210 -44 295 -65 283 -72 419 -100 523 -110 56 -6 179 -17 272 -26 134 -13
268 -16 628 -15 481 2 501 4 807 57 100 17 219 28 435 40 80 4 136 11 145 19
23 20 162 44 315 54 77 6 163 17 190 24 28 8 85 24 129 36 43 12 117 37 165
55 47 19 115 44 151 56 100 34 279 125 335 170 87 70 134 104 203 147 133 85
179 110 214 122 20 7 56 26 80 44 24 18 75 48 113 68 200 102 274 143 310 173
22 18 68 51 102 74 34 23 111 87 172 142 61 55 115 100 120 100 5 0 12 8 16
18 3 9 26 32 50 51 25 18 45 37 45 42 0 5 7 9 15 9 8 0 19 9 25 20 6 11 17 20
25 20 8 0 15 4 15 10 0 5 40 52 89 103 50 51 99 104 110 119 30 38 140 261
148 299 3 18 12 45 20 59 7 14 13 43 13 66 0 22 8 56 17 75 13 26 18 69 21
184 3 128 1 162 -17 234 -12 46 -21 92 -21 103 0 22 -82 199 -112 240 -10 15
-20 37 -21 47 -1 11 -3 18 -5 16 -8 -7 -26 19 -57 78 -16 31 -35 57 -42 57
-21 0 -16 74 8 120 20 38 22 57 23 258 1 241 0 248 -77 352 -39 53 -67 98
-101 161 -16 30 -35 50 -53 57 -15 5 -42 22 -59 38 -43 40 -91 74 -104 74 -5
0 -10 4 -10 9 0 5 -19 19 -42 31 -24 11 -50 25 -58 29 -45 25 -101 46 -150 57
-30 7 -73 19 -95 28 -56 21 -290 22 -365 0 -30 -8 -88 -20 -128 -25 -40 -5
-90 -18 -112 -29 -22 -11 -44 -20 -51 -20 -6 0 -22 -9 -36 -20 -14 -11 -32
-20 -40 -20 -8 0 -34 -16 -57 -35 -53 -43 -83 -46 -88 -7 -3 26 9 82 21 92 6
5 30 68 63 165 11 33 28 110 39 170 10 61 24 130 30 155 5 25 13 74 16 110 3
36 9 70 13 75 18 24 30 127 30 266 0 139 -2 156 -26 217 -36 90 -75 164 -96
180 -10 7 -18 19 -18 26 0 7 -11 23 -25 36 -13 12 -22 27 -18 33 3 6 2 7 -4 4
-5 -3 -38 23 -73 59 -35 35 -69 64 -76 64 -7 0 -19 6 -26 13 -44 40 -100 77
-117 77 -12 0 -21 6 -21 13 0 19 -37 50 -100 84 -223 121 -373 184 -484 203
-34 6 -104 26 -156 45 -131 46 -266 81 -385 99 -55 8 -131 19 -170 25 -38 6
-151 23 -250 37 -99 14 -207 30 -240 35 -86 14 -453 19 -635 9z m495 -70 c61
-6 198 -21 305 -34 107 -14 222 -27 255 -31 121 -14 347 -55 487 -90 79 -20
164 -41 191 -47 26 -7 47 -15 47 -18 0 -4 24 -10 53 -13 29 -4 57 -13 63 -22
6 -8 24 -15 40 -15 16 0 44 -9 63 -21 19 -11 43 -22 54 -24 10 -3 42 -19 70
-38 29 -19 72 -43 97 -54 25 -11 68 -39 97 -62 29 -22 61 -41 72 -41 33 0 171
-101 258 -189 99 -100 173 -207 173 -251 0 -17 8 -43 17 -57 22 -33 21 -162
-1 -220 -8 -21 -17 -54 -20 -73 -5 -26 -25 -54 -84 -112 -72 -73 -180 -158
-199 -158 -4 0 -29 -11 -56 -25 l-47 -25 0 37 c-1 69 -27 227 -39 231 -6 2
-11 12 -11 23 0 10 -11 29 -25 41 -14 12 -25 28 -25 36 0 14 -56 72 -70 72 -4
0 -15 9 -25 20 -10 11 -24 20 -31 20 -7 0 -16 9 -19 20 -3 11 -11 20 -16 20
-10 0 -99 58 -109 70 -3 4 -18 10 -35 14 -16 4 -36 13 -43 19 -22 18 -144 67
-167 67 -12 0 -30 8 -41 19 -12 10 -39 22 -61 26 -23 3 -49 13 -60 20 -10 8
-31 15 -46 15 -15 0 -45 9 -67 20 -22 11 -53 20 -70 20 -17 0 -45 8 -63 17
-18 9 -52 20 -77 24 -25 5 -74 15 -110 23 -36 9 -96 21 -135 27 -38 6 -74 15
-80 19 -10 8 -25 10 -185 29 -52 6 -106 15 -120 20 -14 5 -70 12 -125 15 -55
3 -125 10 -155 15 -71 12 -668 12 -785 0 -49 -5 -160 -12 -245 -15 -85 -4
-159 -10 -165 -14 -5 -4 -37 -10 -70 -14 -111 -12 -205 -29 -205 -36 0 -4 -33
-13 -72 -20 -40 -7 -104 -19 -143 -27 -38 -8 -83 -17 -100 -20 -16 -3 -48 -13
-71 -24 -22 -10 -52 -19 -67 -19 -15 0 -41 -9 -59 -20 -19 -11 -51 -20 -74
-20 -26 0 -44 -5 -47 -14 -3 -7 -21 -16 -41 -19 -20 -3 -43 -13 -52 -22 -9 -9
-29 -19 -45 -22 -16 -3 -29 -9 -29 -13 0 -5 -15 -12 -32 -15 -18 -4 -37 -11
-43 -15 -5 -4 -35 -21 -65 -38 -30 -16 -73 -40 -95 -52 -22 -13 -52 -30 -67
-37 -16 -8 -28 -21 -28 -29 0 -8 -9 -14 -20 -14 -11 0 -20 -4 -20 -9 0 -12
-59 -71 -71 -71 -5 0 -9 -3 -9 -8 0 -4 -20 -29 -45 -56 -25 -27 -45 -57 -45
-66 0 -8 -9 -22 -20 -30 -11 -8 -20 -21 -20 -30 0 -8 -9 -26 -20 -40 -11 -14
-20 -35 -20 -47 0 -12 -9 -42 -20 -68 -15 -36 -20 -69 -20 -141 0 -87 -1 -94
-20 -94 -11 0 -20 4 -20 9 0 5 -18 28 -41 52 -22 24 -52 61 -65 82 -13 20 -28
37 -32 37 -4 0 -21 21 -37 46 -16 26 -39 53 -51 61 -13 8 -27 28 -33 44 -5 16
-21 44 -35 61 -34 45 -76 179 -83 263 -10 135 29 260 110 346 28 31 72 82 97
113 25 32 59 64 75 73 17 8 37 23 45 33 8 10 69 46 135 80 66 35 168 89 226
121 59 32 128 63 155 69 49 11 265 79 399 126 110 38 297 74 440 84 168 12
285 26 415 49 195 36 281 43 573 51 455 11 633 11 752 0z m2286 -1607 c-13
-61 -28 -137 -47 -234 -8 -42 -23 -94 -34 -117 -11 -23 -20 -53 -20 -67 0 -15
-9 -40 -21 -56 -44 -63 -91 -216 -109 -359 -9 -79 -35 -181 -60 -235 -10 -22
-20 -56 -23 -75 -6 -41 -78 -236 -111 -300 -13 -25 -34 -90 -46 -145 -12 -55
-30 -120 -39 -145 -9 -25 -15 -48 -13 -52 1 -5 -2 -8 -8 -8 -5 0 -10 -9 -10
-20 0 -11 -4 -28 -9 -38 -5 -9 -12 -24 -15 -32 -3 -8 -10 -22 -15 -30 -4 -8
-30 -62 -57 -119 -27 -58 -66 -131 -87 -164 -79 -124 -137 -236 -180 -352 -25
-66 -55 -138 -68 -160 -12 -22 -29 -53 -37 -70 -18 -35 -64 -98 -74 -103 -5
-2 -8 -9 -8 -16 0 -7 -9 -23 -20 -36 -11 -13 -20 -29 -20 -37 0 -7 -3 -13 -8
-13 -4 0 -16 -16 -26 -35 -11 -19 -22 -35 -25 -35 -4 0 -15 -17 -26 -37 -11
-21 -25 -42 -32 -46 -7 -4 -13 -12 -13 -17 0 -18 -95 -101 -122 -107 -16 -3
-28 -9 -28 -13 0 -4 -20 -17 -44 -29 -25 -11 -47 -25 -51 -31 -3 -5 -16 -10
-29 -10 -13 0 -31 -9 -41 -20 -10 -11 -27 -22 -39 -26 -35 -10 -124 -53 -130
-63 -3 -5 -26 -12 -51 -15 -25 -4 -51 -13 -58 -20 -7 -7 -37 -19 -67 -26 -30
-7 -67 -19 -82 -26 -15 -8 -41 -14 -58 -14 -16 0 -40 -5 -53 -12 -12 -6 -30
-15 -39 -19 -9 -5 -94 -18 -190 -31 -147 -19 -216 -23 -463 -22 -247 0 -299 3
-350 18 -41 12 -111 19 -220 23 -121 4 -169 10 -195 22 -19 10 -62 26 -95 35
-33 10 -70 23 -83 27 -13 5 -32 9 -43 9 -10 0 -36 9 -56 20 -21 11 -45 20 -54
20 -9 0 -46 16 -83 35 -37 19 -74 35 -82 35 -22 0 -131 56 -165 84 -15 13 -50
32 -76 42 -50 19 -55 22 -100 64 -33 31 -83 95 -83 107 0 5 -12 20 -27 35 -36
33 -53 55 -53 66 0 5 -9 17 -20 27 -11 10 -20 24 -20 32 0 7 -7 16 -15 19 -9
4 -28 27 -42 53 -15 25 -47 76 -70 113 -24 36 -43 70 -43 73 0 4 -9 18 -20 32
-11 14 -20 34 -20 44 0 11 -4 19 -8 19 -5 0 -15 12 -22 28 -8 15 -22 39 -32
54 -10 14 -18 33 -18 41 0 8 -7 20 -16 28 -15 12 -36 54 -68 132 -8 20 -19 37
-25 37 -5 0 -12 18 -16 40 -4 22 -10 40 -14 40 -10 0 -71 134 -71 155 0 9 -9
25 -20 37 -11 12 -20 31 -20 42 0 12 -9 35 -20 51 -11 17 -20 42 -20 56 0 15
-8 37 -18 50 -11 13 -22 41 -25 62 -3 20 -13 44 -21 53 -9 8 -16 25 -16 38 0
25 -21 76 -32 76 -5 0 -8 13 -8 29 0 15 -16 71 -36 122 -20 52 -37 102 -38
111 -1 10 -5 21 -9 24 -4 4 -7 20 -7 36 0 16 -9 38 -20 50 -10 11 -22 42 -25
67 -3 25 -13 61 -21 79 -7 18 -14 46 -14 62 0 28 -16 67 -31 80 -3 3 -9 28
-13 55 -4 28 -14 60 -22 72 -8 12 -14 34 -14 47 0 14 -7 43 -15 63 -8 21 -21
67 -29 103 -8 36 -36 151 -63 255 -28 105 -55 217 -62 251 -14 74 -14 164 -1
164 6 0 10 -7 10 -15 0 -19 143 -167 195 -203 22 -15 49 -35 59 -44 11 -10 25
-18 30 -18 6 0 23 -16 39 -35 15 -19 46 -47 70 -63 87 -60 264 -165 325 -192
34 -16 75 -37 90 -47 15 -11 52 -29 82 -41 72 -28 395 -108 490 -121 159 -21
216 -31 255 -45 128 -45 281 -81 380 -91 38 -4 80 -11 94 -17 41 -15 209 -39
305 -43 73 -3 100 0 145 18 31 12 60 20 64 19 5 -1 45 2 90 8 59 7 119 6 217
-3 84 -8 171 -10 230 -6 180 14 288 27 301 35 8 5 43 11 79 15 91 8 238 54
264 82 20 21 34 24 127 30 57 3 124 13 148 21 24 9 58 16 76 16 31 0 78 12
120 30 11 5 44 12 74 15 30 4 61 11 70 16 19 11 191 58 241 66 19 3 47 14 62
24 14 11 39 19 55 19 15 0 43 9 61 20 18 11 45 20 60 20 15 0 38 9 52 20 14
11 40 20 58 20 17 0 32 4 32 9 0 5 15 14 33 21 62 23 103 45 171 93 38 26 74
47 80 47 7 0 19 9 29 20 9 11 26 20 37 20 11 0 25 9 32 20 7 11 17 20 23 20
18 0 138 101 211 177 l69 71 3 -33 c2 -19 -1 -55 -7 -82z m759 -542 c19 -5 89
-28 155 -52 123 -43 170 -71 282 -165 35 -30 70 -54 78 -54 21 0 95 -83 125
-138 13 -26 30 -53 37 -60 7 -7 13 -29 13 -47 0 -19 9 -50 20 -70 35 -63 25
-395 -12 -395 -4 0 -8 -19 -8 -43 0 -23 -7 -53 -16 -66 -9 -13 -30 -50 -46
-83 -17 -32 -43 -73 -58 -89 -15 -17 -34 -43 -41 -57 -15 -28 -99 -112 -112
-112 -4 0 -13 -4 -20 -10 -81 -66 -79 -65 -207 -130 -86 -43 -83 -42 -180 -88
-25 -12 -54 -22 -66 -22 -11 0 -29 -9 -38 -19 -10 -10 -38 -22 -64 -26 -26 -4
-54 -12 -62 -19 -8 -7 -37 -19 -65 -26 -27 -7 -55 -17 -60 -21 -6 -5 -31 -11
-55 -15 -25 -4 -56 -15 -69 -26 -13 -10 -35 -18 -50 -18 -14 0 -39 -9 -56 -20
-16 -11 -42 -20 -56 -20 -15 0 -37 -8 -50 -19 -13 -10 -40 -22 -59 -26 -19 -4
-45 -13 -57 -21 -12 -8 -30 -14 -39 -14 -9 0 -28 -8 -42 -19 -15 -10 -46 -22
-69 -26 -23 -3 -47 -13 -54 -21 -6 -8 -18 -14 -26 -14 -20 0 -239 -105 -247
-119 -4 -6 -15 -11 -25 -11 -10 0 -26 -9 -36 -20 -10 -11 -28 -20 -40 -20 -12
0 -30 -9 -40 -20 -10 -11 -29 -20 -42 -20 -12 0 -23 -4 -23 -9 0 -5 -17 -17
-37 -26 -21 -10 -44 -26 -51 -37 -20 -28 -87 -58 -131 -58 -46 0 -55 15 -31
50 9 14 41 70 70 125 29 55 56 102 60 105 3 3 21 40 40 83 18 42 37 77 42 77
4 0 8 6 8 14 0 22 13 26 108 36 207 22 533 125 692 220 36 21 124 70 195 108
72 39 146 80 165 92 19 12 50 24 70 28 19 3 46 13 59 24 13 10 33 18 45 18 11
0 32 9 46 20 14 11 35 20 47 20 12 0 30 8 40 19 10 10 45 33 78 50 62 33 75
40 166 104 59 40 122 109 133 145 4 12 11 22 16 22 13 0 28 88 35 205 6 107 5
112 -23 175 -18 40 -45 79 -70 102 -23 21 -42 42 -42 48 0 5 -5 10 -10 10 -6
0 -32 20 -58 44 -57 54 -113 79 -213 97 -93 18 -304 18 -321 1 -7 -7 -31 -12
-55 -12 -24 0 -43 -4 -43 -8 0 -4 -27 -14 -60 -20 -32 -7 -72 -23 -87 -35 -15
-13 -58 -44 -94 -70 -94 -66 -219 -192 -258 -259 -28 -50 -36 -58 -62 -58 -29
0 -30 1 -23 38 4 20 10 42 15 48 5 6 14 35 20 65 6 30 20 72 30 93 11 22 19
50 19 63 0 13 7 40 15 60 8 19 15 50 15 67 0 17 12 49 25 71 14 22 25 48 25
57 0 14 79 78 97 78 3 0 13 8 22 19 9 10 34 28 56 40 22 12 58 33 80 46 22 14
47 25 56 25 9 0 29 7 46 15 16 8 61 18 99 23 97 12 372 14 414 3z m-6440 -179
c4 -39 9 -47 25 -47 15 0 23 -10 30 -40 6 -22 13 -44 16 -50 4 -5 13 -37 20
-70 7 -33 21 -75 31 -93 10 -18 18 -46 18 -62 0 -17 9 -47 20 -67 11 -21 20
-50 20 -66 0 -15 8 -39 17 -53 9 -14 20 -51 24 -82 4 -30 12 -58 17 -61 5 -3
13 -22 17 -41 4 -19 13 -45 21 -57 8 -12 14 -34 14 -49 0 -14 9 -43 20 -63 24
-45 80 -191 80 -210 0 -7 9 -21 20 -31 11 -9 21 -31 22 -49 1 -18 8 -37 15
-42 6 -6 15 -25 19 -42 3 -18 15 -43 25 -56 11 -13 19 -31 19 -40 0 -10 9 -27
20 -39 11 -12 20 -26 20 -32 0 -6 15 -41 33 -78 19 -37 48 -96 66 -132 18 -36
41 -82 52 -102 10 -20 19 -43 19 -51 0 -8 9 -22 20 -32 11 -10 20 -25 20 -34
0 -9 16 -41 36 -71 20 -30 39 -62 43 -70 8 -19 64 -103 73 -110 4 -3 12 -17
17 -30 6 -14 27 -45 45 -70 19 -25 35 -49 35 -55 1 -11 7 -17 135 -146 53 -53
96 -101 96 -105 1 -24 117 -114 146 -114 14 0 24 -6 24 -14 0 -8 14 -19 30
-25 17 -5 33 -17 36 -25 3 -8 22 -20 42 -27 21 -6 41 -15 47 -20 5 -5 15 -9
23 -9 7 0 37 -11 65 -24 225 -102 382 -152 557 -176 89 -12 171 -25 255 -40
28 -5 160 -13 295 -19 243 -10 412 -4 550 19 36 6 95 15 132 20 106 15 195 37
313 79 61 21 134 46 164 56 114 36 456 215 507 264 19 19 39 52 45 75 6 22 20
46 30 54 10 7 19 18 19 24 0 6 26 38 57 72 55 59 59 61 107 62 46 1 92 12 137
35 9 4 34 12 56 18 39 11 143 72 174 104 19 19 66 47 127 78 23 12 45 25 48
30 3 5 15 9 28 9 13 0 31 9 41 20 10 11 25 20 34 20 9 0 32 8 51 19 19 10 67
28 105 40 39 13 90 32 115 43 25 11 88 35 140 53 52 18 131 48 175 65 44 17
175 63 292 101 392 128 780 331 809 422 3 11 21 39 39 62 18 24 43 68 55 99
13 31 26 56 30 56 12 0 90 -127 90 -147 0 -11 11 -35 25 -54 51 -70 84 -153
100 -254 30 -182 1 -582 -47 -644 -10 -13 -18 -30 -18 -37 0 -7 -9 -29 -20
-49 -11 -20 -20 -42 -20 -50 0 -8 -4 -15 -8 -15 -5 0 -15 -12 -23 -27 -8 -16
-22 -35 -31 -44 -10 -9 -18 -23 -18 -30 0 -8 -9 -21 -20 -29 -11 -8 -20 -19
-20 -24 0 -13 -80 -94 -125 -126 -22 -15 -112 -99 -200 -185 -87 -87 -171
-165 -185 -173 -14 -9 -29 -22 -33 -29 -4 -7 -16 -13 -26 -13 -9 0 -27 -9 -39
-20 -12 -11 -26 -20 -32 -20 -6 0 -19 -8 -30 -18 -10 -10 -53 -35 -95 -56 -41
-22 -75 -43 -75 -48 0 -4 -11 -8 -25 -8 -14 0 -33 -9 -42 -20 -10 -11 -27 -20
-39 -20 -11 0 -29 -9 -38 -19 -10 -11 -32 -23 -50 -27 -17 -3 -40 -13 -51 -20
-11 -8 -27 -14 -36 -14 -9 0 -57 -20 -107 -44 -49 -25 -106 -48 -126 -51 -19
-4 -40 -13 -47 -21 -6 -8 -24 -14 -39 -14 -15 0 -48 -11 -71 -25 -24 -14 -56
-25 -70 -25 -14 0 -34 -7 -45 -15 -10 -8 -32 -15 -47 -15 -32 0 -67 -16 -67
-31 0 -5 10 -14 23 -19 13 -5 16 -9 7 -10 -46 -4 -92 -12 -145 -24 -33 -8 -96
-21 -140 -30 -189 -39 -234 -50 -308 -77 -57 -21 -96 -29 -145 -29 -44 0 -75
-5 -89 -15 -22 -16 -130 -38 -263 -56 -41 -6 -127 -19 -192 -30 -64 -10 -134
-19 -156 -19 -23 0 -72 -7 -111 -15 -68 -14 -459 -24 -478 -12 -10 6 -512 18
-743 17 -85 0 -184 -5 -220 -10 -85 -13 -305 -12 -400 1 -41 6 -203 12 -360
14 -387 6 -467 11 -481 36 -8 16 -22 19 -92 19 -52 1 -91 6 -107 15 -16 9 -55
14 -111 15 -71 0 -91 4 -112 20 -14 11 -35 20 -47 20 -28 0 -114 21 -120 30
-3 4 -36 13 -74 19 -38 7 -79 19 -90 27 -11 8 -35 14 -53 14 -18 0 -65 11
-105 24 -40 13 -95 29 -123 36 -88 22 -190 53 -200 60 -5 4 -30 10 -55 13 -24
3 -46 11 -48 16 -2 6 -14 11 -26 11 -12 0 -45 11 -72 25 -27 14 -56 25 -64 25
-8 0 -48 16 -87 35 -40 19 -75 35 -79 35 -3 0 -61 26 -127 59 -67 32 -151 72
-187 90 -113 54 -303 187 -417 293 -45 42 -120 102 -165 132 -153 101 -418
361 -418 409 0 7 -20 42 -45 77 -25 35 -45 69 -45 75 0 5 -10 28 -21 50 -12
22 -24 56 -27 75 -2 19 -7 37 -11 40 -53 37 -59 506 -8 584 9 14 17 37 17 52
0 14 9 43 19 63 11 20 34 65 51 101 18 36 38 72 46 81 8 8 14 18 14 22 0 13
99 149 148 202 28 32 52 59 52 62 0 9 59 63 69 63 6 0 11 7 11 15 0 7 6 18 14
22 15 8 111 91 175 151 19 17 41 32 47 32 7 0 14 3 16 8 6 13 63 49 136 86 40
20 96 51 125 70 61 39 193 106 333 169 55 25 130 63 169 86 38 23 85 46 105
53 19 6 51 21 70 33 19 12 48 25 65 29 16 4 32 12 35 17 4 5 19 10 36 12 16 2
40 10 53 17 37 19 115 37 126 28 5 -4 12 -29 15 -56z m6247 -281 c22 -16 69
-44 104 -62 77 -40 286 -195 324 -241 26 -30 27 -37 23 -108 -3 -58 -12 -92
-35 -142 -32 -68 -62 -95 -195 -172 -27 -15 -48 -31 -48 -35 0 -14 -116 -67
-240 -111 -63 -23 -140 -56 -170 -74 -30 -19 -66 -37 -80 -41 -14 -4 -92 -41
-173 -81 -82 -41 -161 -74 -176 -74 -15 0 -37 -9 -49 -20 -13 -12 -35 -20 -57
-20 -22 0 -43 -8 -55 -20 -11 -11 -29 -20 -40 -20 -12 0 -42 -11 -68 -25 -26
-14 -54 -25 -62 -25 -8 0 -37 -11 -65 -25 -27 -13 -60 -25 -72 -25 -13 0 -23
-4 -23 -10 0 -14 -43 -13 -58 2 -19 19 -14 54 12 93 14 19 37 68 52 108 16 39
31 74 34 77 9 7 23 42 27 70 2 13 8 27 12 30 5 3 14 23 21 45 7 22 19 49 26
60 8 11 14 28 14 38 0 10 11 39 25 65 14 26 25 57 25 69 0 13 4 23 10 23 5 0
12 17 15 38 3 20 14 53 23 72 9 19 21 51 27 70 10 35 11 35 73 38 96 5 172 53
172 109 0 19 5 33 12 33 10 0 88 76 106 105 7 10 31 28 180 138 35 26 74 47
85 48 12 0 42 6 67 13 25 8 70 14 101 15 47 1 62 -4 96 -28z m-592 -3267 c-16
-13 -50 -31 -75 -38 -25 -8 -103 -44 -175 -81 -71 -36 -161 -79 -200 -94 -38
-16 -127 -56 -198 -90 -70 -34 -131 -61 -135 -61 -5 0 -51 -14 -103 -31 -77
-25 -116 -31 -214 -35 -66 -2 -140 -9 -165 -14 -56 -12 -236 -37 -270 -37
-113 0 -479 -51 -570 -78 -72 -22 -116 -25 -470 -30 -434 -6 -947 19 -1140 54
-30 6 -95 17 -145 25 -120 20 -368 72 -430 90 -27 8 -86 20 -130 27 -44 6
-165 33 -270 60 -104 27 -229 58 -277 69 -47 11 -99 27 -115 35 -15 8 -38 15
-51 15 -12 0 -37 6 -55 13 -18 8 -50 17 -72 21 -22 4 -53 13 -70 20 -57 24
-140 54 -187 67 -27 7 -42 16 -36 20 6 4 32 -1 57 -11 25 -9 67 -20 93 -24 27
-4 48 -12 48 -18 0 -6 9 -8 20 -5 11 3 99 -17 197 -44 98 -27 203 -54 233 -61
30 -6 116 -24 190 -40 119 -26 160 -29 365 -34 126 -3 295 -11 375 -18 80 -8
159 -14 175 -14 17 0 50 -6 75 -12 33 -10 283 -15 970 -20 993 -8 981 -8 1298
44 48 8 130 19 182 25 122 14 351 66 550 127 150 45 297 73 357 67 45 -5 57
-3 65 10 5 10 21 17 36 17 30 0 186 56 248 88 51 28 55 27 19 -4z"/>
<path d="M11654 4030 c-29 -10 -62 -25 -75 -34 -14 -8 -43 -22 -65 -30 -43
-15 -82 -33 -264 -118 -178 -85 -302 -140 -370 -164 -196 -70 -313 -119 -350
-144 -14 -9 -40 -22 -59 -29 -19 -6 -42 -17 -50 -25 -9 -7 -42 -23 -74 -36
-31 -12 -59 -26 -62 -29 -10 -17 -290 -144 -365 -166 -75 -23 -166 -59 -288
-117 -57 -26 -105 -48 -108 -48 -11 0 -188 -72 -264 -108 -121 -58 -349 -142
-565 -210 -153 -49 -354 -116 -395 -132 -25 -10 -112 -37 -195 -60 -82 -23
-161 -48 -175 -55 -14 -7 -50 -18 -80 -24 -30 -6 -84 -19 -120 -30 -36 -10
-101 -28 -145 -40 -44 -13 -101 -29 -127 -38 -78 -24 -161 -42 -200 -43 -21 0
-81 -11 -135 -25 -116 -29 -197 -47 -313 -70 -47 -9 -114 -23 -150 -30 -64
-14 -224 -40 -430 -70 -160 -23 -368 -44 -540 -54 -85 -5 -236 -21 -335 -36
-99 -14 -207 -30 -240 -35 -33 -5 -91 -16 -130 -24 -38 -8 -83 -18 -100 -21
-16 -4 -64 -13 -105 -21 -134 -26 -324 -76 -367 -95 -24 -11 -48 -19 -54 -19
-30 0 -186 -102 -210 -137 -32 -46 -43 -79 -30 -88 6 -3 8 -18 5 -34 -9 -44
73 -127 178 -179 103 -51 258 -112 287 -112 12 0 47 -9 79 -21 158 -57 513
-89 1002 -89 383 -1 698 30 790 75 14 7 68 27 119 44 52 18 109 38 125 46 17
7 66 29 109 49 43 19 95 49 116 65 21 17 82 54 137 82 54 29 113 62 129 74 17
12 55 36 85 54 30 17 80 50 110 72 30 22 93 66 140 97 47 31 93 64 102 73 20
17 362 209 374 209 4 0 21 11 38 23 17 13 61 38 97 55 37 18 72 39 79 47 7 8
18 15 25 15 7 0 70 27 140 61 71 33 138 59 149 57 21 -2 102 26 181 63 22 10
85 37 140 59 55 23 132 54 170 70 39 16 117 45 175 66 58 20 114 40 125 44 42
17 282 101 325 114 300 89 384 115 448 142 18 8 41 14 51 14 10 0 40 9 67 19
53 20 381 125 504 161 92 27 215 64 255 79 17 5 64 20 105 31 89 25 140 39
280 81 58 17 128 37 155 44 28 7 97 28 155 47 165 55 392 127 425 134 35 7
178 52 215 66 30 12 40 18 73 41 14 10 52 22 84 27 109 15 143 45 118 104 -11
27 -27 40 -72 61 -105 49 -223 84 -301 90 -76 6 -198 28 -257 46 -30 9 -191
46 -230 53 -11 2 -43 -4 -71 -14z m146 -32 c36 -17 243 -67 385 -93 79 -14
112 -26 210 -71 28 -13 58 -25 68 -28 33 -10 20 -42 -26 -60 -23 -9 -49 -16
-58 -16 -8 0 -19 -4 -25 -9 -5 -5 -47 -19 -94 -31 -47 -12 -114 -31 -150 -43
-75 -25 -64 -22 -115 -31 -22 -4 -51 -13 -65 -20 -32 -16 -131 -47 -445 -136
-137 -39 -259 -75 -270 -80 -11 -5 -47 -15 -80 -24 -33 -8 -130 -36 -215 -61
-85 -25 -195 -57 -245 -71 -49 -14 -110 -31 -135 -39 -78 -23 -113 -28 -105
-15 4 6 19 16 33 21 21 8 23 12 12 19 -28 18 -96 12 -115 -10 -10 -11 -27 -20
-37 -20 -10 0 -36 -9 -58 -20 -22 -11 -46 -20 -55 -20 -37 0 -115 -33 -120
-51 -4 -10 -14 -19 -24 -19 -9 0 -22 -5 -28 -11 -13 -13 -86 -31 -123 -29 -47
1 -143 -27 -275 -80 -62 -25 -86 -31 -133 -34 -31 -3 -62 -12 -80 -25 -19 -13
-45 -21 -71 -21 -28 0 -48 -7 -62 -21 -18 -18 -74 -41 -89 -37 -3 1 -15 -4
-28 -11 -20 -11 -27 -10 -42 4 -17 15 -20 14 -49 -14 -18 -17 -36 -31 -41 -31
-6 0 -10 -6 -10 -13 0 -25 -75 -74 -155 -102 -117 -41 -139 -49 -151 -57 -6
-4 -33 -14 -60 -23 -47 -16 -151 -62 -242 -108 -50 -25 -164 -29 -242 -7 -25
7 -56 15 -70 18 -41 11 -150 3 -211 -14 -31 -9 -65 -14 -75 -12 -22 4 87 44
226 83 144 40 256 76 485 156 17 6 81 26 144 44 63 19 121 41 131 50 9 8 20
15 24 15 22 0 332 117 415 156 103 49 264 114 281 114 6 0 28 9 48 20 53 28
307 134 372 155 30 10 72 26 93 37 20 10 70 30 110 45 91 32 379 162 475 214
81 43 141 67 307 124 103 35 205 82 600 275 138 68 193 90 215 85 3 -1 21 -8
40 -17z m-5150 -1818 c0 -9 -11 -12 -65 -14 -11 -1 -45 -9 -75 -19 -30 -10
-93 -24 -140 -31 -117 -19 -215 -42 -275 -65 -114 -44 -208 -70 -340 -92 -33
-5 -82 -14 -110 -18 -27 -5 -66 -14 -85 -20 -19 -6 -49 -11 -66 -11 -17 0 -44
-6 -60 -14 -16 -8 -67 -20 -114 -27 -47 -6 -119 -25 -160 -42 -55 -22 -100
-32 -168 -37 -92 -7 -93 -7 -136 -50 -42 -40 -47 -42 -109 -44 -36 0 -63 -4
-61 -7 7 -11 -20 -26 -58 -33 -20 -4 -47 -15 -60 -26 l-23 -19 45 -2 c69 -4
93 -1 100 12 7 11 22 8 100 -19 8 -3 21 -4 28 -3 6 1 12 -7 12 -17 0 -11 7
-23 16 -26 24 -9 13 -16 -53 -31 -101 -24 -266 -23 -353 2 -43 12 -79 17 -84
12 -15 -13 -26 -11 -26 5 0 18 -67 31 -85 16 -22 -18 -32 -5 -31 41 1 33 9 51
46 94 49 58 57 63 67 40 6 -17 -16 -39 -54 -55 -13 -5 -23 -18 -23 -29 0 -32
27 -44 93 -42 64 2 94 15 64 27 -28 11 -19 24 17 24 18 0 51 6 73 14 27 9 45
11 56 4 10 -5 25 -8 35 -6 11 2 -4 14 -40 32 -61 30 -73 50 -35 59 12 2 49 12
82 22 33 9 78 21 100 25 85 18 140 33 150 40 6 4 35 13 65 20 30 7 73 23 95
35 22 12 55 25 74 29 42 8 62 23 54 42 -3 9 1 14 12 14 11 0 15 -5 11 -16 -5
-12 -1 -14 17 -8 12 4 24 11 25 15 2 5 19 9 37 9 19 0 41 7 49 16 10 9 64 23
143 35 157 25 176 26 338 34 206 9 355 25 425 45 36 10 92 21 125 25 147 15
241 28 255 36 21 12 80 11 80 -1z m780 -260 c0 -5 -7 -15 -16 -22 -9 -7 -37
-32 -63 -55 -27 -24 -53 -43 -60 -43 -6 0 -22 -9 -34 -20 -94 -83 -116 -100
-132 -100 -9 0 -30 -11 -47 -25 -16 -14 -37 -25 -46 -25 -9 0 -30 -7 -46 -15
-18 -9 -41 -13 -57 -10 -15 4 -30 1 -34 -5 -4 -6 -16 -8 -28 -4 -12 4 -37 6
-54 5 -49 -3 -41 19 20 56 28 17 66 43 82 58 17 14 42 33 58 43 15 9 27 24 27
34 0 11 10 20 28 24 15 3 41 12 57 19 17 7 45 16 62 20 18 3 35 11 38 16 4 5
16 9 28 10 12 0 51 11 87 24 68 24 130 32 130 15z m-1180 -195 c8 -6 22 -15
31 -18 23 -8 20 -101 -4 -105 -9 -2 -14 -9 -10 -18 3 -9 -1 -14 -12 -14 -9 0
-40 -7 -68 -15 -29 -9 -76 -22 -105 -30 -28 -8 -76 -21 -105 -30 -115 -33
-137 -36 -277 -42 -103 -4 -194 0 -315 12 -93 9 -183 17 -200 17 -16 -1 -40 6
-52 14 -12 7 -28 14 -35 14 -7 0 -20 5 -28 10 -13 8 -13 11 2 22 9 7 18 22 20
32 1 10 10 22 18 26 58 29 101 41 192 54 57 9 117 20 133 24 17 5 64 10 106
11 42 1 92 6 110 12 19 5 79 12 134 15 55 3 161 11 235 18 144 13 206 11 230
-9z m-1550 -254 c0 -15 158 -46 305 -60 330 -33 782 -38 1020 -12 50 6 126 13
170 17 44 4 88 11 97 16 25 12 189 40 205 34 7 -3 15 -1 18 4 8 13 45 13 45 0
0 -6 -8 -14 -17 -17 -10 -4 -21 -11 -24 -15 -3 -5 -17 -11 -30 -13 -13 -2 -44
-9 -69 -15 -25 -6 -67 -13 -95 -16 -27 -3 -59 -9 -70 -14 -29 -14 -216 -40
-315 -45 -47 -3 -130 -9 -185 -14 -55 -5 -149 -7 -210 -6 -214 6 -380 16 -405
25 -14 5 -56 11 -94 15 -38 3 -90 11 -115 16 -133 31 -171 38 -221 44 -77 9
-130 46 -82 58 31 8 72 7 72 -2z m40 -121 c8 -5 11 -10 5 -11 -5 0 -1 -4 10
-8 11 -5 25 -4 32 1 7 5 14 5 18 -2 4 -7 13 -7 27 1 18 9 24 8 35 -7 7 -10 13
-14 13 -8 0 5 4 3 8 -4 6 -8 42 -14 103 -17 52 -3 157 -12 234 -20 77 -8 204
-17 283 -21 81 -4 142 -11 142 -17 0 -9 -369 -3 -460 7 -19 2 -71 7 -115 10
-95 7 -167 19 -253 41 -66 16 -126 47 -115 58 9 9 15 9 33 -3z"/>
</g>
</svg>
