<?xml version="1.0" standalone="no"?>
<!DOCTYPE svg PUBLIC "-//W3C//DTD SVG 20010904//EN"
 "http://www.w3.org/TR/2001/REC-SVG-20010904/DTD/svg10.dtd">
<svg version="1.0" xmlns="http://www.w3.org/2000/svg"
 width="849.000000pt" height="679.000000pt" viewBox="0 0 849.000000 679.000000"
 preserveAspectRatio="xMidYMid meet">
<metadata>
Created by potrace 1.16, written by Peter Selinger 2001-2019
</metadata>
<g transform="translate(0.000000,679.000000) scale(0.100000,-0.100000)"
fill="#000000" stroke="none">
<path d="M3925 6080 c-3 -5 -22 -10 -40 -10 -24 0 -38 -6 -45 -19 -5 -11 -28
-27 -50 -37 -30 -13 -40 -24 -40 -40 0 -13 -4 -26 -10 -29 -5 -3 -10 -41 -10
-84 l0 -78 70 -70 c39 -39 70 -78 70 -87 0 -9 -15 -31 -34 -51 -34 -35 -34
-35 -125 -35 -72 0 -93 -3 -97 -15 -4 -11 -21 -15 -59 -15 -38 0 -55 -4 -59
-15 -3 -9 -18 -15 -40 -15 -21 0 -36 -6 -40 -15 -3 -10 -19 -15 -45 -15 -22 0
-43 -4 -46 -10 -3 -5 -22 -10 -40 -10 -24 0 -38 -6 -45 -20 -9 -16 -21 -20
-65 -20 -42 0 -55 -3 -55 -15 0 -13 -28 -15 -195 -15 -187 0 -195 -1 -215 -22
-11 -12 -20 -25 -20 -30 0 -4 -7 -8 -15 -8 -11 0 -15 -13 -15 -54 0 -39 4 -55
15 -60 8 -3 15 -13 15 -23 0 -10 7 -27 15 -37 17 -23 20 -92 5 -131 -5 -14
-21 -30 -36 -35 -14 -6 -46 -30 -70 -55 -24 -25 -50 -45 -58 -45 -8 0 -35 -20
-59 -45 -25 -25 -52 -45 -62 -45 -19 0 -38 -17 -48 -42 -3 -10 -11 -18 -17
-18 -15 0 -40 -25 -40 -39 0 -6 -5 -11 -10 -11 -12 0 -110 -98 -110 -110 0 -4
-7 -10 -15 -14 -8 -3 -15 -13 -15 -23 0 -10 -14 -33 -30 -52 l-30 -34 -122 1
c-76 1 -124 5 -126 12 -2 5 -15 10 -28 10 -14 0 -27 7 -30 15 -4 8 -16 15 -29
15 -13 0 -25 7 -29 15 -3 8 -12 15 -21 15 -8 0 -15 7 -15 15 0 8 -4 15 -10 15
-5 0 -10 7 -10 15 0 9 -9 15 -25 15 -17 0 -43 19 -84 60 -33 33 -66 60 -74 60
-8 0 -31 18 -51 40 -20 22 -43 40 -51 40 -8 0 -15 4 -15 9 0 4 -25 34 -55 66
-30 31 -55 64 -55 72 0 18 -72 93 -90 93 -6 0 -18 6 -25 13 -38 33 -50 42 -63
44 -8 1 -19 6 -25 12 -6 6 -19 11 -29 11 -10 0 -21 7 -24 15 -4 8 -16 15 -29
15 -13 0 -25 -7 -29 -15 -4 -12 -24 -15 -86 -15 -59 0 -86 -4 -96 -15 -9 -8
-28 -15 -44 -15 -16 0 -30 -7 -34 -15 -3 -8 -15 -15 -26 -15 -11 0 -20 -4 -20
-10 0 -5 -20 -10 -44 -10 -30 0 -46 -5 -50 -15 -4 -11 -20 -15 -56 -15 -36 0
-52 -4 -56 -15 -4 -10 -20 -15 -50 -15 -31 0 -44 -4 -44 -14 0 -8 -7 -16 -15
-20 -24 -9 -19 -65 7 -87 13 -10 30 -18 39 -19 9 0 22 -7 29 -15 7 -8 25 -15
41 -15 15 0 34 -7 43 -15 8 -8 21 -15 30 -15 8 0 35 -20 59 -45 25 -25 52 -45
60 -45 20 0 87 -68 87 -87 0 -8 6 -21 12 -28 32 -36 38 -45 38 -62 0 -10 14
-27 30 -38 19 -12 30 -29 30 -43 0 -12 7 -25 15 -28 8 -4 15 -18 15 -33 0 -15
8 -31 20 -39 11 -7 20 -21 20 -31 0 -11 4 -23 10 -26 5 -3 10 -21 10 -40 0
-20 6 -35 15 -39 8 -3 15 -17 15 -31 0 -14 5 -25 10 -25 6 0 10 -13 10 -29 0
-16 6 -31 15 -35 10 -3 15 -19 15 -45 0 -25 5 -41 15 -45 8 -3 15 -16 15 -30
0 -13 7 -26 15 -30 9 -3 15 -19 15 -41 0 -20 7 -44 16 -52 9 -10 14 -26 11
-41 -3 -15 2 -31 14 -43 11 -11 19 -28 19 -39 0 -11 5 -20 10 -20 6 0 10 -17
10 -39 0 -30 4 -40 20 -44 16 -4 20 -14 20 -45 0 -23 6 -45 15 -52 8 -7 15
-21 15 -31 0 -10 5 -21 10 -24 6 -3 10 -17 10 -31 0 -15 6 -24 15 -24 9 0 15
-9 15 -24 0 -14 4 -28 10 -31 5 -3 10 -15 10 -25 0 -11 9 -24 20 -30 11 -6 20
-17 20 -25 0 -8 5 -15 10 -15 6 0 10 -8 10 -17 0 -10 14 -32 30 -50 17 -18 30
-38 30 -46 0 -17 42 -57 59 -57 23 0 91 -73 91 -97 0 -17 6 -23 21 -23 12 0
39 -20 62 -45 24 -25 51 -45 61 -45 10 0 37 -20 60 -45 25 -26 52 -45 64 -45
12 0 22 -4 22 -10 0 -5 11 -10 25 -10 14 0 28 -7 31 -15 4 -8 15 -15 26 -15
30 0 58 -19 58 -39 0 -11 7 -21 15 -25 8 -3 15 -17 15 -31 0 -14 6 -25 13 -25
7 0 21 -20 31 -44 10 -25 25 -47 32 -50 8 -3 14 -15 14 -27 0 -12 11 -30 25
-41 15 -11 25 -30 25 -44 0 -14 7 -27 15 -30 8 -4 15 -16 15 -29 0 -13 10 -30
25 -39 16 -11 25 -26 25 -42 0 -17 7 -28 20 -31 11 -3 20 -9 20 -14 0 -4 20
-28 45 -52 25 -25 45 -53 45 -62 0 -10 32 -48 70 -86 38 -37 70 -72 70 -78 0
-6 7 -11 15 -11 8 0 15 -4 15 -10 0 -5 11 -10 25 -10 16 0 25 -6 25 -15 0 -8
4 -15 8 -15 14 0 52 -36 52 -49 0 -6 9 -11 19 -11 30 0 121 -93 121 -124 0
-23 -4 -26 -34 -26 -41 0 -43 -2 -51 -66 -6 -46 -4 -51 29 -87 20 -21 36 -40
36 -43 0 -9 28 -34 37 -34 5 0 27 -13 49 -29 21 -16 49 -32 62 -35 12 -4 22
-12 22 -17 0 -5 10 -9 22 -9 12 0 49 -13 82 -29 34 -16 70 -31 81 -34 11 -3
46 -15 78 -26 32 -11 124 -37 205 -58 l147 -38 685 0 c748 0 739 0 926 60 93
31 261 108 344 158 44 26 174 136 179 151 2 6 17 25 33 43 38 40 33 80 -11 89
-51 11 -81 121 -44 164 10 11 23 20 29 20 7 0 14 7 18 15 3 8 9 15 13 14 19
-3 33 2 33 12 0 13 25 39 39 39 6 0 15 9 21 20 6 11 19 20 29 20 20 0 111 82
111 99 0 6 7 11 15 11 10 0 15 10 15 30 0 20 5 30 15 30 8 0 15 4 15 8 0 22
43 52 74 52 21 0 36 6 40 15 3 10 19 15 43 15 30 0 43 6 63 30 14 17 32 30 42
30 9 0 20 5 23 10 3 6 15 10 25 10 11 0 24 9 30 20 6 11 17 20 25 20 8 0 15 5
15 10 0 6 11 10 25 10 16 0 25 6 25 15 0 8 6 15 14 15 7 0 16 9 19 20 3 13 14
20 29 20 13 0 31 11 42 25 10 14 27 25 36 25 10 0 23 7 30 15 7 8 22 15 34 15
11 1 32 14 46 30 13 17 32 30 42 30 10 0 21 7 24 15 4 8 12 15 20 15 8 0 14 5
14 10 0 6 9 10 20 10 11 0 25 9 32 20 7 11 23 20 35 20 14 0 23 6 23 15 0 8 6
15 14 15 8 0 16 7 20 15 3 8 15 15 26 15 12 0 31 11 44 25 13 14 32 25 43 25
12 0 23 8 26 20 3 11 12 20 19 20 8 0 21 11 28 25 7 14 17 25 20 25 4 0 47 40
96 90 49 49 97 90 106 90 11 0 18 7 18 18 0 10 14 32 30 51 17 18 37 46 46 62
8 17 22 33 30 36 7 3 14 13 14 22 0 18 30 60 68 97 12 12 22 29 22 39 0 10 11
28 25 41 14 13 25 29 25 37 0 7 5 18 11 24 16 16 55 131 69 206 7 38 18 68 26
71 9 3 14 20 14 46 0 22 7 57 15 77 11 26 15 73 15 174 0 86 4 139 10 139 6 0
10 7 10 15 0 8 -4 15 -10 15 -6 0 -10 36 -11 88 -1 163 -22 292 -62 393 -15
36 -27 73 -27 82 0 9 -4 17 -10 17 -5 0 -13 12 -16 26 -4 14 -19 40 -35 57
-16 17 -29 39 -29 49 0 10 -4 18 -10 18 -5 0 -10 12 -10 26 0 17 -6 28 -20 31
-13 4 -20 14 -20 30 0 16 -18 42 -55 78 -30 30 -55 62 -55 71 0 25 -123 144
-149 144 -12 0 -21 6 -21 15 0 8 -4 15 -8 15 -5 0 -22 13 -38 30 -16 16 -39
30 -50 30 -13 0 -24 8 -27 20 -5 18 -14 20 -96 20 -80 0 -92 -2 -101 -20 -9
-16 -21 -20 -64 -20 -39 0 -55 -4 -60 -15 -3 -9 -18 -15 -35 -15 -16 0 -32 -4
-36 -9 -3 -6 -25 -13 -50 -16 -24 -4 -46 -13 -49 -21 -3 -8 -18 -14 -34 -14
-37 0 -92 -27 -115 -57 -10 -13 -28 -23 -39 -23 -11 0 -40 -20 -64 -45 -23
-25 -52 -45 -63 -45 -12 0 -21 -4 -21 -9 0 -11 -99 -111 -111 -111 -5 0 -9 -7
-9 -15 0 -8 -6 -15 -14 -15 -9 0 -16 -12 -18 -27 -2 -22 -9 -29 -30 -31 -19
-2 -28 -9 -28 -21 0 -22 -32 -52 -85 -80 -48 -25 -136 -29 -159 -6 -8 8 -26
15 -41 15 -14 0 -28 7 -31 15 -4 8 -14 15 -25 15 -10 0 -26 14 -36 30 -9 17
-21 30 -25 30 -4 0 -37 30 -73 67 -60 61 -65 70 -65 110 0 35 6 49 30 73 17
16 30 33 30 39 0 5 7 11 15 15 11 4 15 21 15 64 0 52 -3 60 -30 82 -16 14 -29
30 -30 36 0 21 -30 24 -260 24 -142 0 -231 4 -235 10 -3 6 -28 10 -55 10 -33
0 -50 5 -54 15 -4 11 -22 15 -75 15 -52 0 -70 4 -75 15 -4 11 -22 15 -76 15
-56 0 -70 3 -70 15 0 12 -13 15 -55 15 -30 0 -55 5 -55 10 0 6 -21 10 -48 10
-39 0 -52 5 -75 30 -36 38 -35 83 2 88 22 4 91 65 91 82 0 4 7 10 15 14 12 4
15 24 15 86 0 62 -3 82 -15 86 -8 4 -15 10 -15 15 0 14 -58 69 -74 69 -25 0
-46 12 -46 26 0 9 -12 14 -34 14 -19 0 -38 5 -41 10 -4 6 -88 10 -220 10 -132
0 -216 -4 -220 -10z m391 -64 c11 -8 37 -17 57 -21 21 -4 40 -11 43 -16 3 -5
12 -9 21 -9 9 0 31 -16 49 -35 28 -28 34 -42 34 -79 0 -43 -2 -47 -60 -91 -82
-63 -94 -84 -87 -145 5 -41 13 -56 44 -85 26 -24 48 -35 68 -35 17 0 42 -7 58
-15 15 -8 54 -17 87 -21 33 -4 63 -11 66 -15 3 -5 23 -9 45 -9 22 0 56 -7 76
-15 19 -8 56 -15 82 -15 25 0 55 -7 65 -15 11 -8 40 -16 65 -16 25 -1 37 -3
26 -6 -11 -2 -29 -8 -40 -13 -33 -14 -1483 -29 -1604 -16 l-104 11 49 13 c27
7 62 19 77 27 16 8 41 15 56 15 15 0 32 5 37 10 12 12 83 27 199 41 74 9 139
32 175 62 39 32 61 91 42 113 -5 5 -15 25 -23 44 -12 32 -74 100 -91 100 -5 0
-8 7 -8 15 0 8 -4 15 -10 15 -5 0 -10 20 -10 44 0 48 32 116 55 116 7 0 18 7
25 15 7 8 24 15 39 15 15 0 31 4 37 9 21 22 330 27 360 7z m2813 -718 c14 -14
49 -41 76 -61 28 -19 68 -59 90 -88 22 -29 76 -97 121 -153 44 -56 97 -129
117 -162 119 -198 145 -313 154 -674 8 -350 7 -356 -22 -406 -14 -23 -25 -54
-25 -69 0 -31 -20 -72 -65 -136 -50 -70 -64 -103 -68 -152 -2 -34 -16 -65 -62
-135 -32 -51 -62 -92 -67 -92 -4 0 -8 -5 -8 -10 0 -16 -14 -32 -120 -139 -114
-115 -228 -217 -281 -251 -21 -14 -59 -38 -85 -55 -25 -16 -58 -38 -73 -47
-14 -10 -36 -23 -48 -29 -13 -7 -23 -16 -23 -21 0 -4 -7 -8 -15 -8 -8 0 -15
-4 -15 -10 0 -5 -6 -10 -14 -10 -8 0 -21 -6 -28 -13 -23 -22 -67 -47 -83 -47
-8 0 -15 -4 -15 -8 0 -19 -313 -202 -325 -190 -2 2 10 22 26 46 16 23 29 47
29 53 0 6 7 17 15 25 8 9 15 28 15 44 0 16 7 35 15 44 8 8 15 26 15 40 0 15 4
34 9 44 6 9 13 34 16 55 3 20 10 37 15 37 16 0 11 22 -7 36 -17 13 -17 13 2
14 12 0 26 -5 32 -11 23 -23 237 7 259 36 6 8 16 15 22 15 42 0 251 170 252
205 1 5 21 28 46 50 25 22 56 51 68 64 35 40 82 85 106 101 12 8 40 43 62 78
22 34 43 62 47 62 4 0 15 19 26 43 10 23 24 46 32 50 7 4 13 21 13 36 0 16 7
34 15 41 8 7 15 22 15 34 0 11 7 30 15 40 8 11 15 37 15 58 0 25 5 41 15 44 8
4 15 18 15 33 0 14 7 35 15 45 8 11 15 36 15 57 0 20 7 71 16 114 17 83 16
148 -8 422 -8 91 -18 157 -26 165 -6 6 -12 31 -12 55 0 30 -5 45 -15 49 -8 4
-15 17 -15 29 0 27 -29 86 -47 98 -7 4 -13 12 -13 17 0 17 -64 100 -77 100 -7
0 -13 6 -14 13 0 17 -77 77 -99 77 -11 0 -21 4 -24 9 -3 4 -20 11 -38 15 -18
3 -46 12 -63 20 -90 43 -109 48 -158 43 -28 -2 -53 -10 -55 -16 -2 -6 -15 -11
-28 -11 -14 0 -27 -7 -30 -15 -4 -8 -11 -15 -18 -15 -19 0 -90 -41 -113 -66
-12 -13 -27 -24 -33 -24 -5 0 -10 -4 -10 -10 0 -5 -8 -19 -17 -29 -33 -37 -43
-50 -43 -61 0 -5 -4 -10 -8 -10 -16 0 -69 -115 -82 -175 -8 -33 -17 -64 -21
-70 -4 -5 -12 -37 -18 -70 -19 -97 -56 -230 -66 -235 -6 -3 -12 6 -13 20 -2
14 -9 31 -15 39 -14 16 -33 49 -46 79 -6 12 -14 22 -19 22 -5 0 -15 18 -22 41
-8 22 -22 45 -32 50 -10 5 -18 15 -18 20 0 12 -60 92 -72 97 -5 2 -8 9 -8 16
0 7 -13 26 -30 42 -37 36 -37 45 -1 67 27 16 104 92 187 185 62 69 261 229
329 263 17 9 49 25 72 37 23 12 51 22 63 22 11 0 31 6 43 14 19 11 78 27 157
40 14 3 60 3 104 1 66 -3 82 -7 105 -27z m-1649 -193 c0 -19 3 -35 8 -35 4 0
13 -23 19 -50 20 -83 41 -105 182 -195 27 -17 63 -43 80 -58 20 -17 44 -27 64
-27 46 0 99 -43 153 -122 26 -39 62 -87 80 -107 67 -72 137 -167 159 -216 40
-86 75 -215 81 -294 3 -42 10 -85 14 -96 10 -22 14 -59 32 -335 20 -293 14
-618 -12 -644 -5 -5 -10 -22 -10 -36 0 -14 -7 -35 -15 -46 -19 -25 -19 -43 2
-66 13 -15 14 -23 5 -44 -7 -13 -12 -33 -12 -42 0 -25 -74 -164 -126 -240 -24
-35 -44 -69 -44 -76 0 -11 -45 -70 -90 -116 -8 -9 -31 -36 -49 -60 -63 -82
-314 -320 -337 -320 -6 0 -14 -7 -18 -15 -3 -8 -12 -15 -21 -15 -8 0 -15 -5
-15 -10 0 -6 -11 -16 -25 -22 -15 -7 -24 -17 -21 -25 7 -18 -118 -143 -143
-143 -10 0 -24 -7 -31 -15 -7 -8 -20 -15 -29 -15 -9 0 -29 -7 -45 -15 -15 -8
-45 -15 -65 -15 -20 -1 -47 -7 -61 -15 -14 -8 -51 -14 -83 -15 -32 0 -68 -5
-80 -12 -12 -6 -53 -15 -92 -19 -218 -24 -272 -32 -290 -42 -13 -7 -103 -13
-245 -15 -124 -1 -234 -7 -245 -13 -39 -19 -579 6 -593 28 -7 9 -93 29 -179
40 -23 3 -47 11 -54 19 -7 8 -30 14 -58 14 -26 0 -56 7 -67 15 -10 8 -34 15
-51 15 -18 0 -33 4 -33 10 0 5 -15 12 -34 16 -19 3 -37 12 -40 20 -3 8 -17 14
-31 14 -14 0 -25 5 -25 10 0 6 -8 13 -17 17 -20 7 -96 64 -101 75 -2 5 -9 8
-16 8 -8 0 -29 13 -47 30 -19 16 -40 30 -46 30 -7 0 -13 4 -13 8 0 5 -9 13
-20 18 -20 9 -62 45 -182 157 -33 31 -65 57 -70 57 -5 0 -7 4 -4 8 3 5 -8 22
-24 37 -17 16 -30 33 -30 38 0 5 -15 24 -32 42 -45 46 -58 62 -58 74 0 5 -6
16 -13 23 -20 21 -77 108 -77 119 0 5 -4 9 -8 9 -5 0 -16 19 -26 43 -11 23
-25 50 -33 59 -19 21 -60 95 -74 131 -6 15 -15 27 -20 27 -5 0 -9 10 -10 23
-1 36 -42 102 -66 105 -23 3 -22 -2 -42 192 -12 115 -12 465 0 570 6 47 13
112 17 145 4 33 13 69 19 81 7 11 15 44 19 72 4 29 11 55 15 58 5 3 9 24 9 47
0 23 7 55 15 71 8 15 15 45 15 66 0 21 7 43 15 50 8 7 15 25 15 41 0 15 4 30
9 33 5 3 12 22 15 41 4 19 11 35 16 35 6 0 10 18 10 39 0 31 4 41 20 46 11 3
20 13 20 21 0 8 5 14 10 14 6 0 10 9 10 20 0 11 7 23 15 26 8 4 15 10 15 15 0
5 31 41 70 80 38 40 70 76 70 80 0 5 6 9 13 9 6 1 30 19 52 40 22 22 43 40 46
40 4 0 34 22 66 50 32 27 63 50 69 50 7 0 14 6 17 13 2 7 22 21 43 32 80 41
104 81 104 175 l0 70 68 0 c37 0 98 -7 137 -15 99 -21 1854 -26 1900 -6 20 9
101 16 247 20 119 3 220 9 224 14 4 4 31 7 61 7 l53 0 0 -35z m-4421 -86 c22
-11 42 -27 45 -35 3 -8 12 -14 19 -14 18 0 157 -139 157 -158 0 -4 11 -16 25
-26 14 -10 25 -25 25 -32 0 -8 7 -14 15 -14 8 0 15 -6 16 -12 0 -7 20 -29 45
-48 24 -19 57 -47 73 -62 16 -16 32 -28 35 -28 3 0 24 -18 47 -40 23 -22 45
-40 49 -40 4 0 18 -10 31 -21 13 -12 45 -35 71 -51 25 -15 49 -35 52 -43 3 -8
16 -15 29 -15 13 0 28 -5 35 -12 7 -7 38 -15 70 -19 31 -4 78 -13 103 -19 42
-12 45 -14 41 -41 -2 -16 -8 -32 -13 -35 -5 -3 -9 -18 -9 -34 0 -16 -6 -35
-14 -43 -14 -14 -27 -63 -46 -172 -18 -104 -38 -185 -48 -198 -5 -6 -12 -37
-15 -67 -3 -30 -10 -89 -17 -130 -17 -98 -17 -625 0 -695 14 -59 22 -125 14
-107 -3 6 -14 12 -25 12 -11 0 -22 7 -25 15 -4 8 -12 15 -20 15 -8 0 -14 3
-14 8 0 4 -24 23 -52 41 -62 40 -54 33 -185 161 -57 55 -103 106 -103 114 0 8
-6 19 -14 23 -7 4 -23 26 -34 47 -12 22 -25 42 -30 45 -13 9 -72 134 -72 153
0 9 -7 18 -15 22 -8 3 -15 14 -15 24 0 10 -4 22 -9 27 -4 6 -19 43 -31 83 -13
39 -27 72 -32 72 -4 0 -11 18 -14 40 -4 22 -11 43 -15 46 -5 3 -9 13 -9 22 0
9 -7 30 -15 46 -8 15 -15 39 -15 51 0 13 -7 25 -15 29 -9 3 -15 18 -15 39 0
19 -6 40 -14 47 -8 6 -12 18 -10 25 3 8 -4 22 -15 32 -13 11 -21 29 -21 50 0
21 -5 33 -13 33 -7 0 -21 26 -31 58 -10 31 -25 66 -32 77 -8 11 -14 30 -14 43
0 12 -7 25 -15 28 -8 4 -15 14 -15 24 0 25 -51 121 -67 127 -7 3 -13 10 -13
16 0 30 -120 186 -143 187 -8 0 -19 9 -71 55 -56 51 -157 105 -195 105 -12 0
-21 5 -21 10 0 6 -7 10 -15 10 -8 0 -15 5 -15 10 0 6 18 10 39 10 22 0 43 5
46 10 3 6 20 10 37 10 16 0 42 6 56 13 15 8 45 22 67 31 22 10 57 26 77 37 20
10 50 19 65 19 16 0 33 4 39 9 10 10 57 17 141 19 36 1 65 -4 92 -19z m5909
-51 c51 -29 156 -127 291 -272 44 -48 60 -90 61 -156 0 -20 14 -91 30 -158 32
-130 36 -191 20 -281 -5 -31 -14 -108 -19 -171 -8 -102 -14 -128 -56 -230 -25
-63 -65 -151 -87 -195 -58 -112 -223 -340 -283 -389 -27 -23 -75 -66 -105 -97
-64 -65 -183 -140 -255 -161 -64 -19 -159 -16 -163 5 -2 8 4 21 12 29 12 12
15 51 18 186 2 128 6 173 15 176 20 8 18 225 -2 232 -12 5 -14 37 -14 186 0
116 -3 184 -10 191 -6 6 -11 51 -11 103 0 69 -4 95 -15 104 -22 18 -18 48 10
74 16 15 25 34 25 53 0 17 7 36 15 43 11 9 15 32 15 80 0 51 4 69 15 74 12 4
15 23 15 85 0 44 5 83 10 86 6 3 10 24 10 45 0 29 5 42 20 50 15 8 20 21 20
50 0 22 5 40 10 40 6 0 10 9 10 19 0 11 14 31 30 44 17 14 30 30 30 36 0 6 3
11 8 11 4 0 27 19 52 41 52 47 89 66 162 84 29 7 54 13 56 14 1 1 28 -13 60
-31z"/>
</g>
</svg>
