<?xml version="1.0" standalone="no"?>
<!DOCTYPE svg PUBLIC "-//W3C//DTD SVG 20010904//EN"
 "http://www.w3.org/TR/2001/REC-SVG-20010904/DTD/svg10.dtd">
<svg version="1.0" xmlns="http://www.w3.org/2000/svg"
 width="912.000000pt" height="1125.000000pt" viewBox="0 0 912.000000 1125.000000"
 preserveAspectRatio="xMidYMid meet">
<metadata>
Created by potrace 1.16, written by Peter Selinger 2001-2019
</metadata>
<g transform="translate(0.000000,1125.000000) scale(0.100000,-0.100000)"
fill="#000000" stroke="none">
<path d="M3295 9660 c-27 -5 -144 -11 -260 -15 -169 -5 -230 -11 -310 -30 -55
-13 -125 -27 -155 -30 -30 -4 -66 -12 -80 -17 -14 -5 -95 -13 -180 -18 -184
-10 -350 -27 -405 -43 -22 -6 -43 -11 -47 -11 -3 -1 -10 -5 -15 -10 -5 -5 -2
-6 6 -1 9 5 12 4 7 -3 -4 -7 -13 -12 -21 -12 -24 0 -52 -47 -63 -107 -20 -101
-32 -365 -32 -704 0 -263 4 -359 19 -481 11 -84 22 -216 26 -293 8 -154 22
-251 55 -365 17 -60 23 -119 30 -291 5 -119 14 -266 20 -325 5 -60 10 -144 10
-187 0 -43 4 -108 9 -145 6 -37 15 -112 21 -167 6 -55 20 -129 30 -165 34
-121 46 -231 60 -535 7 -149 14 -219 30 -275 15 -56 25 -150 39 -380 15 -229
26 -335 45 -425 29 -137 56 -400 56 -543 0 -90 19 -240 40 -322 30 -119 56
-345 59 -523 1 -64 6 -177 12 -250 5 -72 13 -216 18 -318 4 -103 11 -191 14
-196 11 -18 37 -317 37 -427 0 -133 11 -201 60 -381 22 -80 44 -186 50 -247 6
-59 20 -142 31 -184 11 -43 23 -102 27 -133 l7 -56 40 0 c34 0 40 3 43 22 3
17 -2 23 -15 23 -15 0 -22 19 -42 108 -14 59 -28 152 -32 207 -8 118 -14 152
-44 265 -36 138 -56 269 -60 391 -5 162 -23 418 -31 431 -8 12 -18 239 -33
703 -10 318 -15 373 -62 695 -5 36 -13 122 -19 193 -5 70 -12 146 -15 170 -4
40 -4 40 4 7 5 -19 16 -98 26 -175 9 -77 32 -219 51 -315 19 -96 34 -205 34
-241 0 -36 11 -135 24 -220 13 -85 31 -239 40 -344 9 -104 23 -242 32 -305 8
-63 20 -158 25 -210 5 -52 14 -144 20 -205 9 -83 17 -120 35 -151 13 -23 20
-45 16 -49 -4 -5 -2 -5 4 -2 12 7 60 -42 56 -56 -1 -5 1 -6 5 -4 5 3 18 0 31
-7 22 -11 20 -13 -39 -46 -34 -19 -70 -46 -80 -59 -19 -24 -25 -76 -11 -98 8
-13 110 -63 129 -63 6 0 53 -14 105 -31 51 -16 125 -36 163 -44 39 -7 128 -25
198 -39 154 -32 226 -41 462 -61 99 -8 204 -20 234 -25 30 -6 93 -11 140 -12
79 -1 74 -2 -49 -10 -161 -10 -388 -1 -440 17 -21 7 -64 16 -96 20 -33 4 -77
13 -99 20 -41 13 -99 24 -268 50 -55 9 -107 20 -117 25 -11 6 -52 17 -92 25
-40 8 -111 26 -157 40 -103 31 -128 32 -136 4 -10 -29 6 -41 62 -46 26 -2 98
-18 158 -34 227 -62 252 -68 320 -78 78 -12 149 -27 340 -73 112 -26 158 -32
330 -38 258 -10 654 8 880 39 39 6 111 13 160 16 249 17 326 27 412 54 48 16
111 31 138 35 199 23 432 78 513 121 l62 33 0 -57 c0 -31 -4 -83 -9 -116 -5
-33 -13 -121 -16 -196 -7 -143 -1 -179 32 -179 28 0 2 -16 -57 -34 -78 -25
-104 -34 -195 -67 -44 -16 -95 -29 -113 -29 -30 0 -109 -27 -314 -107 -151
-59 -390 -72 -958 -54 -532 17 -716 29 -860 57 -69 13 -168 29 -221 34 -52 5
-132 21 -177 35 -46 14 -116 30 -157 34 -46 5 -87 17 -108 30 -44 27 -85 25
-79 -4 2 -14 28 -32 82 -57 42 -21 85 -38 95 -38 10 0 38 -7 64 -15 132 -42
213 -65 276 -76 39 -6 113 -21 165 -31 52 -11 145 -24 205 -28 173 -13 418
-29 440 -29 11 0 205 0 430 0 226 -1 439 4 475 9 36 5 117 14 180 20 99 9 140
19 306 75 105 35 211 67 235 71 24 3 88 22 142 40 55 19 111 34 125 34 15 0
43 10 62 22 19 12 39 22 44 23 14 0 19 61 6 85 -6 11 -17 20 -24 20 -9 0 -12
7 -9 19 3 10 0 22 -6 25 -16 11 -14 237 4 329 8 43 15 103 15 133 0 51 2 54
24 54 14 0 32 7 40 16 32 31 12 94 -29 94 -14 0 -25 2 -25 4 0 40 25 234 39
306 11 52 27 178 36 280 28 320 34 382 50 510 9 69 24 214 36 324 11 109 26
226 34 260 8 33 15 88 15 121 0 33 7 101 15 150 22 136 54 404 65 545 17 237
31 375 41 420 5 25 16 193 24 375 8 181 23 409 34 505 11 96 22 222 26 280 9
160 23 278 57 465 17 94 34 204 39 245 4 41 22 147 39 235 17 88 35 221 40
295 5 74 11 142 14 150 7 19 43 312 56 450 5 58 19 150 30 205 11 55 23 136
26 180 2 44 7 112 9 150 18 268 25 456 27 686 2 305 0 314 -83 372 -27 18 -45
38 -41 42 4 5 1 5 -5 1 -7 -4 -56 12 -110 34 -151 64 -230 87 -323 94 -47 4
-132 20 -190 36 -101 27 -117 28 -410 35 -253 5 -319 10 -390 26 -81 19 -128
21 -965 24 -484 2 -902 0 -930 -5z m975 -61 c-36 -5 -191 -13 -345 -19 -154
-5 -318 -14 -365 -20 -47 -6 -195 -14 -330 -19 -190 -7 -265 -13 -335 -30 -49
-11 -124 -21 -165 -21 -41 0 -120 -7 -174 -15 -55 -8 -118 -15 -140 -15 -37 0
-186 -25 -386 -64 -41 -8 -75 -14 -76 -13 0 1 -10 18 -21 38 l-21 36 87 6 c48
4 120 13 160 22 40 8 111 15 159 15 48 0 116 7 152 14 36 8 97 17 135 21 39 4
102 18 142 31 62 21 91 24 220 25 81 1 186 4 233 8 118 11 1153 10 1070 0z
m1310 -110 c36 -5 121 -11 190 -14 133 -6 175 -11 228 -27 18 -5 87 -18 155
-29 188 -29 225 -38 299 -75 37 -19 78 -34 91 -34 32 0 40 -10 23 -29 -7 -9
-18 -29 -23 -46 -7 -24 -19 -34 -59 -47 -43 -16 -77 -17 -284 -12 -317 7 -388
7 -875 -2 -786 -14 -2040 -17 -2280 -5 -126 6 -336 16 -465 22 -248 11 -235 9
-505 86 l-130 37 71 22 c124 38 315 63 664 89 107 8 223 19 257 25 35 6 197
15 360 20 164 6 348 14 409 19 62 5 195 8 295 6 101 -2 209 0 239 4 76 11
1260 2 1340 -10z m-3721 -306 c-8 -15 -9 -26 -2 -35 6 -7 13 -80 16 -163 14
-365 30 -614 42 -660 8 -27 19 -114 25 -192 5 -79 14 -164 20 -190 5 -27 12
-73 15 -103 3 -30 12 -86 20 -125 8 -38 17 -101 20 -140 8 -83 31 -243 50
-340 8 -38 17 -101 21 -140 3 -38 12 -99 19 -134 9 -42 11 -71 4 -88 -12 -32
-12 -318 1 -363 8 -30 33 -189 60 -380 5 -30 16 -98 25 -150 15 -81 18 -177
20 -645 1 -371 6 -580 14 -643 7 -52 11 -95 9 -98 -10 -9 -49 234 -58 356 -5
74 -14 200 -20 280 -5 80 -17 181 -25 225 -16 88 -45 403 -45 493 0 60 -17
183 -50 367 -10 61 -24 155 -30 210 -6 55 -18 159 -26 230 -18 160 -21 195
-34 465 -8 155 -18 246 -35 325 -27 125 -40 246 -56 520 -6 105 -14 242 -19
305 -10 125 -5 755 7 885 l7 80 8 -65 c6 -46 5 -71 -3 -87z m262 -44 c41 -11
112 -24 159 -29 47 -4 128 -15 180 -24 235 -38 355 -46 1000 -65 400 -12 628
-13 1620 -7 750 4 756 5 915 30 199 31 342 46 452 46 l85 0 -6 -30 c-3 -16 -9
-44 -12 -61 -4 -17 -1 -41 6 -54 10 -18 10 -34 -1 -76 -6 -30 -15 -106 -19
-169 -9 -142 -27 -318 -39 -385 -22 -125 -31 -186 -40 -270 -6 -49 -22 -148
-36 -218 -14 -70 -29 -185 -35 -255 -5 -70 -14 -151 -20 -181 -5 -29 -10 -88
-10 -130 0 -42 -9 -112 -20 -156 -15 -62 -20 -115 -20 -235 0 -85 -5 -193 -12
-240 -7 -52 -11 -180 -9 -330 1 -135 -3 -303 -9 -375 -9 -113 -16 -176 -46
-400 -3 -22 -19 -101 -36 -175 -17 -74 -34 -157 -38 -185 -4 -27 -22 -99 -38
-160 -47 -170 -101 -402 -112 -485 -5 -41 -21 -111 -36 -155 -14 -44 -34 -134
-45 -201 -10 -66 -28 -165 -39 -220 -12 -54 -25 -164 -30 -244 -5 -80 -22
-239 -39 -353 -17 -115 -31 -230 -31 -255 0 -26 -4 -94 -10 -152 -5 -58 -14
-168 -20 -245 -7 -77 -20 -183 -30 -235 -10 -52 -21 -126 -25 -165 -14 -173
-15 -176 -35 -170 -11 3 -29 1 -41 -5 -22 -12 -51 -5 -239 55 -25 8 -72 20
-105 26 -33 6 -65 15 -72 20 -22 18 -220 27 -539 23 -175 -3 -335 -7 -354 -10
-19 -2 -114 -9 -210 -14 -155 -7 -272 -21 -645 -75 -55 -9 -118 -15 -140 -15
-35 0 -65 -5 -153 -25 -17 -4 -22 -2 -16 6 5 9 0 10 -17 6 -13 -4 -33 -7 -44
-8 l-20 0 20 -9 c19 -8 14 -11 -20 -10 -3 0 -22 -7 -43 -15 -58 -25 -202 -58
-254 -59 -42 -1 -52 4 -87 38 -60 58 -75 113 -91 326 -5 69 -14 157 -19 195
-6 39 -12 104 -15 145 -2 41 -9 104 -15 140 -5 36 -19 157 -31 270 -11 113
-25 236 -31 274 -6 37 -15 107 -19 155 -4 47 -17 142 -29 211 -66 377 -82 492
-121 835 -22 194 -32 540 -25 873 7 353 0 456 -45 679 -17 81 -17 97 -5 145
40 153 34 314 -25 633 -19 103 -52 323 -86 580 -9 61 -24 153 -34 205 -28 138
-47 276 -60 430 -6 74 -16 153 -21 175 -10 42 -48 640 -49 763 l0 72 53 0 c29
0 87 -9 128 -21z m4532 -101 c-5 -307 -14 -540 -22 -610 -6 -42 -12 -136 -16
-210 -3 -73 -12 -167 -19 -208 -8 -41 -17 -104 -21 -140 -13 -140 -46 -399
-60 -465 -7 -38 -17 -115 -20 -170 -9 -150 -35 -395 -46 -438 -6 -21 -16 -95
-24 -165 -28 -251 -35 -308 -50 -377 -8 -38 -19 -158 -24 -265 -6 -120 -20
-253 -36 -345 -14 -82 -30 -222 -35 -310 -43 -721 -85 -1200 -121 -1375 -11
-52 -27 -169 -35 -260 -8 -95 -25 -207 -39 -265 -15 -58 -25 -129 -25 -170 0
-64 -6 -115 -39 -390 -13 -103 -28 -277 -41 -480 -6 -93 -16 -162 -30 -205
-13 -41 -25 -119 -32 -210 -9 -121 -14 -149 -31 -167 -11 -13 -25 -23 -31 -23
-6 0 -27 -11 -46 -23 -41 -28 -166 -73 -230 -82 -52 -8 -51 -5 12 28 76 40
137 98 163 154 45 93 28 198 -35 218 -15 5 -17 11 -11 28 5 12 18 78 29 147
55 326 65 409 82 690 11 176 25 302 60 550 11 74 23 182 26 240 3 58 12 132
19 165 8 33 25 128 39 210 14 83 37 191 51 240 15 50 33 131 41 180 8 50 28
144 43 210 52 217 79 339 91 410 7 39 29 162 50 275 46 245 67 472 69 755 2
227 13 399 30 455 6 19 11 81 11 138 0 57 7 151 15 210 8 59 21 199 30 312 9
112 18 207 21 211 2 4 8 58 14 121 5 63 21 168 34 234 13 65 27 148 31 184 4
36 15 115 26 175 10 61 23 162 29 225 6 63 13 122 16 130 4 8 10 67 14 130 4
63 20 164 34 225 28 119 31 150 16 160 -22 14 -9 50 20 54 3 1 4 -50 3 -111z
m-3643 82 c197 -12 913 -25 1220 -23 129 1 228 0 220 -3 -8 -2 -199 -8 -425
-12 -616 -13 -1307 9 -1505 48 -53 11 250 4 490 -10z m2087 -6965 c21 -4 31
-10 27 -17 -4 -6 -3 -8 3 -5 10 6 248 -50 307 -72 15 -6 69 -18 120 -25 129
-20 146 -28 146 -68 0 -18 -13 -58 -28 -88 -24 -48 -35 -60 -97 -93 -38 -21
-102 -56 -140 -77 -72 -39 -232 -95 -365 -127 -68 -16 -129 -18 -625 -18 -390
0 -573 4 -630 13 -44 7 -138 17 -210 22 -71 6 -150 15 -175 20 -25 6 -78 15
-118 21 -41 5 -125 23 -188 39 -64 17 -128 30 -143 30 -15 0 -54 9 -87 19 -61
20 -168 51 -241 70 -24 7 -43 16 -43 20 0 14 26 31 35 23 5 -4 5 -1 1 6 -4 7
1 16 16 22 13 5 43 25 68 43 25 18 63 38 85 44 191 58 354 96 486 114 85 11
208 28 274 39 108 17 120 17 130 3 10 -14 17 -14 46 -4 19 7 117 16 219 21
102 4 223 14 270 21 47 6 105 9 130 5 40 -6 45 -10 47 -33 1 -30 17 -43 56
-43 20 0 27 5 27 20 0 10 -8 24 -17 29 -10 6 -12 11 -5 11 6 0 12 6 12 13 0 9
63 12 287 10 158 -1 302 -4 320 -8z"/>
</g>
</svg>
