<?xml version="1.0" standalone="no"?>
<!DOCTYPE svg PUBLIC "-//W3C//DTD SVG 20010904//EN"
 "http://www.w3.org/TR/2001/REC-SVG-20010904/DTD/svg10.dtd">
<svg version="1.0" xmlns="http://www.w3.org/2000/svg"
 width="1277.000000pt" height="512.000000pt" viewBox="0 0 1277.000000 512.000000"
 preserveAspectRatio="xMidYMid meet">
<metadata>
Created by potrace 1.16, written by Peter Selinger 2001-2019
</metadata>
<g transform="translate(0.000000,512.000000) scale(0.100000,-0.100000)"
fill="#000000" stroke="none">
<path d="M5935 3854 c-38 -2 -225 -8 -415 -14 -335 -10 -545 -20 -835 -41
-318 -22 -414 -29 -500 -38 -49 -6 -157 -17 -240 -26 -305 -32 -657 -80 -892
-121 -181 -31 -261 -46 -318 -59 -33 -7 -96 -21 -140 -30 -153 -32 -221 -49
-375 -91 -82 -22 -249 -74 -295 -91 -22 -8 -56 -21 -75 -28 -248 -91 -468
-221 -544 -321 -18 -24 -37 -40 -40 -36 -4 4 -7 3 -5 -3 1 -5 -1 -17 -4 -25
-21 -52 -37 -115 -37 -145 0 -18 -5 -46 -11 -62 -7 -18 -8 -64 -4 -131 7 -97
9 -104 41 -143 19 -23 34 -47 34 -55 0 -13 27 -56 66 -106 11 -14 36 -34 55
-45 19 -10 62 -37 97 -61 35 -23 68 -42 73 -42 10 0 88 -41 179 -94 25 -14 53
-26 63 -26 10 0 51 -13 90 -29 40 -16 101 -40 137 -54 139 -54 240 -98 282
-121 24 -13 59 -27 78 -31 19 -3 60 -16 90 -26 30 -11 77 -25 105 -30 83 -15
305 -88 390 -129 44 -21 91 -41 105 -45 14 -5 81 -37 150 -73 121 -62 263
-134 306 -154 31 -15 94 -75 86 -84 -4 -4 -2 -4 5 -1 13 8 111 -100 137 -150
9 -18 16 -46 16 -62 0 -36 28 -111 42 -111 5 0 7 -4 3 -10 -8 -13 31 -50 55
-50 19 0 100 -20 155 -38 17 -6 89 -18 160 -27 72 -9 162 -22 200 -30 39 -7
135 -21 215 -30 80 -9 183 -23 229 -31 46 -8 123 -14 172 -14 49 0 137 -6 196
-14 59 -8 167 -17 238 -21 72 -3 171 -10 220 -15 372 -38 1641 -57 1855 -28
110 16 252 27 590 48 85 6 220 17 300 25 80 8 199 19 265 25 129 11 259 32
340 55 91 26 259 77 300 90 22 8 57 16 77 20 33 5 37 9 43 46 4 24 3 45 -4 53
-8 10 -8 22 -1 40 5 15 10 40 10 55 0 30 31 66 45 54 4 -5 5 -3 1 4 -9 15 116
148 163 174 20 11 50 28 66 39 17 11 37 23 45 27 8 4 33 19 55 33 71 45 79 49
170 94 91 45 146 69 223 99 39 16 66 26 160 61 20 8 87 30 147 49 153 50 293
101 480 177 39 16 144 56 233 90 90 33 186 76 213 95 27 19 73 45 102 60 28
14 75 39 102 56 28 16 64 37 80 45 58 29 74 41 127 88 49 44 53 51 54 94 0 29
11 69 29 106 39 82 52 210 29 281 -10 27 -27 66 -39 85 -29 47 -124 133 -200
182 -52 34 -225 122 -320 163 -75 32 -229 88 -290 105 -16 5 -61 18 -100 30
-114 34 -175 50 -260 71 -44 11 -105 26 -135 34 -99 25 -385 83 -590 119 -385
69 -943 139 -1425 181 -458 39 -625 49 -1160 70 -346 14 -1364 27 -1520 19z
m1340 -79 c331 -9 905 -42 1230 -71 94 -8 197 -17 230 -20 457 -39 1061 -123
1450 -200 72 -15 141 -28 155 -31 39 -7 159 -33 220 -49 30 -7 96 -23 145 -35
50 -11 104 -25 120 -30 169 -51 337 -105 370 -119 11 -5 61 -25 111 -44 257
-99 479 -241 549 -351 26 -41 26 -147 1 -195 -19 -35 -76 -106 -76 -95 0 4
-11 -7 -24 -23 -41 -47 -296 -192 -394 -222 -15 -5 -52 -18 -82 -30 -198 -77
-550 -168 -945 -244 -44 -8 -107 -20 -140 -27 -33 -6 -87 -15 -120 -20 -94
-13 -253 -36 -330 -48 -425 -65 -1578 -166 -1820 -160 -57 2 -56 2 25 10 47 4
157 13 245 18 292 20 780 70 990 102 39 6 113 17 165 25 156 24 352 61 475 89
33 8 92 21 130 30 148 33 427 120 493 154 9 5 35 17 57 27 121 57 220 136 256
206 69 133 -48 270 -336 393 -286 121 -844 241 -1485 319 -2061 250 -4909 111
-5995 -292 -208 -77 -355 -174 -407 -269 -64 -114 37 -253 257 -357 22 -10 48
-22 57 -27 39 -20 269 -97 368 -123 36 -10 88 -23 115 -31 28 -7 93 -21 145
-30 52 -9 156 -29 230 -45 74 -16 185 -36 245 -45 61 -9 130 -20 155 -25 86
-15 -15 -12 -140 5 -498 67 -657 92 -930 145 -30 5 -80 14 -110 20 -143 24
-377 78 -624 145 -94 25 -352 113 -445 151 -259 108 -412 209 -488 323 -32 48
-36 61 -36 120 0 50 5 76 22 108 24 45 104 124 177 174 58 40 218 119 324 159
47 18 94 36 105 41 119 47 543 156 825 213 41 8 113 22 159 31 46 10 102 15
125 12 39 -6 126 9 136 23 8 10 196 40 268 42 34 2 62 5 62 9 0 7 6 8 125 15
55 3 107 8 115 11 8 3 47 7 85 9 39 2 131 10 205 18 74 8 196 18 270 21 74 3
198 12 275 20 650 66 1736 95 2660 70z m0 -585 c935 -36 1352 -70 2000 -164
573 -84 1028 -209 1251 -343 87 -53 117 -79 143 -131 26 -51 26 -63 1 -111
-28 -56 -102 -115 -210 -168 -139 -67 -160 -75 -360 -134 -206 -61 -254 -69
-288 -49 -37 22 -165 75 -232 95 -30 10 -64 21 -75 25 -19 7 -59 17 -260 65
-450 107 -1211 182 -2085 206 -1057 30 -2304 -58 -2925 -206 -33 -8 -100 -24
-150 -36 -171 -41 -341 -104 -443 -165 -44 -26 -59 -30 -85 -24 -18 5 -68 16
-112 26 -123 26 -311 79 -405 114 -47 17 -96 35 -110 39 -53 18 -188 94 -233
133 -47 39 -87 101 -87 133 0 24 35 87 66 118 154 154 680 315 1349 413 639
93 1036 126 1960 163 301 12 985 13 1290 1z m-5940 -612 c76 -78 231 -175 390
-242 17 -8 46 -20 65 -29 19 -8 55 -23 80 -32 25 -9 60 -23 78 -31 18 -8 39
-14 47 -14 8 0 29 -6 47 -14 18 -8 60 -22 93 -31 252 -73 313 -89 575 -149
101 -23 330 -67 470 -91 52 -9 120 -20 150 -26 261 -46 1008 -135 1337 -159
73 -5 188 -14 255 -19 482 -40 1209 -66 1873 -66 904 0 1690 38 2470 121 45 4
116 13 372 43 91 11 250 34 393 56 383 60 810 153 1060 231 63 19 129 39 145
44 17 4 55 18 85 30 30 12 66 25 80 30 95 31 334 152 376 191 11 10 25 19 31
19 6 0 14 7 17 16 4 9 9 14 12 11 10 -9 -17 -48 -28 -41 -6 4 -8 3 -4 -4 8
-14 -123 -114 -222 -171 -116 -65 -306 -149 -407 -180 -22 -7 -56 -18 -75 -26
-42 -16 -226 -71 -385 -115 -30 -9 -159 -39 -270 -65 -604 -137 -1364 -241
-2205 -299 -421 -30 -562 -36 -1097 -48 -557 -12 -1416 -2 -1818 22 -808 49
-1341 104 -1975 206 -234 37 -554 102 -742 149 -32 8 -86 22 -120 31 -114 28
-356 99 -398 116 -14 6 -50 18 -80 29 -156 52 -283 108 -411 180 -95 54 -231
157 -223 170 3 5 0 8 -6 7 -16 -4 -82 92 -97 142 -7 22 -13 54 -13 72 1 32 1
32 13 10 7 -12 35 -46 62 -74z m6220 -158 c82 -5 229 -15 325 -20 96 -6 195
-13 220 -16 137 -13 286 -27 365 -34 108 -9 241 -26 350 -46 44 -8 91 -14 104
-14 13 0 55 -7 95 -15 39 -9 105 -23 146 -31 219 -45 437 -109 549 -162 l56
-27 -65 -13 c-450 -91 -880 -145 -1615 -202 -138 -11 -346 -20 -840 -40 -320
-12 -870 -12 -1190 0 -670 26 -739 30 -1155 66 -428 36 -868 92 -1140 145 -91
18 -91 23 -9 62 161 75 392 139 724 201 73 14 132 23 360 57 44 6 123 15 175
20 52 4 172 15 267 23 94 8 191 17 215 20 55 8 412 26 688 36 274 10 1177 3
1375 -10z m-5035 -547 c1572 -403 4308 -519 6515 -277 532 58 1119 155 1515
250 36 8 81 19 100 23 19 5 64 16 98 26 35 9 66 14 69 11 3 -2 -15 -10 -39
-16 -23 -7 -65 -21 -93 -32 -57 -24 -105 -40 -265 -93 -63 -20 -164 -57 -225
-82 -60 -25 -119 -49 -130 -53 -113 -47 -262 -129 -456 -253 -89 -57 -115 -81
-181 -162 -62 -78 -88 -141 -88 -216 0 -45 -3 -51 -27 -61 -16 -6 -42 -17 -60
-24 -17 -8 -36 -14 -42 -14 -6 0 -53 -13 -104 -29 -178 -57 -269 -74 -467 -91
-58 -5 -145 -13 -195 -19 -49 -6 -227 -18 -395 -26 -168 -9 -363 -23 -435 -31
-445 -50 -1466 -35 -2240 32 -93 8 -204 14 -245 14 -89 0 -314 24 -419 45 -40
8 -92 15 -115 15 -46 0 -255 34 -301 49 -16 5 -73 17 -125 25 -52 9 -122 21
-155 26 -34 6 -75 21 -97 36 -37 26 -38 29 -38 86 0 44 -6 67 -24 96 -36 57
-217 234 -261 257 -22 11 -58 31 -80 44 -22 14 -60 36 -85 49 -25 13 -54 29
-65 35 -93 55 -160 89 -211 107 -32 12 -86 35 -119 50 -56 27 -86 39 -175 69
-53 19 -130 41 -175 51 -22 5 -67 18 -100 30 -33 12 -73 25 -90 29 -41 12
-125 49 -125 56 0 6 11 4 150 -32z"/>
</g>
</svg>
