<?xml version="1.0" standalone="no"?>
<!DOCTYPE svg PUBLIC "-//W3C//DTD SVG 20010904//EN"
 "http://www.w3.org/TR/2001/REC-SVG-20010904/DTD/svg10.dtd">
<svg version="1.0" xmlns="http://www.w3.org/2000/svg"
 width="337.000000pt" height="1079.000000pt" viewBox="0 0 337.000000 1079.000000"
 preserveAspectRatio="xMidYMid meet">
<metadata>
Created by potrace 1.16, written by Peter Selinger 2001-2019
</metadata>
<g transform="translate(0.000000,1079.000000) scale(0.100000,-0.100000)"
fill="#000000" stroke="none">
<path d="M1939 10156 c-3 -4 -46 -11 -95 -17 -60 -7 -110 -20 -153 -40 -35
-16 -72 -29 -82 -29 -11 0 -38 -17 -62 -39 -44 -40 -86 -67 -100 -63 -5 1 -6
-2 -2 -7 3 -6 -7 -23 -22 -39 -15 -15 -21 -19 -13 -8 15 21 15 21 -7 2 -12
-10 -21 -21 -21 -25 4 -12 -41 -87 -72 -121 -18 -19 -39 -51 -47 -70 -8 -19
-27 -53 -43 -75 -51 -75 -118 -210 -140 -280 -13 -38 -28 -83 -36 -100 -7 -16
-27 -86 -43 -155 -64 -266 -87 -505 -85 -860 2 -182 2 -187 38 -310 21 -69 44
-150 53 -180 46 -167 179 -362 328 -483 118 -95 162 -125 204 -138 41 -12 151
-101 151 -122 0 -7 9 -29 20 -49 10 -20 31 -85 45 -145 24 -97 26 -121 21
-233 -3 -69 -8 -318 -11 -555 -3 -236 -10 -484 -15 -550 -5 -66 -12 -331 -15
-590 -7 -561 -22 -1111 -35 -1325 -5 -85 -10 -360 -11 -610 -1 -294 -7 -515
-16 -625 -8 -93 -17 -278 -19 -410 -2 -132 -12 -307 -20 -389 -19 -178 -13
-278 22 -352 13 -28 24 -63 24 -78 0 -43 25 -79 86 -127 57 -44 57 -44 138
-43 134 1 194 27 301 130 47 46 125 181 125 218 0 8 6 16 13 19 9 3 11 67 9
288 -2 156 -7 298 -12 314 -12 43 -29 493 -41 1085 -5 283 -16 601 -25 705 -8
105 -19 402 -24 660 -10 523 -22 736 -56 950 -7 50 -16 186 -18 302 -2 116 -7
217 -11 223 -8 13 -29 678 -26 825 2 93 16 168 39 212 6 10 40 49 76 87 50 52
77 71 113 82 26 8 56 23 67 33 12 10 41 29 64 41 55 27 123 89 175 159 22 29
49 63 60 74 26 26 117 177 117 195 0 6 5 12 11 12 5 0 7 5 4 10 -3 6 -2 10 4
10 14 0 70 152 86 234 8 39 25 109 39 156 14 48 25 113 25 150 1 36 4 76 7 90
13 57 -3 540 -22 660 -3 19 -23 107 -44 195 -37 152 -50 187 -122 345 -16 35
-39 86 -49 113 -52 132 -191 347 -281 434 -57 55 -152 123 -173 123 -7 0 -23
8 -36 18 -41 31 -122 65 -174 73 -87 14 -180 21 -186 15z m168 -92 c57 -9 95
-22 124 -41 23 -16 65 -42 93 -60 28 -17 69 -51 91 -74 22 -24 29 -35 15 -24
l-25 20 19 -22 c10 -13 22 -20 27 -18 11 7 30 -14 102 -117 111 -160 169 -282
259 -542 17 -50 34 -93 38 -96 4 -3 13 -32 20 -65 6 -33 20 -94 31 -136 12
-51 22 -145 29 -275 6 -110 15 -239 20 -289 8 -87 2 -151 -29 -300 -17 -82
-62 -241 -75 -265 -7 -14 -19 -42 -26 -63 -43 -134 -201 -366 -312 -458 -72
-59 -161 -118 -198 -130 -19 -6 -51 -23 -70 -38 -19 -14 -38 -25 -42 -24 -4 2
-5 -3 -2 -11 3 -7 -15 -32 -41 -57 -40 -37 -69 -84 -79 -124 -2 -5 -9 -23 -17
-40 -17 -36 -17 -397 0 -492 30 -165 51 -475 51 -733 0 -146 4 -301 10 -345
30 -241 41 -474 40 -845 0 -300 4 -441 19 -640 46 -582 52 -700 67 -1305 2
-104 11 -305 20 -445 18 -299 15 -571 -9 -678 -20 -85 -53 -156 -69 -146 -7 4
-8 3 -4 -5 10 -16 -22 -64 -36 -55 -6 4 -8 3 -5 -3 6 -10 -36 -42 -108 -83
-19 -11 -63 -22 -98 -26 -53 -5 -66 -4 -78 10 -24 30 -46 50 -72 68 -13 9 -27
28 -31 42 -3 14 -11 38 -18 53 -6 15 -13 66 -14 113 -5 127 25 937 36 1000 7
33 11 255 10 565 0 281 5 602 11 715 6 113 12 351 14 530 6 698 18 1265 26
1275 19 25 30 245 39 755 4 300 11 553 15 562 8 19 -33 159 -49 170 -7 5 -7 8
-1 8 6 0 5 3 -1 8 -6 4 -19 32 -29 62 -9 30 -24 65 -32 78 -7 12 -11 27 -8 33
4 5 1 8 -7 7 -7 -2 -12 5 -12 14 1 10 -2 16 -6 13 -11 -7 -33 22 -25 34 3 6 0
8 -8 5 -9 -3 -27 10 -48 35 -29 37 -180 131 -208 131 -19 0 -96 59 -147 112
-105 111 -234 352 -234 438 0 16 -3 30 -8 32 -4 2 -19 41 -32 88 -22 76 -25
102 -24 245 1 94 8 199 18 255 9 52 16 131 16 176 0 44 3 84 8 88 4 4 7 11 8
14 0 4 6 21 13 37 7 17 17 56 22 88 9 56 48 229 70 312 25 96 136 350 160 365
4 3 39 59 77 125 39 66 75 119 82 117 6 -1 9 2 6 7 -12 19 8 43 91 107 202
156 329 193 540 158z"/>
</g>
</svg>
