<?xml version="1.0" standalone="no"?>
<!DOCTYPE svg PUBLIC "-//W3C//DTD SVG 20010904//EN"
 "http://www.w3.org/TR/2001/REC-SVG-20010904/DTD/svg10.dtd">
<svg version="1.0" xmlns="http://www.w3.org/2000/svg"
 width="245.000000pt" height="1083.000000pt" viewBox="0 0 245.000000 1083.000000"
 preserveAspectRatio="xMidYMid meet">
<metadata>
Created by potrace 1.16, written by Peter Selinger 2001-2019
</metadata>
<g transform="translate(0.000000,1083.000000) scale(0.100000,-0.100000)"
fill="#000000" stroke="none">
<path d="M1283 10373 c-28 -10 -54 -29 -75 -56 -37 -49 -55 -69 -43 -48 5 10
4 12 -4 7 -6 -4 -9 -11 -7 -15 3 -4 -17 -38 -44 -77 -66 -92 -77 -117 -116
-269 -18 -71 -46 -182 -63 -245 -39 -146 -68 -304 -81 -447 -6 -62 -15 -124
-20 -138 -5 -14 -9 -29 -8 -33 1 -4 -1 -14 -5 -22 -3 -8 -13 -73 -22 -145 -10
-71 -21 -155 -26 -185 -4 -30 -15 -147 -24 -260 -8 -113 -22 -251 -30 -306 -8
-56 -15 -164 -15 -240 0 -77 -5 -251 -10 -389 -21 -504 -21 -713 1 -1090 33
-587 37 -635 54 -740 20 -120 64 -306 75 -320 4 -5 13 -30 20 -54 17 -63 101
-236 156 -323 26 -40 71 -96 100 -125 l53 -53 -11 -73 c-7 -45 -12 -258 -14
-572 -2 -447 -19 -1231 -29 -1390 -4 -70 -23 -335 -29 -415 -2 -30 -9 -185
-16 -345 -6 -159 -15 -357 -19 -440 -15 -280 -13 -535 3 -605 9 -36 16 -86 16
-111 0 -50 20 -108 44 -128 8 -7 23 -31 34 -55 44 -93 144 -147 277 -150 49
-1 66 3 89 21 16 13 32 21 36 18 8 -5 53 40 57 58 14 60 36 124 52 150 36 58
59 141 70 245 14 127 14 364 0 457 -5 39 -14 180 -19 315 -5 135 -14 335 -20
445 -5 110 -15 286 -20 390 -5 105 -14 204 -19 222 -12 41 -29 310 -35 563
-18 663 -19 789 -7 804 9 10 12 78 11 248 0 128 1 539 3 913 2 374 0 781 -5
905 -5 146 -4 298 3 435 18 335 22 668 10 769 -6 50 -11 276 -12 506 -1 338 2
443 16 565 9 83 18 161 18 175 1 112 -17 520 -28 625 -8 72 -12 150 -10 175 3
25 7 119 9 210 3 91 8 198 11 238 8 118 -9 234 -48 316 -32 67 -37 72 -83 89
-58 20 -142 20 -201 0z m248 -178 c13 -42 16 -193 11 -605 -1 -124 2 -326 9
-450 7 -148 8 -312 3 -480 -11 -330 -10 -1140 0 -1343 6 -103 5 -220 -2 -335
-21 -322 -23 -474 -12 -735 20 -444 13 -1584 -11 -1942 -8 -120 -4 -902 7
-1110 3 -60 12 -157 20 -215 21 -157 35 -342 40 -565 3 -110 9 -366 14 -570 5
-229 13 -382 20 -402 8 -21 10 -89 7 -205 -7 -253 -25 -353 -83 -470 -13 -26
-24 -56 -24 -67 0 -25 -28 -53 -43 -44 -7 3 -9 2 -4 -2 14 -16 -35 -55 -70
-55 -79 0 -192 47 -177 72 4 7 2 8 -4 4 -7 -4 -18 7 -28 26 -9 18 -27 46 -40
61 -13 15 -25 42 -28 60 -15 106 -28 173 -36 183 -5 6 -11 124 -12 262 -2 139
-7 252 -12 252 -4 0 -5 21 -1 47 4 27 11 122 16 213 4 91 17 275 27 410 52
638 70 1064 82 1880 6 389 13 636 21 693 14 94 9 119 -26 126 -11 2 -26 -7
-36 -20 -10 -13 -19 -19 -19 -14 0 6 -12 24 -26 40 -42 49 -117 183 -161 290
-44 106 -71 197 -104 360 -36 177 -39 197 -49 385 -5 102 -11 201 -14 220 -21
141 -28 975 -13 1372 5 114 8 268 8 341 -1 74 4 167 9 208 5 41 14 121 20 179
6 58 13 121 16 140 3 19 10 78 14 130 4 52 24 205 44 340 20 135 43 306 51
380 17 167 42 297 89 465 20 72 44 157 53 190 9 33 20 65 24 70 4 6 10 24 13
42 4 17 20 51 35 75 15 24 35 56 45 71 9 16 22 25 28 21 6 -4 8 -3 5 3 -4 5 7
28 23 50 32 43 74 60 159 65 37 3 49 -2 76 -27 18 -16 38 -48 46 -70z"/>
</g>
</svg>
