<?xml version="1.0" standalone="no"?>
<!DOCTYPE svg PUBLIC "-//W3C//DTD SVG 20010904//EN"
 "http://www.w3.org/TR/2001/REC-SVG-20010904/DTD/svg10.dtd">
<svg version="1.0" xmlns="http://www.w3.org/2000/svg"
 width="345.000000pt" height="987.000000pt" viewBox="0 0 345.000000 987.000000"
 preserveAspectRatio="xMidYMid meet">
<metadata>
Created by potrace 1.16, written by Peter Selinger 2001-2019
</metadata>
<g transform="translate(0.000000,987.000000) scale(0.100000,-0.100000)"
fill="#000000" stroke="none">
<path d="M1390 9613 c-12 -21 -27 -67 -32 -103 -5 -36 -14 -83 -19 -105 -34
-128 -81 -388 -93 -509 -17 -158 -34 -586 -33 -776 1 -69 -2 -280 -7 -470 -6
-238 -5 -378 2 -452 14 -132 73 -326 114 -372 30 -34 116 -181 111 -189 -3 -6
-1 -7 4 -4 14 9 65 -32 57 -44 -3 -5 -2 -8 3 -7 11 3 91 -39 129 -69 30 -22
32 -28 37 -106 3 -45 13 -154 22 -242 17 -165 16 -334 -4 -605 -5 -69 -14
-201 -20 -295 -6 -93 -15 -237 -21 -320 -6 -82 -15 -386 -19 -675 -4 -289 -10
-531 -14 -537 -6 -10 -11 -54 -27 -290 -5 -62 -11 -121 -14 -131 -4 -11 -11
-80 -16 -153 -5 -74 -14 -190 -19 -259 -22 -259 -34 -599 -26 -742 4 -78 9
-262 10 -408 2 -147 8 -294 15 -330 13 -72 6 -351 -11 -453 -6 -32 -10 -108
-10 -168 0 -130 20 -183 86 -229 22 -16 52 -42 67 -57 35 -39 86 -53 183 -51
60 1 91 7 127 25 26 13 50 23 53 23 10 0 50 36 101 89 l51 53 6 316 c12 576 4
872 -40 1412 -20 248 -26 536 -11 563 14 26 13 1186 -1 1230 -20 63 -36 317
-36 597 -1 157 -4 308 -8 335 -15 111 -17 152 -36 715 -9 283 2 518 28 567 27
52 161 194 186 197 11 2 20 7 20 12 0 5 15 25 33 44 19 19 55 75 82 124 40 74
51 105 61 175 17 122 18 1246 1 1263 -8 8 -12 54 -13 138 0 69 -4 177 -9 240
-4 63 -13 192 -20 285 -26 387 -57 671 -78 719 -34 81 -73 89 -101 22 -30 -69
-45 -222 -57 -581 -3 -104 -7 -210 -9 -235 -2 -25 -6 -171 -9 -325 -4 -154 -9
-376 -12 -494 l-6 -215 -26 54 c-41 86 -48 230 -32 602 23 546 21 788 -8 1073
-14 133 -59 188 -109 133 -15 -17 -25 -55 -39 -148 -17 -114 -19 -191 -19
-870 0 -738 -4 -860 -31 -860 -25 0 -53 38 -69 95 -17 57 -13 165 15 415 30
267 10 1119 -31 1287 -15 63 -49 106 -80 101 -29 -4 -51 -64 -74 -205 -16 -94
-16 -150 -6 -680 11 -543 10 -723 -5 -921 -5 -67 -9 -84 -25 -92 -24 -13 -54
5 -69 40 -43 104 -51 415 -29 1050 12 330 3 616 -23 715 -6 22 -12 51 -15 64
-6 35 -11 41 -38 41 -16 0 -30 -11 -45 -37z m634 -923 c1 -814 1 -811 55 -921
30 -61 47 -75 83 -66 56 14 57 22 68 653 15 877 21 1032 43 1134 l12 55 6 -75
c4 -41 12 -163 18 -270 6 -107 18 -262 26 -345 8 -82 22 -280 31 -440 9 -169
21 -298 28 -310 14 -26 21 -1018 6 -1085 -5 -25 -13 -65 -19 -90 -14 -64 -93
-231 -124 -258 -13 -13 -33 -25 -43 -26 -11 -2 -19 -7 -20 -12 0 -5 -31 -40
-68 -79 -105 -110 -121 -145 -136 -305 -13 -145 -3 -603 23 -975 6 -99 12
-317 12 -485 0 -206 5 -347 15 -435 20 -177 21 -1121 0 -1414 -11 -169 -12
-238 -1 -395 7 -105 16 -279 21 -386 5 -107 13 -260 18 -340 5 -80 8 -369 6
-643 l-3 -498 -23 -19 c-71 -60 -98 -72 -184 -85 -97 -14 -136 -8 -181 28 -15
13 -41 31 -56 41 -16 10 -26 20 -23 23 2 3 -3 14 -13 24 -34 37 -33 253 1 296
14 17 16 467 2 484 -8 10 -14 117 -18 339 -3 179 -8 375 -11 435 -3 68 1 175
11 280 8 94 19 229 24 300 8 144 26 343 41 480 24 211 40 542 49 1010 4 275
11 527 14 560 4 33 11 164 16 290 6 127 12 262 15 300 3 39 8 102 10 140 3 39
11 103 17 143 11 72 6 181 -23 542 -9 120 -34 240 -49 240 -4 0 -21 13 -36 29
-16 16 -47 41 -69 55 -94 62 -154 136 -216 261 -32 66 -65 147 -73 180 -39
153 -57 625 -31 815 11 81 16 176 14 270 -5 257 -3 321 15 560 13 182 25 269
51 385 18 83 39 182 46 220 6 39 17 97 24 130 l11 60 8 -115 c4 -63 11 -146
16 -185 8 -71 7 -163 -6 -845 -7 -383 -3 -455 27 -560 28 -93 107 -135 163
-85 29 25 30 28 39 163 5 75 6 439 2 807 -5 647 -5 674 15 773 11 57 20 107
20 110 0 4 5 -1 11 -11 10 -17 17 -86 40 -407 13 -185 6 -859 -10 -970 -6 -41
-12 -136 -14 -210 -2 -119 1 -140 19 -181 28 -60 81 -101 126 -97 28 3 36 10
58 53 l25 50 -1 440 c0 242 -3 595 -7 785 -7 320 -6 353 13 450 11 58 20 107
21 110 1 3 6 -24 12 -60 6 -37 10 -384 11 -820z"/>
</g>
</svg>
