<?xml version="1.0" standalone="no"?>
<!DOCTYPE svg PUBLIC "-//W3C//DTD SVG 20010904//EN"
 "http://www.w3.org/TR/2001/REC-SVG-20010904/DTD/svg10.dtd">
<svg version="1.0" xmlns="http://www.w3.org/2000/svg"
 width="695.000000pt" height="1125.000000pt" viewBox="0 0 695.000000 1125.000000"
 preserveAspectRatio="xMidYMid meet">
<metadata>
Created by potrace 1.16, written by Peter Selinger 2001-2019
</metadata>
<g transform="translate(0.000000,1125.000000) scale(0.100000,-0.100000)"
fill="#000000" stroke="none">
<path d="M5830 10696 c0 -18 -22 -26 -70 -26 -51 0 -90 -34 -90 -79 0 -31 -5
-35 -47 -31 -17 1 -23 -4 -23 -19 0 -20 -6 -21 -80 -21 -73 0 -80 -2 -80 -20
0 -18 -7 -20 -55 -20 -42 0 -55 -4 -55 -15 0 -18 -39 -29 -81 -23 -25 4 -33 1
-37 -14 -3 -15 -14 -18 -58 -18 -46 0 -54 -3 -54 -19 0 -23 -19 -31 -75 -31
-24 0 -45 -5 -47 -11 -2 -6 -33 -13 -68 -16 -36 -2 -78 -11 -95 -18 -16 -7
-137 -41 -267 -74 -213 -55 -246 -61 -337 -61 -99 0 -102 -1 -111 -25 -8 -22
-15 -25 -60 -25 -38 0 -50 -4 -50 -15 0 -9 -9 -15 -25 -15 -16 0 -25 -6 -25
-15 0 -9 -9 -15 -23 -15 -12 0 -49 7 -80 15 -32 8 -78 15 -102 15 -33 0 -45 4
-45 15 0 12 -19 15 -114 15 -111 0 -115 1 -118 23 -3 22 -4 22 -195 25 -186 2
-193 3 -193 23 0 19 -6 20 -157 19 -87 -1 -164 -1 -170 0 -7 0 -13 7 -13 15 0
13 -26 15 -171 15 -162 0 -171 1 -176 20 -5 19 -14 20 -194 20 -182 0 -189 1
-189 20 0 15 -7 20 -25 20 -18 0 -25 -5 -25 -20 0 -19 -7 -20 -182 -20 -139 1
-187 4 -201 14 -14 11 -15 15 -5 19 7 3 -12 6 -43 6 -49 1 -57 -2 -62 -19 -4
-15 -14 -20 -41 -20 -29 0 -36 -4 -36 -20 0 -11 -7 -20 -15 -20 -10 0 -15 -10
-15 -30 0 -23 -6 -33 -25 -40 -15 -6 -25 -17 -25 -30 0 -13 -7 -20 -20 -20
-11 0 -20 -7 -20 -15 0 -8 -7 -15 -15 -15 -11 0 -15 -11 -15 -36 0 -27 -5 -37
-20 -41 -11 -3 -20 -12 -20 -19 0 -8 -9 -14 -20 -14 -13 0 -20 -7 -20 -20 0
-11 -6 -20 -14 -20 -10 0 -16 -13 -18 -37 -2 -31 -7 -39 -25 -41 -15 -2 -23
-10 -23 -23 0 -12 -7 -19 -20 -19 -13 0 -20 -7 -20 -20 0 -11 -7 -20 -15 -20
-8 0 -15 -7 -15 -15 0 -8 -9 -15 -20 -15 -16 0 -20 -7 -20 -31 0 -20 -8 -37
-23 -49 -21 -17 -22 -25 -20 -132 1 -62 -5 -178 -13 -258 -15 -143 -37 -1086
-39 -1605 0 -258 17 -822 40 -1315 14 -317 12 -980 -4 -1295 -5 -88 -6 -486
-2 -885 6 -771 6 -1358 0 -1790 -2 -146 0 -429 4 -630 5 -224 4 -377 -2 -395
l-9 -30 -13 32 c-14 35 -56 54 -70 31 -17 -26 -9 -55 23 -84 84 -79 402 -324
420 -324 4 0 8 -7 8 -16 0 -9 9 -18 19 -21 11 -3 21 -13 24 -24 3 -11 14 -19
26 -19 12 0 21 -6 21 -15 0 -8 7 -15 15 -15 8 0 15 -9 15 -20 0 -16 7 -20 36
-20 27 0 37 -5 41 -20 5 -19 14 -20 139 -20 127 0 134 1 134 20 0 19 7 20 213
20 140 0 207 4 197 10 -8 5 -13 10 -10 10 3 1 133 7 290 15 157 8 384 21 505
30 121 8 351 19 510 25 356 12 550 27 590 45 17 8 52 23 78 34 30 13 51 28 54
41 5 18 14 20 89 20 77 0 84 -2 84 -20 0 -18 7 -20 69 -20 47 0 72 -4 80 -14
7 -8 35 -17 63 -21 38 -5 52 -12 55 -26 5 -16 15 -19 69 -19 49 0 67 -4 81
-19 13 -14 36 -20 86 -23 38 -2 71 -9 75 -14 4 -6 39 -15 77 -20 47 -6 69 -13
67 -21 -1 -10 19 -13 74 -13 66 0 77 -2 81 -19 4 -16 16 -20 75 -23 48 -3 74
-9 82 -19 6 -9 31 -19 56 -23 24 -4 51 -13 60 -20 8 -7 41 -16 74 -19 32 -3
66 -13 75 -21 10 -9 31 -16 48 -16 17 0 68 -16 113 -35 91 -39 100 -41 100
-21 0 15 42 26 96 26 24 0 34 5 34 15 0 8 8 15 18 15 9 0 27 11 39 24 l23 24
1 853 1 853 31 31 c18 17 34 37 37 45 3 8 5 74 4 147 0 109 -3 136 -17 151
-15 17 -17 61 -17 480 0 327 3 462 11 462 31 0 89 104 89 160 0 37 -2 40 -29
40 -27 0 -29 3 -36 47 -4 27 -19 72 -35 101 -19 36 -26 63 -23 85 16 125 16
140 -1 153 -15 11 -13 13 18 24 44 14 52 30 51 94 l0 50 68 34 c37 18 67 39
67 46 0 7 -15 19 -32 27 l-33 14 0 100 0 100 -28 1 c-15 1 -30 3 -33 6 -11 11
-14 61 -20 263 -10 421 -14 531 -18 592 -4 57 -3 62 18 67 13 3 35 17 49 32
23 23 25 28 12 41 -18 18 -18 49 0 233 8 80 15 153 15 163 0 21 -34 23 -74 2
-15 -8 -30 -15 -31 -15 -2 0 -2 93 -1 208 2 176 27 513 41 562 2 8 7 69 10
135 3 66 8 149 12 185 10 83 10 419 1 485 -4 28 -12 113 -18 190 -6 77 -15
178 -21 225 -17 134 -18 137 -19 295 -1 83 -5 197 -10 255 -5 58 -12 137 -15
175 -2 39 -9 88 -15 110 -5 22 -10 85 -10 141 0 55 -3 104 -7 108 -10 9 -13
126 -19 614 -5 384 -4 422 11 422 13 0 15 10 13 58 -2 37 -7 56 -15 55 -32 -7
-26 107 10 171 15 27 27 51 27 53 0 6 -62 -5 -86 -14 -8 -3 -14 1 -14 11 0 10
-6 13 -15 10 -23 -9 -65 5 -65 21 0 11 -13 15 -55 15 -40 0 -55 -4 -55 -14z
m-80 -1908 c0 -688 -2 -1249 -4 -1247 -5 5 -11 103 -21 319 -3 74 -10 180 -16
235 -31 321 -34 1171 -4 1315 3 14 6 111 7 217 0 106 5 218 10 250 8 50 13 95
17 151 1 6 3 12 6 12 3 0 5 -563 5 -1252z m-4103 1102 c5 -19 14 -20 182 -21
182 0 206 -4 206 -29 0 -13 21 -14 143 -11 175 4 232 -3 239 -30 5 -19 12 -19
147 -13 142 7 241 0 231 -16 -10 -16 29 -20 198 -20 162 0 196 -5 200 -26 1
-5 85 -9 187 -9 183 0 185 0 188 -22 3 -21 9 -22 104 -25 l101 -3 -51 -32
c-27 -18 -54 -33 -59 -33 -6 0 -18 -9 -28 -20 -10 -11 -29 -20 -42 -20 -14 0
-23 -6 -23 -15 0 -8 -4 -15 -8 -15 -5 0 -20 -9 -33 -21 -13 -11 -36 -23 -51
-26 -16 -3 -28 -12 -28 -19 0 -14 -5 -16 -50 -18 -18 -1 -25 -7 -25 -21 0 -17
-6 -20 -35 -17 -28 2 -37 -2 -45 -20 -10 -23 -13 -23 -209 -26 -224 -4 -246
-1 -246 29 0 21 -3 21 -172 18 l-173 -4 -3 24 -4 24 -165 -8 c-164 -7 -164 -7
-170 15 -6 22 -9 22 -132 20 -195 -5 -200 -4 -211 26 l-10 26 -94 -7 c-54 -4
-96 -3 -99 2 -9 14 -12 335 -3 361 9 27 36 29 43 2z m2229 -384 c-8 -106 -25
-204 -37 -212 -5 -3 -9 -29 -9 -59 0 -38 -4 -54 -15 -59 -8 -3 -15 -14 -15
-24 0 -20 49 -72 68 -72 7 0 12 -4 12 -10 0 -5 7 -10 15 -10 13 0 15 -36 15
-264 l0 -265 -27 -3 c-24 -3 -29 -9 -35 -43 -4 -22 -7 -86 -7 -142 -1 -96 -2
-103 -21 -103 -32 0 -23 -29 15 -51 19 -12 35 -27 35 -35 0 -8 5 -14 11 -14 5
0 7 4 4 10 -3 5 0 7 9 4 12 -5 14 -47 15 -267 l1 -262 -32 -15 c-26 -12 -33
-22 -35 -45 -10 -175 -22 -268 -37 -284 -31 -34 -13 -71 35 -71 18 0 28 -6 32
-20 3 -11 11 -19 19 -18 11 2 13 -64 16 -364 l2 -368 -28 0 c-54 0 -64 -25
-73 -181 -8 -115 -12 -144 -26 -154 -22 -16 -11 -42 48 -121 23 -30 39 -57 36
-61 -10 -10 13 -43 30 -43 15 0 16 -24 10 -257 -4 -142 -12 -349 -18 -461 -14
-256 -9 -626 9 -644 6 -6 12 -31 12 -54 0 -35 4 -43 22 -47 l22 -6 -22 -23
-21 -24 -3 -1544 -3 -1545 -98 -3 c-86 -2 -97 -5 -95 -20 3 -16 -15 -17 -227
-17 -223 0 -230 -1 -230 -20 0 -20 -6 -20 -248 -18 -240 2 -247 2 -247 -17 0
-19 -8 -20 -230 -20 -189 0 -230 -2 -230 -14 0 -20 -158 -30 -346 -21 -138 7
-154 6 -154 -9 0 -13 -12 -16 -64 -16 -35 0 -84 -3 -110 -6 l-47 -7 4 749 c2
441 10 860 18 1019 18 355 15 1017 -5 1263 -16 179 -22 553 -10 565 3 3 12 3
20 0 17 -6 19 -56 3 -81 -7 -12 -7 -25 0 -44 l11 -28 1021 0 1021 0 -7 -29
c-8 -37 14 -60 50 -53 22 4 25 9 21 28 -8 28 2 54 20 54 8 0 14 9 14 19 0 11
7 21 15 23 13 3 16 71 19 552 3 530 3 549 -15 553 -11 3 -19 12 -19 19 0 19
-29 18 -36 -1 -4 -9 -19 -15 -40 -15 -28 0 -34 4 -34 21 0 21 -3 22 -76 16
-65 -5 -75 -3 -70 10 3 8 6 20 7 26 0 7 4 3 9 -8 6 -14 9 -4 9 36 1 48 4 57
19 55 11 -1 17 6 17 19 0 11 7 21 16 23 10 2 19 12 22 23 3 12 11 17 21 13 12
-5 16 0 16 19 0 14 5 38 11 54 7 15 14 77 16 137 2 60 8 118 14 127 13 24 11
42 -5 64 -12 17 -26 18 -155 16 -113 -2 -142 0 -146 12 -4 9 -16 12 -35 9 -24
-3 -30 0 -35 21 -12 46 -1 50 116 43 105 -6 109 -6 109 14 0 18 7 20 73 21 39
1 76 1 80 0 5 -1 7 16 5 36 l-3 38 -100 0 c-82 0 -100 -3 -100 -15 0 -12 -18
-16 -93 -18 l-92 -3 2 173 3 173 75 0 c65 0 75 2 74 18 -2 20 23 28 76 24 28
-2 34 1 32 16 -2 14 6 17 55 18 32 1 62 1 66 0 5 -1 5 8 2 20 -6 18 -4 20 17
14 21 -5 22 -5 6 8 -10 8 -18 17 -18 20 0 3 8 7 18 9 9 2 -26 4 -78 4 -92 -1
-95 0 -98 22 -3 22 -7 24 -58 20 -50 -3 -55 -1 -52 17 3 19 9 20 96 16 63 -2
92 0 92 8 0 6 -10 11 -22 12 -22 0 -22 1 2 11 14 6 41 14 60 17 31 6 35 10 35
36 0 29 -1 30 -56 33 -51 3 -57 1 -62 -19 -5 -20 -10 -21 -99 -18 -88 4 -93 3
-93 -16 0 -16 -8 -21 -37 -23 l-38 -3 0 196 0 196 78 -3 c71 -3 77 -2 77 17 0
18 7 20 75 20 64 0 75 2 72 17 -3 22 29 31 78 23 l40 -7 0 41 0 41 -60 0 c-52
0 -60 -2 -58 -17 3 -16 -6 -18 -69 -17 -66 0 -72 -2 -82 -24 -11 -22 -16 -23
-81 -20 -39 2 -70 6 -70 11 0 4 5 7 10 7 6 0 15 11 20 25 5 14 18 28 27 32 10
4 24 15 31 25 7 10 26 18 41 18 20 0 30 6 34 20 4 17 10 20 32 14 21 -5 27 -3
32 14 6 26 34 36 79 27 30 -5 35 -3 44 20 6 16 17 26 27 24 37 -3 43 1 43 36
0 33 -2 35 -35 35 -28 0 -35 4 -35 20 0 19 -7 20 -170 20 l-171 0 3 98 3 97
48 -3 c42 -3 49 -1 54 17 5 18 13 21 59 21 48 0 54 2 54 21 0 18 5 20 50 18
42 -2 53 1 65 18 9 12 28 23 43 25 23 3 27 8 30 41 3 36 3 37 -33 37 -29 0
-37 -5 -45 -26 -9 -23 -14 -25 -60 -22 -55 3 -56 6 -51 86 2 26 -1 32 -17 32
-11 0 -22 -9 -25 -20 -4 -17 -14 -20 -55 -20 -41 0 -51 -3 -55 -20 -3 -13 -10
-18 -21 -14 -12 4 -16 0 -16 -15 0 -12 -6 -21 -15 -21 -12 0 -15 16 -15 80 l0
79 46 51 c28 30 56 50 68 50 12 0 25 9 31 23 8 17 17 21 43 19 27 -3 32 0 32
17 0 18 6 21 41 21 37 0 40 2 34 21 -7 21 -5 22 33 15 23 -3 43 -2 46 2 3 5 2
33 -1 63 l-5 55 -129 -4 c-126 -4 -129 -4 -129 17 0 19 -6 21 -60 21 l-60 0 0
219 c0 207 8 281 31 281 5 0 9 5 9 11 0 5 -5 7 -11 3 -7 -4 -10 -1 -7 7 2 8
17 15 32 17 18 2 26 8 24 20 -2 14 5 17 37 18 28 0 40 5 40 15 0 9 13 15 38
17 32 3 37 7 37 27 0 22 4 24 37 22 31 -2 38 1 38 18 0 17 7 20 40 20 29 0 40
4 40 15 0 10 12 16 38 18 29 3 37 7 37 23 0 17 5 18 40 13 44 -7 53 1 18 17
-23 9 -23 10 -1 5 12 -2 24 2 26 8 3 7 13 13 22 13 16 0 17 -9 11 -91z m-2106
-87 c0 -18 10 -19 165 -19 154 0 165 -1 175 -20 10 -18 21 -20 108 -20 53 -1
126 -8 162 -16 76 -18 234 -34 337 -35 40 0 75 -4 78 -10 4 -5 88 -9 196 -9
l189 0 0 -60 c0 -53 2 -60 20 -60 19 0 20 -7 20 -190 l0 -190 -139 0 c-165 0
-201 5 -201 31 0 16 -16 18 -243 21 -160 2 -249 7 -258 14 -8 6 -71 14 -141
18 -71 4 -194 13 -275 21 -82 8 -183 15 -225 15 l-78 0 0 264 0 265 43 3 c55
4 67 0 67 -23z m3810 -345 l0 -266 -63 4 c-61 3 -63 2 -59 -19 4 -23 4 -23
-132 -23 -114 0 -136 -2 -136 -15 0 -12 -17 -15 -91 -15 -82 0 -91 -2 -96 -20
-5 -18 -14 -20 -97 -21 -50 -1 -94 -1 -97 -1 -4 1 -5 -7 -2 -18 5 -18 -2 -19
-114 -19 -97 0 -118 -2 -115 -14 3 -16 -62 -27 -165 -27 -47 0 -63 -4 -63 -14
0 -16 -50 -26 -132 -26 -32 0 -58 -4 -58 -8 0 -5 -27 -13 -60 -18 l-60 -10 0
228 0 228 160 0 c155 0 160 1 160 21 0 19 5 20 98 17 97 -3 98 -3 94 20 -4 21
-2 22 72 22 61 0 76 3 76 15 0 12 15 15 75 15 68 0 75 2 75 20 0 18 7 20 89
20 65 0 92 4 101 15 6 8 9 19 5 25 -4 6 15 10 55 10 51 0 61 3 56 15 -4 13 8
15 74 15 74 0 80 1 80 21 0 19 5 20 63 17 62 -3 63 -2 59 20 -5 23 -3 24 55
20 53 -3 59 -1 55 15 -3 12 2 17 17 17 21 0 21 -2 21 -266z m-3650 -584 c0
-18 -7 -20 -55 -20 -49 0 -55 -2 -55 -21 0 -16 -5 -20 -18 -17 -15 4 -18 1
-14 -18 3 -19 0 -24 -17 -24 -14 0 -21 -6 -21 -20 0 -16 -7 -20 -35 -20 l-35
0 0 80 0 80 125 0 c118 0 125 -1 125 -20z m584 -45 c4 -11 -2 -15 -20 -15 -21
0 -25 -4 -21 -20 4 -15 0 -20 -14 -20 -12 0 -19 7 -19 20 0 19 -7 20 -95 20
-88 0 -95 -1 -95 -20 0 -18 -7 -20 -75 -20 -76 0 -80 2 -77 40 0 3 -19 3 -42
2 -34 -3 -43 0 -43 12 0 14 28 16 248 16 210 0 248 -2 253 -15z m3066 -382 l0
-246 -161 6 c-164 7 -199 2 -199 -29 0 -13 -17 -15 -109 -12 -60 2 -109 1
-109 -2 2 -22 -5 -30 -27 -30 l-25 0 -1 143 c-1 78 -4 153 -8 167 -9 32 -54
39 -83 13 -17 -15 -38 -18 -132 -19 -100 0 -116 -3 -144 -23 -29 -20 -41 -22
-131 -19 -55 2 -97 0 -95 -4 6 -10 -26 -39 -37 -32 -5 3 -8 2 -7 -3 2 -5 -15
-30 -36 -57 -44 -53 -42 -78 8 -84 26 -3 26 -4 26 -86 l0 -83 -52 -6 c-30 -4
-58 -13 -64 -22 -8 -11 -30 -15 -83 -15 l-71 0 1 253 c1 138 4 242 6 230 4
-20 11 -23 53 -23 39 0 52 -4 60 -20 9 -18 21 -20 101 -20 82 0 91 2 96 20 5
18 14 20 99 20 88 0 94 1 94 21 0 19 5 20 98 17 97 -3 98 -3 94 20 -4 22 -3
22 92 22 79 0 96 3 96 15 0 12 17 15 95 15 88 0 95 1 95 20 0 18 7 20 67 20
47 0 72 5 84 16 12 11 45 18 101 21 51 3 87 10 94 18 5 8 28 15 50 18 21 2 45
4 52 5 9 2 12 -53 12 -245z m-3794 127 c24 0 34 -5 34 -15 0 -12 18 -15 100
-15 82 0 100 3 100 15 0 12 14 15 70 15 56 0 70 -3 70 -15 0 -12 18 -15 100
-15 82 0 100 3 100 15 0 12 15 15 76 15 69 0 76 -2 72 -18 -4 -15 -1 -18 20
-14 22 4 24 2 20 -19 -4 -23 -2 -24 39 -20 38 3 43 1 43 -18 0 -19 5 -21 76
-21 67 0 76 2 81 20 5 18 14 20 73 20 59 0 68 -2 73 -20 4 -15 14 -20 42 -20
31 0 36 -3 33 -21 -3 -21 0 -22 95 -20 l97 2 0 -55 0 -56 -35 0 c-28 0 -35 4
-35 20 0 20 -7 20 -284 20 -275 0 -284 1 -289 20 -5 19 -14 20 -291 20 -279 0
-286 0 -286 20 0 19 -7 20 -150 20 l-150 0 0 70 0 70 30 0 c17 0 30 5 31 13 0
10 2 10 6 0 2 -7 20 -13 39 -13z m2982 -319 c-1 -33 -1 -59 2 -59 33 2 40 -4
40 -37 0 -33 -2 -35 -35 -35 -22 0 -38 -6 -41 -15 -13 -33 -24 -12 -25 48 0
34 -4 83 -8 110 l-8 47 39 0 40 0 -4 -59z m-268 3 c0 -9 9 -18 20 -21 18 -5
20 -14 20 -79 0 -70 -1 -74 -22 -74 -19 0 -20 -2 -8 -10 11 -7 7 -10 -17 -10
-17 0 -38 -3 -47 -6 -14 -5 -16 7 -16 98 0 58 3 108 7 111 3 4 19 7 35 7 19 0
28 -5 28 -16z m-2592 -162 c8 -5 13 -13 13 -18 -1 -5 83 -12 186 -15 114 -4
282 -19 428 -38 195 -25 522 -50 656 -51 l26 0 6 -150 c3 -83 3 -209 0 -279
l-6 -129 -76 -5 c-108 -7 -313 12 -328 30 -7 9 -13 11 -18 4 -3 -6 -23 -10
-43 -10 l-37 2 40 7 c23 4 -53 8 -175 9 -245 1 -532 19 -541 33 -4 6 -80 9
-185 8 -98 -1 -183 -2 -189 -1 -6 1 -9 107 -8 303 2 167 3 303 3 304 1 6 239
2 248 -4z m3672 -802 l0 -400 -29 0 c-17 0 -33 5 -36 10 -9 14 -85 13 -85 -2
0 -16 -49 31 -66 64 -8 15 -14 47 -14 73 0 39 -3 45 -21 45 -19 0 -21 5 -18
44 2 24 1 42 -3 39 -5 -2 -8 28 -8 67 0 57 4 77 24 108 35 55 40 88 17 109
-72 67 -60 63 -162 54 -80 -7 -107 -15 -182 -51 -49 -23 -91 -49 -94 -57 -4
-9 1 -29 10 -45 13 -22 17 -54 17 -129 0 -92 -1 -99 -20 -99 -16 0 -20 -7 -20
-35 0 -29 -4 -35 -21 -35 -16 0 -19 -4 -15 -17 6 -16 5 -16 -11 -1 -10 9 -39
17 -68 18 -70 3 -73 3 -77 -22 -2 -19 -10 -24 -40 -26 l-38 -3 0 -90 0 -89
-290 0 -290 0 0 360 0 360 61 0 c49 0 60 -3 56 -14 -7 -18 13 -26 63 -26 21 0
42 -5 46 -11 7 -11 41 -10 234 7 41 4 78 11 81 17 9 13 82 26 154 27 33 0 95
9 139 20 43 11 91 20 107 20 16 0 29 4 29 8 0 13 96 32 164 32 34 0 67 5 73
11 6 6 59 13 117 16 78 4 106 9 106 19 0 8 17 14 48 17 26 2 50 4 55 5 4 1 7
-178 7 -398z m115 -5 c9 -127 14 -259 11 -295 -3 -36 -5 -74 -6 -84 0 -11 -3
-16 -7 -12 -4 4 -6 25 -4 46 1 24 -2 40 -8 40 -8 0 -11 84 -11 272 0 149 2
269 5 267 2 -3 12 -108 20 -234z m-591 -31 c11 -4 16 -19 16 -50 0 -37 3 -44
20 -44 17 0 20 -7 20 -40 0 -29 4 -40 15 -40 11 0 15 -11 15 -36 0 -27 5 -37
20 -41 18 -5 20 -14 20 -77 l0 -71 -126 0 -126 0 7 55 c4 30 11 57 16 58 5 2
9 28 9 57 0 45 3 53 21 58 19 5 21 12 17 61 -3 48 0 56 15 56 12 0 17 8 17 30
0 32 1 33 24 24z m-3409 -29 c-26 -12 19 -13 347 -14 378 0 448 -4 448 -25 0
-8 97 -10 365 -8 290 2 365 0 366 -10 3 -75 -1 -319 -6 -327 -8 -14 -305 -15
-305 -1 0 5 -47 11 -107 13 l-108 3 113 0 c86 -1 112 2 112 12 0 11 -118 12
-630 10 l-630 -3 -2 183 -3 182 35 0 35 -1 -30 -14z m3992 -931 l30 -6 7 -336
c3 -186 9 -463 12 -618 l7 -281 -23 -23 c-19 -19 -22 -29 -16 -74 l6 -51 -58
1 c-155 2 -522 16 -637 24 -71 5 -213 12 -315 16 -102 4 -203 8 -225 9 -22 1
-122 3 -222 4 l-183 1 -2 363 c-3 354 -3 362 -23 362 -19 0 -20 7 -20 263 l0
263 270 2 270 2 3 23 3 22 474 0 c464 0 473 0 478 20 4 17 14 20 70 20 35 0
78 -3 94 -6z m-1280 -1864 c5 -19 14 -19 252 -17 l246 2 3 -22 3 -23 220 7
c170 5 225 3 243 -7 14 -7 36 -10 50 -8 14 3 26 1 26 -4 0 -6 -18 -8 -40 -6
-22 2 -40 0 -40 -4 0 -5 36 -8 80 -8 66 0 78 2 74 15 -4 10 0 15 11 15 11 0
15 -5 12 -15 -4 -8 -1 -17 5 -21 7 -4 9 7 6 34 -4 50 -1 52 102 52 58 0 81 -4
90 -15 11 -13 12 -105 4 -468 -9 -508 -11 -1216 -4 -2034 3 -303 2 -554 -2
-558 -4 -4 -30 -4 -57 0 -41 5 -51 11 -51 26 0 16 -7 18 -51 16 -37 -1 -54 2
-62 14 -7 9 -33 19 -59 23 -26 4 -51 13 -55 20 -5 6 -28 17 -53 23 -25 6 -91
29 -147 51 -57 22 -140 52 -185 65 -46 14 -155 50 -243 81 -88 30 -223 75
-300 100 -77 24 -185 60 -240 79 l-100 34 -3 387 c-1 212 1 386 5 387 5 0 16
2 26 4 9 2 15 -1 12 -6 -4 -5 41 -6 105 -2 108 6 111 6 117 -15 5 -21 11 -22
100 -22 84 0 94 -2 91 -17 -3 -16 7 -18 92 -18 91 0 95 -1 98 -23 3 -22 7 -23
90 -21 90 1 142 -7 142 -22 0 -5 10 -9 23 -9 37 0 159 -28 170 -39 6 -6 32
-11 59 -11 53 0 143 -16 174 -31 11 -6 40 -9 65 -7 l44 3 0 40 c0 39 -1 40
-35 40 -28 0 -35 4 -35 20 0 19 -7 20 -115 20 -108 0 -115 1 -115 20 0 18 -7
20 -75 22 -41 0 -85 2 -97 2 -16 1 -23 7 -23 20 0 17 -8 19 -83 18 -66 -1 -92
4 -128 21 -25 12 -58 22 -73 22 -16 0 -56 7 -89 16 -34 9 -98 22 -142 30 -44
7 -153 30 -243 50 l-162 37 2 481 3 481 38 3 c32 3 37 0 37 -18 0 -22 1 -22
129 -15 153 9 182 4 173 -27 l-5 -21 175 7 c158 6 177 5 189 -11 9 -11 10 -14
2 -9 -7 4 -13 3 -13 -3 0 -7 56 -11 153 -13 127 -3 152 -5 152 -18 0 -13 23
-15 147 -15 80 0 149 -3 153 -6 3 -4 7 -16 8 -28 1 -19 7 -21 57 -21 31 0 59
2 61 5 3 2 3 20 1 39 -3 23 -10 36 -23 39 -11 3 -19 14 -19 25 0 20 -7 21
-166 24 -142 3 -167 5 -175 20 -7 13 -27 16 -120 17 -122 0 -180 8 -191 25 -5
7 -58 11 -155 11 -141 0 -148 1 -148 20 0 19 -7 20 -145 20 -201 1 -211 2
-204 20 5 12 -5 15 -55 15 l-61 0 0 298 c0 164 3 302 7 305 3 4 62 7 131 7
115 0 124 -1 129 -20z"/>
<path d="M3711 4252 c-1 -10 -30 -12 -135 -10 -74 2 -132 -1 -129 -5 3 -5 -46
-8 -108 -7 -63 1 -441 1 -840 1 -725 -1 -727 -1 -732 -22 -3 -13 -12 -19 -24
-17 -17 3 -18 -15 -21 -362 -3 -305 -6 -366 -18 -373 -9 -5 -14 -26 -14 -64 0
-31 3 -53 7 -50 3 4 12 2 20 -4 10 -9 13 -99 13 -473 0 -253 -4 -467 -9 -474
-4 -8 -12 -13 -17 -12 -5 0 -10 -6 -12 -14 -2 -9 3 -16 11 -16 9 0 17 -6 20
-12 2 -7 8 -1 12 14 4 14 15 28 26 31 17 5 19 16 21 114 l1 108 8 -95 c11
-126 11 -143 -3 -151 -7 -4 -15 -6 -18 -4 -3 2 -5 -9 -5 -24 0 -22 4 -27 18
-23 11 3 17 -1 17 -13 0 -9 -9 -19 -20 -22 -19 -5 -20 -16 -22 -433 -2 -236
-1 -428 2 -428 21 1 40 -3 40 -10 0 -4 -15 -6 -34 -4 -29 3 -34 1 -38 -22 -5
-24 -3 -26 32 -26 23 0 40 5 43 14 8 21 296 22 352 1 52 -20 302 -18 297 3 -1
6 3 12 10 12 19 0 3 10 -31 20 -19 5 -29 5 -26 -1 7 -11 -53 -11 -110 0 -40 7
-40 7 24 14 116 13 254 9 278 -8 29 -20 320 -18 315 3 -1 6 3 12 9 12 5 0 7 5
4 10 -3 6 -53 10 -113 10 -73 0 -102 3 -92 10 8 5 83 10 166 10 124 0 154 -3
164 -15 11 -13 39 -15 169 -13 118 2 155 6 153 16 -1 6 2 12 8 12 5 0 10 4 10
10 0 5 -46 11 -102 13 l-103 3 126 2 c96 1 134 -2 155 -13 41 -21 62 -19 66 7
3 21 8 23 73 23 l70 1 3 37 c2 20 6 37 10 37 4 0 6 82 4 182 -2 140 0 183 10
190 10 7 9 11 -4 19 -17 9 -18 70 -18 1050 0 1032 0 1041 20 1046 11 3 20 13
20 22 0 10 3 21 7 25 4 3 6 29 4 57 -2 33 1 49 8 45 5 -4 12 -2 16 4 3 5 -3
10 -14 10 -11 0 -22 8 -24 18 -3 9 -5 11 -6 4z"/>
</g>
</svg>
