<?xml version="1.0" standalone="no"?>
<!DOCTYPE svg PUBLIC "-//W3C//DTD SVG 20010904//EN"
 "http://www.w3.org/TR/2001/REC-SVG-20010904/DTD/svg10.dtd">
<svg version="1.0" xmlns="http://www.w3.org/2000/svg"
 width="829.000000pt" height="1125.000000pt" viewBox="0 0 829.000000 1125.000000"
 preserveAspectRatio="xMidYMid meet">
<metadata>
Created by potrace 1.16, written by Peter Selinger 2001-2019
</metadata>
<g transform="translate(0.000000,1125.000000) scale(0.100000,-0.100000)"
fill="#000000" stroke="none">
<path d="M2044 10595 c-10 -24 4 -33 64 -40 31 -3 113 -15 182 -25 69 -11 188
-29 265 -40 77 -12 208 -32 290 -45 83 -13 213 -33 290 -44 142 -21 377 -56
605 -91 133 -20 289 -44 565 -85 293 -44 356 -56 375 -68 16 -9 18 -21 15 -67
-1 -30 -12 -80 -23 -110 -11 -30 -29 -86 -41 -125 -12 -38 -39 -126 -61 -195
-22 -69 -45 -143 -51 -164 -6 -21 -19 -51 -29 -65 -13 -18 -17 -35 -13 -54 7
-34 45 -56 66 -39 12 10 91 -31 342 -178 62 -37 319 -185 380 -220 19 -11 50
-28 68 -39 17 -10 73 -42 122 -70 147 -85 167 -118 155 -266 -10 -120 -36
-546 -50 -810 -5 -104 -14 -264 -20 -355 -5 -91 -14 -257 -20 -370 -6 -113
-15 -263 -20 -335 -6 -71 -14 -231 -20 -355 -5 -124 -14 -283 -20 -355 -6 -71
-13 -205 -17 -296 l-6 -166 -181 -6 c-259 -8 -491 -25 -641 -47 -72 -11 -142
-20 -155 -20 -14 0 -68 -9 -120 -21 -258 -56 -404 -113 -477 -185 -37 -38 -43
-49 -43 -87 0 -23 7 -53 16 -65 15 -22 17 -22 34 -7 22 20 40 12 40 -18 0 -31
22 -59 62 -78 52 -25 142 -59 157 -59 7 0 43 -9 79 -20 90 -27 267 -58 432
-75 74 -8 169 -19 210 -24 41 -5 181 -13 310 -17 l235 -7 -3 -51 c-1 -28 -7
-122 -13 -209 l-12 -157 -46 2 c-85 5 -445 -13 -546 -28 -55 -8 -134 -18 -175
-23 -137 -17 -341 -74 -434 -122 -54 -27 -90 -75 -73 -96 6 -9 6 -17 -2 -27
-16 -19 20 -61 80 -91 65 -34 74 -31 17 5 -232 146 68 288 737 350 155 14 620
19 800 9 247 -15 277 -17 435 -39 309 -41 539 -110 612 -182 43 -43 46 -60 18
-105 -13 -23 -43 -44 -102 -72 -95 -46 -97 -53 -6 -16 61 25 135 69 150 90 4
5 8 27 8 48 0 48 -30 77 -125 122 -106 50 -399 125 -487 125 -20 0 -72 7 -115
15 -43 9 -208 22 -368 30 -159 8 -290 14 -290 15 -1 4 7 119 16 246 l11 161
242 7 c132 4 293 13 356 21 63 7 149 16 190 20 213 18 578 107 669 162 79 49
104 71 123 107 33 66 4 129 -87 186 -68 43 -240 104 -355 125 -36 7 -90 18
-120 23 -182 36 -506 67 -828 79 l-153 6 5 86 c3 47 8 131 11 186 3 55 12 210
20 345 8 135 19 342 25 460 6 118 15 276 20 350 5 74 14 239 20 365 6 127 15
284 20 350 5 66 14 219 20 340 15 332 29 543 42 617 10 62 9 70 -13 115 -21
42 -31 51 -80 70 -45 18 -188 97 -404 223 -230 135 -452 262 -543 312 l-112
63 6 40 c4 22 17 69 29 105 13 36 32 94 43 130 35 111 114 363 128 408 18 56
18 75 -4 102 -14 18 -34 24 -93 30 -68 8 -175 23 -549 80 -74 12 -191 30 -260
40 -69 10 -201 31 -295 45 -168 26 -294 44 -575 85 -80 11 -152 23 -160 25 -9
3 -76 14 -150 24 -320 46 -430 63 -509 76 -104 18 -110 18 -117 0z m3386
-5202 c0 -21 -7 -117 -15 -213 -8 -96 -15 -203 -15 -237 l0 -63 -169 0 c-154
0 -505 23 -540 36 -8 2 -59 9 -115 15 -56 5 -117 14 -137 19 -19 6 -62 14 -95
19 -81 11 -221 49 -268 72 -22 11 -44 19 -49 19 -19 0 -96 56 -108 78 -11 19
-9 25 12 48 119 128 715 235 1347 242 l152 2 0 -37z m450 27 c442 -26 765 -82
975 -167 81 -33 125 -68 125 -98 0 -55 -162 -131 -375 -176 -27 -5 -81 -17
-120 -25 -38 -8 -115 -19 -170 -24 -55 -6 -107 -12 -115 -15 -42 -13 -386 -35
-543 -35 l-180 0 7 68 c3 37 11 148 16 247 6 99 12 192 13 208 l1 27 96 0 c52
0 174 -5 270 -10z"/>
<path d="M1969 10543 c-1 -16 -1 -40 -1 -54 l0 -26 -51 10 c-83 17 -131 15
-135 -5 -2 -12 3 -18 15 -18 10 0 31 -7 47 -15 15 -8 48 -15 71 -15 24 0 76
-11 117 -25 40 -14 81 -25 91 -25 9 0 17 -4 17 -9 0 -5 19 -8 43 -8 44 1 115
-10 277 -43 106 -21 240 -46 345 -65 86 -14 225 -41 325 -62 41 -9 94 -18 118
-21 24 -2 42 -9 42 -16 0 -7 11 -18 24 -24 14 -6 26 -21 28 -34 2 -14 15 -29
35 -39 30 -15 252 -213 453 -404 47 -45 112 -106 144 -136 33 -30 67 -61 76
-69 9 -8 37 -34 63 -57 l46 -43 -29 -58 c-16 -32 -36 -64 -44 -72 -9 -7 -16
-17 -16 -23 0 -5 -46 -67 -102 -137 -57 -70 -151 -188 -209 -261 -58 -74 -210
-262 -338 -419 -127 -157 -231 -293 -231 -302 0 -43 40 -13 125 95 49 61 259
322 467 579 208 257 378 474 378 481 0 8 12 36 26 62 42 81 60 57 -291 380
-162 149 -319 293 -388 356 -27 24 -57 63 -68 85 -26 58 -69 91 -127 99 -26 4
-78 14 -117 22 -38 8 -119 23 -180 34 -60 11 -155 28 -210 38 -55 11 -140 26
-190 35 -49 9 -121 23 -160 31 -38 8 -133 26 -210 40 -77 15 -159 33 -182 42
-40 15 -43 18 -43 54 0 50 -8 69 -31 69 -14 0 -19 -8 -20 -27z"/>
<path d="M1736 10441 c-5 -8 20 -114 74 -311 11 -41 32 -120 46 -175 27 -105
45 -138 65 -118 12 12 2 54 -61 283 -18 63 -41 149 -51 190 -29 114 -39 140
-54 140 -8 0 -16 -4 -19 -9z"/>
<path d="M1813 9747 c-45 -34 -187 -140 -315 -235 -578 -430 -744 -556 -751
-569 -9 -15 8 -43 25 -43 5 0 33 19 62 43 30 23 160 121 291 217 130 96 265
196 299 222 33 26 156 118 271 203 258 192 247 183 234 206 -5 11 -15 19 -22
18 -7 0 -49 -28 -94 -62z"/>
<path d="M2370 9753 c-59 -11 -67 -48 -12 -62 75 -20 218 -50 267 -56 188 -23
443 -70 492 -90 50 -21 76 -11 55 22 -12 19 -135 60 -199 67 -68 8 -298 41
-431 63 -68 11 -95 20 -99 32 -4 9 -11 19 -17 23 -12 8 -16 8 -56 1z"/>
<path d="M4142 9489 c2 -17 26 -29 133 -65 149 -50 175 -53 175 -24 0 11 -6
22 -12 24 -70 19 -171 53 -202 67 -22 11 -53 19 -69 19 -23 0 -28 -4 -25 -21z"/>
<path d="M697 8873 c-10 -9 -9 -187 2 -398 5 -99 13 -295 16 -435 4 -140 10
-347 15 -460 5 -113 14 -353 20 -535 6 -181 15 -447 20 -590 13 -323 26 -689
40 -1130 6 -187 13 -358 15 -380 2 -22 9 -209 15 -415 6 -206 15 -483 20 -615
5 -132 15 -377 21 -545 6 -168 12 -311 14 -317 3 -7 14 -13 25 -13 19 0 20 6
20 188 0 103 -5 264 -10 357 -13 237 -28 628 -40 1045 -5 195 -14 445 -20 555
-5 110 -14 371 -20 580 -6 209 -15 463 -20 565 -5 102 -14 358 -20 570 -6 212
-15 466 -20 565 -5 99 -14 326 -20 505 -17 529 -32 882 -37 897 -5 14 -25 17
-36 6z"/>
<path d="M803 8840 c-51 -21 -16 -51 77 -66 26 -5 37 -9 26 -12 -19 -4 -19
-14 -12 -296 4 -160 11 -415 16 -566 5 -151 14 -522 20 -825 6 -329 14 -553
20 -559 6 -6 10 -117 10 -277 0 -147 4 -270 8 -273 5 -3 12 -191 16 -418 3
-227 11 -523 16 -658 5 -135 12 -366 16 -515 4 -148 11 -280 15 -292 8 -21 39
-33 39 -15 0 12 217 175 237 178 7 1 32 16 57 32 24 17 54 33 67 37 12 4 36
16 53 26 17 11 37 19 45 19 8 0 32 8 53 17 38 17 38 17 38 74 0 32 -4 60 -9
63 -5 3 -12 18 -16 33 -10 43 -56 136 -78 160 -18 20 -19 23 -3 23 22 0 62
-25 111 -70 58 -54 71 -56 85 -14 8 23 8 39 2 47 -5 7 -12 30 -15 52 -13 85
-20 120 -26 125 -3 3 -14 19 -24 37 l-18 32 37 -15 c77 -32 155 -141 184 -256
15 -57 43 -87 64 -69 8 7 20 34 27 60 14 56 29 76 93 124 50 39 80 49 54 20
-32 -37 -91 -174 -95 -220 -4 -40 -1 -52 17 -71 18 -19 29 -23 54 -18 17 3 76
11 131 17 55 6 108 15 117 20 10 5 18 6 18 2 -1 -30 -24 -101 -40 -123 -11
-15 -26 -54 -35 -86 -8 -33 -26 -99 -40 -149 -27 -97 -33 -202 -15 -267 12
-43 81 -118 153 -166 55 -36 155 -72 204 -72 36 0 40 -11 18 -50 -33 -58 -7
-197 41 -219 13 -6 24 -15 24 -21 0 -29 111 -55 291 -66 82 -6 87 -5 103 17
21 30 20 58 -3 88 -20 26 -51 24 -51 -4 0 -12 -13 -15 -59 -15 -33 0 -63 5
-66 11 -4 6 -14 8 -22 5 -19 -8 -50 9 -90 47 -31 29 -33 35 -33 100 0 58 4 73
26 102 61 80 90 468 45 588 -6 16 -11 39 -11 51 0 12 -9 49 -19 82 -11 32 -25
98 -31 147 -13 105 -24 132 -61 147 -35 15 -78 -4 -97 -42 -10 -22 -10 -34 4
-70 9 -24 22 -76 29 -116 6 -40 12 -73 13 -75 0 -1 3 -15 7 -32 4 -16 21 -75
38 -130 27 -85 32 -115 32 -200 0 -176 -6 -185 -129 -185 -100 1 -146 11 -185
41 -81 65 -83 171 -4 259 13 14 23 28 23 32 0 3 6 13 13 20 7 7 24 40 37 73
22 52 25 75 24 170 0 68 -8 139 -19 185 -9 41 -20 102 -24 134 -6 52 -12 63
-44 90 -32 27 -87 98 -87 112 0 3 -18 24 -40 47 -23 23 -43 51 -45 62 -2 11
-13 59 -25 107 -11 47 -20 101 -20 120 0 18 -7 58 -16 88 -10 37 -17 111 -19
226 -3 140 -8 184 -24 235 -27 80 -27 81 11 103 17 11 44 31 59 45 15 14 36
34 46 43 86 81 139 188 174 346 7 34 17 62 21 62 4 0 8 21 8 48 0 52 26 261
33 269 3 2 30 -27 60 -65 60 -75 158 -158 234 -199 43 -22 56 -25 123 -20 72
5 100 15 175 62 17 10 38 28 47 39 17 20 18 9 18 -232 0 -242 -1 -252 -18
-243 -10 5 -24 17 -32 25 -14 17 -50 21 -66 7 -5 -5 -47 -11 -94 -13 -76 -4
-92 -9 -147 -42 -34 -20 -69 -46 -78 -58 -18 -27 -20 -89 -3 -106 9 -9 8 -12
-8 -12 -20 0 -110 -59 -171 -111 -48 -40 -60 -69 -68 -149 -6 -70 -4 -77 19
-108 27 -38 89 -86 123 -96 l23 -7 -21 -28 c-27 -36 -57 -146 -65 -236 -6 -63
-4 -72 14 -89 12 -10 40 -20 64 -23 46 -5 41 -8 173 97 28 22 53 40 56 40 3 0
9 -37 13 -82 9 -114 36 -159 107 -183 42 -13 61 -14 93 -6 23 5 51 12 64 15
l23 4 -1 -1251 c-1 -689 -4 -1278 -7 -1311 -6 -56 -7 -59 -51 -87 -25 -16 -54
-29 -64 -29 -10 0 -18 -4 -18 -10 0 -5 -18 -10 -40 -10 -22 0 -40 -4 -40 -9 0
-5 21 -22 48 -37 26 -15 49 -30 52 -34 3 -3 31 -17 63 -29 32 -13 56 -26 53
-28 -12 -13 -70 -3 -122 22 -32 15 -78 36 -102 46 -86 37 -128 56 -182 81 -30
14 -170 76 -310 137 -244 107 -278 122 -380 168 -25 12 -164 73 -310 137 -146
64 -278 123 -295 130 -329 149 -464 206 -483 206 -33 0 -26 -25 10 -43 18 -8
168 -75 333 -147 165 -72 318 -140 340 -150 22 -10 63 -29 90 -40 84 -37 158
-70 200 -90 22 -10 114 -51 205 -90 164 -72 237 -105 316 -141 22 -11 43 -19
47 -19 4 0 44 -17 89 -39 243 -113 527 -235 553 -238 17 -1 53 -8 80 -14 57
-14 80 -14 190 -4 62 6 99 17 165 48 92 43 111 52 138 67 9 5 53 26 97 46 94
43 379 178 415 197 26 13 37 52 22 75 -9 13 -27 5 -407 -178 -66 -32 -160 -77
-210 -100 -49 -24 -112 -54 -140 -67 -61 -30 -97 -37 -200 -37 -55 0 -89 5
-110 17 l-30 16 28 1 c15 0 27 5 27 10 0 6 7 10 15 10 8 0 16 6 17 13 2 15 4
345 12 2285 4 921 11 1533 16 1548 13 34 13 314 -1 351 -8 24 -15 30 -30 26
-18 -5 -19 2 -19 260 0 227 2 266 15 271 8 3 15 9 14 13 -1 4 0 10 1 13 3 6 8
409 10 790 0 135 -2 259 -5 275 -6 28 -15 34 -103 69 -53 21 -106 42 -117 47
-45 19 -239 79 -256 79 -11 0 -19 5 -19 10 0 6 -15 10 -33 10 -19 0 -37 3 -41
7 -3 4 -12 8 -19 10 -78 18 -241 64 -250 70 -6 4 -18 8 -27 8 -8 1 -43 10 -77
20 -70 20 -109 12 -140 -29 -15 -20 -15 -20 -8 -1 9 28 9 27 1 58 -5 16 -15
27 -25 27 -9 0 -34 9 -56 20 -22 11 -46 20 -54 20 -17 0 -132 40 -146 51 -6 5
-67 27 -135 49 -69 23 -130 46 -136 51 -6 5 -14 6 -17 2 -4 -3 -7 -2 -7 3 0 5
-9 10 -19 11 -10 1 -41 11 -68 22 -26 11 -103 39 -171 62 -67 23 -121 44 -118
46 2 3 64 -15 138 -40 124 -41 365 -120 693 -225 77 -24 163 -52 190 -62 28
-9 115 -38 195 -63 351 -112 438 -140 485 -156 201 -70 215 -73 215 -37 0 27
7 23 -250 106 -91 29 -217 70 -280 90 -63 21 -209 68 -325 105 -115 36 -235
75 -265 85 -50 17 -460 150 -780 252 -69 22 -178 58 -242 79 -65 22 -119 39
-120 38 -2 0 -13 -4 -25 -9z m1220 -687 c-8 -49 -19 -104 -24 -123 -6 -20 -9
-80 -6 -134 3 -77 8 -103 24 -124 22 -30 57 -40 79 -21 19 15 76 -14 244 -126
85 -57 133 -97 151 -124 62 -95 101 -109 325 -110 l121 -1 -51 -54 c-53 -57
-152 -111 -181 -99 -18 6 -45 -13 -45 -32 0 -23 104 -118 190 -173 47 -30 99
-68 116 -84 20 -19 46 -32 71 -35 41 -5 57 5 66 42 2 11 5 -51 6 -137 1 -136
-1 -158 -15 -166 -9 -5 -25 -7 -34 -5 -10 3 -60 -16 -111 -41 -61 -30 -97 -42
-103 -36 -6 6 -19 10 -31 10 -36 0 -185 118 -185 146 0 7 -3 14 -7 16 -5 2
-39 41 -78 88 -65 80 -74 89 -91 93 -4 1 -20 14 -35 30 -35 35 -53 34 -90 -2
-29 -29 -29 -31 -27 -128 3 -148 -12 -367 -27 -394 -8 -13 -24 -44 -36 -68
l-23 -45 -8 29 c-9 34 -44 64 -74 65 -29 0 -60 -27 -82 -70 -21 -43 -92 -92
-167 -115 -46 -15 -75 -17 -165 -11 -73 4 -111 3 -115 -4 -4 -6 -15 -10 -25
-8 -19 3 -22 -5 -13 -29 3 -7 9 -10 14 -7 5 3 9 0 9 -7 0 -19 41 -59 60 -59 9
0 33 -9 55 -20 28 -14 59 -20 109 -20 l69 0 -66 -35 c-70 -37 -111 -43 -182
-24 -22 6 -62 15 -90 20 -77 15 -104 29 -175 89 -161 136 -198 204 -186 345 3
39 9 106 12 150 8 118 61 218 180 345 52 55 145 157 247 270 68 76 107 164
107 240 0 29 -6 43 -25 58 -14 11 -25 27 -25 36 0 28 -86 75 -151 82 -44 5
-59 11 -60 23 -1 9 -3 37 -4 63 -1 26 -12 61 -24 81 -17 27 -21 50 -21 112 l0
78 29 -40 c54 -74 145 -145 271 -210 30 -15 59 -34 63 -40 12 -19 37 -16 44 5
3 9 15 29 25 44 24 35 23 63 -4 90 l-21 21 22 84 c26 100 78 193 140 251 25
23 46 42 46 42 1 0 -5 -39 -12 -87z"/>
<path d="M1883 7390 c-46 -21 -103 -96 -103 -135 0 -34 44 -75 80 -75 23 0 41
11 76 48 67 68 84 131 46 165 -23 21 -46 20 -99 -3z"/>
<path d="M2159 7280 c-80 -42 -79 -190 0 -190 15 0 35 8 43 18 49 56 66 162
29 182 -26 13 -29 13 -72 -10z"/>
<path d="M1315 6713 c-32 -48 -32 -68 4 -104 41 -40 90 -40 114 0 38 64 4 141
-62 141 -24 0 -36 -8 -56 -37z"/>
<path d="M2020 6497 c0 -15 -41 -57 -56 -57 -5 0 -17 9 -27 20 -22 26 -33 25
-52 -4 -36 -54 41 -149 108 -132 17 4 36 22 53 51 22 38 25 53 19 90 -5 36
-10 45 -26 45 -10 0 -19 -6 -19 -13z"/>
<path d="M5420 8711 c-30 -10 -129 -42 -220 -71 -91 -29 -190 -61 -220 -71
-66 -21 -279 -89 -485 -153 -82 -26 -175 -55 -205 -65 -30 -10 -84 -28 -120
-39 -36 -12 -166 -53 -290 -92 -124 -40 -283 -90 -355 -112 -253 -78 -282 -93
-241 -123 20 -15 37 -11 191 39 61 20 182 59 270 87 88 28 185 59 215 69 30
10 123 40 205 65 204 64 271 85 330 105 28 10 91 30 140 45 50 15 115 35 145
45 105 34 305 98 395 125 50 16 113 36 140 45 28 10 83 28 124 41 76 25 92 39
71 64 -16 19 -23 19 -90 -4z"/>
</g>
</svg>
