<?xml version="1.0" standalone="no"?>
<!DOCTYPE svg PUBLIC "-//W3C//DTD SVG 20010904//EN"
 "http://www.w3.org/TR/2001/REC-SVG-20010904/DTD/svg10.dtd">
<svg version="1.0" xmlns="http://www.w3.org/2000/svg"
 width="974.000000pt" height="1125.000000pt" viewBox="0 0 974.000000 1125.000000"
 preserveAspectRatio="xMidYMid meet">
<metadata>
Created by potrace 1.16, written by Peter Selinger 2001-2019
</metadata>
<g transform="translate(0.000000,1125.000000) scale(0.100000,-0.100000)"
fill="#000000" stroke="none">
<path d="M4865 10853 c-39 -4 -120 -26 -160 -43 -77 -34 -222 -90 -285 -110
-103 -32 -339 -108 -375 -121 -16 -6 -34 -11 -40 -12 -5 -2 -23 -8 -40 -14
-16 -6 -104 -35 -195 -63 -91 -29 -174 -55 -185 -60 -11 -4 -45 -14 -75 -23
-30 -9 -91 -27 -135 -41 -44 -13 -127 -38 -185 -56 -58 -17 -123 -37 -145 -44
-22 -7 -83 -26 -135 -41 -105 -31 -189 -57 -455 -141 -270 -85 -298 -94 -320
-104 -11 -5 -49 -18 -85 -30 -36 -11 -74 -25 -85 -30 -48 -21 -255 -89 -295
-96 -50 -9 -186 -57 -259 -91 -146 -69 -346 -242 -409 -353 -31 -53 -32 -59
-32 -173 0 -106 3 -124 25 -172 29 -61 81 -107 175 -157 35 -18 79 -48 97 -65
18 -18 36 -33 41 -33 5 0 34 -11 63 -25 81 -36 351 -133 434 -155 17 -4 64
-17 105 -28 264 -70 521 -107 740 -107 184 1 389 35 507 86 24 10 43 14 43 9
0 -5 -9 -44 -19 -87 -29 -119 -42 -182 -52 -253 -4 -36 -13 -96 -18 -135 -16
-109 -13 -489 4 -618 17 -130 43 -285 57 -342 6 -22 12 -51 14 -65 3 -14 10
-41 16 -60 7 -19 13 -40 14 -46 6 -32 60 -199 86 -264 47 -117 56 -137 118
-262 82 -164 157 -278 277 -426 22 -28 24 -35 12 -43 -8 -5 -25 -9 -39 -9 -13
0 -58 -6 -100 -14 -166 -32 -266 -40 -550 -42 -292 -2 -367 4 -510 38 -25 6
-61 14 -80 18 -88 21 -227 85 -284 132 -47 38 -138 159 -198 263 -51 88 -148
289 -178 370 -4 11 -15 38 -23 60 -38 95 -121 348 -133 405 -2 14 -10 41 -16
60 -6 19 -13 42 -14 50 -1 8 -20 87 -42 175 -22 88 -47 196 -56 240 -9 44 -23
109 -31 145 -24 115 -35 174 -40 220 -3 25 -10 61 -15 81 -6 20 -12 54 -14 75
-2 22 -9 66 -14 99 -6 33 -18 107 -27 165 -9 58 -22 134 -28 170 l-11 65 -8
-40 c-14 -75 1 -213 47 -442 34 -168 45 -222 60 -303 9 -47 22 -116 30 -155 8
-38 19 -97 26 -130 6 -33 18 -85 26 -115 8 -30 16 -64 17 -75 3 -20 43 -171
71 -270 8 -27 22 -75 31 -105 8 -30 21 -71 28 -90 20 -55 37 -104 41 -120 18
-73 135 -352 196 -466 105 -196 235 -357 332 -412 49 -27 153 -70 188 -77 9
-2 33 -8 55 -13 206 -54 355 -72 585 -72 l207 0 28 -33 c19 -20 41 -69 62
-137 44 -141 66 -181 137 -248 149 -143 194 -192 240 -265 28 -43 74 -110 102
-150 102 -140 135 -210 148 -313 2 -22 14 -82 26 -134 12 -52 23 -108 26 -125
5 -27 28 -161 54 -300 12 -66 27 -209 35 -321 l7 -91 -41 -74 c-100 -182 -129
-339 -113 -619 3 -63 33 -199 56 -256 96 -239 287 -444 735 -792 123 -95 244
-196 305 -256 120 -117 198 -189 260 -241 32 -27 77 -66 100 -86 49 -44 72
-53 72 -31 0 19 6 13 -112 116 -49 43 -130 118 -180 165 -184 178 -381 340
-508 417 -151 92 -378 316 -511 503 -40 57 -126 220 -126 239 0 6 -6 26 -14
44 -63 148 -61 483 5 645 51 123 90 203 99 198 14 -9 -4 234 -30 385 -5 30
-14 99 -20 152 -6 54 -18 110 -25 125 -8 16 -15 46 -15 67 0 38 -14 103 -46
210 -26 90 -12 102 35 29 16 -27 44 -66 60 -88 17 -22 40 -58 52 -80 12 -22
25 -42 28 -45 4 -3 20 -27 36 -55 17 -27 34 -58 40 -67 8 -14 44 -79 76 -137
13 -26 37 -83 48 -121 76 -242 125 -354 198 -454 89 -119 255 -271 360 -331
16 -9 44 -25 63 -37 67 -40 186 -103 288 -153 l102 -49 0 -39 c0 -60 -51 -466
-72 -577 -6 -30 -12 -68 -13 -85 -9 -88 -64 -241 -99 -274 -28 -26 -69 -41
-97 -35 -23 5 -23 5 4 -20 36 -33 50 -33 86 2 53 49 95 145 144 332 25 93 61
373 73 572 4 60 11 108 15 108 5 0 46 -13 92 -28 45 -16 134 -44 197 -61 63
-18 133 -38 155 -46 150 -48 465 -117 637 -139 26 -3 41 0 52 13 17 19 32 15
-284 67 -52 9 -120 22 -150 29 -30 7 -82 18 -115 24 -95 19 -339 90 -403 117
-18 8 -37 14 -42 14 -5 0 -21 5 -37 12 -15 6 -32 12 -38 14 -5 1 -46 18 -91
37 -108 47 -215 100 -359 181 -11 6 -60 38 -109 70 -170 115 -320 264 -402
400 -33 55 -96 185 -95 196 1 3 -4 20 -10 37 -21 65 -5 67 36 7 51 -74 84
-114 96 -114 21 0 -37 97 -171 289 -17 24 -29 45 -28 47 2 2 75 -71 161 -161
322 -336 537 -495 847 -628 50 -21 221 -77 237 -77 21 0 15 18 -9 25 -121 35
-396 164 -495 232 -15 11 -35 23 -43 26 -15 7 -57 37 -195 141 -149 111 -423
402 -582 615 -88 119 -263 382 -343 516 -45 77 -91 152 -101 167 -11 15 -19
29 -19 32 0 7 -74 113 -113 161 -40 49 -80 89 -184 184 -94 85 -127 142 -138
239 -8 75 8 84 46 25 13 -21 51 -57 84 -80 33 -24 87 -62 119 -85 33 -24 76
-68 97 -98 38 -55 54 -86 165 -315 51 -105 226 -383 259 -410 7 -5 34 -39 61
-75 63 -84 340 -362 424 -425 36 -27 67 -52 70 -55 7 -8 140 -100 145 -100 2
0 25 -14 50 -31 67 -45 76 -30 10 16 -210 149 -522 442 -657 616 -152 197
-230 311 -307 449 -23 41 -46 82 -51 90 -5 8 -21 38 -36 65 -64 120 -155 243
-237 323 -48 45 -91 82 -96 82 -6 0 -31 14 -56 31 -47 32 -75 72 -75 110 0 18
-2 19 -15 9 -8 -7 -15 -23 -15 -36 0 -12 -4 -26 -10 -29 -10 -6 -62 70 -64 95
-1 16 -4 15 224 45 69 9 153 26 188 37 l63 21 38 -37 c20 -20 68 -50 107 -66
127 -54 260 -36 380 52 7 5 21 -6 38 -32 14 -22 26 -42 26 -45 0 -3 -34 -5
-76 -5 -87 0 -137 -19 -198 -74 l-40 -35 38 -45 c44 -54 84 -84 124 -92 l29
-6 -19 -56 c-11 -32 -22 -68 -24 -82 -3 -14 -9 -43 -14 -65 -25 -106 0 -318
50 -440 79 -193 165 -326 340 -528 33 -38 200 -182 270 -233 220 -161 486
-287 795 -379 33 -10 78 -23 100 -30 36 -12 113 -31 155 -40 8 -2 35 -8 60
-15 25 -7 54 -14 65 -16 11 -1 76 -14 145 -27 262 -52 376 -62 675 -62 248 0
295 3 410 24 72 12 155 29 185 38 30 8 72 19 93 24 96 23 391 152 482 209 17
11 48 29 69 41 21 11 44 25 50 30 6 6 25 20 42 32 101 71 201 156 277 237 86
92 87 92 87 60 0 -113 -84 -441 -138 -538 -7 -12 -10 -22 -7 -22 4 0 -3 -12
-14 -26 -11 -15 -19 -30 -16 -34 3 -4 -2 -13 -10 -20 -8 -7 -15 -17 -15 -22 0
-5 -12 -28 -27 -51 -16 -23 -32 -50 -38 -58 -61 -98 -241 -288 -330 -349 -28
-19 -54 -39 -60 -45 -8 -10 -106 -71 -210 -132 -71 -42 -273 -135 -340 -158
-118 -39 -297 -64 -428 -58 -106 4 -137 -2 -137 -30 0 -13 384 -1 455 14 28 5
66 12 85 14 20 2 48 9 64 14 44 17 55 13 65 -26 19 -72 41 -208 41 -253 0 -25
7 -76 15 -115 8 -38 15 -83 15 -99 0 -40 25 -124 71 -234 37 -89 39 -99 39
-201 0 -70 -5 -123 -15 -150 -8 -23 -15 -45 -16 -49 -1 -4 -5 -17 -10 -30 -5
-13 -9 -28 -9 -34 0 -15 -59 -123 -101 -188 -46 -69 -187 -206 -259 -251 -92
-59 -219 -112 -298 -125 -15 -3 -51 -9 -81 -14 -69 -13 -345 -13 -431 0 -36 5
-87 11 -115 14 -148 14 -348 77 -483 153 -26 15 -56 32 -67 38 -11 6 -39 23
-62 39 -38 25 -72 29 -58 5 14 -21 305 -188 305 -174 0 3 17 -4 37 -15 21 -11
43 -20 50 -20 8 0 21 -4 31 -9 16 -9 66 -22 197 -54 33 -9 130 -21 215 -27
217 -17 447 6 585 58 217 81 381 220 515 437 38 61 90 201 106 285 25 138 17
202 -47 338 -43 91 -58 158 -84 362 -14 112 -39 257 -62 355 -3 16 6 25 44 43
56 26 45 20 198 113 143 88 194 124 289 206 233 201 353 359 458 602 19 45 48
126 53 146 1 6 7 28 13 50 34 122 43 184 41 289 l-1 112 42 59 c48 68 65 105
90 192 24 80 25 269 4 351 -9 31 -17 66 -19 77 -2 11 -13 45 -25 75 -12 30
-25 66 -30 80 -13 41 -91 185 -130 241 -105 151 -164 218 -271 304 -68 55
-174 126 -185 124 -4 0 -10 3 -13 9 -6 9 -29 22 -108 60 -26 13 -55 28 -63 33
-8 5 -22 12 -30 15 -8 3 -41 19 -73 35 -31 16 -62 29 -67 29 -5 0 -33 11 -62
24 -29 13 -78 33 -108 45 -30 12 -64 26 -75 30 -92 38 -350 131 -364 131 -5 0
-42 11 -82 24 -312 101 -555 148 -769 150 -156 1 -214 -5 -253 -25 -32 -18
-137 -15 -174 5 -18 9 -33 13 -33 10 0 -4 -8 0 -17 8 -10 8 -58 34 -106 58
l-88 42 26 32 c64 80 168 249 218 356 236 509 332 1191 244 1745 -6 39 -10 73
-9 78 1 4 -10 53 -24 110 -14 56 -29 118 -34 137 -4 19 -31 98 -59 175 -56
150 -81 257 -81 345 0 54 1 56 50 98 80 69 95 106 95 237 0 110 -6 159 -24
209 -21 54 -52 117 -69 139 -29 37 -153 159 -232 227 -41 36 -130 117 -198
180 -139 129 -179 159 -269 202 -85 40 -174 53 -298 41z m200 -47 c93 -26 157
-63 245 -143 30 -27 120 -105 200 -172 281 -239 334 -302 384 -456 69 -213 -1
-399 -165 -439 -24 -5 -33 2 -82 62 -140 173 -329 329 -477 395 -99 44 -114
49 -193 68 -102 25 -349 27 -446 4 -165 -39 -351 -120 -467 -203 -271 -194
-518 -513 -679 -877 -15 -33 -33 -73 -40 -90 -27 -60 -73 -184 -96 -258 l-23
-76 -61 -25 c-149 -62 -269 -81 -510 -81 -265 0 -522 38 -789 116 -38 12 -76
22 -85 24 -19 3 -171 48 -246 71 -244 76 -478 236 -531 361 -8 18 -14 66 -14
108 0 61 5 87 26 131 29 62 149 194 238 262 34 25 62 50 64 54 9 20 175 97
242 113 59 14 214 61 298 90 7 2 14 5 17 5 3 0 22 7 43 15 20 9 75 29 122 45
116 38 433 141 445 144 11 3 134 40 285 86 239 73 276 84 285 84 6 1 26 6 45
13 19 6 62 19 95 29 33 9 101 30 150 45 50 16 113 35 140 44 28 8 86 26 130
41 44 14 89 27 100 29 11 2 47 13 80 25 33 11 78 26 100 31 21 6 44 14 50 18
5 5 21 11 35 14 14 3 63 19 110 36 755 268 847 292 975 257z m-205 -696 c180
-16 355 -91 513 -218 134 -109 276 -282 363 -446 43 -81 122 -255 130 -286 2
-8 15 -51 29 -95 71 -223 100 -375 116 -615 13 -176 3 -519 -17 -615 -8 -38
-14 -81 -14 -95 1 -103 -122 -535 -201 -708 -16 -35 -29 -65 -29 -68 0 -2 -26
-57 -57 -122 -77 -157 -129 -228 -205 -275 l-28 -17 0 99 c0 119 -5 127 -76
110 -163 -37 -232 -69 -264 -121 -33 -55 -27 -82 35 -146 31 -31 54 -63 53
-71 -3 -15 -16 -23 -143 -91 -118 -63 -520 -264 -520 -260 0 2 -11 -2 -24 -9
-23 -13 -24 -12 -17 10 4 13 12 56 18 94 12 83 1 125 -33 125 -13 0 -89 -33
-171 -72 -119 -59 -150 -78 -157 -99 -11 -32 10 -73 70 -135 l40 -41 -35 -27
c-105 -80 -211 -97 -313 -49 -126 59 -334 310 -467 563 -105 202 -215 498
-246 665 -4 22 -12 60 -18 85 -51 211 -76 608 -52 833 5 51 11 115 14 143 7
72 25 180 41 244 8 30 22 87 31 125 9 39 28 106 42 150 15 44 27 82 27 85 0 3
6 21 14 40 19 50 51 131 60 155 5 11 40 85 80 165 93 189 220 384 325 499 120
132 266 258 366 318 97 58 290 141 343 147 12 2 33 6 47 11 24 7 143 21 205
23 17 1 73 -3 125 -8z m713 -3624 c26 -12 44 -26 40 -31 -5 -4 -3 -5 4 -1 7 4
32 -5 55 -20 24 -15 44 -27 46 -26 1 2 15 -4 32 -13 16 -8 38 -15 49 -15 12 0
18 -5 16 -12 -7 -17 -55 -39 -68 -31 -6 3 -7 1 -3 -5 5 -8 -2 -12 -20 -12 -21
0 -25 4 -21 20 3 11 2 18 -3 15 -4 -3 -11 7 -14 21 -10 37 -85 70 -128 55 -17
-6 -35 -8 -41 -4 -6 3 -7 1 -3 -5 4 -7 1 -12 -6 -12 -16 0 -40 49 -31 63 3 6
1 7 -5 3 -8 -5 -12 0 -12 13 0 29 49 27 113 -3z m887 -91 c88 -16 218 -46 306
-69 102 -28 731 -253 841 -301 21 -9 47 -21 58 -25 11 -5 81 -38 155 -75 265
-129 435 -260 575 -441 54 -71 155 -225 155 -239 0 -2 11 -28 24 -57 101 -225
111 -451 30 -648 -86 -206 -340 -477 -572 -610 -57 -33 -107 -60 -112 -60 -4
0 -27 -10 -51 -23 -127 -68 -562 -212 -602 -199 -4 1 -38 -5 -75 -14 -54 -14
-121 -17 -352 -17 -176 0 -306 4 -340 11 -30 7 -78 14 -107 16 -122 10 -419
77 -643 145 -47 14 -92 26 -100 27 -19 3 -168 55 -281 99 -118 46 -312 140
-376 181 -29 19 -79 51 -110 71 -266 170 -534 479 -633 728 -62 155 -83 322
-59 465 6 36 13 74 14 85 10 68 38 96 155 156 47 24 103 55 125 70 22 15 58
37 80 49 22 12 54 30 70 40 79 49 339 181 440 224 91 39 147 64 263 117 35 16
65 29 68 29 9 0 105 45 294 137 237 116 250 121 350 136 71 11 332 6 410 -8z
m-1259 -62 c8 -9 10 -14 4 -11 -8 5 -37 -16 -35 -24 1 -2 -2 -11 -5 -20 -7
-18 19 -65 47 -86 10 -7 16 -18 12 -23 -3 -5 0 -8 8 -7 7 2 12 -2 11 -9 -2 -7
4 -10 12 -7 10 4 15 0 15 -10 0 -9 -16 -23 -37 -32 -21 -9 -51 -23 -67 -32
-21 -10 -27 -11 -21 -2 4 7 -6 3 -23 -10 -16 -12 -35 -19 -41 -16 -6 4 -11 2
-11 -3 0 -6 -7 -11 -15 -11 -8 0 -15 -4 -15 -10 0 -5 -6 -10 -14 -10 -17 0
-258 -121 -267 -134 -4 -5 -12 -5 -19 -1 -8 5 -11 4 -7 -2 6 -9 -6 -16 -41
-23 -4 -1 -17 -10 -29 -22 l-21 -20 -45 44 c-25 23 -45 46 -46 51 0 4 -7 17
-15 30 -24 38 -29 84 -11 91 9 3 22 3 27 -1 6 -3 8 -1 5 4 -8 12 47 35 59 25
4 -4 5 -2 2 3 -3 6 23 24 58 41 35 17 60 26 57 20 -4 -6 2 -3 13 6 10 9 26 18
34 20 8 2 23 11 34 21 11 10 26 15 33 13 6 -3 13 -1 15 4 2 5 51 33 110 63 59
30 105 49 101 44 -4 -6 11 3 32 19 22 16 35 22 30 14 -5 -8 4 -5 19 8 34 26
30 26 47 5z"/>
<path d="M5725 8708 c4 -18 15 -58 25 -88 49 -147 75 -629 45 -813 -9 -56 -23
-124 -30 -152 -8 -27 -26 -108 -39 -178 -14 -71 -29 -134 -33 -140 -11 -17
-52 -178 -53 -204 0 -14 6 -23 15 -23 11 0 14 7 10 23 -3 12 9 67 26 122 17
55 42 154 55 220 13 66 31 145 39 175 31 113 45 234 45 389 -1 166 -9 276 -35
486 -8 58 -57 215 -68 215 -5 0 -6 -15 -2 -32z"/>
<path d="M3384 8695 c-24 -37 -24 -103 1 -121 32 -24 82 -18 102 12 22 35 20
101 -4 120 -31 23 -80 17 -99 -11z"/>
<path d="M3287 8093 c-3 -10 -8 -39 -12 -65 -3 -27 -13 -51 -21 -56 -13 -7
-14 -15 -4 -53 8 -29 10 -78 6 -144 -5 -69 -2 -123 8 -175 7 -41 14 -125 15
-186 2 -144 39 -338 85 -447 49 -115 86 -216 86 -236 0 -44 136 -298 177 -333
25 -21 25 1 0 34 -75 100 -119 191 -172 358 -15 47 -44 123 -65 170 -49 112
-90 317 -90 460 -1 58 -8 145 -16 195 -12 70 -13 102 -5 151 10 57 5 127 -14
175 -4 10 0 19 8 22 8 3 18 26 21 54 4 26 10 58 13 71 6 26 -13 30 -20 5z"/>
<path d="M6065 5811 c-102 -11 -183 -32 -338 -88 -82 -29 -353 -179 -444 -245
-82 -60 -151 -134 -185 -201 -29 -57 -32 -70 -32 -158 -1 -90 5 -118 35 -169
5 -8 12 -22 16 -30 21 -51 180 -213 263 -270 116 -79 259 -140 550 -236 96
-31 184 -61 195 -65 11 -4 61 -17 110 -29 50 -12 107 -25 128 -31 125 -33 550
-35 686 -4 177 42 214 54 351 117 123 57 200 110 289 199 98 98 116 139 116
254 -1 85 -4 98 -35 161 -19 38 -37 71 -40 74 -3 3 -14 19 -24 35 -40 63 -156
213 -214 276 -82 88 -219 180 -362 242 -19 8 -52 22 -74 32 -21 9 -44 18 -50
19 -6 1 -24 6 -41 13 -78 28 -228 67 -345 88 -105 18 -440 28 -555 16z m486
-41 c30 -6 81 -15 114 -20 33 -5 89 -17 125 -25 36 -9 81 -20 100 -25 119 -28
354 -142 465 -225 38 -29 102 -85 140 -125 39 -40 80 -82 91 -94 26 -25 134
-201 134 -217 0 -6 6 -25 14 -42 24 -56 52 -187 39 -187 -2 0 -27 33 -57 73
-29 39 -67 88 -84 107 -17 19 -28 38 -26 42 3 5 2 7 -3 6 -5 -2 -45 40 -89 92
-99 118 -144 163 -214 210 -331 224 -913 274 -1490 128 -131 -33 -282 -82
-322 -103 -14 -8 -32 -15 -38 -15 -22 0 -183 -82 -249 -127 -35 -24 -69 -45
-75 -46 -24 -4 9 91 53 153 27 37 121 130 133 130 3 0 13 6 20 13 36 35 348
197 380 197 8 0 18 4 24 9 15 15 171 58 294 81 110 21 433 27 521 10z m174
-260 c116 -18 170 -31 295 -69 56 -17 226 -108 288 -153 125 -91 350 -344 410
-459 28 -55 30 -94 7 -139 -19 -36 -112 -122 -170 -156 -78 -45 -87 -51 -140
-78 -27 -15 -57 -30 -65 -35 -17 -10 -72 -33 -80 -33 -3 0 -21 -8 -41 -19 -20
-10 -39 -16 -42 -13 -3 3 -22 -2 -42 -10 -60 -25 -81 -20 -183 47 -53 35 -119
78 -147 96 -74 48 -278 145 -370 176 -208 69 -455 84 -651 41 -60 -13 -131
-34 -157 -45 -62 -27 -116 -35 -164 -26 -32 6 -60 30 -179 151 -139 142 -194
219 -194 272 0 47 49 109 115 146 17 9 48 27 70 39 192 107 623 235 900 267
55 7 107 13 115 15 59 11 311 2 425 -15z m-485 -835 c47 -8 94 -18 105 -22 11
-3 29 -7 40 -8 81 -10 334 -121 446 -196 68 -46 149 -120 149 -137 0 -9 -52
-12 -217 -12 -249 0 -333 10 -563 70 -25 6 -52 12 -61 14 -8 1 -28 7 -45 13
-16 5 -56 18 -89 28 -33 10 -73 24 -90 30 -42 17 -100 39 -170 66 -33 13 -64
27 -69 31 -6 4 -15 8 -22 8 -6 0 -33 10 -59 21 -55 24 -54 26 45 59 62 21 109
31 230 50 74 12 265 4 370 -15z"/>
<path d="M2440 8399 c-14 -4 -43 -8 -65 -8 -22 -1 -83 -10 -135 -21 -52 -10
-97 -17 -101 -14 -4 2 -12 -3 -19 -10 -6 -8 -25 -18 -41 -21 -32 -7 -89 -69
-89 -97 0 -9 5 -29 12 -44 l12 -26 106 6 c58 3 155 8 215 11 258 11 249 11
237 -12 -14 -29 18 -102 61 -137 l39 -31 126 0 c146 0 174 11 192 74 6 20 17
47 24 60 11 20 11 34 0 83 -14 61 -49 123 -74 133 -8 3 -31 14 -50 25 -22 12
-45 17 -62 14 -21 -4 -28 -2 -28 10 0 13 -13 15 -82 11 -46 -3 -96 -7 -113
-10 -16 -2 -55 -1 -85 3 -30 4 -66 5 -80 1z"/>
<path d="M4190 3733 c0 -4 11 -19 25 -33 13 -14 26 -34 28 -45 2 -11 8 -29 14
-40 12 -21 38 -200 48 -327 6 -75 8 -78 58 -135 28 -32 63 -78 79 -103 15 -25
95 -108 178 -186 115 -108 188 -166 310 -248 88 -59 165 -104 170 -101 16 10
4 21 -78 77 -42 28 -105 70 -140 94 -74 49 -377 336 -398 377 -8 15 -41 57
-74 93 -65 71 -66 75 -74 220 -10 172 -51 305 -105 343 -31 22 -41 26 -41 14z"/>
</g>
</svg>
