<?xml version="1.0" standalone="no"?>
<!DOCTYPE svg PUBLIC "-//W3C//DTD SVG 20010904//EN"
 "http://www.w3.org/TR/2001/REC-SVG-20010904/DTD/svg10.dtd">
<svg version="1.0" xmlns="http://www.w3.org/2000/svg"
 width="729.000000pt" height="887.000000pt" viewBox="0 0 729.000000 887.000000"
 preserveAspectRatio="xMidYMid meet">
<metadata>
Created by potrace 1.16, written by Peter Selinger 2001-2019
</metadata>
<g transform="translate(0.000000,887.000000) scale(0.100000,-0.100000)"
fill="#000000" stroke="none">
<path d="M2996 7985 c-4 -11 -21 -15 -61 -15 -42 0 -55 -3 -55 -15 0 -10 -10
-15 -31 -15 -25 0 -42 -12 -84 -55 -30 -30 -57 -55 -60 -55 -15 0 -115 -113
-115 -130 0 -10 -7 -20 -15 -24 -8 -3 -15 -14 -15 -25 0 -11 -4 -23 -10 -26
-5 -3 -10 -29 -10 -56 0 -35 -4 -51 -15 -55 -12 -5 -15 -26 -15 -104 0 -78 3
-99 15 -104 11 -4 15 -20 15 -55 0 -27 5 -53 10 -56 6 -3 10 -19 10 -34 0 -16
10 -37 25 -51 14 -13 25 -32 25 -42 0 -14 -8 -18 -40 -18 -27 0 -43 5 -46 15
-4 9 -19 15 -39 15 -19 0 -37 5 -40 10 -3 6 -39 10 -80 10 -41 0 -77 -4 -80
-10 -3 -5 -28 -10 -55 -10 -33 0 -50 -5 -54 -15 -3 -8 -14 -15 -25 -15 -11 0
-23 -4 -26 -10 -3 -5 -12 -10 -20 -10 -19 0 -165 -144 -165 -162 0 -9 -7 -21
-15 -28 -8 -7 -15 -21 -15 -31 0 -10 -4 -21 -10 -24 -5 -3 -10 -28 -10 -55 0
-33 -5 -50 -15 -54 -12 -4 -15 -27 -15 -116 0 -91 3 -110 15 -110 9 0 15 -9
15 -24 0 -14 5 -28 10 -31 6 -3 10 -14 10 -24 0 -10 7 -24 15 -31 8 -7 15 -20
15 -30 0 -10 7 -23 15 -30 8 -7 15 -19 15 -26 0 -20 111 -124 133 -124 10 0
20 -7 23 -15 4 -10 20 -15 45 -15 21 0 39 -4 39 -10 0 -5 16 -10 35 -10 22 0
38 -6 41 -15 5 -12 28 -15 119 -15 91 0 114 3 119 15 3 10 19 15 45 15 22 0
43 5 46 10 3 6 12 10 20 10 7 0 74 61 149 135 74 74 141 135 149 135 8 0 17 7
21 15 3 8 14 15 25 15 10 0 29 11 42 25 13 13 32 25 41 25 9 0 20 5 23 10 3 6
31 10 61 10 47 0 54 -3 54 -20 0 -10 9 -24 20 -30 11 -6 20 -18 20 -26 0 -18
53 -74 70 -74 7 0 23 -10 36 -22 23 -22 24 -28 24 -180 0 -99 4 -158 10 -158
6 0 10 -18 10 -40 0 -32 -7 -45 -35 -73 -30 -29 -35 -40 -35 -81 0 -32 -5 -48
-15 -52 -12 -5 -15 -26 -15 -104 0 -74 -4 -100 -15 -110 -10 -8 -15 -31 -15
-66 0 -29 -4 -56 -10 -59 -5 -3 -10 -31 -10 -60 0 -44 -4 -56 -20 -65 -17 -9
-20 -21 -20 -70 0 -32 -4 -62 -10 -65 -5 -3 -10 -26 -10 -51 0 -30 -5 -46 -15
-50 -10 -4 -15 -21 -15 -54 0 -27 -4 -51 -9 -55 -17 -10 -41 -67 -41 -97 0
-16 -6 -31 -15 -34 -9 -4 -15 -19 -15 -39 0 -19 -4 -37 -10 -40 -5 -3 -10 -15
-10 -26 0 -11 -7 -22 -15 -25 -10 -4 -15 -20 -15 -44 0 -22 -4 -42 -10 -45 -5
-3 -10 -33 -10 -66 0 -44 -4 -61 -15 -65 -10 -4 -15 -20 -15 -49 0 -29 5 -45
15 -49 8 -3 15 -13 15 -22 0 -10 11 -32 25 -50 25 -32 25 -36 25 -214 0 -151
-2 -182 -15 -186 -9 -4 -15 -19 -15 -39 0 -36 -26 -65 -59 -65 -12 0 -24 -7
-27 -15 -4 -8 -17 -15 -29 -15 -13 0 -27 -5 -30 -10 -3 -5 -19 -10 -35 -10
-15 0 -30 -7 -34 -15 -4 -12 -23 -15 -81 -15 -58 0 -77 -3 -81 -15 -4 -10 -21
-15 -54 -15 -31 0 -52 -5 -61 -16 -8 -10 -26 -14 -57 -13 -33 2 -46 -1 -53
-14 -7 -12 -23 -17 -54 -17 -24 0 -47 -4 -50 -10 -3 -6 -35 -10 -70 -10 -47 0
-64 -4 -69 -15 -3 -9 -18 -15 -40 -15 -19 0 -38 -5 -41 -10 -3 -6 -19 -10 -35
-10 -15 0 -30 -7 -34 -15 -3 -9 -19 -15 -41 -15 -22 0 -38 -6 -41 -15 -4 -8
-17 -15 -30 -15 -13 0 -24 -4 -24 -10 0 -5 -11 -10 -24 -10 -13 0 -26 -7 -30
-15 -3 -8 -14 -15 -24 -15 -24 0 -76 -26 -92 -45 -7 -8 -18 -15 -25 -15 -7 0
-43 -29 -79 -65 -36 -36 -72 -65 -81 -65 -8 0 -15 -4 -15 -10 0 -5 -4 -10 -10
-10 -5 0 -36 -27 -67 -60 -32 -33 -64 -60 -71 -60 -16 0 -72 -56 -72 -73 0 -7
-12 -23 -25 -36 -14 -13 -25 -31 -25 -40 0 -10 -13 -27 -30 -39 -19 -15 -30
-31 -30 -48 0 -13 -7 -27 -15 -30 -8 -4 -15 -13 -15 -21 0 -8 -18 -32 -40 -53
-22 -21 -40 -45 -40 -54 0 -8 -5 -18 -10 -21 -6 -3 -10 -24 -10 -46 0 -26 -5
-42 -15 -45 -8 -4 -15 -14 -15 -24 0 -11 -5 -22 -10 -25 -6 -3 -10 -15 -10
-26 0 -11 -7 -22 -15 -25 -9 -4 -15 -19 -15 -40 0 -23 -6 -37 -20 -44 -14 -7
-20 -21 -20 -45 0 -18 -4 -37 -10 -40 -5 -3 -10 -15 -10 -26 0 -11 -7 -22 -15
-25 -8 -4 -15 -14 -15 -24 0 -11 -4 -22 -10 -25 -5 -3 -10 -23 -10 -45 0 -24
-5 -40 -15 -44 -9 -3 -15 -18 -15 -34 0 -16 -7 -35 -15 -42 -9 -8 -15 -29 -15
-56 0 -23 -5 -46 -10 -49 -6 -3 -10 -23 -10 -45 0 -24 -5 -40 -15 -44 -9 -3
-15 -18 -15 -35 0 -16 -4 -33 -10 -36 -5 -3 -10 -39 -10 -80 0 -50 -4 -77 -13
-82 -8 -5 -17 -47 -24 -113 -6 -58 -14 -115 -18 -128 -6 -18 0 -30 32 -60 22
-21 62 -46 89 -56 27 -10 56 -25 65 -32 8 -8 23 -14 32 -14 9 0 19 -5 22 -10
3 -6 19 -10 34 -10 16 0 34 -7 41 -15 7 -8 25 -15 41 -15 15 0 30 -4 34 -9 9
-16 66 -41 92 -41 14 0 37 -7 51 -14 45 -25 260 -95 402 -132 172 -45 333 -56
426 -29 76 22 150 93 160 155 4 22 10 40 15 40 5 0 9 11 9 24 0 14 4 28 10 31
5 3 10 29 10 56 0 35 4 51 15 55 9 4 15 19 15 39 0 19 4 37 10 40 5 3 10 26
10 51 0 31 5 47 18 55 12 8 17 20 14 38 -2 17 3 32 12 40 10 8 16 29 16 52 0
28 4 39 15 39 9 0 15 9 15 24 0 13 7 26 15 30 8 3 15 17 15 31 0 14 5 25 10
25 6 0 10 9 10 20 0 11 7 23 15 26 8 4 15 14 15 24 0 11 5 22 10 25 6 3 10 13
10 22 0 8 17 33 39 54 l39 39 86 0 c68 0 88 -3 92 -15 4 -8 17 -15 30 -15 14
0 27 -7 30 -15 4 -8 14 -15 24 -15 11 0 22 -4 25 -10 3 -5 17 -10 31 -10 15 0
24 -6 24 -15 0 -9 9 -15 24 -15 14 0 28 -4 31 -10 3 -5 15 -10 26 -10 11 0 22
-7 25 -15 4 -9 19 -15 39 -15 24 0 37 -7 49 -25 12 -18 25 -25 50 -25 20 0 40
-8 51 -20 10 -11 21 -17 25 -15 4 3 13 -2 20 -10 7 -8 23 -15 37 -15 13 0 26
-7 29 -15 4 -8 17 -15 30 -15 13 0 24 -4 24 -10 0 -5 11 -10 25 -10 16 0 25
-6 25 -15 0 -9 9 -15 25 -15 14 0 28 -7 31 -15 4 -8 14 -15 24 -15 11 0 22 -4
25 -10 3 -5 22 -10 41 -10 22 0 37 -6 40 -15 4 -9 19 -15 39 -15 19 0 37 -4
40 -10 3 -5 22 -10 41 -10 22 0 37 -6 40 -15 4 -10 21 -15 55 -15 38 0 51 -4
59 -20 6 -11 19 -20 30 -20 10 0 22 -4 25 -10 3 -5 26 -10 49 -10 27 0 48 -6
56 -15 9 -11 34 -15 96 -15 45 0 86 -5 89 -10 8 -13 332 -13 340 0 3 5 39 10
79 10 53 0 77 4 86 15 9 11 32 15 81 15 37 0 71 4 74 10 3 5 28 10 54 10 40 0
50 3 54 20 4 17 14 20 70 20 48 0 66 4 71 15 4 11 20 15 55 15 27 0 53 5 56
10 3 5 39 10 80 10 55 0 74 4 79 15 4 12 24 15 93 15 l88 0 38 -40 c20 -22 43
-40 50 -40 7 0 26 -13 42 -30 16 -16 37 -30 47 -30 10 0 21 -7 24 -15 4 -8 12
-15 20 -15 8 0 14 -4 14 -10 0 -5 14 -10 30 -10 18 0 33 -6 36 -15 4 -9 19
-15 35 -15 16 0 29 -4 29 -10 0 -5 16 -10 35 -10 22 0 38 -6 41 -15 9 -22 229
-22 238 0 3 8 14 15 25 15 11 0 23 4 26 10 3 5 15 10 26 10 11 0 22 7 25 15 4
8 10 15 16 15 13 0 38 26 38 39 0 6 7 11 15 11 8 0 15 4 15 10 0 12 168 180
181 180 5 0 9 7 9 15 0 8 5 15 11 15 12 0 39 25 39 35 0 4 11 16 25 27 14 11
25 26 25 35 0 14 9 26 63 84 9 10 17 26 17 34 0 8 9 19 20 25 14 7 20 21 20
45 0 18 5 37 10 40 6 3 10 19 10 34 0 16 7 34 15 41 11 9 15 33 15 86 0 40 4
76 10 79 6 4 10 75 10 180 0 105 -4 176 -10 180 -6 3 -10 50 -10 104 0 75 -4
101 -15 111 -8 7 -15 21 -15 31 0 10 -4 21 -10 24 -5 3 -10 13 -10 22 0 20
-69 83 -91 83 -9 0 -24 11 -33 25 -9 14 -24 25 -34 25 -10 0 -29 13 -42 30
-14 16 -33 29 -42 30 -9 0 -20 4 -23 10 -3 6 -16 10 -28 10 -12 0 -33 13 -47
30 -14 17 -34 30 -47 30 -14 0 -23 6 -23 15 0 9 -9 15 -25 15 -14 0 -28 7 -31
15 -4 8 -14 15 -24 15 -11 0 -22 5 -25 10 -3 6 -17 10 -31 10 -14 0 -27 7 -30
15 -4 8 -14 15 -24 15 -11 0 -22 5 -25 10 -3 6 -26 10 -51 10 -30 0 -46 5 -50
15 -8 20 -70 20 -78 0 -3 -9 -18 -15 -40 -15 -19 0 -38 -4 -41 -10 -3 -5 -15
-10 -26 -10 -20 0 -109 -81 -109 -100 0 -5 -11 -10 -24 -10 -13 0 -29 -7 -36
-15 -18 -21 -172 -21 -190 0 -7 8 -26 15 -42 15 -16 0 -31 6 -34 15 -4 9 -19
15 -40 15 -28 0 -43 9 -83 50 -27 27 -52 50 -56 50 -17 0 -95 95 -95 116 0 12
-7 24 -15 28 -8 3 -15 14 -15 25 0 10 -11 29 -25 42 -18 18 -25 34 -25 65 0
28 -5 44 -15 48 -12 4 -15 32 -15 160 0 92 -4 157 -10 161 -6 4 -10 68 -10
160 0 144 -1 155 -20 165 -11 6 -20 19 -20 30 0 11 9 24 20 30 18 10 20 21 20
105 0 84 -2 95 -20 105 -15 8 -20 21 -20 50 0 22 -4 40 -10 40 -5 0 -10 11
-10 24 0 13 -7 26 -15 30 -8 3 -15 14 -15 25 0 10 -7 21 -15 25 -8 3 -15 14
-15 25 0 11 -4 23 -10 26 -5 3 -10 14 -10 25 0 10 -7 20 -15 24 -8 3 -15 16
-15 30 0 14 -4 28 -10 31 -5 3 -10 28 -10 56 0 37 -4 49 -15 49 -11 0 -15 12
-15 49 0 28 -4 53 -10 56 -5 3 -10 37 -10 74 0 55 -4 71 -20 86 -16 15 -20 31
-20 90 0 56 -4 74 -15 79 -11 4 -15 23 -15 80 0 41 -4 78 -10 81 -5 3 -10 44
-10 89 0 63 -4 87 -15 96 -12 10 -15 28 -13 64 l3 51 43 3 c31 2 44 -1 48 -12
9 -23 169 -23 178 -1 3 10 19 15 46 15 22 0 40 5 40 10 0 6 11 10 24 10 13 0
26 7 30 15 3 8 12 15 21 15 23 0 105 86 105 110 0 11 5 20 10 20 6 0 10 11 10
25 0 14 7 28 15 31 8 4 15 12 15 20 0 8 9 22 20 31 12 11 20 30 20 50 0 17 5
35 10 38 6 4 10 53 10 115 0 62 -4 111 -10 115 -5 3 -10 22 -10 41 0 23 -5 34
-15 34 -8 0 -17 11 -21 24 -3 14 -12 27 -20 30 -8 3 -14 19 -14 35 0 22 -8 35
-26 47 -32 21 -29 58 4 62 13 2 31 -3 40 -11 9 -8 32 -20 50 -28 17 -8 32 -20
32 -26 0 -7 11 -13 24 -13 14 0 28 -4 31 -10 3 -5 22 -10 41 -10 22 0 37 -6
40 -15 4 -10 20 -15 49 -15 24 0 47 -4 50 -10 4 -6 57 -10 125 -10 68 0 121 4
125 10 3 6 26 10 50 10 29 0 45 5 49 15 3 8 14 15 25 15 11 0 23 5 26 10 3 6
12 10 20 10 8 0 26 11 41 25 15 14 38 25 50 25 13 0 24 5 24 10 0 6 23 33 50
62 28 28 50 60 50 70 0 10 7 21 15 24 9 4 15 19 15 40 0 22 6 37 15 40 8 4 15
18 15 34 0 15 7 33 15 40 12 10 15 39 15 141 0 78 -4 129 -10 129 -5 0 -12 11
-16 24 -3 14 -12 27 -20 30 -8 3 -14 19 -14 37 0 26 -15 46 -90 121 -49 49
-90 93 -90 99 0 5 -9 9 -19 9 -11 0 -23 5 -26 10 -3 6 -31 10 -60 10 -44 0
-56 4 -65 20 -10 18 -21 20 -124 20 -100 0 -115 -2 -131 -20 -10 -11 -31 -20
-46 -20 -15 0 -31 -4 -34 -10 -3 -5 -15 -10 -25 -10 -11 0 -29 -13 -42 -30
-12 -16 -30 -30 -39 -30 -10 0 -33 -16 -52 -35 -19 -19 -43 -35 -53 -35 -20 0
-54 -32 -54 -50 0 -6 -7 -10 -15 -10 -9 0 -15 -9 -15 -23 0 -26 -60 -87 -85
-87 -10 0 -28 -11 -41 -25 -13 -14 -32 -25 -42 -25 -11 0 -22 -7 -26 -15 -4
-12 -25 -15 -95 -15 -83 0 -90 2 -105 25 -9 13 -16 35 -16 48 0 14 -7 30 -15
37 -8 7 -15 25 -15 41 0 15 -4 31 -10 34 -5 3 -10 14 -10 24 0 22 -40 61 -63
61 -21 0 -34 26 -43 81 -9 53 -64 133 -102 148 -15 6 -39 20 -53 31 -17 14
-50 24 -100 31 -41 5 -84 15 -96 21 -35 17 -743 1 -823 -19 -24 -6 -35 -7 -63
-4 -8 0 -40 27 -73 58 -32 32 -64 57 -70 55 -6 -1 -17 5 -24 13 -7 8 -21 15
-32 15 -10 0 -21 7 -24 15 -4 9 -19 15 -40 15 -22 0 -37 6 -40 15 -5 12 -27
15 -114 15 -87 0 -109 -3 -114 -15z m213 -56 c117 -36 251 -118 251 -152 0 -7
14 -23 30 -37 17 -14 30 -31 30 -38 0 -17 29 -112 41 -134 12 -24 12 -255 -1
-263 -5 -3 -10 -14 -10 -23 0 -9 -7 -30 -15 -46 -8 -15 -15 -36 -15 -45 0 -9
-9 -29 -20 -46 -11 -16 -25 -39 -32 -49 -7 -11 -23 -30 -35 -42 -13 -11 -23
-26 -23 -33 0 -6 -7 -11 -15 -11 -8 0 -15 -4 -15 -9 0 -5 -11 -12 -25 -15 -14
-4 -25 -11 -25 -16 0 -6 -8 -10 -18 -10 -9 0 -29 -11 -44 -25 -15 -14 -34 -25
-43 -25 -9 0 -25 -5 -36 -11 -11 -6 -74 -10 -141 -10 -72 0 -125 4 -131 10 -6
6 -23 11 -38 11 -15 0 -31 5 -34 10 -3 6 -14 10 -23 10 -17 0 -102 69 -102 82
0 4 -11 19 -25 34 -14 15 -25 33 -25 40 0 8 -3 14 -8 14 -7 0 -26 33 -56 102
-9 20 -16 55 -16 77 0 24 -5 44 -12 46 -9 4 -12 26 -11 73 1 37 3 68 4 70 1 1
2 6 3 11 0 5 4 13 9 17 4 4 7 26 7 49 0 26 6 48 15 55 8 7 15 21 15 31 0 11 4
19 9 19 5 0 13 10 17 23 3 12 22 37 40 55 19 18 34 37 34 42 0 6 5 10 10 10 6
0 10 5 10 11 0 17 53 69 71 69 9 0 19 7 23 15 3 9 18 15 40 15 19 0 36 5 38
11 2 5 29 14 61 18 31 4 60 11 64 14 10 11 133 8 172 -4z m764 -299 c-3 -11
-16 -23 -29 -26 -17 -4 -24 -13 -24 -29 0 -12 -7 -28 -15 -35 -8 -7 -15 -19
-15 -26 0 -8 -4 -14 -10 -14 -5 0 -10 -7 -10 -15 0 -8 -7 -15 -15 -15 -8 0
-15 -6 -15 -13 0 -16 -25 -29 -95 -50 -42 -12 -51 -12 -53 -1 -2 8 -14 14 -28
14 -23 0 -24 2 -24 75 0 43 -4 75 -10 75 -5 0 -10 11 -10 24 0 20 6 24 43 30
23 3 62 10 87 15 25 5 86 9 137 10 87 1 91 0 86 -19z m347 9 c30 -5 71 -12 90
-15 19 -3 44 -9 55 -14 11 -5 42 -11 70 -14 27 -4 54 -11 59 -16 6 -6 20 -10
32 -10 28 0 73 -36 85 -67 6 -18 14 -23 27 -19 34 11 102 -77 102 -133 0 -12
5 -21 10 -21 6 0 10 -20 10 -43 0 -36 5 -48 31 -72 31 -27 36 -28 138 -29 85
0 111 3 131 17 13 9 32 17 42 17 10 0 18 5 18 10 0 6 6 10 14 10 8 0 16 4 18
8 2 4 20 18 41 31 20 12 37 26 37 31 0 17 125 150 141 150 5 0 26 16 46 35 20
19 41 35 48 35 7 0 20 9 30 20 10 11 26 20 37 20 10 0 18 4 18 10 0 5 18 13
40 16 22 4 43 11 46 15 7 12 181 12 188 0 3 -4 33 -11 66 -15 33 -4 60 -11 60
-16 0 -6 9 -10 21 -10 12 0 23 -8 26 -19 3 -11 13 -21 24 -24 10 -3 22 -13 26
-24 8 -21 50 -63 78 -79 24 -13 64 -90 65 -124 0 -15 5 -31 12 -38 16 -16 17
-187 1 -203 -7 -7 -13 -25 -13 -40 0 -15 -4 -30 -9 -33 -4 -3 -11 -24 -15 -47
-6 -39 -46 -105 -75 -123 -7 -4 -21 -16 -30 -25 -10 -10 -24 -21 -32 -24 -17
-8 -52 -30 -59 -37 -3 -3 -23 -14 -45 -24 -22 -10 -48 -23 -57 -27 -10 -5 -31
-9 -47 -9 -16 0 -37 -7 -45 -16 -12 -11 -38 -16 -96 -17 -44 -1 -80 1 -80 5 0
9 -68 28 -102 28 -16 0 -28 4 -28 9 0 5 -18 12 -40 16 -22 4 -42 11 -46 16 -3
5 -14 9 -25 9 -10 0 -19 4 -19 9 0 5 -8 11 -17 15 -25 8 -57 29 -66 44 -4 6
-21 12 -37 12 -16 0 -32 5 -35 10 -4 6 -53 10 -115 10 -62 0 -111 -4 -115 -10
-3 -5 -15 -10 -26 -10 -11 0 -22 -7 -25 -15 -4 -8 -17 -15 -30 -15 -24 0 -64
-31 -64 -50 0 -5 -4 -10 -10 -10 -5 0 -10 -13 -10 -29 0 -16 -7 -34 -15 -41
-10 -8 -15 -30 -15 -60 0 -27 -3 -55 -6 -64 -7 -17 -64 -23 -64 -7 0 5 -10 13
-22 17 -13 4 -25 9 -28 13 -15 19 -163 71 -201 71 -10 0 -22 6 -26 14 -6 10
-38 15 -108 19 -144 7 -305 29 -305 42 0 15 -42 51 -69 60 -12 3 -21 11 -21
16 0 5 -7 9 -15 9 -8 0 -15 3 -15 8 0 4 -14 16 -30 27 -17 11 -44 39 -61 63
-25 34 -36 42 -62 42 -47 0 -59 -12 -67 -66 -14 -90 20 -142 110 -167 8 -2
-34 -7 -95 -12 -60 -4 -121 -12 -135 -17 -14 -6 -44 -10 -67 -9 -23 2 -52 -4
-65 -13 -13 -8 -40 -18 -60 -21 -21 -4 -38 -11 -38 -16 0 -5 -11 -9 -25 -9
-14 0 -25 -4 -25 -10 0 -5 -6 -10 -14 -10 -8 0 -21 -6 -28 -12 -7 -7 -28 -21
-46 -31 -25 -14 -33 -15 -36 -5 -12 37 -18 94 -23 206 -4 116 -4 122 15 122
11 0 25 7 32 15 7 8 21 15 30 15 10 0 20 4 22 10 2 5 18 14 35 19 28 8 35 7
48 -12 8 -12 15 -29 15 -39 0 -24 16 -31 40 -16 20 13 29 73 11 80 -4 2 -12
13 -15 26 -5 15 -3 24 8 28 9 3 16 12 16 20 0 8 6 14 13 14 6 0 21 20 32 45
11 25 23 45 27 45 5 0 8 9 8 21 0 12 8 23 20 26 15 4 20 14 20 39 0 19 4 34 9
34 5 0 12 18 16 40 4 22 11 42 16 46 5 3 9 16 9 30 0 24 23 34 35 14 3 -5 26
-10 50 -10 24 0 47 5 50 10 3 6 19 10 36 10 16 0 29 -4 29 -10 0 -6 26 -10 58
-10 53 0 62 3 85 30 15 16 27 39 27 50 0 11 4 20 8 20 9 0 28 80 39 155 3 22
10 46 15 53 13 15 165 15 248 1z m-1912 -603 c7 -4 34 -10 62 -13 28 -3 53
-10 56 -14 3 -5 15 -9 27 -9 12 0 31 -7 41 -15 11 -8 30 -15 42 -15 12 0 39
-16 60 -35 22 -19 47 -37 57 -41 9 -3 17 -10 17 -15 0 -5 9 -9 21 -9 11 0 27
-7 35 -15 9 -8 29 -15 45 -15 16 0 29 -4 29 -10 0 -5 50 -11 118 -12 l117 -3
3 -115 c1 -63 7 -119 12 -124 6 -6 10 -18 10 -28 0 -14 -8 -18 -35 -18 -19 0
-35 -4 -35 -9 0 -5 -10 -12 -22 -16 -37 -10 -72 -29 -81 -42 -4 -7 -15 -13
-23 -13 -22 0 -54 -21 -87 -57 -16 -18 -34 -33 -39 -33 -6 0 -32 -22 -58 -50
-26 -27 -53 -50 -59 -50 -7 0 -9 -5 -6 -11 4 -6 -2 -13 -14 -16 -12 -3 -21
-10 -21 -15 0 -13 -26 -38 -39 -38 -6 0 -11 -4 -11 -9 0 -5 -11 -12 -25 -15
-14 -4 -25 -12 -25 -20 0 -9 -8 -12 -26 -8 -15 3 -29 -1 -33 -7 -10 -15 -134
-33 -169 -24 -15 3 -32 13 -38 21 -7 10 -23 13 -47 10 -26 -3 -39 1 -49 14 -7
10 -23 18 -35 18 -13 0 -23 5 -23 10 0 6 -10 10 -22 10 -24 1 -88 52 -88 70 0
5 -4 10 -9 10 -12 0 -27 28 -102 184 -20 43 -27 181 -10 214 5 9 17 52 27 95
11 49 26 87 41 103 13 14 23 27 23 29 0 10 86 85 98 85 6 0 12 4 12 10 0 5 18
13 40 16 22 4 40 10 40 15 0 5 15 9 33 9 17 0 43 6 56 13 26 13 91 15 109 3z
m2742 -297 c0 -5 7 -9 15 -9 8 0 15 -7 15 -15 0 -8 6 -15 13 -15 8 0 22 -9 32
-20 10 -11 14 -20 10 -20 -5 0 0 -10 11 -22 11 -13 28 -41 38 -63 11 -22 23
-48 27 -57 5 -10 9 -26 9 -36 0 -10 6 -24 13 -30 8 -9 12 -44 12 -102 0 -58
-4 -93 -12 -102 -7 -6 -13 -25 -13 -40 0 -15 -4 -28 -9 -28 -5 0 -12 -18 -16
-40 -4 -22 -10 -40 -13 -40 -4 0 -16 -18 -26 -40 -11 -22 -25 -40 -33 -40 -7
0 -13 -7 -13 -15 0 -8 -7 -15 -15 -15 -8 0 -15 -4 -15 -10 0 -5 -11 -12 -25
-16 -14 -3 -25 -10 -25 -15 0 -5 -11 -9 -24 -9 -13 0 -26 -5 -28 -10 -7 -21
-135 -32 -221 -21 -45 6 -83 16 -85 21 -2 6 -12 10 -23 10 -16 0 -18 5 -13 28
4 15 11 33 17 39 5 7 6 27 3 45 -11 53 -22 169 -16 176 3 4 21 15 40 25 33 16
75 52 109 93 14 16 40 172 41 247 0 20 5 37 10 37 6 0 10 6 10 13 0 18 34 57
49 57 6 0 11 4 11 9 0 8 35 25 85 41 24 8 55 1 55 -11z m-831 -157 c84 -6 158
-15 164 -21 6 -6 29 -11 52 -11 28 0 46 -6 58 -20 9 -11 26 -20 38 -20 19 0
117 -46 129 -61 3 -4 15 -9 28 -13 12 -4 22 -12 22 -17 0 -5 7 -9 15 -9 19 0
19 -10 -2 -40 -26 -38 -55 -59 -80 -60 -13 0 -23 -4 -23 -10 0 -5 -7 -10 -15
-10 -8 0 -15 4 -15 9 0 5 -8 11 -17 15 -22 7 -51 25 -77 50 -34 30 -100 54
-168 62 -35 4 -68 11 -74 15 -6 5 -98 10 -205 11 l-195 3 -30 -34 -31 -34 -30
23 c-29 21 -37 22 -117 15 -47 -4 -88 -11 -92 -16 -3 -5 -24 -9 -46 -9 -40 0
-94 -13 -130 -31 -10 -5 -24 -9 -32 -9 -8 0 -16 -4 -18 -8 -1 -5 -15 -12 -29
-15 -22 -6 -34 1 -73 39 -49 49 -50 52 -38 71 9 15 98 63 116 63 7 0 21 9 31
20 11 12 31 20 50 20 17 0 36 5 42 11 6 6 61 14 122 18 61 4 114 11 118 15 9
9 348 1 552 -12z m26 -213 c5 -5 33 -9 62 -9 58 0 154 -39 177 -71 7 -11 16
-16 19 -13 4 4 9 -1 13 -10 3 -9 12 -16 20 -16 8 0 14 -8 14 -18 0 -10 4 -22
9 -27 5 -6 11 -38 13 -72 4 -60 3 -63 -19 -63 -13 0 -23 4 -23 9 0 5 -25 13
-55 16 -38 5 -55 12 -55 22 0 11 -12 14 -47 12 -27 -1 -55 1 -63 4 -52 19
-124 27 -233 27 -160 0 -217 19 -217 71 0 12 -5 37 -11 54 -16 43 5 93 41 98
45 7 345 -5 355 -14z m-501 -26 c3 -10 14 -31 25 -48 11 -16 20 -41 20 -53 1
-24 -33 -61 -56 -62 -7 0 -13 -4 -13 -10 0 -5 -11 -10 -24 -10 -13 0 -41 -7
-62 -16 -24 -11 -61 -16 -97 -15 -40 2 -64 -2 -75 -12 -10 -9 -43 -17 -77 -19
l-60 -3 0 84 c0 59 4 86 13 89 6 2 12 10 12 17 0 9 17 16 45 21 25 3 48 10 51
15 3 5 24 9 47 10 23 0 58 6 77 13 19 8 65 14 101 15 55 1 68 -2 73 -16z m96
-212 c0 -4 17 -15 38 -24 31 -13 69 -17 181 -17 78 0 151 -4 161 -10 10 -5 57
-13 104 -16 60 -5 87 -11 90 -21 4 -10 18 -14 40 -12 21 2 39 -3 50 -14 10 -9
24 -17 32 -17 9 0 14 -7 12 -17 -3 -16 -14 -18 -88 -15 -46 1 -87 7 -90 11 -8
14 -667 34 -720 22 -25 -6 -68 -11 -97 -11 -28 0 -53 -4 -55 -9 -1 -4 -25 -11
-53 -15 l-50 -7 45 39 c25 22 48 38 52 35 5 -2 11 3 14 11 4 12 20 16 54 16
26 0 64 7 83 15 20 8 48 15 62 15 14 0 43 13 66 29 36 26 69 32 69 12z m39
-207 c2 -2 -4 -13 -14 -24 -15 -16 -17 -33 -13 -112 2 -51 7 -99 12 -106 4 -7
7 -116 6 -243 0 -162 3 -235 11 -245 6 -8 8 -14 4 -14 -4 0 -1 -7 6 -17 8 -9
17 -48 21 -87 4 -39 14 -129 22 -201 12 -97 13 -135 5 -152 -13 -24 -100 -73
-130 -73 -10 0 -19 -4 -19 -10 0 -5 -7 -10 -15 -10 -8 0 -15 -4 -15 -9 0 -4
-10 -6 -23 -4 -28 6 -97 -51 -97 -79 0 -14 -8 -18 -40 -18 -70 0 -262 -30
-360 -57 -127 -34 -190 -63 -243 -112 -24 -23 -47 -41 -51 -41 -3 0 -6 45 -6
100 0 87 3 105 21 130 13 17 20 37 16 49 -3 13 0 21 8 21 7 0 15 18 19 40 3
22 11 40 16 40 6 0 10 13 10 29 0 17 5 33 10 36 6 3 10 13 10 22 0 14 10 41
45 118 14 31 21 63 32 150 3 27 12 55 19 63 8 7 14 33 14 58 0 24 4 52 9 62 6
9 13 38 16 64 3 26 10 50 16 53 5 4 9 26 9 50 0 24 5 47 10 50 6 4 8 10 5 15
-3 5 -1 11 4 14 5 3 12 49 16 101 4 52 11 95 16 95 5 0 9 27 9 61 0 54 3 64
29 90 16 16 34 29 40 29 6 0 11 5 11 10 0 6 8 10 19 10 10 0 24 7 31 15 8 10
30 15 60 15 27 0 50 4 52 10 7 20 345 33 367 14z m406 -5 c39 -5 97 -12 130
-15 108 -10 168 -54 180 -133 4 -25 12 -52 17 -59 6 -7 10 -48 9 -91 -1 -48 2
-82 9 -86 5 -3 8 -11 5 -16 -4 -5 1 -19 9 -31 9 -12 16 -41 16 -63 0 -23 4
-45 9 -50 8 -10 28 -154 38 -277 3 -32 8 -58 13 -58 4 0 11 -25 15 -55 3 -30
11 -55 16 -55 5 0 9 -15 9 -32 0 -18 7 -42 15 -52 8 -11 15 -30 15 -43 0 -13
5 -23 10 -23 6 0 10 -8 10 -19 0 -10 7 -24 15 -31 8 -7 15 -22 15 -34 0 -12 9
-28 19 -35 11 -8 17 -20 15 -26 -3 -7 2 -15 10 -18 9 -4 16 -13 16 -21 0 -7 7
-27 15 -42 8 -16 15 -41 15 -56 0 -16 5 -28 10 -28 6 0 10 -13 10 -30 0 -28
-2 -29 -26 -20 -14 6 -36 10 -50 10 -13 0 -52 12 -87 26 -34 14 -114 39 -177
56 -107 29 -129 31 -320 35 -147 3 -213 8 -235 18 -16 7 -38 16 -48 19 -15 5
-17 12 -12 38 4 18 11 35 16 36 5 2 9 14 9 27 0 12 7 28 15 35 19 16 20 112 3
143 -9 15 -15 96 -20 242 -4 121 -9 245 -12 275 -3 30 -11 119 -18 198 -6 79
-15 145 -20 148 -4 3 -8 32 -8 65 0 45 4 61 16 66 9 3 15 16 14 32 -1 14 -2
29 -1 34 1 10 212 8 296 -4z m3 -1490 c40 -5 101 -9 135 -9 34 0 80 -5 102
-11 22 -6 59 -14 81 -19 23 -5 68 -18 100 -30 33 -12 89 -29 125 -38 36 -10
73 -23 81 -30 24 -20 29 -58 39 -317 5 -132 14 -250 19 -263 6 -13 10 -45 10
-73 0 -27 4 -57 9 -67 5 -9 17 -46 27 -82 10 -36 21 -67 24 -70 3 -3 21 -30
40 -60 19 -30 38 -56 42 -58 5 -2 8 -7 8 -12 0 -12 140 -152 166 -167 12 -6
38 -15 58 -18 20 -4 33 -11 30 -16 -3 -5 6 -9 20 -9 14 0 40 -6 58 -14 74 -31
171 -45 183 -26 3 6 15 10 25 10 10 0 25 7 34 15 8 8 22 15 30 15 9 0 16 4 16
9 0 5 8 12 19 16 10 3 35 21 54 40 20 19 40 35 46 35 5 0 17 7 26 16 22 22
200 22 225 -1 9 -8 24 -15 33 -15 9 0 17 -4 17 -9 0 -5 11 -12 25 -15 14 -4
25 -11 25 -16 0 -6 11 -10 25 -10 14 0 25 -4 25 -9 0 -5 11 -12 25 -15 14 -4
25 -11 25 -16 0 -6 9 -10 20 -10 11 0 23 -7 26 -15 4 -8 13 -15 22 -15 25 0
122 -53 122 -66 0 -7 11 -15 25 -18 14 -4 25 -11 25 -16 0 -6 7 -10 15 -10 8
0 15 -7 15 -15 0 -8 6 -15 14 -15 47 0 113 -67 122 -123 4 -20 11 -40 15 -43
5 -3 9 -41 9 -85 0 -48 6 -94 15 -116 21 -49 21 -254 0 -313 -8 -23 -15 -71
-15 -106 0 -35 -4 -64 -9 -64 -5 0 -12 -22 -16 -50 -4 -27 -11 -50 -16 -50 -5
0 -9 -9 -9 -19 0 -26 -29 -79 -62 -112 -16 -16 -28 -33 -28 -38 0 -5 -22 -33
-50 -61 -27 -28 -50 -54 -50 -57 0 -3 -60 -65 -132 -137 -105 -104 -147 -138
-201 -165 -66 -32 -72 -34 -150 -28 -44 4 -85 11 -91 17 -5 5 -19 10 -30 10
-12 0 -30 7 -40 15 -11 8 -30 15 -43 15 -13 0 -23 4 -23 9 0 5 -13 12 -30 16
-16 4 -32 11 -35 16 -4 5 -13 9 -22 9 -9 0 -26 11 -39 25 -13 14 -28 25 -34
25 -5 0 -10 4 -10 10 0 5 -11 12 -25 16 -14 3 -25 10 -25 15 0 5 -6 9 -12 9
-7 0 -35 21 -61 47 -44 41 -51 45 -69 34 -11 -7 -51 -16 -90 -20 -38 -4 -73
-12 -76 -17 -4 -5 -38 -9 -75 -9 -54 0 -71 -4 -81 -17 -9 -13 -27 -18 -60 -18
-25 0 -46 -4 -46 -10 0 -5 -20 -10 -44 -10 -24 0 -57 -7 -72 -15 -16 -8 -50
-15 -77 -15 -26 0 -55 -4 -65 -10 -9 -5 -55 -14 -102 -20 -47 -6 -119 -16
-160 -22 -169 -28 -530 -4 -635 42 -11 5 -32 11 -47 14 -16 4 -28 11 -28 16 0
6 -20 10 -45 10 -25 0 -45 5 -45 10 0 6 -15 10 -32 10 -18 0 -44 9 -58 20 -14
11 -33 20 -42 20 -9 0 -20 5 -23 10 -3 6 -15 10 -27 10 -11 0 -36 7 -56 16
-61 26 -76 32 -99 39 -13 4 -23 11 -23 16 0 5 -5 9 -10 9 -6 0 -28 11 -50 25
-22 14 -49 25 -60 25 -11 0 -23 7 -26 15 -4 8 -17 15 -29 15 -13 0 -26 4 -30
9 -3 5 -18 12 -34 16 -16 3 -35 13 -41 21 -7 7 -16 12 -20 9 -4 -3 -13 2 -20
10 -7 8 -17 15 -22 15 -14 0 -68 24 -161 71 -43 21 -85 39 -93 39 -8 0 -12 5
-9 10 3 6 -3 10 -14 10 -11 0 -26 7 -35 15 -8 8 -27 15 -42 15 -15 0 -42 5
-60 12 -25 9 -42 8 -78 -2 -25 -7 -46 -17 -46 -21 0 -5 -6 -9 -14 -9 -19 0
-96 -77 -96 -95 0 -8 -4 -15 -9 -15 -5 0 -12 -14 -16 -30 -4 -17 -10 -30 -14
-30 -13 0 -41 -58 -41 -84 0 -14 -4 -26 -9 -26 -5 0 -12 -16 -15 -35 -4 -19
-11 -35 -16 -35 -6 0 -10 -6 -10 -14 0 -8 -6 -27 -14 -43 -21 -42 -36 -96 -36
-129 0 -16 -9 -44 -21 -63 -11 -19 -18 -42 -16 -53 3 -10 1 -21 -5 -24 -6 -4
-8 13 -5 47 7 78 30 189 39 189 4 0 8 15 8 33 0 17 7 41 15 51 8 11 15 34 15
52 0 18 5 36 10 39 6 4 20 28 31 53 37 86 47 107 63 142 9 19 20 42 25 50 5 8
22 42 37 75 30 62 66 106 98 118 10 4 16 10 13 14 -7 7 74 69 86 65 4 -1 10 5
13 13 4 8 18 15 34 15 16 0 35 7 44 15 8 8 32 15 53 15 22 0 45 6 51 13 10 9
68 12 219 12 156 0 207 -3 210 -12 3 -7 21 -13 41 -13 20 0 46 -7 56 -15 11
-8 34 -15 52 -15 18 0 34 -6 37 -14 4 -9 14 -12 26 -9 13 3 24 -2 33 -16 7
-12 21 -21 30 -21 10 0 18 -4 18 -9 0 -5 11 -12 25 -15 14 -4 25 -11 25 -16 0
-6 7 -10 15 -10 8 0 15 -4 15 -9 0 -5 11 -12 25 -15 14 -4 25 -11 25 -16 0 -6
6 -10 14 -10 7 0 63 -25 122 -55 60 -30 114 -55 120 -55 7 0 14 -7 18 -15 3
-9 18 -15 35 -15 16 0 36 -7 45 -15 8 -8 24 -15 35 -15 11 0 23 -5 26 -10 3
-5 21 -10 38 -10 18 0 41 -7 51 -15 11 -8 32 -15 47 -15 15 0 30 -4 33 -9 3
-5 26 -12 51 -15 25 -4 45 -11 45 -16 0 -4 26 -11 58 -14 82 -7 218 -25 283
-36 69 -12 226 -13 233 -1 3 5 53 12 111 16 58 4 105 11 105 16 0 5 22 9 48 9
26 0 53 5 59 11 6 6 38 13 72 16 33 3 61 10 61 14 0 5 23 9 50 9 28 0 67 7 87
15 50 21 290 21 317 0 11 -8 38 -15 61 -15 23 0 46 -5 52 -11 16 -16 285 -18
290 -1 3 6 17 12 32 12 43 0 81 22 81 48 0 20 -5 22 -54 22 -30 0 -57 -4 -61
-9 -10 -17 -128 -23 -210 -11 -142 21 -150 22 -164 34 -19 15 -334 15 -352 -1
-8 -6 -41 -13 -74 -16 -76 -5 -187 -27 -200 -38 -5 -5 -29 -9 -55 -9 -25 -1
-56 -7 -70 -15 -16 -9 -55 -14 -105 -15 -45 0 -86 -5 -92 -11 -7 -7 -42 -9
-99 -5 -221 14 -311 23 -337 34 -16 7 -42 12 -58 12 -16 0 -37 4 -47 10 -17 9
-89 27 -149 37 -18 3 -33 9 -33 14 0 5 -10 9 -22 9 -13 0 -35 6 -50 14 -15 8
-40 17 -57 21 -17 4 -31 11 -31 16 0 5 -15 9 -34 9 -19 0 -38 5 -41 10 -3 6
-14 10 -24 10 -10 0 -24 7 -32 16 -7 9 -35 25 -61 37 -26 11 -48 24 -48 29 0
4 -5 8 -12 8 -18 0 -88 33 -88 42 0 4 -7 8 -15 8 -8 0 -15 4 -15 10 0 5 -11
12 -25 16 -14 3 -25 10 -25 14 0 4 -11 11 -25 14 -14 4 -25 11 -25 16 0 6 -9
10 -20 10 -11 0 -20 4 -20 9 0 5 -14 12 -31 16 -17 4 -33 14 -36 22 -4 9 -17
13 -37 12 -17 -2 -45 5 -63 14 -18 9 -42 17 -53 17 -12 0 -30 5 -41 11 -27 14
-448 14 -462 0 -6 -6 -25 -11 -42 -11 -16 0 -39 -7 -49 -15 -11 -8 -28 -15
-39 -15 -10 0 -30 -9 -44 -20 -14 -11 -32 -20 -39 -20 -8 0 -14 -4 -14 -10 0
-5 -6 -10 -14 -10 -8 0 -39 -25 -70 -55 -30 -30 -60 -55 -66 -55 -5 0 -10 -6
-10 -14 0 -8 -11 -27 -23 -43 -13 -15 -32 -52 -42 -81 -11 -28 -22 -52 -26
-52 -4 0 -10 -11 -13 -25 -4 -14 -11 -25 -16 -25 -6 0 -10 -8 -10 -19 0 -10
-7 -24 -15 -31 -8 -7 -15 -20 -15 -29 0 -26 -30 -104 -47 -123 -8 -9 -14 -27
-12 -40 1 -13 -6 -41 -15 -63 -9 -22 -21 -49 -25 -60 -15 -36 -30 -118 -37
-203 -3 -45 -10 -82 -15 -82 -5 0 -9 -17 -9 -37 0 -29 -3 -34 -12 -25 -7 7
-22 12 -34 12 -12 0 -24 7 -28 15 -3 8 -16 15 -30 15 -14 0 -27 4 -30 9 -3 5
-21 12 -40 15 -19 4 -39 13 -45 20 -7 8 -21 12 -32 9 -11 -3 -27 1 -37 10 -9
8 -34 18 -54 22 -21 4 -38 11 -38 16 0 5 -14 9 -31 9 -17 0 -37 7 -45 15 -9 8
-26 15 -39 15 -29 0 -41 28 -19 45 16 11 16 13 -2 31 -11 10 -36 28 -56 39
-21 10 -40 25 -43 32 -7 20 7 133 16 133 5 0 9 18 9 40 0 42 17 90 32 90 5 0
8 17 7 38 -1 20 2 46 9 58 6 11 14 44 18 72 4 29 11 55 15 58 5 3 9 17 9 31 0
14 11 57 25 95 14 38 25 78 25 89 0 11 7 22 15 25 8 4 15 17 15 30 0 13 4 32
9 42 16 29 41 119 41 146 0 14 4 26 10 26 5 0 12 16 16 35 3 19 10 35 15 35 5
0 9 14 9 30 0 17 4 30 9 30 11 0 51 66 51 85 0 8 6 18 13 22 8 4 17 15 20 23
10 22 29 51 50 74 9 11 17 23 17 28 0 4 4 8 9 8 13 0 111 96 111 109 0 6 4 11
8 11 5 0 32 23 61 50 29 28 59 50 67 50 8 0 14 5 14 10 0 6 7 10 15 10 8 0 15
4 15 9 0 5 10 13 23 17 12 4 24 9 27 13 12 14 74 41 96 41 13 0 24 5 24 10 0
6 7 10 15 10 8 0 15 5 15 11 0 5 5 7 10 4 6 -3 10 0 10 8 0 8 -9 17 -20 20
-25 6 -100 -3 -100 -13 0 -4 -21 -10 -47 -13 -26 -3 -49 -10 -51 -16 -2 -6
-16 -11 -32 -11 -15 0 -52 -12 -82 -27 -52 -27 -65 -36 -93 -60 -7 -7 -17 -13
-22 -13 -4 0 -14 -9 -21 -20 -7 -12 -18 -19 -25 -18 -11 3 -157 -132 -157
-146 0 -3 -8 -14 -17 -24 -44 -45 -63 -74 -63 -92 0 -10 -9 -25 -20 -33 -12
-8 -20 -19 -18 -25 2 -5 -8 -20 -22 -33 -34 -32 -80 -95 -80 -108 0 -6 -4 -11
-9 -11 -5 0 -12 -14 -16 -30 -4 -17 -11 -30 -16 -30 -5 0 -9 -11 -9 -25 0 -14
-7 -28 -15 -31 -8 -4 -15 -19 -15 -34 0 -16 -4 -32 -10 -35 -5 -3 -10 -14 -10
-24 0 -10 -9 -26 -19 -35 -11 -10 -17 -25 -14 -33 4 -9 0 -21 -8 -27 -15 -13
-49 -72 -49 -87 0 -5 -11 -27 -25 -49 -14 -22 -25 -54 -25 -72 0 -18 -7 -42
-15 -52 -8 -11 -15 -35 -15 -53 0 -18 -4 -33 -9 -33 -5 0 -13 -14 -16 -32 -4
-18 -11 -39 -15 -48 -13 -25 -38 -92 -51 -135 -11 -38 -15 -47 -41 -97 -24
-48 -28 -58 -28 -72 0 -7 -7 -19 -15 -26 -8 -7 -15 -21 -15 -32 0 -17 -4 -19
-28 -13 -95 24 -248 14 -314 -21 -43 -23 -51 -19 -44 29 3 23 10 79 15 125 6
46 17 93 26 105 8 12 15 31 15 44 0 12 4 24 9 27 5 4 12 24 16 46 4 22 11 40
16 40 5 0 9 21 9 48 0 26 7 56 15 66 8 11 15 32 15 48 0 15 5 28 10 28 6 0 10
15 10 34 0 21 6 36 15 40 8 3 15 17 15 31 0 14 4 25 9 25 5 0 11 18 15 40 3
22 11 40 16 40 6 0 10 13 10 29 0 17 5 33 10 36 6 3 10 15 10 26 0 10 9 27 19
36 11 9 17 22 14 30 -3 8 4 21 16 29 12 9 21 26 21 40 0 13 5 24 10 24 6 0 10
15 10 34 0 21 6 36 15 40 8 3 15 12 15 21 0 9 11 26 25 39 14 13 25 30 25 38
0 8 10 30 23 49 13 19 26 42 30 52 3 9 11 17 17 17 5 0 10 7 10 16 0 34 78
127 175 209 26 22 52 45 59 50 6 6 21 18 34 27 13 9 50 41 82 72 32 31 61 56
64 56 3 0 17 11 32 25 15 14 35 25 45 25 11 0 19 4 19 10 0 5 16 12 35 16 19
3 38 10 41 15 3 5 16 9 30 9 14 0 27 7 30 15 4 8 15 15 25 15 10 0 19 5 19 10
0 6 13 10 28 10 16 0 37 7 48 15 10 8 36 15 57 15 20 0 37 4 37 9 0 5 17 12
37 16 21 4 41 12 45 18 4 6 26 10 51 8 29 -1 48 3 56 13 7 8 38 18 69 21 60 7
85 13 167 39 28 9 65 16 83 16 17 0 32 4 32 9 0 4 28 11 63 15 75 7 170 27
177 37 3 3 26 16 53 28 26 12 47 26 47 31 0 6 7 10 15 10 8 0 15 6 15 13 0 8
9 22 20 32 13 12 20 29 18 44 -2 15 4 31 12 37 12 10 14 47 13 215 -1 209 2
229 38 229 11 0 19 4 19 10 0 5 16 12 35 16 19 3 35 10 35 15 0 5 10 9 23 9
12 0 31 7 41 15 11 8 32 15 47 15 15 0 31 5 34 10 3 6 21 10 39 10 18 0 46 7
63 15 22 11 81 17 212 22 194 7 202 5 166 -43 -8 -10 -15 -29 -15 -41 0 -13
-4 -23 -10 -23 -5 0 -10 -11 -10 -24 0 -13 -7 -26 -15 -30 -10 -3 -15 -19 -15
-45 0 -22 -4 -43 -10 -46 -5 -3 -10 -33 -10 -66 0 -56 1 -59 25 -59 l25 0 0
-109 c0 -84 -3 -113 -15 -125 -8 -8 -15 -24 -15 -35 0 -12 -4 -21 -10 -21 -5
0 -10 -9 -10 -20 0 -38 59 -19 122 40 18 17 73 111 89 153 6 15 15 27 20 27 5
0 9 11 9 24 0 13 7 37 15 52 8 16 15 37 15 47 0 9 5 17 10 17 6 0 10 18 10 39
0 22 5 43 10 46 6 4 8 10 5 15 -3 5 -1 11 3 14 5 3 12 45 16 93 4 47 14 99 22
114 l14 28 92 -5 c51 -3 126 -10 166 -15z"/>
<path d="M3110 7732 c0 -5 -16 -25 -35 -45 -19 -20 -35 -41 -35 -46 0 -6 -6
-14 -12 -18 -17 -10 -38 -49 -38 -68 0 -8 -9 -20 -20 -27 -12 -8 -20 -24 -20
-40 0 -15 -4 -30 -10 -33 -5 -3 -10 -39 -10 -79 0 -70 1 -74 33 -102 47 -41
72 -54 108 -54 31 0 45 10 67 48 14 26 16 158 2 167 -5 3 -10 28 -10 55 0 27
5 52 10 55 6 3 10 27 10 53 0 27 7 57 16 70 25 36 15 66 -23 70 -18 2 -33 -1
-33 -6z"/>
<path d="M5822 7403 c-18 -39 -76 -103 -92 -103 -6 0 -10 -5 -10 -10 0 -10 -8
-22 -37 -55 -7 -7 -13 -22 -13 -33 0 -10 -7 -33 -16 -51 -14 -29 -14 -34 0
-56 9 -13 16 -30 16 -38 0 -16 66 -79 100 -95 25 -11 54 -15 101 -13 21 1 28
8 37 40 18 57 15 87 -13 131 -29 45 -33 116 -14 214 20 96 -23 146 -59 69z"/>
<path d="M2440 6843 c-13 -5 -39 -31 -70 -70 -6 -7 -10 -16 -10 -22 0 -5 -3
-11 -8 -13 -15 -6 -72 -86 -72 -101 0 -9 -4 -19 -10 -22 -5 -3 -10 -27 -10
-52 0 -37 5 -50 28 -70 15 -13 37 -26 50 -29 12 -4 22 -10 22 -14 0 -11 41
-20 65 -14 19 5 35 26 51 67 3 9 10 17 15 17 5 0 9 7 9 15 0 24 85 20 117 -5
32 -25 95 -27 119 -3 21 22 52 38 88 47 39 10 56 29 63 71 5 28 1 38 -18 55
-13 10 -30 19 -36 20 -7 0 -13 5 -13 10 0 6 -21 10 -48 10 -46 0 -72 12 -116
52 -11 10 -29 21 -40 24 -12 4 -23 10 -26 15 -7 10 -130 21 -150 12z"/>
</g>
</svg>
