<?xml version="1.0" standalone="no"?>
<!DOCTYPE svg PUBLIC "-//W3C//DTD SVG 20010904//EN"
 "http://www.w3.org/TR/2001/REC-SVG-20010904/DTD/svg10.dtd">
<svg version="1.0" xmlns="http://www.w3.org/2000/svg"
 width="879.000000pt" height="1079.000000pt" viewBox="0 0 879.000000 1079.000000"
 preserveAspectRatio="xMidYMid meet">
<metadata>
Created by potrace 1.16, written by Peter Selinger 2001-2019
</metadata>
<g transform="translate(0.000000,1079.000000) scale(0.100000,-0.100000)"
fill="#000000" stroke="none">
<path d="M6558 10127 c-14 -15 -25 -130 -33 -348 -1 -36 -7 -74 -13 -86 -11
-20 -48 -414 -77 -818 -41 -561 -46 -619 -57 -626 -6 -4 -13 -32 -16 -63 -5
-59 -14 -69 -32 -36 -9 16 -21 20 -66 20 -47 0 -57 3 -61 20 -4 16 -13 19 -54
18 -51 -1 -64 5 -64 25 0 7 -13 13 -30 15 -66 5 -95 14 -95 26 0 14 -42 26
-89 26 -15 0 -34 9 -44 20 -12 15 -29 20 -63 20 -37 0 -47 4 -51 20 -3 12 -14
20 -27 21 -61 3 -90 11 -100 25 -8 11 -36 18 -86 22 -51 5 -75 11 -75 20 0 20
-26 32 -72 32 -31 0 -43 4 -43 15 0 16 -43 31 -60 20 -20 -13 -70 5 -70 26 0
16 -7 19 -55 19 -44 0 -57 4 -62 18 -10 25 -23 32 -70 32 -32 0 -45 5 -53 20
-9 16 -19 20 -53 18 -37 -3 -42 0 -45 20 -3 19 -9 22 -47 22 -31 0 -47 -5 -53
-16 -6 -11 -17 -15 -31 -11 -14 3 -24 0 -28 -9 -3 -8 -18 -14 -33 -14 -15 0
-34 -7 -41 -16 -10 -12 -23 -14 -51 -10 -31 5 -39 3 -48 -15 -9 -16 -18 -19
-36 -15 -17 5 -26 2 -30 -9 -4 -8 -17 -15 -30 -15 -14 0 -27 -7 -30 -15 -7
-18 -54 -20 -55 -2 -1 6 0 20 0 30 1 9 -6 21 -16 25 -10 4 -18 14 -18 22 0 10
-13 16 -42 18 -29 2 -46 9 -53 21 -6 13 -26 21 -65 26 -37 4 -55 11 -55 20 0
9 -15 15 -47 17 -39 2 -47 6 -45 21 2 14 -5 17 -41 17 -35 0 -46 4 -50 19 -4
15 -18 20 -76 26 -53 5 -74 12 -81 25 -13 24 -172 39 -197 18 -9 -7 -24 -12
-34 -10 -9 2 -23 -6 -31 -16 -7 -11 -24 -19 -38 -18 -20 1 -26 -4 -28 -26 -2
-16 -7 -28 -12 -28 -5 0 -21 -11 -36 -25 -25 -24 -28 -34 -37 -142 -9 -105 -8
-117 7 -129 16 -11 17 -22 7 -120 -6 -59 -11 -113 -11 -121 0 -7 -9 -13 -20
-13 -11 0 -20 -7 -20 -15 0 -11 -9 -14 -32 -13 -22 2 -32 -1 -31 -9 2 -9 -9
-13 -32 -13 -24 0 -35 -5 -35 -15 0 -8 -6 -15 -14 -15 -8 0 -16 -7 -20 -15 -3
-9 -18 -15 -34 -15 -16 0 -35 -6 -41 -14 -7 -8 -20 -12 -31 -9 -12 3 -22 -2
-30 -16 -8 -16 -17 -20 -35 -15 -19 5 -25 2 -25 -10 0 -12 -9 -16 -34 -16 -19
0 -36 -5 -38 -11 -2 -5 -17 -12 -33 -13 -16 -2 -31 -9 -33 -15 -2 -6 -17 -11
-33 -11 -20 0 -29 -5 -29 -16 0 -11 -8 -15 -30 -12 -17 1 -34 -2 -38 -9 -4 -6
-21 -13 -37 -15 -17 -2 -29 -8 -28 -15 2 -7 -6 -13 -16 -13 -10 0 -21 -7 -25
-15 -3 -8 -16 -15 -30 -15 -13 0 -26 -7 -30 -15 -3 -9 -18 -15 -36 -15 -16 0
-30 -4 -30 -10 0 -5 -11 -10 -24 -10 -14 0 -31 -7 -40 -15 -8 -8 -26 -15 -41
-15 -14 0 -28 -7 -31 -15 -4 -8 -18 -15 -34 -15 -15 0 -30 -6 -33 -13 -3 -9
-16 -12 -36 -9 -24 3 -31 0 -31 -12 0 -11 -9 -16 -30 -16 -21 0 -30 -5 -30
-16 0 -13 -7 -15 -27 -11 -30 6 -64 -15 -76 -45 -5 -14 -13 -16 -37 -12 -23 5
-30 3 -30 -10 0 -11 -9 -16 -29 -16 -16 0 -34 -6 -40 -14 -6 -7 -22 -11 -35
-9 -17 4 -25 0 -29 -16 -3 -12 -12 -21 -21 -21 -9 0 -16 -7 -16 -16 0 -12 -7
-14 -30 -9 -23 5 -30 3 -30 -9 0 -11 -9 -16 -28 -16 -18 0 -39 -11 -58 -29
-22 -22 -35 -28 -55 -24 -18 3 -28 0 -32 -11 -4 -10 -18 -16 -37 -16 -17 0
-30 -5 -30 -12 -1 -19 -49 -51 -65 -44 -8 3 -21 -1 -29 -9 -8 -8 -25 -15 -39
-15 -15 0 -34 -13 -52 -34 -23 -28 -32 -33 -47 -25 -19 10 -38 5 -38 -12 0
-19 -42 -51 -61 -46 -11 3 -26 -1 -33 -9 -8 -8 -26 -14 -40 -14 -16 0 -26 -6
-26 -14 0 -7 -9 -16 -20 -19 -26 -7 -29 -67 -4 -67 13 0 15 -7 10 -34 -5 -28
-3 -34 13 -39 15 -3 18 -10 14 -27 -4 -15 0 -26 11 -32 14 -8 16 -18 11 -48
-5 -31 -3 -42 13 -56 17 -14 18 -22 10 -50 -10 -37 -5 -54 18 -54 9 0 14 -11
14 -30 0 -16 5 -30 10 -30 6 0 10 -22 10 -50 0 -39 3 -50 16 -50 12 0 15 -6
10 -26 -5 -19 -2 -30 11 -39 9 -7 17 -23 18 -36 0 -13 4 -25 9 -26 5 -1 16
-16 24 -34 9 -17 23 -34 32 -36 9 -2 22 -19 29 -36 8 -18 33 -50 56 -73 23
-22 44 -48 48 -57 4 -11 17 -17 36 -17 21 0 28 -5 27 -17 -1 -12 7 -19 25 -21
17 -2 29 -11 32 -23 4 -15 12 -19 33 -17 20 2 29 -2 29 -12 0 -9 11 -16 27
-18 20 -2 28 -9 28 -23 0 -14 9 -21 29 -25 17 -4 32 -13 35 -21 4 -9 13 -12
26 -8 15 5 22 0 30 -19 7 -19 17 -26 35 -26 14 0 25 -5 25 -11 0 -5 13 -15 29
-20 16 -6 32 -17 35 -25 3 -8 17 -14 32 -14 17 0 28 -6 31 -20 3 -11 13 -20
22 -20 9 0 24 -9 34 -20 9 -11 26 -20 37 -20 11 0 23 -7 26 -15 4 -8 17 -15
30 -15 17 0 27 -8 34 -25 9 -23 14 -25 46 -19 31 6 36 4 41 -15 3 -14 16 -24
34 -28 15 -3 30 -11 33 -19 3 -8 16 -14 30 -14 15 0 25 -7 29 -20 4 -16 14
-20 50 -20 37 0 45 -3 43 -17 -1 -14 8 -19 41 -21 30 -2 46 -9 53 -23 8 -15
21 -19 61 -19 42 0 51 -3 58 -21 6 -18 18 -23 61 -26 39 -3 58 -10 68 -24 10
-15 25 -19 65 -19 67 0 97 -9 91 -25 -4 -10 14 -15 70 -19 42 -3 110 -9 152
-12 62 -5 77 -9 81 -24 5 -19 31 -30 71 -30 12 0 22 -6 22 -14 0 -10 -11 -11
-52 -5 -42 7 -55 6 -64 -6 -6 -8 -21 -15 -33 -15 -25 0 -83 -39 -75 -52 3 -4
-1 -8 -8 -8 -17 0 -53 -39 -62 -67 -4 -13 -14 -23 -22 -23 -10 0 -14 -13 -14
-46 0 -37 -4 -47 -20 -51 -13 -3 -20 -14 -20 -28 0 -12 -9 -29 -20 -36 -16
-11 -21 -30 -26 -100 -6 -74 -4 -87 10 -92 9 -4 16 -13 16 -22 0 -8 7 -15 16
-15 10 0 15 -8 14 -22 -4 -41 0 -48 25 -48 18 0 25 -5 25 -20 0 -28 60 -28 77
-1 11 17 16 18 43 8 30 -11 34 -10 61 21 31 34 49 41 49 18 0 -8 11 -17 25
-20 14 -4 35 -16 46 -27 18 -18 19 -28 13 -90 -5 -56 -4 -72 8 -82 14 -11 14
-29 2 -162 -13 -137 -13 -151 2 -162 14 -11 15 -24 5 -120 -6 -59 -14 -127
-17 -151 -6 -38 -4 -44 15 -49 18 -4 21 -11 17 -37 -3 -17 -11 -84 -17 -149
-10 -95 -10 -122 1 -142 12 -23 9 -153 -7 -258 -5 -31 -3 -37 12 -37 16 0 17
-7 12 -67 -20 -221 -20 -252 -3 -259 17 -7 20 -34 10 -96 -5 -30 -12 -38 -33
-43 -15 -3 -49 -26 -76 -50 -28 -25 -56 -45 -62 -45 -7 0 -13 -6 -13 -12 0 -7
-14 -22 -30 -33 -16 -11 -30 -23 -30 -27 0 -5 -7 -8 -15 -8 -8 0 -20 -9 -27
-20 -8 -12 -24 -20 -40 -20 -18 0 -28 -5 -28 -15 0 -9 -6 -12 -15 -9 -10 4
-15 0 -15 -15 0 -12 -6 -21 -15 -21 -8 0 -15 -7 -15 -15 0 -8 -7 -15 -15 -15
-9 0 -21 -5 -28 -11 -7 -5 -34 -30 -61 -55 -29 -26 -59 -44 -73 -44 -13 0 -26
-6 -29 -14 -3 -8 -15 -16 -26 -19 -11 -3 -17 -10 -13 -16 3 -6 -1 -11 -10 -11
-8 0 -18 -7 -21 -15 -4 -8 -12 -15 -20 -15 -8 0 -14 -4 -14 -8 0 -15 -88 -72
-110 -72 -13 0 -24 -8 -27 -20 -3 -11 -8 -18 -12 -15 -4 2 -22 -9 -40 -25 -18
-17 -36 -30 -42 -30 -5 0 -9 -7 -9 -15 0 -8 -5 -15 -10 -15 -6 0 -35 -18 -64
-40 -29 -22 -59 -40 -66 -40 -7 0 -32 -17 -55 -37 -154 -138 -198 -173 -222
-173 -10 0 -28 -11 -40 -23 -12 -13 -50 -38 -84 -57 -34 -18 -85 -53 -114 -79
-29 -25 -81 -69 -116 -98 -35 -28 -84 -70 -109 -93 -25 -23 -72 -58 -105 -78
-142 -85 -205 -142 -205 -186 0 -31 25 -56 54 -56 24 0 106 54 106 70 0 5 21
21 48 36 70 41 144 103 267 224 63 61 123 112 138 115 15 4 27 12 27 19 0 13
37 39 164 115 52 31 122 82 157 114 67 60 143 117 218 165 24 15 82 57 127 94
46 38 88 68 92 68 5 0 21 14 37 30 16 17 35 30 42 30 7 0 13 4 13 9 0 6 28 30
63 55 34 25 71 54 81 65 11 12 28 21 38 21 10 0 21 7 24 15 4 8 10 15 15 15 6
0 23 13 39 30 16 16 32 30 36 30 11 0 88 63 113 93 13 16 30 26 38 23 19 -8
73 33 66 50 -4 10 0 12 11 8 10 -4 18 0 22 10 3 9 10 16 14 16 5 0 24 14 42
30 l33 31 3 -43 c2 -24 10 -48 19 -55 12 -10 14 -25 9 -80 -18 -192 -18 -205
-6 -213 11 -7 11 -37 0 -161 -12 -144 -12 -153 5 -165 17 -13 17 -21 6 -116
-6 -57 -14 -118 -18 -136 -5 -28 -2 -34 16 -39 11 -3 21 -12 21 -19 0 -8 5
-14 10 -14 6 0 10 -7 10 -15 0 -9 7 -18 15 -21 8 -4 15 -12 15 -20 0 -10 12
-14 40 -14 29 0 42 -5 50 -20 6 -11 19 -20 30 -20 11 0 24 -9 30 -21 8 -14 19
-19 38 -17 21 2 27 -1 27 -17 0 -14 8 -21 28 -23 15 -2 27 -9 27 -17 0 -16 22
-25 62 -25 21 0 31 -6 35 -20 4 -13 14 -20 30 -20 16 0 27 -7 30 -20 4 -14 13
-19 38 -18 38 1 55 -7 55 -29 0 -11 7 -14 26 -10 18 3 27 0 32 -12 9 -25 23
-31 78 -31 43 0 53 -3 57 -20 4 -17 14 -20 65 -20 33 0 106 -5 162 -11 72 -7
106 -7 113 0 6 6 30 11 54 11 30 0 45 5 50 16 4 11 13 13 34 9 21 -5 29 -3 29
7 0 15 27 41 53 51 9 3 17 11 17 17 0 5 9 10 20 10 11 0 20 7 20 15 0 9 7 18
15 21 8 4 15 12 15 20 0 8 3 13 8 13 26 -4 32 4 32 45 0 34 4 45 19 49 15 4
20 18 25 78 4 41 9 95 12 121 5 39 3 48 -13 56 -17 10 -18 18 -11 104 18 205
111 1239 148 1648 22 239 40 440 40 446 0 6 30 26 67 45 41 21 100 65 154 117
47 45 91 82 96 82 6 0 26 13 44 30 61 54 227 161 278 180 56 20 72 32 163 115
78 71 106 86 119 62 6 -9 18 -17 27 -17 10 0 25 -9 35 -20 9 -11 23 -20 29
-20 7 0 19 -9 26 -21 8 -13 19 -18 31 -14 11 3 30 -3 47 -17 37 -30 61 -44
102 -62 17 -8 32 -20 32 -25 0 -6 6 -11 13 -11 12 0 47 -21 237 -146 58 -38
129 -82 158 -99 108 -62 338 -189 375 -207 20 -10 37 -25 37 -33 0 -10 10 -15
29 -15 16 0 31 -6 34 -14 3 -8 19 -17 35 -21 16 -3 53 -22 83 -42 30 -19 74
-46 99 -60 25 -13 68 -40 95 -59 28 -19 76 -49 108 -65 66 -34 176 -107 225
-150 18 -16 37 -29 42 -29 6 0 10 -7 10 -15 0 -17 25 -20 35 -5 4 6 19 9 33 8
35 -4 37 23 2 32 -14 4 -61 30 -105 59 -44 28 -100 60 -124 72 -24 12 -78 42
-120 69 -42 26 -97 59 -123 74 -32 18 -48 33 -48 47 0 11 -7 22 -15 25 -8 4
-15 12 -15 20 0 8 -10 14 -24 14 -16 0 -27 7 -31 20 -4 14 -15 20 -36 20 -23
0 -29 4 -29 21 0 13 -6 20 -17 18 -33 -3 -41 1 -46 21 -3 14 -14 20 -31 20
-16 0 -26 6 -26 15 0 9 -10 15 -26 15 -17 0 -28 6 -31 20 -5 20 -13 24 -44 21
-9 -1 -19 7 -22 19 -3 12 -13 20 -26 20 -11 0 -25 9 -31 21 -9 16 -17 19 -41
14 -24 -6 -35 -2 -54 19 -13 14 -31 26 -40 26 -8 0 -15 7 -15 15 0 9 -9 15
-25 15 -14 0 -29 8 -35 20 -6 11 -21 20 -34 20 -15 0 -26 7 -29 20 -4 15 -14
20 -36 20 -24 0 -31 4 -31 19 0 14 -8 21 -27 23 -16 2 -27 8 -26 16 2 7 -8 12
-26 12 -23 0 -30 5 -33 23 -2 18 -8 22 -36 19 -25 -2 -32 2 -32 17 0 14 -10
20 -42 24 -23 3 -45 13 -50 21 -5 9 -18 16 -28 16 -11 0 -24 9 -30 20 -6 11
-19 20 -28 20 -10 0 -25 9 -35 20 -9 11 -25 20 -36 20 -10 0 -21 9 -24 20 -3
12 -14 20 -26 20 -12 0 -24 7 -27 15 -4 8 -17 15 -30 15 -13 0 -28 9 -34 20
-6 11 -21 20 -34 20 -28 0 -37 25 -30 84 2 23 16 169 30 326 13 156 29 302 33
325 5 22 12 81 16 130 3 50 8 108 10 130 2 22 7 78 10 125 9 129 15 160 31
160 8 0 14 7 14 15 0 8 6 15 13 15 7 0 24 13 37 30 14 16 33 29 43 30 9 0 17
7 17 15 0 10 10 15 30 15 20 0 30 5 30 15 0 8 7 15 14 15 8 0 36 20 61 44 35
32 52 42 70 38 20 -3 25 1 31 24 6 27 35 64 49 64 3 0 19 13 35 30 16 17 34
30 40 30 5 0 10 7 10 15 0 8 9 15 20 15 16 0 20 7 20 31 0 22 5 32 20 36 11 3
20 9 20 14 0 5 7 9 15 9 8 0 15 7 15 15 0 8 9 15 20 15 16 0 20 7 20 30 0 24
4 30 21 30 11 0 18 4 14 9 -3 6 4 15 15 21 15 8 20 21 20 48 0 26 6 41 20 50
11 7 20 23 20 36 0 15 7 26 20 29 15 4 20 14 20 42 0 37 29 74 58 75 7 0 12
14 12 35 0 23 7 41 20 52 12 11 20 30 20 50 0 22 7 37 22 47 20 14 23 30 34
148 11 121 11 135 -4 152 -13 13 -16 32 -14 72 3 45 1 54 -13 54 -13 0 -15 7
-9 35 5 28 3 35 -10 35 -9 0 -16 6 -16 14 0 7 -7 19 -15 26 -8 7 -15 23 -15
35 0 14 -17 40 -40 64 -22 22 -40 45 -40 51 0 6 -7 13 -15 16 -8 4 -15 11 -15
18 0 7 -13 23 -30 36 -16 14 -29 30 -30 37 0 7 -15 16 -32 21 -18 5 -32 14
-31 20 2 6 -11 21 -27 34 -17 12 -30 28 -30 35 0 7 -7 13 -15 13 -8 0 -15 9
-15 20 0 15 -7 20 -25 20 -14 0 -28 7 -31 15 -4 8 -12 15 -19 15 -7 0 -12 8
-11 18 1 12 -7 18 -26 20 -16 2 -28 9 -28 18 0 8 -13 17 -30 21 -17 3 -35 14
-41 24 -5 11 -21 19 -34 19 -22 0 -25 4 -25 36 0 25 7 43 23 58 21 20 24 40
50 351 34 403 36 415 53 415 18 0 22 33 50 390 3 36 7 80 10 98 4 29 3 32 -21
32 -25 0 -26 2 -21 43 7 49 23 229 33 367 14 203 1 287 -39 247z m-1738 -1542
c7 -8 21 -15 32 -15 11 0 31 -9 45 -20 16 -12 41 -20 65 -20 23 0 50 -8 66
-20 15 -11 49 -24 75 -29 27 -5 54 -14 60 -20 6 -6 27 -11 48 -11 22 0 50 -10
73 -25 20 -14 50 -25 67 -25 17 0 40 -5 52 -12 31 -17 89 -38 108 -38 9 0 22
-6 28 -14 6 -7 35 -16 63 -19 30 -4 55 -13 60 -21 5 -8 34 -20 66 -26 31 -7
69 -19 84 -26 15 -8 50 -19 78 -25 27 -6 50 -14 50 -18 0 -11 63 -31 97 -31
18 0 33 -6 37 -15 3 -10 19 -15 43 -15 21 0 52 -9 70 -19 17 -11 48 -23 67
-27 20 -3 40 -12 44 -19 4 -6 37 -26 75 -44 37 -18 67 -36 67 -41 0 -5 17 -12
38 -16 23 -4 50 -20 70 -40 18 -19 37 -34 43 -34 5 0 42 -31 81 -70 39 -38 75
-70 80 -70 4 0 8 -7 8 -15 0 -9 7 -18 15 -21 8 -4 15 -10 15 -15 0 -12 45 -59
57 -59 11 0 53 -46 53 -58 0 -4 14 -28 32 -52 18 -23 33 -52 33 -63 1 -12 7
-23 13 -25 7 -2 12 -16 12 -31 0 -15 3 -31 7 -35 17 -17 35 -115 33 -181 -2
-95 -17 -199 -29 -203 -6 -2 -13 -20 -17 -40 -4 -20 -15 -45 -25 -55 -11 -10
-19 -26 -19 -36 0 -10 -9 -26 -20 -36 -11 -10 -20 -22 -20 -27 0 -5 -15 -24
-32 -43 -18 -18 -51 -51 -73 -74 -22 -22 -44 -41 -49 -41 -5 0 -30 -21 -55
-47 -42 -45 -63 -61 -101 -80 -8 -4 -21 -13 -28 -20 -7 -7 -20 -13 -28 -13 -8
0 -14 -4 -14 -10 0 -5 -8 -10 -18 -10 -11 0 -27 -9 -37 -20 -10 -11 -24 -20
-32 -20 -7 0 -13 -4 -13 -10 0 -5 -7 -10 -15 -10 -8 0 -15 -4 -15 -9 0 -5 -21
-20 -47 -33 -27 -13 -52 -29 -56 -36 -5 -7 -12 -10 -16 -7 -5 2 -14 -2 -21
-10 -7 -8 -20 -15 -30 -15 -10 0 -23 -7 -30 -15 -7 -8 -23 -15 -35 -15 -13 0
-25 -7 -29 -15 -3 -9 -18 -15 -34 -15 -16 0 -35 -7 -42 -15 -7 -9 -20 -13 -28
-10 -8 3 -22 -1 -32 -10 -9 -8 -48 -23 -86 -32 -38 -9 -70 -20 -72 -25 -2 -4
-23 -8 -46 -8 -23 0 -46 -4 -51 -9 -6 -5 -23 -11 -40 -12 -16 -2 -39 -9 -50
-16 -11 -7 -32 -13 -47 -13 -15 0 -29 -4 -32 -8 -3 -5 -22 -9 -42 -10 -20 -1
-43 -7 -52 -14 -9 -8 -35 -12 -69 -10 -39 3 -54 0 -58 -11 -4 -10 -24 -14 -67
-15 -33 -1 -66 -6 -71 -11 -6 -6 -36 -11 -67 -11 -31 0 -60 -3 -63 -7 -4 -3
-33 -8 -64 -9 -31 -2 -59 -7 -62 -12 -7 -11 -183 -24 -299 -22 -46 1 -89 -3
-96 -9 -19 -16 -259 -22 -384 -10 -112 10 -376 23 -402 19 -46 -7 -209 3 -235
15 -16 7 -50 16 -75 19 -120 14 -186 28 -196 41 -6 9 -40 16 -90 21 -50 4 -86
12 -98 23 -10 9 -46 21 -80 27 -33 6 -86 21 -116 33 -30 11 -62 21 -71 21 -9
0 -22 7 -29 15 -7 8 -34 17 -60 21 -27 4 -51 13 -54 20 -3 8 -17 14 -31 14
-14 0 -34 9 -44 19 -11 11 -41 22 -70 26 -31 4 -56 14 -64 24 -6 10 -29 21
-51 24 -21 3 -46 13 -56 22 -9 8 -24 15 -32 15 -9 0 -21 6 -27 14 -7 8 -24 17
-39 21 -15 4 -35 15 -45 26 -10 10 -24 19 -32 19 -8 0 -15 5 -15 11 0 5 -13
15 -30 20 -16 6 -30 15 -30 20 0 5 -6 9 -14 9 -7 0 -30 14 -51 30 -21 17 -43
30 -50 30 -7 0 -18 7 -25 15 -7 8 -20 15 -29 15 -9 0 -22 9 -29 20 -7 11 -21
20 -32 20 -11 0 -20 4 -20 10 0 5 -15 16 -34 24 -18 8 -37 19 -40 25 -4 6 -18
11 -31 11 -12 0 -25 6 -28 14 -3 8 -17 20 -31 28 -75 40 -161 92 -164 100 -2
4 -10 8 -17 8 -7 0 -27 11 -43 25 -17 14 -34 25 -40 25 -5 0 -15 7 -22 15 -7
8 -23 15 -35 15 -14 0 -25 7 -28 20 -3 11 -14 20 -25 20 -11 0 -25 7 -32 15
-7 8 -19 15 -26 15 -8 0 -22 9 -31 20 -10 11 -27 20 -39 20 -13 0 -24 8 -27
19 -3 12 -15 21 -33 23 -16 2 -29 7 -29 12 0 12 85 64 106 65 9 1 20 8 23 17
4 9 13 14 21 10 8 -3 15 -1 15 5 0 5 12 14 27 19 38 14 75 30 93 41 8 5 23 12
33 15 9 4 17 10 17 15 0 5 14 9 30 9 17 0 30 4 30 9 0 11 75 51 94 51 8 0 16
7 20 15 3 8 17 15 30 15 14 0 29 7 34 16 5 9 12 16 15 15 13 -1 76 29 82 39 3
5 14 10 24 10 24 0 81 29 81 41 0 5 4 9 9 9 5 0 22 5 38 12 15 6 37 13 47 15
11 2 27 10 36 18 9 8 26 15 37 15 11 0 26 7 33 15 7 9 15 13 17 11 5 -5 19 2
131 57 30 15 62 27 73 27 10 0 19 5 19 10 0 6 6 10 14 10 8 0 36 11 63 24 26
14 60 28 76 31 15 4 30 11 33 16 3 5 18 9 34 9 15 0 30 7 34 15 3 8 16 15 30
15 13 0 27 7 30 16 4 10 14 14 26 11 11 -3 26 3 36 14 9 10 25 19 36 19 10 0
26 4 36 10 44 24 139 64 157 66 10 1 21 7 23 13 2 6 9 11 16 11 7 0 27 7 44
16 18 8 36 13 41 10 5 -4 12 -2 16 4 10 16 86 50 112 50 14 0 23 6 23 15 0 10
10 15 27 15 14 0 34 7 44 16 30 27 50 11 48 -38 -1 -24 1 -54 5 -68 7 -26 -16
-62 -46 -72 -9 -3 -13 -26 -12 -78 0 -60 3 -75 20 -86 10 -7 24 -18 30 -23 44
-37 131 -64 201 -63 41 1 88 -20 134 -61 10 -8 30 -18 45 -21 28 -7 74 -38 74
-50 0 -3 -9 -6 -19 -6 -11 0 -34 -8 -53 -17 -61 -31 -68 -33 -87 -33 -10 0
-21 -7 -25 -15 -3 -8 -17 -15 -31 -15 -14 0 -33 -4 -43 -9 -9 -5 -37 -17 -62
-26 -25 -10 -59 -24 -77 -31 -17 -8 -40 -14 -51 -14 -12 0 -24 -4 -27 -10 -3
-5 -17 -10 -29 -10 -13 0 -29 -7 -36 -15 -7 -8 -25 -15 -40 -15 -16 0 -30 -5
-32 -11 -2 -6 -26 -12 -54 -13 -28 -2 -57 -6 -64 -11 -8 -5 -45 -10 -84 -12
-39 -2 -109 -8 -156 -14 -47 -5 -114 -12 -150 -15 -36 -3 -72 -8 -80 -11 -8
-3 -51 -8 -95 -9 -95 -4 -109 -15 -102 -84 6 -59 27 -142 38 -154 5 -6 9 -21
9 -34 0 -13 7 -30 15 -38 8 -9 15 -26 15 -40 0 -13 5 -24 10 -24 6 0 10 -9 10
-19 0 -11 6 -26 13 -33 15 -18 34 -47 46 -73 5 -11 38 -49 74 -85 75 -75 96
-94 120 -103 9 -3 17 -13 17 -22 0 -8 7 -15 15 -15 12 0 71 -34 101 -59 6 -5
21 -12 35 -16 13 -4 30 -16 37 -26 7 -11 19 -19 26 -19 8 0 19 -7 26 -15 7 -8
21 -15 31 -15 10 0 23 -8 28 -19 6 -11 26 -21 49 -25 22 -3 45 -12 51 -20 6
-8 28 -17 49 -21 20 -3 47 -13 59 -21 13 -8 44 -17 70 -20 27 -4 53 -12 59
-20 5 -7 48 -19 95 -28 46 -8 98 -21 114 -29 17 -8 81 -20 143 -26 62 -6 121
-15 131 -20 25 -14 398 -24 406 -11 3 5 63 7 153 3 81 -3 158 -5 172 -4 177 8
224 12 229 19 3 5 36 9 72 9 37 0 81 5 98 13 17 7 47 10 66 7 21 -4 50 0 71 9
20 8 42 13 50 10 7 -3 37 2 65 10 28 9 62 13 75 10 17 -5 24 -2 24 9 0 15 16
20 58 16 13 -1 29 2 35 7 7 6 31 13 54 17 24 4 45 11 49 16 3 5 25 9 49 9 30
0 45 5 49 16 4 12 13 14 31 10 18 -5 27 -2 31 9 4 8 16 15 28 15 11 0 30 7 40
15 11 8 29 12 42 9 15 -4 29 1 43 15 12 12 31 21 44 21 13 0 27 3 31 7 4 4 19
9 34 11 14 2 33 9 41 15 8 7 22 11 31 9 10 -2 38 11 63 28 25 16 47 30 50 30
3 0 23 16 44 36 21 19 52 41 68 49 35 17 68 37 75 46 3 4 32 27 65 51 80 59
115 92 115 109 0 8 16 27 35 43 19 16 35 37 35 46 0 9 9 27 20 40 11 12 22 31
25 41 4 11 10 19 15 19 4 0 11 19 15 43 4 23 13 56 20 72 26 63 36 113 39 200
2 85 -3 115 -35 177 -5 10 -9 29 -9 42 0 13 -3 26 -7 28 -14 6 -103 116 -103
127 0 6 -7 11 -15 11 -8 0 -15 6 -15 13 0 11 -43 42 -82 59 -10 4 -18 14 -18
23 0 8 -8 15 -18 15 -10 0 -25 8 -34 18 -25 27 -61 52 -75 52 -7 0 -17 9 -23
20 -6 11 -19 20 -30 20 -11 0 -24 9 -30 20 -6 11 -15 20 -21 20 -19 0 -124 53
-132 67 -4 7 -19 13 -33 13 -14 0 -37 9 -51 20 -14 11 -34 20 -45 20 -10 0
-28 8 -39 19 -12 11 -41 21 -71 23 -32 4 -56 12 -64 22 -6 10 -35 20 -64 25
-29 5 -55 13 -59 18 -7 11 -50 19 -156 29 -38 4 -72 10 -75 13 -19 23 -78 33
-307 52 -190 16 -258 19 -261 10 -2 -6 -27 -11 -61 -11 -49 0 -61 -4 -89 -29
-17 -17 -32 -35 -32 -41 0 -20 -111 -140 -129 -140 -6 0 -11 -6 -11 -12 -1
-13 -73 -68 -90 -68 -5 0 -13 -6 -17 -13 -11 -18 -73 -60 -73 -50 0 4 -5 0
-11 -9 -5 -10 -16 -18 -24 -18 -22 0 -135 -62 -168 -92 -16 -14 -35 -24 -42
-22 -7 3 -28 -4 -46 -16 -19 -11 -46 -26 -61 -32 -16 -7 -28 -16 -28 -20 0 -4
-5 -8 -12 -8 -6 0 -20 -8 -31 -17 -19 -18 -20 -17 -13 22 4 22 13 54 21 70 7
17 18 56 26 88 7 32 20 62 28 67 16 8 113 -8 126 -22 12 -11 148 3 192 20 44
18 53 33 53 91 0 19 7 42 16 52 9 10 19 38 21 63 5 40 2 49 -23 76 -16 16 -37
30 -46 30 -10 0 -26 8 -37 19 -10 10 -29 21 -43 24 -47 12 -116 47 -122 62 -3
8 -17 15 -31 15 -14 0 -25 5 -25 10 0 6 -11 16 -26 22 l-25 12 37 18 c21 10
47 18 59 18 12 0 30 7 41 15 10 8 31 15 46 15 15 0 30 5 33 10 3 6 19 10 35
10 16 0 31 4 35 9 3 5 20 12 38 16 42 9 95 25 134 42 17 7 41 13 52 13 12 0
29 4 39 9 29 14 86 33 117 39 17 2 32 8 35 11 6 8 68 29 91 30 9 1 22 -6 29
-14z m280 -456 c85 -6 159 -15 165 -20 5 -5 26 -9 46 -9 21 0 39 -5 41 -10 3
-11 160 -40 214 -40 17 0 37 -7 44 -15 6 -7 33 -17 58 -21 26 -4 58 -15 71
-25 13 -11 38 -19 55 -19 17 0 45 -9 61 -20 17 -11 44 -20 61 -20 23 0 33 -5
37 -20 3 -14 17 -21 46 -26 22 -4 46 -13 52 -20 6 -8 19 -14 28 -14 9 0 22 -9
29 -20 7 -11 23 -20 36 -20 12 0 31 -9 42 -21 10 -12 36 -30 57 -40 20 -11 37
-24 37 -29 0 -5 21 -21 48 -34 26 -13 66 -42 89 -63 23 -21 61 -54 84 -73 22
-19 45 -44 50 -55 5 -11 13 -27 17 -35 24 -42 32 -61 32 -77 0 -9 7 -24 15
-33 12 -14 13 -34 3 -140 -6 -69 -16 -129 -22 -135 -13 -12 -36 -74 -36 -98 0
-22 -42 -86 -57 -87 -7 0 -13 -7 -13 -16 0 -39 -181 -224 -219 -224 -7 0 -14
-7 -17 -15 -4 -8 -12 -15 -19 -15 -7 0 -15 -7 -19 -15 -3 -8 -12 -15 -19 -15
-8 0 -20 -7 -27 -15 -7 -8 -21 -15 -31 -15 -11 0 -19 -4 -19 -10 0 -5 -7 -10
-16 -10 -9 0 -18 -8 -21 -18 -4 -18 -44 -38 -118 -62 -22 -7 -52 -19 -67 -26
-14 -8 -38 -14 -51 -14 -14 0 -29 -4 -32 -10 -3 -5 -17 -10 -29 -10 -13 0 -29
-7 -36 -15 -7 -9 -19 -14 -26 -11 -8 3 -26 -1 -41 -9 -16 -7 -55 -21 -88 -30
-33 -9 -68 -20 -77 -26 -10 -5 -33 -9 -51 -9 -18 0 -37 -4 -43 -10 -10 -10
-78 -27 -149 -36 -22 -3 -44 -11 -50 -17 -5 -7 -36 -12 -67 -12 -32 0 -58 -3
-58 -7 0 -5 -25 -8 -56 -8 -30 0 -64 -5 -75 -10 -11 -6 -54 -13 -97 -16 -234
-15 -257 -15 -282 1 -14 8 -58 31 -98 51 -63 32 -85 37 -163 42 -81 4 -93 3
-119 -16 -15 -12 -40 -24 -54 -28 -15 -3 -41 -20 -59 -38 -25 -24 -42 -31 -77
-33 -53 -2 -292 25 -336 38 -17 5 -44 9 -60 9 -16 0 -38 7 -48 15 -11 8 -36
15 -56 15 -34 0 -75 10 -125 30 -11 4 -33 13 -48 19 -15 6 -38 11 -51 11 -13
0 -29 7 -36 15 -7 8 -23 15 -36 15 -12 0 -26 5 -29 10 -3 6 -14 10 -24 10 -10
0 -24 7 -31 15 -7 8 -22 15 -35 15 -12 0 -32 9 -45 20 -13 11 -28 20 -35 20
-7 0 -20 9 -30 20 -10 11 -23 20 -29 20 -19 0 -230 144 -268 182 -15 15 -31
28 -36 28 -12 0 -92 105 -92 120 0 6 -5 16 -10 23 -44 52 -50 62 -44 79 3 11
-1 20 -11 24 -9 4 -14 12 -11 19 2 7 -2 25 -10 41 -9 16 -17 44 -18 61 -2 18
-9 39 -16 48 -23 28 -4 48 39 42 23 -3 50 0 63 8 14 6 78 15 144 19 139 9 182
13 196 22 5 3 39 6 75 5 42 0 72 4 85 14 13 8 32 12 50 8 19 -4 35 0 47 11 10
9 22 16 27 14 14 -4 134 35 134 44 0 4 16 8 35 8 19 0 35 4 35 9 0 5 13 12 30
16 16 4 32 11 35 16 4 5 17 9 29 9 13 0 29 7 36 15 7 8 27 15 46 15 18 0 36 5
39 10 3 6 14 10 24 10 10 0 24 7 31 15 7 8 23 15 36 15 13 0 24 4 24 10 0 5
12 13 28 16 15 4 43 16 62 27 19 11 55 31 80 44 61 33 79 44 121 76 20 15 43
27 50 28 8 0 28 9 44 20 17 10 51 29 77 41 27 13 48 29 48 36 0 7 12 12 29 12
16 0 31 6 34 13 3 7 23 19 45 25 22 7 45 19 52 27 7 8 19 15 26 15 8 0 14 5
14 10 0 6 6 10 13 10 6 0 23 12 37 27 14 14 46 39 73 55 26 17 47 33 47 38 0
11 56 67 87 87 12 8 23 23 23 32 0 9 12 28 25 44 18 20 34 27 62 28 21 0 47 4
58 9 11 5 38 7 60 5 22 -2 110 -9 195 -16z m-1183 -186 c4 -9 1 -19 -5 -21 -7
-2 -12 -21 -12 -42 0 -21 -6 -45 -13 -52 -7 -7 -19 -47 -27 -88 -16 -94 -43
-125 -106 -124 -28 1 -48 8 -62 22 -12 12 -29 22 -37 22 -8 0 -15 9 -15 19 0
13 9 21 30 26 16 4 34 4 38 1 5 -3 22 5 36 18 24 20 28 33 35 99 8 85 32 122
86 130 17 2 34 5 38 6 4 0 11 -7 14 -16z m-2725 -1009 c4 -7 19 -15 33 -18 14
-4 34 -14 45 -24 11 -9 29 -25 40 -34 11 -10 29 -18 40 -18 10 0 24 -9 30 -20
6 -11 20 -20 31 -20 11 0 22 -6 25 -14 3 -8 19 -18 35 -21 16 -4 29 -11 29
-16 0 -6 13 -15 29 -20 16 -6 32 -17 35 -25 3 -8 17 -14 31 -14 14 0 25 -4 25
-9 0 -11 87 -61 106 -61 8 0 19 -9 26 -20 7 -12 36 -32 64 -45 28 -13 56 -31
63 -39 7 -8 26 -18 42 -21 16 -4 29 -13 29 -21 0 -8 7 -14 16 -14 17 0 97 -41
102 -53 2 -4 19 -14 38 -22 19 -8 34 -19 34 -24 0 -6 10 -11 23 -11 12 0 28
-9 35 -20 7 -11 18 -20 26 -20 7 0 25 -11 40 -25 15 -14 34 -25 42 -25 8 0 25
-6 37 -14 12 -8 39 -17 60 -20 20 -4 37 -11 37 -15 0 -5 21 -14 48 -21 26 -8
63 -22 82 -32 19 -10 47 -18 62 -18 18 0 28 -5 28 -15 0 -9 14 -16 38 -20 40
-7 49 -10 72 -24 8 -5 33 -14 55 -20 22 -7 54 -18 70 -26 17 -7 57 -18 89 -24
32 -6 67 -17 76 -26 9 -8 34 -15 56 -15 50 -1 127 -18 135 -31 6 -11 111 -28
172 -29 22 0 53 -6 70 -14 35 -16 255 -38 274 -27 7 4 70 1 140 -6 71 -7 135
-10 143 -8 8 2 83 -2 165 -9 98 -8 152 -9 156 -3 7 9 52 12 279 19 52 2 101 7
108 11 7 5 54 10 105 12 128 6 216 16 223 26 3 5 32 9 64 9 33 0 60 5 62 11 2
6 29 11 61 11 32 0 60 5 63 9 3 5 29 9 58 9 28 0 57 5 62 10 6 6 31 11 55 12
24 1 51 7 59 13 8 7 30 15 48 19 17 3 47 9 65 12 17 4 39 13 48 21 9 8 32 13
53 11 23 -1 40 3 46 11 4 8 25 14 49 14 22 0 46 6 52 13 6 8 24 14 40 14 16 0
29 5 29 10 0 6 14 10 30 10 17 0 30 5 30 11 0 13 69 43 97 41 13 -1 27 6 33
18 6 11 20 19 33 19 27 -2 97 28 97 41 0 6 7 10 15 10 9 0 18 7 21 15 4 8 15
15 25 15 10 0 19 5 19 10 0 6 6 10 13 10 8 0 22 9 32 20 10 11 22 17 27 14 5
-3 23 8 39 24 17 17 42 33 56 37 14 3 31 11 38 18 7 7 25 21 41 32 15 11 35
27 44 35 8 8 27 23 42 33 22 13 26 14 22 2 -3 -8 -14 -17 -25 -20 -10 -4 -19
-10 -19 -14 0 -4 -13 -21 -30 -37 -16 -16 -30 -35 -30 -41 0 -7 -9 -18 -20
-25 -11 -7 -20 -18 -20 -25 0 -7 -7 -13 -15 -13 -8 0 -15 -7 -15 -15 0 -8 -7
-15 -15 -15 -8 0 -21 -12 -29 -27 -16 -31 -79 -93 -94 -93 -5 0 -12 -6 -15
-13 -2 -7 -23 -22 -46 -32 -22 -11 -41 -23 -41 -27 0 -4 -21 -19 -47 -34 -27
-15 -59 -37 -73 -49 -14 -13 -45 -35 -69 -50 -25 -15 -56 -38 -70 -52 -14 -13
-42 -31 -61 -41 -19 -9 -60 -36 -92 -59 -31 -24 -61 -43 -67 -43 -6 0 -29 -11
-51 -25 -22 -14 -46 -25 -55 -25 -8 0 -23 -9 -32 -20 -10 -11 -28 -20 -40 -20
-13 0 -23 -3 -23 -8 0 -4 -22 -17 -50 -30 -27 -12 -52 -27 -55 -32 -3 -6 -14
-10 -24 -10 -10 0 -39 -12 -65 -26 -25 -14 -50 -23 -55 -19 -6 3 -19 -3 -31
-15 -11 -11 -29 -20 -40 -20 -11 0 -20 -4 -20 -10 0 -5 -11 -10 -24 -10 -13 0
-29 -7 -36 -15 -7 -8 -25 -15 -40 -15 -16 0 -30 -7 -34 -15 -3 -9 -16 -15 -33
-13 -16 1 -38 -4 -50 -10 -12 -7 -40 -12 -63 -12 -25 0 -43 -5 -46 -13 -3 -9
-19 -13 -42 -12 -20 1 -50 -5 -66 -12 -15 -8 -38 -12 -50 -9 -12 3 -32 -1 -43
-9 -16 -11 -39 -13 -93 -9 -39 3 -86 0 -103 -5 -18 -6 -133 -13 -257 -15 -124
-3 -233 -8 -242 -11 -30 -12 -779 54 -812 71 -16 8 -66 19 -110 25 -143 17
-207 30 -230 43 -11 8 -46 17 -76 21 -30 4 -60 11 -66 16 -14 12 -103 39 -127
39 -10 0 -25 7 -33 15 -9 8 -26 15 -39 15 -13 0 -30 6 -37 13 -7 8 -25 16 -38
19 -49 10 -55 13 -62 31 -4 9 -17 17 -28 17 -27 0 -150 58 -150 70 0 6 -11 10
-25 10 -14 0 -29 8 -35 20 -6 11 -16 20 -23 20 -7 0 -29 9 -50 20 -20 11 -44
20 -52 20 -8 0 -20 9 -27 20 -8 12 -24 20 -40 20 -18 0 -28 5 -28 15 0 8 -7
15 -15 15 -8 0 -23 9 -32 20 -10 11 -26 20 -36 20 -9 0 -20 6 -23 14 -3 8 -30
27 -61 42 -30 16 -60 35 -66 44 -7 8 -30 24 -52 35 -22 11 -58 34 -81 52 -23
18 -48 33 -57 33 -9 0 -22 9 -30 20 -7 10 -25 24 -40 29 -15 6 -27 15 -27 21
0 5 -6 10 -14 10 -25 0 -129 101 -151 147 -9 18 -27 45 -41 59 -13 15 -29 45
-36 68 -6 23 -15 46 -19 51 -3 6 -10 26 -14 45 -4 19 -11 40 -15 45 -4 6 -13
39 -20 75 -7 36 -20 73 -28 82 -8 10 -12 27 -9 40 4 13 0 36 -8 52 -25 47 -20
58 18 38 17 -9 35 -22 39 -28z m4849 -1181 c-7 -43 -19 -118 -28 -168 -8 -49
-19 -112 -24 -140 -19 -117 -28 -195 -29 -270 -2 -85 -27 -418 -36 -472 -3
-20 -11 -33 -20 -33 -8 0 -18 -8 -21 -17 -10 -26 -34 -42 -64 -43 -15 0 -29
-7 -33 -15 -3 -8 -10 -15 -16 -15 -6 0 -24 -13 -40 -30 -16 -16 -34 -30 -40
-30 -5 0 -10 -7 -10 -15 0 -8 -6 -15 -13 -15 -7 0 -24 -13 -37 -30 -14 -16
-30 -29 -36 -30 -7 0 -14 -7 -18 -15 -3 -9 -18 -15 -36 -15 -18 0 -29 -5 -27
-12 1 -7 -8 -14 -20 -16 -13 -2 -23 -8 -23 -13 0 -5 -7 -9 -15 -9 -8 0 -15 -7
-15 -15 0 -8 -7 -15 -15 -15 -8 0 -15 -4 -15 -9 0 -13 -103 -81 -123 -81 -9 0
-17 -7 -17 -15 0 -8 -7 -15 -15 -15 -8 0 -15 -4 -15 -10 0 -5 -6 -10 -13 -10
-7 0 -24 -13 -37 -30 -14 -16 -30 -29 -37 -30 -6 0 -26 -13 -44 -30 -18 -16
-34 -28 -36 -27 -4 4 65 796 73 832 3 17 16 143 28 280 l21 250 25 3 c14 2 30
10 37 19 7 9 21 13 32 10 12 -3 27 3 37 14 10 11 25 17 34 14 10 -3 23 1 30
10 7 8 23 15 35 15 12 0 28 7 35 15 7 9 20 15 29 14 31 -3 41 1 41 17 0 12 6
15 21 11 15 -4 30 3 51 24 19 19 40 29 59 29 19 0 29 5 29 15 0 8 6 15 14 15
7 0 19 6 25 14 6 7 22 11 35 9 17 -4 25 0 28 15 4 15 12 19 32 15 16 -3 26 -1
26 6 0 14 59 51 82 51 10 0 37 20 60 44 24 24 47 40 52 35 5 -5 4 -40 -3 -86z
m-946 -539 c-8 -99 -25 -278 -36 -399 -12 -121 -23 -258 -25 -305 -2 -47 -12
-188 -24 -315 -17 -201 -42 -484 -154 -1795 -39 -453 -47 -560 -42 -569 8 -13
-23 -314 -36 -346 -10 -26 -35 -63 -67 -100 -19 -22 -78 -63 -103 -71 -10 -4
-18 -10 -18 -15 0 -5 -20 -9 -45 -9 -25 0 -56 -6 -68 -14 -19 -13 -41 -13
-152 -3 -112 11 -134 16 -153 35 -15 15 -34 22 -62 22 -26 0 -43 5 -46 14 -3
8 -20 18 -37 22 -18 3 -43 15 -56 25 -13 11 -30 19 -37 19 -8 0 -23 9 -34 20
-11 11 -29 20 -39 20 -11 0 -23 5 -27 11 -3 6 -22 17 -40 25 -19 8 -34 18 -34
23 0 5 -15 12 -34 15 -19 4 -37 13 -40 21 -3 9 -18 15 -36 15 -17 0 -33 6 -36
14 -3 8 -19 20 -35 26 -16 7 -29 16 -29 20 0 4 -15 14 -32 21 -18 7 -42 21
-52 31 -11 10 -22 18 -25 18 -3 0 -4 53 -1 117 3 65 3 129 -1 143 -3 14 -5
160 -4 325 1 182 -2 305 -8 313 -9 11 -11 157 -2 171 6 10 1 351 -7 531 -1 19
1 79 4 132 4 58 3 100 -3 103 -11 7 -11 130 0 235 5 42 4 80 -1 86 -5 7 -7 72
-4 145 2 74 0 159 -5 189 -4 30 -5 98 -1 150 5 60 4 115 -3 149 -7 35 -8 87
-2 145 4 50 5 114 2 141 -4 28 -5 95 -4 150 2 55 2 120 1 145 -4 81 -4 262 1
266 2 2 75 -3 163 -11 87 -9 224 -22 303 -29 98 -10 163 -11 201 -5 31 5 105
7 164 5 59 -1 109 1 112 5 2 4 56 8 120 8 63 0 120 4 127 8 7 4 53 6 104 5 56
-2 94 1 98 7 3 6 28 11 56 11 27 0 49 4 49 10 0 5 23 12 50 16 28 4 53 11 56
15 3 5 23 6 44 3 32 -5 41 -3 46 10 14 37 14 1 -1 -170z m-1797 30 c13 -4 17
-79 6 -108 -4 -9 -18 -16 -34 -16 -16 0 -32 -4 -35 -10 -3 -5 -17 -10 -31 -10
-17 0 -24 -6 -24 -19 0 -30 -11 -51 -26 -51 -8 0 -14 -8 -14 -17 0 -9 -9 -26
-20 -38 -14 -15 -22 -41 -27 -88 -6 -65 -5 -66 27 -95 38 -35 34 -50 -12 -45
-126 14 -121 12 -115 43 4 19 1 33 -9 41 -12 10 -14 26 -8 78 4 39 12 69 20
74 8 4 14 17 14 27 0 11 9 24 20 30 11 6 20 19 20 30 0 11 9 24 19 30 11 5 22
23 26 40 4 16 13 30 21 30 8 0 14 5 14 10 0 6 7 10 15 10 8 0 15 7 15 15 0 8
9 15 20 15 11 0 20 6 20 14 0 8 6 16 13 19 11 4 57 0 85 -9z"/>
<path d="M3940 7412 c-44 -7 -86 -47 -100 -97 -17 -62 -5 -102 40 -126 64 -35
126 -21 184 40 25 26 28 35 23 67 -12 75 -77 126 -147 116z"/>
</g>
</svg>
