<?xml version="1.0" standalone="no"?>
<!DOCTYPE svg PUBLIC "-//W3C//DTD SVG 20010904//EN"
 "http://www.w3.org/TR/2001/REC-SVG-20010904/DTD/svg10.dtd">
<svg version="1.0" xmlns="http://www.w3.org/2000/svg"
 width="1029.000000pt" height="1125.000000pt" viewBox="0 0 1029.000000 1125.000000"
 preserveAspectRatio="xMidYMid meet">
<metadata>
Created by potrace 1.16, written by Peter Selinger 2001-2019
</metadata>
<g transform="translate(0.000000,1125.000000) scale(0.100000,-0.100000)"
fill="#000000" stroke="none">
<path d="M4532 10400 c-21 -13 -35 -31 -38 -50 -4 -17 -11 -27 -17 -23 -6 3
-7 1 -3 -5 4 -7 -2 -22 -14 -34 -30 -33 -39 -82 -35 -186 4 -92 4 -92 -18 -81
-11 7 -29 21 -38 33 -14 18 -27 20 -94 19 -43 -1 -95 -5 -116 -8 -34 -6 -40
-11 -50 -44 -13 -44 0 -80 29 -82 56 -5 158 -6 166 -1 6 3 19 7 30 8 12 1 30
4 41 6 18 3 20 -2 17 -57 -2 -33 -6 -69 -8 -80 -4 -15 -3 -16 4 -6 7 9 12 10
16 2 5 -7 -4 -14 -24 -18 -18 -3 -35 -13 -38 -22 -4 -9 -14 -18 -22 -19 -37
-9 -58 -12 -129 -18 -42 -4 -78 -10 -81 -14 -8 -10 -102 -29 -117 -23 -16 6
-18 43 -13 327 3 239 4 236 -57 236 -23 0 -36 -6 -45 -22 -14 -27 -26 -159
-34 -381 -5 -141 -8 -158 -25 -167 -13 -7 -25 -7 -38 0 -13 6 -36 7 -72 0 -28
-6 -73 -10 -98 -10 -27 0 -63 -8 -86 -20 -27 -14 -59 -20 -103 -20 -49 0 -73
-5 -100 -22 -26 -16 -56 -23 -116 -26 -45 -2 -88 -9 -96 -16 -33 -25 -61 -36
-90 -36 -19 0 -34 -7 -42 -20 -7 -11 -21 -20 -30 -20 -13 0 -18 -8 -18 -30 0
-16 5 -30 10 -30 5 0 19 -9 29 -19 16 -16 28 -19 58 -14 21 4 44 12 51 20 15
15 14 15 140 13 73 -1 92 2 92 13 0 17 88 47 139 47 20 0 42 5 47 10 6 6 39
12 75 14 35 3 105 8 155 12 87 6 92 5 98 -14 4 -11 3 -118 -2 -238 -4 -121 -8
-257 -8 -302 0 -57 -5 -86 -13 -92 -19 -11 -27 -96 -11 -115 9 -11 10 -33 5
-82 -12 -102 -8 -444 5 -509 9 -43 9 -75 1 -128 -6 -39 -13 -102 -15 -141 -8
-127 -6 -126 -175 -130 -90 -3 -117 -7 -132 -21 -14 -13 -38 -18 -89 -18 -71
-1 -97 -13 -87 -40 5 -13 31 -16 164 -15 86 0 176 4 199 9 31 7 51 6 73 -3
l32 -13 3 -417 4 -418 -24 -15 c-33 -22 -33 -68 1 -90 l25 -16 -4 -300 c-3
-165 -6 -302 -8 -304 -2 -1 -25 -4 -52 -5 -34 -2 -53 -9 -69 -26 -12 -12 -28
-23 -34 -23 -18 0 -22 -29 -25 -178 -3 -147 -5 -152 -70 -152 -49 0 -68 -9
-68 -30 0 -24 -26 -44 -47 -35 -10 4 -56 10 -102 14 -60 4 -86 10 -91 21 -4 8
-12 25 -18 37 -8 16 -9 37 -3 65 4 24 9 259 10 523 2 453 1 485 -18 572 -13
56 -21 128 -21 182 0 129 -14 151 -59 90 -20 -27 -23 -46 -28 -165 -6 -124 -7
-134 -25 -134 -11 0 -22 -9 -25 -20 -3 -11 -14 -20 -24 -20 -10 0 -21 -4 -24
-10 -3 -5 -14 -10 -24 -10 -10 0 -21 -9 -24 -20 -3 -11 -12 -20 -20 -20 -8 0
-17 -9 -20 -20 -3 -12 -14 -20 -27 -20 -13 0 -24 -8 -27 -20 -3 -10 -14 -22
-25 -26 -38 -12 -49 -78 -18 -111 l19 -21 55 21 c39 15 57 28 61 44 3 13 10
23 15 23 5 0 21 18 36 39 44 67 118 79 107 18 -3 -13 2 -39 10 -58 11 -27 12
-47 4 -97 -8 -46 -8 -71 1 -95 18 -51 16 -414 -3 -459 -10 -25 -14 -77 -14
-182 -1 -81 -3 -152 -6 -157 -4 -5 -17 -9 -29 -9 -13 0 -35 -9 -49 -20 -14
-11 -30 -20 -37 -20 -6 0 -25 -7 -41 -16 -26 -13 -30 -20 -27 -51 2 -30 8 -38
29 -44 15 -4 46 -3 70 2 24 4 71 8 104 9 50 0 66 5 99 30 22 17 46 30 53 30 7
0 13 7 13 14 0 11 14 16 48 18 39 3 47 6 50 25 2 16 12 23 42 28 22 4 44 4 49
0 20 -12 80 6 87 27 5 17 11 19 42 13 21 -4 46 -15 58 -26 13 -12 35 -19 61
-19 45 0 73 -21 55 -43 -16 -19 -14 -1000 2 -1047 8 -23 9 -50 3 -80 -4 -25
-5 -63 -2 -85 4 -22 8 -292 11 -600 2 -308 7 -594 10 -635 4 -41 7 -80 6 -86
-1 -6 10 -21 24 -35 27 -26 7 -24 319 -29 17 0 51 2 78 6 29 4 53 2 61 -5 9
-8 32 -7 82 4 102 22 141 19 180 -10 36 -28 64 -32 64 -11 0 21 27 28 128 31
89 3 152 18 152 36 0 4 10 9 23 11 14 2 23 11 25 26 2 13 10 22 21 22 22 0 41
19 41 42 0 10 7 18 16 18 12 0 14 9 12 41 -3 37 -6 42 -40 54 -21 7 -38 10
-39 6 0 -3 -4 3 -9 15 -6 15 -23 24 -66 32 -31 7 -68 12 -80 12 -12 0 -29 6
-36 14 -8 7 -33 17 -56 21 -23 4 -40 10 -38 13 2 4 -18 5 -45 4 -27 -2 -49 0
-49 5 0 5 -18 17 -40 27 -36 16 -45 16 -117 2 -43 -8 -107 -20 -142 -26 -71
-13 -141 -44 -141 -62 0 -7 -9 -21 -20 -33 -11 -11 -32 -35 -46 -53 -30 -38
-63 -43 -65 -9 -1 12 -3 42 -4 67 -2 25 -8 128 -14 229 -11 172 -11 184 6 197
26 20 42 17 53 -8 28 -67 85 -89 132 -51 7 7 38 15 68 19 30 3 65 13 77 20 13
8 50 14 90 14 76 1 140 13 191 37 29 14 38 14 56 3 11 -7 76 -19 144 -26 131
-14 170 -8 205 27 25 27 65 25 76 -4 7 -18 8 -504 2 -958 l-1 -95 -45 -34
c-37 -28 -45 -39 -45 -67 0 -36 -18 -44 -42 -19 -8 7 -33 17 -55 21 l-41 6 -1
55 c0 30 -3 58 -5 63 -3 4 -43 10 -88 13 -58 4 -94 12 -120 26 -24 14 -58 22
-98 23 -43 2 -65 7 -73 19 -8 10 -41 21 -92 29 -44 6 -92 14 -106 17 -21 5
-33 -1 -57 -27 -34 -37 -69 -45 -77 -18 -3 10 -23 23 -43 30 -20 6 -44 17 -52
23 -14 11 -32 20 -92 46 -13 5 -48 11 -78 13 -30 3 -77 11 -105 17 -27 7 -73
12 -102 11 -28 -1 -68 5 -89 14 -20 8 -51 15 -70 15 -26 0 -33 4 -36 22 -2 16
-13 25 -39 33 -20 5 -42 15 -50 22 -8 6 -41 16 -74 22 -73 13 -237 40 -285 47
-19 3 -51 12 -70 20 -19 7 -71 18 -114 23 -65 8 -83 14 -98 33 -10 13 -18 28
-18 34 0 18 -31 74 -41 74 -5 0 -9 3 -9 8 0 10 47 30 90 38 19 4 40 10 45 14
14 11 110 30 146 30 45 0 31 -23 -19 -34 -31 -7 -42 -15 -42 -28 0 -10 -6 -27
-12 -38 -11 -17 -10 -22 2 -30 23 -15 167 -13 177 3 14 21 51 37 89 37 20 0
48 9 64 20 16 11 49 23 74 26 24 4 47 13 50 20 3 7 28 16 57 20 31 4 60 15 72
27 13 13 38 21 81 25 33 3 63 8 66 12 3 4 24 19 48 34 36 22 42 31 42 60 0 43
-37 71 -82 62 -46 -9 -81 3 -75 25 3 11 1 17 -3 14 -5 -3 -11 4 -15 15 -5 15
-16 20 -43 21 -69 3 -107 -3 -137 -21 -33 -20 -132 -36 -163 -26 -16 5 -22 19
-26 59 -9 75 -26 135 -42 148 -10 8 -14 8 -14 0 0 -6 -11 -11 -24 -11 -29 0
-36 -20 -36 -115 0 -46 5 -78 15 -91 13 -19 12 -23 -8 -41 -28 -26 -92 -47
-135 -44 -19 1 -50 -9 -77 -24 -25 -14 -55 -25 -66 -25 -12 0 -33 -9 -48 -19
-14 -10 -45 -24 -68 -30 -22 -6 -44 -19 -47 -28 -5 -13 -9 -14 -18 -5 -8 8
-15 89 -20 248 -4 130 -11 241 -17 247 -5 7 -12 34 -16 60 -7 43 -5 49 13 54
11 3 23 11 26 19 3 9 20 14 46 14 44 0 80 14 93 36 4 8 16 14 25 14 23 1 41
17 85 74 32 42 37 56 37 102 0 65 -12 99 -41 114 -12 7 -65 11 -129 11 -101
-1 -172 11 -156 26 19 19 171 54 256 59 52 3 104 9 115 14 36 16 99 30 137 30
26 0 42 7 55 23 17 21 26 22 145 24 115 1 133 4 190 29 94 41 98 47 58 84 -29
27 -39 31 -69 25 -20 -4 -41 -11 -48 -17 -7 -5 -52 -13 -100 -16 -77 -6 -89
-10 -97 -28 -9 -20 -19 -22 -113 -26 -59 -2 -107 -8 -114 -15 -6 -6 -18 -9
-25 -6 -8 3 -14 1 -14 -3 0 -5 -75 -9 -168 -9 l-167 0 2 260 c2 268 13 482 33
595 14 82 6 869 -9 919 -6 19 -13 174 -16 345 -4 171 -8 317 -11 325 -7 21 -5
1167 2 1185 3 9 15 16 25 16 10 0 19 7 19 15 0 8 8 19 18 24 27 15 82 67 82
79 0 6 19 13 43 17 33 6 52 18 90 56 46 49 47 51 47 114 0 54 -3 67 -20 77
-11 7 -20 18 -20 25 0 7 9 18 20 25 28 18 25 46 -5 54 -14 3 -25 11 -25 17 0
6 -39 8 -116 4 -92 -5 -119 -3 -130 8 -16 16 -19 51 -4 60 13 8 13 80 -1 129
-8 27 -8 41 0 49 14 14 14 162 0 189 -8 16 -8 30 1 58 11 33 17 38 52 43 21 3
46 11 55 19 8 7 34 18 57 23 27 8 42 17 45 30 2 11 11 25 20 32 15 11 15 13
-2 30 -15 15 -31 17 -100 15 -53 -2 -90 -9 -106 -19 -15 -9 -34 -13 -53 -9
-16 3 -39 1 -51 -6 -12 -6 -29 -14 -37 -18 -17 -8 -16 17 -11 -405 l3 -260
-98 0 c-95 0 -152 -14 -139 -34 11 -18 -24 -32 -61 -25 -29 5 -36 4 -32 -7 3
-8 18 -14 34 -15 45 -1 86 -14 120 -40 l31 -23 0 -150 c1 -166 5 -178 56 -183
l32 -3 2 -280 c1 -194 -3 -299 -12 -342 -8 -40 -9 -65 -2 -72 5 -5 11 -136 13
-323 2 -172 8 -340 14 -373 5 -33 11 -93 15 -133 4 -59 2 -74 -10 -78 -8 -4
-15 -17 -15 -30 0 -37 -40 -48 -105 -29 -61 17 -111 19 -120 5 -3 -5 -16 -10
-29 -10 -25 0 -76 -21 -76 -32 0 -10 -58 -20 -80 -13 -11 3 -20 13 -20 20 0 8
-6 18 -14 22 -14 8 -40 140 -32 165 3 7 7 110 10 228 3 132 9 227 16 245 19
46 20 304 2 333 -12 18 -15 112 -18 527 -2 473 -1 506 15 517 10 7 21 25 25
41 5 23 3 29 -18 37 -32 12 -34 24 -39 190 -2 80 -8 144 -16 158 -7 12 -12 64
-13 118 0 80 2 98 16 106 21 12 22 98 0 144 -15 31 -15 37 0 68 12 26 16 66
16 175 l0 141 25 12 26 12 -26 21 c-14 12 -25 27 -25 34 0 6 -18 11 -45 11
-25 0 -45 -4 -45 -8 0 -5 -18 -16 -41 -26 -37 -17 -51 -17 -148 -7 -75 8 -122
9 -160 1 -29 -5 -80 -10 -112 -10 -41 0 -71 -7 -101 -22 -37 -20 -59 -23 -153
-24 -60 0 -118 -4 -129 -9 -17 -7 -17 -9 5 -21 18 -9 102 -13 330 -13 263 -1
312 1 345 15 22 9 52 18 67 19 15 2 31 5 34 9 6 6 46 -51 48 -69 1 -5 -2 -14
-6 -20 -17 -25 -21 -105 -24 -528 -1 -248 -6 -468 -10 -487 -4 -23 0 -65 13
-115 17 -71 19 -117 18 -420 -1 -204 -7 -398 -15 -486 -13 -138 -13 -148 5
-185 17 -35 19 -58 14 -214 -5 -200 -5 -268 -1 -504 2 -140 -1 -171 -13 -185
-21 -23 -21 -97 -1 -108 18 -10 21 -51 30 -348 3 -110 8 -215 11 -232 5 -32 7
-33 49 -33 25 0 45 4 45 8 0 5 9 19 19 31 14 16 19 38 20 86 0 35 -3 66 -7 69
-4 2 -6 22 -4 43 2 21 5 114 7 206 3 120 8 175 17 189 13 19 24 20 137 19 122
0 191 13 191 38 0 6 20 11 44 11 l45 0 4 -92 c3 -51 9 -172 15 -268 10 -168
14 -284 13 -342 -1 -15 -8 -34 -17 -42 -12 -13 -15 -35 -13 -109 1 -50 -4
-267 -11 -481 -11 -301 -11 -412 -2 -492 14 -125 7 -154 -37 -154 -16 0 -42
-5 -58 -12 -15 -6 -31 -12 -35 -12 -3 -1 -10 -5 -15 -10 -5 -5 -3 -6 5 -2 6 4
12 5 12 1 0 -3 -11 -10 -25 -15 -21 -8 -25 -16 -25 -49 0 -46 8 -50 71 -44 32
4 49 1 55 -8 13 -22 7 -122 -10 -163 -18 -44 -20 -73 -6 -78 6 -2 17 -63 24
-136 8 -73 19 -139 25 -146 6 -7 16 -89 22 -182 11 -170 6 -239 -19 -239 -7 0
-24 -24 -37 -53 -32 -70 -35 -158 -5 -192 18 -21 20 -37 20 -167 0 -110 -4
-151 -15 -173 -9 -17 -20 -30 -25 -30 -6 0 -10 -9 -10 -21 0 -12 -8 -23 -20
-26 -16 -4 -20 -14 -20 -44 0 -21 -5 -41 -12 -45 -7 -5 -8 -3 -3 6 6 9 4 11
-4 6 -7 -5 -10 -11 -7 -14 3 -3 2 -10 -3 -16 -5 -6 -14 -28 -20 -48 -7 -21
-16 -38 -21 -38 -5 0 -14 -17 -20 -37 -7 -21 -16 -42 -21 -47 -5 -6 -9 -18 -9
-28 0 -10 -4 -18 -8 -18 -5 0 -14 -11 -20 -25 -10 -23 -17 -25 -70 -25 -57 0
-60 -1 -100 -45 -22 -25 -46 -45 -51 -45 -6 0 -11 -4 -11 -10 0 -5 -11 -10
-23 -10 -13 0 -27 -3 -31 -7 -11 -12 -119 -43 -148 -43 -16 0 -28 -5 -28 -11
0 -5 -13 -15 -30 -20 -16 -6 -30 -15 -30 -20 0 -5 -6 -9 -14 -9 -8 0 -16 -7
-20 -15 -3 -8 -16 -15 -30 -15 -14 0 -28 -4 -31 -10 -3 -6 -16 -10 -29 -10
-12 0 -31 -7 -42 -15 -10 -8 -26 -15 -34 -15 -9 0 -21 -5 -28 -12 -16 -16 -81
-38 -114 -38 -15 0 -31 -6 -35 -13 -4 -7 -27 -18 -49 -25 -27 -8 -44 -19 -47
-32 -3 -13 -14 -20 -31 -20 -19 0 -33 -11 -53 -40 -24 -37 -25 -43 -11 -56 13
-13 24 -14 79 -3 35 6 81 20 101 30 23 12 59 19 93 19 43 0 59 4 73 20 9 11
34 25 54 31 21 5 38 16 38 23 0 14 30 26 67 26 12 0 34 5 50 12 37 15 41 16
88 24 22 4 54 15 71 25 18 11 64 23 104 28 40 5 76 14 80 20 10 17 68 31 126
31 37 0 57 6 74 20 36 31 114 31 168 -1 23 -13 52 -19 92 -19 32 0 62 -4 65
-10 3 -6 24 -10 46 -10 22 0 50 -6 62 -14 12 -7 67 -19 122 -26 55 -6 109 -17
119 -22 19 -10 150 -30 190 -29 10 0 28 -7 40 -15 11 -7 30 -14 42 -14 12 0
33 -9 47 -20 14 -11 39 -23 56 -26 17 -4 34 -11 37 -15 3 -5 16 -9 29 -9 26 0
36 -18 28 -48 -3 -14 -17 -22 -41 -27 -20 -4 -41 -12 -47 -19 -5 -7 -30 -19
-55 -26 -25 -8 -53 -22 -63 -32 -10 -10 -32 -21 -48 -25 -16 -3 -34 -14 -40
-24 -5 -11 -16 -19 -24 -19 -18 0 -65 -50 -65 -69 0 -11 13 -13 61 -8 34 3 66
10 72 16 6 6 19 11 28 11 9 0 22 7 29 14 6 8 37 20 68 26 31 7 66 20 77 30 11
10 37 20 57 24 24 4 39 13 43 26 4 11 14 20 24 20 12 0 17 7 17 23 -1 21 2 22
117 25 97 2 117 0 117 -12 0 -15 37 -30 101 -40 21 -4 42 -13 49 -21 7 -8 28
-17 49 -21 20 -4 43 -12 51 -18 35 -26 62 -36 96 -36 20 0 50 -7 67 -15 95
-43 212 -75 283 -75 44 0 52 -3 64 -25 7 -14 19 -25 26 -25 6 0 14 -6 17 -14
3 -7 23 -16 44 -19 21 -4 55 -15 77 -26 23 -12 49 -18 65 -15 33 7 135 -21
151 -41 16 -19 37 -19 47 -1 8 15 24 19 61 17 27 -1 29 -17 2 -26 -11 -3 -20
-13 -20 -21 0 -8 -20 -24 -45 -35 -25 -11 -45 -24 -45 -29 0 -6 -9 -10 -20
-10 -12 0 -25 -10 -32 -25 -7 -16 -22 -27 -45 -31 -18 -3 -37 -13 -42 -22 -5
-9 -29 -21 -53 -27 -24 -6 -42 -16 -40 -23 1 -7 -9 -12 -23 -12 -14 0 -29 -8
-35 -20 -6 -10 -25 -26 -43 -35 -37 -17 -60 -63 -45 -89 14 -25 75 -21 110 9
16 14 39 25 51 25 12 0 36 14 54 30 18 17 39 30 48 30 9 0 19 9 22 19 3 14 17
22 45 26 22 4 42 13 44 20 3 7 25 16 50 20 24 3 44 10 44 15 0 10 57 40 77 40
8 0 21 7 29 15 20 20 83 20 90 0 7 -19 53 -20 79 -2 11 7 40 19 65 26 24 7 50
21 56 30 10 13 30 16 101 16 110 0 155 -6 168 -21 6 -6 37 -17 70 -24 33 -6
67 -18 75 -24 8 -7 41 -18 72 -25 31 -7 61 -18 67 -25 6 -8 30 -17 53 -20 23
-4 56 -13 72 -20 17 -7 60 -19 96 -25 36 -7 69 -19 73 -27 13 -22 35 -16 51
13 12 24 12 30 -2 53 -22 35 -53 60 -77 60 -11 0 -37 11 -57 25 -20 14 -44 25
-53 25 -8 0 -32 9 -52 20 -21 11 -49 20 -62 20 -13 0 -29 6 -35 14 -6 8 -47
22 -90 31 -55 11 -84 22 -93 35 -8 11 -20 20 -27 20 -7 0 -18 11 -24 25 -10
22 -33 31 -64 26 -19 -3 -5 20 17 29 13 5 33 18 45 30 12 12 33 20 53 20 21 0
42 9 59 25 15 14 34 25 43 25 9 0 28 9 42 20 14 11 35 20 47 20 11 0 39 11 61
25 22 13 48 25 57 25 9 0 30 11 46 25 20 16 42 25 65 25 20 0 39 5 42 10 3 6
17 10 31 10 14 0 24 6 24 14 0 9 17 16 50 21 31 4 50 12 50 20 0 7 14 18 31
24 17 6 38 19 47 30 35 39 136 53 227 31 106 -25 125 -31 125 -40 0 -6 9 -10
20 -10 11 0 20 5 20 10 0 6 11 10 24 10 54 0 113 38 86 55 -6 4 -10 17 -10 31
0 17 -6 24 -19 24 -27 0 -43 24 -39 62 2 26 8 34 26 36 28 4 33 15 35 79 l2
48 48 3 c28 2 47 -1 47 -7 0 -6 5 -11 11 -11 18 0 39 27 39 51 0 12 3 19 8 15
4 -4 7 -13 7 -19 0 -17 82 -21 128 -7 21 6 37 17 37 25 0 8 6 15 13 15 8 0 24
9 37 20 13 11 33 20 45 20 40 0 85 21 85 40 0 13 11 20 48 25 26 5 52 9 57 11
13 3 145 22 208 30 30 3 55 13 67 26 16 17 26 19 57 13 41 -8 45 -8 144 -3 66
3 67 3 101 -35 32 -35 38 -37 89 -36 30 0 81 -2 115 -6 45 -6 68 -4 90 7 62
32 150 42 235 29 42 -7 109 -14 148 -15 59 -1 72 2 85 19 8 11 11 24 8 30 -3
5 -7 18 -7 27 -2 28 -10 31 -88 37 -44 4 -84 13 -100 24 -14 9 -33 17 -41 17
-8 0 -19 6 -23 14 -11 17 -61 26 -90 15 -27 -10 -53 -2 -53 17 0 8 -7 14 -15
14 -18 0 -29 57 -21 107 28 157 42 369 55 798 5 149 13 297 19 330 6 33 12
182 14 330 l3 270 155 5 c161 6 217 1 231 -22 6 -10 50 -13 180 -15 192 -2
203 -3 241 -37 25 -22 27 -32 29 -98 2 -66 -11 -242 -27 -389 -5 -44 -2 -65
14 -101 33 -70 45 -76 81 -36 37 41 42 83 51 388 0 8 -2 32 -6 53 -4 25 -1 48
10 71 11 23 16 62 16 124 0 77 -3 96 -22 126 -20 31 -58 50 -58 28 0 -14 -65
-40 -115 -45 -76 -8 -205 22 -205 47 0 5 -40 6 -97 1 -54 -5 -109 -8 -123 -7
-174 8 -270 16 -270 23 0 5 -11 9 -23 9 -13 0 -34 9 -47 20 l-23 20 8 233 c11
291 12 414 5 597 -4 80 -3 289 1 465 6 237 5 331 -4 363 l-12 43 -45 -3 -45
-3 -7 -50 c-5 -27 -13 -81 -19 -120 -7 -43 -13 -280 -15 -605 -3 -491 -14
-820 -30 -898 -4 -18 -14 -34 -25 -37 -11 -4 -17 -10 -14 -15 9 -14 -15 -23
-29 -11 -15 12 -51 10 -63 -4 -5 -4 -2 -5 6 0 10 6 12 4 7 -4 -5 -7 -15 -10
-23 -7 -8 3 -11 2 -8 -3 3 -5 1 -13 -5 -16 -8 -5 -7 -11 1 -21 13 -16 62 -19
87 -5 24 13 56 -16 72 -64 25 -74 10 -662 -19 -737 -6 -17 -11 -200 -11 -492
-2 -356 -5 -476 -15 -510 -8 -24 -11 -47 -8 -50 4 -3 1 -6 -5 -6 -7 0 -12 -9
-12 -19 0 -10 -7 -22 -16 -25 -31 -12 -144 16 -144 35 0 5 -5 9 -12 9 -6 0
-26 11 -45 26 -18 14 -33 22 -33 18 0 -3 -7 -1 -15 6 -8 6 -19 9 -25 5 -5 -3
-10 1 -10 9 0 9 -17 23 -39 32 -22 8 -42 21 -44 28 -3 8 -26 19 -51 27 -25 7
-46 19 -46 25 0 6 -9 14 -20 17 -14 3 -21 17 -26 46 -4 23 -11 44 -15 47 -5 3
-7 10 -4 15 3 5 -1 6 -9 3 -12 -5 -16 1 -16 23 0 36 -25 89 -46 97 -11 4 -14
17 -12 48 2 34 7 43 21 42 10 -1 16 0 14 3 -3 2 1 20 9 38 8 19 14 46 14 60 0
18 5 25 19 25 11 0 22 4 25 9 6 9 74 26 89 22 5 -1 6 3 2 9 -4 6 10 10 38 10
28 0 47 -5 50 -14 4 -11 77 -27 127 -28 19 -1 128 12 158 18 43 9 20 44 -29
44 -10 0 -29 10 -41 22 -14 14 -41 24 -77 29 -30 4 -66 17 -81 27 -20 15 -43
20 -93 21 -82 0 -147 17 -147 36 0 8 -4 15 -8 15 -5 0 -8 35 -8 78 1 53 -3 84
-13 95 -7 9 -11 28 -9 42 3 16 -1 30 -11 37 -15 12 -15 11 -1 -7 14 -19 14
-19 -2 -6 -17 13 -27 77 -10 68 4 -3 6 14 6 36 -1 34 -5 41 -19 39 -14 -3 -17
2 -13 22 3 14 1 23 -3 20 -11 -6 -11 67 0 123 5 28 5 40 -2 36 -6 -4 -8 4 -5
20 3 16 1 24 -5 20 -6 -3 -7 11 -3 38 12 78 21 237 14 232 -5 -2 -8 52 -8 120
0 68 -3 127 -7 130 -3 4 -7 74 -7 156 -1 156 -6 173 -51 191 -19 8 -19 9 3 9
12 1 22 6 22 11 0 6 6 10 14 10 9 0 14 14 14 45 1 25 -3 45 -8 45 -13 0 -13
97 0 105 10 6 10 55 0 55 -3 0 -6 24 -8 54 -2 41 1 55 13 60 13 5 15 32 13
207 -1 143 -5 208 -15 226 -7 14 -13 34 -13 44 0 11 -4 19 -10 19 -5 0 -10 7
-10 15 0 13 -8 16 -37 15 -5 -1 -7 -10 -5 -20 2 -13 -2 -20 -14 -20 -12 0 -15
7 -12 29 3 18 0 27 -5 24 -6 -4 -8 5 -5 20 3 15 1 24 -3 21 -10 -6 -12 54 -3
108 4 21 9 36 13 34 3 -2 6 22 6 54 0 32 -3 56 -6 54 -10 -6 -20 205 -14 296
9 130 14 153 31 146 9 -3 12 -1 9 4 -5 8 87 17 119 11 5 -1 16 1 25 5 23 11
35 11 46 3 10 -8 114 -9 544 -9 101 0 201 5 222 10 36 10 39 14 39 45 0 23 -5
35 -18 39 -10 3 -232 8 -493 10 -348 3 -482 7 -499 16 -21 11 -22 16 -14 73 4
34 7 105 7 157 -1 52 -3 172 -5 267 -2 128 0 175 10 184 14 15 16 119 2 119
-5 0 -10 7 -10 15 0 8 7 15 15 15 7 0 18 7 23 16 7 12 20 15 50 13 22 -3 38
-1 35 4 -3 5 4 15 16 23 12 8 21 19 21 24 0 13 -55 40 -82 40 -13 0 -38 14
-56 31 -29 28 -32 34 -25 67 4 20 6 48 5 62 -11 159 10 273 58 312 29 24 39
72 39 195 0 56 3 108 8 115 12 19 30 167 19 161 -5 -3 -7 8 -4 25 2 17 1 29
-4 26 -4 -3 -8 4 -8 15 0 12 -4 21 -10 21 -5 0 -10 7 -10 15 0 8 -11 22 -25
31 -44 29 -43 29 195 37 232 9 365 18 403 28 45 12 143 3 173 -16 11 -7 31
-15 45 -17 24 -3 24 -4 -6 -18 -27 -14 -31 -22 -39 -80 -10 -75 -11 -114 -1
-226 7 -73 10 -83 31 -93 13 -6 24 -17 24 -26 0 -8 9 -15 20 -15 13 0 20 7 20
19 0 10 9 21 21 24 19 5 20 11 17 119 -3 66 -11 137 -21 171 -9 32 -17 67 -17
77 0 11 -4 20 -10 20 -5 0 -10 9 -10 20 0 11 3 20 8 20 4 0 12 10 17 22 9 20
16 21 110 19 128 -2 155 6 179 51 18 36 18 36 -5 67 -14 20 -32 31 -48 32 -81
4 -237 -4 -242 -12 -16 -26 -585 -37 -611 -11 -10 10 -9 14 9 18 28 8 36 51
23 129 -10 60 0 125 22 153 7 8 40 12 97 12 107 1 121 9 121 77 0 37 5 55 20
68 11 10 20 24 20 32 0 7 11 18 25 23 35 13 36 66 2 72 -33 6 -97 -3 -97 -13
0 -6 -16 -25 -35 -44 -32 -32 -39 -35 -95 -35 -44 0 -62 -4 -66 -15 -3 -8 -26
-17 -51 -21 -38 -5 -46 -3 -59 14 -20 29 -162 43 -176 18 -9 -17 -68 -23 -68
-7 0 5 -7 8 -16 7 -9 0 -18 8 -20 18 -4 26 -22 36 -71 36 -46 0 -63 -17 -63
-64 l0 -26 -195 0 c-235 0 -477 15 -562 35 -34 8 -78 15 -98 15 -19 0 -45 6
-58 13 -12 6 -24 13 -26 14 -2 1 3 9 11 17 20 19 26 88 28 326 1 107 5 200 10
205 5 6 11 26 15 45 6 32 4 36 -24 48 -42 19 -96 6 -126 -29 -24 -29 -24 -33
-26 -232 -4 -392 -2 -361 -22 -365 -25 -5 -207 29 -207 38 0 5 -24 11 -52 16
-118 16 -128 19 -137 32 -4 6 -34 14 -66 18 -47 5 -139 37 -174 61 -2 1 2 9 9
18 8 9 29 15 56 15 24 0 44 4 44 10 0 5 28 18 63 28 74 23 81 43 17 56 -25 5
-47 13 -50 16 -11 15 -82 21 -97 8 -13 -10 -18 -9 -29 7 -20 27 -12 81 15 107
20 18 23 28 19 76 -3 31 -10 58 -16 60 -16 5 -72 58 -67 64 2 2 -4 4 -15 4
-10 0 -16 -4 -14 -8 3 -4 -4 -8 -16 -8 -11 0 -23 -6 -26 -14 -3 -8 -14 -16
-24 -19 -17 -4 -20 -17 -22 -118 -3 -108 -4 -114 -23 -111 -11 2 -35 6 -53 9
-19 3 -44 1 -55 -5 -12 -6 -30 -13 -39 -16 -10 -3 -18 -13 -18 -21 0 -9 -4
-14 -8 -11 -4 2 -6 -11 -4 -30 l4 -34 -44 0 c-24 0 -53 -7 -64 -14 -15 -10
-65 -17 -164 -22 l-142 -7 3 51 c2 27 0 48 -5 45 -5 -3 -7 8 -4 25 2 17 1 29
-3 26 -16 -9 -32 74 -31 154 1 70 -3 92 -25 138 -14 30 -31 54 -38 54 -7 0
-24 9 -38 20 -32 25 -63 25 -105 0z m565 -685 c6 -4 23 -244 23 -320 0 -47 6
-87 13 -96 8 -11 12 -63 12 -165 l0 -149 -55 -8 c-60 -8 -70 -17 -70 -64 0
-23 5 -33 15 -33 30 0 28 -31 -4 -62 -29 -28 -33 -30 -62 -18 -23 10 -33 10
-42 1 -6 -6 -19 -11 -28 -11 -31 0 -79 -34 -79 -56 0 -11 -9 -29 -20 -39 -24
-21 -26 -43 -5 -51 8 -4 15 -12 15 -20 0 -7 15 -30 34 -50 41 -45 97 -64 216
-73 l85 -6 8 -55 c4 -30 2 -140 -4 -245 -5 -104 -12 -253 -15 -330 -7 -230
-22 -773 -23 -878 l-1 -97 -32 -20 c-26 -16 -51 -20 -114 -20 -91 0 -144 -19
-144 -51 0 -10 7 -19 15 -19 8 0 24 -9 35 -20 17 -17 34 -20 103 -21 137 -2
131 4 128 -121 -1 -59 -3 -225 -4 -370 l-2 -263 -75 -5 c-41 -3 -81 -9 -87
-13 -7 -5 -13 -26 -13 -48 0 -37 2 -39 29 -39 17 0 33 -5 36 -10 4 -6 12 -7
18 -3 19 13 41 9 71 -14 25 -20 27 -26 21 -63 -4 -22 -11 -42 -16 -46 -13 -8
-11 -45 5 -76 12 -22 14 -65 10 -215 -3 -104 -9 -204 -14 -223 -6 -19 -10 -89
-10 -154 0 -132 -9 -156 -60 -156 -36 0 -55 -42 -43 -91 8 -30 14 -35 49 -39
l39 -5 1 -318 c1 -273 -1 -320 -14 -325 -8 -3 -21 3 -29 14 -11 16 -25 19 -80
18 -40 -1 -68 -7 -73 -14 -4 -7 -17 -10 -29 -7 -12 3 -19 1 -15 -4 3 -5 2 -9
-3 -10 -8 -1 -28 -4 -53 -10 -11 -3 -16 6 -18 29 -2 17 -8 32 -15 32 -8 0 -8
3 1 12 19 19 16 148 -4 162 -15 12 -10 46 7 46 16 0 10 82 -7 95 -22 16 -29
128 -14 225 25 161 33 283 31 467 -2 170 0 195 16 220 13 19 20 55 23 121 5
73 10 97 23 107 22 16 21 27 -2 76 -16 32 -20 66 -22 169 -2 80 -7 126 -13
123 -5 -4 -7 0 -4 8 5 12 0 14 -22 11 -25 -4 -28 -1 -34 38 -5 32 -3 47 9 60
17 18 21 80 5 80 -15 0 -12 36 5 50 20 17 20 144 0 184 -8 15 -15 42 -15 58 0
16 -5 39 -12 51 -8 15 -13 95 -14 252 -2 213 2 255 27 321 7 20 -5 72 -24 101
-4 7 -7 119 -6 250 1 131 -3 258 -7 283 -11 57 -11 292 0 386 8 68 8 72 -13
79 -12 4 -21 15 -21 27 0 16 -5 19 -25 16 -29 -6 -35 7 -21 46 8 22 8 30 -1
33 -7 3 -13 13 -13 24 0 33 -27 21 -34 -15 -4 -19 -13 -37 -21 -40 -21 -7 -19
-46 1 -46 14 0 15 -2 3 -17 -12 -14 -12 -16 0 -9 9 6 12 5 9 -5 -3 -8 -10 -13
-14 -12 -8 1 -5 -95 9 -272 2 -27 0 -62 -5 -76 -9 -26 -11 -27 -86 -25 -42 0
-154 -3 -248 -7 -198 -10 -184 -18 -190 98 -2 39 -8 138 -15 222 -10 130 -10
160 4 215 8 34 15 74 15 88 -1 14 3 89 7 168 7 119 11 142 24 143 9 1 57 3
107 3 90 2 91 2 122 37 17 19 32 38 32 42 0 4 -14 21 -31 38 -31 30 -34 31
-98 24 -36 -4 -79 -13 -94 -20 -37 -19 -55 -10 -63 30 -3 19 -2 161 2 315 l9
282 39 13 c22 8 44 11 49 8 6 -3 7 -2 4 4 -13 21 125 40 246 34 l27 -1 0 -81
c0 -45 5 -99 12 -121 9 -30 9 -53 0 -96 -11 -57 -4 -203 11 -218 6 -7 27 -11
65 -13 18 -1 14 -24 -8 -44 -28 -23 -28 -87 -1 -87 30 0 35 -18 33 -106 l-2
-81 62 -14 c35 -7 71 -14 82 -15 30 -3 58 33 57 75 0 20 -1 54 -2 76 -1 22 2
76 5 120 9 109 9 109 -4 290 -24 334 -24 354 1 381 18 19 33 24 70 24 26 0 51
5 55 11 17 28 69 38 169 32 55 -3 101 -7 102 -8z m263 0 c17 -9 30 -19 30 -24
0 -4 29 -11 65 -14 40 -3 73 -11 84 -21 10 -9 30 -16 45 -16 52 0 171 -22 198
-36 14 -8 44 -14 66 -14 43 0 112 -25 112 -40 0 -6 39 -10 96 -10 52 0 93 -4
90 -9 -3 -4 5 -6 19 -4 13 3 51 -4 84 -16 34 -12 79 -21 102 -21 53 0 183 -21
189 -31 3 -5 116 -10 250 -13 232 -4 245 -5 261 -25 14 -17 30 -21 95 -23 l79
-3 3 -43 c2 -33 -1 -47 -14 -56 -28 -21 -22 -101 10 -131 24 -22 26 -31 28
-117 5 -172 -2 -241 -23 -264 -30 -32 -41 -86 -34 -167 6 -82 12 -105 31 -125
8 -7 17 -31 20 -53 4 -23 12 -39 20 -39 20 0 19 -177 -1 -204 -8 -11 -15 -29
-15 -39 0 -11 -11 -30 -25 -43 -21 -19 -25 -32 -25 -78 0 -51 2 -56 25 -62 20
-5 25 -12 25 -39 0 -19 -6 -37 -12 -42 -7 -4 -50 -8 -96 -8 -64 -1 -86 -5
-100 -18 -10 -11 -13 -20 -7 -25 6 -4 15 -16 21 -27 9 -16 22 -20 65 -21 77
-2 136 -13 150 -30 14 -17 14 -352 0 -401 -5 -19 -6 -47 0 -70 12 -52 11 -298
-2 -353 -5 -24 -15 -48 -22 -52 -7 -4 -40 -8 -74 -8 -52 0 -63 -3 -68 -19 -3
-11 -15 -23 -26 -26 -10 -4 -19 -13 -19 -21 0 -21 46 -37 110 -40 30 -1 58 -3
61 -3 21 -3 25 -68 19 -341 -4 -162 -5 -311 -3 -330 3 -19 -7 -82 -21 -140
-23 -96 -25 -125 -27 -355 -1 -137 -4 -268 -6 -290 -10 -89 -14 -445 -6 -518
17 -145 1 -201 -82 -293 -43 -47 -45 -54 -45 -127 0 -59 4 -80 20 -100 11 -14
20 -29 20 -35 0 -5 11 -22 25 -38 14 -16 25 -34 25 -40 0 -6 6 -17 14 -23 19
-16 26 -58 32 -176 2 -55 10 -123 16 -151 10 -48 9 -72 -5 -132 -10 -41 -61
-82 -103 -82 -22 0 -41 6 -48 16 -7 9 -38 19 -76 25 -155 22 -171 26 -193 47
-13 12 -29 22 -35 22 -7 0 -17 11 -22 24 -5 13 -18 27 -29 31 -12 3 -21 11
-21 16 0 5 -29 9 -65 9 -58 0 -65 -2 -65 -20 0 -11 5 -20 11 -20 6 0 9 -8 7
-17 -7 -39 -177 -34 -218 7 -11 11 -23 20 -27 20 -5 0 -9 30 -10 68 -1 37 -4
127 -8 201 -7 130 -7 135 14 150 l21 16 -21 44 c-18 37 -20 55 -14 104 3 32 3
83 -1 113 l-6 55 -41 -3 c-37 -3 -42 -6 -50 -38 -5 -19 -7 -88 -4 -152 5 -110
-1 -157 -26 -195 -4 -7 -5 -28 -2 -47 4 -20 2 -43 -6 -57 -18 -35 -28 -98 -16
-106 6 -3 7 -1 3 5 -4 7 -5 12 -2 12 7 0 36 -56 36 -70 0 -6 -4 -9 -9 -6 -5 4
-7 -2 -4 -12 11 -45 -85 -62 -120 -21 -12 15 -32 23 -65 26 -69 6 -94 12 -87
22 3 5 -5 7 -17 3 -13 -3 -19 -1 -15 5 4 7 -11 13 -39 18 -35 5 -50 3 -63 -9
-24 -22 -130 -18 -116 4 2 4 -7 5 -22 2 -18 -3 -24 -1 -19 6 5 8 1 10 -9 5
-13 -4 -16 -1 -13 13 2 10 11 18 20 18 11 -1 14 4 11 14 -4 8 -2 13 3 9 5 -3
11 2 12 11 1 9 5 38 8 63 l6 46 -49 18 c-26 10 -52 21 -58 25 -5 4 -28 8 -49
8 -22 1 -43 5 -48 10 -8 8 8 108 21 127 4 6 5 66 3 135 -7 247 -6 306 7 365
17 77 8 181 -20 235 -20 37 -24 40 -64 40 -48 0 -55 -9 -55 -70 0 -21 -3 -45
-6 -54 -10 -26 -74 -17 -74 10 0 8 -5 14 -11 14 -8 0 -9 9 -4 28 11 36 22 741
13 735 -5 -2 -8 5 -8 17 0 12 3 19 8 17 4 -3 5 17 4 44 -4 44 -2 49 17 49 12
0 24 7 27 15 4 8 15 15 26 15 10 0 16 -4 13 -10 -3 -5 0 -7 8 -4 29 11 42 -26
43 -125 0 -53 4 -105 8 -117 3 -11 15 -109 25 -217 10 -109 24 -203 29 -210 6
-7 16 -42 21 -77 7 -42 17 -70 30 -81 10 -8 22 -30 26 -47 4 -18 13 -32 21
-32 8 0 17 -8 21 -17 14 -38 72 -83 117 -92 70 -13 308 4 318 23 5 8 36 20 69
27 37 7 63 18 69 29 5 10 22 20 38 23 16 3 43 17 60 31 16 15 35 26 41 26 6 0
11 6 11 13 0 7 11 23 25 35 14 12 25 26 25 32 0 5 6 10 14 10 8 0 21 18 30 39
8 22 25 45 36 51 11 6 20 20 20 30 0 11 6 20 14 20 14 0 26 42 26 91 0 16 9
37 20 47 16 15 22 37 27 93 4 55 11 80 26 96 19 21 20 35 19 235 0 117 2 256
6 308 l7 95 40 6 c62 9 81 21 112 64 l28 40 1 186 c0 102 4 191 8 197 4 7 26
12 50 12 30 0 48 6 61 20 10 11 27 20 37 20 10 0 22 10 27 23 5 12 18 31 30
41 17 15 18 21 8 30 -8 6 -20 31 -27 56 -8 25 -17 50 -21 55 -4 6 -6 32 -5 58
2 25 0 45 -4 42 -4 -2 -12 7 -18 20 -7 14 -18 25 -27 25 -8 0 -23 4 -33 9 -38
21 -117 31 -240 31 -114 0 -135 -3 -170 -21 l-40 -22 -27 22 c-36 27 -72 27
-95 -1 -17 -22 -26 -23 -142 -23 -114 0 -125 -2 -145 -22 -13 -13 -27 -23 -33
-23 -5 0 -12 -11 -16 -25 -4 -14 -11 -24 -18 -22 -7 2 -12 60 -14 180 l-2 176
25 17 c14 9 24 23 21 30 -3 7 5 23 17 36 48 51 56 128 29 257 -12 53 1 97 29
104 11 3 19 14 19 25 0 20 -33 32 -89 32 -41 0 -51 17 -51 92 0 65 1 69 27 79
15 6 36 19 46 30 10 10 26 19 37 19 11 0 25 12 32 27 7 15 22 29 33 31 11 2
31 14 45 27 24 22 51 28 112 26 21 -1 29 -7 34 -26 3 -14 14 -31 23 -38 10 -6
20 -20 24 -29 3 -10 13 -18 21 -18 9 0 20 -9 26 -20 9 -17 21 -20 84 -20 52 0
75 4 79 13 3 7 23 19 45 25 26 8 42 19 45 33 3 11 14 23 25 26 11 3 22 14 25
25 3 11 15 22 26 25 12 3 21 14 21 23 0 10 9 22 20 25 11 3 20 12 20 20 0 7
21 36 46 64 43 48 47 56 56 131 8 61 7 89 -3 125 -7 25 -17 45 -21 45 -4 0 -8
6 -8 13 0 15 -73 87 -88 87 -6 0 -13 8 -16 18 -9 26 -116 67 -116 43 0 -5 -36
-8 -80 -8 -44 0 -83 -3 -87 -6 -3 -4 -21 -7 -39 -7 -27 0 -35 6 -48 32 -9 17
-16 48 -16 68 0 25 -5 40 -16 44 -27 10 -71 7 -82 -6 -5 -7 -12 -69 -14 -138
-5 -142 -21 -190 -64 -190 -15 0 -24 -6 -24 -15 0 -9 -17 -20 -45 -27 -26 -7
-45 -18 -45 -26 0 -9 -6 -12 -16 -8 -10 4 -13 2 -8 -6 5 -7 0 -9 -14 -6 -12 4
-20 2 -16 -3 3 -5 -4 -9 -15 -9 -20 0 -21 5 -21 130 l0 131 30 17 c16 9 30 22
30 29 0 6 5 13 12 15 14 5 37 105 37 163 0 55 -20 124 -46 162 -13 17 -23 38
-23 47 0 8 -9 20 -20 26 -11 6 -18 15 -15 20 4 6 -1 7 -11 3 -12 -4 -15 -3
-10 5 4 8 -6 7 -31 -2 -57 -21 -103 -46 -103 -57 0 -5 -20 -14 -45 -21 -29 -8
-45 -18 -45 -28 0 -23 -57 -63 -109 -77 -60 -16 -297 -17 -307 -2 -4 7 -8 97
-9 201 -1 143 -4 191 -14 197 -10 7 -11 13 -1 31 13 25 9 93 -10 170 -7 25
-14 62 -17 83 -5 37 -5 37 31 37 21 0 50 -7 66 -15z m496 -721 c-4 -9 -2 -12
5 -8 7 4 10 -14 7 -59 -2 -52 0 -63 11 -59 8 3 12 1 8 -5 -4 -6 2 -13 13 -16
11 -3 18 -2 15 3 -9 14 23 19 34 6 16 -19 -3 -66 -27 -66 -10 0 -28 -9 -40
-20 -19 -18 -22 -32 -22 -90 0 -73 -7 -103 -21 -94 -10 6 -12 344 -3 393 4 17
11 31 16 31 6 0 7 -7 4 -16z m1547 -217 c16 -16 18 -28 13 -67 -4 -27 -13 -61
-21 -77 -10 -18 -15 -58 -15 -114 0 -48 -3 -102 -7 -120 -7 -33 -7 -33 -14 -9
-4 14 -7 43 -8 64 -1 24 -7 44 -18 51 -16 12 -16 14 0 29 20 20 24 134 7 167
-8 13 -7 19 0 19 7 0 11 18 9 48 -1 26 2 58 6 72 9 25 9 25 19 -10 5 -19 19
-43 29 -53z m-1779 -276 c8 -49 -4 -192 -15 -185 -5 3 -6 -2 -3 -10 6 -16 -67
-91 -88 -91 -7 0 -12 -8 -10 -18 2 -13 -2 -17 -15 -15 -12 2 -17 -2 -15 -13 1
-8 -9 -26 -23 -39 -20 -19 -25 -33 -25 -75 0 -37 -6 -60 -19 -77 -12 -15 -21
-44 -23 -74 -3 -43 -6 -49 -25 -48 -12 0 -20 -3 -17 -8 3 -4 -7 -8 -21 -8 -15
0 -24 4 -20 10 3 6 -1 7 -9 4 -12 -5 -16 1 -16 24 0 17 5 34 12 38 7 5 8 2 3
-7 -5 -8 -5 -11 -1 -7 5 4 7 75 7 158 -1 84 2 150 6 147 4 -3 7 29 5 70 -2 45
0 73 6 69 6 -3 6 11 1 37 -10 54 -11 67 -1 65 4 -1 20 2 35 7 18 5 33 3 40 -4
15 -15 97 -14 97 2 0 14 45 37 72 37 10 0 18 6 18 13 0 14 19 37 31 37 3 0 9
-18 13 -39z m152 -110 c-4 -5 2 -7 13 -4 25 6 29 -3 32 -73 2 -59 3 -60 29
-56 31 4 50 -15 29 -29 -8 -5 -25 -8 -39 -7 -22 3 -25 0 -22 -26 3 -23 0 -28
-12 -23 -10 4 -13 1 -9 -9 3 -7 0 -14 -6 -14 -12 0 -24 38 -19 60 2 10 -8 13
-40 11 l-44 -3 7 34 c4 18 13 38 21 44 8 6 14 29 14 51 0 22 3 43 7 46 10 10
45 8 39 -2z m644 -61 c0 -31 22 -70 39 -70 9 0 24 -7 34 -14 16 -13 13 -15
-34 -21 -51 -7 -85 -26 -72 -39 4 -3 -1 -6 -11 -6 -9 0 -15 4 -11 9 7 12 -22
41 -40 41 -7 0 -15 8 -19 18 -3 9 -9 23 -12 31 -4 9 -2 11 5 7 6 -4 11 -2 11
3 0 6 11 11 25 11 20 0 25 5 25 25 0 21 5 25 30 25 23 0 30 -4 30 -20z m-646
-175 c3 -8 3 -29 -1 -45 -4 -23 -2 -30 10 -30 8 0 25 -6 38 -12 23 -12 23 -14
7 -30 -9 -9 -18 -14 -20 -12 -3 2 -2 -10 0 -27 3 -22 1 -30 -6 -25 -8 5 -8 -2
-1 -24 6 -16 9 -50 8 -74 -2 -24 -1 -42 4 -39 4 2 8 -10 8 -26 2 -44 3 -48 13
-58 5 -5 6 -2 2 7 -4 8 2 4 13 -10 12 -14 19 -33 17 -43 -3 -11 -2 -16 1 -13
3 3 14 1 24 -5 28 -14 27 -89 -1 -96 -11 -3 -20 -12 -20 -19 0 -8 -7 -14 -15
-14 -8 0 -15 4 -15 9 0 17 -32 42 -47 36 -10 -3 -13 -1 -10 8 4 11 -4 12 -46
5 -29 -6 -54 -11 -55 -13 -2 -2 -9 -27 -16 -57 -10 -41 -15 -49 -21 -34 -5 12
-3 21 6 27 12 7 12 9 -1 10 -8 1 -23 1 -32 0 -20 -2 -33 36 -26 74 3 13 1 22
-3 19 -5 -3 -9 18 -9 45 0 38 -4 51 -14 51 -21 0 -27 14 -20 49 7 32 27 41 41
17 4 -7 25 -16 45 -20 34 -6 38 -5 44 19 3 14 9 25 13 25 10 0 34 140 29 170
-2 15 2 24 9 23 11 -2 4 42 -11 66 -4 5 -2 12 4 16 5 3 10 16 10 29 0 37 32
52 44 21z m-1258 -441 c-3 -8 -2 -13 3 -10 15 9 21 -92 20 -339 0 -191 -3
-248 -15 -280 -25 -64 -27 -85 -14 -110 7 -13 10 -31 6 -40 -3 -9 -2 -14 3
-11 19 12 22 -99 19 -604 -2 -289 -2 -592 0 -673 2 -82 -1 -147 -5 -144 -4 3
-8 -11 -9 -31 0 -20 -6 -38 -12 -40 -7 -2 -12 -13 -12 -23 0 -11 -4 -18 -8
-15 -5 3 -7 -8 -4 -23 2 -16 -1 -32 -9 -36 -8 -6 -10 -4 -4 5 5 8 4 11 -3 6
-6 -4 -9 -13 -5 -21 3 -8 0 -15 -6 -15 -19 0 -13 -92 9 -128 28 -45 29 -179 3
-189 -10 -4 -31 -16 -48 -28 -16 -12 -48 -25 -70 -28 -22 -4 -45 -13 -51 -21
-5 -8 -42 -20 -80 -26 -38 -7 -81 -20 -96 -31 -15 -10 -36 -19 -47 -19 -14 0
-20 -8 -23 -34 -2 -19 0 -32 4 -30 4 3 8 -2 8 -12 0 -15 8 -16 66 -11 37 4 72
11 79 17 7 6 50 13 96 17 51 3 91 11 101 20 14 13 21 13 45 1 28 -13 28 -14
35 -130 4 -64 11 -126 17 -137 8 -14 8 -20 -1 -23 -8 -3 -14 -52 -19 -154 -7
-154 -16 -221 -30 -239 -4 -6 -9 -44 -10 -85 -2 -115 -13 -146 -50 -154 -59
-11 -80 -7 -109 25 l-29 32 -88 -5 c-62 -4 -102 -12 -133 -27 -28 -14 -54 -19
-71 -16 -25 6 -27 10 -33 83 -14 181 -10 1649 5 1668 6 8 23 9 52 3 64 -12
127 -1 127 22 0 11 7 19 15 19 16 0 35 38 35 71 0 11 14 33 30 49 25 24 39 30
75 30 36 0 48 5 61 25 8 13 14 32 12 41 -4 22 -52 36 -94 29 -25 -4 -38 0 -63
24 -17 16 -31 38 -31 50 0 12 -4 21 -8 21 -4 0 -15 13 -25 29 -13 22 -27 31
-59 36 -28 5 -43 4 -46 -4 -2 -6 -13 -11 -25 -11 l-22 0 3 348 c2 191 5 348 6
349 3 3 91 12 146 14 34 2 73 12 101 26 26 13 52 23 58 23 17 0 13 56 -5 74
-12 12 -37 16 -104 16 -78 0 -92 -3 -109 -21 -15 -16 -26 -19 -50 -14 -16 3
-32 14 -35 23 -2 9 -5 182 -5 384 l0 367 27 18 c15 10 36 23 47 30 14 8 89 12
244 12 198 1 222 -1 217 -15z m871 4 c12 -19 4 -341 -9 -353 -8 -7 -8 -6 -3 4
5 9 4 12 -2 8 -6 -4 -8 -17 -6 -31 3 -13 -1 -27 -8 -31 -8 -6 -10 -4 -4 6 5 8
5 11 0 7 -4 -4 -8 -23 -9 -42 -1 -25 3 -32 13 -28 10 4 13 -2 9 -26 -2 -17 -1
-29 4 -26 4 3 8 1 8 -4 0 -5 3 -24 7 -42 4 -24 3 -31 -5 -26 -8 4 -10 2 -6 -8
3 -8 0 -24 -6 -36 -9 -18 -9 -21 0 -15 9 6 11 0 8 -23 -2 -17 -1 -29 4 -26 18
11 7 -79 -13 -107 -17 -25 -27 -29 -65 -29 l-44 0 0 123 c0 125 8 200 19 193
3 -3 5 13 3 35 -5 46 6 112 16 105 4 -2 6 13 4 35 -2 21 -9 39 -14 39 -6 0 -8
11 -6 25 3 13 1 22 -3 19 -5 -3 -9 16 -9 41 0 25 3 44 8 42 4 -3 7 19 7 48 0
29 -3 51 -7 48 -5 -2 -8 8 -8 22 0 14 4 24 9 21 4 -3 6 6 3 19 -4 24 -2 25 46
25 30 0 54 -5 59 -12z m569 -980 c5 -7 2 -8 -7 -3 -8 5 -11 4 -6 -1 4 -4 18
-9 30 -9 14 0 22 -6 22 -17 0 -26 9 -30 75 -31 43 -2 65 -7 73 -18 7 -9 23
-21 35 -28 16 -9 22 -19 19 -32 -3 -10 -1 -17 4 -13 5 3 9 1 9 -5 0 -6 9 -15
19 -20 14 -8 22 -7 32 7 13 16 12 16 -6 2 -19 -14 -19 -14 -6 3 10 13 24 17
42 15 16 -3 26 -1 23 4 -3 4 0 8 6 8 6 0 10 -10 8 -22 -2 -15 -9 -22 -20 -22
-10 1 -16 -1 -14 -5 2 -3 6 -71 7 -149 2 -79 8 -146 13 -149 5 -4 6 0 1 7 -5
9 -4 11 3 6 13 -8 16 -64 6 -90 -3 -9 -10 -13 -15 -10 -5 3 -6 -3 -2 -12 3
-10 2 -15 -3 -12 -5 4 -8 -56 -6 -149 2 -85 -1 -153 -5 -150 -4 3 -6 -26 -5
-65 2 -42 0 -68 -6 -64 -5 3 -7 -5 -5 -19 3 -13 -2 -34 -11 -47 -9 -12 -16
-36 -16 -53 -1 -16 -8 -59 -16 -95 -9 -36 -18 -77 -21 -92 -3 -15 -9 -25 -14
-22 -5 3 -6 -2 -3 -11 8 -21 -4 -67 -16 -60 -5 3 -7 0 -5 -8 3 -7 -3 -22 -15
-32 -11 -10 -20 -24 -20 -32 0 -7 -9 -13 -20 -13 -13 0 -20 -7 -20 -20 0 -13
-10 -24 -25 -30 -14 -5 -25 -15 -25 -21 0 -6 -9 -9 -20 -6 -11 3 -23 0 -27 -5
-4 -7 -1 -8 7 -3 9 5 11 4 6 -3 -5 -8 -46 -12 -123 -12 l-115 0 4 29 c4 24 1
27 -16 23 -15 -4 -18 -1 -13 12 5 11 3 15 -5 10 -7 -5 -9 0 -6 14 4 12 2 20
-3 16 -5 -3 -9 4 -9 14 0 13 -9 22 -25 26 -14 4 -25 13 -25 22 0 8 -7 17 -15
20 -18 7 -21 79 -3 90 7 5 8 2 3 -7 -5 -8 -6 -12 -2 -9 3 3 6 10 7 15 7 37 21
45 88 46 107 2 116 7 120 62 2 26 6 46 10 43 4 -2 5 20 4 50 -4 60 4 108 17
100 4 -3 4 20 0 51 -9 64 10 108 43 100 10 -3 21 0 25 5 4 7 1 8 -7 3 -9 -6
-11 -4 -6 4 5 7 14 10 22 7 8 -3 11 0 8 8 -3 7 2 19 11 26 12 10 15 37 15 134
0 112 -2 122 -21 134 -13 9 -18 19 -14 30 3 9 3 14 0 10 -4 -3 -16 3 -28 15
-19 19 -23 36 -25 109 -2 47 0 107 6 132 5 25 6 43 1 40 -5 -3 -9 2 -9 11 0 9
3 14 8 12 4 -3 7 23 7 58 0 35 -3 61 -7 58 -10 -5 -11 81 -1 90 9 9 11 9 19
-5z m-608 -146 c2 -94 6 -142 13 -142 7 0 9 -12 7 -30 -3 -17 0 -34 5 -37 6
-4 7 -1 2 7 -5 9 -4 11 3 6 17 -10 16 -99 0 -90 -10 6 -10 4 0 -7 15 -17 18
-354 2 -344 -5 3 -10 2 -10 -4 0 -7 -8 -7 -25 1 -13 6 -22 15 -19 19 3 5 -3 6
-12 2 -11 -4 -15 -2 -11 4 4 6 -3 8 -18 5 l-25 -4 0 377 0 377 29 -4 c17 -2
27 0 24 5 -3 5 3 7 13 5 17 -3 19 -16 22 -146z m-20 -1824 c16 -16 17 -490 1
-520 -8 -15 -8 -19 0 -14 7 5 11 -5 11 -26 0 -19 5 -39 11 -45 13 -13 3 -36
-12 -28 -5 4 -9 2 -9 -2 0 -5 -24 -6 -52 -3 l-53 5 0 292 c0 237 3 294 14 305
12 11 13 11 6 -1 -5 -10 -4 -12 4 -7 6 4 9 12 5 17 -19 32 46 55 74 27z m1958
-163 c-3 -9 0 -12 9 -9 14 6 45 -42 45 -71 0 -9 7 -18 15 -21 17 -7 22 -94 5
-94 -5 0 -9 -3 -9 -7 3 -18 -2 -34 -8 -30 -5 3 -8 -23 -9 -57 0 -69 -11 -119
-23 -112 -4 3 -6 -5 -4 -17 2 -12 -4 -39 -15 -60 l-19 -39 -12 30 c-9 21 -11
76 -7 198 8 257 16 342 28 321 5 -10 7 -24 4 -32z m-3428 -676 c-2 -42 0 -76
3 -74 3 2 5 -65 5 -150 0 -84 -3 -152 -6 -150 -3 2 -5 -21 -5 -50 0 -29 3 -51
8 -48 4 2 7 -68 7 -156 0 -108 -4 -162 -11 -167 -8 -5 -10 4 -7 29 2 20 0 33
-4 31 -11 -7 -10 101 1 148 5 21 5 35 0 33 -10 -7 -12 602 -1 665 l7 45 3 -39
c2 -22 2 -74 0 -117z m1498 -229 c13 -32 23 -42 53 -50 20 -5 43 -10 51 -10 8
0 29 -9 47 -20 28 -17 54 -20 209 -22 147 -3 178 -6 187 -19 7 -9 42 -22 80
-29 37 -7 71 -18 75 -25 5 -8 50 -14 138 -18 108 -4 137 -9 165 -26 24 -15 51
-21 94 -21 93 0 225 -12 220 -20 -2 -4 8 -5 23 -2 l27 5 -23 -26 c-13 -13 -44
-30 -70 -37 -26 -7 -51 -18 -57 -24 -18 -20 -63 -39 -79 -33 -9 4 -15 3 -15
-1 4 -22 -4 -31 -31 -37 -16 -4 -30 -13 -30 -20 0 -16 -30 -35 -55 -35 -9 0
-31 -11 -49 -25 -18 -14 -40 -25 -49 -25 -10 0 -17 -7 -17 -15 0 -8 -17 -22
-37 -30 -21 -9 -44 -21 -53 -28 -8 -7 -33 -19 -55 -26 -22 -8 -42 -17 -45 -20
-3 -4 -24 -15 -47 -25 -24 -11 -43 -22 -43 -26 0 -4 -21 -13 -47 -20 -27 -8
-52 -19 -56 -27 -4 -7 -16 -13 -26 -13 -10 0 -34 -11 -54 -24 -19 -13 -49 -27
-65 -31 -17 -3 -48 -15 -69 -25 -21 -9 -53 -21 -71 -25 -18 -4 -38 -15 -45
-26 -8 -13 -23 -19 -48 -19 -20 0 -57 -11 -83 -25 -26 -14 -56 -25 -68 -25
-19 0 -88 -64 -88 -81 0 -12 56 -49 73 -49 9 0 18 4 21 9 3 5 36 14 73 21 38
7 73 19 78 25 16 20 82 28 88 11 7 -18 -1 -26 -29 -26 -12 0 -31 -11 -42 -25
-11 -14 -25 -25 -31 -25 -16 0 -81 -33 -81 -41 0 -3 -22 -9 -49 -13 -29 -4
-51 -12 -55 -21 -3 -8 -12 -15 -19 -15 -8 0 -22 -9 -32 -20 -18 -20 -19 -20
-29 -3 -12 20 -19 901 -10 1116 l6 127 64 0 64 0 16 -40z m1794 -475 c0 -25 5
-45 12 -47 7 -3 17 -24 23 -49 13 -51 0 -138 -22 -146 -7 -3 -13 -11 -13 -19
0 -7 -19 -19 -42 -26 -24 -6 -47 -18 -51 -25 -4 -7 -17 -13 -27 -13 -13 0 -20
-7 -20 -20 0 -34 -72 -56 -84 -25 -9 24 6 209 18 224 6 8 13 41 16 75 l5 60
40 8 c22 5 45 14 50 21 13 16 66 35 83 29 7 -2 12 -22 12 -47z m-2280 -49 c0
-30 -6 -34 -56 -42 -22 -3 -43 -12 -47 -20 -12 -21 -165 -20 -174 2 -3 8 -17
20 -31 25 -46 17 -10 31 64 25 94 -7 104 -9 104 -18 0 -4 9 -8 20 -8 11 0 20
4 20 9 0 5 14 12 31 16 17 4 33 13 36 21 9 24 33 16 33 -10z m1944 -4 c10 -16
-10 -313 -21 -320 -5 -4 -13 -17 -17 -28 -12 -39 -54 -71 -101 -79 -25 -3 -45
-10 -45 -15 0 -5 -20 -19 -45 -30 -25 -11 -45 -25 -45 -30 0 -6 -8 -10 -19
-10 -27 0 -43 -24 -39 -62 3 -32 5 -33 49 -36 39 -2 47 0 51 16 3 11 18 22 34
26 16 4 39 17 51 28 11 11 39 22 62 25 l41 6 0 -96 c0 -93 -1 -95 -25 -101
-14 -4 -25 -13 -25 -20 0 -8 -20 -19 -47 -25 -26 -7 -59 -21 -74 -32 -15 -10
-36 -19 -46 -19 -11 0 -33 -11 -49 -25 -16 -14 -34 -25 -41 -25 -7 0 -23 -11
-37 -25 -14 -14 -36 -25 -49 -25 -16 0 -26 -7 -30 -20 -3 -12 -14 -20 -27 -20
-13 0 -24 -8 -27 -19 -3 -12 -17 -23 -35 -26 -16 -4 -39 -18 -51 -31 -11 -13
-29 -24 -39 -24 -11 0 -36 -11 -56 -25 -20 -14 -49 -25 -64 -25 -15 0 -31 -6
-35 -13 -4 -8 -21 -21 -38 -29 -74 -39 -103 -55 -132 -76 -17 -12 -38 -22 -46
-22 -8 0 -17 -6 -20 -12 -2 -7 -26 -19 -52 -27 -26 -8 -58 -24 -72 -37 -14
-13 -32 -24 -39 -24 -8 0 -23 -9 -34 -20 -11 -11 -38 -23 -60 -26 -22 -4 -40
-12 -40 -19 0 -7 -20 -16 -47 -20 -27 -4 -50 -10 -53 -13 -8 -10 -43 -32 -62
-38 -10 -4 -18 -12 -18 -19 0 -8 -17 -16 -40 -20 -40 -7 -60 -2 -60 17 0 5 -9
21 -20 35 -18 23 -20 41 -20 194 0 106 4 169 10 169 6 0 10 9 10 19 0 11 5 23
10 26 6 4 10 56 10 125 l0 118 35 22 c19 12 50 24 69 27 21 3 36 12 39 23 3
10 18 20 40 24 20 4 42 15 50 26 7 10 26 22 42 26 17 4 46 15 65 26 19 10 47
18 62 18 l28 0 0 -120 c0 -112 -1 -120 -19 -120 -11 0 -32 -11 -47 -25 -15
-14 -37 -25 -50 -25 -13 0 -28 -9 -34 -20 -7 -13 -21 -20 -41 -20 -16 0 -46
-10 -67 -23 -20 -13 -45 -26 -54 -30 -10 -3 -18 -14 -18 -22 0 -9 -7 -24 -16
-33 -15 -14 -15 -17 2 -29 10 -7 38 -13 64 -13 34 0 52 6 72 25 15 14 34 25
41 25 8 0 21 10 29 21 9 15 30 24 67 30 30 4 58 6 63 3 4 -3 8 -47 8 -99 0
-54 4 -97 10 -100 6 -4 29 -4 50 0 39 7 40 8 40 49 0 24 3 77 6 119 5 57 10
74 20 70 8 -3 18 5 24 21 7 18 17 26 34 26 34 0 56 10 56 25 0 16 23 25 66 25
27 0 34 4 34 19 0 11 9 23 21 26 16 5 19 14 17 38 -2 26 -9 33 -36 41 -25 7
-36 5 -50 -6 -9 -9 -36 -19 -59 -23 -24 -4 -43 -11 -43 -16 0 -5 -9 -9 -20 -9
-18 0 -20 7 -20 79 0 44 -4 83 -10 86 -16 10 -11 78 8 100 9 12 33 30 52 40
19 11 39 25 45 31 5 6 25 14 43 18 19 3 46 14 60 25 15 10 51 22 80 26 28 4
52 10 52 13 0 11 52 32 77 32 l23 0 0 -230 0 -230 25 -10 c14 -5 25 -14 25
-20 0 -5 6 -10 14 -10 19 0 26 49 31 200 2 63 9 138 15 165 7 28 13 88 14 134
2 79 4 86 35 117 17 19 41 34 52 34 11 0 22 7 25 15 3 8 22 19 42 26 21 6 42
17 47 24 6 6 27 15 47 19 21 4 42 15 48 25 5 10 25 22 44 25 20 4 41 16 50 31
12 19 25 25 51 25 18 0 36 -4 39 -8z m-4128 -153 c32 -7 65 -17 73 -23 8 -6
72 -12 150 -14 75 -2 152 -7 171 -13 19 -5 52 -9 72 -9 20 0 39 -4 42 -9 3 -5
31 -12 61 -16 47 -5 55 -9 56 -28 0 -12 2 -96 3 -187 1 -99 6 -173 13 -185 6
-11 14 -85 17 -164 l7 -143 -73 7 c-40 3 -103 7 -139 9 -37 2 -76 9 -87 15
-11 6 -30 11 -42 11 -22 0 -40 33 -40 76 0 16 -6 24 -18 24 -9 0 -23 9 -30 20
l-13 21 -26 -21 c-33 -26 -67 -26 -104 1 -16 11 -48 22 -71 25 -23 2 -46 8
-52 14 -17 17 -12 190 5 201 8 5 44 9 80 9 79 0 105 15 95 54 -8 31 -55 56
-105 56 -17 0 -35 8 -43 18 -7 10 -21 21 -30 25 -10 3 -18 15 -18 25 0 10 -8
26 -18 36 -11 9 -24 34 -31 56 -6 22 -16 40 -21 40 -11 0 -23 56 -15 70 8 13
58 13 131 -1z m867 -68 c27 -10 36 -34 17 -46 -19 -11 -10 -50 18 -76 21 -21
41 -28 95 -34 44 -4 65 -10 61 -17 -5 -7 -2 -8 5 -3 8 4 21 -1 32 -14 17 -18
31 -21 104 -21 47 0 85 -4 85 -9 0 -4 21 -19 46 -32 l45 -24 -6 -145 c-3 -80
-8 -190 -11 -245 -3 -56 -1 -122 5 -150 6 -27 13 -71 16 -97 4 -30 11 -48 20
-48 7 0 15 -7 19 -15 4 -12 -4 -15 -38 -15 -25 0 -48 6 -55 14 -7 8 -40 15
-83 18 -55 4 -75 10 -87 26 -11 14 -32 21 -70 25 -32 2 -59 11 -65 19 -6 8
-26 22 -43 32 -18 9 -33 20 -33 25 0 5 -18 11 -39 15 -60 9 -83 49 -89 150 -3
48 -10 85 -18 91 -7 6 -15 45 -19 90 -10 117 -16 471 -8 491 6 17 42 16 96 -5z
m712 -357 c55 -13 141 -27 190 -32 50 -5 123 -19 163 -31 39 -11 86 -20 103
-19 37 3 62 -23 41 -44 -18 -18 -84 -11 -171 18 -42 14 -123 32 -181 40 -58 8
-126 21 -152 29 -40 11 -48 11 -58 0 -15 -19 -5 -34 18 -28 11 2 36 -2 56 -11
29 -12 41 -13 56 -4 15 10 30 8 73 -5 29 -9 69 -17 88 -17 66 0 99 -48 64 -94
-11 -14 -12 -24 -4 -38 7 -13 10 -89 7 -209 -3 -203 -9 -226 -49 -200 -15 9
-25 9 -32 2 -7 -7 -6 -12 4 -15 8 -2 37 -11 64 -21 28 -9 58 -19 67 -22 16 -5
17 1 13 58 -2 35 -7 148 -9 251 -3 104 -8 199 -12 213 -7 30 14 42 45 25 28
-14 27 -33 -1 -25 -18 6 -20 4 -14 -11 4 -11 10 -44 12 -74 10 -121 25 -276
30 -297 5 -27 20 -29 62 -7 23 11 32 22 32 40 0 13 -5 24 -11 24 -6 0 -8 -7
-5 -16 5 -13 2 -15 -14 -11 -11 3 -18 1 -14 -4 3 -5 1 -9 -5 -9 -15 0 -31 35
-31 69 0 36 13 47 31 24 12 -14 12 -16 -1 -8 -8 4 -12 5 -8 1 3 -4 8 -7 10 -5
1 1 13 -3 24 -9 20 -11 22 -8 27 41 4 31 2 65 -5 85 -10 25 -10 35 -1 40 7 4
13 37 15 72 l3 65 40 -2 c22 -1 71 -3 110 -5 56 -2 70 -6 73 -20 2 -12 -5 -19
-22 -24 -14 -3 -26 -7 -26 -8 0 -2 9 -38 21 -82 18 -69 20 -104 18 -284 -3
-258 -4 -244 23 -237 25 7 48 -8 48 -32 -1 -29 -100 -80 -100 -51 0 6 -28 10
-64 10 -62 0 -65 1 -83 33 -21 35 -50 146 -60 226 -5 47 -8 52 -27 47 -12 -3
-30 -6 -40 -6 -18 0 -19 -6 -13 -97 4 -53 11 -101 17 -107 15 -15 12 -42 -7
-61 -32 -33 -113 -2 -133 51 -14 35 -107 81 -180 89 -36 4 -72 13 -80 20 -8 8
-31 15 -50 17 -33 3 -35 5 -41 48 -3 25 -14 62 -23 84 -14 31 -16 51 -9 100
15 114 1 286 -23 286 -25 0 -37 41 -31 106 4 43 2 64 -5 66 -7 3 -9 12 -5 22
5 14 13 16 30 11 12 -4 67 -17 122 -31z"/>
<path d="M4204 2397 c3 -36 11 -79 17 -97 7 -19 8 -50 4 -78 -15 -92 -10 -154
16 -214 18 -40 29 -54 36 -47 7 7 7 19 -3 37 -20 42 -33 177 -27 298 l6 110
-28 28 -28 28 7 -65z"/>
<path d="M7907 10377 c-8 -21 25 -55 63 -64 28 -7 36 -15 38 -36 2 -15 7 -27
12 -27 5 0 12 -9 15 -20 3 -11 13 -20 22 -20 8 0 17 -9 20 -19 3 -12 17 -23
34 -26 25 -6 29 -12 34 -53 15 -117 29 -183 42 -193 7 -6 13 -20 13 -30 0 -11
7 -19 15 -19 12 0 15 -13 15 -60 0 -47 -3 -60 -15 -60 -8 0 -15 -4 -15 -9 0
-5 -9 -13 -20 -16 -11 -3 -20 -14 -21 -23 0 -14 -2 -13 -9 3 -7 16 -9 12 -9
-18 -1 -34 2 -38 29 -43 23 -5 30 -12 30 -30 0 -14 6 -24 13 -24 10 0 16 -27
22 -102 4 -57 10 -141 14 -188 l6 -85 39 -3 c31 -3 44 2 62 21 23 25 23 30 28
328 3 167 3 339 -1 382 -5 66 -8 77 -24 77 -11 0 -19 5 -19 10 0 14 -31 12
-81 -5 -62 -22 -68 -13 -72 109 -1 44 -7 71 -15 74 -6 2 -12 12 -12 23 0 10
-4 19 -10 19 -5 0 -10 9 -10 20 0 11 -7 20 -15 20 -8 0 -22 11 -31 25 -12 19
-25 25 -51 25 -22 0 -43 8 -61 25 -29 27 -67 33 -75 12z"/>
<path d="M3030 10241 c0 -5 -13 -14 -30 -21 l-30 -12 0 -162 c0 -175 3 -186
53 -186 30 0 81 32 70 44 -3 3 -1 6 5 6 7 0 10 48 10 147 0 145 -1 146 -27
169 -27 24 -51 31 -51 15z"/>
<path d="M790 10194 c0 -10 -6 -25 -14 -33 -16 -19 -36 -180 -36 -293 0 -83 0
-83 -34 -110 -20 -16 -47 -28 -64 -28 -33 0 -42 -14 -35 -53 5 -24 10 -27 43
-27 21 0 43 7 50 15 7 8 16 15 20 15 17 0 30 -69 37 -192 3 -71 10 -131 15
-134 12 -8 10 -98 -3 -111 -7 -7 -13 -97 -16 -252 -5 -212 -4 -244 11 -266 19
-29 22 -64 32 -398 4 -142 11 -260 15 -263 13 -8 11 -82 -3 -86 -8 -3 -13 -73
-16 -237 l-5 -233 -23 -9 c-20 -7 -24 -16 -24 -47 0 -31 5 -41 24 -50 27 -12
36 -58 36 -183 0 -42 5 -101 12 -129 9 -38 9 -56 1 -69 -13 -21 -29 -833 -18
-900 7 -40 8 -41 45 -41 l38 0 6 53 c13 102 18 127 27 133 13 8 11 35 -6 68
-21 41 -19 93 5 113 25 22 25 52 -1 109 -19 43 -20 51 -8 137 15 105 17 134
25 464 l7 242 51 7 c28 4 62 8 75 10 13 1 27 8 31 14 5 8 18 10 41 4 50 -12
52 -12 78 8 13 10 32 18 42 18 15 0 19 7 19 34 0 32 -1 34 -47 40 -52 6 -104
-3 -100 -19 3 -14 -43 -19 -56 -6 -6 6 -35 11 -64 11 -45 0 -57 4 -84 31 -31
30 -31 33 -24 87 9 64 9 80 -1 134 -4 25 -1 52 10 79 17 41 14 93 -6 131 -6
13 -3 23 12 38 18 18 20 33 20 188 0 127 -3 172 -14 188 -21 29 -24 83 -6 94
8 5 66 10 129 10 89 0 118 3 132 16 10 9 50 19 95 24 164 19 268 58 226 84
-31 19 -364 13 -543 -10 -38 -5 -48 -3 -55 13 -5 10 -10 268 -11 573 -1 305
-2 561 -3 568 0 6 -10 12 -21 12 -21 0 -21 1 -18 213 l4 212 -27 3 c-21 3 -28
-1 -28 -14z"/>
<path d="M7183 10203 c-13 -2 -23 -10 -24 -16 0 -7 0 -51 1 -98 2 -128 0 -129
-170 -129 -158 1 -213 0 -216 -3 -1 -1 -5 -16 -9 -34 l-6 -32 192 -1 c116 0
197 -4 203 -10 5 -5 18 -10 28 -10 10 0 18 -7 18 -15 0 -21 46 -19 79 4 26 19
129 44 143 34 5 -2 8 3 8 11 0 9 -6 16 -13 16 -8 0 -20 11 -27 25 -7 14 -22
25 -32 25 -12 0 -18 7 -18 23 0 12 -6 33 -13 47 -7 14 -19 51 -26 82 -8 31
-17 61 -20 66 -7 12 -68 22 -98 15z"/>
<path d="M9337 9064 c-4 -4 -7 -15 -7 -25 0 -10 -8 -22 -17 -28 -22 -12 -30
-132 -25 -353 4 -126 7 -158 18 -158 18 0 20 -96 2 -103 -10 -3 -10 -11 0 -39
6 -19 12 -53 12 -76 0 -47 39 -131 58 -125 6 3 10 9 7 13 -3 5 6 19 19 32 l25
23 1 345 c1 449 1 463 -8 477 -9 14 -74 27 -85 17z"/>
<path d="M3081 8608 c-32 -84 -41 -179 -20 -204 8 -10 21 -309 19 -437 0 -23
46 -45 62 -29 7 7 11 89 10 259 -1 406 0 400 -18 417 -22 22 -43 20 -53 -6z"/>
<path d="M3590 8261 c-14 -4 -29 -17 -35 -29 -6 -13 -19 -22 -32 -22 -18 0
-23 -6 -23 -25 0 -20 -5 -25 -25 -25 -15 0 -25 -6 -25 -15 0 -8 -9 -19 -20
-25 -11 -6 -20 -19 -20 -30 0 -13 -9 -22 -25 -26 -14 -3 -25 -12 -25 -20 0 -7
-11 -16 -25 -20 -16 -4 -25 -13 -25 -25 0 -11 -10 -24 -22 -29 -13 -6 -36 -19
-53 -29 -16 -11 -37 -20 -46 -20 -21 -1 -79 -51 -79 -67 0 -17 -52 -74 -67
-74 -6 0 -14 -9 -18 -19 -3 -10 -17 -22 -30 -25 -14 -4 -25 -13 -25 -20 0 -20
-54 -36 -122 -36 -51 0 -61 -3 -65 -20 -3 -11 -12 -20 -19 -20 -8 0 -14 -4
-14 -8 0 -19 15 -21 37 -7 23 15 23 15 23 -25 0 -22 -5 -40 -11 -40 -5 0 -15
-13 -20 -30 -6 -16 -17 -30 -23 -30 -7 0 -18 -11 -24 -25 -6 -14 -16 -25 -22
-25 -14 0 -13 -20 3 -53 9 -21 19 -27 43 -27 19 0 34 6 38 15 3 8 12 15 21 15
8 0 15 7 15 15 0 9 8 19 17 22 23 9 178 163 186 184 3 9 20 19 38 23 18 3 38
15 46 26 8 11 23 20 33 20 10 0 21 9 25 19 4 12 12 18 21 14 10 -4 14 3 14 24
0 22 7 33 25 41 14 6 25 18 25 27 0 8 11 17 25 21 14 3 22 10 19 16 -8 12 60
78 81 78 8 0 15 8 15 19 0 12 9 21 25 25 16 4 25 13 25 26 0 10 9 21 19 25 10
3 21 15 24 25 3 12 14 20 26 20 12 0 21 6 21 15 0 9 17 20 45 27 32 9 45 17
45 30 0 11 11 23 25 28 20 8 25 16 25 44 0 19 -3 37 -7 39 -18 10 -60 14 -83
8z"/>
<path d="M8307 8123 c-4 -3 -7 -15 -7 -25 0 -11 -11 -36 -25 -56 -22 -32 -25
-47 -25 -122 0 -83 1 -87 32 -119 26 -27 36 -31 62 -25 17 3 33 8 36 11 8 7 4
319 -4 332 -8 12 -58 15 -69 4z"/>
<path d="M9348 7872 c-10 -2 -18 -12 -18 -22 0 -11 -7 -23 -16 -28 -21 -12
-33 -155 -34 -407 0 -202 5 -240 39 -274 22 -22 51 -28 51 -11 0 6 12 22 28
36 l27 26 3 316 c2 227 0 323 -9 338 -12 23 -40 33 -71 26z"/>
<path d="M9299 6153 c-11 -12 -15 -63 -17 -202 -3 -167 -2 -187 14 -198 29
-21 72 -16 85 9 7 13 18 29 26 36 17 18 17 64 -2 109 -9 22 -15 67 -15 118 0
108 -13 145 -50 145 -15 0 -34 -7 -41 -17z"/>
<path d="M796 5958 c-3 -13 -6 -129 -6 -258 0 -186 -3 -248 -16 -295 -13 -48
-16 -108 -15 -304 1 -159 5 -248 12 -257 9 -11 32 -268 28 -313 -4 -47 4 -72
32 -101 47 -47 60 -29 57 79 -1 47 -2 131 -1 186 0 55 0 242 0 415 0 173 1
423 3 555 3 206 1 245 -13 278 -13 31 -21 37 -45 37 -22 0 -31 -6 -36 -22z"/>
<path d="M2280 5500 c0 -5 -6 -10 -14 -10 -7 0 -20 -9 -27 -21 -12 -17 -27
-22 -85 -24 -39 -2 -83 -9 -98 -15 -39 -14 -76 -13 -76 4 0 7 -15 25 -33 38
-34 27 -62 24 -99 -9 -20 -18 -26 -119 -9 -151 39 -74 43 -95 37 -191 -18
-261 -6 -655 19 -665 6 -2 27 -1 45 3 26 5 36 13 42 36 5 17 8 209 6 427 -2
397 -2 397 19 418 13 11 36 20 54 20 40 0 110 20 104 30 -9 14 23 31 59 33 20
1 36 7 36 14 0 6 10 13 23 15 27 4 39 58 13 58 -9 0 -16 -4 -16 -10z"/>
<path d="M9242 3752 c-39 -6 -52 -58 -52 -207 l0 -133 -46 -7 c-25 -3 -48 -4
-51 -1 -9 9 -43 -14 -43 -29 0 -8 -9 -15 -21 -15 -17 0 -20 -5 -17 -41 l3 -40
59 -4 c78 -5 108 -27 121 -90 8 -36 16 -50 35 -57 34 -13 46 -5 60 39 18 56
27 63 81 63 39 0 54 5 79 29 26 23 31 35 28 62 l-3 34 -60 3 c-42 2 -64 8 -72
19 -9 12 -13 60 -13 154 0 121 -2 139 -20 162 -11 14 -20 30 -20 35 0 16 -24
28 -48 24z"/>
<path d="M843 3717 c-4 -8 -15 -16 -24 -19 -23 -9 -27 -86 -25 -471 1 -244 4
-330 13 -335 14 -9 12 -213 -2 -246 -4 -10 -4 -21 2 -25 22 -15 33 -116 25
-221 -5 -58 -6 -132 -1 -165 4 -33 8 -70 8 -82 1 -20 6 -23 44 -23 63 0 71 27
58 212 -12 167 -13 418 -3 434 4 6 29 14 56 18 27 3 57 13 67 21 9 9 40 20 70
24 33 5 59 16 69 28 10 13 35 23 65 27 28 5 55 12 61 17 7 5 45 16 85 25 41 8
79 21 85 29 7 9 28 15 50 15 22 0 58 9 79 21 22 11 75 27 118 35 44 8 85 21
94 29 8 8 31 15 52 15 44 0 101 18 101 31 0 5 3 8 8 7 20 -5 142 15 167 28 15
8 42 14 60 14 39 0 48 17 39 76 -4 31 -12 44 -30 53 -13 6 -24 15 -24 21 0 18
-29 11 -40 -9 -6 -13 -26 -22 -55 -27 -25 -3 -57 -16 -72 -27 -16 -13 -49 -24
-85 -28 -33 -4 -67 -14 -77 -23 -9 -9 -33 -18 -52 -22 -19 -3 -47 -12 -64 -19
-16 -8 -59 -19 -95 -25 -36 -7 -68 -16 -71 -22 -4 -5 -44 -16 -89 -24 -46 -8
-88 -21 -94 -28 -6 -7 -33 -19 -61 -25 -27 -7 -60 -19 -71 -26 -12 -8 -45 -17
-73 -21 -28 -4 -51 -10 -51 -14 0 -4 -42 -16 -92 -25 -51 -10 -96 -23 -100
-28 -4 -7 -11 -7 -21 2 -11 8 -16 38 -19 102 -2 73 -6 92 -20 100 -13 7 -18
23 -18 59 0 26 5 50 11 52 15 5 32 178 25 253 -3 33 -7 90 -8 127 -3 54 -7 71
-27 92 -28 29 -37 32 -48 13z"/>
<path d="M6869 2014 c-12 -15 4 -59 22 -60 8 0 29 -2 47 -2 21 -1 43 -12 59
-28 17 -17 43 -28 79 -34 29 -5 63 -15 76 -24 13 -8 61 -17 108 -21 47 -4 112
-16 144 -26 70 -24 237 -31 257 -12 16 16 -33 63 -85 82 -21 7 -47 22 -57 32
-13 13 -33 19 -68 19 -34 0 -58 7 -83 23 -27 19 -52 25 -120 29 -55 4 -94 12
-111 22 -20 14 -46 17 -142 14 -71 -2 -120 -7 -126 -14z"/>
<path d="M847 1854 c-3 -3 -33 -9 -68 -14 -34 -5 -65 -14 -69 -20 -3 -5 -26
-16 -51 -23 -41 -12 -44 -15 -47 -50 -2 -28 1 -37 12 -37 9 0 16 -7 16 -15 0
-15 49 -45 74 -45 8 0 19 -7 24 -15 5 -10 31 -18 76 -22 53 -5 70 -10 73 -23
5 -20 60 -32 105 -23 28 6 29 7 26 62 -2 41 -7 56 -18 58 -94 10 -162 28 -184
47 -39 32 -33 52 17 62 32 7 43 14 45 30 3 20 -19 39 -31 28z"/>
<path d="M7867 1776 c-3 -7 -24 -16 -47 -20 -30 -5 -43 -12 -47 -26 -3 -11
-10 -20 -16 -20 -19 0 -141 -64 -158 -82 -9 -10 -25 -18 -36 -18 -11 0 -33
-11 -49 -25 -16 -14 -37 -25 -46 -25 -9 0 -23 -6 -30 -13 -7 -8 -30 -17 -51
-21 -27 -5 -40 -14 -47 -32 -5 -13 -16 -24 -23 -24 -8 0 -19 -11 -25 -25 -6
-14 -18 -25 -25 -25 -8 0 -19 -10 -25 -22 -7 -13 -17 -30 -23 -39 -9 -12 -6
-21 14 -41 28 -28 67 -45 67 -30 0 5 20 16 45 23 25 7 45 18 45 24 0 6 12 16
28 23 29 13 82 49 121 81 13 12 34 21 47 21 12 0 29 6 36 13 21 21 54 37 77
37 12 0 21 6 21 13 0 12 68 47 92 47 6 0 8 3 5 7 -12 11 14 33 39 33 12 0 29
8 36 19 7 10 23 21 34 25 58 18 51 118 -8 130 -42 8 -45 8 -51 -8z"/>
<path d="M8132 1709 c-26 -25 -31 -35 -26 -57 4 -15 10 -28 15 -30 4 -2 20
-14 36 -28 33 -28 41 -31 148 -39 44 -3 87 -12 95 -19 8 -8 26 -17 40 -20 30
-9 73 -29 80 -38 3 -3 55 -14 115 -23 61 -10 118 -21 127 -26 10 -5 43 -12 75
-15 38 -5 64 -14 77 -27 16 -17 28 -19 83 -14 73 6 82 10 65 37 -7 11 -12 28
-12 38 0 31 -33 60 -83 73 -26 6 -47 15 -47 20 0 4 -21 11 -47 15 -27 4 -59
14 -73 24 -14 10 -47 21 -74 24 -47 7 -84 22 -97 38 -6 9 -127 39 -249 63 -47
9 -86 21 -88 26 -2 5 -31 9 -65 9 -55 0 -66 -3 -95 -31z"/>
<path d="M2628 1653 c-16 -3 -28 -11 -28 -19 0 -8 -11 -19 -25 -24 -13 -5 -33
-18 -44 -29 -11 -11 -33 -24 -48 -27 -16 -4 -33 -14 -39 -22 -6 -9 -20 -17
-30 -18 -10 -2 -20 -8 -22 -14 -2 -6 -10 -17 -18 -24 -8 -8 -14 -24 -14 -35 0
-23 -2 -23 -75 -21 -53 1 -97 -11 -120 -33 -20 -20 -125 -41 -138 -28 -6 6
-19 11 -29 11 -9 0 -28 11 -42 25 -14 14 -35 25 -48 25 -13 0 -36 11 -52 25
-16 14 -37 25 -47 25 -24 0 -69 21 -69 32 0 4 -29 8 -65 8 -39 0 -65 -4 -65
-10 0 -6 -12 -22 -26 -37 -25 -25 -25 -25 -5 -40 12 -8 21 -20 21 -26 0 -7 20
-20 45 -30 25 -11 45 -22 45 -27 0 -4 26 -10 58 -14 63 -8 135 -43 140 -69 2
-11 -6 -21 -22 -27 -14 -5 -35 -19 -46 -30 -12 -12 -31 -20 -43 -20 -59 5 -75
0 -81 -25 -5 -18 -13 -25 -32 -25 -23 0 -25 -3 -22 -37 4 -46 25 -53 67 -24
16 12 39 21 51 21 12 0 33 9 47 20 17 13 41 20 69 20 33 0 44 4 49 19 3 12 23
24 50 32 25 7 45 19 45 25 0 12 18 17 123 34 32 6 65 17 73 25 9 8 22 15 30
15 8 0 17 7 20 15 4 8 12 15 20 15 24 0 54 33 60 68 8 43 29 51 60 21 19 -17
27 -20 36 -11 7 7 18 12 26 12 8 0 31 13 52 30 20 16 56 32 78 36 28 4 43 13
47 25 4 11 15 19 26 19 11 0 24 11 31 25 6 14 17 25 25 25 9 0 13 14 13 44 0
56 -17 63 -112 49z"/>
</g>
</svg>
