<?xml version="1.0" standalone="no"?>
<!DOCTYPE svg PUBLIC "-//W3C//DTD SVG 20010904//EN"
 "http://www.w3.org/TR/2001/REC-SVG-20010904/DTD/svg10.dtd">
<svg version="1.0" xmlns="http://www.w3.org/2000/svg"
 width="833.000000pt" height="704.000000pt" viewBox="0 0 833.000000 704.000000"
 preserveAspectRatio="xMidYMid meet">
<metadata>
Created by potrace 1.16, written by Peter Selinger 2001-2019
</metadata>
<g transform="translate(0.000000,704.000000) scale(0.100000,-0.100000)"
fill="#000000" stroke="none">
<path d="M3880 6361 c-74 -4 -148 -12 -163 -19 -18 -8 -80 -12 -172 -12 -82 0
-156 -5 -172 -11 -15 -6 -55 -12 -88 -13 -119 -5 -230 -19 -245 -32 -9 -7 -43
-16 -75 -19 -33 -4 -78 -12 -100 -20 -22 -7 -68 -15 -102 -18 -35 -3 -69 -11
-77 -20 -8 -8 -37 -17 -65 -21 -29 -4 -54 -13 -59 -22 -5 -9 -31 -18 -63 -23
-30 -4 -64 -13 -75 -19 -12 -6 -47 -15 -77 -18 -31 -4 -58 -12 -61 -19 -2 -7
-20 -16 -38 -20 -18 -4 -42 -14 -53 -21 -11 -8 -36 -14 -56 -14 -22 0 -45 -8
-59 -20 -13 -11 -32 -20 -43 -20 -11 0 -25 -7 -31 -16 -7 -8 -32 -18 -56 -21
-25 -3 -50 -10 -55 -17 -15 -17 -53 -36 -70 -36 -8 0 -15 -7 -15 -15 0 -8 -15
-17 -37 -21 -21 -4 -44 -13 -51 -21 -7 -7 -22 -13 -31 -13 -10 0 -24 -7 -31
-15 -7 -8 -30 -20 -51 -25 -22 -6 -39 -15 -39 -19 0 -5 -16 -12 -36 -15 -19
-4 -44 -16 -55 -27 -10 -10 -28 -19 -39 -19 -11 0 -20 -7 -20 -15 0 -8 -11
-17 -24 -21 -14 -3 -32 -14 -42 -25 -9 -10 -26 -19 -36 -19 -11 0 -22 -9 -25
-20 -3 -12 -14 -20 -28 -20 -12 0 -32 -9 -45 -20 -13 -11 -27 -20 -32 -20 -4
0 -8 -6 -8 -14 0 -8 -9 -18 -20 -21 -11 -3 -20 -13 -20 -21 0 -8 -5 -14 -11
-14 -6 0 -22 -9 -36 -20 -14 -11 -36 -20 -50 -20 -13 0 -26 -8 -30 -17 -4 -10
-15 -24 -25 -31 -10 -7 -18 -18 -18 -23 0 -6 -7 -17 -15 -25 -8 -9 -15 -24
-15 -34 0 -16 -23 -35 -94 -77 -18 -11 -38 -41 -65 -99 -5 -12 -17 -24 -25
-27 -9 -4 -16 -13 -16 -20 0 -8 -7 -20 -15 -27 -8 -7 -15 -22 -15 -35 0 -12
-9 -30 -19 -39 -10 -10 -22 -33 -25 -52 -4 -20 -17 -41 -31 -50 -14 -9 -25
-22 -25 -29 0 -7 -7 -15 -15 -19 -8 -3 -15 -16 -15 -29 0 -13 -7 -32 -15 -43
-19 -25 -20 -110 0 -121 10 -6 16 -38 21 -123 4 -77 11 -122 22 -138 11 -16
14 -44 13 -91 -2 -55 2 -75 20 -106 17 -28 24 -58 27 -119 3 -54 9 -85 18 -92
8 -7 17 -36 21 -65 3 -30 11 -57 16 -61 6 -3 14 -36 18 -73 4 -38 13 -73 23
-84 9 -9 16 -30 16 -45 0 -15 9 -39 20 -53 11 -14 20 -37 20 -50 0 -30 28
-152 40 -175 6 -11 6 -19 -1 -24 -17 -10 -1 -152 21 -183 10 -15 21 -53 24
-90 3 -36 12 -72 20 -80 8 -9 17 -36 21 -61 4 -25 13 -56 20 -70 7 -14 16 -52
20 -85 4 -33 12 -65 17 -72 5 -6 12 -37 15 -67 3 -31 9 -56 14 -56 9 0 15 -22
51 -175 12 -55 29 -105 37 -111 8 -6 17 -45 22 -98 5 -49 16 -108 24 -132 8
-25 15 -57 15 -73 0 -15 9 -61 20 -102 11 -41 20 -95 20 -120 0 -31 5 -49 14
-52 8 -3 17 -21 21 -39 4 -18 12 -39 18 -46 7 -9 7 -20 -1 -37 -8 -18 -8 -26
3 -35 7 -6 16 -34 20 -61 4 -28 13 -63 21 -77 8 -15 14 -44 14 -64 0 -27 5
-38 19 -43 10 -3 22 -17 25 -30 10 -41 65 -113 96 -127 17 -7 30 -18 30 -23 0
-6 31 -15 69 -22 39 -6 77 -17 85 -25 8 -9 37 -18 64 -22 27 -3 52 -10 56 -14
4 -4 48 -12 98 -18 50 -6 93 -17 97 -23 4 -6 49 -14 107 -18 54 -3 105 -10
112 -16 7 -6 38 -14 68 -18 31 -4 61 -14 67 -22 7 -9 39 -17 80 -21 37 -4 78
-11 92 -16 15 -6 26 -6 30 0 4 6 55 10 114 10 85 0 111 -3 121 -15 7 -8 18
-14 24 -14 6 1 19 -1 28 -5 10 -5 26 -5 35 -1 10 4 50 6 90 5 54 -1 78 3 98
16 22 14 53 18 155 20 100 1 136 6 162 19 26 14 69 19 191 24 136 6 160 9 168
24 7 11 22 17 44 17 25 0 35 5 35 15 0 9 11 20 25 25 86 33 -52 51 -221 30
-43 -6 -137 -14 -209 -19 -77 -6 -142 -16 -160 -24 -16 -9 -70 -18 -120 -22
-49 -4 -95 -11 -101 -16 -23 -18 -99 -20 -159 -4 -37 9 -124 18 -225 22 -153
5 -170 8 -227 34 -34 15 -67 37 -73 48 -10 19 -20 21 -100 21 -49 0 -101 -5
-116 -10 -18 -7 -30 -7 -39 0 -7 6 -47 15 -90 20 -52 7 -82 15 -90 26 -7 10
-32 19 -63 22 -28 2 -57 11 -63 18 -6 8 -19 14 -29 14 -9 0 -29 9 -43 20 -18
15 -40 20 -84 20 -48 0 -62 4 -81 24 -12 13 -22 30 -22 37 0 8 -9 25 -20 39
-12 15 -20 41 -20 64 l0 38 37 -7 c21 -3 47 -9 58 -11 12 -3 36 5 56 19 20 14
54 30 75 37 22 7 43 19 47 26 4 8 14 14 21 14 8 0 16 7 20 15 3 10 19 15 45
15 38 0 39 -1 46 -40 7 -41 25 -56 25 -20 0 11 5 20 10 20 6 0 10 9 10 20 0
11 -3 20 -7 20 -10 0 -33 49 -33 70 0 9 5 21 11 27 8 8 5 14 -10 23 -12 6 -19
15 -16 21 4 5 -5 13 -19 19 -14 5 -26 16 -26 25 0 19 36 55 55 55 9 0 18 7 22
16 3 8 23 22 44 31 38 15 39 17 39 64 0 36 -4 49 -15 49 -20 0 -55 84 -55 132
0 22 -11 63 -25 92 -25 52 -26 54 -84 66 -33 7 -72 9 -88 5 -15 -4 -53 -11
-83 -15 -30 -4 -68 -13 -85 -19 -16 -6 -56 -13 -88 -17 -66 -6 -86 -28 -49
-52 12 -8 22 -20 22 -28 0 -7 10 -14 23 -16 17 -2 21 -8 19 -28 -2 -14 -5 -25
-5 -26 -9 -6 -165 -11 -174 -6 -6 4 -12 52 -14 122 l-4 115 30 1 c49 1 57 3
49 15 -3 6 -20 9 -38 6 -45 -7 -74 8 -81 40 -4 15 -10 37 -15 48 -5 11 -13 52
-19 90 -5 39 -16 90 -26 114 -9 24 -17 60 -18 80 -2 36 -1 36 40 39 24 2 43 7
43 13 0 9 -17 11 -90 13 l-35 1 -3 64 c-2 35 -9 73 -17 85 -7 11 -16 36 -20
54 -4 18 -13 36 -20 38 -8 3 -16 23 -20 45 -4 21 -10 39 -15 39 -10 0 -34 116
-26 128 3 6 -1 27 -11 47 -14 30 -15 38 -3 45 7 4 22 7 32 5 10 -2 18 0 18 6
0 5 9 9 21 9 11 0 17 4 14 10 -3 5 -16 8 -28 6 -43 -6 -89 44 -52 58 8 3 15
15 15 26 0 18 6 20 55 20 31 0 55 4 55 10 0 15 -49 32 -97 32 -40 1 -43 3 -49
35 -4 19 -13 37 -20 40 -15 6 -19 29 -6 35 5 2 12 15 16 31 5 20 3 27 -8 27
-14 0 -46 41 -46 59 0 6 11 13 25 17 28 7 44 42 24 55 -9 6 -20 2 -31 -11 -21
-26 -23 -26 -24 12 -1 18 -6 34 -13 36 -6 2 -11 11 -11 20 0 8 -7 24 -16 34
-14 15 -15 20 -4 33 9 11 16 13 24 5 5 -5 18 -10 28 -10 10 0 26 -8 36 -18 10
-10 26 -21 35 -25 9 -3 17 -11 17 -16 0 -12 51 -29 115 -37 64 -8 120 21 130
67 4 16 13 29 21 29 8 0 14 9 14 20 0 11 6 23 14 26 8 3 17 21 20 40 6 31 10
34 42 34 46 0 83 18 63 31 -8 5 -24 9 -37 9 -12 0 -25 7 -28 15 -3 8 -15 17
-25 20 -17 6 -19 13 -13 51 5 39 4 44 -13 44 -27 0 -63 28 -63 50 0 14 -11 22
-40 30 -39 10 -50 23 -31 34 16 10 71 -6 71 -20 0 -8 6 -14 14 -14 7 0 30 -11
50 -25 26 -18 51 -25 84 -25 26 -1 65 -7 87 -15 22 -8 57 -15 77 -15 20 0 39
-4 42 -9 3 -5 15 -7 26 -4 11 3 26 0 34 -6 7 -6 60 -17 118 -25 57 -7 118 -20
134 -29 38 -19 413 -19 436 1 8 6 61 15 117 18 94 7 103 5 124 -14 29 -27 94
-44 118 -32 29 16 200 12 233 -5 26 -14 34 -14 70 -1 28 10 95 16 206 19 129
3 172 7 197 20 18 9 43 17 57 17 14 0 41 9 61 20 79 44 212 9 199 -52 -6 -28
19 -88 36 -88 6 0 10 -7 10 -15 0 -8 9 -15 20 -15 27 0 26 -27 -2 -50 -21 -16
-23 -27 -22 -96 1 -58 6 -80 17 -89 12 -8 18 -37 23 -103 l7 -91 32 -11 c22
-7 41 -7 59 -1 21 9 26 17 26 46 0 20 -8 50 -17 68 -23 44 -23 155 0 190 21
32 22 83 3 102 -11 11 -12 24 -4 60 8 37 7 50 -6 70 -9 14 -24 25 -34 25 -9 0
-30 14 -46 30 l-29 29 24 21 c29 24 42 27 143 34 43 3 85 11 92 17 7 6 43 14
78 19 36 4 72 15 80 23 8 8 38 17 68 21 29 4 58 12 65 18 7 5 40 12 74 15 36
4 63 11 66 19 2 7 23 16 46 19 23 4 52 13 64 21 12 8 31 14 43 14 11 0 20 5
20 10 0 6 7 10 15 10 8 0 15 4 15 9 0 5 15 13 33 17 17 3 43 15 56 25 13 11
29 19 36 19 6 0 20 9 30 20 10 11 24 20 32 20 8 0 21 7 29 15 8 8 33 19 54 25
22 6 40 15 40 20 0 6 7 10 15 10 8 0 19 8 24 19 6 10 26 22 45 25 20 4 39 13
43 19 5 7 23 19 41 26 17 8 32 17 32 21 0 5 19 11 42 15 43 8 68 29 88 77 7
14 25 32 41 38 16 7 29 19 29 26 0 8 4 14 9 14 6 0 18 14 28 30 9 17 23 30 29
30 7 0 15 11 18 25 4 14 13 25 21 25 8 0 15 9 15 19 0 11 9 23 20 26 11 3 20
12 20 18 1 15 46 67 58 67 5 0 12 -18 16 -39 5 -33 11 -40 35 -46 16 -3 40 -3
55 1 17 4 26 2 26 -6 0 -6 10 -20 23 -31 l22 -18 -42 -1 c-33 0 -43 4 -48 20
-7 21 -25 28 -25 10 0 -5 -11 -10 -25 -10 -13 0 -40 -8 -59 -17 -30 -15 -36
-23 -36 -50 0 -26 6 -36 28 -47 15 -8 34 -26 40 -41 11 -24 10 -27 -7 -32 -28
-7 -30 -17 -32 -198 -3 -157 3 -203 25 -217 8 -5 12 -97 13 -295 3 -381 12
-596 27 -605 7 -5 11 -52 12 -135 1 -129 6 -161 31 -176 18 -11 16 -44 -3 -55
-14 -8 -14 -10 0 -21 18 -15 22 -94 6 -135 -11 -30 14 -163 36 -187 8 -8 14
-21 14 -28 0 -6 8 -21 19 -32 10 -11 28 -61 41 -112 12 -51 30 -106 40 -123
25 -45 16 -171 -14 -195 -23 -20 -57 -16 -92 10 -16 12 -23 30 -26 68 -3 29
-8 56 -12 60 -9 9 -253 9 -262 1 -3 -3 12 -23 33 -45 43 -44 56 -63 77 -111 8
-18 22 -35 31 -38 8 -3 15 -12 15 -20 0 -7 9 -18 20 -24 11 -6 20 -19 20 -30
0 -10 5 -20 11 -22 7 -2 7 -11 -1 -30 -11 -23 -9 -29 19 -55 31 -30 40 -53 21
-53 -5 0 -12 -11 -16 -25 -3 -14 -10 -25 -15 -25 -10 0 -59 -48 -59 -59 0 -4
-20 -22 -44 -41 -25 -18 -47 -39 -50 -46 -3 -8 -17 -14 -31 -14 -16 0 -40 -13
-61 -34 -27 -26 -46 -36 -76 -38 -31 -2 -43 -9 -56 -31 -14 -22 -15 -31 -4
-47 17 -27 -8 -65 -54 -82 -19 -6 -34 -15 -34 -19 0 -4 -13 -12 -29 -19 -16
-6 -32 -18 -35 -26 -3 -8 -16 -14 -28 -14 -13 0 -32 -6 -43 -14 -11 -7 -36
-17 -55 -21 -19 -4 -46 -16 -59 -26 -13 -11 -38 -19 -56 -19 -19 0 -39 -8 -50
-20 -10 -11 -30 -20 -45 -20 -15 0 -35 -8 -44 -19 -9 -10 -35 -22 -58 -25 -22
-4 -53 -13 -69 -21 -15 -8 -42 -15 -59 -15 -17 0 -52 -9 -77 -21 -54 -25 -73
-20 -73 20 0 25 -5 30 -30 36 -16 4 -43 4 -60 0 -29 -6 -33 -14 -43 -95 -2
-10 -18 -17 -50 -21 -27 -3 -51 -10 -55 -16 -4 -6 -35 -12 -69 -15 -47 -3 -69
-10 -86 -26 -13 -12 -35 -22 -49 -22 -15 0 -38 -4 -51 -9 -26 -10 -42 -50 -27
-65 12 -12 152 -9 160 4 4 6 62 15 131 21 68 6 138 17 156 25 17 8 40 14 50
14 11 0 29 11 40 24 12 13 37 26 60 29 22 4 53 14 69 22 16 8 50 15 75 15 29
0 51 6 59 15 7 8 30 18 52 21 21 4 41 10 44 15 3 5 23 13 46 20 23 6 47 17 55
25 8 8 32 14 54 14 27 0 45 6 56 20 10 11 27 20 39 20 12 0 33 9 48 21 14 11
26 17 26 13 0 -5 5 -3 12 4 7 7 18 12 26 12 8 0 25 9 39 20 14 11 38 20 54 20
15 0 31 5 34 11 4 5 18 14 31 19 13 5 24 16 24 25 0 8 6 15 14 15 8 0 21 7 30
15 8 8 26 19 40 25 14 5 26 16 26 25 0 8 7 15 15 15 8 0 19 9 25 20 6 11 17
20 25 20 8 0 15 7 15 15 0 9 8 19 18 22 19 7 37 22 97 81 96 94 202 208 208
225 3 9 11 17 16 17 6 0 13 16 17 35 3 19 12 39 19 43 7 4 17 23 23 42 5 19
14 34 21 33 6 -2 11 7 11 20 0 12 9 33 20 47 11 14 20 31 20 38 0 17 7 16 67
-10 29 -13 53 -28 53 -34 0 -7 26 -15 57 -19 32 -4 70 -15 84 -26 14 -10 29
-16 32 -13 7 7 67 -18 67 -27 0 -3 25 -11 55 -18 30 -7 55 -16 55 -20 0 -5 19
-11 42 -15 40 -7 109 -41 116 -58 2 -4 19 -15 38 -24 19 -9 34 -20 34 -25 0
-5 11 -9 24 -9 13 0 35 -9 49 -20 14 -11 29 -20 35 -20 5 0 17 -9 27 -20 10
-11 27 -22 38 -26 12 -4 39 -24 62 -46 65 -65 70 -68 99 -68 15 0 39 -9 53
-20 14 -11 33 -20 42 -20 16 -1 61 -33 61 -45 0 -12 52 -75 63 -75 16 0 57
-50 57 -71 0 -19 87 -139 100 -139 4 0 10 -13 13 -30 9 -43 41 -70 82 -70 19
0 35 5 35 10 0 6 11 15 25 20 30 11 33 51 10 115 -19 53 -19 172 0 209 21 40
19 105 -5 144 -21 35 -19 76 5 86 11 4 14 72 14 340 l2 335 -38 7 c-21 4 -41
12 -45 17 -4 7 -70 14 -155 18 -81 4 -159 12 -173 18 -17 6 -19 10 -8 10 10 1
22 10 28 21 6 11 15 18 20 15 5 -3 11 -1 15 5 3 5 26 10 49 10 96 0 145 30 74
45 -18 4 -42 14 -53 21 -26 19 -187 18 -240 -1 -42 -15 -102 -19 -130 -9 -9 4
-21 17 -25 30 -11 28 -98 73 -109 56 -13 -21 -141 -35 -270 -29 -156 7 -171
11 -171 47 0 30 18 40 78 40 17 0 32 4 32 9 0 12 -23 30 -35 28 -5 -1 -16 11
-23 26 -16 32 -6 97 14 97 21 0 18 63 -5 88 -10 12 -27 22 -37 22 -34 0 -64
29 -64 61 0 21 5 29 18 29 28 1 62 80 62 145 0 43 -3 55 -15 55 -9 0 -18 7
-22 15 -3 9 -23 34 -44 55 -22 22 -39 44 -39 50 0 6 -11 15 -25 20 -14 5 -25
14 -25 20 0 6 -8 19 -17 28 -15 16 -14 17 19 27 19 5 42 16 50 22 8 7 18 10
21 6 4 -3 7 -1 7 5 0 7 -1 12 -3 12 -2 0 -30 5 -63 10 -32 6 -74 13 -91 16
-31 5 -33 7 -33 47 0 39 -2 43 -26 45 -35 3 -44 10 -44 33 0 11 -11 30 -25 43
-14 13 -25 26 -25 29 0 4 15 14 33 24 22 12 51 16 95 15 37 -2 62 1 62 8 0 10
-28 13 -87 10 -32 -1 -103 19 -103 30 0 3 11 18 25 34 19 22 25 40 25 76 0 57
-9 66 -75 75 -60 8 -85 19 -61 28 9 4 16 16 16 27 0 11 5 20 10 20 21 0 8 26
-23 48 -22 15 -48 22 -78 22 -25 0 -50 5 -57 12 -14 14 -16 104 -4 112 11 6 3
67 -10 83 -17 22 1 31 72 38 39 4 72 10 75 14 10 17 -9 50 -35 61 -16 7 -31
18 -34 25 -2 7 -23 16 -46 20 -46 8 -52 32 -13 50 14 6 21 17 20 30 -2 17 7
22 55 33 47 12 57 18 63 40 3 14 13 31 21 36 22 17 7 75 -22 88 -32 15 -30 25
6 33 25 5 30 11 30 36 0 28 2 29 48 29 26 0 56 -7 66 -15 11 -8 33 -15 48 -15
16 0 48 -9 71 -19 38 -17 75 -20 333 -25 159 -3 303 -10 319 -16 28 -9 40 -27
59 -82 3 -10 13 -18 23 -18 10 0 31 -7 46 -15 22 -11 80 -16 250 -19 184 -3
222 -6 232 -19 6 -8 28 -19 49 -22 21 -4 40 -14 43 -21 3 -8 11 -14 18 -14 15
0 25 -22 25 -55 0 -12 7 -26 16 -29 12 -5 15 -18 13 -59 -4 -87 -2 -93 35
-104 39 -12 56 -1 75 48 7 20 6 30 -6 41 -8 9 -14 26 -14 39 3 60 2 88 -5 137
-7 57 -24 72 -80 72 -13 0 -24 5 -24 10 0 6 -8 10 -19 10 -10 0 -34 11 -53 23
-19 14 -57 26 -87 30 -30 4 -64 13 -77 22 -18 12 -56 15 -181 15 -87 0 -163 4
-170 8 -6 4 -14 19 -18 34 -6 22 -15 29 -44 34 -20 3 -41 12 -46 19 -8 9 -87
13 -311 17 -260 4 -304 7 -324 21 -14 9 -39 17 -56 17 -52 0 -94 12 -94 26 0
9 -11 14 -29 14 -17 0 -33 5 -36 10 -3 6 -15 10 -27 10 -11 0 -34 6 -51 14
-18 7 -44 18 -59 24 -16 7 -28 16 -28 22 0 5 -9 10 -20 10 -11 0 -23 6 -26 14
-3 8 -23 17 -45 21 -24 4 -39 12 -39 21 0 8 -7 14 -15 14 -8 0 -15 8 -15 19 0
11 -9 21 -21 24 -20 5 -21 11 -17 72 3 36 10 71 16 78 5 6 12 28 16 48 6 36
22 62 65 107 22 24 23 31 18 102 l-5 76 -55 57 c-30 31 -62 57 -71 57 -9 0
-19 6 -22 14 -3 8 -20 20 -37 27 -18 7 -36 19 -40 26 -4 7 -26 13 -48 13 -26
0 -42 5 -45 15 -4 8 -12 15 -19 15 -7 0 -23 8 -36 19 -13 10 -40 22 -59 26
-19 4 -38 13 -42 19 -4 6 -49 13 -106 16 -81 4 -103 9 -126 28 -16 12 -41 22
-56 22 -16 0 -30 7 -34 15 -3 8 -11 15 -18 15 -7 1 -31 9 -53 20 -26 12 -62
19 -101 20 -47 0 -65 4 -78 19 -14 15 -38 21 -113 26 -53 4 -107 14 -122 21
-14 8 -42 14 -61 14 -19 0 -48 8 -65 17 -34 19 -250 25 -485 14z m262 -94 c8
-8 49 -13 116 -15 79 -1 115 -7 149 -22 36 -16 67 -20 150 -20 81 0 105 -3
109 -14 3 -8 19 -18 35 -21 16 -4 33 -15 39 -24 6 -12 26 -20 61 -24 28 -4 59
-13 68 -20 9 -8 34 -17 56 -20 22 -4 45 -13 51 -22 6 -8 25 -18 42 -21 18 -4
37 -13 43 -20 6 -8 18 -14 26 -14 13 0 31 -12 90 -60 7 -6 15 -10 19 -10 4 0
31 -22 60 -50 29 -27 60 -50 68 -50 9 0 16 -9 16 -20 0 -11 9 -28 20 -37 11
-10 20 -23 20 -29 0 -7 6 -14 14 -17 9 -4 15 -30 18 -78 4 -52 10 -74 22 -81
11 -6 16 -23 16 -59 0 -36 6 -58 20 -76 11 -14 20 -31 20 -39 0 -7 12 -21 26
-31 24 -18 26 -24 19 -62 -4 -23 -13 -45 -21 -48 -16 -6 -19 -34 -4 -49 6 -6
-3 -24 -28 -51 -50 -55 -72 -85 -72 -98 0 -6 -25 -35 -55 -65 -30 -30 -55 -60
-55 -66 0 -7 -9 -16 -21 -19 -11 -4 -24 -18 -29 -31 -5 -13 -16 -24 -25 -24
-8 0 -15 -7 -15 -15 0 -8 -6 -15 -14 -15 -8 0 -18 -9 -21 -20 -3 -11 -12 -20
-19 -20 -7 0 -25 -9 -39 -20 -14 -11 -30 -20 -37 -20 -7 0 -23 -9 -37 -20 -14
-11 -41 -20 -60 -20 -21 0 -36 -6 -39 -15 -4 -8 -13 -15 -20 -15 -8 0 -20 -11
-26 -25 -6 -14 -19 -25 -29 -25 -19 0 -122 -50 -127 -62 -2 -5 -9 -8 -16 -8
-7 0 -26 -11 -42 -25 -16 -14 -34 -25 -40 -25 -7 0 -14 -7 -18 -15 -3 -9 -18
-15 -39 -15 -19 0 -46 -9 -60 -20 -14 -11 -39 -20 -57 -20 -18 0 -43 -9 -57
-20 -14 -11 -36 -20 -49 -20 -24 0 -31 -2 -91 -34 -17 -9 -49 -16 -72 -16 -26
0 -43 -5 -49 -16 -6 -11 -31 -17 -88 -21 -43 -3 -91 -12 -106 -19 -15 -8 -59
-14 -100 -14 -42 -1 -90 -8 -113 -17 -22 -8 -91 -19 -154 -23 -69 -5 -116 -12
-121 -19 -4 -7 -35 -16 -69 -21 -34 -5 -68 -14 -76 -20 -9 -8 -120 -12 -358
-13 -323 -2 -346 -1 -365 17 -19 16 -35 18 -141 15 -78 -3 -124 -8 -133 -16
-16 -17 -97 -16 -139 1 -35 14 -98 12 -130 -4 -26 -14 -117 -12 -121 2 -3 7
-36 18 -74 24 -38 7 -87 17 -109 23 -22 6 -62 11 -88 11 -26 0 -64 7 -83 15
-20 8 -64 18 -100 21 -35 4 -69 13 -75 20 -6 8 -23 14 -38 14 -41 0 -71 11
-71 26 0 8 -4 14 -10 14 -5 0 -21 12 -35 26 -18 17 -33 24 -47 21 -14 -4 -22
0 -25 12 -2 10 -21 23 -41 31 -20 7 -39 17 -42 21 -3 5 -35 15 -70 23 -135 31
-165 40 -173 52 -4 7 -20 15 -36 19 -16 3 -32 13 -35 21 -3 8 -10 14 -15 14
-12 0 -51 39 -68 67 -22 38 -26 89 -9 106 9 8 16 22 16 31 0 8 9 20 20 26 13
7 20 21 20 40 0 18 8 37 20 47 11 10 20 23 20 29 0 7 6 14 14 17 7 3 16 24 19
47 3 24 14 50 26 61 12 11 21 24 21 28 0 5 9 11 19 14 13 3 21 15 23 38 2 27
8 35 33 42 19 5 36 19 43 36 7 16 24 33 37 39 14 7 31 24 38 39 15 35 38 58
77 78 17 9 33 22 36 30 3 8 14 17 25 20 10 4 19 13 19 21 0 8 7 14 15 14 8 0
23 7 32 16 48 42 80 64 94 64 9 0 19 6 22 14 3 7 22 16 41 20 22 4 36 13 36
21 0 8 5 15 11 15 6 0 26 12 44 26 19 14 40 24 46 22 7 -2 23 6 37 19 14 13
33 23 44 23 10 0 28 9 40 20 12 11 27 20 34 20 6 0 14 7 18 15 3 8 18 15 33
15 16 0 36 9 46 20 9 11 29 20 44 20 14 0 34 7 44 16 10 9 36 18 59 21 23 3
44 12 47 19 3 7 21 17 41 20 21 4 43 15 50 25 7 10 29 21 50 24 20 4 51 13 69
21 17 8 39 14 49 14 9 0 25 7 34 15 10 9 43 20 74 25 31 5 66 16 78 24 12 9
41 16 64 16 23 0 44 4 46 10 2 5 30 15 63 21 33 6 72 19 86 30 18 13 44 19 79
19 37 0 59 6 77 20 20 15 41 20 92 20 46 0 74 5 90 17 16 11 57 19 124 24 55
4 103 12 106 18 3 5 24 10 46 10 508 7 701 14 708 27 10 18 91 19 109 1z"/>
<path d="M3494 5571 c-17 -4 -36 -11 -43 -16 -7 -4 -82 -11 -166 -14 -104 -5
-159 -12 -169 -20 -9 -8 -48 -16 -86 -19 -39 -2 -70 -8 -70 -12 0 -4 -21 -13
-47 -19 -27 -7 -61 -17 -78 -22 -16 -6 -46 -15 -65 -21 -19 -6 -39 -16 -43
-24 -4 -8 -18 -14 -29 -14 -37 0 -168 -93 -168 -119 0 -6 -3 -11 -8 -11 -4 0
-41 -31 -81 -69 -75 -70 -75 -70 -79 -130 -4 -59 -4 -60 40 -108 25 -26 53
-58 64 -70 10 -13 25 -23 33 -23 7 0 19 -7 25 -16 7 -8 32 -18 56 -21 25 -3
59 -13 75 -21 45 -24 371 -24 388 -1 8 10 36 19 79 23 38 4 72 14 79 22 7 8
30 14 58 14 28 0 59 8 79 20 18 11 44 20 57 20 13 0 39 9 57 20 18 11 40 20
49 20 9 0 27 8 40 19 17 12 48 20 101 24 51 3 83 11 94 21 8 9 26 19 40 22 13
3 24 12 24 20 0 8 9 14 20 14 11 0 20 7 20 15 0 8 7 15 15 15 20 0 95 80 95
102 0 10 9 23 20 30 17 11 20 24 20 80 0 57 -3 69 -20 78 -11 6 -20 19 -20 28
0 10 -9 28 -20 40 -11 12 -20 24 -20 28 0 19 -65 62 -103 68 -23 4 -45 12 -48
18 -9 14 -219 21 -265 9z m-694 -325 c0 -8 9 -18 20 -21 28 -9 28 -65 0 -72
-10 -3 -22 -14 -25 -24 -4 -10 -12 -19 -18 -19 -7 0 -27 -23 -45 -51 -36 -54
-33 -73 11 -82 13 -3 7 -5 -15 -6 -20 0 -39 3 -42 7 -3 5 -26 9 -52 11 -109 5
-146 125 -47 155 11 4 24 13 27 21 3 8 12 15 21 15 8 0 15 9 15 20 0 11 7 20
15 20 8 0 19 9 25 20 8 16 21 20 60 20 37 0 50 -4 50 -14z"/>
<path d="M7618 4433 c-32 -8 -33 -67 -4 -127 30 -61 31 -66 12 -66 -25 0 -29
-20 -31 -145 -1 -68 -7 -130 -14 -142 -7 -15 -8 -30 -1 -48 15 -41 38 -42 70
-4 l29 34 -1 240 c0 143 -5 245 -10 253 -11 12 -20 13 -50 5z"/>
<path d="M7578 3843 c-13 -3 -18 -16 -20 -46 -3 -101 -8 -130 -22 -146 -10
-11 -16 -36 -16 -67 0 -27 -4 -65 -10 -84 -14 -50 10 -100 49 -100 35 0 41 17
41 111 0 45 5 70 14 78 9 7 17 43 21 91 4 44 12 80 17 80 13 0 3 57 -13 77
-11 13 -28 15 -61 6z"/>
<path d="M7507 3306 c-3 -8 -3 -39 0 -70 4 -43 2 -58 -11 -71 -9 -9 -16 -22
-17 -28 -2 -31 -7 -186 -10 -326 -2 -132 -1 -154 13 -162 10 -5 26 -5 41 0 34
13 38 44 36 271 -1 140 2 194 11 200 6 4 16 42 21 85 9 68 8 80 -7 96 -20 22
-69 25 -77 5z"/>
<path d="M3995 3130 c-3 -5 -15 -10 -25 -10 -13 0 -21 -10 -25 -32 -4 -18 -12
-39 -17 -45 -7 -9 -6 -18 2 -28 7 -9 15 -50 18 -91 3 -51 9 -77 18 -81 9 -3
14 -22 15 -52 2 -81 9 -94 62 -109 58 -16 72 -8 81 48 3 22 11 40 16 40 11 0
13 30 4 54 -4 9 -18 16 -34 16 -25 0 -28 4 -34 45 -4 25 -4 65 -1 89 6 40 4
47 -19 67 -16 14 -26 33 -26 50 0 29 -24 57 -35 39z"/>
<path d="M4058 2613 c-23 -4 -28 -11 -37 -51 -6 -28 -6 -53 0 -63 5 -10 9 -27
9 -38 0 -10 5 -21 12 -23 17 -6 20 -48 4 -54 -16 -6 -29 -64 -20 -88 3 -9 12
-16 19 -16 8 0 15 -10 17 -22 2 -18 -4 -26 -26 -34 -39 -14 -52 -57 -27 -82
16 -15 18 -37 19 -184 1 -161 2 -167 25 -192 13 -14 33 -26 44 -26 21 0 23 -4
47 -75 12 -39 14 -40 64 -43 33 -2 52 1 52 8 0 6 14 16 30 21 23 8 30 17 30
37 2 74 9 127 19 130 6 2 11 29 11 62 l0 59 -37 3 c-36 3 -38 5 -41 39 l-3 37
76 7 c42 4 88 13 103 21 15 8 39 14 53 14 43 0 117 109 119 173 0 10 -7 40
-16 67 -15 47 -15 50 5 76 26 34 27 60 1 76 -11 7 -20 18 -20 24 0 14 -46 24
-106 24 -74 0 -122 -30 -74 -45 25 -8 26 -32 1 -40 -11 -3 -22 -12 -25 -20 -3
-8 -12 -12 -20 -9 -8 3 -17 1 -21 -5 -12 -20 -69 -12 -96 13 -15 14 -42 26
-60 28 -43 4 -41 21 3 28 45 7 48 33 6 45 -26 8 -34 17 -39 43 -6 30 -51 84
-67 81 -4 -1 -19 -4 -34 -6z"/>
</g>
</svg>
