<?xml version="1.0" standalone="no"?>
<!DOCTYPE svg PUBLIC "-//W3C//DTD SVG 20010904//EN"
 "http://www.w3.org/TR/2001/REC-SVG-20010904/DTD/svg10.dtd">
<svg version="1.0" xmlns="http://www.w3.org/2000/svg"
 width="679.000000pt" height="1125.000000pt" viewBox="0 0 679.000000 1125.000000"
 preserveAspectRatio="xMidYMid meet">
<metadata>
Created by potrace 1.16, written by Peter Selinger 2001-2019
</metadata>
<g transform="translate(0.000000,1125.000000) scale(0.100000,-0.100000)"
fill="#000000" stroke="none">
<path d="M1480 10094 c-60 -21 -97 -49 -116 -89 -7 -16 -18 -37 -23 -45 -10
-16 -33 -67 -51 -115 -27 -70 -55 -307 -31 -265 5 8 12 33 16 55 17 95 96 236
154 275 68 46 82 50 145 46 65 -4 114 -21 159 -56 40 -31 35 -5 -12 66 -63 95
-106 125 -181 130 -25 1 -52 0 -60 -2z"/>
<path d="M5710 10051 c0 -6 -12 -11 -27 -11 -56 0 -142 -82 -183 -174 -23 -50
-52 -191 -50 -240 1 -6 16 30 34 79 74 203 182 318 280 299 41 -7 48 6 14 28
-33 22 -68 31 -68 19z"/>
<path d="M5980 9924 c0 -5 9 -22 20 -39 122 -182 192 -451 175 -670 -12 -159
-31 -241 -87 -388 -16 -43 -28 -81 -25 -83 9 -10 54 47 94 119 22 40 57 121
78 181 32 91 38 123 38 190 1 156 -39 337 -99 459 -44 89 -101 177 -115 177
-4 0 -14 6 -21 13 -39 36 -58 49 -58 41z"/>
<path d="M4550 9611 c-83 -26 -271 -186 -375 -321 -49 -63 -88 -104 -144 -150
-24 -19 -51 -42 -61 -50 -10 -9 -42 -26 -72 -39 -29 -13 -63 -28 -75 -34 -12
-5 -36 -7 -52 -4 -17 4 -31 3 -31 -2 0 -17 69 -41 130 -46 58 -4 74 0 150 34
72 33 159 102 258 205 31 33 68 69 81 80 13 12 38 34 55 49 17 16 47 37 67 47
19 10 41 26 48 34 16 19 66 35 150 46 60 8 68 7 108 -17 55 -32 110 -96 139
-164 l24 -54 -7 45 c-3 25 -25 86 -48 135 -46 100 -110 176 -168 200 -38 16
-134 19 -177 6z"/>
<path d="M2467 9597 c-71 -10 -160 -60 -203 -114 -44 -56 -95 -195 -111 -303
-12 -88 -14 -134 -4 -120 6 8 11 23 11 33 0 43 67 154 135 223 111 112 220
150 406 139 61 -3 122 -11 136 -16 14 -5 41 -11 61 -14 l35 -5 -29 31 c-34 35
-130 97 -183 117 -61 23 -191 38 -254 29z"/>
<path d="M5746 9361 c-3 -4 -12 -44 -20 -87 -21 -117 -50 -189 -91 -226 -51
-46 -71 -59 -94 -64 -14 -3 -37 -10 -50 -15 -34 -14 -351 -23 -381 -10 l-25
10 25 1 c70 5 223 20 283 28 150 21 82 28 -265 30 -430 1 -438 2 -313 17 90
11 95 13 45 15 -30 1 -47 4 -37 7 16 4 16 9 -9 51 -29 51 -85 125 -118 157
-39 38 -75 55 -115 55 -31 0 -44 -6 -61 -27 -52 -67 -87 -212 -104 -435 -13
-177 -11 -736 3 -843 5 -41 5 -74 0 -79 -5 -6 -9 8 -9 34 0 68 -16 35 -29 -60
-35 -265 -35 -953 0 -1370 6 -69 12 -150 14 -180 7 -106 25 -316 35 -385 5
-38 14 -115 20 -170 11 -91 25 -179 65 -400 8 -44 22 -118 30 -165 21 -116 71
-357 96 -460 79 -330 197 -747 235 -837 8 -17 14 -35 14 -40 0 -43 122 -293
143 -293 5 0 7 6 4 13 -103 235 -224 673 -307 1111 -25 132 -25 132 -1 139 20
5 69 74 78 111 18 74 32 159 34 202 1 28 12 69 27 97 26 52 35 59 28 25 -3
-13 -8 -56 -11 -95 -8 -89 10 -100 20 -13 9 76 43 148 85 179 28 20 40 23 86
18 30 -3 80 -19 113 -36 38 -19 63 -26 67 -20 3 6 14 63 24 127 10 64 25 158
33 207 9 50 18 178 22 285 4 107 8 197 9 200 2 3 0 64 -5 135 -4 72 -10 186
-14 255 -3 69 -8 132 -10 140 -4 14 -14 89 -36 280 -5 47 -16 121 -23 165 -8
44 -22 121 -30 170 -9 50 -20 108 -25 130 -5 22 -15 72 -24 110 -8 39 -23 129
-32 200 -10 72 -24 162 -31 200 -8 39 -20 98 -26 133 -6 34 -15 62 -20 62 -5
0 -6 5 -3 10 3 6 18 8 33 5 29 -6 283 -16 423 -18 78 -1 90 1 120 25 65 49
158 233 184 363 2 6 10 38 19 73 9 35 16 76 16 91 0 14 6 50 14 79 16 63 7 68
-17 10 -19 -48 -18 -37 12 112 19 98 27 159 17 149 -2 -2 -6 -18 -9 -34 -8
-56 -66 -184 -106 -238 -45 -59 -130 -143 -181 -177 -19 -13 -37 -27 -40 -31
-3 -3 -23 -16 -45 -28 -22 -12 -47 -25 -55 -31 -14 -8 -104 -49 -140 -63 -8
-3 16 -6 53 -6 43 -1 66 -5 62 -11 -3 -5 -17 -10 -31 -10 -13 0 -24 -4 -24 -8
0 -13 -322 -58 -339 -47 -8 4 -173 18 -211 17 -8 0 -55 6 -104 14 -49 8 -105
17 -124 19 -20 2 -40 9 -45 14 -6 6 -10 64 -11 130 -1 67 -4 121 -7 121 -4 0
-10 -37 -14 -82 -3 -46 -10 -119 -15 -163 -13 -108 -19 -213 -21 -380 -1 -97
-4 -123 -8 -84 -6 60 -5 476 3 646 11 252 74 480 155 557 40 38 51 27 17 -17
-22 -29 -56 -105 -56 -127 0 -4 24 -7 53 -7 28 0 72 -6 96 -12 23 -7 64 -14
90 -17 25 -2 60 -8 76 -12 24 -7 12 -10 -60 -15 -79 -5 -114 -4 -214 6 -29 2
-41 -29 -31 -77 8 -42 75 -59 185 -47 115 13 222 8 375 -19 100 -17 330 -4
354 20 6 6 17 10 25 10 27 0 149 89 181 133 38 51 55 107 70 229 9 67 9 101 1
121 -10 26 -34 36 -45 18z m-1316 -1483 c1 -29 3 -62 4 -73 1 -11 5 -26 10
-34 7 -10 6 -12 -4 -6 -8 5 -11 3 -8 -6 3 -8 10 -13 17 -12 7 2 10 -16 9 -50
-3 -73 11 -365 22 -467 5 -47 12 -141 15 -210 12 -243 35 -646 45 -760 5 -63
12 -151 15 -195 3 -44 12 -140 21 -213 8 -74 13 -136 10 -140 -3 -3 -6 2 -6
11 0 9 -7 67 -15 129 -8 62 -21 190 -30 283 -8 94 -17 177 -20 185 -2 8 -7 59
-10 114 -3 54 -10 139 -15 190 -16 142 -59 849 -65 1066 -3 107 -8 205 -11
218 -2 12 -1 22 4 22 5 0 10 -24 12 -52z m526 -1840 c-4 -23 -10 -45 -14 -48
-9 -6 -44 -108 -47 -136 -2 -11 -7 -29 -13 -40 -6 -10 -15 -32 -22 -49 -16
-43 -90 -96 -142 -101 -24 -2 -53 -7 -65 -9 -18 -4 -24 0 -29 19 -3 13 -4 35
-2 47 3 21 10 25 64 30 56 5 66 10 106 50 42 41 71 102 81 166 2 11 8 27 13
35 6 7 16 28 24 46 8 21 19 32 32 32 18 0 20 -4 14 -42z m187 -85 c10 -5 40
-31 67 -57 45 -44 50 -53 50 -93 l0 -45 -34 34 c-52 50 -108 100 -143 128 -17
13 -29 29 -26 34 3 5 1 6 -4 3 -19 -12 -31 16 -21 52 l9 34 42 -40 c23 -22 50
-45 60 -50z"/>
<path d="M3130 9347 c0 -36 201 -160 310 -191 36 -10 85 -24 110 -32 51 -15
231 -11 290 6 19 5 49 10 67 10 17 0 34 4 37 9 3 4 19 11 35 14 37 8 129 64
158 97 30 33 30 54 1 46 -29 -9 -109 -21 -268 -41 -115 -15 -269 -15 -405 0
-104 11 -244 47 -293 76 -39 23 -42 23 -42 6z"/>
<path d="M1390 9277 c-56 -120 -86 -263 -76 -362 9 -86 48 -195 92 -258 81
-115 187 -165 317 -148 39 5 80 12 91 17 18 7 18 3 11 -52 -4 -32 -9 -77 -11
-99 -1 -21 -7 -96 -13 -165 -14 -170 -19 -259 -26 -435 -4 -82 -8 -155 -10
-162 -8 -26 -20 -684 -20 -1138 0 -490 6 -717 25 -960 6 -72 13 -161 15 -200
9 -143 26 -323 40 -438 9 -65 20 -167 25 -225 5 -59 15 -143 20 -187 6 -44 15
-114 19 -155 11 -97 58 -402 71 -460 5 -25 19 -90 29 -145 11 -55 30 -143 41
-195 18 -78 23 -135 26 -320 5 -281 29 -496 68 -613 3 -9 8 -24 11 -32 3 -12
8 -12 30 -1 14 8 31 21 38 29 11 14 44 21 88 18 26 -2 120 -70 165 -120 60
-67 107 -122 127 -151 94 -134 166 -248 249 -392 18 -32 37 -58 41 -58 17 0
-4 94 -37 170 -39 92 -167 292 -242 380 -144 167 -217 239 -267 259 -70 29
-97 27 -144 -14 l-40 -34 -18 77 c-9 42 -21 93 -26 112 -14 56 -11 115 9 141
58 78 118 390 157 824 22 244 22 798 0 1175 -2 36 -7 135 -10 220 -4 85 -13
207 -20 270 -7 63 -12 117 -9 121 7 11 -36 312 -58 407 -24 106 -42 122 -34
30 3 -35 8 -106 11 -158 20 -355 36 -669 42 -810 9 -245 9 -1098 0 -1310 -12
-262 -50 -598 -80 -695 l-12 -40 -7 40 c-4 22 -7 102 -7 178 -1 166 -11 265
-56 542 -18 116 -38 260 -44 320 -22 221 -40 412 -46 495 -4 47 -8 105 -10
130 -10 108 -35 497 -41 620 -35 727 -39 1835 -9 2455 2 50 7 149 10 220 3 72
10 193 15 270 5 77 12 201 16 275 3 74 7 142 9 150 2 8 6 56 10 105 3 50 8
106 10 125 10 95 17 200 12 200 -3 0 -15 -33 -27 -72 -12 -40 -25 -84 -30 -98
-5 -14 -13 -54 -19 -90 -6 -36 -13 -74 -15 -85 -2 -11 -7 -47 -10 -80 -4 -33
-12 -77 -18 -98 -13 -43 -3 -42 -156 -15 -106 18 -249 133 -268 216 -4 15 -10
32 -14 37 -14 18 -30 115 -30 179 0 34 11 118 25 186 13 68 23 125 22 126 -1
2 -14 -20 -27 -49z"/>
<path d="M3135 5685 c-4 -82 -5 -312 -1 -510 10 -595 53 -1072 156 -1745 11
-74 27 -184 35 -245 14 -105 25 -170 65 -390 10 -55 28 -154 39 -220 46 -263
135 -625 177 -722 8 -17 14 -35 14 -40 0 -4 9 -21 21 -38 l20 -30 -6 45 c-3
25 -13 74 -20 110 -46 213 -117 596 -135 720 -11 80 -25 168 -30 195 -13 66
-54 347 -74 515 -10 74 -21 154 -27 178 -5 23 -9 59 -9 80 0 20 -5 55 -10 77
-5 22 -14 96 -20 165 -6 69 -15 152 -20 185 -12 76 -44 381 -64 595 -9 91 -22
237 -31 325 -15 154 -23 265 -45 590 -6 83 -14 186 -18 230 l-8 80 -9 -150z"/>
<path d="M5020 3352 c0 -5 9 -35 19 -68 33 -102 44 -180 38 -273 -8 -121 -22
-150 -94 -194 -67 -41 -111 -52 -233 -62 -47 -3 -121 -10 -165 -15 -44 -5
-135 -14 -202 -20 -68 -5 -140 -16 -160 -24 -21 -8 -52 -17 -69 -20 -54 -9
-245 -137 -303 -202 -37 -43 -111 -170 -111 -193 0 -29 23 -2 75 89 33 58 61
97 68 93 5 -3 8 -2 5 3 -10 17 149 127 214 148 64 21 156 35 333 51 482 43
485 43 572 121 52 46 61 59 71 106 29 134 24 248 -19 389 -18 60 -39 98 -39
71z"/>
<path d="M5246 3143 c41 -136 54 -227 54 -388 0 -243 -35 -387 -120 -501 -70
-92 -43 -95 51 -7 62 58 123 161 145 243 44 169 6 405 -102 638 -35 74 -48 80
-28 15z"/>
<path d="M2259 2881 c-13 -10 -41 -21 -61 -25 -25 -5 -38 -12 -38 -23 0 -12 7
-14 36 -9 23 5 41 3 50 -5 9 -7 35 -12 58 -10 24 1 55 -3 70 -9 15 -5 50 -12
78 -15 30 -3 73 -17 107 -36 31 -17 69 -38 85 -47 49 -26 107 -94 248 -296 22
-33 59 -100 82 -150 23 -50 62 -129 87 -176 26 -47 65 -121 87 -166 64 -127
155 -255 226 -318 86 -76 116 -87 180 -71 53 14 76 35 76 72 0 29 -12 30 -25
1 -13 -29 -64 -42 -113 -29 -44 12 -157 106 -205 171 -53 72 -113 172 -145
241 -16 35 -47 94 -69 130 -23 36 -57 104 -78 150 -48 111 -71 150 -182 305
-77 109 -108 142 -179 198 -91 71 -137 96 -179 96 -13 0 -48 9 -77 20 -66 25
-89 25 -119 1z"/>
<path d="M4085 2282 c-27 -2 -54 -7 -59 -13 -6 -5 -21 -9 -35 -9 -35 0 -139
-54 -179 -93 -44 -42 -94 -131 -108 -189 -22 -94 -4 -269 47 -465 21 -81 25
-210 8 -277 -20 -81 -90 -95 -196 -40 -96 52 -310 246 -459 420 -29 32 -63 73
-78 89 -23 27 -25 28 -26 9 0 -50 176 -269 362 -449 222 -214 335 -293 437
-303 56 -5 74 9 93 69 19 64 -12 283 -52 374 -90 203 -115 406 -66 541 49 135
182 225 376 252 65 9 277 8 335 -2 17 -3 57 -8 90 -12 33 -3 98 -15 145 -26
47 -11 96 -22 110 -24 14 -3 32 -7 40 -9 39 -11 80 -14 80 -7 0 36 -154 103
-269 118 -19 3 -37 7 -42 9 -35 22 -400 46 -554 37z"/>
</g>
</svg>
