<?xml version="1.0" standalone="no"?>
<!DOCTYPE svg PUBLIC "-//W3C//DTD SVG 20010904//EN"
 "http://www.w3.org/TR/2001/REC-SVG-20010904/DTD/svg10.dtd">
<svg version="1.0" xmlns="http://www.w3.org/2000/svg"
 width="1233.000000pt" height="741.000000pt" viewBox="0 0 1233.000000 741.000000"
 preserveAspectRatio="xMidYMid meet">
<metadata>
Created by potrace 1.16, written by Peter Selinger 2001-2019
</metadata>
<g transform="translate(0.000000,741.000000) scale(0.100000,-0.100000)"
fill="#000000" stroke="none">
<path d="M2942 5106 c-1 -19 2 -37 7 -40 9 -6 7 -59 -4 -88 -5 -11 -1 -16 12
-15 13 2 18 -5 18 -23 0 -14 3 -29 6 -35 4 -5 6 -25 4 -42 -1 -18 2 -33 6 -33
4 0 15 -7 23 -16 18 -17 22 -89 6 -99 -6 -3 -2 -21 10 -43 11 -20 20 -47 20
-59 0 -13 4 -23 9 -23 5 0 12 -17 16 -37 3 -21 13 -48 20 -60 8 -11 20 -43 26
-70 7 -26 18 -55 25 -63 7 -8 16 -33 20 -55 4 -22 11 -42 15 -46 5 -3 12 -26
15 -51 6 -44 6 -46 -26 -56 -37 -13 -50 -9 -50 18 0 10 -4 21 -9 25 -5 3 -17
30 -25 60 -20 67 -33 76 -42 29 -5 -29 -3 -39 10 -46 9 -5 16 -13 16 -18 0 -5
43 -70 95 -144 52 -73 95 -139 95 -145 0 -6 4 -11 8 -11 4 0 25 -23 46 -52 37
-49 38 -53 25 -77 -21 -37 -66 -41 -79 -7 -5 14 -14 26 -20 26 -5 0 -10 7 -10
15 0 8 -5 15 -11 15 -5 0 -17 16 -25 35 -8 19 -19 35 -24 35 -6 0 -10 6 -10
13 0 6 -12 23 -27 37 -14 14 -32 39 -39 55 -7 17 -24 43 -38 58 -14 15 -26 31
-26 35 0 4 -14 23 -30 42 -17 19 -33 43 -36 53 -3 11 -16 17 -34 17 -16 0 -32
5 -35 10 -3 6 -15 10 -25 10 -10 0 -22 9 -25 20 -3 11 -11 20 -16 20 -6 0 -8
4 -4 9 5 9 -24 108 -45 156 -5 11 -16 52 -25 90 -9 39 -24 88 -34 110 -10 22
-21 52 -24 66 -8 31 -57 70 -57 44 0 -8 3 -15 8 -15 4 0 8 -27 9 -60 l2 -60
-29 0 -29 0 18 -43 c10 -24 22 -62 26 -85 5 -32 11 -42 26 -42 25 0 53 -45 54
-89 1 -29 11 -47 53 -91 29 -30 52 -58 52 -62 0 -4 8 -16 18 -26 9 -10 26 -31
37 -46 11 -16 36 -48 55 -71 19 -23 42 -51 50 -61 8 -11 34 -42 58 -70 23 -27
42 -58 42 -67 0 -42 -93 -45 -110 -4 -5 12 -23 37 -39 56 -17 18 -31 37 -31
40 0 4 -16 22 -35 41 -19 19 -35 38 -35 43 0 4 -8 16 -17 27 -10 11 -31 36
-48 56 -16 20 -38 45 -47 55 -10 10 -18 22 -18 25 0 19 -64 84 -84 84 -12 0
-32 7 -44 16 -36 25 -26 11 41 -59 34 -36 69 -75 77 -87 30 -43 126 -140 138
-140 17 0 15 -26 -3 -54 -12 -17 -22 -22 -41 -18 -27 5 -51 27 -149 138 -33
38 -79 88 -102 112 -24 25 -43 47 -43 49 0 4 -17 23 -112 122 -20 22 -49 42
-66 45 -37 9 -72 41 -72 66 0 35 23 70 49 77 14 3 29 7 32 9 13 7 -11 95 -41
155 -5 9 -12 34 -16 55 -3 22 -10 44 -15 50 -5 6 -13 34 -19 62 -11 48 -13 51
-38 46 -15 -3 -45 -6 -67 -7 -36 -2 -40 -4 -37 -26 2 -13 8 -29 13 -35 15 -18
79 -149 79 -162 0 -6 6 -17 14 -23 7 -6 16 -26 20 -43 7 -36 -4 -48 -45 -48
-20 0 -30 9 -47 41 -12 22 -22 47 -22 54 0 7 -7 15 -15 19 -8 3 -15 16 -15 30
0 14 -5 28 -11 32 -6 3 -22 30 -34 59 -23 51 -24 52 -75 58 -43 5 -55 3 -73
-13 -11 -11 -26 -20 -32 -20 -12 0 -45 -32 -45 -43 0 -4 8 -7 18 -7 28 0 62
-42 56 -67 -4 -15 6 -38 35 -77 41 -55 61 -69 61 -42 0 19 43 45 71 43 43 -4
69 -26 69 -57 0 -29 19 -55 100 -141 19 -21 58 -63 85 -94 28 -32 70 -79 95
-106 70 -75 90 -100 90 -113 0 -16 -21 -36 -37 -36 -14 0 -123 107 -123 121 0
5 -9 13 -20 19 -11 6 -20 15 -20 20 0 4 -12 21 -27 37 -16 16 -64 69 -108 117
-44 49 -88 97 -97 107 -11 11 -24 16 -34 12 -14 -5 -15 -8 -3 -17 16 -13 129
-153 129 -160 0 -3 14 -20 30 -38 33 -36 36 -48 18 -66 -25 -25 -48 -10 -114
76 -37 48 -75 96 -85 107 -37 40 -95 113 -134 168 -22 31 -46 57 -52 57 -21 0
-15 -12 23 -55 19 -22 43 -49 53 -60 26 -30 32 -52 16 -65 -16 -13 -75 -4 -75
12 0 12 -90 128 -100 128 -4 0 -12 11 -18 25 -10 22 -15 24 -32 15 -23 -13
-27 -40 -5 -40 20 0 19 -32 -3 -57 -15 -18 -21 -19 -40 -9 -17 9 -19 15 -10
24 8 8 5 14 -14 21 -14 5 -28 16 -31 25 -7 19 -37 10 -37 -10 0 -8 -7 -14 -15
-14 -10 0 -15 10 -15 28 0 16 -3 32 -7 35 -12 12 -31 -13 -26 -34 4 -14 -2
-26 -18 -37 -13 -9 -27 -16 -31 -14 -5 1 -8 -5 -8 -13 0 -21 29 -31 50 -17 13
8 23 7 39 -4 11 -8 25 -13 30 -10 13 8 52 -61 45 -79 -7 -17 -36 -28 -57 -20
-30 12 -29 -17 2 -55 17 -21 31 -43 31 -48 0 -6 7 -13 16 -16 10 -4 13 -13 10
-24 -7 -22 27 -58 45 -47 6 4 27 11 47 16 51 11 88 -10 96 -57 4 -21 19 -46
34 -59 l27 -23 12 22 c9 17 22 23 58 25 70 3 83 -4 90 -52 5 -34 14 -47 43
-67 20 -14 42 -27 47 -29 6 -2 15 -11 21 -19 10 -14 12 -13 18 4 7 24 56 46
90 41 34 -4 77 -42 70 -61 -6 -16 41 -65 62 -66 6 0 20 -11 32 -25 29 -33 36
-32 52 9 17 45 56 62 104 46 36 -11 69 -50 64 -74 -3 -13 65 -76 81 -76 4 0
18 -10 31 -22 l23 -22 -7 27 c-10 41 52 82 116 78 24 -1 58 -40 58 -65 0 -24
65 -96 165 -181 38 -33 94 -83 124 -112 51 -49 54 -54 43 -78 -23 -50 -67 -25
-217 121 -46 44 -73 69 -157 142 -16 13 -33 22 -39 20 -6 -2 21 -30 60 -61 39
-32 71 -63 71 -70 0 -7 -7 -20 -15 -31 -16 -21 -49 -17 -83 12 -11 10 -33 27
-47 38 -33 23 -86 65 -105 82 -8 7 -33 26 -55 42 -22 16 -44 33 -50 38 -44 34
-77 52 -96 52 -19 0 -15 -5 22 -28 24 -16 59 -42 78 -59 27 -25 32 -36 27 -57
-5 -19 -13 -26 -31 -26 -26 0 -95 42 -108 66 -4 8 -13 14 -19 14 -7 0 -33 18
-59 40 -26 22 -52 40 -58 40 -6 0 -11 4 -11 10 0 5 -8 14 -18 19 -15 8 -18 5
-17 -16 0 -34 -46 -53 -71 -29 -9 9 -32 29 -52 44 -21 15 -42 32 -48 37 -6 6
-26 21 -44 35 -18 14 -40 32 -48 40 -13 12 -14 12 -8 -6 4 -14 0 -26 -12 -38
-27 -24 -47 -12 -156 86 l-53 48 -13 -25 c-13 -23 -11 -27 26 -60 21 -19 43
-34 47 -35 5 0 25 -16 45 -35 20 -19 42 -35 49 -35 6 0 13 -3 15 -8 4 -9 132
-92 142 -92 4 0 12 -5 19 -11 30 -27 425 -229 447 -229 6 0 19 -4 30 -10 11
-5 29 -14 40 -20 11 -5 27 -10 35 -10 8 0 15 -4 15 -8 0 -4 21 -14 48 -21 26
-8 52 -17 57 -21 6 -3 30 -12 55 -19 25 -7 47 -16 50 -20 3 -3 52 -21 110 -39
58 -19 112 -36 120 -39 21 -7 168 -49 205 -58 17 -5 32 -9 35 -10 62 -19 92
-25 100 -20 5 3 11 1 14 -4 3 -4 25 -11 48 -15 24 -4 70 -13 103 -20 97 -22
167 -36 210 -41 85 -9 132 -15 192 -26 34 -6 66 -8 72 -4 6 3 16 3 22 -1 34
-21 440 -20 619 0 46 6 349 74 375 85 11 4 37 16 58 25 21 9 46 16 56 16 10 0
21 7 25 15 3 8 11 15 18 15 7 0 35 11 62 25 27 14 45 25 40 25 -5 0 6 9 25 21
19 11 39 26 46 32 7 7 29 27 49 45 20 18 36 37 36 42 0 6 7 10 15 10 8 0 15 6
15 13 0 8 11 27 25 43 14 16 25 35 25 42 0 6 4 12 9 12 8 0 19 29 26 65 1 6 3
12 5 15 12 22 15 114 5 178 -7 50 -18 65 -28 40 -4 -8 -8 -5 -12 9 -6 18 -11
12 -39 -40 -26 -51 -36 -63 -60 -65 -18 -2 -33 3 -42 15 -13 17 -13 17 -14 -5
0 -12 -9 -40 -20 -62 -11 -22 -20 -45 -20 -52 0 -7 -6 -25 -14 -40 -8 -15 -21
-51 -30 -81 -16 -53 -29 -67 -66 -67 -25 0 -44 26 -34 47 4 10 8 20 9 23 1 3
7 18 13 33 7 16 12 34 12 41 0 6 4 16 8 21 5 6 15 26 22 45 7 19 19 49 25 65
7 17 25 66 40 110 16 44 34 92 41 107 9 17 10 29 4 33 -13 8 -13 62 0 70 6 3
10 15 10 26 0 20 15 26 25 9 7 -11 75 -9 75 3 0 4 -4 7 -10 7 -5 0 -10 7 -10
15 0 8 -4 15 -10 15 -5 0 -18 9 -28 20 -23 25 -36 14 -46 -39 -8 -43 -23 -61
-51 -61 -38 0 -50 24 -31 64 9 19 16 39 16 45 0 6 7 11 15 11 19 0 43 42 26
48 -13 4 -15 38 -1 47 6 3 6 15 0 29 -7 18 -4 29 11 44 11 12 15 23 9 27 -15
9 -12 27 3 19 9 -5 9 -4 -1 7 -10 11 -15 9 -29 -11 -10 -14 -16 -32 -15 -41 2
-9 -4 -19 -13 -22 -8 -4 -15 -16 -15 -27 0 -12 -7 -20 -18 -20 -9 0 -23 -9
-30 -20 -7 -12 -8 -20 -2 -20 18 0 10 -16 -14 -29 -34 -19 -70 1 -63 35 2 13
0 24 -4 24 -5 0 -9 7 -9 15 0 17 16 20 25 4 5 -6 13 -3 22 10 13 19 12 23 -14
45 -31 27 -58 18 -50 -16 3 -10 -6 -52 -19 -92 -13 -41 -25 -82 -27 -93 -2
-10 -8 -27 -14 -38 -6 -11 -14 -36 -18 -55 -12 -61 -16 -69 -38 -76 -12 -5
-25 -7 -28 -6 -10 2 -28 -47 -32 -83 -2 -17 -6 -35 -9 -40 -10 -17 -21 -69
-23 -107 -1 -28 -9 -43 -29 -59 -31 -24 -44 -53 -52 -112 -2 -22 -7 -44 -10
-48 -3 -5 -12 -39 -20 -76 -8 -38 -17 -75 -19 -83 -2 -8 -10 -35 -16 -60 -15
-56 -37 -81 -66 -74 -12 3 -24 13 -27 21 -6 15 20 135 36 166 5 10 6 22 3 27
-3 5 -1 17 4 27 15 29 44 155 43 188 0 17 -4 46 -7 66 -6 33 -4 39 29 64 19
15 40 24 45 21 10 -7 27 32 17 41 -3 3 0 15 6 27 7 11 13 26 14 31 0 6 2 12 3
15 2 3 4 16 6 30 1 14 12 61 25 105 12 44 23 90 25 102 2 12 7 27 11 34 5 9 2
10 -12 5 -22 -9 -22 -9 -53 -7 -20 1 -23 5 -18 29 10 50 61 207 69 210 5 2 13
12 19 23 12 23 -15 63 -43 65 -17 2 -42 -48 -31 -60 7 -7 -26 -46 -39 -46 -4
0 -17 9 -28 20 l-20 20 -9 -22 c-5 -13 -10 -32 -12 -43 -5 -27 -66 -34 -76
-10 -5 16 5 74 22 120 4 11 -4 2 -18 -20 -23 -38 -36 -104 -43 -220 -1 -22 -5
-48 -9 -57 -8 -21 -2 -22 26 -7 31 16 77 1 94 -31 21 -40 19 -57 -9 -83 -24
-23 -28 -40 -46 -197 -16 -144 -41 -295 -52 -317 -15 -31 -68 -33 -69 -3 -3
51 -2 68 5 105 3 22 9 58 11 80 3 22 8 58 11 79 5 39 4 39 -14 23 -26 -24 -59
-22 -67 4 -6 19 -2 102 11 194 2 17 6 64 9 105 9 112 23 244 29 274 5 19 -12
66 -24 66 -11 0 -31 -26 -29 -36 3 -13 -12 -64 -27 -93 -8 -14 -14 -51 -14
-81 0 -103 -27 -152 -73 -135 -15 6 -31 50 -23 63 2 4 7 54 10 112 6 97 6 104
-9 89 -18 -18 -18 -13 -15 -314 3 -271 5 -254 -26 -265 -18 -7 -24 -15 -20
-28 3 -9 8 -55 11 -102 2 -47 7 -101 11 -122 5 -31 3 -38 -19 -53 -20 -13 -30
-14 -46 -5 -23 12 -23 12 -27 85 -1 28 -5 91 -9 140 -3 50 -7 125 -9 168 -3
66 -6 80 -25 93 -14 10 -21 26 -21 48 0 37 23 63 66 75 l29 7 -1 129 c-1 106
-4 129 -18 137 -9 5 -16 16 -16 25 0 9 -7 24 -16 34 -14 16 -14 24 1 96 9 43
17 85 18 93 2 8 9 25 15 37 16 30 15 60 -3 67 -15 6 -35 -21 -35 -48 0 -9 -9
-16 -20 -16 -21 0 -21 -3 -14 -227 7 -274 7 -304 -5 -316 -14 -14 -62 -11 -72
4 -5 8 -9 55 -10 104 0 75 -6 381 -8 449 -1 34 -13 8 -17 -36 -11 -123 -19
-148 -53 -148 -14 -1 -14 -2 -1 -13 18 -14 15 -67 -4 -82 -10 -8 -11 -26 -4
-75 4 -36 12 -96 17 -135 5 -38 20 -117 34 -175 45 -192 45 -250 -2 -250 -34
0 -52 24 -56 75 -2 26 -9 69 -14 94 -19 83 -52 265 -56 304 -4 40 -13 88 -21
120 -9 30 -23 18 -17 -16 7 -44 -25 -76 -61 -59 -28 12 -33 37 -41 192 -3 52
-9 111 -13 131 -5 19 -9 77 -8 127 1 95 -6 112 -36 81 -15 -16 -15 -18 5 -24
18 -6 19 -8 5 -12 -21 -5 -27 -23 -35 -95 -7 -67 -24 -90 -62 -86 -26 3 -26 3
-23 82 2 44 9 91 18 107 8 16 12 29 8 29 -4 0 -1 7 7 16 10 13 10 17 -2 25 -8
5 -20 9 -26 9 -13 0 -13 34 0 46 4 4 7 20 7 35 0 16 7 32 18 38 14 9 11 10
-15 11 -26 0 -33 -4 -33 -20 0 -11 -8 -28 -19 -39 -12 -12 -16 -23 -10 -32 14
-22 11 -29 -15 -29 -19 0 -22 -4 -19 -24 3 -14 14 -27 26 -30 16 -4 19 -8 11
-16 -9 -9 -8 -28 2 -73 7 -34 15 -82 19 -107 4 -37 9 -45 28 -46 45 -4 62 -11
77 -36 12 -22 12 -30 0 -55 -7 -15 -12 -32 -11 -38 2 -5 12 -50 23 -100 10
-49 25 -103 33 -120 7 -16 16 -52 20 -78 7 -44 10 -48 29 -41 11 4 40 8 63 8
35 0 46 -4 60 -24 18 -25 19 -56 2 -76 -11 -13 -1 -94 11 -94 4 0 15 -39 24
-87 9 -49 27 -112 39 -141 l22 -52 40 6 c34 5 45 2 68 -20 32 -29 33 -36 10
-79 -9 -18 -16 -34 -16 -37 3 -11 14 -115 18 -160 2 -25 11 -76 20 -115 15
-66 15 -70 -2 -83 -10 -7 -27 -11 -38 -10 -16 3 -23 19 -41 103 -33 156 -44
219 -44 248 0 19 -5 27 -17 28 -41 3 -46 5 -53 19 -4 8 -12 25 -18 37 -7 13
-12 28 -12 34 0 6 -6 25 -14 42 -8 18 -22 68 -31 112 -10 44 -19 83 -21 87 -3
4 -16 -4 -30 -17 -32 -30 -62 -19 -71 26 -3 16 -10 32 -14 35 -5 3 -9 15 -9
28 0 12 -4 26 -10 32 -5 5 -19 54 -31 109 -12 55 -25 105 -30 110 -4 6 -11 30
-15 53 -4 23 -10 42 -14 42 -4 0 -13 32 -20 70 -11 60 -16 70 -34 70 -37 0
-47 15 -58 86 -13 85 -57 304 -63 314 -3 4 -14 10 -25 13 -17 4 -20 0 -22 -31
0 -21 0 -46 1 -56 3 -42 -53 -72 -78 -42 -16 19 -10 146 7 164 28 31 6 52 -60
57 -31 3 -34 -7 -19 -65 5 -19 12 -70 16 -113 l7 -78 28 6 c61 13 117 -49 87
-96 -11 -18 20 -142 53 -209 10 -19 20 -53 24 -75 9 -52 45 -125 63 -125 15 0
15 -2 17 -87 1 -41 7 -68 18 -80 9 -10 23 -34 32 -53 8 -19 20 -42 25 -50 5
-8 17 -31 25 -50 9 -19 20 -42 25 -50 19 -36 50 -107 56 -130 3 -14 11 -35 18
-48 8 -18 8 -28 -1 -42 -16 -26 -15 -59 2 -66 8 -3 17 -17 20 -32 4 -15 16
-47 28 -72 11 -25 25 -56 31 -70 5 -14 18 -41 28 -61 21 -42 12 -64 -32 -74
-23 -6 -28 -2 -48 39 -11 25 -21 50 -21 55 0 5 -7 14 -15 21 -8 7 -15 19 -15
27 0 8 -13 43 -29 76 -15 34 -31 72 -35 85 -4 12 -12 20 -17 17 -5 -4 -20 2
-34 12 -34 25 -33 69 2 105 29 30 30 26 -18 119 -11 20 -19 44 -19 53 0 9 -7
19 -15 22 -8 4 -15 12 -15 19 0 15 -28 74 -45 95 -7 8 -15 28 -19 43 -4 17
-20 36 -42 49 -50 29 -60 61 -34 105 13 22 17 40 12 47 -5 6 -17 36 -26 66 -9
30 -21 64 -26 75 -5 11 -16 43 -25 72 -9 29 -24 69 -34 89 l-19 38 2 -42 c1
-45 0 -47 -30 -56 -38 -12 -56 15 -59 85 -2 35 -6 105 -10 154 -9 105 -11 130
-13 168 -1 17 -8 27 -18 27 -8 0 -12 5 -9 10 3 6 15 10 26 10 10 0 19 3 19 6
0 15 -22 44 -35 44 -7 0 -15 5 -17 11 -2 5 -10 11 -18 12 -8 2 -20 6 -26 9 -6
4 -17 -3 -24 -16 -10 -20 -9 -29 8 -62 18 -33 30 -62 37 -84 6 -22 18 -97 17
-103 -2 -5 -4 -21 -6 -36 -2 -16 -6 -33 -10 -39 -3 -5 1 -23 9 -39 30 -56 105
-221 105 -230 0 -15 25 -63 33 -63 4 0 7 -7 7 -15 0 -8 4 -23 9 -33 5 -9 19
-39 32 -67 12 -27 31 -67 41 -87 10 -20 19 -54 21 -75 2 -36 0 -38 -30 -41
-34 -3 -39 5 -115 178 -11 25 -24 52 -29 60 -5 8 -12 22 -15 30 -20 52 -50
116 -56 118 -5 2 -8 13 -8 25 0 12 -9 33 -20 47 -11 14 -20 30 -20 36 0 5 -9
29 -20 52 -11 22 -20 45 -20 50 0 9 -23 22 -36 22 -2 0 -2 -23 0 -51 3 -36 1
-56 -9 -65 -42 -43 -82 14 -90 131 -6 76 -27 207 -40 251 -9 30 -11 50 -5 52
6 2 10 15 10 28 0 19 -5 24 -25 24 -24 0 -35 15 -16 22 5 2 5 27 -1 61 -9 49
-13 57 -32 57 -18 0 -22 -6 -24 -34z m2409 -1183 c17 -46 5 -83 -32 -95 -11
-4 -43 -116 -55 -188 -3 -19 -8 -42 -11 -50 -4 -8 -8 -22 -9 -30 -8 -40 -43
-179 -54 -207 -13 -36 -17 -38 -54 -23 -32 12 -33 31 -7 125 11 39 25 97 31
130 7 33 15 65 19 70 3 6 7 19 8 30 4 37 9 60 22 101 12 36 11 44 -3 66 -15
23 -15 28 -1 61 11 27 23 39 48 45 42 12 86 -4 98 -35z m-717 -218 c22 -33 20
-77 -4 -98 -17 -14 -20 -30 -21 -104 -3 -211 -8 -275 -25 -294 -21 -23 -38
-24 -57 -4 -13 12 -15 39 -11 147 2 73 6 152 9 176 4 33 -1 53 -17 81 -28 49
-19 87 25 106 49 22 82 19 101 -10z"/>
<path d="M2423 4813 c11 -10 -13 -33 -34 -33 -22 0 -25 -23 -5 -39 7 -6 19
-38 26 -71 7 -33 17 -60 21 -60 5 0 9 -10 9 -23 0 -13 3 -27 7 -30 14 -15 13
-70 -2 -81 -14 -10 -9 -19 34 -66 28 -30 51 -58 51 -61 0 -4 7 -10 16 -13 13
-5 14 -1 9 24 -4 19 -2 36 5 45 10 12 7 33 -15 102 -14 49 -35 104 -44 123
-10 19 -22 53 -26 74 -9 54 -35 116 -48 116 -6 0 -7 -3 -4 -7z"/>
<path d="M4469 4720 c-5 -28 -3 -35 10 -35 21 0 25 -23 5 -27 -10 -1 -19 -12
-20 -23 -4 -30 -11 -68 -15 -84 -3 -9 6 -14 24 -15 17 -1 37 -12 48 -26 l20
-25 -2 30 c0 17 0 32 1 35 2 3 4 25 5 49 3 36 0 44 -16 48 -21 6 -26 23 -6 23
15 0 18 42 3 52 -16 11 -56 10 -57 -2z"/>
<path d="M2898 4665 c6 -34 -14 -55 -52 -56 -17 0 -25 -3 -18 -6 6 -2 12 -14
12 -25 0 -11 6 -34 14 -51 8 -18 20 -57 26 -87 20 -92 19 -91 40 -80 28 15 86
12 100 -5 21 -26 28 -17 17 25 -6 22 -15 40 -19 40 -4 0 -8 12 -8 28 -1 15 -9
45 -20 67 -11 22 -19 45 -20 52 0 7 -11 37 -25 68 -27 57 -56 76 -47 30z"/>
<path d="M1240 4484 c0 -8 4 -14 9 -14 5 0 11 -13 13 -29 2 -17 1 -28 -4 -25
-22 14 13 -130 39 -159 11 -12 28 -39 37 -60 19 -41 50 -77 66 -77 6 0 10 -6
10 -13 0 -17 51 -63 65 -59 6 2 7 0 2 -4 -9 -9 32 -54 50 -54 7 0 13 -6 13
-13 0 -7 10 -19 22 -27 12 -8 33 -26 47 -40 14 -13 32 -23 39 -22 6 2 12 -5
12 -14 0 -10 5 -14 15 -11 8 4 17 2 20 -3 4 -6 1 -10 -6 -10 -6 0 0 -9 14 -20
14 -11 29 -20 34 -20 4 0 14 -9 21 -20 7 -11 19 -20 28 -20 8 0 29 -13 47 -30
18 -16 36 -30 40 -30 5 0 21 -9 37 -20 15 -11 30 -17 34 -13 3 3 6 2 6 -4 0
-5 18 -18 39 -28 23 -10 37 -23 35 -30 -3 -7 5 -15 19 -19 14 -3 52 -21 85
-40 34 -19 70 -37 81 -41 12 -3 21 -10 21 -15 0 -5 15 -12 34 -16 19 -3 42
-15 52 -25 9 -10 23 -19 31 -19 7 0 31 -11 53 -25 22 -14 43 -25 47 -25 5 0
28 -11 53 -24 25 -13 59 -26 75 -30 33 -8 97 -36 105 -46 5 -6 52 -22 75 -25
13 -2 62 -23 98 -42 16 -8 39 -12 51 -9 18 4 25 1 29 -14 3 -13 14 -20 29 -20
14 0 28 -3 32 -7 4 -5 11 -8 14 -9 4 0 14 -3 22 -6 8 -3 44 -14 80 -23 36 -10
85 -23 110 -30 25 -8 61 -17 80 -21 46 -10 49 -11 55 -14 3 -1 8 -3 13 -4 4
-2 27 -8 51 -15 23 -7 46 -10 49 -7 3 3 10 2 16 -3 26 -20 299 -65 478 -77 95
-7 375 -7 493 0 150 8 262 19 276 26 8 5 42 10 75 10 32 1 76 6 96 11 54 14
296 47 403 56 66 5 377 8 420 3 47 -5 211 -41 227 -50 10 -6 24 -10 31 -10 7
0 37 -11 65 -25 29 -14 56 -25 61 -25 15 0 181 -69 271 -113 47 -22 87 -41 90
-42 3 0 10 -3 15 -7 31 -20 107 -56 150 -72 28 -11 52 -22 55 -26 10 -15 123
-70 131 -64 5 3 9 1 9 -4 0 -10 81 -58 93 -54 4 1 7 -2 7 -7 0 -5 14 -12 30
-16 17 -4 30 -10 30 -14 0 -3 35 -23 78 -44 42 -21 84 -42 92 -47 34 -20 128
-60 143 -60 8 0 17 -3 19 -7 5 -12 91 -53 109 -53 9 0 22 -7 30 -16 7 -8 21
-13 31 -11 11 3 18 0 18 -9 0 -8 4 -14 9 -14 5 0 47 -17 93 -38 45 -22 101
-46 123 -55 46 -19 98 -40 105 -42 3 -1 16 -6 30 -12 21 -10 52 -22 70 -28 3
-1 18 -7 33 -13 16 -7 33 -12 38 -12 5 0 9 -4 9 -10 0 -5 6 -10 12 -10 14 0
144 -46 171 -61 22 -12 135 -52 227 -80 36 -11 72 -24 80 -28 9 -5 56 -20 105
-35 50 -15 99 -31 110 -36 11 -5 97 -30 190 -55 94 -26 193 -53 221 -61 28 -8
60 -14 71 -14 11 0 23 -3 27 -7 3 -4 14 -8 24 -9 31 -4 76 -13 127 -24 132
-28 198 -38 212 -33 7 3 19 0 26 -6 7 -6 38 -13 68 -16 30 -3 88 -9 129 -15
41 -5 95 -9 120 -9 25 1 47 0 50 -1 20 -7 237 -5 247 2 6 5 20 8 30 7 25 -4
96 11 111 23 6 6 12 7 12 2 0 -4 9 2 19 13 11 11 38 29 60 39 22 11 41 24 41
31 0 6 9 14 20 18 30 9 150 134 150 156 0 10 3 19 8 19 10 0 29 47 36 90 6 34
-11 107 -34 150 -6 12 -36 37 -65 56 -85 54 -289 155 -302 149 -7 -2 -13 1
-13 8 0 10 -92 58 -120 63 -8 1 -82 33 -126 54 -23 11 -44 20 -48 20 -4 0 -26
8 -49 19 -23 10 -82 35 -132 56 -49 20 -103 42 -120 50 -110 47 -154 65 -165
65 -7 0 -38 11 -69 24 -113 48 -412 160 -541 203 -49 16 -50 16 -95 27 -16 4
-37 10 -45 13 -8 4 -19 5 -24 4 -4 -1 -13 2 -20 8 -9 7 -80 24 -111 26 -5 0
-14 3 -20 7 -18 10 -206 50 -246 52 -21 0 -39 4 -39 7 0 6 -35 13 -130 25 -19
2 -62 9 -95 14 -33 6 -80 11 -105 13 -25 1 -47 5 -50 8 -3 4 -34 10 -70 13
-87 8 -131 14 -219 32 -41 8 -76 12 -79 10 -2 -3 -14 -1 -26 4 -13 4 -47 11
-76 14 -29 3 -69 10 -89 16 -76 20 -204 52 -220 55 -25 5 -263 84 -286 95 -11
5 -60 26 -110 46 -49 20 -103 44 -120 53 -16 10 -46 24 -65 31 -19 8 -37 16
-40 19 -3 3 -27 17 -55 31 -27 14 -52 27 -55 30 -3 3 -32 23 -65 44 -76 49
-204 177 -327 326 -120 146 -279 302 -286 281 -2 -6 -9 -11 -16 -11 -6 0 -20
-13 -29 -30 -10 -16 -15 -30 -12 -30 4 0 -4 -14 -16 -31 -12 -17 -23 -41 -25
-53 -1 -11 -5 -29 -9 -38 -5 -13 -2 -18 9 -18 9 0 16 -8 16 -19 0 -11 5 -21
12 -23 6 -2 12 -11 14 -19 1 -7 9 -42 18 -75 44 -167 -7 -310 -164 -463 -85
-83 -117 -108 -157 -123 -18 -7 -33 -16 -33 -20 0 -4 -6 -8 -14 -8 -7 0 -19
-6 -25 -14 -7 -8 -24 -17 -39 -21 -14 -3 -49 -17 -77 -30 -77 -35 -322 -103
-349 -96 -5 1 -39 -3 -75 -9 -144 -23 -444 -33 -581 -19 -36 4 -92 10 -125 13
-126 12 -345 46 -465 72 -240 51 -329 72 -352 85 -10 5 -23 9 -30 9 -13 0
-195 55 -233 70 -11 5 -38 14 -60 20 -22 6 -53 17 -70 25 -44 19 -73 30 -140
55 -33 12 -70 27 -82 32 -11 6 -26 7 -32 4 -6 -4 -11 -3 -11 2 0 5 -24 19 -52
32 -62 25 -328 158 -408 202 -77 43 -284 179 -288 190 -2 4 -8 8 -12 8 -28 0
-300 273 -300 300 0 5 -6 10 -14 10 -13 0 -28 35 -30 69 -1 18 -26 27 -26 10
0 -6 -10 1 -22 17 -13 16 -29 35 -36 43 -8 8 -11 24 -7 39 5 19 3 23 -9 19 -9
-4 -20 1 -25 12 -5 9 -29 24 -53 31 -48 16 -58 25 -58 56 0 13 -8 24 -20 27
-13 3 -20 0 -20 -9z"/>
<path d="M1125 4397 c-4 -12 -7 -25 -6 -29 1 -5 -5 -8 -11 -8 -23 0 -48 -101
-47 -186 0 -58 5 -87 19 -109 10 -16 30 -52 44 -80 14 -27 39 -66 55 -85 16
-19 42 -50 58 -69 61 -73 158 -171 170 -171 7 0 13 -7 13 -15 0 -8 4 -15 8
-15 4 0 25 -17 46 -37 31 -30 39 -34 47 -22 8 11 9 9 5 -6 -4 -15 5 -26 37
-47 23 -15 78 -54 121 -87 43 -34 87 -61 97 -61 11 0 18 -5 16 -11 -2 -12 218
-150 311 -195 28 -14 52 -30 52 -35 0 -5 8 -9 18 -9 10 0 23 -5 30 -12 9 -9
12 -9 12 3 1 10 3 10 11 -4 12 -21 66 -50 79 -42 6 3 10 2 10 -3 0 -11 324
-172 344 -172 7 0 16 -4 22 -9 5 -5 34 -16 64 -26 30 -10 60 -21 65 -25 6 -3
48 -19 95 -34 47 -15 94 -31 105 -36 44 -18 184 -54 259 -67 16 -2 40 -9 53
-14 13 -5 42 -9 65 -9 22 0 66 -6 97 -14 31 -8 88 -17 126 -21 39 -4 79 -9 90
-11 11 -2 96 -7 189 -9 94 -3 172 -8 174 -10 3 -2 13 0 23 5 12 7 20 6 24 -1
5 -7 32 -8 79 -5 39 3 173 8 297 11 124 3 236 8 250 11 13 3 74 7 134 9 61 2
173 7 250 10 164 8 487 8 595 1 68 -5 148 -16 223 -31 15 -3 37 -7 50 -9 21
-4 89 -21 182 -44 34 -9 127 -39 185 -60 8 -3 20 -6 25 -8 13 -3 213 -82 240
-94 11 -5 61 -28 110 -50 102 -47 126 -57 139 -58 5 0 12 -5 15 -10 9 -13 87
-52 106 -52 8 0 23 -9 32 -20 10 -11 21 -20 26 -20 4 0 39 -18 77 -39 39 -22
70 -38 70 -36 0 3 24 -10 53 -28 28 -19 59 -37 67 -40 8 -4 35 -19 60 -33 67
-38 495 -255 570 -288 147 -66 395 -160 452 -171 9 -2 29 -10 45 -18 25 -12
123 -43 213 -67 19 -5 53 -15 75 -22 22 -7 45 -13 50 -14 6 0 30 -6 55 -13 74
-21 151 -40 225 -56 39 -9 97 -23 130 -32 33 -9 76 -18 95 -20 19 -2 42 -6 50
-10 20 -8 18 -8 75 -16 28 -5 73 -12 100 -18 323 -62 433 -79 565 -85 142 -8
192 -5 280 17 41 10 87 19 103 19 15 0 44 9 64 20 21 11 43 20 50 20 6 0 19 9
27 21 8 12 19 18 25 15 10 -7 176 152 221 212 14 18 30 39 37 46 9 10 9 16 0
25 -9 9 -8 11 4 6 10 -4 19 3 28 21 6 15 9 29 6 32 -2 3 -1 10 5 17 13 16 14
76 1 108 -6 16 -11 45 -11 66 0 76 -60 191 -99 191 -6 0 -8 7 -5 15 4 8 1 15
-6 15 -8 0 -10 -14 -6 -44 9 -86 -60 -214 -160 -296 -24 -19 -43 -40 -43 -46
-1 -7 -9 -14 -18 -18 -25 -8 -57 -29 -66 -43 -4 -7 -17 -13 -27 -13 -12 0 -20
-7 -20 -16 0 -11 -6 -14 -20 -9 -11 3 -20 2 -20 -4 0 -10 -54 -29 -80 -29 -8
0 -53 -5 -100 -11 -47 -6 -124 -10 -173 -8 -49 2 -91 -1 -97 -7 -7 -7 -10 -6
-10 2 0 8 -21 12 -64 12 -35 0 -101 6 -147 14 -85 15 -193 28 -239 30 -14 1
-27 3 -30 6 -3 3 -57 16 -120 28 -183 37 -523 122 -536 135 -4 4 -16 7 -26 7
-23 0 -487 154 -527 175 -16 8 -31 11 -34 8 -4 -3 -12 -1 -19 4 -7 5 -40 20
-73 32 -33 13 -69 27 -80 31 -11 5 -45 19 -75 31 -30 12 -69 28 -87 35 -17 8
-34 14 -38 14 -3 0 -25 8 -48 19 -23 10 -71 31 -107 46 -36 15 -83 35 -105 45
-22 10 -58 26 -80 35 -106 46 -153 67 -187 85 -20 11 -46 20 -57 20 -10 0 -21
4 -23 8 -1 5 -95 55 -208 111 -113 57 -218 111 -235 121 -62 38 -413 210 -428
210 -8 0 -17 4 -19 8 -7 19 -299 142 -408 173 -25 7 -47 16 -50 19 -9 10 -151
40 -225 47 -83 8 -303 7 -360 -1 -22 -4 -80 -10 -130 -15 -127 -13 -253 -31
-300 -41 -22 -5 -56 -10 -75 -10 -20 0 -41 -5 -46 -10 -6 -6 -42 -12 -80 -15
-38 -2 -100 -6 -139 -8 -317 -20 -485 -18 -755 8 -109 10 -424 74 -570 115
-41 12 -82 23 -90 24 -8 2 -22 6 -30 9 -62 24 -234 77 -248 77 -9 0 -57 16
-106 35 -49 19 -93 35 -97 35 -4 0 -37 13 -72 30 -36 16 -70 30 -76 30 -5 0
-26 9 -45 21 -20 11 -41 22 -48 23 -16 3 -64 24 -100 42 -14 8 -34 14 -44 14
-9 0 -14 3 -11 7 10 9 -53 37 -76 34 -11 -2 -21 5 -24 18 -3 12 -17 22 -33 26
-16 3 -34 13 -41 21 -6 8 -18 14 -25 14 -8 0 -14 5 -14 10 0 6 -5 10 -11 10
-6 0 -31 14 -56 30 -24 17 -51 30 -59 30 -7 0 -14 4 -14 9 0 5 -37 31 -82 57
-46 26 -86 52 -90 58 -4 6 -12 11 -18 11 -6 0 -14 5 -18 11 -14 21 -146 124
-160 124 -7 0 -11 4 -7 9 3 5 -4 12 -15 16 -11 3 -20 11 -20 16 0 5 -7 9 -15
9 -8 0 -15 4 -15 9 0 5 -35 46 -77 90 -138 145 -150 159 -176 216 -28 60 -40
101 -46 150 -5 42 -10 50 -27 52 -15 2 -24 -5 -29 -20z"/>
</g>
</svg>
