<?xml version="1.0" standalone="no"?>
<!DOCTYPE svg PUBLIC "-//W3C//DTD SVG 20010904//EN"
 "http://www.w3.org/TR/2001/REC-SVG-20010904/DTD/svg10.dtd">
<svg version="1.0" xmlns="http://www.w3.org/2000/svg"
 width="877.000000pt" height="974.000000pt" viewBox="0 0 877.000000 974.000000"
 preserveAspectRatio="xMidYMid meet">
<metadata>
Created by potrace 1.16, written by Peter Selinger 2001-2019
</metadata>
<g transform="translate(0.000000,974.000000) scale(0.100000,-0.100000)"
fill="#000000" stroke="none">
<path d="M5770 8780 c-14 -11 -29 -20 -35 -20 -31 -2 -115 -115 -115 -156 0
-20 -30 -27 -140 -35 -100 -8 -195 -20 -250 -34 -14 -3 -41 -8 -60 -11 -19 -3
-49 -12 -67 -20 -45 -20 -126 -34 -201 -34 -113 0 -243 -21 -284 -47 -46 -28
-58 -50 -58 -102 0 -31 6 -46 27 -66 15 -14 36 -25 46 -25 10 0 34 -7 55 -16
22 -10 79 -19 142 -23 l105 -6 0 -105 0 -105 -71 -3 c-38 -1 -104 2 -145 7
-157 22 -530 50 -665 51 -115 0 -144 3 -154 15 -9 11 -22 14 -44 10 -46 -10
-137 -44 -166 -63 -43 -28 -382 -198 -460 -231 -41 -17 -88 -38 -105 -46 -16
-7 -46 -16 -66 -19 -27 -5 -439 -199 -519 -246 -8 -4 -82 -43 -165 -85 -169
-86 -172 -88 -200 -103 -11 -6 -49 -26 -85 -45 -36 -18 -96 -49 -135 -69 -38
-20 -77 -39 -85 -42 -8 -3 -31 -16 -50 -27 -19 -12 -73 -42 -120 -66 -47 -25
-89 -49 -95 -54 -5 -5 -17 -9 -26 -9 -9 0 -22 -7 -29 -15 -7 -8 -19 -15 -28
-15 -8 0 -23 -6 -31 -14 -9 -8 -79 -46 -156 -86 -77 -40 -167 -87 -200 -106
-33 -19 -70 -39 -82 -45 -11 -6 -23 -23 -26 -38 -3 -14 -10 -46 -16 -71 -6
-25 -10 -104 -11 -177 0 -132 0 -132 29 -165 16 -19 39 -34 52 -35 12 -1 26
-6 31 -11 5 -5 13 -426 18 -943 6 -535 16 -1064 25 -1239 8 -168 15 -471 15
-675 0 -203 7 -541 15 -750 8 -209 15 -461 15 -560 0 -163 2 -182 20 -205 11
-14 20 -29 20 -33 0 -12 36 -48 62 -61 13 -7 32 -17 43 -23 43 -24 151 -35
212 -23 86 17 87 17 127 57 24 25 36 45 36 65 0 45 31 53 142 38 51 -6 251
-16 443 -21 193 -6 400 -14 460 -19 61 -5 277 -13 481 -18 204 -5 376 -12 384
-17 7 -4 164 -11 349 -16 681 -15 1136 -32 1149 -42 6 -5 12 -18 12 -27 0 -32
32 -76 71 -98 33 -19 53 -22 146 -22 104 0 110 2 168 34 77 43 115 108 115
202 0 60 0 61 49 102 27 24 74 59 103 79 29 20 55 39 58 43 3 4 55 45 115 92
61 46 119 92 130 101 11 9 49 38 85 64 36 26 94 72 128 101 35 28 66 52 70 52
4 0 21 13 39 28 47 40 62 53 133 106 36 28 100 78 142 113 43 35 80 63 84 63
5 0 102 78 250 202 44 37 44 37 113 31 94 -8 151 17 181 79 21 43 21 54 30
1453 5 776 14 1570 20 1765 5 195 10 515 10 711 l0 356 23 21 c13 12 28 22 33
22 13 0 68 59 84 89 21 42 25 227 6 313 l-17 74 -142 17 c-78 10 -194 17 -258
17 -64 0 -150 3 -192 6 -73 7 -77 8 -77 31 0 16 8 27 26 34 26 9 26 12 20 62
-4 28 -10 94 -13 145 -7 111 -7 112 89 112 37 0 69 4 73 9 3 6 26 13 51 17 51
7 124 66 124 100 -1 19 -32 64 -46 64 -4 0 -15 7 -25 16 -10 9 -33 18 -51 20
-109 14 -171 15 -245 4 -77 -11 -85 -11 -126 9 -24 12 -51 21 -61 21 -9 0 -27
5 -38 11 -26 14 -108 28 -228 39 -168 14 -199 26 -200 74 0 33 -58 93 -121
125 -57 29 -67 31 -167 31 -91 0 -111 -3 -132 -20z m254 -285 c25 -24 46 -47
46 -50 0 -10 -350 0 -350 10 -1 6 16 12 36 15 36 5 46 15 58 53 5 14 18 17 85
17 l79 0 46 -45z m-534 -17 c0 -19 62 -78 82 -78 11 0 32 -7 49 -15 25 -14 73
-15 316 -13 218 2 287 6 291 16 2 6 19 12 38 12 38 0 114 52 114 77 0 15 56
18 65 3 3 -5 34 -10 68 -10 44 0 71 -6 95 -20 18 -11 41 -20 52 -20 38 0 20
-26 -39 -58 -33 -18 -74 -32 -91 -32 -17 0 -47 -7 -67 -15 -19 -8 -63 -15 -97
-15 -38 -1 -68 -6 -80 -15 -15 -12 -53 -15 -165 -15 -97 0 -165 -5 -201 -15
-70 -19 -221 -19 -325 0 -44 8 -133 18 -197 21 -94 6 -121 11 -137 26 -14 12
-35 18 -69 18 -31 0 -54 5 -62 14 -6 8 -24 16 -38 18 -44 5 -31 23 22 29 28 3
52 11 54 17 2 7 23 12 47 12 24 0 56 6 72 14 42 21 96 36 129 36 16 0 36 5 44
10 20 13 30 12 30 -2z m-1572 -527 c41 -12 125 -14 272 -7 67 3 196 -2 310
-11 107 -8 250 -13 317 -11 l121 4 15 -61 c22 -86 28 -117 28 -143 -1 -38 17
-62 47 -62 33 0 55 -30 46 -65 -3 -14 -1 -32 6 -40 10 -12 5 -23 -24 -58 -20
-25 -36 -55 -36 -69 0 -32 48 -76 110 -102 25 -10 60 -24 78 -32 18 -8 43 -14
55 -14 12 0 40 -7 62 -15 23 -8 77 -14 126 -15 47 0 89 -4 95 -10 16 -16 251
-23 359 -10 55 7 177 15 270 19 94 3 176 10 184 15 7 5 41 12 75 16 33 4 97
20 141 35 44 15 85 29 90 31 29 10 91 53 107 75 17 22 17 31 7 106 -11 77 -11
83 10 108 12 17 21 42 21 64 0 45 30 107 50 104 8 -1 35 -7 60 -12 25 -6 127
-13 228 -17 100 -4 182 -10 182 -13 0 -8 -13 -17 -100 -73 -36 -23 -67 -44
-70 -48 -3 -3 -17 -11 -32 -19 -15 -8 -36 -21 -46 -30 -28 -25 -80 -61 -89
-61 -4 -1 -24 -14 -43 -30 -19 -17 -38 -30 -43 -30 -5 0 -34 -19 -65 -43 -52
-39 -269 -188 -310 -212 -9 -5 -19 -12 -22 -15 -3 -3 -25 -19 -50 -35 -25 -17
-46 -33 -48 -37 -2 -5 -9 -8 -17 -8 -7 0 -18 -7 -25 -15 -10 -12 -164 -118
-353 -244 -12 -8 -45 -32 -73 -53 -28 -21 -56 -38 -62 -38 -5 0 -12 -4 -14 -8
-1 -5 -41 -35 -88 -67 -175 -121 -233 -160 -259 -176 -23 -15 -54 -16 -292 -9
-146 4 -271 10 -278 14 -7 4 -188 12 -404 17 -216 5 -437 13 -492 18 -55 5
-314 14 -575 20 -261 6 -520 15 -575 20 -55 6 -246 11 -425 11 -179 0 -368 5
-420 11 -52 6 -259 14 -460 17 -233 5 -365 11 -364 17 1 6 19 20 40 32 37 21
46 26 77 38 6 3 19 9 27 14 8 5 36 19 62 31 27 12 50 26 54 31 3 5 13 9 23 9
10 0 24 7 31 15 7 8 20 15 30 15 9 0 25 9 35 20 10 11 26 20 35 20 10 0 23 7
30 15 7 8 20 15 30 15 10 0 23 7 30 15 7 8 17 15 23 15 15 0 96 40 103 51 3 5
15 9 26 9 12 0 30 8 41 18 19 17 20 16 7 -8 -7 -14 -21 -34 -31 -45 -39 -40
-69 -97 -69 -128 1 -31 30 -76 60 -90 8 -4 22 -11 30 -15 55 -31 86 -42 118
-42 20 0 64 -9 96 -20 54 -18 86 -20 350 -20 212 1 317 5 386 16 52 9 158 19
235 22 77 4 147 12 155 17 8 5 44 13 80 16 117 12 195 41 268 97 41 32 42 35
42 90 0 60 -5 69 -84 152 -42 44 -127 90 -165 90 -16 0 -34 7 -41 15 -8 9 -30
15 -59 15 -25 0 -84 7 -131 15 -105 19 -209 19 -415 0 -88 -8 -200 -15 -248
-15 -55 0 -101 -6 -124 -15 -19 -8 -54 -15 -77 -15 -22 0 -54 -7 -70 -15 -15
-8 -42 -15 -58 -15 -26 0 -29 2 -18 15 11 13 76 49 168 94 17 8 32 19 32 23 0
4 6 8 14 8 11 0 169 77 249 120 39 22 56 31 137 71 47 23 87 46 88 51 2 4 9 8
17 8 7 0 32 11 56 25 24 14 51 29 59 34 8 4 24 13 35 19 28 17 33 19 285 131
124 55 290 131 370 170 146 70 178 79 238 62z m3373 -993 c-8 -179 -16 -916
-21 -2003 -4 -946 -11 -1727 -14 -1735 -4 -8 -39 -39 -79 -67 -40 -29 -86 -65
-102 -80 -17 -16 -69 -57 -115 -92 -47 -36 -101 -80 -120 -98 -19 -18 -38 -33
-43 -33 -9 0 -75 -49 -108 -80 -28 -26 -68 -59 -109 -89 -21 -15 -58 -44 -82
-64 -54 -44 -354 -284 -398 -317 -18 -14 -42 -33 -53 -43 -11 -9 -54 -43 -95
-75 -41 -31 -106 -84 -146 -117 -39 -33 -75 -63 -81 -68 -5 -4 -28 -21 -50
-38 -22 -16 -47 -35 -55 -42 -56 -46 -91 -69 -97 -63 -4 4 -1 354 5 779 9 531
11 1177 6 2068 -7 1267 -7 1296 12 1322 10 15 23 27 28 27 11 0 205 127 221
144 6 6 26 20 45 30 19 11 53 33 75 51 39 29 139 99 173 120 9 6 22 15 28 20
15 12 54 40 204 145 63 44 123 87 132 95 9 7 29 22 45 32 15 10 34 24 42 31
13 13 134 96 169 117 10 6 26 18 37 28 27 24 184 137 190 137 3 0 11 5 18 10
18 16 162 123 187 140 23 15 81 60 90 70 18 19 56 37 64 29 6 -5 5 -118 -3
-291z m-3966 147 c110 -23 205 -80 205 -123 0 -33 -112 -82 -187 -82 -23 0
-44 -4 -47 -9 -8 -13 -71 -22 -164 -25 -42 -2 -97 -8 -122 -15 -71 -19 -325
-34 -560 -35 -228 0 -344 12 -385 38 -13 9 -31 16 -38 16 -8 0 -22 9 -32 20
-26 29 -6 61 61 95 30 15 57 32 60 36 3 5 21 9 40 9 20 0 42 7 50 15 9 8 32
15 53 15 20 0 41 4 46 8 20 17 94 32 166 33 41 1 103 5 139 9 36 4 196 8 355
8 221 2 307 -2 360 -13z m-1670 -925 c165 -5 359 -12 430 -16 72 -4 213 -11
315 -15 102 -5 264 -13 360 -18 96 -5 243 -10 325 -11 83 0 209 -7 280 -15 73
-8 230 -15 360 -16 272 -1 399 -9 417 -27 17 -17 -5 -32 -47 -32 -38 0 -101
-60 -123 -117 -25 -65 -27 -154 -3 -198 23 -44 88 -105 112 -105 9 0 33 -7 52
-15 20 -8 58 -15 86 -15 47 0 140 22 171 41 8 5 24 13 35 18 49 22 69 59 73
133 4 61 1 78 -18 113 -12 23 -38 52 -56 64 -19 13 -34 27 -34 32 0 5 -11 9
-24 9 -14 0 -31 9 -38 19 -9 13 -28 21 -58 23 -24 2 -45 9 -48 16 -5 15 318
17 473 2 55 -6 208 -13 340 -16 178 -5 246 -10 262 -20 29 -18 58 -18 77 2 9
8 26 14 38 12 l23 -3 3 -294 c1 -162 -1 -297 -5 -301 -17 -12 -1301 22 -1483
41 -63 6 -245 13 -405 15 -159 2 -344 9 -410 15 -66 6 -264 15 -440 19 -176 5
-372 13 -435 19 -63 5 -221 10 -350 10 -134 1 -289 7 -360 15 -69 8 -171 18
-227 22 l-102 7 -3 286 c-2 157 -1 294 1 304 3 17 11 18 70 13 36 -3 201 -10
366 -16z m2617 -204 c31 -2 44 -7 46 -19 2 -10 13 -17 26 -17 30 0 66 -39 102
-108 9 -17 -5 -84 -17 -77 -5 4 -9 -1 -9 -10 0 -9 -9 -26 -21 -38 l-21 -22 3
40 c3 48 -11 155 -20 155 -4 0 -29 20 -54 45 l-47 45 -88 2 c-76 1 -81 2 -37
8 28 3 60 5 72 2 12 -2 41 -5 65 -6z m-2452 -477 c69 -6 285 -15 480 -19 195
-5 423 -15 505 -24 91 -9 252 -15 410 -16 143 0 316 -5 385 -11 69 -5 278 -14
465 -20 187 -5 414 -13 505 -18 91 -5 251 -10 355 -10 105 0 261 -6 347 -13
184 -14 166 5 164 -173 -1 -60 -2 -852 -4 -1758 l-2 -1648 -527 6 c-291 3
-559 10 -598 15 -95 14 -192 19 -590 29 -187 5 -376 12 -420 15 -44 3 -231 11
-415 16 -184 6 -378 14 -430 19 -52 5 -210 10 -350 11 -140 1 -295 6 -345 11
-49 5 -171 12 -270 15 -99 4 -186 11 -192 16 -10 8 -13 153 -14 662 0 358 -5
766 -10 906 -5 140 -14 595 -19 1010 -5 415 -12 803 -16 863 -4 68 -3 112 4
120 13 15 398 13 582 -4z"/>
<path d="M3960 7810 c-69 -4 -186 -11 -260 -15 -79 -5 -146 -13 -162 -21 -15
-8 -36 -14 -48 -14 -51 0 -190 -105 -190 -143 0 -11 -7 -28 -15 -37 -9 -10
-19 -34 -22 -54 -5 -33 -2 -40 37 -76 31 -28 52 -40 74 -40 17 0 40 -7 50 -15
11 -8 40 -15 65 -15 25 0 73 -10 106 -21 56 -19 83 -21 425 -21 333 0 369 1
405 18 22 10 69 21 104 24 41 3 66 10 69 18 3 11 -15 13 -89 9 -52 -3 -116 -9
-144 -15 -62 -13 -548 -14 -630 -1 -33 5 -105 13 -160 17 -55 4 -110 13 -122
20 -12 6 -35 12 -52 12 -35 0 -101 36 -101 55 0 25 20 27 50 5 16 -12 57 -26
91 -31 34 -5 69 -14 78 -18 25 -13 535 -21 781 -11 208 7 265 14 375 41 22 6
51 13 65 16 14 3 44 21 66 39 43 35 54 35 54 0 0 -23 -32 -56 -53 -56 -6 0
-25 -8 -42 -17 -16 -9 -52 -19 -79 -22 -27 -3 -51 -12 -54 -18 -6 -19 88 -17
124 2 16 8 40 15 55 15 15 0 37 13 57 33 29 29 32 39 32 91 0 43 -6 66 -22 89
-28 42 -69 76 -89 77 -9 0 -22 7 -29 15 -7 8 -23 15 -37 15 -13 0 -36 6 -51
14 -15 7 -58 16 -97 20 -38 3 -92 10 -120 15 -56 11 -306 11 -495 1z m635 -65
c22 -8 55 -14 73 -15 22 0 47 -11 74 -32 72 -58 74 -110 5 -143 -22 -11 -45
-19 -51 -17 -5 2 -35 -6 -65 -17 -75 -26 -239 -35 -641 -35 -360 0 -529 11
-558 37 -10 10 -26 17 -35 17 -18 0 -37 29 -37 56 0 23 76 94 100 94 10 0 34
8 52 19 23 13 63 21 128 25 52 4 111 11 130 15 19 5 204 9 410 10 303 1 383
-2 415 -14z"/>
<path d="M3921 7680 c-43 -24 -55 -44 -42 -69 25 -46 163 -70 300 -52 125 16
159 79 66 121 -63 29 -273 28 -324 0z"/>
<path d="M4685 7130 c-38 -4 -104 -8 -145 -9 -54 -1 -87 -7 -115 -21 -22 -11
-47 -20 -57 -20 -52 0 -188 -104 -188 -145 0 -11 -7 -29 -15 -39 -17 -22 -20
-88 -5 -116 13 -23 75 -60 104 -60 12 0 27 -5 34 -12 7 -7 38 -15 70 -19 31
-4 80 -14 108 -22 35 -10 127 -17 305 -21 305 -8 518 2 570 28 23 10 55 16 84
15 35 -2 51 2 60 14 9 12 27 17 67 17 31 0 72 7 91 15 20 8 47 15 60 15 61 0
107 117 77 195 -16 43 -76 105 -101 105 -9 0 -22 7 -29 15 -7 8 -22 15 -35 15
-12 0 -37 8 -56 17 -19 10 -65 21 -104 26 -91 11 -690 17 -780 7z m812 -85
c19 -8 50 -15 68 -15 23 0 39 -7 52 -23 10 -13 26 -26 36 -30 12 -4 17 -17 17
-42 0 -29 -4 -35 -21 -35 -11 0 -18 -4 -15 -9 6 -9 -26 -21 -59 -21 -11 0 -33
-7 -48 -15 -15 -8 -42 -17 -60 -19 -63 -10 -406 -21 -632 -20 -311 0 -461 11
-503 35 -18 11 -39 19 -47 19 -16 0 -25 22 -19 47 7 23 87 83 113 83 11 0 21
5 23 11 2 7 40 16 83 20 44 5 103 13 130 18 28 4 229 9 448 10 333 1 403 -1
434 -14z m-1103 -284 c14 -22 905 -19 1079 5 45 6 48 5 37 -12 -10 -16 -25
-19 -108 -19 -57 0 -129 -8 -176 -18 -67 -16 -111 -18 -310 -14 -127 3 -256
10 -286 17 -30 6 -100 14 -155 17 -61 3 -107 10 -119 19 -20 13 -19 14 6 14
15 0 29 -4 32 -9z"/>
<path d="M4810 7020 c-64 -37 -78 -80 -37 -123 44 -49 283 -60 379 -19 39 17
62 53 53 82 -3 10 -22 31 -43 47 -36 27 -40 28 -177 30 -124 3 -144 1 -175
-17z"/>
<path d="M2640 7063 c-14 -2 -29 -9 -34 -14 -6 -5 -17 -9 -25 -9 -24 0 -71
-45 -71 -67 0 -30 59 -79 100 -82 19 -2 40 -7 47 -13 13 -11 153 -5 226 9 52
11 107 54 107 85 0 20 -29 58 -45 58 -5 0 -23 7 -40 16 -31 16 -212 28 -265
17z"/>
<path d="M1760 6075 c-53 -27 -80 -55 -109 -110 -29 -54 -26 -93 9 -168 36
-77 68 -106 141 -131 115 -38 275 12 313 98 26 57 27 75 9 138 -15 51 -28 73
-71 115 -29 28 -66 54 -82 58 -16 4 -32 11 -35 16 -12 19 -128 8 -175 -16z"/>
<path d="M2588 6092 c-25 -2 -52 -10 -58 -18 -7 -7 -18 -14 -24 -14 -6 0 -26
-22 -44 -49 -29 -46 -32 -56 -32 -130 0 -64 4 -88 22 -118 26 -47 58 -83 72
-83 6 0 22 -9 36 -20 35 -27 127 -27 175 0 20 11 45 20 56 20 23 0 82 41 116
80 19 21 22 37 23 101 0 56 -4 80 -15 89 -8 7 -15 16 -15 21 0 12 -46 59 -58
59 -5 0 -12 7 -16 15 -3 8 -14 15 -23 15 -10 0 -28 6 -38 14 -22 15 -100 23
-177 18z"/>
<path d="M3304 6045 c-10 -8 -30 -15 -43 -15 -17 0 -41 -17 -73 -51 -40 -43
-48 -58 -48 -90 0 -21 -5 -41 -11 -45 -10 -6 -9 -33 7 -114 7 -41 63 -104 114
-128 27 -13 63 -17 156 -17 135 0 152 5 224 69 74 66 97 138 65 200 -8 15 -15
33 -15 40 0 14 -120 126 -135 126 -6 0 -28 9 -50 20 -48 25 -161 28 -191 5z"/>
<path d="M4833 5979 c-6 -8 -27 -38 -47 -68 -31 -46 -36 -61 -36 -112 0 -76
23 -121 89 -177 63 -53 115 -72 198 -72 52 0 76 6 117 27 67 36 84 51 107 95
53 103 -6 215 -151 289 -36 18 -66 23 -155 27 -86 3 -113 1 -122 -9z m278 -80
c59 -29 81 -51 113 -111 l19 -36 -24 -48 c-19 -39 -34 -53 -79 -75 -60 -31
-72 -31 -41 0 29 29 36 83 18 147 -18 64 -44 99 -99 136 l-39 27 38 -6 c21 -3
63 -19 94 -34z"/>
<path d="M2225 5193 c-68 -3 -82 -7 -97 -26 -19 -24 -23 -59 -9 -85 4 -9 11
-36 14 -59 4 -33 2 -43 -9 -43 -15 0 -19 -37 -6 -57 4 -7 29 -12 57 -11 28 0
77 -4 110 -11 33 -6 121 -15 195 -21 145 -11 1614 -32 1771 -26 l94 4 42 49
43 48 0 109 0 108 -34 -6 c-50 -9 -96 -35 -96 -53 0 -14 -21 -15 -202 -9 -112
4 -354 11 -538 16 -184 5 -483 14 -665 20 -181 6 -384 8 -450 5 l-120 -7 18
20 c18 20 18 21 -2 31 -11 6 -23 10 -28 9 -4 -1 -44 -4 -88 -5z"/>
<path d="M1644 4746 c-4 -9 -4 -74 0 -144 14 -301 25 -842 25 -1296 1 -382 4
-519 17 -620 21 -176 21 -175 50 -186 14 -6 143 -10 287 -11 144 0 287 -4 317
-9 30 -5 262 -13 515 -19 253 -6 577 -15 720 -21 143 -5 411 -12 595 -15 184
-3 421 -10 525 -16 105 -6 249 -9 320 -7 l130 3 2 195 c1 107 6 330 12 495 6
165 13 578 16 917 6 612 6 617 -15 638 -19 19 -32 20 -312 20 -161 1 -327 5
-368 10 -41 5 -280 12 -530 15 -250 4 -548 13 -661 21 -113 8 -345 14 -515 15
-170 0 -363 5 -429 10 -66 5 -249 12 -407 15 -262 6 -288 5 -294 -10z m1121
-77 c116 -6 213 -13 218 -16 4 -2 7 -51 7 -109 0 -120 4 -116 -107 -128 -35
-4 -79 -14 -98 -21 -19 -8 -50 -15 -69 -15 -19 0 -47 -5 -63 -11 -15 -6 -44
-15 -63 -19 -51 -12 -147 -47 -190 -71 -8 -5 -37 -20 -63 -34 -119 -62 -227
-156 -227 -198 0 -8 -7 -20 -15 -27 -11 -9 -15 -33 -15 -92 0 -75 2 -83 36
-134 20 -30 64 -80 99 -112 34 -31 68 -68 75 -81 11 -22 10 -27 -21 -52 -19
-16 -38 -29 -43 -29 -13 0 -156 -73 -162 -82 -3 -4 -14 -8 -25 -8 -10 0 -19
-4 -19 -9 0 -5 -12 -14 -27 -20 -16 -6 -41 -19 -58 -28 -16 -9 -37 -20 -45
-24 -74 -41 -123 -60 -131 -52 -6 6 -14 50 -19 99 -11 95 -25 1268 -16 1283 7
11 775 4 1041 -10z m1235 -48 c52 -5 273 -12 490 -16 217 -3 420 -10 450 -15
30 -5 76 -9 103 -9 l47 -1 0 -186 0 -185 -22 6 c-13 4 -32 16 -44 26 -11 11
-26 19 -33 19 -7 0 -25 6 -39 14 -15 8 -42 20 -59 26 -18 7 -33 16 -33 21 0 5
-13 9 -30 9 -16 0 -44 6 -62 14 -18 7 -53 19 -78 26 -46 12 -65 15 -245 44
-55 9 -109 20 -120 25 -11 5 -72 12 -135 14 -63 3 -128 10 -143 16 -39 15
-762 15 -805 0 -17 -6 -59 -11 -94 -12 l-63 -2 -3 30 c-2 16 -1 59 3 94 l7 64
406 -6 c224 -3 450 -11 502 -16z m-610 -319 c-69 -20 -110 -39 -123 -59 -11
-17 -66 -16 -97 2 -44 25 -106 19 -158 -17 -26 -17 -50 -36 -54 -41 -4 -7 -23
-5 -52 3 -56 15 -163 9 -197 -13 -13 -8 -35 -17 -49 -20 -36 -9 -97 -62 -116
-102 -19 -41 -39 -50 -67 -30 -32 22 -120 19 -170 -6 l-41 -22 41 39 c24 22
50 46 60 54 29 25 123 70 147 70 12 0 31 7 42 15 10 8 35 15 54 15 19 0 49 9
65 20 17 11 47 20 68 20 21 0 49 8 63 17 14 9 58 20 97 24 40 4 129 14 199 21
70 8 129 16 132 18 2 3 53 6 113 7 l108 3 -65 -18z m800 -7 c69 -9 161 -18
205 -22 61 -4 84 -10 96 -24 12 -14 30 -19 71 -19 42 0 59 -5 73 -20 12 -14
31 -20 57 -20 22 0 46 -7 54 -15 9 -8 28 -15 44 -15 16 0 32 -4 35 -10 3 -5
24 -10 46 -10 38 0 44 6 40 38 -1 6 0 12 3 12 15 0 116 -54 116 -62 0 -5 3 -7
8 -5 4 3 15 -6 25 -19 10 -13 13 -24 7 -24 -5 0 -10 5 -10 10 0 6 -13 10 -30
10 -23 0 -30 -5 -30 -19 0 -19 52 -71 71 -71 5 0 9 -9 9 -19 0 -19 -1 -19 -52
0 -29 10 -59 27 -65 36 -27 37 -63 73 -75 73 -7 0 -22 7 -32 15 -11 9 -41 15
-69 15 -46 0 -129 36 -148 63 -4 5 -60 11 -125 12 -115 3 -172 14 -204 40 -30
25 -155 35 -237 20 -33 -6 -49 -4 -67 9 -14 9 -33 16 -43 16 -10 0 -38 7 -63
15 -44 15 -43 15 60 10 58 -3 161 -12 230 -20z m-609 -86 c44 -31 143 -32 186
-1 41 29 129 31 165 3 13 -11 37 -23 51 -26 15 -4 27 -11 27 -16 0 -14 72 -10
100 6 14 8 45 14 70 14 25 0 56 -6 70 -14 14 -8 34 -14 45 -15 11 0 34 -12 50
-26 32 -27 33 -27 173 -8 37 5 51 2 92 -24 26 -17 58 -33 69 -37 12 -3 21 -11
21 -16 0 -5 27 -9 60 -9 74 0 103 -13 124 -56 9 -19 23 -37 31 -40 8 -4 15
-12 15 -20 0 -7 11 -16 25 -20 14 -3 25 -10 25 -15 0 -5 17 -9 38 -9 31 0 41
-5 52 -24 11 -21 10 -28 -7 -50 -11 -14 -23 -22 -27 -19 -3 3 -6 1 -6 -5 0 -6
-18 -21 -40 -33 -22 -13 -40 -25 -40 -29 0 -3 -25 -14 -55 -25 -30 -10 -55
-22 -55 -27 0 -4 -10 -8 -22 -8 -13 0 -36 -9 -53 -20 -16 -11 -40 -20 -51 -20
-12 0 -38 -7 -57 -15 -20 -8 -55 -15 -77 -15 -22 0 -57 -7 -77 -15 -19 -8 -62
-15 -94 -15 -32 0 -68 -4 -81 -9 -13 -6 -167 -14 -343 -20 -250 -7 -373 -6
-560 5 -344 20 -437 28 -462 42 -12 7 -56 12 -97 12 l-76 0 -1 -27 c0 -16 -3
-22 -6 -15 -3 7 -24 12 -51 12 -26 0 -56 7 -66 15 -11 8 -31 15 -45 15 -14 0
-39 7 -55 15 -15 8 -34 15 -42 15 -7 0 -28 9 -46 21 -25 15 -27 19 -10 14 18
-5 28 -1 38 14 20 28 96 29 142 1 18 -11 37 -18 43 -15 5 4 9 1 9 -5 0 -6 5
-8 10 -5 6 3 10 -1 10 -9 0 -13 15 -16 87 -16 58 0 102 -6 131 -17 40 -15 52
-15 111 -3 72 15 231 22 231 10 0 -4 19 -10 43 -12 23 -3 59 -13 79 -22 30
-15 59 -17 162 -14 110 3 127 1 138 -14 17 -24 69 -23 112 3 20 12 36 18 36
15 0 -4 13 0 30 9 40 21 183 20 261 -2 65 -18 74 -17 199 31 19 8 63 22 97 31
58 17 66 17 118 2 67 -19 98 -11 165 40 24 18 56 36 70 39 49 10 165 46 180
55 8 5 25 13 36 18 30 13 37 39 14 51 -26 14 -57 13 -63 -2 -4 -9 -6 -8 -6 2
-1 8 -25 31 -55 50 -29 19 -52 38 -50 42 3 4 -11 10 -31 14 -19 3 -38 10 -41
15 -3 5 -26 9 -52 9 -40 0 -53 6 -85 35 -21 19 -44 35 -52 35 -7 0 -21 8 -31
18 -15 15 -38 17 -172 17 -115 0 -156 3 -159 13 -4 9 -44 12 -157 12 -122 0
-156 3 -174 16 -18 13 -46 15 -144 12 -86 -2 -123 -7 -126 -15 -2 -7 -12 -13
-22 -13 -10 0 -22 -4 -25 -10 -3 -5 -11 -10 -16 -10 -6 0 -8 4 -5 9 3 5 -11
11 -32 14 -20 3 -60 10 -89 16 -69 16 -241 -8 -264 -35 -6 -8 -17 -14 -24 -14
-8 0 -15 -5 -17 -11 -2 -7 -46 -12 -120 -13 l-116 -2 -49 -39 c-26 -22 -52
-45 -56 -52 -5 -8 -29 -13 -61 -13 -30 0 -67 -7 -82 -15 -16 -8 -42 -15 -58
-15 l-30 0 30 33 c17 17 39 51 49 73 38 81 118 109 276 98 81 -6 86 -5 112 18
35 33 69 39 160 29 84 -10 121 -5 138 15 6 8 20 14 30 14 10 0 33 9 51 20 46
28 139 28 179 -1z m-1076 -288 l40 -19 -31 -18 c-16 -9 -41 -32 -54 -50 -27
-36 -54 -44 -64 -19 -7 20 -33 19 -44 -2 -9 -15 -11 -15 -26 0 -9 9 -19 29
-22 45 -5 23 0 35 20 56 23 22 35 26 84 26 34 -1 73 -8 97 -19z m-65 -383 c0
-4 11 -8 24 -8 14 0 31 -7 40 -15 8 -8 24 -15 37 -15 12 0 37 -9 56 -21 18
-12 43 -19 53 -16 11 3 20 1 20 -3 0 -4 24 -13 53 -20 28 -6 68 -17 87 -25 19
-7 62 -16 95 -19 33 -3 61 -10 63 -16 2 -5 29 -10 60 -11 32 0 82 -5 112 -10
73 -14 394 -33 545 -33 188 0 527 15 558 25 16 4 70 11 120 15 51 3 109 12
130 20 20 8 57 14 82 14 24 0 46 4 49 9 3 5 30 14 58 21 100 23 183 52 261 92
l37 19 0 -21 c0 -12 -4 -18 -10 -15 -6 4 -10 -5 -10 -19 0 -14 -4 -26 -9 -26
-5 0 -12 -11 -15 -24 -3 -14 -15 -28 -26 -31 -11 -3 -20 -10 -20 -13 0 -4 -21
-19 -47 -32 -26 -14 -54 -31 -61 -37 -7 -7 -20 -13 -27 -13 -15 0 -69 -22
-117 -46 -14 -8 -47 -17 -72 -20 -25 -4 -46 -10 -46 -15 0 -12 -41 -23 -78
-20 -18 1 -39 -2 -45 -8 -16 -13 -245 -51 -309 -51 -28 0 -96 -7 -151 -16 -74
-12 -143 -15 -261 -11 -251 7 -596 46 -666 74 -19 8 -44 13 -55 12 -28 -3 -75
11 -75 22 0 5 -12 9 -27 9 -16 0 -43 9 -61 20 -18 11 -40 20 -48 20 -56 0
-314 146 -299 170 3 5 1 11 -5 15 -11 7 -50 83 -50 97 0 4 11 2 25 -4 14 -6
25 -15 25 -20z m-405 -347 c50 -5 173 -10 275 -11 110 0 217 -6 264 -15 44 -8
82 -14 85 -13 3 0 17 0 30 -1 20 -1 21 -3 11 -16 -10 -12 -42 -15 -174 -15
-88 0 -179 5 -201 11 -22 5 -128 12 -235 15 -278 7 -320 11 -320 34 0 10 6 21
13 24 14 7 128 1 252 -13z m3044 -87 c1 -1 0 -7 -4 -13 -4 -8 -130 -11 -398
-10 -383 1 -427 7 -227 27 67 7 620 4 629 -4z m1 -100 c0 -15 -29 -16 -347
-11 -497 9 -520 24 -40 26 353 1 387 0 387 -15z m-2320 -34 c37 -6 396 -14
835 -20 424 -6 853 -14 955 -19 102 -5 263 -10 358 -10 156 -1 200 -8 156 -25
-23 -9 -289 -7 -639 5 -170 5 -627 14 -1015 19 -440 6 -782 15 -910 24 -113 8
-308 16 -435 16 -172 1 -239 5 -265 16 -31 12 24 13 430 9 256 -2 494 -9 530
-15z m-705 -74 c148 -4 270 -8 272 -10 6 -6 -85 -56 -101 -56 -9 0 -16 -4 -16
-9 0 -5 -17 -20 -37 -32 -21 -13 -44 -31 -51 -41 -7 -10 -22 -18 -33 -18 -10
0 -19 -5 -19 -10 0 -6 -8 -14 -17 -17 -10 -4 -57 -33 -104 -65 -58 -39 -96
-58 -117 -58 -59 0 -60 1 -61 131 -1 66 -4 126 -8 134 -7 19 5 67 15 61 4 -2
129 -7 277 -10z m1470 -48 c105 -6 496 -13 870 -17 l680 -6 3 -145 c4 -207 12
-192 -111 -186 -56 3 -329 9 -607 14 -278 4 -511 12 -518 16 -7 4 -273 12
-590 17 -317 5 -649 14 -737 20 -88 5 -234 13 -325 17 l-165 7 60 35 c33 19
72 42 87 50 31 17 117 75 135 90 7 5 14 10 17 10 3 0 25 14 49 30 25 17 49 30
55 30 5 0 12 7 16 15 5 13 63 15 448 14 244 0 529 -5 633 -11z"/>
</g>
</svg>
