<?xml version="1.0" standalone="no"?>
<!DOCTYPE svg PUBLIC "-//W3C//DTD SVG 20010904//EN"
 "http://www.w3.org/TR/2001/REC-SVG-20010904/DTD/svg10.dtd">
<svg version="1.0" xmlns="http://www.w3.org/2000/svg"
 width="745.000000pt" height="579.000000pt" viewBox="0 0 745.000000 579.000000"
 preserveAspectRatio="xMidYMid meet">
<metadata>
Created by potrace 1.16, written by Peter Selinger 2001-2019
</metadata>
<g transform="translate(0.000000,579.000000) scale(0.100000,-0.100000)"
fill="#000000" stroke="none">
<path d="M6136 5157 c-17 -12 -17 -17 -5 -50 7 -20 19 -37 26 -37 7 0 13 -5
13 -11 0 -5 4 -7 10 -4 5 3 15 -5 21 -19 7 -14 16 -23 20 -20 5 3 9 0 9 -5 0
-6 7 -11 15 -11 8 0 15 -6 15 -14 0 -7 10 -21 23 -29 12 -9 39 -30 60 -49 20
-18 51 -44 68 -58 17 -14 68 -60 112 -102 45 -43 85 -78 89 -78 21 0 1 -28
-73 -101 -45 -44 -84 -77 -87 -74 -3 3 3 11 13 19 17 12 15 15 -21 42 -21 16
-46 36 -54 44 -9 8 -34 31 -56 50 -22 19 -83 73 -135 120 -52 47 -119 106
-149 132 -30 26 -66 56 -79 67 -28 24 -27 24 -52 11 -31 -17 -23 -36 42 -92
34 -29 78 -69 98 -88 39 -37 82 -75 176 -155 32 -27 81 -72 109 -98 28 -26 61
-50 74 -53 27 -8 28 -18 2 -44 -22 -22 -40 -26 -40 -10 0 12 -99 108 -191 185
-87 73 -111 94 -169 149 -65 60 -141 124 -164 138 -24 13 -56 -3 -56 -28 0
-13 4 -24 9 -24 4 0 30 -21 57 -46 54 -50 112 -101 259 -229 32 -27 79 -70
106 -95 81 -77 89 -82 120 -76 16 3 29 1 29 -4 0 -6 -3 -10 -8 -10 -4 0 -34
-25 -67 -55 -32 -30 -62 -55 -66 -55 -4 0 -10 -9 -14 -19 -3 -11 -19 -26 -35
-33 -17 -7 -30 -17 -30 -23 0 -5 -22 -26 -47 -45 -26 -19 -54 -43 -63 -53 -8
-10 -37 -34 -65 -52 -27 -19 -70 -53 -95 -76 -25 -23 -97 -80 -160 -127 -63
-47 -119 -91 -123 -99 -4 -7 -12 -13 -18 -13 -11 0 -58 -32 -113 -77 -22 -18
-46 -33 -53 -33 -7 0 -13 -4 -13 -9 0 -5 -9 -11 -20 -14 -12 -3 -20 0 -20 7 0
7 -24 33 -52 57 -29 24 -80 69 -113 99 -33 30 -87 78 -119 105 -32 28 -89 78
-126 113 -37 34 -80 72 -96 84 -15 12 -43 37 -63 55 -56 52 -101 56 -101 10 0
-13 15 -34 37 -52 20 -17 44 -37 52 -45 9 -8 54 -49 101 -90 47 -41 100 -88
119 -105 54 -49 63 -57 141 -125 41 -35 94 -82 117 -103 35 -33 46 -39 70 -33
l28 7 -25 -17 c-14 -10 -27 -20 -30 -23 -8 -9 -49 -31 -57 -31 -4 0 1 6 10 13
9 6 13 17 9 22 -10 14 -96 91 -156 140 -27 22 -68 58 -92 80 -23 22 -53 49
-66 60 -69 57 -227 197 -230 203 -8 17 -66 63 -84 66 -11 2 -30 -4 -43 -13
l-23 -18 25 -24 c13 -13 53 -49 88 -79 34 -30 83 -74 107 -97 25 -24 48 -43
51 -43 4 0 38 -30 77 -67 38 -38 113 -104 165 -147 52 -44 100 -88 108 -99 7
-10 19 -16 27 -13 8 3 14 2 14 -3 0 -5 -8 -12 -17 -15 -25 -9 -60 -30 -81 -49
-10 -10 -21 -17 -24 -17 -3 0 -45 -26 -94 -58 -49 -32 -97 -61 -106 -65 -10
-3 -18 -11 -18 -17 0 -5 -9 -10 -20 -10 -11 0 -20 6 -20 14 0 7 -26 35 -57 62
-32 27 -65 56 -73 64 -18 17 -123 111 -155 139 -11 10 -45 40 -76 67 -30 27
-82 72 -115 101 -32 28 -75 65 -94 82 -41 36 -83 39 -88 6 -3 -22 36 -64 142
-150 74 -60 100 -82 147 -126 43 -40 170 -154 233 -209 22 -19 50 -45 61 -56
16 -17 25 -19 44 -12 38 14 34 4 -7 -17 -20 -11 -39 -22 -42 -26 -3 -3 -21
-14 -40 -25 -19 -10 -39 -24 -45 -30 -5 -6 -18 -14 -27 -17 -12 -4 -16 -1 -13
13 2 12 -6 25 -23 36 -15 10 -40 32 -57 49 -16 18 -80 74 -140 126 -112 95
-167 144 -215 189 -27 26 -132 115 -162 138 -22 18 -58 6 -58 -18 0 -19 35
-61 65 -78 9 -4 57 -47 108 -94 51 -48 112 -103 137 -123 25 -21 86 -74 135
-120 139 -128 152 -137 177 -130 13 4 -2 -9 -32 -28 -120 -77 -168 -107 -174
-107 -4 0 -24 -11 -46 -25 -48 -30 -50 -30 -43 -4 6 21 -34 63 -137 147 -25
20 -61 50 -80 68 -81 74 -112 102 -166 149 -31 28 -71 64 -89 80 -71 67 -115
96 -135 90 -37 -12 -24 -50 33 -96 28 -23 61 -52 73 -63 12 -12 51 -46 87 -76
36 -30 66 -61 66 -68 1 -7 5 -11 10 -8 5 4 11 3 13 -1 3 -7 29 -30 161 -143
16 -14 49 -45 73 -68 31 -30 50 -42 62 -38 14 5 13 3 -2 -9 -11 -8 -26 -15
-33 -15 -7 0 -13 -4 -13 -10 0 -5 -4 -10 -10 -10 -5 0 -10 6 -10 14 0 8 -30
40 -67 73 -136 119 -279 246 -294 262 -9 9 -29 27 -45 41 -186 160 -195 165
-222 138 -22 -22 -24 -19 78 -108 35 -30 82 -73 105 -95 23 -22 61 -56 85 -75
55 -45 125 -107 165 -145 82 -79 142 -123 156 -114 18 11 29 11 29 0 0 -5 -17
-15 -37 -22 -21 -6 -40 -15 -43 -19 -8 -10 -73 -41 -77 -36 -3 2 5 9 16 16 30
16 27 24 -26 72 -27 24 -67 61 -89 83 -23 22 -66 60 -95 85 -30 25 -65 54 -78
65 -13 11 -57 51 -99 90 -41 38 -83 76 -94 83 -10 8 -31 25 -45 38 -18 17 -33
22 -47 18 -30 -9 -46 -24 -46 -44 0 -17 58 -80 126 -135 20 -16 44 -37 53 -46
9 -8 79 -71 156 -139 77 -68 157 -138 177 -157 20 -18 47 -33 60 -33 18 0 13
-7 -27 -32 -27 -17 -51 -35 -53 -39 -2 -5 -10 -9 -18 -9 -8 0 -14 -4 -14 -9 0
-5 -24 -26 -52 -48 -62 -45 -92 -62 -60 -35 25 23 28 38 8 49 -8 4 -50 42 -94
83 -45 41 -95 86 -113 100 -36 28 -30 24 -124 110 -39 36 -94 85 -124 110 -29
25 -65 55 -79 68 -14 12 -32 22 -41 22 -20 -1 -61 -34 -61 -49 0 -11 84 -94
159 -157 19 -16 41 -36 50 -44 10 -8 46 -40 81 -72 36 -31 86 -76 112 -100 25
-23 63 -57 85 -75 21 -17 48 -41 60 -52 12 -12 29 -21 38 -21 8 0 15 -4 15
-10 0 -5 -5 -10 -11 -10 -7 0 -21 -10 -33 -23 -29 -29 -68 -62 -81 -66 -5 -2
-16 -12 -23 -23 -7 -10 -18 -16 -23 -13 -5 4 -9 2 -9 -4 0 -5 -21 -24 -47 -42
-25 -18 -54 -40 -64 -50 -10 -10 -30 -26 -46 -36 -35 -22 -48 -32 -78 -60 -13
-13 -27 -23 -30 -23 -6 0 -115 -79 -125 -91 -3 -3 -12 -8 -21 -11 -12 -5 -16
-2 -12 11 3 11 -10 31 -39 56 -24 21 -79 70 -122 109 -44 39 -107 95 -140 124
-34 29 -77 68 -96 87 -19 18 -75 68 -124 110 -75 64 -93 75 -114 70 -26 -6
-51 -31 -51 -50 -1 -5 15 -23 35 -40 20 -16 59 -51 87 -77 29 -26 55 -48 60
-48 4 0 7 -7 7 -17 0 -9 3 -14 6 -10 4 3 21 -7 38 -23 17 -16 58 -52 91 -81
33 -28 95 -83 138 -123 44 -39 84 -75 91 -81 7 -5 24 -21 39 -34 25 -23 27
-23 52 -7 14 9 25 13 25 9 0 -5 -22 -22 -48 -40 -76 -52 -137 -95 -142 -102
-3 -3 -12 -10 -21 -16 -9 -5 -44 -29 -78 -52 -34 -24 -65 -43 -67 -43 -3 0
-28 -17 -57 -38 -29 -20 -64 -44 -79 -51 -15 -8 -37 -22 -47 -33 -22 -20 -31
-23 -31 -10 0 5 11 14 25 20 14 6 25 17 24 24 0 7 -28 37 -62 65 -67 57 -91
78 -183 162 -33 31 -77 70 -98 86 -20 17 -74 64 -119 106 -154 143 -154 143
-190 133 -24 -7 -33 -16 -34 -34 -3 -27 17 -53 82 -109 98 -83 183 -159 224
-199 25 -24 50 -46 58 -50 7 -4 32 -25 55 -47 99 -93 187 -165 199 -165 17 -1
-41 -50 -58 -50 -7 0 -13 6 -13 14 0 8 -4 16 -9 18 -7 2 -114 95 -171 148 -9
8 -47 42 -85 75 -39 33 -77 67 -85 77 -15 16 -78 71 -165 143 -27 22 -58 50
-69 63 -21 24 -55 28 -87 12 -30 -17 -22 -47 23 -88 24 -20 72 -64 108 -97 36
-33 88 -79 115 -103 98 -85 221 -193 299 -264 46 -42 54 -44 82 -23 22 17 38
20 29 5 -4 -6 -21 -17 -38 -25 -34 -15 -69 -36 -77 -46 -3 -3 -14 -9 -25 -12
-17 -6 -18 -5 -5 6 23 18 22 35 -1 47 -11 7 -28 19 -38 28 -56 53 -134 123
-185 167 -95 81 -97 83 -192 170 -50 47 -104 95 -120 107 -16 12 -35 28 -42
35 -19 19 -63 16 -78 -4 -27 -36 -21 -45 123 -169 126 -108 215 -187 249 -219
18 -16 45 -41 61 -53 15 -13 46 -41 68 -61 60 -56 91 -74 117 -66 14 3 7 -4
-17 -19 -22 -14 -45 -30 -52 -35 -7 -6 -16 -11 -22 -11 -5 0 -11 -3 -13 -7 -1
-5 -25 -19 -53 -33 -27 -14 -52 -27 -55 -30 -3 -3 -43 -24 -90 -47 -77 -39
-85 -41 -91 -25 -4 10 -22 31 -41 47 -35 29 -136 118 -228 200 -31 28 -83 73
-116 102 -32 28 -81 72 -109 98 -80 74 -90 79 -125 65 -24 -10 -30 -19 -30
-41 0 -16 3 -29 8 -29 4 0 34 -26 68 -58 81 -76 150 -138 173 -154 20 -15 123
-105 180 -158 43 -40 117 -101 137 -113 8 -4 22 -3 33 3 11 5 26 10 33 10 7 0
-19 -15 -57 -34 l-70 -33 -12 22 c-6 11 -45 49 -85 82 -40 34 -89 75 -108 93
-19 17 -61 55 -94 83 -32 29 -70 63 -85 77 -15 14 -54 48 -86 75 -32 28 -65
58 -74 68 -29 32 -101 13 -101 -28 0 -16 52 -67 160 -156 41 -34 100 -86 130
-114 86 -81 116 -108 156 -140 21 -16 52 -45 70 -63 36 -36 43 -38 84 -17 17
9 30 12 30 8 -1 -7 -63 -39 -155 -80 l-30 -13 25 19 25 20 -32 28 c-17 15 -49
43 -70 61 -21 19 -71 64 -112 100 -91 82 -104 94 -178 159 -32 28 -78 70 -103
92 -55 50 -82 59 -115 37 -36 -24 -30 -46 23 -90 26 -21 70 -59 97 -85 28 -26
99 -89 160 -141 60 -52 136 -121 169 -153 50 -48 64 -57 85 -53 14 3 -16 -14
-68 -39 -51 -25 -97 -45 -101 -45 -7 0 -60 -23 -92 -41 -24 -12 -38 -11 -15 2
18 11 24 45 8 51 -11 4 -84 66 -231 198 -155 139 -241 214 -254 222 -7 4 -26
4 -42 -1 -23 -6 -29 -13 -31 -37 -2 -25 8 -38 69 -89 39 -33 92 -80 119 -105
26 -25 87 -79 135 -120 48 -41 103 -90 123 -107 20 -18 42 -33 49 -33 21 0 3
-20 -18 -20 -10 0 -25 -7 -34 -15 -21 -21 -24 -20 -70 25 -61 58 -116 107
-163 143 -23 18 -43 38 -43 45 0 6 -4 12 -9 12 -5 0 -40 28 -79 63 -130 117
-177 149 -214 145 -28 -2 -34 -7 -36 -31 -2 -18 1 -27 11 -27 8 0 18 -11 21
-25 4 -14 13 -25 21 -25 8 0 15 -6 15 -14 0 -8 13 -28 29 -45 17 -18 33 -41
36 -52 4 -10 11 -19 16 -19 5 0 9 -6 9 -13 0 -7 9 -19 20 -27 11 -8 20 -20 20
-27 0 -7 5 -13 11 -13 5 0 7 -5 4 -10 -3 -6 0 -10 8 -10 7 0 20 -11 27 -25 7
-14 17 -25 22 -25 4 0 8 -7 8 -15 0 -8 5 -15 10 -15 6 0 10 -7 10 -15 0 -8 9
-19 20 -25 11 -6 20 -17 20 -24 0 -7 11 -23 25 -36 14 -13 25 -29 25 -37 0 -7
4 -13 8 -13 5 0 15 -12 23 -28 13 -24 49 -63 93 -100 25 -20 106 -42 157 -42
47 0 192 42 217 63 8 6 21 12 30 13 8 2 18 7 21 13 3 5 19 13 34 16 15 4 27
10 27 14 0 3 35 24 77 45 89 43 84 41 195 99 151 80 173 92 178 99 3 3 18 10
33 13 15 4 27 11 27 15 0 4 12 13 28 19 29 11 266 137 347 183 26 16 54 28 61
28 8 0 14 5 14 10 0 6 12 16 28 23 15 7 56 28 92 48 36 21 103 57 150 81 118
62 152 81 168 96 7 6 20 12 28 12 8 0 14 4 14 9 0 5 8 11 18 14 9 4 35 17 57
30 22 13 78 44 125 68 47 24 94 51 105 61 11 11 30 21 42 24 13 4 23 9 23 13
0 4 24 19 53 34 28 15 59 32 67 37 66 41 151 88 178 99 17 7 32 17 32 21 0 9
153 100 169 100 6 0 11 4 11 10 0 5 20 19 45 30 25 11 45 24 45 29 0 5 12 14
28 20 37 15 82 42 106 64 11 9 24 17 28 17 10 0 62 36 93 63 11 10 40 31 65
45 25 15 54 34 64 44 11 10 24 18 29 18 4 0 28 14 52 30 24 17 47 30 51 30 4
0 21 15 39 33 17 17 49 41 70 52 22 11 45 25 51 30 46 40 89 71 155 110 9 6
36 28 59 48 24 20 49 37 56 37 8 0 14 5 14 10 0 6 8 14 17 17 15 6 24 13 78
62 11 10 56 45 100 77 44 32 100 75 125 97 25 21 58 46 73 54 15 8 36 22 46
31 10 9 28 24 40 32 13 8 33 24 46 35 12 11 43 38 69 60 26 22 55 48 64 58 9
9 22 17 29 17 7 0 13 4 13 8 0 4 15 16 33 27 17 10 48 33 67 52 19 18 37 33
41 33 3 0 15 8 26 18 11 9 46 40 78 67 32 28 64 56 71 63 7 6 16 12 20 12 4 0
17 11 29 24 12 13 41 36 65 51 23 15 62 46 86 71 25 24 49 44 54 44 6 0 10 4
10 8 0 5 21 24 48 42 26 19 56 43 67 55 11 11 36 31 55 44 19 14 55 44 78 68
24 24 50 43 57 43 8 0 16 9 20 19 3 11 14 23 24 26 10 3 35 21 54 40 20 19 41
35 47 35 5 0 10 5 10 10 0 6 4 10 9 10 5 0 22 12 38 28 32 29 157 143 186 167
9 8 20 15 25 16 12 0 68 91 81 132 18 53 0 102 -58 154 -25 24 -51 43 -57 43
-5 0 -19 8 -30 18 -10 10 -32 25 -49 34 -98 51 -120 64 -123 71 -2 4 -9 7 -15
7 -6 0 -18 6 -26 14 -9 8 -40 26 -68 41 -29 15 -53 31 -53 35 0 4 -8 10 -17
14 -20 6 -50 25 -69 42 -7 6 -38 24 -71 40 -32 16 -62 34 -66 41 -4 7 -13 13
-18 13 -6 0 -23 9 -38 19 -39 28 -73 34 -95 18z"/>
<path d="M6010 5045 c-6 -8 -10 -20 -8 -28 2 -7 46 -51 98 -96 113 -98 236
-208 265 -236 12 -11 47 -42 79 -69 51 -44 60 -47 82 -38 36 17 30 35 -27 83
-60 52 -86 74 -155 137 -27 26 -74 67 -104 92 -59 50 -64 55 -138 123 -54 50
-72 56 -92 32z"/>
<path d="M5716 4841 c-7 -11 -4 -62 3 -55 3 3 21 -11 41 -30 19 -19 60 -57 91
-83 30 -26 73 -63 95 -82 21 -18 69 -61 106 -95 36 -33 86 -77 109 -96 23 -19
50 -43 58 -52 18 -21 39 -22 64 -4 17 13 23 36 10 36 -5 0 -27 17 -49 38 -77
69 -177 159 -274 242 -28 25 -64 56 -79 70 -15 14 -51 46 -80 73 -50 45 -83
58 -95 38z"/>
<path d="M5606 4774 c-23 -23 -19 -36 20 -66 31 -23 147 -124 194 -168 9 -8
49 -44 90 -80 41 -36 93 -81 115 -100 22 -19 59 -54 82 -77 47 -49 74 -54 96
-19 16 23 15 25 -26 61 -106 92 -160 140 -200 179 -24 22 -56 52 -73 65 -80
65 -163 139 -202 178 -45 46 -71 53 -96 27z"/>
<path d="M5510 4705 c-11 -13 -11 -20 0 -40 7 -14 16 -25 20 -25 8 0 97 -78
162 -142 26 -26 48 -45 48 -42 0 3 19 -12 42 -33 66 -61 82 -75 151 -133 36
-30 66 -61 66 -69 1 -8 4 -12 7 -8 3 3 18 -5 33 -19 29 -27 58 -28 75 -2 9 14
3 24 -29 54 -22 20 -63 57 -90 83 -28 25 -73 65 -100 87 -28 23 -70 60 -95 83
-25 23 -67 61 -94 84 -27 23 -73 63 -103 90 -57 50 -73 56 -93 32z"/>
<path d="M5404 4615 c0 -14 5 -25 9 -25 9 0 38 -26 120 -105 23 -22 64 -58 92
-80 51 -41 92 -77 175 -155 26 -25 67 -61 90 -80 24 -19 54 -45 68 -57 24 -20
28 -21 54 -7 32 17 30 26 -17 64 -16 13 -52 46 -80 71 -27 26 -77 71 -110 99
-73 64 -154 134 -178 155 -10 9 -50 45 -88 80 -57 53 -77 65 -104 65 -29 0
-33 -3 -31 -25z"/>
<path d="M5318 4579 c-41 -24 -32 -35 190 -227 30 -26 77 -67 103 -92 26 -25
68 -63 93 -85 24 -22 42 -44 39 -49 -4 -5 -1 -6 5 -2 10 6 53 -27 120 -92 19
-18 27 -20 43 -11 45 24 35 44 -61 123 -19 15 -62 54 -96 85 -33 31 -87 79
-119 106 -78 67 -178 155 -190 169 -22 25 -96 86 -103 86 -4 0 -15 -5 -24 -11z"/>
<path d="M5200 4491 c0 -20 63 -85 155 -158 32 -27 78 -66 100 -88 37 -36 74
-69 219 -195 23 -19 48 -44 57 -55 10 -12 33 -29 52 -40 32 -17 36 -17 51 -2
17 17 22 47 7 47 -4 0 -24 15 -43 33 -19 17 -61 55 -93 82 -53 45 -128 112
-189 170 -12 11 -46 40 -75 65 -30 25 -83 71 -120 102 -70 61 -121 78 -121 39z"/>
<path d="M5106 4431 c-16 -18 -14 -21 45 -72 34 -30 85 -76 113 -102 28 -27
73 -68 100 -90 81 -69 127 -110 166 -147 55 -52 150 -134 167 -144 16 -9 63
10 63 26 0 5 -17 23 -37 41 -21 18 -58 51 -83 74 -25 23 -88 79 -140 124 -52
46 -114 101 -138 123 -24 23 -54 48 -68 56 -13 8 -24 18 -24 21 0 12 -121 109
-134 109 -7 0 -21 -8 -30 -19z"/>
<path d="M5013 4373 c-27 -10 -10 -40 53 -98 91 -82 91 -83 169 -149 39 -33
75 -64 80 -70 6 -6 66 -61 135 -121 69 -61 130 -116 136 -123 13 -18 54 -12
68 10 9 14 4 22 -23 45 -19 15 -46 40 -60 54 -14 14 -103 93 -196 175 -94 82
-186 164 -205 182 -106 99 -123 109 -157 95z"/>
<path d="M4911 4311 c-21 -13 -5 -65 27 -84 15 -9 43 -32 63 -51 19 -18 64
-58 100 -87 35 -29 75 -64 90 -78 14 -14 51 -48 83 -76 32 -27 71 -62 86 -77
16 -16 31 -28 35 -28 3 0 18 -12 34 -27 88 -88 89 -88 111 -68 11 10 20 24 20
30 0 11 -65 73 -153 145 -17 14 -57 50 -89 81 -32 31 -73 68 -91 82 -17 14
-46 38 -64 53 -17 16 -60 54 -94 84 -35 30 -76 67 -91 83 -30 28 -44 32 -67
18z"/>
<path d="M4802 4238 c-7 -7 -12 -19 -12 -27 0 -15 12 -27 110 -107 25 -20 75
-64 111 -98 36 -33 92 -83 125 -111 32 -27 107 -94 166 -147 60 -54 114 -98
121 -98 6 0 23 9 37 20 25 19 25 19 5 39 -21 20 -395 351 -436 386 -13 12 -57
51 -98 88 -74 66 -105 79 -129 55z"/>
<path d="M4513 4043 c-28 -11 -12 -49 39 -93 29 -25 68 -60 87 -78 18 -18 39
-36 46 -40 7 -4 51 -41 97 -83 45 -42 124 -112 173 -155 50 -43 93 -84 98 -91
4 -6 23 -21 42 -33 34 -21 35 -21 59 -3 28 23 26 28 -34 77 -44 37 -135 116
-190 166 -24 22 -124 111 -186 165 -12 11 -49 43 -81 70 -31 28 -71 62 -87 78
-29 27 -39 30 -63 20z"/>
<path d="M4404 3954 c-4 -14 -3 -29 2 -33 5 -4 50 -43 99 -87 50 -44 108 -96
130 -115 22 -19 57 -51 79 -72 22 -21 51 -47 66 -57 15 -10 44 -36 66 -57 22
-21 61 -56 88 -78 27 -22 55 -46 62 -52 17 -17 36 -16 60 2 18 14 15 18 -62
92 -45 43 -105 98 -135 123 -29 25 -97 83 -149 130 -241 213 -262 230 -282
230 -11 0 -20 -10 -24 -26z"/>
<path d="M4308 3899 c-25 -14 -22 -31 9 -54 15 -11 47 -38 71 -60 81 -75 109
-100 138 -124 65 -54 159 -138 188 -167 17 -17 63 -57 101 -89 39 -32 78 -65
88 -73 15 -13 21 -13 42 -2 14 7 25 17 25 22 0 9 -48 58 -99 99 -18 15 -58 51
-90 80 -31 30 -81 74 -110 99 -80 67 -165 141 -176 154 -25 29 -147 126 -158
126 -7 0 -20 -5 -29 -11z"/>
<path d="M4099 3754 c-12 -14 -9 -20 21 -46 19 -17 68 -60 108 -97 89 -80 122
-109 186 -164 119 -103 204 -178 247 -221 37 -36 41 -38 69 -26 17 7 30 18 30
26 0 14 -65 78 -145 142 -27 21 -70 59 -95 82 -47 44 -210 187 -289 254 -25
21 -50 44 -54 52 -11 19 -61 18 -78 -2z"/>
<path d="M3911 3637 c-24 -24 -2 -67 55 -107 21 -15 92 -78 284 -250 243 -220
248 -223 283 -196 23 18 22 31 -5 49 -13 8 -39 30 -58 47 -70 65 -127 116
-195 175 -101 88 -156 137 -180 160 -50 48 -141 122 -156 128 -9 3 -22 0 -28
-6z"/>
<path d="M3818 3568 c-16 -5 -28 -15 -28 -23 0 -12 69 -78 160 -155 23 -19 57
-48 74 -65 72 -66 156 -142 196 -175 24 -19 55 -46 69 -60 67 -64 106 -87 129
-79 42 16 19 61 -56 111 -12 8 -64 53 -115 100 -50 47 -107 99 -126 114 -19
16 -79 70 -134 119 -137 124 -137 124 -169 113z"/>
<path d="M3343 3258 c-37 -18 -37 -40 -1 -72 67 -58 174 -152 228 -201 31 -27
82 -72 115 -100 32 -27 87 -77 123 -110 35 -33 68 -61 72 -63 15 -5 70 41 70
57 0 9 -14 27 -31 41 -45 37 -125 107 -199 175 -36 33 -92 83 -125 110 -54 46
-85 73 -168 149 -30 28 -49 31 -84 14z"/>
<path d="M3062 3071 c-30 -26 -28 -56 7 -78 26 -16 114 -93 212 -183 20 -19
61 -55 90 -80 29 -25 70 -61 90 -80 21 -19 57 -51 80 -70 23 -19 52 -45 65
-57 l22 -22 41 27 c23 14 41 30 41 34 0 5 -12 18 -26 31 -56 47 -120 104 -160
142 -23 22 -64 58 -90 80 -55 46 -82 70 -214 189 -99 90 -122 99 -158 67z"/>
<path d="M2933 2975 c-19 -21 -16 -52 6 -67 24 -17 132 -112 293 -258 27 -25
63 -56 80 -70 31 -25 120 -106 164 -148 l24 -23 35 21 c41 25 43 34 13 58 -12
9 -49 42 -82 73 -34 31 -79 71 -101 90 -22 18 -88 76 -146 129 -246 220 -258
228 -286 195z"/>
<path d="M2792 2884 c-30 -20 -28 -48 5 -69 14 -10 56 -46 92 -80 82 -77 122
-114 158 -142 37 -29 76 -64 144 -126 70 -65 157 -139 175 -150 18 -10 74 22
74 43 0 9 -60 69 -132 134 -73 65 -152 134 -174 154 -23 20 -63 55 -90 77 -26
22 -62 54 -79 72 -50 52 -116 103 -134 103 -9 0 -27 -7 -39 -16z"/>
<path d="M2648 2788 c-10 -12 -18 -25 -18 -29 0 -11 75 -83 153 -146 39 -32
83 -70 97 -84 25 -26 79 -74 200 -179 35 -30 84 -74 108 -97 51 -49 70 -53
100 -20 30 31 28 39 -16 78 -21 19 -71 63 -112 99 -40 36 -83 74 -94 85 -26
25 -240 213 -280 246 -16 13 -38 34 -49 47 -26 28 -67 28 -89 0z"/>
<path d="M2383 2613 c-43 -29 -27 -56 105 -169 19 -16 44 -38 56 -49 12 -11
49 -42 81 -70 32 -27 79 -70 104 -94 25 -24 66 -60 91 -80 25 -20 65 -55 89
-78 24 -24 52 -45 62 -48 19 -6 79 28 79 45 0 7 -186 178 -305 279 -22 19 -78
69 -125 111 -126 115 -192 170 -204 169 -6 0 -21 -7 -33 -16z"/>
<path d="M2242 2517 c-32 -34 -28 -49 31 -96 28 -23 90 -78 137 -120 47 -43
128 -115 180 -161 52 -45 128 -113 169 -151 41 -38 79 -69 86 -69 6 0 26 13
44 28 l34 28 -39 36 c-38 34 -388 345 -469 416 -22 19 -59 52 -82 73 -49 45
-62 47 -91 16z"/>
<path d="M2110 2433 c-17 -7 -30 -23 -30 -40 0 -14 3 -16 106 -108 43 -38 95
-86 115 -105 19 -19 51 -47 70 -62 19 -14 48 -40 66 -56 17 -16 84 -76 148
-132 l116 -103 35 19 c44 23 53 43 28 61 -19 13 -122 104 -339 298 -273 244
-272 244 -315 228z"/>
<path d="M1570 2073 c-19 -8 -39 -34 -40 -51 0 -16 19 -34 157 -154 54 -46
114 -100 134 -119 19 -19 77 -70 129 -114 52 -44 113 -97 135 -117 22 -21 44
-38 49 -38 13 0 76 41 76 49 0 9 -85 89 -155 146 -27 22 -67 58 -90 80 -23 22
-79 72 -125 110 -46 39 -102 88 -124 110 -59 57 -116 105 -124 104 -4 0 -14
-3 -22 -6z"/>
<path d="M1418 1966 c-29 -22 -21 -51 29 -100 25 -25 50 -46 54 -46 5 0 39
-29 76 -65 38 -36 91 -85 118 -108 28 -23 61 -51 74 -62 13 -11 41 -37 62 -57
22 -20 39 -35 39 -33 0 2 23 -18 52 -46 28 -27 55 -49 61 -49 20 0 77 33 77
45 0 12 -104 109 -230 215 -36 30 -74 64 -86 75 -34 32 -105 96 -174 155 -116
100 -119 102 -152 76z"/>
<path d="M868 1596 c-37 -27 -23 -50 94 -159 15 -14 37 -32 48 -40 12 -8 61
-51 108 -95 48 -44 117 -106 155 -137 37 -32 67 -61 67 -66 0 -16 44 -10 77
11 19 11 30 25 27 32 -3 7 -60 60 -126 118 -188 164 -250 219 -293 259 -56 53
-109 91 -126 91 -8 0 -22 -7 -31 -14z"/>
</g>
</svg>
