<?xml version="1.0" standalone="no"?>
<!DOCTYPE svg PUBLIC "-//W3C//DTD SVG 20010904//EN"
 "http://www.w3.org/TR/2001/REC-SVG-20010904/DTD/svg10.dtd">
<svg version="1.0" xmlns="http://www.w3.org/2000/svg"
 width="1058.000000pt" height="541.000000pt" viewBox="0 0 1058.000000 541.000000"
 preserveAspectRatio="xMidYMid meet">
<metadata>
Created by potrace 1.16, written by Peter Selinger 2001-2019
</metadata>
<g transform="translate(0.000000,541.000000) scale(0.100000,-0.100000)"
fill="#000000" stroke="none">
<path d="M9368 4340 c-3 -32 -12 -58 -24 -69 -10 -10 -26 -28 -34 -40 -8 -11
-20 -21 -28 -21 -7 0 -15 -7 -18 -15 -4 -8 -11 -15 -16 -15 -6 0 -21 -11 -34
-25 -13 -14 -29 -25 -37 -25 -7 0 -24 -11 -37 -25 -13 -14 -28 -24 -34 -23 -6
1 -29 -6 -51 -16 -68 -30 -169 -53 -193 -45 -14 5 -21 4 -19 -3 2 -12 -27 -16
-138 -16 -238 0 -314 -4 -367 -19 -32 -8 -58 -19 -58 -23 0 -5 -9 -6 -20 -3
-11 3 -20 0 -20 -6 0 -6 -9 -11 -20 -11 -11 0 -20 -4 -20 -9 0 -5 -13 -12 -30
-16 -16 -4 -30 -12 -30 -18 0 -7 -18 -28 -40 -47 -22 -19 -40 -40 -40 -47 0
-7 -6 -16 -12 -20 -16 -10 -62 -93 -52 -93 3 0 2 -6 -4 -12 -5 -7 -12 -24 -14
-37 -4 -30 21 -41 29 -12 3 12 9 21 13 21 5 0 11 14 15 30 4 17 18 43 32 58
13 15 28 31 31 37 13 20 127 104 157 115 53 20 194 50 209 44 8 -3 17 0 21 5
3 6 11 8 17 5 17 -11 279 -13 328 -3 25 6 68 11 96 12 29 1 50 6 48 12 -2 6 9
11 25 12 16 1 44 10 62 21 19 10 46 22 62 26 15 3 27 11 27 17 0 6 4 8 9 5 5
-3 20 4 34 17 14 12 40 33 58 47 18 14 39 33 48 43 22 24 32 21 25 -8 -3 -14
-4 -32 0 -40 5 -13 9 -13 25 -3 11 7 23 9 27 5 14 -13 20 -91 11 -142 -4 -27
-9 -59 -11 -70 -7 -38 -48 -135 -57 -135 -6 0 -23 -12 -38 -27 -15 -16 -45
-37 -67 -48 -21 -11 -41 -23 -44 -26 -3 -4 -20 -10 -37 -14 -18 -3 -33 -10
-33 -15 0 -4 -9 -6 -20 -3 -13 3 -20 0 -20 -9 0 -7 -8 -14 -17 -15 -10 -1 -36
-6 -58 -12 -90 -23 -165 -38 -165 -34 0 2 -8 -1 -17 -6 -10 -5 -43 -12 -73
-15 -30 -4 -75 -9 -100 -11 -25 -3 -74 -7 -110 -10 -36 -2 -78 -7 -95 -10 -16
-3 -39 -6 -50 -6 -40 1 -201 -51 -232 -75 -17 -13 -36 -24 -42 -24 -6 0 -11
-5 -11 -11 0 -7 -11 -22 -25 -35 l-25 -23 6 27 c11 43 22 70 33 76 5 3 12 19
16 35 8 40 106 136 153 152 20 7 78 13 127 13 117 -1 364 -12 373 -17 26 -15
337 49 352 72 3 5 21 16 40 26 19 10 51 36 72 59 21 22 50 52 64 67 24 24 64
130 64 170 0 10 -6 19 -14 19 -9 0 -16 -17 -20 -45 -5 -29 -14 -49 -27 -55
-10 -6 -19 -17 -19 -25 0 -7 -10 -22 -23 -32 -13 -10 -26 -26 -30 -35 -3 -10
-12 -18 -19 -18 -7 0 -19 -9 -26 -20 -7 -11 -21 -20 -33 -20 -11 0 -17 -4 -14
-10 3 -5 -7 -12 -22 -16 -15 -4 -33 -11 -40 -16 -20 -16 -144 -40 -215 -42
-37 -2 -70 -5 -73 -8 -8 -7 -150 0 -200 11 -62 13 -236 14 -288 1 -25 -7 -52
-18 -58 -26 -6 -8 -19 -14 -28 -14 -19 0 -71 -55 -71 -76 0 -8 -4 -14 -9 -14
-5 0 -13 -9 -16 -20 -3 -11 -13 -20 -21 -20 -8 0 -14 -7 -14 -16 0 -9 -9 -18
-20 -21 -14 -4 -22 -20 -31 -59 -21 -92 -36 -59 -29 64 1 31 -2 42 -13 42 -15
0 -36 -80 -35 -140 0 -19 -3 -56 -7 -81 -7 -43 -6 -47 16 -52 22 -6 24 -11 23
-59 0 -29 -9 -90 -19 -136 -14 -65 -22 -82 -34 -80 -13 3 -15 16 -13 71 3 62
2 67 -17 67 -12 0 -21 -5 -21 -11 0 -15 -24 -34 -70 -56 -19 -9 -37 -19 -40
-22 -10 -12 -72 -41 -86 -41 -8 0 -14 -4 -14 -9 0 -6 -8 -10 -17 -9 -10 0 -29
-3 -43 -7 -27 -7 -69 -16 -198 -39 -45 -8 -86 -18 -91 -20 -17 -11 -224 -18
-230 -8 -8 14 -40 17 -74 7 -15 -4 -47 -2 -72 4 -33 8 -50 8 -70 -1 -19 -9
-28 -9 -33 -1 -10 16 -78 27 -86 14 -8 -13 -46 -15 -46 -2 0 24 -94 16 -110
-9 -9 -15 -92 12 -140 45 -50 35 -151 64 -226 66 -105 2 -171 0 -224 -5 -30
-3 -86 -8 -125 -11 -114 -9 -146 -14 -225 -35 -203 -55 -347 -92 -362 -92 -10
1 -18 -3 -18 -9 0 -5 -11 -9 -24 -9 -14 0 -27 -4 -31 -10 -3 -5 -12 -7 -20 -3
-8 3 -15 1 -15 -5 0 -5 -10 -12 -22 -15 -27 -6 -102 -32 -161 -56 -35 -14 -40
-14 -32 2 4 6 0 5 -7 -5 -8 -9 -31 -19 -51 -22 -20 -3 -45 -10 -55 -15 -56
-30 -408 -117 -512 -127 -30 -3 -66 -8 -80 -11 -14 -4 -31 -5 -38 -4 -6 1 -12
-3 -12 -10 0 -8 -4 -8 -15 1 -12 10 -18 10 -30 0 -8 -6 -18 -9 -23 -6 -6 3
-23 1 -39 -4 -16 -6 -55 -12 -86 -13 -31 -2 -59 -5 -62 -9 -3 -3 -26 -4 -50
-2 -24 2 -46 0 -49 -5 -4 -6 -19 -6 -38 0 -18 5 -34 5 -37 1 -4 -4 -19 -8 -36
-8 -150 -4 -461 -17 -466 -20 -3 -1 -41 -6 -85 -9 -43 -3 -105 -10 -136 -16
-32 -5 -85 -11 -118 -12 -33 -1 -60 -6 -60 -11 0 -4 -8 -6 -18 -4 -10 3 -42 1
-72 -3 -30 -5 -73 -11 -95 -14 -22 -3 -54 -10 -72 -16 -18 -6 -47 -11 -65 -11
-18 0 -37 -4 -43 -8 -5 -4 -56 -17 -112 -29 -56 -12 -128 -30 -160 -41 -32
-11 -66 -20 -75 -20 -10 0 -18 -4 -18 -10 0 -5 -26 -17 -57 -26 -76 -21 -146
-45 -157 -55 -5 -4 -15 -5 -22 -2 -8 3 -14 0 -14 -6 0 -6 -7 -11 -15 -11 -8 0
-39 -11 -69 -25 -30 -14 -62 -25 -70 -25 -9 0 -16 -4 -16 -8 0 -5 -12 -15 -28
-23 -15 -8 -36 -22 -46 -32 -11 -9 -25 -17 -30 -17 -6 0 -19 -13 -30 -28 -10
-16 -32 -34 -48 -41 -16 -7 -27 -15 -25 -18 3 -2 -17 -27 -44 -54 -27 -28 -52
-62 -55 -77 -4 -15 -12 -33 -18 -41 -17 -22 -18 -161 0 -178 8 -8 11 -19 8
-25 -4 -7 -2 -8 4 -4 11 7 44 -8 70 -31 7 -7 25 -16 40 -20 15 -3 32 -13 39
-22 7 -9 13 -11 13 -6 0 6 4 4 9 -4 5 -7 78 -31 162 -52 145 -36 161 -38 269
-34 63 2 124 5 135 5 34 0 209 31 225 39 8 5 48 16 89 26 41 10 86 24 100 31
14 8 38 14 53 14 15 0 29 4 32 9 3 4 34 14 68 21 35 7 68 17 74 21 6 5 14 6
18 2 4 -4 10 -3 14 3 4 5 36 16 72 23 36 7 69 16 75 19 5 4 12 7 15 7 3 1 19
4 35 8 17 4 39 9 50 12 11 2 34 8 50 14 73 25 172 51 198 53 15 1 27 6 27 9 0
7 54 22 122 36 16 3 28 9 28 13 0 5 10 6 22 2 13 -3 19 -1 15 5 -7 11 36 23
80 23 16 0 22 4 17 12 -5 8 -2 9 9 5 9 -3 19 -2 23 4 3 6 12 8 20 5 7 -3 16
-1 18 3 6 10 65 25 84 22 8 -1 20 3 28 10 8 6 14 8 14 4 0 -4 7 -2 15 5 8 6
19 9 24 6 5 -4 12 -2 16 4 3 5 28 12 55 16 28 4 50 10 50 15 0 5 6 6 13 3 7
-2 27 2 43 11 16 8 38 15 49 15 11 0 42 7 68 15 27 8 65 15 85 16 20 1 41 5
47 8 11 6 17 7 115 16 41 4 79 10 85 13 14 9 73 16 212 27 45 3 97 8 115 11
18 3 62 7 98 10 126 9 145 11 145 14 0 1 29 3 65 5 36 2 99 6 140 10 41 4 91
9 110 10 19 2 35 4 35 5 0 1 27 3 60 5 61 4 152 11 260 21 33 4 69 6 80 6 45
0 203 29 240 45 85 35 160 75 187 98 15 14 30 25 33 25 6 0 13 6 58 45 15 14
35 25 43 25 7 0 14 4 14 8 0 5 20 19 45 31 25 12 43 26 40 31 -10 16 15 21 71
14 40 -5 54 -10 50 -20 -3 -8 0 -11 10 -7 8 3 14 -1 14 -10 0 -16 60 -33 69
-19 11 16 51 21 51 7 0 -29 100 -21 123 10 7 10 29 -14 22 -25 -8 -13 54 -1
79 15 21 14 29 15 41 5 8 -7 13 -15 11 -19 -9 -14 70 2 94 19 19 14 56 19 160
24 74 4 155 9 180 12 25 3 59 7 75 9 17 1 32 4 35 5 3 1 9 2 13 1 18 -3 142
21 153 29 6 6 14 7 17 3 4 -3 13 -1 21 6 15 12 152 7 211 -8 34 -9 352 -7 405
3 19 3 61 8 93 11 32 3 70 11 85 17 15 6 34 10 44 9 9 -1 19 3 22 8 4 6 13 8
21 4 9 -3 21 -1 28 4 6 6 34 16 62 22 27 7 54 16 60 20 5 5 27 11 47 15 20 4
66 22 102 40 36 19 66 31 66 27 0 -3 4 -1 8 5 4 5 31 25 60 44 28 18 52 37 52
42 0 4 5 8 11 8 17 0 48 43 49 66 0 12 -7 25 -16 28 -9 4 -17 5 -18 4 -9 -23
-27 -42 -51 -56 -16 -9 -32 -20 -35 -23 -3 -4 -43 -27 -91 -52 -92 -49 -168
-79 -181 -71 -4 3 -8 1 -8 -4 0 -9 -95 -38 -117 -36 -7 1 -13 -3 -13 -8 0 -6
-9 -8 -20 -5 -11 3 -22 1 -25 -3 -3 -4 -29 -11 -58 -15 -28 -3 -76 -11 -106
-17 -30 -5 -95 -12 -145 -14 -117 -5 -106 -5 -141 -5 -16 1 -37 1 -45 1 -41 0
-180 10 -220 16 -71 11 -150 12 -150 1 0 -5 -6 -7 -14 -4 -8 3 -20 -1 -27 -9
-7 -8 -19 -12 -27 -9 -7 3 -18 2 -24 -1 -5 -3 -28 -8 -51 -9 -23 -2 -53 -7
-67 -10 -14 -3 -38 -8 -55 -10 -16 -2 -50 -7 -75 -10 -25 -3 -90 -7 -145 -8
l-100 -2 2 30 c1 17 4 56 7 88 3 38 0 66 -10 85 -16 31 -19 76 -4 67 6 -3 10
-2 10 3 0 5 6 9 13 9 66 4 166 15 182 20 11 4 30 6 43 4 12 -1 22 2 22 7 0 6
9 8 20 5 12 -3 20 0 20 6 0 7 4 10 9 7 5 -4 22 -1 37 4 15 6 46 11 70 12 24 1
44 6 44 11 0 5 8 7 18 5 9 -2 17 -8 17 -13 0 -19 40 -99 58 -117 9 -10 24 -18
32 -18 8 0 15 -4 15 -9 0 -5 14 -14 31 -22 38 -15 411 -21 499 -8 30 5 80 11
110 14 30 4 62 8 71 11 10 3 30 7 45 9 101 15 215 45 235 62 9 8 20 13 25 12
5 -1 22 3 37 9 16 7 32 12 37 12 4 0 41 14 81 31 41 16 79 31 85 33 7 1 18 7
25 12 8 6 35 20 61 32 25 12 49 26 53 31 4 7 15 7 30 1 20 -7 25 -6 25 5 0 8
4 15 9 15 5 0 11 18 15 41 4 22 14 52 23 66 14 21 15 31 4 73 -10 40 -10 58 4
111 9 35 20 73 25 84 5 11 21 70 35 130 25 107 26 152 2 167 -9 6 -9 8 1 8 6
0 12 7 12 15 0 8 5 15 10 15 6 0 10 7 10 15 0 7 6 18 13 22 19 11 58 189 54
244 -2 26 -1 68 3 95 3 31 0 59 -8 76 -13 28 -19 129 -8 147 7 11 -21 61 -34
61 -4 0 -10 -23 -12 -50z m-100 -788 c10 -7 3 -46 -28 -178 -52 -214 -48 -204
-70 -204 -10 0 -20 8 -22 18 -4 20 67 317 84 350 12 24 17 26 36 14z m-88 -49
c-1 -5 -22 -95 -48 -201 -45 -186 -48 -193 -66 -179 -20 14 -19 18 24 201 42
174 46 186 67 186 13 0 23 -3 23 -7z m-113 -50 c-4 -3 -3 -11 3 -17 9 -11 -29
-186 -50 -231 -5 -11 -16 -47 -24 -79 -14 -54 -27 -75 -49 -76 -22 0 -15 48
29 221 46 181 49 189 73 189 13 0 21 -3 18 -7z m-100 -32 c-2 -9 -23 -95 -46
-191 -46 -188 -56 -220 -69 -220 -9 0 -11 12 -12 60 -1 35 76 348 90 365 15
18 43 7 37 -14z m-101 -26 c6 -15 -48 -248 -83 -362 -16 -53 -31 -65 -52 -39
-8 10 -9 21 0 42 6 16 29 103 51 194 22 91 42 168 44 172 9 14 34 9 40 -7z
m-100 -47 c8 -17 6 -34 -6 -68 -9 -25 -32 -109 -50 -187 -26 -111 -37 -143
-51 -146 -38 -10 -37 17 10 208 26 105 51 196 55 203 11 19 30 14 42 -10z
m-106 -33 c0 -5 -21 -94 -46 -197 -32 -131 -50 -188 -61 -193 -9 -3 -20 -2
-24 2 -4 4 16 101 44 214 47 191 52 206 69 196 10 -7 18 -16 18 -22z m-110
-51 c0 -14 -6 -39 -14 -58 -7 -18 -28 -95 -46 -172 -33 -140 -51 -174 -77
-153 -7 6 -13 20 -13 30 0 34 -29 21 -36 -17 -5 -28 -10 -35 -28 -32 -11 2
-20 10 -20 18 1 8 21 99 45 202 35 151 47 188 61 188 9 0 22 -13 30 -30 15
-35 38 -40 38 -7 0 48 10 64 36 59 17 -3 24 -11 24 -28z m-468 5 c2 -6 20 -11
41 -12 20 0 37 -5 37 -9 0 -8 -86 -368 -96 -400 -5 -17 -34 -14 -34 4 0 5 -7
16 -15 25 -12 12 -19 12 -30 3 -26 -22 -40 -6 -36 41 1 24 6 46 10 49 8 6 32
82 63 205 21 79 33 105 48 105 5 0 10 -5 12 -11z m258 -29 c0 -10 -19 -96 -41
-192 -42 -175 -63 -224 -89 -208 -12 7 -11 26 9 112 13 57 26 108 31 113 4 6
18 51 31 100 12 50 27 93 33 97 14 10 26 0 26 -22z m-99 -12 c2 -20 2 -21 -44
-212 -30 -127 -48 -182 -60 -190 -13 -8 -20 -8 -27 4 -12 17 -8 53 15 130 8
30 17 66 20 80 2 14 14 64 27 113 20 78 25 87 45 87 13 0 24 -6 24 -12z m-395
-224 c-9 -25 16 -74 38 -74 15 0 17 -6 14 -37 -3 -22 1 -50 8 -65 9 -18 11
-29 3 -33 -13 -8 -108 14 -132 30 -28 19 -67 77 -67 98 0 21 24 49 34 40 3 -4
6 -1 6 5 0 6 16 16 35 23 19 7 35 17 35 21 0 4 7 8 16 8 11 0 14 -5 10 -16z
m-1663 -44 c9 0 32 1 50 2 118 7 230 -90 252 -219 4 -27 12 -43 21 -43 19 0
28 42 20 101 -6 45 -5 49 13 49 16 0 95 -26 109 -35 8 -6 30 -180 23 -185 -4
-3 -10 -13 -14 -23 -10 -26 -54 -44 -77 -30 -10 7 -27 9 -39 6 -16 -4 -21 -1
-21 16 0 25 -28 28 -37 4 -9 -23 -69 -83 -83 -83 -6 0 -8 -4 -5 -10 3 -5 0
-10 -8 -10 -7 0 -23 -10 -35 -22 -36 -39 -142 -108 -165 -108 -18 0 -67 -23
-67 -32 0 -4 -7 -5 -15 -2 -8 4 -17 -1 -21 -10 -3 -9 -15 -16 -25 -16 -10 0
-19 -5 -19 -11 0 -6 -7 -8 -16 -5 -9 4 -22 2 -28 -3 -14 -12 -168 -41 -246
-46 -30 -2 -104 -6 -165 -10 -60 -3 -116 -8 -123 -10 -7 -3 -10 0 -7 5 3 6 19
10 34 10 15 0 32 5 38 11 6 6 19 9 29 7 11 -2 28 4 38 14 11 10 32 18 47 18
15 0 30 4 33 9 3 5 15 7 26 4 12 -3 22 1 26 11 3 9 12 16 19 16 7 0 16 7 19
16 4 9 9 14 13 11 3 -4 11 1 18 9 6 9 24 17 38 17 15 0 25 3 22 7 -2 4 11 16
30 26 19 10 35 22 35 26 0 5 7 8 15 8 8 0 19 9 25 20 6 11 17 20 24 20 8 0 16
7 20 15 3 8 12 15 19 15 9 0 17 15 21 39 3 22 10 41 16 43 5 1 13 36 18 76 7
57 6 75 -5 84 -7 6 -11 13 -8 16 3 3 -3 14 -12 25 -10 10 -18 26 -18 35 0 10
-7 16 -17 16 -9 -1 -19 8 -22 21 -5 18 -17 25 -67 34 -34 7 -105 13 -158 13
l-96 1 80 14 c44 8 103 18 130 23 28 5 102 7 165 4 63 -3 123 -5 133 -4z
m-615 -98 c13 -4 23 -10 23 -14 -3 -30 1 -38 17 -38 11 0 32 -11 48 -25 16
-14 35 -25 42 -25 6 0 12 -7 12 -16 0 -8 5 -12 10 -9 6 3 10 2 10 -3 0 -10 43
-64 73 -91 9 -8 17 -28 17 -43 0 -25 23 -48 48 -48 16 0 42 121 31 142 -6 11
-11 33 -11 49 -1 16 -5 32 -10 35 -4 3 -6 10 -3 15 8 12 45 12 45 -1 0 -5 7
-10 15 -10 9 0 31 -16 50 -35 27 -26 35 -43 35 -69 0 -19 -4 -38 -10 -41 -5
-3 -10 -15 -10 -25 0 -10 -13 -27 -30 -37 -16 -9 -30 -24 -30 -31 0 -8 -6 -12
-15 -8 -8 3 -18 0 -22 -7 -11 -16 -67 -47 -86 -47 -9 0 -17 -6 -19 -12 -3 -7
-13 -13 -24 -13 -10 0 -18 -6 -16 -13 2 -10 -4 -11 -19 -7 -14 5 -25 2 -30 -6
-4 -8 -12 -14 -16 -15 -19 -1 -99 -25 -114 -33 -19 -11 -94 -33 -124 -36 -51
-7 -101 -19 -105 -26 -3 -5 -21 -9 -40 -11 -19 -1 -37 -6 -41 -10 -3 -4 -20
-3 -39 2 -27 8 -36 7 -42 -4 -6 -11 -16 -12 -41 -6 -36 10 -92 8 -103 -3 -13
-13 -57 -7 -69 10 -8 10 -10 27 -5 42 6 22 5 79 -3 154 -1 9 -5 17 -10 17 -5
0 -5 9 -2 20 4 11 2 20 -4 20 -6 0 -11 9 -11 19 0 11 -9 23 -20 26 -11 3 -20
11 -20 16 0 5 -7 9 -15 9 -8 0 -15 5 -15 10 0 6 -6 10 -14 10 -8 0 -16 5 -18
12 -3 8 18 19 51 30 31 10 64 23 74 28 13 8 17 7 17 -4 0 -8 7 -17 16 -20 8
-3 13 -10 9 -15 -3 -6 13 -15 36 -21 26 -7 43 -18 46 -31 3 -10 12 -19 19 -19
8 0 14 -6 14 -14 0 -8 10 -22 21 -30 24 -16 69 -90 69 -112 0 -8 4 -14 9 -14
5 0 11 -13 14 -29 5 -21 13 -30 34 -34 15 -3 30 -3 33 0 3 2 5 61 5 131 0 91
-3 126 -12 130 -7 2 -13 12 -13 22 0 10 -7 20 -15 24 -8 3 -15 12 -15 21 0 8
-7 15 -15 15 -8 0 -15 5 -15 10 0 6 -9 10 -20 10 -11 0 -23 7 -26 15 -4 8 -13
15 -21 15 -8 0 -11 5 -8 10 4 6 11 8 16 4 5 -3 16 -1 23 5 8 7 18 11 22 10 5
-1 22 3 37 9 40 17 46 15 53 -13 3 -14 12 -25 20 -25 8 0 14 -7 14 -15 0 -8 9
-15 20 -15 11 0 20 -4 20 -10 0 -5 9 -10 20 -10 11 0 20 -7 20 -15 0 -9 11
-20 25 -25 16 -6 23 -14 19 -25 -4 -10 0 -15 10 -15 9 0 16 -7 16 -15 0 -8 3
-15 8 -15 4 0 20 -34 37 -75 20 -52 35 -75 47 -76 10 -1 23 -2 30 -3 6 -1 17
20 24 47 7 27 8 47 2 47 -5 0 -8 26 -8 58 2 81 0 90 -16 96 -7 3 -11 12 -8 21
3 8 2 15 -4 15 -6 0 -15 14 -21 30 -5 17 -16 30 -23 30 -7 0 -23 11 -36 25
-20 20 -21 27 -10 39 14 16 29 18 66 8z m1357 -154 c3 -24 11 -38 20 -38 18 0
29 41 21 81 -3 18 -2 28 4 24 5 -3 12 -21 16 -40 3 -19 10 -35 14 -35 20 0
-11 -152 -35 -176 -20 -21 -47 -7 -39 20 4 11 11 24 16 27 13 8 38 58 38 75 0
27 -38 15 -48 -15 -8 -22 -15 -28 -29 -25 -19 5 -43 -29 -43 -61 0 -8 -5 -15
-11 -15 -6 0 -17 -7 -25 -15 -9 -8 -20 -15 -25 -15 -10 0 -1 52 11 60 4 3 8
16 8 30 0 14 5 43 10 65 6 22 10 57 8 78 -2 20 0 37 5 37 9 0 12 -12 26 -90 6
-32 14 -46 27 -48 18 -4 19 2 13 79 -6 82 4 80 18 -3z m-2203 -158 c26 -7 42
-18 45 -31 3 -10 14 -19 24 -19 11 0 19 -4 19 -9 0 -5 6 -16 13 -23 21 -21 47
-79 53 -120 6 -32 4 -37 -9 -33 -8 4 -18 2 -21 -3 -8 -13 -57 -2 -63 14 -2 7
-29 18 -59 25 -41 9 -62 21 -88 49 -19 21 -33 40 -30 42 2 3 -1 18 -6 35 -10
26 -8 34 17 61 15 18 33 32 40 32 7 0 14 8 14 18 1 11 3 10 6 -5 3 -16 15 -26
45 -33z m-152 23 c0 -5 -9 -41 -20 -82 -17 -66 -17 -77 -4 -102 8 -15 14 -33
14 -40 0 -15 79 -89 95 -89 6 0 22 -8 33 -19 24 -20 134 -47 150 -37 10 6 117
-13 110 -19 -4 -4 -86 -13 -182 -20 -44 -3 -83 -8 -87 -10 -6 -5 -194 -19
-249 -19 -14 0 -27 -3 -30 -7 -3 -4 -37 -9 -77 -12 -64 -6 -95 -12 -208 -47
-16 -5 -49 -12 -72 -16 -24 -4 -43 -11 -43 -16 0 -5 -9 -7 -19 -3 -11 3 -22 2
-25 -3 -3 -6 -35 -16 -71 -23 -36 -7 -65 -16 -65 -20 0 -3 -11 -6 -24 -6 -14
0 -46 -8 -73 -16 -26 -9 -109 -32 -183 -52 -74 -20 -143 -41 -152 -46 -10 -5
-24 -9 -33 -9 -13 0 -87 -22 -125 -37 -8 -3 -18 -5 -22 -5 -5 1 -8 -2 -8 -6 0
-4 -12 -9 -26 -10 -15 -1 -32 -6 -38 -11 -11 -9 -125 -36 -138 -33 -5 1 -8 -3
-8 -8 0 -6 -8 -10 -17 -10 -10 -1 -35 -7 -55 -14 -25 -9 -35 -10 -31 -2 4 6
-4 3 -19 -6 -15 -10 -35 -14 -48 -11 -17 5 -21 3 -15 -7 5 -8 3 -11 -6 -8 -8
3 -23 1 -34 -5 -11 -6 -35 -12 -55 -13 -19 -2 -36 -8 -38 -14 -2 -5 -12 -10
-21 -10 -18 0 -128 -27 -301 -75 -52 -14 -129 -32 -170 -39 -118 -20 -370 -11
-385 14 -2 4 -16 5 -29 3 -15 -3 -32 1 -41 10 -8 9 -35 19 -60 23 -25 3 -45
10 -45 15 0 5 -7 9 -16 9 -18 0 -40 20 -39 35 1 6 7 22 15 38 7 15 11 30 7 33
-8 9 -67 -6 -67 -17 0 -13 -41 -11 -66 4 -31 17 -26 82 7 108 13 10 30 16 37
14 8 -3 19 -5 26 -5 7 0 18 -16 26 -35 13 -34 34 -50 50 -40 5 3 7 25 5 49 -3
52 -26 81 -72 91 -18 3 -33 11 -33 17 0 17 116 121 158 141 12 5 22 16 22 24
0 7 11 13 24 13 13 0 29 7 36 15 7 8 19 15 26 15 8 0 14 4 14 8 0 4 14 9 31
10 17 1 44 9 59 17 29 15 159 61 255 91 28 9 55 20 60 24 6 5 27 11 48 15 20
4 37 11 37 16 0 5 6 6 13 3 8 -3 49 7 92 21 43 14 92 27 109 30 17 3 74 13
126 24 52 10 136 24 185 30 50 7 117 16 150 21 121 20 266 35 425 46 41 2 104
9 140 15 36 6 88 8 115 5 74 -9 149 -13 160 -7 5 3 46 6 90 7 44 0 80 2 80 3
0 2 38 6 145 15 36 3 76 8 90 11 14 3 45 8 70 10 25 3 54 6 65 9 11 2 44 7 73
11 28 4 52 11 52 17 0 5 4 7 9 4 5 -4 20 -2 33 3 28 12 78 14 78 4z"/>
<path d="M3335 2378 c-44 -4 -89 -10 -100 -13 -46 -13 -213 -46 -255 -51 -50
-5 -64 -7 -170 -24 -125 -20 -214 -41 -231 -56 -16 -14 -48 -26 -234 -83 -55
-17 -109 -37 -120 -44 -11 -7 -42 -22 -70 -32 -53 -19 -236 -105 -270 -127
-32 -21 -44 -41 -51 -85 -9 -59 11 -99 59 -118 20 -8 44 -15 51 -15 8 0 16 -6
19 -12 3 -10 7 -10 17 -1 8 7 22 8 39 3 56 -16 332 -3 541 25 14 2 51 6 83 10
32 4 60 12 63 16 3 5 16 6 29 3 13 -3 34 0 47 7 12 7 33 12 45 10 11 -1 24 3
28 8 3 6 21 11 40 11 18 0 35 4 37 10 2 5 31 13 66 16 34 4 62 11 62 16 0 5 6
8 13 5 6 -2 24 2 38 9 15 7 46 15 70 16 24 2 51 11 61 21 10 9 33 17 51 17 17
0 47 9 65 20 18 11 37 18 42 15 5 -3 12 -1 15 5 4 6 15 8 25 5 11 -3 20 0 24
10 3 8 15 15 26 15 11 0 20 5 20 11 0 6 9 8 21 4 12 -4 24 -3 28 2 3 5 26 19
51 31 54 26 100 53 117 69 7 6 22 15 33 18 11 3 20 11 20 16 0 6 11 20 25 33
14 13 25 30 25 39 0 9 4 18 9 22 12 7 11 64 -1 71 -4 3 -6 10 -2 15 3 6 -3 13
-15 16 -12 3 -21 9 -21 14 0 5 -7 9 -15 9 -9 0 -18 6 -20 13 -6 14 -289 17
-430 5z m318 -69 c27 1 47 -2 47 -8 0 -6 18 -11 39 -11 33 0 40 -4 45 -26 8
-31 -23 -64 -96 -101 -26 -13 -50 -28 -53 -33 -3 -6 -15 -10 -26 -10 -19 0
-68 -26 -80 -42 -3 -4 -19 -10 -37 -12 -17 -2 -39 -9 -47 -16 -8 -7 -15 -9
-15 -5 0 5 -8 1 -17 -7 -10 -9 -37 -19 -60 -23 -24 -4 -45 -10 -48 -15 -3 -5
-24 -11 -48 -15 -23 -4 -44 -11 -47 -16 -3 -4 -17 -9 -30 -11 -14 -2 -31 -7
-38 -12 -7 -4 -20 -5 -28 -2 -8 3 -17 0 -20 -7 -2 -7 -24 -14 -48 -15 -24 -1
-56 -7 -72 -13 -16 -7 -39 -11 -51 -10 -13 1 -23 -1 -23 -6 0 -5 -8 -9 -17
-10 -10 -1 -43 -7 -73 -13 -30 -6 -71 -12 -90 -15 -19 -2 -46 -8 -60 -13 -14
-6 -61 -13 -103 -17 -43 -4 -80 -11 -83 -16 -3 -5 -10 -7 -15 -4 -5 4 -15 3
-21 -2 -7 -4 -50 -7 -95 -8 -45 0 -84 -2 -86 -5 -3 -3 -71 -5 -150 -4 -104 0
-150 4 -161 13 -9 8 -16 10 -16 6 0 -5 -9 2 -20 15 -11 13 -20 29 -20 37 0 37
202 131 377 175 48 12 106 31 128 43 22 13 51 26 65 30 14 4 32 13 40 20 8 8
29 15 45 18 17 2 43 9 58 15 62 26 278 75 392 89 66 8 136 17 155 19 19 2 41
6 48 9 7 2 47 7 90 11 42 4 115 12 162 19 47 7 101 11 120 7 19 -3 56 -4 83
-3z"/>
</g>
</svg>
