<?xml version="1.0" standalone="no"?>
<!DOCTYPE svg PUBLIC "-//W3C//DTD SVG 20010904//EN"
 "http://www.w3.org/TR/2001/REC-SVG-20010904/DTD/svg10.dtd">
<svg version="1.0" xmlns="http://www.w3.org/2000/svg"
 width="750.000000pt" height="583.000000pt" viewBox="0 0 750.000000 583.000000"
 preserveAspectRatio="xMidYMid meet">
<metadata>
Created by potrace 1.16, written by Peter Selinger 2001-2019
</metadata>
<g transform="translate(0.000000,583.000000) scale(0.100000,-0.100000)"
fill="#000000" stroke="none">
<path d="M6906 4823 c7 -82 -12 -123 -72 -165 -81 -56 -189 -46 -324 31 -104
59 -167 81 -251 84 -93 4 -213 -24 -271 -65 -14 -10 -29 -18 -33 -18 -4 0 -31
-20 -60 -45 -48 -41 -55 -44 -78 -34 -20 9 -35 8 -74 -7 -26 -9 -54 -22 -60
-27 -7 -5 -13 -6 -13 -2 0 4 -6 3 -12 -2 -7 -5 -35 -18 -63 -28 -27 -9 -78
-30 -113 -46 -35 -16 -66 -29 -69 -29 -3 0 -30 -12 -59 -27 l-52 -26 -39 29
c-38 30 -96 67 -188 120 -134 77 -242 107 -292 81 -16 -8 -95 -40 -178 -71
-82 -32 -166 -63 -185 -71 -19 -8 -66 -26 -105 -40 -38 -15 -83 -33 -100 -40
-16 -7 -75 -29 -130 -49 -55 -20 -109 -41 -120 -46 -11 -5 -60 -25 -110 -45
-49 -20 -94 -41 -100 -46 -15 -15 53 1 123 28 35 14 69 26 75 27 7 2 19 6 27
9 8 4 56 21 105 38 50 17 108 40 129 50 22 10 45 19 52 19 7 0 41 13 76 28 34
16 88 37 118 47 30 10 60 21 65 25 6 4 43 18 83 30 40 13 75 27 78 31 3 5 13
9 24 9 16 0 17 -4 8 -42 -11 -46 -12 -186 -2 -252 17 -117 81 -345 126 -443
23 -53 41 -96 42 -103 3 -14 70 -141 77 -146 5 -3 9 -12 9 -20 0 -18 108 -173
159 -228 20 -21 53 -49 74 -62 42 -27 41 -37 -6 -59 -18 -8 -50 -26 -72 -39
-22 -14 -53 -32 -70 -40 -16 -9 -63 -34 -102 -56 -108 -59 -210 -115 -278
-150 -33 -17 -100 -53 -150 -80 -96 -52 -643 -326 -760 -380 -38 -18 -101 -47
-140 -65 -86 -40 -263 -115 -273 -115 -4 0 -19 -6 -34 -14 -15 -8 -75 -31
-135 -52 -98 -34 -118 -38 -219 -39 -154 -2 -179 -15 -318 -164 -63 -69 -114
-98 -181 -106 -196 -21 -201 -23 -273 -77 -37 -28 -91 -74 -119 -104 -52 -52
-53 -53 -68 -31 -8 12 -15 25 -15 29 0 4 -13 37 -30 73 -16 36 -30 68 -30 71
0 3 -7 20 -14 37 -8 18 -31 73 -51 122 -19 50 -40 98 -45 107 -6 10 -10 22
-10 27 0 5 -13 39 -30 74 -16 36 -30 68 -30 71 0 3 -11 30 -25 60 -14 30 -25
58 -25 61 0 3 -13 34 -29 68 -16 34 -50 116 -77 182 -26 66 -51 126 -57 133
-5 6 -6 12 -2 12 4 0 3 6 -3 13 -5 6 -27 55 -47 107 -20 52 -45 113 -55 135
-49 111 -69 162 -72 179 -4 29 247 124 347 131 160 12 178 18 310 110 104 73
144 89 255 104 109 15 140 26 201 71 61 45 139 84 249 125 41 15 89 33 105 40
31 13 43 17 285 110 80 31 154 60 165 65 11 5 49 19 85 31 36 12 70 25 75 29
6 4 39 17 75 30 36 13 72 29 80 35 8 7 32 18 53 26 33 11 50 29 29 29 -12 0
-535 -191 -617 -225 -16 -7 -64 -25 -105 -40 -41 -14 -79 -30 -85 -34 -5 -5
-35 -16 -65 -26 -142 -46 -263 -99 -311 -137 -68 -53 -118 -73 -217 -88 -115
-16 -150 -30 -266 -108 -56 -37 -114 -74 -130 -80 -16 -7 -79 -18 -139 -23
-92 -9 -133 -19 -242 -59 -154 -57 -166 -59 -325 -75 -42 -4 -191 -28 -252
-41 -15 -3 -30 -13 -33 -23 -5 -18 53 -192 165 -491 34 -91 63 -169 64 -175 2
-5 8 -23 15 -40 7 -16 30 -75 51 -130 63 -163 74 -190 83 -196 5 -3 8 -10 8
-15 -1 -14 20 -76 37 -109 9 -16 17 -33 18 -37 1 -5 2 -9 4 -10 1 -2 3 -10 5
-19 1 -9 10 -32 18 -50 26 -58 98 -222 115 -264 9 -22 31 -67 47 -100 25 -49
36 -61 60 -65 69 -12 302 33 405 78 25 11 77 51 116 88 90 87 131 122 163 139
15 7 78 18 141 25 109 10 163 26 204 60 16 13 60 58 127 131 13 14 41 38 63
54 36 28 44 29 153 32 81 2 135 9 182 23 74 23 218 75 271 98 19 9 37 16 40
17 22 7 154 63 245 105 22 10 130 62 240 116 110 54 202 98 205 99 3 0 25 11
50 24 25 13 106 55 180 94 74 38 205 107 290 152 143 76 186 99 340 182 109
59 175 96 185 103 6 5 30 19 55 33 25 13 64 35 88 48 38 21 102 101 102 128 0
5 7 22 15 38 29 56 95 303 97 359 1 27 5 31 50 42 28 6 74 23 103 37 30 14 56
25 59 25 3 0 29 11 58 23 29 13 90 39 135 56 45 18 87 39 93 46 6 7 16 32 23
56 12 41 16 45 57 55 47 12 66 12 275 -1 116 -7 138 -5 206 13 113 31 223 92
307 168 59 53 80 81 112 148 36 74 40 91 41 162 0 89 -15 142 -63 216 -29 46
-54 68 -77 68 -6 0 -8 -25 -5 -67z m93 -130 c12 -45 6 -67 -28 -118 -21 -31
-13 -59 15 -48 16 6 19 -12 4 -22 -6 -4 -17 -21 -24 -38 -14 -32 -35 -62 -68
-98 -10 -11 -18 -23 -18 -29 0 -5 -7 -10 -15 -10 -8 0 -15 -4 -15 -10 0 -5
-24 -25 -52 -45 -58 -37 -159 -68 -211 -63 -26 2 -33 -1 -35 -18 -5 -34 -41
-36 -320 -20 -86 5 -200 -18 -249 -49 -20 -13 -24 -12 -47 16 -15 17 -24 34
-21 39 3 4 -2 13 -10 20 -8 7 -15 20 -15 29 0 9 -4 21 -8 27 -19 21 -52 134
-57 194 0 9 -4 20 -8 27 -7 11 19 49 57 82 47 41 76 71 69 71 -11 1 90 50 102
50 6 0 24 8 40 17 23 14 55 17 145 18 l115 0 103 -53 c187 -96 246 -108 355
-71 85 28 147 99 147 171 l0 23 20 -25 c10 -14 24 -44 29 -67z m-2079 -94 c78
-27 157 -69 301 -162 l57 -36 -14 -42 c-24 -69 -1 -194 63 -337 12 -29 23 -55
23 -58 0 -19 101 -135 129 -149 23 -11 32 -21 28 -33 -3 -9 -19 -66 -36 -127
-52 -186 -59 -208 -99 -285 -36 -71 -40 -75 -75 -78 -26 -2 -47 4 -70 19 -64
45 -154 151 -209 248 -44 77 -128 249 -128 263 0 8 -4 18 -8 24 -23 25 -97
273 -118 394 -29 167 -22 304 17 354 25 32 58 33 139 5z m-3577 -1340 c9 -17
17 -36 17 -42 1 -7 9 -30 20 -52 11 -22 19 -43 20 -47 0 -4 14 -36 30 -70 17
-34 30 -66 30 -72 0 -6 6 -22 13 -36 7 -14 21 -47 31 -75 10 -27 22 -55 27
-60 16 -21 80 -207 76 -219 -3 -7 -24 -16 -46 -20 -23 -3 -40 -11 -38 -17 3
-17 -51 -30 -112 -27 -37 2 -56 -1 -58 -9 -6 -17 96 -17 187 -2 79 14 95 15
95 9 0 -3 8 -16 18 -30 9 -13 17 -35 17 -47 0 -19 -7 -24 -40 -29 -22 -4 -40
-10 -40 -14 0 -4 21 -4 48 1 28 4 52 3 60 -3 17 -15 15 -48 -3 -48 -9 0 -26
-6 -38 -14 -12 -8 -40 -17 -62 -20 -131 -19 -194 -53 -90 -49 55 3 185 31 199
44 13 12 62 -53 71 -97 2 -5 15 -37 30 -70 15 -32 43 -99 61 -149 19 -49 39
-99 44 -110 32 -68 78 -173 84 -191 5 -18 -2 -23 -71 -47 -122 -41 -185 -54
-296 -62 l-57 -4 -15 36 c-27 64 -29 81 -8 86 12 4 9 5 -7 4 -20 -2 -29 7 -48
42 -18 35 -20 46 -10 52 9 6 10 9 1 9 -7 0 -20 17 -29 38 -9 20 -30 64 -45 98
-16 33 -29 64 -29 67 0 4 -8 26 -19 50 -29 65 -101 256 -101 267 0 6 8 10 18
11 13 0 12 2 -6 9 -25 10 -64 88 -66 132 0 16 -5 28 -9 28 -12 0 -39 69 -32
80 4 6 2 10 -4 10 -5 0 -17 24 -27 53 -9 28 -19 57 -23 62 -3 6 -6 13 -7 18
-1 4 -3 9 -4 12 -1 3 -3 8 -5 13 -5 18 -17 49 -27 67 -6 11 -21 51 -33 90 -13
38 -41 120 -64 180 -35 94 -48 145 -38 145 1 0 29 5 62 11 57 10 267 35 310
38 13 0 27 -11 38 -30z"/>
<path d="M6273 4539 c-14 -5 -23 -17 -23 -29 0 -20 4 -21 71 -16 61 5 84 1
158 -23 110 -37 189 -54 221 -47 14 2 33 5 42 5 20 1 48 27 48 46 0 21 -29 26
-56 9 -33 -22 -107 -13 -221 27 -91 33 -197 45 -240 28z"/>
<path d="M6145 4409 c-54 -7 -91 -24 -100 -48 -9 -24 13 -37 36 -22 28 17 48
20 142 27 48 3 91 1 113 -6 29 -10 38 -10 44 0 12 19 2 38 -23 46 -28 9 -147
11 -212 3z"/>
<path d="M4255 3997 c-19 -12 -134 -67 -285 -135 -36 -16 -132 -57 -215 -92
-155 -64 -500 -209 -570 -240 -208 -93 -443 -188 -615 -250 -58 -21 -168 -63
-245 -93 -125 -49 -252 -95 -498 -182 -77 -27 -99 -42 -80 -54 6 -3 12 -36 15
-72 3 -53 10 -75 37 -117 31 -48 33 -56 26 -109 -6 -54 -4 -63 34 -138 23 -44
41 -86 41 -93 0 -8 9 -27 21 -43 30 -43 31 -86 2 -94 -23 -5 -31 -29 -14 -39
5 -3 30 7 56 22 191 110 232 130 315 148 148 31 141 29 365 129 28 12 61 26
75 30 42 13 559 230 725 304 86 39 374 151 388 151 7 0 17 3 21 8 4 4 11 7 14
8 18 1 336 108 397 133 39 16 120 44 180 62 61 18 112 34 114 36 3 2 -5 21
-17 42 -27 48 -27 57 -1 64 24 7 17 24 -15 36 -20 8 -42 44 -102 162 -13 26
-26 71 -30 100 -4 30 -20 89 -35 132 -16 43 -29 95 -29 115 0 39 -23 82 -43
82 -7 0 -21 -6 -32 -13z"/>
</g>
</svg>
