<?xml version="1.0" standalone="no"?>
<!DOCTYPE svg PUBLIC "-//W3C//DTD SVG 20010904//EN"
 "http://www.w3.org/TR/2001/REC-SVG-20010904/DTD/svg10.dtd">
<svg version="1.0" xmlns="http://www.w3.org/2000/svg"
 width="1277.000000pt" height="1008.000000pt" viewBox="0 0 1277.000000 1008.000000"
 preserveAspectRatio="xMidYMid meet">
<metadata>
Created by potrace 1.16, written by Peter Selinger 2001-2019
</metadata>
<g transform="translate(0.000000,1008.000000) scale(0.100000,-0.100000)"
fill="#000000" stroke="none">
<path d="M6279 9223 c-10 -2 -19 -13 -22 -25 -3 -11 -10 -17 -15 -14 -16 10
-131 16 -137 7 -2 -5 2 -12 11 -15 13 -5 14 -9 4 -21 -7 -9 -8 -15 -2 -15 13
0 11 -53 -3 -62 -6 -5 -5 -11 4 -17 11 -7 10 -11 -7 -20 -27 -14 -29 -9 -27
72 l1 67 -30 -1 c-24 -1 -26 -3 -8 -6 14 -3 20 -9 15 -16 -4 -7 -8 -23 -8 -37
0 -14 -4 -30 -8 -37 -4 -6 -3 -14 3 -18 18 -11 10 -26 -12 -23 -19 3 -22 10
-24 48 0 25 3 51 9 58 6 8 6 12 -2 12 -6 0 -15 -8 -18 -17 -4 -10 -11 -21 -17
-25 -8 -6 -8 -10 0 -15 15 -10 11 -56 -5 -61 -6 -2 -19 -1 -29 3 -14 5 -14 7
-2 16 13 8 13 10 0 19 -13 8 -12 11 4 23 12 9 15 16 9 20 -16 10 -36 -20 -36
-54 0 -34 -26 -41 -34 -9 -6 21 -6 21 -20 0 -10 -14 -22 -20 -34 -17 -11 3
-22 1 -25 -4 -3 -5 -15 -10 -27 -10 -13 -1 -16 -3 -7 -5 13 -4 15 -28 12 -157
-4 -264 -6 -290 -20 -295 -10 -3 -12 40 -10 217 2 122 0 221 -3 221 -15 0 -26
-27 -23 -52 1 -16 0 -28 -4 -28 -4 0 -8 -80 -9 -178 -1 -97 -2 -185 -2 -194
-1 -11 -9 -18 -22 -18 -11 0 -17 4 -14 10 9 14 9 295 1 309 -4 5 -2 12 4 16 6
4 7 12 3 18 -11 18 -11 51 -1 65 7 7 7 12 1 12 -11 0 -33 -44 -33 -65 0 -8 -7
-15 -15 -15 -10 0 -15 10 -15 26 0 22 -2 24 -15 14 -8 -6 -13 -17 -12 -23 1
-7 -9 -11 -25 -10 -16 1 -28 -2 -28 -8 0 -5 -11 -9 -23 -9 -13 0 -32 -9 -43
-21 -17 -19 -19 -39 -19 -225 0 -192 -1 -204 -18 -204 -13 0 -17 5 -14 14 3 8
1 17 -6 19 -9 3 -9 8 1 19 9 11 9 18 3 23 -9 5 -9 27 -1 55 1 3 1 61 1 129 0
84 3 129 12 140 9 12 9 13 -1 7 -21 -13 -43 -65 -46 -114 -2 -26 -4 -53 -5
-59 0 -7 -8 -13 -17 -13 -13 0 -15 11 -12 65 1 36 0 65 -5 65 -16 0 -29 -59
-29 -133 1 -69 -1 -78 -16 -75 -9 3 -16 9 -15 14 7 38 12 137 8 144 -3 5 -12
7 -20 4 -8 -4 -12 -10 -9 -15 3 -5 1 -9 -3 -9 -5 0 -8 -32 -6 -71 2 -62 0 -70
-15 -67 -14 3 -17 14 -17 60 0 67 -9 80 -27 41 -9 -19 -13 -63 -13 -135 1 -83
-2 -108 -12 -108 -10 0 -12 28 -9 133 2 72 1 125 -2 117 -3 -8 -8 -17 -11 -20
-19 -16 -29 -51 -23 -81 12 -58 9 -74 -16 -77 -21 -3 -22 -1 -19 68 l4 71 -29
-33 c-24 -27 -30 -30 -38 -18 -6 10 -10 11 -10 3 0 -7 -9 -13 -19 -13 -11 0
-23 -4 -26 -10 -3 -5 1 -10 9 -10 9 0 16 -4 16 -10 0 -5 -9 -10 -20 -10 -11 0
-20 5 -20 10 0 6 -6 5 -14 -2 -8 -7 -14 -15 -14 -18 1 -21 -4 -30 -18 -30 -10
0 -14 6 -11 14 3 8 -16 1 -48 -17 -29 -18 -53 -34 -53 -37 2 -24 -6 -30 -42
-30 -22 0 -40 -4 -40 -10 0 -5 5 -10 10 -10 6 0 10 -5 10 -11 0 -6 -10 -10
-22 -9 -47 4 -56 1 -51 -19 4 -17 0 -20 -36 -19 -23 0 -45 -2 -48 -6 -4 -3 1
-6 10 -6 9 0 17 -5 17 -10 0 -16 -33 -26 -38 -11 -5 16 -32 -5 -32 -26 0 -9
-9 -14 -22 -13 -13 1 -32 2 -43 1 -16 -1 -17 -3 -6 -10 12 -8 12 -12 2 -25 -9
-11 -10 -16 -2 -16 6 0 11 -7 11 -15 0 -8 -6 -15 -12 -15 -9 0 -9 -3 1 -9 12
-8 12 -12 2 -25 -10 -12 -10 -16 -2 -16 7 0 9 -4 6 -10 -3 -5 -15 -10 -26 -10
-10 0 -19 5 -19 10 0 6 3 10 8 10 8 0 10 93 2 98 -3 2 -13 0 -23 -4 -13 -5
-15 -10 -7 -19 8 -9 7 -15 -2 -18 -10 -4 -10 -7 1 -15 9 -7 10 -11 2 -17 -7
-3 -9 -15 -6 -26 5 -15 1 -19 -15 -19 -19 0 -21 5 -18 38 2 25 -1 37 -10 36
-34 -3 -37 -4 -23 -13 12 -8 12 -12 2 -25 -10 -12 -10 -16 -2 -16 7 0 9 -4 6
-10 -8 -13 -45 -13 -45 -1 0 5 5 11 12 13 6 2 8 10 4 17 -10 15 -36 -4 -36
-25 0 -9 -10 -14 -27 -13 -16 1 -39 -3 -53 -9 -25 -11 -25 -11 -2 -11 14 -1
21 -5 16 -12 -3 -6 -15 -8 -26 -6 -25 7 -50 -2 -42 -14 3 -6 0 -16 -6 -24 -7
-8 -8 -15 -3 -15 5 0 10 -14 10 -30 0 -26 -4 -30 -21 -28 -18 3 -20 9 -17 47
2 38 1 42 -12 30 -8 -8 -13 -19 -10 -25 2 -7 -1 -15 -7 -19 -9 -6 -9 -10 1
-16 19 -11 -15 -24 -38 -14 -12 5 -14 9 -5 12 6 3 9 9 6 15 -3 5 -13 0 -21
-12 -10 -14 -22 -20 -34 -17 -11 3 -22 1 -25 -4 -3 -5 -15 -9 -27 -10 -20 -1
-20 -2 3 -9 22 -6 23 -8 8 -15 -10 -4 -25 -5 -33 -2 -20 8 -28 -8 -30 -62 -1
-33 -6 -47 -17 -49 -18 -3 -32 49 -16 59 6 4 8 12 4 18 -5 7 -12 7 -26 -1 -14
-9 -16 -14 -7 -20 9 -6 9 -10 -2 -17 -9 -6 -10 -11 -2 -15 18 -11 2 -26 -24
-24 -27 3 -33 13 -12 21 6 2 8 8 4 13 -5 5 -16 -2 -26 -15 -10 -13 -24 -21
-32 -19 -27 10 -48 -10 -44 -42 2 -17 -1 -30 -7 -30 -7 0 -7 -4 1 -13 13 -16
5 -27 -21 -27 -20 0 -24 16 -5 23 9 4 9 7 -1 15 -7 5 -10 16 -6 28 6 15 4 17
-6 7 -7 -7 -13 -26 -13 -43 0 -16 -5 -30 -10 -30 -5 0 -4 -7 3 -15 10 -12 9
-16 -5 -21 -22 -9 -45 13 -26 25 11 7 11 9 0 13 -11 4 -12 8 -2 20 7 8 10 18
6 21 -11 12 -32 -14 -39 -49 -3 -19 -12 -34 -18 -34 -20 0 -27 12 -15 26 7 8
7 14 -1 19 -5 3 -15 -6 -20 -21 -7 -18 -16 -25 -29 -21 -10 2 -28 -3 -39 -12
-18 -14 -20 -21 -13 -53 11 -45 3 -88 -15 -88 -10 0 -13 11 -11 41 2 22 0 42
-5 45 -4 3 -8 -9 -8 -26 0 -20 -9 -39 -23 -53 -19 -17 -23 -30 -21 -60 2 -20
9 -47 15 -60 19 -35 92 -132 103 -136 5 -2 19 -14 31 -27 23 -25 45 -31 45
-13 0 5 21 -7 48 -29 26 -21 70 -51 97 -67 28 -15 57 -34 65 -41 9 -7 94 -53
190 -102 96 -49 231 -124 300 -167 69 -43 155 -96 193 -119 37 -22 97 -60 135
-84 37 -24 118 -68 180 -98 112 -53 407 -224 468 -271 18 -13 87 -54 153 -91
67 -37 130 -75 140 -84 11 -9 22 -14 25 -11 3 4 6 2 6 -4 0 -6 13 -15 28 -21
16 -5 82 -43 148 -84 65 -41 166 -101 224 -133 58 -31 116 -65 130 -75 14 -10
43 -26 65 -37 34 -16 211 -115 255 -143 66 -41 168 -100 235 -135 128 -66 198
-107 220 -126 19 -16 79 -50 200 -112 28 -14 102 -49 165 -78 157 -70 458
-257 452 -280 -1 -6 2 -8 7 -5 14 9 251 -129 251 -146 0 -5 5 -6 10 -3 6 3 10
1 10 -4 0 -6 5 -11 12 -11 13 0 119 -61 207 -119 30 -19 60 -36 67 -37 7 -1
44 -23 84 -48 39 -25 74 -46 77 -46 4 0 14 -6 22 -14 9 -8 70 -43 136 -77 66
-34 122 -65 125 -68 3 -3 12 -7 20 -9 33 -6 137 -65 170 -95 19 -18 43 -37 55
-43 11 -6 29 -15 40 -21 11 -6 52 -17 90 -23 39 -7 84 -20 100 -28 40 -20 199
-27 304 -13 60 8 103 21 152 46 39 20 76 32 86 29 13 -4 15 -3 5 4 -11 7 -10
10 3 16 9 3 21 4 25 1 5 -3 12 0 16 6 4 8 3 9 -4 5 -7 -4 -12 -5 -12 -2 0 3
57 35 128 70 293 147 662 358 762 436 35 28 51 37 165 100 33 18 94 54 135 80
41 26 120 73 175 105 55 32 120 70 145 85 25 15 115 63 200 107 164 84 242
129 435 254 66 43 171 111 233 151 107 69 192 144 192 169 0 6 6 9 13 6 9 -3
12 14 11 72 0 42 -4 84 -8 93 -15 34 -26 6 -26 -65 0 -64 -11 -110 -23 -97 -2
3 -7 47 -10 98 -5 82 -4 92 11 93 11 0 12 3 5 6 -15 6 -17 33 -3 33 17 0 -1
27 -26 38 -23 11 -24 10 -24 -28 0 -28 -4 -40 -14 -40 -19 0 -29 17 -16 25 7
4 7 12 2 18 -4 7 -8 24 -7 38 0 14 -5 31 -12 38 -9 8 -13 8 -13 1 0 -6 -8 -10
-17 -8 -9 2 -15 7 -14 12 3 8 -17 26 -29 26 -3 0 -6 -21 -6 -47 -1 -89 -4
-103 -18 -103 -9 0 -14 10 -14 28 1 15 -2 37 -6 50 -5 14 -3 22 5 22 8 0 8 4
1 13 -6 7 -9 24 -8 38 2 14 -3 34 -11 44 -14 20 -18 12 -14 -27 2 -12 -5 -18
-18 -18 -12 0 -21 7 -21 15 0 8 6 15 13 15 8 0 7 4 -3 10 -12 8 -13 12 -2 19
10 6 7 10 -13 15 -15 4 -30 5 -33 1 -3 -3 0 -5 6 -5 7 0 12 -7 12 -15 0 -9 -9
-15 -25 -15 -14 0 -25 5 -25 10 0 6 5 10 11 10 8 0 7 5 -2 16 -10 12 -10 17 0
23 19 12 -8 20 -42 14 -22 -4 -27 -2 -27 15 0 23 -21 34 -41 21 -11 -7 -11 -9
4 -9 21 0 22 -16 1 -24 -23 -9 -30 -1 -29 31 0 37 -13 51 -44 45 -18 -4 -23
-1 -19 10 4 8 -2 22 -12 31 -15 13 -19 13 -24 2 -3 -8 -1 -17 5 -20 14 -9 1
-25 -21 -25 -13 0 -18 6 -16 23 1 13 6 28 10 35 4 7 1 12 -8 12 -9 0 -16 5
-16 11 0 6 -5 7 -12 2 -23 -14 -51 -14 -45 0 3 7 0 20 -7 29 -9 13 -13 13 -24
2 -7 -8 -8 -14 -2 -14 5 0 10 -4 10 -10 0 -5 -8 -10 -18 -10 -13 0 -18 7 -17
28 1 33 -10 42 -55 42 -30 1 -33 2 -19 13 15 11 14 14 -6 29 -23 17 -23 17
-18 -12 3 -25 1 -30 -16 -30 -15 0 -19 6 -17 23 1 13 6 28 10 35 4 7 1 12 -8
12 -9 0 -16 5 -16 11 0 8 -4 8 -14 0 -18 -15 -43 -5 -49 20 -4 13 -10 17 -22
13 -13 -5 -14 -9 -3 -15 10 -6 10 -11 1 -20 -17 -17 -30 -3 -28 31 1 18 -5 36
-16 46 -16 15 -17 14 -15 -10 2 -15 -1 -29 -6 -32 -5 -3 -4 -12 3 -20 9 -11 8
-15 -4 -20 -9 -3 -20 -3 -25 0 -12 7 -12 89 1 97 5 3 -1 9 -12 12 -12 3 -24 1
-27 -4 -3 -5 0 -9 5 -9 6 0 11 -4 11 -10 0 -5 -11 -10 -25 -10 -16 0 -25 6
-25 15 0 8 6 15 13 15 8 0 7 4 -3 10 -12 8 -12 10 -1 10 8 0 4 8 -10 19 -13
11 -25 15 -27 10 -5 -12 -42 -12 -42 1 0 6 8 10 18 11 12 0 9 3 -8 10 -31 13
-35 12 -35 -5 0 -21 -12 -29 -31 -22 -13 5 -14 9 -5 20 9 11 9 16 0 21 -8 6
-8 9 0 14 17 11 -28 47 -68 55 -28 5 -32 4 -21 -9 15 -18 5 -35 -20 -35 -23 0
-37 20 -20 30 9 6 9 9 -1 16 -10 6 -7 10 11 14 l25 6 -32 16 c-18 9 -33 12
-33 7 0 -6 -8 -9 -17 -7 -10 2 -16 6 -13 9 10 11 -22 38 -37 32 -14 -5 -14 -8
2 -19 16 -12 16 -14 2 -20 -26 -10 -40 0 -43 29 -2 20 2 27 14 27 12 0 9 4 -8
14 -34 17 -39 13 -34 -34 3 -33 1 -40 -15 -40 -15 0 -17 8 -16 53 2 56 -22 97
-56 97 -9 0 -22 7 -29 15 -7 8 -18 15 -24 14 -7 0 -6 -2 2 -6 20 -8 14 -23 -9
-23 -14 0 -19 5 -16 14 3 8 -5 24 -18 36 -21 20 -23 20 -22 3 1 -10 -5 -18
-13 -18 -9 0 -14 8 -13 20 2 20 -15 37 -28 29 -4 -2 -5 -22 -2 -44 5 -36 3
-40 -15 -40 -24 0 -37 16 -22 25 8 5 8 11 0 20 -8 10 -7 14 2 18 10 4 10 7 -1
15 -9 7 -10 12 -2 16 20 13 12 23 -39 49 -27 14 -50 22 -50 17 0 -11 -33 -13
-43 -3 -4 3 -3 11 2 17 6 7 0 18 -16 30 l-25 18 4 -33 c2 -26 -1 -34 -14 -37
-10 -2 -18 1 -18 7 0 6 6 11 13 11 8 0 8 3 -2 9 -8 5 -12 17 -9 28 3 12 -4 25
-20 37 -15 12 -22 14 -16 5 5 -8 10 -33 11 -57 2 -39 0 -43 -20 -40 -20 3 -22
8 -20 55 3 56 -16 93 -48 93 -9 0 -22 7 -30 16 -11 14 -13 14 -22 -2 -6 -11
-5 -19 3 -24 14 -9 11 -79 -4 -99 -8 -10 -8 -15 2 -18 19 -7 14 -23 -8 -23
-18 0 -20 7 -20 79 0 44 -5 83 -10 86 -6 4 -8 9 -6 13 2 4 -2 16 -10 27 -14
18 -14 18 -14 -4 0 -27 -23 -23 -29 5 -2 10 -8 25 -15 33 -9 11 -12 4 -16 -34
-7 -71 -30 -72 -30 -1 0 43 -4 57 -18 65 -17 9 -19 4 -19 -70 -1 -86 -6 -100
-26 -80 -8 8 -12 44 -12 101 0 90 -7 108 -36 89 -8 -5 -9 -9 -3 -9 7 0 12 -28
13 -75 1 -62 -1 -75 -14 -75 -12 0 -15 16 -15 88 0 76 -3 92 -20 107 -19 17
-19 17 -19 -21 3 -127 -1 -174 -16 -174 -11 0 -15 12 -16 43 0 23 -2 57 -3 75
-2 17 0 32 4 32 4 0 7 11 6 25 0 14 -5 25 -10 25 -4 0 -6 6 -3 13 2 6 -2 18
-9 25 -15 14 -15 14 -17 -37 -2 -36 -26 -57 -28 -24 -4 58 -8 82 -17 100 -12
21 -60 37 -101 33 -18 -1 -22 2 -18 13 3 8 -2 22 -12 31 -16 15 -19 15 -24 2
-4 -9 -2 -18 4 -21 14 -9 1 -25 -22 -25 -16 0 -19 6 -16 34 4 30 -6 46 -27 46
-1 0 -1 -16 0 -35 3 -36 -13 -54 -36 -40 -8 5 -5 11 7 21 12 9 13 13 5 14 -8
0 -11 7 -8 18 6 20 -14 65 -29 63 -5 0 -9 -28 -8 -61 1 -51 -1 -60 -16 -60
-15 0 -18 8 -17 48 1 26 5 53 9 60 5 7 4 12 -3 12 -6 0 -8 5 -4 11 9 16 -16
29 -42 23 -12 -3 -25 -1 -28 5 -4 6 -2 11 5 11 7 0 4 6 -6 14 -25 18 -38 11
-29 -16 5 -16 2 -19 -13 -16 -10 2 -17 9 -16 16 4 19 -16 62 -29 62 -9 0 -9
-3 0 -12 17 -17 15 -28 -5 -28 -15 0 -14 -2 3 -14 18 -14 18 -15 2 -21 -33
-13 -43 0 -43 51 0 44 -8 63 -27 64 -9 0 -4 -42 7 -60 5 -8 4 -15 -2 -17 -6
-2 -9 -13 -6 -23 4 -15 0 -20 -15 -20 -15 0 -19 6 -18 28 1 15 5 33 9 40 5 6
4 12 -1 12 -6 0 -9 11 -8 25 0 15 7 25 16 25 9 0 7 5 -8 16 -12 8 -27 12 -32
9 -13 -8 -56 5 -43 14 5 3 1 14 -9 24 -17 16 -18 16 -18 -13 0 -22 -5 -30 -18
-30 -14 0 -18 8 -19 36 -1 39 -15 60 -33 49 -8 -5 -8 -11 1 -22 10 -11 10 -16
0 -23 -9 -5 -10 -10 -2 -14 19 -12 12 -28 -11 -24 -13 2 -23 8 -23 13 0 6 -4
16 -9 24 -5 8 -4 16 5 22 19 11 5 22 -19 15 -22 -7 -24 -36 -4 -49 7 -5 10
-12 7 -18 -8 -12 -55 -12 -55 1 0 6 4 10 8 10 5 0 9 14 9 30 0 17 -5 30 -10
30 -5 0 -4 6 2 14 8 9 8 16 2 20 -6 4 -8 13 -5 20 3 7 -2 19 -11 26 -10 8 -15
9 -15 1 0 -6 -9 -11 -20 -11 -21 0 -28 16 -10 22 6 2 1 9 -11 17 -20 12 -21
11 -16 -9 6 -24 -13 -36 -39 -26 -13 5 -14 9 -4 21 9 11 10 15 1 15 -7 0 -11
8 -10 18 3 30 -1 35 -16 22 -12 -10 -13 -15 -4 -21 10 -6 10 -11 0 -22 -9 -12
-9 -16 1 -20 9 -3 8 -7 -5 -12 -11 -4 -23 -3 -30 4 -8 8 -8 11 2 11 11 0 11 3
0 17 -11 13 -11 17 -1 21 10 3 10 7 1 19 -10 11 -10 16 0 22 17 11 -12 23 -34
15 -12 -5 -13 -9 -3 -21 9 -11 9 -16 -3 -24 -11 -7 -11 -9 0 -9 8 0 11 -7 8
-20 -3 -11 0 -20 6 -20 8 0 8 -3 0 -11 -6 -6 -19 -9 -29 -7 -14 2 -18 14 -19
51 -1 26 2 47 8 47 5 0 4 6 -2 14 -10 11 -8 17 6 25 17 10 17 10 -2 12 -11 1
-32 1 -47 0 -21 -1 -28 4 -28 17 0 26 -11 34 -26 21 -19 -15 -46 -3 -42 18 2
15 -3 18 -29 15 -29 -2 -33 1 -33 21 0 30 -10 40 -27 26 -10 -9 -10 -15 -2
-25 9 -11 8 -15 -4 -20 -9 -3 -20 -3 -26 0 -14 9 -7 56 10 67 15 9 10 10 -56
13 -21 1 -30 6 -30 18 0 10 -6 23 -13 30 -9 9 -12 9 -12 -5 0 -9 -7 -17 -15
-17 -8 0 -15 8 -15 19 0 10 -7 24 -15 31 -11 9 -15 10 -15 1 0 -7 -10 -11 -22
-9 -14 2 -23 9 -22 20 1 9 -9 27 -23 40 -18 17 -34 22 -68 20 -43 -1 -45 0
-45 25 0 21 -3 24 -12 15 -20 -20 -35 -14 -47 19 -9 26 -13 28 -25 17 -9 -8
-10 -15 -4 -19 14 -9 1 -29 -19 -29 -10 0 -14 6 -10 20 3 11 1 23 -5 26 -5 3
-7 12 -4 19 5 15 -17 39 -27 28 -4 -3 -4 -17 0 -30 5 -20 2 -24 -12 -21 -23 4
-27 44 -8 64 12 12 12 14 -4 14 -11 0 -25 6 -32 13 -11 10 -13 5 -8 -26 7 -45
0 -67 -19 -67 -17 0 -18 12 -2 28 9 9 9 12 0 12 -7 0 -12 14 -12 34 0 18 -7
39 -15 46 -16 14 -16 14 -19 -45 0 -16 -4 -35 -9 -42 -4 -7 -1 -16 9 -21 22
-12 9 -52 -17 -52 -22 0 -24 11 -7 28 9 9 7 13 -5 18 -9 3 -14 11 -11 16 4 6
7 39 8 73 1 49 -3 66 -16 74 -21 13 -25 2 -22 -71 2 -40 -2 -58 -10 -58 -7 0
-13 21 -14 58 -3 69 -5 83 -15 100 -14 21 -27 13 -27 -18 0 -40 -13 -38 -26 5
-10 32 -9 35 10 35 17 1 15 3 -9 14 -30 13 -68 10 -45 -4 15 -9 9 -142 -8
-148 -9 -3 -12 16 -12 72 0 77 -12 126 -30 126 -6 0 -10 -6 -9 -12 1 -7 1 -52
0 -100 -1 -69 -4 -88 -15 -88 -12 0 -14 17 -14 80 1 44 -2 83 -5 87 -4 3 -2
12 4 20 9 10 8 13 -1 13 -7 0 -10 6 -7 13 2 6 -2 18 -9 25 -17 16 -16 22 -14
-125 1 -97 -1 -113 -14 -113 -14 0 -16 18 -16 129 0 134 -8 159 -43 145 -20
-7 -44 5 -28 15 6 4 3 11 -9 19 -18 11 -20 9 -20 -13 0 -14 -6 -25 -12 -25
-10 0 -10 -2 -1 -8 9 -5 11 -45 10 -137 -2 -115 -4 -130 -19 -133 -14 -3 -18
3 -18 27 0 16 5 33 10 36 7 4 8 11 1 18 -14 18 -13 227 2 227 9 0 9 2 1 8 -6
4 -14 17 -18 29 -4 12 -12 20 -19 17 -9 -3 -11 -56 -10 -205 1 -110 5 -204 8
-209 3 -5 1 -12 -5 -15 -8 -5 -8 -11 0 -20 7 -9 8 -15 1 -19 -6 -4 -8 -13 -4
-21 6 -17 -22 -21 -32 -5 -3 6 -3 10 2 10 8 0 9 431 1 447 -2 4 -4 20 -3 35 0
15 -5 30 -12 33 -10 3 -14 -5 -13 -33 1 -20 1 -107 0 -192 -1 -148 -5 -169
-32 -170 -4 0 -7 72 -7 160 0 87 -2 163 -5 169 -4 5 -1 13 5 17 8 4 7 9 -2 15
-9 6 -10 12 -4 17 6 4 10 14 10 22 -1 19 -36 60 -51 60 -6 0 -17 7 -24 15 -10
12 -16 12 -26 4 -8 -6 -22 -8 -31 -5 -15 6 -15 8 -3 16 13 8 12 10 -2 10 -27
0 -33 -4 -30 -17 2 -7 -6 -13 -17 -13 -16 0 -19 6 -17 35 3 37 -17 67 -27 41
-3 -8 -1 -17 6 -20 9 -5 9 -7 -1 -12 -10 -5 -10 -9 -1 -20 9 -11 8 -15 -5 -20
-31 -12 -41 2 -41 52 0 43 -8 63 -26 64 -3 0 -5 -27 -3 -60 1 -53 -1 -60 -17
-60 -21 0 -26 16 -6 23 9 4 8 8 -3 17 -12 9 -12 13 -2 17 10 4 10 8 1 20 -10
11 -10 16 0 23 11 6 11 9 0 15 -9 6 -8 10 7 16 15 6 12 8 -13 8 -18 1 -33 6
-33 12 0 8 -15 10 -49 5 -35 -5 -51 -3 -54 6 -9 23 -26 -14 -22 -47 1 -16 -2
-36 -7 -42 -7 -9 -7 -13 0 -13 7 0 9 -16 5 -42 -3 -24 -5 -53 -5 -65 0 -14 -6
-23 -15 -23 -9 0 -13 6 -10 14 3 7 1 18 -5 24 -8 8 -6 13 6 18 13 5 15 9 5 15
-7 4 -14 28 -14 53 -2 36 1 46 14 46 13 1 13 2 -2 11 -18 10 -18 11 0 26 10 8
13 12 7 9 -7 -3 -14 1 -18 9 -3 8 0 16 7 16 7 1 -1 5 -18 9 -32 8 -159 10
-186 3z m-34 -333 c26 21 338 0 365 -25 9 -8 26 -15 37 -15 11 0 26 -7 33 -15
7 -8 21 -15 31 -15 10 0 26 -11 35 -25 12 -18 22 -24 35 -20 13 4 19 1 19 -9
0 -9 0 -18 0 -21 0 -3 12 -26 25 -51 33 -63 31 -95 -9 -168 -30 -54 -76 -110
-76 -93 0 3 -28 -9 -62 -27 -68 -34 -113 -49 -196 -66 -163 -31 -375 11 -490
98 -84 63 -122 120 -122 183 0 54 8 81 21 73 5 -3 9 1 9 9 0 8 7 20 15 27 8 7
15 24 15 39 0 20 2 23 10 11 8 -12 14 -10 36 18 14 17 34 32 44 32 9 0 23 7
30 15 8 9 21 13 36 9 17 -4 26 -1 30 10 4 9 18 16 34 16 16 0 32 5 35 10 4 7
13 6 26 -1 15 -7 24 -7 34 1z m-362 -440 c4 -36 14 -78 22 -95 20 -44 72 -90
135 -120 30 -14 63 -30 72 -36 10 -5 27 -9 38 -9 11 0 28 -4 38 -9 30 -16 136
-31 212 -31 67 0 103 7 167 31 24 9 53 3 53 -12 0 -5 -6 -9 -14 -9 -7 0 -27
-7 -42 -15 l-29 -15 25 -1 25 0 -23 -11 c-16 -8 -40 -8 -91 2 -97 18 -325 9
-350 -14 -16 -14 -20 -15 -30 -2 -11 13 -15 12 -30 -2 -10 -10 -13 -20 -7 -24
6 -4 5 -12 -3 -22 -10 -12 -10 -16 -2 -16 8 0 10 -8 6 -20 -4 -13 -2 -20 6
-20 9 0 10 -3 2 -11 -6 -6 -19 -9 -29 -7 -14 2 -18 14 -19 51 -1 26 2 47 8 47
5 0 4 6 -2 14 -10 12 -8 16 11 22 13 4 28 14 34 22 7 10 22 13 42 10 17 -2 29
-1 26 4 -3 4 -12 8 -20 8 -8 0 -41 11 -74 24 -33 14 -60 20 -60 15 0 -5 -7 -9
-15 -9 -11 0 -14 7 -9 25 7 26 -10 36 -19 11 -9 -22 -50 -8 -44 15 5 20 -17
27 -28 9 -8 -13 -45 -13 -45 0 0 14 58 42 73 35 7 -4 -2 7 -20 23 -28 27 -31
36 -34 100 -2 39 -1 74 3 77 4 4 4 14 1 22 -4 11 0 14 13 11 15 -3 21 -16 27
-68z m1413 -198 c-6 -10 30 -9 40 1 13 12 36 8 28 -5 -6 -10 -4 -10 7 -3 16
13 78 13 97 1 7 -4 18 -4 25 1 16 13 70 15 62 4 -3 -6 7 -6 27 0 43 12 51 11
42 -3 -5 -7 -3 -8 6 -3 7 5 27 9 43 11 20 1 25 -1 16 -7 -11 -7 -11 -9 2 -9 9
0 22 -7 29 -15 11 -13 15 -13 21 -3 7 10 9 10 9 1 0 -7 12 -13 26 -13 17 0 28
-6 31 -20 3 -11 9 -17 14 -14 5 3 22 -3 39 -12 21 -13 26 -20 17 -26 -7 -5 -2
-8 16 -8 20 0 27 -5 27 -20 0 -11 5 -20 10 -20 6 0 10 -7 10 -15 0 -8 9 -15
19 -15 13 0 19 -7 19 -22 1 -13 1 -42 2 -66 1 -46 -27 -103 -67 -135 -13 -10
-29 -24 -36 -31 -22 -23 -121 -72 -182 -92 -92 -29 -345 -27 -434 4 -71 24
-118 51 -168 95 -18 16 -33 26 -33 22 0 -12 -35 37 -49 70 -14 31 -21 115 -10
115 4 0 9 9 12 20 3 11 1 20 -4 20 -17 0 -9 15 14 25 16 8 21 17 19 38 -2 15
1 27 7 27 6 0 11 -4 11 -10 0 -5 5 -10 11 -10 5 0 7 5 3 12 -5 7 -2 9 9 5 9
-3 18 0 21 9 3 8 13 14 21 14 9 0 13 5 10 10 -3 6 -2 10 4 10 5 0 11 -6 14
-12 2 -7 7 2 11 20 7 31 26 45 26 20 0 -9 3 -9 9 1 5 8 16 11 24 8 12 -4 14
-2 10 10 -5 13 -1 15 21 9 18 -4 25 -3 21 4 -3 5 1 10 10 10 9 0 14 -4 11 -8z
m-2616 -222 c0 -5 9 -10 20 -10 11 0 20 6 20 13 0 7 3 8 8 2 9 -13 64 -16 56
-4 -3 5 2 9 10 9 9 0 16 -4 16 -10 0 -5 7 -10 15 -10 8 0 15 5 15 10 0 6 9 10
21 10 11 0 18 -4 15 -8 -2 -4 4 -8 15 -8 10 0 19 4 19 8 0 4 7 8 15 8 8 0 15
-4 15 -10 0 -5 9 -10 20 -10 11 0 20 5 20 10 0 6 5 10 11 10 6 0 9 -7 5 -15
-4 -10 1 -15 14 -15 11 0 20 -4 20 -10 0 -5 6 -7 14 -4 17 7 86 -22 86 -35 0
-6 14 -11 30 -11 18 0 33 -6 36 -15 4 -8 13 -15 20 -15 8 0 19 -11 24 -25 6
-15 17 -25 30 -25 11 0 20 -4 20 -10 0 -5 7 -10 16 -10 8 0 12 -5 9 -10 -4 -6
-11 -8 -16 -5 -5 3 -6 -1 -3 -9 3 -9 14 -16 23 -17 9 0 11 -3 5 -5 -6 -3 -9
-25 -6 -55 5 -64 -12 -100 -75 -160 -87 -85 -227 -129 -407 -129 -124 0 -182
10 -294 52 -132 50 -195 124 -196 230 -1 44 -5 58 -16 59 -10 0 -11 2 -2 6 6
2 30 22 52 43 39 37 50 60 30 60 -5 0 -10 5 -10 11 0 8 5 7 16 -2 13 -10 17
-10 24 0 4 8 12 11 18 7 5 -3 12 1 16 9 3 8 17 15 31 15 14 0 28 7 31 15 4 9
20 16 38 16 17 1 23 3 14 6 -10 2 -18 12 -18 21 0 10 3 13 8 6 10 -15 42 -25
42 -13 0 6 9 8 19 4 11 -3 22 -1 26 5 3 5 -1 10 -9 10 -9 0 -16 5 -16 10 0 6
9 10 20 10 11 0 20 -4 20 -10z m2320 -177 c0 -9 5 -45 11 -79 9 -51 19 -72 50
-107 41 -48 141 -105 229 -132 69 -21 365 -34 383 -16 6 6 21 11 34 11 13 0
23 4 23 8 0 4 20 14 45 21 25 7 45 18 45 23 0 5 6 8 13 5 7 -2 11 -15 9 -30
-2 -18 2 -29 12 -32 9 -3 24 -7 33 -11 10 -3 13 -8 8 -12 -6 -4 -11 -31 -12
-60 -1 -50 -7 -71 -17 -61 -2 2 -6 27 -8 54 -2 28 -12 62 -22 77 -18 27 -18
27 -39 8 -24 -23 -45 -27 -28 -6 19 23 -13 27 -48 5 -17 -10 -44 -19 -59 -19
-30 0 -54 -12 -53 -26 0 -5 -9 -9 -22 -9 -15 0 -23 -7 -25 -23 -4 -25 -42 -32
-42 -7 0 8 5 15 10 15 6 0 10 6 10 13 0 15 -31 16 -87 3 -25 -6 -34 -3 -42 11
-6 10 -11 16 -11 13 -8 -37 -7 -40 16 -40 15 0 24 -6 24 -15 0 -9 -9 -15 -25
-15 -14 0 -25 5 -25 10 0 6 -8 5 -20 -2 -14 -9 -16 -14 -7 -20 9 -5 9 -10 0
-19 -13 -13 -33 -4 -33 17 0 8 -4 14 -10 14 -5 0 -10 7 -10 15 0 8 8 15 18 15
14 0 15 2 2 10 -13 9 -13 11 0 20 22 15 -6 13 -30 -2 -24 -15 -37 -4 -20 17
11 13 8 15 -18 15 -17 0 -34 5 -37 10 -3 6 -12 10 -20 10 -21 0 -6 -38 18 -42
34 -5 33 -28 -1 -28 -17 0 -32 6 -35 13 -12 32 -18 -13 -20 -144 -2 -129 -4
-144 -20 -147 -16 -3 -18 7 -16 148 1 145 2 152 22 160 l22 9 -22 0 c-13 1
-23 6 -23 12 0 6 -7 4 -15 -5 -9 -8 -15 -19 -14 -23 1 -4 0 -12 -1 -18 -1 -5
-1 -63 0 -129 1 -95 -1 -117 -12 -114 -14 5 -18 40 -20 191 -1 85 1 100 18
113 10 9 14 13 9 10 -6 -2 -17 -1 -25 4 -7 5 -20 4 -30 -2 -20 -13 -58 -2 -44
11 5 5 18 11 29 14 18 4 18 5 -2 6 -24 1 -33 31 -10 31 9 0 9 2 -1 8 -7 5 -10
16 -6 26 4 11 2 16 -7 14 -8 -2 -14 10 -16 37 -2 21 -7 42 -12 45 -19 12 -20
67 -1 95 10 16 17 32 14 37 -3 4 0 8 5 8 6 0 11 -8 11 -17z m-2649 -288 c6
-43 15 -83 22 -89 11 -12 38 -47 55 -71 26 -38 134 -85 257 -110 135 -28 336
-20 407 16 21 11 43 19 49 19 7 0 27 11 45 25 18 14 39 25 46 25 23 -1 48 -26
48 -49 0 -16 -6 -21 -27 -22 -23 -1 -24 -2 -6 -6 21 -4 22 -9 18 -71 -2 -37 1
-73 7 -79 6 -7 7 -21 3 -30 -5 -10 -7 -26 -6 -35 2 -12 -5 -18 -18 -18 -17 0
-21 6 -21 30 0 17 5 30 11 30 8 0 8 5 -1 15 -8 9 -10 29 -7 51 8 47 -7 84 -33
84 -22 0 -27 15 -7 23 6 3 0 6 -15 6 -16 1 -28 -3 -28 -7 0 -16 -50 -32 -97
-32 -34 0 -53 -6 -70 -22 -13 -12 -23 -16 -23 -10 0 7 -13 12 -30 12 -43 0
-37 -17 8 -22 26 -4 45 1 64 13 34 24 158 28 139 5 -8 -10 -27 -13 -59 -11
-36 2 -43 0 -31 -9 21 -15 24 -86 4 -86 -9 0 -15 10 -16 28 -1 32 -17 78 -18
50 -1 -26 -13 -28 -82 -12 -35 8 -80 12 -99 9 -19 -3 -61 -6 -93 -7 -32 -1
-61 -6 -64 -11 -3 -4 -5 -69 -5 -143 0 -122 -1 -134 -17 -134 -17 0 -18 12
-18 134 0 73 -4 139 -8 145 -13 21 -36 -8 -28 -36 4 -19 2 -24 -8 -21 -20 7
-22 78 -2 85 14 6 14 7 -3 13 -10 4 -30 3 -43 -2 -30 -11 -55 -3 -48 17 4 8
-2 16 -14 20 -11 4 -18 13 -15 20 7 19 -30 50 -40 34 -5 -9 -10 -8 -18 3 -15
19 -54 29 -63 15 -10 -16 -10 -407 0 -407 5 0 5 -4 2 -10 -3 -5 -15 -10 -26
-10 -10 0 -19 5 -19 10 0 6 5 10 11 10 8 0 8 4 0 14 -9 10 -9 16 -1 21 8 5 8
11 1 19 -7 9 -7 16 1 24 8 8 8 12 1 12 -9 0 -11 52 -3 70 6 12 5 36 -2 45 -3
6 -6 57 -6 115 1 82 5 107 17 116 12 9 13 15 4 26 -7 8 -10 23 -7 34 8 35 -9
47 -42 29 l-29 -15 28 0 c17 0 27 -5 27 -15 0 -8 -6 -15 -12 -15 -10 0 -13
-34 -13 -137 0 -119 -2 -138 -16 -141 -15 -3 -17 10 -18 98 -1 78 2 99 12 94
9 -6 9 -4 1 7 -6 8 -12 51 -13 97 -2 68 1 82 13 82 9 0 16 4 16 10 0 5 -7 7
-15 4 -10 -4 -15 0 -15 11 0 10 5 15 13 12 13 -5 60 27 51 35 -2 3 0 18 6 33
6 15 13 25 16 22 3 -3 10 -40 15 -82z m4318 40 c53 -2 106 -6 119 -10 14 -5
22 -3 22 4 0 20 17 12 25 -11 4 -14 8 -18 12 -10 2 6 9 12 14 12 6 0 7 -5 3
-12 -5 -7 -2 -9 9 -5 10 4 21 -3 31 -19 9 -13 22 -24 29 -24 8 0 7 4 -3 10
-11 7 -11 10 -2 10 7 0 23 -11 36 -25 13 -14 31 -25 40 -25 9 0 21 -10 26 -22
13 -32 35 -58 49 -58 7 0 11 -26 11 -79 0 -76 -1 -80 -40 -128 -66 -84 -139
-127 -230 -140 -19 -2 -50 -9 -69 -15 -50 -16 -224 -10 -327 10 -145 30 -249
100 -297 200 -19 42 -19 46 -4 72 10 15 17 37 17 48 0 12 5 24 10 27 6 3 10
14 10 24 0 17 71 74 108 85 11 4 23 13 26 21 3 8 14 15 25 15 11 0 23 5 26 10
3 6 22 10 41 10 20 0 34 5 34 13 0 8 19 12 61 12 33 -1 63 3 65 7 3 5 10 5 16
2 5 -4 54 -8 107 -9z m-4908 -105 c-7 -30 -6 -330 2 -330 4 0 7 -7 7 -15 0 -8
5 -15 10 -15 6 0 10 7 10 15 0 17 26 20 36 4 3 -6 0 -15 -7 -20 -11 -6 -10 -9
4 -15 9 -3 14 -10 11 -15 -3 -5 2 -9 10 -9 12 0 16 10 17 38 0 20 1 115 1 210
1 145 3 172 15 170 12 -3 14 -37 13 -205 -1 -234 2 -253 37 -253 14 0 32 -8
39 -17 12 -17 14 -17 28 2 8 11 16 18 19 15 7 -8 17 -70 11 -70 -8 0 -48 22
-54 30 -3 3 -31 16 -62 29 -53 21 -263 146 -299 178 -13 11 -16 32 -16 98 1
75 3 85 19 85 16 0 18 -10 18 -88 0 -79 9 -112 30 -112 3 0 5 27 5 60 0 79 19
78 23 -2 3 -68 20 -104 33 -71 4 10 5 33 2 51 -3 19 0 38 7 47 7 8 9 15 4 15
-5 0 -9 23 -10 50 0 28 4 50 10 50 6 0 5 5 -2 12 -8 8 -9 15 -1 25 7 7 7 13 2
13 -5 0 -10 14 -10 30 0 26 4 30 21 28 13 -2 20 -9 17 -18z m326 -205 c0 -209
-1 -225 -18 -225 -16 0 -17 13 -17 170 1 116 5 170 12 170 7 0 6 3 -2 8 -7 5
-10 22 -8 40 2 18 -1 35 -5 38 -14 8 0 24 20 24 16 0 17 -17 18 -225z m5240
-75 c0 -261 -2 -300 -15 -298 -17 3 -26 58 -10 58 6 0 5 7 -3 17 -9 10 -10 18
-3 20 6 2 9 20 7 41 -1 20 -4 133 -6 250 -3 192 -2 212 13 212 15 0 16 -28 17
-300z m78 291 c3 -5 2 -12 -2 -14 -5 -3 -8 -100 -7 -216 1 -196 0 -211 -17
-211 -16 0 -18 15 -19 190 0 148 2 190 12 190 10 0 10 2 -1 9 -7 5 -11 13 -7
19 3 6 2 13 -4 17 -15 9 -2 25 20 25 10 0 21 -4 25 -9z m-2815 -36 c0 -8 -4
-15 -8 -15 -4 0 -7 -121 -7 -270 1 -242 0 -270 -15 -270 -13 0 -16 16 -15 118
0 64 4 123 8 130 5 6 4 12 -1 12 -9 0 -14 288 -5 303 8 13 43 7 43 -8z m-570
-93 c0 -8 93 -28 160 -36 54 -6 100 -19 100 -28 0 -5 14 -14 30 -19 17 -6 30
-15 30 -19 0 -5 11 -21 25 -36 14 -15 25 -23 25 -18 0 5 9 -6 20 -23 22 -36
29 -115 16 -177 -14 -69 -123 -149 -266 -194 -66 -21 -219 -32 -294 -21 -80
12 -206 47 -206 57 0 4 -23 18 -51 32 -70 34 -117 88 -129 148 -12 66 -2 131
27 162 12 13 23 35 23 47 0 25 10 29 27 12 8 -8 17 -3 33 19 14 19 28 28 40
25 11 -3 22 3 29 15 7 14 17 18 36 15 14 -3 31 0 39 6 7 6 21 9 30 5 9 -3 18
0 21 8 4 10 28 13 105 11 56 -1 102 2 105 7 8 12 25 13 25 2z m2104 -184 c3
-13 7 -47 10 -77 4 -49 9 -58 57 -107 29 -30 58 -54 63 -54 5 0 19 -8 30 -18
69 -60 364 -92 531 -57 119 26 142 28 149 16 4 -6 -3 -15 -18 -21 -27 -10 -33
-24 -16 -35 5 -3 9 -21 8 -40 -1 -26 -6 -35 -18 -35 -12 0 -17 9 -17 30 0 17
-3 33 -6 36 -9 10 -117 11 -117 1 0 -4 7 -10 15 -13 22 -9 20 -54 -3 -54 -10
0 -24 6 -30 12 -10 10 -15 10 -22 -2 -7 -12 -12 -12 -29 4 -16 14 -23 15 -41
6 -12 -6 -24 -9 -28 -6 -3 3 1 6 8 6 7 0 11 2 9 5 -3 2 -19 1 -36 -4 -20 -6
-35 -5 -42 2 -7 7 -15 6 -25 -2 -8 -7 -28 -11 -43 -10 -15 2 -34 0 -41 -5 -7
-4 -19 -3 -27 4 -9 7 -15 8 -20 0 -9 -14 -45 -13 -45 3 0 6 4 27 9 45 8 28 7
32 -9 32 -13 0 -17 -5 -14 -15 4 -9 0 -15 -10 -15 -19 0 -22 36 -3 43 6 3 1 6
-12 6 -24 1 -25 -6 -6 -51 12 -30 -19 -21 -32 9 -10 21 -10 28 0 35 6 4 8 8 2
9 -5 1 -15 2 -21 3 -5 0 -21 13 -35 28 -18 19 -29 24 -40 17 -12 -7 -11 -9 4
-9 9 0 17 -4 17 -10 0 -11 -43 -14 -53 -3 -4 3 -3 11 2 17 6 7 4 18 -4 29 -13
18 -14 17 -28 -10 -13 -24 -16 -26 -22 -10 -5 11 -1 25 10 37 13 15 14 20 5
20 -21 0 -59 -40 -53 -56 3 -9 -2 -14 -15 -14 -24 0 -38 16 -20 23 10 4 9 8
-2 17 -12 9 -13 12 -1 17 10 4 10 7 1 13 -9 6 -8 14 5 34 14 21 20 24 32 15
11 -10 11 -15 -4 -33 -18 -21 -18 -21 4 -3 17 15 20 24 13 50 -4 18 -11 44
-14 60 -4 15 -13 27 -21 27 -8 0 -15 7 -15 16 0 11 5 14 16 10 11 -4 19 3 27
24 14 36 25 38 31 8z m-2651 -275 c5 -55 12 -76 47 -131 15 -23 90 -76 140
-98 90 -40 140 -54 193 -54 25 0 49 -4 52 -10 3 -5 32 -10 64 -10 32 0 63 -6
70 -12 11 -11 13 -9 9 8 -5 20 0 22 51 27 115 12 136 16 139 26 4 13 32 15 32
3 0 -5 -11 -19 -24 -31 -14 -13 -22 -29 -19 -37 3 -8 -1 -14 -11 -14 -9 0 -16
-8 -16 -20 0 -11 -5 -20 -12 -20 -9 0 -9 -3 0 -12 17 -17 15 -28 -5 -28 -14 0
-15 -2 -4 -9 17 -11 5 -33 -17 -29 -18 3 -24 47 -10 66 7 8 7 12 0 12 -5 0
-12 9 -15 20 -3 11 -11 20 -19 19 -10 0 -10 -2 0 -6 17 -7 15 -33 -3 -33 -9 0
-18 6 -21 14 -5 12 -12 13 -42 2 -53 -18 -106 -15 -110 6 -2 12 5 18 30 21 18
2 -6 5 -54 5 -72 2 -88 -1 -88 -13 0 -8 -4 -15 -10 -15 -5 0 -10 4 -10 9 0 6
5 13 10 16 22 13 8 22 -42 27 -29 3 -73 2 -98 -2 -25 -4 -37 -8 -27 -9 9 0 17
-5 17 -11 0 -5 -8 -10 -17 -10 -17 -1 -17 -1 0 -11 9 -5 17 -14 17 -19 0 -6
-8 -10 -17 -10 -17 -1 -17 -1 -1 -10 18 -11 19 -61 0 -68 -16 -5 -26 19 -11
29 11 7 11 9 -3 9 -13 0 -16 8 -13 37 4 56 -7 77 -40 78 -16 0 -30 6 -33 14
-3 10 2 12 21 8 15 -4 29 -2 36 7 9 10 1 12 -42 11 -65 -3 -66 -3 -44 -16 19
-11 14 -29 -7 -29 -18 0 -25 41 -16 90 8 46 -8 71 -30 45 -7 -8 -22 -15 -34
-14 -11 0 -15 3 -8 6 14 6 16 43 2 43 -5 0 -10 5 -10 10 0 6 10 10 23 10 20 1
21 2 5 14 -10 7 -18 22 -19 32 0 18 -1 18 -8 -1 -5 -11 -6 -24 -3 -29 3 -5 -3
-15 -13 -23 -11 -7 -13 -13 -6 -13 7 0 9 -4 6 -10 -3 -5 -15 -10 -25 -10 -16
0 -19 7 -18 53 1 29 -2 58 -5 64 -11 17 10 25 43 18 27 -6 30 -4 30 18 0 77
35 76 43 0z m4244 50 c-3 -5 23 -8 58 -9 35 0 62 3 59 8 -3 4 0 8 5 8 6 0 11
-4 11 -9 0 -4 20 -14 45 -21 25 -7 48 -17 51 -21 3 -5 21 -9 40 -9 20 0 37 -6
40 -14 3 -8 13 -12 24 -9 12 3 23 -3 31 -15 7 -11 19 -18 27 -15 8 3 18 0 23
-8 8 -12 10 -12 18 1 6 8 14 11 18 6 4 -5 2 -11 -4 -13 -21 -7 -15 -23 8 -23
16 0 19 -4 14 -19 -7 -22 21 -56 52 -64 13 -3 12 -5 -7 -6 -23 -2 -24 -3 -7
-15 17 -13 14 -46 -4 -46 -14 0 -11 -17 7 -34 14 -14 12 -18 -13 -43 -15 -16
-40 -44 -54 -64 -29 -38 -159 -109 -201 -109 -13 0 -28 -4 -34 -10 -5 -5 -45
-15 -89 -21 -127 -19 -328 15 -446 76 -52 27 -127 104 -134 137 -12 52 -13 82
-4 105 7 18 5 23 -9 24 -15 1 -15 2 1 6 10 3 20 18 24 34 4 19 12 29 24 29 23
0 40 30 32 58 -4 16 -1 22 10 22 9 0 17 -7 19 -16 3 -14 7 -13 30 5 15 12 30
21 35 20 4 -1 15 -1 23 0 13 1 13 2 0 11 -11 7 -3 10 28 10 28 0 53 7 72 21
22 17 44 22 93 23 36 0 63 4 60 9 -2 4 3 7 12 7 9 0 14 -3 12 -7z m-5368 -72
c10 -6 10 -10 1 -16 -9 -6 -9 -9 1 -15 10 -7 10 -11 0 -24 -9 -11 -10 -16 -2
-16 6 0 11 -7 11 -15 0 -8 5 -15 11 -15 6 0 9 20 8 52 -3 53 6 66 37 54 9 -3
12 -11 8 -18 -11 -18 -11 -58 0 -58 6 0 6 -4 -1 -11 -17 -17 7 -59 34 -59 12
0 27 -9 33 -20 11 -21 40 -28 40 -10 0 6 -8 10 -17 10 -13 0 -14 3 -6 11 9 9
18 8 38 -5 21 -14 24 -20 15 -36 -9 -17 -7 -20 12 -20 15 0 19 3 11 8 -16 10
-6 45 18 60 15 10 19 10 19 -2 0 -8 -6 -17 -12 -19 -10 -4 -10 -8 1 -15 12 -9
12 -13 2 -26 -10 -12 -11 -16 -1 -16 7 0 10 -7 6 -15 -4 -11 1 -15 17 -15 12
0 17 4 12 8 -14 9 -16 62 -3 62 6 0 5 6 -2 15 -10 12 -9 16 5 21 23 9 45 -14
25 -26 -13 -8 -13 -10 1 -10 13 0 16 -10 14 -55 -1 -54 -1 -55 27 -55 16 0 31
-7 34 -15 7 -18 25 -20 22 -2 -2 7 7 12 22 12 22 0 25 -4 25 -32 -1 -18 4 -33
10 -33 6 0 11 15 10 33 0 25 4 33 21 35 17 2 21 -2 21 -28 0 -16 -5 -30 -10
-30 -5 0 -4 -7 3 -15 6 -8 10 -19 8 -25 -4 -13 -196 81 -303 148 -239 150
-275 176 -263 184 7 4 9 8 4 8 -5 0 -3 6 3 14 9 11 9 15 0 18 -7 2 -9 10 -5
16 8 14 16 15 35 3z m2164 -148 c11 -6 -2 -23 -18 -23 -7 0 -21 7 -29 16 -15
14 -16 13 -16 -15 0 -25 -4 -31 -22 -32 -21 -1 -21 -1 4 -10 21 -8 26 -16 24
-37 -3 -28 -17 -37 -42 -28 -13 5 -14 9 -5 20 8 10 8 16 -2 24 -19 16 -41 -6
-26 -25 15 -17 -12 -28 -38 -15 -20 10 -52 10 -70 -1 -6 -4 -14 -3 -18 3 -3 5
1 10 9 10 10 0 16 9 16 26 0 27 26 61 38 50 3 -4 0 -11 -7 -16 -12 -7 -12 -11
2 -24 8 -9 19 -16 23 -16 14 0 54 56 54 75 -1 19 -2 19 -20 -3 -18 -22 -40
-23 -40 -2 0 10 48 24 73 21 9 -1 17 3 17 9 0 11 72 6 93 -7z m687 -28 c21
-19 50 -19 50 -1 0 15 37 32 47 22 4 -3 1 -6 -5 -6 -23 0 -12 -16 26 -35 20
-11 39 -22 42 -26 10 -11 40 -18 40 -9 0 6 7 10 16 10 9 0 14 -6 11 -12 -4
-13 29 -48 45 -48 4 0 8 -7 8 -15 0 -8 6 -12 13 -10 16 6 60 -31 53 -44 -4 -5
-2 -12 4 -16 5 -3 7 -17 4 -31 -4 -14 0 -34 9 -48 17 -26 12 -66 -10 -79 -7
-4 -13 -13 -13 -20 0 -41 -154 -146 -250 -170 -54 -13 -140 -21 -220 -19 -154
2 -175 5 -253 34 -72 26 -91 39 -158 105 l-77 75 2 62 c0 35 6 65 13 71 7 6
14 27 15 47 2 30 7 37 19 33 9 -3 22 1 29 10 7 8 18 15 24 15 18 0 33 14 40
38 6 17 3 22 -10 22 -14 0 -15 3 -6 12 10 10 15 10 20 1 4 -7 21 -10 37 -8 17
2 36 4 43 4 6 1 12 7 12 15 0 15 61 17 73 1 4 -6 10 -1 13 12 5 19 11 22 33
17 17 -4 22 -3 13 4 -8 5 32 8 109 6 91 -3 126 -8 139 -19z m2056 -225 c3 -42
12 -74 26 -94 27 -40 109 -119 115 -112 3 3 19 -2 36 -11 102 -52 325 -81 449
-57 40 8 74 14 76 14 1 0 2 -7 2 -15 0 -8 -4 -15 -8 -15 -11 0 -52 -35 -52
-44 0 -3 3 -5 8 -4 4 2 7 -1 7 -5 0 -5 -82 -9 -183 -10 -162 -2 -182 0 -182
14 0 9 10 20 23 24 14 4 17 8 9 12 -17 7 -42 -15 -42 -38 0 -11 -7 -19 -17
-19 -11 0 -14 -3 -7 -8 17 -11 16 -72 -1 -72 -8 0 -13 11 -13 28 1 15 -2 37
-6 50 -5 15 -2 27 8 38 19 18 14 29 -13 37 -14 3 -18 1 -14 -9 3 -8 -4 -18
-18 -23 -19 -7 -27 -5 -41 12 -14 18 -26 22 -73 20 -63 -2 -73 17 -14 28 19 4
28 7 21 8 -18 1 -46 30 -38 39 4 3 11 0 16 -8 5 -8 12 -11 16 -7 14 14 -15 32
-34 21 -20 -12 -92 -6 -92 8 0 5 13 14 30 19 16 6 27 15 24 20 -3 5 -10 7 -15
3 -15 -9 -39 16 -39 41 0 35 -10 55 -29 55 -13 0 -13 -2 -2 -9 8 -5 11 -16 8
-25 -3 -8 -2 -18 3 -21 18 -11 10 -25 -15 -25 -27 0 -32 9 -13 28 9 9 9 12 1
12 -7 0 -11 14 -11 30 1 22 6 30 20 30 10 0 19 6 19 13 1 6 2 27 4 44 3 38 24
68 37 55 5 -5 12 -38 14 -72z m-2662 -176 c3 -9 6 -34 6 -57 0 -54 33 -120 78
-157 58 -48 180 -103 257 -115 6 -1 79 -3 163 -3 l152 -2 -4 -27 c-4 -20 -3
-24 7 -14 6 6 12 19 12 28 0 9 10 18 25 20 13 2 29 8 34 13 6 6 26 10 45 9 20
0 30 -3 24 -6 -7 -2 -13 -9 -13 -14 0 -6 4 -7 10 -4 16 10 52 -15 46 -31 -3
-8 -6 -50 -7 -94 -1 -59 -5 -80 -16 -84 -12 -5 -14 8 -11 79 3 83 -1 95 -32
95 -4 0 -7 -45 -6 -101 1 -103 -3 -127 -23 -115 -7 5 -10 36 -8 87 2 56 -1 84
-10 91 -7 6 -13 6 -13 2 0 -5 -46 -9 -102 -9 -117 0 -105 16 -110 -143 -1 -52
-6 -96 -10 -98 -4 -3 -2 -13 4 -23 12 -19 5 -51 -11 -51 -15 0 -22 31 -11 45
6 7 7 16 2 19 -5 3 -7 50 -5 105 1 55 -2 112 -7 126 -8 22 -15 25 -60 25 -44
0 -50 3 -50 20 0 24 -27 37 -43 21 -8 -8 -7 -11 6 -11 21 0 22 -26 1 -34 -32
-12 -43 -6 -42 25 1 29 -17 53 -33 43 -7 -4 -22 1 -91 30 -21 9 -38 12 -38 7
0 -5 16 -15 35 -21 41 -13 53 -29 34 -41 -24 -15 -39 -10 -49 16 -6 15 -17 25
-30 25 -16 0 -19 5 -16 25 3 18 -1 28 -15 35 -13 7 -19 7 -19 0 0 -5 5 -10 10
-10 6 0 10 -6 10 -13 0 -13 -43 -17 -55 -5 -3 3 -1 15 6 26 11 17 9 26 -14 61
-18 27 -35 41 -50 42 -12 0 -16 3 -9 6 15 6 16 35 2 49 -7 7 -7 21 -1 40 5 16
12 41 15 57 7 30 21 35 30 11z m4406 -19 c8 -5 34 -9 56 -7 29 1 50 -4 67 -18
14 -11 34 -20 45 -20 12 0 24 -5 28 -11 3 -6 17 -8 30 -5 24 6 35 -9 13 -16
-7 -2 2 -19 20 -38 17 -19 31 -38 31 -43 0 -4 5 -5 10 -2 18 11 41 -22 34 -50
-5 -20 -3 -24 10 -19 9 3 16 1 16 -5 0 -6 -4 -11 -10 -11 -5 0 -10 -15 -10
-32 0 -38 -29 -104 -57 -134 -36 -37 -117 -82 -198 -110 -73 -26 -92 -28 -221
-28 -163 0 -251 16 -313 56 -25 15 -49 28 -54 28 -15 0 -87 72 -104 105 -10
18 -17 59 -18 103 -2 63 1 75 21 98 24 25 34 48 12 26 -16 -16 -33 -15 -19 1
6 8 7 17 3 22 -4 4 5 5 20 3 32 -6 51 11 42 36 -5 13 -1 15 25 10 24 -5 32 -3
38 12 15 40 46 56 56 30 5 -11 14 -11 59 4 32 10 55 13 59 8 3 -5 9 -3 12 6 5
13 27 15 144 13 76 -1 145 -6 153 -12z m-5392 -207 l11 -23 7 23 c4 14 14 22
28 21 20 0 20 -1 1 -9 -11 -5 -14 -9 -6 -9 11 -1 11 -4 1 -17 -8 -8 -9 -14 -4
-13 16 4 44 -13 38 -22 -7 -12 7 -11 26 1 13 8 12 10 -2 10 -13 0 -18 8 -18
30 0 17 3 30 8 30 16 0 30 -39 25 -73 -5 -38 -2 -41 43 -38 14 2 23 -5 27 -19
4 -14 12 -21 24 -18 16 3 18 13 16 76 -2 61 0 72 13 72 11 0 15 -6 11 -20 -3
-11 0 -20 6 -20 8 0 9 -3 1 -8 -11 -8 -13 -112 -2 -112 3 0 9 -8 11 -17 4 -14
5 -12 6 5 1 15 7 22 21 22 12 0 20 -6 19 -12 -5 -37 3 -48 41 -58 23 -6 40
-17 40 -25 0 -8 3 -16 8 -19 4 -2 6 14 4 36 -3 27 0 44 9 50 12 8 12 10 0 15
-11 5 -11 7 0 14 10 6 11 9 2 9 -7 0 -13 7 -13 15 0 8 9 15 20 15 19 0 20 -6
19 -93 l-2 -94 -51 25 c-80 38 -147 83 -139 95 3 6 1 7 -6 3 -17 -11 -251 125
-251 146 0 5 -3 7 -8 4 -4 -2 -16 2 -27 10 -18 13 -18 14 7 14 16 0 29 -8 36
-22z m2677 -9 c10 0 24 -4 30 -8 5 -5 31 -12 58 -15 40 -6 47 -5 47 10 0 18 7
17 10 -1 3 -19 33 -45 52 -45 10 0 30 -7 43 -16 23 -15 25 -15 25 0 0 9 5 16
10 16 6 0 10 -8 10 -17 0 -23 29 -53 52 -53 10 0 18 -7 18 -17 0 -10 7 -27 15
-37 8 -11 15 -27 15 -37 0 -9 7 -22 15 -29 8 -7 15 -27 15 -45 0 -18 -7 -38
-15 -45 -8 -7 -15 -19 -15 -28 0 -30 -149 -157 -177 -150 -4 0 -21 -5 -38 -12
-16 -7 -48 -17 -70 -23 -57 -14 -293 -20 -335 -8 -165 47 -186 56 -245 106
-74 63 -90 94 -89 165 2 54 12 87 36 123 11 14 10 19 -2 27 -13 8 -12 13 8 32
21 21 24 22 36 6 7 -10 17 -13 25 -8 11 6 11 8 0 12 -12 4 -12 7 0 21 17 21
35 22 27 2 -6 -18 -2 -19 26 -4 17 9 18 13 7 20 -8 5 1 6 25 2 21 -3 41 -2 45
4 8 12 138 46 173 45 15 -1 30 3 32 7 3 5 29 7 58 4 29 -2 62 -4 73 -4z m3210
-284 c0 -113 -4 -205 -9 -205 -5 0 -3 -6 3 -14 15 -17 -2 -31 -26 -22 -11 5
-13 10 -4 20 6 7 8 16 4 19 -10 11 -13 57 -3 57 5 0 4 15 0 33 -5 17 -8 96 -7
175 1 136 2 142 22 142 19 0 20 -5 20 -205z m-1102 -30 c23 -43 56 -77 102
-106 56 -34 112 -58 119 -51 3 3 6 -1 6 -8 0 -7 2 -11 6 -8 3 3 26 -1 52 -10
63 -20 474 -26 447 -5 -16 11 -15 13 9 19 14 3 33 3 42 0 14 -5 15 -4 4 9 -10
12 -10 15 3 15 17 0 47 -26 47 -41 0 -5 -8 -9 -17 -9 -15 0 -15 -2 -4 -9 20
-13 24 -121 4 -121 -20 0 -28 29 -14 51 7 12 7 19 1 19 -5 0 -10 7 -10 15 0
23 -26 29 -60 15 -29 -12 -36 -30 -32 -83 2 -13 -4 -17 -15 -15 -10 2 -18 10
-18 18 -1 26 -15 40 -41 40 -13 0 -24 4 -24 10 0 5 16 9 35 8 19 -1 38 2 42 5
3 4 -10 7 -30 7 -20 0 -39 5 -43 11 -10 18 -64 2 -91 -27 -18 -20 -21 -29 -13
-40 14 -16 5 -34 -17 -34 -11 0 -14 6 -9 24 7 30 -16 53 -33 32 -6 -7 -9 -20
-5 -29 7 -19 -14 -33 -29 -18 -9 9 -9 14 -1 19 14 9 24 62 12 62 -5 0 -11 -6
-14 -14 -6 -17 -92 -20 -111 -5 -7 7 -13 6 -18 -1 -3 -5 -1 -10 4 -10 6 0 11
-6 11 -14 0 -8 5 -16 12 -18 15 -5 1 -28 -18 -28 -10 0 -13 6 -9 19 8 25 -18
46 -34 27 -8 -10 -9 -16 -1 -21 18 -11 11 -26 -12 -23 -13 2 -22 11 -23 23 -1
11 -5 35 -9 53 -7 28 -5 32 13 32 11 0 23 5 26 10 16 26 -94 -5 -123 -34 -14
-14 -15 -18 -3 -26 12 -7 12 -11 2 -24 -8 -10 -9 -16 -3 -16 6 0 9 -12 8 -27
-2 -20 -9 -28 -22 -28 -16 0 -19 8 -19 60 -1 56 1 62 33 92 31 28 33 33 17 39
-11 5 -21 1 -27 -9 -5 -10 -17 -17 -26 -17 -10 0 -23 -5 -29 -11 -7 -7 -19 -9
-28 -5 -13 5 -14 10 -5 26 9 16 8 25 -1 36 -10 13 -10 17 2 25 10 6 10 9 2 9
-7 0 -13 7 -13 16 0 8 -5 12 -11 9 -6 -4 -9 -1 -7 7 2 7 -7 26 -19 42 -26 33
-59 32 -56 -2 2 -13 -3 -22 -11 -22 -11 0 -14 22 -15 95 -1 59 2 95 9 95 5 0
10 -7 10 -15 0 -8 6 -24 13 -35 10 -17 9 -22 -1 -29 -10 -6 -10 -10 1 -20 12
-9 15 -3 19 43 3 30 11 63 19 72 12 15 15 10 20 -47 3 -35 13 -77 22 -94z
m973 128 c7 -10 14 -26 14 -37 0 -14 5 -17 24 -12 23 6 23 4 23 -69 1 -70 -1
-75 -21 -75 -36 0 -44 -12 -41 -62 2 -29 -1 -48 -7 -48 -6 0 -6 -6 2 -15 10
-12 9 -16 -4 -21 -9 -4 -20 -3 -23 0 -12 11 -14 54 -4 61 17 10 0 36 -19 30
-13 -4 -19 1 -23 22 -6 33 0 43 14 23 8 -12 10 -10 6 8 -6 25 -3 26 24 12 16
-9 19 -7 17 14 -1 15 -7 22 -15 19 -8 -3 -13 2 -13 12 0 11 5 15 15 11 13 -5
15 5 10 69 -6 77 -2 88 21 58z m-3652 -229 c3 -9 6 -28 6 -44 0 -63 14 -94 66
-146 45 -46 97 -82 129 -91 213 -58 174 -55 490 -41 28 1 59 -2 69 -7 16 -7
18 -5 13 8 -7 20 84 80 108 71 28 -11 33 -84 5 -84 -5 0 -10 9 -10 20 0 11 5
20 12 20 24 0 -3 13 -29 14 -27 1 -28 0 -25 -46 3 -39 1 -48 -12 -48 -9 0 -16
5 -16 10 0 6 -11 10 -25 10 -27 0 -33 -18 -13 -38 9 -9 6 -12 -15 -12 -20 0
-27 5 -27 20 0 11 5 20 12 20 6 0 3 6 -7 14 -11 8 -24 12 -28 9 -5 -3 -3 -9 4
-13 10 -7 10 -11 0 -24 -14 -17 -45 -16 -63 2 -15 15 -28 15 -28 1 0 -6 -14
-24 -30 -41 -22 -22 -28 -34 -20 -43 12 -15 3 -25 -22 -25 -14 0 -18 5 -14 18
3 9 1 24 -4 32 -15 23 -27 -3 -23 -51 3 -37 1 -40 -19 -37 -27 4 -36 28 -11
29 17 1 17 2 0 6 -12 3 -15 8 -8 16 6 8 5 18 -4 30 -10 15 -14 15 -24 3 -8
-10 -9 -16 -1 -21 16 -10 12 -25 -7 -25 -15 0 -14 -2 3 -16 14 -11 16 -17 6
-21 -10 -4 -10 -8 -1 -19 9 -11 7 -14 -14 -14 -24 0 -25 2 -23 53 3 69 -2 86
-30 93 -13 3 -28 12 -35 20 -9 12 -6 14 20 14 19 0 34 -6 37 -15 7 -17 34 -21
34 -5 0 6 18 10 39 10 22 0 43 -4 46 -10 10 -16 55 -12 55 4 0 8 6 17 13 19 6
3 -44 5 -113 5 -76 -1 -141 4 -164 12 -42 13 -59 8 -27 -10 28 -14 27 -32 -1
-28 -13 2 -28 -3 -34 -11 -12 -15 -44 -9 -44 9 0 6 9 18 20 27 22 19 11 43
-21 43 -11 0 -19 5 -19 10 0 6 -8 10 -18 10 -10 0 -23 5 -30 12 -9 9 -12 9
-12 -1 0 -15 -24 -41 -39 -41 -5 0 -11 10 -13 23 -2 18 -8 21 -30 19 -20 -3
-28 1 -28 12 0 11 9 16 30 16 17 0 30 5 30 12 0 6 -3 8 -7 5 -3 -4 -14 0 -23
8 -15 13 -19 13 -38 -5 -23 -22 -47 -26 -57 -9 -4 6 2 13 14 16 12 3 21 13 20
22 0 10 -2 11 -6 4 -7 -18 -23 -16 -23 2 0 8 9 20 20 27 11 7 20 17 20 22 0 6
-5 5 -12 -2 -22 -22 -28 -12 -28 48 0 38 4 60 11 60 8 0 8 4 0 14 -10 12 -9
19 6 34 22 25 29 26 37 6z m1458 -235 c25 -14 88 -19 88 -8 0 9 107 5 117 -4
3 -4 11 -3 17 2 11 10 131 -12 171 -31 12 -5 35 -10 53 -10 20 -1 32 -6 32
-15 0 -7 8 -14 18 -14 9 -1 24 -2 32 -3 10 -1 14 -9 12 -23 -2 -17 2 -23 16
-23 11 0 22 -7 26 -15 3 -8 13 -15 23 -15 15 0 16 -2 3 -10 -11 -7 -11 -10 -2
-10 7 0 10 -4 7 -10 -3 -5 1 -10 9 -10 13 0 16 -12 16 -56 0 -89 -17 -130 -74
-180 -27 -24 -88 -62 -135 -85 -84 -41 -86 -41 -220 -46 -173 -7 -265 10 -376
67 -96 50 -110 62 -141 122 -30 60 -35 178 -7 178 9 0 14 3 11 6 -3 3 10 21
30 40 25 24 30 34 19 34 -19 0 -20 2 -11 24 3 9 13 16 21 16 8 0 11 -4 8 -10
-3 -5 0 -7 8 -4 8 3 17 15 20 26 5 17 11 19 33 14 24 -6 26 -5 15 8 -12 14 -9
16 23 16 22 0 36 -5 36 -12 0 -9 3 -10 8 -2 4 6 24 14 45 18 20 4 37 11 37 16
0 5 -17 11 -37 13 -38 4 -38 4 -5 5 18 1 43 -3 54 -9z m-328 -405 c3 -9 6 -35
6 -59 0 -61 16 -92 80 -155 57 -57 104 -85 122 -74 6 4 8 2 5 -3 -4 -6 0 -14
9 -17 8 -3 12 -2 9 4 -3 6 1 10 9 10 9 0 16 -4 16 -10 0 -5 7 -7 15 -4 8 4 15
2 15 -2 0 -10 6 -10 188 -20 74 -4 122 -10 122 -17 0 -5 9 -2 20 8 10 9 26 15
35 12 8 -4 15 -2 15 3 0 15 36 12 49 -4 9 -11 5 -15 -21 -21 l-33 -7 31 -8
c54 -12 64 -18 58 -35 -7 -17 -31 -20 -36 -4 -4 13 -98 21 -98 8 0 -5 -8 -9
-17 -9 -14 -1 -12 -4 7 -15 22 -12 21 -20 -2 -16 -5 0 -8 -3 -8 -9 0 -5 4 -10
8 -10 7 0 8 -78 1 -241 -1 -36 1 -71 5 -77 3 -6 1 -14 -5 -18 -16 -9 -30 18
-17 33 7 9 7 13 -1 13 -15 0 -14 73 1 88 9 9 9 12 0 12 -16 0 -15 37 1 43 9 4
9 8 -2 15 -9 6 -12 22 -9 45 4 34 3 35 -24 30 -22 -4 -28 -2 -28 12 0 13 6 16
24 11 14 -3 28 -2 31 4 4 6 -8 10 -29 10 -29 0 -36 4 -36 19 0 13 -6 18 -17
17 -16 -3 -18 -18 -18 -159 0 -130 -2 -157 -14 -157 -11 0 -9 -4 5 -14 23 -17
14 -30 -15 -21 -19 6 -20 8 -6 35 13 25 13 29 -2 34 -14 6 -14 8 3 21 11 8 14
15 7 15 -7 0 -13 7 -13 15 0 8 6 15 13 16 10 0 10 2 0 6 -7 2 -13 13 -13 23 0
10 6 21 13 24 10 5 10 7 0 12 -7 3 -13 16 -13 29 0 13 6 26 13 29 9 3 7 9 -6
19 -18 15 -18 16 0 26 15 8 10 10 -24 11 -34 0 -43 4 -43 18 -1 22 -36 69 -46
60 -3 -4 -15 -3 -25 3 -11 5 -19 6 -19 2 0 -12 -50 -10 -50 2 0 6 -5 2 -11 -7
-14 -26 -49 -23 -49 3 0 17 6 20 33 19 49 -3 51 -2 32 20 -18 20 -40 26 -48
13 -2 -5 -2 -2 -1 5 4 14 2 14 -81 16 -56 1 -60 2 -58 24 2 13 -1 21 -6 18 -4
-3 -17 4 -27 15 -16 17 -16 22 -4 29 13 8 13 10 0 11 -64 3 -100 14 -100 29 0
13 33 13 47 -1 8 -8 13 -8 17 0 4 6 3 11 -3 11 -6 0 -8 6 -5 14 3 7 -2 16 -10
19 -12 5 -16 22 -16 71 0 72 6 96 25 96 7 0 16 -7 19 -16z m-618 -385 c3 -6 1
-16 -5 -22 -7 -7 -4 -16 11 -29 12 -10 26 -18 32 -18 6 0 2 7 -8 15 -19 15
-19 15 2 15 18 0 22 -6 22 -32 0 -28 3 -33 25 -33 14 0 25 3 25 8 0 4 -4 7
-10 7 -15 0 -12 47 3 52 6 3 18 3 25 1 10 -4 8 -9 -5 -20 -10 -8 -13 -12 -7
-9 8 4 14 -11 18 -39 7 -46 26 -65 22 -21 -2 17 2 23 13 22 10 -2 17 -15 19
-37 5 -52 36 -81 38 -36 1 12 2 38 3 57 2 19 0 45 -4 58 -6 19 -4 22 19 22 23
0 25 -2 16 -26 -7 -19 -7 -31 1 -40 8 -10 8 -14 0 -14 -6 0 -11 -7 -11 -15 0
-8 5 -15 11 -15 6 0 7 -5 2 -12 -11 -19 -12 -38 -2 -38 5 0 9 -6 9 -13 0 -7 8
-13 18 -13 15 0 17 9 14 63 -2 36 0 63 6 63 5 0 10 -32 11 -72 1 -75 12 -101
38 -91 12 5 12 7 1 14 -7 5 -10 9 -6 9 4 0 3 11 -2 24 -7 19 -5 26 7 30 14 6
14 8 -3 21 -17 13 -17 14 -1 15 17 0 25 20 7 20 -5 0 -7 7 -4 15 4 8 12 15 19
15 9 0 11 -20 9 -76 -3 -53 1 -84 11 -105 9 -16 14 -29 12 -29 -15 0 -243 133
-391 228 -46 30 -63 60 -49 85 6 11 31 9 39 -4z"/>
<path d="M4904 5491 c-131 -37 -204 -93 -259 -198 -29 -56 -27 -185 3 -240 7
-12 12 -24 12 -27 0 -9 -35 -7 -45 3 -16 14 -176 64 -246 76 -96 17 -240 10
-294 -14 -31 -14 -83 -33 -92 -34 -4 0 -13 -5 -19 -11 -6 -6 -30 -26 -53 -45
-22 -19 -41 -40 -41 -46 0 -6 -13 -25 -30 -43 -17 -19 -30 -44 -30 -59 0 -14
-6 -37 -14 -51 -17 -31 -47 -123 -50 -155 -3 -27 -96 -308 -106 -322 -5 -5
-13 -29 -19 -51 -7 -26 -18 -44 -29 -46 -13 -4 -30 -38 -57 -114 -43 -124 -58
-149 -49 -84 8 59 -19 161 -58 222 -54 86 -165 178 -268 223 -19 9 -43 20 -52
25 -10 6 -26 14 -35 19 -46 24 -174 45 -283 45 -95 1 -128 -4 -190 -23 -41
-13 -83 -24 -92 -23 -10 0 -18 -3 -18 -7 0 -5 -27 -14 -60 -21 -33 -7 -60 -16
-60 -19 0 -4 -24 -13 -52 -20 -29 -8 -57 -16 -63 -20 -5 -3 -17 -6 -25 -8 -36
-5 -175 -47 -180 -55 -3 -4 -34 -15 -68 -23 -35 -9 -80 -23 -100 -32 -20 -8
-57 -15 -82 -15 -50 1 -124 -15 -255 -58 -49 -16 -155 -50 -235 -74 -80 -24
-184 -56 -232 -71 -49 -15 -94 -28 -100 -29 -7 -2 -20 -6 -28 -9 -35 -15 -109
-40 -158 -53 -29 -8 -72 -23 -94 -34 -23 -11 -46 -20 -51 -20 -4 0 -15 -6 -22
-12 -33 -30 -45 -38 -55 -38 -5 0 -10 -5 -10 -10 0 -6 -11 -21 -25 -33 -53
-46 -88 -225 -58 -289 6 -13 23 -48 37 -79 48 -102 192 -232 327 -292 76 -34
165 -61 244 -74 43 -6 229 -3 234 5 3 4 16 7 27 6 12 -1 39 5 61 12 22 8 48
15 59 17 20 4 46 13 79 28 11 4 85 27 165 50 80 23 150 45 155 49 10 8 188 61
215 64 8 1 24 7 35 13 22 11 208 70 240 76 36 7 73 25 86 44 8 10 34 25 59 32
98 29 175 56 178 63 2 5 14 8 28 8 13 0 57 11 98 25 41 14 82 26 92 28 11 2
33 9 49 16 17 7 44 15 60 18 17 3 45 12 63 20 34 15 46 18 122 34 24 5 48 16
53 24 4 8 14 15 21 15 18 0 50 17 106 57 51 36 75 62 85 92 3 12 11 21 16 21
11 0 11 -3 -2 -37 -6 -15 -21 -66 -34 -113 -26 -96 -47 -156 -76 -216 -10 -22
-19 -45 -19 -51 0 -5 -10 -39 -22 -74 -12 -35 -23 -91 -24 -124 -2 -57 19
-159 38 -179 4 -6 8 -18 8 -28 0 -10 4 -18 8 -18 4 0 15 -13 25 -29 30 -51
132 -146 190 -175 20 -11 37 -23 37 -28 0 -4 5 -8 10 -8 6 0 30 -9 53 -21 51
-25 141 -53 221 -69 110 -22 299 -9 365 25 17 8 34 15 38 15 14 0 103 61 103
71 0 5 6 9 14 9 8 0 20 14 28 30 7 17 16 30 20 30 5 0 8 5 8 12 0 6 6 19 13
27 12 14 87 243 92 281 1 8 10 32 19 52 9 21 15 41 14 45 -2 5 7 28 19 53 12
25 36 92 52 150 17 58 44 141 60 185 20 57 26 84 19 95 -7 11 4 61 42 180 79
248 119 358 119 331 1 -18 5 -22 21 -18 24 6 40 -18 40 -59 0 -44 37 -109 85
-148 26 -22 46 -48 50 -65 3 -16 13 -35 21 -42 9 -7 25 -31 36 -53 11 -23 32
-55 47 -72 14 -18 40 -55 56 -84 17 -29 58 -82 93 -117 34 -35 74 -82 87 -104
14 -21 43 -50 65 -64 38 -24 99 -106 100 -133 0 -7 19 -33 43 -59 27 -30 35
-44 22 -39 -19 8 -37 11 -145 23 -70 8 -302 9 -335 1 -16 -4 -57 -12 -90 -19
-33 -7 -66 -17 -74 -23 -8 -6 -16 -10 -18 -8 -2 1 -24 -6 -49 -18 -26 -11 -48
-20 -50 -20 -26 0 -244 -183 -244 -206 0 -12 -30 -75 -41 -84 -10 -9 -21 -45
-34 -120 -15 -84 -7 -163 25 -268 11 -36 27 -119 35 -186 9 -66 18 -127 20
-134 7 -20 25 -4 19 16 -5 14 -4 15 5 2 13 -18 15 -50 3 -50 -5 0 -31 16 -58
35 -27 19 -54 35 -60 35 -6 0 -17 7 -24 14 -6 8 -33 23 -58 32 -26 10 -54 23
-62 29 -8 7 -46 25 -85 40 -38 16 -82 37 -97 47 -14 10 -29 18 -32 18 -3 0
-47 20 -98 44 -51 24 -108 50 -125 57 -18 8 -33 17 -33 21 0 5 -6 8 -13 8 -7
0 -53 20 -102 45 -176 88 -319 124 -478 119 -94 -3 -135 -13 -210 -51 -134
-67 -192 -162 -185 -302 6 -128 101 -259 268 -369 47 -31 90 -63 97 -72 6 -8
15 -12 18 -8 11 10 142 -59 168 -88 12 -14 51 -40 87 -59 96 -48 172 -89 200
-107 14 -9 42 -21 63 -28 38 -12 210 -121 222 -141 11 -17 138 -71 200 -85 33
-7 96 -13 140 -14 73 0 86 3 154 37 52 27 95 60 147 113 127 130 163 187 137
214 -8 7 -12 116 -5 116 2 0 29 -23 60 -50 40 -36 73 -56 112 -67 30 -8 102
-39 160 -68 135 -68 183 -82 333 -96 157 -14 493 -9 525 9 13 7 55 16 95 19
87 7 178 45 225 95 27 29 38 56 67 164 37 142 55 196 108 324 29 72 34 95 32
150 -5 110 -15 192 -23 204 -5 6 -17 34 -27 61 -10 28 -31 69 -46 93 -16 24
-29 46 -29 50 0 7 -99 122 -137 160 -7 7 -13 14 -13 16 0 1 55 0 123 -2 109
-4 135 -1 227 22 57 15 116 34 131 42 51 26 129 168 129 234 0 14 9 39 20 57
10 18 21 45 24 60 2 15 5 30 6 33 1 3 2 8 2 11 -9 71 -16 106 -23 114 -5 5 -9
17 -9 27 0 10 -4 18 -10 18 -5 0 -10 9 -10 20 0 11 -4 20 -10 20 -5 0 -10 5
-10 12 0 12 -79 121 -92 126 -4 2 -8 10 -8 17 0 7 -4 15 -8 17 -4 2 -34 39
-67 83 -32 44 -61 82 -65 85 -4 3 -49 61 -101 130 -51 69 -99 132 -105 140 -7
8 -34 44 -61 80 -163 218 -169 225 -200 234 -22 7 -66 60 -229 275 -43 58
-100 132 -126 165 -26 34 -73 96 -104 140 -74 102 -207 236 -234 236 -5 0 -10
5 -10 10 0 6 -5 10 -10 10 -6 0 -33 16 -61 36 -32 22 -69 38 -102 44 -29 5
-65 14 -82 20 -52 20 -271 21 -341 1z m-491 -460 c16 -6 44 -11 63 -11 19 0
34 -4 34 -10 0 -5 18 -15 40 -21 22 -7 40 -16 40 -21 0 -4 6 -8 13 -8 36 -1
217 -170 217 -204 0 -6 7 -24 15 -40 22 -43 28 -145 10 -180 -8 -15 -15 -36
-15 -44 0 -18 -165 -517 -180 -544 -6 -10 -10 -29 -10 -42 0 -13 -6 -26 -14
-29 -22 -9 -916 285 -927 304 -10 19 188 631 219 677 10 15 24 40 32 55 24 49
129 110 215 126 56 11 215 6 248 -8z m765 -380 c20 -10 56 -38 78 -62 23 -24
57 -53 75 -64 53 -32 73 -115 28 -115 -10 0 -19 -6 -19 -14 0 -23 -17 -28 -53
-17 -17 6 -45 13 -62 16 -41 9 -175 146 -175 179 0 14 5 28 10 31 6 3 10 16
10 29 0 12 3 26 7 29 12 13 64 7 101 -12z m-2306 -156 c39 8 256 -63 294 -97
11 -10 25 -18 31 -18 20 0 138 -125 161 -170 48 -96 48 -208 -1 -272 -62 -80
-83 -95 -182 -128 -38 -12 -74 -26 -80 -30 -5 -4 -19 -9 -30 -12 -11 -3 -65
-18 -120 -33 -55 -15 -108 -28 -117 -30 -9 -2 -26 -9 -38 -15 -19 -10 -102
-35 -152 -45 -9 -2 -26 -9 -37 -15 -12 -6 -21 -8 -21 -5 0 4 -6 3 -12 -2 -7
-4 -17 -8 -23 -9 -5 -2 -49 -16 -97 -33 -89 -31 -118 -37 -118 -23 0 4 -10 18
-23 32 -13 14 -43 52 -67 85 -24 33 -56 71 -70 86 -30 31 -49 54 -74 94 -11
16 -28 39 -39 50 -10 11 -29 36 -42 55 -12 19 -33 47 -46 61 -33 36 -59 68
-93 114 -17 22 -39 48 -49 57 -22 19 -31 13 83 58 25 10 70 23 100 30 54 13
228 66 505 156 76 25 150 47 165 49 14 3 48 8 75 13 28 5 60 5 72 1 12 -5 32
-6 45 -4z m3332 -47 c6 -7 25 -31 41 -53 17 -22 32 -42 36 -45 5 -5 34 -44
173 -229 27 -36 52 -68 55 -71 4 -3 45 -57 91 -120 46 -63 90 -121 98 -129 7
-8 21 -26 30 -40 19 -29 23 -35 53 -71 11 -13 37 -51 56 -84 32 -51 37 -70 41
-137 4 -65 1 -85 -17 -123 -41 -83 -132 -155 -221 -172 -8 -2 -31 -6 -50 -10
-56 -10 -187 -4 -255 11 -77 18 -174 54 -196 72 -8 7 -21 13 -27 13 -7 0 -12
3 -12 8 0 4 -20 20 -44 35 -25 15 -62 49 -83 74 -21 26 -45 54 -54 64 -9 9
-21 23 -25 32 -12 19 -64 86 -86 109 -10 10 -18 22 -18 27 0 4 -10 19 -22 33
-27 29 -74 90 -107 138 -13 19 -31 43 -40 52 -9 10 -24 28 -33 40 -35 47 -122
163 -130 173 -67 84 -118 156 -118 164 0 10 17 17 62 27 32 7 39 9 71 22 15 7
31 11 35 11 4 -1 9 0 12 1 3 1 12 3 20 5 14 3 229 68 332 100 26 8 52 15 59
15 15 0 174 47 204 60 29 13 55 12 69 -2z m-4430 -260 c15 -18 41 -51 56 -73
15 -22 40 -51 54 -64 34 -32 33 -47 -5 -55 -48 -9 -54 -8 -85 19 -16 14 -33
25 -37 25 -5 0 -15 6 -23 14 -12 13 -11 17 13 28 37 17 39 54 5 85 -14 13 -29
23 -33 23 -5 0 -9 7 -9 15 0 26 34 16 64 -17z m-186 -40 c7 -7 12 -20 12 -29
0 -9 15 -24 35 -33 45 -22 49 -30 20 -46 -41 -22 -41 -47 -1 -86 19 -19 41
-35 48 -35 7 -1 30 -3 51 -4 47 -2 65 -18 47 -39 -7 -9 -16 -14 -20 -11 -4 2
-17 -6 -28 -18 -19 -21 -20 -25 -7 -50 15 -29 7 -41 -22 -31 -34 13 -53 36
-47 58 12 49 -98 110 -156 86 -15 -6 -33 -22 -40 -34 -16 -30 5 -65 55 -92 32
-17 35 -22 29 -49 -9 -43 -12 -45 -46 -45 -18 0 -47 -5 -65 -12 -47 -17 -57
-3 -38 53 20 55 9 79 -51 114 -48 28 -69 30 -125 14 -28 -9 -41 -20 -48 -40
-11 -32 -14 -33 -40 -19 -10 5 -37 10 -60 11 -23 2 -49 10 -59 20 -10 9 -35
22 -56 29 -32 10 -44 10 -83 -5 -46 -18 -46 -18 -65 6 -10 13 -23 32 -29 42
-11 20 -17 17 96 51 44 13 88 27 97 31 13 5 20 -1 31 -28 16 -38 64 -77 95
-77 55 0 81 12 87 41 8 35 13 36 46 5 30 -28 60 -39 112 -42 32 -1 45 5 78 37
35 34 43 37 66 28 45 -17 80 -2 94 38 11 33 10 37 -20 66 -26 27 -39 32 -85
34 -43 1 -58 -3 -72 -18 -20 -22 -34 -23 -88 -8 -28 8 -35 14 -27 22 6 6 19
12 28 13 17 3 82 21 113 32 8 3 25 7 38 9 12 2 32 8 45 13 31 12 41 12 55 -2z
m477 -325 c42 -46 44 -57 8 -50 -31 6 -80 -10 -106 -34 -25 -23 -15 -72 21
-99 15 -11 32 -24 39 -30 7 -5 17 -10 23 -10 13 0 13 -13 -2 -28 -22 -22 -16
-44 23 -83 21 -21 39 -42 39 -46 0 -3 -3 -3 -7 0 -3 4 -11 3 -17 -2 -6 -5 -49
-19 -96 -31 -70 -17 -322 -95 -380 -117 -8 -3 -21 -7 -28 -9 -6 -1 -50 -14
-97 -29 -84 -27 -107 -28 -88 -3 6 8 7 25 1 45 -11 40 -65 75 -126 79 -35 3
-53 11 -79 36 -28 27 -42 33 -83 34 -41 2 -56 8 -92 39 -27 23 -38 39 -30 42
7 3 19 18 27 34 14 27 14 31 -7 63 -17 26 -36 39 -75 51 -61 20 -97 12 -125
-26 -25 -33 -12 -69 36 -101 24 -17 32 -28 26 -38 -7 -11 -17 -9 -59 9 -54 23
-81 23 -118 3 -15 -9 -23 -22 -23 -41 0 -51 70 -92 142 -83 29 3 44 -1 67 -19
33 -27 38 -39 16 -39 -16 0 -37 -32 -33 -52 8 -40 -120 40 -195 121 -26 29
-47 58 -47 66 0 8 -4 15 -9 15 -5 0 -11 8 -14 18 -4 9 -12 33 -19 52 -17 47
-12 84 10 75 9 -4 38 -10 63 -12 42 -5 49 -3 64 21 31 47 -8 96 -86 110 -31 5
-36 10 -32 26 7 26 27 25 88 -5 61 -30 90 -31 132 -5 l32 19 37 -34 c23 -22
51 -38 74 -41 22 -4 44 -15 55 -30 10 -13 24 -24 31 -24 21 0 24 -15 12 -48
-16 -41 2 -74 50 -93 39 -14 45 -16 77 -18 12 -1 26 -15 36 -33 26 -53 62 -73
134 -73 48 0 68 5 84 19 16 15 21 16 21 4 0 -23 55 -69 91 -76 50 -10 99 -3
99 14 0 8 5 14 10 14 21 0 8 42 -24 78 -31 34 -39 37 -85 36 -29 0 -57 -6 -63
-12 -17 -17 -38 -15 -38 4 0 9 -9 27 -20 42 -19 23 -19 27 -5 41 13 13 20 13
65 -3 34 -12 62 -16 89 -11 34 6 41 11 46 36 7 29 9 30 53 26 100 -9 159 50
112 110 -25 32 -22 36 19 22 65 -23 125 8 118 62 -1 17 5 24 30 31 18 4 35 13
38 18 12 19 35 10 70 -27z m1598 -468 c45 -50 74 -91 81 -113 13 -39 -3 -98
-36 -131 -26 -27 -37 -31 -82 -31 -59 0 -70 5 -89 42 -17 33 -22 144 -7 153 5
3 10 15 10 26 0 12 7 19 20 19 13 0 20 7 20 20 0 19 24 39 48 40 7 0 23 -11
35 -25z m-2609 -10 c19 -19 60 -35 92 -35 14 0 27 -7 31 -17 9 -23 31 -46 66
-68 15 -9 27 -21 27 -26 0 -10 -111 -12 -188 -2 -49 5 -53 8 -47 27 18 56 17
63 -14 94 -21 20 -27 32 -18 35 22 9 35 7 51 -8z m4549 -94 c17 -5 49 -12 71
-14 57 -7 60 -16 37 -92 -12 -37 -21 -82 -21 -101 0 -19 -4 -42 -9 -52 -5 -9
-15 -38 -21 -64 -7 -26 -20 -55 -29 -65 -14 -15 -83 -218 -256 -748 -36 -113
-40 -115 -126 -77 -24 10 -51 21 -60 24 -29 11 -174 110 -221 151 -25 23 -59
52 -74 65 -26 22 -84 96 -84 107 0 3 -9 15 -20 27 -11 12 -20 27 -20 34 0 6
-7 15 -16 18 -8 3 -13 10 -10 15 3 5 -1 14 -8 21 -13 10 -30 59 -27 75 1 3 -5
18 -13 33 -22 44 -19 282 4 290 6 2 10 9 10 16 0 7 8 21 19 32 10 11 22 31 26
44 7 21 22 41 81 107 12 12 27 23 34 23 6 0 32 18 57 40 25 22 54 40 64 40 10
0 20 4 23 9 7 11 83 32 132 36 22 2 73 8 114 13 92 11 299 7 343 -7z m327
-101 c3 -4 15 -11 28 -15 34 -10 194 -110 237 -147 83 -72 205 -204 205 -221
0 -4 11 -25 24 -46 14 -21 30 -58 36 -82 7 -24 16 -48 20 -54 8 -10 24 -125
23 -160 -2 -40 -23 -127 -37 -153 -8 -15 -20 -42 -26 -60 -7 -18 -21 -37 -31
-43 -11 -5 -19 -14 -19 -19 0 -12 -58 -70 -100 -99 -86 -59 -284 -127 -385
-131 -210 -9 -274 -2 -442 46 -12 3 -23 11 -26 17 -2 7 54 188 125 402 71 215
133 413 139 440 15 70 49 173 69 209 10 17 26 56 35 86 10 30 19 58 22 62 4 7
95 -21 103 -32z m-2261 -526 c31 -9 65 -20 76 -25 11 -4 31 -11 44 -15 14 -3
46 -20 72 -35 25 -16 50 -29 54 -29 5 0 47 -19 94 -41 147 -71 284 -135 346
-164 60 -27 93 -43 196 -96 57 -30 159 -116 159 -136 0 -6 7 -16 16 -23 27
-23 52 -89 59 -155 15 -134 -118 -263 -290 -282 -85 -9 -74 -9 -161 0 -74 7
-153 31 -240 72 -29 14 -58 25 -63 25 -6 0 -11 4 -11 9 0 5 -17 15 -37 22 -20
6 -59 25 -85 40 -27 16 -51 29 -55 29 -6 0 -81 35 -268 125 -71 34 -159 76
-195 93 -86 40 -197 154 -222 227 -28 85 -31 125 -10 185 18 52 69 120 90 120
5 0 12 6 15 13 5 13 36 25 137 53 57 16 204 10 279 -12z"/>
<path d="M2564 3370 c-83 -12 -117 -27 -171 -78 -39 -35 -55 -60 -69 -102 -18
-56 -20 -118 -5 -148 5 -10 15 -30 22 -47 21 -45 137 -156 198 -188 129 -68
293 -93 415 -62 102 26 146 53 195 123 44 63 37 188 -15 259 -13 17 -24 34
-24 37 0 8 -100 100 -113 105 -7 2 -24 13 -39 23 -16 11 -72 34 -125 52 -102
34 -169 40 -269 26z m239 -96 c50 -12 124 -52 163 -89 7 -5 20 -18 30 -27 45
-40 64 -81 68 -148 14 -225 -360 -273 -561 -72 -57 56 -71 78 -79 131 -12 75
47 191 98 191 9 0 18 5 20 10 4 13 111 27 163 22 22 -2 66 -10 98 -18z"/>
</g>
</svg>
