<?xml version="1.0" standalone="no"?>
<!DOCTYPE svg PUBLIC "-//W3C//DTD SVG 20010904//EN"
 "http://www.w3.org/TR/2001/REC-SVG-20010904/DTD/svg10.dtd">
<svg version="1.0" xmlns="http://www.w3.org/2000/svg"
 width="991.000000pt" height="762.000000pt" viewBox="0 0 991.000000 762.000000"
 preserveAspectRatio="xMidYMid meet">
<metadata>
Created by potrace 1.16, written by Peter Selinger 2001-2019
</metadata>
<g transform="translate(0.000000,762.000000) scale(0.100000,-0.100000)"
fill="#000000" stroke="none">
<path d="M6650 6863 c0 -5 -16 -7 -35 -5 -21 3 -35 0 -35 -7 0 -17 -247 -15
-253 2 -4 9 -8 9 -14 0 -5 -7 -65 -14 -168 -19 -90 -4 -163 -11 -167 -17 -3
-6 -81 -14 -179 -18 -113 -6 -175 -13 -180 -20 -4 -7 -16 -9 -28 -6 -13 3 -19
1 -15 -5 4 -7 -8 -9 -34 -6 -22 2 -38 0 -36 -4 3 -5 -21 -8 -54 -8 -32 0 -80
-7 -106 -16 -26 -9 -56 -14 -66 -11 -11 3 -18 1 -14 -4 3 -5 -13 -9 -35 -9
-22 0 -59 -7 -81 -16 -22 -9 -49 -14 -60 -11 -11 3 -18 2 -15 -2 2 -5 -54 -11
-125 -14 -85 -4 -140 -11 -160 -20 -16 -9 -76 -19 -132 -22 -57 -4 -109 -12
-115 -17 -7 -6 -13 -7 -13 -2 0 4 -6 0 -13 -9 -9 -13 -36 -20 -114 -26 -56 -5
-106 -12 -111 -15 -13 -8 -217 -36 -262 -36 -20 0 -50 -6 -66 -14 -16 -7 -72
-17 -124 -20 -52 -3 -115 -13 -139 -22 -24 -8 -50 -13 -58 -10 -8 3 -11 1 -8
-4 4 -6 -13 -10 -44 -10 -33 0 -55 -6 -66 -16 -11 -12 -39 -18 -88 -21 -109
-6 -137 -12 -137 -29 0 -8 -4 -12 -10 -9 -5 3 -10 3 -10 -2 0 -4 -23 -6 -52
-4 -48 3 -87 -5 -168 -34 -19 -7 -69 -16 -110 -20 -44 -4 -82 -13 -93 -23 -12
-10 -48 -17 -117 -21 -70 -4 -103 -10 -109 -20 -6 -8 -19 -12 -35 -9 -14 3
-23 2 -21 -3 3 -4 -21 -11 -52 -14 -32 -4 -76 -13 -98 -20 -22 -7 -84 -16
-138 -19 -55 -4 -115 -14 -135 -22 -21 -9 -81 -20 -134 -25 -54 -4 -103 -11
-110 -15 -7 -5 -25 -7 -40 -5 -16 1 -28 -2 -28 -7 0 -5 -11 -7 -25 -4 -14 2
-25 0 -25 -6 0 -5 -39 -12 -86 -14 -56 -3 -88 -9 -94 -18 -5 -7 -18 -11 -34
-8 -14 3 -23 2 -21 -2 2 -4 -52 -10 -121 -13 -69 -3 -131 -11 -138 -16 -7 -6
-49 -16 -92 -21 -52 -7 -83 -16 -91 -26 -8 -11 -21 -15 -37 -12 -14 3 -23 1
-20 -3 3 -5 -10 -9 -29 -9 -54 0 -97 -11 -97 -26 0 -7 -7 -17 -17 -22 -12 -7
-14 -18 -10 -39 6 -33 -7 -53 -34 -53 -10 0 -21 -9 -24 -20 -3 -11 -13 -20
-21 -20 -19 0 -20 -86 0 -93 7 -3 16 -21 20 -41 4 -20 15 -40 25 -45 13 -7 20
-26 24 -66 3 -31 10 -62 15 -68 6 -7 13 -29 17 -51 5 -24 14 -40 25 -43 10 -3
23 -16 29 -30 7 -16 17 -23 26 -19 9 3 15 -1 15 -10 0 -9 -9 -18 -21 -21 -14
-4 -19 -12 -16 -24 3 -11 1 -22 -4 -25 -12 -7 -12 -81 1 -89 5 -3 7 -12 4 -20
-3 -7 4 -23 15 -34 12 -12 21 -30 21 -41 0 -12 9 -39 20 -61 12 -22 18 -45 14
-51 -4 -7 -3 -8 4 -4 9 5 12 -14 12 -68 0 -41 5 -78 10 -81 6 -3 10 -15 10
-26 0 -10 5 -19 10 -19 6 0 10 -10 10 -23 0 -13 10 -33 23 -45 20 -19 35 -22
108 -22 l85 0 12 -87 c6 -49 12 -93 13 -100 1 -7 6 -10 10 -7 4 2 11 -12 15
-33 3 -21 14 -47 24 -58 10 -11 20 -36 24 -56 4 -21 13 -42 21 -49 8 -7 15
-23 15 -36 0 -12 4 -25 10 -29 5 -3 6 -13 3 -21 -4 -10 2 -17 15 -21 21 -5 32
-30 32 -76 0 -15 9 -44 20 -64 11 -21 20 -54 20 -74 0 -21 7 -42 16 -50 8 -7
13 -21 11 -31 -3 -10 -2 -16 2 -13 5 2 11 -36 14 -86 4 -50 14 -106 23 -124
15 -32 14 -35 -5 -54 -12 -12 -21 -25 -21 -30 0 -4 -30 -11 -67 -15 -36 -4
-71 -10 -77 -13 -6 -4 -28 -6 -48 -4 -70 5 -178 -50 -164 -84 2 -7 -6 -21 -20
-29 -18 -12 -24 -25 -24 -51 0 -19 6 -38 13 -42 17 -10 29 -53 15 -53 -6 0 -8
-6 -5 -14 3 -8 -1 -20 -9 -26 -9 -8 -14 -32 -14 -70 0 -51 3 -58 22 -63 12 -4
19 -9 15 -13 -3 -4 5 -15 19 -26 19 -15 36 -19 74 -16 28 1 50 0 50 -4 0 -5 7
-8 15 -8 18 0 50 -17 88 -47 16 -13 38 -23 48 -23 11 0 27 -6 35 -14 7 -8 19
-16 26 -18 9 -3 15 -48 20 -159 8 -175 8 -180 20 -173 12 8 10 -150 -3 -183
-6 -15 -10 -66 -9 -113 3 -128 1 -412 -5 -724 -3 -156 -1 -309 4 -348 7 -54 6
-76 -5 -103 -26 -64 -11 -135 30 -135 9 0 16 -3 16 -8 0 -12 52 -31 110 -38
30 -4 65 -13 76 -21 25 -16 126 -34 118 -21 -3 4 71 8 164 8 l170 0 6 53 c16
143 18 198 8 209 -24 30 -33 319 -22 719 6 217 15 411 20 432 4 22 4 52 -1 71
-11 40 -7 196 6 216 5 8 11 61 13 116 4 99 5 102 34 124 17 12 40 20 56 18 25
-3 27 -7 30 -58 4 -71 40 -108 113 -117 27 -3 46 -10 43 -14 -3 -5 2 -6 10 -3
11 4 15 -3 18 -28 3 -29 8 -34 43 -44 22 -6 53 -16 69 -23 16 -6 66 -15 110
-18 62 -5 84 -11 96 -25 10 -13 36 -22 80 -28 36 -5 85 -15 110 -24 25 -8 54
-16 65 -18 17 -3 19 -10 16 -51 -2 -31 2 -52 12 -61 9 -10 17 -48 22 -102 4
-53 14 -98 25 -118 10 -18 27 -89 39 -166 11 -74 25 -164 31 -200 6 -36 12
-77 13 -92 1 -14 5 -24 8 -22 4 2 10 -40 13 -94 4 -53 11 -101 15 -107 17 -21
31 -107 31 -184 0 -44 5 -92 12 -108 6 -15 11 -31 10 -35 -1 -5 2 -8 6 -8 4 0
6 -16 4 -36 -3 -21 0 -39 7 -43 8 -5 12 -81 12 -262 0 -240 4 -282 25 -279 5
0 10 -8 12 -20 2 -11 10 -20 18 -20 9 0 23 -18 31 -40 16 -40 17 -40 72 -42
91 -3 185 3 198 14 6 5 27 10 46 11 19 1 33 5 30 9 -5 9 42 12 142 8 l71 -2 9
65 c8 52 7 72 -4 99 -11 24 -17 100 -23 273 -8 266 -9 276 -20 269 -4 -3 -8
28 -8 68 0 40 -5 116 -11 168 -6 52 -12 136 -15 185 -2 50 -6 108 -9 130 -2
22 -7 128 -11 235 -3 107 -10 200 -14 205 -4 6 -11 25 -15 42 -3 18 -10 33
-13 33 -4 0 -6 37 -4 82 2 52 -1 90 -9 105 -7 12 -9 26 -6 30 4 3 0 14 -9 24
-29 32 -8 39 121 39 106 0 138 4 212 26 49 15 95 26 105 26 9 0 18 7 21 17 4
15 21 19 122 24 86 4 121 10 134 21 10 9 31 16 48 16 34 0 95 19 104 32 3 5
30 11 60 14 30 3 76 13 102 21 27 8 57 13 68 10 10 -3 17 -2 14 3 -2 4 35 10
83 13 48 3 103 12 122 20 19 8 67 17 105 21 39 4 80 14 92 22 12 7 31 14 43
14 11 0 20 4 20 8 0 5 14 7 31 4 22 -3 37 2 53 17 16 15 42 24 82 28 35 4 64
12 70 21 7 9 16 12 24 7 8 -5 11 -4 6 3 -4 7 17 13 61 18 38 3 71 11 74 16 3
4 41 13 85 18 43 5 93 13 111 19 17 5 35 6 39 3 4 -4 4 -2 1 5 -7 12 39 20
143 25 l55 3 3 -243 c1 -137 -1 -241 -6 -238 -5 3 -7 -6 -4 -19 3 -18 0 -25
-12 -25 -22 0 -29 -39 -21 -114 6 -60 5 -65 -21 -92 -14 -16 -21 -20 -13 -9
11 17 11 18 0 8 -15 -13 -21 -104 -7 -95 5 3 7 -2 3 -10 -4 -12 -1 -14 15 -10
12 3 19 1 16 -4 -4 -5 12 -9 34 -10 22 0 42 -5 46 -10 16 -24 220 -45 205 -22
-2 5 1 8 7 8 6 0 16 -14 21 -30 10 -28 14 -30 63 -30 29 0 57 5 64 12 7 7 12
9 12 5 0 -4 9 2 21 14 11 11 27 18 35 15 9 -3 12 -1 9 4 -3 6 3 10 14 10 12 0
21 5 21 11 0 6 7 8 16 5 8 -3 12 -2 9 4 -4 6 6 10 22 10 15 0 41 8 57 18 24
14 32 29 41 74 6 31 8 55 3 52 -10 -6 -9 102 1 173 4 29 3 50 -1 46 -9 -5 -1
206 8 235 2 7 0 11 -5 8 -4 -3 -11 30 -14 74 -3 43 -9 85 -14 92 -4 7 -9 29
-10 48 -1 19 -5 72 -9 118 -4 52 -3 82 3 82 6 0 26 11 45 23 19 13 58 27 86
31 62 8 84 15 77 26 -3 4 30 11 73 15 42 4 84 13 92 20 8 7 42 18 74 24 33 6
67 18 76 26 9 8 20 12 23 9 4 -4 12 -2 19 3 7 6 28 14 46 18 18 4 45 13 59 20
14 8 56 17 92 21 40 4 70 13 77 22 7 9 19 13 33 9 11 -3 19 -1 15 4 -3 5 36 9
91 9 68 0 105 5 126 16 17 8 37 13 45 10 9 -3 12 -1 9 4 -8 13 5 13 25 0 8 -5
11 -10 5 -10 -5 -1 -1 -5 11 -10 18 -7 23 -22 33 -92 7 -45 12 -88 13 -95 1
-7 5 -10 8 -8 11 7 20 -49 20 -124 0 -36 7 -97 15 -136 9 -38 20 -167 25 -285
6 -118 15 -293 20 -388 6 -95 7 -178 4 -184 -4 -7 -3 -8 4 -4 9 5 12 -18 12
-84 0 -50 -3 -89 -7 -87 -5 3 -8 -8 -8 -23 0 -15 3 -26 8 -23 4 2 7 -11 6 -29
-1 -18 2 -86 6 -152 l8 -118 56 7 c31 4 72 8 93 9 20 0 34 5 30 10 -3 5 5 7
17 3 13 -3 20 -3 17 0 -6 6 23 32 37 33 4 0 7 -5 7 -11 0 -5 -4 -8 -9 -4 -5 3
-12 1 -15 -4 -3 -4 4 -8 17 -7 15 1 22 -4 21 -15 -1 -11 5 -15 16 -12 10 3 21
0 24 -6 9 -14 83 -14 92 0 3 6 15 9 25 6 12 -3 17 -1 12 6 -4 7 0 8 11 4 11
-5 15 -3 10 5 -5 7 0 9 14 6 12 -4 25 -1 29 4 3 7 1 8 -5 4 -7 -4 -12 -5 -12
-2 0 3 13 12 30 21 29 15 105 21 97 8 -3 -5 17 -6 43 -5 l48 4 4 49 c2 36 0
48 -9 45 -17 -7 -26 10 -34 64 -4 25 -13 64 -20 87 -10 34 -11 55 -1 101 8 39
9 69 3 88 -5 16 -12 125 -15 243 -4 172 -9 217 -21 231 -10 11 -15 37 -15 78
0 34 -3 62 -7 62 -5 0 -6 33 -5 72 3 50 -1 83 -11 103 -21 44 -37 141 -37 229
0 50 -5 87 -16 107 -12 25 -13 39 -4 83 7 35 8 72 1 112 -5 32 -6 63 -3 68 3
5 0 6 -6 2 -9 -5 -12 10 -12 53 0 51 3 61 18 61 9 0 30 7 45 15 15 8 56 19 90
26 34 7 68 16 74 22 7 5 22 7 33 4 11 -3 18 -1 15 4 -3 4 43 10 102 11 104 3
108 4 111 26 2 12 7 20 11 18 4 -3 8 10 8 29 0 19 -4 32 -8 30 -4 -3 -10 15
-14 40 -6 43 -33 84 -65 98 -8 4 -28 16 -45 26 -16 11 -45 20 -63 20 -19 1
-35 7 -38 16 -4 8 -14 15 -24 15 -10 0 -23 7 -31 16 -7 8 -26 22 -43 31 -17 9
-37 24 -43 34 -7 9 -31 20 -53 24 -22 4 -42 11 -45 15 -3 5 -30 14 -61 21 -34
8 -59 19 -65 31 -6 12 -21 18 -43 18 -19 0 -39 7 -46 15 -6 7 -33 17 -58 20
-76 10 -87 13 -112 35 -13 11 -37 20 -57 20 -18 0 -50 7 -70 15 -45 19 -96 19
-136 1 -71 -32 -128 -48 -147 -43 -11 3 -18 1 -14 -4 9 -14 -15 -10 -41 7 -19
12 -25 25 -25 51 0 48 -58 103 -109 103 -51 0 -81 10 -81 26 0 8 -8 14 -18 14
-9 0 -34 11 -54 25 -20 14 -42 25 -48 25 -7 0 -24 8 -38 19 -15 10 -49 21 -75
23 -26 3 -56 13 -66 22 -10 9 -27 16 -39 16 -11 0 -24 5 -27 11 -4 6 -13 8
-20 5 -7 -2 -15 3 -18 13 -4 18 -45 31 -98 31 -16 0 -45 9 -65 21 -40 22 -70
22 -309 1 -69 -6 -102 -5 -107 2 -4 6 -8 91 -8 189 0 103 -4 177 -9 177 -13 0
-21 62 -25 191 -2 72 -9 115 -20 137 -9 18 -20 63 -25 101 -5 37 -14 78 -20
90 -15 28 -30 151 -19 151 5 0 7 4 4 9 -7 11 19 17 107 26 52 6 75 13 94 31
14 13 30 24 34 24 15 0 10 28 -6 34 -18 6 -22 96 -4 96 5 0 8 4 5 9 -3 5 1 14
10 22 12 10 15 33 14 113 -1 56 1 109 5 118 4 9 3 23 -1 30 -5 7 -7 20 -6 30
2 9 -6 22 -16 30 -16 11 -20 29 -24 105 -3 75 -8 96 -24 110 -26 24 -47 84
-34 97 6 6 10 59 10 118 0 105 -1 110 -26 133 -15 14 -39 25 -55 25 -15 0 -29
4 -31 9 -4 11 -118 25 -118 14z m-634 -391 c-3 -5 9 -6 25 -4 29 4 31 3 27
-24 -3 -28 -2 -28 40 -25 25 1 42 -2 42 -8 0 -6 -18 -11 -39 -11 -23 0 -41 -5
-44 -13 -4 -10 2 -13 19 -9 25 5 27 1 17 -36 -4 -18 -11 -23 -29 -19 -13 2
-21 0 -18 -4 3 -5 0 -9 -6 -9 -7 0 -14 9 -17 21 -4 13 -11 18 -21 14 -8 -3
-20 0 -28 6 -8 6 -45 9 -93 7 -61 -2 -81 0 -81 10 0 17 19 23 82 26 29 2 65 4
81 5 28 1 38 25 13 34 -7 3 -59 3 -115 0 -73 -4 -104 -10 -108 -20 -4 -10 -43
-13 -182 -13 -194 0 -221 -4 -221 -30 0 -13 -6 -16 -25 -12 -14 2 -25 0 -25
-4 0 -5 -45 -8 -100 -6 -81 3 -103 0 -116 -12 -9 -9 -20 -13 -26 -10 -7 5 -8
2 -3 -6 6 -9 -2 -11 -32 -9 -30 3 -39 1 -36 -8 3 -9 27 -13 69 -13 40 0 64 -4
64 -11 0 -7 -20 -10 -54 -7 -30 1 -52 0 -49 -4 2 -5 -9 -8 -26 -8 -16 0 -33 5
-36 10 -3 6 -1 10 4 10 6 0 11 5 11 10 0 13 -77 13 -85 -1 -4 -6 -13 -8 -21
-5 -7 3 -16 0 -20 -6 -5 -7 -2 -8 7 -3 11 6 11 5 3 -4 -8 -9 -33 -12 -72 -9
-33 1 -58 0 -55 -4 2 -5 -10 -8 -26 -8 -21 0 -31 -5 -31 -15 0 -11 -11 -15
-41 -15 -26 0 -38 4 -33 11 3 6 16 9 28 7 15 -3 22 1 22 11 0 13 -12 16 -52
16 -29 0 -50 -4 -46 -9 3 -5 -2 -6 -12 -3 -9 4 -14 3 -11 -2 7 -12 -31 -24
-46 -15 -7 4 -9 3 -6 -3 5 -8 -46 -12 -158 -14 -127 -3 -168 -7 -174 -18 -5
-8 -14 -10 -21 -6 -9 6 -11 4 -5 -5 6 -9 -4 -11 -43 -9 -27 2 -48 1 -45 -3 2
-5 -23 -8 -56 -8 -34 0 -61 -4 -61 -10 0 -5 -5 -10 -11 -10 -6 0 -9 9 -6 19 3
14 1 18 -9 14 -8 -3 -14 0 -14 6 0 6 17 11 38 11 32 1 92 28 66 31 -33 4 67
17 142 18 77 1 94 4 109 21 15 17 31 20 100 20 68 0 86 4 105 20 16 14 37 20
67 20 25 0 51 6 58 13 39 34 48 39 70 34 14 -2 22 0 19 4 -3 5 33 9 80 9 46 0
93 3 103 6 14 5 15 4 4 -4 -11 -8 -8 -10 12 -9 14 1 23 6 20 11 -3 5 6 7 20 4
15 -3 24 -2 22 2 -5 7 17 20 34 20 4 0 6 -13 3 -30 -4 -30 -4 -30 47 -30 31 0
51 4 51 11 0 6 7 8 16 5 8 -3 13 -2 10 3 -4 5 48 8 118 8 68 -1 122 1 120 5
-6 9 34 21 46 13 6 -3 7 1 4 9 -5 14 17 16 194 16 134 0 203 4 208 11 3 6 15
9 25 6 10 -3 22 0 26 5 4 7 1 8 -8 3 -11 -6 -11 -5 -2 5 7 7 27 11 51 8 22 -2
38 0 36 4 -3 5 25 8 61 8 36 0 64 -4 61 -8z m-1773 -49 c30 -4 38 -10 34 -23
-2 -10 1 -17 7 -17 30 1 46 -4 46 -14 0 -5 -4 -7 -10 -4 -5 3 -10 2 -10 -2 0
-5 -13 -8 -30 -7 -16 1 -30 -2 -30 -6 0 -5 -14 -4 -30 2 -17 5 -48 8 -70 6
-22 -2 -40 0 -40 4 0 5 -6 8 -13 8 -17 0 -39 37 -26 45 5 4 17 4 25 1 9 -3 12
-1 9 4 -7 11 78 13 138 3z m1962 -153 c5 -17 15 -20 69 -20 68 0 81 -7 90 -53
3 -15 8 -38 11 -52 4 -20 11 -25 35 -25 17 0 30 -3 30 -7 0 -3 -5 -35 -11 -70
-11 -64 -34 -87 -41 -41 -3 25 -34 36 -51 19 -7 -7 -6 -15 2 -25 25 -30 9 -48
-44 -53 -63 -5 -73 -14 -58 -53 l11 -30 -123 0 c-99 0 -124 3 -129 15 -3 8 4
21 15 29 20 14 20 14 -3 30 -12 9 -42 16 -68 16 -48 0 -73 13 -83 42 -5 13 3
17 41 22 86 10 185 2 215 -18 22 -15 40 -18 97 -14 38 3 75 10 82 16 21 17 15
133 -8 160 -28 33 -106 31 -128 -3 -12 -18 -23 -24 -36 -20 -22 7 -60 -14 -60
-32 0 -22 -14 -14 -27 14 -16 33 -5 43 50 43 22 0 38 5 38 13 1 6 2 26 3 42 1
23 6 31 24 33 14 2 22 10 22 23 0 25 27 25 35 -1z m-3788 -246 c16 -4 23 -16
28 -45 5 -30 11 -39 26 -39 11 0 22 -7 25 -15 4 -8 18 -15 33 -16 21 -1 19 -3
-11 -10 -24 -5 -48 -5 -64 1 -21 8 -31 7 -44 -5 -21 -19 -201 -32 -182 -13 6
6 27 17 46 23 29 10 38 10 47 -1 14 -17 73 -18 86 -1 6 6 12 21 15 32 5 19 1
20 -55 15 -66 -7 -78 3 -58 47 9 20 17 24 41 21 16 -2 27 -1 24 4 -6 9 12 10
43 2z m-911 -290 c8 -10 37 -14 110 -15 128 -1 173 -13 92 -24 -31 -4 -62 -4
-69 0 -8 6 -10 4 -4 -5 6 -10 1 -12 -19 -8 -14 3 -29 1 -33 -5 -4 -6 -1 -7 8
-3 8 4 6 1 -5 -8 -10 -8 -44 -18 -75 -22 -92 -11 -128 -30 -135 -69 -8 -42
-68 -108 -93 -103 -10 2 -17 10 -15 17 1 7 -3 11 -10 8 -7 -2 -12 -12 -11 -22
1 -16 0 -16 -15 -1 -13 12 -18 40 -21 107 -3 90 4 147 17 134 9 -9 9 -39 -1
-46 -13 -9 3 -171 17 -166 7 2 11 35 11 88 0 83 0 84 29 96 15 7 33 10 39 6 6
-4 7 -1 2 7 -6 9 2 11 33 8 23 -2 38 1 35 6 -4 5 1 7 11 3 11 -5 15 -3 10 5
-5 8 -2 9 10 5 10 -4 15 -3 11 3 -20 32 47 36 71 4z m4518 -166 c3 -13 6 -33
6 -45 0 -12 8 -27 19 -32 10 -6 22 -26 25 -45 4 -19 13 -39 21 -46 8 -7 15
-25 15 -39 0 -30 21 -81 33 -81 4 0 7 -20 7 -44 0 -25 4 -47 9 -50 4 -3 6 -17
3 -31 -2 -15 0 -25 7 -25 7 0 9 -4 6 -10 -3 -5 -1 -10 5 -10 6 0 8 -4 5 -10
-3 -5 -3 -10 2 -10 4 0 9 -24 11 -53 1 -28 10 -81 19 -117 8 -36 16 -95 17
-132 0 -36 4 -64 9 -61 4 2 7 -5 7 -17 0 -12 -3 -19 -7 -17 -5 3 -8 -5 -8 -18
0 -13 4 -21 8 -18 5 3 7 -17 5 -44 l-3 -48 -62 -7 c-34 -4 -71 -12 -83 -18
-11 -6 -26 -8 -32 -4 -6 4 -8 3 -5 -3 4 -6 -16 -12 -51 -16 -31 -3 -70 -12
-87 -20 -16 -8 -64 -18 -105 -22 -41 -4 -84 -12 -95 -18 -11 -6 -69 -14 -128
-18 -80 -6 -115 -13 -135 -27 -15 -11 -49 -22 -77 -25 -27 -3 -63 -13 -80 -21
-19 -10 -56 -16 -98 -16 -51 0 -69 -4 -73 -15 -4 -8 -10 -12 -15 -9 -5 3 -9 1
-9 -3 0 -5 -16 -7 -35 -5 -19 2 -35 0 -35 -5 0 -6 -37 -13 -82 -16 -47 -3 -96
-12 -113 -21 -16 -9 -42 -16 -56 -16 -15 0 -61 -7 -104 -16 -42 -9 -83 -13
-91 -10 -10 4 -12 2 -8 -5 5 -8 -3 -10 -24 -7 -17 2 -29 1 -27 -2 3 -4 -30
-10 -71 -13 -45 -3 -83 -12 -92 -20 -10 -8 -48 -18 -87 -22 -38 -4 -75 -11
-80 -15 -6 -5 -64 -15 -129 -24 -66 -8 -124 -20 -130 -26 -5 -5 -23 -10 -38
-10 -15 0 -28 -4 -28 -8 0 -5 -13 -7 -30 -4 -19 3 -48 -5 -82 -22 -32 -16 -69
-26 -95 -26 -24 0 -60 -7 -79 -15 -20 -8 -41 -12 -47 -8 -5 3 -7 2 -4 -4 4 -6
-35 -12 -106 -16 -64 -3 -125 -12 -142 -20 -16 -8 -61 -18 -100 -21 -38 -4
-84 -14 -102 -23 -18 -8 -42 -13 -53 -10 -11 3 -18 1 -14 -4 3 -5 -16 -9 -43
-9 -30 0 -60 -7 -81 -20 -18 -11 -46 -20 -62 -20 -16 0 -31 -4 -34 -9 -3 -4
-17 -6 -30 -4 -14 3 -35 -2 -48 -11 -12 -9 -40 -16 -62 -16 -44 0 -92 -13
-151 -41 -22 -10 -56 -19 -75 -19 -19 0 -48 -7 -65 -16 -40 -21 -71 -11 -84
28 -6 17 -18 39 -26 48 -8 9 -20 40 -28 69 -7 29 -19 56 -27 61 -7 4 -11 17
-7 29 3 12 1 19 -4 15 -5 -3 -9 10 -9 29 0 18 -9 52 -20 75 -12 23 -20 61 -20
89 0 28 -7 58 -16 71 -11 16 -15 40 -12 82 1 32 0 56 -3 54 -4 -2 -9 26 -11
62 -2 36 -9 69 -16 73 -6 3 -18 23 -27 44 -8 20 -22 37 -30 37 -8 0 -15 7 -15
15 0 8 -9 23 -20 32 -23 20 -45 110 -36 147 6 23 11 26 48 26 25 0 49 7 60 17
11 9 46 20 83 24 35 5 75 15 87 22 13 8 56 17 96 20 45 4 89 14 113 27 22 11
51 20 65 20 13 0 36 8 51 17 14 9 53 20 86 24 39 5 63 13 69 23 6 11 23 16 53
16 24 0 46 4 50 10 3 5 12 7 19 4 8 -3 17 0 21 5 3 6 11 9 16 6 5 -4 16 1 25
9 8 9 32 16 53 16 74 0 131 12 131 28 0 10 7 13 25 10 13 -3 22 -1 19 3 -5 8
115 14 174 9 12 -1 42 6 67 15 24 10 51 15 60 11 9 -3 13 -2 10 4 -4 6 27 10
85 10 64 0 100 5 122 16 25 13 166 33 269 38 9 0 16 7 15 16 -1 12 18 16 104
21 70 3 116 11 137 22 21 11 55 17 97 17 47 0 74 6 99 20 26 16 64 22 168 30
147 11 199 18 214 30 6 4 52 10 104 14 52 3 100 11 107 17 7 6 31 12 53 12 21
1 37 5 34 10 -2 4 26 7 64 7 45 0 78 6 98 17 23 13 67 18 191 22 112 4 166 10
177 19 9 8 64 18 129 24 70 6 119 15 129 24 9 8 19 11 22 7 4 -3 7 -1 7 6 0 7
5 9 10 6 6 -3 10 -1 10 4 0 7 26 11 64 11 58 0 64 -2 70 -22z m-4158 -215
c-13 -13 -20 -15 -23 -5 -7 19 -75 14 -103 -8 -14 -11 -32 -20 -40 -20 -8 0
-28 -7 -44 -15 -16 -9 -36 -13 -43 -10 -8 2 -12 1 -9 -4 4 -5 -40 -12 -96 -15
-132 -7 -137 -8 -131 -23 6 -16 -63 -18 -72 -3 -16 26 3 37 48 30 41 -6 44 -5
39 13 -3 14 -1 18 6 13 7 -4 12 -4 12 1 0 4 43 7 95 5 61 -2 95 0 95 7 0 6 7
8 16 4 9 -3 21 3 31 17 11 15 23 20 39 17 13 -2 21 0 18 4 -3 5 37 9 88 9 88
0 91 -1 74 -17z m-479 -386 c13 -3 26 0 30 5 4 7 1 8 -7 3 -9 -5 -11 -4 -6 3
11 19 20 14 34 -16 11 -27 32 -42 76 -56 12 -4 17 -13 14 -24 -4 -15 -1 -18
20 -14 14 3 22 1 19 -4 -3 -5 28 -9 68 -9 40 0 71 4 68 8 -3 5 3 7 13 5 11 -2
18 -8 17 -13 -2 -6 -51 -11 -113 -13 -67 -2 -110 -7 -110 -13 0 -6 -4 -8 -9
-4 -16 9 -41 -37 -41 -76 0 -24 -5 -39 -16 -43 -29 -11 -44 -6 -44 14 0 14 6
20 17 18 12 -2 17 4 16 27 0 20 -4 29 -13 27 -22 -5 -30 20 -29 86 2 42 -2 67
-11 75 -11 10 -12 9 -5 -3 6 -9 0 -4 -12 10 -13 14 -23 29 -23 34 0 6 6 3 13
-6 6 -8 22 -18 34 -21z m4723 -558 c0 -6 -7 -8 -16 -5 -8 3 -12 2 -9 -3 3 -6
-9 -11 -27 -13 -24 -2 -33 -9 -38 -29 -7 -23 -5 -25 21 -21 24 4 29 1 29 -17
0 -19 -19 -27 -52 -22 -4 0 -4 -7 -1 -16 5 -13 2 -15 -11 -10 -9 4 -15 3 -12
-2 3 -5 -1 -12 -10 -15 -23 -9 -186 -7 -181 2 3 4 -8 7 -23 7 -15 0 -26 -4
-23 -8 3 -5 -15 -6 -40 -2 -40 6 -46 5 -52 -14 -9 -31 -39 -28 -33 4 3 13 1
22 -3 19 -10 -6 -11 2 -3 34 6 20 13 22 65 22 44 0 61 -4 65 -15 5 -11 23 -15
75 -15 42 0 69 4 69 11 0 5 5 7 11 4 6 -4 17 2 25 14 9 12 26 21 40 21 35 0
32 35 -3 49 -26 9 -25 10 9 5 29 -5 39 -2 44 10 7 19 84 23 84 5z m-263 -269
c20 0 33 -3 29 -7 -4 -5 -22 -8 -39 -8 -24 0 -32 -5 -37 -24 -5 -23 -9 -24
-78 -22 -42 1 -72 -2 -72 -7 0 -6 -9 -8 -21 -5 -14 4 -25 -1 -35 -16 -13 -18
-25 -21 -86 -21 -66 0 -70 -1 -65 -21 5 -20 2 -20 -78 -17 -49 2 -81 -1 -77
-6 3 -5 -2 -7 -11 -3 -12 4 -14 2 -10 -10 5 -13 2 -15 -11 -10 -10 4 -15 3
-11 -3 11 -17 -19 -10 -44 10 -32 27 -21 50 23 50 19 0 42 8 52 17 11 11 29
16 55 14 23 -1 39 2 39 8 0 6 7 11 15 11 7 0 18 7 23 15 4 9 25 18 47 22 22 3
36 2 33 -3 -4 -5 9 -9 27 -9 18 0 31 4 28 8 -3 5 22 7 55 5 33 -1 58 0 56 3
-2 4 25 6 60 5 35 0 62 2 59 7 -8 13 8 29 24 23 8 -3 31 -6 50 -6z m-719 -42
c2 -11 -3 -18 -12 -18 -8 0 -27 -11 -42 -25 -26 -24 -32 -25 -124 -22 -89 2
-97 1 -92 -15 3 -13 -1 -18 -17 -18 -18 0 -22 5 -19 28 2 22 7 26 26 24 12 -2
22 2 22 7 0 6 10 11 21 11 12 0 32 11 45 25 22 24 29 25 106 23 70 -3 83 -6
86 -20z m-471 -45 c2 -6 -5 -14 -16 -18 -12 -3 -21 -13 -21 -22 0 -10 -6 -13
-16 -9 -9 3 -12 2 -8 -5 4 -7 -10 -10 -42 -8 -42 3 -49 1 -49 -15 0 -14 -13
-23 -47 -33 -27 -7 -48 -18 -48 -24 0 -7 -11 -9 -25 -7 -14 3 -22 1 -18 -4 3
-6 -14 -9 -45 -7 -29 2 -48 0 -44 -5 3 -5 -1 -7 -9 -4 -10 4 -14 -1 -13 -19 1
-23 2 -24 100 -25 156 -1 164 0 164 18 0 11 6 15 20 11 12 -3 18 -1 14 5 -4 7
6 9 28 6 28 -3 35 -1 30 11 -4 10 -1 13 12 8 10 -4 15 -3 11 3 -7 12 40 24 56
14 8 -5 9 -3 5 5 -6 10 14 12 87 9 52 -2 93 0 91 3 -6 10 23 19 57 19 21 0 27
-4 23 -15 -4 -9 0 -15 10 -15 9 0 16 -4 16 -9 0 -11 -25 -21 -51 -21 -10 0
-34 -9 -54 -20 -30 -17 -54 -20 -155 -20 -116 0 -120 -1 -125 -22 -6 -22 -10
-23 -78 -20 -70 4 -72 3 -99 -28 -22 -28 -32 -32 -62 -28 -20 2 -32 0 -29 -6
3 -5 -5 -7 -21 -4 -14 3 -29 1 -33 -5 -4 -6 -1 -7 7 -2 9 6 11 4 5 -4 -4 -7
-15 -11 -24 -8 -10 2 -17 -2 -17 -12 0 -13 10 -15 59 -13 66 4 79 -3 70 -37
-4 -17 -11 -22 -29 -18 -14 2 -21 0 -17 -6 3 -6 -6 -8 -26 -5 -18 3 -35 0 -38
-5 -4 -6 -1 -7 8 -2 8 4 4 -2 -8 -14 -32 -30 -100 -30 -112 1 -9 26 14 72 33
65 7 -3 13 3 13 13 1 15 -8 19 -51 22 -50 3 -52 2 -48 -19 4 -21 1 -23 -47
-23 -29 0 -61 -5 -72 -11 -20 -10 -63 -3 -55 9 2 4 -8 7 -24 7 -18 0 -26 -4
-23 -13 7 -18 -6 -62 -18 -62 -6 0 -9 7 -6 15 4 8 1 18 -6 22 -18 11 -47 11
-40 0 4 -6 0 -8 -10 -4 -11 4 -14 2 -10 -9 3 -9 -1 -14 -11 -14 -9 0 -19 -7
-22 -15 -5 -11 -22 -15 -69 -15 -44 0 -68 -5 -79 -16 -15 -14 -17 -14 -32 0
-10 11 -34 16 -75 16 l-59 0 0 34 c0 28 4 35 25 40 18 5 25 13 25 31 0 20 -5
25 -25 25 -14 0 -25 4 -25 9 0 9 57 21 107 21 25 0 32 5 35 22 3 20 8 22 65
19 60 -2 95 9 119 38 7 9 24 12 47 9 19 -2 33 0 30 5 -3 5 17 8 45 6 39 -3 48
-1 44 10 -3 9 -1 12 6 7 8 -5 10 -2 6 9 -6 14 4 16 87 14 85 -1 94 0 91 16 -3
13 1 16 13 11 9 -3 14 -2 11 3 -3 5 1 12 10 15 25 10 86 7 79 -3 -3 -6 7 -6
26 -1 18 5 35 7 39 5 4 -3 7 3 6 13 -1 13 7 17 31 17 17 0 29 3 26 7 -2 5 14
8 36 8 30 0 44 5 53 20 10 15 24 20 55 20 35 0 43 3 43 18 0 10 3 22 7 26 11
11 96 2 100 -11z m3680 -120 c-3 -5 22 -6 55 -5 39 3 58 0 54 -6 -4 -6 2 -8
15 -5 16 4 20 2 17 -12 -2 -15 4 -18 32 -18 28 0 34 3 32 18 -3 14 2 17 22 13
14 -3 23 -1 20 3 -7 11 25 10 51 -1 19 -8 19 -9 -2 -9 -12 -1 -33 -12 -46 -24
-18 -19 -38 -25 -102 -31 -44 -4 -84 -11 -89 -17 -6 -5 -18 -9 -28 -9 -10 0
-18 -4 -18 -8 0 -5 -13 -7 -30 -4 -18 3 -30 0 -30 -7 0 -7 -25 -11 -67 -11
-42 0 -79 -6 -98 -16 -16 -8 -38 -13 -47 -11 -10 3 -15 1 -12 -5 4 -6 -15 -9
-54 -6 -33 1 -58 0 -56 -3 2 -4 -3 -12 -10 -19 -10 -7 -48 -10 -114 -8 -59 2
-98 -1 -94 -6 3 -5 -2 -7 -10 -3 -12 4 -14 1 -11 -13 4 -14 -2 -21 -20 -25
-36 -9 -62 -2 -61 17 1 12 -5 14 -32 8 -19 -4 -32 -5 -29 -1 2 4 -5 7 -16 6
-25 -2 -54 -30 -54 -53 0 -22 -58 -29 -92 -11 -18 10 -28 10 -47 -1 -14 -7
-32 -10 -40 -7 -8 3 -18 1 -22 -5 -5 -7 -2 -8 6 -3 9 6 11 4 5 -4 -4 -7 -16
-11 -26 -8 -11 3 -16 1 -13 -5 9 -14 -15 -28 -47 -28 -32 0 -79 -22 -79 -36 0
-10 -82 -30 -103 -25 -5 1 -6 -3 -3 -8 9 -14 -19 -20 -128 -25 -60 -3 -104
-10 -110 -18 -6 -6 -2 -6 9 2 19 14 19 14 6 -3 -8 -11 -22 -16 -33 -14 -10 3
-16 1 -12 -4 3 -5 -21 -9 -53 -9 -38 0 -67 -6 -81 -16 -14 -9 -36 -14 -52 -12
-17 3 -26 0 -23 -5 3 -6 -9 -8 -29 -5 -25 2 -34 0 -31 -8 7 -19 -8 -23 -107
-33 -50 -6 -98 -15 -105 -21 -8 -6 -39 -14 -69 -17 -31 -3 -61 -12 -67 -19 -6
-7 -17 -10 -25 -7 -8 3 -21 -3 -28 -13 -11 -15 -34 -20 -117 -26 -139 -11
-148 -12 -143 -20 7 -11 -41 -21 -85 -16 -22 2 -38 1 -35 -3 7 -12 -74 -31
-114 -27 -22 2 -38 -1 -35 -5 3 -5 -13 -8 -35 -5 -22 2 -38 0 -36 -4 3 -5 -3
-8 -14 -8 -10 0 -27 -9 -38 -21 -16 -18 -28 -20 -105 -17 -48 2 -85 0 -82 -4
2 -5 -4 -8 -14 -8 -11 0 -24 -5 -29 -10 -6 -6 -38 -15 -72 -21 -43 -8 -62 -16
-62 -26 0 -8 -4 -11 -10 -8 -5 3 -10 2 -10 -2 0 -5 -18 -7 -40 -5 -22 2 -40 0
-40 -5 0 -5 -14 -8 -31 -5 -17 2 -42 -1 -55 -7 -13 -6 -35 -16 -48 -22 -13 -6
-38 -9 -56 -7 -17 3 -34 0 -37 -5 -4 -6 -1 -7 7 -2 8 5 11 4 7 -2 -15 -24 -79
-44 -133 -42 -36 2 -58 -2 -67 -11 -9 -11 -7 -11 8 0 19 14 19 14 6 -3 -11
-14 -25 -18 -52 -15 -21 2 -35 0 -33 -4 6 -9 -96 -21 -144 -16 -31 2 -38 0
-34 -11 4 -10 -2 -13 -26 -9 -17 2 -29 1 -27 -3 3 -3 -28 -10 -68 -13 -39 -4
-83 -14 -95 -23 -13 -8 -57 -17 -98 -20 -53 -4 -78 -11 -90 -24 -9 -10 -22
-15 -30 -12 -8 3 -14 0 -14 -6 0 -6 -19 -11 -45 -11 -30 0 -47 -5 -53 -16 -9
-16 -153 -41 -172 -29 -5 3 -12 0 -16 -6 -5 -8 -2 -10 7 -5 8 4 5 0 -6 -9 -30
-24 -53 -27 -133 -17 -47 5 -75 5 -79 -1 -4 -6 -1 -7 7 -2 9 6 11 4 6 -4 -5
-7 -14 -10 -21 -7 -17 6 -39 -20 -40 -45 0 -18 -9 -20 -97 -22 -53 -1 -94 1
-92 4 2 3 -7 4 -20 2 -13 -3 -27 1 -31 8 -6 9 10 11 76 7 99 -7 109 -4 109 28
0 13 5 24 10 24 6 0 10 7 10 15 0 8 11 17 24 21 14 3 26 13 28 22 2 13 13 16
46 14 23 -2 42 1 42 6 0 6 8 8 19 5 10 -2 44 7 75 22 36 17 68 25 86 23 17 -3
26 0 23 5 -3 6 7 8 25 5 17 -2 29 -1 26 4 -8 12 45 23 113 23 33 0 59 4 56 8
-3 5 13 7 35 6 23 -2 45 1 49 6 4 4 1 5 -7 1 -8 -4 -6 0 4 8 24 20 74 29 125
24 22 -2 37 1 34 6 -3 5 8 7 26 4 18 -3 35 0 38 5 4 6 1 7 -7 2 -8 -5 -11 -4
-6 3 3 5 24 13 46 17 22 4 59 16 82 28 26 13 70 22 110 25 41 3 72 10 79 18 6
8 20 14 30 14 11 0 19 4 19 9 0 5 18 11 40 15 22 3 40 11 40 17 0 6 7 8 16 5
8 -3 12 -2 9 4 -4 6 15 10 47 10 33 0 62 6 76 16 13 9 30 13 38 10 9 -4 12 -2
8 5 -4 8 9 10 44 8 28 -2 48 0 44 5 -3 5 4 7 15 4 15 -4 19 0 19 16 -1 16 9
23 54 35 30 7 74 14 97 15 22 1 39 5 36 10 -3 5 8 7 26 4 17 -2 29 -2 26 0 -3
3 2 14 12 24 12 14 31 18 82 18 56 0 68 3 79 20 7 12 17 18 21 15 5 -3 11 0
13 5 2 6 30 14 63 17 35 3 65 12 72 20 8 11 25 14 56 12 25 -2 43 0 40 5 -3 5
6 7 20 4 18 -3 31 0 39 11 11 14 11 14 -2 6 -9 -5 -7 -2 4 8 16 15 33 18 77
15 33 -2 55 1 52 6 -4 5 3 7 15 4 15 -4 19 -2 15 10 -5 12 -1 14 20 10 15 -3
24 -1 21 4 -4 6 6 8 22 6 23 -2 29 1 29 16 0 21 45 39 71 29 26 -10 104 7 104
23 0 9 11 14 30 14 17 0 30 5 30 11 0 14 -140 5 -170 -11 -11 -6 -44 -12 -74
-13 -30 -1 -51 -6 -48 -11 3 -5 -2 -6 -12 -3 -11 5 -15 3 -10 -5 5 -7 2 -9 -9
-5 -9 3 -21 -1 -29 -11 -12 -16 -11 -16 7 -2 19 14 19 14 6 -2 -8 -12 -27 -18
-51 -18 -24 0 -40 -5 -44 -15 -3 -8 -13 -15 -21 -15 -9 0 -14 3 -12 8 3 4 -8
7 -23 7 -15 0 -26 -4 -23 -9 3 -5 -8 -7 -25 -4 -17 2 -28 0 -25 -4 3 -5 -12
-8 -33 -6 -36 3 -39 6 -42 36 -3 27 0 32 18 32 11 0 33 12 48 28 15 15 35 26
45 24 10 -2 17 3 17 11 0 14 60 26 152 30 20 1 34 6 30 11 -3 5 5 7 16 4 12
-4 20 -2 16 3 -3 5 11 9 31 9 20 0 61 7 91 16 31 9 62 13 70 10 10 -4 13 -2 8
6 -5 8 -2 9 10 5 10 -4 15 -3 11 3 -7 12 40 24 56 14 8 -5 9 -3 4 6 -6 10 0
12 23 8 17 -2 29 -1 26 4 -3 4 4 8 16 8 12 0 19 4 16 9 -3 5 2 12 12 16 22 8
170 7 185 -2 7 -3 9 -2 4 2 -10 11 42 45 71 45 29 0 102 23 102 32 0 4 7 5 15
2 8 -4 15 -2 15 3 0 4 20 7 45 5 27 -3 52 1 61 9 13 10 17 10 24 -1 5 -7 17
-11 30 -7 16 4 20 1 18 -11 -2 -13 -18 -18 -65 -22 -46 -4 -66 -10 -76 -24 -9
-12 -20 -17 -30 -13 -12 4 -14 2 -10 -10 4 -11 2 -14 -5 -9 -8 5 -10 2 -6 -8
7 -19 -21 -22 -32 -4 -5 7 -2 8 7 3 8 -5 11 -4 6 0 -11 12 -47 13 -54 2 -4 -6
0 -7 8 -3 8 4 5 0 -6 -9 -11 -9 -28 -14 -38 -11 -9 2 -15 0 -12 -4 14 -22 -9
-38 -62 -42 -38 -3 -60 -11 -69 -23 -9 -12 -20 -16 -38 -11 -55 14 -156 -26
-156 -61 0 -25 187 -10 192 16 3 17 13 18 220 24 49 1 84 6 80 11 -3 5 2 7 11
3 10 -4 14 -2 11 6 -8 22 52 38 138 36 72 -1 83 0 80 15 -2 10 4 16 16 16 10
0 22 4 27 9 6 5 31 11 57 13 26 2 51 8 55 13 5 4 2 5 -6 0 -9 -5 -12 -4 -7 3
4 7 36 12 80 12 92 0 136 9 136 26 0 11 23 14 109 14 158 0 198 7 205 36 5 19
13 24 36 24 17 0 30 -4 30 -10 0 -5 13 -10 29 -10 17 0 33 5 36 10 3 6 26 10
50 10 24 0 47 5 50 11 4 6 14 8 22 5 9 -4 11 -2 7 5 -5 8 3 10 24 7 17 -2 29
-1 26 4 -3 4 5 8 18 8 13 0 29 5 35 11 6 6 29 10 51 7 23 -2 38 1 35 6 -4 5 3
7 15 4 14 -4 20 -2 16 4 -5 7 4 9 24 6 17 -2 29 -1 27 3 -7 10 22 19 41 12 8
-3 33 2 54 12 21 10 52 15 69 13 16 -2 28 -1 25 4 -3 4 11 8 31 8 20 0 34 -3
32 -7z m-4909 -240 c-2 -10 -11 -17 -20 -17 -8 1 -15 -6 -14 -15 1 -11 -7 -16
-26 -16 -14 1 -24 -3 -21 -8 3 -5 -5 -7 -18 -5 -13 2 -24 -2 -24 -9 0 -6 -3
-15 -7 -19 -11 -11 -190 -14 -224 -4 -22 6 -24 9 -9 10 11 1 23 2 26 2 3 -1 5
9 5 21 -1 19 4 22 41 22 22 0 39 4 36 8 -3 5 28 7 70 5 61 -2 74 0 69 11 -3 9
-1 12 6 7 8 -5 10 -2 6 8 -5 13 3 16 51 16 48 0 56 -2 53 -17z m-1630 -209
c29 -6 30 -8 29 -55 0 -38 -4 -49 -14 -45 -8 3 -11 1 -8 -4 4 -6 -16 -10 -50
-10 -40 0 -54 3 -49 12 4 7 3 8 -5 4 -14 -9 -53 2 -46 14 3 4 -5 6 -17 2 -11
-3 -19 -1 -15 4 3 5 -26 9 -66 9 -40 0 -73 4 -74 10 -2 6 18 10 45 10 42 0 48
3 48 20 -1 18 5 20 56 20 31 0 54 3 51 8 -5 8 72 9 115 1z m979 -50 c13 -4 20
-10 17 -16 -3 -5 -12 -3 -21 4 -15 12 -15 11 -2 -9 18 -30 5 -41 -56 -49 -49
-6 -135 -34 -135 -44 0 -3 -38 -4 -85 -2 -51 2 -85 0 -85 -6 0 -6 -9 -8 -20
-5 -14 4 -20 0 -20 -10 0 -18 -34 -32 -51 -21 -8 5 -9 3 -5 -5 6 -8 2 -11 -10
-9 -13 2 -18 -2 -16 -14 2 -13 -10 -18 -63 -23 -35 -4 -72 -5 -80 -1 -9 3 -13
2 -10 -4 3 -6 -1 -10 -10 -10 -9 0 -14 4 -11 9 3 4 -6 6 -21 3 -14 -3 -23 -1
-20 4 5 9 -55 8 -100 -2 -28 -6 -30 -35 -3 -52 11 -7 17 -18 14 -27 -4 -8 -1
-15 5 -15 6 0 11 -9 11 -20 0 -11 7 -20 16 -20 8 0 12 -4 9 -10 -3 -5 0 -8 7
-5 15 6 68 -40 68 -59 0 -8 7 -17 15 -20 12 -4 15 -18 13 -56 -2 -27 -6 -50
-10 -50 -5 0 -8 6 -8 14 0 9 -17 16 -50 20 -36 5 -48 10 -44 20 3 9 -3 17 -15
21 -13 4 -21 15 -21 28 0 12 -7 35 -15 51 -18 33 -19 39 -5 31 6 -3 7 1 4 9
-8 20 -44 21 -44 1 0 -8 -7 -15 -15 -15 -8 0 -15 -4 -15 -10 0 -5 -7 -7 -15
-4 -8 4 -15 2 -15 -2 0 -5 -13 -9 -30 -9 -16 0 -30 4 -30 8 0 5 -22 7 -49 6
-35 -2 -53 2 -66 14 -9 9 -37 22 -62 28 -24 7 -47 18 -50 25 -3 8 -14 14 -24
14 -14 0 -19 7 -19 25 0 14 -4 25 -10 25 -5 0 -7 7 -4 15 5 11 -1 15 -20 15
-15 0 -25 -5 -23 -12 1 -8 -9 -13 -25 -13 -14 1 -24 -3 -21 -8 3 -4 -15 -7
-39 -5 l-43 3 3 55 c4 62 7 66 43 75 22 5 33 0 61 -29 32 -33 39 -36 79 -31
58 7 255 -18 252 -32 -3 -14 33 -5 72 19 17 10 37 18 46 18 9 0 22 14 29 30
l12 30 138 0 c103 0 147 4 175 16 21 9 49 14 61 11 13 -2 21 0 18 5 -4 5 4 8
17 6 18 -2 23 1 21 15 -4 26 17 30 112 20 52 -5 82 -5 79 0 -3 6 8 8 25 5 19
-3 29 0 25 5 -4 6 3 8 15 5 12 -4 20 -2 16 3 -3 5 13 9 35 9 22 0 43 5 46 10
7 11 20 12 52 4z m2223 -161 c0 -7 12 -13 26 -13 23 0 25 -2 13 -16 -7 -9 -22
-14 -36 -11 -13 2 -21 2 -18 -1 7 -8 -64 -34 -100 -37 -22 -1 -30 -7 -30 -21
0 -15 -8 -19 -45 -22 -74 -4 -110 -12 -107 -25 1 -7 -13 -13 -37 -15 -53 -5
-64 2 -58 33 4 22 9 26 28 22 13 -2 21 0 17 6 -3 5 9 7 33 3 22 -3 57 -7 78
-8 38 -3 39 -2 40 31 1 18 -3 35 -8 38 -5 4 -6 0 -1 -7 5 -9 4 -11 -3 -6 -7 4
-12 14 -12 22 0 11 16 14 70 14 51 0 70 4 70 13 0 9 14 13 40 12 25 0 40 -5
40 -12z m-2228 -485 c10 -11 22 -17 28 -13 5 3 10 1 10 -5 0 -7 6 -10 14 -7 8
3 16 -2 19 -14 3 -10 13 -22 24 -25 52 -16 58 -24 16 -21 -23 1 -39 -1 -37 -5
3 -5 -2 -8 -11 -8 -9 0 -14 3 -12 8 3 4 -36 6 -85 4 -88 -3 -91 -3 -85 17 3
12 1 19 -4 15 -5 -3 -9 4 -9 15 0 28 -11 52 -21 45 -5 -3 -9 -1 -9 5 0 11 70
20 115 14 17 -3 38 -14 47 -25z m657 -416 c1 -25 6 -35 20 -39 12 -3 17 -11
14 -19 -3 -8 -1 -14 5 -14 5 0 12 -37 15 -82 5 -92 9 -114 22 -125 4 -4 5 -1
0 7 -6 11 -5 12 4 4 9 -8 11 -43 9 -117 -2 -59 1 -103 6 -100 5 3 7 -8 4 -25
-2 -17 -1 -29 3 -27 9 6 20 -79 23 -177 4 -89 -9 -106 -16 -23 -3 37 -11 60
-24 72 -12 11 -18 28 -16 44 2 16 -7 42 -23 65 -21 31 -26 48 -23 86 2 25 0
44 -4 41 -5 -2 -7 38 -5 90 2 79 0 94 -13 93 -9 -1 -15 7 -14 21 0 12 -4 19
-9 16 -5 -3 -7 16 -6 43 2 41 0 49 -14 46 -18 -3 -32 49 -25 98 2 16 1 27 -4
24 -4 -3 -8 4 -8 14 0 25 25 46 45 38 8 -3 14 -2 14 2 -1 4 0 12 1 17 4 17 18
-38 19 -73z m185 -1500 c0 -14 4 -18 14 -14 12 4 14 -1 10 -21 -3 -15 -1 -24
4 -21 5 3 7 -43 6 -108 -3 -107 -4 -113 -23 -110 -45 7 -45 6 -45 150 0 76 3
142 7 146 12 12 28 0 27 -22z"/>
</g>
</svg>
