<?xml version="1.0" standalone="no"?>
<!DOCTYPE svg PUBLIC "-//W3C//DTD SVG 20010904//EN"
 "http://www.w3.org/TR/2001/REC-SVG-20010904/DTD/svg10.dtd">
<svg version="1.0" xmlns="http://www.w3.org/2000/svg"
 width="870.000000pt" height="995.000000pt" viewBox="0 0 870.000000 995.000000"
 preserveAspectRatio="xMidYMid meet">
<metadata>
Created by potrace 1.16, written by Peter Selinger 2001-2019
</metadata>
<g transform="translate(0.000000,995.000000) scale(0.100000,-0.100000)"
fill="#000000" stroke="none">
<path d="M7362 8997 c-12 -13 -22 -29 -22 -35 0 -7 -7 -12 -15 -12 -9 0 -18
-7 -21 -15 -4 -8 -13 -15 -20 -15 -8 0 -19 -11 -24 -24 -5 -14 -32 -42 -60
-63 -27 -20 -50 -43 -50 -49 0 -7 -7 -14 -15 -18 -8 -3 -15 -12 -15 -21 0 -8
-6 -15 -13 -15 -7 0 -28 -13 -45 -28 -23 -21 -32 -37 -32 -60 0 -30 2 -32 34
-32 19 0 36 3 38 8 7 15 89 62 99 56 6 -3 28 7 50 22 34 23 39 31 34 53 -3 14
-13 31 -21 37 -34 27 -2 73 56 81 l41 6 -6 -44 c-15 -113 -15 -117 0 -129 10
-8 15 -31 15 -67 0 -30 4 -62 9 -71 24 -46 17 -242 -9 -242 -4 0 -13 -21 -20
-47 -13 -44 -45 -92 -62 -93 -12 0 -39 71 -31 83 3 6 1 7 -5 3 -8 -5 -12 1
-12 16 0 33 -42 78 -74 78 -14 0 -25 3 -25 8 4 23 -16 74 -34 83 -24 14 -75 6
-127 -18 -50 -23 -53 -59 -7 -76 11 -4 17 -17 17 -36 0 -34 11 -40 97 -48 l63
-6 0 -42 c0 -31 5 -45 16 -49 9 -4 14 -9 10 -13 -3 -4 8 -13 25 -20 30 -13 31
-15 26 -61 -3 -26 0 -69 6 -95 9 -41 8 -53 -7 -82 -16 -30 -17 -36 -4 -54 8
-12 17 -18 20 -15 4 3 9 -4 13 -15 3 -12 13 -21 21 -21 8 0 14 -10 14 -25 0
-16 6 -25 15 -25 8 0 15 -9 15 -21 0 -16 5 -20 27 -17 35 4 41 30 14 57 -12
12 -22 28 -22 36 -1 8 -2 18 -3 23 -1 4 -5 23 -9 42 -4 19 -13 54 -19 77 -11
46 -4 98 13 87 6 -3 13 3 16 15 3 12 11 21 17 21 12 0 28 25 40 63 3 9 12 17
21 17 8 0 15 9 15 20 0 11 3 20 8 20 4 0 13 13 20 29 14 32 14 179 0 187 -4 3
-8 38 -8 79 0 41 -4 77 -10 80 -5 3 -10 33 -10 65 0 33 -5 60 -11 62 -8 3 -6
42 5 134 20 159 20 159 0 178 -21 22 -37 20 -62 -7z"/>
<path d="M5360 8890 c0 -5 -16 -25 -35 -44 -30 -31 -37 -47 -45 -104 -5 -37
-6 -92 -2 -122 4 -30 5 -89 2 -130 -6 -83 10 -267 24 -290 6 -8 9 -31 7 -52
-1 -23 2 -38 9 -38 6 0 10 -6 8 -13 -4 -16 38 -87 52 -87 5 0 10 -6 10 -13 0
-15 65 -41 79 -33 5 4 12 24 16 47 6 36 10 40 33 38 53 -4 61 0 68 36 4 24 12
35 23 35 10 0 22 14 30 35 7 19 17 35 22 35 5 0 9 10 9 21 0 16 5 20 19 16 14
-3 17 0 14 14 -4 13 0 19 11 19 37 0 63 30 70 79 6 45 8 48 31 43 44 -8 72 5
79 38 l6 31 22 -20 c25 -24 58 -28 58 -6 0 8 8 15 19 15 10 0 24 6 30 14 7 8
26 18 42 21 16 4 29 11 29 16 0 13 77 11 86 -2 6 -10 130 -7 139 3 2 2 6 19
10 39 8 46 -4 55 -80 62 -33 3 -96 10 -139 16 -74 10 -81 10 -101 -9 -28 -26
-36 -25 -64 10 -13 16 -27 27 -32 25 -4 -3 -15 5 -24 18 -8 13 -33 29 -55 36
-22 6 -40 16 -40 20 0 5 -13 14 -30 20 -16 5 -30 15 -30 21 0 6 -16 17 -34 25
-19 8 -39 21 -43 29 -4 7 -34 19 -65 26 -36 7 -58 17 -58 25 0 7 -20 17 -47
23 -71 16 -133 21 -133 12z m134 -135 c8 -8 26 -15 40 -15 14 0 36 -11 50 -25
14 -14 33 -25 43 -25 10 0 29 -12 42 -25 13 -14 29 -25 37 -25 8 0 14 -4 14
-10 0 -19 40 -50 65 -50 14 0 25 -5 25 -11 0 -14 25 -39 39 -39 6 0 11 -5 11
-11 0 -8 -19 -9 -62 -5 -35 3 -69 2 -77 -3 -9 -6 -15 -30 -17 -65 -2 -60 -8
-76 -28 -76 -8 0 -16 -9 -19 -20 -3 -14 -14 -20 -32 -20 -18 0 -29 -6 -32 -20
-3 -11 -10 -17 -15 -14 -5 3 -12 -3 -15 -15 -3 -12 -9 -21 -14 -21 -5 0 -9
-16 -9 -35 0 -18 -6 -38 -12 -42 -17 -10 -38 -49 -38 -68 0 -23 -26 -18 -48
10 -13 16 -21 48 -26 101 -4 43 -10 83 -14 88 -4 6 -8 56 -9 111 -1 55 -3 152
-4 215 l-2 115 35 0 c20 0 34 3 31 8 -8 13 25 7 41 -8z"/>
<path d="M6756 8624 c-3 -8 -15 -14 -26 -14 -14 0 -19 -4 -14 -12 5 -8 2 -9
-9 -5 -10 4 -16 2 -14 -6 1 -7 -8 -11 -24 -9 -38 4 -139 -27 -146 -44 -8 -22
27 -45 60 -38 27 6 27 5 21 -35 -6 -37 -4 -40 19 -46 15 -4 50 -4 79 -1 29 3
70 8 91 9 45 4 55 13 63 54 5 25 2 33 -14 42 -18 9 -19 15 -9 40 15 41 -4 78
-43 79 -16 0 -31 -6 -34 -14z"/>
<path d="M5955 7991 c2 -5 -7 -13 -21 -20 -21 -9 -25 -17 -22 -49 2 -30 7 -38
26 -40 19 -3 22 -9 22 -52 0 -55 -12 -58 -44 -15 -26 35 -62 33 -81 -5 -15
-29 -12 -80 5 -80 5 0 19 -20 31 -45 12 -25 27 -45 31 -45 5 0 7 -3 5 -7 -3
-5 15 -9 40 -11 24 -1 55 -10 69 -19 19 -12 28 -13 37 -4 6 6 22 11 34 11 28
0 70 25 98 57 l20 24 2 -27 c0 -15 6 -30 13 -34 16 -10 38 -55 46 -95 3 -19
10 -35 14 -35 5 0 6 -8 4 -17 -7 -26 25 -41 62 -31 28 7 32 13 36 51 3 23 0
45 -6 49 -6 4 -7 8 -1 8 5 0 4 5 -3 12 -7 7 -12 22 -12 35 0 13 -6 26 -14 29
-8 3 -12 12 -9 20 4 10 -2 17 -16 21 -11 3 -21 11 -21 19 0 16 -31 34 -59 34
-18 0 -21 7 -22 43 -1 23 -1 45 0 50 2 11 -67 75 -88 82 -10 3 -21 14 -24 24
-3 12 -18 21 -43 25 -22 4 -46 13 -54 20 -17 15 -62 28 -55 17z"/>
<path d="M6690 7945 c-7 -8 -20 -15 -30 -15 -21 0 -50 -31 -50 -54 0 -9 -11
-29 -24 -43 -14 -15 -23 -30 -21 -33 3 -4 -7 -12 -20 -18 -14 -7 -25 -18 -25
-26 0 -8 -7 -19 -16 -24 -15 -8 -16 -14 -3 -56 13 -45 14 -46 54 -46 32 0 42
-5 50 -22 6 -13 14 -22 18 -20 5 2 19 -8 32 -22 23 -25 59 -34 69 -18 2 4 33
9 68 10 52 2 67 7 86 27 12 13 22 31 22 40 0 8 6 15 13 15 17 0 37 48 37 91 0
31 -4 38 -22 41 -29 4 -25 23 4 23 31 1 61 45 53 78 -4 15 -11 27 -16 27 -5 0
-9 9 -9 20 0 13 -7 20 -18 20 -10 0 -22 3 -25 7 -4 3 -53 8 -111 10 -83 3
-106 0 -116 -12z"/>
<path d="M5435 7673 c-8 -8 -15 -24 -15 -36 0 -57 -53 -172 -94 -206 -9 -7
-16 -20 -16 -27 0 -19 -32 -54 -42 -48 -5 3 -21 -2 -36 -12 -15 -10 -47 -20
-72 -22 -25 -2 -47 -8 -50 -12 -3 -5 -25 -12 -50 -16 -24 -4 -55 -13 -69 -21
-14 -7 -36 -13 -48 -13 -12 0 -28 -7 -37 -15 -8 -8 -21 -15 -29 -15 -7 0 -22
-16 -33 -36 -19 -35 -19 -36 0 -50 27 -19 83 -18 94 2 5 9 24 18 42 20 19 2
41 10 49 17 9 8 34 15 56 16 22 1 49 3 59 4 10 1 21 -3 23 -10 4 -10 -3 -19
-40 -48 -23 -18 -78 -45 -93 -45 -8 0 -18 -8 -21 -17 -4 -9 -22 -31 -40 -47
-22 -21 -35 -44 -39 -68 -4 -21 -11 -38 -17 -38 -5 0 -7 -13 -3 -30 12 -61
-27 -48 -103 33 -16 16 -36 27 -53 27 -15 0 -30 5 -33 10 -25 40 -87 -31 -67
-76 15 -31 44 -64 58 -64 20 0 32 -24 27 -51 -5 -25 -7 -26 -71 -25 -37 1 -69
4 -72 8 -8 10 -108 13 -117 4 -4 -4 -10 -33 -13 -64 -5 -55 -6 -56 -37 -58
-20 -1 -57 -19 -98 -48 -53 -37 -70 -44 -81 -35 -15 12 -80 4 -100 -12 -7 -5
-16 -9 -20 -7 -18 4 -54 -14 -54 -27 0 -8 -7 -11 -19 -8 -11 3 -32 -1 -48 -9
-72 -37 -119 -58 -129 -58 -7 0 -15 -7 -18 -16 -4 -11 -14 -15 -31 -12 -13 3
-23 2 -21 -1 5 -8 -21 -31 -27 -24 -3 3 -21 0 -39 -6 -35 -12 -75 -45 -121
-100 -27 -32 -134 -121 -235 -195 -50 -37 -99 -91 -182 -202 -19 -26 -47 -61
-61 -78 -14 -17 -34 -46 -43 -63 -9 -18 -27 -48 -39 -66 -21 -31 -84 -155
-213 -422 -53 -110 -64 -188 -26 -193 12 -2 22 1 22 5 0 5 15 27 34 48 19 21
44 66 56 99 12 34 28 75 35 91 8 17 21 47 29 68 8 20 22 37 30 37 11 0 16 9
16 29 0 16 7 34 15 41 8 7 15 26 15 42 0 16 9 41 20 55 11 14 20 32 20 39 0 7
25 41 56 76 30 34 61 76 68 93 7 17 20 37 27 45 8 8 34 44 58 79 46 69 71 92
164 158 33 23 108 87 168 142 83 77 112 98 128 94 15 -4 27 2 42 21 11 14 27
26 35 26 9 0 22 7 30 15 9 8 29 15 45 15 18 0 33 7 41 20 9 13 24 20 45 20 23
0 33 5 33 15 0 10 10 15 34 15 18 0 39 6 45 14 10 12 16 12 38 1 22 -12 32
-11 77 6 28 11 63 29 78 39 15 11 30 20 34 20 3 0 18 8 32 19 15 10 51 22 79
26 29 4 56 11 59 16 3 5 9 7 14 4 4 -3 49 -7 99 -10 86 -5 91 -4 115 20 15 14
26 37 26 50 0 23 2 23 77 21 63 -2 79 1 92 16 9 10 21 18 28 18 7 0 13 7 13
15 0 9 7 18 15 21 31 12 48 70 41 139 -6 61 -5 65 14 65 11 0 20 5 20 10 0 6
13 10 29 10 54 0 132 32 142 57 13 35 11 80 -3 87 -10 3 -8 9 5 19 9 8 17 18
17 23 0 5 9 18 21 28 18 15 33 17 94 12 40 -3 79 -8 87 -11 8 -3 27 -1 42 4
19 8 32 7 46 -1 15 -10 27 -10 50 -1 29 11 70 7 70 -6 0 -4 17 -14 38 -21 l37
-15 -75 -6 c-122 -11 -174 -21 -186 -37 -7 -10 -32 -15 -80 -16 -63 -1 -69 -3
-66 -21 2 -11 5 -36 5 -55 3 -59 27 -98 63 -102 25 -3 31 -1 26 12 -3 8 -2 12
2 8 5 -4 17 2 29 13 21 19 53 27 42 10 -3 -6 4 -15 15 -21 11 -6 20 -17 20
-25 0 -19 78 -24 108 -6 26 16 109 3 105 -16 -2 -7 6 -15 17 -18 19 -6 50 -56
50 -80 0 -7 7 -15 15 -19 8 -3 15 -15 15 -26 0 -11 5 -20 10 -20 6 0 10 -9 10
-20 0 -12 7 -20 16 -20 10 0 14 -5 10 -16 -4 -10 -2 -13 6 -8 7 5 9 2 5 -9 -4
-11 -2 -14 9 -10 12 4 18 -6 16 -28 -1 -4 12 -12 28 -19 17 -7 30 -16 30 -21
0 -4 8 -10 18 -13 9 -3 24 -19 33 -34 10 -18 28 -31 47 -35 18 -4 33 -14 37
-27 3 -11 13 -20 20 -20 8 0 20 -8 27 -18 22 -30 95 -47 203 -46 73 0 108 5
130 17 17 9 37 17 46 17 8 0 24 7 35 15 10 8 27 15 37 15 9 0 17 7 17 15 0 8
6 15 14 15 8 0 16 7 20 15 3 8 12 15 21 15 8 0 15 6 15 14 0 7 6 19 14 25 30
25 20 125 -15 147 -5 3 -32 -11 -59 -30 -28 -20 -55 -36 -60 -36 -6 0 -10 -4
-10 -8 0 -13 -91 -52 -127 -54 -18 -1 -33 -8 -33 -14 0 -20 -25 -23 -92 -14
-34 5 -68 10 -74 10 -7 0 -14 9 -17 20 -3 12 -14 20 -26 20 -12 0 -21 5 -21
11 0 17 -27 39 -49 39 -11 0 -33 12 -49 28 -15 15 -39 36 -52 47 -14 11 -43
44 -65 73 -21 28 -43 52 -47 52 -4 0 -8 9 -8 20 0 11 -7 20 -15 20 -8 0 -15 9
-15 20 0 11 -4 20 -10 20 -5 0 -10 6 -10 14 0 7 -7 19 -15 26 -8 7 -15 23 -15
37 0 21 4 24 33 23 55 -3 67 -1 67 15 0 8 7 15 15 15 8 0 17 12 21 28 12 56 8
54 97 47 94 -8 101 -4 112 58 5 25 4 37 -4 37 -6 0 -11 6 -11 14 0 15 -20 21
-114 31 -41 5 -56 3 -52 -4 4 -7 -1 -11 -13 -11 -12 0 -21 6 -21 14 0 8 -7 17
-16 20 -25 9 -72 7 -79 -4 -10 -16 -35 -12 -29 5 4 11 -1 15 -17 16 -13 1 -44
3 -69 6 -25 3 -66 5 -92 6 -27 1 -48 5 -48 9 0 5 -6 8 -14 8 -8 0 -17 9 -21
19 -3 12 -17 21 -33 23 -20 2 -26 8 -25 26 0 12 1 40 2 61 1 23 8 47 18 57 26
25 44 84 37 121 -4 23 -14 35 -36 44 -28 11 -32 10 -48 -11 -17 -23 -18 -23
-24 -3 -9 27 -42 36 -61 16z"/>
<path d="M7251 7638 c-6 -17 5 -37 56 -105 35 -46 63 -93 63 -104 0 -16 6 -20
28 -17 20 2 27 8 25 23 -3 39 -29 91 -77 158 -52 70 -80 84 -95 45z"/>
<path d="M6281 7407 c-27 -13 -50 -83 -51 -149 0 -34 3 -38 25 -38 18 0 25 -5
25 -20 0 -10 8 -24 18 -29 12 -7 18 -19 16 -40 -1 -22 3 -32 17 -36 10 -4 19
-12 19 -20 0 -17 33 -75 43 -75 16 0 6 -51 -13 -62 -11 -7 -20 -18 -20 -25 0
-6 -9 -15 -20 -18 -11 -3 -20 -12 -20 -18 0 -16 -77 -21 -112 -6 -15 6 -28 17
-28 25 0 7 -6 17 -13 21 -8 4 -16 16 -20 26 -12 32 -42 20 -52 -20 -13 -48 -8
-93 10 -93 8 0 16 -8 19 -18 10 -31 75 -52 160 -52 59 0 78 3 82 15 6 16 54
21 54 7 0 -20 49 -63 82 -73 32 -8 39 -7 62 14 27 25 35 67 13 67 -7 0 -18 9
-25 20 -7 11 -20 20 -28 20 -9 0 -23 8 -30 18 -16 20 -18 62 -4 62 7 0 8 18 4
50 -6 44 -4 54 15 71 11 11 21 24 21 29 0 6 7 10 15 10 10 0 15 10 15 29 0 43
8 58 45 81 52 32 51 98 -4 161 -13 16 -80 35 -136 38 -72 4 -126 15 -136 27
-14 17 -17 17 -48 1z"/>
<path d="M7166 7394 c-7 -18 18 -64 34 -64 5 0 44 -31 87 -70 43 -38 83 -70
89 -70 7 0 14 -9 17 -20 7 -26 34 -26 42 1 5 16 -8 36 -67 97 -94 99 -88 93
-125 120 -38 26 -68 28 -77 6z"/>
<path d="M6824 7243 c-20 -4 -44 -40 -44 -66 0 -12 30 -28 77 -41 11 -4 27
-13 33 -21 7 -8 29 -15 49 -15 20 0 52 -10 71 -22 61 -39 82 -48 105 -48 46 0
83 -13 88 -30 5 -18 46 -30 103 -30 18 0 36 -4 39 -10 3 -5 13 -10 22 -10 16
0 80 -30 193 -91 30 -16 62 -29 72 -29 9 0 23 -6 30 -13 7 -7 42 -35 78 -62
36 -27 73 -57 83 -67 21 -22 31 -23 47 -4 23 29 -17 78 -120 146 -12 8 -35 24
-49 36 -30 23 -290 154 -308 154 -6 0 -13 3 -15 8 -1 4 -19 15 -39 25 -20 11
-42 30 -47 43 -6 13 -22 26 -36 30 -13 3 -27 12 -30 19 -2 7 -20 16 -38 19
-80 16 -117 29 -111 40 3 6 2 8 -2 3 -5 -4 -18 -1 -29 6 -12 8 -52 17 -91 20
-38 4 -79 8 -90 11 -11 2 -30 2 -41 -1z"/>
<path d="M6774 7063 c-3 -16 -7 -33 -9 -40 -2 -7 10 -27 26 -44 25 -27 34 -31
48 -22 14 9 25 7 50 -8 17 -10 43 -19 56 -19 17 0 29 -8 37 -25 8 -17 19 -25
36 -25 32 0 102 -21 102 -30 0 -5 11 -11 24 -14 14 -3 37 -16 53 -29 15 -13
54 -36 86 -52 32 -16 60 -33 63 -37 3 -4 13 -8 24 -8 10 0 20 -7 24 -15 6 -16
76 -22 76 -6 0 26 -22 63 -45 73 -14 6 -25 17 -25 24 0 15 -33 35 -52 32 -7
-2 -14 7 -16 20 -2 13 -10 22 -21 22 -9 0 -27 9 -38 20 -12 11 -40 27 -62 37
-23 10 -41 21 -41 25 0 4 -17 14 -37 23 -21 9 -45 21 -53 26 -30 18 -56 28
-90 33 -23 4 -39 14 -45 28 -12 26 -40 36 -112 37 -50 1 -53 -1 -59 -26z"/>
<path d="M6876 6735 c8 -33 -19 -91 -62 -132 -19 -18 -34 -42 -34 -52 0 -33
-19 -71 -35 -71 -9 0 -15 -9 -15 -23 0 -12 -9 -30 -20 -40 -12 -10 -20 -29
-20 -46 0 -45 -20 -131 -31 -131 -9 0 -12 27 -13 100 -1 34 -2 35 -43 38 -37
3 -43 0 -43 -17 0 -11 -8 -22 -18 -25 -15 -5 -20 -26 -30 -123 -10 -98 -10
-118 1 -125 10 -5 12 -22 9 -62 -3 -43 -1 -57 10 -61 22 -9 5 -95 -22 -114
-11 -7 -20 -17 -20 -22 0 -4 -15 -24 -34 -44 -19 -20 -36 -46 -38 -58 -3 -19
-10 -22 -51 -25 -30 -2 -50 -8 -54 -18 -3 -8 -11 -14 -18 -14 -30 0 -43 -107
-20 -156 16 -35 16 -36 -5 -51 -12 -8 -19 -21 -16 -29 3 -8 1 -14 -4 -14 -5 0
-5 -13 1 -30 6 -16 16 -30 23 -30 8 0 11 -12 8 -35 -2 -19 -8 -35 -13 -35 -9
0 -13 14 -10 36 2 16 -51 25 -67 12 -7 -6 -12 -18 -11 -27 1 -9 -3 -27 -8 -41
-6 -14 -14 -54 -18 -89 -5 -43 -14 -70 -25 -80 -16 -14 -28 -62 -29 -122 -1
-9 -13 -21 -27 -27 -14 -7 -22 -17 -19 -22 3 -6 -3 -10 -14 -10 -16 0 -21 -9
-27 -45 -3 -25 -11 -45 -16 -45 -6 0 -7 7 -4 16 4 9 11 37 18 63 6 25 15 51
20 58 6 7 5 20 -2 33 -10 18 -17 21 -46 15 -36 -6 -84 -47 -84 -70 0 -8 -4
-15 -10 -15 -5 0 -10 -9 -10 -21 0 -14 -5 -19 -14 -16 -10 4 -12 0 -9 -13 5
-20 -17 -50 -36 -50 -6 0 -11 -17 -11 -39 0 -22 -6 -44 -15 -51 -8 -7 -15 -29
-15 -50 0 -32 5 -41 38 -62 20 -14 46 -30 56 -36 19 -9 19 -10 -2 -16 -13 -4
-23 -19 -27 -39 -4 -18 -10 -36 -14 -42 -4 -5 -8 -23 -9 -39 -2 -35 -19 -48
-47 -40 -11 4 -21 7 -22 8 -1 1 2 33 8 71 8 57 7 75 -6 102 -13 28 -21 33 -49
33 -30 0 -33 3 -29 24 6 31 -13 37 -88 29 -52 -5 -60 -9 -65 -29 -7 -28 -44
-33 -67 -10 -7 8 -38 17 -69 21 -52 7 -55 6 -78 -23 -20 -25 -30 -30 -52 -25
-36 7 -78 -4 -78 -21 0 -13 -20 -26 -40 -26 -5 0 -5 12 -1 28 l8 27 -76 1 -77
1 -23 -47 c-22 -45 -25 -47 -42 -32 -12 11 -19 30 -19 54 0 20 -4 40 -10 43
-5 3 -10 19 -10 35 0 43 -23 124 -37 133 -7 4 -13 16 -13 26 0 12 -10 21 -25
25 -17 4 -25 13 -25 27 0 32 -32 91 -52 97 -11 2 -18 14 -18 27 0 13 -6 30
-12 37 -7 7 -13 19 -14 26 -1 6 -2 21 -2 32 -2 16 -8 20 -34 17 -32 -2 -33 -3
-36 -55 -3 -47 0 -54 17 -59 12 -3 21 -10 22 -17 2 -23 -3 -81 -8 -86 -2 -3
-24 -5 -48 -5 -38 0 -44 2 -48 24 -3 16 2 30 13 40 11 9 20 33 22 56 2 32 -1
40 -15 43 -11 2 -25 -5 -33 -16 -7 -11 -30 -22 -52 -26 -22 -3 -44 -12 -51
-19 -24 -29 -71 -8 -71 31 0 37 13 54 42 55 16 1 24 7 21 14 -3 7 7 24 23 38
20 19 38 25 70 25 40 0 44 2 44 24 0 13 7 29 15 36 12 10 15 10 15 -4 0 -14
57 -52 66 -43 10 10 16 97 6 97 -6 0 -11 12 -11 28 -2 51 -4 61 -15 59 -6 -1
-11 5 -11 13 0 8 -5 22 -10 30 -28 43 -38 69 -39 108 -2 24 -8 47 -15 52 -8 4
-10 16 -7 27 8 24 -17 48 -39 39 -9 -3 -15 -18 -15 -36 0 -33 -15 -43 -72 -49
-4 -1 -7 -26 -7 -56 1 -42 5 -55 16 -55 8 0 17 9 20 20 3 13 14 20 29 20 13 0
27 0 31 0 4 0 8 -22 10 -50 2 -35 -1 -48 -10 -45 -6 2 -33 6 -59 9 -39 5 -48
3 -48 -10 0 -8 -8 -18 -17 -21 -10 -4 -29 -17 -42 -30 -13 -13 -30 -23 -37
-23 -8 0 -14 -4 -14 -10 0 -5 -9 -10 -20 -10 -10 0 -23 -7 -28 -16 -5 -9 -13
-15 -18 -14 -5 1 -12 -12 -16 -28 -5 -17 -16 -32 -28 -35 -14 -3 -20 -14 -20
-31 0 -14 -5 -26 -12 -26 -6 0 -28 -8 -49 -17 -30 -14 -38 -24 -41 -48 -3 -28
-6 -30 -45 -33 -42 -3 -43 -4 -43 -37 0 -19 -4 -37 -10 -40 -5 -3 -10 -14 -10
-24 0 -18 -34 -53 -63 -64 -10 -4 -19 -22 -23 -46 -4 -27 -14 -46 -30 -56 -18
-11 -24 -25 -24 -50 0 -46 -17 -88 -32 -79 -6 4 -8 3 -4 -4 8 -13 -4 -93 -13
-87 -4 2 -6 -20 -6 -48 1 -29 -3 -101 -10 -162 -7 -60 -11 -113 -8 -117 8 -15
30 -8 52 16 23 25 24 27 46 236 3 25 7 54 9 65 3 11 5 28 5 38 1 10 5 15 11
12 5 -3 7 0 4 9 -3 8 -1 31 6 51 9 26 17 35 34 35 12 0 26 4 32 9 5 6 10 -10
12 -45 1 -32 -2 -54 -8 -54 -5 0 -10 -9 -10 -20 0 -10 -7 -23 -16 -28 -11 -6
-18 -29 -21 -75 -3 -37 -10 -67 -14 -67 -5 0 -9 -12 -9 -26 0 -15 -7 -32 -17
-39 -19 -14 -31 -148 -15 -168 5 -7 10 -31 11 -54 1 -31 -4 -46 -20 -62 -16
-15 -20 -27 -15 -48 3 -15 6 -72 7 -125 0 -95 1 -98 25 -104 13 -3 24 -12 24
-19 0 -13 58 -27 73 -18 4 3 3 11 -3 18 -6 7 -8 29 -4 53 5 32 2 44 -14 60
-16 16 -19 27 -13 49 8 28 8 28 15 5 6 -17 13 -22 27 -19 10 3 19 2 20 -1 0
-4 3 -16 6 -27 5 -17 10 -61 12 -102 1 -7 8 -13 16 -13 17 0 22 -65 5 -75 -13
-8 -13 -65 0 -65 5 0 10 -25 12 -56 2 -44 8 -60 22 -68 50 -29 59 -46 52 -99
-20 -149 -24 -236 -10 -246 5 -3 10 -23 12 -43 3 -29 -2 -43 -20 -61 -16 -16
-24 -35 -23 -58 0 -28 4 -35 25 -39 32 -6 37 -36 11 -59 -42 -37 -18 -126 32
-119 26 4 40 49 31 102 -4 24 -2 41 5 45 14 9 19 131 6 151 -5 8 -10 37 -12
64 -1 27 -7 54 -12 59 -18 18 -13 72 8 91 23 21 37 101 22 120 -6 7 -13 27
-15 44 -2 17 -11 38 -20 47 -10 11 -14 25 -11 37 4 10 1 25 -5 33 -7 8 -10 22
-6 30 4 10 2 14 -5 9 -8 -5 -10 3 -6 27 9 49 28 235 26 245 -4 17 14 109 23
115 10 6 15 135 6 145 -12 11 -59 -6 -53 -19 4 -7 -1 -3 -9 7 -9 11 -16 35
-16 54 0 22 -4 32 -12 30 -7 -3 -18 1 -25 8 -18 18 -16 54 2 54 11 0 15 11 15
40 0 35 4 42 28 51 54 21 104 10 69 -16 -11 -8 -21 -31 -24 -54 -5 -39 -4 -41
20 -41 17 0 28 7 32 20 3 11 12 20 20 20 15 0 25 31 25 78 0 27 3 32 25 32 18
0 25 -5 25 -20 0 -11 6 -20 13 -20 14 0 54 -59 62 -92 4 -19 -1 -26 -27 -39
-33 -16 -33 -16 -45 -125 -10 -91 -10 -110 2 -116 10 -6 12 -22 8 -66 -3 -31
-10 -59 -14 -62 -14 -10 -7 -121 8 -127 18 -7 16 -30 -7 -103 -15 -47 -17 -67
-9 -82 8 -15 7 -22 -6 -32 -26 -19 -38 -101 -24 -168 13 -56 13 -56 56 -63 46
-7 47 -8 44 -85 -1 -23 -10 -42 -27 -57 -13 -12 -24 -33 -24 -45 0 -13 -9 -31
-20 -41 -11 -9 -20 -26 -20 -37 0 -11 -9 -25 -20 -32 -11 -7 -20 -20 -20 -28
0 -9 -5 -21 -11 -27 -14 -14 10 -43 36 -43 15 0 15 -1 1 -16 -9 -8 -16 -24
-16 -35 0 -11 -7 -19 -16 -19 -29 0 -54 -40 -55 -89 -1 -45 -1 -45 -11 -15 -8
26 -18 33 -53 41 -39 9 -42 8 -37 -9 3 -13 -2 -21 -16 -25 -11 -3 -23 -11 -26
-19 -6 -17 -36 -7 -36 12 0 8 -9 14 -19 14 -10 0 -21 7 -25 15 -7 18 -36 20
-37 3 0 -7 -5 0 -9 16 -5 16 -7 33 -4 38 3 4 -2 5 -11 2 -11 -5 -14 -2 -9 11
4 10 1 21 -7 26 -19 12 -79 11 -79 -1 0 -5 -7 -10 -15 -10 -8 0 -15 5 -15 11
0 7 -12 9 -34 5 -41 -8 -48 0 -50 60 -1 24 -5 47 -9 50 -13 14 -7 35 19 61 22
22 25 32 20 66 -4 24 -18 50 -36 69 -17 16 -30 36 -30 43 0 19 -38 22 -83 7
-21 -7 -43 -10 -48 -7 -5 4 -12 -1 -15 -9 -3 -9 -12 -16 -20 -16 -17 0 -19
-52 -3 -82 6 -11 8 -32 4 -46 -4 -15 -10 -21 -12 -14 -3 6 -12 12 -20 12 -9 0
-13 6 -10 14 8 20 -13 36 -46 36 -21 0 -28 -4 -24 -14 3 -7 -5 -35 -18 -62
-24 -53 -30 -49 -38 25 -3 24 -10 47 -17 51 -6 3 -12 24 -14 44 -2 21 -7 41
-12 45 -5 3 -14 15 -20 25 -16 29 -38 40 -68 32 -22 -5 -26 -10 -20 -29 4 -12
10 -24 15 -27 19 -13 15 -110 -5 -110 -15 0 -39 -54 -29 -64 4 -3 -6 -6 -20
-6 -15 0 -26 3 -26 8 3 20 -3 32 -17 32 -9 0 -14 7 -12 18 3 12 12 16 31 15
18 -1 27 3 27 13 0 8 -4 14 -9 14 -5 0 -5 16 0 38 10 43 4 68 -16 76 -8 3 -15
10 -15 17 0 6 -14 24 -31 40 -17 16 -28 33 -24 39 4 6 1 9 -6 8 -15 -3 -15
158 0 210 13 44 0 86 -27 90 -18 3 -22 10 -22 38 0 27 -4 34 -19 34 -11 0 -23
-5 -26 -10 -11 -17 -24 -1 -18 21 5 19 11 20 51 14 l45 -7 -6 39 c-4 21 -7 44
-7 52 0 9 -9 12 -30 9 -34 -5 -40 11 -13 37 16 17 18 49 11 191 -2 38 16 74
38 74 28 0 44 82 24 120 -7 14 -5 19 10 23 13 3 20 14 20 29 0 18 2 20 10 8 5
-8 6 -19 1 -25 -4 -5 -8 -26 -10 -45 -2 -19 -4 -36 -6 -38 -8 -9 46 -53 62
-50 14 3 18 13 17 48 -1 24 -6 46 -13 48 -19 6 -12 32 14 56 31 29 34 76 5 83
-19 5 -25 16 -21 37 1 4 -10 24 -25 43 -22 30 -25 39 -16 54 7 10 12 28 12 40
0 17 3 19 14 10 16 -14 46 -4 46 15 0 8 4 14 9 14 16 0 22 49 9 70 -14 22 -58
28 -58 7 0 -7 -16 -19 -35 -26 -19 -7 -35 -19 -35 -27 0 -9 -5 -12 -12 -8 -7
4 -8 3 -4 -5 8 -12 -16 -41 -34 -41 -6 0 -22 -12 -36 -27 -13 -14 -26 -24 -28
-22 -8 10 24 242 38 266 8 16 27 57 41 93 14 36 30 74 35 85 10 20 18 52 45
174 8 35 19 68 24 75 5 6 19 43 32 81 12 39 30 82 40 97 11 14 19 33 19 42 0
9 5 16 10 16 6 0 10 8 10 19 0 10 9 21 20 24 12 3 20 14 20 27 0 11 11 31 25
44 38 36 32 87 -11 98 -17 4 -20 2 -16 -14 3 -13 -2 -21 -16 -25 -13 -3 -23
-16 -27 -35 -4 -16 -13 -32 -21 -35 -8 -3 -14 -14 -14 -24 0 -10 -5 -19 -11
-19 -6 0 -9 -5 -7 -12 3 -7 -6 -22 -19 -34 -13 -12 -23 -33 -23 -48 0 -14 -4
-26 -9 -26 -5 0 -14 -13 -21 -30 -7 -16 -16 -30 -21 -30 -4 0 -11 -10 -15 -22
-3 -12 -26 -63 -50 -115 -38 -80 -44 -105 -48 -171 -3 -64 -10 -92 -40 -157
-21 -44 -42 -89 -46 -100 -19 -43 -61 -217 -56 -231 8 -21 -23 -287 -34 -298
-6 -6 -10 -44 -10 -85 0 -42 -5 -119 -11 -171 -10 -91 -22 -274 -20 -295 1 -5
4 -44 7 -85 3 -41 9 -84 13 -95 10 -25 31 -155 31 -194 0 -16 4 -31 9 -33 14
-5 -5 -130 -22 -139 -8 -5 -18 -21 -22 -36 -9 -36 -88 -110 -126 -118 -16 -4
-29 -11 -29 -16 0 -5 -8 -9 -18 -9 -11 0 -34 -7 -51 -16 -23 -11 -46 -15 -75
-11 -27 4 -47 2 -54 -5 -7 -7 -30 -13 -52 -14 -22 -1 -48 -8 -56 -15 -9 -7
-28 -15 -43 -17 -14 -2 -49 -10 -77 -18 -28 -8 -68 -17 -89 -19 -22 -3 -46
-11 -54 -18 -46 -37 -169 -67 -261 -64 -36 2 -80 -1 -99 -6 -36 -9 -122 -15
-273 -18 -49 0 -86 -5 -83 -10 6 -9 -29 -31 -48 -28 -26 3 -35 -2 -40 -21 -3
-13 -14 -20 -30 -20 -14 0 -32 -7 -41 -15 -8 -8 -18 -15 -23 -15 -13 0 -119
-97 -144 -131 -35 -49 -56 -238 -28 -255 5 -3 9 -16 9 -30 0 -13 5 -24 10 -24
6 0 10 -7 10 -15 0 -9 6 -18 14 -21 8 -3 17 -16 20 -30 4 -13 13 -24 21 -24 8
0 33 -12 55 -27 30 -21 41 -37 46 -65 9 -53 61 -100 113 -103 23 -1 41 2 41 7
0 5 19 -6 43 -25 23 -19 56 -39 72 -45 45 -15 105 -52 170 -102 79 -62 134
-100 143 -100 4 0 19 -6 34 -14 14 -8 43 -19 65 -26 21 -6 58 -21 83 -32 52
-23 423 -69 506 -63 27 3 102 7 167 10 143 6 290 28 337 51 19 10 53 32 75 49
22 17 64 46 93 64 134 84 176 202 119 332 -25 55 -87 89 -101 54 -6 -18 -37
-31 -90 -39 -21 -3 -70 -13 -109 -21 -116 -23 -233 -31 -362 -23 -66 4 -183
10 -260 13 -77 3 -149 9 -160 14 -11 5 -54 19 -95 31 -41 13 -104 41 -139 62
-34 21 -69 38 -76 38 -17 0 -64 39 -47 40 6 0 12 7 12 15 0 14 34 55 45 55 3
0 23 17 45 37 51 49 60 56 92 77 l27 18 -9 -34 c-18 -62 -14 -76 27 -84 32 -6
39 -4 55 19 11 15 25 24 33 20 9 -3 15 1 15 9 0 14 77 55 93 50 5 -1 16 7 26
19 13 16 27 20 61 19 168 -6 301 5 313 26 5 8 24 14 46 14 23 0 44 6 52 16 10
13 26 15 74 12 42 -4 67 -1 83 10 17 11 25 12 36 3 8 -7 20 -11 28 -10 26 3
39 -1 33 -11 -3 -5 0 -7 8 -4 8 3 18 1 22 -5 3 -6 23 -11 45 -11 32 0 39 -4
44 -25 5 -19 13 -25 34 -25 45 0 102 -20 102 -35 0 -8 7 -15 15 -15 8 0 15 -4
15 -9 0 -5 18 -11 39 -15 21 -3 41 -12 44 -19 3 -8 34 -20 69 -26 34 -7 70
-19 78 -26 42 -37 124 -75 160 -75 21 0 42 -4 45 -10 3 -5 22 -10 41 -10 25 0
44 -8 67 -30 18 -16 42 -30 54 -30 15 0 29 -12 45 -39 16 -29 30 -40 53 -44
37 -6 85 2 85 14 0 5 6 9 13 9 6 0 22 11 35 25 20 20 27 22 42 13 10 -7 21
-19 23 -29 6 -23 93 -32 124 -12 12 8 30 12 39 9 20 -8 54 11 54 29 0 17 23
19 51 5 24 -13 77 -4 106 18 12 9 24 33 28 52 4 29 24 198 25 222 0 13 40 -5
40 -18 0 -8 7 -14 15 -14 57 0 305 -35 327 -46 32 -16 86 -18 123 -4 26 10 26
9 20 -19 -3 -16 -15 -46 -26 -67 -23 -45 -23 -60 -5 -96 8 -15 12 -37 9 -48
-6 -23 30 -70 54 -70 8 0 12 -4 9 -9 -3 -4 6 -6 20 -3 15 3 30 -1 37 -11 7 -8
24 -17 40 -21 15 -4 27 -13 27 -20 0 -17 22 -26 65 -26 18 0 35 -5 37 -10 5
-17 194 -22 233 -6 18 8 36 12 39 9 11 -11 86 9 86 23 0 9 4 12 10 9 17 -11
48 14 55 45 7 32 22 39 31 15 4 -8 12 -15 19 -15 7 0 15 -5 17 -11 2 -6 24
-12 48 -13 34 -2 46 -6 48 -20 2 -9 20 -33 40 -51 36 -34 62 -44 62 -25 0 5 6
7 13 4 8 -3 25 6 38 20 21 22 25 23 41 10 13 -12 29 -14 72 -9 50 7 57 11 77
44 19 32 21 45 15 131 -7 119 -45 247 -97 325 -43 65 -78 95 -113 95 -42 1
-71 28 -79 73 -10 63 39 453 63 499 5 9 19 85 30 170 12 84 28 167 35 183 15
36 33 111 34 143 0 53 42 282 56 309 l15 28 0 -28 c0 -15 6 -30 14 -33 18 -7
66 24 66 42 0 7 9 29 21 48 13 23 25 72 34 143 12 92 18 110 37 123 12 8 29
23 37 33 9 9 19 17 24 17 19 0 67 60 67 84 0 14 3 26 8 26 10 0 29 46 43 105
6 28 14 57 17 65 3 8 6 20 8 25 3 10 21 62 34 100 14 39 41 182 60 324 11 79
27 158 36 177 12 25 15 51 10 102 -3 38 -3 72 0 75 3 3 17 1 30 -5 18 -9 28
-8 36 0 17 17 18 112 2 146 -8 16 -14 35 -14 43 0 7 -4 13 -9 13 -14 0 -23 53
-15 84 3 14 12 26 20 26 31 0 47 83 19 104 -8 6 -16 22 -18 36 -2 14 -7 32
-11 42 -9 19 20 81 34 73 6 -4 10 -12 10 -18 0 -13 56 -67 70 -67 24 0 9 116
-22 165 -3 6 -9 26 -13 45 -4 19 -11 37 -15 40 -9 5 -18 74 -25 195 -7 104 20
222 67 293 31 47 60 112 51 112 -3 0 -1 6 6 13 13 17 11 119 -3 129 -6 4 -26
8 -44 8 -30 0 -32 -2 -26 -25z m-212 -1159 c7 -39 -16 -121 -35 -122 -33 -2
-39 -5 -39 -14 0 -5 11 -12 25 -16 19 -5 25 -13 25 -34 0 -19 -6 -31 -19 -35
-28 -9 -35 -101 -10 -137 15 -21 17 -32 9 -53 -6 -15 -19 -29 -30 -32 -25 -7
-28 -67 -5 -80 8 -5 15 -20 15 -33 -1 -51 -5 -80 -12 -80 -5 0 -8 -11 -8 -25
0 -14 -4 -25 -10 -25 -5 0 -10 -17 -10 -37 0 -38 -14 -38 -16 0 -1 12 -3 41
-5 65 -1 24 -6 45 -11 48 -4 3 -8 16 -8 30 0 14 -6 27 -13 30 -11 4 -11 20 -2
88 10 78 10 83 -7 78 -14 -3 -18 2 -18 26 0 40 9 62 25 62 7 0 16 6 19 13 3 6
4 -8 3 -33 -2 -42 0 -45 24 -48 24 -3 26 0 32 48 6 53 1 84 -14 74 -14 -8 3
29 24 51 18 19 18 20 -2 37 -16 12 -19 23 -15 47 4 17 10 28 15 26 11 -8 27
25 35 72 7 48 30 53 38 9z m-201 -633 c-11 -121 -11 -163 -2 -163 6 0 7 -5 3
-12 -4 -7 -3 -8 4 -4 6 3 16 -3 22 -15 9 -16 19 -20 45 -17 19 2 31 0 29 -4
-3 -4 4 -8 15 -8 16 0 21 -6 21 -25 0 -14 -5 -25 -11 -25 -5 0 -7 -4 -4 -10 3
-5 -1 -10 -9 -10 -9 0 -16 -6 -16 -12 -1 -8 -6 -6 -14 5 -16 21 -56 23 -56 2
0 -8 -4 -15 -10 -15 -5 0 -10 -15 -10 -34 0 -18 -7 -39 -15 -46 -8 -7 -15 -27
-15 -45 0 -43 -9 -65 -26 -65 -8 0 -14 -10 -14 -25 0 -30 -20 -75 -33 -75 -5
0 -6 -15 -3 -35 6 -28 4 -35 -9 -35 -8 0 -15 -5 -15 -10 0 -6 -3 -10 -7 -9
-22 3 -53 -16 -53 -32 0 -11 -4 -19 -9 -19 -4 0 -12 -36 -15 -80 -4 -44 -11
-82 -16 -85 -5 -3 -6 17 -2 47 4 29 7 73 7 98 0 40 -2 45 -22 44 -13 0 -23 5
-23 13 0 7 -8 13 -18 13 -18 0 -34 -32 -47 -100 -4 -19 -12 -38 -17 -41 -7 -4
-6 -20 2 -45 7 -22 12 -41 11 -43 -2 -2 3 -7 9 -11 9 -5 10 -22 6 -54 -4 -27
-11 -44 -17 -40 -6 3 -13 -3 -16 -15 -3 -11 -9 -18 -14 -15 -5 3 -7 9 -4 14 3
5 -1 25 -9 44 -8 19 -12 44 -9 56 7 25 -10 40 -46 40 -21 0 -23 3 -17 30 4 22
2 30 -9 30 -22 0 -18 37 5 62 11 12 20 29 20 38 0 17 33 50 51 50 5 0 7 5 4
10 -3 6 1 10 10 10 8 0 18 7 21 15 4 8 11 15 17 15 20 0 76 44 81 65 3 11 -1
29 -9 41 -7 12 -11 31 -8 43 5 19 2 22 -18 19 -37 -6 -69 -27 -69 -45 0 -9 -5
-31 -11 -48 -10 -25 -16 -31 -35 -27 -32 6 -57 -11 -69 -47 l-10 -31 -38 26
c-31 20 -38 31 -33 47 3 12 6 37 6 55 0 22 5 32 15 32 8 0 15 -4 15 -10 0 -17
48 -11 62 8 7 10 20 21 29 24 14 6 39 86 39 128 0 11 9 24 20 30 14 7 20 21
20 44 l0 34 46 -6 c25 -2 49 -1 53 4 10 15 69 45 81 42 6 -2 20 17 30 42 11
25 19 39 19 33 1 -7 12 -13 26 -13 20 0 25 5 25 27 0 28 16 88 31 113 5 8 13
25 19 38 14 34 18 27 13 -25z m-2284 -172 c13 -23 -6 -78 -29 -84 -11 -3 -23
-28 -34 -68 -23 -87 -36 -117 -51 -122 -7 -3 -15 -21 -19 -41 -4 -19 -14 -41
-24 -48 -9 -7 -18 -22 -19 -33 -1 -21 -11 -85 -19 -122 -2 -12 -13 -24 -23
-28 -11 -3 -22 -14 -24 -23 -3 -9 -5 -3 -6 13 -1 39 15 106 27 114 20 13 31
50 37 129 4 45 11 84 15 87 4 2 5 16 3 30 -7 34 5 75 21 75 9 0 17 15 21 38 6
35 9 38 34 34 23 -3 31 2 49 32 25 41 28 43 41 17z m807 -360 c10 -22 25 -41
33 -41 9 0 26 -3 37 -6 16 -4 23 0 27 15 3 13 13 21 26 21 22 0 24 -5 21 -57
-1 -18 3 -33 9 -33 6 0 11 -9 11 -20 0 -11 7 -20 16 -20 10 0 13 -6 9 -19 -4
-15 1 -20 30 -25 24 -5 35 -12 35 -25 0 -10 3 -21 7 -25 4 -4 8 -13 9 -19 0
-7 2 -19 2 -27 2 -16 54 -40 86 -40 9 0 15 -3 13 -7 -8 -12 47 -10 56 2 4 5 6
-6 3 -25 -3 -19 -8 -57 -11 -83 -6 -44 -8 -47 -20 -30 -10 13 -17 15 -25 7
-15 -15 -50 -6 -50 12 0 9 -12 14 -35 14 -20 0 -35 -5 -35 -11 0 -8 -17 -10
-55 -6 -52 5 -57 4 -83 -24 -25 -27 -29 -28 -47 -14 -19 14 -19 16 -2 26 9 5
17 16 17 22 0 7 9 20 20 30 20 17 27 47 11 47 -5 0 -12 14 -16 30 -4 17 -11
30 -16 30 -6 0 -7 4 -4 10 3 5 -5 12 -19 16 -15 3 -23 11 -20 19 3 7 -4 16
-15 20 -12 3 -21 15 -21 25 0 10 -4 21 -9 24 -11 7 -24 77 -26 146 -1 30 -7
68 -13 83 -16 38 -15 40 7 18 10 -10 27 -37 37 -60z m829 -143 c10 -12 14 -47
5 -53 -16 -10 -12 -60 8 -78 10 -9 37 -19 61 -23 l43 -7 -7 -63 -7 -64 30 0
c36 0 53 -18 47 -51 -3 -14 -6 -42 -7 -62 -2 -28 -7 -37 -20 -37 -10 0 -18 7
-18 15 0 8 -7 15 -16 15 -8 0 -12 4 -9 10 3 6 -1 7 -9 4 -9 -3 -29 -1 -45 4
-16 6 -47 8 -70 5 -37 -5 -43 -10 -65 -54 -26 -53 -24 -101 6 -107 25 -5 68
16 62 31 -3 8 6 18 21 25 14 6 25 16 25 22 0 5 5 10 11 10 5 0 7 -4 4 -10 -3
-5 0 -7 8 -4 10 4 16 -5 21 -30 6 -30 11 -36 32 -36 22 0 25 -4 22 -32 -3 -28
0 -33 21 -36 13 -2 27 2 32 9 5 9 11 10 21 2 9 -8 17 -8 28 0 21 17 23 42 5
57 -8 7 -15 21 -15 31 0 11 -6 19 -12 19 -8 0 -6 5 4 10 9 6 28 9 42 8 20 -2
24 -7 21 -23 -7 -33 -25 -218 -24 -245 0 -14 -4 -45 -11 -70 -24 -96 -32 -140
-49 -270 -10 -74 -27 -182 -39 -240 -49 -246 -87 -525 -75 -555 8 -21 57 -18
78 5 16 18 18 18 44 2 14 -9 37 -27 50 -40 13 -13 29 -21 36 -18 24 9 83 -107
100 -197 2 -9 7 -22 10 -28 4 -5 4 -52 0 -103 -7 -91 -8 -93 -32 -92 -23 1
-25 5 -28 61 -7 120 -33 225 -58 225 -32 0 -68 -79 -48 -104 6 -7 13 -48 17
-90 5 -65 3 -81 -12 -97 -9 -10 -22 -19 -29 -19 -19 0 -47 37 -49 63 0 14 -5
23 -10 19 -6 -3 -6 3 -1 14 5 10 9 67 11 127 2 106 2 107 -23 113 -13 4 -26 5
-28 2 -2 -2 -7 -55 -10 -117 -3 -62 -8 -117 -11 -122 -11 -18 -35 -8 -78 34
-41 39 -44 45 -43 94 1 34 -5 58 -15 70 -8 10 -13 23 -11 30 2 6 -3 23 -11 36
-9 13 -13 26 -10 30 3 3 -3 3 -15 0 -15 -4 -21 -1 -21 11 0 8 -11 23 -25 32
-14 9 -25 22 -25 28 0 17 -64 38 -95 30 -18 -4 -31 -18 -42 -46 -15 -37 -41
-48 -35 -14 2 9 -4 19 -12 22 -8 3 -17 17 -21 31 -4 19 -1 29 15 40 23 16 25
35 8 66 -14 25 -13 22 -27 97 -16 82 -20 162 -9 180 11 17 -8 169 -36 293 -8
37 -20 113 -26 170 -6 56 -13 114 -16 129 -5 23 -2 26 15 21 16 -4 22 1 27 22
9 35 -10 75 -36 75 -13 0 -20 7 -20 19 0 21 -22 33 -44 25 -17 -7 -24 -48 -15
-85 6 -23 4 -25 -17 -21 -13 2 -26 13 -30 24 -8 28 -46 20 -55 -12 -4 -14 -8
-43 -9 -65 -1 -22 -4 -33 -7 -25 -3 8 -12 22 -19 30 -19 22 -13 75 9 74 9 -1
17 3 17 10 0 6 3 21 6 34 5 16 2 22 -10 22 -9 0 -16 7 -16 15 0 10 -10 15 -31
15 -29 0 -30 2 -28 38 1 20 -2 48 -7 62 -5 14 -9 45 -8 70 3 85 4 86 13 71 5
-8 7 -20 4 -28 -3 -7 0 -27 8 -44 11 -28 16 -31 45 -26 30 5 33 3 39 -26 14
-68 13 -67 69 -67 28 0 57 5 64 12 9 9 12 9 12 0 0 -7 7 -12 16 -12 9 0 18 -9
21 -19 3 -12 17 -21 37 -25 19 -4 35 -15 41 -29 6 -12 20 -23 32 -25 17 -3 26
4 37 30 8 18 15 27 15 21 1 -7 8 -13 16 -13 14 0 15 -19 10 -157 -3 -87 -9
-171 -12 -188 -3 -16 -5 -93 -4 -170 1 -132 -5 -215 -30 -413 -9 -63 -8 -86 1
-97 18 -22 47 -18 64 8 17 27 34 165 40 342 3 72 10 173 15 226 6 53 11 141
12 195 0 55 5 130 10 168 7 54 6 73 -4 85 -11 12 -12 35 -6 101 4 47 8 90 8
97 1 6 7 18 15 25 9 9 22 95 40 253 34 309 28 285 72 275 19 -5 37 -10 39 -12z
m-255 -111 c0 -13 5 -28 11 -34 11 -11 2 -63 -11 -63 -9 0 -10 -49 -1 -54 3
-2 4 -29 3 -59 -3 -50 -6 -55 -30 -60 -20 -4 -27 -12 -28 -31 -1 -16 3 -26 12
-26 10 0 11 -7 4 -27 -12 -39 -19 -123 -10 -123 4 0 10 -9 13 -20 3 -11 1 -20
-5 -20 -6 0 -8 -9 -5 -19 5 -21 -10 -31 -44 -31 -12 0 -17 5 -12 15 3 9 -2 22
-12 29 -10 7 -15 18 -11 25 4 6 0 14 -8 17 -17 7 -22 34 -7 34 5 0 12 9 16 19
3 10 15 21 25 24 16 4 20 14 20 45 0 23 4 43 8 46 4 2 9 42 11 88 1 45 7 88
13 95 6 7 8 19 5 28 -4 8 -2 17 3 20 6 4 10 28 10 56 0 37 4 49 15 49 9 0 15
-9 15 -23z m-1061 -148 c16 -46 16 -47 -44 -59 l-55 -11 0 -60 c0 -49 3 -59
17 -59 32 0 103 35 109 53 3 10 15 17 30 17 13 0 27 1 31 3 4 1 9 -6 11 -15 3
-15 -4 -18 -32 -18 -32 0 -36 -3 -36 -26 0 -19 -7 -28 -30 -37 -18 -7 -30 -19
-30 -29 0 -10 -4 -18 -10 -18 -5 0 -10 -10 -10 -23 0 -12 -6 -31 -14 -42 -7
-11 -17 -31 -21 -44 -4 -14 -16 -34 -27 -45 -15 -17 -18 -29 -13 -60 3 -22 2
-42 -3 -45 -16 -10 -1 -67 21 -81 19 -12 24 -9 60 31 24 27 37 50 34 61 -4 13
1 18 17 18 21 0 22 -3 16 -52 -8 -58 -18 -88 -30 -88 -10 0 -40 -87 -32 -94 3
-3 -2 -6 -11 -6 -8 0 -18 -8 -20 -17 -3 -10 -5 -4 -4 12 2 26 -2 30 -26 33
-20 3 -27 8 -23 18 4 10 2 12 -6 8 -8 -5 -9 2 -5 24 5 24 3 32 -8 32 -8 0 -15
5 -15 11 0 7 -7 17 -16 23 -14 10 -13 14 4 34 12 14 22 45 26 85 11 100 17
127 31 127 13 0 26 56 18 78 -3 6 -16 12 -30 12 -13 0 -22 4 -19 8 3 5 8 60
11 122 3 63 7 116 9 118 2 2 7 -10 11 -27 10 -48 43 -42 51 8 6 36 13 44 46
50 3 0 11 -13 17 -30z m801 -733 c1 -10 12 -93 25 -181 3 -16 7 -35 9 -41 2
-6 -9 -21 -25 -33 -23 -17 -29 -29 -29 -60 0 -21 6 -54 14 -72 7 -19 14 -59
15 -89 2 -61 20 -213 27 -219 2 -2 -1 -10 -7 -17 -16 -19 -21 -112 -7 -138 6
-11 18 -26 27 -33 12 -9 13 -15 5 -23 -9 -9 -15 -4 -25 20 -11 26 -19 31 -40
28 -23 -4 -27 1 -37 38 -9 34 -9 49 3 78 9 20 22 36 29 36 8 0 18 10 21 21 5
16 0 28 -18 45 -15 13 -33 24 -41 24 -17 0 -49 -53 -39 -64 4 -3 -8 -6 -25 -6
-18 0 -32 -4 -32 -9 0 -5 -9 -11 -20 -14 -15 -4 -20 0 -20 13 0 10 -6 20 -13
23 -7 2 -23 25 -35 51 -13 25 -27 46 -31 46 -4 0 -8 7 -8 15 0 8 6 15 14 15 7
0 13 6 13 14 0 23 12 25 55 10 22 -7 47 -11 56 -8 59 18 37 226 -28 267 -16
10 -6 95 14 118 10 12 12 27 6 55 -5 22 -7 53 -5 69 l3 30 75 1 c46 0 74 -3
74 -10z m-2480 -351 c0 -15 6 -25 14 -25 9 0 14 -14 14 -43 1 -24 5 -54 10
-67 7 -20 5 -28 -13 -42 -13 -10 -34 -22 -48 -27 -20 -8 -26 -18 -29 -48 -2
-21 -8 -38 -15 -38 -7 0 -18 -6 -24 -12 -7 -7 -28 -13 -46 -13 -20 0 -41 -8
-53 -20 -11 -11 -33 -20 -50 -20 -16 0 -30 -4 -30 -10 0 -5 -12 -13 -27 -16
-16 -4 -37 -13 -48 -20 -26 -19 -65 -18 -65 1 0 33 -104 50 -133 21 -7 -8 -25
-16 -38 -18 -13 -1 -29 -9 -35 -17 -6 -8 -20 -12 -32 -9 -13 4 -20 1 -19 -5 1
-6 -8 -16 -20 -22 -13 -5 -23 -15 -23 -22 0 -7 -11 -13 -25 -13 -14 0 -25 6
-25 13 0 23 -38 38 -80 31 -22 -4 -40 -10 -40 -15 0 -5 -6 -9 -14 -9 -8 0 -22
-8 -32 -17 -9 -10 -22 -18 -28 -19 -6 0 -17 -2 -23 -2 -7 -1 -13 -9 -13 -17 0
-8 -14 -17 -35 -21 -19 -3 -35 -12 -35 -19 0 -7 -7 -15 -14 -18 -8 -3 -18 -22
-22 -41 -3 -20 -10 -36 -15 -36 -5 0 -12 -1 -16 -2 -3 -2 -7 26 -7 62 l-1 65
-37 3 c-36 3 -37 2 -48 -38 -13 -48 -26 -45 -35 10 -6 33 -12 41 -41 50 -63
21 -108 -30 -83 -93 7 -18 19 -39 26 -48 8 -9 15 -34 16 -56 3 -52 41 -100 87
-109 19 -3 41 -10 49 -14 8 -4 25 -3 37 2 16 7 28 6 45 -5 13 -9 56 -28 94
-43 39 -15 77 -33 85 -40 9 -7 47 -23 85 -35 39 -12 79 -25 90 -30 41 -16 83
-23 175 -28 89 -6 95 -7 98 -28 2 -15 10 -23 23 -23 11 0 27 -4 37 -9 47 -24
193 -50 285 -52 74 -1 99 14 94 56 -2 17 -10 20 -62 20 -200 2 -223 16 -33 21
68 1 150 8 183 14 58 11 114 22 184 35 19 3 41 10 51 15 27 14 55 1 70 -33 21
-48 15 -73 -32 -127 -40 -46 -42 -48 -52 -28 -14 27 -30 32 -48 15 -7 -8 -22
-14 -33 -14 -100 2 -146 -4 -152 -19 -11 -28 11 -49 53 -50 22 0 54 -1 73 -2
l33 -2 -49 -33 c-58 -39 -137 -62 -248 -72 -16 -2 -61 -6 -100 -10 -93 -10
-299 -7 -405 5 -47 5 -110 10 -141 10 -69 0 -90 6 -241 74 -20 9 -42 16 -48
16 -19 0 -146 77 -187 114 -13 11 -23 16 -23 11 0 -4 -8 -1 -17 7 -10 9 -47
28 -83 43 -44 19 -84 47 -124 86 -41 41 -69 61 -94 65 -20 4 -45 18 -57 30
-12 13 -26 24 -31 24 -15 0 -104 89 -104 104 0 8 -7 19 -15 26 -9 7 -14 21
-13 30 2 9 -2 23 -9 31 -19 23 -5 137 18 150 11 5 19 16 19 24 0 13 79 85 94
85 3 0 28 15 54 33 39 28 52 32 77 25 23 -6 36 -3 58 13 20 14 36 19 54 14 14
-3 31 -1 38 5 9 8 20 7 39 -1 21 -10 31 -10 51 1 16 8 60 13 122 13 56 0 104
5 112 11 7 6 52 11 99 11 57 1 87 5 90 13 2 7 21 12 43 12 21 0 39 4 39 9 0 5
16 12 35 15 19 4 35 11 35 17 0 6 33 9 89 7 62 -2 87 0 84 8 -2 7 19 13 58 18
34 3 68 11 76 18 8 7 39 12 68 11 34 -1 58 4 65 12 6 7 19 11 28 8 10 -2 31 1
47 8 38 16 40 16 69 18 25 1 107 73 119 104 10 26 27 20 27 -8z m1963 -306 c9
0 17 -5 17 -11 0 -5 6 -8 14 -5 8 3 17 1 19 -6 3 -9 10 -9 30 2 30 16 112 7
134 -14 7 -8 13 -25 13 -39 0 -14 5 -26 10 -26 6 0 10 -22 10 -49 0 -41 -4
-51 -20 -56 -11 -3 -20 -14 -20 -23 0 -12 -3 -13 -11 -5 -14 14 9 73 28 73 18
0 16 6 -13 35 -31 31 -52 26 -60 -13 -6 -28 -7 -29 -45 -18 -32 8 -42 8 -48
-3 -9 -14 -51 -7 -51 9 0 5 -13 11 -30 15 -21 5 -30 13 -30 26 0 14 -7 19 -25
19 -14 0 -25 -4 -25 -10 0 -5 -5 -10 -11 -10 -6 0 -9 7 -5 15 3 8 2 14 -2 14
-24 -4 -29 3 -23 34 5 24 12 32 28 32 12 0 28 6 35 13 8 8 23 11 38 7 14 -3
33 -6 43 -6z m-651 -39 c6 0 17 -8 24 -17 11 -15 16 -16 34 -5 24 15 55 8 64
-13 3 -8 12 -15 19 -15 8 0 19 -11 25 -25 7 -14 19 -28 27 -31 8 -4 15 -15 15
-26 0 -17 5 -19 28 -16 17 2 34 -2 42 -10 16 -18 24 -176 10 -203 -15 -27 -28
-24 -22 6 3 16 -2 33 -13 45 -9 10 -14 24 -10 30 7 11 -15 52 -42 78 -7 7 -13
20 -13 28 0 8 -8 14 -17 14 -10 0 -28 3 -40 6 -18 5 -25 1 -32 -17 -5 -13 -18
-33 -30 -43 -21 -19 -30 -76 -11 -76 13 0 13 -37 0 -45 -5 -3 -17 10 -27 29
-10 22 -24 36 -35 36 -11 0 -15 5 -12 15 4 9 -3 23 -15 34 -11 10 -21 23 -21
30 0 6 -9 11 -20 11 -11 0 -20 -5 -20 -10 0 -6 -11 -15 -25 -20 -20 -8 -25
-16 -25 -45 0 -19 -5 -35 -11 -35 -5 0 -7 5 -4 10 9 14 -44 32 -72 25 -13 -3
-23 -1 -23 5 0 5 -5 10 -11 10 -6 0 -23 9 -39 20 -15 11 -30 17 -34 13 -3 -3
-6 -1 -6 6 0 18 -56 71 -75 71 -19 0 -45 -23 -45 -39 0 -6 -7 -11 -15 -11 -8
0 -15 -4 -15 -10 0 -5 -11 -10 -25 -10 -16 0 -25 -6 -25 -15 0 -21 -44 -19
-66 2 -20 20 -79 43 -111 43 -19 0 -23 6 -23 29 0 23 5 30 25 33 14 3 25 1 25
-3 0 -5 7 -9 15 -9 8 0 15 -9 15 -20 0 -11 3 -20 8 -21 4 0 27 -3 51 -5 47 -6
61 4 61 43 0 15 -11 28 -32 40 l-33 18 30 3 c21 3 34 -2 48 -19 16 -20 20 -21
43 -8 23 12 28 11 39 -4 15 -21 45 -22 45 -2 0 8 4 15 10 15 5 0 18 9 29 21
13 14 21 17 26 9 4 -6 29 -11 59 -10 70 2 76 1 76 -11 0 -39 81 -54 100 -19 6
11 17 20 25 20 8 0 18 12 21 28 8 32 37 69 42 53 2 -6 8 -11 14 -11z m1308
-345 c32 -17 71 -20 86 -6 5 4 31 11 57 15 44 5 48 4 57 -19 5 -14 14 -25 20
-25 5 0 10 -9 10 -20 0 -11 6 -20 14 -20 9 0 12 -7 9 -19 -3 -10 0 -22 6 -25
6 -4 11 -23 11 -42 0 -36 -1 -36 -64 -37 -26 -1 -29 3 -32 42 -4 44 -30 90
-51 91 -25 0 -62 -23 -67 -44 -3 -11 -6 -34 -6 -51 0 -48 -11 -75 -30 -75 -20
0 -33 66 -31 166 0 43 -4 65 -14 74 -8 7 -14 20 -14 29 1 13 2 13 6 -2 2 -9
17 -24 33 -32z"/>
<path d="M1552 1988 c-24 -24 -12 -46 44 -79 30 -19 94 -62 140 -96 82 -60
106 -68 118 -37 6 16 -10 54 -22 54 -5 0 -17 8 -28 18 -67 60 -207 152 -232
152 -4 0 -13 -5 -20 -12z"/>
<path d="M1763 1973 c-7 -2 -13 -14 -13 -26 1 -22 88 -70 335 -182 44 -21 117
-55 163 -77 46 -22 85 -38 86 -36 10 10 15 44 8 54 -4 6 -32 23 -62 39 -30 15
-62 32 -70 37 -8 4 -26 12 -40 18 -14 5 -38 17 -55 26 -16 9 -64 35 -105 57
-41 22 -79 43 -85 47 -14 9 -130 50 -141 49 -5 0 -15 -3 -21 -6z"/>
<path d="M4975 6368 c-82 -79 -136 -125 -219 -183 -88 -61 -103 -85 -66 -105
17 -9 32 -1 104 54 47 36 95 70 108 77 13 7 32 21 44 33 11 12 44 43 72 69 56
52 63 70 33 87 -27 14 -31 12 -76 -32z"/>
<path d="M5024 6192 c-28 -26 -85 -78 -126 -117 -77 -71 -95 -99 -79 -124 7
-11 15 -11 47 -1 22 7 46 18 54 25 8 7 30 20 49 30 28 14 32 21 28 43 -4 21 3
34 36 65 23 21 52 45 65 54 14 10 22 25 22 44 0 44 -36 37 -96 -19z"/>
<path d="M5907 6163 c-4 -3 -7 -12 -7 -19 0 -7 -18 -51 -40 -98 -45 -96 -49
-121 -20 -129 25 -7 38 12 80 113 17 41 35 83 40 92 5 10 7 24 4 33 -6 15 -45
21 -57 8z"/>
<path d="M5138 6095 c-27 -32 -37 -42 -134 -130 -142 -129 -154 -143 -154
-177 0 -26 3 -29 27 -26 16 2 32 12 39 25 6 13 37 46 70 74 172 151 196 176
192 210 -3 37 -20 47 -40 24z"/>
<path d="M3955 5969 c-21 -17 -48 -42 -60 -56 -36 -48 -140 -150 -162 -162
-26 -13 -29 -29 -9 -56 13 -18 14 -18 50 4 20 13 42 28 49 35 6 6 46 40 87 75
41 35 82 73 90 84 8 10 23 27 33 35 20 19 22 43 5 60 -18 18 -39 13 -83 -19z"/>
<path d="M5210 5882 c-14 -15 -49 -47 -79 -72 -29 -25 -74 -64 -99 -87 -26
-24 -50 -43 -54 -43 -14 0 -8 -51 6 -56 19 -7 37 3 94 54 26 23 79 69 117 103
82 72 89 82 75 109 -14 27 -30 25 -60 -8z"/>
<path d="M4136 5782 c-4 -11 -32 -42 -64 -70 -163 -142 -188 -177 -144 -201
14 -7 35 8 114 84 53 51 107 100 119 108 15 11 22 27 23 54 1 32 -3 39 -21 41
-14 2 -23 -3 -27 -16z"/>
<path d="M3303 4433 c-15 -5 -17 -54 -4 -68 12 -13 -46 -215 -74 -261 -9 -13
-10 -26 -3 -37 24 -44 79 3 92 78 4 22 18 75 32 118 40 125 21 197 -43 170z"/>
<path d="M3536 4392 c-3 -5 -8 -29 -12 -53 -7 -44 -17 -73 -59 -164 -26 -55
-55 -123 -74 -171 -18 -45 -11 -88 14 -92 22 -3 37 23 80 143 22 60 44 113 71
172 8 17 14 36 14 42 0 6 5 20 12 30 16 26 -1 95 -24 99 -9 2 -19 -1 -22 -6z"/>
</g>
</svg>
