<?xml version="1.0" standalone="no"?>
<!DOCTYPE svg PUBLIC "-//W3C//DTD SVG 20010904//EN"
 "http://www.w3.org/TR/2001/REC-SVG-20010904/DTD/svg10.dtd">
<svg version="1.0" xmlns="http://www.w3.org/2000/svg"
 width="1277.000000pt" height="972.000000pt" viewBox="0 0 1277.000000 972.000000"
 preserveAspectRatio="xMidYMid meet">
<metadata>
Created by potrace 1.16, written by Peter Selinger 2001-2019
</metadata>
<g transform="translate(0.000000,972.000000) scale(0.100000,-0.100000)"
fill="#000000" stroke="none">
<path d="M4300 8470 c0 -53 -4 -72 -15 -76 -8 -4 -12 -10 -9 -15 3 -5 0 -9 -5
-9 -7 0 -11 -24 -11 -60 0 -53 -2 -60 -19 -60 -14 0 -21 -8 -23 -27 -2 -20 -9
-29 -25 -31 -23 -3 -23 -6 -23 -138 0 -110 -3 -136 -15 -140 -11 -5 -15 -22
-15 -68 0 -57 -2 -64 -25 -74 -24 -11 -25 -16 -25 -90 0 -43 -5 -83 -11 -89
-7 -7 -9 -30 -4 -65 4 -29 9 -125 11 -213 5 -154 6 -161 27 -170 l22 -10 -2
-362 c-2 -315 -1 -363 12 -363 11 0 15 -12 15 -45 0 -26 12 -76 30 -120 17
-42 30 -89 30 -105 0 -17 5 -30 10 -30 6 0 10 -13 10 -29 0 -16 6 -31 15 -35
8 -3 15 -15 15 -26 0 -18 23 -64 40 -80 3 -3 7 -16 9 -30 1 -13 11 -34 21 -47
9 -12 23 -50 30 -85 7 -35 19 -74 25 -88 19 -38 45 -169 45 -226 0 -59 -16
-113 -39 -134 -10 -8 -28 -32 -42 -53 -13 -20 -32 -40 -41 -43 -9 -3 -20 -14
-23 -25 -4 -10 -11 -19 -16 -19 -6 0 -8 -4 -4 -9 3 -5 -8 -18 -24 -27 -17 -10
-31 -27 -33 -37 -2 -11 -11 -25 -22 -31 -32 -19 -172 -168 -227 -241 -28 -38
-57 -73 -63 -77 -6 -4 -7 -8 -2 -8 4 0 -3 -15 -18 -34 -14 -19 -35 -59 -46
-89 -18 -48 -60 -105 -60 -81 0 5 -5 2 -10 -6 -6 -9 -10 -116 -10 -251 0 -201
-2 -238 -15 -243 -8 -3 -15 -14 -15 -25 0 -11 -10 -26 -22 -32 -27 -14 -45
-35 -58 -66 -5 -13 -18 -23 -30 -23 -15 0 -20 -7 -20 -24 0 -14 -6 -31 -12
-38 -7 -7 -19 -25 -27 -40 -8 -16 -20 -28 -28 -28 -8 0 -13 -12 -13 -30 0 -20
-5 -30 -15 -30 -11 0 -15 -12 -15 -44 0 -41 -24 -106 -42 -114 -5 -2 -8 -43
-8 -91 0 -61 -4 -93 -15 -107 -8 -10 -15 -35 -15 -54 0 -40 -15 -61 -36 -53
-9 3 -14 -2 -14 -15 0 -33 -11 -51 -26 -45 -10 4 -14 -3 -14 -21 0 -15 -7 -29
-16 -33 -8 -3 -20 -16 -25 -29 -4 -13 -15 -24 -24 -24 -8 0 -15 -9 -15 -20 0
-10 -9 -24 -20 -30 -11 -6 -20 -20 -20 -31 0 -11 -8 -23 -17 -26 -21 -7 -69
-43 -59 -43 4 0 2 -9 -4 -20 -6 -11 -17 -20 -24 -20 -8 0 -16 -7 -20 -15 -3
-8 -15 -15 -26 -15 -11 0 -20 -5 -20 -11 0 -6 -7 -9 -15 -5 -8 3 -15 2 -15 -3
0 -5 -8 -12 -17 -15 -35 -13 -73 -37 -73 -47 0 -5 -7 -9 -15 -9 -8 0 -15 -5
-15 -10 0 -6 -11 -15 -24 -20 -24 -9 -25 -10 -28 -170 -2 -110 -7 -163 -15
-168 -6 -4 -13 -30 -15 -57 -3 -43 -6 -50 -25 -53 -18 -3 -23 -10 -23 -33 0
-18 -5 -29 -14 -29 -9 0 -16 -12 -18 -27 -2 -20 -9 -29 -25 -31 -16 -2 -23
-10 -23 -26 0 -12 -7 -31 -15 -42 -8 -10 -15 -26 -15 -35 0 -8 -11 -26 -25
-39 -17 -16 -25 -34 -25 -58 0 -35 -42 -92 -67 -92 -7 0 -13 -9 -13 -20 0 -13
-7 -20 -19 -20 -10 0 -21 -7 -25 -15 -3 -8 -12 -15 -21 -15 -8 0 -14 -3 -14
-7 1 -5 1 -56 0 -115 -1 -101 -2 -108 -21 -108 -18 0 -20 -7 -20 -66 0 -57 3
-67 20 -71 13 -3 20 -14 20 -29 0 -15 6 -24 15 -24 9 0 18 -7 21 -15 4 -8 13
-15 20 -15 8 0 17 -7 20 -15 5 -13 34 -15 173 -15 117 0 171 4 179 12 9 9 12
9 12 0 0 -8 20 -12 59 -12 33 0 63 -5 66 -11 4 -6 13 -8 21 -5 8 3 14 1 14 -4
0 -6 17 -10 37 -10 28 0 43 7 60 27 23 26 23 28 23 338 l0 312 25 13 c21 11
25 21 25 58 0 35 4 45 19 49 12 3 21 17 25 38 4 18 13 36 21 39 9 3 15 9 14
13 -1 4 -1 23 0 41 1 25 5 32 21 32 17 0 20 7 20 39 0 31 4 41 20 46 14 4 20
15 20 36 0 22 5 29 20 29 15 0 20 7 20 24 0 14 8 31 19 38 10 7 20 22 23 33 2
11 11 19 21 19 12 -1 17 6 17 23 0 16 7 27 20 30 11 3 20 9 20 13 0 5 9 12 20
15 11 4 20 15 20 27 0 11 8 22 20 25 11 3 20 12 20 19 0 8 9 14 20 14 15 0 20
7 20 24 0 16 7 27 20 31 11 3 20 11 20 16 0 5 5 9 11 9 14 0 69 55 69 69 0 5
16 18 37 27 22 11 40 29 47 46 6 15 16 28 22 28 7 0 14 7 18 15 3 8 12 15 21
15 8 0 15 5 15 11 0 7 8 19 18 28 10 9 21 24 25 34 3 9 13 17 22 17 8 0 15 5
15 10 0 6 8 10 19 10 10 0 21 9 24 20 3 12 14 20 26 20 12 0 21 4 21 8 0 12
51 72 61 72 4 0 20 11 35 25 15 14 35 25 45 25 11 0 19 6 19 14 0 8 9 18 20
21 11 3 20 11 20 16 0 5 6 9 13 9 7 0 28 20 47 45 19 25 39 45 45 45 7 0 24
11 39 25 15 14 34 25 42 25 8 0 14 10 14 26 0 17 6 28 20 31 11 3 20 9 20 14
0 5 7 9 15 9 9 0 18 13 22 31 3 19 14 34 25 36 10 3 18 9 18 14 0 5 9 9 20 9
11 0 20 7 20 15 0 8 9 20 20 27 11 7 20 21 20 30 0 10 7 18 16 18 8 0 22 7 30
15 20 19 58 19 78 0 19 -19 70 -19 86 0 9 11 35 15 106 15 77 0 94 3 94 15 0
10 10 15 34 15 39 0 96 18 96 31 0 5 9 1 20 -8 11 -10 20 -26 20 -36 0 -9 7
-20 15 -23 8 -4 15 -14 15 -24 0 -10 9 -21 19 -25 11 -3 22 -12 25 -20 3 -8
12 -15 21 -15 11 0 15 -11 15 -38 0 -29 5 -39 23 -47 15 -7 23 -20 25 -45 2
-19 10 -39 18 -43 8 -4 14 -19 14 -32 0 -15 6 -25 14 -25 8 0 20 -13 28 -30 7
-16 19 -30 25 -30 10 0 13 -33 13 -135 0 -111 -3 -137 -15 -141 -8 -4 -15 -17
-15 -30 0 -17 -7 -25 -25 -30 -16 -4 -25 -13 -25 -25 0 -11 -6 -22 -14 -25 -8
-3 -16 -18 -20 -35 -4 -21 -11 -29 -26 -29 -15 0 -20 -7 -20 -25 0 -14 -6 -25
-13 -25 -7 0 -18 -9 -25 -20 -7 -11 -17 -20 -23 -20 -7 0 -22 -12 -35 -28
l-24 -27 0 -542 c0 -350 4 -544 10 -548 15 -9 13 -165 -2 -166 -7 0 -3 -4 10
-9 13 -6 22 -18 22 -30 0 -12 4 -19 9 -15 5 3 12 1 16 -5 7 -11 105 -14 105
-2 0 9 220 8 243 -2 9 -5 35 -4 56 2 22 5 45 6 53 1 7 -5 25 -9 39 -9 15 0 32
-7 39 -15 18 -21 89 -20 106 3 20 26 18 121 -3 141 -12 10 -18 31 -18 56 0 34
-3 40 -22 43 -16 2 -23 10 -23 27 0 12 -7 25 -15 29 -8 3 -15 15 -15 26 0 13
-10 24 -25 30 -21 8 -25 16 -25 47 0 29 -6 43 -24 56 -22 17 -24 26 -30 158
-4 77 -4 207 0 290 7 146 7 149 30 155 21 5 24 12 24 56 0 41 3 51 20 55 11 3
31 25 45 49 17 28 33 44 45 44 14 0 20 7 20 21 0 23 20 43 58 59 12 5 22 17
22 27 0 22 42 63 64 63 10 0 16 9 16 24 0 13 7 26 15 30 8 3 15 15 15 26 0 12
9 24 24 30 13 5 27 18 31 29 3 12 10 21 15 21 4 0 10 9 13 20 3 12 14 20 26
20 12 0 21 5 21 10 0 6 7 10 15 10 8 0 15 7 15 15 0 8 11 17 25 21 18 4 25 13
25 30 0 15 6 24 15 24 9 0 15 9 15 25 0 15 9 31 25 41 20 13 25 25 25 58 0 81
13 206 21 206 5 0 9 -7 9 -15 0 -10 10 -15 28 -15 32 0 102 -58 102 -83 0 -9
9 -21 20 -27 13 -7 20 -21 20 -41 0 -22 5 -32 20 -36 16 -4 20 -14 20 -48 0
-24 9 -64 20 -90 14 -33 20 -69 20 -121 0 -43 4 -74 10 -74 6 0 11 6 11 13 3
30 18 -74 18 -129 1 -33 4 -64 8 -68 16 -15 33 -85 33 -133 0 -29 5 -53 10
-53 6 0 10 6 10 13 0 8 4 7 10 -3 5 -8 10 -38 10 -65 0 -42 4 -52 23 -60 19
-9 22 -19 25 -75 2 -44 8 -67 18 -73 9 -5 14 -25 14 -57 0 -42 3 -50 19 -50
23 0 31 -19 31 -75 0 -24 5 -45 11 -47 5 -2 13 -23 16 -47 3 -23 12 -45 19
-48 8 -3 14 -13 14 -23 0 -11 5 -22 10 -25 6 -3 10 -19 10 -35 0 -15 5 -30 11
-32 7 -2 13 -42 17 -97 3 -66 9 -94 19 -98 8 -3 11 -13 8 -23 -3 -9 1 -23 10
-30 11 -9 15 -34 15 -101 0 -48 5 -91 10 -94 6 -3 10 -32 10 -64 0 -32 3 -86
7 -120 5 -53 9 -64 30 -72 21 -8 30 -35 24 -72 0 -4 4 -7 9 -7 6 0 15 -11 20
-24 10 -29 59 -42 114 -32 23 5 37 2 46 -9 9 -11 17 -12 30 -5 10 6 81 10 157
10 103 0 145 4 167 15 37 20 92 20 100 0 8 -21 179 -21 220 0 15 8 34 15 41
15 7 0 15 7 19 15 3 8 12 15 21 15 11 0 15 11 15 44 0 54 -8 76 -26 76 -10 0
-14 12 -14 40 0 33 -3 40 -20 40 -15 0 -20 7 -20 25 0 18 -5 25 -20 25 -11 0
-20 7 -20 15 0 8 -9 15 -19 15 -10 0 -21 7 -25 15 -3 8 -12 15 -20 15 -7 0
-16 7 -20 15 -3 8 -12 15 -21 15 -8 0 -15 4 -15 8 0 5 -9 19 -20 32 -11 13
-20 34 -20 47 0 16 -6 23 -20 23 -18 0 -20 7 -20 68 0 55 -4 71 -20 85 -15 13
-20 29 -20 70 0 45 -3 54 -22 62 -22 10 -23 15 -26 163 -2 126 -5 152 -17 152
-12 0 -15 14 -15 65 0 61 -2 66 -25 75 -21 8 -24 14 -19 40 4 16 2 36 -4 43
-6 7 -12 41 -13 75 -1 35 -6 65 -11 68 -4 3 -8 34 -8 70 0 36 -4 64 -10 64 -5
0 -10 -5 -10 -12 0 -6 -7 -3 -15 8 -11 14 -14 52 -15 160 0 113 -3 144 -15
154 -11 9 -15 35 -15 106 0 56 -4 94 -10 94 -5 0 -10 -6 -10 -12 -1 -7 -7 2
-15 20 -25 57 -16 62 114 64 184 3 242 5 248 12 4 3 50 6 102 6 66 0 103 4
116 14 19 13 55 20 158 32 28 4 51 12 54 20 3 8 16 14 29 14 20 0 24 -5 24
-29 0 -16 6 -31 13 -33 9 -4 13 -65 15 -249 2 -134 7 -248 13 -253 6 -6 9 -5
9 5 1 7 7 -1 15 -20 12 -27 15 -90 15 -317 l0 -284 -25 -16 -25 -16 0 -179 c0
-150 -2 -181 -15 -185 -11 -5 -15 -22 -15 -70 0 -60 -2 -65 -25 -74 l-25 -10
0 -189 0 -190 38 -7 c20 -4 42 -10 47 -14 17 -12 112 -12 120 0 4 7 81 10 246
9 195 -1 239 -4 239 -15 0 -20 66 -19 74 1 3 8 11 15 18 15 7 1 23 9 36 19 17
15 22 30 22 70 0 28 -4 51 -9 51 -5 0 -12 17 -16 39 -4 27 -13 42 -31 49 -19
9 -24 19 -24 46 0 19 -5 36 -11 38 -6 2 -13 25 -16 51 -4 31 -10 47 -19 47 -8
0 -14 7 -14 15 0 8 6 15 14 15 10 0 14 29 18 131 4 109 8 133 21 141 23 13 25
209 2 231 -10 11 -16 52 -21 151 -5 90 -11 136 -18 136 -26 0 -39 88 -32 213
9 153 15 187 32 187 10 0 14 12 14 38 0 25 7 43 20 55 11 9 20 26 20 37 0 11
9 25 20 32 11 7 20 21 20 31 0 10 6 20 14 23 8 3 19 19 25 35 5 16 17 29 25
29 9 0 16 9 16 20 0 11 9 28 20 37 18 16 20 30 20 170 0 142 1 154 20 165 13
9 20 24 20 45 0 25 5 32 23 35 18 2 23 10 25 41 2 24 8 37 18 37 8 0 14 10 14
25 0 18 7 28 25 35 15 6 25 17 25 30 0 11 7 20 15 20 9 0 15 9 15 25 0 18 7
28 25 35 15 6 25 17 25 29 0 11 7 26 15 35 8 8 15 29 15 46 0 20 6 32 18 36
45 15 62 29 62 51 0 16 8 27 25 33 15 6 25 17 25 30 0 11 7 20 15 20 8 0 15 6
15 13 0 8 11 19 25 25 14 6 25 18 25 26 0 8 6 19 14 23 8 4 15 17 17 28 2 11
14 24 27 30 21 9 22 16 22 106 0 88 -2 97 -24 116 -21 18 -23 28 -19 63 5 36
3 42 -16 47 -21 5 -21 9 -21 209 0 168 2 204 14 204 18 0 26 22 26 71 0 32 3
39 20 39 18 0 20 7 20 54 0 45 3 54 20 59 14 3 20 14 20 31 0 19 5 26 20 26
16 0 20 7 20 35 0 22 6 38 18 44 15 9 15 12 2 21 -13 8 -13 10 3 10 15 0 17
13 17 131 0 122 1 131 20 136 11 3 20 11 20 19 0 7 8 18 19 23 12 7 21 27 26
58 7 49 28 83 50 83 7 0 15 7 19 15 3 8 15 15 26 15 11 0 20 7 20 15 0 8 7 15
16 15 20 0 61 42 66 67 2 10 13 19 26 21 16 3 22 10 22 28 0 14 6 24 14 24 7
0 16 9 19 21 4 13 12 20 24 17 17 -3 18 -22 23 -256 4 -228 7 -254 23 -263 9
-6 17 -21 17 -34 0 -18 5 -25 20 -25 11 0 20 -7 20 -15 0 -8 4 -15 8 -15 5 0
15 -11 22 -25 7 -14 22 -25 32 -25 16 0 24 -22 19 -52 0 -5 6 -8 14 -8 9 0 18
-7 21 -15 4 -8 10 -13 14 -10 5 3 17 -3 27 -13 10 -11 32 -22 49 -25 38 -7
104 7 115 25 20 31 5 178 -17 178 -8 0 -14 9 -14 20 0 11 7 20 15 20 9 0 15 9
15 25 0 15 6 25 14 25 9 0 16 12 18 28 2 19 9 28 26 30 16 3 22 10 22 28 0 14
6 24 14 24 9 0 16 12 18 28 2 19 9 28 26 30 12 2 22 8 22 13 0 5 7 9 15 9 8 0
15 5 15 10 0 6 -4 10 -10 10 -5 0 -2 9 7 20 10 11 25 20 35 20 10 0 18 5 18
10 0 6 11 15 25 20 14 5 25 14 25 20 0 19 3 25 18 36 11 8 14 43 15 172 0 138
-2 164 -16 180 -9 10 -17 28 -17 40 0 24 -16 37 -26 21 -9 -15 -24 8 -24 38 0
12 -8 24 -18 27 -10 4 -29 24 -43 46 -13 22 -31 40 -39 40 -17 0 -60 42 -60
58 0 5 -9 12 -21 15 -11 3 -23 15 -26 26 -3 12 -12 21 -19 21 -8 0 -14 4 -14
9 0 5 -9 11 -21 14 -11 3 -23 15 -26 26 -3 11 -11 22 -19 25 -8 3 -14 12 -14
21 0 8 -9 15 -20 15 -11 0 -20 4 -20 8 0 13 -36 52 -47 52 -11 0 -73 68 -73
81 0 5 -5 9 -11 9 -17 0 -38 32 -39 58 0 13 -6 22 -15 22 -8 0 -15 9 -15 20 0
13 -10 24 -25 30 -14 5 -25 16 -25 25 0 8 -4 15 -9 15 -5 0 -12 9 -16 19 -3
10 -17 22 -30 25 -14 4 -25 13 -25 21 0 8 -6 15 -14 15 -8 0 -16 7 -20 15 -3
8 -15 15 -26 15 -11 0 -20 5 -20 10 0 6 -6 10 -12 10 -7 0 -24 9 -38 20 -14
11 -41 20 -62 20 -20 0 -40 5 -43 10 -3 6 -24 10 -45 10 -21 0 -40 5 -42 12
-3 7 -35 15 -78 19 -41 3 -76 12 -78 18 -3 8 -59 11 -183 11 -150 0 -181 2
-185 15 -5 13 -54 15 -358 15 -267 0 -355 -3 -364 -12 -8 -8 -54 -14 -127 -17
-82 -2 -118 -7 -126 -17 -6 -8 -25 -14 -41 -14 -16 0 -31 -6 -34 -15 -4 -9
-19 -15 -39 -15 -19 0 -37 -4 -40 -10 -3 -5 -15 -10 -26 -10 -10 0 -19 -4 -19
-10 0 -5 -5 -10 -11 -10 -6 0 -33 -22 -60 -50 -26 -27 -61 -52 -76 -56 -44 -9
-83 -26 -83 -35 0 -4 -16 -16 -35 -25 -20 -9 -40 -25 -46 -35 -5 -11 -16 -19
-24 -19 -8 0 -15 -8 -15 -18 0 -11 -9 -27 -20 -37 -11 -10 -20 -24 -20 -31 0
-7 -17 -21 -37 -30 -21 -10 -42 -24 -46 -31 -4 -7 -14 -13 -21 -13 -7 0 -25
-13 -42 -28 -16 -16 -46 -36 -66 -46 -21 -9 -38 -21 -38 -26 0 -5 -18 -20 -40
-32 -22 -13 -40 -28 -40 -35 0 -18 -45 -63 -64 -63 -9 0 -16 -8 -16 -20 0 -11
-7 -23 -15 -26 -8 -4 -15 -12 -15 -20 0 -7 -11 -16 -25 -20 -14 -4 -25 -13
-25 -23 0 -10 -18 -33 -40 -52 -22 -19 -40 -40 -40 -46 0 -7 -6 -13 -14 -13
-32 0 -39 -223 -8 -286 21 -45 10 -54 -75 -54 -35 0 -63 -4 -63 -9 0 -6 -21
-12 -47 -16 -58 -7 -117 -22 -160 -41 -18 -7 -92 -24 -165 -38 -120 -23 -176
-26 -558 -36 -234 -6 -441 -15 -460 -20 -19 -5 -73 -12 -120 -15 -47 -4 -119
-14 -160 -22 -199 -38 -267 -43 -276 -18 -4 8 -10 15 -15 15 -13 0 -68 63 -69
78 0 6 -4 12 -8 12 -11 0 -72 87 -72 103 0 7 -9 18 -20 25 -11 7 -20 18 -20
26 0 8 -7 16 -15 20 -8 3 -15 9 -14 13 1 4 -2 23 -6 41 -5 22 -13 32 -26 32
-12 0 -16 5 -13 14 8 20 -23 76 -41 76 -11 0 -14 7 -9 24 4 19 1 26 -15 31
-11 3 -23 16 -27 27 -4 12 -21 42 -38 67 -32 46 -76 153 -76 185 0 10 -7 24
-15 33 -8 8 -13 19 -10 24 4 5 -4 9 -16 9 -12 0 -19 3 -16 6 8 8 -42 104 -60
119 -7 6 -14 22 -15 37 -1 15 -5 25 -9 23 -11 -8 -28 41 -18 56 5 8 9 85 9
172 0 132 2 159 15 163 12 5 13 9 3 21 -6 8 -14 55 -16 105 -4 83 -6 90 -28
98 -24 9 -24 10 -24 180 0 129 -3 170 -12 170 -10 0 -10 2 0 9 11 7 11 9 -2
14 -12 5 -16 20 -16 56 0 46 -2 51 -25 57 -22 6 -25 11 -25 54 0 27 5 52 10
55 6 3 10 17 10 30 0 13 -4 27 -10 30 -5 3 -10 44 -10 90 0 57 -4 85 -12 87
-8 3 -14 32 -16 80 -4 68 -7 77 -27 86 -13 6 -25 21 -27 34 -2 18 -10 24 -35
26 l-33 3 0 -71z m62 -339 c0 -145 2 -163 19 -174 11 -8 20 -31 24 -63 4 -27
13 -59 21 -71 10 -16 14 -59 14 -160 0 -148 5 -183 25 -183 23 0 26 -30 24
-239 -2 -298 0 -353 17 -372 10 -11 14 -44 14 -122 l0 -107 -35 0 c-39 0 -46
-14 -14 -30 15 -9 19 -19 17 -43 -3 -32 -3 -32 -65 -35 l-63 -3 0 -57 0 -57
-55 -2 c-47 -2 -56 1 -66 19 -15 28 -15 196 0 211 16 16 14 62 -4 77 -13 10
-15 36 -13 143 2 93 7 132 16 135 14 4 17 32 3 32 -15 0 -21 30 -26 127 -5 90
-5 91 20 97 24 6 36 36 15 36 -5 0 -9 3 -8 8 2 4 -8 20 -22 35 -39 44 -55 132
-26 143 30 11 28 74 -1 74 -25 0 -13 144 16 194 16 28 21 49 17 69 -4 20 0 40
13 61 14 24 20 58 24 151 5 122 21 177 60 208 8 7 18 25 21 41 13 54 17 18 18
-143z m4686 -921 c2 -48 8 -69 23 -83 10 -10 19 -24 19 -32 0 -7 9 -17 20 -20
20 -6 25 -36 20 -137 -1 -20 6 -50 15 -67 8 -17 11 -31 6 -31 -5 0 -12 -19
-16 -42 -4 -24 -16 -51 -26 -61 -11 -10 -19 -30 -19 -46 0 -15 -9 -36 -20 -46
-11 -10 -20 -24 -20 -31 0 -7 -9 -18 -20 -24 -11 -6 -20 -17 -20 -25 0 -8 -5
-15 -11 -15 -5 0 -17 -16 -25 -35 -8 -19 -19 -35 -24 -35 -6 0 -15 -11 -20
-25 -5 -14 -16 -25 -25 -25 -8 0 -15 -8 -15 -19 0 -10 -11 -26 -25 -35 -14 -9
-25 -23 -25 -31 0 -8 -7 -15 -15 -15 -8 0 -15 -7 -15 -16 0 -9 -9 -18 -20 -21
-11 -3 -23 -16 -26 -28 -3 -13 -14 -25 -25 -28 -13 -3 -19 -14 -19 -31 0 -16
-6 -26 -15 -26 -17 0 -18 -4 -20 -153 -1 -101 -3 -110 -24 -126 -20 -16 -23
-28 -28 -119 -5 -87 -8 -102 -23 -102 -20 0 -77 27 -85 41 -4 5 -16 9 -29 9
-12 0 -27 5 -33 11 -13 13 -47 33 -80 48 -13 6 -23 15 -23 20 0 4 -13 11 -30
14 -16 4 -30 10 -30 15 0 5 -18 28 -40 52 -22 24 -40 49 -40 56 0 7 -11 25
-25 40 -30 32 -30 46 -5 99 25 52 27 160 4 194 -13 18 -18 62 -24 198 -5 106
-12 179 -19 186 -18 18 -14 182 4 197 9 8 15 29 15 56 0 33 6 49 25 68 14 14
25 32 25 41 0 16 39 75 70 105 20 20 97 60 115 60 8 0 15 5 15 10 0 6 8 10 18
10 9 0 30 7 46 15 15 8 56 15 90 16 33 0 84 5 111 10 86 18 177 26 270 25 l90
-1 3 -65z m462 -4 c0 -26 5 -46 13 -49 9 -3 9 -9 0 -25 -10 -16 -9 -21 2 -26
19 -7 19 -43 0 -80 -8 -15 -15 -30 -15 -32 0 -2 27 -4 61 -4 l61 0 -8 -32 c-7
-35 -46 -78 -70 -78 -11 0 -14 -15 -14 -63 0 -55 3 -63 22 -72 20 -9 22 -16
20 -58 -3 -36 0 -49 12 -53 9 -3 19 -23 22 -43 4 -25 13 -40 27 -47 12 -5 24
-18 26 -29 2 -11 9 -24 17 -28 8 -4 14 -20 14 -35 0 -17 9 -34 25 -46 14 -11
25 -29 25 -42 0 -15 6 -24 15 -24 8 0 15 -4 15 -10 0 -5 9 -10 21 -10 12 0 23
-8 26 -20 3 -11 12 -20 19 -20 8 0 14 -9 14 -20 0 -13 10 -24 25 -30 15 -6 25
-17 25 -30 0 -11 7 -23 15 -26 12 -5 15 -28 15 -119 0 -63 4 -116 9 -120 5 -3
12 3 14 12 3 10 5 -18 6 -61 1 -80 -20 -155 -44 -156 -6 0 -19 -13 -28 -30
-10 -16 -22 -30 -28 -30 -5 0 -9 -32 -9 -70 0 -59 -3 -72 -17 -76 -10 -3 -25
-9 -33 -13 -26 -14 -150 18 -150 39 0 5 -5 10 -11 10 -14 0 -69 55 -69 69 0
21 -85 109 -117 122 -13 5 -79 9 -145 9 -105 0 -125 -3 -154 -21 -19 -11 -34
-25 -34 -30 0 -5 -5 -9 -11 -9 -15 0 -66 -56 -74 -81 -4 -10 -13 -19 -21 -19
-8 0 -14 -9 -14 -21 0 -12 -8 -23 -20 -26 -11 -3 -20 -12 -20 -19 0 -8 -10
-18 -22 -23 -25 -9 -58 -3 -58 10 0 5 -9 9 -20 9 -33 0 -90 34 -96 58 -4 12
-15 27 -26 33 -10 6 -17 16 -15 22 2 7 -4 23 -14 36 -25 31 -28 134 -4 125 12
-5 15 3 15 38 0 32 6 50 20 63 18 16 20 31 20 136 0 125 4 149 26 149 8 0 14
7 14 15 0 9 7 18 16 22 8 3 20 16 25 29 4 13 15 24 24 24 8 0 15 8 15 19 0 10
9 21 20 24 12 3 20 14 20 26 0 12 8 25 18 28 22 9 42 29 42 42 0 6 5 11 10 11
6 0 10 5 10 11 0 15 26 39 34 32 3 -4 6 3 6 14 0 11 9 28 20 38 11 10 20 24
20 30 0 7 6 15 14 18 22 9 66 97 66 134 0 26 5 36 20 40 13 3 20 14 20 29 0
13 5 35 12 49 9 19 9 28 0 37 -8 8 -12 48 -12 108 0 84 -2 97 -20 108 -11 7
-20 23 -20 36 0 15 -7 26 -19 29 -12 3 -21 17 -25 42 -9 44 -6 48 25 36 13 -5
18 -10 12 -10 -21 -1 -15 -45 7 -59 11 -7 20 -21 20 -31 0 -10 9 -21 20 -24
18 -5 20 -14 20 -116 0 -90 3 -111 14 -111 8 0 18 -5 21 -10 10 -16 -5 -50
-21 -50 -9 0 -14 -11 -14 -36 0 -27 -5 -37 -20 -41 -16 -4 -20 -14 -20 -48 0
-53 -8 -75 -26 -75 -8 0 -14 -9 -14 -20 0 -11 -9 -25 -20 -32 -11 -7 -20 -21
-20 -31 0 -11 -9 -21 -20 -24 -11 -3 -20 -14 -20 -24 0 -10 -11 -26 -25 -35
-14 -9 -25 -25 -25 -35 0 -11 -7 -19 -15 -19 -8 0 -15 -7 -15 -15 0 -9 -9 -15
-25 -15 -20 0 -25 -5 -25 -25 0 -16 -6 -25 -15 -25 -10 0 -15 -10 -15 -30 0
-25 -4 -30 -25 -30 -16 0 -25 -6 -25 -15 0 -8 -7 -15 -15 -15 -9 0 -15 -9 -15
-25 0 -18 -7 -26 -25 -31 l-25 -6 0 -139 c0 -117 -2 -139 -15 -139 -10 0 -15
-10 -15 -30 0 -25 4 -30 24 -30 13 0 26 7 30 15 4 12 25 15 101 15 78 0 95 3
95 15 0 9 9 15 25 15 16 0 25 6 25 15 0 8 7 15 15 15 12 0 15 16 15 85 0 69
-3 85 -15 85 -11 0 -15 11 -15 39 0 25 5 41 15 45 9 3 15 19 15 41 0 31 3 35
25 35 18 0 25 5 25 20 0 18 7 20 55 20 30 0 55 5 55 10 0 6 56 10 149 10 89 0
152 -4 156 -10 3 -5 22 -10 42 -10 26 0 36 -5 40 -19 3 -11 15 -21 26 -23 12
-2 23 -12 26 -23 2 -11 9 -24 17 -28 8 -4 14 -22 14 -40 0 -24 6 -35 23 -42
18 -8 23 -19 25 -62 2 -38 7 -53 18 -53 9 0 14 -10 14 -30 l0 -30 65 0 65 0 0
114 c0 92 -3 115 -15 120 -8 3 -15 17 -15 31 0 14 -5 25 -10 25 -19 0 -70 43
-70 59 0 9 -18 26 -40 39 -26 14 -40 30 -40 43 0 12 -10 23 -25 29 -20 8 -25
16 -25 44 0 21 -6 36 -15 40 -8 3 -15 17 -15 31 0 18 -5 25 -20 25 -15 0 -22
9 -26 30 -4 17 -13 30 -20 30 -11 0 -14 17 -14 70 0 62 -2 70 -19 70 -24 0
-31 19 -31 85 0 63 7 85 26 85 18 0 50 32 59 59 6 20 3 21 -54 21 l-61 0 0 40
c0 27 5 43 15 46 8 4 15 12 15 20 0 8 -7 14 -15 14 -12 0 -15 15 -15 75 0 43
4 75 10 75 6 0 10 -20 10 -44z m310 23 c0 -5 17 -9 38 -9 20 -1 55 -7 77 -15
22 -8 57 -15 77 -15 20 0 43 -7 52 -15 8 -8 20 -15 27 -15 24 0 125 -54 151
-82 15 -15 30 -28 34 -28 10 0 50 -45 70 -80 10 -16 22 -30 26 -30 4 0 8 -33
8 -72 0 -54 -5 -81 -19 -104 -14 -23 -20 -60 -26 -160 -4 -71 -12 -134 -17
-141 -5 -7 -14 -63 -19 -125 -6 -62 -17 -125 -25 -140 -8 -14 -14 -33 -14 -42
0 -8 -9 -20 -20 -26 -11 -6 -20 -17 -20 -25 0 -7 -9 -17 -20 -20 -11 -3 -20
-14 -20 -23 0 -23 -77 -102 -100 -102 -6 0 -13 -7 -16 -15 -14 -35 -21 -9 -27
91 -5 89 -10 110 -27 128 -11 12 -20 31 -20 42 0 11 -8 27 -17 36 -10 9 -31
33 -48 52 -16 20 -36 36 -42 36 -7 0 -13 5 -13 10 0 6 -7 10 -15 10 -9 0 -21
12 -28 28 -6 15 -17 31 -24 35 -7 4 -13 21 -13 36 0 20 -8 34 -25 45 -14 9
-25 23 -25 32 0 8 -7 17 -15 20 -8 4 -15 13 -15 22 0 9 -9 25 -20 37 -11 12
-23 43 -27 71 -3 27 -12 54 -18 59 -7 6 -17 25 -23 43 -15 45 0 81 48 115 22
16 40 34 40 40 0 7 8 20 18 29 41 39 42 44 24 88 l-17 42 -60 -5 c-57 -6 -61
-5 -73 21 -15 32 -16 59 -1 64 7 2 7 12 0 32 -6 15 -9 31 -7 34 6 11 226 2
226 -9z m-5211 -521 c99 -193 164 -313 176 -328 7 -8 24 -42 39 -75 15 -33 33
-66 40 -75 7 -8 19 -31 27 -50 12 -31 65 -108 206 -298 23 -32 42 -65 42 -74
1 -16 14 -18 123 -18 110 0 160 6 328 40 25 5 97 12 160 16 63 3 131 8 150 10
19 2 188 6 375 9 187 3 365 10 395 15 30 5 93 16 140 24 47 8 114 26 150 39
71 27 166 46 140 28 -8 -6 -25 -11 -37 -11 -12 0 -38 -16 -59 -35 -20 -19 -41
-35 -45 -35 -5 0 -9 -36 -9 -80 0 -44 3 -80 6 -80 3 0 13 7 21 16 14 14 15 21
4 51 -11 29 -10 37 3 52 9 10 16 23 16 29 0 7 5 12 10 12 6 0 20 11 32 25 15
17 32 25 55 25 18 0 49 9 69 19 52 28 166 19 206 -17 33 -30 35 -52 8 -77 -11
-10 -23 -36 -27 -58 -3 -21 -12 -41 -19 -44 -10 -3 -14 -23 -14 -63 0 -49 4
-61 27 -84 23 -23 31 -26 72 -20 36 5 50 2 60 -10 13 -16 66 -13 85 5 6 5 23
9 38 9 21 0 29 -6 34 -24 3 -14 12 -27 20 -30 9 -4 14 -22 14 -55 0 -41 4 -51
20 -56 l20 -6 -20 -26 c-11 -14 -20 -41 -20 -59 0 -24 -5 -34 -15 -34 -8 0
-15 -4 -15 -9 0 -5 -9 -13 -20 -16 -11 -4 -35 -20 -52 -36 -18 -16 -38 -29
-45 -29 -7 0 -13 -4 -13 -10 0 -5 -7 -10 -15 -10 -8 0 -19 -9 -25 -20 -6 -11
-17 -20 -25 -20 -8 0 -15 -4 -15 -10 0 -5 -9 -10 -20 -10 -11 0 -23 -7 -26
-15 -4 -8 -12 -15 -19 -15 -7 0 -15 -7 -19 -15 -3 -9 -18 -15 -35 -15 -16 0
-31 -6 -35 -15 -3 -8 -12 -15 -20 -15 -7 0 -27 -7 -42 -15 -16 -8 -37 -15 -46
-15 -9 0 -19 -4 -22 -9 -3 -5 -18 -12 -33 -16 -16 -3 -40 -18 -55 -33 -26 -24
-28 -31 -28 -114 0 -70 3 -90 15 -94 8 -4 15 -17 15 -30 0 -14 6 -24 15 -24
20 0 35 -32 35 -75 0 -20 7 -49 15 -65 18 -35 31 -163 21 -214 -4 -22 -13 -36
-21 -36 -8 0 -15 -7 -15 -15 0 -8 -6 -15 -12 -15 -7 0 -26 -11 -43 -24 -29
-23 -29 -25 -27 -109 1 -78 0 -85 -19 -90 -11 -3 -23 -15 -26 -26 -3 -12 -12
-21 -19 -21 -8 0 -14 -5 -14 -10 0 -6 -11 -16 -25 -22 -14 -6 -25 -20 -25 -30
0 -11 -18 -36 -40 -57 -28 -26 -40 -46 -40 -64 0 -15 -4 -27 -10 -27 -5 0 -10
7 -10 15 0 8 -6 15 -14 15 -15 0 -26 21 -26 50 0 10 -8 26 -17 36 -11 10 -18
38 -21 76 -3 44 -9 61 -23 69 -11 5 -19 17 -19 25 0 16 -92 64 -124 64 -18 0
-34 11 -74 53 -9 9 -22 17 -28 17 -6 0 -14 9 -17 20 -3 11 -12 20 -21 20 -9 0
-16 4 -16 9 0 15 -120 51 -167 51 -24 0 -43 4 -43 9 0 5 -11 12 -25 15 -14 4
-25 11 -25 16 0 6 -7 10 -15 10 -26 0 -16 29 24 70 l39 40 -29 0 c-16 0 -29
-4 -29 -10 0 -5 -6 -10 -14 -10 -8 0 -17 -12 -21 -27 -3 -16 -13 -37 -21 -48
-12 -16 -17 -18 -32 -7 -9 7 -25 15 -34 18 -10 4 -18 13 -18 20 0 8 -9 14 -20
14 -18 0 -19 -3 -10 -20 6 -11 14 -20 18 -20 4 0 18 -10 32 -23 91 -82 168
-117 257 -117 24 0 43 -4 43 -10 0 -5 7 -10 15 -10 8 0 15 -4 15 -8 0 -16 147
-118 189 -131 73 -21 90 -39 91 -92 0 -30 7 -55 19 -70 10 -13 22 -38 25 -56
4 -17 14 -37 22 -44 8 -6 14 -26 14 -45 0 -46 51 -104 92 -104 21 0 31 6 35
20 5 19 14 24 41 21 7 -1 12 11 12 32 0 22 6 37 15 41 8 3 15 16 15 30 0 16 7
27 20 31 11 3 20 10 20 14 0 4 8 16 18 27 9 11 22 29 29 40 6 10 16 18 22 17
6 -2 11 6 11 18 0 12 8 23 20 26 11 3 20 9 20 14 0 5 6 9 14 9 19 0 26 22 26
86 0 34 -4 53 -10 49 -5 -3 -10 1 -10 10 0 9 5 13 10 10 6 -3 10 2 10 12 0 19
44 65 73 76 9 3 17 13 17 21 0 7 7 16 15 20 12 4 15 26 15 110 0 71 -4 106
-12 108 -6 2 -11 20 -11 39 0 19 -4 39 -9 46 -5 7 -9 27 -8 45 3 52 1 58 -20
58 -13 0 -20 7 -20 19 0 10 -7 21 -15 25 -12 4 -15 24 -15 86 0 92 17 120 70
120 18 0 33 6 36 15 4 9 19 15 35 15 16 0 29 4 29 10 0 5 17 12 38 16 43 8 79
25 107 51 31 28 106 75 112 69 3 -2 18 10 34 29 26 30 33 32 69 28 33 -5 40
-3 40 11 0 9 -6 16 -14 16 -8 0 -18 5 -21 11 -5 7 5 8 29 4 50 -10 86 1 86 25
0 11 9 24 20 30 13 7 20 21 20 40 0 16 6 35 14 43 8 7 19 30 24 51 7 24 31 56
66 91 31 29 56 61 56 69 0 9 7 16 15 16 9 0 18 7 21 15 4 8 12 15 19 15 6 0
23 10 38 23 23 20 26 31 32 128 7 100 9 108 31 118 14 6 24 7 24 1 0 -5 12
-23 28 -39 15 -17 36 -41 47 -55 11 -14 38 -34 60 -46 22 -11 47 -25 55 -30 8
-5 36 -18 62 -30 26 -11 50 -24 53 -30 3 -5 17 -10 30 -10 12 0 25 -7 29 -15
3 -8 15 -15 26 -15 20 0 20 -3 14 -103 -4 -57 -4 -129 0 -161 6 -48 11 -59 32
-66 13 -5 24 -14 24 -19 0 -5 15 -13 33 -16 17 -4 37 -11 42 -15 35 -26 191
-39 265 -21 43 9 60 5 60 -17 0 -19 76 -92 95 -92 16 0 99 -42 103 -52 6 -13
197 -9 210 4 9 9 17 9 36 -2 15 -7 58 -13 107 -13 67 0 85 4 95 18 7 9 17 14
23 10 18 -10 12 -49 -9 -68 -19 -16 -20 -29 -20 -191 0 -180 3 -206 25 -206 8
0 15 -20 19 -54 4 -30 14 -60 22 -67 10 -8 14 -36 14 -108 0 -85 -2 -98 -20
-109 -11 -7 -20 -17 -20 -23 0 -6 -27 -38 -60 -70 -33 -32 -60 -61 -60 -65 0
-3 -18 -28 -40 -54 -22 -26 -40 -53 -40 -59 0 -6 -7 -11 -15 -11 -9 0 -18 -12
-21 -29 -4 -17 -15 -38 -25 -47 -11 -9 -19 -24 -19 -32 0 -9 -7 -22 -15 -31
-36 -39 -115 -141 -115 -149 0 -5 -7 -15 -15 -22 -8 -7 -15 -27 -15 -45 0 -20
-6 -35 -15 -39 -34 -13 -49 -76 -55 -233 -6 -149 -7 -153 -33 -177 -15 -14
-27 -32 -27 -39 0 -8 -7 -17 -15 -21 -8 -3 -15 -12 -15 -20 0 -9 -9 -20 -20
-26 -12 -6 -20 -21 -20 -35 0 -14 -8 -29 -20 -35 -11 -6 -20 -19 -20 -30 0
-11 -7 -29 -17 -39 -29 -35 -56 -149 -56 -241 0 -122 31 -434 43 -438 5 -2 10
-23 10 -47 0 -24 5 -47 10 -50 6 -4 10 -54 10 -118 0 -91 -4 -120 -19 -150
-12 -25 -22 -71 -26 -132 l-7 -95 -32 0 c-37 -1 -76 -30 -76 -57 0 -11 -11
-25 -25 -31 -29 -13 -33 -39 -7 -44 22 -5 72 11 72 23 0 5 9 9 21 9 12 0 23 8
26 20 7 26 23 16 23 -14 0 -13 7 -29 15 -36 9 -7 20 -32 26 -56 6 -23 17 -45
25 -48 8 -3 14 -17 14 -30 0 -14 7 -29 17 -34 11 -7 18 -27 21 -66 2 -31 2
-56 -1 -56 -22 0 -55 26 -64 51 -9 24 -17 29 -43 29 -33 0 -51 -13 -63 -42 -5
-15 -20 -18 -101 -18 -87 0 -96 2 -107 21 -22 42 -84 99 -107 99 -24 0 -44
-31 -24 -38 7 -2 19 -16 27 -32 22 -42 3 -51 -97 -48 l-83 3 -5 40 c-3 22 -4
96 -2 164 3 112 5 124 23 128 13 4 19 15 20 37 1 17 3 38 4 46 1 8 3 23 4 33
2 26 18 21 25 -9 5 -17 12 -24 24 -22 25 5 30 93 6 119 -15 17 -14 20 20 52
30 29 36 41 36 76 0 33 -3 41 -19 41 -13 0 -20 -9 -24 -30 -4 -18 -13 -30 -22
-30 -11 0 -15 12 -15 49 0 40 3 50 20 54 11 3 20 13 20 22 0 9 -9 19 -20 22
-11 3 -20 13 -20 22 0 9 9 22 20 29 19 12 20 23 20 311 0 272 -2 301 -17 317
-16 15 -18 43 -21 223 -2 148 -7 214 -17 236 -7 17 -15 58 -17 93 l-3 64 55
30 c30 17 57 34 60 38 3 3 20 15 39 26 43 24 81 58 81 72 0 6 4 12 10 14 11 4
-10 50 -25 54 -5 2 -37 -21 -69 -51 -33 -30 -72 -61 -88 -67 -15 -7 -28 -16
-28 -20 0 -5 -6 -8 -13 -8 -20 0 -77 -30 -77 -40 0 -4 -18 -11 -40 -15 -22 -4
-40 -10 -40 -15 0 -4 -19 -10 -42 -13 -62 -7 -178 -35 -192 -46 -12 -10 -122
-18 -360 -27 l-149 -5 -24 27 c-26 31 -30 62 -8 70 8 4 15 17 15 30 0 19 9 28
40 40 24 10 40 23 40 33 1 35 36 61 83 61 72 0 77 4 77 70 0 64 0 64 74 75 53
8 61 28 16 43 -38 14 -122 5 -136 -14 -6 -8 -16 -14 -22 -14 -14 0 -25 -35
-18 -57 9 -28 -5 -39 -58 -47 -58 -7 -57 -6 -65 -48 -5 -26 -13 -35 -38 -42
-20 -6 -34 -18 -37 -32 -4 -16 -11 -21 -24 -17 -16 4 -20 -3 -25 -52 -3 -30
-3 -70 0 -88 3 -23 0 -37 -11 -46 -18 -15 -21 -72 -5 -88 6 -6 14 -61 18 -121
6 -112 14 -138 32 -112 9 13 10 12 5 -2 -3 -10 -1 -20 4 -23 6 -4 10 -67 10
-145 0 -113 3 -139 15 -144 11 -4 15 -23 15 -78 0 -81 11 -112 28 -83 7 14 12
-9 17 -86 6 -87 11 -106 27 -118 16 -11 19 -23 16 -70 -2 -33 1 -56 7 -56 31
-1 35 -18 35 -165 0 -146 1 -150 25 -174 15 -15 25 -37 25 -54 0 -15 5 -33 12
-40 9 -9 9 -12 -2 -12 -10 0 -9 -4 3 -18 11 -12 17 -36 17 -66 0 -39 5 -52 25
-68 15 -11 25 -30 25 -44 0 -14 7 -32 15 -40 8 -9 15 -23 15 -33 0 -10 11 -23
25 -29 14 -6 25 -16 25 -22 0 -5 7 -10 15 -10 8 0 15 -7 15 -15 0 -8 -7 -15
-15 -15 -8 0 -15 -9 -15 -19 0 -14 8 -21 30 -23 54 -6 18 -30 -54 -35 -65 -6
-84 -17 -48 -30 9 -4 19 -10 23 -15 3 -4 28 -9 57 -10 83 -4 61 -38 -25 -38
-18 0 -33 -4 -33 -10 0 -5 -6 -10 -14 -10 -8 0 -16 -7 -20 -15 -3 -9 -19 -15
-41 -15 -22 0 -38 -6 -41 -15 -5 -12 -26 -15 -108 -14 -106 0 -157 10 -123 24
9 4 17 16 17 26 0 11 10 23 24 28 13 5 26 17 29 25 9 23 54 20 67 -4 14 -27
33 -25 46 4 8 17 8 27 -1 39 -7 9 -15 14 -18 10 -4 -3 -7 -1 -7 5 0 6 -12 12
-27 14 -26 3 -28 6 -31 59 -3 54 -4 56 -37 67 -34 10 -35 10 -35 -19 0 -16 -4
-29 -10 -29 -5 0 -10 -9 -10 -20 0 -11 -6 -19 -12 -17 -9 1 -14 -17 -16 -58
-3 -50 -7 -64 -29 -83 -14 -12 -32 -22 -40 -22 -7 0 -13 -4 -13 -10 0 -5 -9
-10 -20 -10 -11 0 -20 -4 -20 -10 0 -14 -54 -12 -68 2 -7 7 -12 22 -12 34 0
13 -8 24 -20 27 -15 4 -20 14 -20 36 0 19 -7 35 -17 42 -16 9 -17 22 -12 92 3
45 2 86 -3 92 -4 5 -8 49 -8 98 0 49 -4 86 -9 83 -5 -3 -14 1 -21 9 -9 11 -11
37 -6 93 6 72 5 79 -19 111 -14 19 -25 47 -25 62 0 15 -7 40 -15 55 -8 16 -15
38 -15 49 0 11 -11 37 -25 57 -17 26 -25 50 -25 81 0 26 -6 49 -14 56 -7 6
-16 33 -20 59 -4 32 -13 51 -26 60 -16 10 -20 23 -20 66 0 34 -5 58 -14 65 -8
6 -17 31 -20 54 -4 24 -15 57 -26 75 -11 18 -20 49 -20 70 0 20 -7 50 -15 66
-8 15 -15 45 -15 65 0 46 -32 191 -42 191 -4 0 -8 31 -8 69 0 40 -4 71 -11 73
-6 2 -14 33 -19 70 -4 37 -15 77 -24 90 -9 12 -16 33 -16 46 0 12 -7 25 -15
28 -8 3 -19 22 -26 42 -7 20 -17 41 -23 47 -15 14 -57 33 -81 37 -15 3 -19 10
-17 31 3 21 -2 29 -21 36 -13 5 -27 17 -31 26 -3 9 -10 14 -15 10 -6 -3 -13 0
-18 7 -11 17 -68 39 -116 45 -20 3 -40 9 -43 14 -3 5 -20 9 -38 9 -18 0 -57 7
-87 16 -30 9 -81 20 -114 24 -33 4 -85 15 -115 24 -30 9 -70 19 -88 23 -19 3
-36 12 -39 19 -3 8 -14 14 -24 14 -10 0 -19 4 -19 9 0 5 -11 12 -25 15 -14 4
-25 11 -25 16 0 6 -6 10 -14 10 -7 0 -16 10 -19 21 -4 15 -11 20 -21 16 -10
-4 -16 -1 -16 8 0 8 -6 15 -14 15 -8 0 -19 13 -25 30 -5 16 -17 30 -25 30 -9
0 -16 6 -16 14 0 8 -9 17 -19 21 -10 3 -21 15 -24 25 -3 12 -14 20 -26 20 -12
0 -21 6 -21 15 0 8 -7 15 -15 15 -8 0 -15 7 -15 15 0 8 -9 15 -20 15 -11 0
-23 7 -26 15 -4 9 -19 15 -39 15 -17 0 -45 6 -61 14 -17 8 -54 14 -89 13 -58
-2 -60 -3 -63 -29 -3 -25 -8 -28 -38 -28 -19 0 -49 -7 -65 -16 -17 -8 -33 -13
-36 -10 -8 8 -73 -45 -67 -55 3 -5 0 -9 -5 -9 -6 0 -11 5 -11 10 0 6 -4 10
-10 10 -5 0 -10 -11 -10 -25 0 -21 -5 -25 -32 -25 -33 -1 -78 -29 -78 -49 0
-6 -11 -11 -25 -11 -20 0 -25 -5 -25 -24 0 -13 -6 -26 -14 -29 -8 -3 -16 -16
-18 -29 -2 -14 -11 -24 -23 -26 -11 -1 -30 -21 -43 -42 -14 -25 -30 -40 -42
-40 -11 0 -20 -7 -20 -15 0 -8 -7 -15 -15 -15 -8 0 -15 -5 -15 -10 0 -6 -11
-15 -24 -20 -13 -5 -27 -18 -31 -29 -3 -12 -10 -21 -15 -21 -4 0 -10 -9 -13
-20 -3 -12 -14 -20 -26 -20 -16 0 -21 -6 -21 -25 0 -16 -6 -25 -15 -25 -8 0
-15 -5 -15 -10 0 -6 -11 -15 -25 -20 -14 -5 -25 -14 -25 -20 0 -5 -7 -10 -15
-10 -8 0 -15 -5 -15 -10 0 -6 -11 -16 -25 -22 -14 -6 -25 -19 -25 -28 0 -19
-40 -50 -65 -50 -8 0 -15 -7 -15 -15 0 -8 -9 -15 -20 -15 -11 0 -23 -7 -26
-15 -4 -8 -12 -15 -19 -15 -7 0 -15 -10 -18 -21 -4 -15 -11 -20 -21 -16 -11 5
-16 0 -16 -13 0 -18 -48 -60 -69 -60 -7 0 -14 -7 -17 -15 -4 -8 -12 -15 -19
-15 -7 0 -15 -7 -19 -15 -3 -8 -11 -15 -17 -15 -16 0 -59 -48 -59 -66 0 -8 -8
-17 -17 -20 -45 -14 -62 -28 -65 -53 -2 -16 -10 -27 -21 -29 -27 -5 -57 -38
-57 -62 0 -13 -7 -20 -20 -20 -11 0 -23 -7 -26 -15 -4 -8 -12 -15 -20 -15 -8
0 -14 -5 -14 -10 0 -6 -11 -15 -25 -20 -14 -5 -25 -17 -25 -26 0 -22 -41 -64
-62 -64 -9 0 -20 -9 -23 -20 -3 -11 -11 -20 -16 -20 -5 0 -9 -7 -9 -15 0 -15
-11 -19 -39 -16 -7 2 -11 -3 -9 -10 2 -7 -16 -34 -41 -60 -70 -74 -80 -87 -87
-114 -3 -14 -15 -30 -25 -36 -11 -5 -19 -18 -19 -28 0 -10 -6 -24 -14 -30 -8
-7 -18 -25 -21 -41 -3 -16 -15 -38 -26 -51 -10 -12 -19 -28 -19 -36 0 -7 -9
-22 -20 -33 -11 -11 -20 -33 -20 -50 0 -16 -4 -30 -8 -30 -14 0 -32 -48 -32
-82 0 -17 -8 -40 -17 -51 -16 -17 -18 -48 -20 -309 0 -159 -4 -296 -7 -305
-10 -26 -19 -6 -20 44 -1 40 -5 50 -23 58 -13 5 -23 16 -23 23 0 8 -9 12 -22
10 -20 -3 -23 -8 -20 -45 2 -34 -2 -45 -20 -57 -28 -20 -57 -20 -64 -1 -9 21
-122 21 -130 0 -7 -17 -99 -22 -109 -5 -4 6 5 10 19 10 14 0 26 4 26 9 0 5 9
13 20 16 11 3 20 13 20 21 0 8 4 14 9 14 5 0 14 14 21 31 20 47 -1 105 -40
114 -16 4 -34 4 -40 0 -5 -3 -10 -35 -10 -71 0 -45 -4 -64 -13 -64 -7 0 -18
-9 -25 -21 -11 -17 -21 -20 -66 -16 -29 2 -58 7 -64 11 -19 11 -14 82 8 123
15 28 20 57 20 111 0 69 2 76 32 108 18 19 38 34 45 34 7 0 10 7 7 15 -4 9 0
15 8 15 8 0 21 12 29 28 8 15 20 33 27 40 6 7 12 25 12 39 0 14 8 37 18 51 28
41 62 111 62 128 0 8 6 17 14 20 8 3 20 19 26 35 7 16 19 29 26 29 8 0 14 9
14 20 0 10 8 27 18 37 10 10 19 34 20 53 1 19 11 47 22 62 18 24 20 43 20 166
l0 138 45 32 c25 18 52 32 60 32 7 0 16 4 20 9 7 13 65 41 83 41 15 0 82 67
82 82 0 4 7 8 15 8 8 0 15 8 15 19 0 10 11 26 25 35 14 9 25 22 25 28 0 6 6
18 14 27 8 9 26 29 40 44 14 15 26 30 26 32 0 3 9 14 20 25 12 12 18 25 15 30
-3 5 4 11 15 15 11 3 23 18 27 33 3 15 17 41 30 58 12 17 23 43 23 57 0 21 5
26 28 29 31 3 45 44 18 54 -24 9 -22 119 4 172 11 22 20 57 20 76 0 19 7 41
15 49 7 8 17 26 21 41 3 14 10 26 15 26 5 0 15 12 22 28 6 15 20 33 29 40 10
7 18 22 18 33 0 10 5 19 10 19 6 0 15 11 21 24 6 13 20 27 30 29 11 3 19 14
19 26 0 12 6 21 16 21 8 0 22 16 30 35 8 19 19 35 24 35 6 0 10 78 10 210 0
204 1 210 23 231 l22 21 -32 -4 c-40 -6 -41 2 -5 57 19 31 36 45 58 49 30 6
31 9 31 55 0 32 7 59 20 78 10 15 25 40 32 55 20 40 163 208 177 208 18 0 78
59 146 145 43 55 91 114 107 130 38 41 51 84 51 175 0 81 -33 228 -84 380 -14
41 -26 82 -26 90 0 9 -9 33 -20 55 -11 22 -20 43 -20 48 0 5 -20 51 -44 101
-68 142 -86 186 -86 218 0 25 3 28 14 19 25 -21 142 -10 162 15 7 9 10 32 7
55 -5 31 -2 39 10 39 8 0 17 6 20 13 3 9 9 9 30 -2 14 -7 32 -11 40 -8 17 6
57 106 57 142 0 13 7 28 16 33 16 9 16 11 0 33 -16 23 -22 89 -9 102 9 10 9 9
62 -95z m1698 -3118 c16 0 25 -8 29 -25 3 -13 12 -29 20 -36 18 -15 18 -87 -1
-119 -8 -14 -14 -50 -15 -81 0 -37 -5 -61 -15 -69 -8 -6 -17 -22 -21 -33 -7
-25 -93 -107 -111 -107 -7 0 -13 -6 -13 -13 0 -7 -10 -17 -22 -22 -13 -6 -25
-19 -27 -29 -2 -11 -21 -36 -42 -56 -21 -20 -39 -40 -39 -45 0 -4 -16 -24 -34
-44 -59 -61 -76 -81 -76 -87 0 -9 -61 -64 -71 -64 -5 0 -9 -6 -9 -14 0 -8 -9
-17 -19 -21 -11 -3 -23 -15 -26 -26 -4 -10 -11 -19 -16 -19 -6 0 -15 -13 -20
-29 -6 -16 -17 -32 -24 -35 -8 -3 -17 -22 -20 -43 -3 -21 -13 -50 -21 -65 -8
-15 -16 -55 -17 -90 -2 -35 -7 -71 -13 -80 -5 -10 -6 -96 -1 -219 6 -176 10
-207 27 -236 11 -19 20 -46 20 -60 0 -22 19 -53 65 -106 8 -9 15 -21 15 -25 0
-5 9 -17 19 -26 27 -25 32 -62 10 -82 -11 -10 -19 -23 -19 -29 0 -19 -63 -30
-172 -30 -70 0 -98 3 -98 12 0 7 9 17 21 23 14 8 19 19 17 38 -3 25 -6 27 -47
24 -59 -4 -73 -13 -86 -59 -10 -36 -13 -38 -56 -41 l-46 -3 -6 158 c-9 199 -9
1066 -1 1087 3 9 15 16 25 16 10 0 19 7 19 15 0 8 7 15 15 15 8 0 17 11 21 25
4 16 13 25 25 25 14 0 19 7 19 25 0 16 6 25 15 25 8 0 15 9 15 20 0 11 11 27
25 36 14 9 25 25 25 35 0 10 9 23 20 29 11 6 20 20 20 31 0 12 8 23 19 26 17
4 20 17 23 116 4 146 0 175 -23 182 -21 7 -26 45 -6 45 6 -1 23 -7 37 -15 14
-8 41 -14 61 -15 19 0 40 -5 46 -11 18 -18 223 7 245 29 7 7 21 12 31 12 11 0
41 11 67 24 46 23 73 47 130 115 17 20 32 29 45 26 11 -3 30 -5 42 -5z"/>
<path d="M8685 6763 c-136 -21 -226 -103 -163 -147 55 -39 418 -1 418 44 0 26
-28 64 -61 80 -38 20 -140 32 -194 23z"/>
<path d="M9270 6268 c-52 -5 -96 -14 -98 -19 -2 -5 -10 -9 -17 -9 -8 0 -18 -6
-22 -13 -4 -8 -16 -16 -26 -20 -16 -6 -17 -18 -15 -94 3 -77 5 -88 21 -85 10
2 17 -3 17 -13 0 -8 9 -24 20 -35 11 -11 20 -31 20 -45 0 -15 9 -31 25 -41 14
-9 25 -21 25 -26 0 -19 46 -47 96 -59 63 -14 216 -9 222 9 2 6 12 12 23 12 14
0 19 7 19 25 0 18 5 25 20 25 11 0 20 6 20 13 0 7 9 20 20 30 21 18 25 43 11
66 -11 17 16 71 36 71 13 0 14 8 8 48 -3 26 -13 52 -21 58 -8 6 -14 19 -14 28
0 9 -6 16 -14 16 -7 0 -19 7 -26 15 -7 8 -21 15 -31 15 -11 0 -19 4 -19 9 0
21 -174 32 -300 19z"/>
<path d="M9865 6758 c-66 -14 -185 -58 -185 -68 0 -13 34 -70 42 -70 4 0 15
-8 25 -19 31 -32 117 -54 181 -46 203 25 295 82 230 142 -65 60 -182 84 -293
61z"/>
</g>
</svg>
