<?xml version="1.0" standalone="no"?>
<!DOCTYPE svg PUBLIC "-//W3C//DTD SVG 20010904//EN"
 "http://www.w3.org/TR/2001/REC-SVG-20010904/DTD/svg10.dtd">
<svg version="1.0" xmlns="http://www.w3.org/2000/svg"
 width="999.000000pt" height="1125.000000pt" viewBox="0 0 999.000000 1125.000000"
 preserveAspectRatio="xMidYMid meet">
<metadata>
Created by potrace 1.16, written by Peter Selinger 2001-2019
</metadata>
<g transform="translate(0.000000,1125.000000) scale(0.100000,-0.100000)"
fill="#000000" stroke="none">
<path d="M2852 10534 c-7 -12 -16 -15 -33 -10 -46 13 -640 19 -766 7 -140 -13
-145 -14 -158 -43 -7 -16 -23 -25 -51 -31 -28 -5 -43 -14 -47 -26 -4 -15 -20
-19 -111 -25 -58 -4 -113 -9 -121 -12 -19 -8 -19 -28 0 -44 20 -17 11 -28 -34
-40 -21 -5 -55 -21 -75 -35 -39 -26 -95 -34 -153 -21 -20 5 -33 4 -33 -3 0 -5
10 -11 22 -13 12 -2 23 -8 25 -15 3 -8 -15 -13 -57 -15 l-62 -3 20 -25 c18
-23 100 -55 128 -49 5 1 15 1 23 0 11 -1 11 -4 0 -17 -8 -10 -22 -14 -39 -10
-18 3 -40 -3 -66 -19 -55 -34 -96 -33 -128 6 l-26 31 0 -26 c0 -49 31 -66 119
-66 85 0 101 -8 73 -33 -27 -25 -93 -45 -171 -53 -92 -9 -113 -2 -134 41 -9
19 -21 35 -27 35 -15 0 -12 -19 9 -49 10 -14 21 -37 22 -50 6 -41 51 -65 129
-69 75 -5 85 -12 44 -31 -21 -9 -25 -16 -20 -35 7 -28 -7 -36 -63 -36 -23 0
-48 -8 -63 -19 -16 -13 -33 -18 -47 -14 -19 5 -22 2 -19 -13 3 -17 16 -20 108
-26 57 -5 108 -12 114 -18 6 -6 5 -34 -4 -78 -15 -81 -18 -185 -7 -262 17
-130 37 -340 37 -395 -1 -120 -10 -141 -95 -223 -43 -40 -94 -84 -114 -96 -47
-30 -55 -41 -74 -101 -14 -42 -14 -57 -4 -97 7 -27 18 -53 25 -60 7 -7 12 -20
12 -30 0 -20 -36 -94 -58 -120 -21 -24 -8 -64 34 -106 35 -35 35 -36 24 -83
-17 -69 0 -111 57 -141 23 -13 44 -27 47 -33 2 -6 -1 -56 -6 -112 l-10 -102
31 -53 c16 -30 41 -64 54 -76 31 -29 121 -62 172 -62 22 0 58 -5 80 -11 22 -6
74 -19 115 -29 116 -29 172 -46 205 -64 17 -9 39 -16 50 -16 11 0 63 -10 115
-22 128 -28 133 -35 141 -188 5 -106 3 -119 -18 -163 -13 -27 -23 -53 -23 -58
0 -6 -16 -31 -35 -56 -19 -25 -35 -53 -35 -62 0 -9 -8 -29 -18 -46 -23 -40
-56 -125 -81 -210 -30 -105 -45 -223 -52 -430 -1 -11 2 -72 5 -135 4 -63 8
-137 9 -165 5 -90 18 -208 37 -340 11 -71 22 -155 26 -185 3 -30 9 -59 13 -65
9 -11 32 -154 33 -200 0 -27 -12 -74 -40 -160 -21 -62 -41 -142 -47 -190 -4
-27 -15 -87 -26 -132 -10 -45 -19 -103 -19 -130 0 -27 -4 -53 -9 -58 -8 -8
-27 -250 -28 -350 0 -16 -8 -138 -17 -270 -8 -132 -18 -273 -20 -314 -3 -42
-11 -80 -18 -86 -7 -7 -35 -18 -62 -24 -30 -7 -70 -28 -99 -52 -42 -33 -57
-39 -98 -39 -61 0 -90 -11 -146 -57 -44 -37 -45 -37 -142 -38 -113 -1 -146
-17 -157 -74 -6 -30 -3 -38 22 -58 16 -12 55 -35 86 -50 32 -16 58 -31 58 -35
0 -4 -15 -14 -32 -22 -103 -46 -113 -96 -32 -161 44 -36 61 -43 125 -53 200
-30 358 -44 448 -40 84 5 106 10 173 42 42 20 82 36 88 36 6 0 27 11 48 23 20
13 55 30 77 38 22 7 47 19 56 26 8 7 20 13 26 13 9 0 27 13 73 52 27 24 78 56
117 74 61 30 223 201 223 237 0 8 13 34 30 58 32 48 37 88 19 150 -10 33 -9
41 10 65 11 14 21 37 21 49 0 12 11 43 24 68 14 25 30 64 37 86 12 40 42 81
59 81 4 0 28 -15 52 -32 48 -37 83 -55 113 -60 33 -5 29 -34 -7 -48 -18 -8
-43 -22 -56 -31 -13 -10 -36 -20 -51 -24 -16 -3 -39 -17 -51 -30 -21 -23 -22
-27 -10 -51 27 -50 75 -64 220 -64 98 0 140 -4 168 -16 79 -34 526 -29 548 7
3 5 13 9 22 9 9 0 31 7 47 16 17 9 53 22 80 28 28 7 92 26 144 42 84 26 96 33
117 66 13 21 24 50 24 65 1 16 7 39 15 53 8 14 14 41 15 61 0 54 19 65 85 50
30 -7 57 -16 60 -21 3 -5 26 -12 51 -16 24 -3 54 -14 66 -24 l21 -17 -20 -69
c-12 -38 -31 -118 -44 -179 -12 -60 -26 -116 -32 -122 -5 -7 -7 -19 -4 -26 3
-7 1 -35 -4 -63 -5 -27 -13 -101 -18 -164 -14 -158 -29 -258 -47 -303 -13 -34
-13 -45 1 -96 8 -33 15 -71 15 -87 0 -42 28 -117 75 -202 21 -38 54 -69 93
-85 117 -50 229 -89 275 -97 28 -4 84 -16 122 -25 70 -16 87 -20 220 -49 187
-40 286 -55 430 -62 371 -18 845 8 1373 77 86 12 156 6 179 -13 7 -6 18 -28
23 -49 13 -47 74 -154 109 -191 14 -15 33 -34 41 -43 40 -42 138 -115 162
-120 15 -4 41 -19 57 -34 74 -69 187 -39 266 72 24 34 53 74 65 89 11 14 20
31 20 36 0 6 11 23 23 39 13 15 45 71 71 123 26 52 51 99 55 105 5 5 19 35 32
65 23 56 61 107 149 202 27 29 54 67 60 84 6 17 24 41 41 53 30 23 35 23 178
16 80 -4 173 -10 206 -14 l60 -6 8 -50 c4 -27 9 -66 10 -85 2 -19 10 -45 17
-58 14 -21 13 -25 -27 -61 -73 -68 -82 -153 -20 -192 42 -26 148 -22 199 8 23
14 58 22 114 26 66 4 96 12 160 42 87 41 100 47 129 63 11 6 45 22 75 35 51
22 57 29 78 81 23 59 28 132 13 182 -32 106 -42 324 -21 503 14 131 6 220 -26
265 -8 11 -14 27 -14 34 0 15 -32 59 -78 105 -49 51 -79 61 -177 62 -75 0 -96
-4 -124 -21 -43 -28 -28 -36 50 -25 73 10 209 -6 209 -25 0 -7 15 -27 33 -45
18 -19 39 -50 46 -69 7 -19 17 -44 21 -55 28 -68 28 -68 6 -332 -4 -43 0 -113
9 -179 31 -223 15 -374 -41 -382 -12 -2 -35 -20 -53 -42 -17 -22 -46 -43 -67
-50 -34 -12 -38 -11 -55 11 l-17 23 -11 -41 c-6 -22 -17 -45 -24 -50 -20 -15
-101 -43 -126 -43 -21 0 -22 3 -16 43 3 23 9 50 12 61 3 12 1 17 -8 14 -8 -3
-16 -18 -17 -34 -2 -16 -7 -31 -11 -34 -3 -3 -14 -17 -24 -32 -20 -32 -69 -48
-149 -48 -47 0 -60 4 -72 22 -10 15 -12 26 -6 39 17 31 41 49 64 49 19 0 23 6
24 37 1 21 -7 68 -19 105 -12 39 -21 99 -22 147 -1 44 -4 81 -7 81 -3 0 -16
-7 -29 -16 -20 -15 -43 -16 -176 -10 -146 7 -272 20 -282 29 -2 3 -8 36 -14
73 -5 38 -14 78 -18 89 -23 55 -67 135 -73 135 -5 0 -8 6 -8 14 0 22 -52 69
-111 100 -52 28 -59 28 -186 27 -87 -1 -147 -7 -174 -16 -30 -11 -86 -15 -208
-14 -251 1 -370 12 -511 48 -259 65 -280 76 -280 135 0 14 -9 41 -19 60 -20
36 -18 65 8 113 10 19 124 73 154 73 7 0 32 9 55 20 22 11 47 20 55 20 7 0 32
9 55 20 22 11 47 20 55 20 8 0 28 7 43 15 16 8 36 15 44 15 9 0 24 6 35 14 11
7 49 22 85 32 36 10 92 30 125 46 33 15 66 28 73 28 8 0 26 9 42 20 15 11 49
29 75 40 26 11 73 36 104 54 55 33 127 75 181 106 15 9 44 29 66 46 21 17 53
39 71 49 30 17 34 18 50 3 16 -15 18 -35 17 -177 -1 -112 -5 -165 -14 -176 -7
-8 -9 -15 -6 -15 4 0 2 -8 -3 -18 -5 -9 -42 -28 -83 -41 -40 -13 -83 -28 -96
-32 -13 -5 -33 -9 -44 -9 -12 0 -47 -8 -77 -18 -31 -11 -78 -24 -106 -31 -107
-26 -125 -32 -119 -42 9 -15 77 -4 218 37 194 56 282 69 456 68 120 -1 174 -5
240 -21 47 -12 105 -24 130 -27 25 -4 77 -16 115 -27 158 -46 195 -54 195 -42
0 4 -22 16 -48 25 -26 9 -76 27 -112 41 -36 13 -94 29 -129 36 -67 13 -149 36
-191 53 -14 6 -76 14 -139 18 -62 5 -118 13 -124 19 -6 6 -11 97 -12 243 -1
184 2 236 13 249 23 29 27 120 6 160 -14 27 -18 62 -21 165 -1 73 2 154 8 180
6 27 14 69 19 94 4 25 16 83 25 130 11 51 18 131 18 200 0 127 -5 175 -38 380
-9 52 -18 104 -20 115 -3 11 -8 34 -11 50 -14 62 -127 188 -224 251 -25 16
-56 39 -70 52 -14 13 -38 30 -55 38 -16 7 -46 24 -65 35 -19 12 -57 34 -85 49
-27 15 -78 43 -112 62 -34 20 -72 39 -85 43 -13 3 -52 20 -88 37 -182 84 -149
72 -380 148 -107 35 -209 61 -237 60 -22 0 -36 1 -94 6 -31 3 -73 1 -94 -5
-31 -8 -45 -7 -84 12 -25 11 -52 27 -60 35 -16 15 -51 11 -181 -20 -71 -17
-101 -19 -190 -13 -58 3 -132 13 -165 21 -33 7 -76 14 -95 14 -20 0 -60 7 -90
15 -30 8 -82 20 -115 26 -33 5 -93 26 -133 45 -40 18 -75 34 -78 34 -9 0 -149
94 -167 112 -10 10 -37 30 -60 45 -23 14 -99 64 -168 109 -70 46 -129 84 -132
84 -3 0 -17 10 -30 23 -14 12 -47 34 -73 48 -27 14 -74 38 -104 54 -30 16 -57
32 -60 35 -3 4 -31 19 -63 35 -45 22 -96 65 -216 185 -87 87 -161 165 -165
175 -9 23 11 45 40 45 14 0 30 10 41 26 9 14 33 36 53 49 60 38 118 155 71
142 -35 -9 -45 9 -17 30 35 28 96 120 96 147 0 11 9 32 20 46 11 14 20 32 20
41 0 9 11 33 25 53 13 20 22 42 19 50 -3 8 8 29 24 47 33 38 72 103 72 121 0
6 7 20 17 30 19 21 25 31 79 140 76 152 89 209 87 403 -1 122 2 176 11 190 28
45 50 160 50 270 1 184 -5 248 -25 270 -10 11 -25 38 -34 60 -28 67 -58 130
-66 135 -5 3 -15 21 -23 40 -20 44 -40 70 -55 70 -6 0 -11 -8 -11 -17 0 -15
-4 -13 -20 7 -11 14 -23 36 -26 50 -6 25 -48 104 -68 127 -70 84 -262 263
-282 263 -13 0 -98 44 -102 53 -2 4 -10 7 -19 7 -8 0 -51 16 -97 35 -45 20
-99 38 -121 40 -161 19 -238 27 -290 29 -58 3 -124 16 -195 38 -19 6 -62 17
-95 24 -33 7 -109 24 -169 38 -128 31 -132 31 -144 10z m-1081 -627 c-9 -23
-7 -180 2 -232 3 -16 8 -64 12 -105 4 -51 12 -79 23 -87 8 -7 17 -12 18 -10 2
2 5 30 8 63 6 72 52 177 100 228 37 38 56 37 30 -1 -8 -13 -13 -30 -11 -36 2
-7 -2 -30 -10 -52 -31 -86 -51 -219 -50 -319 1 -58 6 -101 12 -103 6 -2 28 47
50 109 50 144 114 272 160 321 41 43 57 43 28 0 -29 -44 -58 -108 -103 -233
-23 -63 -46 -120 -51 -126 -5 -6 -6 -14 -2 -17 3 -4 1 -7 -5 -7 -7 0 -12 -6
-12 -12 0 -7 -7 -26 -15 -41 -8 -15 -17 -43 -21 -62 -5 -28 -3 -36 12 -42 10
-3 19 -2 21 3 11 34 162 269 168 261 1 -1 -1 -29 -5 -62 -8 -67 10 -185 36
-241 49 -102 178 -131 261 -59 l38 33 21 -23 c11 -12 26 -24 33 -26 19 -7 -49
-120 -84 -140 -17 -10 -51 -23 -77 -30 -96 -26 -205 25 -237 112 -7 19 -19 49
-27 67 -18 41 -18 86 0 137 15 44 12 62 -9 45 -21 -18 -27 -80 -15 -155 20
-127 70 -194 172 -234 l57 -23 58 20 c32 11 66 23 75 27 16 6 17 1 11 -57 -4
-53 -2 -71 15 -104 38 -75 64 -79 156 -22 l49 30 -25 -44 c-38 -64 -104 -102
-190 -108 -81 -6 -94 -23 -23 -31 28 -3 62 -11 77 -18 16 -8 40 -11 60 -7 40
7 138 89 120 100 -6 4 -28 -8 -50 -28 -37 -34 -92 -57 -92 -39 0 5 14 17 30
26 50 30 90 78 122 147 28 60 31 63 44 45 37 -50 2 -195 -66 -276 -79 -94 -98
-109 -140 -109 -36 0 -92 -31 -79 -44 3 -3 55 -1 115 5 89 9 115 15 141 35 17
13 36 24 42 24 16 0 -26 -99 -60 -142 -32 -40 -36 -58 -15 -58 15 0 66 55 66
70 0 18 133 140 153 140 12 0 35 14 53 31 24 23 42 32 75 34 24 1 64 10 89 20
48 18 138 15 186 -7 27 -13 58 -84 57 -132 -2 -63 -25 -156 -56 -226 -19 -41
-90 -150 -98 -150 -4 0 -11 -9 -14 -20 -3 -11 -10 -20 -15 -20 -5 0 -35 -16
-67 -35 -32 -19 -67 -35 -78 -35 -11 0 -33 -7 -49 -15 -46 -24 -112 -19 -152
11 -54 41 -84 14 -48 -42 27 -40 44 -44 150 -35 70 6 112 15 142 31 24 12 45
20 48 18 2 -3 -29 -40 -70 -82 -55 -56 -81 -76 -100 -76 -32 0 -33 -14 -4 -34
15 -11 26 -12 39 -6 10 6 33 10 51 10 30 0 147 22 188 35 10 3 17 0 17 -9 0
-9 -4 -13 -9 -10 -5 3 -14 1 -21 -4 -54 -44 -117 -61 -162 -43 -21 9 -45 4
-45 -9 0 -4 19 -16 43 -25 51 -21 162 -21 233 1 26 8 46 12 43 10 -2 -2 -31
-25 -64 -51 -81 -62 -165 -138 -165 -147 0 -9 42 15 75 42 11 9 52 27 90 39
68 21 109 23 351 23 69 0 174 -36 257 -89 37 -24 69 -43 72 -43 5 0 21 -13 68
-54 13 -13 37 -33 53 -45 16 -12 62 -54 102 -92 40 -38 76 -69 80 -69 4 0 22
-16 41 -35 18 -18 88 -62 155 -96 66 -34 148 -82 181 -108 33 -26 76 -56 95
-68 19 -12 44 -30 55 -40 54 -49 125 -103 146 -113 13 -5 64 -34 112 -65 49
-30 98 -57 109 -61 26 -8 137 -74 144 -85 3 -5 20 -9 38 -9 18 0 41 -7 52 -15
10 -8 30 -15 44 -15 14 0 59 -10 100 -21 80 -23 98 -26 175 -35 28 -3 65 -12
83 -21 32 -14 33 -15 16 -34 -9 -10 -21 -19 -27 -19 -13 0 -79 -31 -97 -46 -8
-6 -40 -24 -70 -39 -30 -15 -62 -31 -70 -36 -8 -5 -33 -18 -55 -28 -22 -11
-56 -34 -76 -53 -19 -18 -57 -50 -85 -72 -51 -40 -204 -195 -204 -206 0 -3 -8
-15 -18 -26 -98 -108 -176 -220 -232 -334 -18 -36 -45 -91 -61 -123 -16 -31
-29 -63 -29 -69 0 -6 -9 -30 -19 -52 -11 -23 -35 -88 -55 -146 -44 -134 -56
-168 -73 -207 -7 -17 -13 -37 -13 -45 0 -8 -4 -18 -10 -24 -26 -26 -55 -252
-63 -499 -3 -80 -10 -132 -21 -157 -9 -21 -16 -47 -16 -59 0 -11 -9 -32 -20
-46 -11 -14 -20 -36 -20 -50 0 -13 -7 -40 -15 -60 -8 -19 -15 -47 -15 -61 0
-32 -36 -72 -64 -72 -28 0 -252 64 -311 89 -16 7 -50 19 -75 28 -25 8 -72 27
-105 43 -33 15 -67 31 -75 34 -8 4 -45 24 -81 44 -36 20 -81 45 -100 56 -19
10 -65 39 -102 65 -38 25 -83 55 -101 66 -37 22 -171 141 -220 194 -26 29 -72
75 -157 155 -8 9 -23 42 -33 75 -25 82 -17 200 24 401 24 117 30 183 36 410 6
258 -4 386 -33 408 -26 19 -37 -1 -23 -43 22 -67 25 -152 15 -405 -6 -162 -26
-383 -35 -405 -5 -11 -11 -38 -13 -60 -10 -88 -50 -241 -68 -260 -14 -16 -18
-35 -17 -75 1 -50 -7 -133 -19 -185 -2 -11 -6 -31 -9 -44 -3 -13 -11 -39 -19
-59 -8 -19 -15 -43 -15 -53 0 -34 -83 -274 -100 -289 -9 -9 -20 -27 -23 -41
-4 -14 -19 -47 -34 -73 -16 -26 -34 -57 -40 -69 -7 -12 -10 -34 -7 -49 3 -18
-6 -49 -30 -101 -20 -41 -36 -81 -36 -89 -1 -7 -9 -31 -20 -53 -11 -22 -19
-50 -20 -61 0 -12 -14 -48 -30 -79 -17 -31 -30 -71 -30 -87 0 -42 -28 -134
-45 -148 -8 -7 -15 -17 -15 -22 0 -13 -50 -58 -65 -58 -7 0 -22 -9 -35 -20
-12 -10 -42 -29 -67 -41 -25 -12 -47 -28 -50 -35 -4 -12 -39 -35 -148 -101
-39 -24 -67 -33 -97 -33 -18 0 -36 -8 -46 -20 -20 -25 -64 -37 -197 -56 -55
-8 -135 -19 -177 -25 -75 -11 -165 -7 -278 11 -30 5 -72 12 -93 15 -29 5 -43
14 -57 38 -33 54 -14 63 151 71 146 7 182 16 177 44 -3 13 -20 18 -81 24 -105
10 -195 38 -268 84 -47 29 -46 48 2 52 19 2 40 9 48 15 9 8 72 14 165 17 128
4 151 7 154 21 2 12 -8 18 -44 23 -26 3 -60 6 -75 6 -16 0 -29 5 -29 10 0 16
50 32 95 31 22 0 73 9 113 19 78 21 112 25 112 12 0 -13 -80 -165 -96 -183
-16 -18 -9 -49 10 -49 7 0 17 10 23 23 48 101 64 131 109 192 29 39 55 86 59
105 5 19 10 100 12 180 2 80 6 163 8 185 3 22 6 63 8 90 3 28 7 70 10 95 4 25
9 78 11 119 5 77 17 165 41 311 8 47 19 123 25 169 5 46 14 98 19 115 9 31 32
140 57 275 7 40 17 78 22 85 16 20 20 53 11 98 -4 23 -13 93 -19 153 -6 61
-16 126 -23 145 -6 19 -13 51 -14 70 -1 19 -7 67 -13 105 -14 86 -18 436 -8
725 6 190 13 264 31 335 34 134 49 185 61 210 7 17 24 55 37 85 12 30 31 64
41 76 10 11 18 31 18 45 0 22 35 82 58 98 4 3 15 17 23 31 21 32 114 96 202
140 67 33 87 60 45 60 -33 0 -189 -61 -225 -88 -40 -30 -61 -26 -84 16 -16 31
-16 38 -3 74 8 22 14 44 14 48 0 4 -21 11 -46 15 -25 3 -64 13 -86 21 -22 8
-56 14 -74 14 -18 0 -111 25 -206 56 -133 42 -196 58 -273 65 -55 5 -111 12
-125 15 -34 7 -100 54 -100 70 0 7 -8 15 -17 18 -35 11 -58 107 -33 132 7 7
10 46 8 95 l-3 84 -38 19 c-46 22 -64 56 -51 94 9 26 10 26 97 23 94 -3 120
12 41 24 -26 4 -61 13 -78 20 -17 7 -46 19 -64 26 -19 7 -40 23 -49 36 -14 21
-13 27 10 76 14 28 30 73 36 100 10 40 9 51 -6 75 -10 15 -21 30 -26 33 -4 3
-10 22 -14 42 -7 46 24 96 81 128 22 12 58 39 80 61 23 21 44 38 47 38 3 0 21
30 40 66 40 80 49 181 29 324 -13 85 -12 471 1 535 5 28 12 62 16 77 3 19 19
36 48 53 65 38 76 34 68 -20 -5 -41 -4 -45 16 -45 18 0 21 6 21 44 0 52 18
108 34 103 12 -4 9 -61 -4 -87 -13 -26 0 -243 15 -259 22 -23 29 -6 16 41 -17
65 -18 123 -3 121 6 -2 12 2 12 7 0 6 -5 10 -11 10 -7 0 -9 10 -4 27 8 32 74
143 86 143 4 0 7 -28 7 -62 -1 -50 4 -73 24 -108 14 -25 29 -61 33 -80 8 -38
26 -70 38 -70 5 0 6 9 2 20 -27 84 -18 207 19 294 34 77 112 161 87 93z m4336
-3631 c3 -3 -8 -11 -25 -17 -31 -11 -42 -32 -23 -43 5 -3 24 0 42 8 19 7 84
22 144 32 128 22 426 27 466 8 48 -23 119 -45 127 -40 5 3 26 -3 46 -14 21
-10 52 -22 69 -26 18 -3 57 -18 87 -31 30 -14 72 -31 92 -39 56 -20 247 -121
301 -160 26 -19 49 -34 52 -34 8 0 89 -53 100 -66 6 -6 37 -31 70 -55 33 -23
80 -62 105 -85 25 -23 64 -59 88 -79 23 -21 42 -43 42 -50 0 -7 6 -15 14 -18
14 -6 43 -88 65 -182 29 -127 37 -601 12 -668 -6 -14 -8 -27 -5 -29 5 -5 -22
-127 -64 -286 -18 -68 -42 -133 -61 -163 -17 -28 -31 -59 -31 -70 0 -22 -17
-41 -84 -89 -26 -19 -68 -52 -92 -72 -25 -21 -49 -38 -53 -38 -5 0 -35 -20
-67 -45 -32 -25 -88 -62 -124 -82 -35 -20 -69 -40 -75 -45 -20 -16 -140 -94
-155 -101 -8 -4 -22 -11 -30 -16 -27 -17 -125 -59 -190 -82 -36 -12 -74 -28
-85 -35 -11 -6 -36 -15 -55 -19 -19 -4 -41 -11 -50 -16 -25 -14 -122 -24 -175
-19 -43 4 -50 8 -47 25 9 69 -1 165 -26 255 -17 59 -46 134 -58 145 -5 6 -22
28 -36 50 -31 49 -165 184 -233 235 -28 20 -56 44 -64 53 -7 10 -27 17 -43 17
-16 0 -50 9 -76 20 -26 10 -60 21 -77 23 -16 3 -77 14 -135 26 -216 44 -175
42 -445 20 -71 -6 -137 -15 -146 -20 -9 -4 -40 -10 -70 -13 -120 -11 -226 -40
-320 -87 -44 -22 -110 -29 -116 -12 -2 7 41 58 96 113 89 90 110 120 82 120
-4 0 -22 -13 -39 -30 -18 -16 -38 -30 -47 -30 -23 0 23 73 98 154 20 21 24 33
17 40 -8 8 -20 1 -43 -25 -81 -90 -97 -109 -97 -115 0 -3 -20 -29 -45 -56 -25
-28 -45 -54 -45 -58 0 -13 -38 -18 -49 -7 -14 14 -14 120 0 172 6 22 15 69 19
105 18 141 52 290 91 400 94 259 105 284 153 349 14 19 26 39 26 44 0 6 10 24
23 41 12 17 28 43 34 57 10 23 61 89 112 147 12 12 21 25 21 28 0 12 209 223
253 257 16 12 53 41 82 65 30 23 56 42 59 42 3 0 27 15 53 34 42 29 97 59 183
102 14 6 41 15 60 19 19 4 41 11 50 15 29 14 115 42 149 48 40 8 109 7 118 -2z
m-3055 -1872 c29 -26 65 -58 80 -73 32 -31 101 -91 146 -127 31 -25 32 -28 32
-105 0 -77 -1 -80 -27 -90 -16 -6 -73 -13 -128 -16 -55 -2 -116 -11 -135 -19
-39 -16 -196 -54 -222 -54 -25 0 -22 22 11 84 16 30 35 74 41 98 6 23 26 79
45 123 18 44 37 97 40 118 4 20 11 40 16 43 5 3 9 13 9 23 0 17 18 41 32 41 4
0 31 -21 60 -46z m2743 -117 c124 -12 321 -80 337 -115 2 -4 27 -22 55 -41 29
-18 77 -59 108 -92 59 -64 71 -95 130 -325 21 -83 24 -114 20 -187 -3 -48 -10
-98 -14 -110 -5 -13 -41 -56 -81 -95 -84 -85 -92 -87 -232 -43 -144 46 -249
62 -430 68 -143 5 -172 3 -202 -11 -78 -37 -56 -61 40 -45 61 11 92 10 235 -9
237 -32 288 -41 309 -52 10 -5 29 -10 43 -10 25 0 246 -57 332 -85 28 -9 75
-23 105 -32 30 -9 69 -22 86 -29 17 -8 60 -18 95 -23 71 -10 157 -32 234 -58
42 -15 91 -18 315 -18 146 0 345 2 442 4 l178 3 57 -33 c46 -28 64 -47 101
-109 92 -155 87 -263 -18 -386 -19 -22 -51 -62 -70 -88 -19 -26 -42 -55 -51
-65 -19 -22 -59 -103 -59 -121 0 -7 -6 -21 -13 -29 -7 -9 -28 -50 -47 -91 -37
-81 -40 -86 -85 -134 -16 -17 -36 -44 -45 -61 -22 -44 -45 -43 -89 6 -33 38
-42 43 -77 41 -117 -6 -129 -8 -132 -24 -2 -9 2 -19 7 -23 6 -3 11 -20 11 -36
0 -37 -33 -54 -85 -45 -36 7 -75 36 -75 56 0 6 18 17 40 26 22 9 40 22 40 30
0 7 9 18 20 24 28 15 25 26 -20 80 -26 31 -40 58 -40 76 0 49 -44 130 -74 138
-15 4 -31 4 -36 1 -15 -9 -12 -35 4 -35 7 0 25 -9 40 -21 22 -17 26 -28 26
-73 0 -56 -13 -77 -58 -91 -44 -13 -79 3 -96 46 -20 49 -21 126 -2 171 8 19
18 59 21 89 10 80 101 259 170 334 74 81 119 125 126 125 14 0 17 29 4 33 -18
8 -70 -33 -101 -78 -14 -21 -37 -47 -51 -58 -13 -11 -36 -38 -51 -61 -39 -62
-112 -213 -112 -232 0 -9 -12 -42 -27 -73 -14 -31 -29 -67 -33 -81 -6 -24 -9
-25 -126 -32 -65 -3 -157 -11 -204 -17 -47 -6 -119 -13 -160 -16 -41 -4 -94
-11 -118 -16 -132 -29 -287 -40 -627 -46 -356 -5 -362 -5 -540 22 -99 15 -193
33 -210 39 -16 7 -66 18 -110 25 -169 27 -261 46 -360 74 -53 16 -169 71 -197
95 -78 66 -115 319 -83 566 23 184 34 236 111 516 14 54 30 126 40 185 3 17
14 48 24 70 9 22 23 58 30 80 44 139 172 324 262 381 95 60 288 113 546 149
108 15 359 16 497 2z m-2255 -268 c30 -18 71 -44 90 -59 39 -28 144 -80 202
-99 21 -7 40 -16 43 -21 3 -5 22 -14 43 -20 20 -7 52 -19 70 -28 l33 -15 -3
-71 c-2 -39 -6 -75 -9 -81 -4 -5 -9 -27 -13 -47 -5 -26 -18 -46 -43 -67 -31
-26 -47 -30 -122 -37 -47 -4 -95 -13 -107 -21 -22 -14 -98 -31 -259 -59 -71
-12 -128 -14 -270 -9 -99 4 -220 9 -270 10 -99 3 -159 10 -175 20 -20 12 18
42 62 49 22 4 68 20 102 37 33 17 82 33 109 36 73 9 61 49 -14 45 -23 -2 -39
2 -42 11 -3 7 -23 19 -45 25 -22 7 -70 35 -108 62 -38 28 -74 50 -80 50 -36 0
-33 70 5 104 19 18 44 15 221 -23 76 -16 100 13 58 69 -34 47 -16 56 84 44 66
-8 90 -8 117 3 18 8 45 13 60 11 22 -3 26 -8 24 -33 -2 -50 -5 -179 -4 -192 2
-22 20 -14 27 12 8 31 11 57 23 192 9 105 24 153 55 175 5 3 25 -4 45 -18 20
-13 61 -38 91 -55z"/>
<path d="M1520 8946 c0 -26 -13 -35 -25 -16 -3 6 -13 10 -22 10 -12 0 -14 -7
-9 -31 5 -26 1 -35 -19 -51 -14 -11 -25 -26 -25 -34 0 -16 36 -19 45 -4 15 24
22 6 12 -31 -8 -34 -7 -52 8 -96 28 -82 72 -105 110 -58 19 23 27 25 122 27
100 3 127 14 71 29 -15 4 -36 13 -48 22 -20 14 -20 14 12 46 35 34 27 42 -12
11 -37 -29 -50 -26 -40 9 4 15 12 37 18 48 6 11 7 25 2 33 -6 10 -13 5 -29
-21 -12 -19 -21 -37 -21 -41 0 -5 -5 -8 -11 -8 -5 0 -7 5 -4 10 3 6 1 10 -5
10 -6 0 -5 13 5 36 22 52 18 63 -8 30 -20 -25 -25 -27 -30 -12 -4 9 0 33 8 52
8 20 10 34 4 34 -6 0 -15 -13 -20 -30 -15 -41 -26 -38 -21 8 3 35 2 36 -12 18
-9 -11 -17 -27 -17 -35 -1 -9 -4 -1 -8 18 -7 42 -31 54 -31 17z"/>
<path d="M5705 6029 c-49 -33 -110 -77 -134 -97 -24 -20 -69 -55 -100 -78 -91
-68 -135 -114 -123 -126 8 -8 27 4 68 42 32 28 69 59 83 68 15 9 51 36 81 61
30 26 99 75 153 111 53 35 97 68 97 72 0 21 -43 3 -125 -53z"/>
<path d="M5070 5478 c-18 -29 -41 -64 -51 -78 -27 -36 -64 -109 -79 -154 -7
-22 -31 -73 -53 -113 -45 -84 -104 -276 -113 -372 -6 -58 -6 -63 12 -59 10 2
20 12 22 23 5 32 110 356 133 410 51 121 65 149 87 179 30 40 92 173 92 197 0
32 -17 21 -50 -33z"/>
</g>
</svg>
