<?xml version="1.0" standalone="no"?>
<!DOCTYPE svg PUBLIC "-//W3C//DTD SVG 20010904//EN"
 "http://www.w3.org/TR/2001/REC-SVG-20010904/DTD/svg10.dtd">
<svg version="1.0" xmlns="http://www.w3.org/2000/svg"
 width="775.000000pt" height="1125.000000pt" viewBox="0 0 775.000000 1125.000000"
 preserveAspectRatio="xMidYMid meet">
<metadata>
Created by potrace 1.16, written by Peter Selinger 2001-2019
</metadata>
<g transform="translate(0.000000,1125.000000) scale(0.100000,-0.100000)"
fill="#000000" stroke="none">
<path d="M2270 10518 c-19 -12 -37 -25 -40 -28 -5 -5 -23 -16 -99 -57 -25 -14
-60 -36 -78 -49 -17 -13 -36 -24 -41 -24 -5 0 -15 -6 -21 -14 -7 -8 -26 -22
-44 -30 -18 -9 -48 -27 -68 -39 -19 -12 -57 -35 -85 -51 -140 -84 -151 -98
-114 -146 13 -17 20 -41 20 -72 0 -30 8 -60 20 -80 13 -22 20 -51 20 -85 0
-44 4 -55 30 -80 l30 -28 0 -2895 c0 -2643 1 -2907 16 -3032 16 -127 16 -141
1 -205 -13 -50 -17 -115 -17 -249 0 -168 -1 -182 -20 -199 -25 -22 -27 -80 -5
-151 12 -41 15 -139 15 -588 l0 -538 -25 -30 c-20 -24 -25 -40 -25 -85 0 -38
-6 -62 -18 -78 -17 -21 -19 -45 -21 -187 -1 -144 1 -166 16 -184 41 -45 111
-131 133 -164 13 -19 34 -44 45 -55 12 -11 37 -41 55 -67 18 -27 37 -48 42
-48 4 0 8 -6 8 -14 0 -8 4 -16 8 -18 10 -4 225 -267 290 -355 40 -54 50 -62
72 -57 75 16 134 27 320 60 112 19 208 38 212 40 5 3 18 24 30 47 41 81 200
208 258 207 9 0 20 4 25 8 12 10 100 29 170 36 65 7 217 30 543 81 53 9 135
20 182 25 47 4 92 11 100 14 8 3 35 8 60 10 77 7 204 27 236 37 17 5 50 9 74
9 24 0 69 5 99 10 81 15 384 60 471 71 41 5 97 13 125 18 27 5 84 14 125 20
41 6 91 13 110 16 67 10 186 25 247 31 126 13 256 -46 321 -143 16 -26 50 -29
129 -13 26 5 104 19 173 31 200 33 190 25 190 160 0 55 -4 108 -10 118 -6 12
-6 31 1 55 9 33 7 45 -15 90 -15 30 -26 70 -26 93 0 25 -8 50 -20 66 -19 24
-20 40 -20 596 0 554 1 571 19 571 10 0 33 14 51 30 29 27 31 34 25 66 -8 46
-23 69 -52 85 l-23 12 0 3357 c0 3341 0 3357 20 3375 22 20 40 73 40 120 0 17
7 39 15 49 9 12 15 42 15 72 0 37 4 54 15 58 8 3 15 12 15 19 0 8 9 26 21 41
48 61 13 74 -196 76 -71 0 -161 5 -200 11 -38 5 -149 14 -245 20 -96 6 -238
14 -315 18 -238 14 -469 31 -500 37 -16 3 -106 9 -200 14 -160 9 -266 16 -595
41 -74 5 -205 14 -290 20 -85 5 -225 14 -310 20 -85 5 -216 14 -290 19 -74 5
-214 13 -310 19 -96 6 -199 15 -229 21 -30 5 -101 10 -158 10 -57 0 -145 4
-196 9 -51 6 -139 12 -197 15 -97 6 -108 5 -140 -16z m445 -58 c72 -5 193 -14
270 -20 77 -5 174 -12 215 -16 41 -3 152 -9 245 -14 94 -4 213 -13 265 -19 52
-6 165 -15 250 -21 353 -25 459 -32 545 -35 50 -2 137 -8 195 -14 58 -6 164
-13 235 -16 145 -6 224 -11 370 -24 55 -5 107 -9 115 -9 8 0 83 -4 165 -10 83
-6 229 -16 325 -22 96 -6 216 -15 267 -20 50 -6 129 -10 174 -10 94 0 201 -19
196 -35 -2 -5 -13 -9 -24 -7 -11 1 -26 -4 -33 -13 -16 -19 -31 -20 -24 0 7 17
-21 21 -31 5 -3 -5 -23 -10 -45 -10 -33 0 -37 3 -33 20 3 11 0 20 -5 20 -6 0
-16 -9 -22 -20 -6 -11 -19 -20 -29 -20 -14 0 -18 5 -14 20 4 14 0 20 -10 20
-9 0 -19 -9 -22 -20 -3 -11 -15 -20 -26 -20 -22 0 -24 11 -7 28 9 9 9 12 -3
12 -9 0 -24 -9 -34 -20 -22 -25 -60 -28 -51 -4 11 30 -5 34 -29 8 -23 -25 -28
-26 -92 -20 -38 3 -123 9 -190 12 -68 4 -121 9 -119 13 3 4 -8 7 -22 6 -24 0
-27 3 -24 28 4 34 -15 36 -28 2 -11 -30 -40 -33 -40 -5 0 11 -7 20 -15 20 -8
0 -15 -9 -15 -20 0 -13 -7 -20 -20 -20 -16 0 -19 5 -14 24 4 16 1 25 -10 29
-9 4 -15 3 -14 -1 6 -23 -16 -52 -40 -52 -20 0 -23 3 -14 12 16 16 15 28 -2
28 -8 0 -18 -10 -21 -21 -6 -19 -12 -21 -52 -15 -25 3 -54 6 -65 6 -18 0 -18
1 -4 16 9 8 16 20 16 25 0 16 -19 10 -37 -11 -18 -20 -70 -29 -58 -10 4 6 11
7 17 4 5 -4 4 4 -3 17 -9 18 -14 20 -17 9 -8 -22 -29 -40 -47 -40 -13 0 -16 6
-11 25 8 30 -9 33 -26 5 -8 -13 -24 -20 -42 -20 -23 0 -27 3 -18 12 16 16 15
28 -2 28 -7 0 -16 -10 -19 -21 -5 -18 -11 -21 -38 -15 -17 3 -42 6 -54 6 -18
0 -21 4 -17 25 3 18 0 25 -11 25 -9 0 -17 -10 -19 -22 -2 -18 -10 -24 -33 -25
-16 -1 -24 0 -17 3 15 7 16 40 2 49 -6 4 -15 -7 -21 -24 -11 -31 -12 -31 -79
-31 -68 0 -69 0 -64 25 5 31 -21 35 -29 5 -3 -12 -14 -20 -27 -20 -15 0 -20 5
-17 15 8 20 -8 28 -23 10 -18 -21 -40 -19 -40 5 0 23 -15 27 -24 5 -8 -23 -46
-19 -46 5 0 12 -7 20 -16 20 -12 0 -15 -6 -11 -21 5 -18 2 -20 -21 -15 -15 3
-71 9 -124 12 -86 6 -98 9 -98 26 0 10 -4 18 -10 18 -5 0 -10 -7 -10 -15 0
-10 -11 -15 -35 -15 -28 0 -35 4 -35 20 0 11 -4 20 -10 20 -5 0 -10 -9 -10
-19 0 -23 -21 -28 -97 -23 -45 3 -52 7 -57 28 -8 31 -26 31 -26 0 0 -28 27
-28 -270 -1 -91 9 -294 19 -452 24 -157 5 -291 12 -297 16 -6 3 -80 11 -164
17 -83 5 -185 12 -224 15 -61 4 -73 8 -73 22 0 9 -7 26 -15 37 -8 10 -15 23
-15 27 0 4 35 5 78 2 42 -3 136 -10 207 -15z m-391 -82 c8 -6 8 -8 0 -8 -6 0
-19 9 -29 20 -27 30 -48 27 -33 -5 6 -14 16 -25 22 -25 14 0 -96 -69 -167
-106 -55 -27 -59 -28 -71 -11 -14 18 -36 23 -36 8 0 -6 5 -13 10 -16 6 -3 10
-11 10 -17 0 -6 -8 -1 -19 10 -19 23 -41 29 -41 13 0 -5 7 -16 15 -25 8 -8 15
-17 15 -20 0 -3 -7 -6 -15 -6 -8 0 -15 5 -15 10 0 6 -9 10 -20 10 -11 0 -20
-5 -20 -10 0 -7 -6 -7 -20 0 -26 14 -25 27 2 36 21 6 96 51 108 64 3 3 18 11
33 18 15 6 52 30 81 52 29 22 59 40 67 40 8 0 30 14 49 30 l35 29 14 -42 c8
-23 19 -45 25 -49z m331 -224 c42 -13 211 -24 520 -33 176 -6 399 -15 495 -21
96 -6 297 -15 445 -21 149 -5 313 -14 365 -20 116 -12 338 -25 650 -38 129 -5
251 -14 270 -20 19 -6 100 -11 180 -11 90 0 172 -6 215 -15 39 -8 122 -15 185
-15 63 0 131 -4 150 -10 19 -5 108 -11 198 -14 90 -2 166 -6 169 -10 6 -6 -12
-10 -34 -7 -7 1 -13 -2 -13 -6 0 -12 -49 -67 -55 -61 -3 3 1 11 10 18 17 14
20 50 4 50 -6 0 -13 -9 -16 -20 -3 -11 -9 -20 -14 -20 -5 0 -9 -7 -9 -16 0
-15 -10 -16 -92 -9 -51 5 -114 9 -139 9 -44 1 -46 2 -36 24 6 12 7 25 4 28 -9
9 -37 -15 -37 -31 0 -6 -7 -12 -14 -12 -11 0 -12 5 -5 18 5 10 9 25 9 33 0 27
-20 18 -31 -14 -10 -27 -15 -30 -55 -30 -41 0 -44 2 -34 19 15 28 12 51 -5 51
-9 0 -15 -9 -15 -23 0 -26 -17 -47 -39 -47 -12 0 -12 3 -3 12 14 14 16 48 3
48 -5 0 -16 -11 -25 -25 -20 -30 -36 -33 -29 -5 7 27 -5 25 -34 -6 -24 -27
-46 -27 -24 0 7 9 8 17 2 20 -5 3 -18 -6 -28 -20 -16 -22 -25 -25 -49 -20 -27
6 -30 10 -26 38 3 22 1 29 -8 26 -7 -2 -15 -15 -17 -28 -2 -13 -5 -25 -6 -26
-1 -2 -62 0 -135 3 -111 5 -132 8 -127 21 6 17 -13 44 -26 36 -5 -3 -9 -14 -9
-25 0 -10 -4 -19 -10 -19 -5 0 -10 11 -10 25 0 14 -4 25 -10 25 -5 0 -10 -10
-10 -23 0 -23 -2 -23 -91 -23 l-90 1 4 28 c5 34 -1 35 -13 2 -9 -23 -15 -25
-70 -25 -57 0 -60 1 -60 25 0 33 -18 32 -22 -1 l-3 -26 -161 1 c-89 1 -186 6
-215 10 -30 5 -57 7 -61 5 -15 -9 -56 9 -61 26 -3 11 -13 19 -23 18 -11 0 -28
3 -38 7 -17 7 -18 5 -12 -19 6 -26 5 -27 -26 -24 -25 2 -34 8 -36 26 -4 27
-22 29 -22 2 0 -11 -7 -20 -15 -20 -9 0 -15 10 -15 26 0 15 -4 23 -10 19 -6
-4 -8 -16 -4 -27 6 -19 3 -19 -78 -13 -45 4 -111 6 -144 5 -61 -1 -62 -1 -75
32 l-13 33 -3 -27 c-3 -16 -11 -28 -19 -28 -8 0 -13 3 -12 8 0 4 -2 15 -6 24
-10 22 -27 13 -20 -10 3 -9 -3 -5 -12 11 -21 31 -34 35 -34 10 -1 -14 -4 -13
-14 6 -16 28 -31 13 -21 -22 4 -15 1 -13 -11 8 -21 39 -21 38 -33 30 -8 -4 -8
-12 -1 -26 10 -17 7 -19 -20 -19 -24 0 -35 7 -48 30 -9 16 -20 30 -24 30 -12
0 -9 -25 3 -37 8 -8 -9 -12 -66 -15 -83 -3 -88 -2 -98 25 -9 23 -27 22 -27 -3
0 -11 -6 -20 -14 -20 -8 0 -18 9 -21 20 -3 11 -11 20 -17 20 -6 0 -8 -9 -5
-20 3 -11 1 -20 -4 -20 -8 0 -10 6 -9 25 1 9 -31 38 -36 33 -2 -3 0 -17 5 -32
9 -21 8 -26 -5 -26 -9 0 -14 6 -12 12 5 13 -14 38 -27 38 -4 0 -4 -12 -1 -27
l7 -28 -26 30 -26 30 6 -29 6 -29 -98 7 c-54 4 -111 8 -128 9 -22 2 -33 9 -42
30 -15 35 -38 36 -29 2 4 -15 2 -25 -4 -25 -6 0 -15 11 -20 25 -5 14 -14 25
-20 25 -13 0 -13 -6 0 -31 10 -17 7 -19 -25 -19 -19 0 -35 5 -35 10 0 6 -5 10
-11 10 -5 0 -7 -4 -4 -10 3 -5 2 -10 -4 -10 -5 0 -16 12 -23 28 -7 15 -20 27
-28 27 -8 0 -20 7 -27 15 -16 21 -30 3 -15 -20 14 -23 16 -40 3 -40 -5 0 -15
16 -21 35 -12 37 -40 48 -37 15 1 -11 4 -20 8 -20 4 0 9 -6 12 -12 3 -10 -23
-12 -122 -8 -69 3 -131 8 -138 13 -6 4 -17 23 -23 42 -11 32 -30 48 -30 25 0
-5 -11 1 -25 14 -14 13 -25 25 -25 27 0 7 243 0 265 -7z m-377 -59 c-2 -19 -1
-32 3 -29 4 2 9 -5 12 -15 5 -21 -17 -36 -35 -24 -6 3 -8 2 -5 -4 4 -6 -5 -15
-19 -22 -20 -9 -24 -9 -18 1 4 7 -4 3 -18 -10 -13 -12 -27 -20 -30 -17 -2 3
-22 -4 -44 -14 -36 -18 -39 -18 -42 -3 -7 38 -25 72 -38 72 -17 0 -18 -22 -2
-38 7 -7 9 -12 5 -12 -3 0 -2 -11 3 -25 8 -22 6 -27 -20 -40 -42 -22 -47 -19
-52 23 -3 20 -7 43 -9 51 -4 14 45 49 73 50 9 1 18 4 20 9 6 13 79 42 91 36 7
-4 9 -4 5 1 -4 4 21 22 55 40 68 36 73 33 65 -30z m197 -85 c6 -5 15 -7 18 -4
18 18 77 -10 131 -62 32 -30 61 -52 65 -48 3 3 -19 28 -49 55 l-55 49 65 -2
c43 0 71 -6 84 -17 18 -15 19 -15 14 0 -6 14 3 16 65 12 40 -3 83 -12 96 -20
13 -8 20 -10 17 -4 -12 19 37 12 69 -9 39 -26 53 -26 30 0 -10 11 -13 20 -7
20 25 0 61 -21 110 -65 63 -57 69 -49 7 10 l-44 43 222 -5 c122 -3 226 -9 232
-14 12 -12 28 -11 20 1 -9 14 51 13 78 -2 12 -6 32 -22 45 -36 13 -13 26 -21
30 -17 4 4 -5 16 -21 27 -15 11 -27 23 -27 27 0 4 33 4 73 0 61 -6 79 -12 103
-34 16 -15 47 -41 69 -57 25 -18 17 -9 -20 26 l-60 55 115 -5 c144 -6 211 -14
228 -27 7 -5 46 -9 87 -8 l75 2 74 -56 c41 -31 98 -77 126 -102 28 -25 53 -43
55 -41 8 8 -129 127 -201 175 -16 10 0 12 86 9 58 -3 182 -8 275 -11 l170 -7
64 -49 c35 -27 67 -47 70 -43 3 3 -3 10 -13 16 -11 6 -36 26 -55 44 -39 36
-28 46 17 16 99 -67 129 -88 146 -104 11 -10 35 -28 53 -41 18 -12 33 -25 33
-28 0 -10 -604 -9 -636 1 -17 6 -77 12 -135 14 -148 5 -281 25 -296 45 -12 14
-12 14 -7 -2 6 -18 2 -18 -62 -12 -38 3 -247 8 -464 11 -217 3 -435 9 -485 15
-49 6 -164 14 -255 17 -91 4 -171 11 -179 16 -20 13 -31 -13 -24 -60 5 -40 -8
-67 -22 -44 -3 5 -11 10 -17 10 -6 0 1 -11 16 -25 15 -14 26 -35 26 -50 0 -27
-8 -27 -42 3 -10 8 -18 11 -18 6 0 -5 14 -18 30 -27 28 -17 30 -22 30 -83 0
-37 -4 -64 -10 -64 -7 0 -7 -6 -1 -19 13 -23 12 -409 -1 -417 -4 -3 -4 -13 1
-22 9 -18 13 -181 4 -195 -3 -5 -14 -1 -24 9 -11 9 -22 15 -25 12 -3 -3 8 -15
24 -27 l29 -20 1 -396 c0 -266 -3 -395 -10 -395 -7 0 -7 -4 0 -12 7 -9 10
-241 9 -698 -2 -597 -4 -685 -17 -682 -12 3 -12 0 2 -15 15 -16 16 -107 16
-990 0 -604 -3 -973 -9 -973 -6 0 -6 -8 1 -19 13 -26 13 -108 -1 -117 -8 -4
-8 -9 0 -17 6 -6 11 -48 11 -96 l0 -85 -30 29 c-16 16 -42 46 -56 67 -15 21
-29 36 -32 34 -5 -5 44 -70 90 -121 l27 -29 0 -331 0 -330 -38 42 c-54 62 -59
53 -6 -12 34 -42 45 -64 45 -90 0 -40 -9 -44 -28 -14 -7 12 -16 19 -19 16 -3
-3 7 -21 21 -40 26 -34 26 -35 26 -215 0 -100 -4 -182 -8 -182 -11 0 -52 47
-52 59 0 5 -3 11 -8 13 -4 2 -36 38 -70 80 -34 43 -68 80 -74 84 -21 14 -9 -4
110 -147 44 -53 85 -107 92 -119 7 -14 11 -61 10 -124 -4 -181 -1 -251 10
-240 6 6 11 54 11 108 1 90 2 96 20 91 11 -4 19 -2 19 4 0 6 16 11 35 11 19 0
35 -4 35 -10 0 -5 5 -10 11 -10 5 0 8 4 5 9 -6 9 166 31 247 31 29 0 59 -6 66
-13 11 -10 13 -9 8 5 -5 13 3 18 44 23 43 6 54 4 73 -14 31 -30 44 -26 16 4
-13 14 -22 25 -19 25 2 0 48 3 102 6 l98 6 51 -53 50 -54 -42 52 c-34 44 -39
54 -26 59 9 3 25 4 36 1 10 -3 20 -1 22 4 2 4 42 9 90 11 49 2 88 6 88 11 0
12 55 8 68 -5 8 -8 12 -8 12 -1 0 14 48 21 220 34 74 5 145 14 158 19 13 6 51
10 86 10 69 0 63 4 149 -103 21 -26 43 -47 49 -47 6 0 -5 17 -23 38 -31 35
-56 65 -86 102 -10 13 4 15 105 17 65 0 154 4 198 8 81 8 82 7 99 -19 10 -14
22 -26 28 -26 5 0 3 8 -5 18 -31 35 -30 42 0 42 26 0 38 -11 82 -70 29 -38 54
-70 57 -70 7 0 -24 47 -64 96 -36 45 -35 54 11 54 23 0 39 -9 64 -37 31 -36
29 -22 -3 23 -15 20 -14 21 52 32 38 6 102 14 143 17 l75 5 63 -86 c35 -48 61
-89 58 -91 -2 -3 -49 -9 -104 -13 -54 -5 -110 -11 -123 -14 -13 -3 -55 -8 -94
-11 -38 -4 -73 -9 -77 -11 -5 -3 -8 1 -9 8 0 10 -2 10 -6 1 -2 -7 -17 -13 -32
-13 -20 0 -31 7 -40 26 -6 15 -14 24 -18 21 -3 -4 0 -14 7 -23 18 -21 -4 -37
-42 -30 -16 3 -28 2 -28 -2 0 -16 -298 -48 -550 -60 -91 -4 -172 -12 -180 -17
-14 -9 -56 -15 -238 -31 l-73 -7 -27 34 c-15 18 -47 54 -71 79 -45 47 -40 39
48 -70 18 -22 32 -43 30 -45 -2 -1 -38 -6 -79 -10 -68 -6 -77 -5 -98 15 -13
12 -26 19 -29 16 -4 -3 2 -13 13 -20 10 -8 16 -17 13 -20 -3 -3 -49 -11 -103
-17 l-97 -11 -30 28 c-33 31 -40 22 -9 -11 l21 -22 -63 -8 c-35 -5 -106 -9
-159 -9 -73 -1 -95 -4 -92 -13 4 -10 -15 -13 -75 -13 -43 0 -102 -4 -129 -10
-28 -5 -120 -12 -204 -15 -85 -3 -165 -7 -179 -10 -36 -7 -74 31 -87 85 -8 35
-11 39 -12 18 -2 -41 -31 -37 -32 5 -1 17 -3 24 -6 15 -6 -23 -15 -23 -34 0
-11 13 -13 23 -6 34 6 9 7 23 2 34 -8 17 -9 16 -13 -8 -4 -35 -12 -35 -51 1
-22 20 -31 39 -32 63 -1 23 -3 26 -6 11 -2 -13 -8 -23 -12 -23 -14 0 -35 31
-36 53 -1 12 -3 33 -5 47 -2 20 -4 17 -9 -13 l-6 -38 -85 68 c-70 56 -86 74
-91 103 -6 33 -6 33 -8 6 l-1 -29 -25 23 c-14 13 -25 28 -25 34 0 6 5 4 10 -4
7 -11 10 0 10 38 0 28 -4 52 -10 52 -6 0 -10 28 -10 65 0 37 4 65 10 65 6 0
10 7 10 15 0 8 -4 15 -9 15 -15 0 -13 938 2 961 9 15 9 23 0 38 -15 24 -18
1425 -3 1416 6 -4 10 9 10 29 0 20 -5 36 -10 36 -7 0 -10 215 -10 657 1 403 5
651 11 642 6 -10 9 -7 9 14 0 16 -4 26 -10 22 -7 -4 -10 57 -10 175 0 118 3
179 10 175 6 -3 10 3 10 14 0 12 -4 21 -10 21 -6 0 -10 384 -10 1084 0 1011 1
1086 17 1094 12 7 24 5 40 -5 21 -14 23 -14 17 1 -3 9 -11 16 -18 16 -6 0 -3
5 7 11 14 8 22 8 30 0 17 -17 31 -13 16 5 -10 13 -10 17 2 24 8 6 15 5 17 -1
2 -5 17 -16 33 -24 29 -15 29 -15 29 12 0 21 -3 24 -9 14 -8 -12 -12 -13 -26
-1 -14 12 -13 14 7 25 13 7 27 8 33 3 11 -10 25 -11 24 0 -6 36 28 45 51 12 8
-11 18 -20 22 -20 15 0 8 29 -8 38 -21 12 -10 32 17 32 10 0 19 5 19 10 0 6
11 10 24 10 14 0 28 5 31 10 11 17 35 11 60 -15 13 -15 26 -22 29 -16 9 15 -5
43 -19 37 -8 -3 -16 1 -18 8 -4 9 9 20 33 31 37 17 41 17 65 1 l25 -16 0
-3571 c0 -1964 2 -3574 5 -3579 3 -4 0 -10 -6 -12 -14 -5 7 -108 22 -108 7 0
14 4441 9 5903 0 188 2 257 11 257 8 0 8 4 1 13 -16 19 -17 767 -1 767 8 0 8
4 0 14 -8 9 -11 47 -9 106 l3 92 28 -26 c15 -14 33 -26 40 -26 12 0 -53 59
-65 60 -12 0 -9 80 3 80 6 0 28 -19 50 -41 22 -23 43 -39 46 -35 7 6 -86 96
-99 96 -5 0 -8 11 -8 25 0 25 -14 33 -25 15 -7 -12 -25 -4 -25 12 0 13 87 3
105 -12z m2865 -149 c0 -5 10 -12 23 -18 13 -6 53 -34 90 -62 38 -28 71 -51
74 -51 15 0 -37 45 -94 83 -54 35 -76 57 -58 57 13 0 85 -33 85 -39 0 -3 17
-15 38 -26 20 -11 39 -22 42 -25 11 -13 55 -40 65 -40 15 1 -34 38 -87 65 -72
38 -80 62 -14 44 36 -10 115 -59 164 -103 12 -11 22 -14 22 -8 0 7 -29 31 -65
54 -35 24 -65 46 -65 51 0 17 55 5 93 -22 23 -15 56 -35 72 -44 17 -8 39 -24
50 -34 29 -26 106 -75 111 -70 5 5 -201 147 -214 147 -5 0 -15 7 -22 15 -11
13 0 15 91 14 57 0 129 -5 159 -10 30 -5 95 -9 144 -9 105 0 156 -18 156 -56
0 -29 0 -29 -44 -3 -20 12 -36 19 -36 16 0 -3 17 -16 38 -28 49 -30 48 -29 32
-39 -12 -7 -12 -12 -2 -22 6 -6 12 -27 12 -45 0 -29 -3 -33 -27 -33 -16 1 -45
7 -65 14 -21 8 -35 10 -32 5 7 -12 -39 -11 -215 2 -115 9 -152 16 -173 31 -31
21 -39 14 -10 -9 15 -12 5 -13 -73 -9 -49 3 -145 9 -211 12 l-122 6 -92 73
c-50 40 -111 82 -136 94 -24 12 -44 24 -44 27 0 2 77 4 170 3 94 -1 170 -4
170 -8z m1025 -85 c20 -20 45 -38 56 -41 18 -6 18 -31 19 -633 2 -2207 1
-2407 -10 -2410 -7 -3 -8 -8 -1 -16 6 -6 11 -43 13 -81 2 -53 -1 -73 -12 -83
-8 -8 -9 -11 -2 -7 10 5 12 -56 12 -307 0 -172 0 -315 0 -318 0 -3 1 -632 3
-1398 2 -1230 0 -1393 -13 -1397 -21 -6 -150 -25 -177 -25 -22 0 -23 4 -23 71
0 44 4 68 10 64 6 -3 10 1 10 9 0 8 -4 18 -10 21 -14 9 -13 85 2 85 9 0 9 3 0
12 -7 7 -12 23 -12 36 0 21 2 23 16 11 16 -13 68 -91 92 -140 20 -37 61 -83
69 -76 11 12 -123 218 -159 245 -15 11 -17 39 -17 278 -1 175 2 263 9 259 5
-3 10 1 10 9 0 9 -4 16 -10 16 -5 0 -10 18 -10 41 l0 41 36 -44 c19 -23 41
-51 49 -60 7 -9 18 -26 25 -37 6 -12 17 -21 25 -21 28 0 18 18 -53 98 -18 20
-41 49 -50 65 -9 15 -20 27 -24 27 -4 0 -8 19 -8 43 1 37 2 40 14 25 7 -10 16
-18 20 -18 13 0 5 28 -14 45 -11 10 -20 31 -20 48 l0 29 28 -32 c70 -82 115
-130 123 -130 5 0 9 9 9 20 0 11 -5 20 -11 20 -13 0 -18 6 -92 93 l-57 68 0
276 0 276 48 -66 c26 -36 54 -75 62 -86 14 -21 40 -29 40 -13 0 5 -8 17 -18
28 -26 29 -57 78 -54 87 1 5 -1 6 -6 3 -5 -3 -15 7 -23 22 -8 15 -22 34 -31
43 -17 15 -18 51 -18 489 l0 473 25 -23 c14 -13 28 -20 32 -16 5 4 -7 21 -25
37 -26 24 -32 36 -32 70 0 40 0 41 23 27 12 -8 30 -17 39 -21 15 -5 16 -3 6
12 -6 10 -24 26 -39 37 -25 17 -29 25 -29 68 l0 48 43 -36 c23 -20 59 -52 79
-71 35 -34 58 -44 58 -27 0 12 -133 132 -146 132 -3 0 -12 7 -20 15 -11 11
-14 36 -12 104 l3 91 50 -45 c50 -44 65 -53 65 -37 0 11 -100 102 -111 102 -5
0 -9 103 -9 229 0 174 3 231 13 235 10 5 10 7 0 12 -10 4 -13 76 -13 309 0
233 3 305 13 309 10 5 10 7 0 12 -17 7 -17 96 -1 112 9 9 9 12 0 12 -16 0 -16
538 0 557 7 9 7 13 -1 13 -7 0 -11 33 -11 101 l0 100 31 -21 c16 -12 32 -20
35 -18 9 10 -7 34 -35 49 l-28 16 -2 133 c-1 100 1 135 11 141 10 7 10 9 1 9
-10 0 -13 30 -12 118 0 64 3 111 6 105 2 -7 9 -13 14 -13 6 0 37 -18 69 -40
34 -23 61 -36 65 -30 8 13 -17 38 -33 32 -6 -2 -12 1 -12 7 0 6 -5 11 -11 11
-6 0 -16 6 -23 13 -7 6 -27 23 -44 37 l-32 25 0 137 c0 99 3 138 13 142 10 5
10 7 0 12 -7 3 -13 21 -13 40 0 25 4 33 13 28 10 -6 10 -4 0 7 -15 16 -17 79
-3 79 6 0 10 9 10 20 0 11 -4 20 -10 20 -14 0 -13 186 1 213 9 16 9 22 0 25
-14 5 -15 92 -1 92 6 0 10 7 10 15 0 8 -4 15 -10 15 -5 0 -10 14 -10 30 0 17
3 30 8 30 4 0 25 -16 47 -35 38 -33 65 -44 65 -27 0 10 -99 92 -111 92 -5 0
-9 3 -9 8 0 4 22 8 49 10 44 2 53 -1 86 -32z m-3581 -57 c20 -12 36 -27 36
-35 0 -7 15 -21 33 -30 17 -9 34 -20 37 -23 6 -8 66 -41 74 -41 18 0 -11 29
-48 49 -29 15 -43 28 -39 37 3 8 -10 22 -34 36 l-38 23 29 3 c16 2 48 -1 70
-7 23 -5 89 -11 146 -12 58 -1 137 -5 175 -10 39 -5 228 -9 422 -9 233 0 354
-4 358 -10 4 -6 14 -9 23 -6 10 2 62 1 117 -4 157 -13 287 -21 323 -20 19 0
33 -4 33 -12 5 -36 3 -54 -4 -65 -4 -6 -3 -14 3 -18 15 -9 13 -192 -2 -198
-10 -4 -10 -7 0 -18 16 -17 17 -173 1 -163 -8 5 -8 1 0 -14 15 -28 15 -142 0
-142 -8 0 -8 -4 0 -14 14 -16 12 -127 -2 -137 -5 -4 -3 -15 4 -26 15 -25 5
-70 -16 -70 -8 0 -15 4 -15 9 0 4 -6 8 -14 8 -7 0 -19 7 -26 15 -17 21 -30 19
-30 -6 0 -11 4 -17 10 -14 6 4 30 -9 54 -29 l43 -35 1 -243 c1 -178 -2 -244
-11 -250 -9 -5 -9 -10 1 -20 6 -6 12 -26 12 -42 l0 -30 -47 47 c-25 26 -50 47
-55 47 -16 0 -8 -19 20 -47 15 -15 26 -33 24 -40 -2 -7 1 -13 6 -13 4 0 18 -9
29 -20 19 -17 21 -31 22 -116 0 -94 0 -96 -20 -78 -10 9 -19 14 -19 10 0 -4
-15 7 -32 23 -33 31 -58 40 -58 21 0 -5 5 -10 11 -10 5 0 7 -4 4 -10 -3 -5 1
-10 9 -10 9 0 16 -3 16 -7 0 -5 17 -19 38 -33 47 -32 52 -38 52 -77 0 -25 -4
-31 -15 -27 -8 4 -15 2 -15 -4 0 -5 7 -12 15 -16 10 -3 15 -19 15 -46 l0 -41
-27 26 c-28 26 -53 33 -53 15 0 -5 5 -10 10 -10 6 0 24 -14 40 -30 24 -25 30
-39 30 -76 0 -49 -9 -50 -44 -6 -10 13 -24 21 -31 18 -7 -2 -18 1 -24 7 -8 8
-14 8 -22 0 -8 -8 5 -22 47 -52 31 -22 61 -41 66 -41 13 0 9 -78 -4 -83 -10
-3 -10 -7 -1 -19 8 -9 12 -49 12 -110 l0 -96 -42 28 c-23 16 -56 41 -72 57
-30 28 -30 29 -32 146 -3 132 -2 133 67 63 36 -37 50 -44 50 -25 0 11 -65 79
-76 79 -2 0 -13 8 -22 18 -16 15 -18 44 -21 242 -3 218 -3 224 15 210 11 -8
25 -23 32 -32 13 -17 67 -48 86 -48 13 0 -67 75 -104 97 l-29 16 1 679 c1 468
-2 682 -10 690 -6 6 -52 13 -104 16 -74 4 -100 10 -130 28 -21 13 -42 24 -48
24 -18 0 -10 -15 18 -33 l27 -18 -40 6 c-22 3 -132 8 -245 10 -210 6 -254 10
-246 23 2 4 -6 9 -20 10 -25 2 -33 -13 -11 -21 6 -3 -4 -6 -24 -6 -24 -1 -42
6 -54 19 -10 11 -26 22 -36 25 -11 4 -17 11 -14 16 4 5 -1 9 -10 9 -8 0 -23 9
-32 19 -9 11 -20 18 -25 15 -4 -3 -8 -1 -8 4 0 8 -42 32 -55 32 -3 0 -5 -8 -5
-17 0 -9 3 -13 7 -10 7 7 43 -18 128 -88 l30 -25 -75 0 c-41 0 -162 5 -268 12
-179 11 -192 13 -186 30 4 14 0 18 -21 18 -23 0 -99 33 -115 50 -3 3 -17 13
-32 23 -24 15 -28 24 -28 62 0 25 4 45 9 45 6 0 26 -9 45 -21z m2293 -91 c13
-10 17 -10 20 0 6 15 106 16 283 2 69 -6 177 -11 240 -11 75 -1 124 -6 142
-15 32 -17 41 -18 33 -4 -12 20 320 1 368 -21 25 -11 27 -17 27 -70 0 -32 -5
-61 -11 -65 -8 -4 -8 -9 0 -17 14 -14 14 -54 0 -59 -7 -2 -7 -12 1 -32 11 -29
11 -109 1 -103 -4 1 -18 9 -33 16 -16 8 -28 18 -28 23 0 4 -6 8 -13 8 -7 0
-25 6 -40 13 -24 10 -27 18 -27 60 0 35 -4 47 -15 47 -20 0 -85 32 -85 42 0 4
-4 8 -10 8 -5 0 -10 -7 -10 -15 0 -14 -27 -15 -213 -13 -157 2 -218 6 -230 16
-11 9 -17 10 -22 2 -4 -7 -40 -10 -104 -7 -84 3 -102 7 -121 25 -13 12 -30 22
-37 22 -7 0 -13 5 -13 10 0 6 -7 10 -15 10 -23 0 -18 -18 10 -36 14 -9 25 -20
25 -25 0 -21 -38 -6 -76 29 -71 64 -129 112 -136 112 -19 0 -3 -22 58 -78 78
-72 66 -98 -18 -40 -23 16 -28 17 -28 4 0 -8 8 -20 18 -25 27 -16 -5 -13 -36
3 -15 8 -34 24 -42 35 -8 12 -18 21 -23 21 -15 0 -57 37 -49 44 3 4 -1 4 -11
0 -9 -3 -17 -9 -17 -13 0 -10 78 -71 92 -72 7 0 4 -4 -7 -8 -12 -5 -23 -4 -28
3 -6 7 -10 8 -13 1 -3 -7 -33 -8 -91 -3 -47 4 -90 5 -94 2 -5 -3 -9 -43 -9
-90 0 -46 -4 -84 -9 -84 -5 0 -11 3 -13 8 -5 12 -69 62 -79 62 -17 0 -9 -25
12 -40 12 -8 36 -29 55 -45 l33 -31 0 -604 c0 -332 -3 -608 -6 -612 -2 -5 -21
4 -41 20 -20 16 -52 37 -69 48 -33 19 -43 48 -20 58 10 5 10 7 0 12 -7 3 -13
12 -13 20 0 9 5 12 10 9 6 -3 10 1 10 9 0 9 -4 16 -10 16 -5 0 -10 9 -10 20 0
11 5 20 10 20 6 0 10 -4 10 -10 0 -5 5 -10 10 -10 17 0 11 28 -9 42 -21 15
-26 87 -7 100 8 5 7 8 -1 8 -8 0 -12 20 -11 59 1 46 4 58 14 54 8 -3 14 0 14
6 0 7 -7 14 -15 17 -12 5 -15 25 -15 96 l0 90 28 -18 c15 -9 36 -28 47 -41 24
-27 45 -30 39 -5 -3 9 -29 34 -58 54 l-54 38 0 125 c-1 83 2 125 10 125 7 0 7
4 0 13 -15 18 -15 299 0 308 9 6 9 11 0 22 -9 10 -12 60 -11 165 l2 150 259 1
c201 2 263 -1 275 -11z m-2295 -37 c24 -15 55 -36 71 -45 21 -13 27 -24 27
-51 0 -19 -4 -35 -10 -35 -5 0 -10 5 -10 10 0 6 -9 10 -20 10 -30 0 -24 -16
10 -32 l31 -13 -2 -192 -2 -191 -33 16 c-19 9 -34 19 -34 22 0 4 -17 13 -39
20 l-39 12 -1 134 c-1 119 1 134 15 134 16 0 16 1 1 18 -14 15 -17 38 -16 115
1 53 3 97 5 97 2 0 23 -13 46 -29z m463 -126 c110 -3 359 -8 554 -10 288 -4
360 -8 385 -20 20 -11 32 -12 36 -5 4 7 28 10 56 8 l49 -3 2 -1392 c2 -1004
-1 -1393 -9 -1393 -7 0 -7 -4 1 -13 14 -18 15 -871 1 -862 -6 3 -10 1 -10 -4
0 -6 4 -11 10 -11 6 0 9 -390 10 -1046 0 -696 -3 -1043 -10 -1039 -5 3 -10 2
-10 -4 0 -5 5 -13 10 -16 6 -4 10 -55 10 -119 l0 -114 -86 -7 -87 -7 -69 76
c-38 42 -74 76 -80 76 -5 0 23 -35 62 -77 l72 -78 -58 -12 c-33 -6 -93 -15
-134 -18 l-76 -7 -58 66 c-32 37 -61 64 -64 62 -3 -3 18 -33 46 -65 29 -33 52
-61 52 -64 0 -2 -51 -7 -112 -12 -62 -4 -134 -9 -159 -10 -26 -2 -64 -8 -85
-14 -22 -6 -61 -11 -88 -11 -27 0 -77 -4 -110 -10 -34 -5 -134 -11 -224 -12
l-162 -3 0 402 c1 300 4 403 12 403 9 0 9 3 0 12 -9 9 -12 158 -12 611 0 536
2 598 15 587 9 -7 18 -10 21 -7 3 3 -3 11 -15 19 l-21 13 0 1807 c0 1716 1
1808 17 1808 17 1 17 1 1 14 -16 12 -18 37 -18 265 l0 252 68 -5 c37 -3 157
-8 267 -11z m1950 -69 c412 -3 654 -12 688 -25 19 -8 27 -7 27 0 0 14 57 4 76
-12 11 -9 14 -100 13 -460 l0 -449 -40 27 c-21 14 -42 23 -45 20 -4 -3 14 -19
40 -34 l46 -28 0 -190 c0 -104 0 -350 1 -545 0 -252 -3 -356 -11 -358 -8 -3
-8 -8 1 -18 14 -17 20 -68 12 -112 -4 -25 -9 -32 -21 -27 -14 5 -13 3 1 -13
21 -23 29 -159 9 -154 -10 2 -9 -3 1 -20 14 -23 17 -104 5 -123 -4 -6 -3 -17
3 -25 11 -19 12 -167 0 -174 -5 -4 -11 -2 -13 2 -5 14 -149 115 -155 109 -3
-3 35 -35 85 -71 l90 -66 1 -184 c1 -121 -2 -187 -9 -191 -7 -4 -8 -11 -1 -18
9 -12 14 -457 4 -457 -3 0 -34 23 -69 51 -35 28 -64 46 -64 40 0 -5 17 -22 38
-37 86 -64 102 -85 102 -134 0 -26 -3 -50 -6 -53 -6 -6 -81 41 -112 71 -16 14
-22 15 -22 4 0 -5 31 -32 70 -60 l69 -52 0 -128 c-1 -84 -5 -129 -12 -134 -9
-5 -9 -10 1 -20 13 -13 17 -138 4 -138 -5 0 -17 7 -28 15 -37 28 -39 15 -2
-19 l37 -34 -1 -158 c0 -88 -2 -172 -5 -187 l-5 -29 -24 23 c-13 12 -26 20
-29 17 -3 -3 8 -17 25 -31 28 -24 31 -32 33 -94 1 -38 -2 -73 -5 -79 -4 -5 -2
-29 4 -52 7 -29 7 -54 0 -83 -6 -24 -7 -52 -2 -70 11 -39 11 -459 0 -459 -5 0
-12 5 -15 10 -3 6 -11 10 -18 10 -6 0 0 -11 15 -25 l26 -24 1 -186 1 -185 -34
0 c-19 0 -37 -4 -40 -8 -3 -5 -90 -10 -193 -11 -103 -1 -215 -6 -249 -11 -34
-6 -72 -10 -85 -10 -13 1 -53 -4 -88 -10 -59 -9 -66 -8 -86 10 -28 26 -44 26
-20 0 18 -20 17 -20 -56 -22 -41 0 -81 -1 -89 0 -8 0 -17 -3 -20 -8 -7 -11
-138 -30 -257 -37 -79 -5 -83 -4 -83 15 0 12 5 24 10 27 6 4 7 13 1 23 -6 10
-10 322 -10 746 -1 712 0 729 19 753 27 35 27 102 -1 137 -20 25 -20 34 -15
219 3 105 6 490 6 855 0 474 4 662 11 662 8 0 8 4 0 13 -17 21 -15 951 2 941
9 -6 9 -5 0 7 -18 22 -18 939 -1 940 10 0 10 2 1 5 -9 4 -12 80 -13 304 l0
298 77 -4 c43 -3 222 -6 398 -8z m945 -176 c0 -3 10 -6 23 -6 22 1 22 1 24
-179 2 -107 -1 -174 -6 -166 -5 7 -14 10 -20 7 -17 -11 -13 -23 8 -29 18 -4
19 -15 20 -171 0 -118 -3 -166 -12 -166 -8 0 -8 -3 1 -12 7 -7 12 -41 12 -84
l0 -72 -24 11 c-13 7 -22 15 -19 20 2 4 1 6 -4 5 -4 -2 -32 13 -61 31 l-52 34
2 129 c2 70 5 128 8 128 3 0 3 52 2 115 -3 85 -1 115 8 115 10 0 10 3 0 15 -7
8 -10 22 -6 30 3 8 2 24 -2 36 -5 12 -5 44 -2 72 4 27 3 71 -2 96 -5 25 -6 58
-3 73 l6 26 50 -25 c27 -14 49 -29 49 -33z m-3290 -192 c0 -4 7 -8 15 -8 8 0
15 -5 15 -10 0 -7 -7 -7 -21 0 -11 6 -25 9 -32 7 -7 -2 3 -11 21 -21 l32 -17
0 -140 c0 -119 -2 -140 -14 -136 -10 4 -13 1 -9 -9 3 -7 9 -14 14 -14 13 0 11
-34 -3 -48 -8 -8 -8 -12 -1 -12 7 0 11 -45 12 -130 1 -110 -1 -130 -14 -130
-19 0 -20 -19 0 -26 16 -7 22 -94 6 -94 -5 0 -12 -7 -15 -16 -3 -8 -2 -13 3
-10 5 3 12 -1 15 -10 3 -9 6 -407 6 -885 l0 -869 -21 18 c-11 9 -30 25 -41 35
-12 9 -24 17 -29 17 -4 0 -6 -8 -5 -17 2 -10 6 -16 9 -13 3 3 24 -13 47 -35
l40 -39 0 -193 0 -193 -33 37 c-49 53 -55 25 -7 -30 40 -45 52 -87 27 -87 -8
0 -14 -7 -14 -15 0 -8 4 -12 8 -10 4 3 9 -2 13 -10 3 -8 5 -198 5 -422 1 -362
-1 -406 -14 -389 -8 11 -15 16 -15 12 0 -4 -10 4 -22 17 -26 27 -68 44 -68 28
0 -6 12 -18 28 -28 15 -10 42 -31 60 -47 l32 -29 0 -101 0 -100 -42 42 c-38
39 -68 54 -68 34 0 -12 35 -52 46 -52 5 0 21 -11 36 -24 25 -23 26 -28 27
-132 1 -85 -1 -106 -11 -96 -7 7 -16 12 -20 12 -15 0 -8 -26 12 -43 15 -12 20
-29 20 -64 -1 -44 -2 -46 -15 -29 -9 12 -20 16 -32 12 -16 -7 -14 -11 14 -34
l33 -27 -1 -480 c0 -264 -3 -474 -6 -467 -5 13 -33 17 -33 4 0 -4 9 -14 20
-22 16 -11 20 -26 20 -65 -1 -45 -2 -48 -13 -28 -7 13 -31 44 -54 70 -100 114
-94 102 -91 174 2 37 7 64 12 61 5 -3 6 5 1 19 -13 37 -17 214 -6 253 5 20 6
34 2 31 -14 -8 -12 186 1 202 8 10 9 20 2 31 -13 21 -15 153 -3 168 5 7 6 22
1 35 -4 13 -7 40 -6 59 2 19 3 53 3 75 -1 22 -1 47 0 55 0 8 0 354 1 768 0
746 1 752 20 742 11 -6 20 -15 20 -20 0 -6 5 -10 10 -10 18 0 10 21 -20 52
l-30 30 0 163 c0 122 3 164 13 168 9 3 9 7 0 19 -10 11 -12 260 -12 1103 1
750 4 1083 11 1069 12 -21 37 -44 50 -44 17 0 6 23 -26 55 l-35 33 1 104 c0
57 2 97 5 91 5 -15 33 -18 33 -4 0 6 -8 16 -18 23 -13 9 -19 27 -20 60 -2 41
0 46 15 41 11 -4 14 -3 9 6 -4 7 15 0 43 -15 28 -16 51 -32 51 -36z m3302
-692 l36 -24 1 -258 c0 -190 -3 -261 -12 -266 -9 -6 -9 -8 0 -8 8 0 12 -33 12
-114 0 -96 -2 -114 -15 -109 -7 3 -14 1 -14 -5 0 -5 7 -12 15 -15 11 -5 14
-30 14 -123 0 -65 -4 -123 -10 -130 -7 -8 -7 -14 1 -19 14 -9 13 -62 -2 -68
-10 -4 -10 -8 1 -15 10 -7 13 -28 12 -74 -3 -54 -2 -170 0 -210 0 -7 -1 -45
-2 -85 -2 -79 -6 -81 -59 -31 -14 13 -42 34 -62 47 -30 18 -38 29 -38 52 0 21
4 28 13 23 10 -6 10 -4 0 7 -7 7 -13 23 -13 35 0 12 6 25 13 27 9 4 9 8 0 14
-8 6 -12 54 -12 155 0 124 2 146 15 141 19 -7 18 11 -1 27 -18 15 -21 120 -4
152 8 15 8 19 0 13 -9 -5 -11 115 -10 457 0 254 3 466 5 470 4 7 31 -9 116
-66z m-1544 -300 c7 -6 24 -21 37 -34 14 -13 25 -19 25 -15 0 4 4 2 9 -6 10
-16 13 -221 3 -221 -4 0 -14 8 -23 18 -8 9 -30 28 -48 42 -72 54 -71 51 -71
161 l0 101 27 -18 c15 -9 33 -22 41 -28z m15 -258 c15 -15 30 -28 33 -28 3 0
12 -6 20 -14 19 -20 18 -66 -1 -66 -8 0 -15 -4 -15 -9 0 -5 7 -11 15 -15 8 -3
15 -14 15 -25 0 -14 -5 -19 -15 -15 -8 4 -15 2 -15 -4 0 -5 7 -15 15 -22 8 -7
15 -17 15 -23 0 -6 -10 -1 -23 11 -13 12 -26 22 -30 22 -16 0 -5 -22 23 -47
29 -25 30 -30 30 -109 0 -70 -2 -82 -15 -78 -9 4 -15 0 -15 -9 0 -8 5 -17 12
-19 14 -5 22 -258 8 -258 -6 0 -9 5 -8 12 2 7 -2 12 -8 13 -14 0 -127 105
-121 112 3 2 23 -14 47 -37 41 -39 60 -49 60 -30 0 9 -25 35 -78 80 -29 24
-30 29 -31 108 -1 45 3 82 8 82 13 0 21 27 15 45 -4 8 -10 12 -15 9 -5 -3 -9
8 -9 25 0 23 4 29 15 25 8 -4 15 -1 15 5 0 7 -7 14 -15 17 -11 5 -15 21 -15
60 l0 55 22 -21 c12 -11 25 -20 30 -20 17 0 7 19 -22 43 -23 20 -30 34 -30 61
0 19 6 37 13 40 10 5 10 7 0 12 -7 3 -13 22 -13 41 l0 35 28 -17 c15 -10 39
-31 55 -47z m-129 -571 c16 -6 22 -167 6 -167 -7 0 -7 -6 0 -19 14 -27 13
-131 -1 -131 -8 0 -8 -4 -2 -12 6 -7 10 -48 10 -91 0 -65 -2 -76 -13 -66 -8 7
-18 9 -21 5 -4 -4 -2 -11 6 -15 7 -5 13 -12 14 -17 1 -5 5 -8 10 -6 4 1 7 -13
7 -30 -1 -28 -3 -31 -13 -17 -18 23 -67 53 -74 45 -4 -4 13 -25 39 -46 l46
-40 1 -511 c1 -407 -1 -514 -11 -521 -10 -6 -10 -10 -1 -16 15 -10 16 -175 1
-166 -6 4 -5 -2 1 -14 6 -11 11 -54 11 -95 l0 -75 -32 11 c-18 7 -36 17 -40
22 -4 6 -8 7 -8 3 0 -3 -15 8 -32 24 l-33 31 -1 186 c-1 126 2 188 10 193 8 5
7 8 -1 8 -7 0 -13 9 -13 20 0 11 5 20 11 20 6 0 9 6 6 14 -3 7 -8 34 -12 59
-7 43 -6 45 14 40 25 -6 27 5 5 22 -15 10 -18 44 -21 253 -3 166 -1 242 6 242
6 0 11 7 11 15 0 8 -4 15 -10 15 -5 0 -10 8 -10 18 0 13 2 14 9 3 5 -8 11 -9
15 -3 3 5 -1 15 -8 21 -12 10 -14 58 -14 252 0 131 3 239 5 239 2 0 18 -13 36
-30 18 -16 35 -30 40 -30 18 0 4 21 -37 55 -43 35 -44 37 -44 95 0 64 3 70 23
43 7 -9 17 -13 23 -9 17 10 15 26 -5 33 -36 14 -40 28 -41 148 l-2 119 61 -61
c33 -34 66 -64 73 -66z m114 -97 c18 -14 32 -31 32 -37 0 -7 7 -13 15 -13 20
0 35 -32 35 -76 0 -31 -2 -35 -15 -24 -14 11 -35 6 -35 -9 0 -4 11 -13 24 -20
l24 -13 0 -364 c1 -351 0 -364 -18 -354 -10 5 -20 13 -22 18 -6 13 -91 72 -97
66 -3 -3 26 -36 66 -72 l72 -67 -1 -455 c0 -250 -2 -449 -5 -442 -7 17 -23 15
-23 -3 0 -8 4 -15 9 -15 5 0 11 -6 14 -12 3 -9 -7 -13 -35 -12 -33 0 -41 -4
-59 -32 -32 -53 -35 -96 -8 -143 12 -23 26 -42 31 -42 4 -1 13 -3 18 -4 6 -1
21 -3 35 -4 l26 -1 -2 -174 c-1 -145 -3 -174 -15 -169 -8 3 -14 9 -14 14 0 5
-7 9 -15 9 -24 0 -18 -17 15 -40 l30 -21 0 -125 0 -125 -30 22 c-44 33 -47 17
-5 -24 27 -26 36 -42 33 -61 l-3 -25 -34 27 c-18 15 -47 39 -63 55 -17 15 -34
27 -39 27 -15 0 -11 628 4 633 9 3 9 8 0 18 -9 9 -13 53 -13 147 0 112 2 131
14 120 61 -59 96 -81 96 -60 0 9 -46 52 -55 52 -3 0 -16 10 -30 22 -19 16 -25
31 -25 61 l0 39 31 -29 c18 -15 45 -40 62 -55 33 -31 47 -35 47 -15 0 15 -45
59 -78 76 -12 7 -20 17 -16 23 4 6 3 8 -3 5 -6 -4 -18 1 -26 11 -14 16 -16 51
-16 259 0 206 2 241 15 236 8 -3 14 0 14 6 0 7 -7 14 -15 17 -14 6 -15 20 -17
499 -1 321 5 541 15 547 9 5 9 10 -1 20 -7 7 -12 42 -12 92 0 78 1 79 18 60
10 -10 33 -30 50 -44z m1506 -368 c15 -12 39 -25 52 -28 16 -4 24 -13 24 -28
1 -29 0 -435 -1 -568 0 -60 3 -114 7 -120 4 -7 -2 -5 -13 5 -24 21 -33 22 -33
2 0 -8 9 -19 19 -24 14 -8 20 -24 23 -61 1 -27 -1 -51 -6 -53 -6 -2 -5 -20 1
-45 6 -23 8 -42 4 -42 -3 0 -5 -57 -3 -126 l4 -126 -24 12 c-31 17 -68 51 -63
60 2 4 -1 7 -8 7 -7 0 -25 8 -40 17 -23 16 -27 25 -27 67 0 27 3 49 6 49 14 0
35 -32 30 -45 -3 -9 0 -12 10 -8 7 3 14 0 14 -6 0 -6 5 -11 10 -11 21 0 8 31
-30 70 l-40 41 0 227 c0 169 3 232 13 241 10 11 10 13 0 7 -10 -6 -13 33 -13
178 0 117 4 186 10 186 6 0 10 7 10 15 0 8 -4 15 -10 15 -6 0 -10 35 -10 84
l0 84 29 -26 c15 -15 40 -37 55 -50z m9 -1200 l67 -54 0 -139 c0 -86 -4 -139
-10 -139 -14 0 -13 -17 3 -31 13 -13 11 -119 -3 -119 -5 0 -27 18 -50 40 -23
22 -43 40 -46 40 -2 0 -15 10 -28 21 l-25 22 0 214 c-1 168 2 213 12 207 6 -4
42 -32 80 -62z m-51 -425 c15 -12 47 -39 73 -61 l46 -38 -1 -192 c0 -105 0
-195 1 -201 1 -5 1 -14 0 -18 -1 -5 -2 -184 -1 -399 0 -329 -2 -387 -14 -376
-7 8 -33 30 -56 49 -23 18 -48 40 -55 47 -8 6 -18 12 -23 12 -7 0 -10 88 -10
239 -1 231 0 239 19 234 25 -7 25 14 -1 22 -17 6 -20 15 -20 75 0 46 4 70 13
73 10 4 10 7 0 18 -14 14 -18 139 -5 139 4 0 21 -14 39 -30 35 -33 43 -36 43
-17 0 7 -20 30 -45 50 l-45 38 0 84 c0 47 4 85 9 85 6 0 9 9 8 19 0 11 -5 17
-9 15 -4 -3 -8 31 -8 75 0 45 3 81 8 81 4 0 19 -10 34 -23z m-1672 -102 c16
-8 36 -15 44 -15 8 0 27 -11 41 -25 l25 -26 0 -254 0 -255 -26 23 c-39 32 -64
60 -64 69 0 4 -5 8 -10 8 -6 0 -19 8 -30 18 -16 15 -18 33 -18 156 l0 138 38
-37 c57 -56 69 -37 12 20 l-49 50 -1 85 c0 47 2 79 5 72 2 -7 18 -19 33 -27z
m-17 -495 c7 -6 35 -31 62 -55 28 -25 53 -45 58 -45 4 0 7 -19 6 -42 0 -24 -3
-37 -6 -30 -2 6 -9 12 -14 12 -14 0 -10 -26 6 -40 12 -10 15 -37 15 -122 0
-70 -4 -107 -10 -103 -5 3 -10 -1 -10 -9 0 -8 4 -17 9 -21 6 -3 10 -184 10
-448 0 -244 3 -456 7 -471 l6 -27 -98 2 c-55 1 -107 -2 -118 -6 -11 -5 -27 -3
-38 4 -15 9 -22 9 -34 -4 -20 -19 -70 -20 -78 0 -8 23 -28 18 -21 -5 5 -17 2
-20 -27 -20 -19 0 -40 6 -46 12 -9 9 -15 10 -20 2 -8 -12 -88 -26 -178 -29
-61 -3 -62 -3 -110 43 -27 26 -48 50 -46 55 1 4 -5 7 -13 7 -8 0 -20 9 -27 20
-13 21 -38 27 -38 10 0 -6 7 -13 15 -16 8 -4 12 -10 9 -15 -3 -5 1 -9 8 -9 7
0 29 -22 48 -50 19 -27 39 -49 43 -50 16 0 -5 -20 -21 -20 -17 0 -60 40 -44
40 4 1 -6 8 -21 16 -15 8 -25 19 -22 24 4 6 2 10 -4 10 -5 0 -34 25 -65 55
-30 30 -57 55 -60 55 -22 0 12 -49 81 -117 l80 -80 -55 -6 c-53 -6 -55 -5 -99
36 -25 23 -46 40 -46 37 -1 -2 -14 7 -28 20 -14 14 -24 28 -22 32 2 4 -3 5
-12 2 -14 -6 -14 -9 2 -27 10 -12 29 -30 42 -42 13 -11 35 -31 50 -45 l26 -25
-30 -5 c-25 -5 -32 -1 -41 20 -6 14 -28 42 -48 63 -21 20 -36 37 -33 37 9 0
-96 96 -116 107 -19 10 84 25 248 38 89 6 89 6 105 12 38 13 95 7 115 -12 12
-11 38 -35 58 -53 20 -19 37 -37 37 -41 0 -4 11 -14 25 -21 14 -7 25 -18 25
-24 0 -13 40 -40 48 -32 3 3 -2 14 -11 24 -10 10 -15 22 -12 25 3 4 3 5 0 3
-3 -2 -39 29 -79 68 -67 64 -72 72 -53 78 35 10 115 9 122 -2 9 -15 25 -12 25
5 0 12 13 15 56 15 30 0 64 5 75 11 17 9 50 15 204 35 22 2 55 7 73 10 l32 5
0 95 0 96 25 -28 c13 -16 37 -46 54 -67 17 -21 32 -33 36 -27 7 11 -20 53 -76
118 l-38 44 1 109 c0 85 4 109 14 109 18 0 18 8 -1 26 -13 13 -15 63 -14 335
1 175 4 319 6 319 2 0 9 -5 16 -10z m207 -232 c0 -5 6 -8 13 -8 7 0 19 -9 27
-20 8 -11 22 -20 31 -20 23 0 29 -29 29 -157 0 -96 -2 -112 -15 -107 -19 8
-19 -3 0 -22 12 -12 14 -56 13 -255 l-1 -241 -21 25 c-12 14 -28 34 -36 44 -8
10 -32 39 -52 65 -39 48 -50 82 -23 72 8 -4 15 -2 15 4 0 5 -7 15 -15 22 -12
10 -15 39 -15 141 0 79 4 129 10 129 6 0 10 7 10 15 0 8 -4 15 -10 15 -6 0 -9
70 -9 183 l0 182 25 -30 c13 -16 24 -33 24 -37z m1518 -428 c9 -9 31 -25 48
-38 36 -24 52 -72 25 -72 -11 0 -12 -3 -4 -8 13 -8 23 -222 10 -222 -5 0 -6
-8 -3 -17 3 -10 6 -63 8 -118 2 -88 0 -100 -16 -103 -9 -2 -23 2 -31 8 -11 9
-18 9 -30 -4 -20 -20 -34 -20 -41 -1 -4 8 -10 15 -15 15 -5 0 -9 -7 -9 -15 0
-9 -9 -15 -25 -15 -14 0 -28 7 -31 15 -6 15 -34 21 -34 7 0 -4 6 -14 12 -20
10 -10 5 -13 -27 -11 -22 1 -70 -2 -107 -6 -51 -6 -72 -5 -84 5 -13 12 -17 11
-24 -1 -8 -11 -13 -12 -29 -2 -11 7 -21 8 -23 3 -3 -9 -76 -21 -153 -25 -22
-1 -67 -6 -100 -10 -33 -5 -69 -9 -80 -10 -11 -1 -28 -5 -38 -9 -10 -5 -23 -3
-32 4 -12 10 -15 9 -15 -4 0 -12 -11 -16 -47 -18 -79 -2 -243 -21 -278 -32
-16 -5 -27 6 -60 59 -22 36 -43 65 -47 65 -17 0 -6 -28 31 -77 22 -28 37 -53
35 -56 -3 -3 -20 -1 -38 3 -19 4 -40 4 -47 -1 -31 -19 -68 -9 -103 29 -35 36
-48 60 -25 46 8 -4 9 1 4 17 -4 13 -12 26 -16 27 -5 2 -9 10 -9 18 0 8 -5 14
-12 14 -6 0 -9 3 -6 6 3 3 -5 17 -18 31 -13 14 -21 31 -17 37 3 6 3 8 -2 4 -4
-4 -21 13 -36 38 -24 37 -29 55 -29 109 0 36 4 65 8 65 4 0 15 -12 24 -27 18
-30 48 -69 89 -117 l26 -30 121 13 c66 7 135 15 153 17 19 2 84 8 144 13 61 5
118 12 127 16 10 4 30 -1 47 -11 30 -18 59 -12 31 6 -13 9 -13 10 0 11 8 1 25
0 37 0 12 -1 48 3 81 9 32 5 111 11 175 12 65 2 117 5 117 8 0 10 225 5 233
-5 4 -6 10 0 13 13 5 16 14 22 35 22 28 0 55 30 33 37 -12 4 -6 213 7 213 6 0
6 7 -1 19 -5 11 -10 38 -10 61 l0 41 31 -18 c17 -10 38 -25 47 -33z m-3308
-426 c0 -6 18 -30 40 -52 35 -35 40 -45 40 -86 0 -25 5 -46 10 -46 6 0 10 4
10 9 0 5 16 5 38 0 22 -5 38 -4 40 1 2 6 52 7 125 3 107 -5 127 -9 159 -31 21
-13 35 -29 32 -33 -3 -5 -1 -8 3 -7 15 5 96 -83 119 -127 l21 -41 -23 1 c-14
0 -35 14 -53 35 -34 41 -53 35 -22 -8 26 -36 15 -50 -16 -20 -23 21 -23 21
-23 1 0 -23 -45 -38 -58 -19 -4 6 -24 26 -45 44 -21 17 -35 32 -31 32 4 0 -11
14 -32 31 -22 16 -60 52 -85 80 -41 43 -69 61 -69 43 0 -7 69 -81 163 -172 37
-37 67 -70 67 -73 0 -13 -71 -15 -82 -2 -11 14 -32 8 -23 -7 7 -12 -38 -19
-115 -18 -36 1 -90 -5 -120 -12 l-54 -13 -34 39 c-18 21 -39 39 -45 39 -7 0
-13 10 -15 23 -2 12 2 22 8 22 7 0 8 6 0 19 -15 29 -13 248 3 255 10 5 10 7 0
12 -7 3 -13 19 -13 35 0 18 4 28 10 24 6 -4 8 -11 4 -16 -3 -5 -1 -8 4 -7 6 2
12 -1 14 -7 1 -5 14 -21 28 -36 14 -14 35 -39 46 -55 12 -16 25 -26 30 -21 4
4 2 13 -4 19 -7 7 -12 20 -12 29 0 9 -7 19 -15 23 -8 3 -15 10 -15 16 0 6 -20
31 -45 56 -37 36 -45 50 -45 81 l0 37 40 -44 c22 -24 40 -49 40 -56z m3391
-256 l-3 -63 -27 33 c-15 17 -30 32 -33 32 -10 0 3 -37 20 -57 10 -11 22 -28
29 -40 11 -19 9 -21 -35 -27 -39 -5 -49 -3 -70 16 -25 23 -25 23 -20 2 5 -20
-1 -22 -76 -33 -44 -7 -116 -13 -158 -14 -63 -2 -78 1 -87 16 -6 9 -16 17 -21
17 -15 0 -12 -30 3 -31 6 0 3 -4 -8 -8 -14 -6 -25 -3 -36 10 -17 20 -31 16
-23 -6 10 -25 -26 -25 -48 0 -25 29 -40 32 -37 8 5 -54 -20 -58 -62 -10 -16
18 -29 26 -29 18 0 -8 7 -23 17 -33 15 -17 15 -18 -10 -18 -18 0 -31 9 -44 30
-9 17 -23 30 -30 30 -19 0 -16 -13 8 -41 12 -14 16 -25 9 -27 -24 -8 -56 9
-80 43 -26 36 -46 63 -81 103 -16 19 -17 23 -4 28 8 4 27 3 41 0 17 -5 23 -3
19 4 -4 6 11 10 40 10 26 0 54 4 64 9 10 6 86 11 169 12 84 1 152 5 152 9 0
11 198 12 205 0 9 -15 25 -12 25 4 0 16 105 27 120 12 5 -5 16 -2 25 8 9 9 31
16 48 16 l32 0 -4 -62z m315 -153 c14 -13 11 -15 -25 -15 -23 0 -41 -4 -41 -8
0 -8 -81 -20 -245 -37 -27 -3 -108 -10 -180 -15 -71 -5 -173 -14 -225 -20 -52
-5 -124 -12 -160 -15 -36 -3 -132 -12 -215 -20 -82 -8 -220 -20 -305 -26 -85
-6 -182 -14 -215 -19 -33 -4 -99 -13 -147 -18 -49 -6 -93 -14 -99 -18 -6 -3
-32 -6 -57 -6 -26 1 -76 -5 -112 -14 -69 -16 -179 -31 -325 -44 -49 -5 -139
-13 -200 -19 -60 -6 -162 -15 -225 -20 -126 -11 -329 -39 -344 -48 -5 -4 -75
-10 -155 -15 -263 -15 -366 -23 -379 -31 -7 -5 -44 -8 -82 -8 -39 0 -70 -3
-70 -8 0 -4 -14 -6 -30 -3 -17 2 -37 -2 -46 -9 -11 -9 -54 -15 -125 -17 l-109
-4 0 24 0 24 198 13 c108 7 231 16 272 21 41 5 128 14 192 19 65 5 122 12 126
15 5 3 28 6 53 7 24 1 78 8 119 15 41 8 100 16 130 18 30 3 85 10 122 17 59
10 69 9 83 -5 20 -20 39 -21 32 -2 -6 16 24 23 153 37 131 14 163 18 180 25 8
3 69 8 135 10 66 2 171 9 233 15 63 6 116 8 119 5 3 -3 13 -1 22 3 9 5 66 14
126 21 61 7 144 16 185 21 41 5 109 13 150 18 41 5 90 14 109 20 18 5 68 11
110 12 42 0 90 5 106 10 17 5 89 14 160 20 72 5 171 15 220 20 89 10 163 16
450 39 83 6 173 15 200 20 79 12 115 11 131 -5z m-4629 -423 c2 -440 10 -683
22 -695 6 -6 12 -40 13 -77 l1 -65 7 55 c5 44 8 51 15 35 5 -11 15 -26 22 -33
8 -8 13 -37 13 -74 0 -43 3 -58 13 -55 6 2 11 8 11 13 -1 5 -4 27 -8 49 -5 31
-4 36 5 22 6 -10 13 -44 16 -75 l5 -57 -61 65 -60 65 -1 68 c0 38 -4 67 -10
67 -5 0 -10 -23 -10 -52 0 -36 -3 -49 -10 -42 -11 11 -20 924 -10 924 3 0 4
44 2 97 -3 81 -1 96 10 85 10 -10 13 -81 15 -320z m4548 -101 c-3 -3 -10 1
-15 9 -6 8 -10 11 -10 6 0 -5 -8 1 -19 12 -20 24 -31 28 -31 11 0 -13 58 -69
71 -69 5 0 9 -76 9 -170 0 -119 -3 -170 -11 -170 -8 0 -8 -4 0 -14 8 -9 11
-69 9 -192 l-3 -179 -53 -5 c-47 -5 -55 -3 -83 22 -17 15 -36 28 -44 28 -9 0
-14 16 -17 49 l-3 49 45 -44 c46 -45 70 -55 70 -29 0 8 -3 15 -7 15 -20 1
-100 88 -105 113 l-5 28 25 -23 c30 -27 57 -54 95 -97 26 -29 47 -40 47 -23 0
9 -84 97 -129 134 -26 22 -32 34 -29 59 l3 31 67 -65 c37 -35 72 -61 78 -57
10 6 -56 80 -118 132 l-31 26 -3 275 c-2 216 0 273 10 270 15 -6 16 9 1 24
-11 11 -14 181 -4 191 2 3 39 9 82 14 43 6 85 13 93 18 13 6 15 -18 18 -183 1
-104 0 -192 -3 -196z m-235 320 c0 -35 -10 -37 -212 -47 -76 -4 -138 -10 -138
-14 0 -5 -24 -11 -52 -14 -29 -4 -71 -9 -93 -11 -144 -17 -278 -35 -330 -44
-33 -6 -100 -16 -148 -23 -81 -11 -90 -11 -98 5 -13 22 -31 22 -27 0 2 -14 -5
-19 -29 -21 -27 -3 -35 2 -56 32 -13 20 -26 34 -29 31 -3 -3 -11 1 -18 10 -7
8 -9 15 -4 16 124 13 228 22 349 29 304 17 543 38 745 64 149 19 140 20 140
-13z m-120 -86 c7 -8 19 -15 26 -15 8 0 11 6 8 15 -5 12 3 15 39 15 l46 0 0
-247 c0 -155 -3 -242 -9 -233 -5 8 -12 12 -15 8 -4 -3 1 -17 9 -31 13 -19 16
-51 15 -154 0 -71 3 -162 6 -201 l7 -71 -28 -6 c-16 -3 -47 -10 -69 -16 -63
-14 -167 -29 -175 -24 -4 3 -22 0 -40 -6 -23 -9 -34 -9 -43 0 -13 13 -31 15
-23 2 14 -21 -24 -17 -48 6 -15 14 -30 22 -34 18 -4 -4 1 -12 10 -19 25 -19
12 -26 -47 -26 -47 0 -53 3 -84 40 -18 23 -36 38 -39 35 -3 -3 8 -19 24 -36
24 -25 26 -31 14 -39 -20 -13 -47 -12 -56 1 -5 8 -8 8 -14 0 -4 -7 -36 -16
-71 -21 l-64 -9 -62 62 c-35 34 -63 57 -63 51 0 -5 22 -32 50 -59 27 -26 47
-52 44 -57 -13 -21 -56 -5 -101 37 -62 58 -80 58 -23 0 24 -25 42 -45 40 -45
-3 -1 -41 -7 -85 -15 -123 -22 -135 -21 -180 25 -21 22 -44 40 -49 40 -6 0 7
-17 27 -38 20 -21 37 -41 37 -45 0 -11 -59 -8 -80 3 -15 8 -18 7 -14 -3 7 -18
-37 -28 -61 -14 -11 6 -16 6 -12 0 3 -5 -16 -15 -44 -21 -62 -15 -89 -15 -89
-2 0 6 -5 10 -11 10 -5 0 -8 -4 -4 -9 7 -12 -74 -25 -115 -19 -16 2 -31 1 -32
-4 -3 -7 -48 -13 -158 -23 -14 -1 -33 -5 -43 -9 -9 -5 -33 -6 -52 -4 -19 2
-35 0 -35 -4 0 -20 -41 -5 -65 23 -32 39 -46 31 -15 -8 l22 -28 -44 -8 c-23
-4 -64 -6 -91 -5 -26 2 -48 0 -50 -5 -4 -13 -67 -16 -80 -3 -6 7 -25 30 -42
51 -40 51 -56 67 -62 61 -3 -3 16 -31 42 -62 53 -65 51 -68 -36 -79 -40 -5
-59 -3 -64 5 -6 9 -9 9 -16 -1 -5 -8 -30 -15 -61 -16 -29 -2 -67 -6 -83 -9
-23 -4 -35 -1 -49 15 -26 29 -40 27 -21 -3 l16 -23 -83 -7 c-144 -13 -153 -14
-168 -20 -29 -11 -221 -35 -235 -29 -8 3 -15 1 -15 -5 0 -6 -18 -13 -40 -17
-36 -6 -43 -4 -61 20 -24 29 -36 27 -20 -4 14 -26 9 -28 -74 -36 l-70 -7 -62
73 -63 74 0 459 0 459 21 -27 c16 -20 18 -30 10 -40 -13 -16 -4 -26 23 -26 13
0 45 -26 83 -67 34 -38 62 -63 63 -57 0 5 -23 36 -51 67 -55 61 -57 78 -9 60
25 -9 30 -9 30 3 0 10 13 14 48 14 64 0 307 28 362 41 52 13 70 16 165 25 l71
6 39 -48 c56 -69 75 -89 75 -79 0 4 -18 32 -40 61 -22 29 -40 56 -40 59 0 3
19 5 43 5 36 0 46 -5 70 -36 16 -19 31 -33 34 -30 3 3 -4 17 -16 32 -12 15
-20 28 -18 30 8 8 150 33 158 28 5 -3 9 -1 9 4 0 14 90 14 108 0 13 -11 15
-10 9 5 -6 15 1 17 46 18 65 2 81 -1 85 -12 2 -5 8 -9 13 -9 4 0 6 6 3 14 -4
10 13 15 68 20 72 7 73 7 100 -24 15 -16 33 -30 40 -30 6 0 -3 15 -21 34 l-32
33 27 7 c22 6 33 1 65 -30 46 -45 61 -42 18 3 l-29 32 37 11 c37 10 39 9 80
-37 51 -57 67 -53 18 4 -34 40 -34 41 -12 47 45 12 61 5 109 -45 27 -28 52
-48 55 -45 4 4 -15 28 -41 55 l-48 48 97 13 c69 8 100 9 108 1 7 -7 14 -7 23
0 7 6 43 13 80 15 36 2 70 6 74 9 5 3 22 -7 39 -21 32 -27 42 -23 16 6 -14 16
-9 18 74 24 l89 7 55 -58 c30 -32 70 -76 90 -98 20 -21 39 -36 43 -33 3 4 -14
29 -39 55 -114 123 -118 127 -99 135 45 18 64 8 143 -74 43 -45 81 -79 84 -76
3 3 -26 38 -65 79 -38 41 -70 77 -70 80 0 9 150 36 270 49 52 6 103 13 113 16
10 3 24 0 32 -6 11 -9 18 -8 31 5 12 11 28 15 50 13 19 -2 35 0 36 4 6 17 80
12 93 -6 10 -13 15 -14 21 -5 4 7 2 15 -4 17 -7 2 -10 8 -6 13 7 12 61 12 69
-1 10 -16 28 -12 21 5 -4 11 2 15 23 15 16 0 34 -7 41 -15z m-1102 -42 l32
-38 -36 -3 c-20 -2 -41 1 -47 7 -14 14 -30 14 -22 1 8 -13 -39 -24 -70 -16
-14 4 -25 2 -25 -2 0 -9 -71 -18 -205 -28 -33 -2 -65 -6 -72 -9 -6 -2 -17 3
-23 11 -16 18 -34 18 -27 0 12 -31 -40 -49 -63 -21 -18 22 -33 18 -27 -6 6
-21 3 -21 -48 -16 -39 4 -54 2 -52 -6 2 -15 -55 -18 -64 -4 -4 5 -16 0 -28
-12 -16 -16 -33 -21 -74 -21 -29 0 -58 5 -65 12 -8 8 -12 9 -12 1 0 -7 -28
-13 -72 -16 -40 -2 -101 -9 -135 -16 -98 -18 -122 -21 -219 -27 -75 -5 -93 -3
-103 10 -17 20 -35 21 -28 2 7 -16 -34 -29 -80 -25 -16 1 -35 -1 -43 -4 -24
-9 -137 -28 -230 -37 -47 -5 -98 -12 -113 -16 -22 -5 -31 -2 -43 15 -19 27
-38 27 -31 1 8 -30 -15 -24 -51 13 -48 50 -37 63 61 71 215 16 327 27 377 36
121 23 481 54 508 45 7 -3 11 -1 8 4 -3 5 34 12 82 15 48 4 134 13 192 21 58
8 141 19 185 25 44 5 103 10 130 10 28 0 66 5 85 11 19 5 51 10 70 10 19 0 50
5 69 11 18 6 86 14 150 18 64 4 118 8 121 9 3 0 20 -16 38 -36z m-2632 -205
l29 -33 3 -605 3 -605 -35 36 c-30 31 -35 44 -41 105 -4 52 -3 65 5 52 6 -10
18 -18 25 -18 18 0 20 24 16 211 -2 93 0 139 8 143 6 4 11 21 11 37 0 18 -4
28 -10 24 -7 -4 -10 101 -9 310 0 175 -2 320 -6 323 -3 3 -11 0 -17 -6 -20
-20 -28 -14 -28 23 0 43 9 44 46 3z m334 -370 l0 -372 -26 32 c-41 49 -48 27
-9 -28 33 -46 35 -55 35 -126 0 -64 -2 -75 -14 -65 -11 9 -15 8 -20 -4 -3 -9
-2 -14 3 -11 18 12 30 -54 33 -180 l3 -130 -75 -12 c-41 -7 -104 -12 -139 -12
l-64 0 6 541 c4 298 8 543 10 545 1 2 14 -15 27 -36 24 -39 40 -51 40 -29 0 6
-16 37 -35 69 -28 46 -35 68 -35 109 l0 51 34 0 c19 0 41 -7 50 -15 20 -21 29
-19 23 5 -5 18 0 20 41 21 26 0 56 4 67 9 46 20 45 31 45 -362z m3159 -422
c21 -23 22 -24 4 -30 -23 -7 -170 -26 -253 -32 -62 -5 -67 -4 -97 25 -41 37
-41 45 -3 38 16 -4 32 -2 35 3 12 20 76 11 95 -12 10 -13 22 -20 26 -16 4 4 2
14 -5 22 -17 20 -1 24 95 25 73 1 83 -1 103 -23z m-463 -50 l38 -34 -55 -10
c-30 -6 -79 -15 -109 -21 -30 -6 -68 -13 -85 -15 -16 -3 -66 -12 -110 -20 -72
-13 -82 -13 -98 1 -9 9 -20 13 -24 9 -4 -4 -2 -11 6 -15 9 -6 4 -10 -16 -14
-15 -3 -32 -1 -37 4 -14 13 -26 11 -26 -5 0 -14 -28 -18 -228 -32 l-92 -7 -25
29 c-13 15 -27 25 -31 21 -4 -3 -1 -14 6 -22 20 -24 -1 -38 -48 -33 -22 2 -39
0 -36 -3 3 -6 -25 -11 -156 -25 -53 -6 -56 -5 -89 29 l-33 35 68 7 c45 5 73 4
86 -4 25 -15 41 -14 35 3 -8 20 25 30 35 11 11 -19 32 -20 24 0 -4 12 3 15 37
15 23 0 59 4 80 9 21 5 39 5 43 0 3 -5 12 -9 21 -9 11 0 13 3 5 13 -11 13 57
21 183 22 33 0 63 4 67 9 3 5 38 10 77 10 47 1 72 5 76 14 7 19 43 14 57 -8
17 -27 41 -27 33 0 -5 15 -1 22 17 29 18 7 28 4 49 -15 14 -13 28 -24 32 -24
14 0 6 29 -10 39 -15 9 -13 11 12 12 43 2 75 7 120 17 60 14 60 14 101 -22z
m1141 -123 c6 -48 5 -48 -117 -69 -47 -8 -105 -18 -130 -22 -37 -7 -49 -5 -64
10 -11 10 -31 18 -44 18 l-25 0 23 -20 c13 -11 28 -21 34 -21 15 -2 -82 -16
-189 -28 -74 -7 -92 -7 -101 5 -6 8 -21 14 -34 14 -19 0 -20 -2 -10 -15 20
-25 4 -29 -21 -6 -38 35 -65 26 -32 -11 15 -17 15 -18 -4 -18 -10 0 -28 7 -39
15 -10 8 -27 15 -38 15 -15 0 -16 -3 -6 -15 23 -27 -1 -37 -27 -10 -14 14 -30
25 -34 25 -16 0 -9 -38 8 -44 22 -9 6 -22 -37 -30 -28 -5 -39 -2 -53 14 -17
20 -47 27 -47 11 0 -5 7 -15 17 -22 14 -13 13 -15 -13 -19 -22 -4 -31 -1 -39
15 -11 21 -55 34 -55 16 0 -5 9 -16 20 -24 19 -13 17 -15 -30 -21 -42 -6 -56
-3 -79 14 -16 11 -34 20 -40 20 -18 0 -12 -17 12 -33 19 -14 20 -16 4 -16 -11
-1 -30 8 -44 19 -44 34 -72 24 -31 -11 21 -19 21 -19 0 -19 -11 0 -34 8 -51
17 -32 19 -51 12 -32 -11 14 -16 -22 -25 -179 -45 -124 -16 -153 -16 -177 -3
-27 15 -53 16 -53 2 0 -6 10 -15 23 -20 19 -8 17 -9 -15 -9 -20 -1 -90 -10
-155 -22 -166 -28 -180 -29 -205 -2 -24 26 -58 31 -58 9 0 -8 10 -18 21 -21
17 -6 19 -9 8 -16 -9 -5 -20 -1 -32 12 -17 18 -47 26 -47 12 0 -3 7 -15 17
-25 15 -17 15 -18 -13 -18 -18 0 -34 7 -42 20 -14 23 -42 27 -42 5 0 -8 5 -15
11 -15 5 0 7 -4 4 -10 -9 -14 -25 -12 -25 3 0 12 -50 41 -58 33 -2 -2 4 -16
13 -30 17 -25 13 -32 -17 -27 -4 0 -31 -4 -60 -9 -126 -22 -127 -22 -154 5
-22 23 -54 34 -54 19 0 -10 28 -34 39 -34 6 0 11 -4 11 -10 0 -5 -15 -10 -32
-11 -18 0 -52 -2 -75 -4 -24 -2 -45 1 -49 6 -9 16 -64 40 -75 33 -6 -3 4 -16
22 -30 19 -13 27 -24 18 -25 -42 -2 -89 -8 -126 -17 -31 -7 -45 -6 -53 3 -5 6
-6 15 -2 19 4 4 2 6 -3 5 -6 -2 -21 3 -33 10 -33 18 -42 3 -13 -20 13 -11 22
-21 20 -23 -2 -2 -24 -8 -49 -13 -46 -9 -104 1 -147 25 -33 18 -46 16 -34 -7
17 -30 -13 -34 -40 -5 -16 17 -26 21 -33 14 -8 -8 -6 -14 4 -20 8 -5 12 -11 9
-14 -8 -8 -184 -43 -254 -51 -33 -3 -72 -11 -87 -17 -23 -9 -31 -6 -54 18 -28
27 -48 18 -24 -12 7 -8 11 -16 8 -19 -6 -6 -354 -49 -402 -49 -34 -1 -40 3
-49 27 -10 32 8 88 27 81 14 -5 106 9 201 31 78 18 71 17 215 34 58 7 125 17
150 23 25 5 68 13 95 17 58 9 354 66 437 85 33 7 54 8 51 3 -3 -6 -1 -7 5 -3
12 7 99 27 122 27 8 0 49 7 90 14 41 8 113 17 160 20 47 3 159 15 250 26 91
10 189 21 219 25 30 3 65 10 78 15 15 6 22 5 18 -1 -4 -6 5 -6 22 0 25 8 196
32 323 45 113 11 188 22 198 29 6 4 37 8 69 10 32 2 126 15 208 30 83 14 169
26 193 26 23 0 42 3 42 8 0 4 19 7 43 8 77 1 132 7 142 14 11 8 168 34 305 50
47 6 110 15 140 21 156 28 313 47 323 38 5 -4 11 -24 14 -46z m-3094 -132 c22
-38 22 -38 -16 -43 -25 -3 -38 2 -53 19 -22 26 -34 29 -34 9 0 -8 8 -17 18
-22 12 -5 3 -10 -33 -15 -27 -4 -77 -12 -110 -18 -55 -10 -129 -21 -227 -36
-26 -4 -38 -2 -38 6 0 6 -12 22 -27 35 -29 24 -25 28 24 24 12 0 37 3 56 8 25
7 39 6 47 -2 8 -8 14 -7 21 7 6 9 14 15 19 12 5 -3 28 -1 52 5 24 6 76 12 115
13 40 1 73 5 73 9 0 7 19 12 65 15 25 2 34 -3 48 -26z m3095 17 c7 -7 12 -44
12 -95 0 -81 -1 -83 -24 -83 -17 0 -43 20 -89 71 -36 39 -71 69 -78 67 -8 -3
1 -19 24 -45 20 -22 37 -44 37 -48 0 -4 11 -16 25 -27 22 -17 27 -46 5 -33 -5
3 -27 1 -49 -4 -39 -8 -41 -8 -93 44 -29 29 -61 63 -71 75 -20 24 -42 18 -27
-8 5 -9 32 -41 60 -71 49 -52 59 -77 20 -54 -14 10 -21 9 -30 -2 -6 -8 -31
-17 -55 -20 -45 -7 -45 -8 -123 63 -39 37 -95 66 -145 78 -31 8 -30 9 23 16
30 4 90 10 134 13 43 2 126 16 185 30 58 15 135 30 171 35 36 4 67 8 71 9 3 0
10 -4 17 -11z m-4345 -202 c40 -43 85 -92 100 -109 69 -73 79 -93 72 -141 -8
-51 -15 -51 -49 2 -13 21 -35 50 -49 66 -14 17 -24 34 -21 38 3 5 0 7 -7 6 -9
-2 -12 9 -10 40 3 46 -14 57 -29 20 -7 -20 -9 -18 -9 15 -1 21 -8 45 -16 53
-8 8 -22 25 -31 37 -14 20 -17 20 -27 6 -10 -15 -12 -15 -27 3 -10 13 -14 32
-12 54 l4 34 20 -22 c10 -13 51 -59 91 -102z m917 -304 c-57 -25 -161 -126
-188 -183 -16 -33 -22 -37 -77 -47 -33 -7 -71 -12 -85 -13 -33 -3 -62 10 -53
24 3 6 1 7 -5 3 -7 -4 -12 -3 -12 1 0 13 -107 123 -119 123 -21 0 -10 -18 40
-68 36 -36 49 -57 45 -68 -5 -13 -4 -15 7 -5 11 9 17 8 26 -3 9 -11 9 -16 1
-21 -16 -10 -65 27 -118 86 -24 27 -48 49 -53 49 -16 0 -9 -20 16 -46 14 -14
25 -28 25 -32 0 -4 14 -16 30 -27 16 -11 30 -23 30 -27 0 -12 -38 -10 -45 2
-7 11 -45 14 -45 4 0 -4 8 -13 18 -20 15 -12 14 -13 -15 -14 -18 0 -33 5 -33
10 0 6 -5 10 -11 10 -6 0 -17 7 -25 15 -9 8 -20 15 -25 15 -16 0 -10 -21 14
-42 l22 -19 -32 17 c-34 19 -40 37 -34 113 5 67 16 73 136 85 28 3 77 10 110
15 33 5 123 20 200 32 146 24 229 36 255 37 13 0 13 0 0 -6z"/>
<path d="M4937 2253 c-16 -15 -4 -35 44 -73 49 -38 50 -40 27 -49 -13 -4 -41
-11 -63 -15 -49 -8 -290 -51 -402 -72 -111 -20 -266 -33 -399 -34 l-110 0 -45
75 c-24 41 -49 75 -55 75 -17 0 -22 -67 -7 -98 30 -62 153 -170 153 -134 0 4
82 7 183 8 145 0 205 5 293 22 61 12 154 26 205 31 52 5 105 14 119 19 14 5
50 13 80 17 30 4 66 12 79 17 13 5 49 11 79 13 30 2 60 9 65 14 17 17 -1 41
-32 41 -17 0 -31 6 -35 15 -4 13 -2 14 14 5 16 -9 22 -7 27 6 6 17 -42 68
-106 112 -22 15 -24 15 -37 -3 -13 -17 -15 -17 -32 -2 -20 18 -34 21 -45 10z"/>
</g>
</svg>
