<?xml version="1.0" standalone="no"?>
<!DOCTYPE svg PUBLIC "-//W3C//DTD SVG 20010904//EN"
 "http://www.w3.org/TR/2001/REC-SVG-20010904/DTD/svg10.dtd">
<svg version="1.0" xmlns="http://www.w3.org/2000/svg"
 width="1277.000000pt" height="941.000000pt" viewBox="0 0 1277.000000 941.000000"
 preserveAspectRatio="xMidYMid meet">
<metadata>
Created by potrace 1.16, written by Peter Selinger 2001-2019
</metadata>
<g transform="translate(0.000000,941.000000) scale(0.100000,-0.100000)"
fill="#000000" stroke="none">
<path d="M8864 7918 c-2 -3 2 -9 8 -11 7 -3 3 -6 -10 -6 -13 -1 -21 2 -19 7 3
4 -186 7 -419 7 -233 1 -418 -3 -411 -7 8 -5 7 -8 -5 -8 -10 0 -18 5 -18 12 0
8 -32 9 -122 3 -68 -5 -188 -9 -268 -11 -80 -1 -194 -4 -255 -8 -60 -3 -175
-8 -255 -12 -80 -3 -181 -9 -225 -13 -44 -4 -309 -9 -590 -10 -280 -1 -545 -4
-587 -7 -99 -6 -149 -24 -201 -73 -31 -29 -45 -37 -54 -29 -8 6 -160 11 -435
13 -426 2 -590 11 -728 38 -70 14 -143 18 -573 33 -96 3 -211 1 -270 -5 -56
-6 -154 -16 -217 -22 -63 -6 -128 -13 -145 -14 -16 -2 -149 -9 -295 -15 -146
-5 -305 -14 -355 -20 -49 -5 -124 -12 -165 -14 -41 -3 -111 -8 -155 -11 -44
-3 -132 -7 -195 -10 -160 -6 -372 -22 -455 -34 -155 -23 -176 -29 -199 -50
-12 -11 -26 -18 -30 -14 -4 5 -6 2 -4 -5 2 -7 -19 -25 -47 -40 -76 -41 -112
-80 -120 -129 -4 -29 -3 -43 4 -43 6 0 11 -10 10 -22 0 -22 -1 -22 -8 -3 -7
18 -8 18 -13 -5 -11 -63 2 -204 27 -270 9 -25 17 -49 19 -55 11 -46 63 -185
77 -210 11 -17 27 -56 38 -86 10 -30 22 -61 26 -70 4 -12 0 -18 -17 -23 -23
-6 -64 -39 -106 -87 -21 -24 -44 -93 -55 -167 -3 -19 -8 -36 -11 -39 -3 -3 -1
-15 5 -26 7 -12 7 -17 1 -13 -5 3 -12 0 -14 -7 -4 -11 -1 -597 3 -625 1 -7 8
-11 16 -8 15 6 17 -3 4 -23 -5 -8 -3 -30 5 -55 21 -62 41 -219 43 -330 1 -55
9 -131 17 -170 12 -55 14 -104 9 -218 -4 -81 -2 -207 4 -280 6 -73 12 -229 15
-346 3 -171 1 -222 -11 -260 -12 -38 -16 -141 -22 -527 -9 -682 -8 -810 5
-826 6 -8 17 -39 24 -69 7 -30 19 -63 28 -72 17 -20 82 -24 99 -7 7 7 19 9 28
5 14 -5 15 -19 9 -114 -6 -92 -4 -109 10 -121 9 -7 25 -11 37 -8 12 3 31 2 44
-3 12 -5 62 -12 111 -15 49 -4 96 -11 105 -15 8 -5 22 -4 30 1 7 5 26 9 40 9
28 0 59 27 59 52 0 8 -9 27 -21 41 l-20 26 38 -13 c21 -8 60 -24 88 -35 27
-12 99 -34 160 -48 60 -14 128 -34 150 -45 49 -24 210 -86 361 -138 62 -22
134 -52 162 -69 86 -51 138 -70 152 -57 10 8 11 8 6 -2 -6 -11 33 -35 66 -42
4 0 33 -12 64 -26 31 -14 64 -22 72 -19 9 3 39 -6 69 -21 43 -22 53 -32 53
-53 0 -14 11 -62 25 -106 14 -44 25 -93 25 -108 0 -33 27 -84 49 -93 9 -3 70
-8 135 -11 96 -5 134 -2 198 13 110 26 120 37 113 127 -8 104 -16 178 -21 192
-4 9 68 13 283 18 158 4 302 9 318 11 17 3 56 7 87 10 57 6 110 9 466 29 17 1
32 4 32 7 0 5 118 9 338 13 39 0 72 4 72 8 0 3 30 6 68 6 37 -1 83 2 102 5 54
10 189 27 250 32 30 3 91 8 135 11 44 4 202 25 350 46 149 22 331 46 405 55
74 8 194 29 265 45 72 17 193 45 270 61 77 16 203 43 280 59 123 27 536 104
605 113 14 2 25 5 25 6 0 5 43 12 68 11 15 0 25 4 22 8 -2 5 8 9 23 9 23 1 89
6 140 11 8 0 10 6 6 14 -6 9 -5 9 7 0 8 -6 33 -10 59 -7 57 5 73 11 65 24 -3
5 -2 10 4 10 5 0 11 -5 13 -11 4 -12 95 -1 278 32 58 10 158 26 224 34 65 8
122 17 126 20 5 3 109 14 232 25 123 12 264 27 313 34 276 39 753 123 900 157
44 11 126 22 182 26 l102 6 -6 -85 c-4 -60 -2 -87 6 -92 33 -21 166 -25 321
-11 103 9 127 19 126 53 -1 16 -6 26 -13 25 -7 -2 -12 0 -12 5 1 4 0 12 -1 17
-3 16 1 110 6 114 2 2 12 -3 22 -12 24 -22 99 -22 152 -1 74 30 95 87 66 176
-8 24 -19 72 -24 108 -32 197 -45 253 -67 302 -39 85 -41 130 -11 229 16 53
26 109 26 150 0 52 5 72 28 109 27 45 27 45 28 250 1 113 5 268 10 345 6 77 6
167 2 199 -10 72 -62 246 -91 301 -16 31 -21 61 -23 135 -1 52 -5 123 -9 157
-5 41 -4 72 5 95 13 35 30 214 35 361 l3 87 43 23 c254 133 276 162 213 287
-41 82 -131 140 -304 196 -96 31 -430 114 -459 114 -12 0 -43 9 -69 19 -53 22
-113 35 -286 61 -130 20 -131 20 -221 44 -40 10 -61 12 -66 5 -4 -7 -8 -5 -12
5 -4 10 -15 13 -31 10 -15 -2 -26 -1 -26 3 0 5 -19 9 -43 11 -76 4 -87 6 -87
12 0 8 4 7 -135 14 -60 3 -150 10 -200 16 -49 5 -125 13 -167 16 -61 4 -78 9
-78 21 0 8 -16 42 -36 75 -20 33 -45 94 -56 136 -11 43 -33 106 -50 141 -16
34 -32 73 -33 85 -7 42 -26 112 -41 151 -9 23 -19 97 -25 175 -4 74 -17 187
-29 250 -11 63 -20 134 -20 157 0 46 -42 108 -66 99 -9 -3 -11 0 -7 12 6 15 5
16 -12 2 -10 -8 -16 -10 -12 -3 4 7 0 14 -11 17 -24 8 -163 3 -168 -6z m-217
-88 c210 -1 385 -5 387 -9 3 -4 8 -32 10 -62 11 -126 19 -185 27 -206 5 -13
11 -78 14 -145 4 -86 13 -147 30 -203 13 -44 31 -110 40 -147 9 -37 29 -93 44
-125 15 -32 36 -92 46 -133 10 -41 26 -92 36 -112 11 -21 19 -39 19 -41 0 -2
-25 -9 -55 -16 -32 -7 -73 -26 -98 -45 -23 -18 -48 -31 -55 -28 -7 2 -12 -1
-12 -7 0 -6 -7 -8 -15 -5 -8 4 -15 1 -15 -5 0 -6 -8 -11 -17 -11 -10 -1 -37
-25 -60 -54 -45 -56 -55 -78 -25 -55 15 13 16 12 3 -3 -7 -10 -16 -16 -20 -14
-14 9 -43 -24 -38 -43 3 -12 0 -19 -6 -18 -6 1 -12 -7 -14 -18 -3 -11 -7 -27
-10 -35 -3 -8 -7 -21 -9 -28 -1 -8 -5 -21 -9 -30 -13 -35 -26 -499 -16 -592 2
-14 2 -65 1 -115 -2 -103 7 -197 20 -205 5 -3 12 -18 15 -33 4 -15 15 -32 24
-37 9 -6 11 -10 4 -10 -7 0 -13 -8 -13 -18 0 -20 -34 -23 -380 -38 -52 -3
-153 -9 -225 -14 -112 -9 -282 -19 -377 -22 -16 0 -28 -3 -28 -7 0 -4 -27 -7
-59 -6 -33 0 -58 -3 -56 -6 2 -3 -29 -5 -68 -5 -82 0 -248 -12 -290 -20 -15
-3 -25 -10 -21 -15 3 -5 0 -9 -5 -9 -6 0 -11 5 -11 11 0 6 -23 8 -67 4 -95 -8
-176 -14 -263 -20 -41 -3 -118 -9 -170 -15 -52 -5 -167 -17 -255 -25 -150 -15
-257 -30 -435 -60 -41 -7 -77 -11 -79 -9 -5 5 62 268 80 311 19 46 0 97 -61
163 -57 62 -79 100 -105 179 -12 38 -32 68 -64 99 l-46 45 -8 106 c-13 182 -8
170 -109 282 -15 17 -29 49 -33 72 -4 23 -15 60 -25 82 -10 22 -28 72 -40 110
-11 39 -34 95 -50 126 -29 54 -30 62 -30 186 0 85 5 149 16 188 18 69 19 137
5 255 -6 47 -11 117 -12 155 -2 61 -8 81 -47 155 -24 47 -45 97 -45 112 -1 14
-5 26 -8 25 -4 -1 -16 8 -27 21 -22 25 -20 47 4 56 8 3 14 11 14 18 0 22 59
67 103 79 31 8 197 10 612 5 354 -4 614 -3 685 3 63 6 262 13 441 17 180 3
373 10 430 14 57 4 192 6 299 4 107 -2 367 -4 577 -4z m-4567 -76 c58 -3 137
-12 175 -21 39 -8 120 -19 180 -24 61 -5 133 -13 160 -18 28 -5 172 -10 320
-10 229 -1 286 -4 375 -21 58 -12 109 -25 114 -30 14 -14 29 -12 20 2 -4 7 -3
8 5 4 6 -4 9 -12 5 -17 -3 -6 1 -18 10 -28 9 -10 18 -28 21 -39 6 -33 25 -63
35 -57 6 3 7 -1 4 -9 -3 -8 5 -34 17 -58 20 -39 22 -61 26 -232 3 -172 2 -195
-18 -253 -17 -53 -21 -90 -22 -226 l-2 -162 32 -46 c18 -26 37 -67 42 -91 6
-24 24 -77 41 -118 16 -41 30 -79 30 -85 0 -36 26 -88 65 -131 56 -61 72 -110
83 -249 8 -109 27 -165 56 -165 23 0 63 -74 69 -130 1 -8 5 -17 9 -20 7 -5 15
-36 17 -64 1 -4 8 -6 15 -3 10 4 13 1 10 -7 -3 -7 16 -39 42 -70 42 -52 45
-59 35 -84 -6 -15 -18 -58 -25 -97 -8 -38 -22 -106 -31 -150 -9 -44 -17 -86
-18 -93 0 -6 -16 -16 -36 -22 -153 -40 -225 -49 -586 -69 -88 -5 -167 -12
-175 -14 -8 -3 -101 -8 -207 -11 -105 -3 -227 -11 -270 -17 -43 -6 -141 -16
-218 -22 -134 -11 -140 -13 -143 -34 -2 -13 1 -23 7 -23 6 0 11 -7 11 -16 0
-12 5 -14 18 -8 9 4 67 9 127 11 61 1 144 5 185 8 41 3 172 7 290 9 210 4 383
10 545 21 228 16 268 20 460 55 126 23 293 24 360 1 17 -5 81 -12 142 -15 62
-2 116 -7 121 -10 4 -2 35 -8 67 -11 33 -4 91 -16 129 -26 39 -10 74 -16 78
-13 4 3 14 2 21 -3 6 -4 48 -8 93 -9 44 0 87 -4 94 -9 8 -5 21 -10 30 -11 92
-11 330 -48 385 -59 39 -9 79 -15 90 -15 11 0 30 -8 41 -18 18 -14 22 -31 27
-102 2 -47 11 -102 20 -122 18 -43 24 -232 12 -348 -8 -75 -25 -105 -53 -95
-7 3 -10 1 -7 -4 3 -5 1 -12 -5 -16 -11 -7 -307 -62 -590 -110 -113 -19 -260
-47 -328 -61 -67 -14 -129 -23 -137 -20 -8 3 -15 2 -15 -2 0 -4 -12 -8 -27 -9
-16 -1 -41 -4 -58 -7 -16 -3 -49 -6 -72 -7 -24 -2 -43 -6 -43 -9 0 -4 -8 -7
-17 -7 -76 1 -95 -3 -89 -19 5 -14 4 -15 -8 -5 -11 9 -35 6 -107 -13 -139 -36
-219 -53 -364 -76 -71 -11 -155 -27 -186 -35 -98 -25 -233 -45 -330 -50 -52
-2 -123 -7 -159 -10 -36 -3 -137 -1 -225 5 -126 8 -175 15 -230 35 -94 33
-239 35 -335 4 -49 -16 -106 -23 -225 -29 -88 -4 -223 -13 -300 -20 -223 -18
-198 -22 -208 30 -4 25 -12 59 -17 76 -6 17 -10 57 -10 90 0 32 -7 104 -15
158 -27 177 -13 808 21 952 8 33 14 107 14 165 0 86 -3 110 -20 137 l-20 32
29 0 c34 0 42 -9 66 -74 31 -85 5 -326 -47 -439 -25 -55 -19 -76 28 -92 33
-11 45 -24 37 -39 -3 -5 -1 -6 4 -3 11 7 37 -16 28 -25 -3 -2 1 -5 8 -6 6 0
66 -15 132 -31 142 -37 166 -37 271 -10 124 32 168 55 192 98 21 37 21 40 7
208 -8 93 -17 209 -20 257 -3 55 -12 100 -24 124 -10 20 -21 62 -24 92 -5 57
-86 271 -113 302 -9 9 -13 22 -9 29 5 7 -28 45 -86 99 -88 84 -98 90 -179 114
-47 15 -112 31 -145 36 -98 15 -156 32 -220 60 -33 15 -80 30 -105 34 -61 9
-295 81 -460 141 -24 9 -52 14 -62 12 -10 -3 -16 0 -15 7 1 6 -8 11 -19 10
-15 0 -20 4 -17 14 4 8 0 13 -8 11 -8 -1 -21 1 -29 4 -8 3 -40 8 -70 10 -48 4
-95 12 -95 17 0 1 -22 4 -50 7 -27 2 -67 14 -89 25 -69 35 -427 80 -603 76
-149 -3 -142 -7 -143 82 0 61 -23 186 -55 300 -55 198 -74 280 -97 430 -17
108 -33 174 -53 217 -27 62 -28 65 -20 190 4 71 8 139 10 153 1 14 3 35 3 46
2 19 11 23 70 30 37 4 94 8 127 9 33 1 103 4 155 9 52 4 127 9 165 10 116 6
255 17 350 28 50 5 169 12 265 14 242 7 521 23 670 39 123 13 544 13 790 -1z
m-2671 -242 c-22 -119 -23 -234 -3 -287 30 -79 65 -261 68 -357 1 -14 4 -29 8
-33 4 -4 4 -13 1 -21 -3 -8 -1 -14 4 -14 5 0 10 -6 11 -12 3 -38 19 -133 22
-133 3 0 9 -27 21 -85 15 -71 27 -102 38 -96 5 4 7 -2 4 -12 -2 -10 3 -46 11
-79 9 -34 16 -84 16 -111 0 -45 -3 -53 -31 -73 -29 -20 -133 -42 -116 -24 4 5
0 17 -9 27 -10 10 -18 37 -20 60 -5 76 -15 131 -28 157 -7 14 -20 53 -30 86
-32 115 -89 287 -178 540 l-61 170 -4 140 -5 140 28 37 c35 45 129 86 189 82
22 -1 47 2 55 6 25 14 27 -7 9 -108z m-159 -951 c0 -31 6 -80 14 -107 8 -27
17 -85 21 -129 4 -44 9 -83 11 -87 3 -4 7 -40 10 -79 4 -50 3 -69 -5 -65 -6 4
-11 2 -11 -4 0 -7 -7 -10 -15 -6 -8 3 -15 2 -15 -2 0 -4 -14 -13 -32 -21 -30
-14 -60 -36 -99 -73 -18 -17 -18 -10 -18 168 0 149 3 202 18 263 11 42 22 88
25 104 7 32 74 110 87 101 5 -3 9 -31 9 -63z m8380 -16 c63 -9 160 -20 215
-26 129 -13 357 -54 461 -85 45 -13 129 -33 186 -44 56 -11 128 -25 158 -31
30 -6 74 -19 96 -29 23 -10 74 -26 115 -35 133 -32 292 -76 391 -109 70 -24
101 -30 109 -22 9 8 10 8 5 -1 -6 -12 31 -40 47 -35 16 5 79 -52 96 -87 l19
-35 -92 -55 c-50 -30 -109 -58 -131 -62 -80 -15 -94 -25 -125 -91 -38 -83 -57
-158 -70 -280 -11 -111 -12 -113 -45 -253 -13 -55 -26 -111 -29 -125 -5 -22
-10 -25 -55 -27 -61 -2 -89 -16 -97 -48 -3 -14 -8 -25 -9 -25 -2 0 -70 12
-152 26 -101 18 -194 27 -293 29 -150 3 -213 9 -265 25 -45 14 -138 22 -242
20 -50 0 -94 3 -97 8 -2 4 -67 9 -143 10 -76 2 -217 7 -313 12 -281 16 -290
19 -308 92 -6 28 -9 55 -5 61 3 5 1 7 -4 4 -6 -4 -21 16 -34 46 -20 45 -23 67
-22 162 1 76 -3 126 -14 162 -14 45 -15 84 -7 315 8 227 12 268 27 291 11 17
23 25 30 21 7 -4 9 -4 5 1 -9 10 10 47 21 40 5 -2 8 3 7 13 -1 11 16 25 49 42
28 14 71 37 96 53 25 15 54 27 65 27 25 0 116 43 131 62 10 11 23 13 60 6 27
-4 100 -15 163 -23z m-7650 -412 c0 -4 10 -9 23 -10 122 -8 170 -13 203 -22
22 -5 66 -13 99 -17 33 -4 89 -19 125 -34 36 -16 121 -40 190 -54 75 -15 161
-41 215 -64 50 -22 142 -56 205 -77 63 -21 142 -48 175 -60 33 -12 83 -27 110
-33 28 -6 82 -25 120 -42 39 -17 71 -31 73 -31 14 4 32 -1 32 -9 0 -5 -19 -10
-42 -10 -35 -1 -183 -28 -292 -55 -23 -5 -37 -25 -28 -40 3 -5 -2 -4 -11 4
-11 9 -17 10 -18 2 -3 -26 -4 -30 -13 -38 -5 -5 -6 -3 -2 5 14 23 -10 12 -41
-20 -56 -58 -73 -125 -50 -193 l15 -43 -67 -1 c-42 -1 -82 5 -105 14 -20 9
-71 20 -114 25 -42 6 -111 21 -152 34 -41 13 -115 36 -165 51 -49 14 -111 33
-138 41 -26 8 -84 19 -130 25 -45 6 -109 20 -142 30 -112 37 -348 74 -447 71
-10 0 -18 3 -18 8 0 5 -9 7 -20 5 -11 -2 -22 0 -25 6 -4 5 -15 9 -26 9 -10 0
-19 4 -19 8 0 4 -8 8 -17 9 -10 0 -61 11 -113 23 -52 12 -124 25 -160 30 -90
12 -104 38 -81 143 6 23 13 55 16 71 3 16 25 47 47 68 39 37 211 128 242 128
8 0 21 6 28 13 7 7 31 13 53 13 64 1 186 12 192 17 8 9 273 8 273 0z m9299
-473 c-21 -125 -32 -316 -30 -491 2 -141 0 -189 -10 -194 -8 -5 -10 -4 -5 3 8
14 -12 55 -23 48 -4 -3 -19 7 -32 22 l-24 27 28 -24 c15 -14 27 -20 27 -14 0
6 -7 17 -16 24 -13 11 -15 25 -10 79 3 36 13 88 22 115 15 48 24 138 26 273 1
34 5 62 10 62 5 0 7 14 4 30 -2 17 0 30 6 30 5 0 8 8 7 18 -1 9 1 30 6 46 13
48 24 7 14 -54z m-9964 -82 c50 -12 128 -35 175 -51 111 -39 131 -44 285 -62
81 -9 173 -28 240 -49 61 -18 130 -37 155 -40 79 -12 168 -36 321 -86 187 -62
210 -68 285 -75 34 -3 79 -12 100 -21 22 -9 67 -18 101 -19 34 -2 89 -14 123
-26 52 -19 73 -21 151 -16 118 8 235 -2 214 -17 -17 -13 -10 -75 9 -82 7 -3
10 -36 9 -97 -1 -50 -3 -92 -3 -92 -3 0 -11 -42 -11 -57 0 -10 -4 -18 -9 -18
-4 0 -8 -35 -8 -77 0 -43 -1 -80 -2 -83 -2 -5 -4 -33 -17 -235 -12 -195 -10
-765 4 -802 6 -17 9 -33 7 -36 -3 -2 0 -16 6 -31 8 -22 6 -31 -10 -48 -31 -33
-22 -113 10 -93 9 5 11 4 6 -3 -4 -7 -3 -12 2 -12 6 0 12 -25 14 -55 1 -30 -1
-55 -6 -55 -4 0 -5 -17 -2 -37 10 -56 12 -264 4 -270 -5 -2 -8 -9 -8 -14 0 -6
5 -7 12 -3 7 5 8 3 3 -6 -4 -7 -7 -78 -6 -159 5 -430 -2 -808 -14 -820 -6 -6
-37 -4 -83 3 -53 10 -83 10 -112 3 -40 -11 -97 3 -86 22 3 5 -2 8 -12 7 -9 0
-16 4 -15 9 1 6 -6 11 -15 12 -86 9 -154 28 -220 62 -201 104 -289 143 -432
191 -85 29 -164 53 -177 55 -12 1 -34 10 -48 19 -14 9 -25 14 -25 12 0 -3 -19
3 -43 13 -24 10 -88 29 -143 41 -54 13 -164 44 -244 71 -80 26 -192 57 -250
69 -60 12 -120 31 -140 44 -19 12 -56 33 -82 45 -27 13 -48 27 -48 33 0 6 -7
8 -15 5 -8 -4 -17 -1 -21 5 -4 7 -3 8 4 4 17 -10 15 0 -5 31 -17 25 -18 75
-20 653 -1 503 2 634 13 673 9 34 12 85 9 175 -3 70 -8 213 -12 317 -4 105 -7
278 -8 385 0 115 -6 211 -12 235 -7 22 -17 96 -23 165 -10 124 -27 254 -37
297 -5 20 -2 22 34 17 21 -3 79 -15 128 -26z m2436 -12 c30 -9 98 -22 153 -30
73 -11 103 -20 117 -35 11 -11 19 -25 19 -31 0 -5 4 -10 10 -10 5 0 12 -17 16
-37 4 -21 20 -71 36 -112 16 -40 31 -94 34 -120 4 -25 14 -75 24 -111 13 -46
20 -118 25 -250 3 -102 9 -201 11 -220 7 -46 -13 -64 -103 -95 -96 -33 -134
-35 -216 -14 -39 10 -82 19 -94 19 -13 0 -41 17 -62 38 l-39 38 20 70 c15 50
22 110 25 220 5 139 4 157 -17 210 -12 32 -26 65 -33 72 -32 39 -123 54 -338
53 l-116 0 -32 39 c-35 44 -61 98 -61 128 0 32 29 79 64 106 64 48 129 66 331
90 57 7 172 -3 226 -18z m5376 -470 c67 -7 208 -14 413 -21 96 -3 209 -10 250
-15 41 -5 111 -12 155 -15 92 -6 115 -9 247 -36 54 -11 157 -24 230 -29 73 -5
200 -23 283 -40 301 -62 325 -63 372 -14 19 20 36 34 39 31 3 -3 23 -36 45
-72 38 -65 39 -70 39 -159 0 -57 -8 -123 -20 -176 -12 -46 -22 -116 -23 -155
-2 -69 -2 -70 -31 -73 -16 -2 -39 -10 -51 -18 -12 -8 -75 -21 -141 -30 -65 -8
-139 -20 -164 -25 -59 -13 -298 -29 -475 -31 -77 -1 -144 -4 -150 -7 -5 -3
-30 -6 -55 -8 -52 -2 -135 -11 -135 -13 0 -2 -98 -10 -157 -13 -17 -1 -28 -8
-28 -17 0 -12 -2 -12 -8 -2 -6 9 -27 11 -78 7 -106 -9 -125 -11 -184 -24 -90
-18 -102 -21 -160 -26 -50 -5 -84 -9 -160 -20 -128 -19 -191 -24 -290 -26 -63
-1 -137 -5 -165 -9 -27 -4 -108 -15 -180 -24 -355 -46 -447 -59 -532 -77 -51
-10 -114 -19 -140 -19 l-48 0 0 60 c0 33 3 60 6 60 3 0 6 64 7 143 0 117 -3
152 -20 202 -23 67 -26 79 -28 115 -2 24 -3 23 -10 -5 -8 -30 -8 -30 -9 8 -1
23 3 36 9 32 19 -12 10 70 -13 110 -29 51 -76 75 -149 75 -31 0 -69 5 -84 10
-15 6 -68 15 -118 20 -159 17 -303 37 -316 45 -6 4 -67 11 -133 15 -78 5 -145
16 -186 29 -42 14 -91 21 -145 22 -90 0 -121 8 -102 24 6 6 49 11 96 11 79 1
352 18 480 29 269 23 435 37 610 50 113 9 255 20 315 25 366 34 815 50 922 34
38 -5 45 -3 70 24 15 16 34 28 40 26 7 -2 34 -6 60 -8z m2206 -626 c-3 -178
-10 -383 -13 -390 -6 -16 -6 -119 1 -137 6 -16 5 -23 -3 -23 -6 0 -9 -3 -5 -6
3 -4 -6 -22 -20 -41 -23 -30 -28 -48 -34 -132 -4 -59 -15 -119 -28 -156 -30
-79 -26 -203 7 -256 21 -35 38 -122 45 -230 2 -30 6 -60 10 -65 3 -6 5 -24 5
-42 -1 -24 -6 -32 -20 -32 -10 0 -55 -9 -100 -21 -48 -13 -95 -19 -116 -15
-19 3 -69 1 -110 -4 -42 -6 -134 -10 -205 -11 -70 0 -149 -4 -175 -8 -78 -14
-200 -40 -334 -73 -71 -16 -134 -28 -142 -25 -8 3 -17 3 -20 0 -3 -4 -27 -7
-53 -8 -27 -2 -50 -4 -53 -5 -7 -4 -18 -6 -88 -15 -38 -5 -66 -13 -71 -23 -5
-9 -11 -11 -15 -4 -4 6 -30 5 -78 -4 -40 -8 -91 -17 -113 -20 -22 -3 -47 -8
-55 -11 -8 -3 -78 -9 -155 -14 -77 -4 -151 -10 -165 -13 -14 -2 -52 -7 -85
-11 -57 -7 -201 -30 -458 -74 -66 -12 -139 -21 -164 -21 -68 0 -386 -48 -498
-75 -112 -27 -315 -68 -480 -96 -60 -10 -148 -31 -195 -45 -46 -15 -98 -28
-115 -28 -16 -1 -32 -4 -35 -8 -3 -3 -30 -9 -60 -13 -30 -4 -59 -10 -65 -13
-5 -4 -14 -7 -20 -8 -5 -1 -41 -11 -80 -23 -38 -12 -88 -26 -110 -31 -106 -22
-206 -39 -260 -45 -79 -8 -229 -29 -512 -71 -128 -19 -298 -39 -377 -44 -80
-5 -173 -14 -208 -19 -75 -12 -290 -29 -518 -41 -181 -10 -537 -43 -640 -59
-36 -6 -97 -11 -136 -11 -39 0 -96 -5 -125 -11 -30 -6 -153 -12 -274 -13
l-220 -2 3 235 c1 130 3 274 3 321 1 47 -2 256 -6 464 -5 248 -4 377 2 373 6
-4 16 5 23 18 16 30 35 34 183 40 65 3 123 7 128 11 5 3 69 5 142 5 111 0 147
4 222 24 114 32 235 34 321 5 33 -10 86 -24 119 -29 57 -10 436 -8 500 3 17 2
63 7 102 10 100 8 193 22 363 56 80 16 206 40 280 55 74 14 194 39 265 55 72
16 200 38 285 50 85 11 205 29 265 40 61 11 198 33 305 50 107 16 224 34 260
40 36 6 85 13 110 15 25 2 45 5 45 6 0 1 14 3 30 5 64 6 125 26 118 37 -4 7 2
5 12 -3 17 -14 18 -13 12 4 -6 16 -5 17 8 6 14 -12 19 -7 16 13 -1 5 4 5 10 2
6 -4 24 2 40 14 22 17 43 21 101 21 40 0 102 7 138 14 36 8 97 17 135 21 39 4
89 11 111 16 23 5 117 15 210 24 93 8 196 20 229 25 33 5 114 10 180 10 68 0
231 13 375 30 140 17 302 35 360 40 58 6 219 22 357 35 139 14 301 25 360 25
119 0 417 25 473 40 19 5 82 14 140 20 141 16 297 54 325 80 19 18 22 32 23
108 0 53 9 118 21 166 12 44 22 107 23 140 l1 61 6 -50 c3 -27 5 -120 4 -205z"/>
</g>
</svg>
