<?xml version="1.0" standalone="no"?>
<!DOCTYPE svg PUBLIC "-//W3C//DTD SVG 20010904//EN"
 "http://www.w3.org/TR/2001/REC-SVG-20010904/DTD/svg10.dtd">
<svg version="1.0" xmlns="http://www.w3.org/2000/svg"
 width="1037.000000pt" height="1025.000000pt" viewBox="0 0 1037.000000 1025.000000"
 preserveAspectRatio="xMidYMid meet">
<metadata>
Created by potrace 1.16, written by Peter Selinger 2001-2019
</metadata>
<g transform="translate(0.000000,1025.000000) scale(0.100000,-0.100000)"
fill="#000000" stroke="none">
<path d="M4550 9019 c-102 -10 -146 -16 -365 -49 -77 -11 -201 -25 -275 -31
-127 -9 -250 -27 -331 -49 -20 -6 -65 -10 -100 -10 -79 0 -313 -26 -354 -39
-16 -5 -68 -12 -115 -15 -117 -8 -153 -20 -184 -61 l-26 -34 4 -288 c3 -158
10 -340 16 -403 6 -73 8 -338 5 -730 -3 -338 -4 -824 -3 -1080 2 -256 2 -499
0 -540 -2 -41 -2 -136 -1 -210 1 -74 2 -463 3 -865 l1 -729 -39 -26 c-21 -15
-43 -35 -49 -46 -10 -18 -27 -100 -28 -134 -1 -30 17 -135 25 -148 5 -8 14
-40 20 -71 9 -45 9 -64 0 -87 -14 -33 -9 -78 13 -112 9 -15 13 -45 11 -95 -3
-72 -3 -72 -33 -75 -16 -2 -32 -7 -35 -12 -3 -4 -50 -30 -105 -57 -55 -27
-154 -77 -220 -112 -108 -57 -271 -142 -395 -206 -25 -13 -67 -34 -95 -47 -70
-34 -208 -108 -220 -119 -5 -5 -20 -9 -35 -10 -14 0 -48 -12 -77 -27 -28 -15
-107 -55 -175 -90 -68 -35 -130 -67 -138 -72 -8 -5 -43 -22 -76 -39 -70 -34
-100 -61 -166 -150 -26 -34 -81 -96 -123 -135 -41 -40 -75 -80 -75 -89 0 -10
-4 -17 -10 -17 -5 0 -10 -8 -10 -19 0 -18 -52 -51 -79 -51 -7 0 -31 -10 -54
-22 -47 -25 -84 -40 -169 -68 -72 -24 -98 -38 -98 -52 0 -6 -7 -19 -16 -29
-13 -14 -16 -46 -17 -166 l-2 -148 29 -42 c17 -25 39 -44 55 -48 35 -7 215
-22 496 -40 127 -8 239 -17 250 -20 11 -3 85 -10 165 -15 80 -5 192 -14 250
-20 58 -5 170 -12 250 -15 80 -4 177 -11 215 -16 70 -11 308 -32 550 -49 72
-6 153 -12 180 -14 28 -2 88 -7 135 -10 47 -3 119 -10 160 -16 91 -11 422 -39
540 -45 192 -9 512 -35 695 -56 50 -6 164 -15 255 -20 337 -19 700 -47 720
-55 8 -4 92 -10 185 -15 182 -8 345 -21 490 -38 151 -18 332 -32 491 -38 l151
-6 45 42 c25 22 49 41 54 41 13 0 130 114 183 178 24 28 50 52 57 52 7 0 14 5
16 11 2 7 23 7 68 0 36 -6 158 -11 271 -11 153 0 209 -3 217 -12 5 -7 16 -32
23 -56 16 -54 31 -62 116 -63 111 -2 171 23 208 86 9 15 26 17 120 16 61 -1
136 -4 168 -7 38 -5 57 -3 57 4 0 6 7 9 15 6 8 -4 26 1 39 9 26 17 196 238
196 255 0 6 3 12 8 14 4 2 32 41 62 88 73 113 79 122 87 140 4 8 23 32 42 53
20 21 43 51 51 65 8 15 21 31 28 35 6 4 12 14 12 21 0 8 15 29 33 49 105 115
123 137 133 170 4 9 10 17 15 17 5 0 9 4 9 10 0 10 37 69 69 112 12 14 21 31
21 37 0 6 3 11 8 11 7 0 28 37 46 80 9 19 29 54 42 71 18 24 37 96 31 121 -3
12 -1 97 4 188 9 155 10 184 9 228 0 9 2 60 4 112 1 52 6 354 10 670 3 316 11
602 16 635 5 33 10 383 11 785 2 669 8 926 25 1039 4 27 2 51 -6 66 -8 15 -10
36 -5 57 4 18 10 355 14 748 4 393 11 819 14 945 13 451 19 972 13 1001 -11
51 -31 54 -537 64 -255 5 -563 12 -684 15 -121 2 -438 7 -705 10 -267 3 -559
9 -650 14 -91 5 -496 10 -900 11 -404 1 -764 5 -800 9 -88 11 -334 11 -450 0z
m802 -81 c10 -4 284 -9 610 -10 326 -1 694 -4 818 -5 636 -10 1444 -24 1755
-31 193 -4 404 -8 470 -7 76 1 104 -1 75 -5 -60 -10 -340 -80 -444 -111 -16
-5 -45 -9 -65 -9 -20 -1 -47 -7 -61 -15 -14 -8 -43 -14 -65 -15 -23 0 -45 -4
-50 -9 -11 -10 -125 -19 -125 -10 0 4 -150 7 -332 8 -707 4 -1778 21 -1878 31
-58 5 -294 9 -525 9 -473 1 -1232 16 -1493 31 -95 6 -271 10 -392 10 -120 0
-221 3 -223 8 -3 4 7 7 21 8 54 2 284 24 291 28 3 2 51 9 106 15 160 18 198
21 237 21 21 -1 55 4 77 10 21 5 87 14 147 20 221 20 239 22 259 30 11 5 34
11 50 13 57 7 720 -6 737 -15z m3840 -110 c11 -29 -10 -1036 -22 -1057 -14
-27 -14 -50 -16 -1081 0 -465 -4 -915 -7 -1000 -6 -144 -15 -970 -18 -1640 -1
-157 -6 -293 -11 -302 -11 -23 -18 -208 -25 -653 -10 -661 -13 -748 -27 -765
-7 -8 -26 -37 -42 -65 -16 -27 -34 -59 -41 -70 -7 -11 -18 -31 -25 -45 -7 -14
-21 -34 -31 -45 -20 -21 -97 -140 -97 -149 0 -6 -7 -14 -79 -99 -23 -27 -41
-52 -41 -57 0 -4 -24 -39 -53 -76 -47 -60 -74 -100 -122 -175 -87 -139 -256
-369 -271 -369 -8 0 -15 24 -19 64 -8 75 1 831 15 1191 5 138 12 531 15 875 3
344 10 690 15 770 5 80 14 496 20 925 14 1050 18 1223 30 1244 6 12 8 188 7
480 -2 254 -1 464 2 467 3 3 7 269 8 592 2 422 6 594 14 615 8 18 10 62 6 127
-6 115 -3 120 77 131 97 13 170 29 180 39 5 5 20 10 32 10 11 0 57 11 100 25
43 14 89 25 102 25 13 0 38 6 55 14 18 8 46 16 62 19 17 3 62 14 100 25 85 24
102 26 107 10z m-5872 -349 c63 -6 295 -14 515 -18 l400 -8 -280 -1 c-155 -1
-375 3 -490 10 -116 7 -237 11 -270 10 -33 -1 -112 -1 -176 -1 l-117 0 -7
-293 c-4 -161 -2 -590 4 -953 6 -363 11 -1172 11 -1797 0 -626 3 -1138 8
-1138 4 0 8 38 8 84 1 60 6 90 18 107 9 13 16 30 16 39 0 20 21 93 25 88 2 -2
-3 -30 -12 -63 -23 -92 -30 -141 -38 -252 -4 -57 -12 -103 -17 -103 -6 0 -8
-46 -6 -120 1 -66 0 -120 -4 -120 -5 0 -8 570 -8 1268 0 697 -5 1616 -11 2042
-6 444 -7 869 -2 995 l8 220 122 0 c67 0 125 3 129 8 10 9 37 9 174 -4z m4945
-80 c8 -8 12 -209 12 -659 1 -283 -16 -2415 -20 -2535 -1 -22 -5 -256 -9 -520
-4 -264 -12 -547 -17 -630 -6 -82 -11 -465 -12 -849 l-1 -700 -39 -40 c-48
-48 -52 -38 -5 14 l33 37 2 699 c1 384 6 769 12 854 5 85 13 364 17 620 4 256
8 488 9 515 7 157 17 2490 13 2805 l-5 375 -820 2 c-451 2 -827 6 -835 9 -8 3
-70 5 -137 4 -66 0 -123 3 -126 7 -7 11 1916 3 1928 -8z m-758 -105 c189 -5
233 -9 237 -21 3 -8 1 -11 -4 -8 -6 4 -312 10 -682 15 -421 5 -674 12 -681 19
-10 10 648 7 1130 -5z m-3216 -76 c72 -83 76 -84 494 -108 88 -5 198 -14 245
-20 101 -12 1182 -40 1561 -40 283 0 419 14 463 47 12 9 36 40 52 67 l30 50
289 -3 c160 -2 382 -6 495 -10 l205 -6 -2 -40 c-1 -22 2 -170 7 -329 5 -159 8
-292 5 -294 -10 -10 -45 32 -45 54 0 15 -11 30 -27 41 -23 15 -50 18 -168 18
-159 0 -221 -14 -236 -52 -8 -22 -14 -23 -100 -23 -115 0 -169 -14 -169 -45 0
-20 -7 -23 -67 -29 -38 -4 -93 -13 -123 -20 -44 -10 -56 -17 -58 -35 -3 -21
-2 -21 80 -16 46 3 95 8 110 10 43 7 178 -19 178 -34 0 -16 -178 -34 -257 -26
-43 4 -102 8 -132 9 l-54 1 -18 -88 c-10 -48 -21 -93 -25 -98 -3 -6 -10 -38
-15 -72 -15 -101 -20 -131 -26 -147 -4 -8 -5 -19 -4 -23 0 -4 -4 -17 -10 -28
-31 -59 -51 -210 -29 -224 6 -3 10 -31 10 -61 0 -59 -7 -64 -57 -42 -37 17
-51 36 -45 64 6 32 -35 47 -108 41 -53 -4 -142 7 -186 23 -18 7 -22 21 -32
122 -7 63 -12 152 -12 199 0 67 -4 90 -20 114 -11 17 -20 42 -20 56 0 35 -27
98 -53 127 -19 20 -29 22 -124 22 -95 0 -165 10 -220 31 -18 7 -23 17 -23 42
0 77 -13 157 -26 157 -32 0 -46 -32 -44 -104 3 -92 2 -96 -11 -96 -7 0 -17 -6
-23 -14 -7 -8 -40 -16 -83 -19 -71 -6 -73 -5 -99 26 -14 17 -30 41 -35 54 -5
13 -13 23 -19 23 -5 0 -10 6 -10 13 0 16 -105 126 -173 181 -26 21 -44 43 -40
49 4 7 65 8 187 3 236 -10 257 -9 281 14 17 15 33 18 97 16 43 -2 83 -8 90
-14 8 -6 103 -9 263 -8 138 0 293 -1 345 -4 89 -6 97 -4 123 17 36 29 42 29
75 -4 l27 -28 362 -4 c332 -3 363 -2 369 14 4 9 2 21 -3 26 -5 5 -158 13 -355
17 -312 6 -348 9 -366 25 -32 29 -86 33 -126 9 -32 -19 -52 -21 -218 -21 -263
-1 -488 7 -528 19 -19 5 -60 10 -91 10 -46 0 -61 -4 -84 -26 -26 -24 -31 -25
-104 -18 -42 3 -171 7 -286 8 -173 1 -215 4 -240 17 -45 25 -121 47 -202 58
-189 28 -337 -1 -426 -83 -22 -21 -53 -38 -75 -42 -36 -7 -74 -26 -100 -51 -7
-7 -25 -13 -40 -13 -32 0 -120 -26 -137 -40 -6 -5 -44 -23 -82 -39 -39 -16
-99 -48 -133 -70 -34 -23 -64 -41 -68 -41 -8 0 -98 -86 -127 -121 -117 -143
-168 -290 -163 -477 3 -107 3 -107 28 -107 23 0 25 4 32 60 3 33 11 73 17 88
6 16 11 42 11 58 0 17 6 42 14 57 7 15 16 43 20 62 8 46 70 169 102 203 13 14
24 29 24 32 0 18 144 147 204 183 68 41 83 46 118 43 16 -2 65 16 110 40 31
16 180 21 248 9 36 -7 95 -17 132 -24 36 -6 70 -14 74 -18 4 -5 17 -8 29 -8
13 0 28 -7 35 -15 7 -8 23 -15 36 -15 12 0 26 -4 29 -10 3 -5 23 -17 43 -27
20 -9 42 -22 47 -29 6 -6 33 -26 60 -44 55 -37 137 -116 176 -170 35 -48 79
-143 79 -168 0 -11 4 -31 9 -44 5 -13 12 -75 16 -138 5 -80 11 -120 21 -130
14 -13 17 -13 29 3 17 24 10 180 -11 249 -8 26 -14 57 -14 69 0 25 -36 96 -97
190 -66 102 -193 208 -323 270 -152 73 -198 88 -274 89 -59 0 -116 19 -116 38
0 11 21 12 103 9 182 -7 333 -44 414 -100 22 -15 42 -27 46 -27 21 0 153 -99
192 -143 140 -159 208 -315 220 -506 6 -97 18 -135 38 -128 8 2 13 38 15 106
2 93 0 111 -29 194 -17 51 -44 119 -59 152 -48 101 -155 233 -230 281 -25 16
-53 38 -63 49 -25 27 -106 74 -202 116 -41 18 -173 48 -262 60 -51 7 -93 16
-93 20 0 3 29 16 65 28 115 37 342 25 449 -25 28 -13 61 -24 72 -24 12 0 27
-7 34 -15 7 -8 20 -15 29 -15 19 0 82 -50 126 -99 16 -19 47 -53 68 -75 20
-22 37 -45 37 -51 0 -6 13 -26 29 -46 42 -50 81 -124 81 -151 0 -13 4 -28 9
-33 10 -11 22 -49 52 -165 13 -52 19 -110 19 -188 0 -62 4 -122 10 -132 7 -14
6 -23 -6 -34 -20 -20 -163 -23 -183 -3 -9 9 -66 12 -215 12 -179 0 -204 2
-220 18 -10 10 -33 17 -54 17 -21 0 -49 -8 -62 -17 -37 -27 -266 -32 -304 -8
-19 12 -35 15 -58 10 -18 -4 -103 -10 -188 -14 -141 -7 -158 -6 -182 11 -34
22 -106 24 -114 3 -5 -12 -28 -15 -122 -15 -100 0 -118 3 -136 19 -38 36 -70
36 -109 2 -32 -28 -41 -31 -103 -31 -38 1 -113 5 -168 10 -93 8 -200 -3 -235
-25 -33 -20 5 -55 58 -55 36 0 39 -5 52 -77 20 -114 22 -154 9 -178 -7 -13
-10 -36 -7 -52 21 -102 26 -134 26 -181 1 -65 18 -137 37 -153 20 -17 17 -32
-9 -45 -12 -6 -35 -18 -52 -26 -123 -64 -155 -73 -257 -70 l-99 2 3 -26 c7
-59 131 -84 213 -44 22 11 72 38 110 59 39 22 88 49 110 61 64 33 81 49 70 64
-51 68 -50 65 -48 184 1 96 -2 121 -18 149 -19 34 -19 35 2 64 17 25 19 35 11
52 -6 12 -13 42 -16 67 -2 25 -8 69 -12 98 l-7 52 141 0 140 0 5 -57 c3 -32
10 -82 17 -110 11 -46 10 -56 -4 -78 -15 -22 -23 -25 -76 -25 -62 0 -75 -8
-65 -40 5 -17 15 -20 64 -20 83 0 91 -11 89 -135 -1 -55 3 -109 9 -120 5 -11
13 -33 17 -49 l7 -29 -69 6 c-85 7 -152 -1 -152 -19 0 -27 43 -44 111 -44 104
0 99 8 99 -149 1 -217 31 -901 41 -941 3 -11 -8 -16 -41 -20 -48 -6 -99 -29
-119 -54 -18 -22 -48 -20 -55 2 -4 10 -27 33 -51 50 -64 45 -126 45 -190 0
l-45 -32 -41 42 c-22 24 -53 45 -69 49 -17 3 -27 10 -24 18 3 6 -2 18 -11 25
-8 7 -15 25 -15 40 0 17 -10 37 -25 51 -13 13 -25 30 -25 37 0 7 -7 15 -15 18
-10 4 -15 20 -15 45 0 26 -4 39 -13 39 -17 0 -34 -263 -17 -268 15 -5 12 -20
-10 -42 -26 -26 -34 -25 -26 3 3 12 1 180 -5 372 -6 193 -12 676 -14 1075 -3
399 -7 997 -10 1330 l-5 605 22 29 23 28 559 -4 558 -5 49 -55z m889 27 c421
-3 860 -10 975 -15 116 -6 363 -10 551 -10 187 0 343 -3 347 -6 3 -3 -9 -21
-27 -38 -53 -54 -150 -61 -729 -52 -653 10 -1196 23 -1232 30 -16 3 -144 10
-284 16 -139 5 -258 14 -265 18 -6 5 -30 12 -54 15 -45 6 -113 36 -119 54 -3
8 7 8 34 2 21 -4 382 -11 803 -14z m2872 -729 c6 -22 15 -45 18 -51 22 -31 42
-127 36 -172 -4 -26 -6 -73 -6 -103 0 -51 -3 -59 -35 -88 -27 -27 -90 -62
-108 -62 -3 0 -8 53 -11 118 -9 144 -31 243 -62 277 -45 49 -61 22 -38 -63 9
-31 20 -95 25 -142 5 -47 11 -110 15 -140 7 -65 1 -73 -69 -88 -83 -17 -87
-14 -102 103 -12 92 -53 196 -100 257 -25 31 -41 59 -36 62 16 10 131 14 125
5 -13 -21 52 -6 112 26 38 21 79 35 99 35 19 0 35 3 35 8 0 4 10 12 23 17 12
6 26 20 31 31 14 31 34 18 48 -30z m-288 -16 c7 -7 7 -13 0 -20 -14 -14 -214
-29 -242 -19 -13 5 -39 9 -58 9 -19 0 -34 5 -34 10 0 6 0 13 0 18 -1 18 315
21 334 2z m-192 -167 c25 -29 67 -143 79 -213 6 -36 15 -81 20 -101 15 -60 11
-75 -28 -102 -66 -45 -182 -56 -440 -42 -117 6 -148 11 -175 28 -25 16 -29 22
-17 24 19 4 29 32 29 80 0 17 5 35 10 38 6 4 10 14 9 23 -1 10 1 24 4 32 7 20
17 67 22 107 5 42 23 104 34 122 6 9 15 11 27 6 11 -5 21 -9 24 -10 3 -1 12
-4 20 -8 47 -19 283 -8 325 15 39 21 39 21 57 1z m-1663 -19 c-6 -8 -20 -14
-30 -14 -11 0 -19 -5 -19 -10 0 -17 47 -30 149 -40 196 -20 251 -49 251 -132
1 -24 7 -70 15 -103 8 -33 15 -89 16 -125 2 -91 11 -124 33 -128 18 -4 19 1
12 74 -10 132 -44 306 -67 356 -25 53 -45 63 -159 82 -60 10 -65 13 -65 36 l0
25 140 -2 c188 -3 198 -6 218 -48 9 -20 17 -44 17 -54 0 -10 10 -40 22 -67 14
-32 23 -73 24 -119 5 -135 22 -286 34 -300 7 -8 10 -21 7 -28 -7 -20 -196 -32
-243 -17 -28 9 -44 9 -81 -4 -68 -23 -223 -22 -254 2 -13 10 -31 21 -39 24
-13 5 -16 28 -17 129 -1 68 -7 159 -14 201 -7 43 -10 81 -6 84 4 4 39 3 79 -2
l73 -9 7 -110 c14 -207 22 -257 40 -269 9 -5 20 -7 24 -3 4 4 0 67 -9 140 -9
72 -19 160 -23 195 -8 76 -13 79 -125 89 l-83 8 -9 35 c-4 19 -11 45 -14 58
-4 18 -1 22 16 22 30 0 26 18 -6 26 -40 10 -6 20 52 16 38 -3 44 -6 34 -18z
m2221 -324 c0 -107 -1 -110 -22 -110 -13 0 -38 -9 -56 -20 -49 -30 -62 -26
-62 19 0 45 -23 61 -60 41 -26 -14 -27 -76 -3 -118 17 -30 17 -31 -7 -54 -14
-14 -47 -40 -75 -58 -27 -19 -61 -46 -75 -60 l-25 -27 0 96 c0 53 4 102 8 109
12 17 -2 35 -23 29 -15 -4 -19 3 -22 34 -2 26 0 39 9 39 16 0 32 31 25 49 -3
8 0 11 6 7 6 -3 39 -7 72 -7 48 -1 68 4 91 20 15 12 33 21 38 21 24 0 118 49
140 74 14 14 28 26 33 26 4 0 8 -49 8 -110z m-1104 -120 c9 -9 56 -17 261 -41
117 -14 241 -3 335 28 l56 19 7 -64 c4 -35 5 -65 3 -66 -6 -6 -133 -44 -188
-58 -37 -9 -119 -13 -252 -12 -179 1 -198 -1 -198 -16 0 -13 16 -19 78 -28
139 -21 395 4 509 51 29 11 55 19 57 16 2 -2 7 -25 11 -50 l7 -46 -69 -6 c-37
-4 -88 -7 -113 -7 -28 0 -56 -8 -75 -20 -18 -12 -47 -20 -73 -20 -24 0 -52 -5
-62 -10 -10 -6 -54 -11 -97 -13 -69 -2 -82 1 -110 22 -18 13 -49 27 -70 30
-36 6 -38 8 -40 46 -1 22 -5 73 -9 112 -6 74 1 143 14 143 5 0 12 -4 18 -10z
m1114 -437 c-1 -372 -15 -1058 -25 -1178 -9 -116 -16 -491 -20 -1095 -5 -681
-12 -990 -24 -990 -3 0 -20 12 -37 28 -28 25 -30 31 -26 80 2 28 8 52 13 52 5
0 9 35 9 78 0 52 5 85 14 98 12 16 13 22 1 40 -8 13 -10 26 -4 35 5 8 9 55 9
106 0 76 -3 92 -16 95 -16 3 -23 88 -27 377 l-2 113 -34 27 c-29 22 -56 29
-190 48 -98 14 -210 22 -301 22 -116 1 -150 4 -168 17 -18 12 -20 19 -11 30 6
8 9 30 6 51 -9 71 -36 218 -47 258 -26 98 -33 122 -45 150 -7 17 -18 41 -23
55 -30 70 -83 240 -77 249 13 21 -97 111 -136 111 -60 0 -229 -112 -229 -152
0 -9 -20 -41 -45 -71 -25 -31 -45 -60 -45 -64 0 -5 -9 -27 -19 -49 -11 -22
-23 -54 -27 -70 -4 -16 -13 -38 -20 -49 -8 -11 -14 -32 -14 -47 0 -15 -4 -30
-10 -33 -5 -3 -10 -22 -10 -41 0 -20 -5 -45 -12 -57 -7 -12 -16 -53 -20 -92
-4 -38 -14 -106 -23 -150 -37 -187 -48 -253 -51 -310 -2 -33 -10 -80 -18 -105
-8 -27 -14 -93 -15 -168 -1 -104 1 -123 14 -129 29 -11 37 14 50 154 7 76 18
170 25 208 22 135 29 170 40 225 6 30 15 83 20 118 5 35 12 67 16 73 3 6 10
50 14 97 19 204 103 420 210 535 56 62 130 111 167 113 47 1 93 -51 93 -105 0
-25 5 -41 15 -45 9 -3 15 -18 15 -37 0 -37 12 -77 47 -164 14 -33 27 -75 29
-94 3 -19 8 -40 13 -45 5 -6 11 -64 14 -128 3 -64 9 -123 14 -130 10 -17 11
-33 12 -327 0 -140 5 -268 10 -285 22 -72 28 -127 18 -182 -11 -68 -2 -83 41
-65 17 7 38 20 48 30 41 37 92 71 107 71 13 0 16 -17 20 -92 3 -51 9 -111 13
-133 12 -54 -12 -102 -84 -163 -31 -26 -66 -57 -78 -69 -25 -25 -58 -30 -71
-10 -4 6 -10 68 -13 136 -5 132 -16 157 -44 102 -17 -32 -16 -145 2 -191 5
-14 8 -28 6 -31 -2 -4 3 -12 11 -19 19 -16 19 -74 0 -90 -8 -7 -15 -21 -15
-31 0 -23 -20 -21 -39 5 -12 16 -25 18 -122 14 l-107 -3 -5 30 c-3 16 -1 35 4
41 14 17 13 193 -1 209 -6 8 -10 40 -8 77 l3 63 50 -2 c191 -10 200 -9 203 13
3 18 -1 21 -22 17 -16 -3 -26 -1 -26 6 0 15 -139 15 -214 0 -43 -9 -60 -9 -69
0 -16 16 -159 14 -182 -3 -18 -13 -18 -14 6 -26 13 -8 67 -16 119 -19 l95 -6
-2 -184 c-2 -149 -5 -187 -18 -201 -13 -14 -31 -16 -123 -13 -164 6 -147 -15
-149 177 -1 158 -4 186 -22 186 -14 0 -31 -147 -25 -205 4 -34 2 -70 -7 -100
l-14 -46 -105 7 c-58 4 -109 9 -113 11 -5 3 -6 15 -3 27 10 31 19 255 11 274
-5 13 -10 11 -30 -13 -23 -28 -24 -38 -25 -146 0 -89 -3 -119 -14 -128 -9 -8
-57 -13 -123 -14 -88 -2 -108 -5 -108 -17 0 -12 18 -16 80 -21 44 -4 91 -12
105 -18 41 -20 60 -76 60 -174 l0 -87 -140 0 -140 0 0 98 c0 81 -4 101 -20
122 -18 23 -27 89 -15 102 3 3 6 99 6 214 l0 209 -32 10 c-18 6 -34 16 -37 23
-7 23 142 93 167 78 6 -4 11 -18 11 -32 0 -24 23 -33 45 -16 18 12 35 99 35
172 0 48 5 79 16 95 9 14 14 36 11 51 -2 14 3 67 13 117 10 50 16 97 13 103
-2 6 3 39 11 72 9 33 16 79 16 103 0 24 7 66 15 93 8 27 15 67 15 89 0 38 25
142 39 162 4 6 15 37 25 70 10 33 25 72 32 87 8 14 14 38 14 51 0 14 4 29 10
32 7 5 30 71 33 95 2 26 77 150 110 181 37 36 45 40 86 37 37 -2 48 -8 58 -28
24 -49 59 -84 77 -77 15 6 15 9 1 36 -8 17 -15 36 -15 43 0 7 -17 27 -37 45
-30 27 -45 33 -83 33 -62 0 -147 -36 -187 -80 -18 -19 -33 -39 -33 -43 0 -5
-13 -22 -29 -38 -16 -15 -39 -57 -51 -91 -12 -35 -30 -86 -40 -114 -10 -28
-25 -64 -33 -80 -8 -16 -20 -55 -27 -87 -8 -38 -17 -60 -28 -63 -10 -3 -25
-10 -34 -15 -10 -5 -54 -8 -99 -8 -77 1 -83 -1 -103 -26 -20 -24 -23 -26 -35
-11 -10 12 -11 23 -3 43 21 57 34 149 41 277 6 140 -5 279 -23 273 -24 -8
-125 -141 -138 -180 -11 -35 -17 -42 -38 -42 -23 0 -25 3 -22 35 2 19 8 40 13
46 6 7 0 15 -17 23 -15 6 -29 10 -31 7 -3 -2 -6 -39 -6 -80 -1 -42 -5 -76 -9
-76 -5 0 -8 -7 -8 -15 0 -8 4 -15 9 -15 9 0 -3 -80 -17 -108 -39 -75 -34 -210
9 -243 30 -23 65 -24 73 -3 3 9 6 49 6 90 0 41 4 82 8 92 5 9 16 32 25 50 9
19 17 44 17 57 0 13 4 26 9 30 5 3 12 19 16 35 4 17 10 30 15 30 4 0 11 12 14
26 11 42 15 23 6 -26 -5 -25 -11 -58 -14 -75 -7 -41 -14 -100 -26 -230 -6 -60
-15 -114 -20 -119 -18 -18 -12 -66 8 -67 11 0 12 -2 4 -6 -7 -3 -27 -18 -45
-34 -18 -16 -50 -39 -72 -50 -22 -11 -51 -32 -65 -47 -14 -15 -38 -34 -55 -42
-16 -8 -37 -21 -45 -29 -13 -13 -15 -10 -18 22 -4 42 23 147 38 147 5 0 14 26
20 58 7 31 17 60 22 63 12 7 25 100 34 234 7 106 -9 160 -51 171 -30 7 -32 20
-6 27 11 2 24 20 31 43 6 22 22 62 35 89 13 28 33 70 44 95 13 30 20 38 21 25
l1 -20 9 20 c5 11 9 48 9 83 l1 62 -27 -6 c-39 -9 -37 -7 -72 -79 -18 -36 -36
-65 -41 -65 -5 0 -24 14 -42 30 -30 28 -38 30 -105 30 -40 0 -81 -4 -91 -9 -9
-5 -60 -30 -112 -56 -52 -25 -112 -56 -132 -68 -21 -11 -41 -17 -45 -14 -8 9
19 30 72 57 22 12 51 30 65 40 25 19 25 20 3 20 -12 0 -25 -5 -29 -11 -3 -6
-21 -17 -38 -24 -17 -7 -58 -29 -90 -49 -33 -20 -68 -36 -77 -36 -9 0 -36 -16
-59 -35 -24 -20 -53 -35 -68 -35 -15 0 -35 -7 -46 -15 -13 -10 -25 -11 -44 -4
-20 8 -31 6 -51 -9 -25 -18 -26 -24 -34 -168 -4 -82 -12 -161 -18 -177 -15
-35 -59 -67 -93 -67 -25 0 -26 -3 -27 -52 0 -29 -3 -71 -7 -93 -6 -33 -12 -40
-30 -39 -15 0 -37 -16 -68 -53 -25 -29 -54 -53 -64 -53 -29 0 -41 30 -24 60
17 32 18 99 0 119 -7 9 -18 30 -23 46 -5 17 -25 40 -43 53 -24 16 -52 56 -93
134 -33 61 -74 123 -92 139 -49 43 -69 130 -71 304 -1 77 -3 147 -4 155 -1 8
-1 56 -1 105 1 91 -14 196 -20 145 -1 -14 -5 43 -9 125 -3 83 -6 150 -6 150 1
1 45 -1 99 -3 95 -4 98 -5 112 -32 10 -19 26 -31 47 -35 18 -4 44 -13 58 -20
135 -66 171 -73 375 -71 156 2 189 5 247 24 68 23 80 31 117 79 18 22 29 26
64 25 25 -1 58 6 80 17 35 18 54 19 232 14 141 -4 198 -3 208 6 11 8 33 9 83
1 38 -5 107 -10 153 -10 47 0 99 -5 117 -12 28 -10 36 -9 52 5 17 15 40 17
184 15 90 -1 168 1 174 4 5 4 58 8 118 9 110 3 109 3 134 -39 5 -7 32 -16 62
-21 29 -5 59 -16 65 -25 7 -9 21 -16 31 -16 18 0 19 10 18 168 0 105 -5 177
-12 195 -10 24 -9 35 9 73 16 36 19 56 14 99 -9 65 11 194 31 202 7 3 26 -4
41 -14 15 -11 35 -22 44 -26 13 -4 18 -24 23 -79 3 -40 9 -96 12 -124 4 -39 2
-53 -10 -63 -20 -17 -21 -51 -1 -77 19 -25 19 -58 -1 -97 -14 -25 -16 -51 -11
-136 3 -63 9 -107 16 -109 6 -2 11 -15 11 -28 0 -28 -30 -32 -70 -9 -36 21
-50 18 -50 -8 0 -62 60 -75 368 -84 208 -5 245 -4 260 9 12 11 51 17 127 22
153 9 162 12 198 62 18 23 61 62 96 85 35 23 75 54 90 67 14 14 50 43 79 64
52 40 67 68 36 68 -9 0 -27 -9 -41 -20 -14 -11 -28 -20 -32 -20 -3 0 -6 67 -6
150 0 141 1 149 20 155 35 9 78 52 72 69 -9 22 -44 20 -64 -4 -24 -27 -30 -25
-38 11 -8 35 14 199 27 199 4 0 8 29 8 64 0 64 0 65 45 104 25 22 45 45 45 51
0 6 5 11 10 11 7 0 10 -149 10 -427z m-211 155 c-7 -40 -11 -89 -10 -108 9
-126 11 -121 -46 -159 -29 -20 -54 -43 -57 -51 -2 -8 -2 62 1 155 6 168 6 170
32 192 14 12 31 22 37 23 6 0 19 9 30 21 25 28 28 12 13 -73z m-3953 58 c28
-20 211 -20 242 0 21 14 22 13 22 -23 1 -21 6 -65 13 -98 7 -33 13 -76 13 -95
-1 -34 -2 -35 -51 -43 -27 -4 -90 -5 -140 -2 -70 4 -94 2 -109 -10 -18 -13
-18 -16 -2 -40 16 -25 19 -25 141 -25 l125 0 11 -27 c6 -16 9 -60 6 -103 -6
-89 5 -179 22 -190 7 -4 -46 -7 -118 -6 -89 1 -134 5 -143 14 -6 6 -22 12 -34
12 -31 0 -35 20 -35 152 -1 62 -5 118 -11 125 -6 8 -6 19 1 32 8 14 9 70 5
170 -7 175 -3 189 42 157z m1924 -11 c23 -22 34 -24 128 -27 67 -2 105 1 110
8 10 16 99 28 107 15 4 -7 47 -9 127 -4 l121 6 -6 -123 c-6 -121 -6 -125 19
-157 l24 -32 -31 11 c-30 10 -138 6 -170 -7 -23 -9 -42 50 -38 123 4 100 0
120 -29 153 -22 25 -32 29 -55 24 l-27 -7 6 -117 c3 -64 7 -124 9 -133 3 -16
-6 -18 -66 -18 -39 0 -69 -4 -69 -10 0 -6 -27 -10 -60 -10 -33 0 -60 4 -60 10
0 6 -50 10 -130 10 -109 0 -130 -2 -130 -15 0 -10 -10 -15 -30 -15 -28 0 -30
3 -30 36 0 19 -4 43 -9 53 -6 10 -11 64 -13 122 l-3 104 105 -2 c75 -2 112 1
130 11 35 20 41 19 70 -9z m705 9 c17 -11 41 -14 84 -12 68 4 70 1 46 -55 -10
-24 -15 -70 -15 -137 l0 -100 -42 0 c-101 0 -109 12 -99 161 5 63 4 124 0 137
-10 26 -6 27 26 6z m-2103 -13 l113 2 5 -94 c3 -52 9 -101 13 -109 3 -8 0 -23
-7 -33 -11 -14 -35 -19 -112 -25 -76 -5 -99 -10 -101 -22 -6 -34 14 -43 109
-48 120 -6 119 -5 122 -167 1 -100 5 -125 19 -139 9 -10 17 -18 17 -19 0 -1
-63 -2 -140 -2 -77 0 -140 3 -140 8 0 4 -7 7 -16 7 -39 0 -45 24 -42 169 2 76
0 137 -4 134 -13 -7 -9 42 5 56 9 9 11 51 9 157 -3 142 -2 145 17 135 11 -6
70 -10 133 -10z m801 -1 c51 1 115 1 144 1 l51 -1 -1 -87 c-1 -49 2 -109 6
-135 l8 -46 -47 14 c-54 16 -210 19 -248 4 -20 -7 -26 -17 -26 -39 0 -28 3
-30 54 -41 30 -6 61 -10 68 -9 7 1 48 1 91 0 75 -1 78 -2 88 -28 6 -16 17 -40
25 -55 9 -16 14 -59 14 -115 l0 -88 -172 2 -173 3 5 87 c7 131 5 166 -8 171
-7 2 -12 10 -12 18 0 8 -4 14 -10 14 -5 0 -10 9 -10 20 0 11 5 20 11 20 7 0
10 43 9 133 -3 189 -4 180 20 167 12 -6 62 -11 113 -10z m-404 0 l148 0 7 -78
c3 -42 11 -93 16 -112 8 -28 7 -37 -5 -46 -8 -6 -15 -16 -15 -22 0 -8 -42 -12
-127 -14 -114 -3 -128 -5 -131 -21 -2 -10 4 -27 14 -38 15 -17 31 -19 131 -19
69 0 113 -4 113 -10 0 -5 7 -10 15 -10 13 0 15 -20 15 -124 0 -69 4 -135 9
-149 l9 -23 -64 8 c-35 5 -103 7 -151 6 -82 -3 -89 -1 -112 22 -25 24 -26 29
-24 142 2 94 -1 120 -13 133 -8 8 -12 15 -8 15 4 0 0 6 -10 13 -18 13 -18 14
2 33 11 10 23 30 27 44 5 24 -8 173 -21 234 -6 25 -4 28 10 23 10 -4 84 -7
165 -7z m2837 -112 c-19 -94 -26 -178 -18 -216 l9 -40 -66 -12 c-128 -24 -181
-86 -71 -84 30 1 76 5 103 9 51 8 61 -3 31 -36 -13 -14 -16 -45 -18 -158 -1
-173 0 -171 -117 -173 l-84 -1 3 94 c2 52 8 113 13 136 7 33 5 52 -7 83 -16
40 -16 42 5 71 20 27 21 39 19 171 l-3 143 -30 3 c-47 6 -55 -16 -55 -155 0
-68 -3 -123 -7 -124 -5 0 -33 -2 -63 -3 -61 -2 -115 -23 -115 -46 0 -15 24
-23 108 -35 48 -8 81 -39 72 -68 -4 -12 -9 -80 -12 -150 -4 -81 -10 -130 -17
-132 -6 -2 -48 -5 -93 -7 l-83 -3 0 117 c0 64 5 129 10 144 8 21 7 37 -5 66
-19 48 -19 53 3 74 15 15 17 34 14 149 -3 104 -1 132 10 132 59 3 165 27 187
41 28 19 31 20 74 8 17 -5 32 -4 41 3 7 6 16 8 19 5 3 -3 12 -2 19 2 7 4 26 7
43 5 17 -1 41 2 55 8 14 5 27 10 29 10 2 1 1 -14 -3 -31z m-679 -28 c27 -24
43 -30 78 -30 l45 0 0 -110 c0 -138 -3 -143 -82 -115 -48 16 -61 18 -78 8 -18
-12 -19 -11 -9 10 6 14 7 64 2 140 -10 145 -11 144 44 97z m-626 -230 c84 0
89 -1 74 -17 -14 -13 -16 -34 -13 -123 l3 -107 -65 1 c-36 1 -81 -2 -100 -6
l-35 -8 0 110 c0 74 4 113 13 121 6 7 12 24 12 39 1 22 2 23 11 8 8 -15 25
-18 100 -18z m272 14 c3 -3 1 -14 -5 -23 -7 -12 -6 -26 5 -52 11 -27 13 -63 9
-152 -5 -114 -5 -117 -28 -117 -25 0 -44 26 -44 58 0 11 -7 25 -15 32 -8 7
-12 16 -9 21 3 5 -3 6 -12 2 -12 -4 -15 -3 -10 5 5 8 2 10 -8 6 -14 -5 -16 5
-16 68 0 62 3 78 20 93 11 10 20 26 20 35 0 9 3 20 7 23 8 9 78 9 86 1z m1235
-138 l-3 -134 -44 -28 c-24 -15 -60 -44 -80 -63 -19 -20 -31 -30 -27 -22 5 7
8 52 7 100 -1 62 3 96 15 119 10 22 15 51 12 86 -3 50 -2 53 17 44 14 -6 31
-3 60 11 22 11 41 20 43 21 1 0 1 -60 0 -134z m-2193 109 c50 -3 114 -8 143
-12 49 -5 52 -7 37 -22 -17 -20 -20 -67 -5 -76 15 -9 12 -118 -4 -140 -12 -17
-23 -18 -137 -11 -70 4 -132 12 -142 19 -16 10 -19 28 -21 102 -2 50 -6 105
-11 124 -8 33 -7 33 21 28 16 -3 70 -8 119 -12z m1339 -85 c25 -7 57 -23 70
-35 22 -20 23 -27 15 -61 -4 -22 -9 -94 -9 -161 0 -75 -4 -123 -10 -123 -5 0
-10 5 -10 10 0 6 -28 10 -64 10 l-65 0 -7 48 c-4 26 -6 88 -5 137 2 50 3 121
3 158 1 65 2 67 18 49 10 -10 38 -25 64 -32z m-2285 -257 c9 -7 36 -13 61 -13
25 0 51 -4 58 -8 46 -30 -245 -61 -391 -42 -51 7 -97 16 -103 21 -6 5 -28 13
-50 18 -23 5 -30 9 -16 10 12 1 22 4 22 9 0 4 5 14 10 22 8 13 11 12 23 -4 11
-15 33 -21 108 -27 52 -5 105 -11 119 -14 30 -7 88 15 115 45 14 16 21 18 24
8 2 -7 11 -18 20 -25z m3395 -455 c-3 -216 -8 -400 -11 -408 -2 -8 -4 -76 -3
-152 0 -91 -3 -139 -10 -143 -6 -4 -9 -13 -6 -21 3 -7 1 -16 -5 -19 -5 -4 -7
-10 -4 -15 8 -13 7 -498 0 -510 -9 -15 6 -220 16 -226 12 -7 11 -82 -1 -86 -6
-2 -13 -232 -20 -618 -10 -623 -16 -783 -31 -810 -6 -10 -7 -5 -4 15 12 84 16
210 27 785 6 344 11 648 11 675 -4 246 0 827 7 980 5 105 9 285 9 401 1 273
12 544 22 544 4 0 6 -177 3 -392z m-2710 -196 c3 -9 16 -22 28 -27 17 -7 23
-18 23 -40 0 -26 -3 -30 -25 -27 -14 2 -35 10 -47 18 -12 8 -30 14 -40 14 -20
0 -106 -31 -113 -41 -3 -3 -15 -9 -27 -13 -13 -4 -23 -11 -23 -16 0 -4 -16
-11 -35 -14 -20 -4 -33 -11 -30 -17 4 -5 -7 -12 -24 -15 -17 -4 -36 -13 -42
-20 -15 -18 -36 -18 -46 0 -4 7 -15 16 -23 19 -12 4 -11 6 3 6 9 1 17 6 17 11
0 6 6 10 14 10 8 0 21 6 28 13 25 25 302 157 329 157 18 0 30 -6 33 -18z m-14
-165 c8 -7 21 -22 28 -35 11 -21 10 -22 -19 -22 -33 0 -119 -45 -119 -63 0 -6
-6 -3 -13 7 -12 16 -16 16 -62 -8 -57 -30 -83 -50 -108 -86 l-17 -24 -1 29 c0
17 -4 39 -8 50 -11 28 -3 45 23 45 11 0 46 15 77 34 57 34 99 55 154 73 40 14
48 14 65 0z m-398 -233 c7 -34 19 -68 26 -77 8 -10 11 -28 7 -49 -3 -18 1 -62
9 -98 9 -36 16 -83 16 -105 0 -22 7 -53 15 -69 16 -31 27 -166 13 -166 -14 0
-9 -44 7 -67 8 -12 25 -23 38 -25 12 -2 -21 -4 -74 -5 l-96 -1 -9 171 c-11
229 -8 455 8 547 12 69 13 72 20 40 4 -19 13 -62 20 -96z m448 91 c6 -8 14
-49 17 -92 7 -95 -19 -207 -71 -316 -18 -40 -37 -86 -40 -103 -4 -17 -13 -31
-21 -31 -25 0 -40 86 -40 237 l0 146 33 62 c54 101 93 132 122 97z m-226 -104
c-22 -53 -24 -76 -25 -203 0 -79 4 -156 10 -171 6 -16 11 -52 10 -80 l0 -52
-15 50 c-8 28 -18 73 -24 100 -5 28 -14 66 -20 85 -15 52 -13 180 5 214 8 15
15 33 15 39 0 9 58 77 66 77 1 0 -9 -27 -22 -59z m-1939 -65 c19 -18 35 -37
35 -42 0 -5 -12 -31 -25 -59 -14 -27 -25 -62 -25 -76 0 -35 -17 -47 -60 -43
-51 4 -81 -11 -117 -60 -46 -62 -63 -111 -63 -175 0 -32 -6 -65 -14 -76 -7
-11 -16 -40 -19 -65 -4 -25 -11 -76 -16 -115 -5 -38 -10 -127 -10 -197 -1
-110 -3 -128 -17 -128 -14 0 -15 25 -10 233 8 327 31 557 61 600 9 12 21 40
27 62 15 53 15 53 17 69 0 7 17 34 36 60 l36 46 65 0 c60 0 68 -2 99 -34z
m303 -30 l47 -44 -48 -70 c-26 -38 -47 -74 -47 -80 0 -7 -17 -12 -43 -12 -54
0 -74 -15 -86 -65 -5 -22 -17 -65 -26 -95 -9 -30 -20 -70 -25 -88 -4 -18 -13
-38 -18 -45 -13 -15 -42 -307 -42 -420 l0 -85 -30 -4 c-17 -3 -34 0 -38 6 -4
6 -6 81 -4 166 3 144 5 158 29 202 14 26 23 54 20 62 -3 9 -2 18 4 22 5 3 7
15 4 25 -4 11 -2 25 3 32 6 7 15 50 22 97 6 47 18 109 27 138 8 30 17 73 18
95 2 23 10 56 19 72 9 17 16 35 16 42 0 17 50 74 74 83 47 19 76 11 124 -34z
m355 -30 c48 -48 76 -99 102 -186 9 -30 20 -64 24 -75 19 -49 40 -123 46 -161
6 -40 5 -42 -45 -88 -29 -25 -56 -46 -61 -46 -20 0 -4 -174 22 -235 4 -11 16
-68 25 -127 22 -140 20 -143 -91 -133 -44 3 -123 10 -175 15 -103 8 -147 17
-156 31 -3 5 -17 9 -31 9 -23 0 -24 2 -12 16 15 18 31 237 29 397 -1 48 2 87
7 87 10 0 33 70 33 102 1 27 15 53 52 97 24 28 32 31 86 31 58 0 60 -1 103
-49 24 -27 51 -59 60 -72 9 -12 20 -19 27 -15 16 10 -3 51 -51 105 -54 63
-102 90 -159 91 -27 0 -48 5 -48 11 0 6 18 27 40 46 43 39 44 53 0 53 -41 0
-79 -51 -123 -165 -9 -22 -19 -50 -22 -62 -10 -37 -35 -28 -35 12 0 50 27 146
50 177 11 15 20 31 20 36 0 5 28 39 63 75 l63 67 56 0 c53 0 58 -3 101 -44z
m680 -291 c2 -190 14 -225 77 -225 39 0 40 1 30 23 -10 20 -10 21 4 4 9 -12
24 -17 42 -15 23 2 30 9 35 35 3 18 3 30 -2 28 -10 -7 -17 223 -8 265 4 16 2
27 -2 24 -15 -9 -10 6 9 26 21 23 18 47 28 -215 4 -124 9 -162 20 -168 35 -20
-5 -28 -137 -26 l-140 1 7 35 c9 47 -16 322 -32 354 -7 14 -20 31 -28 38 -9 8
-16 19 -16 25 0 6 4 5 9 -3 8 -12 15 -10 43 11 l33 25 13 -46 c9 -28 14 -104
15 -196z m1429 87 c-5 -1 -36 -23 -70 -47 -34 -25 -65 -45 -70 -45 -4 0 -14
-9 -22 -20 -8 -11 -20 -20 -27 -20 -6 0 -18 -8 -25 -17 -7 -10 -25 -24 -40
-32 -16 -8 -28 -18 -28 -23 0 -4 -7 -8 -15 -8 -7 0 -18 -6 -22 -12 -11 -17
-49 -38 -68 -38 -9 0 -13 -4 -10 -10 3 -5 -6 -12 -20 -16 -14 -3 -25 -9 -25
-14 0 -4 -18 -15 -40 -25 -22 -10 -40 -22 -40 -27 0 -4 -15 -8 -34 -8 -28 0
-36 -5 -50 -32 -8 -18 -16 -26 -16 -17 0 9 -9 24 -20 34 -20 18 -21 18 -48 -2
-19 -15 -27 -29 -27 -52 0 -17 -3 -31 -7 -31 -5 0 -8 -19 -9 -42 -1 -44 -3
-43 -13 4 l-6 27 -171 0 c-138 1 -173 4 -185 16 -17 17 -20 17 -51 9 -13 -4
-20 -11 -17 -16 4 -7 -42 -8 -137 -4 -192 7 -243 16 -247 40 -4 18 1 19 104
12 60 -3 246 -3 414 0 l305 7 34 34 c24 24 42 33 67 33 24 0 37 5 41 18 11 30
36 53 88 77 57 26 82 44 189 133 98 80 206 149 228 144 10 -2 33 8 50 22 l33
26 8 -38 c4 -20 4 -38 -1 -40z m-2809 -24 c2 -7 -1 -29 -8 -48 -7 -19 -15 -68
-19 -109 -3 -41 -13 -97 -20 -125 -15 -56 -42 -428 -32 -444 10 -16 -115 -35
-130 -20 -3 4 -1 52 5 108 6 55 11 132 11 171 0 38 7 102 16 141 9 38 13 83
10 99 -3 17 1 45 10 67 46 106 57 129 77 149 24 24 73 30 80 11z m1257 -286
c49 -17 -175 -22 -277 -6 l-32 5 32 30 c17 17 44 38 59 47 16 9 28 22 28 29 0
7 8 13 18 13 22 1 81 45 118 90 l29 34 8 -120 c4 -65 12 -121 17 -122z m3056
62 c40 -11 87 -15 178 -12 94 2 122 0 119 -9 -3 -7 -13 -15 -24 -18 -10 -4
-19 -13 -19 -21 0 -8 -5 -14 -11 -14 -6 0 -25 -12 -43 -27 -31 -26 -31 -26
-34 -5 -4 26 -11 27 -49 8 -15 -8 -48 -20 -73 -27 -25 -7 -48 -18 -52 -24 -4
-5 -8 15 -8 45 0 79 -8 102 -34 98 -17 -2 -20 -9 -18 -36 2 -18 -5 -50 -15
-70 -17 -36 -22 -39 -80 -50 -34 -7 -80 -12 -102 -12 -38 0 -39 0 -45 45 -4
25 -4 65 -1 90 6 39 9 43 25 35 30 -16 183 -12 206 5 24 18 16 18 80 -1z m304
-240 c-6 -65 -8 -143 -4 -172 6 -52 6 -52 -25 -63 -18 -6 -30 -13 -27 -16 2
-3 -11 -19 -31 -36 -53 -47 -55 -40 -57 170 -1 68 1 123 4 123 6 0 70 53 112
93 17 16 32 26 34 24 2 -2 0 -58 -6 -123z m-1930 71 c0 -52 -20 -135 -33 -135
-7 0 -25 -14 -41 -31 -39 -39 -48 -23 -40 69 7 68 7 69 53 100 25 17 49 31 54
32 4 0 7 -16 7 -35z m-172 -145 c-6 -36 -12 -74 -14 -85 -2 -11 -28 -34 -59
-52 l-55 -31 0 80 c0 75 2 81 27 102 46 36 98 65 104 58 4 -4 2 -36 -3 -72z
m-1561 26 c1 -1 3 -35 4 -75 3 -52 0 -76 -9 -79 -17 -5 -15 -37 3 -52 11 -9
15 -34 16 -89 0 -42 3 -107 8 -145 6 -52 4 -69 -6 -73 -16 -6 -17 -50 -2 -55
16 -5 25 -148 10 -148 -7 0 -9 -4 -6 -10 3 -5 1 -10 -4 -10 -18 0 -12 -18 13
-43 20 -21 24 -37 31 -129 5 -84 11 -110 26 -127 10 -11 19 -24 19 -30 0 -5 7
-12 16 -15 31 -12 44 -6 44 19 0 14 -4 25 -10 25 -5 0 -10 14 -10 30 0 29 2
30 45 30 l45 0 0 -39 c0 -55 15 -91 39 -91 17 0 20 8 23 61 l3 62 48 1 c31 1
47 -3 47 -11 0 -7 6 -13 13 -14 10 0 10 -2 0 -6 -26 -10 -8 -98 23 -110 22 -8
34 14 35 67 1 70 6 75 72 75 l57 0 2 -55 c0 -30 0 -63 -1 -74 -3 -42 38 -59
71 -29 14 12 18 31 18 76 l0 60 31 -7 c17 -3 47 -6 65 -6 l34 0 -1 -60 c-1
-69 11 -90 51 -90 34 0 40 14 40 90 0 63 6 70 62 70 27 0 30 -3 24 -22 -4 -13
-10 -53 -13 -90 l-6 -68 -151 6 c-83 4 -234 10 -336 13 -120 5 -195 12 -212
21 -22 10 -31 10 -42 1 -11 -10 -19 -9 -35 0 -17 11 -23 10 -39 -4 -24 -22
-75 -22 -95 1 -18 20 -23 53 -33 202 -4 52 -11 104 -18 115 -6 11 -14 58 -17
105 -17 206 -39 393 -47 404 -9 10 -32 234 -32 303 0 31 0 31 43 26 23 -3 43
-6 44 -7z m228 -9 c3 -12 5 -52 3 -87 l-3 -65 -70 0 -70 0 -3 88 -3 87 70 0
c65 0 71 -2 76 -23z m431 6 c13 -5 14 -18 9 -72 -11 -107 -6 -102 -88 -99
l-72 3 2 50 c0 28 3 61 5 75 3 23 0 25 -32 25 l-35 0 -3 -70 c-2 -40 -8 -73
-15 -77 -19 -12 -102 -9 -119 5 -12 9 -17 31 -18 87 -1 41 -2 79 -1 84 1 9
340 -1 367 -11z m296 -73 c-2 -41 -9 -81 -14 -87 -7 -9 -42 -13 -110 -13 l-99
0 3 83 3 82 80 6 c44 3 94 5 110 5 l30 -1 -3 -75z m2496 -47 c-1 -90 3 -134
12 -149 14 -23 8 -67 -13 -84 -55 -46 -157 -120 -165 -120 -18 0 -22 32 -22
190 l0 158 27 7 c15 3 30 10 33 15 5 7 123 110 127 110 1 0 1 -57 1 -127z
m-2227 -152 c-6 -11 -11 -42 -11 -70 0 -27 -5 -62 -11 -78 -10 -27 -29 -189
-32 -280 -1 -24 -6 -43 -10 -43 -4 0 -7 -56 -6 -126 1 -69 -2 -128 -5 -131
-10 -11 -7 -53 5 -53 5 0 8 -4 5 -9 -9 -14 42 -23 64 -11 25 13 27 27 35 175
3 66 12 163 20 215 8 52 17 152 21 223 5 109 9 129 24 137 28 15 29 13 23 -24
-5 -31 -2 -36 26 -51 21 -10 70 -18 147 -22 63 -3 111 -9 106 -12 -14 -9 -35
-186 -30 -259 1 -34 -1 -62 -6 -62 -4 0 -6 -6 -3 -13 4 -10 -16 -13 -88 -12
l-92 0 12 30 c7 17 15 91 18 167 7 151 6 152 -57 141 -32 -5 -45 -20 -50 -58
-1 -5 -5 -16 -9 -23 -5 -6 -7 -52 -6 -101 2 -84 -13 -151 -33 -151 -5 0 -8
-23 -8 -51 0 -36 6 -60 21 -81 14 -19 22 -46 23 -79 1 -45 -1 -49 -21 -49 -16
0 -23 -6 -23 -18 0 -22 -50 -72 -71 -72 -9 0 -24 -9 -34 -20 -10 -11 -24 -20
-31 -20 -7 0 -14 -4 -16 -8 -1 -5 -16 -12 -32 -16 -28 -7 -28 -7 -23 31 20
135 25 161 34 179 6 10 13 55 17 99 3 44 11 82 16 83 6 2 10 25 10 50 0 26 7
88 15 137 8 50 15 113 15 140 0 28 7 72 15 99 8 27 15 78 15 113 0 78 23 117
28 47 2 -24 -2 -52 -7 -63z m-993 -3 l-3 -63 -56 -3 c-72 -4 -89 11 -89 79 l0
49 75 0 76 0 -3 -62z m175 47 c34 -6 38 -9 33 -28 -3 -12 -6 -37 -6 -54 l0
-33 -69 0 -69 0 3 53 c1 28 3 58 4 65 1 13 4 13 104 -3z m247 -59 c0 -40 -4
-55 -16 -60 -20 -8 -73 -8 -113 0 -29 6 -31 9 -31 54 0 25 3 50 7 53 3 4 39 7
80 7 l73 0 0 -54z m270 17 c0 -17 -4 -43 -10 -57 -9 -25 -12 -26 -105 -26
l-95 0 0 53 c0 30 2 56 4 58 2 2 50 4 105 4 l101 0 0 -32z m2710 -17 c0 -8 -5
-18 -11 -21 -6 -4 -10 -43 -9 -98 1 -51 0 -99 -3 -107 -3 -8 -8 -27 -11 -42
-4 -17 -18 -34 -36 -43 -16 -8 -35 -24 -43 -35 -12 -17 -13 -6 -11 93 4 121
18 195 43 214 9 7 27 22 41 33 30 23 40 25 40 6z m-4648 -161 c8 -204 6 -208
-99 -202 -72 4 -113 21 -94 40 5 5 7 56 4 121 -3 69 -1 127 6 153 l12 42 72 3
c39 2 77 3 82 3 6 -1 13 -67 17 -160z m226 63 c24 -215 24 -221 2 -247 -18
-21 -31 -24 -96 -27 -75 -3 -76 -3 -69 19 10 28 10 63 -1 210 -10 134 -7 141
60 130 23 -4 36 -2 36 6 0 6 13 11 28 11 l28 0 12 -102z m-548 76 l55 -6 -2
-133 c-2 -161 -11 -180 -79 -169 -24 3 -51 1 -63 -5 -21 -12 -29 -3 -12 14 11
12 19 115 9 108 -5 -2 -8 11 -8 29 -1 18 -7 51 -15 73 -8 22 -15 55 -15 74 0
33 0 33 38 27 20 -4 62 -9 92 -12z m754 -20 c8 -20 8 -272 0 -301 -7 -27 -17
-30 -79 -25 l-50 4 -3 169 -4 169 65 0 c50 0 66 -4 71 -16z m276 -143 c0 -76
-3 -153 -6 -170 l-7 -32 -96 3 c-90 3 -96 4 -92 23 2 11 4 84 5 163 1 95 5
145 12 150 7 4 51 6 98 4 l86 -3 0 -138z m172 95 c4 -6 8 -41 8 -77 0 -36 3
-69 7 -73 4 -4 6 -21 5 -39 -2 -18 4 -49 12 -69 l16 -37 -28 -3 c-15 -2 -50
-2 -78 0 l-50 4 9 76 c5 42 6 112 4 154 -3 42 -3 78 -2 80 8 8 91 -5 97 -16z
m356 -22 c15 -4 15 -123 0 -125 -4 0 -24 -1 -43 -1 -64 0 -67 1 -61 18 3 8 2
13 -3 10 -13 -8 -21 19 -21 68 l0 43 58 -4 c31 -3 63 -6 70 -9z m412 -64 c0
-27 1 -53 2 -57 3 -11 -48 -19 -99 -14 l-43 3 0 59 0 59 70 0 70 0 0 -50z
m273 30 c3 -11 1 -20 -5 -20 -5 0 -8 -15 -7 -33 5 -59 -9 -63 -143 -50 l-48 5
0 43 c0 74 1 75 105 75 84 0 93 -2 98 -20z m2541 -22 c-4 -7 -7 -32 -5 -57 3
-73 -16 -191 -32 -204 -9 -7 -30 -23 -48 -37 -17 -14 -54 -46 -80 -73 l-49
-47 0 96 c0 101 21 195 50 224 8 9 33 29 55 45 22 16 49 37 59 47 22 20 62 25
50 6z m-3226 -134 c8 -2 12 -23 12 -58 0 -80 -4 -86 -60 -86 -57 0 -60 5 -60
96 l0 64 48 -6 c26 -3 53 -7 60 -10z m190 -71 l-3 -68 -50 -3 c-62 -4 -71 7
-67 81 l4 57 59 0 60 0 -3 -67z m209 51 c3 -9 0 -40 -6 -70 l-12 -54 -59 0
c-44 0 -59 4 -64 16 -9 23 -7 69 4 98 9 24 14 26 70 26 46 0 62 -4 67 -16z
m247 1 c8 -22 -12 -117 -27 -127 -6 -5 -25 -6 -41 -3 -16 3 -50 5 -75 5 l-47
0 3 58 c6 85 2 82 97 82 66 0 85 -3 90 -15z m-2153 -103 c1 -4 3 -49 3 -99 l2
-93 -27 0 c-14 0 -32 -7 -39 -16 -11 -13 -10 -18 7 -35 20 -20 62 -28 173 -33
30 -1 99 -6 153 -11 74 -6 104 -5 122 5 17 9 28 10 37 3 7 -6 65 -14 128 -17
63 -3 144 -11 180 -17 35 -5 74 -8 87 -4 12 3 85 1 160 -5 214 -16 238 -19
240 -38 6 -51 18 -84 39 -107 13 -14 24 -30 24 -35 0 -5 12 -18 26 -29 34 -26
94 -28 124 -3 21 17 27 17 61 5 43 -14 359 -33 574 -33 107 0 151 -4 188 -17
39 -14 52 -15 67 -5 11 7 27 12 35 12 23 0 95 24 95 32 0 3 23 23 50 43 28 21
66 58 85 83 24 31 35 39 35 27 0 -10 10 -29 22 -42 18 -19 32 -23 84 -23 35 0
98 -5 141 -12 58 -8 78 -8 81 0 5 16 22 15 41 -2 12 -11 53 -15 166 -16 83 -1
155 -2 162 -1 12 1 28 68 37 161 5 45 1 65 -19 109 -26 54 -26 72 -3 54 7 -6
46 -13 87 -16 66 -5 77 -9 97 -34 20 -24 23 -40 24 -105 l0 -77 -92 -3 -93 -3
-3 -30 c-1 -16 2 -36 6 -43 6 -9 84 -14 323 -17 304 -5 405 -13 367 -30 -10
-4 -15 -11 -12 -16 3 -5 -1 -9 -8 -9 -14 0 -42 -33 -39 -45 4 -12 -53 -50 -70
-47 -16 3 -99 -81 -99 -100 0 -6 -10 -19 -21 -29 -17 -14 -31 -17 -59 -13 -55
9 -208 -24 -246 -53 -17 -12 -34 -23 -39 -23 -4 0 -17 -10 -29 -22 -12 -13
-48 -45 -81 -73 -33 -27 -64 -56 -68 -62 -4 -7 -15 -13 -22 -13 -8 0 -15 -6
-15 -14 0 -7 -24 -34 -52 -59 -29 -25 -75 -68 -103 -96 -27 -28 -55 -51 -61
-51 -7 0 -14 -9 -17 -20 -3 -11 -13 -23 -23 -27 -10 -4 -29 -18 -41 -31 l-22
-24 -188 5 c-103 3 -195 8 -203 11 -15 6 -170 13 -760 36 -118 5 -249 13 -290
19 -41 5 -110 10 -152 11 -42 0 -89 5 -103 10 -30 12 -313 32 -510 36 -71 2
-139 8 -150 13 -11 6 -36 12 -55 14 -19 3 -8 3 25 1 33 -2 188 -7 346 -10
l285 -7 21 26 c11 15 25 27 29 27 13 0 200 195 220 229 10 17 22 31 26 31 33
0 -42 93 -90 111 -13 5 -57 9 -97 8 -40 -1 -79 2 -86 6 -17 11 -411 44 -524
45 -50 0 -106 5 -125 11 -19 5 -131 12 -248 15 -118 3 -220 8 -228 11 -8 3
-61 3 -117 1 -79 -4 -111 -10 -142 -26 -22 -12 -45 -22 -52 -22 -7 0 -13 -4
-13 -10 0 -5 -5 -10 -10 -10 -12 0 -70 -41 -156 -107 -29 -24 -57 -43 -61 -43
-12 -1 -89 -100 -104 -133 -10 -23 -10 -30 2 -41 15 -14 128 -31 313 -46 59
-5 111 -12 115 -16 9 -9 -416 5 -459 16 -19 5 -90 12 -157 16 -68 3 -123 10
-123 15 0 5 -26 9 -57 9 l-58 0 25 21 c14 11 34 24 45 29 11 6 27 14 35 19 8
5 26 14 40 21 27 12 65 33 123 68 21 12 42 22 48 22 5 0 27 11 49 25 22 14 44
25 50 25 5 0 33 15 62 34 29 18 70 39 91 45 20 7 37 16 37 20 0 4 18 14 40 21
22 7 40 17 40 22 0 4 7 8 15 8 9 0 34 12 58 27 23 15 67 41 97 57 30 16 57 32
60 36 3 4 52 32 110 61 58 30 107 57 108 61 2 5 10 8 17 8 21 0 45 29 45 56 0
17 -6 24 -19 24 -28 0 -153 -49 -176 -69 -11 -10 -45 -30 -75 -45 -30 -16 -63
-35 -72 -43 -9 -8 -43 -28 -75 -44 -32 -16 -69 -36 -83 -44 -14 -8 -33 -15
-42 -15 -10 0 -18 -4 -18 -8 0 -5 -16 -15 -35 -22 -20 -8 -41 -20 -47 -27 -6
-7 -19 -13 -29 -13 -11 0 -19 -4 -19 -9 0 -5 -10 -13 -22 -17 -13 -4 -25 -10
-28 -14 -7 -11 -204 -110 -219 -110 -7 0 -31 -11 -54 -24 -23 -13 -60 -33 -82
-46 -22 -12 -54 -32 -70 -45 -17 -12 -46 -26 -65 -30 -19 -4 -51 -20 -71 -36
-31 -25 -46 -29 -95 -29 l-59 0 45 25 c25 13 59 31 76 39 17 8 51 33 75 56 24
22 46 40 51 40 4 0 24 11 44 25 20 14 45 25 55 25 11 0 19 5 19 10 0 6 6 10
14 10 7 0 31 12 52 26 21 15 43 27 49 28 6 1 27 11 47 23 19 11 45 24 57 28
11 3 21 11 21 16 0 6 4 8 9 4 5 -3 15 1 23 8 19 18 66 48 126 79 30 16 60 35
68 43 8 8 32 19 54 25 21 6 40 14 42 18 2 4 26 18 53 31 28 13 57 28 65 33 8
4 30 16 48 25 25 13 32 23 32 46 0 29 0 30 -51 25 -28 -3 -54 -10 -58 -15 -3
-5 -18 -13 -34 -17 -15 -3 -35 -14 -45 -24 -10 -9 -51 -33 -92 -52 -41 -19
-76 -38 -78 -42 -2 -4 -29 -21 -60 -37 -105 -53 -187 -97 -267 -143 -221 -126
-394 -218 -411 -218 -5 0 -27 -16 -49 -36 -22 -19 -59 -44 -81 -54 -23 -11
-44 -26 -48 -35 -3 -8 -14 -15 -23 -15 -18 0 -53 -32 -53 -49 0 -5 11 -16 25
-25 19 -13 51 -16 150 -16 69 0 133 -4 143 -9 33 -18 179 -32 352 -36 348 -6
708 -26 1020 -55 58 -6 141 -10 185 -11 44 0 103 -4 130 -9 28 -5 207 -16 398
-25 192 -8 352 -17 356 -19 4 -3 95 -10 202 -16 107 -5 230 -15 274 -21 44 -6
240 -17 435 -25 195 -8 402 -18 460 -24 58 -5 197 -10 310 -11 190 -2 208 -1
251 19 25 12 54 30 64 42 10 11 24 20 32 20 7 0 13 7 13 15 0 8 3 15 8 15 7 0
52 40 149 131 23 21 45 39 50 39 4 0 39 32 78 70 38 39 74 70 80 70 14 1 75
57 75 70 0 5 5 10 10 10 6 0 43 34 82 75 39 41 77 75 83 75 6 0 42 29 80 66
68 63 124 112 209 183 30 24 26 19 -12 -18 -29 -28 -56 -51 -61 -51 -14 0 -23
-32 -12 -43 6 -6 44 -12 85 -15 64 -4 77 -2 82 12 4 10 18 16 40 16 25 0 42 9
67 35 27 27 42 35 71 35 20 0 36 5 36 10 0 6 7 10 15 10 8 0 15 6 15 13 0 14
40 37 65 37 8 0 15 7 15 15 0 8 6 15 13 15 7 0 21 9 30 21 10 11 21 19 23 16
7 -7 -82 -97 -96 -97 -8 0 -10 -3 -7 -7 4 -3 -6 -16 -22 -27 -51 -38 -231
-209 -226 -215 3 -3 -3 -10 -14 -15 -25 -14 -111 -94 -111 -104 0 -4 -12 -15
-28 -24 -15 -9 -54 -44 -85 -77 -32 -34 -63 -61 -68 -61 -5 0 -9 -6 -9 -14 0
-7 -13 -24 -29 -37 -97 -82 -131 -114 -131 -124 0 -6 -35 -42 -77 -81 -42 -38
-115 -106 -162 -151 -47 -46 -87 -83 -89 -83 -7 0 -32 -29 -32 -37 0 -5 -17
-16 -37 -23 -38 -15 -253 -17 -492 -5 -52 3 -176 7 -275 10 -250 8 -328 14
-320 27 4 6 3 8 -2 5 -14 -8 -748 29 -1069 54 -71 5 -190 14 -263 18 -77 5
-139 14 -147 21 -10 8 -87 16 -222 22 -215 9 -287 14 -653 43 -118 10 -271 20
-340 22 -68 2 -130 9 -137 14 -6 6 -72 14 -145 18 -312 19 -802 51 -913 61
-66 6 -158 10 -205 10 -47 0 -103 5 -125 11 -22 6 -56 13 -76 16 l-37 5 16 31
c16 34 67 87 83 87 5 0 9 7 9 15 0 8 6 15 14 15 7 0 30 11 50 25 20 14 42 25
47 25 6 0 22 9 36 20 14 11 36 20 49 20 13 0 24 4 24 10 0 5 11 12 25 16 14 3
25 10 25 15 0 5 7 9 15 9 8 0 15 4 15 9 0 5 17 15 38 21 20 7 54 23 74 36 21
13 42 24 48 24 18 0 73 31 89 51 9 11 26 21 39 24 25 4 125 56 130 68 2 4 10
7 17 7 18 0 75 33 75 43 0 5 5 5 10 2 6 -3 10 -1 10 4 0 6 6 11 14 11 7 0 42
15 77 33 221 115 265 137 276 137 7 0 13 4 13 9 0 5 14 12 30 16 17 4 30 10
30 15 0 4 8 10 18 14 9 3 31 15 47 26 48 32 118 67 147 74 14 3 40 17 57 32
16 14 34 25 38 26 18 1 51 17 58 27 10 16 35 13 35 -4 0 -15 37 -35 66 -35 25
0 28 30 5 54 -20 22 -22 32 -19 114 2 50 0 88 -3 86 -4 -2 -9 4 -11 14 -4 15
3 17 69 14 40 -2 74 -7 74 -10z m211 -12 l58 0 0 -100 0 -101 -67 6 c-123 11
-113 1 -113 114 l0 100 32 -10 c18 -5 59 -9 90 -9z m274 -22 c4 -13 6 -45 5
-73 -1 -27 3 -65 8 -83 l10 -33 -72 3 -72 3 2 45 c1 25 5 71 8 103 l7 57 49 0
c41 0 49 -3 55 -22z m176 16 l37 -6 3 -94 3 -94 -52 0 -52 0 -3 100 c-3 110
-7 105 64 94z m301 -13 c8 -8 12 -47 12 -117 l0 -105 -70 6 c-124 11 -113 -1
-117 126 l-3 111 83 -4 c46 -3 88 -10 95 -17z m229 0 c9 -8 34 -219 27 -225
-2 -2 -43 -1 -91 2 l-87 4 5 62 c9 100 9 130 0 155 l-8 23 73 -7 c41 -4 77
-10 81 -14z m3231 1 c3 -4 8 -48 12 -98 6 -75 5 -93 -8 -106 -9 -9 -13 -18
-10 -22 3 -3 -3 -9 -13 -13 -21 -8 -24 -11 -70 -64 l-32 -37 -6 97 c-8 121 10
180 70 222 42 30 50 33 57 21z m-2535 -107 c1 -33 -1 -65 -5 -70 -11 -14 -120
-6 -126 8 -2 7 -2 38 1 70 l5 58 61 -3 61 -3 3 -60z m237 0 c-1 -82 -4 -85
-90 -85 l-75 0 0 70 0 71 83 -3 82 -3 0 -50z m559 40 c-11 -27 54 -55 127 -55
62 0 68 -2 85 -27 13 -19 21 -53 24 -106 l5 -77 -101 0 -101 0 -6 75 c-4 56
-10 80 -26 96 -11 13 -23 30 -26 39 -5 17 10 70 19 70 3 0 3 -7 0 -15z m1166
-89 c13 -17 29 -145 18 -152 -4 -3 -8 -20 -8 -37 l0 -32 -115 -1 -115 -1 0 87
c0 74 -3 91 -21 115 -14 17 -18 29 -12 33 21 13 241 2 253 -12z m110 16 c0
-11 98 -32 151 -32 25 0 50 5 57 12 21 21 26 -1 27 -110 0 -96 -2 -107 -17
-106 -10 0 -66 1 -124 2 -97 2 -106 4 -99 20 12 28 18 110 10 129 -5 10 -7 21
-7 26 1 4 -3 7 -9 7 -5 0 -7 5 -3 11 3 6 1 15 -6 19 -7 4 -9 13 -6 19 8 13 26
15 26 3z m1120 -436 l-5 -94 -79 -78 c-74 -74 -225 -247 -250 -286 -6 -10 -14
-18 -18 -18 -8 0 -178 -168 -178 -176 0 -9 -101 -104 -110 -104 -6 0 -10 -4
-10 -9 0 -5 -17 -26 -37 -48 -21 -21 -108 -111 -194 -200 -86 -89 -154 -164
-151 -167 3 -3 -1 -6 -9 -6 -9 0 -30 -20 -49 -45 -19 -25 -37 -45 -41 -45 -14
0 -119 -102 -119 -116 0 -8 -7 -14 -15 -14 -8 0 -15 -4 -15 -10 0 -5 -11 -17
-25 -26 -23 -15 -27 -14 -89 20 -71 40 -88 56 -58 56 11 0 23 7 26 16 3 8 11
12 16 9 12 -7 75 41 132 101 135 143 248 254 257 254 6 0 11 7 11 15 0 9 26
42 58 74 31 32 108 111 169 175 62 64 117 116 123 116 5 0 10 4 10 9 0 13 197
211 209 211 6 0 14 6 18 14 15 25 112 126 122 126 5 0 13 9 16 20 3 11 13 20
21 20 8 0 14 4 14 8 0 4 30 40 68 79 114 120 161 173 172 193 6 11 12 20 13
20 1 0 0 -42 -3 -94z m-4540 -167 c20 -5 135 -14 255 -19 121 -6 238 -15 260
-20 22 -5 84 -10 137 -10 99 0 128 -5 128 -22 0 -12 -131 -143 -183 -182 l-37
-29 -198 18 c-108 9 -235 21 -282 26 -47 4 -188 11 -315 14 -126 3 -282 12
-345 20 -63 8 -171 16 -240 18 -140 4 -161 16 -93 52 21 11 51 32 66 47 16 16
33 28 38 28 5 0 33 18 62 41 l51 41 331 -7 c181 -4 346 -11 365 -16z m3160
-94 c-7 -8 -17 -15 -22 -15 -13 0 -61 -41 -163 -139 -44 -42 -96 -89 -115
-105 -19 -16 -73 -65 -120 -110 -105 -99 -115 -105 -192 -113 l-61 -6 28 31
c16 18 33 32 38 32 5 0 19 10 31 23 12 12 73 69 135 127 63 58 121 112 130
120 9 8 32 26 51 40 19 13 39 30 43 37 11 18 87 68 122 81 17 6 47 11 69 11
33 1 37 -1 26 -14z m1341 -53 c-6 -2 -11 -10 -11 -18 0 -8 -7 -14 -16 -14 -9
0 -14 -6 -11 -12 2 -7 -23 -39 -55 -70 -32 -32 -55 -58 -51 -59 5 0 -1 -4 -12
-8 -11 -5 -20 -12 -20 -17 0 -11 -27 -45 -72 -92 -18 -19 -33 -38 -33 -43 0
-5 -7 -9 -15 -9 -8 0 -14 -4 -13 -8 2 -4 -8 -20 -22 -34 -14 -15 -36 -42 -50
-62 -14 -19 -30 -36 -36 -36 -7 0 -18 -10 -27 -22 -16 -24 -155 -168 -162
-168 -6 0 -169 -170 -173 -181 -2 -5 -10 -9 -18 -9 -9 0 -13 -4 -10 -8 6 -10
-67 -82 -83 -82 -6 0 -11 -5 -11 -10 0 -6 -27 -38 -60 -72 -33 -35 -60 -66
-60 -70 0 -5 -5 -8 -12 -8 -11 0 -168 -154 -168 -165 0 -3 -20 -26 -45 -53
l-45 -47 11 38 c6 21 9 50 7 65 -2 20 3 30 19 37 12 5 27 20 34 32 7 13 16 23
21 23 4 0 8 6 8 14 0 7 19 31 43 51 83 74 143 133 187 183 24 29 50 52 56 52
7 0 14 4 16 9 7 18 116 129 122 124 3 -4 6 0 6 7 0 13 126 139 139 140 3 1 34
36 69 78 81 100 138 162 149 162 4 0 25 16 46 35 21 19 41 35 45 35 4 0 16 14
27 30 11 16 25 30 30 30 6 0 19 12 30 27 11 15 30 38 43 51 12 13 22 26 22 30
0 4 23 27 50 51 28 24 50 49 50 57 0 7 8 18 18 23 10 5 24 22 32 37 l15 28 3
-34 c2 -19 -1 -36 -7 -38z m-5311 -97 c85 -8 200 -19 255 -24 97 -10 394 -28
605 -37 290 -11 479 -30 498 -48 11 -11 -413 6 -643 26 -126 11 -318 24 -425
28 -107 5 -231 14 -275 19 -44 5 -116 12 -160 15 -44 3 -82 5 -84 5 -3 1 4 8
15 16 23 18 22 18 214 0z m-1960 -499 c0 -8 -14 -18 -32 -21 -18 -4 -36 -12
-39 -17 -3 -5 -23 -11 -45 -14 -36 -5 -48 -9 -106 -33 -13 -6 -32 -11 -43 -13
-15 -2 -21 -12 -23 -41 -6 -74 16 -80 348 -93 96 -3 183 -10 192 -15 9 -5 61
-9 115 -9 54 -1 118 -5 143 -11 25 -6 151 -16 280 -24 129 -7 291 -19 360 -25
69 -6 190 -15 270 -20 80 -4 179 -13 220 -19 41 -6 188 -15 325 -21 138 -5
268 -14 290 -19 22 -5 84 -12 137 -14 53 -3 101 -7 105 -10 13 -8 132 -18 313
-27 85 -4 169 -11 185 -14 17 -3 104 -8 195 -10 91 -3 269 -14 395 -25 127
-11 284 -22 350 -25 127 -6 269 -17 555 -40 96 -8 247 -20 335 -26 528 -35
680 -48 720 -61 17 -6 95 -14 175 -19 80 -5 149 -9 154 -9 8 -1 6 -23 -12
-156 l-7 -50 -130 3 c-186 3 -429 17 -442 25 -6 4 -73 11 -149 17 -77 5 -229
16 -339 24 -110 8 -255 18 -322 22 -68 3 -121 9 -119 13 2 3 -17 6 -42 6 -26
0 -112 6 -192 14 -167 15 -346 27 -542 37 -77 4 -138 11 -138 17 0 5 -9 7 -20
4 -11 -3 -20 -1 -20 4 0 5 -35 9 -77 9 -43 0 -129 7 -191 15 -63 8 -155 15
-206 14 -51 0 -135 4 -187 10 -125 14 -315 31 -474 42 -310 22 -407 28 -527
35 -70 4 -126 10 -124 13 2 3 -10 7 -27 7 -18 1 -97 7 -177 13 -80 6 -224 16
-320 21 -96 5 -206 14 -245 19 -38 6 -104 10 -145 11 -41 0 -110 7 -153 15
-43 8 -119 15 -167 15 -49 0 -91 4 -94 9 -3 5 -38 9 -78 10 -40 1 -120 6 -178
12 -58 5 -148 12 -200 15 -138 7 -143 9 -138 44 2 16 1 27 -4 24 -8 -5 -11 51
-8 160 2 66 22 105 56 106 22 0 110 32 156 56 14 8 38 14 52 14 14 0 26 5 26
10 0 6 7 10 15 10 8 0 15 -6 15 -14z m315 -77 c105 -5 244 -13 310 -19 66 -5
201 -16 300 -25 284 -23 413 -34 506 -45 48 -5 124 -10 170 -10 64 0 80 -3 71
-12 -16 -16 -15 -60 1 -77 10 -12 8 -13 -8 -7 -11 4 -85 12 -165 17 -80 5
-152 12 -160 15 -8 3 -98 10 -200 15 -102 5 -240 12 -307 16 -68 3 -123 10
-123 15 0 5 -12 8 -28 7 -15 -2 -32 0 -37 3 -6 3 -69 9 -140 13 -72 4 -147 11
-167 16 -20 5 -120 12 -222 15 -102 3 -198 9 -213 14 -25 7 -25 8 -5 9 12 1
30 5 40 10 9 5 44 17 77 26 33 9 65 18 70 20 6 2 17 1 25 -2 8 -3 101 -10 205
-14z m6930 -10 c33 1 80 3 105 4 l45 2 3 -268 2 -267 -127 5 c-71 3 -164 10
-208 15 -69 8 -526 24 -697 25 -31 0 -56 1 -55 2 62 75 285 303 371 378 25 22
45 43 46 48 0 4 14 20 31 35 l30 27 197 -4 c108 -2 224 -3 257 -2z m-5085
-139 c58 -6 125 -10 150 -9 63 4 230 -11 230 -21 0 -13 148 -29 275 -29 152
-1 508 -17 645 -30 58 -5 173 -15 255 -21 83 -6 188 -16 235 -21 47 -5 182
-12 300 -15 118 -2 252 -10 298 -16 73 -9 232 -21 452 -33 36 -2 72 -6 80 -9
8 -2 158 -12 334 -21 314 -16 319 -17 345 -41 14 -13 41 -37 59 -52 l32 -27
-157 3 c-197 3 -344 12 -339 20 2 4 -19 7 -47 7 -121 1 -563 29 -1027 66 -80
6 -185 14 -235 16 -49 3 -94 9 -100 13 -5 5 -64 9 -129 9 -66 1 -138 6 -160
11 -23 5 -120 14 -216 20 -96 6 -209 16 -250 21 -125 17 -270 28 -375 29 -55
0 -131 7 -170 15 -38 8 -111 15 -162 15 -51 0 -114 4 -140 9 -26 6 -140 15
-253 21 -113 5 -215 13 -227 16 -20 6 -21 8 -7 22 9 8 14 25 12 36 -4 20 -2
21 91 14 53 -3 143 -11 201 -18z"/>
<path d="M3821 8241 c-12 -8 -13 -35 -3 -188 7 -98 12 -197 12 -220 0 -46 -19
-73 -52 -73 -11 0 -39 -9 -62 -19 -23 -11 -68 -32 -101 -46 -206 -92 -410
-193 -436 -218 -26 -24 -11 -36 24 -19 12 5 40 18 62 27 22 9 63 27 90 40 28
13 86 40 130 60 44 21 106 50 138 66 31 15 74 31 95 35 20 4 62 19 93 34 l57
28 158 -9 c88 -6 200 -10 249 -10 50 0 141 -2 204 -5 115 -5 130 -2 131 33 0
24 -185 47 -221 27 -45 -25 -472 -11 -504 16 -8 7 -14 78 -18 212 -6 235 -10
252 -46 229z"/>
<path d="M6815 7617 c-24 -20 -26 -25 -16 -67 5 -25 12 -126 16 -225 7 -176
13 -205 42 -205 11 0 13 42 11 260 -2 193 -6 260 -15 260 -7 0 -24 -10 -38
-23z"/>
<path d="M3828 7419 c-16 -6 -28 -15 -28 -20 0 -5 -9 -9 -19 -9 -11 0 -23 -4
-26 -10 -3 -5 -15 -10 -26 -10 -10 0 -28 -4 -39 -10 -11 -5 -29 -14 -40 -20
-11 -5 -25 -10 -30 -10 -21 0 -173 -71 -178 -82 -2 -5 -12 -8 -22 -8 -10 0
-22 -4 -25 -10 -3 -5 -15 -10 -25 -10 -11 0 -29 -13 -42 -30 -12 -17 -31 -30
-44 -30 -14 0 -25 -9 -32 -27 -7 -18 -13 -178 -17 -423 -3 -217 -7 -460 -10
-540 -7 -183 9 -250 60 -250 20 0 21 3 16 43 -3 23 -3 260 0 527 6 522 16 655
49 645 10 -3 23 1 30 10 7 8 17 15 22 15 5 0 35 12 66 26 31 15 89 42 127 60
39 18 91 40 117 49 26 10 54 26 64 36 9 10 30 21 48 25 17 3 38 12 46 19 8 7
24 15 35 17 11 2 20 10 20 18 0 18 -58 23 -97 9z m-532 -306 c-9 -33 -16 -216
-22 -608 -3 -214 -8 -392 -11 -395 -8 -8 4 972 12 998 9 26 29 30 21 5z"/>
<path d="M4470 7267 c-68 -23 -131 -61 -157 -96 -15 -20 -40 -49 -55 -66 -46
-49 -102 -182 -88 -205 11 -18 40 -5 40 18 0 11 7 25 15 32 8 7 15 18 15 25 0
21 113 168 156 203 21 18 45 32 54 32 8 0 24 7 34 15 28 21 239 21 280 0 15
-8 35 -15 43 -15 61 0 197 -113 276 -227 31 -46 57 -123 57 -168 0 -19 15 -26
35 -19 24 10 10 85 -33 168 -38 73 -165 212 -212 233 -14 6 -50 22 -80 36 -87
40 -304 59 -380 34z"/>
<path d="M4504 6988 c-61 -35 -68 -41 -91 -73 -42 -61 -61 -102 -53 -115 12
-19 29 -3 75 70 25 39 49 64 73 76 48 23 130 29 176 14 55 -18 145 -106 173
-167 12 -29 27 -53 33 -53 21 0 21 29 -1 79 -25 59 -105 137 -172 170 -61 30
-158 29 -213 -1z"/>
<path d="M6847 4482 c-10 -11 -17 -35 -17 -58 0 -22 -4 -44 -9 -49 -10 -11
-27 -133 -41 -305 -5 -58 -14 -128 -20 -156 -14 -63 -9 -206 7 -211 7 -3 13
18 16 64 11 143 37 392 52 493 22 143 34 234 31 238 -2 1 -10 -6 -19 -16z"/>
<path d="M5990 3596 c0 -9 1 -17 3 -18 5 -4 334 -19 461 -21 99 -1 140 1 143
10 2 6 -4 14 -15 17 -21 7 -182 16 -429 23 -144 4 -163 3 -163 -11z"/>
</g>
</svg>
