<?xml version="1.0" standalone="no"?>
<!DOCTYPE svg PUBLIC "-//W3C//DTD SVG 20010904//EN"
 "http://www.w3.org/TR/2001/REC-SVG-20010904/DTD/svg10.dtd">
<svg version="1.0" xmlns="http://www.w3.org/2000/svg"
 width="983.000000pt" height="1125.000000pt" viewBox="0 0 983.000000 1125.000000"
 preserveAspectRatio="xMidYMid meet">
<metadata>
Created by potrace 1.16, written by Peter Selinger 2001-2019
</metadata>
<g transform="translate(0.000000,1125.000000) scale(0.100000,-0.100000)"
fill="#000000" stroke="none">
<path d="M4521 10495 c-104 -20 -216 -54 -283 -87 -31 -15 -61 -28 -66 -28
-21 0 -191 -121 -248 -176 -62 -60 -144 -160 -144 -174 0 -4 -15 -33 -34 -64
-41 -68 -76 -177 -76 -237 0 -24 4 -68 10 -98 15 -90 33 -204 35 -231 9 -105
23 -173 62 -290 51 -156 143 -524 143 -573 0 -18 7 -59 15 -90 19 -73 19 -109
0 -233 -16 -102 -32 -225 -42 -329 -3 -33 -11 -69 -18 -80 -6 -11 -22 -53 -34
-93 -13 -40 -33 -85 -45 -100 -35 -42 -85 -183 -92 -259 l-6 -68 -377 0 c-426
-1 -709 -20 -896 -60 -505 -108 -648 -155 -823 -268 -195 -128 -324 -312 -387
-558 -52 -201 -34 -472 47 -694 29 -80 57 -121 176 -248 124 -133 147 -176
147 -277 0 -99 -16 -513 -20 -520 -2 -3 -6 -127 -9 -275 -4 -149 -9 -355 -11
-460 -3 -104 -7 -212 -10 -240 -2 -27 -7 -99 -9 -160 -3 -60 -8 -180 -13 -265
-12 -253 -10 -479 6 -532 21 -73 62 -107 179 -152 l102 -38 1 -112 c1 -61 0
-122 -1 -135 -1 -13 4 -61 10 -107 14 -99 39 -144 90 -160 82 -27 315 -43 362
-25 13 5 36 27 51 48 24 35 29 55 39 164 5 68 12 126 14 128 3 4 231 -66 254
-78 8 -4 69 -25 135 -46 66 -20 185 -59 265 -85 80 -27 260 -85 400 -130 140
-45 272 -88 293 -96 20 -8 44 -14 53 -14 9 0 43 -11 77 -24 34 -13 143 -50
242 -81 99 -32 232 -76 295 -97 63 -22 169 -57 235 -78 66 -21 147 -54 179
-74 33 -20 63 -36 66 -36 4 0 10 -108 13 -241 7 -257 12 -284 58 -306 14 -7
86 -15 160 -19 155 -8 190 -1 235 49 46 49 51 71 89 352 27 202 25 193 59 213
17 10 49 25 71 34 50 20 177 78 270 124 39 19 73 34 77 34 3 0 57 24 120 54
62 30 181 84 263 121 l150 66 70 -11 c39 -7 102 -18 140 -25 143 -28 182 -29
215 -5 47 33 62 74 68 178 5 93 5 93 36 107 191 83 260 117 292 140 70 51 134
119 160 169 27 52 67 167 78 226 4 19 13 62 21 95 7 33 19 87 25 120 13 67 34
166 55 265 8 36 21 99 29 140 17 88 33 162 52 245 22 96 45 206 54 255 4 25
17 90 29 145 52 248 60 291 61 313 0 12 4 30 9 40 5 9 21 78 36 152 14 74 33
167 42 205 8 39 19 93 23 120 4 28 25 133 48 235 22 102 48 223 58 270 9 47
27 135 41 195 13 61 29 133 34 160 5 28 22 118 39 200 17 83 35 173 40 200 5
28 14 66 19 85 5 19 22 98 36 175 15 77 33 163 41 191 8 28 19 75 24 105 16
94 39 212 54 279 9 36 36 164 60 285 25 121 52 252 61 290 8 39 29 140 46 225
30 158 40 204 58 275 5 22 14 65 20 95 18 90 70 343 76 370 3 14 17 79 30 145
14 66 36 174 50 240 14 66 35 169 46 229 19 94 26 114 55 146 82 91 113 236
80 380 -19 84 -37 123 -66 143 -11 8 -40 33 -65 56 -24 22 -46 41 -49 41 -3 0
-21 11 -41 25 -114 77 -331 161 -670 260 -161 47 -189 54 -255 71 -36 9 -96
24 -135 35 -184 49 -428 104 -655 148 -266 52 -665 40 -1080 -31 -63 -11 -140
-23 -170 -28 -96 -16 -202 -36 -308 -61 l-102 -23 -53 51 c-67 66 -151 107
-279 137 -209 49 -371 62 -487 41z m464 -264 c94 -19 157 -47 203 -91 24 -23
23 -33 -3 -95 -40 -93 -157 -450 -190 -584 -13 -53 -34 -130 -45 -171 -22 -76
-49 -184 -74 -295 -8 -33 -21 -91 -30 -130 -14 -61 -44 -217 -59 -310 -19
-119 -47 -274 -52 -286 -2 -8 -10 -54 -15 -104 -6 -49 -16 -124 -21 -165 -18
-137 -39 -324 -49 -432 -13 -141 -38 -233 -98 -353 -36 -73 -82 -183 -82 -197
0 -8 -4 -18 -9 -23 -5 -6 -18 -40 -31 -77 -12 -38 -25 -68 -29 -68 -4 0 -31
37 -61 83 -30 45 -77 104 -105 130 -51 49 -179 117 -285 152 -30 10 -58 23
-62 28 -3 6 -6 58 -6 116 1 83 6 120 24 171 12 36 29 99 38 140 8 41 24 120
36 175 26 119 51 390 53 565 1 108 -22 304 -39 332 -5 8 -21 88 -39 193 -7 44
-29 125 -48 180 -34 97 -35 105 -42 300 -8 239 1 307 52 408 69 138 253 290
428 353 187 68 458 91 640 55z m3430 -430 c142 -21 234 -67 322 -161 65 -68
69 -117 15 -167 -52 -49 -96 -52 -260 -16 -103 22 -188 4 -250 -52 -37 -34
-101 -145 -118 -205 -9 -30 -20 -59 -24 -65 -4 -5 -13 -35 -20 -65 -7 -30 -17
-63 -22 -73 -10 -20 -68 -311 -68 -344 0 -12 -4 -42 -10 -65 -17 -79 -40 -232
-50 -333 -20 -197 -59 -654 -79 -910 -48 -604 -64 -772 -91 -940 -10 -66 -28
-196 -40 -290 -31 -261 -41 -303 -112 -496 -8 -20 -19 -43 -25 -50 -6 -8 -13
-23 -17 -34 -3 -11 -19 -35 -36 -53 -16 -18 -30 -40 -30 -48 0 -25 -31 -64
-51 -64 -11 0 -19 -5 -19 -11 0 -27 -43 -101 -64 -108 -12 -5 -35 -20 -52 -34
-25 -21 -128 -86 -299 -190 -22 -13 -69 -39 -105 -58 -36 -18 -77 -41 -91 -50
-36 -25 -201 -96 -241 -104 -18 -4 -51 -15 -73 -25 -22 -10 -92 -42 -155 -70
-63 -29 -122 -58 -130 -65 -27 -23 -78 -45 -92 -40 -8 3 -31 -1 -51 -10 -31
-13 -37 -13 -37 -1 0 33 21 119 38 158 33 73 44 141 44 285 2 205 -18 332 -72
468 -54 135 -86 188 -147 248 -74 73 -103 92 -181 118 -52 17 -78 20 -148 15
-47 -3 -89 -8 -94 -11 -6 -4 -10 -3 -10 0 0 10 117 60 230 98 58 19 116 39
130 45 87 36 451 137 530 148 19 2 50 9 70 14 19 5 55 11 80 15 25 3 65 9 90
14 25 5 92 17 150 26 58 9 132 23 166 31 33 8 67 14 75 14 85 0 179 92 179
174 0 12 4 26 9 31 5 6 14 35 21 65 103 484 99 459 145 898 8 79 18 148 21
153 3 6 12 74 20 152 31 299 61 534 69 547 3 4 9 36 15 71 9 61 31 178 45 244
3 17 15 75 27 130 11 55 26 120 33 145 7 25 23 81 35 125 59 212 180 443 299
569 141 149 191 183 312 210 66 15 74 15 194 -3z m37 -462 c28 -7 54 -28 97
-79 56 -64 60 -72 66 -134 8 -74 10 -64 -37 -241 -40 -150 -55 -224 -63 -315
-6 -60 -21 -143 -46 -245 -5 -22 -18 -94 -29 -160 -20 -130 -32 -185 -60 -285
-11 -36 -26 -103 -35 -150 -9 -47 -28 -128 -42 -180 -27 -100 -29 -112 -63
-310 -12 -69 -28 -151 -36 -182 -8 -32 -14 -68 -14 -81 0 -20 -34 -163 -59
-245 -5 -17 -13 -69 -17 -115 -4 -48 -16 -106 -30 -142 -23 -56 -93 -320 -100
-375 -12 -98 -56 -378 -69 -435 -32 -153 -37 -172 -50 -225 -7 -30 -18 -68
-24 -85 -5 -16 -15 -70 -21 -120 -6 -49 -18 -121 -26 -160 -18 -93 -42 -217
-55 -285 -5 -30 -21 -100 -35 -155 -14 -55 -38 -154 -54 -220 -16 -66 -34
-140 -41 -165 -6 -25 -15 -74 -21 -110 -21 -143 -26 -169 -46 -265 -11 -55
-28 -143 -38 -195 -9 -52 -25 -131 -34 -175 -32 -149 -72 -330 -91 -415 -11
-47 -26 -123 -34 -170 -22 -127 -48 -201 -94 -263 -64 -87 -167 -156 -336
-222 -55 -22 -130 -54 -168 -72 -37 -18 -70 -33 -73 -33 -8 0 -133 -54 -219
-95 -38 -18 -155 -72 -260 -120 -183 -84 -277 -128 -525 -248 -300 -145 -453
-217 -459 -217 -4 0 -6 17 -4 38 6 67 34 316 43 382 21 150 31 235 50 420 22
209 31 280 55 460 19 138 41 325 60 515 8 77 19 174 24 215 6 41 10 111 11
155 0 44 8 107 17 140 9 33 15 82 14 108 -1 27 4 64 10 82 12 33 14 34 108 50
81 14 115 27 219 81 67 35 128 64 135 64 6 0 54 21 106 45 52 25 124 57 160
71 36 14 100 41 141 60 42 19 79 34 83 34 3 0 74 36 157 80 83 44 156 80 163
80 7 0 28 10 47 23 19 13 60 34 90 46 118 50 239 113 335 176 55 36 111 70
125 75 32 13 101 50 119 64 8 6 20 26 28 44 7 18 28 49 46 70 110 125 141 192
173 367 8 44 22 109 30 145 8 36 21 119 29 185 19 158 30 237 44 310 7 33 16
82 22 108 5 27 9 67 9 90 0 23 5 58 10 77 9 30 23 229 22 310 -2 116 -1 174 4
181 3 5 12 50 20 101 8 51 21 127 29 168 9 41 20 102 25 135 5 33 14 87 20
120 5 33 17 141 25 240 23 295 35 415 50 510 8 50 21 140 30 200 31 210 62
362 84 402 6 12 11 33 11 47 0 56 95 318 132 366 21 27 67 60 83 60 6 0 27 -5
47 -11z m-3066 -1755 c131 -33 365 -108 389 -124 6 -4 28 -13 50 -20 49 -16
171 -68 290 -125 241 -115 315 -149 375 -172 68 -26 85 -40 70 -59 -7 -7 7
-18 43 -34 95 -43 307 -174 307 -189 0 -21 -18 -17 -69 18 -94 62 -211 127
-311 171 -52 23 -119 53 -149 67 -29 14 -70 31 -90 38 -20 7 -81 34 -136 60
-255 120 -849 335 -924 335 -42 0 -104 26 -99 42 11 32 108 29 254 -8z m-1650
-518 c267 -18 299 -25 380 -86 72 -54 208 -224 241 -301 11 -26 5 -75 -16
-134 -5 -16 -26 -111 -46 -210 -44 -221 -41 -212 -65 -218 -21 -5 -27 -31 -10
-42 14 -8 13 -51 -2 -78 -6 -12 -11 -34 -10 -49 2 -25 -9 -94 -40 -240 -11
-59 -31 -76 -41 -37 -7 27 -27 15 -27 -17 0 -19 -5 -24 -25 -24 -14 0 -29 8
-35 20 -14 25 -30 26 -30 1 0 -25 -5 -27 -62 -36 -45 -7 -47 -6 -50 21 -5 43
-28 43 -28 0 0 -33 -3 -36 -28 -36 -15 0 -33 5 -40 12 -9 9 -15 8 -25 -6 -9
-13 -30 -19 -73 -22 -32 -3 -72 -6 -89 -7 -24 -2 -31 2 -33 21 -4 29 -20 28
-34 -3 -14 -31 -53 -43 -81 -25 -17 10 -22 10 -31 -3 -14 -18 -91 -32 -100
-18 -4 6 -3 19 3 29 5 10 6 24 1 31 -14 23 -31 1 -28 -37 l3 -37 -50 -1 c-27
-1 -58 -5 -68 -9 -10 -4 -33 -5 -52 -2 -19 3 -35 2 -37 -3 -2 -5 -26 -11 -53
-14 -28 -2 -68 -7 -89 -11 -34 -7 -41 -5 -57 16 l-18 24 -10 -27 c-8 -22 -18
-27 -63 -33 -29 -4 -84 -9 -123 -10 -38 -1 -77 -5 -85 -8 -8 -4 -57 -16 -109
-26 -103 -22 -195 -62 -268 -118 -40 -30 -47 -33 -55 -19 -14 24 -42 21 -34
-4 3 -11 8 -28 11 -37 3 -11 -9 -34 -30 -58 -33 -38 -35 -39 -34 -15 0 24 10
106 29 250 38 281 60 737 41 857 -23 149 -116 326 -230 438 -34 33 -61 64 -61
70 0 40 450 181 713 224 37 6 95 16 130 22 34 5 80 12 102 14 22 1 96 8 165
14 238 21 392 20 756 -3z m1194 -311 c41 -15 91 -31 110 -37 39 -11 183 -70
245 -98 49 -24 169 -70 179 -70 17 0 276 -131 276 -140 0 -21 -21 -15 -129 36
-63 30 -122 54 -131 54 -10 0 -64 21 -121 46 -191 84 -369 155 -464 183 -38
11 -61 24 -63 34 -5 23 11 21 98 -8z m-2180 -1905 c104 -11 229 -31 300 -50
24 -6 90 -18 145 -25 119 -17 252 -42 264 -49 4 -3 41 -10 82 -17 41 -6 79
-15 84 -19 6 -5 39 -10 75 -13 36 -2 108 -15 160 -29 52 -14 116 -28 142 -31
26 -4 127 -33 225 -66 98 -33 196 -62 217 -66 22 -4 61 -17 87 -31 26 -13 75
-31 108 -40 50 -14 61 -21 61 -38 0 -13 -3 -16 -8 -10 -4 6 -27 15 -52 19 -25
4 -58 13 -75 20 -16 8 -50 16 -75 20 -25 3 -54 10 -65 16 -24 11 -153 40 -177
40 -10 0 -18 4 -18 10 0 5 -21 9 -46 9 -25 0 -55 5 -67 12 -12 6 -49 17 -82
24 -114 24 -207 49 -202 54 3 3 -4 6 -16 6 -30 2 -207 40 -387 83 -47 11 -107
25 -135 31 -27 6 -76 18 -107 26 -32 8 -67 14 -78 14 -11 0 -20 4 -20 9 0 5
-9 7 -21 4 -11 -3 -30 -1 -42 5 -12 7 -29 11 -37 10 -44 -4 -81 3 -74 14 4 6
3 8 -3 5 -11 -7 -156 19 -188 33 -11 5 -47 13 -80 18 -84 13 -17 14 105 2z
m-595 -1033 c44 -16 112 -40 150 -53 39 -14 77 -28 85 -31 8 -3 42 -14 75 -24
33 -10 128 -41 210 -69 83 -28 186 -62 230 -75 44 -14 118 -36 165 -51 100
-31 234 -70 305 -88 28 -8 91 -26 140 -41 50 -15 182 -51 295 -81 113 -29 237
-63 275 -74 127 -35 217 -59 410 -105 105 -26 199 -50 210 -55 11 -5 39 -12
63 -15 l42 -7 0 -96 c0 -85 -6 -254 -25 -687 -2 -60 -7 -175 -10 -255 -4 -80
-8 -150 -10 -157 -4 -12 -47 -3 -150 32 -22 7 -121 39 -220 71 -99 31 -281 90
-405 131 -124 41 -261 85 -305 98 -44 13 -134 43 -200 66 -66 23 -176 59 -245
80 -69 21 -172 55 -230 75 -58 20 -159 54 -225 75 -66 21 -232 77 -370 124
-137 47 -291 99 -342 116 -51 16 -94 33 -97 38 -3 4 -1 73 4 152 28 401 48
723 49 799 2 119 9 153 30 144 9 -4 52 -20 96 -37z"/>
<path d="M7189 6303 c-12 -32 11 -90 61 -153 53 -68 193 -356 224 -462 14 -50
19 -56 48 -62 42 -8 49 6 32 63 -8 25 -19 67 -24 93 -8 42 -112 293 -142 344
-7 12 -28 47 -46 78 -35 57 -105 126 -129 126 -7 0 -18 -12 -24 -27z"/>
</g>
</svg>
