<?xml version="1.0" standalone="no"?>
<!DOCTYPE svg PUBLIC "-//W3C//DTD SVG 20010904//EN"
 "http://www.w3.org/TR/2001/REC-SVG-20010904/DTD/svg10.dtd">
<svg version="1.0" xmlns="http://www.w3.org/2000/svg"
 width="849.000000pt" height="1125.000000pt" viewBox="0 0 849.000000 1125.000000"
 preserveAspectRatio="xMidYMid meet">
<metadata>
Created by potrace 1.16, written by Peter Selinger 2001-2019
</metadata>
<g transform="translate(0.000000,1125.000000) scale(0.100000,-0.100000)"
fill="#000000" stroke="none">
<path d="M4010 10840 c-317 -18 -487 -32 -535 -45 -27 -8 -87 -17 -132 -21
-50 -4 -87 -12 -94 -20 -6 -8 -23 -14 -38 -14 -15 0 -31 -4 -36 -9 -6 -5 -32
-12 -60 -15 -96 -10 -135 -18 -135 -27 0 -5 -9 -9 -21 -9 -11 0 -30 -5 -42
-12 -12 -6 -41 -10 -65 -9 -32 2 -53 -4 -80 -21 -46 -30 -69 -40 -107 -45 -16
-3 -31 -9 -33 -14 -2 -5 -12 -9 -22 -9 -19 0 -113 -49 -118 -62 -2 -4 -11 -8
-20 -8 -44 0 -93 -22 -102 -46 -5 -13 -15 -24 -21 -24 -16 0 -48 -39 -56 -68
-3 -13 -1 -33 4 -45 13 -28 33 -133 33 -174 0 -16 7 -43 15 -60 8 -16 17 -68
20 -115 3 -46 10 -106 15 -134 6 -27 14 -71 17 -99 3 -27 12 -59 19 -70 8 -11
14 -37 14 -58 0 -20 6 -53 14 -71 7 -18 17 -57 21 -87 4 -30 11 -56 15 -59 5
-3 9 -28 11 -55 1 -31 11 -67 27 -95 42 -76 50 -82 102 -75 25 4 52 13 60 20
18 15 85 35 120 35 14 0 43 9 65 20 64 33 65 32 67 -87 6 -287 18 -506 30
-520 6 -7 13 -75 15 -151 3 -75 8 -144 12 -152 5 -8 9 -80 10 -160 2 -80 6
-149 11 -155 10 -13 26 -159 22 -203 -2 -19 2 -39 8 -46 5 -8 13 -84 17 -170
3 -86 10 -159 15 -162 4 -3 8 -21 8 -41 0 -19 6 -77 14 -127 8 -50 20 -152 26
-226 7 -74 16 -144 21 -155 15 -34 26 -164 15 -175 -5 -5 -43 -10 -83 -10 -40
0 -73 -4 -73 -8 0 -4 -42 -14 -92 -21 -51 -7 -120 -23 -153 -37 -33 -13 -70
-24 -82 -24 -12 0 -25 -4 -28 -10 -3 -5 -17 -10 -30 -10 -13 0 -38 -12 -56
-27 -18 -16 -47 -37 -65 -48 -32 -20 -129 -92 -193 -143 -19 -15 -39 -27 -45
-27 -6 0 -18 -8 -27 -17 -8 -9 -27 -20 -42 -23 -15 -4 -27 -11 -27 -16 0 -5
-10 -9 -22 -9 -13 0 -42 -11 -65 -24 -23 -13 -57 -27 -75 -31 -18 -4 -44 -13
-58 -20 -49 -26 -102 -47 -128 -51 -15 -3 -31 -9 -36 -15 -6 -5 -17 -9 -26 -9
-8 0 -31 -8 -50 -18 -19 -11 -46 -22 -60 -25 -14 -3 -34 -15 -46 -25 -11 -10
-32 -22 -48 -26 -15 -4 -50 -22 -77 -41 -27 -19 -59 -37 -70 -40 -12 -4 -29
-14 -38 -23 -23 -22 -48 -42 -88 -70 -18 -13 -33 -30 -33 -37 0 -8 -8 -20 -19
-27 -25 -18 -81 -108 -81 -131 0 -10 -10 -39 -22 -65 -18 -38 -22 -65 -22
-142 0 -197 18 -330 45 -330 5 0 43 -20 85 -45 41 -25 78 -45 81 -45 2 0 23
-13 46 -29 24 -16 59 -36 80 -44 39 -17 49 -44 24 -69 -8 -7 -20 -37 -26 -66
-7 -28 -17 -52 -21 -52 -4 0 -10 -10 -13 -22 -14 -61 -36 -128 -56 -170 -11
-26 -21 -51 -21 -56 0 -12 -59 -200 -71 -227 -5 -11 -13 -42 -19 -70 -6 -27
-15 -54 -20 -60 -4 -5 -14 -38 -20 -73 -7 -34 -17 -65 -21 -68 -5 -3 -9 -16
-9 -30 0 -14 -7 -38 -15 -55 -9 -16 -20 -48 -25 -72 -26 -115 -37 -154 -49
-175 -7 -13 -15 -49 -18 -80 -2 -32 -7 -64 -10 -72 -4 -8 -7 -17 -8 -20 -8
-24 -20 -46 -27 -51 -4 -3 -13 -42 -20 -87 -6 -45 -14 -82 -18 -82 -4 0 -10
-24 -13 -54 -3 -29 -10 -62 -15 -72 -6 -11 -15 -55 -21 -98 -6 -44 -16 -85
-21 -91 -12 -14 -33 -110 -31 -143 0 -13 -6 -33 -14 -45 -8 -12 -15 -34 -15
-49 0 -15 -5 -30 -10 -33 -6 -3 -10 -21 -10 -40 0 -19 -4 -37 -10 -40 -5 -3
-10 -30 -10 -59 0 -29 -6 -66 -14 -82 -8 -16 -20 -60 -26 -99 -6 -38 -18 -83
-27 -100 -9 -16 -19 -59 -23 -95 -4 -36 -19 -117 -33 -180 -13 -63 -28 -140
-32 -170 -4 -30 -11 -59 -15 -65 -4 -5 -10 -39 -14 -74 -3 -35 -12 -71 -20
-80 -7 -9 -16 -47 -18 -88 -3 -40 -11 -79 -17 -87 -7 -8 -13 -56 -14 -116 l-2
-102 39 -34 c32 -27 48 -34 82 -34 24 0 46 4 49 10 3 5 22 10 41 10 53 0 101
30 107 67 1 10 5 23 9 28 3 6 9 30 13 55 4 25 16 57 26 72 11 14 19 38 19 52
0 15 6 37 14 49 8 12 24 56 35 97 12 41 32 98 46 125 13 28 27 65 30 84 3 18
12 46 20 62 8 15 15 37 15 48 0 11 4 22 9 25 4 3 14 27 20 53 7 27 19 60 27
75 8 14 14 32 14 40 0 8 9 33 20 56 11 22 20 48 20 57 0 8 4 23 9 33 5 9 14
35 20 57 13 43 26 75 46 115 10 20 27 75 29 100 1 8 28 94 36 115 4 11 13 33
19 48 6 15 11 37 11 48 0 10 5 27 10 37 6 9 21 49 34 87 22 67 25 71 67 85 24
8 55 22 69 30 14 8 52 27 85 43 33 15 62 32 65 37 3 5 15 11 26 13 11 1 36 12
56 24 19 11 75 40 124 63 49 23 100 47 114 53 14 7 29 18 33 24 4 7 24 13 44
13 51 0 199 -19 248 -32 22 -6 94 -14 160 -19 66 -4 172 -12 235 -18 63 -5
151 -13 195 -16 44 -3 96 -11 115 -17 41 -14 43 -14 95 -23 22 -4 48 -11 57
-16 12 -6 19 -5 25 5 5 10 13 12 22 7 27 -17 -30 -40 -106 -42 -64 -2 -77 1
-113 24 -43 29 -76 34 -102 14 -14 -11 -17 -34 -17 -142 -1 -71 -6 -134 -11
-139 -15 -15 -12 -54 6 -81 11 -17 14 -35 9 -64 -4 -25 -2 -47 7 -62 21 -39
89 -96 128 -109 34 -11 41 -10 78 14 24 15 44 37 48 51 3 13 21 33 39 44 26
15 35 28 40 58 15 104 28 169 36 179 5 6 14 38 20 70 6 33 17 73 24 89 8 17
15 39 17 50 3 18 10 20 78 17 41 -2 143 -10 225 -18 83 -9 175 -18 205 -20 30
-3 64 -9 75 -14 11 -5 70 -12 130 -15 233 -12 340 -21 352 -28 14 -9 151 -23
358 -38 77 -5 158 -13 180 -17 l40 -7 -3 -280 c-10 -859 -1 -1705 20 -1942 11
-131 11 -133 45 -167 27 -27 45 -35 87 -40 50 -7 105 0 116 13 3 4 16 14 30
23 14 8 39 44 57 79 l32 64 5 213 c2 117 9 218 14 225 11 14 30 224 42 467 8
153 21 283 35 337 3 14 1 23 -6 23 -8 0 -8 4 -1 13 5 6 13 64 17 127 8 144 15
233 18 235 1 1 27 18 57 38 30 20 67 48 82 62 15 14 29 25 32 25 3 0 27 14 53
32 53 36 54 36 99 73 18 14 35 25 39 25 4 0 15 8 24 18 9 10 32 27 52 38 37
19 148 99 198 142 14 12 45 31 69 42 24 11 45 27 48 35 4 8 12 15 20 15 8 0
31 16 53 35 21 19 44 35 50 35 6 0 20 9 31 20 11 11 44 37 74 58 29 20 68 49
87 64 44 36 158 112 197 132 29 15 32 15 42 -3 5 -11 10 -29 10 -40 0 -11 5
-23 10 -26 6 -3 10 -15 10 -26 0 -11 6 -27 14 -34 7 -8 17 -43 21 -79 3 -37
11 -66 16 -66 5 0 9 -13 9 -30 0 -16 6 -44 14 -62 22 -49 29 -70 33 -98 2 -14
12 -47 22 -75 11 -27 23 -68 29 -90 10 -41 26 -87 47 -140 7 -16 21 -57 31
-90 10 -33 26 -77 36 -97 10 -21 18 -48 18 -62 0 -14 11 -51 24 -83 33 -78 38
-95 43 -118 3 -21 6 -29 40 -105 11 -25 27 -59 34 -77 7 -17 24 -37 37 -42 26
-12 142 -15 157 -3 16 12 48 111 48 151 0 55 -14 215 -20 224 -3 5 -6 29 -8
54 -2 25 -7 48 -13 52 -5 3 -12 40 -15 81 -13 159 -46 390 -59 414 -6 11 -14
72 -20 135 -5 64 -13 120 -18 125 -6 6 -10 22 -10 37 0 15 -4 30 -9 33 -5 3
-12 43 -15 88 -8 96 -24 204 -35 233 -17 42 -31 117 -31 165 0 27 -4 52 -10
55 -5 3 -10 15 -10 26 0 11 -9 46 -19 77 -11 32 -22 90 -25 130 -3 40 -8 78
-13 85 -9 13 -23 80 -48 217 -8 47 -19 92 -24 101 -5 9 -12 34 -16 55 -16 100
-67 331 -76 347 -5 10 -13 48 -18 86 -5 37 -14 77 -20 89 -6 11 -11 39 -11 61
0 23 -4 41 -8 41 -10 0 -32 89 -32 126 0 13 -4 24 -9 24 -4 0 -11 16 -14 36
-4 20 -16 47 -28 60 -26 27 -20 38 59 109 39 35 52 54 52 74 0 27 12 73 30
116 12 28 23 143 26 255 1 52 5 120 9 150 7 58 1 80 -44 152 -12 20 -30 40
-40 43 -10 3 -24 17 -31 30 -7 14 -19 25 -27 25 -24 0 -28 1 -46 17 -25 24
-170 100 -219 116 -38 13 -38 39 2 124 22 45 49 106 61 135 12 29 28 60 36 69
7 8 13 29 13 46 0 17 8 41 18 54 22 30 39 66 46 101 3 15 13 33 21 42 8 8 15
21 15 30 0 8 5 18 10 21 6 3 10 15 10 25 0 18 28 79 41 90 8 7 24 53 21 63 -1
4 8 24 21 45 13 20 29 58 36 84 8 26 20 53 27 59 8 6 14 19 14 29 0 9 3 20 6
23 9 8 54 119 54 131 0 5 6 17 13 25 8 9 19 32 27 51 7 19 21 55 32 80 11 25
21 50 22 55 5 29 51 145 58 145 4 0 8 10 8 23 0 12 8 36 18 52 10 17 24 57 32
90 12 55 36 112 51 125 3 3 9 25 13 50 4 25 14 59 22 75 21 41 40 98 55 170 7
33 16 64 21 69 4 6 8 20 8 32 0 55 46 42 129 -36 47 -44 71 -60 92 -60 15 0
30 4 33 9 3 5 23 12 43 16 21 3 54 17 73 29 19 13 46 27 60 31 47 14 70 34 70
63 0 16 11 50 24 78 24 50 45 132 67 262 7 39 16 72 21 72 4 0 8 12 8 28 1 15
7 38 15 52 8 14 14 42 15 62 0 39 36 185 50 203 8 10 12 33 27 150 5 36 17 73
31 92 29 41 30 104 1 144 -11 16 -25 29 -31 29 -6 0 -27 12 -46 27 -53 40
-133 93 -141 93 -4 0 -29 14 -57 32 -27 17 -69 43 -94 56 -25 14 -67 38 -95
53 -147 82 -220 119 -235 119 -5 0 -10 4 -10 9 0 10 -91 51 -113 51 -8 0 -20
7 -27 14 -6 8 -28 20 -48 27 -20 6 -78 31 -129 55 -50 24 -98 44 -106 44 -7 0
-33 10 -58 22 -24 12 -48 21 -52 20 -4 -1 -18 4 -30 13 -12 8 -28 15 -37 15
-9 0 -33 9 -55 20 -22 11 -47 20 -56 20 -10 0 -39 9 -66 21 -53 23 -113 43
-155 53 -15 3 -33 12 -40 19 -7 7 -42 20 -78 29 -111 29 -155 42 -160 49 -3 4
-23 10 -45 13 -87 14 -110 20 -139 37 -17 10 -56 20 -86 23 -60 5 -154 24
-185 36 -27 11 -78 21 -145 26 -30 3 -62 8 -70 11 -32 14 -151 35 -270 48 -69
8 -174 21 -235 29 -86 12 -405 29 -605 33 -14 1 -106 3 -205 6 -99 3 -245 2
-325 -3z m1205 -130 c28 -5 75 -13 106 -19 31 -5 65 -14 76 -19 11 -6 44 -11
74 -12 69 -2 165 -18 254 -43 39 -10 84 -21 100 -23 88 -12 171 -28 180 -34
10 -7 21 -10 125 -29 43 -8 91 -23 135 -41 11 -5 35 -11 53 -14 19 -3 48 -12
65 -20 43 -19 201 -66 221 -66 9 0 16 -4 16 -9 0 -9 46 -31 73 -35 9 -1 20 -5
23 -9 4 -4 17 -7 28 -7 12 0 41 -11 66 -24 25 -13 56 -27 70 -31 14 -4 49 -18
78 -31 29 -13 57 -24 63 -24 6 0 43 -16 83 -35 40 -19 81 -35 90 -35 9 0 16
-4 16 -10 0 -5 8 -10 18 -10 9 0 26 -7 37 -16 11 -8 38 -19 60 -25 22 -6 49
-19 60 -29 11 -9 67 -41 125 -69 58 -28 137 -68 175 -89 39 -21 111 -60 160
-87 50 -26 97 -54 105 -61 9 -7 36 -20 60 -29 67 -23 76 -46 30 -70 -30 -16
-121 -21 -134 -7 -4 4 -11 7 -14 8 -14 2 -67 26 -72 32 -8 12 -103 76 -135 92
-16 8 -44 25 -61 37 -17 13 -38 23 -46 23 -8 0 -40 18 -71 40 -30 22 -62 40
-69 40 -8 0 -18 4 -24 9 -5 5 -38 25 -74 44 -36 18 -87 46 -113 61 -27 15 -78
39 -115 53 -37 13 -87 35 -112 48 -97 50 -177 85 -208 91 -17 4 -32 10 -32 15
0 4 -16 11 -35 15 -19 3 -38 10 -41 15 -3 5 -15 9 -28 9 -12 0 -26 4 -32 8 -9
8 -26 16 -189 77 -38 14 -79 31 -91 36 -11 6 -27 9 -35 8 -8 -1 -25 2 -39 8
-48 20 -96 35 -155 49 -78 18 -137 36 -150 45 -5 4 -70 19 -144 34 -74 16
-146 34 -160 41 -13 7 -28 11 -33 8 -11 -7 -168 18 -168 27 0 4 -17 9 -37 12
-21 3 -60 10 -88 16 -27 5 -96 15 -153 22 -56 6 -105 15 -108 20 -3 5 -17 9
-32 9 -15 0 -34 5 -42 10 -19 12 144 12 215 0z m-1097 -46 c84 8 101 8 357 -3
234 -10 351 -22 470 -47 44 -9 107 -18 140 -19 65 -3 93 -8 170 -29 67 -19
164 -36 201 -36 17 0 34 -3 38 -7 4 -5 38 -14 74 -21 145 -27 166 -32 211 -46
25 -8 57 -17 71 -19 82 -17 208 -49 225 -56 22 -10 90 -29 120 -35 35 -7 66
-18 114 -42 25 -13 58 -24 72 -24 14 0 47 -11 75 -24 27 -13 66 -29 86 -35 20
-7 59 -23 85 -37 26 -13 57 -24 68 -24 11 0 84 -32 162 -70 78 -39 151 -70
160 -70 10 0 34 -10 53 -23 19 -13 51 -29 70 -37 19 -7 44 -21 55 -30 11 -9
41 -25 68 -34 26 -10 47 -21 47 -26 0 -4 15 -13 33 -20 36 -13 89 -40 97 -49
7 -8 52 -34 119 -68 30 -15 66 -38 79 -50 14 -13 31 -23 39 -23 17 0 147 -82
158 -99 4 -7 2 -17 -3 -24 -6 -7 -12 -43 -15 -82 -6 -80 -20 -152 -41 -210 -8
-22 -15 -59 -16 -82 0 -24 -4 -43 -9 -43 -5 0 -12 -31 -16 -70 -4 -39 -13 -74
-21 -81 -8 -6 -14 -26 -14 -44 0 -19 -9 -54 -20 -80 -11 -26 -20 -58 -20 -71
0 -13 -4 -24 -9 -24 -4 0 -11 -21 -15 -46 -11 -83 -31 -91 -109 -41 -29 18
-70 41 -91 51 -22 10 -48 26 -57 35 -10 9 -35 23 -56 30 -21 7 -45 19 -53 26
-20 16 -80 45 -95 45 -7 0 -24 10 -39 23 -15 13 -43 29 -64 36 -20 8 -88 38
-150 67 -62 30 -119 54 -127 54 -7 0 -34 11 -58 24 -43 22 -78 35 -122 43 -11
2 -44 14 -72 28 -29 13 -65 27 -80 31 -16 3 -55 17 -88 30 -34 12 -83 28 -110
34 -28 6 -59 14 -70 19 -50 20 -95 34 -151 47 -34 7 -83 23 -109 34 -25 11
-62 20 -81 20 -19 0 -34 4 -34 8 0 5 -33 14 -72 20 -40 7 -95 17 -123 22 -27
6 -72 15 -100 20 -27 4 -88 17 -135 28 -47 11 -128 23 -180 27 -52 3 -129 13
-170 21 -41 8 -89 14 -107 14 -17 0 -34 4 -37 9 -9 14 -107 23 -341 32 -121 4
-260 12 -308 17 -58 6 -121 6 -180 0 -51 -6 -132 -12 -182 -14 -243 -10 -471
-26 -480 -34 -5 -4 -32 -13 -60 -18 -151 -30 -206 -42 -260 -58 -33 -9 -78
-19 -100 -21 -22 -3 -44 -9 -50 -12 -5 -4 -37 -16 -70 -26 -33 -10 -64 -21
-70 -25 -11 -8 -77 -19 -134 -23 -32 -2 -34 0 -46 48 -7 28 -16 70 -19 95 -4
25 -11 54 -16 65 -4 11 -20 94 -35 185 -15 91 -31 170 -35 175 -4 6 -11 48
-15 95 -4 47 -10 90 -15 95 -4 6 -10 24 -13 40 -3 17 -11 53 -17 80 -6 28 -13
68 -16 91 l-6 40 48 19 c27 10 51 21 54 24 3 4 32 15 65 25 33 10 78 27 100
36 39 18 112 39 225 65 30 7 91 23 135 35 132 36 198 49 242 50 23 0 44 4 47
9 3 4 35 11 72 14 36 4 71 10 78 15 14 11 259 31 390 32 54 0 106 4 114 9 10
6 24 5 35 -1 11 -5 48 -7 85 -4z m154 -1219 c9 -20 8 -28 -4 -42 -11 -12 -18
-48 -22 -113 -7 -103 -11 -137 -19 -160 -7 -20 -25 -192 -36 -348 -5 -68 -14
-135 -19 -150 -6 -15 -13 -62 -16 -105 -3 -43 -10 -86 -15 -95 -5 -9 -12 -93
-15 -187 -3 -93 -10 -194 -15 -223 -4 -29 -6 -64 -3 -77 2 -14 -1 -32 -8 -40
-7 -9 -13 -59 -15 -132 -5 -152 -12 -320 -26 -558 -5 -104 -10 -253 -10 -330
0 -77 -2 -148 -5 -157 -5 -17 -26 -18 -258 -18 -191 0 -256 3 -264 13 -6 7
-13 138 -17 317 -4 168 -9 330 -10 360 -2 30 -6 141 -10 245 -4 105 -10 194
-13 199 -3 5 -4 35 -3 65 1 31 -2 69 -8 84 -6 15 -13 103 -16 195 -3 92 -10
194 -15 227 -5 33 -17 134 -26 225 -9 91 -21 168 -27 172 -7 4 -7 11 2 21 7 9
8 18 3 21 -9 5 -23 120 -22 175 0 13 -7 53 -16 90 -8 36 -16 101 -18 143 -1
42 -5 80 -9 84 -11 11 -8 42 5 50 6 4 48 11 92 15 249 24 300 30 311 39 12 10
108 15 373 18 l162 2 12 -25z m423 5 c3 -5 21 -10 39 -10 18 0 79 -7 137 -15
151 -22 159 -23 219 -30 30 -4 64 -10 75 -15 11 -4 56 -13 100 -19 44 -6 130
-21 190 -32 61 -11 127 -23 148 -26 20 -3 40 -9 43 -14 3 -5 20 -9 39 -9 19 0
44 -4 57 -9 13 -5 68 -19 123 -31 119 -27 142 -36 148 -61 5 -20 -14 -94 -37
-144 -8 -16 -22 -55 -32 -85 -9 -30 -20 -59 -24 -65 -4 -5 -10 -21 -13 -35 -3
-14 -14 -50 -26 -80 -12 -30 -21 -65 -21 -77 0 -12 -9 -42 -20 -68 -11 -26
-20 -55 -20 -66 0 -11 -4 -27 -9 -37 -34 -67 -61 -144 -61 -173 0 -16 -4 -37
-9 -47 -17 -30 -51 -132 -51 -151 0 -10 -7 -32 -15 -47 -8 -16 -15 -39 -15
-51 0 -12 -5 -23 -11 -25 -5 -2 -16 -38 -22 -80 -7 -43 -19 -85 -27 -95 -17
-20 -41 -99 -48 -155 -2 -21 -8 -38 -13 -38 -5 0 -9 -14 -9 -32 0 -17 -6 -39
-14 -47 -13 -16 -44 -137 -53 -214 -3 -20 -9 -40 -14 -43 -5 -3 -9 -18 -9 -35
0 -16 -4 -29 -10 -29 -5 0 -10 -10 -10 -22 0 -13 -9 -52 -20 -88 -11 -36 -23
-83 -25 -105 -7 -48 -23 -113 -35 -140 -21 -46 -60 -207 -60 -245 0 -23 -6
-47 -13 -54 -19 -19 -77 -25 -133 -14 -103 20 -221 40 -269 45 -27 3 -54 9
-60 14 -5 5 -51 9 -102 9 -87 0 -284 23 -305 36 -16 10 15 234 33 234 5 0 9
40 9 89 0 50 5 93 10 96 6 3 10 32 10 64 0 31 4 61 9 67 8 8 35 221 57 449 3
39 10 75 15 81 5 6 14 91 19 189 6 97 14 184 19 194 5 9 12 68 16 131 4 63 12
121 18 128 8 10 7 16 -2 22 -10 5 -11 18 -7 41 16 72 25 338 24 639 -1 174 2
321 6 328 9 15 52 16 61 2z m-170 -74 c17 -12 18 -31 18 -279 -1 -329 -12
-635 -24 -643 -5 -3 -9 -20 -8 -37 3 -70 -23 -493 -31 -502 -9 -10 -27 -161
-21 -179 1 -6 -2 -19 -8 -30 -5 -12 -12 -64 -16 -116 -7 -122 -15 -184 -25
-190 -9 -6 -33 -208 -31 -269 1 -24 -3 -49 -7 -55 -5 -6 -12 -35 -15 -65 -4
-29 -10 -58 -15 -65 -6 -6 -12 -38 -16 -71 -3 -33 -9 -82 -13 -110 l-8 -50
-93 -3 -93 -3 5 337 c4 212 9 341 16 349 6 8 11 84 11 198 0 103 3 188 8 191
4 3 11 56 15 118 26 409 44 625 55 646 5 9 14 73 21 142 15 165 39 371 46 390
3 8 9 66 13 128 7 109 8 114 37 137 17 14 42 24 61 25 17 0 35 5 38 10 9 14
58 12 80 -4z m-1279 -112 c4 -14 4 -33 1 -44 -3 -11 -1 -39 5 -62 9 -39 19
-110 35 -225 3 -24 9 -43 14 -43 5 0 9 -28 9 -62 0 -35 5 -103 11 -153 6 -49
11 -112 11 -140 0 -27 4 -54 8 -60 11 -14 48 -437 48 -555 1 -104 13 -255 22
-260 6 -4 10 -26 8 -51 -1 -24 2 -150 5 -279 16 -503 16 -574 2 -593 -11 -15
-26 -17 -96 -15 l-84 3 -6 80 c-3 44 -11 96 -17 115 -6 19 -13 71 -17 115 -3
44 -12 127 -20 185 -25 190 -35 286 -35 346 0 33 -5 77 -11 99 -5 22 -11 65
-13 95 -2 30 -13 141 -24 245 -12 105 -22 220 -22 257 0 37 -4 69 -8 72 -5 3
-12 92 -16 198 -4 106 -12 258 -17 338 -6 80 -13 193 -15 251 l-5 106 49 37
c85 62 163 62 178 0z m3130 -195 c3 -5 17 -9 32 -9 15 -1 38 -7 52 -15 14 -8
35 -14 47 -15 12 0 52 -13 88 -30 36 -16 69 -30 74 -30 5 0 31 -11 58 -24 41
-21 74 -35 93 -41 3 -1 31 -13 62 -28 31 -15 61 -27 66 -27 6 0 43 -17 84 -37
40 -21 97 -48 125 -61 74 -32 77 -56 19 -137 -12 -16 -27 -48 -34 -70 -17 -52
-44 -105 -54 -105 -5 0 -8 -9 -8 -21 0 -23 -65 -165 -87 -191 -8 -9 -13 -23
-11 -30 4 -11 -16 -64 -42 -108 -27 -45 -59 -119 -65 -147 -3 -17 -13 -37 -21
-44 -8 -6 -14 -17 -14 -23 0 -6 -16 -42 -35 -79 -19 -38 -35 -76 -35 -86 0
-10 -7 -24 -15 -31 -8 -7 -15 -18 -15 -24 0 -7 -9 -29 -20 -51 -11 -22 -20
-45 -20 -52 0 -12 -40 -104 -50 -113 -3 -3 -11 -27 -18 -55 -7 -27 -16 -52
-20 -55 -15 -11 -62 -120 -62 -144 0 -14 -4 -26 -8 -26 -9 0 -32 -59 -32 -83
0 -9 -4 -17 -9 -17 -5 0 -12 -10 -16 -22 -3 -13 -15 -41 -25 -63 -25 -56 -44
-101 -69 -170 -13 -33 -33 -87 -45 -120 -13 -33 -33 -93 -46 -134 -12 -41 -30
-88 -40 -105 -16 -29 -21 -31 -65 -28 -27 1 -53 6 -59 11 -6 5 -24 11 -41 14
-16 3 -64 12 -105 20 -41 8 -139 23 -218 33 -186 23 -232 50 -187 110 8 10 15
27 15 37 0 9 4 17 8 17 5 0 14 24 22 53 7 28 26 81 42 116 15 34 31 81 34 102
4 21 10 39 14 39 4 0 12 19 19 43 7 23 19 54 27 69 8 14 14 33 14 42 0 8 9 31
20 51 11 20 20 44 20 55 0 10 5 22 10 25 6 3 10 19 10 34 0 15 4 31 9 37 4 5
14 32 21 59 8 28 20 61 27 75 7 14 13 33 13 42 0 9 4 19 8 22 5 3 14 31 21 63
12 57 21 85 46 133 7 14 16 42 19 62 12 78 25 120 39 131 8 7 20 46 27 87 7
41 16 80 21 86 5 6 21 65 35 130 15 66 30 121 34 124 3 3 12 41 19 85 7 44 15
87 19 95 13 32 42 174 57 280 4 25 11 50 15 55 4 6 13 54 21 109 7 54 19 104
26 111 13 14 49 10 59 -6z m-188 -18 c7 -4 13 -16 13 -27 -1 -35 -36 -212 -43
-220 -5 -4 -8 -37 -8 -74 0 -36 -4 -70 -10 -76 -9 -9 -50 -182 -71 -304 -6
-30 -15 -60 -21 -67 -6 -7 -8 -22 -5 -32 3 -11 -1 -28 -9 -38 -7 -10 -14 -30
-14 -45 0 -15 -5 -30 -10 -33 -6 -4 -10 -14 -8 -24 3 -19 -17 -92 -38 -136 -8
-16 -18 -52 -23 -78 -5 -27 -14 -54 -20 -60 -6 -6 -11 -22 -11 -37 0 -14 -6
-37 -14 -51 -7 -14 -16 -42 -20 -61 -3 -20 -18 -63 -31 -97 -14 -33 -25 -74
-25 -90 0 -16 -4 -33 -10 -36 -5 -3 -10 -14 -10 -24 0 -10 -6 -24 -14 -30 -7
-6 -16 -29 -20 -50 -3 -22 -12 -52 -20 -68 -8 -15 -19 -39 -24 -53 -5 -14 -15
-38 -21 -53 -6 -15 -11 -36 -11 -47 0 -10 -8 -33 -17 -52 -31 -61 -33 -68 -33
-87 0 -10 -10 -39 -21 -63 -41 -83 -57 -126 -80 -210 -7 -27 -16 -48 -20 -48
-4 0 -10 -20 -14 -45 -9 -60 -60 -108 -80 -75 -3 6 -21 10 -39 10 -20 0 -40 8
-51 20 -18 19 -18 22 -2 56 9 19 17 43 17 52 0 10 4 22 10 28 5 5 14 44 20 87
5 42 14 84 19 94 19 35 41 122 41 160 0 21 9 53 20 70 11 18 25 63 31 100 6
38 17 82 24 98 8 17 19 57 26 90 7 33 16 64 21 70 4 5 8 21 8 35 0 14 4 30 9
35 5 6 19 51 31 100 26 107 47 179 65 220 7 17 16 50 20 75 4 25 18 65 32 90
13 25 25 62 25 83 0 20 4 40 9 43 5 3 9 14 9 25 0 19 2 26 33 87 9 19 17 49
17 67 0 19 5 37 10 40 6 3 10 14 10 23 0 10 9 35 20 57 11 22 20 54 20 72 0
18 3 33 8 33 8 0 27 51 47 132 8 32 19 66 24 75 5 10 19 52 31 93 12 41 30 94
41 118 16 37 23 42 51 42 18 0 40 5 48 10 18 12 41 12 58 1z m1139 -466 c51
-25 53 -27 53 -65 0 -21 -4 -41 -9 -44 -5 -3 -11 -20 -14 -38 -3 -18 -24 -85
-47 -148 -23 -63 -46 -133 -51 -155 -6 -22 -17 -50 -25 -62 -8 -12 -14 -30
-14 -40 0 -22 -28 -98 -110 -303 -23 -58 -48 -117 -56 -132 -8 -14 -14 -32
-14 -40 0 -7 -14 -40 -30 -73 -16 -33 -30 -67 -30 -76 0 -9 -9 -28 -20 -42
-11 -14 -20 -29 -19 -34 2 -15 -13 -53 -22 -53 -5 0 -9 -8 -9 -18 0 -10 -6
-26 -14 -37 -7 -11 -17 -36 -21 -55 -4 -19 -17 -50 -29 -70 -12 -19 -28 -54
-36 -78 -7 -23 -19 -47 -26 -53 -8 -6 -16 -27 -20 -48 -4 -20 -15 -47 -24 -61
-10 -14 -21 -36 -25 -50 -4 -14 -25 -61 -46 -105 -22 -43 -39 -85 -39 -92 0
-7 -18 -48 -40 -90 -22 -43 -40 -84 -40 -92 0 -7 -11 -26 -24 -42 -13 -15 -26
-33 -28 -39 -2 -8 -11 -9 -28 -2 -14 5 -51 17 -82 26 -52 15 -58 20 -58 44 0
15 9 41 19 58 10 17 22 50 26 74 4 23 18 65 32 93 14 27 28 67 30 88 3 22 10
42 14 45 5 3 9 14 9 25 0 10 4 19 9 19 5 0 12 14 16 30 4 17 11 30 17 30 6 0
8 9 5 20 -3 11 -1 20 4 20 5 0 9 7 9 17 0 9 12 41 26 72 14 31 30 65 34 76 4
11 22 54 38 95 17 41 34 86 38 100 4 13 13 30 20 38 8 7 14 19 14 26 0 13 24
72 61 152 10 22 19 50 19 62 0 12 3 22 8 22 10 0 39 57 47 94 3 16 17 43 31
59 13 16 24 40 24 53 0 13 10 41 23 62 13 20 29 57 37 82 8 25 24 61 36 80 13
19 26 49 30 65 4 17 12 37 18 45 13 17 11 12 92 195 32 72 64 137 71 146 8 9
13 20 12 25 -4 16 51 124 63 124 6 0 35 -11 65 -25z m-3082 -1971 c116 -2 219
-9 230 -14 11 -5 81 -11 155 -14 149 -6 215 -13 245 -26 29 -12 166 -30 235
-30 32 0 61 -4 64 -9 3 -5 34 -12 68 -16 35 -4 65 -11 68 -16 3 -5 57 -11 120
-15 63 -3 131 -10 150 -16 66 -19 185 -39 285 -49 55 -5 123 -16 150 -24 83
-23 138 -35 173 -39 17 -1 35 -6 39 -9 3 -4 19 -7 34 -7 15 0 29 -5 31 -11 3
-10 37 -21 119 -38 20 -4 52 -18 71 -29 20 -12 48 -22 64 -22 16 0 74 -22 129
-50 55 -27 103 -50 107 -50 16 0 96 -62 136 -105 43 -46 44 -47 38 -103 -9
-92 -12 -101 -32 -130 -11 -15 -26 -41 -33 -58 -15 -37 -44 -64 -87 -82 -16
-7 -41 -23 -55 -35 -14 -12 -32 -26 -41 -32 -52 -34 -135 -92 -146 -102 -7 -7
-18 -13 -23 -13 -5 0 -22 -14 -38 -30 -18 -20 -43 -33 -67 -37 -36 -6 -45 -11
-79 -40 -7 -7 -21 -13 -29 -13 -9 0 -16 -4 -16 -10 0 -5 -6 -10 -12 -10 -7 0
-31 -19 -54 -43 -22 -23 -67 -64 -100 -91 -32 -27 -84 -74 -114 -104 -66 -66
-205 -182 -219 -182 -5 0 -11 -3 -13 -7 -7 -17 -78 -61 -173 -108 -55 -28
-106 -55 -113 -62 -7 -7 -29 -15 -49 -19 -20 -4 -48 -13 -62 -20 -14 -8 -33
-14 -42 -14 -8 0 -19 -4 -25 -9 -17 -17 -136 -30 -292 -32 -84 -1 -155 -5
-158 -10 -2 -4 -15 -4 -27 0 -12 5 -97 10 -187 11 -277 2 -782 39 -819 59 -11
6 -75 16 -143 22 -67 6 -128 15 -134 20 -7 5 -42 12 -78 16 -37 3 -69 10 -72
14 -3 5 -21 9 -40 9 -36 0 -112 15 -149 29 -55 22 -95 31 -133 31 -23 0 -51 5
-62 10 -11 6 -29 14 -40 20 -10 5 -37 13 -60 16 -22 4 -43 11 -46 15 -3 5 -17
9 -31 9 -25 0 -74 13 -118 31 -11 5 -47 15 -80 23 -54 14 -205 65 -278 95 -16
6 -34 11 -42 11 -8 0 -17 5 -20 10 -3 6 -13 10 -21 10 -7 0 -48 16 -90 35 -41
19 -81 35 -87 35 -16 0 -223 98 -377 179 -30 16 -80 41 -110 56 -30 15 -69 38
-87 51 -17 13 -38 24 -45 24 -8 0 -46 22 -84 49 -39 27 -80 52 -92 55 -11 4
-32 16 -46 27 -21 17 -26 29 -26 67 0 28 7 58 18 74 25 38 84 93 118 111 16 8
38 24 49 34 26 23 261 140 300 149 17 4 42 15 56 25 14 10 38 21 55 25 16 3
47 14 69 24 22 10 67 28 100 40 33 13 83 33 110 45 28 12 66 28 85 35 19 8 37
17 40 20 13 16 70 50 84 50 8 0 19 6 23 13 8 12 23 23 77 55 16 9 46 34 66 55
21 20 43 37 49 37 6 0 11 5 11 10 0 6 6 10 14 10 7 0 27 7 42 15 16 8 37 15
46 15 9 0 20 5 23 10 3 6 21 10 40 10 33 0 49 5 124 38 19 8 76 17 125 19 50
3 98 7 106 11 66 27 488 33 1155 16z m2559 -1440 c9 -3 16 -15 16 -27 0 -11 9
-45 19 -76 10 -31 25 -87 32 -126 6 -38 15 -77 19 -85 19 -39 33 -89 37 -127
3 -24 9 -43 13 -43 4 0 7 -6 7 -12 -2 -23 14 -121 29 -178 26 -95 42 -175 37
-182 -2 -5 3 -18 11 -30 9 -12 16 -39 16 -58 0 -20 5 -41 10 -46 6 -6 15 -49
20 -95 10 -93 16 -120 35 -164 7 -16 18 -75 25 -129 6 -55 17 -111 22 -125 6
-14 12 -33 14 -41 2 -8 7 -23 13 -35 5 -11 14 -60 20 -110 24 -201 33 -251 47
-272 8 -13 14 -46 14 -78 0 -30 4 -63 9 -73 10 -19 30 -132 41 -232 9 -75 38
-259 45 -277 2 -6 -7 -23 -21 -38 -13 -14 -24 -32 -24 -40 0 -25 -35 -75 -52
-75 -10 0 -18 -4 -18 -10 0 -18 -55 -11 -77 10 -12 10 -26 42 -32 70 -6 28
-20 70 -30 93 -11 23 -24 69 -30 102 -6 33 -16 62 -21 63 -6 2 -10 13 -10 25
0 12 -7 35 -15 51 -8 15 -15 37 -15 47 0 11 -7 36 -15 56 -8 20 -19 59 -25 87
-14 78 -40 167 -57 192 -18 28 -40 112 -35 139 1 12 22 32 47 47 62 37 80 70
80 141 0 50 -3 61 -25 78 -25 20 -30 20 -123 3 -30 -5 -33 -3 -45 28 -6 19
-12 46 -12 59 0 14 -4 29 -9 34 -9 10 -49 167 -58 230 -2 17 -9 39 -14 50 -12
27 -39 158 -33 166 2 4 -3 23 -11 43 -9 20 -16 60 -16 89 -1 28 -6 55 -11 58
-5 3 -13 45 -17 93 -5 48 -13 92 -20 99 -6 6 -11 31 -11 55 0 24 -6 58 -14 75
-8 18 -17 73 -20 122 -10 140 -17 190 -27 193 -30 11 40 95 89 107 15 3 44 20
64 36 53 42 84 54 112 43z m-339 -217 c7 -8 16 -35 20 -61 4 -25 11 -48 15
-51 5 -3 9 -41 9 -84 0 -44 5 -91 11 -106 5 -14 10 -44 10 -66 0 -21 5 -39 10
-39 6 0 10 -19 10 -43 0 -23 4 -57 9 -74 5 -18 11 -54 12 -80 1 -27 8 -57 16
-68 7 -11 13 -36 13 -55 0 -20 4 -40 9 -46 5 -5 15 -47 21 -94 6 -47 15 -87
18 -90 4 -3 7 -9 8 -15 0 -5 3 -21 6 -35 4 -14 16 -74 28 -135 12 -60 30 -130
40 -155 10 -25 22 -69 25 -96 l7 -51 -48 -32 c-64 -41 -155 -107 -163 -118 -3
-4 -18 -14 -33 -22 -16 -8 -28 -18 -28 -23 0 -4 -6 -8 -13 -8 -7 0 -29 -11
-48 -25 -19 -14 -45 -33 -59 -42 -37 -27 -162 -120 -185 -138 -10 -8 -25 -15
-32 -15 -7 0 -13 -4 -13 -10 0 -17 -75 -31 -105 -20 -14 5 -51 10 -81 10 -30
0 -54 4 -54 9 0 5 -44 12 -97 15 -248 16 -261 17 -276 34 -12 14 -13 36 -6
122 4 58 8 171 8 252 1 86 5 149 11 153 14 9 13 41 -2 65 -10 16 -10 22 -1 28
9 6 14 81 17 276 3 147 6 269 8 270 2 1 28 15 58 31 30 15 70 41 88 57 18 15
38 28 44 28 6 0 29 18 50 40 22 22 44 40 49 40 6 0 61 51 122 113 149 149 237
229 273 247 47 24 128 82 142 102 15 21 58 24 77 5z m-4851 -69 c22 -6 53 -20
67 -29 14 -10 40 -17 58 -17 18 1 36 -4 40 -11 4 -6 27 -15 51 -19 57 -10 70
-30 42 -70 -12 -16 -22 -35 -22 -42 0 -6 -6 -21 -12 -33 -15 -26 -36 -120 -37
-159 -1 -16 -5 -28 -10 -28 -5 0 -13 -15 -16 -32 -4 -18 -11 -37 -15 -43 -4
-5 -10 -37 -14 -70 -4 -32 -13 -73 -21 -89 -8 -16 -15 -39 -15 -51 0 -13 -7
-36 -15 -51 -8 -16 -18 -45 -21 -64 -3 -19 -12 -40 -19 -45 -12 -10 -16 -29
-31 -135 -4 -25 -10 -49 -14 -55 -4 -5 -11 -25 -15 -43 -3 -18 -14 -47 -23
-65 -9 -17 -18 -50 -20 -72 -2 -22 -9 -49 -17 -60 -12 -20 -61 -195 -73 -260
-2 -16 -8 -32 -12 -35 -10 -7 -50 -144 -50 -173 0 -13 -6 -30 -14 -36 -8 -6
-17 -32 -21 -57 -3 -25 -20 -71 -36 -102 -17 -33 -28 -70 -27 -87 1 -17 -9
-51 -21 -75 -13 -25 -27 -53 -32 -62 -5 -10 -9 -36 -9 -57 0 -22 -4 -43 -10
-46 -5 -3 -10 -15 -10 -25 0 -11 -9 -34 -20 -52 -11 -18 -20 -43 -20 -56 0
-12 -4 -30 -9 -40 -6 -9 -22 -55 -37 -102 -15 -47 -31 -87 -35 -90 -4 -3 -12
-23 -18 -45 -17 -65 -64 -200 -71 -205 -4 -3 -11 -23 -14 -46 -6 -36 -55 -133
-56 -110 0 5 -6 4 -12 -1 -39 -31 -182 -18 -193 17 -7 21 13 198 25 220 4 8
11 37 15 64 3 27 10 56 15 65 4 9 13 51 19 94 11 79 37 174 52 191 5 6 9 22 9
37 0 40 22 129 32 129 4 0 8 14 8 32 0 43 19 159 31 183 8 18 27 98 50 215 5
25 12 52 16 60 4 8 12 40 19 70 10 46 36 156 61 260 3 14 10 28 15 31 4 3 10
25 12 50 2 24 11 61 19 82 9 21 19 60 23 88 4 27 10 49 14 49 4 0 10 15 13 33
7 49 57 217 77 262 10 22 25 72 34 111 9 39 26 95 37 125 12 30 27 75 34 100
7 26 18 55 24 65 6 11 24 57 40 104 71 211 118 320 139 320 2 0 23 -5 46 -12z
m386 -146 c0 -4 19 -12 43 -19 46 -12 121 -38 152 -53 11 -6 29 -12 40 -13 21
-4 24 -5 120 -42 33 -13 80 -28 105 -35 46 -13 82 -26 112 -41 10 -5 25 -9 35
-9 20 0 70 -15 133 -41 25 -10 69 -20 98 -23 30 -3 79 -14 110 -25 31 -10 74
-22 95 -26 l39 -6 -5 -57 c-6 -88 -37 -266 -48 -276 -5 -6 -9 -40 -9 -76 0
-64 0 -65 -32 -78 -65 -27 -183 -86 -186 -94 -2 -4 -10 -8 -18 -8 -8 0 -14 -4
-14 -8 0 -5 -19 -15 -42 -22 -24 -7 -47 -17 -52 -22 -6 -4 -18 -8 -27 -8 -9 0
-22 -6 -28 -14 -7 -8 -34 -20 -62 -27 -27 -7 -49 -16 -49 -20 0 -4 -10 -11
-22 -15 -30 -9 -112 -46 -118 -54 -3 -3 -25 -14 -50 -24 -25 -10 -52 -22 -60
-27 -8 -5 -31 -16 -50 -25 -19 -8 -81 -37 -137 -65 -56 -27 -106 -49 -112 -49
-5 0 -11 -3 -13 -7 -1 -5 -19 -16 -38 -26 -19 -9 -48 -25 -65 -35 -16 -10 -49
-24 -72 -32 -24 -7 -43 -17 -43 -22 0 -4 -5 -8 -11 -8 -6 0 -43 -16 -83 -35
-40 -19 -80 -35 -88 -35 -43 0 -45 65 -6 143 11 22 17 41 15 44 -3 2 6 29 19
59 13 30 24 63 24 74 0 10 5 22 10 25 6 3 10 18 10 33 0 31 25 119 39 136 5 6
12 27 15 46 10 49 35 138 51 180 8 19 17 55 20 80 3 25 10 54 15 65 40 92 60
158 60 199 0 14 5 26 10 26 6 0 10 9 10 20 0 12 6 33 14 48 7 15 16 51 20 81
4 30 12 64 18 75 6 12 15 37 19 56 5 19 11 49 15 65 4 17 11 36 17 43 10 13
57 17 57 4z m1234 -361 c3 -5 23 -11 43 -14 264 -38 273 -41 273 -78 0 -11 -4
-19 -8 -19 -4 0 -16 -48 -26 -107 -20 -120 -33 -179 -47 -205 -5 -10 -9 -26
-9 -36 0 -10 -5 -23 -10 -28 -6 -6 -12 -22 -14 -35 -1 -13 -5 -31 -9 -39 -3
-8 -11 -46 -17 -85 -6 -38 -20 -83 -30 -100 -10 -16 -21 -59 -25 -95 -4 -36
-11 -70 -16 -75 -4 -6 -9 -35 -11 -65 l-3 -55 -136 -3 c-118 -2 -139 0 -157
15 -24 20 -24 12 13 238 8 52 9 86 3 98 -15 29 -1 51 51 75 27 12 53 22 58 22
12 0 53 55 53 71 0 18 -31 49 -48 49 -8 0 -31 12 -50 26 -33 26 -34 29 -29 76
4 28 11 56 17 63 8 9 8 15 0 20 -7 4 -7 12 0 25 6 11 16 70 22 132 6 62 15
119 21 126 11 14 83 17 91 3z m532 -90 c5 -4 70 -13 144 -20 74 -6 180 -16
235 -21 55 -6 269 -13 475 -16 429 -6 460 -8 460 -32 0 -10 7 -28 16 -41 13
-18 15 -35 9 -89 -4 -37 -9 -85 -11 -107 -1 -22 -9 -72 -18 -111 -8 -39 -15
-114 -16 -165 -2 -85 -4 -127 -13 -284 -2 -27 -4 -89 -5 -138 -2 -81 -4 -88
-24 -96 -27 -9 -214 5 -243 19 -11 5 -69 12 -130 15 -334 19 -394 24 -440 34
-46 11 -62 13 -112 11 -10 -1 -49 3 -88 9 -38 6 -162 15 -275 22 -113 6 -213
15 -222 20 -10 5 -31 9 -48 9 -16 0 -30 5 -30 10 0 6 -7 10 -15 10 -9 0 -18 6
-21 14 -6 16 22 150 37 178 5 10 9 36 9 57 0 22 5 43 10 46 6 4 8 11 4 16 -3
6 1 30 10 53 18 46 41 152 57 256 6 36 14 67 19 70 5 3 13 37 19 75 21 134 30
177 42 191 13 16 148 20 165 5z m1716 -281 c-5 -455 -23 -1012 -33 -1031 -7
-13 -6 -19 1 -19 7 0 8 -6 0 -19 -6 -12 -10 -106 -10 -235 0 -120 -4 -216 -9
-218 -5 -1 -12 -79 -16 -173 -4 -93 -8 -172 -10 -176 -4 -6 -26 -311 -45 -616
-5 -89 -14 -170 -19 -180 -5 -10 -12 -30 -16 -46 -3 -15 -10 -27 -16 -27 -7 0
-29 -16 -50 -35 -34 -31 -45 -35 -92 -35 -87 1 -91 8 -96 168 -14 526 -2 1568
20 1651 5 23 5 39 -3 48 -8 10 -8 24 0 51 12 41 21 136 23 255 1 43 6 80 10
83 5 3 9 72 9 154 0 88 4 151 10 155 6 3 10 26 10 50 0 24 4 46 9 49 4 3 11
45 15 93 4 48 10 128 14 176 5 61 12 91 22 97 8 6 74 9 145 8 l130 -3 -3 -225z
m-2382 -145 c11 -13 9 -20 -10 -40 -13 -14 -41 -30 -62 -37 -21 -6 -43 -17
-49 -25 -6 -7 -20 -13 -30 -13 -11 0 -19 -4 -19 -10 0 -5 -20 -15 -45 -21 -25
-6 -45 -15 -45 -20 0 -5 -5 -9 -10 -9 -16 0 -163 -70 -182 -87 -9 -8 -22 -13
-30 -11 -14 3 -111 -42 -116 -54 -2 -5 -10 -8 -17 -8 -8 0 -36 -13 -62 -30
-30 -19 -60 -30 -83 -30 -49 0 -96 -24 -146 -75 -33 -34 -53 -45 -95 -54 -29
-7 -63 -20 -74 -31 -11 -10 -42 -26 -70 -36 -27 -9 -61 -25 -74 -35 -13 -11
-32 -19 -41 -19 -10 0 -23 -7 -30 -15 -6 -8 -22 -17 -33 -21 -22 -6 -177 -78
-250 -116 -42 -22 -87 -18 -87 7 0 26 49 95 68 95 9 0 26 7 36 15 11 8 28 15
38 15 10 0 18 5 18 10 0 6 9 10 19 10 11 0 48 14 83 31 34 17 79 39 98 48 19
9 37 19 38 24 2 4 9 7 16 7 7 0 42 16 77 35 35 19 71 37 79 41 8 3 22 10 30
15 8 5 32 16 53 25 21 9 68 32 104 50 36 19 71 34 77 34 6 0 22 9 36 20 14 11
32 20 39 20 8 0 54 20 102 45 48 25 94 45 102 45 9 0 17 3 19 8 3 8 90 52 102
52 4 0 37 14 73 30 35 17 68 30 72 30 4 0 28 14 54 30 26 17 57 30 68 30 12 0
32 9 46 20 31 24 95 27 113 5z m-154 -251 c4 -29 2 -54 -6 -68 -6 -13 -10 -45
-8 -72 3 -47 2 -50 -29 -64 -23 -11 -33 -22 -33 -38 0 -23 -2 -23 -62 -18 -82
8 -127 15 -158 26 -41 14 -163 20 -177 9 -15 -13 -33 -3 -33 17 0 10 -7 13
-22 10 -65 -14 -97 -16 -102 -7 -8 13 4 19 80 46 35 12 82 21 105 21 30 -1 43
2 46 14 2 8 24 23 49 34 24 10 44 22 44 26 0 5 9 7 20 5 10 -2 63 18 117 44
126 61 147 69 155 65 4 -3 10 -25 14 -50z m4002 -124 c2 -32 -2 -37 -50 -67
-29 -18 -66 -46 -81 -63 -16 -16 -33 -30 -38 -30 -6 0 -22 -11 -36 -24 -14
-13 -37 -30 -52 -37 -14 -8 -33 -22 -42 -31 -9 -10 -20 -18 -25 -18 -8 0 -106
-70 -141 -100 -7 -5 -24 -15 -38 -22 -14 -6 -25 -15 -25 -19 0 -5 -31 -27 -70
-49 -38 -22 -70 -45 -70 -50 0 -5 -11 -15 -24 -22 -43 -24 -111 -71 -150 -105
-22 -18 -46 -33 -53 -33 -7 0 -13 -4 -13 -10 0 -5 -6 -10 -12 -10 -7 0 -47
-26 -88 -58 -42 -32 -90 -67 -108 -77 -18 -11 -32 -23 -32 -27 0 -5 -10 -13
-22 -19 -40 -18 -68 -35 -98 -63 -16 -14 -34 -26 -38 -26 -5 0 -17 -9 -27 -19
-9 -11 -34 -28 -55 -39 -54 -27 -70 -15 -70 53 0 47 3 55 22 61 22 7 65 35
158 107 27 20 53 37 57 37 4 0 19 12 33 26 45 46 123 103 178 131 29 15 58 35
64 46 5 10 31 29 56 41 58 27 116 65 162 105 19 17 41 31 48 31 6 0 12 5 12
10 0 6 6 10 13 10 10 0 64 38 114 80 7 5 17 10 23 10 5 0 10 5 10 10 0 6 5 10
11 10 8 0 47 26 114 77 59 45 85 63 93 63 6 0 12 3 14 8 2 4 28 24 58 44 30
21 71 52 90 68 29 26 42 30 80 28 44 -3 45 -4 48 -38z m-4553 -150 c39 -5 99
-13 135 -19 75 -12 361 -44 531 -61 63 -6 125 -14 137 -17 18 -4 21 -2 16 11
-6 16 3 17 97 11 57 -4 120 -11 139 -16 19 -5 82 -9 140 -9 59 0 110 -4 115
-9 6 -5 53 -12 105 -14 52 -2 147 -9 210 -15 63 -6 177 -16 254 -22 76 -6 142
-13 147 -16 5 -3 59 -7 121 -10 62 -3 120 -10 129 -15 10 -5 54 -9 98 -9 44 0
83 -4 86 -10 3 -5 21 -10 38 -10 63 0 108 -13 118 -32 6 -12 7 -24 2 -29 -5
-5 -60 -4 -128 2 -66 5 -154 12 -195 15 -41 3 -82 8 -90 11 -22 8 -101 15
-350 29 -63 3 -120 10 -126 15 -5 4 -66 11 -135 15 -68 4 -129 10 -135 15 -5
4 -35 8 -65 8 -115 1 -363 22 -376 33 -9 7 -40 9 -89 5 -53 -4 -129 2 -252 19
-98 13 -199 24 -227 24 -27 1 -84 7 -125 15 -41 9 -157 20 -257 25 -151 8
-189 13 -220 30 -21 11 -50 20 -65 20 -28 0 -35 9 -20 24 7 9 119 2 237 -14z
m3464 -320 c60 -6 87 -13 93 -24 5 -9 18 -16 28 -16 11 0 20 -5 20 -11 0 -8
-32 -10 -112 -5 -152 9 -308 25 -338 36 -14 4 -33 11 -43 14 -10 3 -16 9 -13
14 5 9 247 4 365 -8z m-12 -116 c4 -11 -1 -22 -13 -31 -10 -7 -28 -21 -39 -31
-11 -9 -47 -37 -80 -61 -33 -24 -89 -71 -124 -103 -35 -32 -70 -58 -77 -58
-27 0 -34 142 -10 210 11 33 12 47 4 58 -20 23 2 27 171 30 144 3 162 1 168
-14z"/>
</g>
</svg>
