<?xml version="1.0" standalone="no"?>
<!DOCTYPE svg PUBLIC "-//W3C//DTD SVG 20010904//EN"
 "http://www.w3.org/TR/2001/REC-SVG-20010904/DTD/svg10.dtd">
<svg version="1.0" xmlns="http://www.w3.org/2000/svg"
 width="1245.000000pt" height="954.000000pt" viewBox="0 0 1245.000000 954.000000"
 preserveAspectRatio="xMidYMid meet">
<metadata>
Created by potrace 1.16, written by Peter Selinger 2001-2019
</metadata>
<g transform="translate(0.000000,954.000000) scale(0.100000,-0.100000)"
fill="#000000" stroke="none">
<path d="M8247 8270 c-5 -19 -14 -20 -140 -20 -111 0 -136 -3 -141 -15 -4 -13
-38 -15 -215 -15 -200 0 -209 -1 -214 -20 -5 -19 -14 -20 -191 -20 -175 0
-187 -1 -198 -20 -12 -19 -24 -20 -205 -20 -191 0 -192 0 -195 -22 -3 -23 -4
-23 -214 -26 -201 -2 -212 -3 -217 -22 -5 -19 -14 -20 -196 -20 -161 0 -193
-2 -197 -15 -5 -13 -38 -15 -214 -15 -199 0 -208 -1 -213 -20 -5 -19 -14 -20
-197 -20 -183 0 -192 -1 -197 -20 -5 -19 -14 -20 -198 -20 -184 0 -193 -1
-198 -20 -5 -19 -14 -20 -215 -20 -201 0 -210 -1 -215 -20 -4 -17 -14 -20 -60
-20 -44 0 -54 -3 -53 -16 1 -13 -19 -15 -138 -17 -99 -1 -140 -6 -143 -14 -3
-9 19 -13 79 -16 75 -3 73 -3 -30 -5 -92 -2 -114 1 -118 13 -8 19 -44 20 -44
1 0 -20 -46 -26 -191 -26 -152 0 -177 -18 -31 -23 l97 -3 -111 -2 c-84 -2
-115 1 -130 13 -25 19 -44 19 -44 -1 0 -12 -7 -15 -29 -12 -17 2 -28 1 -25 -4
3 -4 -9 -8 -25 -8 -17 0 -31 -5 -31 -11 0 -7 -27 -9 -79 -7 -44 2 -77 0 -74
-4 9 -15 -85 -8 -101 7 -19 20 -52 19 -60 -1 -5 -13 -20 -15 -80 -12 -54 2
-72 0 -69 -9 3 -6 14 -13 26 -15 12 -2 -29 -7 -92 -11 -107 -8 -114 -7 -133
12 -22 25 -44 27 -52 5 -4 -10 -2 -13 7 -8 9 5 9 4 1 -5 -8 -9 -36 -12 -87 -9
-55 2 -73 0 -70 -9 3 -6 12 -14 21 -16 10 -3 -38 -5 -104 -6 -97 -1 -124 2
-134 14 -14 16 -50 21 -50 6 0 -5 6 -12 13 -15 6 -3 -5 -5 -25 -3 -20 2 -34
-1 -32 -5 3 -4 -49 -8 -115 -8 -138 0 -167 -17 -38 -23 70 -2 65 -3 -35 -5
-74 -1 -118 2 -118 8 0 6 -11 10 -25 10 -14 0 -25 -4 -25 -10 0 -5 -9 -10 -20
-10 -11 0 -20 -3 -20 -7 0 -5 -59 -8 -132 -8 -92 0 -132 -4 -135 -12 -3 -7 9
-13 29 -16 27 -3 25 -4 -13 -5 -26 -1 -53 4 -65 13 -21 16 -48 20 -40 6 8 -13
-30 -21 -100 -21 -42 0 -64 -4 -67 -13 -4 -10 4 -12 27 -10 31 2 31 2 -4 -7
-19 -5 -40 -7 -47 -5 -7 2 -15 -1 -19 -7 -5 -7 -2 -8 6 -3 9 6 11 4 5 -4 -4
-8 -20 -11 -36 -9 -15 3 -26 1 -23 -3 5 -9 -104 -16 -119 -7 -15 8 -11 -152 4
-167 6 -5 9 -4 9 5 1 12 3 11 10 -2 7 -11 11 -429 12 -1155 2 -626 4 -986 5
-800 2 185 7 337 12 337 4 0 11 -204 15 -452 3 -249 11 -689 16 -978 10 -574
14 -1810 5 -1818 -9 -9 -6 -18 14 -40 10 -12 25 -22 34 -22 8 0 17 -7 21 -15
3 -8 15 -15 26 -15 14 0 19 -4 14 -12 -4 -7 -3 -8 4 -4 6 4 21 2 33 -5 12 -6
19 -7 15 -1 -8 13 32 19 69 11 17 -4 22 -7 13 -8 -31 -2 -20 -21 12 -21 19 0
33 7 40 20 6 11 17 20 24 20 22 0 30 28 36 130 l6 95 2 -98 c2 -83 5 -98 20
-103 9 -3 25 -10 34 -15 10 -5 47 -9 83 -9 52 0 69 4 86 21 16 16 18 23 8 35
-8 10 -8 14 0 14 6 0 10 3 10 8 -6 34 3 1332 9 1329 4 -3 6 597 5 1334 l-3
1339 43 -1 c25 -1 32 -4 17 -6 -14 -2 -32 -14 -39 -26 -11 -18 -11 -20 0 -9 7
6 31 12 52 12 30 0 40 -4 44 -20 5 -17 14 -20 60 -20 46 0 56 -3 60 -20 6 -24
19 -26 27 -5 3 8 16 15 30 15 19 0 23 -4 19 -20 -4 -15 0 -20 16 -20 11 0 21
-5 21 -10 0 -6 16 -8 41 -4 39 7 41 6 31 -13 -10 -17 -8 -19 19 -15 22 3 29 0
29 -12 0 -9 5 -16 10 -16 6 0 10 7 10 15 0 11 10 15 33 14 30 -2 30 -2 5 -6
-42 -6 -33 -23 12 -23 27 0 42 -6 49 -17 6 -10 11 -12 11 -5 0 7 13 12 33 11
17 -1 24 -3 15 -6 -29 -7 -20 -23 13 -23 22 0 32 -5 36 -20 3 -11 14 -20 24
-20 11 0 19 -7 19 -15 0 -12 13 -15 56 -15 47 0 57 -3 61 -20 5 -17 14 -20 60
-20 46 0 56 -3 60 -20 4 -17 14 -20 54 -20 41 0 51 -4 65 -25 12 -19 25 -25
50 -25 27 0 34 -4 34 -20 0 -18 7 -20 60 -20 47 0 60 -3 60 -15 0 -11 12 -15
51 -15 42 0 52 -3 56 -19 3 -11 13 -21 24 -24 19 -5 19 -51 19 -2321 l0 -2316
39 0 c31 0 41 -4 46 -20 4 -14 15 -20 36 -20 17 0 32 -6 35 -15 4 -8 13 -15
20 -15 8 0 19 -11 24 -25 7 -18 17 -25 37 -25 17 0 33 -8 41 -20 17 -28 72
-28 72 0 0 18 7 20 55 20 50 0 56 2 65 25 9 22 15 25 64 25 39 0 55 4 60 15 4
11 20 15 56 15 l50 0 0 618 c0 339 4 622 8 628 4 6 15 13 24 17 17 6 18 99 20
1709 l3 1703 71 3 c62 2 73 6 77 22 5 19 15 20 181 20 150 0 176 2 176 15 0
13 24 15 155 15 148 0 155 1 155 20 0 19 7 20 169 20 l169 0 16 25 c16 25 18
25 165 25 140 0 149 1 154 20 5 19 14 20 175 20 161 0 170 1 175 20 5 19 14
20 155 20 124 0 151 3 156 15 4 13 34 15 181 15 168 0 175 1 175 20 0 19 7 20
154 20 145 0 154 1 159 20 5 19 14 20 174 20 165 0 168 0 178 23 10 21 15 22
159 24 124 1 151 4 158 17 8 14 34 16 177 16 162 0 169 1 174 20 5 19 12 21
79 18 l73 -3 3 -1372 c2 -1197 4 -1373 17 -1373 8 0 19 -9 25 -20 7 -13 21
-20 41 -20 22 0 32 -5 36 -20 4 -15 14 -20 40 -20 26 0 36 -5 40 -20 5 -18 14
-20 114 -20 98 0 110 2 121 20 11 17 24 20 85 20 66 0 73 2 73 20 0 13 7 20
20 20 20 0 20 8 22 1433 l3 1432 90 3 c66 2 92 7 98 17 6 12 39 15 176 15 160
0 169 1 174 20 5 19 14 20 176 20 l171 0 10 25 10 25 149 0 c140 0 149 1 154
20 5 19 14 20 181 20 170 0 176 1 176 20 0 20 5 20 178 18 l177 -3 3 -1982 c2
-1805 3 -1983 18 -1983 9 0 18 -9 21 -20 4 -17 14 -20 54 -20 44 0 51 -3 59
-25 8 -22 15 -25 60 -25 36 0 52 -4 56 -15 5 -12 24 -15 85 -15 64 0 79 3 79
15 0 11 12 15 50 15 39 0 52 4 57 18 9 23 23 32 54 32 18 0 28 6 32 20 3 11
12 20 21 20 15 0 16 210 16 2395 l0 2395 40 0 40 0 0 96 c0 87 -2 96 -20 101
-11 3 -20 14 -20 24 0 16 -8 19 -55 19 -40 0 -57 4 -61 15 -5 11 -23 15 -76
15 -61 0 -71 2 -75 20 -5 18 -14 20 -99 20 -83 0 -94 2 -104 20 -9 18 -21 20
-100 20 -79 0 -91 2 -100 20 -9 18 -21 20 -95 20 -74 0 -86 3 -97 20 -11 18
-24 20 -104 20 -83 0 -92 2 -97 20 -5 18 -14 20 -101 20 -89 0 -96 1 -96 20 0
19 -7 20 -90 20 -79 0 -91 2 -100 20 -9 18 -21 20 -101 20 -70 0 -91 3 -95 15
-5 12 -26 15 -99 15 -85 0 -94 2 -100 20 -6 18 -15 20 -96 20 -86 0 -90 1 -99
25 -9 24 -12 25 -105 25 -88 0 -95 1 -95 20 0 19 -7 20 -96 20 -87 0 -96 2
-101 20 -5 18 -14 20 -94 20 -70 0 -91 3 -95 15 -5 11 -21 15 -61 15 -46 0
-56 3 -60 20 -4 17 -14 20 -58 20 -44 0 -54 -3 -58 -20z m2743 -1668 c0 -450
-3 -1508 -7 -2350 l-6 -1531 -28 -6 c-15 -4 -30 -12 -32 -19 -3 -8 -28 -15
-62 -18 -33 -3 -60 -11 -65 -19 -5 -7 -13 -10 -17 -5 -4 4 -11 460 -14 1012
-5 796 -9 1008 -20 1020 -10 12 -14 224 -18 1023 -5 838 -8 1011 -20 1025 -11
13 -12 50 -7 194 12 332 17 437 21 459 6 27 21 30 163 32 l112 1 0 -818z
m-350 575 c0 -118 -3 -217 -6 -220 -4 -4 -6 -45 -5 -91 3 -99 13 -91 -134
-101 -49 -3 -108 -12 -130 -19 -22 -8 -103 -17 -179 -20 -77 -4 -149 -12 -160
-18 -12 -7 -82 -14 -156 -16 -74 -3 -137 -7 -140 -11 -19 -24 -66 -33 -208
-40 -86 -4 -166 -12 -177 -18 -11 -6 -84 -13 -162 -17 -84 -4 -153 -12 -170
-20 -16 -8 -81 -16 -153 -20 -69 -3 -154 -13 -188 -21 -34 -9 -74 -15 -88 -13
l-26 3 1 122 c1 67 -2 130 -8 140 -15 28 -33 297 -22 327 19 49 48 57 218 65
87 4 167 12 178 18 11 6 89 13 174 17 126 5 156 9 166 22 10 14 42 19 176 26
96 6 169 14 178 21 8 7 75 14 176 17 116 4 167 9 179 19 11 10 64 16 175 20
92 4 165 12 173 18 17 15 60 19 201 21 l117 2 0 -213z m-4287 -409 c4 -79 7
-196 7 -262 0 -65 5 -136 11 -156 10 -34 9 -40 -12 -61 -21 -21 -35 -24 -164
-31 -77 -4 -158 -14 -180 -22 -22 -8 -100 -17 -175 -21 -100 -4 -142 -10 -160
-22 -19 -13 -58 -18 -165 -21 -99 -3 -149 -9 -170 -20 -20 -10 -76 -18 -170
-22 -77 -4 -153 -12 -170 -18 -16 -6 -86 -13 -156 -15 -74 -4 -141 -12 -165
-20 -23 -9 -94 -18 -177 -21 -75 -4 -149 -11 -165 -17 -15 -6 -90 -14 -167
-18 -81 -4 -150 -12 -163 -20 -13 -7 -54 -15 -93 -18 l-69 -6 2 329 3 329 81
5 c45 3 89 11 97 18 10 8 71 16 174 21 87 4 167 12 178 18 11 6 85 13 165 16
91 4 162 12 189 22 25 8 77 15 122 15 44 0 81 5 84 11 4 6 30 10 59 9 29 -2
67 5 88 14 28 12 69 16 161 16 90 0 137 4 168 16 28 11 96 19 189 24 81 4 158
12 175 20 18 8 89 15 179 18 98 3 158 9 175 18 16 9 60 14 117 14 l91 0 6
-142z m-2563 -283 c0 -79 -5 -200 -10 -267 -7 -74 -15 -948 -21 -2203 -10
-2086 -17 -2679 -32 -2703 -12 -18 -92 -52 -122 -52 -15 0 -39 -8 -53 -19 -15
-10 -51 -21 -79 -24 l-53 -6 0 2693 0 2693 128 7 c70 4 131 11 137 17 5 5 31
9 57 9 l48 0 0 -145z m4608 -1451 l2 -1401 -31 -7 c-17 -3 -46 -6 -64 -6 -18
0 -38 -7 -45 -15 -7 -8 -29 -15 -50 -15 l-38 0 -5 508 c-3 279 -10 545 -15
592 -5 47 -11 450 -13 895 l-4 810 68 7 c37 3 73 11 80 16 17 14 47 20 82 19
l30 -2 3 -1401z m-7158 -889 c0 -461 -2 -840 -5 -843 -3 -3 -5 52 -5 121 0 78
-4 127 -10 127 -6 0 -10 -41 -10 -102 0 -250 -21 -1033 -28 -1040 -10 -10 5
1393 16 1512 5 52 9 85 10 73 1 -13 7 -23 12 -23 7 0 10 177 10 512 0 281 2
509 5 506 3 -3 5 -382 5 -843z"/>
</g>
</svg>
