<?xml version="1.0" standalone="no"?>
<!DOCTYPE svg PUBLIC "-//W3C//DTD SVG 20010904//EN"
 "http://www.w3.org/TR/2001/REC-SVG-20010904/DTD/svg10.dtd">
<svg version="1.0" xmlns="http://www.w3.org/2000/svg"
 width="962.000000pt" height="791.000000pt" viewBox="0 0 962.000000 791.000000"
 preserveAspectRatio="xMidYMid meet">
<metadata>
Created by potrace 1.16, written by Peter Selinger 2001-2019
</metadata>
<g transform="translate(0.000000,791.000000) scale(0.100000,-0.100000)"
fill="#000000" stroke="none">
<path d="M6789 7350 c-37 -3 -85 -16 -110 -29 -52 -27 -185 -162 -242 -245
-41 -60 -147 -279 -147 -303 0 -5 -13 -40 -30 -78 -21 -49 -30 -87 -30 -126 0
-55 1 -58 45 -93 25 -21 45 -44 45 -51 0 -8 6 -18 13 -22 28 -18 41 -65 41
-151 0 -92 -25 -208 -49 -226 -7 -6 -18 -37 -25 -68 -7 -37 -16 -58 -25 -58
-8 0 -18 -7 -23 -15 -12 -23 -92 -10 -92 15 0 14 -30 23 -172 53 -95 20 -227
48 -293 62 -93 20 -124 23 -138 15 -11 -6 -37 -10 -59 -9 -21 2 -42 -2 -46 -8
-4 -6 -23 -13 -42 -16 -19 -3 -53 -10 -75 -17 -22 -6 -53 -14 -70 -17 -16 -3
-45 -17 -63 -30 -19 -15 -41 -23 -52 -20 -11 3 -24 -1 -31 -9 -6 -8 -18 -14
-25 -14 -8 0 -14 -4 -14 -10 0 -5 -16 -10 -35 -10 -19 0 -35 -4 -35 -10 0 -5
-9 -10 -20 -10 -11 0 -20 -7 -20 -15 0 -8 -9 -15 -20 -15 -11 0 -20 -4 -20
-10 0 -5 -6 -10 -14 -10 -7 0 -19 -7 -26 -15 -7 -8 -23 -15 -35 -15 -28 0
-111 -46 -119 -65 -3 -8 -12 -15 -20 -15 -7 0 -16 -7 -20 -15 -4 -10 -14 -13
-34 -9 -17 4 -32 1 -36 -5 -4 -6 -16 -11 -27 -11 -11 0 -19 -7 -19 -16 0 -11
-8 -15 -30 -12 -19 2 -34 -3 -39 -11 -6 -9 -19 -12 -40 -8 -24 5 -31 3 -31 -9
0 -13 -9 -14 -55 -9 -38 5 -55 4 -55 -4 0 -6 -16 -11 -35 -11 -19 0 -35 -5
-35 -11 0 -8 -16 -10 -50 -5 -35 5 -50 3 -50 -5 0 -8 -16 -10 -54 -5 -36 4
-57 2 -62 -5 -4 -8 -27 -9 -69 -5 -46 5 -64 3 -67 -6 -4 -10 -20 -10 -81 0
-59 10 -80 10 -95 1 -16 -10 -36 -9 -103 4 -100 20 -126 21 -131 5 -4 -10 -26
-9 -96 5 -74 14 -95 15 -111 5 -16 -10 -43 -8 -142 11 -89 17 -124 21 -127 13
-6 -18 -43 -15 -210 18 -122 24 -156 28 -171 18 -15 -9 -38 -8 -104 3 -75 14
-85 14 -94 0 -8 -13 -26 -11 -148 13 -116 23 -142 26 -162 15 -19 -10 -40 -9
-119 5 -77 15 -100 16 -118 6 -19 -10 -42 -8 -122 8 -88 18 -101 19 -116 5
-14 -12 -26 -13 -75 -3 -32 6 -66 14 -75 16 -12 4 -18 0 -18 -11 0 -14 -7 -15
-45 -9 -30 4 -50 2 -60 -6 -10 -8 -30 -10 -59 -6 -29 5 -47 3 -51 -5 -5 -7
-24 -9 -56 -5 -37 5 -49 3 -49 -6 0 -17 -46 -38 -81 -38 -15 0 -31 -4 -34 -10
-3 -5 -16 -10 -29 -10 -25 0 -76 -21 -76 -32 0 -5 -9 -8 -20 -8 -11 0 -20 -7
-20 -15 0 -8 -9 -15 -20 -15 -14 0 -20 -7 -20 -21 0 -11 -13 -33 -30 -47 -16
-15 -30 -36 -30 -47 0 -25 -10 -40 -31 -47 -9 -4 -19 -23 -23 -46 -4 -27 -12
-41 -24 -44 -14 -4 -21 -18 -25 -49 -3 -24 -2 -46 2 -49 4 -3 10 -12 13 -21 4
-9 29 -19 68 -27 53 -9 65 -9 77 4 8 8 23 13 32 10 9 -2 31 -8 49 -11 22 -5
36 -15 42 -30 6 -16 19 -24 50 -29 29 -5 44 -12 47 -25 4 -14 18 -21 52 -26
53 -7 65 -13 73 -36 4 -9 23 -19 46 -23 27 -4 41 -12 44 -24 4 -13 18 -21 48
-26 30 -5 43 -12 47 -26 4 -14 17 -21 50 -26 30 -4 55 -16 74 -35 16 -16 41
-29 54 -29 15 0 31 -9 40 -24 9 -14 29 -26 48 -29 19 -3 71 -34 122 -72 213
-158 379 -255 930 -537 220 -113 432 -221 470 -240 76 -36 242 -126 566 -304
113 -63 231 -125 261 -138 31 -14 98 -48 149 -77 275 -153 634 -325 868 -415
133 -52 419 -180 441 -198 20 -16 184 -96 197 -96 5 0 18 -9 28 -20 10 -11 25
-20 34 -20 35 0 91 -22 91 -35 0 -8 12 -17 28 -21 54 -12 62 -16 72 -35 6 -10
20 -19 31 -19 28 0 59 -18 59 -35 0 -15 13 -20 73 -31 21 -3 42 -14 48 -25 6
-12 26 -21 51 -25 28 -5 42 -13 46 -26 2 -10 16 -21 31 -24 60 -13 91 -26 91
-39 0 -7 15 -16 34 -19 19 -4 40 -14 47 -23 8 -9 37 -27 64 -39 28 -13 68 -34
90 -47 22 -13 76 -43 120 -67 44 -23 111 -60 148 -82 38 -22 103 -55 145 -74
43 -19 88 -40 102 -48 14 -8 40 -17 59 -21 20 -4 35 -14 38 -25 3 -13 19 -20
50 -25 60 -9 73 -14 73 -31 0 -7 12 -16 28 -20 54 -12 61 -15 67 -34 4 -13 20
-20 56 -25 37 -5 54 -13 65 -30 9 -13 30 -27 47 -31 18 -3 41 -17 53 -29 14
-15 38 -25 72 -30 41 -5 52 -11 52 -25 0 -15 10 -20 45 -26 35 -5 45 -10 45
-25 0 -14 10 -20 39 -25 22 -4 48 -16 59 -29 12 -14 37 -25 66 -29 37 -6 49
-13 56 -31 6 -17 20 -25 48 -30 26 -4 42 -13 45 -24 3 -13 22 -21 66 -30 48
-9 61 -16 61 -30 0 -14 10 -20 45 -25 34 -6 45 -12 45 -25 0 -15 11 -20 48
-26 56 -8 82 -21 82 -39 0 -8 16 -16 39 -20 25 -4 44 -14 54 -30 12 -18 29
-26 68 -31 38 -5 53 -12 56 -25 3 -10 11 -21 19 -24 8 -3 14 -12 14 -21 0 -8
5 -15 10 -15 6 0 10 -9 10 -20 0 -11 7 -20 15 -20 8 0 15 -9 15 -20 0 -11 4
-20 9 -20 5 0 18 -17 28 -37 16 -34 23 -39 70 -47 66 -11 114 11 160 74 57 77
63 100 61 212 -1 57 -6 108 -11 115 -5 7 -6 30 -2 52 4 24 2 41 -4 46 -6 3
-11 22 -11 41 0 19 -4 34 -10 34 -5 0 -10 16 -10 35 0 19 -4 35 -10 35 -5 0
-10 15 -10 34 0 18 -7 39 -15 46 -11 9 -14 22 -10 42 4 16 2 28 -4 28 -5 0
-18 17 -27 38 -10 20 -24 41 -31 45 -7 4 -13 15 -13 23 0 25 -111 247 -155
310 -41 57 -176 187 -257 247 -20 15 -40 36 -43 47 -3 11 -13 20 -21 20 -8 0
-14 9 -14 20 0 11 -7 20 -15 20 -8 0 -15 9 -15 20 0 14 -7 20 -21 20 -12 0
-23 8 -26 20 -3 11 -12 20 -19 20 -8 0 -14 9 -14 20 0 11 -7 20 -15 20 -8 0
-15 6 -15 13 0 8 -7 28 -16 45 -11 23 -22 32 -41 32 -16 0 -27 7 -30 20 -3 11
-9 20 -14 20 -5 0 -9 9 -9 20 0 11 -7 20 -15 20 -8 0 -15 9 -15 20 0 11 -4 20
-9 20 -5 0 -11 9 -14 20 -3 14 -14 20 -31 20 -19 0 -26 5 -26 20 0 11 -4 20
-10 20 -5 0 -17 17 -26 38 -10 20 -28 48 -41 61 -22 23 -79 102 -180 248 -23
34 -53 84 -67 112 -25 48 -118 178 -191 264 -84 100 -220 283 -267 359 -159
260 -169 279 -180 341 -5 34 -20 100 -33 147 -13 47 -28 132 -35 190 -6 58
-20 137 -30 175 -11 39 -29 118 -40 178 -26 129 -71 267 -105 319 -14 21 -25
42 -25 48 0 5 -4 10 -10 10 -5 0 -10 7 -10 15 0 8 -4 15 -8 15 -5 0 -17 18
-28 40 -10 22 -25 40 -31 40 -7 0 -13 7 -13 16 0 9 -8 23 -17 30 -10 7 -18 18
-18 26 0 7 -11 15 -24 16 -13 2 -26 12 -28 23 -3 10 -12 19 -19 19 -8 0 -14 9
-14 19 0 13 -9 21 -28 26 -21 4 -32 16 -42 41 -10 25 -22 37 -41 41 -15 3 -29
13 -32 23 -3 10 -22 21 -51 29 -29 7 -46 17 -46 26 0 9 -11 20 -25 25 -14 5
-25 16 -25 25 0 8 -7 15 -15 15 -22 0 -19 46 6 86 11 18 31 61 45 96 13 34 27
64 32 67 9 8 62 172 62 195 0 10 -9 20 -20 23 -11 3 -20 12 -20 19 0 8 -4 14
-10 14 -5 0 -10 13 -10 30 0 41 -18 78 -62 127 -26 29 -38 52 -38 72 0 16 -5
33 -11 37 -12 7 -9 49 11 142 9 40 16 52 30 52 14 0 20 11 25 51 5 35 14 57
31 72 13 11 24 29 24 39 0 28 18 58 35 58 8 0 15 3 16 8 5 49 19 80 39 85 13
3 20 14 20 29 0 18 10 27 40 41 27 11 40 23 40 36 0 25 50 61 83 61 14 0 29 5
33 11 8 14 91 5 151 -16 43 -15 93 -54 93 -74 0 -6 19 -23 43 -37 94 -58 152
-133 169 -218 19 -96 10 -156 -21 -156 -34 0 -61 -47 -61 -106 0 -64 23 -94
70 -94 41 0 96 24 108 47 16 30 -2 369 -22 422 -17 46 -60 110 -83 124 -7 4
-13 15 -13 23 0 8 -13 17 -30 21 -21 4 -30 11 -30 24 0 13 -7 19 -24 19 -14 0
-27 4 -31 10 -3 5 -38 32 -77 60 -78 54 -80 55 -219 40z m-4879 -2259 c5 7 32
7 89 -1 62 -8 86 -8 96 0 8 7 20 8 27 4 6 -4 197 -9 422 -11 226 -1 504 -3
618 -4 131 -1 205 -5 202 -11 -4 -6 3 -5 15 2 23 12 142 10 151 -2 3 -4 23 -3
44 3 21 6 50 8 65 4 14 -4 154 -5 311 -4 157 1 362 3 457 3 94 0 169 4 167 8
-3 4 10 8 28 8 18 0 28 -4 22 -8 -7 -4 19 -8 57 -9 38 -1 69 2 69 8 0 5 12 9
28 9 20 0 23 -3 12 -10 -12 -8 -12 -10 4 -16 11 -4 21 -2 26 6 7 11 37 9 94
-7 14 -4 18 -1 13 11 -8 20 5 20 100 2 40 -7 70 -10 67 -5 -11 19 46 19 131 0
49 -11 91 -18 94 -15 2 2 -2 4 -10 4 -12 0 -12 2 0 9 15 10 77 8 124 -4 21 -6
27 -4 27 9 0 19 7 19 90 1 80 -18 93 -18 84 -3 -5 8 10 9 62 3 38 -4 85 -8
104 -7 62 1 78 -5 75 -32 -2 -17 1 -23 10 -20 9 4 11 -2 8 -20 -6 -30 11 -35
27 -8 9 15 10 14 8 -8 -3 -34 9 -50 38 -50 13 0 24 -6 24 -13 0 -21 30 -77 41
-77 5 0 9 -9 9 -20 0 -11 5 -20 10 -20 6 0 10 -7 10 -15 0 -9 7 -18 15 -21 8
-4 15 -12 15 -20 0 -8 5 -14 10 -14 6 0 10 -9 10 -20 0 -11 7 -20 15 -20 8 0
15 -9 15 -20 0 -11 7 -20 15 -20 8 0 15 -9 15 -20 0 -11 5 -20 10 -20 6 0 15
-11 20 -25 5 -14 14 -25 19 -25 5 0 12 -8 15 -18 4 -10 20 -34 36 -52 17 -19
30 -44 30 -56 0 -13 8 -24 19 -27 11 -3 22 -17 26 -36 4 -17 15 -36 26 -41 10
-6 19 -17 19 -25 0 -8 7 -15 15 -15 8 0 19 -9 25 -19 5 -11 23 -34 39 -51 16
-18 35 -44 42 -58 8 -15 20 -31 26 -35 7 -4 13 -15 13 -22 0 -8 5 -15 10 -15
6 0 10 -9 10 -20 0 -11 7 -23 15 -26 8 -4 15 -15 15 -25 0 -10 5 -19 10 -19 6
0 10 -4 10 -10 0 -15 35 -47 47 -43 6 2 8 -6 6 -20 -3 -14 0 -28 6 -31 6 -4
11 -2 11 3 0 6 5 11 10 11 6 0 10 -9 10 -21 0 -11 5 -17 10 -14 6 3 13 -2 17
-12 3 -10 12 -22 20 -26 7 -4 13 -13 13 -18 0 -6 -4 -8 -9 -5 -4 3 -6 -6 -3
-20 2 -13 13 -29 22 -34 10 -6 21 -23 25 -40 4 -16 10 -29 13 -29 22 3 52 -16
52 -32 0 -11 6 -19 13 -19 6 0 19 -15 26 -32 8 -18 23 -39 33 -46 10 -7 18
-20 18 -28 0 -8 5 -14 10 -14 6 0 10 -9 10 -20 0 -11 7 -20 15 -20 8 0 15 -9
15 -20 0 -11 5 -20 10 -20 6 0 10 -7 10 -15 0 -9 6 -18 13 -21 8 -3 20 -20 27
-39 14 -37 25 -44 33 -22 3 6 6 2 6 -10 1 -16 6 -21 16 -17 10 4 15 0 15 -15
0 -12 7 -24 15 -27 10 -4 13 -13 10 -25 -5 -15 -3 -17 11 -12 14 5 16 2 12
-15 -5 -17 -2 -22 12 -22 22 0 39 -22 22 -28 -15 -5 -3 -32 15 -32 8 0 12 -4
9 -8 -3 -5 3 -14 13 -21 12 -9 16 -22 13 -37 -3 -19 -1 -23 11 -18 17 6 67
-53 67 -79 0 -10 7 -17 15 -17 8 0 15 -9 15 -20 0 -11 7 -20 15 -20 8 0 15 -9
15 -20 0 -11 5 -20 10 -20 6 0 10 -7 10 -15 0 -8 9 -19 20 -25 11 -6 20 -16
20 -22 0 -6 11 -26 25 -44 14 -18 25 -36 25 -40 0 -4 9 -14 20 -24 11 -9 29
-37 39 -61 11 -24 29 -51 40 -59 12 -8 21 -25 21 -38 0 -13 4 -21 9 -18 12 8
34 -21 26 -34 -3 -5 2 -10 12 -10 12 0 33 -26 61 -75 40 -69 257 -382 323
-466 16 -20 29 -44 29 -53 0 -9 6 -16 14 -16 8 0 16 -6 19 -14 3 -7 42 -59 87
-115 84 -105 93 -131 44 -131 -17 0 -28 6 -31 20 -6 23 -31 27 -39 6 -3 -8
-12 -12 -20 -9 -11 4 -12 9 -3 19 9 11 7 14 -9 14 -32 0 -52 11 -52 29 -1 14
-2 14 -11 -2 -13 -23 -29 -22 -29 2 0 11 -9 21 -22 24 -13 4 -27 16 -33 28
-12 27 -35 37 -35 15 0 -23 -17 -20 -23 4 -3 14 -14 20 -31 20 -15 0 -29 7
-32 15 -5 11 -10 13 -19 5 -15 -13 -30 3 -20 20 4 6 -5 10 -20 10 -18 0 -29 6
-32 19 -4 16 -9 18 -29 11 -14 -6 -24 -6 -24 -1 0 5 6 11 12 14 7 2 -11 7 -39
11 -45 7 -53 11 -53 29 0 20 0 20 -15 1 -14 -19 -15 -19 -21 4 -4 15 -14 22
-30 22 -18 0 -24 6 -25 23 -1 16 -2 18 -6 5 -2 -10 -11 -18 -20 -18 -12 0 -13
3 -3 15 10 12 7 15 -17 21 -15 4 -40 19 -56 34 -18 18 -43 30 -72 34 -33 5
-45 12 -45 24 0 14 -2 14 -9 3 -10 -16 -31 -6 -31 15 0 8 -10 14 -25 14 -18 0
-25 5 -25 19 0 14 -6 17 -25 13 -15 -2 -25 0 -25 7 0 6 -9 11 -21 11 -30 0
-59 18 -60 38 0 9 -3 12 -5 6 -7 -16 -82 26 -88 48 -2 11 -10 16 -19 12 -13
-5 -72 22 -107 50 -8 6 -32 19 -52 29 -21 9 -38 21 -38 26 0 4 -12 11 -27 14
-16 3 -37 14 -48 24 -12 10 -63 40 -115 67 -291 149 -350 177 -405 191 -33 9
-61 20 -63 25 -2 5 -10 6 -18 3 -9 -3 -14 0 -12 8 2 9 -8 15 -25 17 -16 2 -31
10 -34 19 -5 12 -7 12 -14 1 -7 -10 -9 -11 -9 0 0 7 -4 10 -10 7 -5 -3 -10 1
-10 9 0 9 -7 16 -16 16 -8 0 -29 13 -45 29 -20 20 -44 32 -74 37 -32 4 -45 11
-45 23 0 13 -2 13 -9 2 -10 -16 -31 -6 -31 15 0 8 -10 14 -25 14 -16 0 -25 6
-25 16 0 13 -7 15 -30 11 -29 -6 -43 7 -17 16 6 2 -9 7 -35 11 -40 6 -48 11
-49 29 -1 17 -2 18 -6 5 -2 -10 -11 -18 -20 -18 -9 0 -13 6 -9 15 4 11 -3 17
-24 22 -21 4 -30 11 -30 24 0 11 -7 19 -15 19 -8 0 -15 -4 -15 -10 0 -5 -5
-10 -10 -10 -6 0 -10 8 -8 17 2 13 -7 19 -38 25 -27 6 -44 15 -47 27 -3 12
-18 20 -46 25 -22 3 -41 11 -41 17 0 5 -4 7 -10 4 -5 -3 -10 -1 -10 4 0 6 5
11 12 11 6 0 8 3 4 7 -4 5 -14 -1 -22 -11 -14 -19 -15 -19 -18 6 0 7 -10 14
-21 17 -11 2 -25 10 -31 19 -8 10 -19 13 -39 8 -22 -6 -26 -4 -22 8 5 12 0 16
-18 16 -13 0 -30 7 -39 15 -9 10 -17 11 -21 5 -9 -14 -27 -1 -21 15 3 9 -6 16
-25 20 -20 5 -31 14 -35 31 -8 30 -20 31 -27 3 -6 -24 -29 -16 -25 9 2 11 -8
18 -32 24 -19 5 -42 10 -50 12 -8 3 -19 5 -24 5 -5 1 -3 8 4 16 11 13 8 15
-13 15 -14 0 -33 7 -42 16 -8 9 -22 13 -30 10 -8 -3 -15 -1 -15 4 0 5 8 10 18
13 9 2 -9 7 -41 12 -35 4 -61 13 -64 22 -4 10 -9 11 -19 2 -11 -9 -14 -7 -14
10 0 16 -6 21 -25 21 -13 0 -29 8 -34 18 -6 9 -11 11 -11 5 0 -22 -30 -14 -30
7 0 11 -7 20 -15 20 -9 0 -28 12 -42 28 -17 18 -27 23 -30 15 -6 -17 -23 -16
-23 1 0 15 -21 26 -51 26 -10 0 -19 4 -19 9 0 5 -8 8 -17 7 -11 0 -17 6 -17
17 1 11 -5 17 -21 17 -12 0 -28 7 -35 15 -14 17 -35 21 -25 5 9 -15 -11 -12
-24 4 -9 11 -9 15 1 18 7 3 -8 8 -34 12 -27 4 -48 11 -48 16 0 4 -8 7 -17 6
-10 0 -18 6 -18 14 0 9 -11 16 -27 18 -16 2 -30 11 -33 23 -7 22 -16 24 -34 7
-11 -11 -13 -10 -8 5 5 13 1 17 -18 17 -13 0 -26 4 -30 9 -3 5 -19 12 -35 16
-17 4 -30 13 -30 21 0 8 -13 17 -30 21 -16 3 -30 9 -30 13 0 5 -10 6 -22 2
-17 -4 -20 -2 -15 12 5 13 0 18 -24 23 -17 3 -33 12 -36 20 -4 10 -14 12 -31
8 -19 -5 -23 -3 -19 8 4 11 -5 16 -34 21 -21 3 -39 10 -39 15 0 5 -8 8 -17 7
-10 0 -17 4 -16 11 1 6 -11 15 -28 18 -19 4 -33 15 -36 26 -6 20 -23 27 -23 9
0 -5 -4 -10 -10 -10 -5 0 -10 7 -10 15 0 9 -6 17 -12 19 -80 23 -98 31 -94 43
4 9 -3 13 -20 13 -14 0 -35 11 -47 24 -12 13 -38 27 -57 30 -50 11 -101 36
-95 47 4 5 -3 9 -14 9 -26 0 -93 35 -84 44 3 3 -1 6 -10 6 -28 0 -66 22 -61
35 3 7 -2 15 -11 19 -9 3 -13 2 -10 -4 3 -6 0 -10 -8 -10 -8 0 -17 7 -21 15
-3 8 -16 15 -29 15 -13 0 -36 11 -51 25 -15 14 -35 25 -46 25 -10 0 -27 11
-38 25 -11 14 -28 25 -38 25 -9 0 -51 19 -93 42 -42 23 -107 58 -146 78 -177
93 -245 132 -245 142 0 6 -3 9 -6 5 -7 -7 -75 26 -167 81 -70 42 -218 116
-320 161 -70 31 -83 53 -37 59 13 2 29 10 36 17 11 10 26 10 86 -1 50 -10 74
-11 78 -3z"/>
</g>
</svg>
