<?xml version="1.0" standalone="no"?>
<!DOCTYPE svg PUBLIC "-//W3C//DTD SVG 20010904//EN"
 "http://www.w3.org/TR/2001/REC-SVG-20010904/DTD/svg10.dtd">
<svg version="1.0" xmlns="http://www.w3.org/2000/svg"
 width="1095.000000pt" height="1125.000000pt" viewBox="0 0 1095.000000 1125.000000"
 preserveAspectRatio="xMidYMid meet">
<metadata>
Created by potrace 1.16, written by Peter Selinger 2001-2019
</metadata>
<g transform="translate(0.000000,1125.000000) scale(0.100000,-0.100000)"
fill="#000000" stroke="none">
<path d="M4590 10405 c0 -12 -14 -15 -65 -15 -58 0 -65 -2 -65 -20 0 -18 -7
-20 -70 -20 -56 0 -70 -3 -70 -15 0 -11 -12 -15 -51 -15 -42 0 -52 -3 -56 -20
-3 -11 -12 -20 -19 -20 -8 0 -14 -7 -14 -15 0 -10 -11 -15 -35 -15 -28 0 -35
-4 -35 -20 0 -14 -7 -20 -21 -20 -15 0 -19 -5 -15 -15 4 -11 -2 -15 -28 -15
-25 0 -35 -5 -39 -20 -3 -11 -12 -20 -21 -20 -9 0 -16 -7 -16 -15 0 -8 -7 -15
-15 -15 -8 0 -15 -7 -15 -16 0 -9 -9 -18 -20 -21 -11 -3 -20 -12 -20 -19 0 -8
-7 -14 -15 -14 -8 0 -15 -7 -15 -16 0 -9 -9 -18 -20 -21 -11 -3 -20 -12 -20
-19 0 -8 -7 -14 -15 -14 -8 0 -15 -7 -15 -15 0 -8 -7 -15 -16 -15 -9 0 -18 -9
-21 -20 -3 -11 -12 -20 -19 -20 -9 0 -14 -12 -14 -35 0 -28 -4 -35 -20 -35
-11 0 -20 -7 -20 -15 0 -8 -7 -15 -15 -15 -10 0 -15 -11 -15 -35 0 -24 -5 -35
-15 -35 -11 0 -15 -12 -15 -51 0 -42 -3 -52 -20 -56 -15 -4 -20 -14 -20 -39 0
-26 -4 -32 -15 -28 -12 5 -15 -6 -15 -65 0 -64 -2 -71 -20 -71 -19 0 -20 -7
-20 -260 0 -253 1 -260 20 -260 19 0 20 -7 20 -90 0 -75 2 -88 15 -84 12 5 15
-2 15 -29 0 -26 5 -36 20 -40 15 -4 20 -14 20 -36 0 -21 5 -31 15 -31 10 0 15
-11 15 -35 0 -24 5 -35 15 -35 10 0 15 -11 15 -35 0 -28 4 -35 20 -35 16 0 20
-7 20 -35 0 -24 5 -35 15 -35 10 0 15 -11 15 -35 0 -28 4 -35 20 -35 16 0 20
-7 20 -35 0 -24 5 -35 15 -35 8 0 15 -7 15 -15 0 -8 9 -15 20 -15 16 0 20 -7
20 -35 0 -24 5 -35 15 -35 8 0 15 -9 15 -20 0 -13 7 -20 20 -20 11 0 20 -7 20
-15 0 -8 7 -15 15 -15 10 0 15 -11 15 -35 0 -28 4 -35 20 -35 13 0 20 -7 20
-20 0 -11 7 -20 15 -20 8 0 15 -7 15 -15 0 -8 8 -15 18 -15 15 0 17 -6 14 -35
-4 -30 -1 -35 17 -35 17 0 21 -6 21 -35 0 -24 5 -35 15 -35 10 0 15 -11 15
-35 0 -28 4 -35 20 -35 16 0 20 -7 20 -35 0 -24 5 -35 15 -35 12 0 15 -14 15
-66 0 -57 3 -67 20 -71 19 -5 20 -14 20 -209 0 -197 -1 -204 -20 -204 -19 0
-20 -7 -20 -120 0 -100 -2 -120 -15 -120 -12 0 -15 -14 -15 -70 0 -63 -2 -70
-20 -70 -18 0 -20 -7 -20 -55 0 -44 -3 -53 -15 -49 -13 5 -15 -6 -15 -69 0
-66 -2 -75 -20 -80 -14 -3 -20 -14 -20 -31 0 -19 5 -26 20 -26 16 0 20 -7 20
-35 0 -24 5 -35 15 -35 8 0 15 -7 15 -16 0 -9 9 -18 20 -21 11 -3 20 -14 20
-24 0 -12 -7 -19 -20 -19 -18 0 -20 -7 -20 -70 0 -56 -3 -70 -15 -70 -11 0
-15 -12 -15 -49 0 -41 -3 -50 -21 -54 -18 -5 -20 -12 -18 -54 3 -39 0 -48 -14
-51 -13 -3 -17 -14 -17 -53 0 -37 -4 -49 -15 -49 -11 0 -15 -12 -15 -50 0 -43
-3 -50 -20 -50 -18 0 -20 -7 -20 -70 0 -54 -3 -70 -14 -70 -11 0 -16 -15 -18
-52 -2 -39 -7 -53 -18 -53 -11 0 -16 -14 -18 -52 -2 -38 -7 -53 -18 -53 -10 0
-14 -13 -14 -50 0 -43 -3 -50 -20 -50 -16 0 -20 -7 -20 -35 0 -33 -2 -35 -35
-35 -28 0 -35 -4 -35 -20 0 -16 -7 -20 -35 -20 -24 0 -35 -5 -35 -15 0 -10
-10 -15 -29 -15 -20 0 -30 -6 -34 -20 -3 -11 -12 -20 -21 -20 -9 0 -16 -7 -16
-15 0 -10 -11 -15 -35 -15 -24 0 -35 -5 -35 -15 0 -10 -10 -15 -31 -15 -22 0
-32 -5 -36 -20 -4 -15 -14 -20 -39 -20 -24 0 -34 -5 -34 -15 0 -8 -7 -15 -15
-15 -8 0 -15 -9 -15 -20 0 -16 -7 -20 -35 -20 -24 0 -35 -5 -35 -15 0 -10 -11
-15 -35 -15 -28 0 -35 -4 -35 -20 0 -16 -7 -20 -35 -20 -24 0 -35 -5 -35 -15
0 -8 -7 -15 -15 -15 -8 0 -15 -9 -15 -20 0 -16 -7 -20 -35 -20 -24 0 -35 -5
-35 -15 0 -10 -11 -15 -35 -15 -28 0 -35 -4 -35 -20 0 -16 -7 -20 -35 -20 -24
0 -35 -5 -35 -15 0 -8 -9 -15 -20 -15 -14 0 -20 -7 -20 -21 0 -18 -5 -21 -30
-17 -24 4 -30 1 -30 -14 0 -14 -8 -18 -35 -18 -24 0 -35 -5 -35 -15 0 -10 -11
-15 -35 -15 -28 0 -35 -4 -35 -20 0 -13 -7 -20 -20 -20 -11 0 -20 -7 -20 -15
0 -10 -11 -15 -35 -15 -28 0 -35 -4 -35 -20 0 -16 -7 -20 -35 -20 -24 0 -35
-5 -35 -15 0 -10 -10 -15 -31 -15 -22 0 -32 -5 -36 -20 -3 -11 -12 -20 -19
-20 -8 0 -14 -7 -14 -15 0 -10 -11 -15 -35 -15 -28 0 -35 -4 -35 -20 0 -16 -7
-20 -35 -20 -24 0 -35 -5 -35 -15 0 -10 -11 -15 -35 -15 -28 0 -35 -4 -35 -20
0 -11 -7 -20 -15 -20 -8 0 -15 -7 -15 -15 0 -10 -11 -15 -35 -15 -24 0 -35 -5
-35 -15 0 -10 -11 -15 -35 -15 -28 0 -35 -4 -35 -20 0 -16 -7 -20 -35 -20 -24
0 -35 -5 -35 -15 0 -8 -7 -15 -15 -15 -8 0 -15 -9 -15 -20 0 -16 -7 -20 -35
-20 -24 0 -35 -5 -35 -15 0 -10 -11 -15 -35 -15 -28 0 -35 -4 -35 -20 0 -13
-7 -20 -20 -20 -11 0 -20 -7 -20 -15 0 -10 -11 -15 -35 -15 -28 0 -35 -4 -35
-20 0 -16 -7 -20 -35 -20 -24 0 -35 -5 -35 -15 0 -10 -11 -15 -35 -15 -28 0
-35 -4 -35 -20 0 -13 -7 -20 -20 -20 -11 0 -20 -7 -20 -15 0 -10 -11 -15 -35
-15 -28 0 -35 -4 -35 -20 0 -16 -7 -20 -35 -20 -24 0 -35 -5 -35 -15 0 -10
-11 -15 -35 -15 -26 0 -33 -3 -29 -15 4 -10 0 -15 -15 -15 -14 0 -21 -6 -21
-20 0 -16 -7 -20 -35 -20 -24 0 -35 -5 -35 -15 0 -10 -11 -15 -35 -15 -28 0
-35 -4 -35 -20 0 -16 -7 -20 -30 -20 -18 0 -33 -6 -36 -15 -4 -9 -19 -15 -35
-15 -19 0 -32 -6 -36 -17 -11 -29 -42 -53 -69 -53 -17 0 -28 -6 -31 -20 -3
-11 -12 -20 -19 -20 -8 0 -14 -6 -14 -14 0 -7 -9 -16 -20 -19 -17 -4 -20 -14
-20 -56 0 -35 -4 -50 -12 -49 -10 2 -14 -20 -16 -80 -2 -67 0 -83 13 -88 9 -4
15 -18 15 -36 0 -21 6 -31 20 -35 11 -3 20 -12 20 -19 0 -8 7 -14 15 -14 8 0
15 -6 15 -12 0 -7 11 -23 24 -35 19 -19 35 -23 85 -23 48 0 61 3 61 15 0 10
10 15 31 15 22 0 32 5 36 20 4 14 14 20 34 20 17 0 32 6 35 15 4 9 19 15 36
15 21 0 31 6 35 20 4 17 14 20 54 20 37 0 49 4 49 15 0 10 10 15 31 15 22 0
32 5 36 20 4 15 14 20 39 20 24 0 34 5 34 15 0 11 12 15 51 15 42 0 52 3 56
20 4 15 14 20 39 20 24 0 34 5 34 15 0 10 10 15 29 15 20 0 30 6 34 20 4 17
14 20 56 20 39 0 51 4 51 15 0 10 11 15 35 15 24 0 35 5 35 15 0 10 10 15 31
15 22 0 32 5 36 20 4 17 14 20 54 20 37 0 49 4 49 15 0 10 11 15 35 15 28 0
35 4 35 20 0 16 7 20 35 20 24 0 35 5 35 15 0 11 12 15 50 15 43 0 50 3 50 20
0 16 7 20 35 20 24 0 35 5 35 15 0 10 11 15 35 15 31 0 35 3 35 26 0 25 2 26
50 22 42 -2 50 0 50 15 0 13 8 17 35 17 24 0 35 5 35 15 0 10 11 15 35 15 28
0 35 4 35 20 0 18 7 20 55 20 42 0 55 3 55 15 0 10 10 15 31 15 22 0 32 5 36
20 4 15 14 20 40 20 27 0 34 3 29 15 -4 12 5 15 49 15 48 0 55 2 55 20 0 16 7
20 35 20 24 0 35 5 35 15 0 10 11 15 35 15 28 0 35 4 35 20 0 17 7 20 50 20
38 0 50 4 50 15 0 10 11 15 35 15 28 0 35 4 35 20 0 16 7 20 35 20 24 0 35 5
35 15 0 11 12 15 49 15 39 0 51 4 54 18 4 13 5 11 6 -5 1 -14 -5 -23 -14 -23
-12 0 -15 -14 -15 -70 0 -63 -2 -70 -20 -70 -17 0 -20 -7 -20 -50 0 -38 -4
-50 -15 -50 -12 0 -15 -14 -15 -70 0 -63 -2 -70 -20 -70 -17 0 -20 -7 -20 -50
0 -38 -4 -50 -15 -50 -12 0 -15 -14 -15 -70 0 -63 -2 -70 -20 -70 -18 0 -20
-7 -20 -55 0 -44 -3 -53 -15 -49 -12 5 -15 -4 -15 -50 0 -47 -3 -56 -17 -56
-16 0 -18 -8 -15 -66 3 -59 2 -66 -17 -71 -18 -4 -21 -13 -21 -54 0 -37 -4
-49 -15 -49 -12 0 -15 -14 -15 -70 0 -63 -2 -70 -20 -70 -17 0 -20 -7 -20 -50
0 -38 -4 -50 -15 -50 -12 0 -15 -13 -15 -55 0 -48 -2 -55 -20 -55 -18 0 -20
-7 -20 -71 0 -59 -3 -70 -15 -65 -12 4 -15 -5 -15 -49 0 -48 -2 -55 -20 -55
-18 0 -20 -7 -20 -70 0 -56 -3 -70 -15 -70 -11 0 -15 -12 -15 -50 0 -43 -3
-50 -20 -50 -17 0 -20 -7 -20 -50 0 -38 -4 -50 -15 -50 -12 0 -15 -14 -15 -69
0 -60 -2 -69 -20 -74 -17 -4 -20 -14 -20 -56 0 -39 -4 -51 -15 -51 -12 0 -15
-15 -15 -71 0 -59 -3 -70 -15 -65 -12 4 -15 -5 -15 -49 0 -48 -2 -55 -20 -55
-19 0 -20 -7 -20 -105 0 -98 1 -105 20 -105 11 0 20 -7 20 -15 0 -8 7 -15 15
-15 8 0 15 -9 15 -20 0 -19 7 -20 135 -20 128 0 135 1 135 20 0 16 7 20 35 20
24 0 35 5 35 15 0 8 7 15 15 15 8 0 15 9 15 20 0 13 7 20 20 20 11 0 20 7 20
15 0 8 7 15 15 15 10 0 15 11 15 35 0 28 4 35 20 35 16 0 20 7 20 35 0 24 5
35 15 35 10 0 15 11 15 35 0 24 5 35 15 35 11 0 15 12 15 50 0 43 3 50 20 50
16 0 20 7 20 35 0 24 5 35 15 35 10 0 15 11 15 35 0 28 4 35 20 35 18 0 20 7
20 55 0 42 3 55 15 55 10 0 15 10 15 31 0 22 5 32 20 36 14 4 20 14 20 34 0
19 5 29 15 29 12 0 15 13 15 55 0 48 2 55 20 55 16 0 20 7 20 35 0 24 5 35 15
35 10 0 15 11 15 35 0 28 4 35 20 35 16 0 20 7 20 35 0 24 5 35 15 35 11 0 15
12 15 50 0 43 3 50 20 50 16 0 20 7 20 35 0 24 5 35 15 35 10 0 15 11 15 35 0
24 5 35 15 35 11 0 15 12 15 50 0 43 3 50 20 50 16 0 20 7 20 35 0 24 5 35 15
35 10 0 15 11 15 35 0 28 4 35 20 35 17 0 20 7 20 50 0 38 4 50 15 50 10 0 15
11 15 35 0 28 4 35 20 35 16 0 20 7 20 35 0 24 5 35 15 35 12 0 15 13 15 55 0
48 2 55 20 55 16 0 20 7 20 36 0 28 3 35 15 30 11 -4 15 2 15 28 0 25 5 35 20
39 17 4 20 14 20 56 0 39 4 51 15 51 10 0 15 11 15 35 0 24 5 35 15 35 11 0
15 11 15 36 0 27 5 37 20 41 17 4 20 14 20 54 0 37 4 49 15 49 10 0 15 11 15
35 0 28 4 35 20 35 16 0 20 7 20 35 0 24 5 35 15 35 10 0 15 11 15 35 0 28 4
35 20 35 17 0 20 7 20 50 0 38 4 50 15 50 10 0 15 11 15 35 0 28 4 35 20 35
16 0 20 7 20 35 0 24 5 35 15 35 11 0 15 12 15 50 0 43 3 50 20 50 16 0 20 7
20 35 0 24 5 35 15 35 10 0 15 11 15 35 0 28 4 35 20 35 17 0 20 7 20 50 0 43
3 50 20 50 13 0 20 7 20 20 0 11 7 20 15 20 8 0 15 7 15 15 0 10 11 15 35 15
28 0 35 4 35 20 0 16 7 20 35 20 24 0 35 5 35 15 0 10 11 15 35 15 28 0 35 4
35 20 0 17 7 20 50 20 38 0 50 4 50 15 0 10 11 15 35 15 28 0 35 4 35 20 0 16
7 20 35 20 24 0 35 5 35 15 0 12 13 15 55 15 48 0 55 2 55 20 0 16 7 20 35 20
24 0 35 5 35 15 0 10 10 15 30 15 20 0 30 5 30 15 0 10 11 15 35 15 28 0 35 4
35 20 0 18 7 20 55 20 42 0 55 3 55 15 0 13 26 15 170 15 163 0 170 1 170 20
0 16 7 20 35 20 24 0 35 5 35 15 0 12 13 15 55 15 48 0 55 2 55 20 0 16 7 20
35 20 24 0 35 5 35 15 0 11 12 15 50 15 43 0 50 3 50 20 0 18 7 20 70 20 56 0
70 3 70 15 0 12 14 15 70 15 63 0 70 2 70 20 0 19 7 20 100 20 82 0 100 3 100
15 0 13 21 15 125 15 104 0 125 -2 125 -15 0 -12 16 -15 85 -15 78 0 85 -2 85
-20 0 -17 7 -20 50 -20 38 0 50 -4 50 -15 0 -11 12 -15 51 -15 42 0 52 -3 56
-20 4 -15 14 -20 40 -20 27 0 34 -3 29 -15 -4 -11 2 -15 28 -15 25 0 35 -5 39
-20 4 -15 14 -20 41 -20 25 0 36 -4 36 -15 0 -10 11 -15 35 -15 28 0 35 -4 35
-20 0 -18 7 -20 55 -20 44 0 53 -3 49 -15 -5 -12 2 -15 29 -15 27 0 36 -5 40
-21 5 -17 12 -21 36 -17 25 4 31 1 31 -14 0 -14 8 -18 35 -18 24 0 35 -5 35
-15 0 -11 12 -15 51 -15 42 0 52 -3 56 -20 5 -17 14 -20 69 -20 50 0 64 -3 64
-15 0 -12 17 -15 90 -15 83 0 90 -1 90 -20 0 -19 7 -20 199 -20 190 0 199 1
204 20 5 18 14 20 91 20 70 0 86 3 86 15 0 11 12 15 50 15 43 0 50 3 50 20 0
16 7 20 35 20 24 0 35 5 35 15 0 10 11 15 35 15 27 0 35 4 35 18 0 15 6 18 31
14 24 -4 31 0 36 17 3 11 12 21 19 21 8 0 14 7 14 15 0 10 11 15 35 15 28 0
35 4 35 20 0 13 7 20 20 20 11 0 20 7 20 15 0 8 7 15 15 15 8 0 15 9 15 20 0
13 7 20 20 20 11 0 20 7 20 15 0 8 7 15 15 15 8 0 15 9 15 20 0 11 7 20 15 20
8 0 15 7 15 15 0 8 9 15 20 15 13 0 20 7 20 20 0 11 7 20 15 20 8 0 15 7 15
15 0 8 9 15 20 15 16 0 20 7 20 35 0 24 5 35 15 35 8 0 15 6 15 14 0 7 9 16
20 19 15 4 20 14 20 36 0 21 5 31 15 31 10 0 15 11 15 35 0 28 4 35 20 35 16
0 20 7 20 35 0 24 5 35 15 35 12 0 15 13 15 55 0 48 2 55 20 55 19 0 20 7 20
100 0 82 3 100 15 100 10 0 15 10 15 30 0 20 -5 30 -15 30 -13 0 -15 22 -15
140 0 133 -1 140 -20 140 -17 0 -20 7 -20 50 0 38 -4 50 -15 50 -10 0 -15 11
-15 35 0 28 -4 35 -20 35 -16 0 -20 7 -20 35 0 24 -5 35 -15 35 -10 0 -15 11
-15 35 0 28 -4 35 -20 35 -17 0 -20 7 -20 40 0 29 -4 40 -15 40 -10 0 -15 11
-15 35 0 28 -4 35 -20 35 -11 0 -20 7 -20 15 0 8 -7 15 -15 15 -10 0 -15 11
-15 35 0 25 -4 35 -16 35 -9 0 -18 9 -21 20 -3 11 -12 20 -19 20 -9 0 -14 12
-14 35 0 24 -5 35 -15 35 -8 0 -15 7 -15 15 0 8 -9 15 -20 15 -13 0 -20 7 -20
20 0 11 -7 20 -15 20 -10 0 -15 10 -15 30 0 21 -5 30 -16 30 -9 0 -18 9 -21
20 -3 11 -12 20 -19 20 -9 0 -14 12 -14 35 0 28 -4 35 -20 35 -11 0 -20 7 -20
15 0 8 -7 15 -15 15 -8 0 -15 9 -15 20 0 13 -7 20 -20 20 -11 0 -20 7 -20 15
0 11 -12 15 -50 15 -43 0 -50 3 -50 20 0 19 -7 20 -135 20 -128 0 -135 -1
-135 -20 0 -17 -7 -20 -40 -20 -33 0 -40 3 -40 20 0 18 -7 20 -80 20 -73 0
-80 -2 -80 -20 0 -16 -7 -20 -35 -20 -24 0 -35 -5 -35 -15 0 -8 -6 -15 -14
-15 -7 0 -16 -9 -19 -20 -4 -15 -14 -20 -36 -20 -21 0 -31 -5 -31 -15 0 -10
-11 -15 -35 -15 -28 0 -35 -4 -35 -20 0 -13 -7 -20 -20 -20 -11 0 -20 -7 -20
-15 0 -10 -11 -15 -35 -15 -33 0 -35 -2 -35 -35 0 -24 -5 -35 -15 -35 -8 0
-15 -7 -15 -15 0 -10 -11 -15 -35 -15 -28 0 -35 -4 -35 -20 0 -16 -7 -20 -35
-20 -24 0 -35 -5 -35 -15 0 -10 -11 -15 -35 -15 -28 0 -35 -4 -35 -20 0 -16
-7 -20 -35 -20 -24 0 -35 -5 -35 -15 0 -8 -7 -15 -15 -15 -8 0 -15 -9 -15 -20
0 -16 -7 -20 -35 -20 -24 0 -35 -5 -35 -15 0 -10 -11 -15 -35 -15 -28 0 -35
-4 -35 -20 0 -16 -7 -20 -35 -20 -24 0 -35 -5 -35 -15 0 -10 -11 -15 -35 -15
-28 0 -35 -4 -35 -20 0 -16 -7 -20 -35 -20 -24 0 -35 -5 -35 -15 0 -11 -11
-15 -36 -15 -26 0 -37 -5 -41 -18 -3 -14 -11 -18 -29 -14 -18 3 -26 -1 -34
-22 -7 -20 -16 -26 -40 -26 -20 0 -30 -5 -30 -15 0 -10 -11 -15 -35 -15 -28 0
-35 -4 -35 -20 0 -16 -7 -20 -35 -20 -24 0 -35 -5 -35 -15 0 -10 -11 -15 -35
-15 -28 0 -35 -4 -35 -20 0 -16 -7 -20 -35 -20 -24 0 -35 -5 -35 -15 0 -10
-11 -15 -35 -15 -28 0 -35 -4 -35 -20 0 -16 -7 -20 -35 -20 -24 0 -35 -5 -35
-15 0 -10 -11 -15 -35 -15 -28 0 -35 -4 -35 -20 0 -13 -5 -18 -15 -14 -10 4
-15 0 -15 -15 0 -17 -6 -21 -35 -21 -24 0 -35 -5 -35 -15 0 -10 -11 -15 -35
-15 -28 0 -35 -4 -35 -20 0 -16 -7 -20 -35 -20 -24 0 -35 -5 -35 -15 0 -10
-11 -15 -35 -15 -28 0 -35 -4 -35 -20 0 -16 -7 -20 -35 -20 -24 0 -35 -5 -35
-15 0 -10 -11 -15 -35 -15 -28 0 -35 -4 -35 -20 0 -16 -7 -20 -35 -20 -24 0
-35 -5 -35 -15 0 -10 -11 -15 -35 -15 -28 0 -35 -4 -35 -20 0 -16 -7 -20 -35
-20 -24 0 -35 -5 -35 -15 0 -10 -10 -15 -29 -15 -20 0 -30 -6 -34 -20 -4 -15
-14 -20 -36 -20 -21 0 -31 -5 -31 -15 0 -10 -11 -15 -35 -15 -24 0 -35 -5 -35
-15 0 -10 -11 -15 -35 -15 -28 0 -35 -4 -35 -20 0 -16 -7 -20 -35 -20 -24 0
-35 -5 -35 -15 0 -10 -11 -15 -35 -15 -28 0 -35 -4 -35 -20 0 -13 -7 -20 -20
-20 -13 0 -18 -5 -14 -15 5 -12 -2 -15 -30 -15 -29 0 -36 -4 -36 -20 0 -16 -7
-20 -35 -20 -24 0 -35 -5 -35 -15 0 -10 -11 -15 -35 -15 -28 0 -35 -4 -35 -20
0 -16 -7 -20 -35 -20 -24 0 -35 -5 -35 -15 0 -8 -9 -15 -20 -15 -13 0 -20 -7
-20 -20 0 -11 -7 -20 -15 -20 -11 0 -15 -12 -15 -50 l0 -50 -35 0 c-24 0 -35
-5 -35 -15 0 -10 -11 -15 -35 -15 -28 0 -35 -4 -35 -20 0 -11 -6 -20 -14 -20
-7 0 -16 9 -19 20 -4 15 -14 20 -36 20 -21 0 -31 5 -31 15 0 8 -9 15 -20 15
-14 0 -20 7 -20 21 0 15 -5 19 -15 15 -10 -4 -15 1 -15 14 0 13 -7 20 -20 20
-11 0 -20 7 -20 15 0 8 -7 15 -15 15 -8 0 -15 9 -15 20 0 17 -7 20 -53 20
l-54 0 5 31 c4 24 0 31 -17 36 -11 3 -21 12 -21 19 0 8 -7 14 -15 14 -10 0
-15 11 -15 35 0 33 -2 35 -35 35 -28 0 -35 4 -35 20 0 13 -7 20 -20 20 -11 0
-20 7 -20 15 0 8 -7 15 -15 15 -8 0 -15 7 -15 16 0 9 -9 18 -20 21 -11 3 -20
12 -20 19 0 8 -7 14 -15 14 -8 0 -15 6 -15 14 0 7 -9 16 -20 19 -11 3 -20 12
-20 21 0 9 -8 16 -20 16 -13 0 -20 7 -20 20 0 13 7 20 20 20 17 0 20 7 20 51
0 42 3 52 20 56 11 3 20 12 20 19 0 9 12 14 35 14 33 0 35 2 35 35 0 24 5 35
15 35 10 0 15 11 15 35 0 28 4 35 20 35 17 0 20 7 20 50 0 38 4 50 15 50 10 0
15 11 15 35 0 28 4 35 20 35 18 0 20 7 20 55 0 42 3 55 15 55 10 0 15 10 15
34 0 25 5 35 20 39 16 4 20 14 20 50 0 31 5 47 15 51 9 3 15 18 15 36 0 20 5
30 15 30 11 0 15 12 15 49 0 40 3 50 20 54 14 4 20 14 20 35 0 17 6 32 15 36
10 4 15 20 15 50 0 35 4 45 20 49 14 4 20 14 20 35 0 17 6 32 15 36 11 4 15
20 15 55 0 40 3 50 20 54 16 4 20 14 20 50 0 31 5 47 15 51 9 3 15 18 15 35 0
20 6 30 20 34 16 4 20 14 20 50 0 31 5 47 15 51 9 3 15 18 15 36 0 19 5 30 14
30 18 0 26 22 26 70 0 24 5 40 15 44 9 3 15 18 15 36 0 20 5 30 15 30 11 0 15
12 15 49 0 40 3 50 20 54 15 4 20 14 20 36 0 21 5 31 15 31 11 0 15 12 15 49
0 40 3 50 20 54 14 4 20 14 20 35 0 17 6 32 15 36 11 4 15 20 15 55 0 40 3 50
20 54 16 4 20 14 20 50 0 31 5 47 15 51 9 3 15 18 15 35 0 20 6 30 20 34 16 4
20 14 20 50 0 31 5 47 15 51 9 3 15 18 15 35 0 20 6 30 20 34 17 4 20 14 20
56 0 39 4 51 15 51 11 0 15 12 15 49 0 40 3 50 20 54 14 4 20 14 20 35 0 17 6
32 15 36 10 4 15 20 15 50 0 30 5 46 15 50 9 3 15 18 15 36 0 21 5 30 16 30 9
0 18 9 21 20 3 11 12 20 19 20 8 0 14 6 14 14 0 7 9 16 20 19 11 3 20 12 20
21 0 9 7 16 15 16 10 0 15 10 15 29 0 20 6 30 20 34 17 4 20 14 20 55 0 35 4
52 15 56 13 5 15 47 15 296 0 251 -2 290 -15 290 -11 0 -15 12 -15 50 0 43 -3
50 -20 50 -13 0 -20 7 -20 20 0 13 -5 18 -15 14 -10 -4 -15 0 -15 15 0 14 -6
21 -20 21 -11 0 -20 7 -20 15 0 10 -10 15 -31 15 -22 0 -32 5 -36 20 -4 15
-14 20 -39 20 -26 0 -32 4 -28 15 5 12 -4 15 -50 15 -49 0 -56 2 -56 20 0 16
-7 20 -35 20 -24 0 -35 5 -35 15 0 10 -11 15 -35 15 -28 0 -35 4 -35 20 0 17
-7 20 -50 20 -38 0 -50 4 -50 15 0 10 -11 15 -35 15 -28 0 -35 4 -35 20 0 17
-7 20 -50 20 -38 0 -50 4 -50 15 0 12 -14 15 -69 15 -60 0 -69 2 -74 20 -5 18
-14 20 -91 20 -72 0 -84 2 -80 15 5 13 -16 15 -155 15 -136 0 -161 -2 -161
-15z m193 -465 c5 -18 14 -20 85 -20 62 0 81 -3 86 -15 4 -10 20 -15 51 -15
31 0 47 -5 51 -15 4 -9 19 -15 36 -15 21 0 31 -6 35 -20 3 -11 12 -20 19 -20
8 0 14 -7 14 -15 0 -8 9 -15 20 -15 13 0 20 -7 20 -20 0 -11 7 -20 15 -20 8 0
15 -7 15 -15 0 -8 9 -15 20 -15 13 0 20 -7 20 -20 0 -11 7 -20 15 -20 8 0 15
-7 15 -15 0 -8 6 -15 14 -15 16 0 26 -21 26 -55 0 -12 7 -25 15 -29 10 -4 15
-20 15 -51 0 -33 4 -45 15 -45 13 0 15 -29 15 -204 0 -172 -2 -205 -15 -210
-10 -4 -15 -20 -15 -51 0 -31 -5 -47 -15 -51 -10 -4 -15 -20 -15 -50 0 -33 -5
-46 -20 -54 -13 -7 -20 -21 -20 -40 0 -20 -5 -30 -15 -30 -10 0 -15 -10 -15
-34 0 -25 -5 -35 -20 -39 -14 -3 -20 -14 -20 -31 0 -15 -7 -29 -15 -32 -8 -4
-15 -12 -15 -20 0 -8 -7 -14 -16 -14 -9 0 -18 -9 -21 -19 -3 -11 -11 -22 -19
-25 -8 -3 -14 -15 -14 -27 0 -29 -45 -69 -76 -69 -17 0 -28 -7 -31 -20 -4 -14
-14 -20 -34 -20 -17 0 -32 -6 -35 -15 -4 -8 -18 -15 -34 -15 -19 0 -29 -6 -33
-20 -5 -19 -14 -20 -196 -20 -184 0 -191 1 -191 20 0 17 -7 20 -50 20 -38 0
-50 4 -50 15 0 10 -11 15 -35 15 -28 0 -35 4 -35 20 0 16 -7 20 -35 20 -24 0
-35 5 -35 15 0 8 -7 15 -16 15 -9 0 -18 9 -21 20 -3 11 -12 20 -19 20 -8 0
-14 7 -14 15 0 8 -6 15 -14 15 -8 0 -18 9 -21 20 -3 11 -13 20 -21 20 -8 0
-14 7 -14 15 0 8 -7 15 -15 15 -10 0 -15 11 -15 35 0 28 -4 35 -20 35 -16 0
-20 7 -20 35 0 24 -5 35 -15 35 -8 0 -15 6 -15 14 0 7 -9 16 -20 19 -17 4 -20
14 -20 56 0 39 -4 51 -15 51 -11 0 -15 12 -15 49 0 40 -3 50 -20 54 -19 5 -20
14 -20 152 0 138 1 147 20 152 17 4 20 14 20 54 0 37 4 49 15 49 10 0 15 11
15 35 0 28 4 35 20 35 16 0 20 7 20 35 0 24 5 35 15 35 11 0 15 11 15 40 0 33
3 40 20 40 11 0 20 7 20 15 0 8 7 15 15 15 8 0 15 9 15 20 0 13 7 20 20 20 11
0 20 7 20 15 0 8 7 15 15 15 8 0 15 9 15 20 0 11 7 20 15 20 8 0 15 7 15 15 0
10 10 15 34 15 25 0 35 5 39 20 4 15 14 20 36 20 21 0 31 5 31 15 0 10 11 15
35 15 24 0 35 5 35 15 0 12 18 15 106 15 97 0 106 2 111 20 5 17 14 20 68 20
54 0 63 -3 68 -20z m4057 -3295 c0 -10 11 -15 35 -15 24 0 35 -5 35 -15 0 -11
12 -15 46 -15 37 0 47 -4 51 -20 3 -11 12 -20 19 -20 8 0 14 -7 14 -15 0 -8 9
-15 20 -15 13 0 20 -7 20 -20 0 -16 7 -20 35 -20 24 0 35 -5 35 -15 0 -8 7
-15 15 -15 8 0 15 -9 15 -20 0 -13 7 -20 20 -20 16 0 20 -7 20 -35 0 -24 5
-35 15 -35 10 0 15 -10 15 -31 0 -22 5 -32 20 -36 11 -3 20 -11 20 -18 0 -7 7
-15 15 -19 11 -4 15 -22 15 -71 0 -58 2 -65 20 -65 18 0 20 -7 20 -70 0 -56 3
-70 15 -70 10 0 15 -11 15 -35 0 -19 -5 -35 -11 -35 -5 0 -7 -4 -4 -10 3 -5 1
-10 -4 -10 -7 0 -11 -29 -11 -75 0 -68 -2 -75 -20 -75 -16 0 -20 -7 -20 -31 0
-17 -7 -37 -15 -45 -8 -9 -15 -26 -15 -40 0 -17 -5 -24 -20 -24 -16 0 -20 -7
-20 -35 0 -24 -5 -35 -15 -35 -8 0 -15 -7 -15 -16 0 -9 -9 -18 -20 -21 -11 -3
-20 -12 -20 -19 0 -8 -7 -14 -15 -14 -8 0 -15 -6 -15 -14 0 -7 -9 -16 -20 -19
-11 -3 -20 -12 -20 -21 0 -9 -7 -16 -15 -16 -8 0 -15 -7 -15 -15 0 -8 -7 -15
-16 -15 -9 0 -18 -9 -21 -20 -4 -14 -14 -20 -33 -20 -16 0 -30 -7 -34 -15 -3
-9 -18 -15 -36 -15 -23 0 -30 -4 -30 -20 0 -16 -7 -20 -35 -20 -24 0 -35 -5
-35 -15 0 -12 -16 -15 -86 -15 -77 0 -86 -2 -91 -20 -5 -18 -14 -20 -74 -20
-42 0 -69 4 -69 11 0 5 -4 7 -10 4 -5 -3 -10 1 -10 9 0 13 -16 16 -94 16 -74
0 -95 3 -100 15 -4 11 -21 15 -65 15 -50 0 -59 3 -64 20 -4 17 -14 20 -56 20
-39 0 -51 4 -51 15 0 10 -10 15 -31 15 -22 0 -32 5 -36 20 -3 11 -12 20 -19
20 -8 0 -14 7 -14 15 0 10 -10 15 -30 15 -19 0 -33 7 -40 20 -6 11 -17 20 -25
20 -8 0 -15 7 -15 15 0 8 -7 15 -15 15 -9 0 -15 9 -15 25 0 14 -4 25 -10 25
-5 0 -12 11 -16 25 -4 16 -13 25 -25 25 -12 0 -19 7 -19 20 0 11 -7 20 -15 20
-10 0 -15 10 -15 31 0 22 -5 32 -20 36 -15 4 -20 14 -20 39 0 24 -5 34 -15 34
-13 0 -15 24 -15 155 0 131 2 155 15 155 12 0 15 13 15 55 0 48 2 55 20 55 16
0 20 7 20 30 0 18 6 33 15 36 8 4 15 12 15 20 0 8 5 14 11 14 5 0 7 5 4 10 -3
6 1 10 10 10 9 0 14 4 11 9 -9 14 4 41 20 41 8 0 14 7 14 15 0 10 11 15 35 15
28 0 35 4 35 20 0 11 7 20 15 20 8 0 15 7 15 15 0 10 11 15 35 15 28 0 35 4
35 20 0 13 7 20 20 20 11 0 20 7 20 15 0 10 10 15 31 15 22 0 32 5 36 20 4 15
14 20 39 20 24 0 34 5 34 15 0 10 10 15 29 15 21 0 32 6 36 20 5 16 15 20 56
20 37 0 49 4 49 15 0 12 14 15 70 15 56 0 70 3 70 15 0 13 26 15 175 15 149 0
175 -2 175 -15z m-4510 -344 c0 -5 22 -14 49 -21 27 -6 52 -18 55 -26 3 -8 18
-14 33 -14 42 -1 63 -22 63 -63 0 -19 -5 -37 -10 -39 -6 -2 -13 -21 -17 -43
-3 -22 -14 -51 -25 -64 -25 -33 -24 -96 2 -118 11 -10 20 -22 20 -28 0 -13 54
-55 70 -55 5 0 10 -6 10 -13 0 -8 9 -18 19 -23 35 -16 181 -158 181 -176 0 -9
7 -21 16 -26 10 -5 18 -28 21 -56 3 -25 10 -49 14 -52 12 -7 11 -101 -1 -109
-5 -3 -10 -24 -10 -46 0 -27 -6 -45 -20 -56 -13 -12 -20 -30 -20 -54 0 -24 -5
-39 -15 -43 -8 -3 -15 -14 -15 -24 0 -11 -9 -31 -20 -45 -11 -14 -20 -36 -20
-50 0 -13 -6 -30 -14 -36 -8 -7 -17 -27 -20 -46 -4 -19 -11 -35 -16 -35 -6 0
-10 -12 -10 -26 0 -15 -9 -41 -19 -58 -10 -17 -22 -46 -26 -63 -3 -18 -11 -33
-16 -33 -5 0 -9 -13 -9 -29 0 -17 -11 -42 -25 -59 -14 -17 -25 -39 -25 -50 0
-11 -7 -25 -15 -32 -8 -7 -15 -24 -15 -39 0 -15 -9 -34 -20 -44 -11 -9 -20
-28 -20 -43 0 -14 -7 -32 -15 -40 -8 -9 -15 -26 -15 -39 0 -14 -9 -29 -20 -35
-13 -7 -20 -21 -20 -41 0 -17 -7 -37 -15 -45 -8 -9 -15 -26 -15 -38 0 -13 -7
-29 -15 -36 -8 -7 -15 -23 -15 -36 0 -13 -9 -32 -20 -41 -11 -10 -20 -29 -20
-44 0 -15 -7 -32 -15 -39 -8 -7 -15 -21 -15 -32 0 -11 -9 -31 -20 -45 -11 -14
-20 -36 -20 -48 0 -12 -7 -28 -15 -35 -8 -7 -15 -23 -15 -36 0 -13 -9 -33 -20
-44 -11 -11 -20 -31 -20 -45 0 -14 -4 -25 -9 -25 -5 0 -14 -22 -21 -49 -6 -27
-18 -52 -26 -55 -8 -3 -14 -17 -14 -31 0 -15 -7 -33 -15 -41 -8 -9 -15 -25
-15 -36 0 -11 -7 -26 -15 -32 -9 -6 -18 -29 -22 -51 -3 -22 -12 -44 -20 -48
-7 -4 -13 -21 -13 -38 0 -17 -6 -32 -15 -35 -9 -4 -15 -19 -15 -35 0 -17 -6
-32 -15 -35 -8 -3 -17 -21 -21 -40 -3 -18 -12 -38 -20 -45 -8 -6 -14 -26 -14
-45 0 -23 -6 -37 -20 -44 -12 -6 -20 -21 -20 -36 0 -14 -7 -32 -15 -40 -8 -9
-15 -26 -15 -38 0 -13 -9 -31 -20 -41 -11 -10 -20 -30 -20 -45 0 -15 -7 -33
-15 -40 -8 -7 -15 -25 -15 -41 0 -18 -5 -29 -14 -29 -8 0 -18 -14 -21 -32 -4
-18 -14 -42 -21 -53 -8 -11 -14 -31 -14 -45 0 -14 -9 -31 -20 -38 -13 -8 -20
-23 -20 -42 0 -17 -4 -30 -10 -30 -5 0 -12 -16 -16 -36 -4 -19 -13 -38 -20
-41 -8 -3 -17 -23 -20 -44 -4 -21 -13 -44 -20 -50 -8 -6 -14 -24 -14 -39 0
-16 -7 -30 -15 -34 -9 -3 -15 -18 -15 -35 0 -16 -6 -31 -14 -34 -7 -3 -18 -26
-25 -51 -6 -25 -16 -46 -21 -46 -6 0 -10 -16 -10 -35 0 -24 -6 -37 -20 -45
-13 -7 -20 -21 -20 -40 0 -17 -4 -30 -9 -30 -4 0 -14 -20 -21 -44 -7 -25 -18
-47 -26 -50 -8 -3 -14 -18 -14 -34 0 -16 -7 -35 -15 -42 -8 -7 -15 -25 -15
-41 0 -18 -5 -29 -14 -29 -8 0 -18 -19 -25 -44 -6 -25 -15 -48 -21 -51 -5 -3
-10 -15 -10 -26 0 -10 -9 -27 -20 -36 -11 -10 -20 -25 -20 -35 0 -10 -7 -18
-15 -18 -8 0 -15 -7 -15 -15 0 -8 -6 -15 -14 -15 -8 0 -16 -7 -20 -15 -3 -8
-17 -15 -30 -15 -15 0 -30 -8 -36 -20 -9 -17 -21 -20 -84 -20 -65 0 -75 3 -94
25 -26 30 -29 96 -7 135 8 14 14 42 15 62 0 20 7 44 16 53 9 9 19 37 22 63 3
26 9 49 13 53 5 3 13 29 19 58 5 29 17 62 25 74 8 12 15 38 15 59 0 21 4 38 9
38 6 0 12 21 16 47 3 27 12 61 20 76 8 16 15 43 15 60 0 18 9 46 20 62 11 17
20 47 20 68 0 24 5 40 15 43 10 4 15 21 15 53 0 29 7 57 20 76 11 17 20 42 20
56 0 15 7 40 15 55 8 16 15 43 15 59 0 17 9 44 20 60 12 18 20 47 20 72 0 23
5 43 11 45 6 2 14 27 16 55 4 33 12 58 24 69 12 11 19 31 19 53 0 20 7 49 15
65 8 15 15 46 15 67 0 26 4 39 14 39 14 0 26 42 26 92 0 16 7 36 15 44 8 9 15
33 15 55 0 25 5 42 15 45 8 3 17 25 20 52 3 26 13 59 21 74 8 14 14 41 14 60
0 19 7 43 15 54 8 10 15 36 15 57 0 23 8 49 20 64 12 15 20 41 20 62 0 21 7
46 15 57 8 10 15 36 15 57 0 23 8 49 20 64 11 14 20 40 20 57 1 17 7 42 15 56
8 14 14 43 15 64 0 22 7 47 16 57 9 10 18 37 21 61 3 24 12 55 19 70 8 15 14
43 14 62 0 19 7 42 16 50 9 9 19 41 23 72 4 30 13 60 19 66 7 7 12 31 12 55 0
30 6 49 20 63 13 13 20 33 20 58 0 21 5 43 11 49 7 7 16 36 20 65 5 29 13 54
19 56 5 2 10 22 10 45 0 23 7 48 16 58 9 10 18 37 21 61 3 24 12 47 19 51 8 5
14 25 14 48 0 26 7 50 20 66 11 14 20 40 20 57 0 18 7 41 15 52 8 10 15 36 15
56 0 20 7 44 16 53 9 9 19 37 22 63 3 26 9 50 14 53 5 3 12 26 15 50 3 24 14
52 24 62 12 11 19 32 19 55 0 21 6 46 14 57 7 11 16 39 19 62 3 23 12 50 21
58 9 9 16 31 16 50 0 18 7 46 15 61 8 16 15 43 15 61 0 20 7 36 17 42 11 6 17
22 17 50 1 39 2 41 34 41 17 0 32 -4 32 -9z m626 -836 c4 -8 12 -15 20 -15 8
0 14 -6 14 -14 0 -8 9 -18 20 -21 11 -3 20 -13 20 -21 0 -8 6 -14 13 -14 7 0
20 -9 30 -20 9 -11 24 -20 32 -20 8 0 15 -5 15 -10 0 -6 8 -14 18 -17 9 -4 22
-13 27 -21 6 -7 29 -16 50 -19 31 -4 45 0 64 16 13 12 30 21 38 21 7 0 30 9
50 20 49 26 59 25 75 -7 23 -46 43 -78 51 -84 4 -3 18 -19 30 -37 31 -41 26
-92 -8 -92 -12 0 -28 -7 -35 -15 -7 -8 -21 -15 -32 -15 -11 0 -31 -9 -45 -20
-14 -11 -33 -20 -42 -20 -9 0 -25 -6 -36 -14 -11 -7 -37 -16 -57 -20 -23 -4
-38 -13 -38 -21 0 -9 -10 -15 -24 -15 -14 0 -31 -7 -40 -15 -8 -8 -24 -15 -35
-15 -12 0 -30 -9 -41 -20 -11 -11 -28 -20 -38 -20 -10 0 -35 -9 -57 -20 -22
-11 -47 -20 -57 -20 -10 0 -18 -7 -18 -15 0 -9 -9 -15 -24 -15 -14 0 -31 -7
-40 -15 -8 -8 -24 -15 -36 -15 -12 0 -33 -9 -47 -20 -14 -11 -35 -20 -46 -20
-11 0 -29 -8 -39 -17 -14 -12 -21 -14 -30 -5 -8 8 -7 13 5 18 10 3 17 17 17
30 0 14 6 35 14 47 8 12 17 39 20 60 4 21 14 41 22 44 7 3 14 18 14 33 0 16 4
32 10 35 5 3 14 24 20 46 6 22 18 43 26 46 7 3 14 15 14 27 0 12 7 31 15 42 8
10 15 31 15 45 0 15 8 37 19 50 10 13 21 45 25 71 4 26 11 50 17 53 5 4 9 26
9 51 0 33 4 44 15 44 9 0 18 -7 21 -15z m-1146 -412 c0 -20 -7 -44 -15 -53 -9
-10 -19 -41 -24 -69 -5 -29 -13 -57 -20 -64 -6 -6 -11 -30 -11 -54 0 -28 -5
-45 -16 -51 -10 -6 -18 -28 -21 -58 -3 -27 -12 -58 -19 -69 -8 -11 -14 -38
-14 -61 0 -27 -7 -49 -20 -64 -13 -15 -20 -38 -20 -64 0 -23 -7 -50 -15 -60
-8 -11 -15 -39 -15 -63 0 -30 -5 -45 -15 -49 -8 -4 -15 -12 -15 -20 0 -8 -6
-14 -14 -14 -8 0 -16 -7 -20 -15 -3 -8 -14 -15 -24 -15 -10 0 -27 -7 -38 -15
-10 -8 -30 -15 -44 -15 -14 0 -33 -9 -43 -20 -9 -11 -27 -20 -40 -20 -13 0
-32 -7 -43 -15 -10 -8 -27 -15 -36 -15 -10 0 -27 -9 -38 -20 -11 -11 -30 -20
-42 -20 -13 0 -32 -7 -42 -15 -11 -8 -30 -15 -42 -15 -12 0 -32 -8 -45 -18
-13 -11 -36 -22 -51 -26 -16 -3 -28 -11 -28 -16 0 -6 -12 -10 -28 -10 -15 0
-35 -9 -45 -20 -11 -13 -29 -20 -51 -20 -18 0 -39 -7 -46 -15 -7 -8 -21 -15
-31 -15 -9 0 -24 -7 -33 -15 -8 -8 -25 -15 -38 -15 -13 0 -31 -9 -41 -20 -9
-11 -28 -20 -41 -20 -13 0 -29 -6 -35 -14 -6 -7 -29 -16 -50 -20 -21 -3 -41
-13 -45 -21 -3 -9 -18 -15 -36 -15 -18 0 -33 -6 -36 -15 -4 -8 -18 -15 -34
-15 -15 0 -35 -9 -45 -20 -10 -11 -27 -20 -38 -20 -10 0 -31 -6 -45 -14 -15
-8 -39 -17 -54 -21 -16 -3 -28 -11 -28 -18 0 -11 -68 -39 -130 -54 -14 -3 -29
-12 -33 -19 -4 -8 -21 -14 -38 -14 -17 0 -32 -6 -35 -15 -4 -8 -14 -15 -23
-15 -9 0 -33 -9 -54 -20 -20 -11 -48 -20 -61 -20 -13 0 -26 -7 -29 -14 -3 -8
-22 -18 -41 -22 -20 -3 -36 -10 -36 -15 0 -4 -16 -11 -35 -15 -19 -3 -40 -12
-46 -20 -6 -8 -29 -17 -50 -20 -21 -4 -44 -13 -50 -20 -6 -8 -22 -14 -34 -14
-13 0 -25 -6 -28 -14 -3 -8 -20 -17 -37 -21 -17 -4 -43 -13 -58 -21 -15 -8
-34 -14 -43 -14 -9 0 -26 -9 -39 -20 -13 -11 -34 -20 -47 -20 -12 0 -23 -4
-23 -10 0 -5 -16 -12 -35 -16 -19 -3 -39 -13 -44 -22 -5 -9 -21 -17 -35 -17
-14 -1 -35 -10 -46 -20 -28 -26 -130 -27 -158 -2 -24 22 -36 127 -24 202 8 46
35 95 54 95 5 0 17 9 28 20 11 11 27 20 36 20 8 0 22 7 30 15 9 8 24 15 35 15
10 0 19 5 19 11 0 5 15 17 32 25 46 21 78 40 91 53 6 6 19 11 28 11 10 0 24 9
31 19 8 11 26 23 41 26 15 4 27 10 27 14 0 4 12 12 28 19 36 16 71 37 85 51 6
6 19 11 29 11 9 0 22 9 28 20 6 11 19 20 30 20 10 0 25 7 34 15 8 8 22 15 30
15 9 0 25 9 36 20 11 11 25 20 31 20 6 0 17 7 25 15 9 8 25 15 36 15 11 0 22
8 25 20 4 14 14 20 33 20 16 0 30 7 34 15 3 8 12 15 19 15 8 0 22 9 32 20 10
11 22 17 27 14 5 -4 18 3 29 15 11 12 29 21 40 21 11 0 22 6 25 14 3 8 18 18
34 21 16 3 31 13 34 21 3 8 14 14 24 14 11 0 25 7 32 15 7 8 21 15 32 15 11 0
22 9 25 20 4 13 14 20 29 20 14 0 27 6 30 14 3 8 20 17 39 20 18 4 36 13 39
21 3 8 12 15 19 15 8 0 20 7 27 15 7 8 21 15 31 15 10 0 23 9 29 20 6 11 19
20 30 20 10 0 25 7 33 15 8 7 26 17 40 20 14 4 28 13 31 21 3 8 15 14 26 14
11 0 20 4 20 9 0 5 14 14 30 20 17 5 30 15 30 20 0 6 9 11 19 11 29 0 51 11
51 25 0 7 14 16 30 20 17 4 30 11 30 16 0 5 8 9 18 9 10 0 25 9 35 20 9 11 23
20 31 20 7 0 19 7 26 15 7 8 21 15 31 15 10 0 24 9 31 20 7 11 19 20 26 20 17
0 70 30 94 53 10 9 27 17 37 17 10 0 21 7 25 15 3 8 14 15 24 15 10 0 27 9 37
20 10 11 29 20 42 20 12 0 23 4 23 9 0 10 27 27 88 56 17 8 32 20 32 25 0 6 9
10 19 10 11 0 26 7 35 15 8 8 22 15 30 15 9 0 24 8 34 18 25 24 77 52 96 52 8
0 20 8 25 19 6 10 22 22 36 25 14 4 25 11 25 16 0 6 8 10 19 10 10 0 30 9 44
20 14 11 30 20 36 20 6 0 11 5 11 10 0 6 7 10 15 10 11 0 15 -11 15 -37z"/>
<path d="M4208 5173 c-10 -2 -18 -9 -18 -14 0 -5 -7 -9 -15 -9 -9 0 -19 -8
-22 -17 -4 -10 -13 -24 -20 -31 -7 -7 -13 -23 -13 -35 0 -12 -4 -28 -8 -35
-21 -33 29 -172 62 -172 5 0 14 -7 20 -15 7 -9 33 -15 79 -16 66 -2 69 -1 97
32 16 19 29 44 30 55 0 12 7 27 15 34 16 14 20 65 6 74 -5 4 -12 24 -16 46 -4
23 -12 40 -20 40 -7 0 -15 8 -18 19 -3 12 -13 19 -30 19 -14 0 -33 7 -42 16
-16 15 -50 19 -87 9z"/>
</g>
</svg>
