<?xml version="1.0" standalone="no"?>
<!DOCTYPE svg PUBLIC "-//W3C//DTD SVG 20010904//EN"
 "http://www.w3.org/TR/2001/REC-SVG-20010904/DTD/svg10.dtd">
<svg version="1.0" xmlns="http://www.w3.org/2000/svg"
 width="937.000000pt" height="1012.000000pt" viewBox="0 0 937.000000 1012.000000"
 preserveAspectRatio="xMidYMid meet">
<metadata>
Created by potrace 1.16, written by Peter Selinger 2001-2019
</metadata>
<g transform="translate(0.000000,1012.000000) scale(0.100000,-0.100000)"
fill="#000000" stroke="none">
<path d="M3508 9301 c4 -10 1 -13 -12 -8 -10 4 -15 3 -11 -3 3 -6 -5 -10 -19
-10 -13 0 -32 -7 -41 -16 -10 -11 -27 -15 -50 -12 -20 2 -31 0 -28 -6 4 -5 -1
-7 -10 -3 -12 4 -14 2 -10 -10 5 -13 0 -15 -25 -11 -19 3 -29 1 -25 -5 4 -6
-2 -8 -15 -5 -14 4 -19 2 -16 -7 4 -8 -12 -17 -45 -25 -28 -7 -51 -16 -51 -21
0 -5 -11 -9 -25 -9 -14 0 -25 -4 -25 -10 0 -5 -7 -7 -15 -4 -9 4 -15 0 -15 -9
0 -9 -13 -18 -31 -22 -17 -4 -42 -13 -57 -21 -15 -8 -37 -14 -50 -14 -12 0
-30 -4 -40 -10 -37 -21 -256 -52 -430 -62 -159 -8 -194 -7 -270 8 -152 30
-172 27 -292 -46 -58 -35 -120 -76 -137 -91 -43 -37 -145 -102 -160 -102 -7 0
-11 -5 -10 -11 1 -6 -6 -10 -15 -10 -10 1 -16 -2 -13 -6 3 -4 -12 -19 -33 -33
-20 -14 -64 -48 -96 -76 -33 -27 -64 -47 -69 -44 -6 3 -7 1 -3 -5 8 -13 -28
-35 -39 -24 -5 4 -5 2 -2 -4 6 -10 -111 -113 -222 -194 -27 -20 -79 -64 -117
-99 -38 -35 -79 -68 -91 -73 -12 -6 -24 -20 -27 -31 -3 -12 -8 -18 -11 -15 -4
4 -15 -1 -26 -10 -10 -9 -28 -25 -39 -34 -11 -10 -24 -18 -28 -18 -5 0 -17 -9
-27 -20 -10 -11 -22 -20 -28 -20 -5 0 -22 -9 -38 -21 -16 -11 -34 -17 -40 -13
-7 4 -9 3 -6 -3 9 -15 -19 -36 -35 -27 -7 4 -10 4 -6 -1 9 -9 -84 -75 -105
-75 -18 0 -57 -37 -57 -55 0 -16 -93 -107 -121 -117 -19 -7 -28 -63 -11 -70 5
-1 22 -23 39 -48 17 -25 77 -92 133 -150 158 -162 176 -182 201 -225 13 -21
29 -46 37 -55 35 -41 62 -79 62 -88 0 -12 24 -22 50 -22 14 0 22 11 30 38 12
45 52 88 72 76 7 -4 10 -3 5 1 -9 11 52 75 72 75 8 0 22 6 30 14 9 8 37 29 63
48 26 18 89 65 140 104 157 120 201 148 230 146 14 -1 33 5 41 13 9 8 20 15
25 15 6 0 13 6 15 13 4 10 6 10 6 0 1 -15 51 -18 51 -3 0 6 -7 10 -15 10 -8 0
-15 7 -15 15 0 8 6 15 14 15 8 0 16 6 19 14 6 15 47 29 47 15 0 -5 -7 -9 -15
-9 -8 0 -15 -4 -15 -10 0 -5 11 -10 25 -10 16 0 25 6 25 15 0 8 5 15 10 15 6
0 10 -7 10 -15 0 -8 5 -15 10 -15 6 0 10 6 10 14 0 8 7 16 15 20 8 3 15 15 15
26 0 11 -7 20 -15 20 -24 0 -17 17 10 24 14 4 23 11 20 16 -3 5 4 11 15 15 25
8 26 40 3 54 -21 11 -25 6 76 95 35 31 68 53 74 49 5 -3 7 -1 4 4 -4 6 8 22
26 36 17 13 65 54 105 90 40 36 114 95 165 131 51 36 102 74 112 84 11 10 58
48 105 86 47 37 68 52 48 33 -21 -19 -38 -37 -38 -41 0 -3 18 -6 40 -6 30 0
40 4 40 16 0 11 6 15 20 11 13 -3 18 -1 13 6 -4 6 1 8 14 5 15 -4 20 -1 19 11
-1 10 7 16 20 15 16 0 20 4 16 19 -4 17 -1 19 21 15 16 -3 24 -1 21 6 -4 12
31 34 146 92 41 21 93 49 115 64 22 14 56 33 75 42 46 21 164 114 269 214 47
43 90 78 96 78 7 -1 12 6 11 15 0 9 7 16 16 16 10 0 17 2 16 5 -2 3 5 16 15
30 9 13 17 32 17 41 0 22 91 101 108 94 7 -3 11 -1 8 4 -8 12 18 21 43 14 49
-13 85 73 42 97 -21 10 -78 3 -87 -11 -8 -14 -27 -10 -21 4 3 7 -3 13 -13 13
-11 0 -16 -5 -12 -15z"/>
<path d="M2386 8353 c-10 -3 -37 -23 -58 -44 -22 -22 -45 -36 -50 -33 -7 4 -8
2 -4 -4 4 -7 3 -12 -2 -12 -5 0 -28 -18 -53 -40 -24 -22 -49 -40 -55 -40 -7 0
-14 -10 -17 -22 -4 -12 -9 -19 -13 -15 -4 4 -14 -2 -22 -14 -8 -11 -20 -18
-27 -15 -7 2 -21 -5 -32 -17 l-18 -22 25 20 25 20 -19 -23 c-11 -12 -25 -21
-32 -18 -7 3 -18 -3 -26 -12 -12 -16 -11 -16 7 -3 11 8 2 -2 -19 -22 -22 -20
-46 -37 -53 -37 -7 0 -13 -7 -13 -15 0 -8 -7 -15 -15 -15 -8 0 -15 -7 -15 -15
0 -8 -7 -15 -16 -15 -9 0 -12 5 -8 13 4 6 -2 3 -14 -7 -25 -21 -31 -36 -7 -16
8 7 15 8 15 2 0 -14 -25 -33 -33 -25 -10 9 -11 -30 -3 -84 1 -7 6 -16 11 -20
4 -4 5 -2 0 6 -6 10 -4 12 4 7 7 -5 10 -14 7 -22 -3 -7 0 -16 6 -20 7 -5 8 -2
3 6 -6 9 -4 11 4 6 7 -5 10 -14 7 -22 -3 -9 0 -11 11 -7 13 5 15 2 10 -11 -5
-11 -3 -15 5 -10 7 5 9 2 5 -9 -4 -11 -2 -14 9 -10 8 3 14 -1 14 -9 0 -7 10
-18 23 -23 12 -6 21 -16 19 -23 -1 -7 2 -12 8 -12 5 0 10 -7 10 -16 0 -8 5
-12 10 -9 6 3 10 -1 10 -9 0 -8 10 -24 21 -35 12 -11 19 -26 16 -34 -4 -11 0
-13 14 -10 13 4 19 0 19 -10 0 -9 8 -20 17 -26 10 -5 18 -22 19 -38 1 -20 6
-27 18 -25 9 2 16 -3 16 -10 0 -8 8 -20 18 -29 9 -8 28 -30 42 -48 14 -18 33
-41 44 -51 10 -11 16 -25 13 -33 -4 -11 0 -13 14 -10 13 4 19 0 19 -10 0 -9 7
-20 17 -25 9 -5 14 -16 10 -25 -4 -11 0 -13 14 -10 10 3 19 1 19 -5 0 -6 11
-23 25 -38 14 -15 25 -33 25 -40 0 -8 4 -14 9 -14 5 0 13 -9 16 -20 3 -11 11
-20 17 -20 17 0 60 -51 54 -65 -3 -9 2 -11 16 -7 16 4 19 1 16 -19 -2 -20 1
-23 20 -21 12 2 22 -2 22 -7 0 -6 8 -20 18 -31 9 -10 27 -31 40 -44 12 -14 22
-28 22 -31 0 -3 18 -23 40 -45 23 -23 38 -45 35 -50 -3 -6 1 -7 10 -3 13 4 16
1 13 -18 -2 -15 2 -23 9 -22 17 4 63 -41 63 -61 0 -9 7 -16 16 -16 11 0 15 -6
11 -19 -3 -15 0 -17 16 -13 17 4 19 1 15 -16 -3 -12 -3 -21 1 -20 11 2 41 -14
41 -23 0 -5 18 -26 40 -46 22 -21 40 -44 40 -50 0 -7 7 -13 15 -13 8 0 15 -9
15 -20 0 -11 7 -20 16 -20 10 0 14 -7 12 -22 -2 -17 2 -23 17 -23 13 0 20 -7
20 -20 0 -14 6 -19 19 -17 15 3 18 -1 13 -17 -3 -13 -1 -19 5 -15 10 7 55 -36
50 -48 -1 -5 3 -8 8 -8 15 0 60 -50 60 -65 0 -7 7 -16 15 -19 9 -3 15 -14 13
-23 -2 -13 3 -17 15 -15 13 2 17 -2 15 -15 -2 -12 3 -18 17 -18 13 0 20 -7 20
-20 0 -14 6 -19 19 -17 15 3 18 -1 13 -17 -3 -12 -2 -19 3 -16 9 6 52 -30 44
-38 -3 -3 3 -12 15 -19 12 -7 21 -18 21 -25 0 -7 9 -17 21 -23 11 -7 18 -17
16 -25 -3 -7 1 -12 11 -11 10 1 16 -6 16 -16 -1 -10 2 -16 6 -13 13 8 73 -53
67 -68 -4 -11 0 -13 14 -10 11 3 19 0 19 -7 0 -13 72 -105 99 -128 9 -7 16
-21 16 -30 0 -11 7 -16 18 -14 10 2 17 -3 17 -13 0 -8 7 -15 15 -15 8 0 15 -7
15 -15 0 -8 7 -15 16 -15 11 0 15 -6 11 -20 -3 -11 -1 -18 3 -15 11 7 56 -40
75 -76 8 -15 21 -29 30 -32 8 -4 15 -13 15 -22 0 -8 7 -15 16 -15 11 0 15 -6
11 -20 -3 -11 -1 -17 4 -14 13 8 72 -54 66 -70 -4 -10 0 -12 14 -9 13 4 19 0
19 -11 0 -9 9 -21 20 -28 11 -7 20 -18 20 -25 0 -7 6 -13 14 -13 13 0 31 -27
28 -42 -1 -5 5 -8 13 -8 8 0 16 -4 16 -10 1 -5 2 -14 3 -19 0 -6 8 -16 16 -23
12 -11 12 -10 0 7 -14 19 -14 19 3 6 10 -8 16 -20 13 -27 -3 -8 -2 -13 2 -13
23 4 34 -3 28 -17 -3 -8 -2 -12 4 -9 6 3 10 1 10 -4 0 -6 7 -11 15 -11 9 0 15
-9 15 -21 0 -14 5 -19 14 -16 9 4 16 -3 20 -19 4 -13 11 -24 16 -24 6 0 10 -7
10 -15 0 -8 7 -15 15 -15 8 0 15 -5 15 -11 0 -6 14 -22 30 -36 17 -14 29 -33
28 -42 -2 -11 3 -15 16 -13 14 3 18 -1 14 -16 -4 -15 -1 -18 12 -15 12 3 19
-3 24 -22 4 -14 11 -23 16 -20 6 3 10 2 10 -4 0 -6 10 -19 21 -30 12 -11 19
-26 16 -34 -4 -11 0 -13 14 -10 12 4 19 0 19 -10 0 -8 10 -17 22 -20 12 -4 20
-9 16 -12 -3 -3 14 -27 38 -52 24 -25 44 -52 44 -60 0 -7 6 -12 12 -10 7 1 14
-8 16 -20 2 -13 10 -23 18 -23 9 0 14 -7 12 -17 -2 -12 4 -18 17 -18 14 0 20
-7 19 -21 0 -16 4 -20 18 -16 12 3 18 -1 18 -11 0 -9 9 -19 20 -22 11 -4 18
-10 15 -15 -3 -4 2 -11 11 -14 9 -4 14 -9 10 -13 -3 -3 3 -12 14 -20 11 -8 20
-21 20 -29 0 -8 5 -12 10 -9 6 3 13 -2 17 -12 4 -10 13 -23 22 -29 8 -6 12
-18 8 -26 -4 -12 0 -14 15 -10 17 4 20 2 15 -12 -5 -11 -3 -15 5 -10 7 5 9 2
5 -8 -4 -12 -1 -14 15 -10 17 4 20 1 16 -15 -4 -16 -2 -19 13 -16 13 4 19 0
19 -12 0 -9 9 -19 19 -22 12 -3 17 -11 14 -19 -3 -8 1 -14 9 -14 7 0 22 -15
33 -32 10 -18 25 -38 33 -44 9 -6 13 -18 9 -26 -4 -12 0 -14 14 -11 13 4 19 0
19 -11 0 -9 7 -16 15 -16 13 0 20 -18 16 -42 0 -4 7 -4 16 -1 13 5 15 2 11
-14 -4 -16 -2 -19 13 -16 11 3 19 1 19 -4 0 -6 20 -32 45 -59 25 -27 44 -56
41 -65 -2 -10 3 -16 13 -15 9 1 15 -6 15 -16 -1 -10 2 -16 6 -13 12 7 72 -55
67 -70 -4 -9 1 -11 14 -8 13 4 19 0 19 -10 0 -9 9 -21 20 -27 11 -6 20 -17 20
-25 0 -8 7 -15 15 -15 9 0 18 -8 22 -17 3 -10 15 -26 25 -37 11 -10 17 -25 14
-33 -3 -8 -1 -11 4 -8 14 8 72 -54 66 -70 -3 -8 2 -11 15 -8 13 4 19 0 19 -11
0 -9 7 -16 15 -16 9 0 15 -9 15 -25 0 -16 6 -25 15 -25 8 0 15 -7 15 -15 0 -8
7 -15 15 -15 8 0 15 -6 15 -14 0 -8 9 -18 20 -21 18 -6 25 -17 21 -38 -1 -5 3
-5 9 -2 7 4 10 0 8 -11 -2 -14 2 -18 16 -16 14 3 18 -1 14 -16 -4 -15 -1 -18
13 -15 12 3 19 0 19 -9 0 -7 9 -21 20 -31 11 -9 20 -24 20 -32 0 -8 7 -15 15
-15 8 0 15 -7 15 -15 0 -8 7 -15 15 -15 8 0 15 -7 15 -15 0 -8 6 -15 13 -15
18 0 80 -79 73 -95 -3 -9 0 -12 9 -9 9 4 19 -4 26 -20 7 -14 16 -23 20 -20 5
3 9 -4 9 -15 0 -12 7 -21 15 -21 8 0 15 -6 15 -14 0 -8 9 -18 21 -21 14 -5 19
-13 16 -26 -3 -11 -1 -16 5 -13 5 3 18 -3 29 -15 11 -12 25 -21 31 -21 6 0 9
-3 5 -6 -3 -3 6 -18 21 -34 15 -15 36 -39 47 -54 11 -15 26 -33 33 -42 8 -8
12 -21 9 -28 -3 -8 1 -13 11 -12 11 1 17 -6 17 -19 0 -13 7 -20 20 -20 14 0
20 -6 19 -21 0 -16 4 -20 18 -16 12 3 18 -1 18 -12 0 -9 8 -16 21 -16 11 0 17
-5 14 -10 -3 -6 7 -22 24 -36 17 -14 31 -32 31 -40 0 -9 5 -12 10 -9 9 6 14
-9 13 -41 0 -6 7 -11 16 -10 10 1 16 -7 15 -20 0 -16 4 -20 19 -16 16 4 19 1
15 -15 -4 -16 -2 -19 14 -15 16 4 19 0 16 -19 -2 -18 1 -23 14 -21 9 1 22 -7
28 -18 6 -11 17 -20 24 -20 8 0 13 -8 12 -17 0 -11 6 -17 17 -17 10 1 17 -5
17 -17 0 -10 5 -21 10 -24 6 -4 8 -10 5 -15 -3 -5 0 -12 6 -16 8 -5 9 -3 4 6
-5 9 -4 11 4 6 6 -4 10 -15 9 -24 -2 -11 3 -16 14 -14 9 1 19 -6 23 -18 3 -11
13 -20 21 -20 10 0 14 -8 12 -22 -2 -14 2 -22 10 -20 12 2 102 -83 102 -98 0
-4 7 -11 16 -14 9 -3 14 -13 11 -20 -3 -8 2 -20 11 -28 16 -12 16 -11 2 7 -8
11 5 0 28 -24 23 -24 42 -48 42 -53 0 -4 7 -8 16 -8 11 0 15 -6 11 -20 -3 -10
-2 -19 2 -18 20 2 31 -4 31 -17 0 -9 7 -18 15 -21 8 -4 15 -12 15 -20 0 -8 4
-14 9 -14 14 0 62 -50 57 -59 -3 -5 2 -15 12 -22 16 -13 16 -12 3 6 -8 11 0 4
17 -15 17 -19 39 -43 48 -52 9 -9 13 -21 9 -27 -3 -7 0 -8 9 -5 10 4 17 -2 22
-20 3 -14 12 -26 20 -26 8 0 14 -7 14 -15 0 -8 5 -15 10 -15 14 0 80 -72 74
-81 -2 -4 1 -11 7 -15 8 -5 9 -3 4 6 -6 9 -4 11 4 6 7 -5 10 -15 7 -23 -4 -9
-2 -11 6 -7 7 5 9 2 5 -8 -3 -10 0 -15 11 -14 11 1 17 -7 17 -19 0 -13 6 -19
18 -17 11 2 17 -4 17 -18 0 -11 5 -19 12 -18 7 2 17 -7 23 -19 5 -13 15 -23
22 -23 7 0 13 -6 13 -14 0 -8 7 -16 15 -20 8 -3 15 -12 15 -21 0 -8 6 -15 13
-15 19 0 69 -58 61 -71 -5 -8 -3 -9 6 -4 10 6 12 4 7 -8 -4 -10 -2 -14 6 -12
7 3 23 -11 37 -31 14 -19 33 -44 44 -54 10 -10 16 -25 13 -33 -4 -11 0 -13 14
-10 13 4 19 0 19 -11 0 -13 12 -16 70 -16 39 0 73 0 78 1 4 0 6 7 4 16 -3 12
2 14 17 10 13 -3 19 -1 15 5 -4 5 4 8 17 6 18 -2 23 1 21 14 -2 13 4 18 23 18
14 0 28 7 31 15 4 8 12 15 18 15 7 0 22 11 34 25 12 14 28 25 37 25 8 0 19 9
26 21 7 13 17 19 29 16 13 -3 17 0 13 9 -3 8 0 14 6 14 6 0 20 9 31 20 12 12
26 18 32 14 7 -5 8 -3 3 6 -6 10 -4 12 9 7 10 -4 15 -3 11 3 -3 5 14 32 39 58
26 27 46 54 46 59 0 6 7 13 15 17 8 3 15 13 15 21 0 9 4 13 10 10 6 -3 7 1 4
9 -3 9 -2 16 4 16 6 0 13 13 17 29 3 16 14 36 23 43 16 12 16 11 2 -7 -14 -18
-14 -19 2 -7 9 8 14 20 11 28 -3 7 0 27 6 44 5 17 6 28 2 25 -5 -2 -12 7 -15
20 -4 14 -11 23 -16 20 -5 -3 -11 4 -15 15 -3 11 -13 20 -22 20 -11 0 -14 7
-11 24 4 19 1 22 -14 18 -12 -3 -18 1 -18 11 0 9 -9 18 -19 22 -12 4 -18 12
-14 21 3 9 -2 14 -16 14 -12 0 -21 6 -21 13 0 7 -11 21 -25 31 -14 10 -25 27
-25 38 0 11 -5 16 -10 13 -11 -7 -31 35 -23 47 2 4 -4 5 -13 1 -14 -5 -16 -2
-12 15 4 14 2 19 -7 16 -14 -6 -39 21 -31 35 3 5 -3 7 -14 4 -14 -4 -20 0 -20
11 0 9 -8 16 -20 16 -12 0 -17 5 -14 13 3 8 -6 18 -20 25 -13 6 -27 20 -31 32
-3 11 -11 18 -16 15 -5 -4 -9 3 -9 14 0 13 -7 21 -16 21 -11 0 -15 6 -11 19 3
13 -4 28 -22 43 l-26 23 25 -30 25 -30 -28 25 c-15 13 -26 29 -23 36 2 6 -3
11 -12 10 -11 -1 -17 7 -17 19 0 13 -6 19 -18 17 -10 -2 -17 3 -17 12 0 8 -9
17 -19 21 -12 4 -18 12 -14 21 3 9 -2 14 -15 14 -12 0 -23 9 -27 20 -3 11 -13
20 -22 20 -11 0 -14 7 -11 24 4 19 1 22 -15 18 -16 -4 -19 -1 -15 16 4 14 2
19 -7 16 -14 -6 -39 21 -31 34 3 6 -2 9 -12 8 -10 0 -16 6 -16 16 1 10 -3 15
-9 11 -6 -4 -8 0 -4 10 4 11 2 14 -8 10 -9 -3 -18 3 -22 13 -4 11 -31 43 -61
72 -31 31 -51 59 -48 67 3 9 0 12 -8 9 -18 -7 -70 42 -63 59 3 9 -1 14 -11 13
-10 0 -16 6 -16 16 1 10 -1 17 -5 16 -17 -2 -31 3 -31 12 0 5 -20 30 -46 56
-26 27 -43 53 -40 61 3 8 1 11 -5 8 -9 -6 -59 38 -59 53 0 4 -9 13 -21 20 -11
7 -18 19 -15 27 3 9 0 12 -9 9 -8 -3 -20 6 -29 23 -8 15 -15 25 -16 21 0 -4
-12 5 -27 20 -15 15 -27 30 -26 34 2 4 -7 10 -18 13 -14 5 -19 13 -16 26 3 11
1 16 -5 13 -12 -8 -73 64 -73 86 0 8 -8 14 -17 12 -9 -1 -18 7 -21 19 -3 12
-10 18 -16 14 -7 -3 -11 2 -11 14 0 12 -7 21 -15 21 -8 0 -15 9 -15 20 0 13
-7 20 -19 20 -11 0 -23 9 -26 20 -3 11 -13 20 -22 20 -10 0 -14 6 -10 19 3 14
0 17 -14 14 -13 -4 -19 0 -19 11 0 9 -7 19 -15 22 -9 4 -14 14 -13 22 2 9 -3
17 -9 18 -7 1 -17 2 -23 3 -5 0 -10 8 -10 16 0 8 -9 23 -20 32 -11 10 -20 23
-20 30 0 7 -7 13 -15 13 -8 0 -15 7 -15 15 0 8 -4 15 -10 15 -17 0 -72 61 -67
74 4 10 -1 12 -15 8 -16 -4 -19 -1 -16 19 2 18 -1 23 -14 21 -9 -1 -19 6 -23
18 -4 11 -11 18 -16 15 -5 -4 -14 5 -21 19 -6 14 -15 26 -20 26 -4 0 -8 7 -8
15 0 8 -7 15 -15 15 -9 0 -18 7 -22 16 -3 9 -24 33 -46 54 -24 23 -37 44 -34
53 4 11 0 13 -14 10 -13 -4 -19 0 -19 11 0 9 -5 16 -10 16 -6 0 -16 11 -22 25
-6 14 -18 25 -25 25 -9 0 -13 8 -11 22 2 18 -1 22 -16 20 -13 -3 -17 1 -13 12
4 9 3 15 -1 15 -20 -3 -32 3 -32 16 0 8 -5 15 -11 15 -24 0 -153 155 -145 175
2 7 -3 12 -12 11 -10 0 -17 6 -16 15 1 9 -6 16 -15 15 -10 -1 -16 7 -15 20 0
15 -5 20 -17 17 -11 -3 -19 3 -24 16 -3 12 -15 21 -26 21 -10 0 -19 7 -19 15
0 8 -5 15 -10 15 -6 0 -15 11 -22 25 -6 13 -15 22 -19 19 -5 -3 -9 2 -9 10 0
8 -9 20 -21 26 -13 7 -19 19 -17 33 2 17 -1 21 -16 19 -14 -3 -17 1 -12 13 4
11 2 14 -6 9 -7 -5 -9 -2 -5 8 3 10 0 15 -11 14 -10 0 -16 6 -16 16 1 10 -1
17 -5 16 -18 -5 -49 15 -44 28 3 9 -2 14 -16 14 -15 0 -21 6 -21 21 0 15 -5
19 -15 15 -10 -4 -15 1 -15 15 0 11 -7 22 -15 25 -9 4 -14 14 -13 23 2 11 -3
15 -15 13 -12 -2 -21 4 -24 17 -3 12 -12 21 -20 21 -10 0 -14 7 -10 19 3 12
-1 18 -12 17 -9 -1 -15 6 -15 16 1 10 -1 16 -5 15 -6 -2 -51 43 -101 100 -8
10 -15 24 -15 33 0 9 -8 14 -19 12 -14 -3 -17 1 -12 14 4 10 4 15 0 12 -10
-11 -44 11 -44 27 0 8 -7 15 -16 15 -11 0 -15 6 -11 19 3 14 0 17 -14 14 -11
-3 -19 0 -19 8 0 7 -19 31 -42 54 -63 61 -80 85 -74 101 4 9 1 12 -5 8 -13 -8
-71 56 -65 72 3 7 -3 10 -15 7 -13 -4 -19 0 -19 11 0 9 -7 16 -15 16 -8 0 -15
7 -15 15 0 8 -9 20 -20 27 -11 7 -20 18 -20 25 0 7 -5 13 -11 13 -19 0 -61 51
-55 67 3 8 1 11 -4 8 -11 -7 -66 53 -62 67 1 5 -3 6 -9 2 -9 -5 -10 -2 -6 9 4
11 2 14 -8 11 -9 -4 -19 4 -26 20 -7 14 -16 26 -20 26 -4 0 -11 9 -14 20 -3
11 -13 20 -21 20 -8 0 -14 6 -14 14 0 8 -9 18 -20 21 -18 6 -24 17 -21 37 0 4
-7 4 -16 1 -13 -5 -15 -2 -9 12 4 11 4 16 0 13 -12 -13 -46 13 -41 32 3 13 0
16 -14 13 -12 -3 -19 0 -19 8 0 8 -14 28 -31 44 -17 17 -36 42 -41 58 -6 15
-15 27 -22 27 -16 0 -51 41 -51 60 0 9 -8 14 -19 12 -14 -3 -17 1 -12 13 4 11
2 14 -6 9 -7 -5 -9 -2 -5 8 4 12 1 14 -14 11 -13 -4 -19 0 -19 11 0 9 -7 16
-15 16 -8 0 -15 9 -15 20 0 11 -7 20 -15 20 -8 0 -15 5 -15 12 0 13 -59 68
-73 68 -5 0 -5 5 -2 10 4 6 -5 20 -19 31 -15 12 -25 28 -24 37 2 11 -3 16 -14
14 -11 -2 -18 3 -18 13 0 8 -7 15 -15 15 -8 0 -17 11 -21 25 -3 14 -13 25 -21
25 -9 0 -13 8 -11 23 2 17 -1 21 -15 19 -13 -2 -17 2 -15 15 2 14 -2 17 -19
15 -15 -2 -23 2 -23 11 0 8 -9 17 -20 20 -13 3 -18 10 -14 21 4 12 0 16 -15
16 -12 0 -21 6 -21 13 -1 6 -19 30 -40 52 -36 35 -45 53 -41 77 0 4 -7 4 -16
1 -13 -5 -15 -2 -11 14 4 16 2 19 -14 15 -16 -4 -19 0 -16 19 2 16 -1 23 -11
21 -7 -2 -20 6 -28 18 -8 11 -20 20 -28 20 -9 0 -12 6 -9 15 4 10 0 15 -15 15
-12 0 -21 6 -21 14 0 7 -9 16 -20 19 -12 3 -20 14 -20 26 0 12 -6 21 -16 21
-10 0 -14 7 -12 23 2 17 -1 21 -16 19 -14 -3 -18 1 -14 16 4 14 1 19 -11 18
-9 0 -16 7 -16 16 0 9 -4 20 -9 25 -5 5 -6 2 -1 -6 6 -10 4 -12 -4 -7 -7 5
-10 15 -7 23 4 9 2 11 -6 7 -6 -4 -16 0 -22 8 -6 8 -19 17 -29 21 -10 4 -16
11 -12 16 3 5 -4 12 -15 16 -11 3 -20 12 -20 20 0 7 -7 20 -15 29 -9 8 -14 21
-13 28 2 8 -4 12 -15 10 -12 -2 -21 4 -24 17 -3 12 -12 21 -19 21 -8 0 -14 7
-14 15 0 8 -7 15 -16 15 -10 0 -14 6 -11 14 7 18 -11 36 -29 29 -8 -3 -14 0
-14 7 0 7 -21 37 -46 66 -25 30 -43 58 -40 63 3 5 -4 7 -16 3 -17 -4 -20 -2
-16 15 4 16 2 19 -13 16 -13 -4 -19 0 -19 11 0 9 -7 19 -15 22 -9 4 -14 14
-13 23 2 11 -3 15 -15 13 -12 -2 -21 4 -24 17 -3 12 -12 21 -19 21 -8 0 -14 9
-14 20 0 11 -7 20 -15 20 -8 0 -15 7 -15 15 0 8 -4 15 -10 15 -16 0 -51 43
-46 57 3 7 -1 10 -9 7 -9 -4 -16 3 -21 20 -3 14 -13 26 -21 26 -11 0 -14 7
-11 25 3 16 -1 30 -11 37 -14 12 -15 11 -1 -6 10 -14 11 -17 2 -12 -7 4 -17
19 -23 33 -5 13 -13 22 -18 19 -5 -3 -12 5 -15 19 -4 14 -13 25 -21 25 -8 0
-15 6 -15 14 0 8 -9 17 -19 21 -11 3 -22 12 -25 20 -3 8 -13 15 -22 15 -11 0
-15 6 -11 19 3 14 0 17 -14 14 -12 -3 -19 0 -19 8 0 8 -9 20 -21 27 -11 7 -18
19 -16 26 4 9 0 12 -12 9 -11 -3 -22 5 -31 21 -7 14 -17 26 -22 26 -4 0 -8 7
-8 15 0 8 -7 15 -15 15 -8 0 -15 7 -15 15 0 8 -9 15 -21 15 -11 0 -18 4 -15 9
3 4 -6 13 -20 20 -16 7 -24 17 -20 26 3 8 0 12 -7 9 -12 -4 -62 42 -62 58 0 3
-4 10 -9 15 -6 5 -6 2 -1 -7 8 -13 7 -13 -8 -1 -9 7 -17 22 -17 33 0 14 -5 18
-15 14 -10 -4 -15 1 -15 15 0 11 -7 22 -15 25 -8 4 -15 12 -15 19 0 8 -9 17
-20 20 -11 4 -18 11 -15 16 4 5 2 9 -4 9 -6 0 -8 6 -5 14 3 9 -3 17 -16 21
-13 4 -19 12 -16 21 4 10 2 12 -6 8 -7 -5 -9 -2 -5 8 4 12 1 14 -15 10 -17 -4
-20 -2 -15 11 4 10 5 16 4 16 -1 -1 -11 -3 -21 -6z"/>
</g>
</svg>
