<?xml version="1.0" standalone="no"?>
<!DOCTYPE svg PUBLIC "-//W3C//DTD SVG 20010904//EN"
 "http://www.w3.org/TR/2001/REC-SVG-20010904/DTD/svg10.dtd">
<svg version="1.0" xmlns="http://www.w3.org/2000/svg"
 width="1241.000000pt" height="966.000000pt" viewBox="0 0 1241.000000 966.000000"
 preserveAspectRatio="xMidYMid meet">
<metadata>
Created by potrace 1.16, written by Peter Selinger 2001-2019
</metadata>
<g transform="translate(0.000000,966.000000) scale(0.100000,-0.100000)"
fill="#000000" stroke="none">
<path d="M3799 8431 c-8 -10 -18 -25 -22 -34 -3 -9 -11 -17 -17 -17 -5 0 -10
-6 -10 -14 0 -8 -6 -16 -12 -19 -18 -6 -14 -283 4 -306 23 -29 38 -60 38 -80
0 -10 7 -32 15 -47 8 -16 15 -44 15 -61 0 -18 5 -33 11 -33 5 0 7 5 3 12 -4 7
-3 8 4 4 6 -4 14 -29 18 -56 5 -36 11 -50 25 -53 14 -4 19 -14 19 -37 0 -17 7
-38 15 -46 8 -9 15 -27 15 -41 0 -16 7 -27 20 -30 15 -4 20 -14 20 -39 0 -28
4 -34 20 -34 11 0 23 -7 25 -15 3 -8 8 -23 12 -32 3 -10 7 -21 7 -25 1 -3 4
-10 9 -14 4 -4 8 -23 8 -43 1 -20 3 -28 6 -18 12 46 32 -5 34 -87 0 -22 3 -35
6 -28 8 21 32 -18 33 -54 0 -23 5 -33 20 -37 15 -4 20 -14 20 -36 0 -19 6 -34
15 -37 20 -8 16 -62 -5 -68 -8 -3 -50 -5 -92 -5 -70 0 -78 2 -78 20 0 10 -6
19 -14 19 -8 0 -17 15 -20 34 -4 19 -13 37 -21 40 -9 3 -15 19 -15 41 0 25 -5
38 -17 43 -10 4 -19 18 -21 32 -1 14 -8 30 -15 35 -17 15 -37 52 -37 70 0 8
-5 15 -11 15 -5 0 -8 4 -5 9 3 5 -1 14 -9 21 -8 7 -15 18 -15 25 0 8 -6 16
-12 18 -10 4 -10 8 0 15 11 7 11 10 -2 15 -11 5 -16 20 -16 53 0 35 -3 45 -14
41 -15 -6 -26 31 -26 84 0 18 -5 29 -14 29 -19 0 -26 73 -26 263 l0 157 -24 0
c-29 0 -56 -24 -56 -50 0 -12 -10 -21 -30 -25 -29 -6 -42 -25 -18 -25 9 0 9
-3 0 -12 -14 -14 -17 -154 -3 -162 5 -3 12 -82 16 -176 6 -131 10 -170 21
-170 9 0 15 -22 20 -70 3 -38 10 -67 14 -65 15 9 20 -40 5 -51 -19 -14 -19
-51 0 -70 22 -22 18 -43 -9 -56 -37 -16 -56 -4 -56 37 0 30 -3 35 -22 35 -17
0 -19 -3 -9 -9 11 -7 9 -10 -8 -16 -22 -7 -29 -41 -10 -47 5 -2 13 -22 16 -45
3 -23 10 -41 16 -40 6 1 15 -15 20 -35 5 -21 15 -38 22 -38 14 0 25 -22 25
-50 0 -10 7 -20 15 -24 8 -3 15 -12 15 -20 0 -7 9 -16 20 -19 12 -3 20 -14 20
-26 0 -12 6 -21 15 -21 8 0 15 -7 15 -15 0 -8 5 -15 10 -15 13 0 29 -41 23
-57 -7 -18 -48 -16 -63 2 -7 8 -25 15 -39 15 -15 0 -37 9 -49 20 -12 11 -26
20 -33 20 -6 0 -22 12 -35 26 -17 18 -30 23 -44 19 -16 -5 -20 -2 -20 14 0 13
-6 21 -16 21 -19 0 -64 40 -64 56 0 7 -9 14 -21 17 -11 3 -23 15 -26 26 -3 12
-10 21 -15 21 -17 0 -58 44 -58 63 0 9 -6 17 -14 17 -8 0 -17 14 -21 30 -4 17
-13 30 -21 30 -8 0 -18 8 -21 18 -4 9 -13 22 -21 28 -7 5 -13 17 -12 25 5 32
-1 50 -17 56 -23 9 -33 23 -33 51 0 12 -4 22 -10 22 -5 0 -10 9 -10 19 0 11
-4 23 -10 26 -5 3 -10 16 -10 28 0 12 -9 28 -20 35 -11 7 -20 21 -20 32 0 15
-7 20 -29 20 -16 0 -35 -8 -42 -17 -12 -14 -12 -15 0 -9 8 5 17 3 22 -5 14
-22 11 -46 -6 -46 -27 0 -45 33 -51 95 -7 64 -16 72 -58 56 -18 -7 -23 -80 -5
-86 6 -2 13 -32 16 -66 4 -47 9 -62 19 -58 10 4 16 -7 20 -34 4 -23 12 -40 19
-40 8 0 16 -13 20 -29 4 -20 13 -31 28 -33 14 -2 23 -11 25 -25 2 -13 7 -23
11 -23 5 0 11 -14 15 -32 3 -17 9 -28 12 -25 9 9 34 -19 34 -37 0 -9 7 -16 15
-16 9 0 19 -8 22 -17 4 -10 12 -22 20 -26 7 -4 13 -15 13 -22 0 -8 7 -15 15
-15 9 0 18 -7 21 -15 4 -8 15 -15 25 -15 13 0 19 -7 19 -23 0 -13 5 -28 11
-34 8 -8 8 -13 0 -17 -6 -4 -11 -15 -11 -24 0 -19 41 -62 59 -62 20 0 36 -47
22 -64 -7 -8 -10 -20 -6 -26 3 -6 -3 -10 -14 -10 -12 0 -21 5 -21 10 0 6 -7
10 -15 10 -8 0 -19 9 -25 20 -6 11 -17 20 -25 20 -8 0 -15 9 -15 20 0 11 -7
20 -15 20 -8 0 -15 7 -15 15 0 9 -11 20 -25 25 -14 5 -25 16 -25 25 0 8 -7 15
-15 15 -9 0 -20 11 -25 25 -5 14 -14 25 -20 25 -6 0 -8 5 -5 10 3 6 -3 10 -14
10 -18 0 -21 -6 -21 -40 0 -22 5 -40 10 -40 6 0 10 -9 10 -20 0 -11 6 -20 14
-20 8 0 18 -4 21 -10 4 -6 -7 -10 -25 -10 -23 0 -33 6 -39 23 -5 12 -11 21
-15 20 -3 -2 -18 -2 -33 -2 -17 1 -21 3 -10 6 28 7 19 23 -13 23 -18 0 -33 6
-36 15 -4 8 -13 15 -22 15 -26 0 -99 48 -105 70 -4 15 -13 20 -40 20 -21 0
-37 6 -40 14 -3 8 -19 17 -36 21 -17 4 -31 13 -31 21 0 8 -9 14 -21 14 -12 0
-23 8 -26 20 -3 11 -14 20 -24 20 -11 0 -28 9 -39 20 -11 11 -24 20 -28 20 -4
0 -13 14 -19 31 -8 20 -16 28 -24 23 -7 -4 -9 -3 -5 4 3 6 2 13 -4 17 -5 3
-10 15 -10 25 0 10 -5 20 -11 22 -6 2 -13 25 -16 52 -4 31 -11 50 -22 54 -23
8 -31 23 -31 60 0 17 -4 32 -10 32 -5 0 -10 11 -10 24 0 14 -4 28 -10 31 -5 3
-10 15 -10 26 0 31 -27 22 -34 -12 -8 -44 4 -169 17 -166 6 1 15 -17 20 -40 6
-26 15 -43 24 -43 8 0 11 -4 8 -10 -9 -15 -41 -12 -59 5 -20 20 -86 20 -86 0
0 -9 7 -18 15 -21 19 -8 20 -34 1 -34 -13 0 -31 27 -28 41 1 4 -7 5 -18 2 -12
-3 -22 1 -26 11 -16 41 -24 6 -24 -100 0 -95 3 -115 14 -111 10 4 16 -6 20
-33 4 -25 14 -43 26 -50 11 -6 20 -17 20 -25 0 -8 7 -15 15 -15 11 0 15 -13
15 -54 0 -36 5 -58 15 -66 13 -11 15 -10 10 6 -3 10 1 6 9 -11 8 -16 15 -38
16 -47 0 -10 6 -18 14 -18 8 0 16 -14 20 -33 4 -23 14 -36 37 -46 19 -8 27
-16 20 -20 -7 -5 -1 -13 16 -22 16 -8 32 -20 36 -26 4 -7 16 -13 26 -13 10 0
30 -9 44 -20 14 -11 30 -20 36 -20 6 0 10 -5 9 -12 -2 -7 7 -17 20 -23 12 -5
22 -15 22 -22 0 -6 9 -15 20 -18 11 -3 20 -10 20 -15 0 -4 9 -10 20 -13 11 -3
20 -12 20 -20 0 -8 9 -17 20 -20 11 -3 20 -12 20 -21 0 -9 13 -18 35 -22 33
-6 59 -24 35 -24 -6 0 -8 -4 -5 -10 3 -5 15 -10 26 -10 11 0 22 -6 25 -14 3
-8 19 -18 35 -21 16 -4 29 -13 29 -21 0 -8 9 -14 20 -14 24 0 43 -34 35 -60
-5 -17 -15 -20 -60 -20 -30 0 -57 5 -61 11 -3 6 -17 9 -30 6 -13 -2 -24 0 -24
4 0 5 6 9 13 10 6 0 1 5 -13 11 -14 6 -31 10 -37 9 -7 -1 -13 5 -13 14 0 10
-9 19 -20 22 -11 3 -20 12 -20 19 0 8 -10 14 -25 14 -21 0 -25 -5 -25 -29 0
-34 -19 -51 -31 -28 -5 8 -23 18 -39 22 -17 4 -30 13 -30 21 0 8 -9 14 -21 14
-12 0 -23 8 -26 20 -4 14 -14 20 -34 20 -17 0 -32 6 -35 15 -4 8 -15 15 -26
15 -11 0 -22 8 -25 19 -3 12 -17 21 -38 25 -22 4 -35 13 -38 28 -4 14 -11 19
-21 15 -12 -5 -16 0 -16 18 0 16 -6 25 -15 25 -8 0 -15 7 -15 16 0 9 -9 18
-20 21 -11 3 -20 12 -20 19 0 8 -8 18 -17 22 -10 4 -19 18 -21 31 -3 30 -13
41 -19 23 -7 -19 -32 17 -33 46 0 13 -4 21 -9 18 -9 -6 -31 36 -31 59 0 8 -7
15 -15 15 -10 0 -15 11 -15 35 0 32 -2 35 -30 35 -28 0 -30 -2 -28 -40 1 -22
5 -40 10 -40 4 0 8 -15 8 -34 0 -25 5 -35 20 -39 15 -4 20 -14 20 -37 0 -33
29 -70 64 -83 9 -4 16 -13 16 -21 0 -7 7 -16 15 -20 8 -3 15 -12 15 -21 0 -8
7 -15 15 -15 8 0 15 -7 15 -15 0 -8 9 -15 20 -15 11 0 23 -7 27 -16 13 -35
102 -114 128 -114 16 0 25 -6 25 -16 0 -9 9 -18 20 -21 23 -6 27 -23 6 -23
-14 0 -31 -43 -27 -70 1 -12 -1 -11 -12 3 -8 9 -24 17 -35 17 -12 0 -26 9 -32
20 -6 11 -22 23 -35 26 -14 3 -25 12 -25 20 0 8 -10 14 -25 14 -18 0 -25 5
-25 20 0 11 -6 20 -14 20 -8 0 -16 6 -19 14 -3 8 -20 17 -37 21 -19 4 -36 16
-42 31 -6 13 -15 24 -19 24 -4 0 -10 13 -14 30 -4 16 -15 32 -26 35 -10 4 -19
15 -19 26 0 10 -7 19 -15 19 -8 0 -17 14 -21 35 -4 25 -11 35 -25 35 -15 0
-19 7 -19 31 0 17 -7 37 -15 45 -20 20 -19 100 0 138 23 44 19 56 -19 56 l-34
0 -9 -82 c-6 -57 -12 -82 -21 -80 -6 1 -12 -5 -12 -13 0 -9 -9 -19 -21 -23
-19 -8 -21 -16 -21 -150 0 -79 2 -145 6 -149 3 -3 6 5 7 18 1 33 29 -57 29
-94 0 -16 4 -26 8 -23 5 3 15 -10 22 -29 7 -19 19 -36 27 -39 7 -3 13 -19 13
-36 0 -20 5 -30 15 -30 9 0 20 -11 25 -25 5 -14 16 -25 24 -25 7 0 16 -7 20
-15 3 -8 12 -15 21 -15 8 0 15 -6 15 -14 0 -7 10 -20 22 -28 20 -13 21 -17 9
-32 -7 -9 -26 -16 -42 -16 -19 0 -29 -5 -29 -15 0 -8 7 -15 15 -15 9 0 15 -9
15 -21 0 -17 -4 -20 -22 -15 -13 3 -36 6 -52 6 -20 0 -27 4 -23 14 4 10 -6 15
-35 19 -23 3 -44 10 -47 14 -3 5 -14 12 -23 16 -10 3 -18 15 -18 26 0 14 -9
21 -35 25 -20 4 -35 13 -35 21 0 8 -13 15 -32 17 -25 2 -32 7 -30 21 2 13 -4
17 -27 17 -17 0 -34 6 -38 13 -4 7 -21 17 -38 23 -16 6 -29 16 -28 22 2 7 -6
12 -18 12 -12 0 -23 8 -26 20 -3 11 -11 20 -19 20 -7 0 -18 9 -24 20 -6 11
-15 18 -20 15 -5 -3 -11 -1 -15 5 -3 5 -18 10 -33 11 -15 0 -21 3 -14 6 15 6
6 23 -14 23 -10 0 -14 -12 -14 -40 0 -25 5 -40 13 -40 6 0 23 -12 36 -26 13
-14 30 -23 36 -20 14 5 25 -35 25 -85 0 -18 5 -29 14 -29 8 0 17 -15 20 -35 4
-22 13 -35 22 -35 10 0 15 -8 14 -22 -3 -38 -1 -48 13 -48 15 0 77 -63 77 -79
0 -6 6 -11 13 -11 14 0 57 -43 57 -58 0 -5 16 -13 35 -16 24 -5 33 -11 28 -21
-4 -11 2 -15 20 -15 14 0 27 -7 31 -15 3 -9 18 -15 40 -15 22 0 38 -6 44 -17
7 -12 27 -18 73 -21 35 -2 68 -8 74 -13 5 -5 21 -9 36 -9 15 0 29 -6 32 -14 3
-8 16 -16 29 -18 28 -4 39 -54 14 -64 -9 -3 -16 -12 -16 -20 0 -21 -195 -20
-204 1 -4 12 -25 15 -98 16 -51 0 -102 4 -113 9 -19 8 -19 9 0 9 40 2 -2 21
-49 23 -28 2 -50 8 -53 15 -3 7 -13 13 -23 13 -29 0 -50 11 -50 26 0 9 -12 14
-35 14 -25 0 -38 5 -42 18 -8 20 -30 39 -60 52 -19 8 -23 17 -23 55 0 36 -3
45 -17 45 -14 0 -15 2 -4 9 11 7 9 13 -8 30 -11 11 -25 21 -30 21 -10 0 -25
-30 -22 -46 1 -7 -9 -14 -21 -18 -38 -10 -88 -7 -88 5 0 22 -70 75 -92 71 -5
-1 -8 4 -8 12 0 8 -9 18 -20 21 -22 7 -27 25 -8 25 7 0 2 8 -12 17 -17 12 -25
13 -28 5 -6 -20 -22 -3 -22 25 0 19 -4 24 -16 19 -8 -3 -12 -2 -9 3 3 5 1 12
-5 16 -5 3 -10 14 -10 24 0 12 -9 20 -23 23 -18 4 -23 0 -25 -18 -1 -13 -3
-27 -4 -31 -5 -20 15 -73 28 -73 8 0 17 -7 20 -15 4 -8 13 -15 20 -15 8 0 19
-11 24 -25 5 -14 14 -25 20 -25 5 0 10 -7 10 -15 0 -9 11 -20 25 -25 14 -5 25
-15 25 -22 0 -9 3 -8 10 2 6 10 10 11 10 3 0 -7 11 -15 25 -19 14 -3 25 -12
25 -19 0 -7 9 -15 20 -18 11 -3 20 -12 20 -20 0 -9 13 -18 30 -22 16 -4 30
-11 30 -16 0 -5 9 -9 20 -9 11 0 25 -9 32 -20 7 -11 23 -20 35 -20 34 0 53
-11 53 -30 0 -10 7 -21 16 -24 8 -3 12 -10 9 -16 -13 -21 6 -48 39 -54 22 -4
36 -13 39 -26 3 -11 12 -20 21 -20 9 0 16 -7 16 -15 0 -8 8 -15 18 -15 9 0 26
-7 36 -15 11 -8 27 -15 37 -15 21 0 63 -21 69 -35 3 -5 34 -11 70 -12 84 -3
120 -12 144 -35 11 -10 24 -18 29 -18 5 0 4 -7 -3 -15 -17 -21 -30 -19 -30 5
0 24 -32 40 -38 21 -2 -7 -13 -21 -23 -29 -18 -16 -18 -17 -2 -24 10 -3 -46
-7 -124 -7 -123 -1 -142 1 -137 14 5 12 -6 15 -66 15 -58 0 -76 4 -86 18 -8
10 -13 12 -14 5 0 -14 -30 -18 -30 -4 0 4 -24 11 -52 14 -30 4 -58 13 -64 22
-6 8 -22 15 -35 15 -39 0 -69 11 -69 26 0 8 -15 14 -42 16 -30 2 -43 8 -43 18
0 18 -27 30 -55 25 -12 -2 -20 1 -20 9 0 8 -9 16 -20 19 -11 3 -20 14 -20 25
0 11 -8 26 -17 33 -14 12 -16 12 -8 0 6 -11 4 -13 -8 -8 -9 3 -16 3 -16 -1 5
-29 -3 -72 -11 -67 -17 10 -11 -4 10 -25 11 -11 25 -20 30 -20 6 0 15 -11 20
-25 5 -14 16 -25 25 -25 8 0 15 -6 15 -13 0 -12 37 -50 53 -53 4 -1 19 -2 33
-3 17 -1 28 -8 31 -21 3 -11 13 -20 23 -20 29 0 50 -11 50 -26 0 -9 12 -14 35
-14 28 0 35 -4 35 -20 0 -11 6 -21 13 -21 6 -1 23 -3 36 -4 13 -1 26 -7 30
-13 3 -5 15 -11 26 -13 13 -3 21 -14 23 -32 2 -15 9 -27 18 -27 8 0 14 -7 14
-15 0 -8 7 -15 15 -15 8 0 15 -7 15 -15 0 -9 9 -15 21 -15 12 0 23 -8 26 -20
4 -15 14 -20 39 -20 18 0 36 -5 39 -10 4 -6 11 -8 16 -5 5 3 6 -1 3 -9 -5 -13
2 -16 39 -16 25 0 49 -5 52 -10 5 -8 12 -7 22 1 12 10 16 10 23 0 4 -8 13 -10
19 -7 6 4 11 2 11 -3 0 -7 38 -11 105 -11 58 0 105 4 105 9 0 5 9 7 20 4 11
-3 20 -1 20 3 0 13 110 1 112 -11 1 -5 -7 -11 -18 -13 -50 -7 -64 -13 -64 -27
0 -8 -9 -15 -20 -15 -13 0 -20 -7 -20 -20 0 -19 -7 -20 -125 -20 -69 0 -125
-4 -125 -9 0 -5 -9 -11 -20 -14 -13 -3 -20 0 -20 9 0 18 -16 18 -23 0 -4 -10
-25 -16 -64 -18 -40 -2 -57 -7 -56 -15 4 -17 -14 -17 -19 -1 -3 8 -9 4 -17
-10 -9 -16 -21 -22 -46 -22 -19 0 -34 -3 -34 -7 3 -20 -2 -26 -11 -13 -9 13
-12 13 -21 -2 -5 -10 -19 -18 -30 -18 -11 0 -18 -4 -15 -9 6 -9 -40 -21 -81
-21 -21 0 -23 -3 -14 -14 13 -15 -4 -26 -40 -26 -10 0 -19 -6 -19 -14 0 -8
-15 -17 -35 -20 -19 -4 -35 -13 -35 -20 0 -8 -16 -17 -35 -20 -19 -4 -35 -11
-35 -17 0 -5 -11 -14 -25 -19 -23 -9 -32 -32 -25 -65 1 -5 -7 -15 -16 -22 -16
-12 -16 -15 -4 -27 8 -8 25 -17 36 -20 19 -6 22 -2 28 38 7 42 10 46 41 52 21
4 35 13 38 25 3 11 14 19 26 19 12 0 21 4 21 10 0 5 16 12 35 16 20 3 35 12
35 20 0 8 16 16 41 20 28 5 39 11 35 20 -3 9 2 14 14 14 21 0 60 19 71 33 4 5
31 12 60 17 30 4 47 8 40 9 -11 1 -12 4 -4 12 6 6 41 14 77 16 38 4 64 10 63
16 -3 19 80 25 329 26 286 1 394 -6 394 -25 0 -10 15 -14 53 -14 113 0 193
-19 140 -33 -10 -3 13 -5 50 -6 38 0 78 -6 89 -12 15 -8 22 -8 28 1 6 9 9 9
12 -1 4 -11 34 -15 121 -17 l117 -4 0 31 0 31 -109 0 c-63 0 -112 4 -116 10
-3 6 -17 10 -31 10 -13 0 -24 4 -24 9 0 5 -28 11 -62 14 -65 5 -156 24 -125
26 9 0 17 5 17 10 0 5 -62 11 -137 13 -98 2 -138 7 -141 16 -2 8 -29 12 -84
12 -70 0 -79 2 -76 18 2 12 15 18 42 20 21 2 49 10 62 19 15 9 37 13 56 11 20
-3 38 0 46 8 29 30 269 9 261 -22 -2 -5 5 -10 14 -12 11 -2 17 3 17 16 0 11 2
26 5 34 10 26 -43 37 -176 35 -71 -1 -129 2 -129 7 0 4 -11 6 -25 4 -14 -3
-22 -1 -19 4 4 6 21 8 39 6 19 -2 31 0 29 4 -3 4 0 8 5 8 6 0 11 7 11 16 0 10
6 14 15 11 8 -4 17 -2 20 3 4 6 24 10 46 10 27 0 39 4 39 14 0 9 12 16 33 18
31 3 32 4 37 61 4 46 2 61 -10 68 -13 8 -13 10 0 19 8 5 23 10 32 10 9 0 20 9
23 20 3 11 12 20 20 20 7 0 16 7 19 16 3 8 10 13 15 9 5 -3 12 -1 16 5 3 5 20
10 37 10 21 0 31 -6 35 -19 3 -11 13 -21 23 -24 13 -3 20 -16 22 -43 2 -25 8
-38 16 -37 6 2 12 -6 12 -16 0 -11 5 -23 10 -26 6 -4 8 -10 5 -15 -3 -5 2 -13
11 -18 10 -5 15 -16 12 -24 -7 -17 10 -42 35 -51 9 -3 17 -16 17 -27 0 -11 7
-20 15 -20 8 0 15 -6 15 -14 0 -7 9 -16 20 -19 14 -3 20 -14 20 -31 0 -17 5
-26 15 -26 9 0 18 -7 21 -15 4 -8 12 -15 19 -15 6 0 16 -15 21 -32 8 -27 16
-34 44 -38 19 -3 36 -11 36 -17 1 -7 2 -17 3 -23 0 -5 8 -7 16 -4 10 4 15 0
15 -11 0 -9 9 -19 21 -22 11 -3 18 -11 16 -18 -3 -6 6 -20 19 -30 13 -10 24
-27 24 -37 0 -11 9 -22 20 -25 11 -3 20 -12 20 -20 0 -8 9 -17 19 -20 11 -3
22 -11 25 -19 3 -8 12 -14 21 -14 8 0 15 -8 15 -19 0 -11 10 -22 23 -26 12 -4
25 -8 30 -10 4 -1 10 -3 15 -4 4 -1 -6 -8 -22 -16 -17 -9 -55 -15 -96 -15 -51
0 -69 -4 -74 -15 -4 -11 -20 -15 -57 -15 -40 0 -50 -3 -46 -14 5 -11 -5 -17
-39 -22 -26 -4 -44 -12 -44 -19 0 -8 -17 -16 -39 -20 -22 -4 -42 -13 -45 -21
-3 -8 -19 -14 -36 -14 -31 0 -43 -20 -12 -20 9 -1 2 -7 -17 -15 -25 -12 -79
-15 -227 -15 -149 0 -194 -3 -194 -13 0 -8 -14 -11 -46 -8 -64 5 -126 -16
-122 -42 3 -16 12 -19 86 -19 45 -1 85 2 89 5 3 4 44 7 89 7 81 0 84 -1 90
-25 3 -14 12 -25 20 -25 21 0 17 -17 -6 -23 -11 -3 -20 -12 -20 -21 0 -9 -6
-16 -14 -16 -8 0 -21 -8 -28 -17 -7 -10 -20 -18 -28 -18 -8 0 -15 -7 -15 -15
0 -8 -8 -21 -17 -28 -10 -7 -18 -20 -18 -28 0 -8 -7 -14 -15 -14 -8 0 -15 -6
-15 -14 0 -7 -10 -20 -22 -28 -27 -18 -16 -38 22 -38 19 0 33 7 40 20 6 11 17
20 25 20 8 0 15 7 15 15 0 7 6 18 13 22 8 4 16 16 20 26 3 9 13 17 22 17 8 0
15 5 15 10 0 6 11 15 25 20 14 5 25 16 25 25 0 8 9 15 20 15 11 0 20 6 20 14
0 7 9 16 20 19 11 3 20 13 20 22 0 10 6 15 13 12 19 -7 57 11 57 27 0 23 30
27 131 16 124 -13 331 -13 365 0 21 9 31 8 43 -4 13 -14 13 -16 -2 -22 -10 -3
-32 -4 -51 -2 -28 3 -32 1 -28 -14 3 -12 -1 -18 -13 -18 -12 0 -16 6 -13 18 5
17 -4 19 -115 21 -67 1 -126 5 -132 9 -5 3 -4 -2 4 -11 10 -13 30 -17 83 -17
61 0 71 -2 75 -20 3 -11 12 -20 19 -20 26 0 14 -18 -16 -25 -30 -7 -80 -47
-80 -65 0 -5 -6 -13 -13 -17 -8 -4 -16 -16 -20 -25 -3 -10 -15 -18 -26 -18
-10 0 -21 -7 -25 -15 -3 -8 -15 -15 -26 -15 -13 0 -20 -7 -20 -20 0 -11 -7
-20 -15 -20 -8 0 -15 -6 -15 -14 0 -7 -9 -16 -20 -19 -11 -3 -20 -12 -20 -20
0 -8 -9 -17 -20 -20 -11 -3 -20 -13 -20 -22 0 -11 -5 -15 -15 -11 -11 4 -15
-2 -15 -20 0 -13 -7 -27 -15 -30 -8 -3 -17 -14 -20 -25 -4 -10 -15 -19 -25
-19 -12 0 -21 -10 -25 -30 -4 -17 -13 -30 -21 -30 -8 0 -14 -10 -14 -25 0 -18
-5 -25 -20 -25 -15 0 -20 -7 -20 -29 0 -16 -6 -36 -13 -43 -7 -7 -19 -52 -26
-99 -16 -109 -2 -200 34 -219 13 -7 28 -9 34 -6 14 9 15 46 1 46 -5 0 -10 7
-10 15 0 8 5 15 10 15 6 0 2 8 -8 18 -17 17 -18 26 -8 120 1 18 8 38 14 44 7
7 12 23 12 36 0 16 7 26 21 29 12 4 22 17 26 34 3 16 12 29 19 29 8 0 14 9 14
21 0 12 8 23 20 26 21 6 35 36 25 53 -3 5 1 10 9 10 11 0 16 9 16 26 0 17 6
28 20 31 11 3 20 9 20 14 0 5 11 14 25 19 14 5 25 16 25 25 0 8 7 15 15 15 8
0 15 9 15 20 0 13 7 20 20 20 13 0 20 7 20 20 0 13 7 20 20 20 11 0 20 7 20
15 0 8 9 15 20 15 11 0 20 7 20 15 0 8 5 15 11 15 13 0 39 25 39 39 0 5 15 13
34 17 19 3 37 12 40 20 3 8 17 14 30 14 15 0 30 8 36 20 7 13 21 20 39 20 20
0 30 6 34 20 4 14 14 20 35 20 16 0 43 7 58 15 18 9 57 15 101 15 69 0 73 -1
79 -24 8 -33 -2 -46 -34 -46 -17 0 -32 -8 -40 -20 -7 -12 -18 -20 -25 -18 -15
3 -67 -41 -67 -58 0 -6 -12 -15 -26 -18 -32 -8 -112 -89 -120 -122 -3 -13 -10
-24 -15 -24 -5 0 -14 -11 -19 -25 -5 -14 -16 -25 -24 -25 -8 0 -17 -15 -20
-35 -4 -21 -13 -35 -21 -35 -8 0 -15 -7 -15 -15 0 -7 -8 -19 -17 -24 -16 -9
-16 -12 -3 -21 8 -5 10 -10 4 -10 -6 0 -14 -18 -18 -40 -4 -26 -11 -40 -21
-40 -10 0 -15 -10 -15 -27 0 -59 -12 -102 -26 -96 -12 4 -14 -24 -14 -161 l0
-167 30 16 c16 8 33 15 37 15 5 0 9 62 9 138 2 152 5 186 18 199 5 5 6 0 2
-12 -6 -18 -5 -18 8 -5 9 9 16 37 18 67 2 31 8 53 14 53 6 0 14 18 18 40 4 26
11 40 21 40 8 0 15 9 15 20 0 10 9 24 20 30 12 6 20 21 20 36 0 13 7 27 15 30
8 4 15 13 15 21 0 8 9 17 20 20 11 3 20 12 20 19 0 8 11 19 25 24 14 5 25 14
25 19 0 14 45 61 59 61 6 0 11 7 11 16 0 9 9 18 20 21 11 3 20 12 20 19 0 24
28 15 34 -11 4 -14 13 -25 21 -25 8 0 15 -4 15 -10 0 -5 -7 -10 -15 -10 -11 0
-15 -11 -15 -35 0 -22 -6 -38 -15 -41 -8 -4 -15 -19 -15 -34 0 -16 -4 -32 -10
-35 -5 -3 -10 -17 -10 -31 0 -14 -6 -24 -14 -24 -10 0 -16 -25 -21 -92 -5 -51
-10 -85 -12 -75 -3 9 -9 17 -14 17 -5 0 -10 -42 -11 -92 -2 -156 -3 -161 -15
-165 -7 -3 -13 -14 -13 -25 0 -11 -8 -22 -20 -25 -15 -4 -20 -14 -20 -40 0
-26 -5 -36 -20 -40 -11 -3 -20 -13 -20 -23 0 -29 -11 -50 -26 -50 -10 0 -14
-12 -14 -38 0 -25 -7 -45 -19 -56 -22 -20 -37 -149 -22 -190 19 -48 38 -32 43
36 3 35 10 64 16 66 7 2 12 14 12 27 0 13 5 27 11 31 6 3 9 15 6 25 -3 12 0
19 9 19 9 0 14 11 14 33 0 24 8 38 34 59 18 15 36 24 40 21 3 -4 6 -39 6 -79
0 -51 -4 -77 -15 -88 -21 -21 -21 -142 1 -163 8 -9 14 -25 13 -37 -2 -37 1
-46 17 -46 9 0 18 -9 21 -20 3 -11 14 -20 24 -20 16 0 19 8 19 50 0 36 -4 50
-14 50 -8 0 -17 7 -20 16 -10 26 -7 142 4 149 6 4 8 11 4 16 -3 5 -2 9 3 8 25
-4 34 2 28 21 -11 34 5 102 21 96 9 -4 14 2 14 15 0 11 7 22 15 25 10 4 15 20
15 45 0 33 4 41 25 49 14 5 25 14 25 19 0 5 9 11 19 14 11 3 22 17 26 36 5 25
13 33 35 38 16 3 31 11 34 19 3 8 12 14 21 14 8 0 15 9 15 19 0 11 9 23 20 26
11 3 20 10 20 14 0 4 18 14 40 21 22 7 40 20 40 28 0 9 6 12 15 8 16 -6 54 10
67 28 3 5 43 11 87 14 76 4 98 13 69 26 -7 3 -3 3 9 1 12 -3 24 -1 28 5 7 11
103 14 129 4 20 -8 21 -60 3 -71 -8 -4 -16 -16 -20 -25 -3 -10 -15 -18 -26
-18 -14 0 -21 -9 -25 -35 -5 -24 -11 -33 -21 -28 -11 4 -15 -2 -15 -21 0 -16
-6 -26 -15 -26 -11 0 -15 -11 -15 -36 0 -28 -5 -37 -20 -41 -14 -4 -22 -17
-26 -43 -5 -27 -10 -37 -20 -33 -11 4 -14 -5 -14 -36 0 -34 -3 -41 -19 -41
-14 0 -21 -10 -25 -35 -4 -19 -10 -35 -14 -35 -10 0 -32 -50 -32 -72 0 -10 -7
-18 -15 -18 -10 0 -15 -10 -15 -34 0 -25 -5 -35 -19 -39 -17 -4 -19 -16 -23
-107 -2 -71 -7 -105 -15 -108 -15 -4 -19 -172 -4 -172 5 0 13 -17 18 -37 6
-28 14 -38 28 -38 19 0 20 6 17 90 -5 132 6 255 24 255 9 0 14 11 14 34 0 44
17 89 30 81 6 -4 10 10 10 35 0 27 5 43 15 46 9 4 15 19 15 35 0 18 6 32 16
36 8 3 13 12 10 20 -3 8 -1 11 4 8 6 -3 10 4 10 17 0 33 15 45 50 40 27 -4 30
-8 30 -43 0 -26 -5 -42 -15 -45 -8 -4 -15 -16 -15 -28 0 -26 -22 -76 -32 -76
-5 0 -8 -62 -8 -139 0 -129 1 -139 20 -144 42 -11 48 9 52 161 3 123 6 145 21
156 9 7 17 23 17 35 0 12 9 29 20 38 11 10 20 30 20 46 0 20 6 30 20 34 14 4
20 14 20 34 0 15 5 31 11 34 5 4 14 18 19 31 6 14 18 24 30 24 11 0 20 7 20
15 0 8 5 15 11 15 6 0 9 7 5 15 -3 9 0 15 10 15 9 0 18 9 21 19 3 12 17 23 33
26 16 3 31 13 34 21 3 8 19 14 41 14 24 0 35 5 35 15 0 16 36 39 49 31 4 -3
18 6 29 19 14 16 32 25 52 25 17 0 29 5 27 11 -3 16 29 21 172 26 105 4 126 2
141 -12 11 -10 24 -14 31 -9 8 4 10 3 5 -4 -5 -9 15 -12 74 -12 85 0 120 -10
120 -36 0 -8 4 -13 9 -9 6 3 15 -4 22 -16 9 -17 8 -31 -1 -60 -7 -22 -17 -39
-22 -39 -4 0 -8 -13 -8 -29 0 -17 -4 -33 -10 -36 -5 -3 -10 -15 -10 -26 0 -10
-7 -19 -15 -19 -10 0 -15 -11 -16 -37 -3 -76 -5 -91 -16 -105 -19 -24 -39
-313 -22 -324 5 -3 9 -21 9 -40 0 -20 6 -37 14 -40 8 -3 16 -14 19 -25 5 -19
44 -26 118 -20 22 2 27 -3 33 -30 3 -17 6 -53 6 -80 0 -38 4 -49 16 -49 8 0
13 -4 9 -9 -3 -5 -1 -12 5 -16 5 -3 10 -14 10 -25 0 -10 7 -20 15 -24 11 -4
15 -22 15 -71 0 -51 4 -67 16 -72 8 -3 20 -16 25 -29 10 -29 35 -31 49 -4 7
14 8 26 0 39 -5 11 -10 54 -10 96 0 68 2 77 20 82 21 6 20 -6 24 243 0 14 4
28 9 31 5 3 11 26 14 50 5 49 22 90 40 102 7 4 13 15 13 22 0 8 5 15 11 15 6
0 9 6 6 14 -3 8 1 17 9 20 8 3 14 15 14 27 0 12 8 23 20 26 13 3 20 14 20 28
0 13 6 30 13 37 8 7 18 27 24 43 6 17 16 29 22 28 6 -2 11 6 11 18 0 12 8 23
18 26 10 2 24 20 31 39 7 20 19 38 27 41 8 3 14 11 14 19 0 7 15 16 34 19 21
4 36 14 39 25 4 15 16 20 63 22 41 2 58 7 57 16 -2 6 2 12 7 12 6 0 10 -7 10
-15 0 -8 -4 -15 -10 -15 -5 0 -10 -16 -10 -36 0 -27 -5 -37 -20 -41 -14 -4
-20 -14 -20 -33 0 -15 -7 -41 -15 -56 -11 -21 -15 -24 -15 -11 0 10 -4 15 -10
12 -5 -3 -10 -26 -10 -50 0 -29 -5 -45 -15 -49 -10 -3 -15 -19 -15 -42 0 -27
-5 -37 -20 -41 -14 -4 -20 -14 -20 -34 0 -15 -5 -31 -10 -34 -6 -4 -8 -15 -5
-26 4 -13 2 -19 -9 -19 -13 0 -16 -12 -17 -57 0 -54 -17 -124 -18 -80 -1 9 -5
17 -10 17 -10 0 -18 -192 -13 -317 3 -63 7 -80 17 -77 10 4 16 -9 21 -43 6
-46 40 -93 65 -93 5 0 14 -11 19 -25 5 -14 14 -25 19 -25 5 0 11 -9 14 -21 3
-12 10 -18 16 -14 7 3 11 -2 11 -14 0 -12 5 -21 10 -21 6 0 10 -9 10 -20 0
-12 7 -20 16 -20 9 0 18 -9 21 -20 3 -13 14 -20 29 -20 21 0 23 3 14 26 -6 14
-10 38 -10 54 0 19 -7 33 -20 40 -16 8 -20 21 -20 60 0 38 -4 50 -15 50 -12 0
-15 17 -15 90 0 73 3 90 15 90 12 0 15 20 17 113 2 146 5 187 14 217 l8 25 7
-25 c4 -16 7 3 8 52 1 43 6 80 12 83 6 4 8 13 5 20 -3 8 2 19 10 25 8 7 14 25
14 41 0 15 4 30 9 33 5 3 7 15 4 26 -4 14 0 20 11 20 12 0 16 10 16 38 0 20 5
44 10 52 6 10 10 11 10 3 0 -7 5 -13 10 -13 6 0 10 16 10 35 0 21 6 38 14 41
8 3 16 14 19 25 4 15 14 19 47 19 41 0 42 1 38 30 -4 28 -3 30 29 30 18 0 33
-4 33 -10 0 -5 -7 -10 -15 -10 -11 0 -15 -11 -15 -40 0 -27 -4 -40 -14 -40 -8
0 -16 -15 -20 -37 -3 -21 -8 -46 -9 -56 -2 -10 -8 -22 -14 -25 -21 -13 -42
-527 -23 -546 5 -5 10 -30 10 -55 0 -24 3 -41 7 -38 9 9 33 -40 33 -68 0 -13
7 -25 15 -29 8 -3 15 -15 15 -26 0 -11 6 -20 14 -20 7 0 16 -9 19 -20 3 -11
12 -20 21 -20 9 0 16 -7 16 -15 0 -11 11 -15 40 -15 41 0 57 21 25 34 -8 3
-15 12 -15 20 0 7 -9 16 -20 19 -12 3 -20 14 -20 26 0 12 -6 21 -15 21 -8 0
-17 14 -21 35 -3 20 -12 35 -20 35 -8 0 -14 9 -14 19 0 11 -4 22 -9 25 -14 9
-22 79 -29 259 -4 95 -3 168 2 170 5 2 11 39 13 82 4 77 14 113 39 145 6 8 15
36 18 63 4 26 12 45 17 42 5 -4 13 5 18 18 5 13 16 27 25 30 9 4 18 24 22 47
4 22 10 40 15 40 5 0 9 10 9 23 0 13 10 32 23 43 43 37 87 44 265 44 154 0
175 2 204 20 29 18 51 20 194 20 135 0 163 3 168 15 4 12 31 15 155 15 141 0
150 -1 156 -20 3 -11 11 -20 16 -20 5 0 10 -17 10 -37 0 -74 11 -163 20 -163
5 0 9 -6 9 -13 0 -7 5 -18 12 -25 7 -7 11 -30 9 -52 -3 -42 17 -100 34 -100 5
0 4 -4 -4 -9 -10 -6 -11 -13 -2 -29 15 -27 14 -85 -1 -100 -19 -19 -46 -14
-64 13 -9 14 -19 23 -22 20 -6 -6 -23 22 -48 77 -9 21 -22 38 -30 38 -7 0 -18
8 -23 18 -6 9 -11 12 -11 5 0 -14 -50 33 -50 47 0 6 -10 20 -22 32 -11 11 -24
35 -27 52 -4 18 -13 31 -21 31 -11 0 -16 14 -18 48 -2 33 -7 47 -18 47 -7 0
-14 5 -14 10 0 6 -10 10 -23 10 -26 0 -57 -32 -57 -60 0 -32 -22 -73 -32 -58
-5 9 -8 5 -8 -12 0 -41 -24 -97 -38 -92 -10 3 -13 -8 -11 -46 3 -62 -26 -142
-53 -142 -15 0 -18 8 -18 47 0 30 -6 53 -17 65 -11 13 -16 32 -14 59 1 23 -2
39 -8 39 -6 0 -11 -6 -11 -12 -1 -23 -30 54 -30 78 0 14 -6 24 -14 24 -22 0
-28 30 -8 37 28 11 41 35 31 55 -13 24 -129 27 -129 3 0 -8 -7 -15 -15 -15
-18 0 -20 -16 -2 -23 10 -4 10 -6 0 -6 -7 -1 -13 -10 -13 -20 0 -25 -15 -35
-55 -35 -19 -1 -29 -6 -27 -14 6 -28 4 -110 -2 -121 -15 -24 -21 -9 -17 46 1
31 -2 74 -9 95 -11 38 -12 39 -52 36 -35 -3 -44 -8 -57 -35 -9 -18 -24 -35
-33 -38 -17 -6 -34 -40 -30 -62 2 -7 -4 -13 -13 -13 -10 0 -15 -10 -15 -30 0
-16 -8 -37 -19 -47 -14 -14 -20 -37 -23 -101 -3 -46 -10 -87 -15 -90 -6 -4
-13 -32 -17 -62 -9 -97 -18 -140 -27 -140 -5 0 -9 -52 -9 -115 0 -70 4 -115
10 -115 6 0 10 -12 10 -27 0 -50 22 -93 47 -93 13 0 26 0 30 0 12 0 7 33 -11
75 -17 39 -17 80 -7 333 1 13 6 33 13 45 6 12 11 39 9 59 -1 20 3 47 10 60 7
13 12 29 11 36 -2 6 4 12 12 12 11 0 16 14 18 58 3 52 5 57 27 60 17 3 31 -4
43 -20 18 -23 18 -23 17 44 -1 37 -5 67 -8 66 -3 0 -12 0 -20 1 -19 1 -4 16
17 16 19 0 29 -69 38 -273 4 -87 8 -112 19 -112 8 0 12 -6 9 -14 -3 -8 -1 -17
5 -21 6 -3 11 -15 11 -25 0 -10 5 -20 12 -22 7 -3 14 -32 16 -71 3 -53 8 -70
23 -78 12 -6 19 -21 19 -39 0 -20 5 -30 15 -30 9 0 15 -9 15 -25 0 -14 9 -33
20 -42 11 -10 20 -23 20 -31 0 -7 8 -15 18 -19 9 -3 25 -15 34 -27 20 -25 24
-22 33 27 7 33 5 37 -14 37 -14 0 -21 6 -21 20 0 10 -8 24 -17 29 -14 8 -15
11 -3 11 12 0 11 3 -2 11 -12 7 -18 22 -18 49 0 29 -4 40 -15 40 -10 0 -17 14
-21 40 -4 27 -12 40 -22 40 -13 0 -13 2 3 13 17 13 17 14 -4 20 -18 4 -21 12
-21 51 0 26 -6 57 -14 69 -7 12 -17 45 -20 74 -6 46 -4 53 14 63 18 10 19 14
8 27 -10 13 -10 17 0 20 6 3 12 20 12 38 0 42 9 65 25 65 7 0 16 19 20 45 3
25 11 43 16 40 5 -4 7 -11 4 -16 -4 -5 11 -9 32 -9 48 0 63 -14 63 -57 0 -20
5 -33 13 -33 7 0 14 -8 15 -17 6 -58 16 -94 28 -104 9 -8 14 -33 14 -75 0 -36
4 -64 10 -64 6 0 10 8 11 18 1 11 4 9 9 -8 4 -14 8 -110 9 -213 1 -155 4 -189
16 -193 8 -3 17 -21 21 -39 3 -19 12 -36 20 -39 8 -3 14 -16 14 -29 0 -32 9
-39 27 -21 8 8 18 12 21 10 8 -5 8 44 -3 184 -4 59 -12 108 -19 112 -16 11
-15 250 2 255 7 3 12 25 13 61 0 78 13 138 27 135 8 -2 12 13 12 45 0 58 12
72 63 72 21 0 36 4 32 9 -3 5 -1 12 4 15 5 3 12 -10 15 -30 4 -19 15 -38 24
-41 19 -8 62 -52 62 -64 0 -5 7 -9 16 -9 9 0 18 -9 21 -20 3 -10 13 -22 22
-25 15 -5 32 -29 47 -67 3 -10 12 -18 19 -18 8 0 17 -9 20 -20 3 -11 14 -20
23 -21 11 0 12 -3 5 -6 -17 -6 -16 -23 1 -23 8 0 16 -7 20 -15 3 -8 12 -15 21
-15 8 0 15 -3 16 -7 4 -44 10 -66 23 -79 9 -8 16 -32 16 -52 0 -28 3 -33 10
-22 5 8 10 13 11 10 0 -3 3 -14 5 -25 3 -11 8 -55 11 -97 4 -57 9 -78 19 -78
10 0 14 -13 14 -39 0 -40 23 -76 41 -66 5 4 9 71 9 150 0 113 -3 144 -14 148
-10 4 -13 -1 -10 -16 4 -22 4 -22 -5 -1 -5 11 -12 74 -16 140 -6 106 -5 122
10 137 9 9 23 17 31 17 8 0 13 4 9 9 -3 5 -1 12 4 15 9 6 21 -48 21 -96 0 -17
5 -28 14 -28 23 0 26 -34 26 -287 0 -188 3 -243 13 -243 6 0 22 -3 35 -6 l22
-6 0 240 c0 154 -4 242 -10 244 -6 2 -13 41 -16 88 -4 66 -9 88 -25 103 -12
11 -19 31 -19 52 0 24 -5 35 -15 35 -9 0 -12 6 -9 15 4 8 1 15 -5 15 -6 0 -11
9 -11 20 0 11 -4 20 -9 20 -5 0 -12 18 -16 40 -5 30 -11 40 -23 38 -11 -2 -17
4 -17 17 -1 31 -15 65 -28 65 -7 0 -12 11 -12 25 0 14 4 25 8 25 22 0 -33 49
-61 55 -18 3 -30 10 -27 15 3 6 2 24 -3 42 -10 39 -6 58 14 58 20 0 17 20 -3
21 -51 3 43 17 120 18 68 1 87 4 87 15 0 15 57 24 185 29 42 1 59 6 57 15 -1
8 11 12 37 12 31 0 41 -4 46 -20 4 -14 15 -20 35 -20 26 0 33 9 39 48 1 4 -15
10 -36 13 -34 5 -32 6 19 8 31 0 60 6 63 11 3 6 28 10 56 10 34 0 49 4 49 13
0 16 3 16 95 24 39 3 73 10 77 16 3 5 46 12 95 15 94 4 106 8 83 22 -10 7 -11
10 -2 10 21 0 27 -4 24 -17 -3 -13 8 -15 83 -17 26 -1 39 -5 37 -14 -1 -6 4
-12 11 -12 18 0 67 -24 67 -32 0 -5 9 -8 20 -8 13 0 24 -10 30 -25 5 -14 14
-25 20 -25 5 0 10 -7 10 -15 0 -8 9 -15 20 -15 13 0 20 -7 20 -20 0 -13 7 -20
20 -20 13 0 20 -7 20 -20 0 -12 7 -20 18 -20 18 0 62 -41 62 -58 0 -5 9 -12
20 -15 12 -3 20 -14 20 -26 0 -12 6 -21 15 -21 8 0 15 -9 15 -20 0 -16 7 -20
35 -20 40 0 60 26 32 42 -10 5 -17 16 -17 23 0 8 -7 15 -15 15 -9 0 -18 8 -22
18 -3 9 -23 33 -44 53 -22 20 -39 42 -39 48 0 6 -9 11 -20 11 -13 0 -20 7 -20
20 0 11 -7 20 -15 20 -8 0 -15 7 -15 15 0 8 -9 15 -20 15 -12 0 -20 7 -20 16
0 9 -9 18 -20 21 -11 3 -20 12 -20 19 0 8 -6 14 -13 14 -7 0 -29 18 -50 40
-27 30 -44 40 -67 40 -44 0 -38 34 7 38 21 2 33 9 36 23 4 14 14 19 39 19 21
0 40 7 51 20 9 11 28 20 41 20 15 0 26 7 29 20 4 17 14 20 61 20 42 0 56 4 56
14 0 22 79 28 280 23 96 -3 185 -5 198 -6 12 -1 22 -8 22 -16 0 -11 11 -15 36
-15 27 0 37 -5 41 -20 4 -16 14 -20 47 -20 61 -1 127 -16 137 -31 7 -11 67
-14 314 -14 192 0 308 4 313 10 10 15 49 35 67 35 9 0 13 5 10 10 -3 6 3 10
13 10 16 0 21 10 27 54 3 30 3 87 -1 125 -6 60 -9 71 -25 71 -15 0 -19 7 -19
34 0 25 -5 35 -20 39 -12 3 -20 14 -20 26 0 14 -6 21 -20 21 -13 0 -20 7 -20
20 0 11 -7 20 -15 20 -8 0 -15 7 -15 15 0 8 -9 15 -20 15 -16 0 -20 7 -20 35
0 29 -4 35 -21 35 -12 0 -23 8 -26 20 -3 11 -9 20 -14 20 -5 0 -14 11 -19 25
-5 14 -16 25 -25 25 -8 0 -15 7 -15 15 0 8 -3 14 -7 13 -19 -4 -63 16 -63 28
0 8 -8 14 -18 14 -10 0 -24 9 -32 20 -9 13 -26 20 -47 20 -26 0 -33 4 -33 20
0 17 -7 20 -50 20 -38 0 -50 4 -50 15 0 8 -7 15 -15 15 -8 0 -20 10 -26 22
-12 22 -12 22 -20 3 -6 -16 -8 -17 -8 -3 -1 9 -11 18 -22 20 -12 2 -27 12 -33
22 -20 35 -44 56 -50 43 -5 -9 -7 -9 -12 1 -3 6 -15 12 -26 12 -11 0 -22 8
-25 20 -3 11 -12 20 -19 20 -8 0 -18 8 -21 17 -8 20 -40 53 -51 53 -12 0 -72
64 -72 77 0 6 -7 13 -15 17 -8 3 -15 12 -15 20 0 9 -14 18 -35 22 -30 5 -35
11 -41 41 -11 56 -6 57 144 47 61 -5 82 -3 82 6 0 10 4 10 15 0 12 -10 19 -10
27 -2 7 7 33 12 59 12 38 0 48 4 52 20 4 15 14 20 41 20 25 0 38 6 46 20 7 13
21 20 40 20 20 0 30 5 30 15 0 9 8 19 17 22 27 11 53 42 53 64 0 15 -4 19 -16
15 -9 -3 -27 -6 -40 -6 -14 0 -24 -6 -24 -15 0 -8 -14 -17 -35 -21 -20 -3 -35
-12 -35 -20 0 -10 -13 -14 -41 -14 -32 0 -40 -3 -35 -15 4 -11 -1 -15 -19 -15
-13 0 -27 -5 -30 -10 -4 -6 -14 -9 -23 -8 -9 2 -16 -3 -15 -9 2 -9 -12 -13
-46 -13 -28 0 -53 -5 -57 -11 -4 -7 -20 -8 -43 -5 -20 4 -58 10 -86 14 -40 6
-51 11 -53 27 -2 16 6 24 31 33 18 7 40 12 49 12 9 0 18 7 22 15 3 10 19 15
46 15 28 0 40 4 40 14 0 8 14 17 31 21 19 4 34 16 39 31 5 13 16 24 25 24 8 0
15 5 15 11 0 5 4 8 9 5 5 -4 12 0 14 6 4 10 6 9 6 -1 1 -11 4 -11 15 -1 12 9
13 17 4 36 -12 25 -32 32 -43 14 -3 -5 -14 -10 -25 -10 -10 0 -20 -7 -24 -15
-3 -9 -18 -15 -36 -15 -23 0 -30 -4 -30 -20 0 -16 -7 -20 -35 -20 -24 0 -37
-6 -45 -20 -8 -14 -21 -20 -45 -20 -24 0 -35 -5 -35 -14 0 -20 -68 -29 -156
-22 -103 8 -114 10 -122 22 -4 6 -17 14 -28 18 -21 6 -34 41 -34 91 0 12 -8
29 -17 36 -11 9 -14 10 -9 2 5 -9 2 -11 -8 -7 -21 8 -10 24 15 24 12 0 19 7
19 20 0 16 7 20 30 20 18 0 33 -6 36 -15 5 -12 28 -15 119 -15 91 0 114 3 119
15 4 11 20 15 55 15 40 0 50 3 54 20 4 15 14 20 41 20 23 0 39 5 42 15 4 8 12
15 20 15 8 0 14 5 14 10 0 6 9 10 19 10 10 0 22 7 25 16 3 8 10 13 16 9 9 -6
44 10 68 33 7 6 25 12 39 12 15 0 24 3 20 6 -9 9 19 34 37 34 9 0 16 8 16 20
0 13 7 20 20 20 11 0 20 7 20 15 0 10 11 15 35 15 23 0 35 5 35 14 0 7 7 19
15 26 8 7 15 28 15 46 0 29 -3 34 -25 34 -17 0 -23 -4 -19 -14 4 -11 -5 -17
-30 -22 -21 -3 -36 -12 -36 -20 0 -8 -8 -18 -17 -21 -10 -4 -22 -12 -26 -20
-4 -7 -17 -13 -29 -13 -13 0 -18 -5 -15 -14 4 -10 -5 -16 -28 -20 -21 -4 -35
-13 -38 -26 -4 -15 -14 -20 -36 -20 -24 0 -34 -6 -41 -25 -5 -14 -17 -25 -25
-25 -9 0 -23 -7 -31 -15 -9 -8 -30 -15 -47 -15 -20 0 -39 -8 -50 -20 -11 -13
-29 -20 -52 -20 -24 0 -35 -5 -35 -15 0 -19 -47 -27 -140 -23 -74 3 -75 4 -78
31 -2 18 2 29 12 33 9 3 16 15 16 26 0 11 8 22 20 25 15 4 20 14 20 37 0 18 5
37 11 43 17 17 1 73 -21 73 -19 0 -33 -27 -28 -50 2 -7 -3 -15 -11 -18 -9 -3
-11 0 -6 8 5 8 4 11 -2 7 -6 -4 -13 -24 -17 -46 -3 -21 -13 -41 -22 -45 -8 -3
-13 -10 -10 -15 8 -12 -13 -28 -49 -37 -17 -4 -37 -12 -45 -18 -13 -10 -13 -9
-1 7 12 15 10 17 -22 17 -24 0 -39 6 -46 18 -5 9 -13 16 -18 14 -4 -1 -10 10
-13 25 -3 16 -11 28 -20 28 -12 0 -16 16 -18 73 l-3 72 -39 0 -40 0 0 -75 c0
-68 2 -75 20 -75 16 0 20 -7 20 -35 0 -27 4 -35 18 -35 9 -1 30 -21 45 -46 24
-36 27 -47 17 -59 -17 -20 -123 -20 -143 -1 -8 8 -30 18 -50 21 -24 5 -34 11
-31 20 3 8 -4 16 -17 20 -17 6 -19 9 -8 16 12 8 12 11 -1 19 -8 6 -23 8 -32 6
-11 -2 -18 2 -18 10 0 8 -9 14 -20 14 -13 0 -24 10 -30 25 -5 14 -14 25 -19
25 -5 0 -11 9 -14 20 -4 15 -14 20 -40 20 -45 0 -53 12 -37 60 14 41 18 43
148 56 28 3 52 10 52 16 0 5 4 7 9 3 5 -3 12 -1 16 5 3 5 17 10 31 10 17 0 24
6 24 19 0 14 5 18 20 14 14 -4 20 0 20 11 0 18 34 56 50 56 6 0 10 11 10 24 0
15 7 26 20 29 16 4 20 14 20 46 0 42 7 50 28 29 9 -9 12 3 12 55 0 42 4 67 11
67 6 0 8 7 5 16 -3 8 -2 12 4 9 6 -4 10 13 10 42 0 47 -1 49 -30 51 -29 2 -30
1 -30 -46 0 -27 -7 -57 -16 -70 -8 -12 -12 -22 -7 -22 4 0 0 -5 -9 -11 -12 -6
-18 -22 -18 -44 0 -24 -6 -38 -20 -45 -12 -6 -20 -21 -20 -36 0 -17 -7 -28
-20 -31 -11 -3 -20 -12 -20 -19 0 -8 -6 -17 -14 -20 -8 -3 -16 -14 -19 -25 -3
-11 -14 -19 -26 -19 -12 0 -21 -6 -21 -15 0 -8 -8 -15 -18 -15 -10 0 -23 -5
-30 -12 -8 -8 -51 -13 -115 -15 -85 -2 -97 0 -74 9 15 7 27 18 27 24 0 7 16
16 35 20 20 3 35 12 35 20 0 16 35 54 50 54 14 0 12 17 -2 23 -8 3 -6 6 4 6
10 1 20 12 24 26 3 14 10 22 15 19 5 -3 13 6 18 19 6 14 16 27 23 30 10 4 10
8 -2 16 -8 6 -10 11 -4 11 7 0 14 17 17 38 11 73 19 102 28 96 5 -3 9 85 9
205 0 204 -1 211 -20 211 -11 0 -20 -7 -20 -15 0 -8 -4 -15 -10 -15 -5 0 -7 7
-4 15 4 8 1 15 -6 15 -10 0 -12 -26 -7 -112 3 -62 7 -120 9 -128 2 -9 -6 -16
-19 -18 -21 -3 -23 0 -23 47 0 47 -2 51 -24 51 -28 0 -36 -16 -36 -71 0 -30
-3 -37 -15 -33 -12 5 -15 -2 -15 -34 0 -29 -5 -44 -17 -51 -12 -7 -13 -11 -5
-11 10 0 10 -4 -2 -16 -9 -8 -16 -22 -16 -30 0 -8 -6 -14 -14 -14 -7 0 -16 -9
-19 -20 -3 -11 -12 -20 -21 -20 -9 0 -16 -7 -16 -15 0 -9 -8 -18 -17 -22 -10
-3 -32 -20 -49 -38 -17 -17 -35 -30 -41 -28 -6 2 -14 -1 -18 -6 -3 -6 -21 -12
-38 -12 -18 -1 -24 -3 -14 -6 29 -8 19 -20 -13 -15 -23 3 -32 12 -40 38 -7 19
-18 34 -26 34 -8 0 -14 5 -14 10 0 6 6 10 14 10 8 0 22 7 30 16 12 12 16 12
16 2 0 -8 4 -7 11 5 5 9 17 17 25 17 8 0 19 11 24 25 5 14 14 25 19 25 5 0 11
9 14 20 3 11 12 20 21 20 9 0 16 3 16 8 0 4 4 24 9 44 5 22 5 36 0 32 -5 -3
-9 2 -9 10 0 9 -7 16 -15 16 -17 0 -35 -30 -35 -59 0 -14 -5 -19 -15 -15 -10
4 -15 0 -15 -15 0 -13 -6 -21 -16 -21 -9 0 -18 -9 -21 -19 -3 -12 -17 -21 -38
-25 -18 -4 -36 -13 -39 -21 -3 -10 -20 -15 -47 -15 -32 0 -40 -3 -35 -15 4
-12 -3 -15 -30 -15 -20 0 -33 4 -29 10 3 5 1 19 -5 30 -13 24 -50 27 -50 4 0
-10 -6 -14 -15 -10 -12 4 -15 -3 -15 -35 0 -33 -4 -41 -25 -49 -14 -5 -25 -14
-25 -20 0 -5 -7 -10 -15 -10 -8 0 -15 5 -15 10 0 6 -8 14 -17 17 -29 11 -63
51 -63 73 0 11 -6 20 -12 20 -26 1 27 30 54 30 17 0 31 7 38 20 6 11 17 20 25
20 8 0 15 7 15 15 0 8 7 15 15 15 8 0 19 8 24 18 5 10 22 19 37 20 31 2 44 16
44 50 0 13 6 22 15 22 8 0 15 8 15 18 0 10 5 23 12 30 7 7 8 12 3 12 -5 0 -1
6 9 13 15 11 19 33 22 143 3 71 6 150 8 177 3 46 2 47 -25 47 -21 0 -29 -5
-30 -17 0 -10 0 -65 1 -123 0 -62 -4 -111 -11 -120 -9 -13 -10 -13 -5 2 3 12
1 15 -10 11 -9 -3 -14 -22 -16 -57 -2 -74 -2 -76 -14 -84 -6 -4 -13 -15 -17
-24 -3 -10 -13 -18 -22 -18 -8 0 -15 -7 -15 -15 0 -9 -7 -18 -16 -22 -22 -8
-64 -48 -64 -61 0 -11 -23 -22 -49 -22 -9 0 -24 -9 -34 -20 -14 -17 -29 -20
-97 -20 -76 0 -81 1 -90 24 -11 29 8 86 28 86 8 0 16 9 19 19 3 12 17 23 33
26 16 3 31 13 34 21 3 8 12 14 21 14 8 0 15 7 15 15 0 8 9 20 20 27 11 7 20
19 20 26 0 7 8 16 17 19 32 12 75 64 70 84 -4 13 0 19 13 19 13 0 19 11 24 40
3 22 11 40 16 40 6 0 10 34 10 79 0 88 -5 94 -63 84 -22 -3 -37 -1 -42 7 -5 9
-4 11 3 6 8 -5 10 -2 6 8 -3 9 -17 16 -30 16 -21 0 -24 -5 -26 -37 -2 -61 -3
-63 -15 -71 -6 -4 -14 -24 -18 -45 -4 -21 -13 -37 -21 -37 -7 0 -16 -16 -20
-35 -4 -21 -12 -35 -21 -35 -8 0 -17 -9 -20 -20 -3 -11 -12 -20 -20 -20 -8 0
-17 -9 -20 -20 -3 -11 -12 -20 -19 -20 -8 0 -18 -10 -23 -22 -5 -13 -11 -22
-15 -20 -14 6 -56 -11 -56 -23 0 -21 -109 -35 -137 -17 -8 5 -11 25 -9 57 4
47 6 50 34 53 20 2 32 10 35 23 3 10 12 19 21 19 9 0 16 8 16 19 0 22 30 52
30 30 1 -10 5 -9 14 4 8 10 12 27 9 37 -3 12 1 22 11 26 9 4 16 18 16 34 0 16
5 32 10 35 6 4 8 15 5 26 -4 13 -2 19 9 19 13 0 16 12 16 60 l0 60 -35 0 c-29
0 -35 4 -35 21 0 12 -8 23 -20 26 -16 4 -20 14 -20 53 0 26 -3 87 -6 137 -7
89 -7 90 -31 85 -15 -3 -29 1 -34 9 -5 9 -8 -25 -7 -86 0 -55 3 -88 5 -72 9
57 18 16 14 -65 -2 -55 -6 -76 -11 -63 -6 15 -9 7 -9 -28 -1 -30 -6 -50 -14
-53 -8 -3 -20 -20 -27 -39 -8 -19 -20 -35 -27 -35 -7 0 -13 -8 -13 -18 0 -9
-9 -23 -19 -29 -11 -7 -22 -26 -26 -43 -4 -16 -12 -30 -18 -30 -7 0 -18 -9
-25 -20 -7 -11 -23 -20 -36 -20 -15 0 -26 -7 -29 -20 -3 -12 -14 -20 -26 -20
-12 0 -21 -6 -21 -15 0 -10 -11 -15 -35 -15 -24 0 -35 5 -35 14 0 10 -13 16
-37 18 -33 3 -38 7 -41 30 -2 17 4 31 16 40 10 7 21 21 25 31 3 9 13 17 21 17
15 0 26 21 26 51 0 10 7 19 14 19 11 0 16 14 18 48 2 37 6 46 19 44 15 -2 18
16 24 150 3 84 5 187 3 228 -3 69 -5 75 -25 78 -23 3 -23 3 -23 -135 0 -154
-8 -245 -21 -237 -10 6 -15 -5 -24 -58 -4 -24 -11 -38 -20 -38 -11 0 -15 -12
-15 -40 0 -33 -3 -40 -20 -40 -18 0 -24 -12 -23 -47 1 -7 -5 -13 -13 -13 -8 0
-14 -4 -14 -9 0 -6 -20 -13 -44 -16 -27 -4 -47 -14 -52 -24 -16 -37 -22 43
-23 295 -1 298 5 385 25 377 11 -4 14 9 16 58 2 105 5 123 17 127 6 2 11 25
11 53 l0 49 -36 0 c-31 0 -35 -2 -24 -15 9 -10 9 -15 1 -15 -6 0 -11 -16 -11
-35 0 -42 -17 -52 -66 -37 -19 5 -32 6 -28 1 3 -5 0 -9 -5 -9 -20 0 -11 28 10
33 12 3 19 12 17 19 -6 18 -94 18 -91 1 2 -7 -4 -13 -12 -13 -10 0 -15 -10
-15 -34 0 -19 -4 -38 -10 -41 -5 -3 -11 -21 -11 -38 -2 -29 -2 -30 -6 -5 -3
18 -11 28 -26 30 -17 2 -23 11 -25 41 -2 23 -8 37 -17 37 -15 0 -29 147 -24
251 l4 64 -32 0 c-24 0 -33 4 -33 17 0 9 -4 20 -10 23 -5 3 -10 15 -10 26 0
10 -7 19 -15 19 -8 0 -15 7 -15 15 0 7 -8 19 -17 24 -10 6 -12 11 -5 11 6 0
12 5 12 10 0 6 -20 10 -45 10 -25 0 -45 -2 -45 -4 0 -18 27 -74 40 -83 11 -8
16 -21 13 -35 -3 -17 2 -26 19 -33 17 -7 24 -20 26 -47 2 -23 8 -38 16 -38 21
0 26 -48 26 -227 0 -90 4 -162 9 -159 11 7 21 -67 21 -156 0 -52 -4 -70 -15
-74 -10 -4 -15 -20 -15 -44 0 -48 -8 -70 -26 -70 -9 0 -14 -11 -14 -30 0 -20
-7 -34 -22 -44 -31 -19 -108 -31 -108 -17 0 6 -19 11 -44 11 -25 0 -48 5 -51
10 -4 6 -14 9 -23 8 -10 -2 -17 4 -17 12 0 8 6 14 13 12 9 -1 12 45 12 208 0
176 -2 209 -14 204 -11 -4 -16 9 -21 60 -5 41 -12 67 -21 70 -10 4 -14 23 -14
65 0 33 -4 63 -10 66 -5 3 -10 0 -11 -7 -2 -25 -17 37 -18 75 -1 24 -6 37 -15
37 -15 0 -26 30 -26 76 0 20 -6 34 -16 38 -8 3 -13 10 -10 15 3 5 -1 14 -9 21
-8 7 -15 27 -15 45 0 19 -6 36 -12 38 -10 4 -10 8 1 15 12 9 12 13 -2 27 -10
9 -17 30 -17 46 0 27 -3 29 -35 29 -32 0 -35 -2 -35 -30 0 -37 3 -46 13 -42 4
1 7 -7 7 -17 0 -11 5 -23 10 -26 6 -3 10 -24 10 -46 0 -29 4 -39 16 -39 11 0
15 -6 11 -20 -3 -11 -1 -23 4 -26 5 -3 9 -20 9 -39 0 -18 6 -35 12 -37 7 -3
13 -13 14 -24 0 -10 1 -36 2 -58 2 -31 5 -37 18 -32 13 5 15 2 11 -14 -3 -11
-1 -23 4 -26 5 -3 9 -23 9 -45 0 -26 4 -39 14 -39 15 0 26 -30 26 -77 0 -17 6
-33 13 -35 9 -4 13 -60 15 -226 l3 -222 -71 0 c-55 0 -72 3 -77 16 -5 13 -8
13 -15 2 -7 -10 -11 -10 -15 0 -2 6 -13 12 -23 12 -10 0 -20 6 -23 14 -6 16
16 40 26 29 4 -3 7 19 7 49 0 30 3 83 6 117 6 53 8 59 20 43 11 -14 13 6 14
131 0 131 -7 174 -23 135 -3 -7 -6 5 -6 27 -1 22 -5 45 -9 50 -12 17 -60 38
-71 31 -16 -10 -13 -72 4 -86 13 -11 15 -10 9 6 -5 17 -5 18 6 2 6 -10 10 -24
9 -30 -1 -7 1 -21 6 -32 10 -23 -1 -261 -15 -301 -10 -30 -10 -30 -6 -2 3 22
1 25 -10 16 -9 -8 -14 -34 -14 -81 0 -52 -4 -70 -15 -74 -8 -4 -15 -15 -15
-25 0 -11 -7 -19 -16 -19 -9 0 -23 -8 -30 -17 -7 -10 -16 -14 -21 -10 -4 5 -9
113 -11 240 -2 127 -6 226 -10 220 -5 -8 -11 -7 -20 3 -7 8 -8 14 -3 14 7 0 7
9 1 26 -6 14 -10 43 -10 65 0 24 -4 38 -12 37 -14 -4 -26 34 -27 85 -1 21 -7
45 -15 53 -8 8 -18 38 -21 68 -4 32 -13 57 -21 60 -9 4 -14 21 -14 52 0 37 -3
45 -15 40 -9 -3 -15 0 -15 9 0 8 7 15 15 15 12 0 15 16 15 80 0 73 -2 80 -20
80 -14 0 -21 -9 -26 -35 -3 -20 -12 -35 -20 -35 -9 0 -15 -13 -16 -37 -1 -21
-2 -47 -3 -58 0 -12 -7 -19 -18 -19 -14 2 -17 -8 -19 -60 -2 -97 -3 -99 -16
-104 -8 -2 -12 -28 -12 -77 0 -41 -4 -77 -10 -80 -5 -3 -10 -15 -10 -26 0 -11
-4 -17 -10 -14 -7 4 -10 -80 -10 -244 l0 -251 -85 0 c-69 0 -85 3 -85 15 0 8
-7 15 -15 15 -8 0 -15 7 -15 16 0 13 -3 14 -14 5 -12 -10 -15 -5 -21 29 -5 30
-11 40 -26 40 -15 0 -19 7 -19 34 0 21 -6 36 -15 40 -9 3 -15 19 -15 41 0 24
-5 35 -15 35 -10 0 -16 16 -21 49 -4 34 -14 56 -30 70 -18 15 -24 31 -24 60 0
22 -7 66 -15 98 -8 31 -16 91 -16 133 -1 41 -3 67 -6 58 -2 -10 -8 -18 -13
-18 -14 0 -23 67 -17 124 7 69 -4 86 -55 86 -32 0 -39 -3 -34 -15 3 -9 -1 -18
-9 -21 -20 -8 -22 -200 -2 -206 8 -3 13 -37 15 -111 2 -59 8 -107 13 -107 5 0
9 6 9 13 1 31 30 -60 30 -94 0 -26 4 -38 13 -36 7 1 11 -7 9 -20 -2 -12 2 -24
8 -28 5 -3 10 -24 10 -46 0 -28 4 -39 15 -39 11 0 15 -13 16 -52 0 -29 3 -47
6 -40 8 22 32 -19 33 -55 0 -23 5 -33 15 -33 31 0 14 -29 -20 -36 -20 -3 -35
-12 -35 -20 0 -8 -9 -14 -21 -14 -11 0 -17 5 -14 10 10 17 -4 47 -25 53 -16 4
-20 14 -20 46 0 34 -3 41 -20 41 -17 0 -20 7 -20 39 0 22 -5 41 -11 43 -6 2
-13 34 -16 70 -5 54 -9 67 -24 71 -16 4 -19 15 -19 66 0 48 -3 61 -15 61 -10
0 -15 10 -15 29 0 17 -4 33 -10 36 -5 3 -10 40 -10 81 0 41 -4 74 -9 74 -5 0
-5 16 -1 37 7 29 5 39 -8 49 -19 14 -42 2 -42 -22 0 -18 -36 -27 -59 -15 -11
6 -22 11 -25 11 -3 0 -6 -74 -6 -165 0 -103 4 -165 10 -165 6 0 11 6 11 13 3
29 19 -72 19 -115 -1 -30 4 -49 13 -55 23 -14 37 -49 37 -97 0 -34 4 -46 15
-46 11 0 15 -12 15 -51 0 -42 2 -49 14 -40 11 9 15 4 20 -26 10 -62 8 -72 -19
-79 -14 -3 -25 -10 -25 -15 0 -17 -19 -9 -25 11 -4 11 -10 18 -14 16 -4 -3
-13 9 -20 26 -16 35 -40 62 -64 71 -9 3 -17 16 -17 27 0 11 -6 23 -14 26 -8 3
-17 17 -20 30 -4 14 -18 29 -31 34 -15 6 -25 17 -25 30 0 11 -6 20 -12 20 -9
0 -8 4 2 10 13 9 13 12 -2 21 -11 6 -18 22 -18 38 0 20 -6 30 -20 34 -16 4
-20 14 -20 46 0 28 -4 41 -14 41 -15 0 -26 30 -26 71 0 15 -7 29 -15 33 -11 4
-15 22 -15 72 0 52 -3 65 -14 61 -15 -6 -26 57 -26 160 0 47 -4 64 -16 71 -12
7 -15 18 -11 37 3 18 -1 34 -9 42 -8 8 -14 25 -14 39 0 17 -6 24 -20 24 -24 0
-38 -45 -21 -71 7 -12 11 -67 11 -144 0 -69 4 -125 9 -125 5 0 11 6 14 13 2 6
8 -23 12 -65 5 -58 11 -78 22 -78 8 0 12 -4 8 -9 -3 -5 -1 -12 5 -16 5 -3 10
-24 10 -45 0 -21 6 -41 13 -43 9 -4 8 -8 -3 -16 -13 -10 -13 -13 3 -22 11 -6
17 -22 17 -46 0 -26 4 -34 14 -30 10 4 16 -6 20 -34 4 -22 12 -42 19 -45 8 -3
20 -20 27 -39 8 -19 19 -35 26 -35 8 0 12 -28 13 -90 2 -88 2 -89 -23 -96 -15
-3 -26 -12 -26 -20 0 -28 -19 -13 -26 20 -3 19 -12 37 -20 40 -8 3 -14 12 -14
21 0 8 -7 15 -15 15 -8 0 -17 14 -21 36 -4 25 -14 38 -30 44 -15 6 -24 18 -24
30 0 12 -4 18 -10 15 -5 -3 -7 0 -4 8 3 8 1 18 -5 22 -6 3 -11 14 -11 25 0 14
-5 17 -22 12 -17 -4 -20 -2 -15 12 9 23 -3 76 -18 76 -14 0 -25 31 -25 71 0
18 -6 28 -20 32 -16 4 -20 14 -20 52 0 26 -6 52 -14 60 -10 10 -14 52 -15 161
-1 81 -4 151 -6 155 -3 4 -14 9 -25 12 -12 3 -18 1 -14 -5 4 -6 -1 -8 -15 -3
-18 5 -21 2 -21 -22 0 -59 -12 -104 -26 -99 -11 4 -14 -21 -14 -134 0 -78 4
-140 9 -140 5 0 11 6 14 13 2 6 7 -18 11 -55 5 -47 12 -68 21 -68 9 0 16 -19
20 -54 4 -32 13 -57 21 -60 8 -3 14 -20 14 -40 0 -25 6 -38 20 -46 11 -6 20
-20 20 -30 0 -12 7 -20 17 -20 9 0 14 -3 10 -6 -3 -4 0 -13 8 -21 8 -8 15 -30
15 -49 0 -19 4 -34 8 -34 5 0 14 -16 22 -35 7 -19 19 -36 27 -39 7 -3 13 -21
13 -41 0 -23 5 -35 14 -35 7 0 16 -9 19 -20 3 -11 12 -20 21 -20 9 0 16 -4 16
-10 0 -5 -6 -10 -14 -10 -8 0 -17 -11 -20 -25 -5 -20 -13 -25 -36 -25 -17 0
-33 7 -39 18 -9 14 -12 15 -20 3 -7 -10 -11 -6 -16 18 -4 18 -13 31 -22 31 -8
0 -17 9 -20 19 -3 11 -11 22 -19 25 -8 3 -14 19 -14 35 0 16 -4 33 -10 36 -5
3 -10 -2 -10 -11 0 -33 -11 -6 -18 43 -7 48 -7 48 -47 51 -96 6 -104 10 -111
52 -4 25 -12 40 -21 40 -8 0 -12 4 -9 9 3 5 -6 21 -19 35 -17 18 -25 39 -25
62 0 24 -5 34 -15 34 -8 0 -15 9 -15 20 0 20 -18 60 -32 70 -17 13 -28 67 -28
136 l0 74 -30 0 -30 0 -1 -107 c-2 -159 -2 -158 -19 -158 -9 0 -19 15 -25 40
-5 22 -14 43 -19 47 -11 7 -12 11 -14 61 -2 23 -6 27 -21 22 -12 -3 -19 -1
-18 7 2 65 -4 87 -25 90 -20 3 -23 10 -26 51 -2 31 -7 45 -14 41 -7 -4 -8 -2
-4 4 4 7 0 22 -8 34 -9 12 -16 41 -16 64 0 23 -5 44 -12 46 -16 6 -17 140 0
145 6 3 12 10 12 18 0 7 7 18 15 25 8 7 12 16 9 21 -3 5 0 9 5 9 6 0 11 18 11
40 0 43 -14 51 -41 21z m2151 -496 c0 -62 3 -75 16 -75 13 0 15 -12 12 -78 -3
-77 -2 -78 20 -74 l22 4 0 -156 c0 -162 0 -161 -40 -158 -3 0 -4 -17 -2 -39
l4 -39 -51 0 -51 0 0 270 c0 233 2 270 15 270 12 0 15 15 15 75 0 68 2 75 20
75 18 0 20 -7 20 -75z m1230 -251 c0 -50 -2 -55 -21 -52 -20 3 -20 0 -19 -254
1 -241 0 -256 -17 -252 -17 5 -18 23 -15 275 3 260 3 269 22 269 16 0 20 7 20
35 0 24 5 35 15 35 12 0 15 -13 15 -56z m-4782 -617 c-4 -20 -1 -23 20 -19 22
4 24 2 20 -20 -4 -21 -2 -24 15 -20 17 4 19 1 15 -16 -3 -12 -3 -21 1 -20 33
4 41 -4 41 -42 0 -36 3 -40 25 -40 18 0 25 -5 25 -20 0 -12 7 -20 16 -20 11 0
15 -6 12 -18 -4 -15 -1 -18 20 -14 22 4 24 2 20 -20 -4 -21 -1 -24 19 -20 17
3 23 0 23 -12 0 -12 -7 -16 -22 -14 -20 3 -21 0 -19 -59 2 -52 0 -63 -13 -63
-9 0 -16 7 -16 15 0 9 -9 15 -24 15 -19 0 -23 4 -19 21 4 15 0 22 -16 26 -11
3 -21 12 -21 20 0 8 -9 17 -21 20 -13 4 -19 12 -16 23 3 13 -1 16 -21 12 -22
-4 -24 -2 -20 20 4 21 1 24 -15 20 -15 -4 -18 0 -15 19 2 20 -1 23 -19 21 -21
-3 -23 1 -23 37 0 34 -3 41 -20 41 -18 0 -20 7 -20 56 0 54 1 56 23 52 20 -4
23 -1 19 19 -3 17 0 23 13 23 13 0 16 -6 13 -23z m2832 -405 c0 -7 -8 -16 -18
-19 -10 -2 -22 -12 -27 -22 -6 -10 -17 -30 -25 -45 -8 -16 -29 -44 -46 -63
-18 -19 -38 -48 -44 -64 -7 -16 -16 -29 -20 -29 -4 0 -11 -16 -14 -36 -4 -19
-13 -37 -21 -40 -8 -3 -17 -21 -21 -40 -3 -18 -12 -38 -20 -45 -8 -6 -14 -23
-14 -38 0 -15 -9 -34 -20 -44 -14 -11 -20 -29 -20 -56 0 -25 -6 -43 -15 -48
-8 -5 -18 -30 -21 -58 -4 -28 -12 -55 -19 -60 -7 -6 -14 -38 -17 -73 -3 -50
-9 -66 -26 -78 -18 -12 -22 -25 -22 -67 0 -30 -7 -65 -17 -82 -32 -59 -30
-857 3 -889 7 -8 10 -16 7 -20 -4 -3 -2 -6 3 -6 5 0 8 -26 6 -58 -3 -51 -1
-60 22 -81 20 -19 26 -34 26 -67 0 -26 6 -46 13 -51 8 -4 17 -30 21 -58 3 -27
12 -53 20 -57 8 -4 17 -24 20 -43 4 -21 13 -35 21 -35 8 0 15 -9 15 -20 0 -11
4 -20 9 -20 5 0 16 -18 25 -40 9 -22 20 -40 25 -40 9 0 24 -38 22 -53 -1 -5 8
-11 19 -14 11 -3 20 -11 20 -19 0 -15 46 -64 60 -64 6 0 10 -5 10 -10 0 -14
134 -150 147 -150 6 0 13 -7 17 -15 3 -8 12 -15 20 -15 14 0 29 -26 22 -38 -2
-4 8 -7 22 -7 43 0 37 -20 -7 -23 -24 -2 -44 2 -53 11 -9 10 -51 17 -126 22
-69 4 -110 11 -109 18 2 12 -35 25 -80 26 -18 1 -33 5 -33 11 0 5 -16 12 -35
16 -20 3 -35 12 -35 20 0 7 -12 16 -27 19 -16 4 -47 15 -71 26 -23 10 -54 19
-67 19 -14 0 -29 8 -35 21 -7 11 -18 18 -25 15 -8 -3 -30 6 -50 20 -20 13 -47
24 -60 24 -15 0 -25 6 -25 14 0 8 -15 17 -35 20 -19 4 -35 11 -35 16 0 5 -16
16 -35 24 -19 8 -35 20 -35 25 0 6 -13 11 -28 11 -16 0 -37 9 -47 20 -10 11
-26 20 -37 20 -10 0 -18 5 -18 11 0 5 -14 15 -30 21 -17 5 -35 19 -41 29 -5
10 -16 19 -23 19 -8 0 -16 7 -19 15 -4 8 -22 21 -42 29 -19 8 -35 20 -35 25 0
6 -9 11 -20 11 -11 0 -20 6 -20 13 0 8 -25 26 -55 42 -30 15 -55 31 -55 36 0
5 -7 9 -15 9 -9 0 -38 20 -64 45 -26 25 -55 45 -65 45 -9 0 -16 7 -16 15 0 9
-8 19 -17 22 -20 8 -63 52 -63 64 0 5 -7 9 -15 9 -8 0 -15 3 -15 8 0 4 -27 36
-60 70 -33 35 -60 68 -60 73 0 5 -9 9 -20 9 -12 0 -20 7 -20 16 0 9 -7 22 -16
29 -9 6 -17 25 -18 42 -1 23 -5 29 -18 25 -14 -3 -18 2 -18 23 0 22 -4 26 -19
22 -15 -4 -20 2 -25 34 -3 22 -11 39 -16 39 -6 0 -10 7 -10 16 0 9 -11 25 -24
35 -17 13 -22 25 -19 44 4 20 1 25 -15 25 -22 0 -28 19 -35 107 -2 24 -7 46
-12 50 -4 5 -5 2 0 -6 6 -10 4 -12 -4 -6 -7 4 -11 18 -9 30 4 18 1 22 -10 17
-10 -3 -13 -1 -8 6 5 8 2 10 -9 5 -14 -5 -16 1 -14 33 2 26 -1 38 -9 37 -21
-5 -33 37 -30 105 3 61 5 67 24 66 15 0 20 4 17 13 -3 9 3 16 15 20 12 3 24
14 27 24 4 11 11 17 16 14 5 -4 9 -1 9 6 0 7 3 10 6 6 7 -7 42 26 37 36 -2 4
5 7 17 7 11 0 23 7 27 16 3 9 13 14 23 11 11 -3 16 2 16 17 -1 16 5 21 24 21
19 1 24 5 22 19 -3 14 1 17 13 12 10 -4 14 -2 9 6 -5 7 1 9 18 6 21 -4 24 -1
20 14 -3 13 1 18 17 18 12 0 21 6 21 15 0 8 16 22 36 31 44 21 84 56 84 74 0
8 9 11 24 8 19 -4 22 -1 18 15 -4 17 -1 19 26 15 19 -3 29 -1 25 6 -4 5 0 7
10 3 11 -4 14 -2 10 8 -3 9 4 18 20 24 14 5 28 14 31 19 3 6 18 13 33 16 42
10 96 39 111 59 7 9 17 15 22 12 4 -3 10 2 14 10 3 8 12 15 20 15 7 0 16 7 20
15 3 9 18 15 35 15 16 0 36 7 45 15 8 8 28 18 45 21 16 4 32 12 35 20 3 8 16
14 29 14 24 0 55 20 90 58 12 12 32 22 48 22 14 0 32 6 38 14 12 15 58 31 78
27 7 -1 17 8 23 19 8 16 21 20 58 20 35 0 52 5 65 20 9 11 28 20 41 20 13 0
39 6 57 14 19 8 55 17 81 21 26 4 49 13 52 20 2 7 25 16 51 19 25 4 49 14 52
22 3 9 19 14 43 14 21 0 43 7 50 15 7 8 34 17 61 21 26 4 55 14 64 24 18 20
45 22 45 2z m1162 -82 c7 -11 18 -20 25 -20 7 0 13 -6 13 -14 0 -7 9 -16 20
-19 11 -3 20 -12 20 -20 0 -33 181 -34 194 -1 4 10 24 14 75 14 73 0 80 -6 81
-66 0 -11 9 -39 21 -63 25 -52 18 -130 -11 -138 -10 -3 -21 -15 -25 -26 -7
-22 -7 -21 -14 3 -7 25 -8 25 -15 3 -4 -12 -4 -38 0 -58 6 -32 9 -35 39 -35
18 0 40 -3 49 -6 17 -7 22 -44 6 -44 -5 0 -10 5 -10 10 0 6 -9 10 -20 10 -40
0 -89 28 -96 54 -6 24 -10 26 -65 26 -46 0 -61 -4 -66 -16 -5 -15 -7 -15 -15
0 -13 24 -123 23 -138 -1 -10 -17 -10 -17 -20 0 -6 9 -17 17 -25 17 -7 0 -16
6 -19 13 -3 6 -4 -4 -3 -23 l2 -35 85 -1 c238 -3 240 -4 240 -18 0 -8 14 -20
30 -28 17 -7 30 -19 30 -25 0 -7 7 -13 15 -13 19 0 19 -14 1 -29 -8 -7 -17
-28 -21 -47 -6 -33 -8 -35 -33 -29 -15 4 -30 13 -35 20 -4 7 -21 16 -37 20
-17 4 -36 15 -42 24 -11 16 -37 19 -193 26 -207 8 -275 2 -282 -26 -3 -12 -18
-21 -39 -25 -19 -3 -34 -11 -34 -16 0 -12 -47 -58 -59 -58 -5 0 -12 -11 -15
-24 -3 -14 -15 -27 -25 -31 -22 -7 -31 -33 -31 -93 0 -29 -5 -45 -15 -48 -10
-4 -15 -21 -15 -53 0 -25 -7 -59 -15 -75 -17 -33 -22 -216 -5 -216 6 0 10 -6
10 -14 0 -8 -17 -16 -46 -20 -73 -10 -84 -8 -84 12 0 11 -9 27 -20 37 -26 23
-25 42 1 50 38 12 88 50 89 66 1 37 -71 39 -94 4 -9 -14 -25 -25 -36 -25 -10
0 -23 -7 -28 -16 -8 -14 -17 -15 -53 -9 -24 5 -105 10 -179 11 -103 2 -146 -2
-183 -14 -47 -16 -50 -16 -87 6 -22 12 -47 22 -58 22 -10 0 -27 7 -38 15 -10
8 -27 15 -36 15 -10 0 -18 5 -18 11 0 6 -11 9 -24 7 -13 -1 -33 6 -45 16 -14
12 -37 19 -66 20 -44 1 -45 2 -45 34 0 17 4 32 8 32 5 0 13 17 18 38 8 32 13
37 34 34 14 -2 30 -9 35 -16 6 -8 48 -16 105 -20 52 -4 99 -11 105 -17 13 -13
73 -11 77 3 5 14 130 13 158 -2 29 -15 142 -12 164 5 12 9 42 15 78 15 49 0
58 3 58 18 0 10 -5 23 -11 29 -6 6 -9 28 -7 49 3 38 5 39 50 48 40 8 47 13 52
38 3 15 7 31 8 36 1 4 -10 13 -25 20 -38 19 -25 32 32 32 48 0 49 1 55 34 8
42 -1 83 -20 90 -8 3 -14 14 -14 25 0 11 -9 28 -19 38 -14 13 -21 39 -26 91
-4 39 -12 72 -16 72 -17 0 -10 114 9 141 43 64 90 90 115 65 8 -8 26 -18 41
-22 14 -3 26 -12 26 -20 0 -8 10 -14 25 -14 17 0 23 -4 19 -15 -4 -10 3 -18
20 -25 16 -6 26 -17 26 -30 0 -11 6 -20 14 -20 7 0 16 -9 19 -20 4 -15 14 -20
40 -20 46 0 86 15 94 36 3 9 21 33 39 53 29 31 34 43 34 88 0 39 5 57 23 77
27 32 72 35 89 6z m-4532 -105 c0 -28 4 -35 20 -35 15 0 20 -7 20 -25 0 -19 5
-25 21 -25 17 0 20 -5 17 -24 -4 -18 -1 -22 12 -19 11 3 19 -3 23 -16 3 -12
12 -21 21 -21 9 0 16 -7 16 -15 0 -9 9 -15 25 -15 18 0 25 -5 25 -20 0 -12 7
-20 16 -20 11 0 15 -6 11 -20 -3 -10 -2 -19 2 -18 3 0 23 0 44 -1 31 -1 37 -5
37 -22 0 -15 5 -19 15 -15 11 4 15 -1 15 -19 0 -18 5 -25 20 -25 16 0 20 -7
20 -35 0 -30 3 -35 23 -35 16 0 23 -6 23 -20 0 -17 -7 -20 -39 -20 -35 0 -39
2 -35 23 4 20 1 22 -35 18 -36 -3 -38 -1 -35 20 3 22 0 23 -44 20 -43 -2 -46
-1 -41 18 4 16 1 21 -16 21 -12 0 -21 6 -21 15 0 8 -9 15 -19 15 -12 0 -21 9
-25 26 -5 18 -11 24 -23 20 -12 -5 -14 0 -11 22 4 26 1 28 -20 24 -23 -5 -24
-2 -21 35 4 34 2 39 -13 35 -14 -3 -17 5 -20 54 -2 49 -6 59 -20 58 -14 -1
-18 6 -18 37 0 28 4 39 15 39 10 0 15 -11 15 -35z m6043 -45 c8 -11 17 -17 20
-14 4 4 11 -5 16 -20 6 -14 15 -26 21 -26 15 0 50 -38 50 -55 0 -8 7 -15 15
-15 8 0 15 -6 15 -14 0 -8 17 -20 38 -27 20 -6 41 -18 45 -25 4 -8 12 -14 17
-14 5 0 26 -11 46 -25 20 -14 40 -22 44 -20 5 3 12 1 15 -5 8 -13 81 -61 118
-77 15 -7 27 -16 27 -21 0 -6 15 -13 33 -16 22 -4 39 -15 47 -31 7 -14 19 -25
27 -25 7 0 13 -4 13 -10 0 -5 7 -7 15 -4 10 4 15 0 15 -14 0 -12 9 -23 21 -27
25 -8 53 -35 62 -58 3 -9 13 -17 21 -17 21 0 96 -75 96 -96 0 -9 9 -35 19 -58
34 -72 53 -139 58 -199 4 -50 10 -63 45 -102 23 -25 49 -45 60 -45 10 0 18 -5
18 -10 0 -6 8 -13 18 -17 24 -9 102 -92 102 -109 0 -8 7 -14 15 -14 8 0 15 -7
15 -15 0 -9 6 -18 14 -21 8 -3 18 -20 22 -37 4 -18 14 -37 23 -44 9 -6 16 -15
16 -20 0 -4 10 -22 23 -40 12 -17 22 -41 22 -52 0 -12 9 -39 20 -61 12 -24 20
-59 20 -91 0 -33 6 -59 15 -69 8 -9 18 -39 22 -66 6 -50 35 -93 63 -94 8 0 28
-7 44 -15 15 -8 35 -15 43 -15 12 0 14 -11 8 -61 -6 -54 -12 -66 -46 -99 -21
-21 -39 -43 -39 -49 0 -6 -6 -11 -14 -11 -8 0 -18 -9 -21 -20 -3 -11 -13 -20
-20 -20 -8 0 -18 -6 -22 -12 -9 -14 -53 -41 -93 -58 -23 -9 -25 -15 -22 -59 3
-41 0 -51 -16 -60 -11 -6 -23 -23 -27 -38 -10 -48 -57 -61 -245 -69 -129 -5
-167 -10 -176 -22 -8 -11 -29 -14 -82 -13 -60 1 -73 -2 -81 -17 -9 -18 -29
-19 -254 -24 -153 -3 -251 -10 -265 -17 -11 -6 -70 -14 -129 -17 -87 -6 -112
-10 -126 -25 -13 -14 -32 -19 -74 -19 -33 0 -63 -6 -72 -14 -19 -16 -150 -29
-170 -17 -15 10 -8 15 32 25 15 3 27 13 27 21 0 8 9 15 20 15 11 0 20 6 20 14
0 8 12 17 28 21 15 3 36 15 47 26 88 85 125 126 125 140 0 8 7 17 55 70 8 9
15 19 15 22 0 4 7 15 15 24 42 47 65 82 65 97 0 9 5 16 10 16 6 0 16 12 22 28
7 15 18 34 25 43 8 9 16 39 20 67 3 28 10 49 14 46 5 -3 6 2 3 11 -4 8 -1 21
4 28 6 7 14 33 18 57 4 25 13 51 21 58 7 7 13 28 13 45 0 18 9 43 20 57 14 18
20 41 20 81 0 40 6 63 19 81 19 23 20 43 20 346 0 278 -2 323 -15 330 -11 6
-17 33 -21 105 -3 53 -9 97 -13 97 -14 0 -22 34 -30 129 -5 52 -13 97 -18 100
-5 3 -12 27 -15 54 -4 26 -13 57 -21 70 -8 12 -17 38 -21 57 -6 32 -26 84 -47
120 -4 8 -14 26 -20 40 -7 14 -18 29 -25 33 -15 9 -17 37 -4 37 6 0 16 -9 24
-20z m1127 -116 c0 -32 -3 -36 -22 -32 -21 4 -23 1 -19 -39 2 -36 0 -42 -13
-37 -11 4 -17 -2 -22 -21 -5 -19 -12 -25 -24 -22 -13 3 -16 0 -13 -14 4 -14 0
-19 -16 -19 -14 0 -21 -6 -21 -20 0 -17 -7 -20 -40 -20 -40 0 -40 0 -40 39 0
34 3 38 20 34 15 -4 20 0 20 16 0 15 6 21 21 21 16 0 20 5 16 20 -4 16 0 20
19 20 18 0 24 5 24 21 0 17 5 20 24 17 19 -4 22 -1 18 15 -4 15 0 18 19 15 20
-2 23 1 21 20 -2 15 2 22 12 22 12 0 16 -10 16 -36z m-1112 -203 c-3 -18 0
-27 5 -24 6 3 8 -7 5 -26 -3 -18 0 -35 5 -38 6 -4 7 -1 2 7 -6 9 -4 11 4 5 7
-4 11 -18 8 -31 -2 -13 0 -21 5 -18 5 4 8 -9 6 -27 -3 -30 -6 -34 -28 -31 -14
2 -40 10 -59 19 -33 15 -35 15 -52 -6 -11 -13 -29 -21 -49 -21 -29 0 -32 3
-26 23 3 12 6 28 6 35 0 7 8 12 17 10 12 -2 18 4 18 17 0 12 7 20 17 20 10 0
23 7 30 15 11 12 10 12 -7 0 -18 -14 -19 -14 -6 3 7 9 22 17 33 17 10 0 16 4
13 10 -3 5 3 15 15 22 11 7 20 21 20 30 0 10 5 18 11 18 7 0 10 -12 7 -29z
m-846 -307 c-2 -23 4 -39 22 -57 24 -24 36 -83 21 -99 -7 -7 -66 3 -61 11 2 3
-13 5 -34 3 -35 -4 -40 -1 -46 22 -3 14 -10 24 -14 21 -11 -7 -19 30 -10 45 4
7 13 10 19 6 6 -4 9 -2 5 7 -6 16 21 42 35 33 5 -4 7 3 3 16 -4 17 -2 20 12
15 11 -4 15 -3 10 4 -4 7 3 9 17 7 20 -2 24 -8 21 -34z m622 -89 c4 -21 13
-35 21 -35 8 0 15 -9 15 -20 0 -11 7 -20 15 -20 8 0 20 -9 27 -20 11 -18 24
-20 105 -20 83 0 93 2 103 21 7 13 19 19 33 17 32 -4 33 -29 27 -409 -4 -292
-7 -339 -21 -355 -9 -11 -20 -40 -23 -66 -4 -26 -13 -49 -21 -52 -8 -3 -15
-18 -15 -33 0 -16 -9 -45 -20 -66 -12 -22 -20 -56 -20 -86 0 -34 -4 -51 -15
-55 -9 -3 -15 -18 -15 -34 0 -16 -8 -37 -19 -46 -10 -9 -21 -34 -25 -55 -3
-22 -13 -41 -21 -45 -8 -3 -15 -12 -15 -21 0 -8 -7 -15 -15 -15 -8 0 -15 -6
-15 -13 0 -23 -25 -67 -37 -67 -7 0 -13 -9 -13 -20 0 -13 -7 -20 -20 -20 -13
0 -22 -10 -29 -32 -9 -32 -9 -32 -10 -6 -1 15 4 30 9 33 13 8 13 42 0 47 -5 2
-13 26 -16 53 -4 28 -13 54 -21 58 -7 4 -13 17 -13 27 0 11 -9 29 -20 40 -11
11 -20 24 -20 28 0 5 -24 17 -52 26 -52 17 -54 17 -100 -4 -27 -11 -48 -24
-48 -29 0 -4 -31 -8 -69 -9 -82 -1 -95 8 -81 59 21 71 8 159 -23 159 -7 0 -19
6 -25 12 -7 7 -29 13 -50 14 -44 0 -142 -22 -156 -36 -5 -5 -20 -10 -32 -10
-13 0 -26 -5 -29 -10 -14 -23 -25 4 -25 61 0 50 4 64 25 84 13 14 29 25 35 25
13 0 13 57 -1 65 -23 15 -1 29 39 26 37 -2 43 1 51 22 5 13 17 27 25 30 9 4
16 13 16 20 0 8 7 20 15 27 17 14 20 65 6 75 -6 3 -4 17 5 33 7 15 14 46 14
70 0 31 4 42 15 42 8 0 15 9 15 20 0 11 4 20 9 20 5 0 17 7 26 16 9 9 31 20
48 23 22 5 35 15 41 33 15 43 2 58 -48 58 -56 0 -78 26 -46 55 10 9 20 27 22
39 2 17 9 20 36 18 18 -2 32 1 32 7 0 6 7 11 15 11 9 0 18 7 21 15 7 18 -14
47 -27 39 -5 -3 -9 1 -9 10 0 25 12 46 26 46 8 0 14 4 14 9 0 5 9 7 20 4 14
-4 20 0 20 11 0 11 13 18 40 22 22 4 40 12 40 19 0 7 12 16 28 20 15 4 35 15
45 26 10 10 28 19 41 19 13 0 37 7 52 15 16 8 41 15 55 15 23 0 28 -5 33 -35z
m-2770 -465 c16 0 26 -6 26 -15 0 -8 -7 -15 -15 -15 -8 0 -15 -7 -15 -15 0 -8
-9 -19 -20 -25 -25 -13 -26 -51 -2 -73 16 -15 21 -13 65 28 35 34 55 45 79 45
18 0 42 7 52 15 26 20 85 20 92 0 4 -8 16 -15 28 -15 11 0 34 -7 50 -15 32
-17 86 -20 86 -5 0 5 17 12 38 15 20 3 48 12 62 20 14 7 48 15 75 16 47 4 50
2 53 -21 2 -14 12 -33 23 -43 21 -20 21 -22 13 -54 -4 -13 -13 -23 -20 -23 -8
0 -14 -10 -14 -25 0 -16 -6 -25 -15 -25 -20 0 -19 -26 1 -34 28 -11 49 -6 67
14 21 25 97 29 97 5 0 -8 5 -15 11 -15 16 0 69 -56 69 -74 0 -9 9 -25 20 -36
18 -18 19 -25 9 -65 -6 -25 -16 -45 -21 -45 -5 0 -8 -12 -6 -27 3 -27 6 -28
56 -28 40 0 56 -4 63 -17 13 -24 70 -24 90 0 33 38 32 43 -10 83 -34 33 -41
46 -41 79 0 35 3 40 23 40 44 0 99 -85 67 -105 -5 -3 -10 -13 -10 -21 0 -17
27 -19 32 -3 7 20 95 17 110 -3 9 -12 30 -18 68 -20 52 -3 55 -4 52 -28 -2
-13 -10 -29 -17 -35 -17 -14 -26 -57 -19 -94 6 -30 9 -31 55 -31 42 0 50 3 61
27 9 19 21 27 41 28 16 0 31 -3 33 -7 3 -4 20 -8 38 -8 l33 0 7 -94 c4 -52 4
-111 0 -130 -3 -20 -3 -56 0 -81 7 -43 9 -45 42 -45 33 0 34 1 34 43 0 67 11
117 26 117 10 0 14 30 16 132 l3 132 47 1 c38 0 52 -4 71 -25 13 -14 26 -33
30 -42 5 -13 17 -18 46 -18 l40 0 -24 -36 c-17 -25 -25 -51 -25 -80 0 -44 17
-94 32 -94 4 0 8 -8 8 -18 0 -10 9 -25 20 -35 11 -9 20 -26 20 -36 0 -11 5
-23 10 -26 6 -4 17 -21 25 -38 26 -53 41 -77 60 -91 15 -11 17 -21 11 -62 -8
-59 11 -164 30 -164 8 0 16 -11 20 -24 4 -19 16 -27 52 -36 48 -12 72 -26 72
-41 0 -5 -6 -6 -14 -3 -8 3 -17 1 -21 -5 -3 -6 -25 -11 -49 -11 -23 0 -47 -5
-54 -12 -16 -16 -176 -44 -312 -54 -47 -3 -105 -13 -130 -21 -35 -12 -115 -17
-361 -21 -174 -2 -359 -1 -412 3 -85 6 -97 9 -103 27 -4 14 -1 24 10 30 12 7
16 24 16 66 0 35 7 69 17 87 21 37 24 162 4 174 -7 5 -15 26 -18 49 -5 34 -2
42 16 51 14 8 21 21 21 41 0 16 7 33 16 38 11 6 14 20 12 47 -4 53 -24 55 -39
6 -7 -23 -18 -41 -26 -41 -7 0 -13 -9 -13 -20 0 -11 -8 -24 -17 -27 -10 -4
-21 -11 -25 -17 -4 -6 -8 4 -8 22 0 17 5 32 10 32 6 0 10 8 10 18 0 9 7 30 15
46 17 33 19 56 5 56 -6 0 -13 7 -17 15 -10 29 -57 75 -75 75 -28 0 -24 48 6
61 16 8 26 23 30 45 4 18 13 46 21 61 8 15 15 38 15 51 0 13 12 39 26 58 22
28 24 37 14 49 -17 21 -41 19 -47 -4 -3 -11 -13 -21 -24 -24 -10 -3 -19 -12
-19 -21 0 -9 -5 -16 -11 -16 -7 0 -28 -16 -48 -35 -55 -54 -95 -85 -108 -85
-7 0 -13 -7 -13 -15 0 -9 -9 -15 -21 -15 -12 0 -23 -8 -26 -20 -3 -10 -14 -22
-24 -25 -10 -4 -19 -11 -19 -16 0 -5 -11 -9 -25 -9 -23 0 -25 2 -14 21 14 27
7 122 -10 143 -18 21 -90 22 -97 1 -8 -19 -60 -20 -71 0 -6 11 -34 15 -113 17
l-105 3 -3 27 c-2 15 4 38 12 50 9 12 16 32 16 43 0 12 5 26 10 31 7 7 5 21
-6 42 -13 27 -21 32 -50 32 -22 0 -37 -6 -40 -15 -4 -8 -14 -15 -24 -15 -10 0
-22 -10 -26 -22 l-8 -23 -7 25 c-9 31 -11 394 -3 403 4 3 15 2 25 -3 10 -6 29
-10 43 -10z m1996 -414 c0 -55 -3 -64 -20 -69 -17 -4 -20 -14 -20 -67 0 -61 0
-61 -27 -58 -22 2 -29 10 -36 41 -8 35 -11 37 -48 37 -28 0 -39 -4 -39 -15 0
-8 -4 -15 -10 -15 -5 0 -10 7 -10 17 0 9 -3 14 -6 10 -10 -10 -36 22 -28 34 3
6 21 9 39 7 25 -3 31 0 27 11 -4 11 0 13 16 9 14 -4 20 -2 15 5 -4 6 0 8 10 4
9 -3 19 -1 23 5 5 7 2 8 -7 4 -8 -4 -6 -1 4 8 11 8 36 17 57 21 34 6 39 10 44
41 10 52 16 41 16 -30z m-490 -137 c0 -6 7 -8 15 -5 9 3 18 -1 21 -9 9 -23
103 -20 134 5 27 21 50 26 50 10 0 -5 -6 -10 -14 -10 -22 0 -26 -23 -28 -178
l-2 -147 -3 118 c-2 66 -8 117 -13 117 -6 0 -10 9 -10 20 0 14 -7 20 -21 20
-11 0 -18 4 -14 9 3 6 -6 7 -22 2 -16 -5 -51 -5 -80 -1 -29 3 -50 3 -47 -2 3
-4 -6 -8 -20 -8 -16 0 -26 -6 -26 -14 0 -17 -18 -25 -42 -18 -18 4 -25 22 -9
22 5 0 11 9 14 20 3 11 14 20 25 20 11 0 22 9 25 20 4 15 14 20 36 20 17 0 31
-5 31 -11z m-3063 -338 c-3 -15 0 -17 16 -13 17 4 19 1 15 -20 -4 -22 -2 -24
20 -20 22 4 24 2 20 -20 -4 -21 -1 -24 19 -20 16 3 23 0 23 -12 0 -13 -11 -16
-55 -16 -52 0 -55 -1 -55 -25 0 -18 -5 -25 -20 -25 -15 0 -20 7 -20 25 l0 25
-175 0 c-149 0 -175 2 -175 15 0 11 11 15 41 15 37 0 41 2 36 21 -5 20 -2 20
62 17 65 -3 67 -2 63 20 -4 21 -2 22 72 22 61 0 76 3 76 15 0 9 9 15 21 15 16
0 20 -5 16 -19z m643 -497 c0 -8 10 -14 24 -14 19 0 23 -4 19 -20 -5 -18 0
-20 56 -20 59 0 62 -1 59 -22 -2 -19 1 -22 20 -20 17 3 22 -2 22 -17 0 -17 6
-21 34 -21 25 0 35 -5 39 -20 3 -12 14 -20 26 -20 12 0 21 -6 21 -15 0 -8 -9
-15 -20 -15 -11 0 -20 7 -20 15 0 12 -34 15 -213 17 -200 3 -214 2 -209 -14 4
-16 -3 -18 -57 -18 -55 0 -61 -2 -61 -21 0 -17 -5 -20 -23 -17 -20 4 -23 1
-19 -19 4 -21 1 -23 -32 -23 -26 0 -36 4 -36 16 0 10 7 14 22 12 20 -3 22 1
19 44 -2 40 0 47 13 42 13 -5 16 2 16 36 0 39 2 42 23 38 20 -4 23 -1 19 19
-3 18 0 23 17 23 15 0 21 6 21 21 0 19 5 20 63 17 56 -3 63 -1 60 14 -6 19 16
25 65 20 19 -3 32 -10 32 -18z m1430 -635 c0 -73 -2 -81 -17 -77 -16 4 -18 -3
-15 -69 3 -68 2 -73 -17 -73 -20 0 -21 -5 -21 -120 0 -113 -1 -120 -20 -120
-17 0 -20 -7 -20 -40 0 -33 -3 -40 -20 -40 -17 0 -20 7 -20 40 0 33 -3 40 -20
40 -14 0 -20 7 -20 21 0 17 5 20 23 17 22 -4 22 -4 19 114 l-3 118 26 0 c26 0
27 1 23 55 -3 51 -2 55 20 55 20 0 22 4 22 61 0 55 2 61 18 57 15 -4 18 -1 14
18 -3 17 0 24 12 24 13 0 16 -13 16 -81z"/>
<path d="M8657 3620 c-3 -13 -1 -18 6 -13 6 4 8 0 4 -9 -4 -12 -1 -14 14 -11
20 6 25 -12 10 -35 -7 -11 -9 -11 -14 2 -4 9 -18 16 -32 16 -15 0 -24 5 -22
13 1 8 -11 12 -38 12 -39 0 -40 -1 -43 -37 l-3 -38 48 -1 c26 -1 51 -1 55 0 4
0 12 -8 18 -19 6 -11 17 -20 25 -20 9 0 15 -10 15 -25 0 -16 6 -25 15 -25 9 0
18 -12 22 -30 3 -16 11 -30 19 -30 8 0 15 -18 20 -45 4 -28 11 -45 20 -45 7 0
11 -6 8 -14 -3 -8 -1 -17 5 -21 6 -3 11 -26 11 -50 0 -39 2 -43 22 -37 14 3
19 2 14 -7 -4 -6 -4 -47 0 -91 5 -65 10 -80 23 -80 24 0 60 30 44 36 -9 4 -13
29 -12 77 1 84 17 65 18 -20 1 -46 4 -53 21 -53 13 0 20 -7 20 -20 0 -13 7
-20 20 -20 17 0 20 7 20 45 0 33 -4 45 -15 45 -12 0 -15 14 -15 70 0 65 -2 70
-21 70 -16 0 -20 5 -16 18 6 27 -6 97 -18 97 -23 1 -35 18 -35 50 0 25 -4 33
-13 29 -8 -3 -14 1 -15 8 -6 55 -16 79 -28 74 -10 -4 -14 5 -14 34 0 33 -3 40
-20 40 -13 0 -20 7 -20 20 0 12 -7 20 -16 20 -9 0 -18 9 -21 20 -8 29 -78 29
-86 0z"/>
<path d="M8327 3573 c-15 -14 -6 -51 13 -56 12 -3 20 -14 20 -27 0 -11 5 -18
10 -15 6 3 15 -6 20 -22 6 -15 15 -36 20 -45 6 -10 10 -31 10 -48 0 -23 4 -30
19 -30 11 0 23 -9 26 -20 3 -11 13 -20 21 -20 8 0 19 -11 24 -25 5 -14 16 -25
25 -25 8 0 15 -4 15 -9 0 -5 9 -11 20 -14 15 -4 20 -14 20 -41 0 -25 6 -38 20
-46 11 -6 20 -17 20 -25 0 -8 7 -15 15 -15 8 0 17 -14 21 -35 3 -19 10 -35 15
-35 14 0 10 -30 -3 -30 -7 0 -5 -5 5 -11 9 -6 26 -7 37 -4 16 5 20 15 20 50 0
25 -5 45 -12 48 -10 4 -10 6 0 6 17 1 15 21 -3 21 -8 0 -15 9 -15 20 0 11 -6
20 -13 20 -7 0 -18 15 -25 34 -7 19 -21 36 -32 39 -15 4 -20 14 -20 41 0 23
-4 35 -12 33 -7 -1 -17 8 -23 21 -5 12 -13 22 -17 22 -5 0 -8 7 -8 15 0 9 -11
20 -25 25 -14 5 -25 16 -25 25 0 8 -7 15 -15 15 -8 0 -15 6 -15 14 0 7 -10 21
-22 29 -19 13 -20 16 -5 16 16 1 16 2 -1 19 -10 9 -27 22 -38 28 -10 6 -20 21
-22 32 -3 18 -8 20 -34 15 -22 -4 -29 -3 -24 5 8 13 3 16 -7 5z"/>
<path d="M8024 3464 c9 -8 16 -24 16 -34 0 -10 9 -20 21 -23 11 -3 23 -15 26
-26 3 -12 12 -21 19 -21 8 0 17 -7 20 -15 4 -8 13 -15 21 -15 8 0 17 -9 20
-19 3 -11 11 -22 19 -25 8 -3 14 -12 14 -21 0 -8 7 -15 15 -15 9 0 18 -7 21
-15 4 -8 13 -15 20 -15 8 0 18 -8 21 -17 4 -10 15 -24 25 -31 10 -7 18 -20 18
-28 0 -8 7 -14 15 -14 9 0 18 -7 21 -15 4 -8 12 -15 20 -15 7 0 17 -12 20 -27
4 -16 11 -31 16 -34 5 -3 12 -25 15 -48 6 -41 22 -57 24 -23 2 30 17 -30 18
-70 1 -27 6 -38 16 -38 8 0 15 -9 15 -20 0 -11 7 -23 15 -26 17 -7 20 -40 5
-49 -16 -10 -12 -45 5 -45 21 0 60 41 47 49 -6 4 -14 49 -17 101 -6 100 -10
113 -26 90 -9 -13 -10 -13 -8 0 3 21 -19 70 -31 70 -5 0 -9 3 -8 8 2 13 -19
57 -35 71 -9 7 -13 20 -10 28 5 12 2 15 -10 10 -11 -4 -17 -1 -17 8 0 8 -11
17 -25 21 -14 3 -22 10 -19 15 6 11 -21 41 -30 32 -3 -4 -6 -1 -6 5 0 7 5 12
10 12 6 0 1 9 -10 20 -12 12 -25 18 -30 15 -6 -4 -13 7 -16 24 -5 21 -12 31
-25 31 -12 0 -19 7 -19 20 0 13 -7 20 -20 20 -11 0 -20 6 -20 14 0 7 -9 16
-20 19 -11 3 -20 12 -20 20 0 12 -20 24 -52 31 -3 0 -10 5 -15 10 -4 5 -3 6 4
2 6 -3 14 -2 18 4 4 6 -15 10 -50 10 -51 0 -55 -1 -41 -16z"/>
<path d="M4890 3385 c0 -10 -10 -15 -32 -15 -26 0 -41 -9 -68 -40 -19 -22 -41
-40 -47 -40 -7 0 -13 -7 -13 -15 0 -8 -9 -15 -20 -15 -15 0 -20 -7 -20 -25 0
-18 -5 -25 -20 -25 -11 0 -20 -7 -20 -15 0 -8 -7 -15 -15 -15 -9 0 -18 -7 -21
-15 -4 -8 -10 -15 -16 -15 -5 0 -6 5 -3 10 3 6 1 10 -4 10 -6 0 -11 -14 -11
-30 0 -23 -6 -33 -25 -40 -14 -5 -25 -16 -25 -25 0 -8 -5 -14 -12 -13 -7 2
-12 -6 -13 -17 0 -11 -10 -24 -22 -30 -16 -7 -23 -18 -23 -37 0 -21 -5 -28
-20 -28 -17 0 -20 -7 -20 -40 0 -27 -4 -40 -14 -40 -10 0 -16 -21 -21 -74 -5
-59 -10 -74 -21 -69 -11 4 -14 -8 -14 -62 0 -54 3 -66 14 -62 10 4 16 -2 18
-21 2 -19 10 -28 26 -30 22 -3 22 -3 22 132 0 111 3 136 14 136 9 0 17 15 21
40 4 22 12 40 20 40 7 0 15 17 19 40 4 26 11 40 21 40 8 0 15 7 15 15 0 8 9
19 20 25 11 6 20 17 20 25 0 8 5 15 11 15 5 0 8 4 5 8 -3 5 4 15 15 22 10 8
19 20 19 28 0 7 5 10 10 7 15 -9 60 22 60 40 0 8 6 15 14 15 7 0 16 9 19 21 4
16 12 20 39 17 31 -3 33 -5 36 -45 2 -34 0 -43 -12 -43 -9 0 -16 -7 -16 -15 0
-8 -4 -15 -10 -15 -5 0 -10 -9 -10 -19 0 -10 -6 -21 -14 -24 -7 -3 -16 -21
-20 -41 -4 -20 -12 -35 -19 -33 -7 1 -14 -18 -17 -52 -3 -30 -11 -56 -18 -59
-7 -2 -12 -16 -12 -30 0 -54 -13 -102 -26 -102 -11 0 -14 -27 -14 -130 0 -108
2 -130 15 -130 9 0 17 -14 21 -39 4 -22 13 -42 20 -45 8 -3 14 -12 14 -21 0
-8 6 -15 14 -15 7 0 16 -8 19 -19 3 -14 16 -20 46 -23 37 -3 41 -1 41 18 0 13
-8 24 -20 27 -11 3 -20 12 -20 20 0 8 -9 17 -20 20 -11 3 -20 12 -20 21 0 9
-7 16 -15 16 -13 0 -15 28 -15 190 0 162 2 190 15 190 10 0 15 11 16 38 1 38
16 107 18 85 3 -31 20 -9 27 32 4 28 11 45 20 45 9 0 14 12 14 35 0 24 5 35
15 35 8 0 15 7 15 16 0 9 9 18 20 21 13 3 22 17 26 39 4 20 12 34 20 34 8 0
19 11 24 25 5 14 16 25 25 25 8 0 15 9 15 20 0 13 7 20 20 20 11 0 20 7 20 15
0 10 11 15 35 15 19 0 35 -4 35 -10 0 -15 27 -12 44 5 16 17 56 20 56 5 0 -5
5 -10 10 -10 18 0 11 50 -7 57 -10 4 -22 12 -26 20 -9 15 -107 18 -107 3 0 -5
-9 -10 -20 -10 -11 0 -20 5 -20 10 0 6 -27 10 -60 10 -47 0 -60 -3 -60 -15z"/>
</g>
</svg>
