<?xml version="1.0" standalone="no"?>
<!DOCTYPE svg PUBLIC "-//W3C//DTD SVG 20010904//EN"
 "http://www.w3.org/TR/2001/REC-SVG-20010904/DTD/svg10.dtd">
<svg version="1.0" xmlns="http://www.w3.org/2000/svg"
 width="775.000000pt" height="1125.000000pt" viewBox="0 0 775.000000 1125.000000"
 preserveAspectRatio="xMidYMid meet">
<metadata>
Created by potrace 1.16, written by Peter Selinger 2001-2019
</metadata>
<g transform="translate(0.000000,1125.000000) scale(0.100000,-0.100000)"
fill="#000000" stroke="none">
<path d="M3040 10570 c0 -20 -6 -20 -325 -20 -282 0 -325 -2 -325 -15 0 -8 -7
-15 -15 -15 -8 0 -15 -7 -15 -15 0 -8 -7 -15 -15 -15 -8 0 -15 -9 -15 -20 0
-13 -7 -20 -20 -20 -11 0 -20 -7 -20 -15 0 -8 -7 -15 -15 -15 -10 0 -15 -10
-15 -30 0 -18 -6 -33 -15 -36 -8 -4 -15 -18 -15 -34 0 -19 -6 -29 -20 -33 -15
-4 -20 -14 -20 -36 0 -19 -6 -34 -15 -37 -8 -4 -15 -17 -15 -31 0 -16 -7 -27
-20 -30 -14 -4 -20 -14 -20 -33 0 -16 -7 -30 -15 -34 -9 -3 -15 -18 -15 -36 0
-18 -6 -33 -15 -36 -8 -4 -15 -17 -15 -30 0 -13 -9 -28 -20 -34 -13 -7 -20
-21 -20 -39 0 -16 -7 -31 -15 -35 -8 -3 -15 -16 -15 -30 0 -13 -7 -26 -15 -30
-9 -3 -15 -18 -15 -37 0 -22 -5 -32 -20 -36 -17 -4 -20 -14 -20 -54 0 -37 -4
-49 -15 -49 -10 0 -15 -10 -15 -30 0 -20 -5 -30 -15 -30 -10 0 -15 -10 -15
-29 0 -20 -6 -30 -20 -34 -15 -4 -20 -14 -20 -37 0 -23 -5 -33 -20 -37 -14 -4
-20 -14 -20 -34 0 -16 -4 -29 -10 -29 -5 0 -10 -16 -10 -35 0 -28 -4 -35 -20
-35 -16 0 -20 -7 -20 -30 0 -19 -7 -33 -20 -40 -13 -7 -20 -21 -20 -40 0 -17
-4 -30 -10 -30 -5 0 -10 -13 -10 -30 0 -23 -4 -30 -20 -30 -16 0 -20 -7 -20
-30 0 -19 -7 -33 -20 -40 -13 -7 -20 -21 -20 -40 0 -20 -5 -30 -15 -30 -10 0
-15 -10 -15 -30 0 -20 -5 -30 -15 -30 -10 0 -15 -10 -15 -34 0 -25 -5 -35 -20
-39 -15 -4 -20 -14 -20 -36 0 -21 -5 -31 -15 -31 -10 0 -15 -10 -15 -30 0 -20
-5 -30 -15 -30 -11 0 -15 -13 -15 -54 0 -45 -3 -54 -20 -59 -14 -3 -20 -14
-20 -31 0 -16 -6 -26 -15 -26 -10 0 -15 -10 -15 -30 0 -19 -7 -33 -20 -40 -13
-7 -20 -21 -20 -39 0 -16 -7 -31 -15 -35 -8 -3 -15 -16 -15 -30 0 -13 -7 -26
-15 -30 -9 -3 -15 -18 -15 -35 0 -20 -6 -30 -20 -34 -14 -4 -20 -14 -20 -35 0
-17 -6 -32 -15 -36 -8 -3 -15 -17 -15 -31 0 -16 -6 -25 -15 -25 -10 0 -15 -10
-15 -34 0 -25 -5 -35 -20 -39 -14 -4 -20 -14 -20 -35 0 -17 -6 -32 -15 -36 -9
-3 -15 -18 -15 -36 0 -20 -5 -30 -15 -30 -10 0 -15 -10 -15 -29 0 -20 -6 -30
-20 -34 -15 -4 -20 -14 -20 -41 0 -25 -4 -36 -15 -36 -9 0 -15 -9 -15 -25 0
-14 -7 -28 -15 -31 -8 -4 -15 -18 -15 -34 0 -19 -6 -29 -20 -33 -16 -4 -20
-14 -20 -50 0 -31 -5 -47 -15 -51 -9 -3 -15 -18 -15 -35 0 -16 -6 -31 -15 -35
-9 -3 -15 -18 -15 -36 0 -23 -4 -30 -20 -30 -11 0 -20 -6 -20 -14 0 -8 -7 -16
-15 -20 -8 -3 -15 -17 -15 -30 0 -15 -8 -30 -20 -36 -13 -7 -20 -21 -20 -41 0
-22 5 -32 20 -36 11 -3 20 -12 20 -19 0 -12 56 -14 334 -14 325 0 334 -1 339
-20 5 -20 14 -20 1081 -20 l1076 0 0 -30 c0 -23 -4 -30 -20 -30 -18 0 -20 -7
-20 -66 0 -57 3 -67 20 -71 18 -5 20 -14 20 -99 0 -52 -1 -94 -2 -94 -2 0
-106 -5 -231 -10 -232 -10 -261 -16 -309 -57 -20 -18 -33 -91 -24 -128 4 -14
18 -35 31 -47 14 -12 25 -30 25 -41 0 -10 9 -21 20 -24 11 -3 20 -12 20 -19 0
-8 5 -14 10 -14 6 0 10 -12 10 -26 0 -26 32 -65 64 -77 10 -4 16 -18 16 -36 0
-16 6 -31 15 -35 8 -3 15 -15 15 -26 0 -11 6 -31 14 -43 19 -28 46 -197 46
-281 0 -63 0 -64 -47 -106 -27 -23 -79 -72 -118 -109 -38 -37 -95 -88 -125
-113 -61 -51 -205 -191 -261 -253 -20 -22 -64 -66 -98 -98 -68 -64 -98 -115
-112 -191 -17 -87 -25 -284 -18 -431 7 -135 9 -146 67 -320 84 -253 166 -406
385 -717 19 -27 58 -72 88 -101 53 -52 54 -54 51 -104 -5 -62 24 -103 70 -103
24 0 28 -4 28 -30 0 -20 5 -30 15 -30 8 0 15 -6 15 -13 0 -14 27 -40 53 -50 9
-3 17 -13 17 -21 0 -8 4 -16 10 -18 17 -6 24 -183 9 -220 -43 -105 -153 -202
-328 -291 -64 -32 -125 -67 -137 -78 -11 -10 -25 -19 -31 -19 -15 0 -106 -93
-123 -126 -8 -16 -21 -40 -30 -53 -8 -14 -13 -35 -12 -48 2 -14 -3 -25 -12
-29 -17 -7 -22 -30 -7 -36 6 -2 4 -28 -5 -63 -20 -88 -18 -119 12 -155 26 -31
41 -40 145 -92 74 -36 240 -67 449 -83 423 -34 507 -37 705 -31 275 8 401 21
467 46 29 12 113 36 187 55 73 19 145 41 160 48 72 38 85 48 102 74 10 15 19
38 19 51 0 12 4 22 9 22 19 0 21 39 6 111 -32 157 -81 229 -235 355 -74 60
-72 59 -100 62 -14 2 -50 21 -81 42 -30 21 -79 48 -108 59 -55 21 -172 110
-222 170 -29 34 -30 40 -25 100 3 35 13 75 21 88 11 16 14 34 10 54 -4 18 -3
29 4 29 15 0 51 32 51 46 0 6 9 14 20 17 11 3 20 12 20 21 0 9 7 16 15 16 10
0 15 10 15 30 0 20 5 30 15 30 11 0 15 12 15 49 0 47 -2 50 -27 53 -43 5 -41
38 3 84 86 91 296 360 349 448 44 71 47 76 87 138 88 136 145 294 159 438 25
268 23 343 -12 485 -14 56 -43 125 -51 125 -5 0 -8 7 -8 15 0 9 -9 25 -20 37
-11 12 -20 28 -20 35 0 7 -4 13 -10 13 -5 0 -23 24 -40 53 -16 28 -41 65 -55
81 -14 16 -25 33 -25 37 0 5 -28 38 -62 74 -75 80 -230 188 -386 270 -37 19
-87 50 -111 68 -42 31 -43 35 -48 92 -2 34 1 107 6 164 9 95 13 109 45 155 19
28 56 71 81 96 38 38 45 50 45 84 0 24 7 48 18 60 41 47 78 252 49 273 -6 5
-55 20 -108 32 -81 19 -117 23 -228 20 l-131 -4 0 148 c0 142 -1 149 -21 154
-16 5 -19 12 -17 42 l3 36 487 3 c476 2 487 3 493 22 6 20 16 20 571 20 493 0
565 2 570 15 5 13 35 15 181 15 166 0 175 1 180 20 5 18 14 20 89 20 62 0 85
4 91 14 5 8 27 16 53 18 43 3 45 5 48 36 2 20 9 32 18 32 9 0 14 11 14 35 0
24 -5 35 -15 35 -10 0 -15 10 -15 31 0 22 -5 32 -20 36 -11 3 -20 14 -20 24 0
11 -7 19 -15 19 -9 0 -15 9 -15 25 0 14 -7 28 -15 31 -8 4 -15 18 -15 34 0 19
-6 29 -20 33 -15 4 -20 14 -20 36 0 19 -6 34 -15 37 -9 4 -15 19 -15 35 0 19
-5 29 -15 29 -10 0 -15 10 -15 31 0 22 -5 32 -20 36 -14 4 -20 14 -20 35 0 21
-6 31 -20 35 -14 4 -20 14 -20 34 0 16 -4 29 -10 29 -5 0 -10 14 -10 31 0 22
-5 32 -20 36 -14 4 -20 14 -20 35 0 21 -6 31 -20 35 -15 4 -20 14 -20 39 0 19
-4 34 -10 34 -5 0 -10 12 -10 26 0 17 -6 28 -20 31 -11 3 -20 12 -20 20 0 8
-9 17 -20 20 -14 4 -20 14 -20 34 0 19 -5 29 -15 29 -10 0 -15 10 -15 34 0 21
-6 36 -15 40 -9 3 -15 18 -15 36 0 23 -4 30 -20 30 -16 0 -20 7 -20 30 0 20
-5 30 -15 30 -10 0 -15 11 -15 35 0 24 -5 35 -15 35 -10 0 -15 10 -15 31 0 22
-5 32 -20 36 -14 4 -20 14 -20 34 0 17 -6 32 -15 35 -9 4 -15 19 -15 35 0 19
-5 29 -15 29 -10 0 -15 10 -15 34 0 26 -5 36 -20 41 -13 4 -20 15 -20 31 0 14
-7 27 -15 30 -9 4 -15 19 -15 35 0 22 -5 29 -20 29 -13 0 -20 7 -20 20 0 11
-7 20 -15 20 -10 0 -15 10 -15 30 0 20 -5 30 -15 30 -10 0 -15 10 -15 34 0 25
-5 35 -20 39 -15 4 -20 14 -20 36 0 21 -5 31 -15 31 -10 0 -15 11 -15 35 0 24
-5 35 -15 35 -10 0 -15 10 -15 29 0 20 -6 30 -20 34 -15 4 -20 14 -20 40 0 26
-5 36 -20 40 -14 3 -20 14 -20 31 0 14 -4 26 -10 26 -5 0 -10 13 -10 29 0 20
-6 30 -20 34 -15 4 -20 14 -20 36 0 20 -7 34 -20 41 -12 6 -20 21 -20 35 0 14
-4 25 -10 25 -5 0 -10 14 -10 31 0 22 -5 32 -20 36 -11 3 -20 11 -20 18 0 7
-9 15 -20 18 -15 4 -20 14 -20 36 0 21 -5 31 -15 31 -10 0 -15 10 -15 30 0 18
-6 33 -15 36 -8 4 -15 19 -15 35 0 18 -7 32 -20 39 -12 6 -20 21 -20 35 0 16
-6 25 -15 25 -10 0 -15 10 -15 29 0 16 -6 31 -15 35 -9 3 -15 18 -15 35 0 21
-7 34 -21 42 -14 7 -19 17 -16 31 4 14 0 22 -14 25 -14 4 -19 14 -19 38 0 20
-6 35 -15 39 -9 3 -15 18 -15 36 0 20 -5 30 -15 30 -9 0 -18 7 -21 15 -4 8
-12 15 -19 15 -8 0 -15 14 -17 33 l-3 32 -957 3 c-953 2 -958 2 -958 -18z
m1857 -72 c11 -13 23 -31 26 -40 4 -10 11 -18 17 -18 5 0 10 -9 10 -20 0 -11
9 -25 20 -32 12 -8 20 -24 20 -39 0 -15 7 -29 15 -33 8 -3 15 -16 15 -29 0
-14 7 -30 15 -37 8 -7 15 -19 15 -26 0 -8 9 -22 20 -31 11 -10 20 -24 20 -33
0 -8 7 -24 15 -34 8 -11 15 -26 15 -33 0 -8 9 -23 20 -35 11 -12 20 -28 20
-35 0 -7 4 -13 9 -13 5 0 13 -15 16 -32 4 -18 13 -36 19 -40 11 -7 12 -12 15
-48 0 -11 7 -20 15 -20 8 0 17 -13 21 -29 3 -16 13 -32 21 -35 8 -3 14 -16 14
-30 0 -13 7 -26 15 -30 8 -3 15 -18 15 -33 0 -16 9 -36 20 -46 11 -9 20 -26
20 -37 0 -11 7 -20 15 -20 9 0 15 -9 15 -24 0 -13 6 -29 14 -35 8 -7 17 -27
20 -46 4 -19 11 -35 16 -35 5 0 12 -9 15 -20 3 -11 12 -26 18 -32 16 -17 47
-85 47 -103 0 -8 5 -15 11 -15 5 0 17 -15 25 -32 8 -18 26 -53 39 -77 14 -24
25 -51 25 -60 0 -9 9 -24 20 -34 11 -9 20 -25 20 -36 0 -10 6 -21 14 -24 8 -3
17 -19 21 -36 4 -17 11 -31 15 -31 5 0 12 -15 16 -34 3 -19 12 -37 20 -40 8
-3 14 -14 14 -25 0 -11 9 -25 20 -31 11 -6 20 -21 20 -35 0 -13 4 -26 9 -30 5
-3 12 -19 16 -36 4 -17 13 -33 20 -36 8 -2 17 -17 20 -33 3 -16 13 -31 21 -34
8 -3 14 -12 14 -20 0 -19 31 -87 48 -104 6 -7 12 -17 12 -21 0 -4 9 -18 20
-31 11 -13 20 -34 20 -47 0 -12 4 -23 9 -23 5 0 12 -14 16 -31 4 -17 13 -33
21 -36 8 -3 14 -11 14 -18 0 -7 9 -24 20 -38 11 -14 20 -34 20 -45 0 -11 7
-22 15 -26 8 -3 15 -16 15 -30 0 -14 5 -28 10 -31 6 -4 17 -22 25 -41 8 -19
19 -34 24 -34 6 0 11 -11 11 -24 0 -13 7 -29 15 -36 8 -7 15 -18 15 -26 0 -14
46 -105 58 -114 4 -3 15 -23 26 -45 10 -22 22 -47 27 -55 5 -8 15 -26 21 -40
7 -14 15 -27 19 -30 10 -8 49 -101 49 -117 0 -7 6 -16 14 -19 8 -3 19 -19 25
-35 5 -16 14 -29 19 -29 6 0 12 -20 14 -45 2 -30 -1 -45 -9 -45 -7 0 -16 -8
-21 -17 -7 -12 -31 -18 -98 -23 -49 -4 -102 -13 -119 -20 -19 -7 -113 -13
-265 -16 -129 -3 -242 -8 -250 -11 -8 -3 -271 -12 -585 -19 -313 -7 -622 -18
-685 -23 -155 -13 -2333 -12 -2525 1 -82 5 -360 13 -617 16 -256 4 -469 9
-472 12 -7 8 5 50 14 50 5 0 11 14 15 31 4 17 13 33 20 35 7 3 16 20 19 39 4
18 13 36 21 39 9 3 15 18 15 36 0 16 4 30 9 30 5 0 12 14 16 30 4 17 13 30 21
30 9 0 14 11 14 30 0 19 7 33 20 40 13 7 20 21 20 40 0 17 5 30 10 30 6 0 10
9 10 20 0 10 9 27 19 37 11 10 23 31 27 48 4 16 13 36 21 43 7 7 13 22 13 33
0 11 7 27 15 35 8 9 15 24 15 35 0 10 7 19 15 19 8 0 15 7 15 17 0 9 16 50 36
92 20 42 48 100 62 129 13 29 29 55 33 58 5 3 9 16 9 30 0 14 7 27 15 30 8 4
15 17 15 29 0 13 7 30 15 39 8 8 15 22 15 30 0 9 8 24 18 34 9 9 18 29 20 42
2 14 10 30 18 36 8 6 14 24 14 39 0 18 6 28 20 32 13 3 20 14 20 29 0 13 6 27
13 31 6 4 12 14 13 21 1 6 2 21 3 32 0 11 8 20 16 20 10 0 15 10 15 34 0 26 5
36 20 41 13 4 20 15 20 31 0 14 6 27 13 29 6 3 13 17 14 32 0 15 8 32 16 38 9
6 19 23 22 38 4 15 11 27 16 27 4 0 11 16 15 35 3 19 12 39 20 46 8 6 14 22
14 35 0 12 4 25 9 29 15 9 61 96 61 115 0 10 7 23 15 30 8 7 15 20 16 29 0 9
13 39 30 66 16 28 33 61 39 75 5 14 15 33 20 42 6 10 10 27 10 37 0 11 5 23
11 27 6 3 17 22 25 40 8 19 19 34 24 34 6 0 10 8 10 18 0 10 7 27 15 38 8 10
15 29 15 41 0 12 9 27 20 33 13 7 20 21 20 41 0 17 6 32 14 35 8 3 18 19 21
35 4 16 11 29 16 29 5 0 9 14 9 30 0 20 5 30 15 30 8 0 17 14 21 36 4 19 13
38 20 41 8 3 14 12 14 20 0 8 9 34 21 57 43 84 49 98 49 111 0 7 7 18 15 25 9
7 23 28 32 47 9 19 23 37 31 40 8 4 28 19 44 35 l29 28 302 1 c166 1 370 6
452 11 144 9 770 21 1381 26 290 2 291 2 311 -20z"/>
</g>
</svg>
