<?xml version="1.0" standalone="no"?>
<!DOCTYPE svg PUBLIC "-//W3C//DTD SVG 20010904//EN"
 "http://www.w3.org/TR/2001/REC-SVG-20010904/DTD/svg10.dtd">
<svg version="1.0" xmlns="http://www.w3.org/2000/svg"
 width="968.000000pt" height="1012.000000pt" viewBox="0 0 968.000000 1012.000000"
 preserveAspectRatio="xMidYMid meet">
<metadata>
Created by potrace 1.16, written by Peter Selinger 2001-2019
</metadata>
<g transform="translate(0.000000,1012.000000) scale(0.100000,-0.100000)"
fill="#000000" stroke="none">
<path d="M8140 9057 c-36 -13 -183 -126 -197 -152 -8 -13 -148 -165 -250 -270
-28 -29 -53 -61 -55 -71 -2 -10 -13 -21 -25 -24 -26 -6 -93 -64 -93 -79 0 -6
-7 -11 -15 -11 -9 0 -15 -9 -15 -21 0 -12 -8 -27 -17 -34 -12 -9 -16 -26 -14
-67 1 -38 -3 -60 -12 -69 -118 -112 -297 -293 -297 -299 0 -12 -28 -20 -45
-14 -10 4 -15 0 -15 -15 0 -15 -6 -21 -21 -21 -16 0 -19 -4 -14 -20 5 -15 3
-18 -9 -14 -10 4 -63 -42 -166 -145 -82 -83 -158 -151 -168 -151 -22 0 -122
-100 -122 -122 0 -9 -8 -15 -17 -14 -12 1 -17 -5 -15 -17 2 -13 -2 -17 -15
-15 -12 2 -19 -4 -21 -20 -2 -14 -109 -128 -285 -303 -161 -160 -281 -287
-279 -295 2 -10 -3 -14 -15 -12 -12 2 -18 -3 -17 -14 2 -16 -8 -18 -82 -18
-66 0 -86 -3 -90 -15 -4 -9 -19 -15 -36 -15 -26 0 -30 -3 -25 -21 4 -16 2 -19
-10 -15 -19 8 -68 -38 -58 -54 4 -6 4 -52 0 -103 -6 -82 -10 -94 -32 -111 -19
-14 -30 -16 -47 -8 -15 6 -28 7 -40 0 -14 -8 -24 -3 -50 26 -29 33 -36 36 -88
36 -40 0 -57 -4 -62 -15 -3 -9 -19 -15 -41 -15 -24 0 -48 -10 -81 -35 -25 -19
-57 -35 -71 -35 -16 0 -39 -14 -63 -37 -49 -50 -61 -74 -49 -96 6 -10 9 -34 7
-55 -2 -31 -7 -38 -28 -40 -14 -2 -32 -12 -42 -22 -13 -13 -27 -16 -66 -12
-43 4 -52 2 -61 -17 -9 -17 -21 -21 -56 -21 -25 0 -45 -4 -45 -9 0 -19 -75
-54 -113 -52 -34 1 -44 -5 -87 -49 -27 -28 -57 -50 -67 -50 -24 0 -203 -182
-203 -206 0 -11 -22 -39 -50 -64 -32 -29 -50 -53 -50 -68 0 -12 -7 -25 -15
-28 -8 -4 -15 -16 -15 -29 0 -12 -9 -30 -20 -40 -13 -12 -20 -31 -20 -57 0
-25 -5 -41 -15 -44 -12 -5 -15 -25 -15 -95 0 -79 -2 -91 -24 -114 -20 -21 -28
-24 -43 -16 -12 6 -25 6 -34 0 -7 -5 -23 -9 -34 -9 -26 0 -65 -42 -65 -68 0
-12 -6 -25 -13 -29 -14 -8 -40 -50 -57 -93 -5 -14 -14 -33 -20 -42 -5 -10 -15
-26 -20 -35 -6 -10 -14 -28 -19 -39 -5 -12 -17 -24 -25 -27 -25 -10 -20 -72
10 -123 14 -24 30 -44 35 -44 5 0 9 -31 9 -69 l0 -68 -316 -314 c-173 -173
-835 -831 -1469 -1464 -635 -632 -1224 -1220 -1310 -1305 -85 -85 -153 -160
-151 -167 3 -7 -11 -28 -30 -47 -31 -31 -34 -39 -34 -95 0 -56 3 -63 35 -96
20 -19 33 -40 29 -46 -3 -6 26 -42 65 -79 43 -42 71 -77 71 -90 0 -14 5 -20
18 -18 11 2 16 -3 15 -12 -4 -20 69 -92 88 -88 9 2 13 -4 11 -15 -2 -12 4 -17
18 -17 13 0 48 -26 88 -68 63 -64 69 -67 111 -66 29 1 47 7 53 18 5 9 20 16
33 16 18 0 25 6 25 19 0 12 7 18 18 17 11 -1 16 5 14 17 -3 15 1 17 19 12 19
-6 21 -4 16 14 -4 16 -1 21 14 21 12 0 19 7 19 19 0 15 5 18 21 14 18 -5 20
-3 14 17 -6 19 -4 21 15 15 20 -6 22 -4 17 14 -4 16 -1 21 13 21 11 0 389 370
949 927 511 511 986 984 1055 1052 69 69 126 128 126 133 0 4 14 8 31 8 26 0
29 3 24 21 -6 18 -4 20 15 14 20 -6 22 -4 17 14 -4 16 -1 21 14 21 11 0 163
144 390 370 321 320 375 370 401 370 22 0 41 12 78 50 43 44 54 50 90 50 27 0
43 -5 46 -15 4 -8 17 -15 30 -15 16 0 36 -13 55 -35 25 -28 38 -35 68 -35 25
0 40 6 49 20 9 14 23 20 50 20 34 0 46 9 131 94 82 82 94 99 94 128 -1 46 -13
90 -30 110 -9 9 -13 31 -11 55 l3 38 92 3 c65 2 95 7 103 17 9 11 34 15 87 15
54 0 75 4 79 14 3 8 57 40 119 71 62 31 116 63 119 71 7 17 93 19 130 3 13 -6
35 -9 48 -6 28 7 82 55 91 80 8 20 -8 57 -29 70 -23 13 -18 84 6 97 12 6 20
21 20 36 0 13 7 27 15 30 8 4 15 11 15 18 0 43 112 146 159 146 37 0 71 40 71
82 0 23 7 42 21 54 17 16 20 27 16 67 -3 40 -1 51 14 60 11 7 19 23 19 39 0
16 4 28 9 28 13 0 63 89 56 100 -3 5 19 35 49 66 59 59 56 51 59 171 1 37 -4
47 -36 76 -35 31 -37 35 -37 96 0 55 3 67 26 87 19 18 36 24 73 24 34 0 51 5
55 15 3 8 17 15 31 15 18 0 41 17 80 57 30 32 55 61 55 65 0 4 -9 12 -20 18
-15 8 -20 21 -20 55 0 44 2 47 130 175 79 79 138 130 150 130 13 0 20 7 20 20
0 12 5 17 13 14 8 -3 74 56 164 146 103 103 157 150 172 150 18 0 21 4 16 22
-6 17 -4 20 9 15 13 -5 90 66 307 282 175 176 298 291 312 293 14 2 23 11 25
25 4 29 200 226 227 227 14 1 19 7 17 20 -3 13 1 17 12 13 15 -6 96 64 96 83
0 6 6 10 13 10 18 0 47 32 47 52 0 8 9 23 20 33 11 10 20 26 20 37 0 13 7 18
30 18 30 0 78 41 140 119 17 21 33 31 53 31 36 0 78 22 121 63 158 151 266
261 266 272 0 8 9 19 20 25 24 13 26 52 5 70 -8 7 -15 19 -15 27 0 8 -114 128
-252 268 -253 253 -325 329 -373 395 -36 49 -80 60 -145 37z m147 -184 c43
-47 88 -97 101 -111 12 -14 41 -48 64 -76 51 -60 91 -101 221 -219 86 -78 97
-93 97 -122 0 -25 7 -38 27 -53 l28 -20 -108 -104 c-59 -56 -126 -118 -149
-136 -37 -30 -42 -31 -58 -17 -9 8 -23 15 -31 15 -24 0 -231 216 -227 237 2
10 18 22 40 28 20 5 56 27 80 48 23 22 53 43 64 49 62 29 56 142 -7 169 -55
22 -121 -9 -176 -83 -46 -63 -104 -117 -118 -112 -8 4 -71 62 -140 131 -117
117 -125 128 -125 163 0 34 6 44 50 82 27 24 50 48 50 53 0 6 22 30 48 55 152
143 160 143 269 23z m-3147 -3048 c0 -33 5 -47 16 -52 24 -9 49 10 52 41 3 21
8 26 32 26 15 0 30 -7 34 -15 3 -8 17 -15 30 -15 15 0 30 -8 36 -20 6 -12 21
-20 36 -20 13 0 27 -7 30 -15 4 -9 19 -15 35 -15 26 0 29 -4 29 -30 0 -18 -6
-33 -15 -36 -9 -4 -15 -19 -15 -35 0 -26 4 -29 30 -29 18 0 33 6 36 15 4 9 19
15 35 15 24 0 29 -4 29 -23 0 -14 19 -41 50 -72 31 -30 50 -58 50 -72 0 -12 9
-27 20 -33 11 -6 20 -19 20 -29 0 -22 -25 -45 -39 -37 -5 4 -19 -3 -30 -15
l-20 -21 -31 36 c-36 41 -59 45 -85 16 -14 -16 -26 -19 -51 -14 -26 5 -35 2
-46 -15 -10 -16 -23 -21 -54 -21 -28 0 -44 -5 -48 -15 -4 -10 -20 -15 -50 -15
-30 0 -46 -5 -50 -15 -3 -8 -17 -15 -30 -15 -15 0 -30 -8 -36 -20 -8 -15 -21
-20 -54 -20 -30 0 -46 -5 -50 -15 -3 -8 -16 -15 -28 -15 -47 -1 -91 -82 -53
-96 11 -5 15 -22 15 -65 0 -48 4 -61 20 -71 15 -10 20 -24 20 -54 0 -28 5 -44
15 -48 10 -4 15 -20 15 -51 0 -46 0 -46 33 -43 l32 3 3 158 c2 141 5 160 22
177 11 11 30 20 43 20 12 0 28 9 35 20 7 11 23 20 36 20 13 0 26 7 30 15 3 8
17 15 31 15 14 0 28 7 31 15 4 8 18 15 33 15 15 0 31 8 39 20 7 11 23 20 36
20 13 0 26 7 30 15 4 10 20 15 50 15 30 0 46 5 50 15 3 8 12 15 21 15 8 0 15
-7 15 -15 0 -11 12 -15 44 -15 30 0 46 5 50 15 3 8 12 15 21 15 22 0 23 -388
0 -396 -10 -4 -15 -20 -15 -44 0 -24 -7 -43 -20 -55 -11 -10 -20 -28 -20 -39
-1 -12 -14 -32 -30 -46 -17 -13 -30 -33 -30 -43 0 -21 -38 -67 -57 -67 -6 0
-13 12 -15 28 -3 25 -7 27 -50 30 -46 3 -48 2 -48 -23 0 -18 12 -37 35 -57 37
-33 37 -48 2 -48 -12 0 -36 -15 -54 -35 -20 -22 -42 -35 -57 -35 -13 0 -26 -7
-30 -15 -3 -8 -16 -15 -28 -15 -13 0 -31 -9 -41 -20 -30 -35 -54 -21 -59 34
-3 42 -25 63 -52 53 -22 -9 -23 -92 -1 -101 8 -3 15 -12 15 -21 0 -13 -23 -15
-159 -15 -161 0 -195 8 -158 35 10 7 17 24 17 39 0 26 -2 27 -47 24 -43 -3
-48 -6 -52 -28 -5 -42 -32 -51 -58 -20 -10 11 -27 20 -38 20 -12 0 -36 16 -55
35 -19 19 -42 35 -52 35 -18 0 -58 33 -58 48 1 4 14 18 30 32 35 29 36 34 10
60 -26 26 -30 25 -60 -10 -13 -17 -27 -30 -31 -30 -17 0 -89 80 -89 98 0 11
-7 25 -15 32 -8 7 -15 23 -15 35 0 13 -7 25 -15 29 -26 10 -17 53 19 90 25 24
33 40 29 55 -7 26 -50 29 -68 4 -26 -36 -35 -3 -35 131 0 146 6 163 56 153 14
-2 31 1 39 9 20 21 7 52 -24 56 -23 3 -26 8 -29 47 -2 32 1 47 12 53 9 5 16
19 16 31 0 12 15 35 34 52 19 16 36 41 37 55 5 33 35 37 64 10 13 -12 31 -20
42 -18 24 4 31 56 9 64 -40 15 4 104 51 104 11 0 33 16 49 35 17 21 38 35 52
35 12 0 25 7 28 15 4 8 19 15 35 15 26 0 28 -3 31 -47 3 -46 4 -48 33 -48 28
0 30 3 33 43 2 31 -1 44 -12 48 -9 3 -16 12 -16 20 0 11 31 14 165 14 l165 0
0 -45z"/>
</g>
</svg>
