<?xml version="1.0" standalone="no"?>
<!DOCTYPE svg PUBLIC "-//W3C//DTD SVG 20010904//EN"
 "http://www.w3.org/TR/2001/REC-SVG-20010904/DTD/svg10.dtd">
<svg version="1.0" xmlns="http://www.w3.org/2000/svg"
 width="1277.000000pt" height="708.000000pt" viewBox="0 0 1277.000000 708.000000"
 preserveAspectRatio="xMidYMid meet">
<metadata>
Created by potrace 1.16, written by Peter Selinger 2001-2019
</metadata>
<g transform="translate(0.000000,708.000000) scale(0.100000,-0.100000)"
fill="#000000" stroke="none">
<path d="M4890 6010 c-8 -5 -26 -10 -40 -10 -15 0 -30 -4 -35 -8 -21 -19 -152
-31 -377 -37 -175 -5 -262 -11 -330 -26 -51 -10 -108 -19 -126 -19 -18 0 -74
-11 -125 -24 -151 -39 -227 -57 -317 -76 -47 -10 -114 -27 -150 -39 -36 -12
-83 -24 -105 -27 -22 -3 -65 -15 -95 -26 -30 -10 -88 -26 -130 -35 -41 -8
-122 -30 -180 -49 -138 -46 -147 -49 -273 -79 -59 -14 -124 -33 -145 -42 -20
-9 -62 -22 -92 -28 -30 -7 -100 -26 -155 -43 -179 -53 -253 -72 -279 -72 -15
0 -53 -11 -85 -25 -32 -13 -85 -28 -117 -34 -33 -5 -84 -19 -114 -31 -66 -27
-106 -39 -140 -45 -14 -2 -52 -14 -85 -26 -33 -12 -76 -25 -97 -29 -32 -6 -37
-4 -47 17 -16 36 -66 32 -90 -8 -10 -17 -29 -37 -41 -46 -17 -12 -20 -21 -14
-42 15 -57 30 -207 23 -231 -4 -14 -12 -95 -17 -180 -6 -85 -12 -161 -13 -169
-3 -8 7 -14 24 -16 45 -6 70 -28 105 -94 27 -52 32 -73 36 -155 4 -71 10 -102
26 -128 19 -31 20 -47 19 -303 -1 -163 -5 -275 -11 -282 -12 -16 7 -43 29 -43
11 0 14 -7 11 -25 -3 -14 1 -30 8 -36 7 -6 18 -36 25 -67 22 -108 40 -159 70
-207 33 -51 62 -119 86 -200 8 -27 30 -80 49 -117 19 -37 34 -80 34 -96 0 -37
27 -109 78 -209 23 -46 42 -87 42 -93 0 -11 49 -95 91 -156 16 -23 25 -44 22
-48 -3 -3 1 -6 10 -6 16 0 22 -12 17 -35 -1 -5 2 -7 6 -3 10 11 35 -12 27 -25
-3 -5 -2 -7 4 -4 6 4 25 -7 44 -24 19 -17 46 -36 61 -41 16 -6 25 -14 22 -19
-3 -5 -2 -8 3 -7 15 5 123 -74 116 -85 -3 -6 -1 -7 5 -3 7 4 12 2 12 -4 0 -6
4 -9 8 -6 5 3 19 -4 30 -15 12 -11 22 -16 22 -12 0 4 7 -1 16 -12 8 -11 17
-19 19 -18 7 4 204 -94 200 -99 -5 -5 -5 -5 168 -17 75 -6 147 -16 159 -22 12
-6 94 -15 183 -19 89 -4 168 -10 175 -15 15 -9 240 -13 240 -4 0 4 15 12 33
20 17 7 34 16 37 20 9 12 125 83 132 81 5 -1 7 2 5 6 -1 4 41 52 93 106 52 53
97 102 98 107 2 5 11 9 19 9 9 0 14 3 10 6 -10 10 44 75 56 67 6 -3 7 -1 3 5
-4 6 2 20 14 32 11 11 20 23 19 28 -2 14 34 92 43 92 5 0 7 4 4 9 -3 4 8 46
25 92 16 46 41 116 54 154 77 228 117 339 133 372 86 170 108 233 97 283 -7
32 0 37 92 55 60 11 65 11 97 -12 19 -12 39 -23 44 -23 5 0 21 -15 35 -33 13
-18 40 -41 60 -51 28 -16 36 -27 40 -58 5 -34 23 -65 71 -120 9 -10 22 -15 30
-12 15 6 36 -42 36 -85 0 -35 53 -207 149 -486 11 -33 59 -181 107 -330 89
-275 105 -316 177 -464 22 -46 40 -90 40 -97 0 -8 3 -12 5 -9 7 6 57 -77 54
-88 -1 -5 2 -6 7 -3 4 3 21 -13 37 -37 16 -23 41 -52 57 -65 15 -13 25 -27 22
-32 -3 -4 5 -10 16 -13 12 -3 18 -10 14 -17 -4 -6 -1 -9 7 -8 7 2 12 -3 11 -9
-2 -7 3 -12 10 -10 6 1 11 -4 9 -11 -1 -8 2 -11 8 -7 5 3 10 1 10 -4 0 -6 3
-10 8 -9 12 4 53 -22 48 -31 -3 -4 0 -8 7 -8 17 0 67 -33 67 -45 0 -5 4 -6 10
-3 13 8 149 -57 189 -90 17 -15 31 -32 31 -39 0 -15 54 -68 62 -61 6 7 180
-34 235 -56 12 -4 89 -15 170 -23 81 -9 177 -21 213 -26 95 -16 158 -19 548
-26 l354 -7 101 38 c56 21 111 46 122 55 11 9 36 23 55 30 95 37 227 175 217
227 -3 16 8 63 30 122 19 53 44 125 55 161 11 36 28 81 38 100 17 32 71 207
91 292 5 21 22 64 39 96 16 33 30 64 30 70 0 6 11 46 24 89 12 43 31 104 40
136 9 31 21 57 25 57 4 0 8 6 8 14 0 27 35 126 45 126 5 0 7 4 4 9 -8 12 43
101 60 108 8 3 12 8 10 12 -2 3 7 20 21 36 14 17 22 24 18 16 -6 -9 -4 -12 4
-7 6 4 9 11 6 15 -6 11 21 34 63 55 22 11 35 26 38 46 5 23 17 33 63 53 31 14
90 35 131 47 210 59 257 71 400 104 235 53 271 58 489 58 111 0 209 2 219 5 9
2 26 19 37 36 20 32 221 184 309 234 26 15 70 45 96 65 66 51 177 121 249 157
33 17 97 55 143 85 46 29 157 91 248 137 91 45 182 93 202 106 21 12 54 29 75
37 21 7 69 25 107 40 39 14 71 25 72 23 1 -1 13 -24 27 -52 20 -42 26 -71 31
-175 3 -69 13 -150 22 -180 8 -30 28 -100 43 -155 32 -118 63 -182 94 -195 12
-5 36 -18 52 -29 17 -12 44 -21 61 -21 29 0 64 25 64 47 0 21 37 83 45 76 4
-4 6 -3 2 2 -8 14 28 141 57 200 19 41 21 55 13 89 -5 23 -10 57 -12 76 -4 42
-21 149 -26 170 -2 8 -16 26 -31 39 -23 20 -28 32 -28 71 0 45 -28 99 -44 83
-3 -3 -6 1 -6 9 0 9 -6 21 -14 27 -13 11 -39 97 -39 128 0 7 -3 11 -7 10 -3
-1 -20 10 -37 24 -20 17 -36 44 -47 81 -12 42 -27 65 -60 96 -25 23 -56 44
-71 48 -63 16 -314 -57 -435 -127 -66 -37 -151 -79 -350 -171 -30 -14 -91 -46
-134 -71 -69 -39 -83 -43 -104 -34 -17 8 -29 8 -43 -1 -10 -7 -28 -12 -39 -12
-10 0 -36 -9 -57 -19 -21 -11 -60 -23 -88 -26 -27 -4 -81 -16 -120 -27 -38
-11 -77 -21 -85 -22 -8 -2 -26 -8 -40 -14 -14 -6 -52 -18 -85 -27 -33 -9 -94
-28 -135 -41 -41 -14 -116 -34 -167 -45 -51 -11 -113 -28 -138 -39 -25 -11
-89 -31 -141 -45 -53 -14 -112 -34 -132 -44 -21 -10 -79 -33 -131 -50 -51 -17
-99 -35 -105 -39 -17 -14 -236 -100 -285 -112 -25 -7 -66 -22 -93 -35 -47 -23
-49 -23 -85 -5 -21 10 -78 32 -128 48 -49 17 -142 54 -205 83 -124 56 -309
131 -430 174 -41 15 -88 33 -105 39 -63 27 -100 41 -110 41 -25 1 -55 17 -49
27 4 7 2 8 -5 4 -6 -4 -35 -1 -64 7 -28 8 -68 18 -87 21 -19 3 -46 9 -60 12
-14 3 -90 14 -170 25 -80 11 -152 21 -160 24 -15 4 -97 15 -300 40 -135 17
-396 19 -559 5 -281 -24 -475 -43 -591 -56 -183 -21 -661 -36 -778 -25 -53 6
-146 15 -207 20 -124 12 -231 42 -290 83 -22 14 -58 31 -80 37 -22 6 -55 21
-74 33 -70 47 -158 99 -220 129 -35 17 -87 48 -115 69 -28 21 -82 50 -121 65
-38 14 -86 35 -105 47 -19 11 -60 34 -90 51 -30 17 -90 52 -132 79 -43 26 -80
48 -84 48 -3 0 -49 21 -102 46 -53 26 -112 52 -132 59 -19 7 -53 24 -74 39
-21 14 -43 26 -48 26 -4 0 -25 11 -46 24 -20 14 -62 34 -94 46 -31 11 -61 27
-68 35 -12 15 4 21 115 45 28 6 63 21 78 33 58 48 181 132 189 129 4 -1 8 5 8
13 0 8 5 15 10 15 6 0 27 26 47 58 20 31 42 62 48 68 21 22 96 55 107 48 6 -4
8 -3 5 3 -8 13 32 29 91 38 23 4 74 22 113 41 39 19 74 32 79 29 4 -3 10 -1
12 5 4 12 93 36 169 46 30 4 83 13 119 21 102 22 232 43 266 43 44 0 194 49
217 71 11 10 41 21 66 25 25 3 64 11 86 16 22 6 91 12 153 13 103 2 114 1 127
-18 8 -11 12 -23 10 -27 -2 -4 15 -13 38 -20 23 -8 53 -21 67 -31 14 -9 35
-20 48 -23 12 -4 20 -11 18 -15 -3 -4 0 -8 7 -8 31 0 116 -69 273 -222 94 -91
204 -197 245 -236 74 -70 201 -210 272 -301 59 -74 143 -160 181 -183 60 -37
120 -22 179 47 18 19 46 51 63 69 38 40 54 97 54 191 0 103 -61 250 -149 359
-27 33 -46 65 -43 69 4 4 2 4 -4 1 -13 -7 -66 37 -56 47 4 4 2 6 -3 4 -15 -5
-86 53 -78 65 3 5 1 7 -4 4 -12 -8 -46 27 -36 36 3 4 -1 7 -10 7 -9 0 -19 5
-23 12 -5 7 -3 8 6 3 9 -5 11 -4 6 4 -4 6 -11 9 -15 6 -5 -2 -22 10 -40 28
-17 17 -60 57 -95 87 -35 30 -65 61 -65 67 -1 7 -5 12 -10 10 -15 -4 -72 44
-65 55 4 6 3 8 -3 5 -11 -7 -56 36 -48 46 3 4 2 5 -1 2 -10 -7 -65 35 -59 46
4 5 1 9 -5 9 -6 0 -8 5 -5 10 4 6 3 9 -2 8 -14 -5 -144 123 -137 134 3 5 2 8
-3 7 -21 -4 -33 2 -33 17 0 8 -4 12 -10 9 -5 -3 -10 1 -10 9 0 9 -3 15 -7 15
-21 -3 -33 2 -27 13 4 6 3 8 -3 5 -5 -3 -25 4 -44 17 -19 13 -44 26 -57 30
-12 4 -19 12 -16 18 4 7 2 8 -4 4 -6 -4 -28 0 -48 9 -41 17 -92 19 -114 5z
m113 -80 c79 -35 198 -132 312 -254 61 -65 144 -148 185 -184 155 -135 483
-448 511 -488 l29 -42 -24 -44 c-27 -49 -65 -150 -97 -256 l-22 -73 -29 28
c-17 15 -72 80 -123 143 -96 119 -205 228 -314 315 -34 28 -106 95 -160 151
-112 116 -176 168 -275 226 -39 23 -91 57 -115 77 -39 32 -50 36 -110 37 -90
3 -325 -14 -386 -28 -27 -6 -62 -19 -77 -29 -14 -11 -31 -19 -37 -19 -6 0 -43
-11 -83 -24 -40 -13 -128 -31 -196 -40 -68 -9 -142 -21 -165 -26 -23 -5 -98
-19 -167 -30 -97 -16 -142 -29 -205 -60 -45 -21 -111 -44 -150 -50 -133 -23
-178 -53 -274 -180 -29 -39 -212 -177 -267 -201 -23 -10 -77 -24 -120 -30 -58
-8 -84 -16 -97 -32 -17 -19 -19 -20 -53 -4 -19 10 -40 17 -46 17 -6 0 -64 23
-129 50 -64 28 -142 57 -173 65 -31 8 -107 36 -169 61 -122 51 -283 94 -447
121 -58 9 -109 20 -113 23 -4 4 18 12 50 19 32 7 99 25 148 41 91 28 198 55
355 90 47 10 141 35 210 55 69 20 166 47 215 60 50 13 109 30 133 39 23 8 70
20 104 26 34 7 80 18 103 25 22 7 99 31 170 53 125 38 173 51 335 93 41 10
102 26 135 35 33 8 105 26 160 38 55 13 129 31 165 40 36 9 110 25 165 37 55
12 118 25 140 30 177 38 286 50 488 54 144 2 235 9 281 19 37 9 85 16 106 16
22 0 45 6 52 15 17 19 17 19 71 -5z m-3563 -834 c36 -8 99 -22 140 -31 116
-26 298 -85 373 -121 37 -18 113 -47 170 -64 56 -18 149 -51 207 -75 58 -24
125 -48 150 -55 25 -7 74 -27 110 -45 190 -97 598 -295 606 -295 5 0 45 -22
89 -49 116 -72 283 -165 335 -188 25 -11 76 -41 113 -66 38 -26 73 -47 79 -47
6 0 41 -20 78 -45 37 -25 72 -45 77 -45 6 0 30 -14 54 -32 23 -17 70 -42 102
-55 32 -13 75 -35 95 -48 71 -46 162 -70 325 -85 60 -5 113 -12 118 -16 6 -3
133 -7 282 -9 268 -2 435 5 592 26 44 5 125 12 180 14 55 2 141 9 190 15 254
30 625 21 890 -21 169 -27 287 -48 305 -55 8 -3 51 -12 95 -20 44 -8 112 -23
150 -34 115 -34 348 -110 380 -125 32 -14 180 -70 360 -137 61 -22 135 -50
165 -61 93 -34 164 -70 178 -88 15 -22 76 -43 107 -37 22 5 23 2 31 -96 4 -56
9 -117 10 -136 3 -56 3 -58 20 -64 38 -14 44 10 43 161 0 140 -1 146 -25 170
-28 28 -31 49 -6 56 9 3 48 17 87 31 83 31 81 31 64 9 -10 -11 -14 -44 -13
-107 1 -156 38 -297 86 -330 18 -13 13 -16 -54 -35 -40 -12 -105 -38 -144 -57
-40 -20 -77 -33 -83 -30 -6 4 -34 0 -61 -9 -69 -23 -133 -101 -223 -275 -41
-79 -58 -127 -147 -420 -18 -58 -41 -125 -53 -150 -18 -40 -51 -165 -77 -287
-5 -23 -22 -73 -38 -110 -16 -38 -37 -100 -46 -138 -62 -256 -122 -359 -231
-396 -22 -7 -53 -24 -68 -36 -16 -13 -36 -23 -46 -23 -9 0 -38 -13 -63 -29
l-46 -29 -368 -7 c-310 -6 -384 -5 -464 8 -52 9 -147 21 -210 27 -63 6 -144
18 -180 26 -169 40 -230 59 -232 73 -4 19 -127 98 -226 147 -239 116 -390 276
-535 567 -66 135 -172 425 -237 652 -5 17 -23 71 -40 120 -79 224 -126 380
-133 441 -3 23 -20 73 -38 110 -28 56 -38 69 -56 68 -20 0 -23 5 -23 34 0 29
-8 42 -41 71 -22 20 -62 57 -89 82 -67 65 -148 103 -203 96 -70 -11 -115 -27
-146 -52 l-29 -25 -7 127 c-8 144 -37 364 -54 406 -6 15 -15 27 -20 27 -20 0
-22 -22 -7 -68 22 -69 46 -294 45 -419 0 -59 2 -120 6 -134 7 -29 -29 -135
-75 -216 -16 -28 -58 -136 -94 -240 -136 -399 -172 -483 -246 -583 -77 -103
-181 -202 -215 -206 -18 -2 -37 -14 -48 -29 -10 -14 -28 -25 -39 -25 -35 0
-83 -29 -103 -63 -25 -44 -34 -48 -78 -41 -23 3 -43 1 -52 -6 -10 -8 -29 -9
-71 -1 -32 6 -87 11 -123 11 -36 0 -109 7 -161 16 -52 8 -151 19 -218 25 -116
8 -129 12 -205 50 -117 58 -191 102 -277 167 -41 31 -95 70 -120 87 -91 62
-211 199 -239 275 -23 59 -63 144 -80 170 -20 29 -42 99 -48 149 -2 18 -14 54
-27 80 -12 25 -40 98 -61 161 -21 63 -52 137 -70 165 -35 54 -50 96 -60 165
-3 24 -15 64 -25 88 -13 28 -20 67 -20 104 0 43 -7 72 -25 108 -24 48 -25 56
-25 245 0 171 -2 202 -19 243 -13 31 -21 78 -23 139 -3 76 -8 98 -26 123 -12
16 -22 36 -22 45 0 9 -12 27 -27 41 -22 21 -27 32 -24 66 4 55 17 88 36 88 8
0 15 7 15 15 0 11 13 15 53 15 28 0 59 4 67 10 9 6 17 5 22 -3 10 -17 48 21
48 49 0 13 5 26 10 29 6 3 10 19 10 34 0 15 5 32 11 38 18 18 4 40 -35 58 -39
19 -66 15 -66 -10 0 -11 -11 -15 -44 -15 -25 0 -56 -4 -69 -9 -23 -9 -26 -7
-32 26 -3 20 -3 69 0 109 l7 74 40 10 c21 6 42 18 45 26 3 8 13 12 22 10 9 -3
45 -12 81 -20z m4657 -284 c30 -87 8 -180 -62 -259 -37 -42 -58 -52 -69 -34
-4 5 10 56 30 113 19 56 45 131 57 165 11 34 23 60 26 58 2 -3 11 -22 18 -43z
m5447 -576 c20 -18 39 -47 42 -65 4 -18 26 -54 50 -80 29 -32 44 -58 44 -75 0
-33 43 -120 76 -153 19 -19 24 -34 24 -72 0 -37 5 -52 24 -70 13 -13 27 -40
31 -64 3 -23 10 -64 15 -92 4 -27 11 -66 15 -86 5 -26 0 -55 -23 -120 -35 -97
-72 -192 -78 -198 -8 -8 -44 32 -44 49 0 9 -5 21 -11 27 -16 16 2 85 46 178
29 61 38 72 55 68 22 -6 29 20 9 33 -6 3 -9 17 -6 30 5 31 -15 59 -36 51 -16
-6 -79 -130 -108 -212 -16 -43 -29 -45 -29 -5 0 16 -9 53 -19 82 -22 61 -30
109 -37 223 -7 107 -16 139 -64 210 -22 33 -40 65 -40 71 0 6 -12 16 -26 23
-23 10 -32 9 -64 -13 -20 -13 -59 -32 -86 -41 -60 -20 -148 -64 -218 -109 -28
-18 -96 -57 -151 -86 -109 -59 -231 -136 -315 -200 -19 -15 -60 -41 -91 -58
-77 -42 -164 -102 -223 -150 -27 -23 -75 -55 -106 -71 -31 -17 -74 -44 -96
-62 -77 -62 -200 -136 -239 -143 -22 -4 -125 -11 -230 -16 -187 -8 -376 -38
-432 -68 -12 -7 -37 -12 -55 -12 -18 0 -55 -7 -83 -16 -82 -26 -168 -43 -156
-31 14 14 14 44 1 49 -9 3 -23 107 -36 268 -8 95 -12 108 -39 123 -25 13 -24
13 32 32 32 10 78 28 103 38 65 28 345 126 410 144 65 17 92 25 185 51 39 11
99 25 135 32 36 6 90 20 120 30 30 10 89 26 130 35 41 10 120 31 175 47 88 26
175 43 337 67 49 8 78 25 78 47 0 8 6 14 13 14 7 0 28 8 47 19 134 71 191 99
235 115 45 17 201 92 345 166 75 39 214 79 277 79 45 1 56 -3 87 -33z"/>
<path d="M1808 4746 c-21 -8 -55 -29 -77 -47 -21 -19 -61 -52 -89 -74 -37 -30
-60 -60 -90 -120 -38 -77 -40 -84 -46 -205 -4 -98 -2 -137 11 -183 13 -48 14
-62 3 -82 -7 -14 -9 -28 -4 -37 5 -7 10 -38 10 -68 2 -69 13 -121 30 -140 9
-11 13 -60 15 -175 4 -248 16 -380 43 -480 13 -49 34 -136 46 -193 38 -180
143 -427 195 -456 10 -6 47 -30 81 -53 35 -24 67 -43 72 -43 4 0 22 -16 39
-35 36 -40 65 -45 87 -14 l15 22 32 -27 c17 -15 65 -45 105 -67 41 -23 76 -45
80 -50 6 -10 87 -49 102 -49 5 0 36 -18 68 -39 72 -48 175 -90 336 -136 240
-68 468 -61 468 15 0 10 13 23 33 31 37 15 212 181 263 250 20 28 34 58 34 75
0 24 54 146 79 179 15 19 30 77 46 173 8 53 20 122 25 152 5 30 12 98 15 150
3 52 10 111 15 130 5 19 12 67 14 105 3 39 8 100 12 136 5 54 2 78 -15 126
-23 65 -27 155 -10 217 6 21 11 65 12 97 l2 59 -64 61 c-54 50 -70 60 -95 57
-46 -4 -130 44 -215 124 -41 38 -95 80 -120 94 -25 13 -82 47 -126 75 -91 58
-263 149 -283 149 -7 0 -25 8 -39 18 -33 21 -167 77 -248 103 -33 11 -82 30
-110 43 -27 13 -66 29 -85 36 -19 7 -49 19 -67 26 -18 8 -58 19 -90 25 -32 5
-98 18 -148 29 -119 25 -317 34 -367 16z m-23 -100 c-30 -29 -55 -60 -55 -68
0 -7 -8 -30 -19 -50 -10 -20 -26 -70 -36 -110 -9 -40 -24 -89 -32 -108 -10
-24 -17 -84 -20 -191 -5 -155 -3 -178 38 -354 6 -22 14 -74 18 -115 5 -41 14
-100 21 -130 51 -243 69 -330 79 -400 16 -101 97 -297 167 -400 88 -131 134
-190 191 -240 26 -23 39 -38 28 -33 -75 39 -126 56 -170 57 -73 3 -122 36
-151 102 -13 29 -27 55 -33 58 -6 4 -20 39 -32 79 -12 40 -27 83 -34 97 -22
44 -46 139 -52 208 -3 37 -14 83 -24 102 -34 64 -40 122 -49 497 -8 360 -9
375 -35 458 -22 73 -26 102 -24 200 1 112 2 116 40 192 32 63 52 89 110 138
46 38 82 61 100 62 27 2 26 0 -26 -51z m445 20 c74 -19 180 -53 235 -76 55
-22 145 -57 200 -77 55 -20 141 -56 190 -81 50 -25 135 -67 190 -94 55 -28
125 -66 155 -86 30 -20 71 -45 90 -57 91 -56 119 -76 165 -120 28 -27 76 -65
108 -86 32 -21 66 -48 77 -61 10 -13 43 -36 73 -51 l55 -27 -5 -153 c-6 -145
-5 -154 17 -197 22 -41 24 -57 22 -175 -1 -71 -7 -159 -13 -195 -22 -132 -42
-226 -59 -275 -31 -91 -38 -119 -45 -177 -4 -40 -21 -86 -56 -153 -34 -66 -49
-108 -49 -135 0 -42 -16 -64 -139 -196 -80 -85 -108 -101 -195 -110 -39 -4
-74 -13 -83 -22 -25 -25 -109 -26 -188 -2 -38 12 -83 24 -100 26 -16 3 -40 7
-52 10 -26 5 -74 54 -67 66 3 5 0 7 -8 6 -7 -2 -12 3 -10 10 1 8 -2 11 -7 8
-5 -3 -14 1 -21 9 -7 8 -27 17 -46 21 -19 3 -37 10 -40 15 -3 5 -10 7 -15 3
-5 -3 -15 -1 -22 4 -7 5 -28 12 -47 16 -23 4 -57 25 -97 61 -33 30 -66 55 -71
55 -10 0 -26 29 -24 43 1 4 -4 6 -10 5 -7 -2 -12 3 -10 10 1 6 -1 11 -5 10
-16 -4 -195 181 -187 193 4 7 3 9 -2 6 -12 -7 -90 99 -88 119 1 7 -2 12 -6 9
-13 -8 -73 121 -64 136 4 7 3 10 -4 5 -10 -6 -39 59 -34 77 1 4 -1 7 -6 7 -16
0 -53 114 -51 156 1 16 -7 47 -17 69 -10 22 -19 51 -20 65 -7 64 -10 76 -22
86 -8 5 -13 17 -11 25 1 7 -6 41 -16 74 -11 33 -18 63 -17 67 1 4 -6 24 -15
45 -8 21 -17 65 -18 99 -1 33 -7 69 -12 80 -39 76 -48 335 -18 489 9 44 18 94
21 110 11 65 58 204 67 198 6 -4 7 -1 2 6 -8 14 39 68 99 112 57 42 146 40
326 -5z"/>
<path d="M5511 3645 c-114 -14 -197 -35 -238 -61 -12 -7 -41 -52 -65 -99 -24
-47 -52 -102 -62 -122 -20 -38 -25 -57 -52 -208 -11 -62 -14 -113 -10 -165 4
-41 9 -181 12 -310 5 -243 6 -249 57 -360 34 -74 43 -105 61 -207 8 -47 23
-89 44 -123 18 -28 32 -53 32 -55 0 -3 24 -42 53 -87 29 -46 59 -98 66 -116 8
-18 31 -48 52 -66 21 -17 53 -57 71 -87 65 -107 100 -150 153 -189 30 -22 67
-56 82 -76 15 -19 51 -47 78 -61 28 -14 62 -34 76 -44 14 -10 54 -28 90 -40
35 -12 87 -34 115 -50 39 -22 64 -29 106 -29 40 0 68 -7 99 -24 48 -26 137
-48 269 -66 47 -6 102 -14 123 -17 30 -4 46 0 70 18 29 21 38 22 191 21 89 -1
194 -8 233 -14 66 -11 78 -10 135 9 35 12 79 24 99 28 54 8 95 31 182 100 117
94 247 278 247 351 0 14 5 34 10 44 13 24 27 115 40 255 6 61 17 139 24 175 8
36 17 100 20 143 5 72 12 111 37 212 9 35 13 127 22 472 2 67 0 74 -27 102
-28 29 -28 32 -13 49 23 25 21 58 -3 79 -11 10 -20 23 -20 29 0 6 -15 23 -32
37 -18 14 -53 45 -78 68 -40 37 -83 60 -170 89 -107 36 -169 64 -199 93 -64
59 -147 115 -187 125 -21 6 -64 16 -94 22 -30 7 -72 21 -94 32 -70 36 -197 61
-391 78 -234 22 -292 29 -318 39 -44 17 -756 22 -896 6z m863 -91 c9 -8 16
-11 16 -6 0 5 22 5 53 1 28 -5 111 -13 182 -20 123 -11 243 -30 262 -42 5 -3
40 -8 78 -12 39 -4 75 -12 80 -18 6 -7 17 -13 25 -14 33 -4 104 -24 124 -35
11 -6 38 -13 59 -15 21 -1 50 -11 65 -22 15 -10 48 -30 75 -45 26 -15 47 -31
47 -37 0 -6 4 -8 8 -5 13 8 53 -24 46 -36 -4 -7 -2 -8 4 -4 7 4 12 2 12 -4 0
-6 4 -9 9 -5 5 3 12 1 16 -5 4 -6 10 -8 13 -6 4 2 34 -9 67 -26 33 -17 81 -42
108 -55 66 -34 115 -88 170 -191 48 -91 54 -108 38 -98 -5 3 0 -11 10 -32 16
-31 19 -50 14 -117 -3 -44 -7 -137 -9 -207 -2 -90 -7 -132 -17 -145 -11 -13
-11 -15 -1 -9 11 7 12 4 4 -10 -17 -33 -44 -166 -52 -254 -9 -95 -18 -142 -28
-150 -4 -3 -8 -30 -9 -60 -3 -93 -21 -220 -45 -330 -18 -82 -32 -118 -61 -163
-21 -31 -43 -57 -48 -57 -6 0 -8 -4 -5 -8 6 -10 -41 -82 -52 -82 -5 0 -23 -16
-42 -36 -19 -19 -48 -44 -64 -54 -29 -19 -30 -19 -40 2 -11 22 -66 44 -66 27
0 -6 -5 -7 -10 -4 -6 4 -9 1 -8 -7 2 -7 -3 -12 -10 -10 -8 1 -11 -1 -8 -6 2
-4 1 -14 -4 -22 -11 -17 -55 -17 -388 0 -185 10 -205 9 -232 -6 -24 -15 -35
-16 -68 -6 -22 7 -72 12 -112 12 -79 0 -172 21 -232 51 -23 12 -58 19 -93 19
-31 0 -68 6 -83 14 -16 8 -59 24 -97 37 -39 12 -96 37 -128 55 -32 19 -62 34
-68 34 -5 0 -36 24 -68 53 -33 28 -79 68 -103 88 -24 21 -68 76 -97 123 -29
47 -66 98 -82 113 -39 36 -99 153 -99 193 0 16 -7 48 -16 71 -14 34 -16 62
-10 174 4 74 11 148 16 165 5 18 10 87 10 153 2 162 -16 212 -130 363 -36 46
-50 74 -50 97 0 40 -28 100 -69 151 -38 48 -41 87 -6 114 27 22 32 38 13 44
-20 7 3 64 72 180 l62 105 92 17 c163 30 226 33 588 35 312 1 359 -1 372 -15z
m-1188 -616 c12 -57 27 -90 78 -167 34 -53 66 -109 70 -126 28 -113 30 -148
17 -298 -8 -84 -17 -190 -20 -237 l-6 -85 -18 54 c-9 30 -17 66 -17 80 0 43
-25 121 -66 206 l-38 80 -8 205 c-5 113 -13 232 -18 265 -24 154 -24 143 -5
118 9 -13 23 -55 31 -95z"/>
<path d="M4893 3618 c-10 -13 -91 -386 -100 -462 -7 -51 12 -86 47 -86 41 0
49 18 49 111 -1 49 11 154 27 251 23 138 25 169 15 182 -16 19 -25 20 -38 4z"/>
<path d="M8353 3138 c-6 -7 -13 -21 -16 -30 -9 -24 -62 -23 -109 1 -30 17 -42
18 -70 9 -55 -18 -63 -24 -66 -52 -3 -20 3 -30 27 -44 26 -14 31 -24 33 -57 2
-57 2 -68 -6 -86 -5 -11 0 -24 12 -35 10 -11 22 -27 25 -36 8 -24 30 -23 52 2
19 21 85 29 85 10 0 -5 15 -10 34 -10 45 0 66 29 66 89 0 25 8 80 17 123 21
98 11 128 -41 128 -18 0 -38 -6 -43 -12z"/>
</g>
</svg>
