<?xml version="1.0" standalone="no"?>
<!DOCTYPE svg PUBLIC "-//W3C//DTD SVG 20010904//EN"
 "http://www.w3.org/TR/2001/REC-SVG-20010904/DTD/svg10.dtd">
<svg version="1.0" xmlns="http://www.w3.org/2000/svg"
 width="1112.000000pt" height="999.000000pt" viewBox="0 0 1112.000000 999.000000"
 preserveAspectRatio="xMidYMid meet">
<metadata>
Created by potrace 1.16, written by Peter Selinger 2001-2019
</metadata>
<g transform="translate(0.000000,999.000000) scale(0.100000,-0.100000)"
fill="#000000" stroke="none">
<path d="M7890 8753 c-58 -1 -226 -7 -375 -12 -404 -16 -577 -20 -1180 -27
-302 -3 -604 -7 -670 -9 -66 -2 -309 -6 -540 -10 -231 -3 -426 -9 -434 -11 -8
-3 -109 -5 -225 -5 -131 -1 -216 -5 -223 -11 -9 -7 -17 -7 -27 1 -10 9 -91 10
-91 1 0 0 -151 -3 -335 -6 -184 -2 -405 -6 -490 -9 -85 -2 -400 -7 -700 -11
-300 -3 -570 -9 -601 -13 -30 -4 -316 -8 -635 -9 -318 -2 -599 -5 -624 -9 -53
-7 -87 -23 -117 -55 -49 -53 -52 -72 -57 -454 -3 -198 -10 -667 -15 -1044 -11
-736 -20 -1562 -26 -2395 -2 -286 -7 -677 -10 -870 -6 -314 -5 -354 10 -390 9
-22 23 -47 30 -55 7 -8 16 -29 20 -47 3 -17 13 -37 21 -44 8 -6 14 -16 14 -22
0 -5 11 -33 25 -62 70 -149 143 -314 149 -340 4 -17 13 -37 21 -45 7 -8 16
-26 20 -40 4 -14 38 -88 76 -165 37 -77 71 -153 75 -170 4 -16 12 -37 18 -45
7 -8 20 -35 30 -60 64 -158 95 -220 111 -226 10 -4 13 -13 10 -25 -4 -11 -2
-19 4 -19 6 0 11 -6 11 -14 0 -7 9 -16 20 -19 16 -4 20 -14 20 -51 0 -41 3
-48 27 -59 19 -8 27 -9 30 -1 2 6 10 20 18 30 13 18 14 18 37 -4 28 -25 33
-25 398 4 107 8 247 17 310 20 63 2 143 9 178 15 34 5 67 7 71 4 5 -2 9 -41 9
-86 1 -143 0 -141 132 -175 65 -16 81 -16 215 6 98 16 105 26 105 156 0 111 3
118 55 120 17 1 86 7 155 13 212 20 652 47 1345 81 496 25 600 31 609 39 6 5
97 11 201 15 105 3 229 11 275 16 47 5 126 10 175 10 50 0 200 7 335 15 308
20 517 32 740 45 96 6 240 15 320 20 80 6 246 15 370 21 124 5 272 14 330 19
115 10 548 39 593 40 47 0 48 50 1 52 -17 0 -126 -6 -259 -17 -27 -2 -138 -6
-245 -10 -107 -3 -220 -10 -250 -15 -30 -5 -147 -12 -260 -15 -283 -8 -390
-14 -427 -26 -18 -6 -36 -8 -41 -5 -9 5 -445 -18 -537 -29 -27 -4 -57 -6 -65
-6 -22 0 -313 -18 -480 -29 -80 -5 -222 -12 -316 -15 -94 -3 -209 -7 -255 -10
-181 -11 -247 -16 -270 -20 -31 -5 -220 -15 -382 -21 -71 -2 -132 -6 -137 -9
-4 -3 -79 -8 -166 -11 -88 -3 -177 -8 -199 -9 -190 -15 -258 -19 -520 -30 -82
-3 -179 -11 -215 -16 -36 -5 -105 -12 -155 -15 -251 -15 -282 -21 -335 -58
-44 -30 -49 -31 -177 -36 -133 -5 -159 -13 -148 -43 11 -27 55 -34 155 -27 52
4 98 5 103 3 14 -8 8 -100 -9 -114 -13 -11 -139 -21 -258 -20 -37 0 -49 26
-52 111 -2 45 -6 85 -9 91 -4 5 -24 18 -45 29 -35 18 -52 19 -172 14 -73 -4
-153 -8 -178 -9 -89 -6 -237 -15 -360 -20 -69 -3 -146 -8 -171 -11 -39 -5 -49
-3 -66 15 -18 19 -20 32 -16 101 3 47 0 86 -6 99 -9 16 -8 26 5 45 8 14 12 31
8 37 -4 7 -7 94 -6 193 1 99 -1 188 -4 198 -5 17 -6 17 -22 1 -15 -14 -17 -53
-19 -341 -1 -178 -4 -326 -7 -329 -10 -11 -24 8 -36 51 -9 34 -11 157 -5 533
3 268 8 533 10 588 4 111 12 770 20 1790 16 1768 14 1683 30 2320 10 407 9
388 35 418 13 15 32 27 42 27 21 0 22 -8 4 -33 -7 -9 -11 -28 -9 -41 3 -14 -2
-40 -11 -58 -14 -27 -17 -62 -15 -193 1 -94 6 -165 12 -173 8 -10 7 -16 -3
-22 -11 -7 -14 -105 -18 -517 -2 -279 -6 -668 -8 -863 -2 -195 -3 -434 -3
-530 0 -96 -1 -184 -2 -195 -1 -11 -3 -198 -5 -415 -2 -217 -6 -521 -9 -675
-8 -321 -7 -290 -2 -420 3 -55 2 -104 -1 -109 -9 -16 -10 -81 0 -93 6 -7 5
-14 -2 -18 -17 -10 -13 -95 6 -102 35 -13 38 11 40 334 5 460 13 1248 19 1693
3 212 7 606 10 875 3 270 7 652 11 850 3 198 5 393 5 432 0 40 4 75 8 77 4 3
6 29 3 59 -4 47 -1 59 24 94 l29 41 120 6 c66 3 194 8 285 11 91 3 233 7 315
10 234 9 696 21 1325 35 250 5 509 12 575 15 66 3 296 9 510 15 215 6 446 12
515 15 69 2 238 7 375 10 138 3 324 10 415 15 91 5 316 12 500 16 184 4 346 8
360 10 14 1 142 4 285 5 143 1 314 5 380 9 66 4 253 11 415 15 162 3 369 10
460 15 91 4 175 4 187 -1 12 -4 25 -20 29 -35 8 -32 -4 -1481 -21 -2478 -3
-159 -7 -488 -10 -730 -3 -243 -7 -592 -10 -776 -2 -184 -8 -614 -11 -955 -4
-341 -11 -621 -15 -623 -15 -6 -10 -20 13 -42 20 -18 35 -21 98 -20 116 2 110
4 110 -34 0 -51 -16 -58 -140 -58 -157 0 -189 25 -135 103 l24 37 -32 5 c-18
4 -42 9 -54 13 -22 6 -23 5 -23 -73 0 -130 32 -153 229 -160 126 -5 178 3 185
29 2 7 9 56 16 108 7 52 14 99 17 106 2 7 64 13 181 17 332 12 617 27 787 42
94 7 231 17 305 20 296 13 292 13 323 44 l29 28 4 444 c10 1268 21 2190 29
2574 2 88 6 450 9 805 3 355 9 848 12 1095 l7 451 -25 29 -25 29 -194 -4
c-202 -4 -244 -5 -394 -14 -124 -7 -417 -15 -810 -22 -181 -3 -340 -7 -353
-10 -15 -3 -22 -11 -20 -22 3 -17 6 -17 148 -23 30 -1 327 9 465 16 55 2 106
1 114 -4 8 -5 27 -5 45 1 17 5 88 9 158 9 70 0 130 3 132 8 3 4 158 8 344 9
l339 2 14 -32 c8 -18 13 -36 12 -40 -2 -3 -5 -352 -8 -775 -4 -422 -9 -835
-11 -918 -5 -144 -5 -169 -3 -252 1 -21 1 -96 0 -168 -1 -71 -1 -146 -1 -165
0 -19 -2 -71 -4 -115 -6 -101 -18 -998 -15 -1085 1 -36 2 -74 1 -85 -3 -73
-14 -1006 -15 -1316 -2 -348 -3 -378 -20 -397 -26 -29 -67 -33 -467 -48 -185
-7 -193 -7 -393 -23 -71 -5 -144 -7 -162 -4 -19 3 -40 1 -47 -4 -7 -6 -76 -13
-153 -17 -277 -14 -315 -20 -370 -54 -41 -26 -64 -33 -130 -38 -67 -5 -83 -4
-94 10 -9 11 -10 20 -3 29 6 7 12 213 15 547 14 1307 30 2501 42 3070 3 124 7
477 10 785 4 308 8 691 10 850 l4 290 -30 35 -29 35 -113 -1 c-151 -1 -621
-15 -627 -19 -3 -2 -138 -6 -300 -9 -162 -4 -344 -8 -405 -11 -60 -3 -256 -7
-435 -10 -489 -8 -868 -18 -1170 -31 -80 -4 -197 -8 -260 -9 -347 -8 -971 -29
-1190 -41 -74 -4 -269 -7 -432 -7 -177 1 -298 -2 -298 -8 0 -5 -9 -1 -19 8
-15 12 -38 16 -98 14 -862 -16 -1193 -28 -1308 -46 -65 -11 -281 -26 -303 -22
-12 2 -51 -2 -85 -9 -34 -7 -81 -13 -104 -14 -74 0 -89 -51 -97 -323 -4 -117
-9 -273 -12 -347 -9 -230 -12 -442 -18 -1105 -4 -352 -9 -883 -12 -1180 -3
-297 -7 -772 -9 -1055 -3 -283 -7 -585 -10 -670 -2 -85 -7 -317 -10 -515 -3
-198 -8 -370 -10 -382 -8 -37 -20 -26 -22 20 -1 23 -4 63 -6 89 -3 27 -1 51 4
54 12 7 11 195 -1 214 -5 9 -5 19 0 25 6 7 12 478 15 1126 3 613 7 1193 10
1289 3 96 7 416 10 710 14 1467 26 1931 49 2005 9 27 21 54 26 59 13 13 13 43
1 51 -6 3 -25 -15 -44 -40 -30 -39 -35 -55 -41 -122 -13 -146 -15 -156 -25
-166 -7 -7 -7 -16 0 -29 6 -11 7 -27 3 -36 -8 -21 -8 -137 1 -152 3 -5 3 -15
0 -20 -3 -6 -6 -127 -5 -270 0 -153 -3 -268 -9 -278 -6 -11 -12 -241 -15 -573
-6 -663 -14 -931 -27 -944 -11 -11 -29 10 -29 37 0 10 -8 22 -19 27 -10 6 -22
27 -25 46 -5 27 -12 35 -24 33 -23 -5 -23 -96 0 -109 9 -5 19 -23 23 -39 4
-20 13 -30 25 -30 24 0 28 -16 18 -70 -10 -46 -4 -344 8 -422 4 -24 14 -52 24
-63 15 -18 16 -33 9 -130 -4 -60 -5 -132 -2 -159 5 -38 3 -48 -7 -44 -8 2 -17
18 -22 34 -4 16 -14 34 -22 39 -8 6 -16 24 -18 39 -3 28 -31 56 -43 44 -3 -3
-8 -21 -11 -39 -4 -26 0 -39 16 -57 13 -13 24 -38 25 -55 2 -18 3 -38 4 -44 1
-7 9 -13 20 -13 17 0 19 -12 20 -197 0 -109 6 -223 12 -253 16 -74 23 -420 9
-420 -5 0 -10 5 -10 11 0 5 -9 29 -19 52 -11 24 -23 55 -27 71 -3 15 -13 30
-20 33 -8 3 -14 16 -14 28 0 29 -13 38 -40 30 -25 -8 -27 -47 -3 -66 9 -8 19
-12 22 -9 3 3 7 -17 9 -45 2 -27 10 -57 18 -67 9 -9 18 -35 21 -58 5 -36 9
-41 27 -38 21 4 21 2 23 -238 1 -134 6 -268 12 -299 7 -39 7 -64 0 -83 -7 -17
-9 -72 -5 -154 4 -77 3 -128 -3 -128 -10 0 -21 24 -21 48 0 8 -7 23 -16 33 -8
9 -26 47 -38 83 -13 36 -28 71 -33 78 -13 16 -113 221 -113 231 0 4 -20 50
-45 101 -25 52 -45 100 -45 106 0 6 -9 28 -19 48 -37 73 -71 149 -71 160 0 6
-14 34 -30 62 -17 28 -30 56 -30 62 0 6 -9 26 -21 45 -13 20 -19 42 -15 56 3
12 6 301 7 642 1 341 4 625 8 630 5 9 9 289 10 715 3 689 11 1215 20 1242 6
17 6 30 0 33 -13 8 -12 292 1 300 6 4 8 10 6 14 -10 15 -14 121 -5 127 5 3 7
10 3 15 -5 9 -9 273 -4 304 1 6 1 58 0 117 -1 60 4 116 10 127 8 15 7 26 -2
40 -9 15 -9 23 1 35 9 10 9 20 2 34 -7 13 -7 22 1 30 8 8 8 15 -1 26 -9 10
-11 32 -7 63 8 62 8 71 0 114 -3 22 -2 39 5 43 13 9 14 55 2 75 -6 9 -5 21 2
32 8 13 8 21 -1 32 -9 10 -8 18 3 33 8 10 15 35 15 54 0 55 31 118 65 134 41
19 180 32 189 17 9 -13 82 -15 91 -2 3 6 82 8 187 5 124 -2 186 0 195 8 24 19
25 0 2 -31 -27 -37 -22 -86 14 -125 20 -21 38 -28 91 -35 37 -4 69 -4 72 1 3
4 13 8 23 8 10 0 34 19 54 42 l36 41 -21 39 c-17 30 -19 41 -10 50 9 9 97 13
330 15 657 5 1097 15 1109 25 9 7 17 7 26 0 19 -16 160 -19 165 -3 5 15 125
14 140 -1 9 -9 15 -9 24 0 16 16 63 15 88 0 16 -10 24 -10 38 0 29 21 41 24
60 17 28 -13 42 -14 48 -4 7 11 71 12 78 1 3 -5 28 -4 56 2 32 6 53 7 60 0 6
-6 38 -6 87 -1 95 11 163 11 175 -1 4 -4 45 -5 89 -1 45 4 92 4 104 -1 13 -5
26 -5 31 0 17 17 136 26 264 20 41 -2 192 0 335 4 230 5 733 14 1280 22 339 5
553 11 562 17 5 3 146 7 314 8 383 2 495 4 796 13 l243 7 -2 -24 c-4 -41 37
-84 90 -96 26 -5 57 -8 67 -6 11 2 33 4 48 4 39 1 87 55 87 98 0 26 6 36 30
48 16 8 33 14 37 13 4 -1 25 2 46 6 28 6 43 4 64 -9 44 -29 176 -95 190 -95 7
0 37 -13 66 -30 30 -16 60 -30 68 -30 8 0 30 -11 48 -24 19 -14 46 -28 62 -31
15 -4 33 -13 40 -21 6 -8 18 -14 26 -14 8 0 63 -23 122 -51 302 -144 377 -179
391 -179 5 0 10 -4 10 -9 0 -8 65 -39 154 -72 27 -11 53 -24 57 -31 11 -17 0
-31 -15 -19 -15 13 -100 15 -203 6 -73 -7 -83 -10 -83 -27 0 -18 6 -19 84 -15
46 2 88 7 93 10 16 10 264 -10 276 -22 6 -6 24 -11 39 -11 15 0 28 -4 28 -9 0
-5 -143 -11 -322 -14 -178 -3 -377 -9 -443 -12 -66 -4 -163 -8 -215 -10 -231
-6 -535 -17 -538 -20 -10 -9 15 -35 40 -40 28 -7 325 -2 668 10 80 3 224 8
320 11 96 3 297 8 445 9 149 2 272 4 274 4 2 1 -13 14 -32 30 -20 16 -58 34
-84 41 -27 6 -61 21 -78 34 -16 12 -50 30 -75 40 -25 10 -53 22 -62 27 -10 5
-23 9 -28 9 -11 0 -81 32 -110 50 -8 5 -44 23 -80 40 -36 17 -72 35 -80 40 -8
5 -49 23 -90 40 -41 18 -84 37 -95 43 -26 14 -59 29 -115 55 -195 88 -258 118
-320 152 -30 17 -73 36 -95 42 -22 6 -47 17 -55 23 -22 17 -135 71 -209 100
l-64 25 -316 -2 c-174 -1 -363 -3 -421 -5z"/>
<path d="M8989 8286 c-30 -20 -37 -33 -42 -68 -8 -57 12 -88 56 -89 126 -5
150 -9 134 -25 -3 -3 -113 -8 -244 -11 -131 -3 -242 -9 -247 -14 -15 -14 -399
-12 -414 3 -9 9 -15 9 -24 0 -8 -8 -53 -12 -136 -12 -68 0 -131 -4 -141 -10
-11 -5 -31 -6 -47 -1 -16 4 -67 5 -114 2 -47 -4 -116 -3 -154 1 -46 6 -73 5
-81 -2 -12 -10 -92 -13 -675 -26 -80 -2 -212 -5 -295 -8 -82 -2 -262 -6 -398
-9 -165 -4 -253 -10 -263 -17 -12 -11 -42 -10 -141 3 -20 3 -37 0 -44 -9 -15
-18 -33 -18 -49 1 -14 17 -61 20 -77 4 -6 -6 -76 -12 -169 -15 -326 -9 -744
-15 -891 -14 -94 1 -159 -3 -172 -10 -13 -7 -21 -7 -21 -1 0 11 -78 9 -96 -2
-7 -4 -26 -2 -43 4 -19 7 -56 9 -89 5 -97 -11 -214 -17 -282 -15 -64 1 -166 2
-195 0 -8 0 -34 0 -57 0 -24 0 -135 -2 -248 -5 -367 -11 -970 -19 -1140 -15
-56 1 -96 -3 -98 -9 -3 -9 -42 -5 -42 5 0 3 14 18 31 34 26 24 30 33 24 61
-17 83 -23 92 -76 111 -72 26 -123 16 -173 -34 -35 -36 -38 -43 -33 -80 6 -43
31 -79 55 -79 11 0 12 -3 3 -14 -6 -7 -22 -11 -37 -8 -14 2 -40 -3 -60 -14
-27 -15 -38 -16 -53 -7 -18 11 -32 12 -61 0 -8 -3 -89 -11 -180 -17 -172 -11
-190 -17 -190 -61 0 -16 3 -16 28 -4 16 8 92 16 192 20 91 5 183 9 205 11 117
10 181 13 405 19 135 4 250 10 255 13 6 4 20 5 32 4 12 -2 31 2 42 7 11 6 22
7 25 3 5 -8 97 -7 246 2 30 2 110 4 178 5 104 1 122 3 122 17 0 14 2 14 16 -1
15 -15 50 -16 347 -10 182 4 338 10 346 15 8 4 22 3 32 -3 13 -8 25 -7 45 3
21 12 28 12 31 3 6 -16 45 -17 61 -1 9 9 18 8 37 -2 19 -10 28 -11 33 -3 5 7
31 8 82 3 55 -5 80 -3 94 6 12 8 25 10 35 5 9 -5 41 -5 71 -1 30 4 58 6 61 4
9 -5 226 -5 384 0 77 3 322 8 545 11 222 4 407 8 410 10 3 2 165 6 360 9 195
4 414 8 485 11 72 3 265 7 430 10 165 3 368 7 450 10 83 3 211 7 285 10 74 2
277 7 450 10 173 3 351 8 395 11 126 7 305 13 490 15 94 1 174 5 179 7 5 3 35
5 65 4 37 -2 63 3 75 13 29 22 13 29 -69 33 -52 3 -75 8 -79 18 -3 8 1 17 9
20 8 4 15 12 15 19 0 7 7 18 15 25 20 17 19 64 -2 81 -70 56 -163 66 -224 25z"/>
<path d="M8169 7866 c-4 -5 -292 -18 -439 -20 -602 -10 -1016 -19 -1020 -21
-4 -2 -98 -5 -210 -6 -113 -1 -218 -5 -235 -10 -16 -4 -169 -10 -340 -13 -170
-4 -384 -9 -475 -11 -91 -3 -372 -10 -625 -15 -788 -18 -1016 -25 -1090 -34
-16 -3 -167 -7 -335 -11 -168 -3 -368 -8 -445 -10 -77 -3 -322 -7 -545 -10
-223 -3 -432 -7 -465 -10 -33 -2 -152 -7 -265 -10 -117 -4 -215 -11 -228 -17
-52 -26 0 -67 64 -49 27 7 40 8 42 0 3 -6 8 -6 16 0 19 16 187 16 197 0 6 -11
11 -11 21 -1 15 15 90 16 106 0 8 -8 15 -8 26 2 11 8 71 14 198 17 101 2 203
5 228 7 25 1 52 -1 61 -6 9 -4 32 -3 50 3 33 9 223 15 789 24 146 2 366 7 490
11 124 4 239 6 255 5 17 -1 41 -3 55 -3 38 -1 224 9 235 13 6 2 20 -2 33 -9
16 -9 27 -10 42 -2 10 6 63 12 117 14 54 3 106 8 116 12 10 3 30 1 43 -7 20
-10 29 -10 44 -1 23 14 66 16 74 3 11 -17 67 -21 89 -6 26 18 113 20 120 3 3
-10 9 -10 24 -2 11 7 73 13 144 14 152 3 149 3 149 -15 0 -8 7 -15 15 -15 8 0
15 9 15 20 0 20 30 23 238 20 34 -1 67 0 185 3 77 2 110 6 116 16 7 11 9 11
13 0 4 -11 23 -13 79 -11 41 1 76 7 77 12 5 13 32 13 32 1 0 -5 9 -13 20 -16
11 -4 18 -11 15 -16 -4 -5 -1 -9 4 -9 6 0 11 5 11 11 0 39 71 52 99 17 l18
-22 19 22 c21 25 64 30 64 8 0 -26 20 -28 29 -3 9 23 11 23 137 22 87 -1 129
-5 132 -13 2 -8 8 -7 19 3 8 9 31 15 51 15 21 -1 118 2 217 5 377 12 655 11
655 -2 0 -19 21 -16 36 5 11 15 38 17 288 18 201 1 279 4 290 13 8 7 23 11 33
9 10 -1 24 1 30 5 7 4 22 3 34 -4 16 -8 27 -8 44 1 18 9 27 9 45 0 18 -10 32
-10 64 1 60 19 72 30 50 46 -13 9 -57 13 -149 13 -73 0 -134 -2 -136 -4z"/>
<path d="M9875 7090 c-121 -4 -371 -10 -555 -15 -282 -6 -419 -10 -451 -14 -3
-1 -7 -110 -9 -243 -1 -134 -3 -259 -4 -278 l-1 -35 85 0 c114 0 498 15 690
27 85 5 232 12 325 16 l170 7 3 273 c2 255 1 272 -15 270 -10 -1 -117 -5 -238
-8z"/>
<path d="M7425 7020 c-54 -9 -428 -24 -1005 -40 -396 -11 -490 -15 -830 -29
-260 -11 -750 -28 -1025 -36 -104 -3 -208 -8 -230 -10 -22 -3 -251 -9 -510
-15 -258 -5 -542 -12 -630 -15 -88 -4 -318 -10 -511 -14 -378 -9 -388 -11
-428 -64 -21 -28 -21 -41 -28 -595 -4 -312 -9 -632 -12 -712 -2 -80 -8 -440
-12 -800 -3 -360 -9 -887 -13 -1170 -3 -283 -3 -537 0 -564 9 -77 27 -86 186
-86 77 0 134 4 138 10 3 6 52 10 112 10 58 0 200 6 317 14 189 13 490 29 786
41 58 2 240 13 405 24 277 19 594 37 1305 76 151 9 322 20 380 25 58 5 164 12
235 14 287 11 597 26 701 35 60 6 249 15 419 21 171 6 319 13 330 15 14 3 26
21 39 57 17 49 19 113 26 913 5 473 11 1045 14 1270 4 226 11 664 15 975 5
311 9 575 9 587 0 52 -80 79 -183 63z m106 -1025 c-2 -511 -7 -938 -12 -947
-5 -9 -9 -277 -10 -595 -1 -824 -10 -1178 -29 -1197 -11 -12 -47 -17 -140 -20
-365 -15 -415 -18 -428 -28 -9 -8 -16 -8 -24 0 -15 15 -75 16 -80 1 -2 -7 -49
-12 -123 -15 -382 -13 -595 -24 -595 -33 0 -3 -29 -4 -65 -3 -36 2 -71 -1 -78
-6 -7 -6 -128 -13 -282 -17 -148 -4 -274 -10 -280 -14 -5 -3 -39 -7 -75 -7
-36 -1 -103 -4 -150 -7 -47 -3 -195 -10 -330 -16 -135 -7 -285 -14 -335 -17
-49 -3 -119 -7 -155 -8 -36 -2 -130 -7 -210 -10 -79 -4 -150 -12 -156 -17 -8
-7 -14 -6 -19 1 -8 12 -92 14 -97 1 -1 -5 -66 -13 -143 -16 -77 -4 -167 -9
-200 -11 -33 -2 -202 -10 -375 -18 -173 -8 -377 -19 -452 -26 -76 -6 -142 -9
-147 -6 -5 4 -22 1 -38 -5 -36 -14 -203 -11 -226 4 -17 11 -18 45 -17 629 0
341 4 628 9 641 5 13 10 233 11 488 1 255 4 811 8 1236 l7 772 24 25 c24 26
26 26 177 25 84 -1 158 2 164 6 9 5 176 0 207 -6 4 -1 15 1 23 4 8 4 80 8 160
11 80 2 152 5 160 6 8 1 42 1 75 0 33 -1 103 1 155 5 52 4 178 8 280 10 102 1
271 6 375 9 105 3 267 6 361 7 130 0 178 4 199 15 20 10 32 11 39 4 12 -12
193 -14 200 -2 5 8 226 19 561 27 335 9 679 17 790 19 66 2 167 5 225 8 58 2
206 8 330 12 123 4 225 8 226 9 1 1 116 2 256 2 l253 0 -4 -930z"/>
<path d="M6730 6498 c-193 -25 -225 -32 -225 -53 0 -24 3 -24 193 -1 74 9 164
16 202 16 69 0 92 14 67 39 -13 13 -128 12 -237 -1z"/>
<path d="M5775 6455 c-66 -10 -170 -12 -392 -8 -275 6 -303 5 -303 -10 0 -9 8
-20 18 -25 9 -5 136 -12 281 -15 207 -5 287 -3 370 9 61 9 162 14 236 13 122
-2 130 -1 130 17 0 14 -10 20 -40 26 -60 10 -199 7 -300 -7z"/>
<path d="M4270 6436 c-211 -10 -235 -13 -238 -29 -2 -9 4 -20 13 -23 9 -4 132
-1 273 7 142 8 345 14 452 14 188 0 195 1 195 20 0 19 -7 20 -230 21 -126 1
-336 -4 -465 -10z"/>
<path d="M2870 6396 c-29 -14 -46 -30 -48 -44 -4 -27 16 -29 59 -6 20 10 35
12 42 6 7 -6 123 -8 282 -5 149 2 349 3 445 3 202 -2 232 3 228 34 -3 20 -7
21 -213 22 -115 1 -253 -3 -305 -9 -52 -6 -115 -9 -140 -7 -25 1 -92 3 -150 4
-72 1 -108 5 -113 14 -12 18 -36 15 -87 -12z"/>
<path d="M4135 5946 c-60 -13 -144 -29 -185 -36 -86 -14 -491 -29 -817 -29
-122 -1 -245 -6 -274 -12 -63 -14 -120 -59 -101 -81 17 -21 61 -11 95 21 l28
26 467 7 c493 8 688 22 829 59 91 24 249 29 470 15 130 -8 143 -7 149 8 4 10
2 22 -3 27 -6 6 -125 12 -279 14 -255 5 -275 4 -379 -19z"/>
<path d="M5280 5963 c-192 -2 -338 -7 -344 -13 -6 -6 -4 -15 5 -26 13 -16 57
-16 597 -9 449 5 586 4 597 -5 20 -16 45 -5 45 19 0 35 -48 41 -314 39 -138
-2 -402 -4 -586 -5z"/>
<path d="M6547 5963 c-74 -4 -78 -5 -75 -25 3 -22 4 -22 243 -20 236 2 273 8
247 35 -13 12 -245 18 -415 10z"/>
<path d="M6495 5329 c-48 -12 -62 -24 -47 -41 8 -10 29 -12 89 -7 43 4 157 8
254 8 176 1 204 6 192 37 -4 11 -47 14 -227 13 -121 -1 -239 -5 -261 -10z"/>
<path d="M5812 5299 c-23 -7 -32 -15 -30 -26 3 -15 25 -16 217 -14 117 1 220
5 228 8 8 3 13 13 11 22 -3 14 -27 16 -198 18 -107 1 -210 -3 -228 -8z"/>
<path d="M4452 5228 c-63 -10 -92 -23 -92 -43 0 -22 12 -24 70 -9 35 9 108 14
207 14 150 0 180 7 154 33 -14 14 -259 18 -339 5z"/>
<path d="M3745 5190 c-27 -5 -124 -9 -215 -10 -91 -1 -212 -7 -270 -13 -94
-11 -105 -15 -105 -32 0 -24 -2 -24 390 -4 149 7 339 13 422 14 120 0 154 3
158 14 14 35 -13 41 -174 40 -86 -1 -178 -5 -206 -9z"/>
<path d="M2750 5163 c-14 -2 -49 -13 -77 -25 -38 -14 -53 -26 -53 -39 0 -23
12 -23 65 -5 65 23 149 30 187 16 46 -17 187 -5 195 17 11 29 -13 37 -84 26
-55 -8 -70 -8 -76 3 -8 14 -95 17 -157 7z"/>
<path d="M6155 4745 c-79 -9 -287 -13 -730 -13 -433 1 -647 -3 -710 -11 -49
-7 -225 -17 -390 -22 -165 -5 -358 -13 -430 -19 -71 -5 -211 -14 -310 -19 -99
-5 -220 -17 -270 -26 -51 -10 -113 -15 -142 -12 -55 6 -86 -10 -61 -30 28 -22
104 -23 218 -3 65 12 203 25 315 30 110 5 279 14 375 20 96 5 250 10 341 10
91 0 235 7 320 16 127 14 263 17 769 16 397 -1 640 3 685 10 39 6 180 13 315
17 236 6 245 7 245 26 0 19 -7 20 -215 21 -120 1 -264 -4 -325 -11z"/>
<path d="M2890 4589 c-19 -4 -79 -10 -133 -14 -80 -6 -102 -11 -117 -27 -30
-32 -11 -59 28 -39 9 5 63 12 119 15 129 9 157 17 161 43 4 25 -13 32 -58 22z"/>
<path d="M6630 4289 c-363 -8 -430 -16 -430 -54 0 -24 15 -25 116 -10 68 10
181 15 364 15 146 0 275 3 288 6 16 5 22 13 20 28 -2 11 -10 21 -18 22 -8 0
-161 -3 -340 -7z"/>
<path d="M5504 4251 c-47 -22 -61 -38 -45 -54 8 -8 24 -6 62 7 43 16 73 18
215 14 134 -4 167 -2 171 9 3 7 0 20 -7 28 -10 12 -44 15 -184 15 -145 0 -177
-3 -212 -19z"/>
<path d="M4740 4189 c-227 -8 -382 -32 -388 -61 -5 -28 15 -30 125 -9 69 13
181 23 308 28 191 8 200 9 200 28 0 24 13 23 -245 14z"/>
<path d="M3747 4111 c-163 -6 -169 -7 -188 -30 -17 -21 -18 -26 -5 -39 12 -13
17 -12 37 2 19 13 54 16 204 17 216 0 260 6 260 34 0 18 -7 20 -70 21 -38 0
-146 -2 -238 -5z"/>
<path d="M2695 3994 c-21 -21 -16 -68 8 -72 12 -3 20 4 24 17 5 20 12 21 119
21 114 0 137 7 114 35 -19 23 -242 21 -265 -1z"/>
<path d="M6675 3699 c-33 -4 -211 -13 -395 -19 -398 -14 -538 -27 -554 -52
-22 -35 3 -39 140 -24 71 9 291 23 488 31 198 9 370 18 383 21 17 5 23 12 21
27 -4 25 -9 26 -83 16z"/>
<path d="M5505 3619 c-68 -9 -299 -24 -620 -39 -265 -13 -500 -40 -499 -58 1
-7 2 -17 3 -23 1 -13 66 -9 226 15 55 9 231 20 390 26 160 6 355 17 435 26
141 15 181 28 166 53 -8 12 -12 12 -101 0z"/>
<path d="M3813 3535 c-188 -12 -213 -19 -213 -57 0 -17 4 -19 28 -14 15 4 149
15 297 24 258 16 270 18 270 37 0 19 -7 20 -100 21 -55 1 -182 -4 -282 -11z"/>
<path d="M3230 3474 c-41 -8 -109 -13 -150 -12 -70 3 -75 1 -78 -18 -2 -15 4
-23 20 -28 40 -10 133 -7 214 9 44 8 99 16 124 17 38 3 45 7 48 26 3 21 0 22
-50 21 -29 0 -87 -7 -128 -15z"/>
<path d="M9395 6196 c-27 -13 -67 -40 -87 -60 -107 -105 -122 -317 -30 -421
42 -47 91 -85 109 -85 24 0 14 29 -15 44 -30 16 -68 66 -98 131 -13 27 -19 62
-19 111 1 58 5 78 29 117 39 68 80 112 123 132 52 25 144 22 206 -5 52 -23 68
-21 46 6 -46 55 -177 70 -264 30z"/>
<path d="M9506 6105 c-39 -13 -115 -80 -116 -100 0 -6 -9 -28 -20 -50 -22 -44
-26 -105 -8 -123 21 -21 28 -13 28 33 0 62 28 113 84 153 38 27 58 34 116 39
80 7 93 25 35 49 -42 17 -68 17 -119 -1z"/>
<path d="M8925 6063 c-112 -28 -128 -267 -20 -303 102 -34 205 48 205 163 0
53 -15 86 -57 121 -30 26 -74 32 -128 19z"/>
<path d="M9747 5931 c9 -128 -5 -168 -83 -246 -37 -38 -73 -65 -91 -68 -71
-14 -122 -17 -127 -9 -3 6 -24 5 -51 -1 -56 -13 -59 -40 -5 -45 19 -2 39 -8
45 -13 5 -5 31 -9 58 -9 26 0 56 -4 66 -10 14 -7 22 -3 39 20 12 16 22 34 22
39 0 6 22 26 50 44 86 58 150 164 150 247 0 49 -47 140 -71 140 -5 0 -6 -40
-2 -89z"/>
<path d="M9840 5331 c0 -5 -18 -12 -39 -16 -31 -5 -48 -17 -75 -50 -34 -41
-36 -48 -35 -112 0 -67 0 -68 41 -101 l42 -33 95 5 c53 2 109 5 124 5 19 1 44
16 77 47 49 45 50 48 50 103 0 57 -15 92 -52 119 -9 7 -24 20 -34 29 -13 13
-20 14 -35 5 -23 -15 -139 -16 -139 -2 0 6 -4 10 -10 10 -5 0 -10 -4 -10 -9z
m175 -61 c3 -5 15 -10 25 -10 25 0 40 -29 40 -80 0 -34 -6 -47 -32 -71 -28
-25 -40 -29 -90 -29 -32 0 -66 -5 -76 -11 -22 -14 -101 -5 -126 14 -11 8 -19
32 -23 67 -5 50 -3 57 21 79 14 13 36 29 48 36 28 16 204 19 213 5z"/>
<path d="M9085 5291 c-49 -10 -34 -26 29 -31 64 -6 78 -18 103 -89 18 -52 16
-64 -14 -93 -33 -30 -65 -38 -189 -45 -86 -5 -92 -4 -121 21 -38 32 -47 63
-30 112 14 44 78 84 133 84 35 0 53 15 36 32 -6 6 -35 6 -78 1 -67 -8 -69 -9
-92 -50 -30 -54 -34 -152 -8 -201 25 -48 52 -55 192 -45 106 8 125 12 152 34
61 49 78 124 42 193 -10 22 -17 43 -14 47 11 19 -92 41 -141 30z"/>
<path d="M9425 5290 c-39 -16 -65 -56 -77 -116 -10 -57 -9 -62 15 -100 28 -45
66 -74 96 -74 32 0 103 43 123 75 20 33 25 129 8 140 -5 3 -10 14 -10 24 0 35
-37 61 -88 60 -26 0 -56 -4 -67 -9z m98 -29 c51 -20 41 -162 -12 -191 -34 -18
-76 -11 -106 16 -25 23 -27 30 -23 80 4 46 10 60 34 79 31 26 67 31 107 16z"/>
<path d="M9880 4759 c-20 -23 -30 -46 -35 -86 -10 -84 24 -151 89 -173 38 -12
123 15 140 45 6 11 19 31 29 44 19 27 23 113 7 156 -10 27 -49 48 -63 35 -5
-4 -4 -17 2 -29 22 -40 17 -105 -9 -139 -20 -25 -32 -31 -66 -31 -77 -2 -107
84 -54 152 44 56 9 79 -40 26z"/>
<path d="M9551 4756 c-6 -7 -20 -39 -31 -70 -18 -54 -18 -60 -3 -99 26 -68 55
-92 109 -90 45 1 74 18 132 72 33 33 32 120 -4 167 -14 18 -30 31 -35 28 -13
-7 -11 -58 2 -88 10 -21 7 -30 -17 -65 -16 -22 -36 -41 -44 -41 -9 0 -21 -5
-28 -12 -8 -8 -15 -8 -28 3 -9 7 -26 18 -38 24 -15 7 -22 22 -24 49 -2 22 0
42 5 45 15 11 43 60 43 76 0 19 -24 20 -39 1z"/>
<path d="M9208 4733 c-41 -45 -52 -89 -39 -154 28 -132 137 -154 226 -45 37
45 38 48 32 111 -5 66 -18 95 -43 95 -10 0 -12 -14 -8 -62 6 -60 4 -65 -27
-105 -44 -56 -75 -58 -119 -5 -26 31 -31 43 -26 75 2 22 14 49 25 61 21 22 29
56 13 56 -5 0 -20 -12 -34 -27z"/>
<path d="M8855 4718 c-38 -45 -48 -76 -41 -130 9 -69 43 -126 79 -134 78 -17
153 21 183 93 28 64 9 159 -36 183 -22 12 -22 11 -14 -32 17 -95 -11 -162 -73
-174 -33 -6 -39 -4 -64 27 -34 40 -37 86 -10 121 11 13 23 37 26 51 10 38 -16
36 -50 -5z"/>
<path d="M917 4358 c-22 -126 -23 -139 -11 -156 9 -12 9 -22 2 -35 -5 -11 -7
-38 -3 -61 3 -22 9 -81 13 -131 6 -80 11 -97 45 -151 20 -34 37 -67 37 -73 0
-6 7 -11 15 -11 19 0 20 40 0 66 -8 10 -15 27 -15 36 0 9 -10 24 -22 32 -21
15 -21 20 -20 249 2 218 1 235 -17 251 -18 16 -19 16 -24 -16z"/>
<path d="M9865 4229 c-24 -37 -27 -49 -23 -108 3 -53 8 -71 28 -92 65 -67 165
-54 221 29 27 41 31 53 27 99 -4 49 -28 93 -50 93 -4 0 -8 -26 -8 -58 0 -125
-112 -192 -157 -95 -18 38 -17 99 2 107 19 7 20 66 1 66 -7 0 -26 -19 -41 -41z"/>
<path d="M8858 4205 c-45 -42 -58 -145 -26 -208 13 -25 68 -57 97 -57 49 0
106 37 129 85 27 56 28 85 2 132 -22 41 -23 39 -20 -23 1 -44 -29 -107 -60
-124 -37 -20 -78 -11 -109 23 -17 17 -31 39 -31 48 0 28 22 83 43 107 31 33 8
48 -25 17z"/>
<path d="M9530 4216 c0 -7 -7 -19 -15 -26 -10 -8 -15 -31 -15 -70 0 -51 4 -62
33 -94 82 -93 227 -28 227 102 0 22 -3 47 -6 56 -11 30 -24 16 -24 -25 0 -53
-33 -107 -76 -125 -46 -19 -51 -18 -84 16 -25 26 -30 39 -30 79 0 31 5 53 15
61 21 18 19 40 -5 40 -11 0 -20 -6 -20 -14z"/>
<path d="M9188 4193 c-37 -40 -43 -117 -13 -168 42 -69 107 -83 171 -36 69 50
79 67 78 132 -1 59 -15 89 -41 89 -20 0 -27 -28 -14 -54 10 -18 9 -30 -7 -67
-26 -60 -65 -78 -120 -57 l-37 14 -3 65 c-2 50 1 69 13 79 16 13 20 30 7 30
-5 0 -20 -12 -34 -27z"/>
<path d="M919 3428 c-3 -150 3 -392 10 -433 13 -69 37 -131 61 -155 11 -11 20
-27 20 -35 0 -20 16 -19 24 1 4 9 0 24 -7 33 -8 9 -17 29 -21 45 -4 17 -15 41
-25 55 -15 22 -17 56 -19 246 -1 121 -5 232 -8 248 -8 39 -34 35 -35 -5z"/>
<path d="M9945 3281 c-9 -15 8 -20 64 -18 33 2 56 -2 63 -11 13 -16 2 -482
-12 -496 -9 -9 -129 -23 -250 -30 -36 -2 -173 -10 -305 -19 -216 -14 -434 -26
-585 -31 -30 -1 -63 -6 -73 -10 -18 -8 -18 2 -13 220 4 126 9 250 12 275 4 38
2 47 -12 53 -41 16 -45 -5 -44 -248 1 -127 -1 -254 -5 -283 -11 -74 -5 -76
212 -64 98 6 273 15 388 21 116 6 260 15 320 20 61 6 168 11 237 12 177 3 165
-20 173 324 l6 269 -27 13 c-33 14 -140 16 -149 3z"/>
<path d="M9448 3175 c-3 -4 -47 -6 -97 -6 -50 -1 -93 -5 -96 -9 -6 -9 -24 -8
-42 3 -7 5 -19 5 -25 1 -7 -5 -28 -7 -46 -5 -18 1 -39 -2 -46 -8 -6 -6 -57
-12 -111 -13 -86 -3 -100 -5 -103 -20 -3 -15 4 -18 45 -18 26 0 61 7 76 15 19
10 35 11 51 5 13 -5 27 -6 30 -3 8 8 85 8 92 0 4 -3 18 -1 33 4 14 6 94 11
177 11 83 0 156 3 163 7 6 4 9 15 5 24 -4 13 -18 17 -53 17 -26 0 -50 -2 -53
-5z"/>
<path d="M7555 3121 c-25 -16 -58 -20 -215 -25 -275 -9 -404 -16 -625 -32
-110 -8 -247 -14 -305 -14 -71 0 -110 -4 -118 -12 -10 -10 -15 -10 -21 1 -6 9
-11 10 -15 2 -4 -7 -43 -11 -99 -11 -79 -1 -297 -14 -407 -25 -19 -2 -129 -6
-245 -10 -115 -3 -273 -10 -350 -15 -77 -6 -174 -12 -215 -15 -41 -2 -153 -9
-248 -15 -94 -6 -176 -9 -181 -5 -5 3 -12 1 -16 -5 -3 -6 -47 -10 -98 -10 -51
0 -153 -4 -227 -9 -172 -12 -266 -17 -755 -37 -260 -11 -403 -21 -408 -28 -6
-8 -10 -7 -14 2 -4 10 -8 10 -19 1 -18 -15 -367 -34 -622 -34 -94 0 -172 -3
-172 -7 0 -11 30 -38 63 -54 25 -14 54 -15 186 -9 192 8 190 8 225 -1 17 -4
31 -2 35 4 8 13 128 21 416 27 222 6 508 22 537 31 10 3 104 7 210 10 395 10
652 23 656 35 5 12 32 12 32 -1 0 -15 71 -12 89 4 12 11 70 15 252 20 130 3
249 10 264 16 20 7 31 7 41 -1 8 -6 22 -8 31 -4 10 4 72 9 138 11 139 5 206 9
328 19 68 6 91 5 97 -5 5 -8 13 -9 21 -4 8 5 25 10 39 12 14 1 32 5 40 8 8 3
63 5 122 4 66 -1 109 3 113 10 4 6 31 10 63 8 31 -1 67 2 78 6 14 4 27 1 37
-9 12 -11 16 -12 20 -2 2 8 25 11 72 10 40 -1 75 2 82 9 11 9 15 7 20 -11 l6
-22 19 21 c20 22 67 27 85 9 8 -8 17 -7 34 4 17 10 61 15 154 16 142 3 201 6
315 16 72 6 160 10 341 18 63 2 91 7 103 19 9 9 28 26 42 37 25 19 30 51 9 57
-5 2 -23 -5 -40 -15z"/>
<path d="M1293 3108 c-5 -7 -11 -76 -12 -153 -1 -77 -4 -155 -8 -172 -4 -28
-2 -34 18 -42 21 -7 25 -5 29 18 3 14 5 100 5 190 0 161 -6 192 -32 159z"/>
</g>
</svg>
