<?xml version="1.0" standalone="no"?>
<!DOCTYPE svg PUBLIC "-//W3C//DTD SVG 20010904//EN"
 "http://www.w3.org/TR/2001/REC-SVG-20010904/DTD/svg10.dtd">
<svg version="1.0" xmlns="http://www.w3.org/2000/svg"
 width="945.000000pt" height="612.000000pt" viewBox="0 0 945.000000 612.000000"
 preserveAspectRatio="xMidYMid meet">
<metadata>
Created by potrace 1.16, written by Peter Selinger 2001-2019
</metadata>
<g transform="translate(0.000000,612.000000) scale(0.100000,-0.100000)"
fill="#000000" stroke="none">
<path d="M5690 5105 c0 -9 -6 -12 -17 -8 -10 4 -14 2 -9 -5 4 -7 -7 -12 -31
-14 -36 -3 -38 -4 -35 -35 4 -36 -1 -38 -68 -33 -45 3 -47 6 -26 29 23 25 13
41 -23 41 -29 0 -57 -21 -44 -33 3 -4 -8 -7 -25 -7 -22 0 -32 -5 -32 -15 0 -8
-4 -15 -10 -15 -5 0 -19 -9 -31 -21 l-20 -20 -6 20 c-3 12 -13 21 -23 21 -10
0 -20 7 -24 15 -4 11 -21 15 -68 14 -35 -1 -56 -3 -47 -6 13 -3 16 -18 14 -78
-1 -68 -3 -76 -31 -102 -16 -15 -28 -31 -26 -35 1 -4 -14 -8 -33 -8 -28 0 -35
-4 -35 -20 0 -11 -7 -20 -15 -20 -18 0 -19 11 -2 29 10 11 9 13 -6 7 -10 -3
-25 -6 -33 -6 -8 0 -13 -6 -12 -12 2 -9 -12 -14 -41 -15 -24 -1 -45 -4 -48 -7
-5 -4 -11 -71 -13 -122 0 -15 -8 -24 -26 -28 -15 -4 -24 -10 -20 -13 9 -9 -14
-33 -33 -33 -9 0 -24 -9 -34 -20 -9 -11 -26 -20 -37 -20 -11 0 -20 -7 -20 -15
0 -17 -59 -30 -96 -21 -51 13 -64 0 -64 -62 0 -47 -5 -61 -24 -79 -13 -13 -29
-23 -35 -23 -6 0 -11 -7 -11 -15 0 -10 -10 -15 -29 -15 -21 0 -28 -5 -27 -17
0 -11 -7 -19 -21 -21 -12 -2 -25 -12 -28 -23 -5 -16 -15 -19 -58 -17 -45 2
-56 -2 -79 -25 -15 -15 -28 -40 -30 -59 -2 -26 -8 -34 -26 -36 -12 -2 -28 -12
-35 -23 -6 -10 -22 -19 -34 -19 -16 0 -21 -4 -17 -15 4 -11 -4 -16 -35 -21
-22 -4 -39 -11 -38 -17 3 -15 -42 -25 -93 -20 -25 3 -40 1 -35 -4 13 -10 13
-31 0 -41 -5 -4 -18 -24 -27 -44 -12 -26 -24 -38 -38 -38 -11 0 -23 -7 -26
-15 -3 -8 -15 -17 -25 -20 -11 -4 -34 -19 -51 -35 -33 -31 -30 -36 22 -42 21
-3 25 -9 28 -42 2 -22 10 -49 18 -60 9 -13 12 -32 8 -53 -5 -25 -2 -34 15 -45
17 -10 21 -23 21 -65 0 -40 4 -53 15 -53 10 0 15 -10 15 -28 0 -20 10 -38 34
-58 18 -17 37 -45 41 -62 5 -26 13 -34 36 -39 16 -3 34 -14 40 -24 7 -13 21
-19 45 -19 27 0 37 -5 41 -20 3 -11 11 -20 18 -20 7 0 15 -7 19 -15 7 -19 32
-19 40 0 4 12 10 10 30 -10 18 -18 36 -25 64 -25 21 0 43 -5 49 -11 8 -8 13
-8 17 0 10 15 47 13 70 -4 25 -19 50 -19 66 0 9 11 16 13 24 5 17 -17 98 -12
130 9 22 15 35 17 62 10 26 -8 39 -6 59 7 14 9 25 20 25 25 0 5 16 9 35 9 19
0 35 5 35 11 0 7 10 9 26 5 14 -4 42 -1 61 6 29 10 37 10 40 1 6 -18 48 -16
67 2 8 9 33 15 59 15 31 0 47 5 51 15 3 8 16 15 30 15 13 0 26 -7 30 -15 8
-21 28 -19 49 5 9 11 23 20 31 20 7 0 16 -9 19 -20 7 -27 58 -27 75 0 12 19
23 21 145 20 72 0 141 1 152 2 11 1 50 1 86 0 57 -2 67 -5 72 -22 4 -17 14
-20 55 -20 41 0 51 -3 55 -20 4 -16 14 -20 51 -20 29 0 46 -4 46 -12 0 -7 12
-24 26 -39 21 -22 32 -26 62 -22 32 4 40 1 60 -26 15 -20 31 -31 48 -31 17 0
28 -8 35 -27 27 -68 31 -72 68 -75 35 -3 36 -4 37 -43 0 -37 3 -40 30 -43 16
-2 38 -13 49 -25 21 -22 22 -26 24 -64 1 -13 7 -23 16 -23 8 0 15 -9 15 -19 0
-10 7 -21 15 -25 9 -3 15 -18 15 -38 0 -34 27 -68 64 -81 16 -6 18 -15 13 -53
-3 -31 0 -49 9 -59 8 -7 14 -19 14 -25 0 -7 6 -26 14 -43 8 -18 20 -65 26
-104 7 -40 16 -73 21 -73 5 0 9 -7 9 -15 0 -8 7 -15 15 -15 17 0 21 -45 5 -55
-6 -4 -5 -13 3 -26 10 -16 9 -21 -3 -29 -20 -13 -143 -13 -156 0 -8 8 -15 6
-24 -5 -7 -8 -18 -15 -25 -15 -8 0 -15 -6 -17 -12 -3 -9 -41 -14 -129 -16 -95
-2 -136 -8 -175 -23 -37 -15 -69 -19 -120 -17 l-69 3 -5 61 c-5 64 -21 94 -49
94 -15 0 -26 18 -50 83 -6 15 -15 27 -21 27 -5 0 -10 7 -10 16 0 19 -40 64
-57 64 -7 0 -13 8 -13 18 0 22 -31 52 -67 67 -16 7 -30 24 -37 45 -9 27 -16
35 -36 35 -15 0 -26 7 -28 18 -4 21 -31 22 -39 1 -5 -13 -8 -12 -27 5 -15 14
-26 17 -36 11 -16 -10 -40 5 -40 25 0 13 -30 25 -67 25 -13 0 -23 6 -23 14 0
17 -34 27 -70 19 -22 -4 -28 -1 -33 16 -7 27 -61 30 -72 4 -6 -17 -7 -17 -19
0 -7 9 -18 17 -25 17 -6 0 -11 7 -11 15 0 18 -37 20 -43 3 -3 -10 -9 -10 -29
1 -23 12 -29 11 -49 -3 -29 -20 -49 -21 -49 -1 0 10 -10 15 -29 15 -16 0 -34
-7 -41 -15 -16 -19 -30 -19 -30 -1 0 21 -156 21 -164 0 -7 -19 -62 -18 -70 1
-8 21 -62 19 -75 -2 -10 -17 -12 -17 -24 -2 -9 12 -31 18 -72 19 -33 1 -62 1
-65 0 -3 -1 -27 -4 -54 -5 -27 -1 -52 -8 -57 -16 -8 -12 -12 -11 -23 4 -17 21
-31 21 -112 0 -52 -14 -69 -15 -84 -5 -24 15 -70 16 -70 2 0 -16 -37 -12 -44
5 -3 8 -17 15 -31 15 -14 0 -28 -7 -31 -15 -7 -17 -34 -21 -34 -5 0 6 -7 10
-15 10 -8 0 -15 -4 -15 -10 0 -16 -60 -12 -66 5 -8 19 -28 19 -57 0 -15 -9
-52 -15 -103 -17 -82 -2 -114 -17 -114 -53 0 -8 -6 -15 -14 -15 -9 0 -13 11
-12 33 1 31 0 32 -44 35 -26 2 -48 10 -53 18 -10 18 -31 18 -67 -1 -27 -14
-30 -14 -40 5 -13 24 -52 26 -70 5 -12 -14 -17 -12 -41 15 -30 32 -59 40 -59
15 0 -10 -10 -15 -29 -15 -16 0 -31 6 -35 15 -7 19 -36 20 -36 0 0 -16 -43
-31 -59 -20 -6 3 -11 13 -11 21 0 8 -7 14 -15 14 -8 0 -15 -7 -15 -15 0 -8 -7
-15 -15 -15 -8 0 -15 6 -15 14 0 14 -55 30 -72 20 -5 -3 -18 2 -28 11 -10 9
-43 20 -71 24 -46 5 -54 9 -59 31 -5 19 -13 25 -31 25 -14 0 -33 6 -42 14 -10
7 -37 16 -62 19 -25 2 -45 9 -45 13 0 5 -9 18 -21 30 -16 16 -23 18 -34 9 -16
-14 -35 -5 -35 16 0 8 -7 14 -15 14 -8 0 -15 5 -15 11 0 7 -8 18 -17 24 -17
13 -17 14 0 33 17 18 16 20 -3 45 -17 22 -18 27 -6 34 8 4 18 31 22 61 6 49 5
54 -15 59 -11 3 -21 12 -21 19 0 19 -29 18 -50 -1 -13 -12 -64 -17 -240 -24
-197 -8 -225 -11 -237 -27 -7 -10 -13 -24 -13 -31 0 -21 -27 -15 -33 7 -5 18
-13 19 -128 17 -95 -1 -132 -6 -158 -19 -19 -10 -51 -18 -72 -18 -27 0 -42 -6
-53 -21 -11 -16 -22 -20 -46 -17 -26 4 -33 1 -40 -17 -8 -20 -14 -22 -54 -18
-37 5 -46 3 -46 -10 0 -23 -21 -32 -32 -13 -12 21 -24 20 -48 -4 -11 -11 -33
-20 -50 -20 -17 0 -33 -6 -36 -14 -3 -8 -28 -20 -55 -26 -27 -7 -49 -16 -49
-21 0 -5 -7 -9 -15 -9 -8 0 -23 -9 -32 -20 -10 -11 -22 -20 -29 -20 -6 0 -19
-9 -29 -20 -10 -11 -24 -20 -30 -20 -7 0 -19 -7 -26 -16 -7 -9 -24 -20 -37
-25 -13 -5 -26 -18 -29 -29 -3 -11 -12 -20 -20 -20 -15 0 -63 -47 -63 -61 0
-5 -7 -9 -15 -9 -8 0 -15 -9 -15 -20 0 -11 -7 -20 -15 -20 -8 0 -15 -7 -15
-16 0 -9 -7 -22 -15 -28 -8 -6 -19 -40 -24 -76 -6 -36 -15 -92 -20 -125 -6
-33 -11 -79 -11 -102 0 -23 -4 -45 -10 -48 -6 -4 -10 12 -10 39 0 42 -2 46
-25 46 -24 0 -25 -2 -25 -65 0 -51 -3 -65 -15 -65 -8 0 -14 -3 -14 -7 3 -21
-2 -33 -15 -33 -11 0 -15 -21 -18 -87 -5 -123 -2 -134 43 -166 21 -16 39 -35
39 -43 0 -10 13 -14 45 -14 35 0 45 -4 45 -16 0 -13 -8 -15 -34 -12 -19 2 -32
0 -30 -4 3 -4 41 -8 85 -8 69 0 79 -2 79 -18 0 -14 10 -17 61 -18 45 -1 65 -5
74 -17 7 -10 23 -17 37 -17 56 0 118 -13 118 -25 0 -16 44 -25 86 -18 39 6 76
-11 67 -33 -5 -14 3 -16 58 -14 93 4 99 3 99 -21 0 -20 4 -21 49 -16 64 8 121
-2 121 -19 0 -9 12 -14 33 -15 17 -1 41 -2 52 -3 11 -1 32 -3 48 -4 16 -1 27
-8 27 -17 0 -12 15 -15 73 -15 85 0 117 -7 117 -26 0 -11 20 -14 88 -14 105 0
133 -6 125 -27 -5 -14 4 -15 70 -8 48 4 77 3 77 -3 0 -5 19 -7 45 -4 43 4 45
4 45 -22 0 -24 3 -26 40 -26 22 0 40 5 40 10 0 6 11 10 25 10 14 0 25 -4 25
-10 0 -5 30 -9 68 -8 57 1 67 -1 66 -15 -2 -15 20 -17 217 -17 248 1 323 -6
315 -26 -5 -12 112 -14 724 -14 615 0 730 2 730 14 0 20 32 26 148 26 73 0
101 3 96 11 -10 17 15 28 53 23 18 -2 33 0 33 6 0 13 87 13 95 0 3 -5 16 -10
29 -10 17 0 22 6 22 22 -1 19 6 24 49 30 28 5 74 6 102 2 44 -4 52 -3 47 9 -7
20 24 27 123 27 66 0 81 3 77 14 -7 19 26 26 120 26 58 0 82 4 90 15 8 11 40
17 114 21 70 5 102 11 102 19 0 17 101 27 173 19 40 -5 57 -3 57 5 0 6 -5 11
-12 11 -6 0 -3 6 8 14 15 11 45 13 138 9 108 -5 118 -4 113 11 -10 25 36 38
118 35 117 -4 211 1 197 10 -23 14 12 21 114 21 87 0 94 -1 94 -20 0 -11 -7
-20 -15 -20 -13 0 -15 -31 -15 -215 0 -207 1 -215 20 -215 13 0 18 -5 14 -15
-7 -18 -90 -17 800 -16 659 1 730 3 741 17 10 14 38 17 187 18 161 1 174 2
170 19 -5 19 18 23 126 18 57 -3 62 -1 62 18 0 18 6 21 45 21 38 0 45 3 45 20
0 14 7 20 24 20 20 0 23 4 19 21 -6 20 -3 21 23 15 21 -5 25 -4 14 3 -13 9
-15 70 -18 432 l-2 422 -28 36 c-15 20 -26 40 -24 44 1 5 -7 11 -18 14 -11 3
-20 14 -20 24 0 11 -7 19 -15 19 -8 0 -15 3 -14 8 1 21 36 140 47 159 7 12 12
30 12 40 0 10 7 31 15 47 8 15 15 44 15 64 0 32 17 96 53 202 17 49 18 527 2
534 -7 2 -15 31 -18 63 -3 32 -13 75 -22 96 -8 20 -15 49 -15 65 0 15 -7 37
-15 48 -8 10 -15 33 -15 49 0 17 -6 39 -14 50 -7 11 -17 36 -21 55 -4 19 -11
40 -15 45 -5 6 -11 31 -15 57 -4 26 -13 53 -21 59 -8 6 -14 28 -14 49 0 22 -8
48 -20 63 -12 15 -20 41 -20 64 -1 21 -7 49 -15 63 -8 14 -14 44 -15 66 0 28
-5 44 -15 48 -8 3 -15 12 -15 20 0 9 6 13 14 10 16 -6 26 34 15 63 -5 15 -20
23 -48 28 -25 4 -41 12 -41 21 0 11 -18 14 -80 14 -61 0 -80 -3 -80 -14 0 -17
-44 -26 -133 -26 -54 0 -73 -4 -82 -17 -11 -15 -31 -17 -124 -17 -61 0 -111
-4 -111 -8 0 -4 5 -8 11 -8 5 0 7 -4 4 -10 -3 -5 -24 -10 -46 -10 -21 0 -39
-4 -39 -10 0 -10 -53 -14 -62 -4 -3 3 -4 14 -1 24 4 14 16 20 52 23 l46 3 -48
2 c-41 2 -50 -1 -54 -18 -4 -14 -14 -20 -34 -20 -29 0 -40 -14 -16 -23 32 -12
-49 -26 -118 -20 -71 6 -75 5 -75 -14 0 -27 -24 -33 -143 -33 -72 0 -96 -3
-95 -12 2 -9 -28 -15 -105 -22 -130 -10 -313 2 -310 22 2 9 -21 12 -90 12
-109 0 -134 6 -140 31 -4 16 -12 18 -60 14 -41 -4 -59 -2 -70 10 -9 8 -24 15
-34 15 -32 0 -73 24 -73 42 0 14 -8 18 -41 16 -27 -1 -46 4 -53 13 -6 9 -19
18 -28 22 -10 3 -18 13 -18 22 0 10 -10 15 -29 15 -20 0 -30 6 -34 20 -3 12
-14 20 -25 20 -11 0 -27 6 -34 13 -7 7 -21 16 -31 20 -11 4 -21 16 -24 27 -4
14 -14 20 -34 20 -22 0 -29 5 -29 20 0 15 -7 20 -29 20 -19 0 -32 6 -36 18 -3
9 -24 26 -46 36 -23 10 -44 27 -46 37 -3 11 -11 19 -18 19 -7 0 -21 12 -31 26
-37 50 -52 65 -65 62 -7 -2 -15 5 -17 16 -2 11 0 16 7 12 6 -4 11 -1 11 8 0 8
-6 17 -12 19 -10 4 -9 8 2 16 12 8 8 11 -17 11 -30 0 -33 -3 -33 -30 0 -42 30
-160 47 -185 15 -22 18 -65 4 -65 -5 0 -11 7 -15 15 -3 8 -10 15 -16 15 -6 0
-23 11 -38 25 -15 14 -32 25 -39 25 -7 0 -10 7 -7 15 4 9 -1 18 -12 22 -22 8
-54 40 -54 53 0 6 -11 15 -24 20 -14 5 -25 19 -29 37 -4 23 1 33 26 55 18 15
37 27 42 28 6 0 21 12 34 25 13 14 27 25 32 25 5 0 9 7 9 15 0 11 -11 15 -40
15 -29 0 -40 -4 -40 -15z m-2070 -3416 c47 -5 189 -12 316 -15 196 -6 239 -4
286 10 31 9 82 16 115 16 l58 -1 -40 -17 c-37 -16 -94 -17 -664 -14 -344 1
-629 6 -635 11 -6 5 -20 11 -31 14 -37 9 509 6 595 -4z"/>
</g>
</svg>
