<?xml version="1.0" standalone="no"?>
<!DOCTYPE svg PUBLIC "-//W3C//DTD SVG 20010904//EN"
 "http://www.w3.org/TR/2001/REC-SVG-20010904/DTD/svg10.dtd">
<svg version="1.0" xmlns="http://www.w3.org/2000/svg"
 width="1127.000000pt" height="1125.000000pt" viewBox="0 0 1127.000000 1125.000000"
 preserveAspectRatio="xMidYMid meet">
<metadata>
Created by potrace 1.16, written by Peter Selinger 2001-2019
</metadata>
<g transform="translate(0.000000,1125.000000) scale(0.100000,-0.100000)"
fill="#000000" stroke="none">
<path d="M5144 9477 c-35 -30 -48 -131 -27 -196 20 -59 5 -112 -34 -131 l-28
-13 30 -9 c32 -10 217 7 245 22 19 10 16 61 -5 72 -8 5 -15 19 -15 30 0 12 -8
30 -17 40 -12 13 -16 33 -14 68 2 47 -16 101 -39 115 -6 4 -24 10 -41 15 -24
7 -34 5 -55 -13z"/>
<path d="M6472 9353 c2 -11 14 -19 31 -21 22 -3 27 -8 27 -30 0 -21 14 -38 59
-74 32 -27 68 -48 79 -48 12 0 23 -9 27 -20 7 -22 100 -120 115 -120 5 0 11
-8 14 -18 4 -10 22 -34 41 -53 19 -18 35 -40 35 -46 0 -7 12 -20 28 -30 37
-24 42 -32 42 -75 0 -29 7 -42 33 -63 58 -47 79 -69 104 -108 13 -21 49 -62
79 -91 39 -39 54 -60 54 -80 0 -31 43 -92 71 -101 10 -4 22 -17 25 -30 3 -13
12 -29 20 -36 8 -6 14 -24 14 -38 0 -16 10 -37 25 -51 53 -50 28 -67 -110 -75
-61 -4 -115 -11 -122 -16 -7 -7 -13 -6 -18 1 -10 16 -55 12 -89 -9 -27 -16
-38 -17 -93 -8 -60 10 -64 10 -88 -13 l-26 -24 -35 19 c-32 17 -37 18 -48 4
-8 -11 -36 -15 -111 -17 -94 -3 -140 -11 -192 -35 -15 -7 -30 -5 -52 6 -27 13
-35 13 -73 0 -23 -8 -46 -20 -50 -26 -5 -9 -10 -9 -20 1 -17 17 -79 15 -104
-3 -19 -13 -51 -16 -164 -17 -14 0 -32 -6 -40 -13 -13 -11 -79 -23 -165 -28
-16 -1 -36 -6 -43 -10 -20 -14 -86 -16 -100 -5 -9 8 -20 8 -38 -1 -14 -6 -47
-11 -73 -11 -31 0 -53 -5 -61 -15 -7 -8 -22 -15 -33 -15 -11 0 -26 -8 -33 -17
-11 -15 -16 -16 -33 -5 -27 16 -71 15 -95 -3 -13 -10 -44 -15 -92 -15 -48 0
-75 -4 -83 -14 -7 -8 -45 -16 -103 -20 -51 -4 -97 -11 -103 -15 -5 -5 -30 -11
-55 -14 -25 -3 -76 -13 -115 -21 -38 -9 -85 -16 -103 -16 -18 0 -41 -4 -50 -9
-9 -5 -57 -14 -106 -20 -49 -6 -94 -15 -100 -20 -6 -5 -42 -12 -80 -16 -39 -4
-79 -13 -90 -20 -12 -7 -54 -15 -94 -18 -41 -3 -79 -10 -85 -16 -7 -5 -41 -13
-77 -16 -37 -4 -74 -15 -85 -24 -11 -9 -37 -23 -57 -29 -32 -11 -42 -11 -68 3
-27 14 -34 15 -48 2 -24 -19 -102 -47 -135 -47 -14 0 -45 -10 -67 -21 -31 -16
-50 -20 -81 -15 -28 4 -53 1 -87 -13 -55 -23 -141 -34 -161 -22 -15 10 -7 64
15 96 8 11 14 29 14 41 0 12 6 27 14 33 7 6 16 26 19 45 3 18 19 55 36 83 17
28 31 60 31 72 0 27 24 75 51 102 10 10 19 24 19 31 0 23 41 95 70 123 16 16
30 38 30 50 0 12 13 34 30 50 24 23 27 31 19 48 -11 19 1 36 24 37 4 0 13 12
19 28 7 15 25 40 40 56 20 21 26 36 22 53 -5 18 2 31 32 58 21 19 43 35 49 35
20 0 66 56 60 72 -4 10 19 40 65 86 38 39 70 78 70 85 0 8 9 22 20 32 25 23
26 52 1 60 -28 8 -50 -4 -115 -62 -32 -29 -63 -50 -67 -47 -16 10 -31 -7 -19
-21 9 -10 4 -13 -21 -12 -18 1 -34 -4 -36 -10 -3 -7 2 -13 11 -13 23 0 20 -18
-5 -25 -15 -5 -19 -13 -15 -29 4 -16 -6 -33 -44 -69 -28 -27 -50 -56 -50 -65
0 -20 -53 -82 -69 -82 -6 0 -11 -10 -11 -23 0 -12 -13 -38 -30 -57 -16 -20
-29 -47 -30 -62 0 -18 -9 -33 -26 -44 -18 -13 -24 -24 -21 -40 3 -16 -4 -28
-25 -44 -15 -11 -28 -29 -28 -38 0 -10 -13 -31 -30 -47 -19 -18 -30 -39 -30
-56 0 -14 -9 -38 -20 -52 -11 -14 -17 -32 -14 -41 4 -11 -2 -19 -20 -26 -18
-6 -26 -17 -26 -34 0 -13 -7 -29 -15 -36 -8 -7 -15 -23 -15 -37 0 -13 -7 -31
-15 -39 -9 -10 -15 -34 -15 -63 0 -35 -7 -56 -25 -81 -14 -19 -25 -41 -25 -51
0 -9 -11 -24 -25 -33 -14 -9 -25 -24 -25 -33 0 -8 -10 -26 -22 -38 -13 -13
-29 -30 -36 -39 -7 -9 -24 -16 -37 -16 -14 0 -33 -9 -42 -20 -10 -11 -25 -20
-33 -20 -25 0 -97 -38 -103 -54 -3 -8 -30 -19 -59 -25 -29 -7 -76 -24 -105
-40 -32 -18 -56 -25 -65 -20 -7 5 -22 2 -36 -7 -13 -9 -30 -13 -38 -10 -8 3
-24 -5 -36 -19 -16 -18 -32 -25 -58 -25 -27 0 -45 -8 -68 -29 -17 -17 -47 -33
-66 -37 -20 -3 -39 -10 -42 -15 -3 -5 -16 -6 -28 -3 -17 4 -31 -2 -50 -20 -14
-15 -39 -29 -56 -32 -16 -4 -35 -13 -41 -20 -6 -8 -21 -14 -33 -14 -22 0 -61
-23 -90 -52 -11 -11 -32 -18 -56 -18 -29 0 -41 -6 -54 -25 -10 -15 -29 -26
-53 -30 -21 -4 -50 -15 -65 -26 -15 -10 -35 -19 -43 -19 -9 0 -40 -20 -68 -45
-34 -30 -61 -45 -79 -45 -18 0 -41 -14 -70 -41 -71 -67 -73 -69 -108 -69 -28
0 -41 -9 -79 -51 -40 -45 -52 -52 -93 -56 -34 -4 -49 -11 -53 -24 -3 -10 -32
-38 -65 -62 -32 -24 -80 -67 -106 -96 -40 -43 -52 -51 -83 -51 -30 0 -44 -8
-85 -50 -42 -42 -55 -50 -87 -50 -29 0 -43 -6 -63 -31 -14 -17 -26 -35 -26
-40 0 -5 -33 -42 -74 -83 -69 -69 -116 -142 -116 -179 0 -20 33 -39 55 -31 8
4 23 21 32 38 18 36 61 75 83 76 8 0 34 -8 58 -17 33 -14 45 -25 49 -46 3 -15
33 -55 69 -91 35 -36 64 -68 64 -73 0 -5 14 -28 31 -51 46 -63 79 -130 79
-162 0 -16 4 -31 8 -34 5 -3 15 -31 22 -63 8 -32 27 -76 43 -98 26 -36 28 -46
24 -100 -3 -45 0 -69 14 -97 11 -21 19 -41 19 -47 0 -5 -20 -30 -45 -57 -48
-50 -55 -73 -29 -98 28 -28 60 -19 96 26 18 23 49 58 70 79 20 20 38 44 40 53
2 11 27 27 63 40 83 32 253 85 295 92 19 3 59 15 88 25 30 11 75 21 102 22 27
2 54 8 62 14 7 6 40 13 73 16 33 3 76 8 95 12 65 12 265 15 313 4 36 -8 51 -8
62 1 10 9 29 10 67 3 29 -5 73 -6 98 -2 56 8 263 -6 310 -20 19 -6 47 -9 62
-5 15 3 66 -4 113 -16 47 -11 90 -18 94 -15 8 4 30 1 186 -26 33 -6 69 -16 80
-23 11 -7 56 -16 100 -20 44 -4 90 -14 102 -22 12 -8 35 -14 51 -14 16 0 35
-7 42 -15 7 -8 18 -15 25 -15 29 0 115 -54 144 -90 26 -33 29 -42 21 -70 -10
-34 0 -65 22 -73 22 -7 67 25 110 80 41 51 42 52 87 46 33 -3 52 0 66 11 48
38 104 70 150 87 28 10 73 29 100 42 28 13 68 27 90 31 22 4 47 14 55 21 8 7
44 21 80 31 36 9 81 25 100 34 19 9 60 22 90 29 30 7 69 18 85 26 49 21 100
35 129 35 14 0 37 7 51 16 13 8 50 18 82 21 32 3 74 14 93 23 19 10 66 23 105
30 38 6 75 16 81 21 7 6 45 13 86 16 40 3 80 11 88 18 8 7 46 15 85 19 38 4
75 12 83 18 20 17 32 -7 32 -63 0 -25 6 -68 14 -95 8 -27 17 -80 20 -119 4
-38 11 -75 17 -81 5 -7 7 -23 4 -37 -4 -13 -1 -44 6 -68 15 -50 19 -86 19
-147 -1 -23 6 -52 15 -64 10 -15 15 -46 15 -96 0 -40 5 -83 11 -95 7 -11 13
-52 14 -89 1 -37 8 -74 14 -82 7 -8 15 -52 18 -98 2 -45 10 -92 16 -103 10
-19 27 -140 28 -195 0 -14 3 -32 6 -40 3 -8 7 -28 9 -45 13 -162 18 -203 30
-222 8 -13 14 -49 14 -89 0 -36 6 -80 14 -97 8 -18 16 -66 19 -109 3 -42 11
-86 17 -99 8 -15 11 -44 7 -85 -4 -39 -2 -64 4 -66 6 -2 12 -30 15 -63 3 -33
11 -82 19 -110 8 -27 15 -87 17 -132 2 -72 0 -85 -20 -112 -12 -17 -22 -38
-22 -47 0 -10 -8 -26 -17 -36 -14 -15 -15 -23 -5 -38 8 -14 9 -34 1 -76 -6
-31 -7 -68 -3 -83 4 -14 8 -71 9 -126 1 -55 6 -109 11 -120 6 -11 8 -36 5 -55
-6 -34 -7 -35 -51 -36 -25 0 -56 -6 -70 -12 -57 -25 -69 -44 -88 -134 -11 -49
-15 -93 -11 -100 5 -7 9 -45 9 -85 0 -39 5 -84 11 -100 6 -15 13 -53 16 -83 3
-35 13 -68 29 -91 13 -19 24 -42 24 -51 0 -9 5 -20 10 -23 6 -3 10 -15 10 -27
0 -26 35 -91 77 -145 18 -23 33 -45 33 -50 0 -4 24 -18 53 -31 28 -12 65 -29
80 -37 16 -8 38 -15 50 -15 33 0 117 61 124 90 3 14 12 34 19 45 8 11 14 28
14 37 0 10 4 26 10 36 25 46 29 309 6 497 -2 17 -9 73 -15 126 -5 53 -14 116
-19 140 -12 56 -17 149 -13 263 1 64 -2 93 -12 105 -7 9 -14 40 -15 69 -2 58
-17 92 -94 219 -43 70 -51 91 -53 141 -2 32 -10 80 -19 106 -9 26 -15 68 -15
94 1 26 -8 100 -20 166 -11 65 -21 142 -21 170 -1 28 -7 62 -15 76 -8 15 -14
53 -15 93 0 37 -7 84 -15 104 -8 19 -15 61 -15 92 0 31 -7 69 -15 85 -9 17
-15 53 -15 85 1 31 -3 72 -9 91 -6 19 -11 62 -11 95 0 34 -5 66 -10 71 -6 6
-15 51 -20 100 -5 49 -17 127 -25 174 -26 139 -46 283 -46 320 0 19 -8 62 -18
95 -10 33 -18 87 -19 120 -1 34 -6 74 -12 90 -6 17 -13 60 -15 97 -2 37 -8 76
-14 87 -6 11 -11 37 -11 59 0 34 6 45 46 82 43 40 48 42 89 35 32 -4 53 -1 77
11 34 18 140 33 281 39 42 2 94 9 114 16 21 7 63 13 93 15 30 2 96 6 145 9
227 14 670 8 710 -10 17 -8 38 -16 48 -19 9 -3 22 -17 27 -31 8 -20 16 -25 43
-25 32 0 77 32 77 56 0 5 18 29 40 53 22 25 40 50 40 57 0 20 186 198 239 228
9 5 41 30 71 56 30 26 91 69 135 95 44 26 83 53 88 60 4 8 33 26 65 40 31 15
71 37 87 49 34 26 116 66 133 66 6 0 26 9 45 20 18 11 56 23 83 26 27 4 54 12
59 19 18 21 69 43 127 54 32 5 76 19 100 31 23 11 60 20 83 20 22 0 50 7 61
15 12 8 52 17 90 21 38 3 86 15 107 25 23 11 59 19 90 19 29 0 58 5 65 12 6 6
49 13 94 16 46 2 90 10 98 17 10 8 71 15 175 19 88 4 164 11 170 17 5 5 46 9
90 9 76 0 83 2 108 28 31 32 34 67 11 101 -14 19 -14 27 -4 47 11 19 11 26 0
39 -7 8 -14 46 -16 83 -1 37 -6 79 -10 95 -3 15 -2 33 4 40 6 6 15 50 22 97
14 108 68 217 139 284 21 21 31 39 31 60 0 45 -22 95 -44 102 -12 4 -40 24
-63 45 -42 39 -81 56 -107 46 -7 -3 -20 3 -29 14 -15 17 -20 18 -49 6 -35 -15
-32 -15 -133 29 -32 14 -47 15 -78 7 -34 -9 -42 -8 -66 12 -23 20 -38 23 -111
24 -69 0 -87 4 -98 18 -10 14 -29 18 -88 20 -55 1 -81 6 -94 18 -13 12 -33 16
-67 14 -85 -5 -131 1 -148 18 -12 11 -32 16 -66 14 -31 -1 -65 6 -94 19 -26
12 -65 20 -96 20 -34 0 -56 5 -63 15 -8 10 -36 15 -101 16 -57 2 -99 7 -114
17 -13 7 -55 15 -93 17 -44 2 -76 9 -87 19 -11 10 -38 15 -87 15 -54 0 -81 5
-113 21 -32 17 -51 21 -84 16 -36 -6 -46 -3 -62 14 -16 18 -30 20 -121 20 -83
0 -105 3 -112 16 -7 12 -26 15 -86 16 -76 0 -77 0 -83 28 -4 22 -12 29 -37 34
-80 14 -96 20 -130 52 -29 28 -36 41 -36 73 0 29 -6 42 -22 53 -13 9 -42 34
-65 58 -34 33 -43 50 -43 77 0 36 4 31 -174 216 -56 57 -66 74 -66 103 0 30
-11 46 -85 120 -47 47 -85 90 -85 96 0 6 -22 32 -50 59 -27 27 -50 52 -50 57
0 17 -93 101 -119 107 -14 4 -33 13 -42 21 -8 8 -37 17 -64 21 -26 3 -56 14
-67 25 -23 23 -51 24 -46 1z m962 -1329 c4 -13 23 -39 43 -59 30 -29 43 -35
81 -35 50 0 78 22 114 92 22 42 25 44 52 23 13 -10 43 -15 82 -15 45 0 65 -4
71 -15 6 -11 30 -15 85 -17 64 -2 78 -5 81 -20 4 -15 17 -18 79 -20 40 0 83 0
94 1 12 1 27 -5 34 -14 9 -11 32 -15 84 -15 47 0 81 -6 101 -16 19 -11 59 -18
108 -20 57 -2 84 -7 98 -19 13 -12 38 -18 81 -19 38 -1 63 -7 66 -14 2 -7 16
-12 31 -12 28 0 104 -65 138 -117 11 -17 21 -21 39 -17 15 4 24 2 24 -6 0 -7
29 -39 65 -72 35 -33 67 -68 70 -78 3 -11 31 -31 60 -45 30 -14 62 -37 71 -50
10 -15 26 -25 41 -25 16 0 37 -14 61 -42 94 -107 127 -138 143 -133 11 4 25
-5 40 -26 13 -17 54 -60 92 -96 37 -36 67 -70 67 -75 0 -5 32 -41 70 -80 39
-39 70 -76 70 -83 0 -6 18 -26 40 -44 22 -17 40 -38 40 -45 0 -22 -81 -49
-155 -52 -140 -5 -239 -15 -251 -25 -7 -5 -43 -11 -82 -14 -39 -2 -94 -11
-123 -19 -29 -9 -70 -16 -91 -16 -21 0 -49 -7 -63 -16 -13 -8 -50 -18 -82 -21
-32 -2 -72 -11 -90 -19 -17 -8 -60 -14 -95 -14 -39 0 -71 -6 -84 -14 -11 -8
-38 -18 -60 -22 -21 -4 -71 -22 -111 -40 -40 -19 -77 -34 -83 -34 -6 0 -18 -4
-28 -9 -38 -21 -110 -51 -162 -67 -30 -10 -64 -27 -75 -39 -11 -12 -53 -37
-92 -56 -40 -19 -76 -42 -79 -52 -5 -17 -117 -77 -142 -77 -6 0 -19 -11 -28
-25 -9 -14 -23 -25 -30 -25 -8 0 -17 -6 -20 -14 -5 -14 -98 -92 -163 -136 -76
-52 -110 -82 -134 -118 -29 -45 -84 -102 -98 -102 -5 0 -9 6 -9 13 0 6 -13 26
-28 42 -37 39 -82 136 -76 161 4 13 -9 32 -44 65 -48 45 -49 48 -56 120 -4 44
-13 80 -22 90 -9 10 -13 23 -9 29 4 6 -9 27 -30 48 -22 23 -34 43 -32 54 3 10
-6 29 -19 43 -15 17 -24 38 -24 59 0 20 -6 36 -14 39 -8 3 -17 19 -21 36 -4
17 -11 33 -16 36 -5 4 -9 15 -9 25 0 10 -7 23 -16 28 -14 8 -14 12 -3 30 12
19 10 25 -19 55 -17 18 -32 41 -32 52 0 10 -7 26 -15 35 -9 10 -19 35 -22 56
-4 24 -16 47 -35 62 -16 14 -28 34 -28 47 0 35 -15 67 -45 97 -15 15 -25 34
-22 41 4 12 -42 93 -61 107 -5 3 -16 23 -26 45 -10 22 -28 50 -39 63 -14 15
-20 34 -19 57 2 26 -2 35 -18 40 -11 4 -27 20 -35 36 -9 16 -21 29 -27 29 -9
0 -9 3 0 12 17 17 15 47 -3 54 -8 4 -15 12 -15 20 0 7 -9 18 -19 24 -11 5 -25
26 -31 46 -21 63 -70 126 -130 165 -18 12 -24 25 -25 61 -1 25 -5 50 -9 57 -5
8 11 11 56 11 41 0 71 5 84 15 22 17 60 20 69 5 9 -15 72 -12 103 4 15 8 57
14 94 15 38 0 77 6 87 13 15 9 25 9 46 0 20 -9 31 -10 40 -2 8 6 40 14 72 17
32 3 63 10 70 15 7 6 19 5 32 -1 30 -16 82 -13 120 7 46 25 127 10 135 -24z
m-1190 -73 c3 -4 19 -11 35 -14 33 -7 75 -69 67 -100 -3 -13 11 -33 49 -70 68
-65 105 -115 98 -133 -2 -7 16 -38 41 -69 35 -43 46 -65 46 -91 0 -24 5 -37
18 -41 35 -13 61 -47 55 -74 -3 -17 3 -34 19 -55 13 -16 33 -49 43 -74 11 -25
34 -66 52 -92 18 -26 33 -51 33 -56 0 -4 13 -23 30 -42 16 -19 29 -46 30 -60
1 -47 12 -71 41 -86 25 -13 27 -17 17 -34 -10 -15 -9 -23 6 -39 10 -11 19 -34
21 -51 1 -17 14 -43 29 -58 17 -19 26 -39 26 -61 0 -18 9 -44 20 -58 11 -14
20 -31 20 -38 0 -7 7 -18 15 -25 8 -7 15 -28 15 -47 0 -37 42 -103 66 -103 17
0 17 -5 4 -29 -7 -14 -5 -23 10 -36 12 -11 20 -31 20 -51 0 -23 9 -42 29 -63
24 -25 31 -42 36 -96 6 -57 11 -68 36 -86 21 -15 29 -29 29 -50 0 -20 12 -46
35 -73 32 -40 35 -48 35 -111 l0 -67 -27 7 c-16 5 -89 9 -163 10 -74 1 -149 5
-166 9 -21 5 -44 2 -66 -7 -23 -10 -40 -12 -52 -5 -23 13 -312 11 -338 -3 -12
-6 -44 -11 -72 -11 -49 0 -278 -27 -401 -49 -33 -6 -95 -14 -138 -18 -42 -4
-83 -13 -89 -19 -21 -21 -25 -14 -32 48 -4 33 -11 60 -15 60 -18 0 -20 33 -4
60 18 31 18 30 -25 120 -23 47 -29 90 -12 90 12 0 13 37 1 44 -5 3 -12 32 -16
63 -4 32 -12 64 -18 71 -7 9 -7 16 1 24 16 16 15 51 0 66 -7 7 -16 45 -20 85
-4 40 -13 109 -20 155 -10 73 -10 88 5 130 9 26 17 66 17 89 0 33 -5 45 -27
61 l-27 19 29 29 c28 28 29 31 27 127 -1 69 -6 104 -17 120 -8 12 -15 30 -15
39 0 10 -4 26 -9 36 -22 44 -29 84 -20 114 7 25 5 39 -11 65 -28 48 -25 75 15
118 20 20 42 51 49 69 15 35 79 91 111 97 11 3 25 16 32 30 7 14 33 44 58 65
24 21 76 69 115 107 39 37 74 67 79 67 4 0 25 14 46 30 37 29 78 39 89 21z
m-427 -98 c4 -12 -12 -31 -66 -73 -17 -14 -31 -31 -31 -40 0 -8 -19 -34 -42
-57 -44 -45 -81 -55 -92 -27 -6 16 7 70 25 106 5 10 9 29 9 42 0 41 52 67 129
64 39 -2 66 -8 68 -15z m-277 -38 c0 -8 -4 -17 -10 -20 -5 -3 -10 -18 -10 -33
0 -15 -7 -40 -15 -56 -8 -15 -15 -37 -15 -47 0 -10 -12 -25 -28 -33 -23 -12
-30 -12 -47 0 -10 8 -27 14 -36 14 -31 0 -80 54 -90 101 -9 39 -8 46 12 61 24
21 37 22 73 8 18 -7 29 -6 37 3 17 18 129 19 129 2z m3656 -31 c7 -9 32 -14
72 -14 46 0 63 -4 70 -17 8 -13 27 -16 100 -18 69 -1 94 -6 107 -18 12 -13 35
-17 94 -17 54 0 82 -4 90 -14 6 -7 43 -16 88 -20 49 -4 83 -12 94 -22 14 -12
31 -15 69 -12 40 4 53 1 66 -13 10 -11 31 -19 47 -19 43 0 108 -21 114 -37 3
-8 -15 -34 -43 -61 -89 -85 -118 -146 -134 -282 -5 -47 -13 -113 -19 -147 -5
-35 -7 -86 -5 -114 2 -29 1 -56 -2 -61 -7 -11 -64 50 -64 68 0 6 -14 22 -31
35 -69 52 -99 82 -99 97 0 16 -16 36 -59 75 -58 53 -85 84 -114 130 -10 15
-24 27 -33 27 -32 0 -91 45 -138 106 -39 52 -54 64 -76 64 -21 0 -39 12 -68
45 -23 26 -43 41 -47 35 -11 -19 -30 -10 -52 26 -13 20 -23 39 -23 44 0 5 -13
16 -30 25 -16 9 -30 20 -30 25 0 5 -16 24 -37 43 -25 24 -34 40 -29 52 5 14
14 16 59 10 28 -4 57 -13 63 -21z m-4018 -14 c27 -17 32 -25 32 -60 0 -39 6
-48 55 -88 9 -8 15 -21 13 -30 -4 -23 -56 -29 -64 -8 -3 9 -14 16 -23 16 -21
0 -141 111 -141 130 1 12 60 50 90 59 3 0 20 -8 38 -19z m-457 -105 c13 -19
32 -35 42 -35 24 0 126 -58 161 -92 16 -15 39 -27 50 -26 21 2 130 -54 141
-73 4 -5 17 -9 29 -9 13 0 29 -7 36 -15 7 -8 20 -15 30 -15 52 0 97 -87 103
-197 2 -33 7 -67 13 -75 17 -22 35 -107 28 -134 -4 -15 0 -34 10 -49 9 -13 16
-33 16 -43 0 -11 13 -37 29 -59 18 -25 28 -49 25 -61 -4 -12 0 -22 10 -25 22
-9 20 -32 -6 -85 l-21 -45 46 -44 c49 -46 55 -58 35 -66 -10 -3 -10 -9 0 -26
6 -11 12 -32 12 -45 0 -14 5 -28 10 -31 6 -4 8 -16 5 -27 -4 -12 0 -27 10 -39
15 -15 15 -21 5 -34 -9 -10 -9 -19 -2 -27 5 -7 13 -40 17 -73 4 -33 13 -63 19
-67 8 -5 8 -13 -1 -28 -18 -28 -16 -63 5 -76 15 -10 17 -20 12 -60 -4 -30 -1
-59 6 -74 6 -14 15 -65 19 -115 4 -49 14 -99 21 -110 17 -24 18 -87 2 -103 -7
-7 -31 -12 -55 -12 -24 0 -60 -7 -80 -15 -19 -8 -58 -15 -85 -15 -27 0 -63 -7
-80 -16 -17 -9 -62 -20 -100 -25 -37 -5 -78 -15 -90 -23 -13 -7 -54 -16 -92
-20 -38 -3 -76 -12 -85 -20 -9 -8 -50 -19 -91 -25 -44 -7 -86 -20 -103 -32
-15 -11 -32 -17 -38 -13 -6 3 -19 -2 -29 -11 -12 -11 -26 -14 -40 -10 -13 4
-28 1 -38 -7 -9 -8 -44 -23 -77 -33 -33 -10 -74 -26 -92 -37 -18 -10 -65 -28
-105 -39 -40 -11 -82 -28 -93 -38 -11 -9 -47 -26 -80 -36 -33 -11 -79 -32
-101 -47 -23 -16 -47 -28 -52 -28 -17 0 -62 64 -62 87 0 11 7 26 15 33 9 7 15
29 15 51 0 22 5 48 12 58 9 15 9 29 -1 60 -10 35 -10 45 4 63 8 13 15 31 15
42 0 11 7 28 17 38 13 15 14 23 5 44 -15 31 -15 71 -2 79 6 4 10 36 8 73 -2
81 11 192 24 209 6 7 7 20 4 29 -4 9 -2 22 4 29 6 7 11 63 12 124 1 96 3 113
19 121 12 7 18 25 21 62 3 29 10 67 16 83 17 48 42 161 42 189 0 15 7 29 15
32 21 8 28 40 14 65 -10 19 -8 25 10 38 14 11 20 23 16 33 -4 9 2 33 13 55 10
21 22 62 25 92 4 29 14 65 23 79 11 16 15 37 11 61 -3 24 1 44 10 57 9 12 12
31 8 52 -5 28 -3 33 20 42 20 8 24 14 20 33 -4 15 -1 28 9 36 9 8 16 24 16 36
0 12 7 28 15 35 9 8 15 30 15 59 0 26 7 56 15 67 8 10 15 29 15 42 0 12 7 25
15 28 8 4 15 18 15 34 0 15 7 33 15 40 9 7 13 20 10 29 -9 29 91 100 141 101
25 0 36 -7 55 -35z m-301 -64 c0 -17 -4 -33 -10 -36 -5 -3 -10 -16 -10 -28 0
-12 -9 -33 -20 -47 -11 -14 -20 -37 -20 -52 0 -15 -4 -29 -9 -33 -5 -3 -17
-31 -26 -63 -9 -31 -23 -64 -30 -72 -31 -37 -36 -59 -20 -91 14 -27 15 -32 2
-42 -8 -7 -18 -25 -21 -41 -4 -17 -16 -41 -26 -56 -12 -16 -16 -35 -13 -53 5
-25 -10 -75 -38 -129 -5 -10 -6 -24 -3 -32 3 -8 -2 -26 -11 -40 -11 -16 -15
-35 -11 -50 4 -16 -1 -29 -15 -42 -16 -14 -19 -26 -14 -51 4 -22 0 -47 -13
-76 -11 -24 -23 -70 -27 -102 -4 -33 -13 -68 -20 -78 -8 -11 -11 -26 -8 -33 3
-8 -5 -22 -17 -32 -20 -17 -21 -21 -10 -59 12 -38 11 -45 -13 -87 -22 -39 -25
-58 -26 -133 0 -184 -8 -273 -23 -291 -10 -11 -16 -38 -16 -75 0 -32 -5 -63
-10 -70 -6 -7 -7 -32 -2 -62 8 -50 -5 -94 -42 -147 -10 -13 -10 -25 1 -53 10
-27 10 -47 2 -83 -6 -26 -13 -68 -16 -94 -9 -70 -52 -85 -95 -34 -7 9 -27 16
-44 16 -17 1 -42 7 -56 15 -14 8 -35 14 -46 15 -12 0 -27 6 -33 14 -6 8 -26
16 -44 19 -51 8 -100 23 -140 42 -21 10 -49 15 -64 12 -15 -3 -34 -1 -42 3
-43 21 -124 41 -153 39 -41 -4 -237 21 -261 33 -9 5 -61 11 -113 13 -75 4 -99
8 -108 21 -11 14 -20 15 -62 6 -31 -7 -72 -8 -109 -3 -35 5 -67 5 -78 -1 -9
-5 -22 -6 -28 -3 -18 11 -502 7 -539 -4 -19 -6 -56 -11 -82 -11 -26 0 -70 -9
-98 -20 -28 -11 -66 -20 -85 -20 -19 0 -58 -9 -87 -19 -29 -10 -72 -22 -95
-25 -23 -3 -54 -12 -70 -20 -41 -22 -65 -30 -93 -32 -14 -1 -35 -5 -47 -9 -30
-10 -30 6 1 70 13 27 35 76 50 107 15 32 38 65 52 74 17 12 23 22 18 36 -4 14
1 24 15 34 12 9 21 24 21 36 0 30 36 83 66 97 20 9 25 17 21 33 -4 15 6 32 39
65 27 28 44 54 44 68 0 16 13 34 35 52 24 20 35 36 35 55 0 18 7 29 19 33 35
11 83 75 77 101 -5 17 -1 26 14 34 11 6 20 21 20 34 0 16 13 32 40 51 22 15
40 35 40 44 0 31 40 96 63 101 15 4 24 15 27 37 3 20 21 45 53 73 31 28 47 50
47 66 0 15 17 41 45 70 25 25 45 53 45 63 0 10 11 23 25 29 19 9 25 19 25 45
0 21 8 41 20 52 11 10 20 28 20 41 0 13 15 38 35 57 19 19 35 37 35 41 0 16
66 95 80 96 9 0 33 9 55 20 22 11 50 20 63 20 12 0 34 11 47 24 16 16 31 22
48 19 14 -3 28 0 31 6 4 6 20 11 35 11 16 0 37 10 51 25 13 14 33 24 46 23 25
-2 95 30 107 50 21 33 117 -8 117 -50 0 -23 23 -39 40 -28 8 6 25 10 37 10 12
0 28 8 35 18 7 11 23 24 36 31 17 9 21 17 16 36 -5 20 -1 25 21 31 27 7 29 18
14 73 -2 9 4 17 16 19 11 2 27 10 35 18 9 7 24 13 35 14 62 1 119 12 138 25
14 10 45 15 88 15 44 0 70 5 78 14 7 8 40 15 85 18 45 3 82 11 97 21 15 11 43
17 79 17 41 0 70 8 118 32 53 26 68 29 83 20 27 -17 44 -15 102 12 29 14 76
28 105 32 29 4 59 13 67 20 17 17 49 18 74 2 14 -9 23 -8 42 5 33 23 39 21 39
-12z m-2305 -713 c-4 -18 -15 -45 -26 -61 -11 -15 -17 -32 -14 -37 3 -5 -13
-27 -35 -49 -22 -22 -40 -48 -40 -60 0 -11 -9 -22 -19 -26 -20 -6 -61 -79 -61
-107 0 -9 -9 -20 -20 -23 -35 -11 -70 -51 -70 -79 0 -14 -4 -26 -8 -26 -12 0
-58 -73 -66 -104 -3 -14 -10 -26 -15 -26 -21 0 -71 -53 -66 -69 3 -12 -9 -32
-35 -60 -23 -24 -44 -56 -47 -72 -3 -16 -14 -34 -25 -40 -12 -7 -18 -18 -15
-29 3 -12 -10 -30 -40 -55 -26 -22 -55 -59 -68 -86 -12 -27 -36 -63 -53 -81
-18 -17 -32 -35 -32 -39 0 -5 -13 -28 -30 -52 -16 -25 -30 -54 -30 -66 0 -11
-9 -25 -20 -31 -11 -6 -20 -21 -20 -33 0 -13 -14 -34 -35 -51 -27 -23 -35 -37
-35 -63 0 -36 -28 -95 -59 -124 -12 -11 -17 -26 -14 -38 3 -14 -1 -23 -11 -27
-10 -4 -16 -18 -16 -35 0 -19 -5 -29 -15 -29 -9 0 -15 9 -15 23 0 12 -6 31
-13 42 -7 11 -23 47 -36 80 -12 33 -28 74 -35 90 -7 17 -17 46 -21 65 -10 48
-43 118 -64 133 -10 6 -21 23 -24 37 -11 42 -45 89 -86 117 -22 16 -50 51 -66
81 -16 29 -43 65 -62 79 -39 30 -40 44 -12 89 16 26 27 34 50 34 18 0 36 8 47
22 49 62 71 78 106 78 29 0 42 8 73 41 21 23 44 47 51 53 7 6 18 16 25 22 7 6
22 14 33 18 11 3 36 26 54 51 22 30 41 45 56 45 39 0 70 17 118 64 36 36 53
46 79 46 26 0 44 10 79 45 25 25 54 45 64 45 11 0 45 18 77 40 31 22 64 40 73
40 9 0 33 14 54 30 21 17 47 30 57 30 11 0 38 16 60 35 28 23 51 35 71 35 17
0 34 5 38 11 3 6 35 24 69 39 34 15 66 33 69 39 4 6 23 11 42 11 35 0 35 -1
29 -32z m4092 -4190 c31 -43 49 -97 44 -131 -1 -10 5 -38 15 -63 15 -39 15
-52 5 -100 -10 -42 -10 -58 -1 -69 6 -8 9 -23 5 -35 -4 -12 -1 -28 6 -36 8
-10 9 -21 2 -37 -7 -15 -7 -36 1 -68 7 -25 13 -81 14 -124 2 -43 7 -85 11 -94
5 -9 9 -42 9 -73 0 -31 6 -72 13 -91 10 -29 9 -58 -8 -173 -11 -77 -18 -158
-16 -181 4 -34 0 -48 -18 -71 -13 -16 -29 -38 -35 -48 -11 -18 -12 -18 -50 1
-21 11 -42 25 -46 30 -4 6 -27 31 -52 56 -25 25 -48 59 -51 75 -4 16 -16 47
-27 69 -12 22 -27 52 -35 67 -8 16 -11 37 -8 48 4 12 1 27 -5 35 -15 18 -20
50 -23 165 -2 52 -7 109 -11 126 -6 25 -3 36 19 62 15 18 30 32 34 32 5 0 31
-33 59 -74 49 -71 50 -75 47 -132 -7 -98 33 -178 85 -172 28 3 27 -7 14 170
-4 56 -11 91 -20 99 -15 13 -19 55 -5 63 19 12 20 79 1 115 -21 40 -32 135
-30 259 1 53 -3 88 -11 98 -10 12 -10 36 0 117 18 150 20 152 68 85z"/>
</g>
</svg>
