<?xml version="1.0" standalone="no"?>
<!DOCTYPE svg PUBLIC "-//W3C//DTD SVG 20010904//EN"
 "http://www.w3.org/TR/2001/REC-SVG-20010904/DTD/svg10.dtd">
<svg version="1.0" xmlns="http://www.w3.org/2000/svg"
 width="1275.000000pt" height="1366.000000pt" viewBox="0 0 1275.000000 1366.000000"
 preserveAspectRatio="xMidYMid meet">
<metadata>
Created by potrace 1.16, written by Peter Selinger 2001-2019
</metadata>
<g transform="translate(0.000000,1366.000000) scale(0.100000,-0.100000)"
fill="#000000" stroke="none">
<path d="M5387 11093 c-1 -1 -47 -4 -102 -7 -119 -6 -214 -21 -228 -35 -6 -6
-25 -11 -42 -11 -37 0 -117 -26 -163 -53 -18 -11 -41 -17 -50 -14 -10 2 -27
-2 -37 -9 -10 -8 -25 -14 -32 -14 -16 0 -163 -106 -163 -118 0 -4 -15 -16 -32
-26 -99 -56 -162 -106 -218 -172 -35 -41 -79 -84 -97 -95 -18 -11 -33 -26 -33
-33 0 -7 -13 -30 -30 -52 -16 -21 -30 -49 -30 -62 0 -12 -7 -25 -15 -28 -10
-4 -15 -20 -15 -44 0 -21 -7 -43 -15 -50 -8 -7 -15 -16 -15 -21 0 -5 -11 -27
-25 -49 -14 -22 -25 -51 -25 -64 0 -14 -5 -37 -11 -53 -17 -40 -31 -112 -30
-153 0 -19 -4 -39 -8 -45 -5 -5 -12 -31 -15 -57 -4 -26 -11 -50 -17 -53 -5 -4
-9 -24 -9 -45 0 -21 -4 -41 -9 -45 -6 -3 -6 -17 1 -36 8 -22 7 -37 -1 -55 -6
-14 -11 -32 -11 -40 0 -9 -6 -30 -14 -47 -8 -18 -17 -48 -21 -67 -22 -125 -62
-287 -84 -335 -14 -33 -41 -130 -41 -151 0 -10 -9 -37 -19 -59 -35 -71 -51
-113 -51 -132 -1 -10 -7 -29 -15 -43 -8 -14 -14 -49 -15 -78 0 -44 4 -57 26
-79 22 -22 25 -30 15 -45 -16 -25 -14 -74 5 -110 9 -16 13 -40 10 -52 -3 -13
4 -38 18 -63 16 -27 20 -45 14 -51 -14 -14 -3 -42 27 -74 14 -15 25 -37 25
-49 0 -11 13 -38 28 -58 16 -20 36 -54 46 -76 10 -22 29 -55 43 -72 13 -18 19
-33 14 -33 -16 0 -13 -19 8 -48 10 -15 22 -42 26 -59 3 -18 10 -33 15 -33 5 0
19 -17 31 -37 13 -21 40 -58 60 -83 20 -25 39 -56 43 -70 3 -14 24 -38 46 -54
24 -18 40 -38 40 -50 0 -11 20 -39 45 -63 25 -23 45 -47 45 -53 0 -20 137
-160 156 -160 6 0 18 -8 28 -19 13 -14 14 -24 7 -44 -12 -30 -1 -42 28 -32 23
7 64 -44 59 -72 -2 -13 3 -17 19 -15 14 2 23 -4 28 -17 3 -11 19 -22 36 -26
17 -4 42 -23 61 -46 17 -21 35 -39 39 -39 14 0 109 -98 109 -114 0 -8 5 -18
10 -21 6 -3 10 -17 10 -30 0 -26 10 -23 -149 -45 -46 -6 -91 -16 -100 -20 -9
-5 -54 -14 -101 -19 -87 -9 -127 -20 -191 -52 -20 -11 -45 -19 -55 -19 -19 0
-134 -36 -166 -51 -30 -15 -84 -10 -101 9 -9 10 -19 37 -23 60 -10 63 -42 106
-83 110 -21 2 -40 -3 -52 -14 -17 -15 -20 -15 -43 0 -31 20 -45 20 -65 2 -9
-7 -52 -26 -96 -41 -44 -16 -84 -32 -90 -35 -5 -4 -27 -10 -47 -14 -44 -8 -47
-12 -52 -64 -3 -35 -46 -116 -71 -134 -5 -5 -25 -12 -44 -17 -18 -6 -41 -17
-51 -26 -14 -13 -22 -14 -43 -4 -20 9 -30 8 -48 -5 -13 -9 -33 -16 -45 -16
-12 0 -40 -7 -63 -15 -27 -9 -55 -12 -83 -7 -40 7 -43 10 -46 40 -2 18 1 39 7
46 8 10 6 18 -10 32 -17 15 -23 16 -40 5 -12 -7 -39 -13 -62 -13 -22 0 -47 -7
-55 -14 -7 -8 -33 -14 -58 -14 -24 0 -44 -4 -44 -9 0 -5 -23 -12 -52 -15 -28
-4 -62 -16 -76 -26 -13 -11 -29 -17 -34 -14 -5 3 -26 -2 -46 -12 -20 -9 -54
-19 -75 -21 -21 -2 -47 -8 -58 -13 -21 -12 -105 -31 -133 -31 -10 0 -30 -8
-44 -17 -14 -9 -38 -18 -52 -19 -14 -1 -43 -5 -65 -10 -38 -8 -40 -10 -46 -53
-4 -25 -10 -55 -14 -67 -5 -15 -3 -23 4 -23 15 0 14 -43 -1 -58 -7 -7 -8 -15
-1 -24 5 -7 11 -58 12 -113 1 -55 4 -154 7 -220 2 -66 4 -124 4 -130 -7 -81
-6 -174 2 -188 6 -12 6 -23 -2 -33 -8 -8 -10 -27 -6 -46 3 -18 6 -40 6 -48 -3
-108 1 -374 6 -381 3 -6 0 -16 -6 -24 -10 -12 -10 -21 0 -44 9 -22 9 -35 1
-50 -9 -16 -8 -26 5 -46 13 -20 14 -29 5 -38 -6 -6 -11 -26 -11 -45 0 -18 -5
-42 -10 -52 -15 -29 10 -38 31 -12 10 14 23 20 33 16 9 -3 23 -1 31 6 8 6 35
12 60 12 25 1 48 5 51 10 3 4 22 8 42 8 21 0 47 6 58 14 12 8 44 18 73 22 28
4 54 11 57 15 3 5 10 7 15 3 21 -13 145 24 182 55 15 13 22 13 39 2 17 -10 23
-10 38 4 10 9 36 18 57 19 21 1 43 5 48 8 6 3 33 9 60 13 71 11 98 31 90 66
-7 29 8 69 26 69 6 0 25 6 42 14 52 23 99 37 152 46 28 4 68 15 90 23 22 8 63
17 90 19 l51 5 -4 -99 c-4 -86 -2 -99 13 -104 10 -4 26 -2 36 4 10 7 32 12 49
12 17 0 60 14 97 30 36 17 81 30 99 30 18 0 36 5 39 10 9 15 36 12 56 -6 22
-20 79 -10 79 13 0 8 14 31 30 50 17 18 30 42 30 53 0 39 11 50 51 50 22 0 57
10 83 25 25 14 51 25 59 25 8 0 28 7 43 15 16 8 41 15 56 15 15 0 42 6 60 14
51 21 134 46 152 46 9 0 25 4 36 10 49 24 58 28 90 35 19 4 40 11 45 15 6 4
30 11 55 15 25 4 50 10 55 14 6 3 29 11 53 17 42 11 42 11 42 -16 0 -14 6 -35
14 -45 13 -18 15 -18 39 -2 14 9 30 32 37 52 6 19 16 35 21 35 6 0 20 21 32
48 44 94 55 102 185 136 48 12 97 28 108 34 12 6 24 9 27 6 2 -3 22 2 42 10
21 9 47 16 59 16 11 1 39 9 61 20 22 11 47 20 55 20 25 1 130 38 164 58 17 11
58 27 91 36 33 10 102 38 154 63 91 43 95 44 140 33 25 -6 55 -20 66 -30 11
-10 31 -21 45 -25 14 -4 39 -18 57 -31 17 -13 38 -24 47 -24 8 0 28 -11 44
-25 17 -14 33 -25 36 -25 13 0 155 -71 161 -79 3 -5 18 -12 34 -16 16 -3 41
-17 56 -31 14 -13 33 -24 42 -24 8 0 28 -11 45 -25 16 -14 40 -25 52 -25 13 0
35 -9 49 -20 14 -11 30 -20 36 -20 6 0 25 -9 43 -20 18 -11 41 -20 51 -20 9 0
34 -9 54 -20 21 -11 43 -20 49 -20 7 0 25 -7 40 -15 16 -8 40 -15 54 -15 14 0
34 -7 44 -15 11 -8 29 -15 40 -15 12 0 35 -9 51 -20 17 -11 38 -20 47 -20 9 0
54 -18 99 -40 46 -22 91 -40 100 -40 9 0 22 -6 28 -14 6 -8 32 -17 56 -20 25
-4 47 -11 50 -17 4 -5 18 -9 33 -9 15 0 36 -6 47 -14 11 -7 36 -17 55 -21 19
-4 41 -12 47 -17 9 -7 23 -6 43 2 22 9 37 10 58 2 38 -15 142 -35 149 -29 3 3
17 1 32 -5 14 -6 42 -14 61 -19 19 -4 62 -15 95 -24 33 -10 83 -21 110 -26 79
-14 243 -39 330 -50 44 -6 87 -17 96 -25 13 -12 23 -11 72 6 31 11 62 20 68
20 6 0 31 14 56 30 24 17 48 30 52 30 4 0 22 22 40 50 18 28 36 50 40 50 4 0
16 16 27 37 10 20 29 46 42 59 12 13 22 29 22 36 0 8 14 25 30 40 17 14 30 36
30 47 0 11 9 26 20 33 11 7 25 31 31 53 6 22 16 47 23 55 23 29 66 122 66 144
0 12 7 31 15 42 8 10 15 35 15 54 0 19 7 44 15 54 8 11 15 32 15 47 0 15 4 30
10 34 13 8 10 125 -5 160 -31 72 -41 88 -62 96 -12 4 -26 16 -32 27 -13 24
-112 53 -136 39 -10 -5 -45 -10 -80 -12 -34 -1 -66 -4 -71 -8 -5 -3 -33 1 -62
8 -28 8 -67 11 -87 8 -19 -3 -47 0 -63 6 -15 7 -62 13 -104 15 -42 1 -83 7
-90 13 -7 6 -29 13 -48 16 -19 2 -48 9 -65 15 -16 5 -46 15 -65 22 -19 7 -46
14 -60 17 -14 2 -34 8 -45 13 -33 14 -117 38 -158 45 -20 4 -40 11 -43 16 -3
5 -17 9 -32 9 -18 0 -37 10 -54 30 -14 17 -36 30 -48 30 -19 0 -64 12 -140 38
-33 12 -107 33 -140 42 -62 15 -109 36 -133 58 -12 11 -41 24 -64 28 -57 9
-83 35 -83 84 0 31 5 43 27 57 52 36 193 196 193 221 0 5 14 23 30 40 17 18
30 39 30 47 0 8 9 24 21 36 21 21 89 144 89 161 0 6 11 23 25 40 14 16 25 39
25 51 1 12 7 33 15 47 8 14 14 39 15 56 0 17 7 37 15 44 8 7 15 27 15 46 0 18
4 35 9 38 4 3 11 31 14 63 5 56 20 113 57 218 9 28 25 77 34 110 10 33 22 74
28 90 6 17 11 39 12 50 0 11 11 30 24 43 12 12 22 33 22 47 0 14 5 34 12 45 9
15 9 24 -1 42 -10 20 -9 29 3 53 9 17 16 40 16 51 0 12 6 37 14 55 8 19 17 61
21 94 4 33 13 74 20 90 6 17 13 68 13 113 1 46 5 89 9 94 3 6 7 50 8 97 0 48
4 91 7 96 11 18 -17 337 -32 373 -6 13 -10 33 -10 44 0 12 -4 35 -9 52 -25 87
-55 175 -72 212 -10 22 -19 47 -19 55 0 8 -14 34 -30 58 -16 24 -27 48 -24 53
3 5 -6 21 -21 36 -45 46 -95 114 -120 163 -13 25 -31 49 -40 52 -8 4 -15 13
-15 21 0 8 -12 28 -26 43 -14 15 -32 35 -40 44 -8 9 -14 23 -14 32 0 10 -7 17
-15 17 -8 0 -23 12 -33 28 -29 47 -125 162 -135 162 -8 0 -118 105 -257 245
-14 14 -35 25 -45 25 -11 0 -50 25 -87 55 -37 30 -79 57 -92 61 -14 3 -30 12
-37 20 -6 8 -17 14 -24 14 -6 0 -33 11 -59 25 -26 14 -55 25 -65 25 -10 0 -28
11 -40 24 -13 13 -35 27 -49 31 -14 3 -38 15 -52 25 -14 10 -39 22 -56 26 -16
4 -38 13 -49 20 -11 8 -28 14 -38 14 -20 0 -109 27 -139 41 -10 5 -28 9 -41 9
-13 0 -32 7 -43 15 -10 8 -32 15 -47 15 -16 0 -38 5 -50 12 -12 6 -42 15 -67
19 -25 5 -65 12 -90 18 -118 25 -185 34 -310 41 -74 4 -171 11 -215 15 -71 6
-344 13 -348 8z m-22 -1194 c11 0 56 2 100 4 44 2 90 0 103 -4 14 -6 31 -5 42
1 13 7 21 7 25 0 3 -5 27 -10 53 -10 26 -1 67 -5 92 -10 25 -6 90 -12 145 -15
80 -5 104 -10 120 -25 12 -11 30 -20 41 -20 11 0 25 -5 30 -10 17 -17 111 -30
206 -30 48 1 89 -3 93 -9 6 -11 169 -91 184 -91 4 0 16 -9 26 -20 10 -11 23
-20 28 -20 6 0 25 -11 42 -24 18 -14 45 -28 60 -32 16 -4 40 -13 54 -20 14 -8
33 -14 42 -14 9 0 27 -8 40 -19 13 -10 35 -22 49 -26 14 -4 37 -17 51 -29 15
-11 39 -29 55 -38 16 -10 49 -33 74 -53 25 -19 65 -48 89 -65 24 -16 50 -38
58 -50 8 -11 19 -20 25 -20 29 0 248 -254 248 -287 0 -5 11 -20 25 -33 13 -12
30 -39 36 -59 7 -20 27 -53 45 -74 19 -20 34 -45 34 -55 0 -10 7 -27 15 -39
32 -45 75 -143 75 -168 0 -15 11 -40 25 -57 14 -16 25 -38 25 -49 0 -11 9 -38
21 -60 11 -23 18 -43 15 -46 -3 -3 -1 -13 4 -23 5 -10 14 -42 19 -71 6 -30 20
-99 32 -154 11 -55 20 -107 19 -115 0 -8 -1 -40 -1 -72 0 -37 -4 -60 -14 -68
-8 -7 -15 -19 -15 -28 0 -18 -38 -62 -53 -62 -6 0 -33 -21 -61 -46 -28 -26
-72 -65 -97 -88 -61 -56 -140 -116 -151 -116 -5 0 -33 -18 -62 -40 -40 -30
-62 -40 -90 -40 -29 0 -39 -4 -43 -20 -3 -11 -13 -20 -22 -20 -10 0 -33 -11
-52 -25 -19 -14 -59 -33 -89 -42 -30 -9 -62 -19 -70 -24 -30 -15 -106 -39
-135 -42 -16 -2 -43 -10 -60 -19 -36 -18 -141 -50 -158 -47 -12 2 -30 -3 -77
-23 -14 -6 -54 -13 -90 -15 -36 -2 -77 -9 -92 -15 -15 -5 -35 -8 -44 -4 -9 3
-29 -2 -46 -11 -30 -18 -31 -18 -45 5 -9 13 -26 22 -40 22 -15 0 -36 12 -53
30 -15 17 -34 30 -42 30 -7 0 -32 21 -56 45 -24 25 -49 45 -57 45 -7 0 -20 11
-29 25 -9 14 -21 25 -26 25 -6 0 -37 27 -71 60 -33 33 -66 60 -73 60 -7 0 -23
11 -36 25 -13 14 -28 25 -33 25 -5 0 -37 25 -72 55 -34 30 -65 55 -68 55 -10
0 -81 50 -100 71 -10 10 -26 19 -36 19 -10 0 -26 11 -35 25 -9 14 -25 25 -35
25 -11 0 -37 20 -59 45 -22 25 -47 45 -55 45 -15 0 -21 19 -30 90 -1 8 -12 16
-25 18 -15 2 -22 10 -22 27 0 14 -11 29 -27 40 -16 10 -32 24 -36 32 -4 7 -16
13 -26 13 -10 0 -28 11 -41 25 -12 13 -38 29 -57 36 -18 6 -38 19 -43 30 -6
10 -19 19 -29 19 -10 0 -23 10 -28 23 -6 13 -29 46 -52 73 -23 27 -46 55 -52
62 -5 6 -18 12 -28 12 -19 0 -38 18 -56 53 -6 12 -20 27 -33 33 -12 6 -19 14
-16 17 12 11 -49 121 -113 207 -18 24 -33 48 -33 55 0 6 -13 21 -28 32 -16 12
-37 39 -47 60 -10 21 -21 40 -24 43 -9 8 -41 70 -41 81 0 5 -13 28 -30 51 -16
22 -30 49 -30 60 0 10 -11 24 -25 30 -14 6 -25 17 -25 23 0 7 -12 39 -27 71
-15 33 -29 79 -30 103 -2 29 -13 57 -33 85 -25 34 -31 53 -33 105 -2 56 1 65
21 78 15 11 22 25 22 48 0 25 11 43 49 83 28 29 56 52 63 52 7 0 33 13 58 30
25 16 70 37 100 46 30 9 69 20 85 26 104 33 238 69 280 74 17 2 44 8 60 13 17
5 60 8 97 7 37 -1 73 1 80 6 7 4 47 5 88 2 41 -2 84 -5 95 -5z m-260 -2599 c3
-5 16 -10 29 -10 13 0 31 -9 41 -20 16 -18 17 -22 1 -54 -9 -19 -16 -40 -16
-48 0 -43 -55 -50 -99 -12 -36 30 -39 49 -11 66 12 8 23 28 27 51 5 36 16 47
28 27z m-2473 -1230 c-3 -21 0 -30 9 -30 11 0 15 -25 18 -108 2 -65 7 -110 15
-115 8 -6 8 -10 -1 -14 -18 -7 -16 -54 3 -68 15 -10 15 -13 0 -27 -20 -21 -21
-44 -1 -52 17 -6 21 -36 5 -36 -6 0 -13 7 -16 15 -7 18 -64 20 -64 3 0 -10
-30 -14 -107 -16 -68 -2 -111 -8 -116 -15 -6 -9 -10 -9 -14 1 -6 16 -30 15
-36 -2 -4 -10 -27 -15 -76 -18 l-71 -3 0 94 c0 77 -3 96 -17 107 -17 13 -17
15 0 28 13 10 17 28 17 85 0 54 4 73 15 77 8 4 15 12 15 20 0 11 16 14 65 14
51 0 65 3 65 15 0 11 12 15 45 15 33 0 45 4 45 15 0 12 14 15 70 15 56 0 70 3
70 15 0 10 10 15 33 15 32 0 33 -2 29 -30z m4548 -159 c0 -63 -6 -77 -35 -83
-11 -2 -19 -11 -19 -21 1 -10 -5 -17 -17 -17 -11 0 -16 5 -13 13 2 7 -4 22
-16 32 -25 23 -25 54 0 110 27 58 48 70 78 43 18 -17 22 -32 22 -77z m-4499
-698 c-1 -53 -8 -104 -14 -114 -9 -15 -8 -21 5 -31 17 -13 15 -68 -3 -68 -15
0 -10 -32 7 -45 25 -18 -2 -71 -34 -67 -14 2 -31 -7 -47 -24 -25 -27 -26 -27
-40 -8 -14 18 -16 18 -29 2 -7 -10 -19 -18 -25 -18 -7 0 -20 -7 -29 -16 -14
-15 -17 -15 -28 1 -16 22 -34 11 -34 -21 0 -14 -6 -24 -14 -24 -8 0 -16 -5
-18 -11 -2 -5 -32 -12 -68 -14 -49 -4 -68 -1 -82 12 -22 20 -23 42 -3 49 9 4
15 19 15 40 0 24 -5 34 -15 34 -8 0 -15 7 -15 15 0 8 5 15 12 15 9 0 9 3 0 12
-8 8 -12 54 -12 140 0 111 -2 128 -16 128 -14 0 -14 3 -4 15 7 8 19 15 26 15
8 0 14 6 14 13 0 8 18 13 51 14 28 1 57 8 65 14 10 8 14 8 14 0 0 -16 29 -14
47 4 15 16 54 11 61 -6 6 -14 24 -10 36 7 8 10 28 15 64 16 28 0 52 4 52 8 0
8 50 19 59 12 3 -1 4 -46 2 -99z"/>
</g>
</svg>
