<?xml version="1.0" standalone="no"?>
<!DOCTYPE svg PUBLIC "-//W3C//DTD SVG 20010904//EN"
 "http://www.w3.org/TR/2001/REC-SVG-20010904/DTD/svg10.dtd">
<svg version="1.0" xmlns="http://www.w3.org/2000/svg"
 width="812.000000pt" height="1125.000000pt" viewBox="0 0 812.000000 1125.000000"
 preserveAspectRatio="xMidYMid meet">
<metadata>
Created by potrace 1.16, written by Peter Selinger 2001-2019
</metadata>
<g transform="translate(0.000000,1125.000000) scale(0.100000,-0.100000)"
fill="#000000" stroke="none">
<path d="M4290 10805 c-119 -19 -198 -42 -252 -71 -202 -111 -295 -192 -398
-344 -42 -62 -86 -141 -150 -267 -50 -101 -99 -145 -235 -211 -66 -33 -130
-63 -142 -66 -13 -4 -23 -12 -23 -17 0 -5 -9 -9 -20 -9 -37 0 -134 -110 -178
-201 -22 -46 -43 -95 -47 -109 -4 -14 -11 -29 -15 -35 -7 -9 -140 -342 -140
-350 0 -3 -11 -29 -25 -59 -14 -30 -25 -58 -25 -61 0 -7 -43 -121 -60 -160 -5
-11 -27 -69 -50 -130 -23 -60 -53 -141 -67 -180 -15 -38 -35 -89 -45 -112 -10
-23 -18 -47 -18 -53 0 -6 -8 -30 -19 -53 -10 -23 -30 -73 -45 -112 -15 -38
-35 -93 -46 -120 -11 -28 -20 -54 -20 -59 0 -4 -20 -58 -44 -119 -25 -62 -61
-157 -82 -212 -81 -220 -96 -261 -106 -290 -5 -16 -30 -80 -54 -141 -24 -61
-44 -116 -44 -122 0 -7 -8 -31 -19 -55 -10 -23 -42 -107 -71 -187 -29 -80 -58
-158 -65 -175 -7 -16 -18 -48 -25 -70 -7 -21 -23 -63 -36 -92 -13 -29 -24 -56
-25 -61 -1 -4 -5 -17 -10 -30 -5 -13 -9 -26 -9 -30 0 -10 -78 -222 -95 -259
-8 -17 -15 -34 -15 -38 0 -7 -81 -237 -97 -275 -3 -8 -29 -84 -58 -167 -38
-112 -58 -159 -78 -175 -14 -13 -37 -48 -52 -78 -14 -30 -32 -66 -39 -80 -8
-14 -19 -43 -26 -65 -7 -22 -23 -65 -35 -95 -47 -112 -75 -191 -95 -266 -17
-68 -18 -80 -6 -98 25 -37 109 -121 176 -177 36 -30 67 -56 70 -60 3 -3 32
-24 65 -46 220 -147 400 -214 458 -170 9 6 35 50 58 97 22 47 61 125 85 174
24 49 44 93 44 97 0 5 18 46 39 92 51 106 62 142 55 176 -6 31 27 116 77 201
15 25 38 64 51 86 73 129 124 214 129 214 3 0 1 -33 -3 -72 -15 -133 -101
-1054 -123 -1308 -8 -102 -35 -408 -59 -680 -25 -272 -50 -558 -56 -635 -6
-77 -27 -315 -46 -530 -20 -214 -35 -415 -34 -445 1 -30 1 -65 1 -78 -2 -50
88 -192 122 -192 6 0 18 -6 26 -14 20 -18 247 -118 321 -142 30 -9 69 -24 87
-31 41 -17 217 -74 303 -97 36 -10 79 -22 95 -28 67 -20 178 -37 324 -49 l154
-13 22 28 c23 29 37 79 56 204 8 55 15 72 27 72 41 0 388 -33 392 -37 3 -2 5
-62 5 -131 0 -130 8 -163 45 -178 17 -7 282 -33 290 -29 3 1 72 6 154 9 82 4
152 9 156 11 8 5 86 15 125 16 17 1 50 5 75 9 25 5 86 14 135 20 50 7 106 17
125 23 19 6 42 11 50 12 22 2 127 33 188 56 132 48 178 88 193 170 12 64 35
294 43 434 4 55 13 174 21 265 21 238 126 1425 195 2200 32 366 65 731 71 812
10 126 14 145 25 130 7 -11 15 -30 17 -43 2 -13 9 -35 15 -49 8 -20 36 -107
59 -185 1 -5 21 -71 43 -145 44 -149 48 -186 24 -233 -14 -25 -16 -50 -11
-132 3 -55 11 -122 18 -150 23 -100 79 -293 90 -315 4 -8 13 -29 21 -47 7 -20
22 -35 38 -39 35 -10 131 -7 164 6 15 5 37 10 49 10 12 0 35 7 51 15 15 8 33
15 40 15 12 0 139 51 184 73 173 87 231 120 298 171 50 39 70 60 75 83 5 27
-3 175 -14 243 -3 14 -8 50 -12 80 -4 30 -9 59 -13 64 -3 5 -6 20 -8 33 -6 53
-56 193 -83 230 -25 35 -32 59 -50 189 -12 82 -26 174 -31 204 -14 75 -17 96
-40 235 -11 66 -25 143 -30 170 -21 101 -82 421 -89 465 -5 30 -21 63 -49 100
-23 30 -52 75 -64 99 -12 25 -23 40 -25 34 -3 -7 0 -21 6 -32 13 -24 14 -34 2
-26 -5 3 -15 22 -21 43 -7 20 -27 60 -46 88 -41 63 -92 239 -101 344 -3 41 -1
107 5 145 6 39 14 151 18 251 6 152 4 195 -11 270 -14 69 -16 109 -10 179 4
50 7 104 8 120 0 26 -24 215 -38 300 -3 17 -10 64 -15 105 -37 302 -71 488
-121 674 -38 145 -47 173 -70 223 -10 24 -19 48 -19 54 0 6 -6 23 -14 37 -8
15 -26 52 -40 82 -76 158 -179 278 -343 400 -51 37 -88 73 -97 93 -8 18 -35
76 -60 130 -25 54 -46 103 -46 108 0 8 -14 41 -85 196 -83 181 -216 330 -360
404 -141 72 -198 89 -400 120 -108 16 -324 18 -415 4z m452 -127 c38 -8 76
-22 85 -30 10 -9 36 -25 58 -36 98 -49 204 -186 241 -312 23 -80 39 -226 24
-235 -4 -3 -21 2 -37 10 -47 25 -139 65 -149 65 -5 0 -31 9 -59 19 -27 11 -59
23 -70 27 -101 37 -342 66 -460 54 -44 -4 -83 -6 -86 -4 -4 2 -26 -3 -49 -11
-23 -8 -46 -13 -50 -10 -4 3 -50 -8 -101 -25 -55 -17 -97 -26 -102 -21 -6 6
-3 29 7 57 9 26 16 54 16 62 0 20 66 157 84 175 8 8 23 28 33 45 17 28 110
104 160 130 11 6 52 22 92 35 62 21 89 24 184 23 62 -1 142 -9 179 -18z m-127
-553 c121 -13 208 -33 290 -66 43 -17 142 -62 194 -87 l53 -26 -6 -61 c-13
-115 -114 -478 -145 -520 -12 -16 -48 -126 -61 -185 -6 -30 -20 -76 -31 -102
-10 -26 -19 -58 -19 -71 0 -13 -9 -59 -20 -103 -12 -43 -27 -117 -35 -164 -8
-47 -19 -107 -25 -135 -14 -64 -17 -86 -36 -220 -9 -60 -20 -118 -25 -127 -5
-10 -9 -40 -9 -67 0 -28 -4 -52 -9 -55 -4 -3 -11 -44 -15 -91 -4 -48 -14 -123
-22 -168 -8 -45 -19 -118 -24 -162 -5 -44 -16 -132 -25 -195 -20 -140 -32
-231 -45 -330 -5 -41 -14 -106 -20 -145 -6 -38 -17 -131 -25 -205 -25 -240
-44 -413 -60 -530 -16 -123 -18 -142 -35 -320 -6 -63 -15 -124 -20 -135 -4
-11 -16 -101 -25 -200 -9 -99 -27 -288 -40 -420 -14 -132 -32 -314 -40 -405
-21 -230 -33 -341 -40 -370 -8 -39 -32 -290 -55 -575 -26 -339 -38 -459 -55
-575 -9 -52 -24 -194 -35 -315 -11 -121 -29 -312 -40 -425 -11 -113 -34 -371
-50 -575 -17 -203 -32 -375 -34 -380 -4 -11 -410 16 -422 28 -3 3 4 117 15
254 30 348 71 803 86 963 7 74 11 138 8 142 -2 4 8 128 22 276 14 147 27 313
30 367 6 141 30 447 65 815 16 173 30 340 31 370 1 30 14 199 29 375 16 176
29 343 29 370 1 28 8 120 16 205 9 85 16 179 16 210 1 30 6 120 13 200 7 80
12 177 11 215 0 39 3 106 7 150 4 44 8 107 9 140 1 33 7 130 14 215 7 85 13
166 13 180 0 24 5 168 17 460 3 74 8 162 10 195 22 303 22 1429 0 1487 -3 7
-7 36 -9 63 -7 76 -17 137 -27 165 -5 14 -11 50 -14 80 -3 30 -8 69 -11 85
-10 62 -19 205 -19 311 l0 109 100 33 c179 59 318 71 550 47z m-1264 -451
c-22 -98 -44 -213 -51 -254 -6 -41 -16 -97 -21 -123 -15 -77 -15 -76 44 -72
211 15 227 15 227 5 0 -5 -6 -10 -12 -10 -7 0 -33 -18 -58 -40 -25 -21 -56
-45 -70 -52 -14 -7 -33 -20 -43 -30 -15 -15 -54 -44 -161 -118 -92 -64 -89
-60 -81 -125 4 -33 8 -80 10 -105 2 -25 13 -121 25 -215 12 -93 25 -205 30
-247 5 -43 11 -86 14 -95 6 -21 14 -76 21 -148 5 -48 11 -97 21 -160 3 -16 10
-61 15 -100 6 -38 13 -86 16 -105 3 -19 16 -100 30 -180 14 -80 28 -176 33
-215 5 -38 14 -97 20 -130 6 -33 13 -76 16 -95 3 -19 8 -42 11 -50 3 -8 8 -35
10 -60 3 -24 9 -52 14 -62 5 -9 9 -35 9 -57 0 -22 4 -42 8 -45 5 -3 9 -21 10
-41 1 -19 8 -70 16 -112 8 -43 20 -109 26 -148 7 -38 16 -88 21 -110 5 -22 11
-53 14 -70 9 -65 24 -152 33 -185 6 -19 15 -75 22 -125 7 -49 18 -130 26 -180
13 -89 23 -156 29 -205 2 -14 11 -104 19 -200 9 -96 21 -206 25 -245 5 -38 9
-79 8 -90 0 -11 3 -87 7 -170 12 -258 8 -835 -9 -1140 -2 -44 -6 -129 -9 -190
-3 -60 -10 -189 -16 -285 -6 -96 -13 -211 -15 -256 -3 -44 -16 -204 -29 -355
-14 -151 -30 -337 -36 -414 -14 -188 -68 -735 -80 -810 -5 -33 -11 -70 -13
-82 -6 -40 -26 -53 -83 -53 -55 0 -72 3 -229 40 -49 12 -110 25 -135 31 -25 5
-53 14 -62 19 -10 6 -27 10 -37 10 -11 0 -22 4 -25 9 -3 4 -26 11 -52 15 -26
3 -52 10 -58 15 -14 11 -118 49 -171 63 -22 6 -44 15 -50 19 -5 5 -17 9 -26 9
-10 0 -39 11 -65 25 -26 14 -57 25 -70 25 -13 0 -26 4 -29 10 -3 5 -38 26 -76
45 -87 43 -134 91 -143 144 -3 22 -1 86 5 143 6 56 12 139 14 183 2 44 17 238
34 430 17 193 40 458 51 590 11 132 33 382 49 555 16 173 32 356 36 405 3 50
17 211 31 360 13 148 27 312 29 365 3 52 23 289 45 525 47 514 48 524 55 690
4 72 10 173 16 225 12 132 27 299 34 400 9 129 42 522 70 845 56 629 54 608
89 905 16 131 18 145 36 250 6 36 15 90 20 120 5 30 11 69 14 85 3 17 12 64
21 105 9 41 22 104 30 140 21 98 71 286 100 368 53 155 95 200 265 282 69 33
136 66 150 73 14 8 26 13 28 12 1 -1 -15 -83 -37 -181z m2359 -23 c19 -14 41
-30 49 -36 8 -5 47 -42 86 -81 77 -74 129 -166 154 -269 7 -27 16 -66 21 -85
10 -38 18 -88 23 -135 2 -16 7 -44 11 -62 20 -88 28 -538 15 -838 -7 -143 -13
-291 -14 -330 -3 -97 -53 -657 -65 -730 -5 -33 -15 -118 -21 -190 -6 -71 -17
-168 -25 -215 -8 -47 -21 -152 -29 -235 -8 -82 -19 -172 -24 -200 -5 -27 -12
-97 -16 -155 -4 -58 -9 -116 -12 -130 -2 -14 -8 -60 -13 -102 -5 -43 -11 -86
-14 -95 -9 -28 -46 -424 -41 -433 2 -4 -4 -103 -15 -221 -10 -118 -26 -304
-35 -414 -9 -110 -32 -360 -50 -555 -19 -195 -43 -474 -55 -620 -11 -146 -30
-357 -40 -470 -24 -250 -70 -767 -105 -1185 -15 -170 -31 -319 -36 -330 -5
-11 -11 -31 -14 -44 -2 -13 -6 -25 -7 -26 -2 -1 -19 -13 -38 -27 -19 -13 -62
-33 -95 -42 -33 -10 -75 -25 -93 -32 -18 -8 -37 -12 -42 -9 -5 3 -44 -4 -87
-15 -77 -20 -99 -24 -198 -35 -27 -4 -61 -8 -75 -11 -14 -3 -54 -7 -90 -9 -36
-3 -83 -8 -105 -11 -22 -3 -62 -8 -90 -10 -27 -2 -79 -6 -115 -9 -78 -7 -62
-7 -187 -5 -86 1 -104 5 -119 21 -18 20 -18 11 1 324 12 196 71 870 81 925 4
19 15 116 25 215 10 99 23 218 28 265 6 47 17 148 26 225 19 180 21 199 40
330 8 61 19 144 24 186 5 41 14 100 20 130 6 29 20 122 31 204 22 159 27 187
41 250 5 22 14 65 19 95 5 30 13 78 19 105 6 28 15 75 21 105 5 30 17 84 25
120 7 36 21 99 30 140 9 41 22 98 30 125 8 28 29 106 45 175 17 69 42 157 55
195 12 39 40 124 60 190 20 66 41 131 47 145 5 13 36 106 69 205 33 99 66 194
74 210 7 17 28 71 46 120 42 119 127 342 144 380 7 17 16 44 20 60 4 17 13 44
20 60 23 52 55 137 55 147 0 6 6 24 14 41 8 18 26 70 41 117 15 47 33 96 40
110 7 14 24 59 38 100 14 41 30 89 36 105 6 17 17 50 24 75 8 25 38 113 66
195 28 83 63 186 77 230 14 44 30 88 35 97 5 10 9 24 9 33 0 8 13 54 29 102
16 49 39 122 51 163 12 41 25 82 30 90 4 9 11 36 15 60 4 24 16 63 26 87 10
24 17 43 14 43 -2 0 5 25 16 55 24 69 24 68 -8 102 -195 203 -328 345 -335
357 -7 13 -4 15 24 9 18 -3 41 -10 50 -14 9 -5 28 -9 43 -9 14 0 38 -6 53 -14
15 -8 43 -16 62 -17 l35 -4 -1 220 c0 193 -8 300 -30 424 -6 37 -5 37 56 -8z
m-3016 -817 c-18 -82 -30 -162 -44 -304 -9 -94 -17 -149 -35 -245 -14 -80 -94
-893 -100 -1030 -3 -49 -11 -175 -19 -280 -18 -226 -34 -465 -35 -520 -1 -22
-13 -161 -26 -310 -14 -148 -25 -289 -25 -313 0 -53 -26 -115 -107 -255 -35
-59 -63 -111 -63 -114 0 -3 -10 -20 -23 -37 -13 -17 -34 -55 -47 -83 -13 -29
-27 -53 -31 -53 -4 0 -13 -16 -19 -35 -6 -19 -16 -35 -21 -35 -5 0 -9 -7 -9
-16 0 -24 -31 -84 -43 -84 -6 0 -19 8 -29 17 -10 9 -40 30 -67 47 -88 56 -134
88 -155 108 -12 11 -36 27 -53 34 -18 8 -33 19 -33 25 0 5 -13 15 -30 20 -16
6 -30 14 -30 19 0 4 -13 13 -30 20 -16 7 -30 16 -30 20 0 8 -10 15 -93 68 -21
13 -37 30 -37 38 0 16 76 255 95 299 15 33 69 185 92 255 8 25 21 56 28 70 7
14 18 41 23 60 16 54 41 119 57 151 8 15 15 36 15 46 1 10 9 36 20 58 11 22
19 48 20 58 0 10 7 28 15 41 9 13 18 36 21 52 3 15 9 35 15 46 5 10 25 60 43
111 42 114 64 173 80 212 19 43 37 94 50 140 7 22 20 57 29 79 9 21 17 44 17
50 1 6 9 29 20 51 11 22 20 47 20 55 0 8 9 33 20 55 11 22 19 47 20 55 0 9 6
24 13 35 7 11 26 56 41 100 15 44 34 94 41 110 7 17 18 46 25 65 6 19 21 58
32 85 11 28 25 68 32 90 6 22 14 45 18 51 4 6 23 55 42 108 20 53 39 103 43
109 4 7 22 52 39 102 58 165 64 180 79 207 8 14 15 33 15 42 0 15 18 64 64
171 7 17 23 58 37 92 13 34 25 61 26 59 1 -1 -4 -34 -13 -72z m3498 -79 c11
-55 24 -125 29 -155 4 -30 13 -84 20 -120 6 -36 13 -78 14 -95 1 -16 8 -66 15
-110 6 -44 10 -96 7 -115 -2 -19 0 -60 5 -90 5 -30 13 -217 17 -415 14 -561
42 -928 77 -997 9 -18 31 -51 48 -73 18 -22 37 -58 44 -80 6 -22 33 -76 58
-120 76 -130 94 -167 94 -195 0 -15 6 -46 14 -68 8 -22 12 -42 10 -45 -3 -3 1
-28 10 -55 8 -28 12 -52 10 -55 -3 -2 0 -17 7 -33 6 -16 12 -45 14 -64 3 -19
9 -60 15 -90 5 -30 14 -82 19 -115 5 -33 23 -139 40 -235 16 -96 28 -177 25
-181 -2 -4 0 -19 6 -33 5 -15 11 -45 14 -69 2 -23 7 -59 11 -79 6 -32 4 -38
-10 -38 -9 0 -29 -6 -43 -14 -15 -7 -38 -18 -52 -24 -14 -6 -59 -26 -100 -45
-41 -19 -97 -44 -125 -56 -72 -32 -80 -35 -188 -86 -132 -61 -139 -61 -150 -5
-4 25 -12 59 -17 75 -5 17 -11 41 -13 55 -3 14 -12 43 -21 65 -10 22 -17 40
-16 40 1 0 -1 7 -3 15 -3 8 -10 35 -17 60 -7 25 -27 90 -45 145 -38 114 -86
280 -90 310 -1 11 -5 34 -9 51 -4 17 -2 51 3 75 6 25 15 108 21 184 6 77 18
172 26 210 13 65 22 148 74 680 11 110 24 232 30 270 10 71 59 645 82 965 14
190 17 684 6 820 -9 105 4 80 34 -65z"/>
<path d="M2735 5609 c-16 -16 -17 -25 -9 -47 7 -17 8 -55 3 -97 -11 -114 -10
-340 2 -328 14 14 29 118 35 243 3 57 6 106 8 107 1 1 58 -54 127 -123 265
-267 328 -324 354 -324 12 0 15 -5 10 -17 -6 -17 -24 -179 -25 -230 0 -13 6
-23 14 -23 10 0 16 20 21 68 3 37 11 85 17 107 7 22 10 44 9 49 -1 6 5 29 14
53 11 27 14 54 10 74 -6 28 -10 31 -38 26 -28 -4 -41 6 -157 122 -171 172
-250 257 -290 314 -38 53 -73 62 -105 26z"/>
<path d="M5331 5099 c-30 -33 -83 -77 -121 -99 -63 -37 -90 -49 -199 -88 -41
-14 -171 -123 -171 -143 0 -5 9 -9 21 -9 18 0 20 -4 13 -32 -4 -18 -7 -76 -7
-128 1 -172 2 -180 19 -180 9 0 14 6 11 13 -2 6 2 19 9 27 9 11 15 61 20 155
4 109 10 144 22 158 9 10 60 40 113 67 128 63 212 121 278 189 29 31 50 47 46
36 -4 -11 -9 -87 -12 -170 -3 -82 -10 -158 -15 -168 -13 -25 -1 -35 18 -15 11
11 17 54 24 174 5 87 12 174 15 192 4 20 2 32 -5 32 -6 0 -9 4 -6 9 7 11 -3
41 -13 40 -3 0 -30 -27 -60 -60z"/>
</g>
</svg>
