<?xml version="1.0" standalone="no"?>
<!DOCTYPE svg PUBLIC "-//W3C//DTD SVG 20010904//EN"
 "http://www.w3.org/TR/2001/REC-SVG-20010904/DTD/svg10.dtd">
<svg version="1.0" xmlns="http://www.w3.org/2000/svg"
 width="833.000000pt" height="979.000000pt" viewBox="0 0 833.000000 979.000000"
 preserveAspectRatio="xMidYMid meet">
<metadata>
Created by potrace 1.16, written by Peter Selinger 2001-2019
</metadata>
<g transform="translate(0.000000,979.000000) scale(0.100000,-0.100000)"
fill="#000000" stroke="none">
<path d="M5069 8755 c-3 -2 -32 -7 -65 -9 -70 -6 -125 -16 -139 -26 -5 -4 -36
-10 -67 -14 -31 -3 -69 -11 -85 -18 -15 -6 -50 -12 -78 -14 -78 -3 -114 -14
-145 -46 -23 -22 -35 -27 -55 -22 -14 3 -31 2 -38 -4 -6 -6 -26 -12 -44 -15
-17 -3 -37 -9 -44 -13 -7 -4 -47 -8 -88 -9 l-74 -2 -22 -39 c-11 -21 -26 -55
-31 -74 -7 -25 -16 -36 -32 -38 -12 -2 -22 -10 -22 -18 0 -8 -8 -14 -17 -14
-10 0 -27 -7 -37 -15 -11 -8 -28 -15 -39 -15 -24 0 -78 -30 -95 -53 -7 -9 -26
-24 -42 -32 -16 -8 -40 -26 -54 -40 -14 -14 -32 -25 -41 -25 -9 0 -24 -7 -33
-15 -46 -42 -102 -101 -102 -107 0 -5 -8 -8 -19 -8 -10 0 -32 -13 -49 -29 -17
-17 -51 -39 -76 -51 -25 -11 -46 -25 -46 -30 0 -6 -8 -10 -18 -10 -10 0 -27
-7 -38 -15 -10 -8 -26 -15 -35 -15 -9 0 -19 -7 -23 -15 -3 -8 -12 -15 -20 -15
-7 0 -17 -7 -20 -16 -5 -12 -14 -15 -36 -11 -23 5 -30 2 -35 -13 -4 -11 -12
-20 -18 -20 -7 0 -20 -8 -29 -17 -23 -25 -38 -36 -78 -55 -19 -10 -53 -29 -75
-43 -22 -13 -50 -29 -62 -35 -13 -5 -23 -14 -23 -20 0 -5 -6 -10 -14 -10 -7 0
-32 -19 -55 -41 -29 -30 -41 -50 -41 -70 0 -18 -6 -32 -16 -36 -8 -3 -27 -30
-40 -60 -14 -30 -31 -56 -39 -59 -8 -3 -16 -18 -20 -33 -3 -15 -19 -39 -35
-55 -17 -15 -30 -36 -30 -47 0 -10 -4 -19 -9 -19 -5 0 -11 -8 -15 -17 -3 -10
-14 -31 -24 -48 -10 -16 -30 -70 -46 -120 -25 -81 -50 -140 -97 -229 -9 -17
-19 -55 -22 -85 -4 -31 -14 -62 -25 -75 -23 -26 -54 -125 -58 -187 -2 -26 -17
-88 -34 -138 -16 -50 -30 -97 -30 -104 0 -6 -11 -34 -25 -62 -13 -27 -25 -54
-25 -59 0 -5 -6 -17 -14 -25 -17 -19 -54 -126 -61 -173 -4 -32 -10 -55 -52
-194 -10 -33 -26 -68 -35 -78 -10 -9 -23 -36 -29 -59 -6 -23 -15 -51 -20 -62
-4 -11 -13 -38 -18 -60 -6 -22 -20 -58 -31 -80 -11 -21 -20 -45 -20 -53 0 -19
-79 -212 -100 -242 -20 -30 -35 -69 -50 -130 -7 -25 -18 -52 -25 -60 -7 -8
-19 -35 -25 -60 -7 -25 -21 -57 -32 -73 -24 -34 -61 -127 -77 -195 -7 -28 -19
-56 -27 -63 -8 -6 -14 -24 -14 -39 0 -27 -37 -112 -52 -118 -5 -2 -8 -10 -8
-18 0 -7 -9 -28 -20 -46 -11 -18 -20 -49 -20 -68 0 -20 -4 -40 -9 -45 -5 -6
-21 -41 -36 -80 -41 -106 -49 -125 -57 -125 -13 0 -39 -66 -37 -96 0 -16 -2
-45 -6 -64 -3 -19 -8 -66 -11 -105 -5 -89 -5 -81 -4 -210 2 -165 -6 -381 -15
-395 -4 -7 -3 -15 4 -19 7 -5 8 -17 1 -41 -6 -21 -6 -58 0 -102 6 -38 8 -74 4
-79 -3 -5 -8 -64 -11 -132 -6 -144 -6 -161 2 -207 7 -45 7 -35 0 -175 -11
-211 -14 -239 -31 -299 -21 -77 -11 -120 29 -123 15 -1 27 3 27 9 0 6 12 8 33
4 64 -13 96 -15 102 -6 8 13 55 -10 55 -28 0 -10 6 -12 22 -7 13 4 37 7 54 6
21 0 34 5 38 15 4 11 12 13 28 8 52 -16 91 -13 123 12 21 15 45 24 69 24 27 0
43 7 60 25 13 14 34 25 49 25 13 0 27 6 30 14 6 14 53 11 63 -5 10 -17 22 -9
44 26 12 20 30 35 40 35 10 0 25 7 34 15 8 8 19 15 23 15 24 0 88 114 76 134
-4 6 -8 13 -9 16 0 3 -3 12 -7 20 -7 19 -18 72 -17 85 2 82 9 155 14 164 4 6
4 17 -1 23 -13 21 -11 141 4 175 8 21 9 34 3 38 -7 4 -8 75 -5 200 3 110 2
196 -3 199 -11 7 -4 54 9 62 5 3 5 13 0 22 -11 21 -3 61 55 247 86 277 115
381 118 410 1 17 14 48 28 70 14 22 29 56 33 75 4 19 13 48 20 65 8 16 23 61
35 99 11 38 31 83 43 100 30 41 43 67 51 101 4 16 21 47 37 70 17 24 27 48 24
57 -6 15 42 97 58 98 10 0 9 -8 -11 -81 -10 -36 -20 -94 -21 -130 -1 -35 -6
-68 -10 -74 -13 -17 -20 -55 -11 -60 5 -3 7 -20 4 -38 -3 -17 -10 -66 -14
-108 -5 -41 -14 -95 -19 -119 -5 -24 -8 -47 -5 -51 2 -4 -5 -49 -16 -99 -11
-51 -20 -106 -20 -123 1 -18 -3 -53 -9 -78 -5 -26 -12 -87 -16 -135 -12 -201
-15 -240 -20 -252 -3 -7 -1 -21 4 -30 6 -11 1 -43 -14 -92 -12 -41 -23 -101
-24 -133 -1 -32 -6 -70 -12 -83 -5 -14 -6 -42 -3 -63 4 -23 1 -48 -6 -61 -7
-13 -14 -48 -15 -79 -2 -31 -9 -105 -15 -166 -6 -60 -13 -130 -15 -155 -5 -87
-25 -229 -35 -256 -6 -14 -8 -42 -4 -60 4 -21 2 -40 -5 -48 -7 -8 -12 -38 -11
-68 2 -115 -11 -291 -23 -321 -8 -20 -11 -45 -6 -66 4 -19 3 -45 -1 -57 -5
-12 -6 -38 -3 -58 3 -21 -1 -50 -10 -74 -9 -22 -13 -49 -10 -60 3 -12 -4 -32
-18 -51 -26 -35 -30 -108 -7 -126 7 -5 25 -26 40 -46 15 -20 39 -40 53 -43 16
-4 25 -13 25 -27 0 -11 7 -22 16 -26 15 -6 47 -31 87 -67 11 -11 43 -31 69
-44 33 -16 48 -30 48 -43 0 -11 8 -22 18 -26 9 -3 33 -13 52 -21 19 -8 44 -17
54 -19 11 -2 28 -11 39 -21 18 -16 20 -16 32 1 15 21 41 22 78 2 25 -13 83
-28 104 -27 5 0 15 -5 23 -12 23 -20 43 -24 63 -14 19 10 123 -7 144 -24 15
-12 91 -19 98 -8 2 4 26 3 52 -2 32 -7 52 -7 64 0 18 12 92 -9 120 -34 8 -8
31 -14 50 -14 19 0 70 -14 113 -30 43 -17 95 -32 115 -34 20 -1 43 -5 51 -9 8
-3 22 -5 30 -5 8 0 60 -12 115 -26 73 -20 105 -24 120 -17 11 5 35 10 53 10
18 0 40 5 48 12 11 9 23 8 54 -6 28 -12 47 -15 67 -9 15 4 46 9 68 10 22 1 60
7 85 14 25 7 59 13 77 14 18 1 38 7 45 14 6 6 20 12 30 12 10 0 37 13 59 30
29 20 49 28 64 24 13 -3 26 -1 29 5 4 6 16 11 26 11 21 0 90 38 90 50 0 4 9
10 20 13 11 3 20 12 20 21 0 9 8 16 20 16 11 0 20 4 20 10 0 5 21 19 48 31 41
18 172 139 172 159 0 4 32 30 72 60 39 29 92 74 117 99 25 26 65 61 89 80 23
18 61 53 85 77 23 24 47 44 53 44 6 0 26 15 45 33 19 18 42 36 52 40 9 3 17
11 17 17 0 5 7 10 15 10 8 0 15 7 15 15 0 8 9 23 20 32 11 10 20 28 20 41 0
13 5 33 12 45 6 12 12 32 14 44 1 13 5 41 9 63 5 27 3 40 -5 40 -7 0 -9 8 -5
21 4 11 8 71 9 132 1 62 5 117 9 124 9 15 19 209 21 403 0 85 4 160 7 165 3 6
4 21 2 35 -11 81 -1 266 17 314 5 15 5 27 -2 34 -15 15 9 109 32 125 9 6 25
27 34 44 9 18 21 33 26 33 6 0 18 16 27 35 9 19 23 35 30 35 8 0 17 8 20 18 4
9 19 30 35 45 15 16 28 35 28 43 0 8 9 14 19 14 14 0 21 10 26 33 4 17 20 43
35 57 15 14 31 41 35 60 8 39 63 119 82 120 6 0 14 8 18 19 3 10 21 32 40 50
19 17 35 38 35 46 0 8 9 22 19 32 10 10 29 38 42 63 13 25 29 51 36 58 7 7 13
19 13 26 0 7 12 23 26 37 15 13 33 39 41 58 8 19 27 50 43 70 15 20 36 62 45
93 10 31 26 65 36 74 11 9 19 25 19 34 0 10 6 23 14 29 8 7 18 26 21 42 4 16
13 42 21 58 8 17 14 55 14 88 0 32 -1 70 0 86 0 15 0 37 -1 50 -1 12 3 39 9
59 5 20 7 40 4 43 -3 3 -7 27 -9 53 -2 44 -9 66 -36 117 -15 28 -46 175 -41
190 3 6 -2 17 -10 24 -8 7 -12 19 -9 27 3 8 0 20 -6 28 -6 7 -12 31 -14 52 -1
21 -6 44 -9 50 -4 6 -8 40 -9 75 -1 35 -5 69 -8 74 -11 19 -32 131 -41 217 -5
49 -12 93 -16 100 -4 7 -9 42 -10 79 0 36 -4 71 -7 76 -4 6 -9 38 -12 72 -3
35 -8 67 -11 73 -4 5 -8 42 -10 81 -4 100 -15 208 -30 317 -3 25 -7 56 -8 70
-2 14 -4 27 -6 30 -7 12 -11 75 -13 211 -1 82 -7 152 -12 160 -23 30 -37 67
-34 90 1 13 -1 58 -5 99 -4 41 -9 93 -11 115 -1 22 -4 42 -5 45 -1 3 -2 12 -1
22 1 9 -3 19 -9 23 -5 3 -10 16 -10 29 0 12 -4 26 -9 32 -5 5 -16 52 -26 104
-9 52 -23 115 -31 139 -9 27 -13 59 -9 82 4 22 2 40 -4 43 -6 4 -13 29 -17 56
-4 28 -11 50 -16 50 -5 0 -8 6 -5 13 2 6 0 21 -6 32 -6 11 -11 28 -11 37 -1
14 -66 68 -82 68 -2 0 -18 13 -34 30 -16 16 -41 32 -57 36 -15 4 -39 15 -53
24 -14 10 -35 21 -48 24 -12 4 -27 16 -32 27 -6 10 -15 19 -20 19 -5 0 -26 11
-46 25 -20 14 -50 25 -67 25 -17 0 -38 6 -46 14 -24 21 -117 56 -151 56 -16 0
-31 4 -34 9 -9 14 -54 19 -65 8 -8 -8 -15 -7 -23 1 -7 7 -9 12 -5 12 19 0 -32
39 -65 49 -33 11 -72 41 -53 41 22 0 -34 42 -79 59 -93 35 -106 43 -106 67 0
13 -5 26 -11 29 -6 4 -8 13 -5 21 3 7 1 16 -3 18 -5 3 -11 28 -15 55 -7 55
-25 72 -94 90 -22 6 -53 18 -69 26 -30 16 -37 18 -44 10z m-95 -162 c4 -5 33
-15 64 -24 52 -14 57 -18 60 -46 4 -44 -12 -98 -29 -96 -34 4 -62 13 -75 24
-8 7 -17 9 -21 5 -3 -3 -15 1 -25 10 -10 9 -30 16 -45 16 -16 -1 -54 -1 -85
-2 -31 0 -59 -4 -62 -9 -4 -5 -25 -8 -47 -6 -32 4 -48 -1 -73 -20 -20 -15 -46
-25 -67 -25 -46 0 -67 -14 -51 -33 10 -12 1 -17 -60 -31 -194 -45 -228 -58
-228 -92 0 -21 4 -25 18 -19 9 4 41 11 70 15 29 5 57 12 62 15 5 3 35 13 66
21 43 11 60 12 70 3 10 -8 18 -8 27 -1 6 5 25 10 42 10 16 0 31 5 33 11 2 6
17 11 32 11 16 0 31 4 35 9 6 10 102 3 120 -8 6 -4 33 -6 60 -6 51 2 112 -23
128 -51 4 -7 24 -23 45 -34 l38 -21 -2 -73 c-1 -40 -4 -82 -8 -93 -4 -12 -3
-24 3 -27 5 -4 5 -20 -2 -43 -5 -21 -12 -65 -14 -98 -8 -140 -22 -239 -44
-311 -5 -17 -9 -46 -9 -66 0 -40 -17 -98 -34 -113 -6 -5 -20 -23 -30 -40 -11
-16 -27 -36 -37 -42 -9 -7 -24 -32 -34 -55 -9 -23 -25 -48 -35 -55 -10 -7 -26
-35 -35 -62 -9 -27 -25 -57 -35 -66 -11 -10 -20 -23 -20 -30 0 -25 -40 -93
-65 -109 -26 -17 -26 -17 -40 18 -19 45 -19 44 8 48 19 3 15 9 -30 37 -33 21
-53 41 -53 53 0 10 -11 24 -25 30 -14 6 -34 26 -45 45 -10 18 -24 33 -30 33
-5 0 -10 10 -10 23 0 15 -11 29 -30 40 -16 10 -30 22 -30 27 0 12 -115 130
-127 130 -20 0 -32 27 -37 82 -2 31 -10 66 -16 78 -7 13 -9 33 -4 48 7 24 14
119 13 162 -5 228 -16 414 -25 442 -5 18 19 113 43 166 9 21 20 32 28 28 7 -2
18 1 24 8 6 7 38 16 72 19 33 4 68 11 79 17 10 5 30 10 43 10 14 0 30 7 37 15
7 8 19 15 27 15 7 0 16 6 19 13 5 13 36 15 67 4 38 -15 46 -15 57 -1 7 8 22
14 33 14 11 0 29 8 39 17 14 13 24 14 36 7 19 -11 93 2 127 23 23 14 39 16 49
6z m451 -315 c34 -13 66 -33 78 -50 11 -15 25 -28 31 -28 5 0 17 -6 25 -14 27
-23 134 -58 181 -58 25 0 50 -4 55 -8 6 -4 24 -10 42 -13 17 -3 43 -18 57 -32
19 -18 36 -25 66 -25 29 0 40 -4 40 -15 0 -8 7 -15 15 -15 8 0 15 -3 15 -8 0
-4 15 -13 33 -20 40 -17 109 -52 120 -62 10 -9 -70 -257 -90 -281 -7 -8 -13
-19 -13 -23 0 -4 -9 -20 -19 -35 -11 -14 -27 -51 -36 -81 -28 -90 -57 -160
-66 -160 -5 0 -9 -12 -9 -28 0 -15 -6 -36 -13 -47 -7 -11 -14 -37 -16 -58 -1
-21 -11 -55 -22 -76 -11 -21 -22 -55 -24 -75 -3 -21 -9 -45 -14 -54 -21 -41
-30 -110 -22 -167 5 -34 4 -74 -1 -93 -6 -23 -6 -57 2 -101 7 -36 13 -175 15
-308 2 -133 6 -246 9 -252 3 -5 9 -105 11 -222 3 -117 7 -214 8 -216 3 -2 2
-43 -9 -268 -3 -71 -8 -170 -10 -220 -6 -149 -14 -207 -34 -224 -21 -19 -39
-89 -39 -154 1 -26 -4 -53 -9 -60 -5 -7 -13 -30 -16 -51 -4 -22 -22 -60 -39
-85 -18 -25 -40 -63 -49 -83 -9 -21 -22 -38 -27 -38 -6 0 -17 -16 -25 -35 -8
-19 -20 -35 -25 -35 -11 0 -51 -80 -51 -102 0 -7 -23 -37 -50 -67 -28 -29 -50
-57 -50 -61 0 -4 -18 -29 -39 -55 -21 -26 -41 -60 -45 -75 -3 -15 -17 -40 -31
-56 -14 -15 -30 -44 -36 -64 -6 -20 -31 -56 -55 -80 -24 -24 -44 -50 -44 -58
0 -9 -6 -23 -13 -31 -8 -9 -20 -32 -27 -51 -8 -19 -17 -37 -20 -40 -3 -3 -17
-23 -30 -45 -13 -22 -32 -46 -42 -53 -10 -7 -18 -19 -18 -26 0 -7 -9 -21 -19
-30 -11 -10 -29 -41 -41 -69 -12 -29 -38 -73 -56 -98 -19 -26 -34 -50 -34 -54
0 -5 -15 -23 -32 -41 -45 -46 -58 -62 -58 -73 0 -10 -43 -93 -78 -151 -57 -93
-67 -153 -32 -185 12 -10 19 -24 16 -31 -3 -7 1 -15 9 -18 7 -2 15 -15 17 -28
2 -12 12 -27 23 -33 36 -18 61 -40 68 -58 3 -9 22 -25 41 -34 22 -10 39 -27
45 -45 6 -15 21 -32 35 -38 15 -5 26 -16 26 -25 0 -8 12 -22 28 -32 34 -21 68
-56 63 -63 -3 -3 19 -17 48 -31 29 -14 58 -37 64 -50 7 -13 27 -27 47 -33 19
-5 38 -13 41 -18 3 -4 32 -19 65 -31 56 -23 62 -23 89 -8 60 32 95 63 102 89
3 15 15 33 25 40 17 13 36 43 72 117 8 17 26 43 40 58 14 16 33 42 42 58 8 17
23 38 34 49 10 10 26 35 36 57 10 21 26 44 36 51 10 7 18 17 18 22 0 26 36 90
51 90 24 0 29 -10 17 -39 -9 -21 -19 -348 -18 -615 0 -22 -4 -55 -9 -73 -5
-18 -6 -35 -1 -38 8 -5 5 -92 -6 -180 -10 -82 -10 -199 0 -216 12 -22 -29 -65
-48 -50 -12 10 -113 16 -161 10 -11 -1 -35 -11 -53 -21 -18 -10 -38 -18 -44
-18 -6 0 -26 -11 -44 -25 -18 -14 -40 -25 -48 -25 -16 0 -23 -3 -84 -33 -19
-9 -42 -17 -53 -17 -11 0 -19 -7 -19 -16 0 -12 -6 -15 -22 -11 -11 3 -34 -1
-50 -9 -21 -11 -33 -12 -42 -5 -10 8 -23 4 -52 -16 -57 -38 -117 -63 -141 -57
-11 3 -27 -1 -36 -10 -8 -9 -22 -16 -31 -16 -8 0 -18 -4 -21 -10 -3 -5 -24
-10 -45 -10 -21 0 -42 -5 -45 -11 -4 -5 -17 -9 -28 -8 -12 2 -36 -5 -53 -14
-17 -9 -34 -13 -37 -10 -4 3 -13 0 -21 -7 -11 -8 -31 -10 -65 -5 -31 4 -51 3
-56 -4 -3 -6 -17 -11 -31 -11 -14 0 -24 -6 -24 -14 0 -12 -87 -33 -114 -27 -5
1 -16 -5 -26 -14 -13 -12 -23 -13 -46 -5 -28 10 -29 13 -27 63 1 28 4 129 7
224 2 95 6 176 9 180 6 11 3 46 -7 61 -4 6 -4 17 0 23 3 6 8 41 10 77 2 37 8
80 14 97 5 16 10 48 9 70 -1 85 3 170 9 180 4 6 8 57 10 115 6 187 9 237 15
246 8 14 11 169 4 181 -4 6 2 37 12 69 16 49 19 87 19 219 -1 88 2 214 6 280
4 66 10 163 12 215 6 110 11 167 24 304 7 71 7 103 -1 113 -9 10 -8 17 1 28 7
8 10 31 8 52 -3 21 1 59 9 86 8 26 13 66 12 90 -1 23 3 63 8 90 6 26 7 49 3
52 -4 2 -5 39 -3 82 2 43 5 101 6 128 1 28 7 57 12 65 5 8 10 107 11 220 1
178 4 216 24 289 12 46 20 95 17 109 -3 15 -1 34 3 42 7 14 17 145 25 321 1
30 5 67 8 81 4 15 3 30 -3 33 -6 4 -7 11 -4 17 4 6 9 68 11 137 7 222 19 357
34 376 8 11 26 110 34 196 3 29 12 60 20 69 9 10 15 41 16 85 2 54 6 73 20 83
9 6 20 26 24 43 4 17 14 33 22 36 20 8 63 51 63 63 0 6 5 10 10 10 6 0 10 6
10 13 0 7 9 18 20 25 11 7 20 19 20 26 0 8 13 25 28 38 16 13 34 42 41 65 6
24 23 55 36 69 14 15 25 31 25 35 0 5 15 23 33 42 17 18 50 54 72 80 40 47 77
61 101 37 14 -14 118 -39 129 -30 6 4 30 5 55 1 36 -5 48 -12 65 -38 14 -23
38 -39 86 -59 93 -37 104 -33 104 41 1 33 -6 73 -13 89 -8 16 -15 43 -17 60
-5 45 -24 115 -37 140 -7 11 -13 39 -16 61 -2 22 -7 44 -12 50 -5 6 -12 34
-16 63 -4 31 -12 52 -19 52 -21 0 -39 30 -40 68 -1 21 -9 54 -18 74 -9 21 -16
46 -16 55 -1 43 -5 59 -18 71 -7 7 -13 21 -13 30 0 9 -7 26 -15 36 -8 11 -15
25 -15 32 0 6 -8 29 -17 50 -9 22 -15 47 -14 57 1 10 -3 24 -9 32 -7 8 -9 19
-6 24 4 5 2 12 -4 16 -15 9 -12 35 4 35 8 0 40 -10 71 -22z m-178 -48 c-3 -11
-1 -23 4 -26 5 -3 9 -16 9 -29 0 -13 4 -26 9 -30 6 -3 13 -27 17 -52 4 -26 18
-67 30 -92 13 -24 24 -52 24 -62 0 -10 5 -21 10 -24 6 -4 8 -15 5 -25 -3 -10
-1 -21 5 -25 5 -3 10 -17 10 -31 0 -13 5 -24 11 -24 6 0 9 -6 6 -12 -2 -7 2
-25 9 -39 7 -15 10 -29 7 -33 -4 -3 -1 -6 5 -6 7 0 12 -9 12 -21 0 -11 6 -33
14 -47 16 -30 30 -81 27 -98 -1 -7 5 -14 14 -18 8 -3 15 -16 15 -29 0 -13 3
-27 6 -30 4 -4 8 -23 10 -44 2 -21 6 -49 9 -63 l5 -25 -20 24 c-16 18 -32 25
-64 26 -55 3 -136 33 -136 52 0 9 -6 12 -19 8 -30 -9 -48 24 -52 100 0 6 3 24
6 42 3 17 2 34 -4 37 -5 4 -6 18 -2 34 5 15 7 61 5 102 -1 41 -3 100 -3 130 1
30 0 121 0 203 -1 101 3 147 10 147 6 0 9 -9 6 -20z m-1245 -28 c-1 -19 -13
-50 -27 -70 -14 -20 -25 -45 -25 -55 0 -19 -28 -77 -42 -88 -4 -3 -12 -29 -18
-58 -5 -29 -16 -65 -24 -79 -7 -15 -19 -49 -25 -76 -6 -26 -20 -67 -31 -91
-10 -23 -26 -75 -34 -115 -9 -40 -22 -80 -30 -89 -7 -9 -17 -32 -21 -51 -4
-19 -15 -51 -25 -70 -29 -56 -58 -140 -76 -221 -16 -74 -16 -77 4 -122 l20
-45 35 16 c23 10 38 25 42 41 7 29 43 71 60 71 13 0 95 79 95 92 0 5 15 8 33
6 33 -3 30 1 89 -120 4 -10 8 -27 8 -38 0 -11 6 -20 13 -20 8 0 22 -9 32 -20
21 -23 100 -29 107 -8 3 9 13 8 39 -4 19 -9 43 -18 54 -20 11 -2 25 -14 32
-27 6 -14 19 -28 27 -33 18 -10 49 -76 41 -88 -2 -4 4 -15 15 -25 11 -10 20
-26 20 -36 0 -10 4 -21 10 -24 5 -3 10 -16 10 -28 1 -70 -1 -95 -11 -119 -6
-16 -9 -38 -6 -50 4 -13 0 -47 -8 -78 -8 -30 -17 -82 -20 -115 -4 -35 -12 -65
-21 -72 -12 -8 -15 -34 -16 -110 0 -54 -2 -102 -5 -107 -3 -5 -7 -36 -9 -70
-1 -33 -5 -72 -8 -86 -2 -14 -9 -60 -15 -103 -6 -43 -15 -85 -20 -95 -5 -9 -7
-39 -5 -66 2 -26 -1 -56 -6 -66 -6 -10 -12 -48 -14 -84 -2 -36 -7 -70 -11 -76
-4 -6 -8 -49 -10 -95 -2 -46 -8 -99 -14 -117 -6 -18 -13 -81 -15 -140 -3 -60
-8 -113 -11 -118 -4 -6 -8 -102 -10 -213 -2 -111 -6 -216 -9 -234 -4 -17 -2
-34 4 -38 6 -4 6 -15 -1 -32 -5 -14 -9 -40 -9 -57 1 -29 -3 -102 -15 -276 -3
-41 -5 -118 -4 -170 1 -122 1 -121 -6 -215 -3 -44 -7 -109 -8 -145 -2 -36 -6
-71 -11 -78 -4 -7 -3 -18 3 -25 6 -8 7 -27 1 -50 -4 -22 -4 -39 1 -43 9 -5 4
-121 -6 -171 -3 -12 0 -25 5 -28 6 -4 8 -16 5 -26 -11 -35 -16 -90 -20 -239
-3 -80 -5 -145 -6 -145 -3 0 -10 -57 -12 -105 -2 -31 -6 -60 -9 -66 -9 -13
-19 -118 -23 -239 -5 -125 -20 -301 -30 -355 -7 -37 -24 -321 -24 -400 -1
-114 -7 -232 -14 -250 -4 -8 -8 -42 -9 -75 l-3 -60 -60 -8 c-37 -4 -77 -3
-104 3 -26 7 -47 7 -50 2 -5 -7 -196 -10 -196 -2 0 5 -51 7 -60 2 -19 -12 -40
-12 -70 -1 -43 15 -113 21 -120 9 -3 -5 -19 -7 -35 -3 -17 3 -30 2 -30 -3 0
-10 -124 -9 -192 1 -31 5 -52 4 -61 -3 -20 -17 -88 4 -94 29 -4 14 -11 18 -24
14 -11 -4 -26 0 -34 8 -8 8 -45 27 -82 41 -38 14 -90 37 -117 51 -55 28 -94
32 -102 12 -3 -9 -20 -14 -47 -13 l-42 1 3 60 c1 33 3 116 5 185 1 69 6 130
10 137 8 12 13 85 21 275 2 53 7 102 11 108 5 7 7 36 6 65 -1 29 4 65 10 81
10 26 33 232 44 384 2 30 9 98 15 150 6 52 13 114 16 138 2 24 12 78 23 121
10 43 16 90 14 105 -3 14 0 40 7 56 11 26 17 177 9 205 -2 6 3 27 10 48 7 22
11 51 8 66 -3 15 1 48 10 72 8 24 15 64 15 89 0 25 6 73 14 108 8 35 14 87 14
116 0 28 4 56 9 61 9 10 19 88 27 220 7 124 12 179 22 235 5 30 8 60 5 67 -3
7 5 42 16 78 15 45 19 77 15 105 -4 23 -2 45 4 52 14 18 17 47 8 86 -5 21 -4
38 4 47 9 11 9 23 1 48 -9 26 -8 41 3 68 8 19 17 66 20 105 4 39 10 84 15 101
5 16 7 60 5 97 -3 45 2 93 17 151 12 49 18 97 14 113 -3 16 -1 42 5 58 6 16
13 52 15 79 2 28 9 70 15 94 8 31 8 47 -1 57 -8 10 -6 28 10 75 12 33 19 69
16 79 -3 10 2 53 11 96 10 44 16 99 15 122 -1 24 3 50 9 57 6 7 10 37 10 67
-1 29 6 82 15 118 9 36 18 88 20 115 1 28 7 67 13 88 5 20 7 39 3 42 -4 2 -6
36 -4 76 2 60 -1 79 -22 121 -14 27 -25 57 -25 67 0 9 -5 22 -12 29 -7 7 -9
12 -6 12 4 0 1 12 -7 26 -7 15 -11 33 -8 40 3 8 0 20 -6 28 -6 7 -16 51 -22
97 -6 46 -17 91 -25 100 -8 8 -14 25 -14 37 0 12 -4 22 -9 22 -5 0 -12 25 -16
55 -3 30 -11 55 -16 55 -5 0 -9 15 -9 34 0 27 7 39 29 55 16 12 36 21 45 21 9
0 19 7 22 15 4 8 13 15 20 15 8 0 17 7 20 15 4 8 15 15 26 15 11 0 44 17 75
38 70 47 70 48 117 68 21 10 53 30 70 46 17 15 36 28 42 28 6 0 17 7 25 16 8
10 21 13 36 9 16 -4 25 -1 29 10 4 8 12 15 20 15 7 0 18 9 24 20 6 11 17 20
26 20 8 0 17 7 20 15 4 8 11 15 16 15 17 0 106 74 111 93 3 9 12 17 21 17 9 0
16 3 16 8 0 4 17 16 38 27 20 11 41 25 45 32 4 7 14 13 21 13 8 0 16 7 20 15
3 8 12 15 20 15 9 0 20 9 26 20 6 11 21 20 33 20 13 0 28 5 35 12 6 6 20 13
29 14 10 2 19 8 21 14 2 6 14 10 26 8 17 -2 21 -9 18 -36z m116 -79 c1 -38 4
-108 6 -158 3 -93 -11 -145 -41 -145 -7 0 -13 -3 -14 -7 0 -5 -2 -17 -4 -28
-2 -11 -6 -37 -9 -57 -4 -21 -12 -57 -20 -80 -16 -48 -31 -142 -27 -173 4 -38
11 -65 19 -65 10 0 48 87 57 130 4 19 12 46 18 60 10 25 10 25 19 -10 5 -19
11 -55 13 -80 13 -149 25 -174 90 -186 25 -4 40 -15 50 -34 8 -15 25 -35 39
-44 15 -9 26 -23 26 -31 0 -7 11 -22 25 -33 14 -11 25 -26 25 -34 0 -8 12 -25
26 -37 33 -29 22 -40 -42 -42 -50 -2 -92 13 -107 37 -6 10 -24 12 -70 8 -34
-2 -69 -7 -78 -9 -11 -4 -21 7 -34 37 -10 24 -24 50 -31 58 -6 8 -11 22 -11
30 0 33 -44 89 -76 95 -18 4 -38 12 -44 17 -17 13 -54 3 -83 -22 -53 -46 -57
8 -8 110 18 36 33 83 35 105 2 22 14 63 28 91 14 28 25 57 25 65 0 8 8 30 18
49 24 44 62 162 62 191 0 11 9 32 20 46 11 15 27 51 36 82 18 67 47 131 58
131 1 0 3 -30 4 -67z m1026 -203 c-4 -16 -2 -36 2 -42 12 -16 9 -120 -4 -175
-6 -28 -6 -43 0 -43 6 0 7 -18 4 -42 -3 -24 -6 -70 -7 -103 -2 -63 -10 -75
-46 -75 -28 0 -28 -2 -4 85 14 54 18 95 15 177 -3 59 0 109 5 112 5 3 7 23 4
44 -5 39 10 92 27 92 5 0 7 -13 4 -30z m1146 -84 c0 -14 4 -27 10 -31 5 -3 6
-13 3 -22 -4 -9 1 -21 11 -28 19 -14 25 -39 28 -105 1 -25 5 -50 9 -55 4 -6 9
-36 12 -68 2 -31 7 -60 10 -64 4 -3 7 -22 7 -40 0 -19 9 -55 21 -80 25 -56 36
-125 43 -270 3 -76 12 -131 26 -175 13 -37 21 -84 20 -115 0 -29 4 -71 10 -93
9 -32 8 -45 -1 -56 -9 -11 -9 -23 0 -55 7 -21 9 -44 6 -49 -3 -6 -1 -10 4 -10
6 0 11 -10 10 -22 0 -13 6 -61 14 -108 8 -47 12 -91 9 -98 -2 -7 1 -19 8 -27
6 -8 9 -23 5 -35 -4 -12 -2 -51 4 -88 6 -37 16 -103 22 -147 7 -44 14 -84 17
-89 3 -5 6 -41 7 -80 2 -39 4 -71 5 -71 1 0 4 -11 5 -25 2 -14 8 -43 13 -65 6
-22 16 -80 22 -130 6 -49 18 -126 26 -170 8 -44 16 -100 17 -125 1 -25 6 -48
11 -52 5 -3 11 -15 12 -25 1 -10 7 -36 13 -58 5 -22 12 -65 15 -95 6 -71 16
-119 27 -126 5 -3 9 -14 9 -25 0 -11 7 -31 16 -44 17 -25 18 -51 11 -240 -3
-78 -9 -120 -21 -142 -9 -18 -20 -33 -24 -33 -4 0 -13 -15 -21 -32 -7 -18 -19
-37 -25 -43 -6 -5 -24 -35 -40 -66 -15 -31 -47 -76 -69 -100 -23 -24 -48 -57
-54 -72 -7 -15 -20 -30 -28 -33 -8 -4 -15 -14 -15 -24 0 -11 -4 -22 -10 -25
-5 -3 -10 -14 -10 -24 0 -10 -9 -26 -21 -37 -12 -10 -28 -32 -36 -48 -17 -34
-99 -137 -138 -177 -15 -14 -32 -37 -39 -50 -7 -13 -32 -53 -54 -89 -23 -36
-49 -80 -59 -99 -9 -19 -24 -36 -34 -38 -10 -3 -23 -19 -30 -35 -7 -17 -22
-41 -33 -54 -12 -12 -33 -36 -48 -53 -16 -16 -28 -34 -28 -40 0 -6 -20 -31
-45 -57 -25 -25 -45 -49 -45 -55 0 -5 -4 -9 -10 -9 -5 0 -10 -9 -10 -20 0 -11
-6 -20 -12 -20 -7 0 -23 -18 -36 -40 -12 -22 -27 -40 -32 -40 -6 0 -10 -6 -10
-12 -1 -7 -14 -31 -30 -53 -16 -22 -39 -61 -51 -87 -12 -27 -25 -48 -30 -48
-10 0 -39 29 -39 40 0 13 -63 70 -77 70 -7 0 -13 11 -13 25 0 13 -6 28 -13 32
-7 4 -30 36 -52 69 -27 44 -48 65 -72 73 -18 7 -33 16 -33 21 0 4 -16 24 -35
43 -19 19 -35 40 -35 46 0 6 -13 20 -30 33 -16 12 -32 30 -36 40 -3 10 -10 18
-15 18 -11 0 -49 37 -49 48 0 5 -9 17 -20 27 -28 25 -25 52 8 83 34 33 99 132
113 172 6 16 14 30 18 30 4 0 18 20 30 45 12 25 29 45 36 45 8 0 17 10 20 23
4 12 15 31 25 42 10 11 25 38 35 60 34 80 61 120 113 168 12 11 22 26 22 32 0
7 11 24 24 38 14 15 30 42 37 62 7 19 18 35 25 35 6 0 17 13 24 29 6 16 25 44
42 63 17 18 37 48 44 66 8 17 19 32 24 32 11 0 35 52 45 101 4 19 19 50 33 68
27 37 33 71 32 189 -1 57 1 63 23 71 36 14 50 82 52 256 2 83 6 175 10 205 21
146 18 588 -4 714 -6 38 -13 144 -15 235 -2 91 -7 222 -11 291 -11 213 -11
322 3 395 16 84 16 82 31 120 13 32 19 58 25 115 5 48 25 97 41 104 7 2 16 20
20 38 4 18 10 38 14 43 4 6 18 43 31 83 13 39 27 72 31 72 20 0 38 37 68 132
18 57 37 111 42 120 5 10 9 28 9 41 0 13 3 27 7 30 13 14 23 6 23 -17z m-3469
-483 c3 -18 11 -39 17 -46 6 -7 14 -33 18 -57 4 -25 10 -49 14 -55 10 -14 32
-102 35 -145 3 -38 9 -59 30 -105 7 -16 16 -48 20 -70 4 -22 12 -43 18 -47 7
-4 11 -42 11 -100 1 -102 -8 -172 -29 -233 -7 -22 -13 -81 -13 -130 0 -67 -6
-105 -21 -145 -12 -30 -24 -88 -27 -129 -3 -40 -12 -87 -18 -105 -7 -17 -11
-49 -9 -70 2 -22 0 -51 -5 -65 -5 -15 -6 -36 -1 -48 5 -14 3 -41 -6 -70 -7
-26 -16 -75 -18 -108 -3 -33 -12 -83 -21 -110 -8 -28 -15 -73 -15 -100 1 -28
-2 -86 -6 -130 -3 -44 -6 -97 -6 -118 0 -22 -3 -47 -9 -56 -5 -10 -11 -49 -14
-88 -3 -46 -12 -83 -25 -104 -12 -19 -25 -45 -31 -59 -6 -14 -15 -34 -20 -45
-5 -11 -21 -51 -35 -90 -30 -81 -52 -134 -65 -155 -10 -16 -49 -96 -71 -147
-8 -18 -17 -33 -21 -33 -5 0 -8 -5 -8 -12 0 -6 -6 -19 -14 -27 -7 -9 -25 -56
-41 -106 -15 -49 -38 -109 -51 -132 -13 -23 -24 -55 -24 -72 0 -40 -29 -111
-45 -111 -8 0 -17 -28 -24 -82 -7 -46 -21 -110 -31 -143 -11 -33 -35 -107 -54
-165 -49 -151 -76 -257 -71 -272 3 -8 -1 -34 -8 -59 -13 -43 -13 -96 1 -129 9
-24 12 -50 13 -140 3 -129 6 -126 -102 -125 -53 0 -97 -4 -103 -10 -12 -12
-85 -35 -110 -35 -10 0 -25 -7 -33 -16 -9 -9 -26 -14 -40 -11 -12 2 -23 0 -23
-4 0 -5 -9 -9 -20 -9 -30 0 -114 -31 -122 -45 -4 -6 -22 -12 -39 -13 -18 0
-35 -6 -39 -13 -4 -6 -12 -9 -17 -6 -6 4 -19 0 -29 -8 -10 -8 -27 -15 -36 -15
-9 0 -23 -9 -32 -21 -8 -12 -22 -19 -33 -17 -16 3 -18 12 -16 73 3 92 3 109 1
245 0 63 2 198 6 300 3 102 8 248 11 325 8 240 23 355 47 355 13 0 72 133 87
195 7 27 16 54 21 60 4 5 11 26 14 45 11 54 49 148 78 192 10 14 18 39 18 56
0 16 7 35 15 42 8 7 15 16 15 21 0 5 9 28 19 52 11 23 32 80 46 127 35 111 49
145 92 225 23 42 52 113 68 169 10 33 27 67 41 79 13 11 24 27 24 34 0 17 44
156 77 243 14 36 31 81 38 100 7 19 48 141 90 270 42 129 92 277 111 328 19
51 41 121 50 155 19 79 63 226 75 252 5 11 34 97 64 190 31 94 78 216 105 272
28 57 50 110 50 118 0 8 13 29 29 47 15 18 35 47 44 63 8 17 24 39 36 49 12
11 21 25 21 33 0 7 7 30 15 49 19 47 56 45 66 -3z m1680 -525 c1 -7 1 -16 0
-20 0 -4 11 -16 25 -27 20 -16 25 -30 28 -79 2 -32 8 -68 14 -78 13 -25 7
-176 -8 -205 -7 -12 -10 -40 -8 -63 3 -22 1 -52 -4 -66 -7 -22 -13 -25 -42
-22 -25 3 -40 -2 -56 -18 -12 -12 -23 -20 -26 -18 -6 6 33 317 47 373 6 28 16
55 21 62 10 13 1 118 -13 144 -8 16 -3 29 13 29 4 0 9 -6 9 -12z m-35 -768
c11 0 30 7 42 16 19 13 22 13 22 0 0 -8 -5 -27 -11 -43 -12 -32 -18 -312 -6
-316 4 -1 1 -25 -8 -53 -10 -36 -16 -106 -18 -230 -2 -147 -5 -185 -20 -213
-9 -19 -17 -48 -17 -65 0 -17 -7 -60 -14 -96 -8 -36 -11 -69 -8 -75 9 -15 2
-233 -8 -258 -5 -12 -9 -16 -9 -9 -1 7 -13 17 -27 22 -29 11 -76 -8 -93 -37
-8 -15 -11 -15 -12 -3 -4 46 1 136 11 213 6 49 9 95 6 104 -4 8 -2 32 3 52 5
20 12 104 16 186 4 90 14 183 26 233 10 45 19 111 19 145 1 34 5 82 11 107 6
25 16 113 23 195 7 83 14 152 15 154 0 2 9 -3 19 -12 10 -10 27 -17 38 -17z
m-71 -1592 c-2 -40 -4 -127 -5 -193 -2 -71 -10 -151 -21 -195 -9 -41 -14 -79
-11 -85 7 -9 7 -33 4 -162 l-2 -53 -20 20 c-22 22 -42 25 -71 10 -17 -9 -19
-7 -20 17 -2 43 2 67 13 80 5 7 7 20 4 30 -12 38 -14 463 -2 516 11 51 12 52
46 49 23 -1 44 5 60 18 14 11 26 20 26 20 1 0 0 -33 -1 -72z m-40 -823 c-2
-11 -7 -74 -9 -140 -3 -66 -12 -141 -20 -167 -10 -30 -11 -50 -5 -54 5 -3 7
-15 4 -25 -12 -36 -15 -178 -5 -184 6 -4 8 -11 4 -16 -3 -5 -7 -40 -9 -77 -2
-37 -6 -116 -9 -177 -3 -60 -8 -145 -12 -188 -6 -70 -8 -77 -25 -72 -11 4 -33
-1 -51 -9 -17 -9 -32 -16 -33 -16 0 0 2 30 6 68 4 37 8 122 8 189 1 67 7 159
15 205 16 100 15 92 21 353 8 311 5 289 37 293 15 2 38 16 50 31 24 30 41 23
33 -14z m733 -383 c2 -12 10 -22 18 -22 8 0 14 -4 14 -9 0 -5 14 -11 32 -15
35 -7 68 -32 68 -52 0 -7 11 -21 24 -31 13 -11 25 -28 27 -38 3 -11 27 -31 59
-48 30 -15 58 -37 62 -47 4 -11 16 -25 26 -31 11 -7 17 -20 15 -29 -3 -10 2
-20 11 -23 15 -6 56 -62 85 -116 8 -14 20 -30 28 -34 7 -4 13 -16 13 -26 0
-10 6 -24 14 -30 19 -16 9 -49 -26 -89 -15 -18 -28 -37 -28 -42 0 -6 -5 -10
-11 -10 -8 0 -10 12 -6 34 6 38 -6 56 -40 56 -27 0 -52 -35 -55 -76 -2 -41 -5
-44 -36 -33 -17 6 -32 21 -39 40 -7 17 -20 33 -31 35 -10 3 -26 21 -37 40 -10
19 -22 34 -27 34 -4 0 -8 9 -8 20 0 13 -14 27 -40 40 -22 11 -40 25 -40 30 0
5 -15 24 -34 42 -94 89 -115 108 -124 108 -5 0 -26 27 -46 59 -43 70 -44 65
42 197 17 28 32 55 32 60 0 16 24 35 40 32 8 -2 16 -13 18 -26z m-190 -358
c12 -8 22 -19 22 -24 0 -5 18 -21 40 -35 22 -14 40 -32 40 -40 0 -8 7 -15 15
-15 8 0 15 -4 15 -10 0 -5 16 -17 35 -26 19 -9 35 -22 35 -30 0 -7 16 -25 35
-40 19 -14 35 -32 35 -39 0 -6 16 -20 35 -31 19 -10 35 -26 35 -35 0 -9 11
-24 25 -33 14 -9 25 -23 25 -32 0 -17 23 -44 38 -44 12 0 24 -29 16 -41 -3 -5
-13 -5 -24 1 -10 5 -28 10 -40 10 -23 0 -75 32 -100 61 -8 9 -35 28 -60 42
-27 15 -46 33 -48 45 -2 12 -11 23 -20 26 -21 7 -135 122 -151 154 -6 12 -18
22 -25 22 -14 0 -66 71 -66 90 0 6 6 19 12 30 14 21 35 19 76 -6z m-2836 -231
c24 -9 45 -18 47 -19 10 -8 18 -219 9 -247 -12 -38 -46 -57 -90 -51 -18 2 -39
-2 -47 -10 -22 -18 -67 -28 -123 -27 -27 1 -48 -3 -48 -9 0 -5 -9 -10 -20 -10
-11 0 -23 -7 -26 -15 -4 -11 -17 -14 -40 -12 -18 3 -42 -2 -52 -9 -11 -7 -22
-11 -25 -8 -2 3 -29 -6 -58 -20 -29 -14 -62 -26 -74 -26 -11 0 -26 -5 -32 -11
-6 -6 -23 -9 -39 -7 -27 3 -29 6 -29 48 0 25 -7 57 -16 70 -22 34 -32 121 -16
140 15 19 107 74 107 64 0 -5 6 1 14 11 12 17 16 17 30 6 14 -12 22 -10 57 19
33 26 46 31 71 26 21 -4 34 -1 42 9 6 8 24 16 39 17 16 1 33 8 38 15 6 6 17 9
25 6 8 -3 14 1 14 11 0 12 11 15 47 14 27 0 49 4 51 11 2 6 13 11 25 11 12 0
29 5 37 10 21 13 33 12 82 -7z m2124 -334 c4 -7 21 -9 41 -6 l35 6 -6 -72 c-4
-40 -9 -110 -11 -157 -2 -47 -8 -97 -14 -111 -5 -15 -10 -55 -10 -90 -1 -35
-1 -71 -2 -79 0 -8 0 -24 0 -35 0 -11 -2 -92 -5 -180 -2 -88 -6 -204 -8 -257
-3 -110 -13 -130 -60 -126 -18 1 -37 -1 -43 -5 -17 -11 -22 76 -8 137 8 34 9
58 3 64 -6 6 -4 22 5 44 10 24 13 63 11 137 -2 57 -1 107 2 113 3 5 7 58 8
116 1 59 5 112 9 119 4 7 10 47 13 90 3 43 8 105 10 138 3 33 5 84 5 113 0 49
9 66 25 41z m-2316 -235 c0 -9 -12 -14 -35 -14 -19 0 -35 -4 -35 -10 0 -5 -9
-10 -21 -10 -12 0 -23 -8 -26 -18 -3 -13 -15 -19 -38 -20 -18 -1 -46 -4 -61
-6 -16 -3 -35 -1 -43 4 -10 6 -19 3 -27 -7 -16 -23 -51 -26 -79 -7 -32 21 -24
34 20 32 19 -1 40 4 47 10 7 5 24 11 38 11 90 4 119 8 134 20 42 35 126 45
126 15z m3930 -549 c0 -9 -8 -19 -17 -22 -10 -4 -26 -16 -35 -28 -10 -11 -17
-17 -18 -14 0 4 -17 -9 -37 -27 -20 -19 -43 -34 -50 -34 -8 0 -16 -7 -19 -15
-4 -8 -11 -15 -16 -15 -5 0 -23 -13 -40 -30 -16 -16 -36 -30 -44 -30 -7 0 -20
-13 -29 -29 -8 -16 -39 -45 -69 -63 -30 -18 -59 -42 -64 -54 -6 -12 -24 -24
-41 -27 -17 -4 -34 -15 -38 -24 -9 -27 -135 -143 -155 -143 -9 0 -21 -6 -25
-14 -4 -8 -12 -14 -17 -14 -14 1 -47 -24 -105 -79 -39 -38 -62 -53 -82 -53
-15 0 -31 -4 -34 -10 -3 -5 -12 -10 -20 -10 -8 0 -26 -5 -42 -11 -15 -6 -28
-9 -28 -7 0 1 -11 -5 -25 -15 -13 -9 -35 -17 -47 -17 -13 0 -23 -4 -23 -9 0
-13 -95 -34 -120 -26 -11 4 -27 1 -35 -5 -8 -7 -31 -13 -52 -14 -21 -1 -42 -4
-48 -6 -5 -3 -43 2 -83 9 -53 11 -76 11 -80 4 -4 -6 -23 -10 -42 -9 -19 1 -47
-2 -63 -8 -20 -8 -33 -7 -47 2 -11 6 -32 12 -47 12 -16 0 -39 6 -53 13 -50 26
-136 50 -190 53 -33 1 -93 16 -145 36 -71 27 -102 33 -144 31 -29 -2 -67 1
-85 6 -17 6 -63 13 -101 15 -39 3 -92 12 -119 21 -26 9 -91 18 -144 20 -76 4
-100 8 -109 21 -8 11 -29 18 -62 19 -27 1 -61 10 -76 19 -19 13 -30 15 -38 7
-13 -13 -43 3 -77 41 -13 15 -28 28 -33 28 -5 0 -18 12 -29 26 -15 18 -27 24
-42 20 -16 -4 -24 2 -34 21 -11 25 -9 29 19 55 35 33 37 33 60 12 10 -9 39
-21 66 -28 35 -9 53 -20 68 -43 11 -16 37 -38 58 -47 44 -19 52 -20 77 -4 15
10 30 9 72 -4 62 -19 95 -19 108 1 7 12 12 12 23 3 10 -9 22 -10 40 -3 14 5
45 8 68 6 24 -2 49 1 56 7 9 7 25 7 55 -2 65 -18 128 -28 133 -20 7 11 177 11
190 0 8 -7 21 -6 41 5 29 15 59 12 103 -11 20 -11 30 -10 56 0 31 13 74 14 94
2 5 -4 12 -2 16 4 3 5 21 10 40 10 18 0 35 4 37 9 2 5 66 12 142 15 108 4 143
9 157 22 11 10 31 15 55 12 23 -2 39 2 42 10 2 6 19 12 38 12 19 0 34 5 34 10
0 6 15 10 34 10 19 0 38 5 41 10 4 6 21 8 38 5 23 -4 48 2 87 21 30 14 60 27
67 28 7 1 15 5 19 9 4 4 24 4 45 1 30 -5 40 -3 45 10 3 9 15 16 25 16 11 0 22
6 25 14 4 10 16 12 43 9 23 -3 41 -1 45 6 4 6 18 11 32 11 13 0 42 11 64 25
22 14 44 25 49 25 5 0 14 6 20 14 6 8 27 17 46 20 19 3 52 9 73 12 20 4 39 9
42 13 17 20 69 47 93 46 15 -1 27 3 27 7 0 4 8 8 17 8 9 0 24 7 34 16 9 8 31
16 48 16 18 1 34 5 37 10 3 4 18 8 35 8 16 0 29 4 29 9 0 5 18 11 40 15 22 3
40 11 40 16 0 6 7 10 15 10 8 0 15 -7 15 -15z"/>
<path d="M5620 6329 c-36 -5 -79 -10 -97 -12 -18 -1 -46 -13 -62 -25 -36 -26
-39 -26 -79 -6 -38 18 -94 22 -100 6 -2 -7 -24 -12 -52 -12 -28 0 -50 -5 -52
-12 -3 -7 -11 -9 -24 -3 -22 9 -47 7 -54 -5 -3 -5 -17 -11 -30 -13 -67 -12
-92 -21 -101 -39 -8 -15 -18 -19 -37 -15 -17 3 -37 -2 -54 -15 -28 -19 -28
-22 -23 -91 7 -84 7 -92 6 -132 -1 -16 -1 -57 0 -90 0 -33 -2 -73 -6 -89 -3
-16 -1 -34 6 -42 7 -9 9 -43 7 -99 -6 -96 2 -111 52 -100 25 5 34 2 50 -17 17
-20 21 -21 30 -8 18 27 23 63 11 82 -6 10 -9 23 -5 29 3 5 0 16 -6 24 -7 8
-10 21 -7 29 3 8 -1 20 -8 26 -8 7 -13 16 -10 20 3 5 1 12 -5 15 -6 4 -11 38
-10 78 0 40 -4 96 -10 126 -6 30 -8 66 -4 80 4 14 6 31 4 36 -4 14 0 68 5 74
3 2 13 -3 22 -11 25 -21 63 -15 137 24 10 5 39 7 65 3 35 -5 50 -3 59 8 7 8
22 12 37 9 14 -2 32 1 40 8 7 6 24 11 37 10 43 -4 58 0 58 15 0 19 19 19 40 0
13 -12 23 -13 44 -5 15 5 45 10 66 10 21 0 42 5 45 10 4 6 23 7 44 4 34 -5 40
-3 60 24 26 37 27 64 3 85 -10 10 -20 16 -23 15 -2 0 -33 -5 -69 -9z"/>
<path d="M5774 5803 c-30 -41 -47 -90 -41 -114 8 -31 -31 -149 -51 -155 -22
-7 -63 -24 -84 -35 -10 -5 -23 -9 -30 -9 -17 -1 -52 -31 -61 -52 -3 -10 -13
-18 -22 -18 -8 0 -15 -4 -15 -10 0 -5 -12 -13 -27 -16 -16 -4 -35 -13 -44 -20
-12 -11 -27 -12 -65 -5 -31 6 -55 6 -67 -1 -10 -5 -30 -9 -45 -8 -44 3 -48 1
-60 -25 -30 -65 7 -118 68 -97 21 8 39 8 61 0 22 -8 34 -7 42 1 6 6 30 11 54
11 24 0 43 5 43 10 0 6 9 10 20 10 11 0 23 7 26 15 4 8 13 15 21 15 9 0 31 14
50 30 18 17 45 30 58 30 13 0 27 5 30 10 3 6 15 10 26 10 25 0 79 39 79 57 0
7 7 13 15 13 9 0 19 8 22 18 4 9 13 23 20 30 7 7 13 27 13 43 0 16 7 45 15 65
8 19 12 41 8 49 -3 9 0 45 7 81 13 68 10 77 -26 88 -15 4 -25 -1 -40 -21z"/>
<path d="M3850 6035 c0 -13 -7 -15 -37 -9 -30 6 -35 4 -30 -9 7 -18 -4 -23
-69 -32 -53 -7 -134 -40 -134 -54 0 -5 -9 -11 -20 -14 -21 -5 -27 -31 -10 -42
14 -9 169 20 278 51 51 15 95 24 98 21 3 -3 0 -34 -8 -69 -10 -43 -12 -80 -6
-116 5 -33 4 -61 -2 -72 -9 -16 -21 -190 -22 -318 -1 -60 36 -74 73 -28 13 16
16 45 14 170 -1 83 3 162 8 176 8 20 18 158 19 268 0 52 -13 92 -30 92 -10 0
-23 -5 -29 -11 -9 -9 -20 -9 -44 0 -42 15 -49 14 -49 -4z"/>
<path d="M3410 5975 c-7 -8 -17 -15 -22 -15 -22 0 -124 -53 -141 -73 -35 -43
-37 -54 -19 -74 19 -21 52 -19 65 3 4 8 19 14 32 14 13 0 27 5 30 10 3 6 15
10 26 10 11 0 22 7 25 15 4 8 14 15 23 15 9 0 22 5 29 12 14 14 16 88 3 88 -5
0 -16 2 -24 5 -7 3 -20 -1 -27 -10z"/>
<path d="M3069 5788 c-22 -41 -14 -363 10 -392 5 -6 8 -35 6 -65 -2 -51 -14
-70 -42 -71 -28 0 -18 -81 13 -103 13 -10 24 -25 24 -34 0 -21 25 -43 49 -43
30 0 54 58 34 82 -18 20 -25 182 -10 216 8 16 7 26 -1 34 -7 7 -12 22 -12 34
0 13 -5 26 -10 29 -7 4 -7 11 -2 18 5 7 9 76 8 155 -1 115 -4 145 -16 152 -24
15 -38 12 -51 -12z"/>
<path d="M3828 5205 c-12 -14 -26 -25 -31 -25 -18 0 -97 -61 -97 -75 0 -8 -5
-15 -11 -15 -5 0 -29 -20 -51 -45 -23 -25 -45 -45 -50 -45 -5 0 -21 -11 -36
-25 -25 -23 -47 -30 -79 -26 -7 1 -13 -3 -13 -9 0 -5 -11 -10 -25 -10 -14 0
-25 5 -25 10 0 6 -6 10 -13 10 -21 0 -67 24 -67 35 0 6 -13 21 -30 35 -16 14
-30 30 -30 37 0 20 -18 25 -40 11 -28 -18 -26 -102 3 -123 11 -7 25 -24 31
-36 6 -12 20 -27 31 -33 11 -5 32 -18 47 -28 15 -10 48 -22 74 -28 39 -9 50
-8 64 5 12 11 26 14 44 9 22 -5 33 2 74 45 27 28 52 51 56 51 13 0 67 62 77
87 5 13 15 23 23 23 7 0 16 7 20 15 3 8 13 15 23 15 9 0 36 21 60 48 41 45 46
68 26 105 -8 14 -34 6 -55 -18z"/>
<path d="M6067 4932 c-17 -30 -16 -65 3 -91 17 -25 18 -30 5 -35 -8 -3 -15
-12 -15 -19 0 -8 -7 -20 -16 -27 -19 -17 -15 -74 6 -76 8 -1 23 -2 32 -3 10 0
20 -12 24 -26 3 -14 10 -25 14 -25 4 0 10 -10 13 -22 2 -13 8 -31 11 -40 6
-12 2 -17 -16 -20 -20 -3 -23 -9 -25 -51 -1 -39 2 -49 20 -58 12 -7 42 -31 65
-55 50 -50 65 -54 86 -21 16 23 19 167 4 167 -5 0 -8 11 -8 23 0 13 -9 32 -20
42 -11 10 -20 26 -20 37 0 10 -4 18 -9 18 -5 0 -17 17 -26 37 -10 21 -24 44
-32 51 -27 28 -9 87 20 64 7 -5 25 -12 41 -16 15 -4 40 -16 55 -26 16 -12 38
-18 56 -16 25 2 32 10 44 43 13 37 13 42 -7 70 -32 46 -106 73 -211 78 -50 2
-92 1 -94 -3z"/>
<path d="M1590 4023 c-19 -3 -45 -14 -58 -26 -19 -18 -22 -28 -17 -57 9 -44
22 -52 52 -33 18 12 27 13 36 4 6 -6 20 -11 32 -11 27 0 45 -18 45 -46 0 -26
15 -39 55 -47 24 -4 37 1 63 24 18 16 37 41 42 55 9 22 7 30 -15 50 -14 13
-25 28 -25 33 0 6 -12 14 -27 17 -16 4 -37 14 -48 24 -20 17 -62 21 -135 13z"/>
<path d="M4382 5490 c-33 -31 -48 -91 -31 -126 19 -39 73 -41 101 -4 62 83 1
196 -70 130z"/>
</g>
</svg>
