<?xml version="1.0" standalone="no"?>
<!DOCTYPE svg PUBLIC "-//W3C//DTD SVG 20010904//EN"
 "http://www.w3.org/TR/2001/REC-SVG-20010904/DTD/svg10.dtd">
<svg version="1.0" xmlns="http://www.w3.org/2000/svg"
 width="800.000000pt" height="658.000000pt" viewBox="0 0 800.000000 658.000000"
 preserveAspectRatio="xMidYMid meet">
<metadata>
Created by potrace 1.16, written by Peter Selinger 2001-2019
</metadata>
<g transform="translate(0.000000,658.000000) scale(0.100000,-0.100000)"
fill="#000000" stroke="none">
<path d="M1440 5635 c-19 -7 -47 -16 -61 -19 -49 -10 -79 -43 -79 -87 0 -34 6
-46 43 -80 23 -22 68 -52 100 -68 l59 -28 -74 -36 c-56 -27 -87 -51 -129 -99
-31 -35 -62 -74 -69 -88 -7 -14 -23 -36 -36 -50 -24 -26 -64 -119 -64 -148 0
-9 16 -34 35 -54 36 -40 66 -48 100 -25 11 7 32 18 46 24 l26 11 1 -96 c2
-162 38 -283 80 -267 9 3 16 -3 20 -17 5 -21 6 -21 13 -2 4 10 8 33 8 50 1 28
29 74 45 74 10 0 7 -38 -4 -45 -5 -3 -10 -21 -10 -40 0 -19 -4 -36 -9 -39 -17
-11 -23 -83 -10 -108 7 -13 12 -29 11 -35 -4 -18 18 -16 40 3 17 16 20 15 53
-22 19 -21 35 -48 35 -59 0 -12 9 -30 20 -40 11 -10 22 -33 26 -51 7 -39 32
-45 61 -16 10 10 30 23 46 30 27 12 63 74 86 152 6 19 9 24 6 10 -6 -39 16
-61 51 -51 16 4 31 15 32 25 3 15 -2 17 -29 14 -40 -4 -48 16 -26 57 l14 27
13 -31 c9 -22 19 -31 36 -31 13 0 24 4 24 9 0 5 9 12 19 16 11 3 24 19 30 35
6 19 17 30 29 30 16 0 22 -12 31 -61 8 -39 9 -64 3 -68 -12 -7 -32 -100 -32
-146 0 -19 -4 -37 -10 -40 -5 -3 -10 -24 -10 -45 0 -21 -5 -42 -11 -46 -7 -4
-9 -21 -5 -43 3 -21 2 -51 -3 -67 -5 -18 -4 -67 4 -125 7 -51 13 -120 13 -152
1 -31 5 -65 11 -75 5 -9 12 -50 16 -89 4 -40 11 -73 15 -73 5 0 14 -25 20 -57
7 -31 20 -71 30 -88 10 -18 22 -55 25 -81 4 -27 15 -67 25 -89 10 -22 23 -57
30 -77 6 -21 16 -38 21 -38 5 0 9 -10 9 -21 0 -26 59 -149 71 -149 5 0 9 -7 9
-15 0 -8 4 -15 9 -15 5 0 13 -10 17 -22 3 -13 42 -59 86 -103 95 -97 116 -127
124 -181 5 -37 0 -52 -42 -130 -45 -84 -48 -94 -48 -164 -1 -97 21 -234 45
-287 11 -23 19 -49 19 -58 0 -9 11 -40 24 -68 13 -29 27 -71 30 -94 4 -23 14
-47 22 -54 8 -6 14 -17 14 -23 1 -6 9 -29 20 -51 11 -22 19 -46 20 -53 0 -7
11 -28 25 -46 14 -18 25 -36 25 -40 0 -4 9 -19 20 -33 11 -14 20 -33 20 -42 0
-9 9 -24 20 -34 11 -9 20 -24 20 -32 0 -8 3 -15 8 -15 4 0 20 -25 37 -55 16
-30 32 -55 36 -55 4 0 35 -27 69 -60 58 -57 64 -60 110 -60 27 0 52 -5 56 -11
3 -6 17 -9 31 -6 44 8 96 -12 123 -48 14 -19 33 -35 43 -36 21 -2 26 -3 58
-17 20 -8 68 -6 195 9 93 11 177 24 186 29 10 6 29 10 42 10 14 0 27 4 31 9 3
5 20 13 37 17 18 3 39 10 48 15 8 4 53 12 100 18 60 7 99 18 133 37 44 24 74
35 147 51 14 3 31 11 39 17 20 16 82 36 113 36 15 0 30 5 33 10 3 6 18 10 32
10 15 0 36 8 47 19 25 22 79 41 117 41 15 0 31 4 34 10 3 5 21 10 39 10 20 0
40 8 51 20 10 11 26 20 36 20 10 0 20 4 23 9 3 4 22 11 42 14 20 4 46 15 58
25 15 14 49 22 121 31 95 11 145 29 145 52 0 6 18 27 40 48 22 20 40 42 40 48
0 6 15 16 33 24 17 7 40 21 50 31 10 10 26 18 37 18 10 0 22 5 25 10 3 6 14
10 23 10 9 0 27 11 39 24 18 19 37 25 97 31 61 5 77 11 95 31 11 13 28 24 36
24 9 0 21 11 27 25 6 14 15 25 20 25 23 0 104 47 134 78 30 31 58 51 89 66 13
6 112 33 148 41 18 3 27 12 27 25 0 10 9 22 20 25 11 3 20 10 20 14 0 4 13 23
30 41 16 18 30 37 30 41 0 4 12 9 28 11 15 2 27 8 27 13 1 6 12 28 26 50 25
40 71 145 76 175 6 39 15 77 23 95 9 20 20 90 22 135 1 59 -15 246 -23 262 -5
9 -9 29 -9 43 0 15 -9 38 -20 52 -11 14 -20 35 -20 47 0 12 -9 27 -20 34 -11
7 -20 21 -20 32 0 11 -5 20 -11 20 -13 0 -53 90 -68 155 -6 28 -13 79 -15 115
-7 101 -24 184 -41 196 -8 6 -15 15 -15 19 0 4 -11 20 -25 37 -14 16 -25 38
-25 49 0 11 -7 22 -15 25 -8 4 -15 10 -15 15 0 11 -45 59 -56 59 -5 0 -27 9
-48 21 -23 12 -48 18 -61 15 -16 -4 -24 -1 -27 12 -3 10 -27 25 -56 36 -47 16
-60 17 -139 6 -74 -11 -88 -10 -97 2 -6 8 -21 20 -33 27 -13 6 -23 18 -23 26
0 7 -3 15 -7 17 -5 2 -15 15 -23 29 -48 83 -126 191 -182 252 -21 22 -38 44
-38 49 0 4 -7 8 -15 8 -9 0 -18 7 -21 15 -4 8 -12 15 -19 15 -22 0 -45 36 -54
84 -5 27 -18 61 -30 77 -12 15 -21 33 -21 39 0 5 -5 10 -10 10 -6 0 -27 18
-49 40 -21 22 -43 40 -47 40 -5 0 -15 9 -22 20 -7 11 -19 20 -27 20 -8 0 -15
9 -15 20 0 11 -4 20 -8 20 -4 0 -16 15 -27 33 -10 17 -45 57 -77 88 -32 30
-58 63 -58 72 0 9 -7 17 -15 17 -8 0 -15 7 -15 15 0 8 -5 15 -11 15 -13 0 -81
50 -92 67 -4 7 -13 13 -20 13 -7 0 -18 9 -25 20 -7 11 -21 20 -32 20 -12 0
-23 7 -26 15 -4 8 -11 15 -18 15 -6 0 -28 9 -49 20 -20 11 -41 20 -47 20 -5 0
-27 18 -49 40 -22 22 -47 40 -55 40 -9 0 -16 4 -16 10 0 5 -17 12 -37 15 -21
4 -51 12 -68 18 -16 6 -36 12 -45 12 -8 1 -27 2 -42 3 -19 1 -28 8 -28 20 0
28 -123 82 -186 82 -37 0 -54 4 -58 15 -3 8 -18 15 -33 15 -17 0 -36 9 -47 21
-12 14 -25 20 -42 16 -17 -3 -28 1 -35 15 -9 16 -19 18 -94 15 -62 -3 -88 -1
-96 9 -15 18 -88 15 -130 -6 -19 -10 -41 -15 -48 -11 -7 4 -22 6 -35 4 -15 -3
-30 4 -47 21 -14 15 -35 26 -51 26 -14 0 -28 4 -30 10 -6 17 -93 24 -109 8
-23 -23 -47 -28 -63 -13 -8 8 -19 15 -24 15 -5 0 -15 6 -21 13 -6 8 -36 20
-66 27 -31 7 -58 17 -61 21 -2 5 -11 6 -18 3 -8 -3 -33 0 -56 6 -95 26 -227 7
-252 -35 -4 -7 -37 -16 -72 -20 -48 -5 -75 -14 -104 -34 -21 -16 -48 -32 -60
-36 -13 -3 -30 -17 -38 -31 -9 -13 -22 -24 -30 -24 -7 0 -19 -9 -27 -20 -12
-17 -17 -18 -41 -7 -14 6 -29 22 -32 35 -4 12 -9 22 -13 22 -4 0 -22 20 -41
45 -19 25 -38 45 -44 45 -5 0 -17 6 -25 14 -9 7 -36 24 -61 37 -25 13 -53 30
-63 38 -10 8 -34 14 -53 13 -25 -2 -34 1 -34 13 0 8 -3 15 -7 15 -5 0 -78 2
-163 5 -118 3 -163 1 -190 -10z m309 -53 c14 -8 39 -16 55 -18 16 -2 38 -13
48 -24 10 -11 24 -20 31 -20 7 0 18 -9 25 -21 8 -12 19 -18 28 -15 16 6 74
-44 74 -63 0 -6 4 -11 8 -11 14 0 62 -44 62 -57 0 -6 6 -13 13 -16 20 -8 42
-151 30 -201 -5 -23 -8 -47 -5 -54 6 -18 30 -14 42 7 5 11 18 22 27 25 10 3
27 24 37 47 11 22 28 45 38 50 10 5 18 15 18 20 0 6 11 24 25 41 14 16 25 40
25 53 0 46 21 75 64 87 23 6 48 20 56 30 10 12 31 18 68 20 28 1 52 6 52 10 0
4 13 14 29 23 40 20 240 20 267 0 11 -8 29 -15 42 -15 13 0 32 -5 43 -10 18
-10 17 -13 -16 -45 -19 -19 -37 -35 -41 -35 -11 0 -79 -33 -99 -49 -20 -15
-21 -25 -9 -78 6 -30 49 -31 64 -3 6 11 17 20 25 20 27 0 60 21 76 49 14 23
25 29 69 34 41 5 60 13 82 35 27 28 52 33 130 23 4 -1 10 -10 13 -21 3 -11 13
-20 20 -20 8 0 18 -7 22 -15 11 -19 147 -25 165 -7 16 16 60 15 84 -3 10 -8
31 -15 46 -15 15 0 39 -5 55 -11 15 -7 53 -13 83 -15 30 -1 69 -10 85 -18 17
-9 38 -16 47 -16 9 0 21 -8 27 -17 8 -14 21 -18 67 -16 72 4 132 -24 154 -70
15 -31 17 -32 81 -32 51 0 72 -4 87 -18 12 -11 24 -17 29 -14 10 7 167 -124
165 -138 -1 -5 -16 -12 -34 -15 -27 -4 -33 -9 -33 -30 0 -25 1 -25 85 -25 47
-1 95 -6 107 -13 12 -7 29 -12 37 -12 9 0 16 -4 16 -9 0 -5 9 -13 20 -16 11
-3 20 -12 20 -20 0 -7 11 -16 25 -19 14 -4 42 -24 61 -46 20 -22 45 -40 55
-40 11 0 19 -6 19 -12 0 -7 16 -30 35 -51 19 -21 35 -40 35 -42 0 -9 48 -55
58 -55 6 0 16 -9 22 -20 6 -11 17 -20 25 -20 9 0 23 -9 32 -19 9 -11 21 -18
25 -14 5 3 12 -3 14 -14 3 -10 15 -23 27 -28 43 -19 72 -128 42 -158 -20 -21
-65 -23 -65 -3 0 17 -56 29 -80 16 -27 -14 -51 -12 -71 6 -15 13 -40 16 -135
15 -64 -1 -122 -5 -128 -10 -6 -4 -22 -11 -36 -14 -141 -29 -235 -59 -398
-127 -201 -83 -390 -182 -527 -276 -33 -23 -93 -58 -134 -78 -40 -20 -94 -51
-120 -69 -25 -17 -54 -36 -63 -42 -21 -13 -210 -139 -263 -176 -22 -16 -97
-67 -166 -114 -117 -79 -296 -240 -341 -305 l-17 -25 -1 26 c0 14 10 41 23 60
27 40 75 150 153 349 68 176 88 210 156 276 66 64 130 99 268 145 36 12 70 25
75 29 10 8 120 45 290 99 55 18 109 36 120 40 11 5 47 16 80 26 102 31 236
107 249 140 10 26 -25 30 -63 7 -102 -59 -163 -86 -312 -135 -90 -30 -184 -60
-209 -67 -94 -26 -312 -111 -423 -165 -100 -49 -171 -135 -233 -282 -56 -133
-101 -245 -121 -298 -8 -22 -20 -49 -26 -60 -51 -96 -68 -141 -73 -197 -4 -35
-14 -75 -22 -89 -16 -29 -10 -63 11 -57 6 2 20 22 31 44 10 22 35 51 55 66 20
14 94 80 165 147 71 67 154 138 185 158 31 20 65 42 76 49 11 8 43 29 70 47
28 19 82 55 122 80 39 26 74 51 77 56 4 5 32 24 64 42 31 17 80 47 108 65 28
18 64 39 80 46 16 7 74 39 129 72 99 58 267 146 281 146 3 0 56 24 118 54 155
75 203 96 218 96 8 0 18 4 24 9 12 11 126 47 228 72 44 11 85 24 91 29 13 11
106 25 257 39 92 9 115 8 160 -6 29 -10 58 -24 64 -32 7 -9 20 -12 37 -7 18 4
40 0 67 -14 52 -26 150 -125 150 -150 0 -11 9 -28 20 -37 11 -10 20 -23 20
-30 0 -7 5 -13 10 -13 6 0 15 -11 20 -25 5 -14 13 -25 18 -25 4 0 24 -16 44
-36 32 -31 36 -38 26 -59 -6 -13 -19 -26 -30 -28 -11 -3 -22 -14 -25 -25 -3
-14 -17 -22 -46 -26 -24 -4 -58 -20 -79 -36 -25 -20 -48 -30 -72 -30 -24 0
-40 -7 -53 -23 -19 -24 -160 -64 -188 -53 -8 3 -17 1 -20 -4 -4 -6 -24 -10
-45 -10 -21 0 -41 -4 -44 -9 -4 -5 -37 -9 -75 -9 -39 0 -78 -3 -88 -6 -10 -3
-65 -8 -122 -10 l-103 -5 -44 -48 c-24 -26 -44 -50 -44 -55 0 -4 -18 -12 -40
-18 -22 -6 -40 -15 -40 -19 0 -12 -60 -40 -102 -47 -18 -4 -42 -15 -53 -24
-11 -10 -30 -21 -42 -24 -11 -4 -28 -18 -37 -31 -12 -18 -26 -25 -49 -25 -17
0 -45 -7 -61 -15 -15 -8 -34 -15 -40 -15 -6 0 -18 -9 -26 -20 -8 -11 -26 -20
-40 -20 -14 -1 -50 -14 -80 -30 -30 -17 -67 -30 -81 -30 -27 0 -83 -24 -109
-46 -15 -13 -51 -15 -208 -15 -70 0 -91 -4 -130 -24 -26 -14 -52 -25 -59 -25
-6 0 -21 -14 -33 -30 -12 -17 -30 -30 -40 -30 -11 0 -30 -11 -44 -25 -14 -14
-36 -25 -50 -25 -16 0 -27 -7 -31 -20 -3 -11 -26 -28 -51 -39 -24 -11 -44 -24
-44 -29 0 -5 -11 -14 -25 -20 -14 -6 -25 -19 -25 -27 0 -8 -11 -20 -24 -26
-13 -6 -26 -19 -29 -28 -2 -9 -42 -38 -88 -66 -46 -27 -108 -69 -137 -92 -29
-24 -56 -43 -60 -43 -5 0 -14 16 -21 37 -9 23 -57 80 -132 156 -65 66 -122
129 -125 141 -4 12 -13 30 -20 41 -8 11 -14 29 -14 40 0 11 -9 27 -20 35 -11
8 -20 20 -20 27 0 7 -9 30 -20 51 -11 22 -23 63 -27 93 -3 29 -14 67 -24 84
-9 16 -23 50 -29 75 -6 25 -18 59 -26 77 -8 18 -19 72 -25 120 -6 48 -17 111
-25 139 -8 28 -16 102 -17 165 -2 63 -1 102 1 87 4 -30 26 -53 42 -43 12 7 6
35 -28 133 -23 67 -24 74 -8 90 9 10 16 32 16 48 0 16 6 54 14 84 8 30 17 75
21 100 10 59 60 215 78 240 7 11 12 36 10 57 -1 24 6 56 22 89 14 29 25 60 25
68 0 8 4 17 9 20 5 3 7 15 4 26 -4 14 0 20 11 20 9 0 16 8 16 20 0 11 5 20 10
20 6 0 10 8 10 19 0 10 7 24 15 31 8 7 15 18 15 25 0 6 11 17 25 23 14 6 25
18 25 27 0 8 11 22 25 31 14 9 23 20 20 25 -3 4 10 15 30 25 19 9 35 21 35 27
0 5 13 22 28 37 29 27 56 36 139 47 51 6 65 21 61 65 -3 29 -6 33 -28 31 -32
-4 -100 -34 -100 -45 0 -4 -11 -8 -23 -8 -25 0 -49 -22 -60 -52 -4 -12 -17
-18 -37 -18 -24 0 -43 -13 -90 -60 -33 -32 -60 -63 -60 -68 0 -6 -7 -12 -15
-16 -8 -3 -15 -14 -15 -24 0 -11 -7 -25 -15 -32 -8 -7 -15 -19 -15 -26 0 -8
-4 -14 -10 -14 -5 0 -10 -9 -10 -20 0 -18 -6 -33 -31 -80 -22 -41 -38 -77 -41
-95 -2 -14 -11 -20 -28 -20 -18 0 -24 -5 -22 -17 2 -11 -3 -18 -13 -18 -8 0
-15 -6 -15 -13 0 -6 -13 -18 -30 -25 -16 -8 -30 -18 -30 -23 0 -18 -81 -130
-89 -124 -5 2 -12 20 -15 39 -7 36 -26 47 -70 39 -26 -5 -33 -21 -51 -105 -3
-15 -20 -44 -39 -64 -19 -21 -32 -43 -29 -50 4 -11 -54 -74 -69 -74 -12 0 -9
25 3 37 8 8 8 28 1 68 -11 66 10 182 34 192 8 3 14 15 14 27 0 11 14 41 30 65
35 52 37 64 11 90 -15 15 -26 18 -48 12 -15 -4 -27 -12 -26 -17 2 -14 -18 -34
-35 -34 -8 0 -23 -7 -32 -15 -16 -14 -21 -12 -59 26 -42 42 -53 45 -117 24
-20 -6 -21 -4 -17 77 1 46 3 91 3 101 0 10 8 17 19 17 17 0 61 60 109 147 20
37 14 43 -42 43 -46 0 -56 -3 -70 -25 -11 -17 -26 -25 -46 -25 -16 0 -35 -7
-42 -15 -39 -47 -54 -56 -88 -53 -32 3 -35 0 -38 -24 -3 -25 0 -28 25 -29 27
0 27 -1 -9 -15 -34 -15 -39 -14 -62 3 -14 10 -26 22 -26 27 0 18 84 143 131
193 27 28 49 56 49 62 0 5 42 30 93 54 114 55 126 67 95 97 -13 13 -45 33 -73
47 -73 35 -135 82 -135 102 0 25 15 36 80 59 69 25 285 27 329 4z"/>
<path d="M1625 5356 c-21 -15 -13 -51 9 -43 19 8 116 -71 186 -148 68 -76 162
-164 176 -165 15 0 34 22 34 40 0 17 -111 128 -180 180 -25 19 -64 50 -86 70
-23 19 -59 45 -81 57 -34 19 -42 21 -58 9z"/>
<path d="M1930 4950 c-20 -5 -98 -13 -174 -19 -139 -11 -170 -20 -159 -47 5
-12 20 -14 87 -9 200 14 308 29 313 42 5 13 -14 44 -26 42 -3 -1 -22 -5 -41
-9z"/>
<path d="M3970 4875 c-150 -22 -341 -67 -425 -100 -22 -9 -53 -22 -70 -28 -60
-24 -261 -126 -285 -145 -14 -11 -97 -68 -185 -127 -88 -60 -185 -131 -215
-160 -30 -28 -77 -72 -105 -97 -27 -26 -72 -74 -100 -108 -27 -34 -82 -99
-121 -144 -39 -44 -81 -98 -93 -118 -12 -21 -25 -38 -27 -38 -17 0 49 162 107
262 145 249 534 623 778 747 42 22 53 47 25 58 -48 18 -365 -223 -555 -422
-118 -123 -232 -259 -254 -302 -11 -21 -29 -51 -41 -68 -32 -45 -130 -299
-149 -389 -19 -84 -17 -132 11 -306 22 -137 28 -155 46 -152 12 2 19 -14 29
-75 10 -57 18 -78 29 -78 29 0 19 126 -19 245 -28 87 -34 120 -34 197 -1 86 1
96 36 165 62 123 210 310 394 494 106 106 162 152 279 231 80 54 174 117 207
140 34 24 65 43 69 43 3 0 53 22 110 48 56 27 144 61 193 77 50 15 117 39 150
53 60 24 276 61 363 62 29 0 45 5 48 15 7 17 -13 46 -30 44 -6 -1 -81 -12
-166 -24z"/>
<path d="M2428 4665 c-27 -24 -48 -48 -48 -54 0 -6 -4 -11 -10 -11 -5 0 -10
-7 -10 -15 0 -8 -4 -23 -9 -33 -18 -34 -34 -108 -32 -148 1 -22 -7 -68 -18
-102 -12 -34 -21 -72 -21 -86 0 -14 -4 -28 -10 -31 -16 -10 -12 -45 6 -45 27
0 72 59 72 95 0 18 5 42 11 53 6 11 11 42 11 69 -1 92 6 147 18 151 6 2 12 10
12 17 0 22 33 74 73 116 41 43 45 54 21 63 -20 8 -11 12 -66 -39z"/>
</g>
</svg>
