<?xml version="1.0" standalone="no"?>
<!DOCTYPE svg PUBLIC "-//W3C//DTD SVG 20010904//EN"
 "http://www.w3.org/TR/2001/REC-SVG-20010904/DTD/svg10.dtd">
<svg version="1.0" xmlns="http://www.w3.org/2000/svg"
 width="533.000000pt" height="983.000000pt" viewBox="0 0 533.000000 983.000000"
 preserveAspectRatio="xMidYMid meet">
<metadata>
Created by potrace 1.16, written by Peter Selinger 2001-2019
</metadata>
<g transform="translate(0.000000,983.000000) scale(0.100000,-0.100000)"
fill="#000000" stroke="none">
<path d="M3183 9467 c-4 -8 -30 -16 -60 -19 -29 -3 -59 -12 -68 -21 -9 -10
-25 -17 -36 -17 -10 0 -19 -6 -19 -14 0 -8 -16 -16 -40 -20 -23 -3 -43 -13
-46 -21 -3 -7 -19 -17 -35 -20 -16 -4 -29 -10 -29 -15 0 -11 -60 -31 -71 -24
-5 2 -14 -4 -21 -16 -7 -11 -22 -20 -34 -20 -12 0 -27 -7 -34 -15 -7 -8 -23
-15 -36 -15 -13 0 -33 -9 -44 -20 -11 -11 -32 -20 -46 -20 -17 0 -28 -6 -31
-20 -4 -15 -14 -20 -39 -20 -22 0 -37 -6 -40 -15 -4 -8 -14 -15 -24 -15 -10 0
-23 -6 -29 -14 -7 -8 -26 -18 -43 -21 -18 -4 -32 -15 -35 -26 -3 -10 -11 -19
-18 -19 -6 0 -20 -9 -30 -20 -10 -11 -29 -20 -41 -20 -13 0 -38 -9 -56 -20
-18 -11 -45 -20 -60 -20 -15 0 -33 -6 -40 -12 -19 -18 -48 -36 -78 -49 -14 -6
-37 -18 -53 -26 -15 -8 -31 -12 -35 -9 -13 8 -92 -15 -92 -26 0 -6 -14 -8 -36
-3 -27 5 -41 2 -54 -10 -13 -12 -39 -17 -91 -18 -56 0 -77 -5 -91 -19 -10 -10
-25 -18 -33 -18 -8 0 -15 -9 -15 -20 0 -13 -7 -20 -18 -20 -11 0 -27 -9 -36
-19 -10 -10 -33 -22 -52 -26 -19 -3 -32 -10 -29 -15 3 -5 -11 -13 -31 -19 -38
-11 -74 -37 -74 -55 -1 -18 -39 -58 -49 -51 -14 8 -51 -17 -51 -35 0 -9 -4
-20 -9 -25 -13 -16 -33 -160 -25 -191 4 -16 15 -47 24 -69 10 -22 20 -74 23
-115 8 -110 18 -203 23 -220 3 -8 7 -53 10 -100 2 -47 9 -102 15 -123 5 -21 7
-47 4 -58 -4 -11 -3 -25 3 -32 12 -16 8 -213 -6 -303 -7 -39 -11 -98 -11 -130
0 -33 -3 -70 -6 -84 -8 -37 -16 -267 -14 -410 2 -165 1 -298 -6 -575 -10 -375
-10 -569 -1 -590 4 -11 9 -36 11 -55 5 -49 15 -102 22 -113 3 -6 6 -26 5 -46
-1 -19 4 -38 10 -42 12 -8 16 -29 23 -114 2 -27 7 -72 10 -100 38 -331 41
-403 28 -875 -6 -242 -7 -325 -6 -670 1 -96 1 -263 0 -370 0 -238 5 -400 14
-400 4 0 7 -10 7 -22 0 -66 5 -116 14 -138 16 -41 20 -166 20 -585 0 -332 -3
-417 -17 -500 -11 -62 -17 -148 -16 -225 0 -69 -4 -139 -9 -156 -6 -17 -12
-84 -14 -150 -2 -65 -11 -163 -20 -217 -9 -54 -14 -102 -12 -106 3 -4 7 -26 9
-49 3 -24 13 -68 22 -100 10 -31 20 -68 24 -82 6 -19 17 -27 47 -33 21 -4 57
-13 79 -19 22 -6 73 -12 114 -15 63 -3 76 -1 92 15 15 17 24 18 61 11 60 -11
62 -11 84 9 10 9 37 19 59 20 22 2 45 10 51 18 6 8 20 14 32 14 11 0 22 5 24
10 2 6 18 12 35 14 18 3 46 14 63 26 26 18 38 20 84 15 52 -7 55 -6 91 30 21
20 51 39 67 42 15 3 31 10 34 14 3 5 14 9 25 9 10 0 19 5 19 11 0 6 6 9 13 6
7 -3 19 4 25 14 7 10 19 19 26 19 25 0 53 53 61 115 4 33 12 66 17 73 11 13 3
135 -9 156 -4 6 -6 29 -4 53 1 24 -1 43 -6 43 -4 0 -6 35 -3 77 6 87 4 202 -4
248 -3 17 -8 59 -12 95 -4 36 -10 70 -14 75 -3 6 -8 46 -9 90 -1 44 -6 96 -11
116 -17 63 -28 272 -19 369 7 85 19 224 36 440 8 106 10 353 2 365 -3 6 -3 36
0 67 8 67 5 449 -3 493 -26 135 -36 423 -18 530 5 33 11 123 13 200 1 77 3
169 5 205 1 36 2 121 2 190 -1 241 2 376 10 540 8 154 7 247 -2 380 -2 30 -7
111 -10 180 -4 69 -9 134 -12 144 -4 10 -7 107 -8 215 -1 108 -6 204 -10 214
-5 9 -6 30 -3 44 3 15 -1 40 -9 54 -7 15 -11 29 -7 32 5 6 -14 126 -25 157 -3
8 -4 21 -3 28 1 8 -3 19 -9 27 -6 8 -12 72 -14 158 -3 128 -2 144 11 131 8 -8
12 -21 9 -30 -3 -8 1 -17 8 -20 8 -3 18 -24 22 -47 4 -23 8 -44 9 -47 1 -3 5
-27 9 -55 5 -27 15 -77 22 -110 16 -65 24 -113 28 -160 1 -16 5 -37 8 -45 15
-36 21 -128 23 -315 3 -281 14 -566 22 -579 4 -6 8 -17 8 -26 2 -21 15 -165
20 -225 2 -27 9 -77 15 -110 5 -33 10 -79 10 -102 0 -25 5 -43 11 -43 6 0 9
-9 6 -20 -5 -20 6 -77 23 -115 5 -11 12 -30 15 -42 4 -13 10 -23 15 -23 4 0 6
-9 3 -20 -3 -11 -1 -26 5 -33 15 -18 31 -143 29 -225 -1 -41 0 -75 4 -77 3 -2
4 -121 2 -264 -1 -143 1 -262 6 -265 5 -3 5 -25 1 -48 -5 -24 -6 -46 -4 -50 2
-4 7 -71 10 -150 6 -167 13 -248 22 -248 4 0 8 -24 9 -53 3 -92 13 -163 31
-207 3 -8 7 -25 8 -37 4 -30 35 -156 42 -168 7 -11 8 -14 22 -125 6 -47 14
-96 16 -110 3 -14 5 -32 5 -40 1 -8 7 -43 15 -78 8 -34 16 -88 19 -120 3 -31
7 -68 9 -82 8 -45 27 -154 32 -180 3 -14 6 -96 8 -183 4 -157 11 -198 54 -296
8 -19 18 -67 23 -108 4 -40 12 -87 17 -105 4 -18 6 -96 4 -173 -2 -77 -4 -159
-4 -182 -1 -50 30 -163 49 -179 7 -6 13 -21 13 -33 0 -11 5 -21 10 -21 6 0 10
-7 10 -15 0 -8 8 -29 18 -47 10 -18 19 -49 19 -69 0 -20 3 -44 6 -54 7 -16 9
-16 31 -2 13 9 33 13 45 10 15 -4 30 2 46 17 14 13 29 19 36 15 8 -5 10 -4 5
3 -4 7 -1 12 9 12 8 0 18 7 21 15 4 8 10 15 15 15 14 0 49 33 44 41 -3 4 5 9
18 13 12 3 33 21 46 41 13 19 30 35 37 35 7 0 18 9 24 20 6 11 19 20 30 20 11
0 26 12 34 28 8 15 30 37 50 47 19 10 37 27 39 37 3 10 14 18 26 18 12 0 24 7
27 15 4 9 19 15 35 15 16 0 29 4 29 9 0 5 13 14 29 19 16 6 32 20 36 31 4 14
15 21 31 21 14 0 27 7 30 15 4 8 14 15 24 15 10 0 34 16 53 35 19 19 40 35 46
35 6 0 11 5 11 10 0 6 7 10 15 10 8 0 15 3 15 8 0 11 85 99 109 111 11 7 21
20 21 29 0 10 4 22 10 28 5 5 10 30 11 54 3 80 -10 303 -21 370 -6 36 -12 88
-14 115 -3 28 -7 64 -10 80 -3 17 -7 52 -10 80 -3 27 -10 51 -15 53 -5 2 -7
11 -4 20 2 9 -3 44 -12 77 -10 33 -19 80 -21 105 -7 71 -9 84 -16 95 -4 6 -9
30 -11 52 -3 23 -9 48 -13 55 -5 7 -7 21 -6 30 2 10 -1 18 -6 18 -5 0 -14 33
-21 73 -7 39 -15 79 -18 87 -3 8 -7 53 -9 98 -2 46 -7 89 -11 95 -5 7 -9 21
-10 32 -11 90 -14 110 -22 119 -12 16 -5 469 9 546 7 41 9 105 5 175 -3 60 -8
148 -11 195 -3 47 -6 94 -8 105 -13 108 -20 151 -32 220 -7 44 -16 106 -19
138 -2 32 -7 62 -10 67 -3 5 -7 71 -10 147 -3 76 -7 147 -9 158 -2 12 -7 46
-11 78 -4 31 -11 60 -16 63 -5 3 -7 9 -4 13 2 5 -3 42 -12 82 -9 41 -16 88
-15 104 0 17 -2 37 -5 45 -3 8 -7 31 -9 50 -3 19 -8 44 -14 55 -13 29 -29 118
-23 128 2 4 -1 14 -7 22 -7 8 -10 21 -7 28 7 20 -22 155 -51 237 -3 8 -6 23
-7 33 -1 10 -7 28 -12 40 -16 35 -33 92 -33 110 0 9 -5 17 -11 17 -6 0 -8 9
-4 20 4 12 2 27 -4 34 -12 14 -9 355 4 375 3 7 6 40 6 74 0 34 7 104 15 155
23 144 31 332 19 452 -3 25 -7 65 -9 90 -3 25 -10 65 -16 90 -6 25 -14 63 -16
85 -3 22 -12 68 -20 103 -8 35 -14 74 -14 88 0 13 -3 24 -7 24 -5 0 -9 10 -9
23 -4 70 -13 119 -24 132 -7 8 -10 25 -7 37 4 12 1 28 -5 36 -7 8 -11 27 -10
43 1 16 -2 29 -8 29 -5 0 -10 18 -10 39 0 22 -7 72 -15 111 -8 40 -13 75 -10
80 3 4 -2 13 -10 20 -8 7 -12 16 -9 21 8 13 -26 221 -38 236 -6 7 -8 19 -5 28
4 8 2 17 -3 20 -6 4 -10 28 -10 56 0 28 -5 49 -11 49 -6 0 -8 9 -4 20 4 13 1
22 -9 26 -10 4 -16 18 -16 35 0 16 -5 29 -11 29 -6 0 -9 9 -6 20 3 10 0 21 -6
23 -8 2 -11 27 -9 68 1 35 -2 70 -6 77 -5 8 -5 34 0 60 17 92 7 228 -23 297
-4 11 -13 39 -19 62 -7 27 -17 44 -30 48 -11 4 -20 15 -20 25 0 23 -5 26 -57
35 -31 5 -43 3 -50 -8z m17 -302 c10 -21 14 -56 12 -92 -2 -16 -11 -23 -34
-28 -18 -4 -42 -13 -53 -19 -11 -7 -32 -16 -47 -20 -16 -3 -28 -13 -28 -21 0
-15 -16 -18 -82 -15 -22 1 -38 -3 -38 -9 0 -6 -4 -11 -10 -11 -5 0 -10 7 -10
15 0 8 -4 15 -10 15 -5 0 -7 7 -4 15 4 8 1 21 -5 29 -7 9 -9 29 -5 55 6 36 9
40 30 35 27 -7 140 41 148 63 4 9 16 13 35 11 23 -2 35 4 52 26 l23 29 9 -29
c5 -16 13 -38 17 -49z m-488 -210 c9 -4 13 -17 10 -41 -3 -20 1 -47 8 -60 12
-21 10 -26 -13 -50 -14 -14 -30 -24 -34 -21 -13 7 -55 -12 -49 -22 4 -5 -8
-13 -26 -16 -17 -4 -39 -16 -47 -27 -20 -25 -54 -15 -46 13 4 11 2 19 -3 19
-11 0 -32 53 -32 81 0 11 6 19 14 19 8 0 22 7 30 16 9 8 24 16 34 17 11 0 19
8 18 16 -1 9 12 17 34 22 19 4 39 15 45 23 10 16 32 20 57 11z m520 -86 c0 -5
1 -15 2 -21 1 -7 5 -16 9 -19 9 -7 11 -34 9 -102 -2 -43 -4 -48 -22 -42 -15 5
-20 2 -20 -12 0 -11 -7 -28 -15 -39 -14 -19 -15 -18 -35 6 -11 14 -20 35 -20
47 0 12 -4 25 -10 28 -5 3 -10 16 -10 28 0 16 3 18 9 9 5 -8 17 -12 27 -10 23
4 42 82 24 103 -8 10 -7 17 5 29 15 15 44 12 47 -5z m-259 -55 c12 -4 15 -19
11 -74 -3 -40 -1 -71 5 -74 6 -4 8 -13 5 -20 -3 -8 -1 -17 5 -21 6 -3 11 -26
11 -51 0 -24 5 -44 10 -44 6 0 10 -6 10 -13 0 -17 37 -50 75 -66 16 -7 35 -21
42 -31 7 -10 30 -21 50 -25 21 -3 56 -19 78 -35 22 -17 50 -35 62 -41 12 -7
23 -21 25 -33 2 -15 11 -22 31 -24 15 -2 27 1 27 7 0 6 4 11 10 11 5 0 10 -15
10 -32 1 -87 12 -198 20 -198 5 0 7 -7 4 -15 -4 -8 -3 -23 1 -33 4 -9 8 -38 9
-63 1 -26 11 -60 24 -81 18 -28 20 -41 12 -67 -9 -32 -7 -39 19 -90 7 -13 15
-34 17 -45 12 -77 26 -174 27 -188 1 -10 5 -18 9 -18 4 0 8 -10 8 -23 0 -13 4
-27 10 -33 5 -5 12 -43 15 -84 2 -41 7 -91 10 -110 2 -19 -4 -86 -15 -149 -11
-63 -17 -117 -15 -121 2 -4 -5 -60 -16 -125 -11 -65 -17 -125 -14 -134 7 -19
-14 -184 -26 -202 -8 -12 -11 -11 -19 2 -5 9 -18 27 -29 40 -19 23 -21 23 -37
7 -11 -11 -17 -31 -16 -55 1 -21 1 -51 2 -68 0 -28 7 -51 31 -97 5 -10 9 -29
9 -42 0 -14 4 -27 9 -31 5 -3 9 -20 8 -38 -2 -62 15 -99 81 -172 24 -27 42
-70 42 -103 0 -15 10 -43 21 -62 30 -49 27 -124 -7 -187 -22 -41 -27 -64 -31
-158 -2 -60 -3 -150 -2 -200 1 -49 3 -277 5 -505 2 -403 5 -489 17 -520 3 -8
8 -41 11 -72 3 -32 11 -69 18 -82 8 -19 8 -44 1 -93 -14 -89 -10 -165 10 -193
8 -12 14 -27 12 -34 -3 -6 -6 -29 -9 -51 -7 -63 -18 -98 -38 -125 -11 -14 -18
-37 -17 -55 4 -56 -1 -75 -17 -75 -13 0 -15 -7 -9 -37 4 -21 8 -39 8 -39 1 -1
16 -6 32 -11 28 -9 30 -13 27 -54 -2 -37 2 -50 30 -83 20 -24 31 -49 30 -62
-2 -12 2 -25 7 -29 6 -3 11 -14 11 -24 0 -10 6 -24 14 -30 8 -7 15 -20 15 -29
3 -65 15 -159 22 -168 4 -5 6 -20 2 -32 -3 -13 -1 -22 6 -22 7 0 11 -12 10
-27 -6 -62 42 -183 72 -183 6 0 8 -7 5 -15 -3 -9 1 -18 9 -21 10 -4 12 -17 9
-45 -3 -26 2 -52 16 -81 11 -23 20 -49 20 -59 0 -9 7 -22 15 -29 8 -7 18 -28
21 -48 4 -20 18 -45 31 -55 12 -10 23 -27 23 -38 0 -15 6 -19 23 -17 12 2 25
7 29 13 14 20 31 -11 19 -34 -10 -17 -9 -20 5 -14 15 6 16 1 11 -40 -4 -28 -2
-49 4 -53 7 -4 8 -24 4 -55 -4 -28 -3 -49 2 -49 5 0 8 -23 7 -50 -1 -28 1 -50
5 -50 4 0 8 -19 10 -43 1 -23 6 -46 11 -51 22 -22 -45 -76 -95 -76 -18 0 -24
-7 -29 -38 -9 -58 -7 -72 10 -72 12 0 11 -6 -8 -29 -13 -17 -32 -33 -43 -37
-11 -4 -27 -15 -35 -24 -8 -10 -30 -21 -48 -25 -24 -5 -32 -11 -28 -22 5 -13
0 -14 -29 -9 -27 5 -35 4 -35 -8 0 -18 -36 -40 -50 -31 -6 3 -10 -1 -10 -10 0
-8 -16 -23 -35 -32 -19 -9 -35 -20 -35 -25 0 -4 -6 -8 -14 -8 -21 0 -85 -43
-86 -57 0 -7 -9 -13 -21 -13 -14 0 -24 -10 -32 -30 -7 -17 -17 -28 -24 -26 -7
3 -10 -1 -7 -8 6 -17 -22 -40 -37 -30 -7 4 -9 3 -6 -4 10 -15 -3 -42 -19 -42
-8 0 -14 -7 -14 -15 0 -8 -5 -15 -10 -15 -6 0 -20 -11 -32 -25 -23 -27 -58
-34 -58 -11 0 24 12 46 21 40 5 -3 9 6 9 20 0 14 -4 26 -10 26 -5 0 -7 7 -4
15 4 8 2 15 -4 15 -6 0 -17 3 -26 6 -11 4 -16 1 -16 -10 0 -9 -6 -16 -14 -16
-18 0 -20 -9 -42 -142 -13 -81 -20 -105 -30 -101 -8 3 -14 15 -14 27 0 13 -3
26 -7 29 -3 4 -8 17 -9 30 -7 51 -17 92 -26 98 -14 9 -15 78 -2 168 7 47 9 90
5 96 -4 5 -6 25 -5 43 1 17 2 44 3 60 2 36 18 61 29 45 5 -8 24 -11 47 -9 37
3 40 6 46 40 3 20 3 39 -1 41 -8 5 -19 75 -26 155 -8 107 -30 231 -44 261 -6
10 -14 28 -20 39 -5 11 -10 31 -10 45 0 14 -4 25 -9 25 -5 0 -9 10 -8 23 0 12
-7 49 -16 82 -10 32 -17 73 -17 91 0 17 -7 48 -15 67 -8 20 -15 55 -15 77 0
22 -4 48 -9 58 -20 39 -54 122 -56 137 -1 6 -5 17 -8 25 -11 25 -36 161 -42
230 -4 35 -11 73 -17 83 -5 11 -7 33 -4 50 3 17 1 36 -5 44 -7 7 -9 16 -6 20
3 3 0 17 -8 32 -10 20 -11 39 -4 74 5 29 5 55 -1 65 -14 26 -27 127 -29 221
-1 47 -5 89 -8 94 -8 14 -18 247 -13 327 2 36 4 93 4 128 0 34 4 62 8 62 4 0
8 -9 8 -19 0 -10 16 -33 35 -50 19 -17 35 -35 35 -41 0 -15 12 -12 38 10 14
11 23 30 23 47 0 43 -12 103 -21 103 -9 0 -20 61 -20 107 0 17 -4 34 -10 38
-5 3 -10 17 -10 30 0 13 -4 27 -10 30 -5 3 -10 15 -10 26 0 10 -4 19 -10 19
-5 0 -10 14 -10 30 0 17 -4 30 -10 30 -5 0 -10 11 -10 25 0 14 -4 25 -10 25
-5 0 -10 9 -10 19 0 11 -4 23 -10 26 -5 3 -9 27 -9 53 1 76 -6 136 -18 158 -7
12 -13 36 -13 53 -1 96 1 91 -28 91 -43 0 -52 11 -45 53 3 20 12 42 19 48 19
16 18 46 -2 57 -13 7 -15 18 -11 43 7 36 12 247 8 264 -10 34 1 73 24 85 14 7
25 22 25 32 0 11 4 17 9 14 5 -3 15 1 22 10 11 14 11 18 -3 28 -8 6 -17 20
-19 31 -6 27 -45 32 -60 7 -7 -12 -20 -17 -33 -15 -18 4 -22 12 -24 48 -1 24
3 47 8 50 6 3 10 15 10 26 0 27 28 24 32 -3 6 -44 35 -32 53 21 9 30 23 51 31
51 8 0 14 9 14 20 0 11 6 20 14 20 16 0 26 21 26 56 0 15 -6 24 -15 24 -8 0
-15 -9 -15 -20 0 -24 -23 -26 -45 -4 -15 15 -17 15 -31 -5 -25 -35 -39 -26
-38 27 2 70 2 72 24 72 19 0 25 -14 21 -47 -1 -7 11 -10 34 -9 45 4 52 11 31
31 -9 9 -16 25 -16 35 0 11 -9 24 -21 30 -15 9 -18 15 -9 25 8 10 6 17 -11 28
-19 14 -24 14 -44 1 -13 -8 -30 -30 -39 -49 -9 -18 -21 -35 -27 -37 -5 -2 -16
-26 -24 -53 l-13 -50 -3 40 c-1 22 -3 61 -4 86 0 26 -6 54 -13 62 -9 10 -10
22 -2 41 5 14 7 32 4 39 -3 8 6 35 20 60 27 51 25 87 -5 87 -27 0 -26 59 1 90
39 45 22 102 -30 104 -10 1 -14 10 -12 27 2 17 -3 29 -13 33 -11 4 -14 13 -10
25 3 10 -1 24 -10 31 -38 32 -50 81 -52 225 -2 143 -9 201 -24 211 -5 3 -9 18
-9 34 0 16 -5 32 -10 35 -6 4 -9 12 -8 18 5 22 -40 87 -61 87 -25 0 -30 17
-19 58 5 18 15 74 23 124 12 84 12 93 -3 105 -9 7 -23 13 -29 13 -7 0 -13 7
-13 15 0 8 -4 23 -9 33 -17 33 -30 85 -25 94 3 5 1 14 -4 21 -6 8 -6 39 0 86
7 52 7 81 -1 98 -7 14 -8 31 -3 39 5 9 5 37 1 62 -5 29 -3 80 6 132 12 76 19
157 16 185 -7 63 -11 87 -23 130 -13 51 -10 138 4 103 9 -22 46 -23 74 -4 18
13 22 13 38 -6 l18 -20 19 21 c11 12 25 21 31 21 6 0 19 7 28 15 9 8 45 21 81
28 49 10 67 18 75 35 l11 23 15 -23 16 -23 29 21 c15 12 38 24 50 28 13 4 26
21 34 44 6 20 19 48 29 62 9 14 20 33 23 43 7 17 24 21 50 11z m-858 -196 c4
-29 11 -55 15 -58 5 -3 5 -21 1 -40 -7 -34 -8 -35 -52 -32 -30 2 -48 8 -58 22
-16 23 -38 25 -65 5 -13 -10 -24 -11 -36 -5 -14 8 -16 17 -10 50 9 50 42 84
71 75 11 -4 26 -2 33 5 8 6 24 13 36 15 13 2 25 7 28 10 17 17 31 0 37 -47z
m-651 -373 c8 -8 21 -15 29 -15 10 0 13 -15 13 -62 -1 -35 -4 -67 -7 -73 -9
-13 -18 -76 -24 -153 -2 -35 -9 -77 -14 -95 -6 -18 -13 -44 -16 -59 -3 -14
-16 -40 -30 -56 -14 -17 -25 -35 -25 -41 0 -6 -9 -20 -19 -30 -11 -11 -18 -28
-17 -38 2 -10 1 -12 -1 -5 -3 6 -8 12 -11 12 -4 0 -8 12 -9 28 -1 15 -5 61 -8
102 -3 41 -5 96 -5 123 0 26 -5 47 -10 47 -5 0 -7 13 -4 29 3 16 1 39 -6 51
-9 18 -9 40 1 104 7 44 15 71 17 59 2 -13 10 -23 19 -23 19 0 63 49 63 71 0
18 19 39 36 39 7 0 19 -7 28 -15z m210 -11 c9 -3 16 -14 16 -23 0 -14 14 -19
68 -27 63 -8 69 -8 64 8 -5 22 19 23 95 6 34 -8 53 -18 56 -29 3 -11 19 -20
43 -24 84 -14 90 -23 101 -150 7 -85 9 -109 13 -115 1 -3 4 -16 5 -30 11 -98
29 -208 36 -222 5 -9 9 -52 9 -95 0 -50 5 -86 14 -98 7 -11 16 -36 19 -55 13
-76 20 -100 28 -100 5 0 9 -7 9 -14 0 -8 11 -27 25 -42 27 -29 30 -40 15 -49
-5 -3 -10 -13 -10 -21 0 -9 -6 -22 -14 -29 -10 -11 -13 -40 -11 -117 2 -57 4
-103 5 -103 1 0 3 -61 4 -135 3 -131 5 -149 29 -198 6 -13 10 -37 9 -54 -1
-17 3 -36 9 -44 7 -9 8 -23 1 -46 -13 -42 -12 -66 4 -97 7 -13 11 -28 8 -33
-3 -5 -2 -17 2 -26 4 -9 9 -39 9 -67 3 -86 14 -236 26 -348 10 -96 10 -109 -5
-126 -17 -19 -22 -51 -7 -51 11 0 27 -47 36 -107 5 -33 3 -43 -7 -43 -10 0
-10 -2 -1 -8 8 -5 9 -18 3 -42 -12 -47 -18 -78 -13 -62 3 6 9 12 15 12 7 0 8
-21 3 -62 -21 -190 -35 -439 -36 -676 -1 -62 -4 -85 -15 -89 -16 -6 -19 -39
-4 -48 6 -4 8 -10 5 -15 -5 -7 -7 -77 -5 -160 2 -73 -9 -260 -15 -270 -5 -8
-10 -50 -11 -94 -1 -45 -7 -93 -13 -108 -6 -17 -7 -37 -2 -50 5 -13 12 -60 16
-105 4 -46 10 -83 14 -83 10 0 8 -237 -2 -246 -9 -9 -28 16 -22 27 6 9 -34 49
-50 49 -27 0 -33 -25 -40 -160 -3 -73 -3 -76 26 -100 l29 -25 -25 -37 c-23
-34 -25 -45 -27 -175 -3 -225 1 -293 18 -293 8 0 14 5 14 11 0 5 4 8 9 4 12
-7 -5 -69 -19 -73 -13 -5 -13 -35 1 -49 17 -17 -10 -140 -32 -146 -9 -3 -19
-15 -21 -28 -3 -17 -6 -20 -10 -9 -21 54 -23 61 -26 88 -3 23 -18 12 -31 -24
-11 -30 -11 -38 3 -53 9 -10 16 -27 16 -39 0 -12 5 -22 11 -22 6 0 9 -9 6 -20
-4 -15 0 -20 14 -20 10 0 19 7 19 15 0 8 5 15 11 15 6 0 9 -9 6 -20 -3 -12 0
-20 7 -20 7 0 20 27 29 60 26 90 47 76 52 -35 3 -70 7 -88 22 -106 6 -8 9 -27
8 -44 -4 -49 -25 -158 -35 -180 -20 -46 -30 -140 -19 -180 7 -23 9 -68 5 -107
-5 -60 -4 -68 13 -78 27 -14 27 -14 42 22 l13 33 4 -52 c2 -29 7 -53 11 -53 4
0 8 -15 8 -33 2 -52 11 -120 22 -154 5 -18 7 -33 4 -33 -3 0 0 -6 6 -14 8 -9
8 -21 2 -39 -8 -19 -6 -27 5 -31 19 -7 19 -78 -1 -142 -8 -27 -15 -69 -15 -93
0 -43 18 -111 30 -111 3 0 7 -20 8 -45 1 -40 -1 -47 -23 -55 -14 -5 -25 -14
-25 -19 0 -5 -9 -13 -20 -16 -11 -3 -20 -12 -20 -20 0 -16 -56 -65 -76 -65 -8
0 -14 -5 -14 -11 0 -5 -4 -8 -9 -5 -5 4 -11 2 -13 -3 -1 -4 -29 -10 -60 -13
-47 -4 -62 -1 -78 15 -17 15 -19 22 -9 33 6 8 22 14 36 14 24 0 27 4 37 52 5
23 2 29 -18 34 -37 9 -86 -44 -80 -86 4 -21 1 -30 -8 -30 -8 0 -20 -8 -27 -19
-12 -16 -24 -18 -76 -15 -47 3 -66 0 -75 -11 -7 -8 -21 -15 -33 -15 -17 0 -19
5 -13 39 6 38 -3 51 -34 51 -14 0 -21 -32 -10 -46 7 -7 8 -27 4 -48 -6 -36
-15 -41 -61 -37 -13 1 -28 -7 -35 -19 -7 -11 -18 -20 -24 -20 -7 0 -15 -7 -18
-15 -4 -11 -17 -15 -41 -13 -20 1 -39 -2 -43 -8 -12 -16 -60 -44 -77 -44 -9 0
-18 -7 -21 -15 -4 -8 -12 -15 -19 -15 -7 0 -15 -7 -19 -15 -3 -8 -14 -15 -25
-15 -18 0 -31 21 -36 60 -1 8 -5 22 -8 30 -13 34 -14 130 -1 205 7 44 18 123
25 175 6 52 18 115 26 140 9 27 16 90 18 155 3 133 1 124 24 118 22 -6 33 35
31 125 -3 195 1 278 16 328 9 30 13 62 10 71 -4 8 -1 21 4 29 6 7 10 32 8 56
-2 34 -7 44 -23 46 -19 3 -21 11 -24 95 -1 51 -4 105 -6 120 -5 44 23 224 39
249 8 13 18 47 22 76 3 28 11 52 16 52 6 0 7 11 4 24 -3 14 1 46 10 72 10 31
17 86 18 153 0 69 5 111 14 119 17 19 15 42 -7 79 -11 17 -20 40 -20 50 -3
185 -1 352 4 375 4 17 2 35 -5 43 -6 8 -9 18 -6 23 3 5 -3 20 -13 33 -10 13
-16 30 -14 37 3 6 0 12 -6 12 -11 0 -16 -38 -12 -96 2 -23 -3 -33 -17 -36 -28
-8 -50 14 -57 57 -4 22 -12 46 -18 53 -9 11 -12 40 -8 82 2 22 21 8 21 -15 0
-30 15 -33 30 -6 15 29 13 71 -4 71 -8 0 -21 3 -29 6 -10 3 -17 -2 -20 -13
-10 -37 -6 73 4 117 6 25 12 81 15 125 3 44 9 89 13 100 5 11 14 34 21 50 14
32 20 144 9 160 -4 6 -8 37 -8 70 -2 96 -7 160 -14 172 -9 14 3 103 14 103 5
0 9 -4 9 -10 0 -5 11 -26 26 -47 16 -24 23 -45 19 -60 -3 -12 -1 -24 5 -28 5
-3 7 -31 5 -62 -6 -68 0 -93 24 -93 32 0 59 151 33 183 -6 7 -10 23 -11 37 0
66 -23 134 -51 157 -23 19 -51 15 -57 -7 -3 -11 -9 -17 -14 -15 -4 3 -6 11 -3
18 2 7 -2 44 -10 82 -9 39 -18 111 -21 160 -7 113 -9 128 -18 142 -4 6 -8 24
-8 40 -1 87 -6 150 -13 162 -15 23 -17 134 -5 228 12 86 11 94 -6 113 -23 26
-34 25 -45 -2 -9 -23 -9 -23 -10 2 -1 14 -1 35 0 48 1 12 -4 22 -10 22 -7 0
-10 8 -7 20 3 11 1 23 -4 26 -27 16 12 157 47 171 8 3 14 13 14 23 0 11 5 22
10 25 6 3 10 17 10 31 0 14 7 27 15 30 20 8 19 20 -6 45 l-21 21 22 23 c17 18
22 39 26 106 5 73 4 82 -9 69 -8 -8 -19 -42 -26 -74 -6 -33 -13 -61 -16 -64
-2 -3 -13 6 -24 19 -18 22 -20 34 -14 134 6 127 5 306 -3 350 -8 42 11 89 33
81 11 -5 25 2 40 20 26 30 28 41 12 46 -8 3 -6 32 6 98 24 144 24 143 8 155
-12 9 -13 21 -3 74 6 35 8 71 5 80 -4 9 -8 34 -9 56 -1 23 -5 46 -9 52 -4 6 1
55 10 109 21 129 40 172 101 230 18 18 35 47 38 65 4 19 13 41 20 49 7 8 18
38 25 65 7 28 20 68 29 90 14 32 18 68 17 181 0 163 3 175 47 158z m2134
-3341 c-5 -31 -6 -64 -2 -72 9 -19 12 -141 4 -141 -3 0 -11 5 -17 11 -16 16
-41 4 -45 -22 -3 -22 -3 -22 -17 5 -14 24 -13 28 7 42 26 18 21 35 -16 56 -35
21 -38 71 -4 76 29 4 72 62 72 97 0 22 3 25 13 16 11 -8 12 -24 5 -68z m-53
-375 c4 -13 8 -34 10 -47 6 -37 21 -47 49 -31 45 24 56 9 50 -70 -3 -45 -1
-70 6 -70 5 0 10 -13 10 -30 0 -16 4 -30 8 -30 10 0 13 -26 6 -58 -4 -19 -8
-22 -19 -12 -8 7 -26 9 -44 5 -17 -3 -32 -2 -36 4 -9 15 -45 14 -46 -1 -1 -7
-3 -24 -4 -38 -2 -14 4 -32 12 -41 8 -10 12 -27 8 -43 -3 -14 -7 -37 -10 -51
-9 -43 -25 -27 -25 25 0 33 -5 52 -13 56 -17 6 -14 127 2 132 14 5 14 62 0 62
-7 0 -9 16 -4 50 4 28 3 50 -2 50 -13 0 -7 128 7 145 17 21 26 19 35 -7z m145
-484 c0 -24 4 -44 9 -44 4 0 6 -11 3 -25 -3 -16 0 -25 8 -25 10 0 11 -15 7
-58 -9 -81 -15 -95 -33 -78 -10 11 -12 26 -6 58 10 56 5 78 -19 78 -11 0 -22
7 -25 15 -4 8 -14 15 -24 15 -22 0 -32 23 -24 55 5 20 10 23 35 18 24 -4 30
-1 40 21 17 36 29 23 29 -30z m-2433 -1014 c-3 -26 0 -46 11 -61 12 -17 16
-55 18 -163 3 -162 -1 -197 -21 -189 -11 4 -12 10 -5 23 12 22 13 103 3 114
-5 4 -9 12 -9 17 -1 5 -2 14 -3 19 0 6 -14 10 -31 10 -34 0 -33 -1 -30 90 1
36 3 95 3 131 1 63 1 65 24 61 15 -3 23 0 23 9 0 9 5 7 11 -5 6 -10 9 -36 6
-56z"/>
</g>
</svg>
