<?xml version="1.0" standalone="no"?>
<!DOCTYPE svg PUBLIC "-//W3C//DTD SVG 20010904//EN"
 "http://www.w3.org/TR/2001/REC-SVG-20010904/DTD/svg10.dtd">
<svg version="1.0" xmlns="http://www.w3.org/2000/svg"
 width="970.000000pt" height="974.000000pt" viewBox="0 0 970.000000 974.000000"
 preserveAspectRatio="xMidYMid meet">
<metadata>
Created by potrace 1.16, written by Peter Selinger 2001-2019
</metadata>
<g transform="translate(0.000000,974.000000) scale(0.100000,-0.100000)"
fill="#000000" stroke="none">
<path d="M5188 8817 c-6 -7 -22 -11 -35 -9 -13 2 -23 -1 -23 -7 0 -6 -8 -11
-18 -11 -10 0 -27 -6 -37 -14 -17 -12 -24 -12 -58 6 -28 14 -42 17 -50 9 -6
-6 -21 -11 -33 -11 -12 0 -27 -6 -34 -14 -6 -8 -18 -12 -25 -9 -8 3 -26 -5
-41 -16 -15 -12 -35 -21 -45 -21 -11 0 -19 -3 -19 -8 0 -4 -12 -13 -27 -19
-16 -7 -42 -26 -60 -43 -18 -16 -38 -30 -45 -30 -7 0 -22 -7 -32 -15 -10 -8
-23 -12 -28 -9 -5 3 -20 -2 -34 -11 -13 -8 -30 -15 -37 -13 -6 1 -22 -3 -35
-10 -12 -7 -32 -10 -42 -7 -12 4 -20 2 -20 -4 0 -14 -55 -14 -80 -1 -10 6 -21
6 -24 1 -3 -4 -37 -8 -75 -8 -39 0 -76 -4 -83 -10 -7 -5 -40 -16 -73 -23 -33
-7 -67 -19 -76 -27 -8 -7 -23 -13 -33 -13 -9 0 -14 -4 -11 -10 3 -5 1 -10 -4
-10 -6 0 -10 -3 -9 -7 2 -5 -3 -23 -11 -40 -11 -27 -19 -33 -43 -33 -65 0
-151 -31 -184 -66 -18 -19 -37 -34 -43 -34 -6 0 -18 -14 -27 -32 -20 -38 -49
-65 -86 -79 -16 -6 -28 -15 -28 -20 0 -5 -7 -9 -15 -9 -8 0 -15 -9 -15 -20 0
-14 -7 -20 -24 -20 -17 0 -27 -8 -36 -29 -10 -25 -30 -39 -63 -45 -4 0 -12 -8
-17 -16 -5 -8 -10 -10 -10 -5 0 6 -6 1 -13 -10 -7 -11 -23 -20 -36 -20 -20 0
-31 -13 -60 -66 -20 -36 -52 -79 -71 -95 -19 -16 -36 -32 -38 -36 -2 -3 -14
-18 -27 -32 -13 -14 -26 -35 -30 -46 -3 -11 -11 -20 -16 -20 -11 0 -129 -120
-129 -131 0 -4 -9 -10 -20 -14 -10 -3 -34 -27 -51 -53 -17 -26 -38 -51 -45
-55 -8 -4 -14 -15 -14 -22 0 -8 -8 -15 -17 -15 -28 0 -56 -37 -107 -138 -39
-78 -50 -92 -71 -92 -15 0 -29 -8 -36 -22 -7 -13 -15 -25 -19 -28 -4 -3 -31
-52 -60 -109 -59 -115 -75 -135 -113 -145 -14 -3 -28 -14 -32 -25 -3 -10 -28
-36 -55 -57 -27 -21 -52 -46 -55 -55 -3 -8 -33 -24 -68 -35 -49 -16 -67 -27
-84 -55 -13 -19 -27 -39 -32 -45 -5 -6 -21 -35 -36 -63 -14 -28 -30 -49 -34
-46 -5 3 -23 -12 -40 -33 -17 -20 -38 -44 -45 -52 -7 -8 -19 -25 -25 -37 -6
-13 -18 -23 -25 -23 -14 0 -49 -69 -44 -86 4 -14 -72 -174 -84 -174 -3 0 -10
-9 -13 -20 -3 -11 -13 -20 -21 -20 -7 0 -25 -17 -39 -37 -14 -21 -37 -53 -50
-72 -14 -18 -29 -50 -35 -69 -5 -19 -22 -52 -39 -72 -16 -20 -55 -85 -86 -146
-32 -60 -79 -150 -106 -201 -27 -50 -49 -101 -49 -112 0 -11 -4 -22 -9 -26
-11 -6 -61 -94 -61 -106 0 -4 -16 -35 -36 -69 -19 -33 -37 -69 -39 -80 -4 -20
-74 -151 -86 -160 -3 -3 -14 -21 -24 -40 -10 -19 -21 -37 -25 -40 -4 -3 -17
-24 -29 -47 -11 -23 -25 -44 -30 -47 -15 -10 -81 -133 -81 -151 0 -10 -19 -54
-42 -99 -23 -44 -50 -97 -59 -117 -10 -19 -20 -54 -21 -77 -2 -23 -6 -42 -9
-42 -4 0 -13 -15 -20 -32 -7 -18 -30 -49 -50 -68 -21 -20 -40 -48 -43 -65 -10
-56 -18 -80 -48 -138 -33 -65 -29 -81 20 -82 22 0 28 -5 30 -29 3 -27 52 -117
79 -144 7 -7 13 -17 13 -21 0 -5 57 -65 127 -135 88 -87 134 -126 150 -126 31
0 93 -31 86 -43 -3 -6 -2 -7 4 -4 6 4 34 -3 64 -14 79 -30 113 -39 140 -38 23
1 33 -1 86 -17 15 -4 23 -2 23 5 0 8 15 10 50 5 31 -4 50 -3 50 3 0 6 11 8 25
5 15 -2 25 0 25 7 0 7 5 9 10 6 6 -3 10 -1 10 6 0 7 10 9 29 6 24 -5 31 -2 36
13 4 13 15 20 30 20 44 0 110 112 121 204 6 46 13 62 46 97 25 26 38 49 37 63
-5 41 46 160 64 149 6 -3 7 -1 3 5 -8 13 17 65 44 94 16 18 32 51 61 126 7 19
18 39 25 46 6 7 28 45 48 84 20 40 40 72 45 72 5 0 14 14 21 30 7 17 16 30 20
30 4 0 14 19 23 43 37 103 49 131 93 209 25 46 48 92 50 103 2 11 10 25 17 30
8 6 21 25 31 43 9 17 20 32 24 32 5 0 18 20 30 45 12 25 27 45 33 45 13 0 49
38 49 51 0 5 13 23 30 41 53 59 60 68 53 69 -5 1 2 4 15 8 21 5 88 107 108
164 4 9 13 17 20 17 13 0 19 13 15 33 -1 5 3 6 9 2 5 -3 13 1 16 9 3 9 12 16
19 16 7 0 23 15 35 34 13 18 38 39 57 45 18 7 33 19 33 27 0 8 8 18 18 21 9 4
23 13 30 20 7 7 20 13 27 13 8 0 17 9 20 21 4 11 9 18 12 15 3 -3 12 1 20 9 8
8 23 15 33 15 11 0 24 9 30 20 6 11 18 20 27 20 9 0 25 11 37 23 12 13 34 27
48 30 15 4 29 15 33 25 3 11 22 24 43 31 20 7 43 15 51 18 11 4 13 -7 9 -58
-5 -76 -25 -124 -53 -124 -11 0 -27 -14 -39 -34 -18 -32 -19 -34 -2 -47 14
-10 15 -16 7 -33 -15 -26 -14 -31 4 -31 11 0 13 -4 6 -17 -20 -37 -39 -118
-31 -128 8 -10 -18 -104 -62 -225 -11 -30 -20 -61 -21 -67 0 -7 -4 -13 -9 -13
-4 0 -8 -7 -8 -15 0 -9 -11 -26 -25 -39 -13 -13 -22 -26 -18 -29 3 -4 1 -7 -5
-7 -7 0 -11 -3 -10 -7 1 -9 -41 -113 -65 -158 -7 -14 -6 -20 2 -23 9 -3 8 -11
-4 -28 -8 -13 -13 -24 -10 -24 3 0 -26 -63 -65 -140 -38 -77 -70 -147 -70
-155 0 -36 23 -8 70 85 28 55 52 100 54 100 8 0 -10 -46 -43 -110 -25 -47 -31
-68 -23 -80 15 -23 -14 -73 -39 -67 -10 3 -17 1 -14 -4 3 -4 -4 -27 -16 -51
-26 -52 -41 -101 -28 -93 13 9 13 7 -22 -97 -17 -51 -31 -99 -32 -105 0 -9 -4
-10 -12 -3 -9 8 -17 0 -28 -27 -8 -22 -11 -40 -6 -41 6 -2 5 -10 -2 -18 -8
-10 -8 -18 -1 -27 6 -7 9 -22 7 -32 -2 -11 -4 -40 -4 -65 -1 -43 -3 -46 -28
-45 l-28 0 3 -93 c1 -51 9 -119 16 -152 9 -39 11 -60 4 -60 -7 0 -8 -15 -4
-42 4 -24 8 -103 11 -177 3 -103 0 -141 -10 -160 -8 -14 -14 -21 -15 -16 0 6
-4 4 -9 -4 -10 -15 13 -111 29 -121 16 -10 5 -89 -16 -104 -14 -11 -16 -22
-11 -60 14 -96 59 -175 165 -284 26 -27 64 -69 84 -94 21 -25 72 -75 114 -109
42 -35 95 -81 118 -102 43 -39 219 -159 321 -219 55 -33 109 -54 128 -50 4 1
7 -3 7 -9 0 -5 5 -7 10 -4 6 3 10 1 10 -5 0 -6 4 -9 9 -6 5 4 11 2 13 -4 2 -6
37 -19 78 -30 109 -28 200 -61 194 -71 -3 -5 3 -6 12 -2 13 5 15 3 9 -7 -5 -9
-4 -11 3 -6 6 4 25 0 41 -9 17 -8 34 -14 38 -14 4 1 16 -1 26 -6 9 -4 23 -3
30 3 10 8 21 6 44 -7 16 -11 45 -21 64 -24 59 -10 159 -42 169 -55 3 -4 21
-13 40 -20 40 -15 44 -16 125 -37 33 -9 67 -18 75 -20 8 -2 40 -13 70 -25 30
-11 80 -24 110 -30 111 -19 166 -29 235 -45 39 -8 111 -18 160 -21 50 -3 106
-8 125 -10 83 -13 200 -15 255 -4 163 31 169 31 232 -3 32 -17 60 -33 63 -36
3 -3 10 -7 15 -8 6 -1 17 -4 26 -8 9 -3 24 1 33 10 9 9 16 12 16 6 0 -14 47
-14 55 -1 3 5 18 10 33 10 71 1 152 69 152 129 0 23 51 123 76 148 6 7 15 9
18 5 4 -4 3 6 -3 20 -6 16 -6 30 -1 33 20 12 61 101 62 134 1 34 13 69 27 81
4 3 27 37 52 75 43 64 64 102 99 178 8 15 19 26 26 25 6 -2 23 8 36 23 13 14
30 28 39 31 21 8 89 147 89 182 0 26 25 86 40 96 4 3 15 26 23 51 29 85 69
158 90 165 11 3 52 8 91 9 39 2 72 4 74 5 1 2 20 4 42 5 22 1 41 4 43 5 1 1
20 4 42 5 21 2 41 8 43 14 2 6 10 8 20 3 9 -5 26 -7 37 -6 11 1 58 4 105 7 48
3 86 10 88 16 2 6 14 11 26 11 12 0 27 5 33 11 6 6 17 11 24 13 20 3 79 39 79
48 0 4 13 5 30 2 22 -5 31 -2 36 10 4 10 13 15 20 12 7 -3 27 8 43 24 16 17
35 30 42 30 14 0 59 46 59 61 0 6 9 8 20 4 13 -4 25 1 37 14 10 12 22 21 28
21 20 0 143 127 180 187 21 32 50 72 65 88 16 17 59 89 96 160 37 72 94 177
127 235 92 160 114 210 127 280 17 94 42 177 71 233 6 11 6 24 0 35 -6 11 -4
32 5 60 10 27 12 48 6 58 -5 10 -6 33 -1 52 5 23 4 41 -3 49 -8 10 -7 21 2 41
8 15 15 59 17 97 5 132 19 224 37 254 21 33 57 189 45 193 -8 3 -1 21 47 127
15 33 22 57 16 63 -12 12 10 77 50 146 21 38 29 61 25 81 -3 15 -2 45 3 67 5
21 6 40 2 42 -4 1 -7 36 -7 78 0 42 -5 83 -11 92 -6 9 -8 30 -4 53 4 21 4 43
-1 50 -4 7 -4 20 1 29 5 9 3 22 -6 34 -7 10 -11 23 -8 28 3 5 -1 19 -9 32 -9
12 -13 34 -10 49 3 15 1 27 -5 27 -6 0 -10 13 -10 30 1 16 -4 36 -10 43 -7 8
-9 16 -6 20 3 3 0 16 -7 29 -7 12 -14 37 -15 53 -3 39 -8 55 -20 80 -6 11 -10
27 -9 35 1 8 -4 23 -11 33 -6 10 -10 26 -7 37 3 10 0 21 -6 24 -6 4 -11 17
-11 29 0 12 -7 30 -15 40 -7 11 -11 25 -8 33 3 8 0 21 -7 29 -6 8 -9 19 -6 24
4 5 -3 19 -15 30 -17 16 -20 23 -10 34 9 11 8 17 -4 27 -8 7 -15 25 -15 41 0
15 -5 31 -10 34 -6 3 -8 16 -6 28 2 13 -2 31 -10 42 -10 13 -11 22 -3 31 8 10
7 18 -5 30 -9 8 -14 20 -10 25 3 5 0 26 -7 47 -17 54 -17 54 -38 87 -11 17
-20 37 -20 45 -1 9 -10 32 -20 53 -10 20 -22 48 -25 62 -4 14 -11 25 -16 25
-6 0 -10 7 -10 16 0 8 -13 29 -30 46 -16 16 -30 37 -30 46 0 9 -19 35 -43 57
-23 22 -47 49 -52 60 -6 10 -26 30 -45 43 -66 44 -79 56 -84 78 -3 12 -18 30
-33 40 -16 10 -34 23 -41 31 -7 7 -30 17 -51 23 -21 5 -46 21 -56 34 -11 14
-35 32 -54 41 -24 11 -42 29 -56 56 -17 36 -32 47 -117 90 -54 27 -98 53 -98
58 0 5 -9 13 -20 16 -11 3 -20 15 -20 26 0 11 -11 24 -24 30 -22 11 -76 100
-76 127 0 6 -23 28 -50 48 -28 20 -47 40 -44 45 3 5 0 9 -5 9 -6 0 -11 7 -11
15 0 8 -5 15 -10 15 -6 0 -43 33 -83 74 -91 92 -121 109 -172 95 -40 -11 -91
-8 -165 10 -25 7 -63 14 -85 17 -22 3 -74 21 -115 39 -74 32 -128 50 -142 47
-5 -1 -8 2 -8 7 0 4 -28 14 -62 20 -35 7 -92 19 -128 26 -36 8 -78 17 -95 20
-39 7 -62 12 -110 25 -22 6 -48 13 -58 15 -11 2 -38 16 -62 30 -24 14 -51 25
-60 25 -9 0 -14 3 -12 8 3 4 -20 8 -50 10 -35 2 -70 11 -98 26 -33 19 -52 23
-83 19 -24 -3 -42 -1 -46 6 -4 6 -15 11 -25 11 -10 0 -42 13 -72 30 -35 18
-59 26 -68 21 -7 -5 -38 -3 -70 4 -31 7 -87 11 -126 10 -39 -1 -83 4 -100 11
-52 21 -83 25 -97 11z m-192 -145 c6 -4 14 -18 18 -32 5 -16 4 -20 -2 -12 -11
16 -40 5 -47 -18 -5 -16 -11 -17 -31 -10 -14 6 -23 6 -20 2 3 -5 -9 -25 -25
-45 -17 -20 -26 -37 -21 -37 6 0 12 6 15 13 2 6 8 9 12 5 4 -4 0 -14 -9 -23
-9 -9 -16 -24 -16 -33 0 -14 -2 -15 -10 -2 -5 8 -12 12 -15 8 -4 -3 4 -17 16
-29 13 -13 24 -18 26 -12 2 6 13 9 23 6 14 -4 20 0 20 11 0 9 8 16 17 16 10 0
28 12 40 27 26 29 32 53 7 29 -14 -15 -24 -20 -24 -13 0 2 12 19 26 38 18 24
25 28 22 14 -2 -12 3 -21 15 -23 10 -2 16 1 15 6 -5 15 47 59 58 49 5 -5 25
-22 44 -38 19 -16 26 -27 16 -23 -11 4 -17 3 -14 -2 4 -5 0 -22 -7 -39 -11
-24 -14 -26 -15 -10 -1 15 -4 13 -12 -10 -6 -16 -19 -36 -30 -43 -10 -7 -18
-19 -18 -26 0 -16 -25 -27 -44 -20 -8 3 -18 -6 -25 -25 -18 -43 -37 -48 -98
-22 -36 14 -50 40 -31 53 10 8 10 11 0 15 -6 2 -10 9 -6 14 3 5 -1 9 -9 9 -22
0 -42 30 -39 57 2 15 -1 23 -10 21 -14 -3 -14 3 -3 37 6 17 3 16 -14 -5 -21
-25 -21 -24 1 23 20 43 38 61 38 37 0 -5 9 -10 20 -10 11 0 20 5 20 11 0 6 6
9 14 6 8 -3 16 2 19 14 3 13 14 19 31 19 15 0 29 7 32 15 7 17 14 18 30 7z
m534 -302 c73 -37 120 -68 118 -78 -1 -4 2 -15 7 -25 9 -21 -20 -82 -49 -103
-20 -14 -39 -7 -81 28 -5 5 -19 16 -30 24 -11 9 -14 13 -7 9 8 -4 12 2 12 20
0 16 -4 24 -10 20 -7 -4 -9 3 -5 22 3 16 2 21 -2 13 -19 -36 -46 -70 -57 -70
-8 0 -8 2 0 8 13 8 44 66 44 83 0 8 -4 9 -13 0 -10 -8 -18 -7 -31 2 -16 12
-16 14 7 24 19 9 24 17 20 32 -3 12 -11 21 -19 21 -7 0 -15 4 -19 9 -9 15 43
-3 115 -39z m-1152 23 c18 -4 20 -8 10 -15 -10 -7 -9 -11 5 -19 15 -9 17 -19
13 -47 -3 -21 -7 -52 -8 -69 -1 -18 -6 -33 -11 -33 -4 0 -5 -4 -2 -10 3 -5 1
-10 -4 -10 -15 0 -14 -27 3 -42 11 -11 11 -16 -1 -35 -10 -15 -11 -23 -4 -23
6 0 11 5 11 12 0 6 3 9 6 5 4 -3 -5 -20 -20 -37 -14 -17 -26 -36 -26 -41 0 -5
-9 -28 -19 -52 -27 -61 -32 -77 -21 -77 6 0 10 -9 10 -20 0 -11 -4 -20 -10
-20 -5 0 -10 -6 -10 -13 0 -7 -8 -17 -19 -24 -16 -10 -20 -8 -30 13 -16 36
-14 49 14 104 29 56 31 93 10 134 -8 15 -15 36 -16 45 0 11 -3 9 -9 -6 -5 -13
-11 -23 -13 -23 -5 0 -3 40 3 41 3 1 21 2 40 4 19 2 38 3 42 4 11 2 -4 42 -18
48 -17 6 -18 39 -3 49 8 4 9 -1 5 -17 -5 -17 -4 -19 2 -9 15 25 24 73 12 65
-9 -6 -15 14 -11 44 2 7 -2 10 -8 6 -7 -4 -8 0 -4 10 4 11 8 13 13 5 4 -7 12
-3 23 13 18 27 14 38 -11 30 -15 -4 -15 -3 -2 6 17 12 26 13 58 4z m1996 -70
c-3 -13 6 -23 33 -35 59 -25 83 -31 83 -18 0 8 6 8 20 0 11 -6 20 -18 20 -26
0 -11 6 -14 16 -10 9 3 12 2 9 -5 -4 -5 -1 -16 5 -24 10 -13 8 -15 -18 -15
-17 0 -34 5 -37 11 -4 6 -14 8 -22 5 -8 -3 -11 -1 -8 4 11 18 -24 10 -35 -7
-8 -12 -10 -13 -7 -3 3 11 -4 16 -24 17 -36 3 -71 21 -64 34 4 5 1 9 -5 9 -6
0 -8 10 -4 25 5 19 2 25 -11 25 -9 0 -25 5 -36 11 -15 8 -18 14 -9 23 5 8 7
21 4 31 -6 14 2 12 44 -9 37 -19 49 -30 46 -43z m-614 -70 c0 5 12 1 28 -7 28
-15 72 -28 109 -31 12 -1 29 -7 37 -14 12 -10 11 -17 -7 -51 -24 -42 -38 -44
-31 -4 5 27 -12 58 -27 48 -5 -3 -9 1 -9 8 0 8 -4 7 -11 -4 -9 -16 -12 -16
-45 2 -19 11 -38 20 -42 20 -4 0 -15 -19 -26 -41 -10 -22 -28 -50 -40 -61 -11
-12 -14 -17 -6 -13 13 8 13 6 2 -8 -8 -9 -10 -22 -6 -28 4 -8 3 -9 -4 -5 -16
10 -15 -6 2 -29 10 -14 11 -25 5 -37 -6 -12 -6 -18 1 -18 5 0 10 -6 10 -14 0
-8 15 -17 34 -20 39 -7 59 -27 50 -49 -3 -10 3 -20 17 -27 19 -11 21 -10 16 4
-4 10 -3 15 2 12 9 -6 48 73 43 87 -1 5 2 6 8 2 6 -4 0 -25 -15 -55 -14 -27
-25 -55 -25 -62 1 -7 10 4 21 25 23 45 42 41 28 -6 -5 -17 -9 -33 -9 -34 0 -1
-18 -1 -40 -1 -25 0 -37 4 -33 11 3 6 1 7 -6 3 -6 -4 -33 10 -62 33 -29 23
-59 41 -69 41 -9 0 -29 10 -43 23 -29 25 -37 67 -12 67 24 0 53 36 65 79 6 23
15 41 20 41 6 0 10 7 10 15 0 8 5 14 11 13 7 -2 16 12 21 30 10 38 3 70 -7 35
-4 -13 -11 -23 -17 -23 -5 0 -4 9 2 20 6 11 7 20 3 21 -4 0 1 4 12 8 12 5 23
4 27 -3 4 -6 8 -7 8 -3z m1460 -42 c0 -24 48 -71 66 -64 10 4 12 0 8 -11 -3
-9 -2 -16 3 -16 13 0 59 -40 47 -40 -5 -1 1 -9 13 -19 12 -10 19 -21 16 -25
-4 -3 1 -6 10 -6 22 0 38 -32 26 -51 -5 -7 -9 -10 -9 -5 0 5 -7 3 -15 -4 -8
-7 -12 -17 -8 -23 3 -6 1 -7 -5 -3 -7 4 -22 9 -34 11 -20 4 -35 19 -26 27 5 6
-35 49 -108 116 -17 15 -23 29 -19 41 4 14 -1 20 -22 26 l-28 7 27 10 c32 11
43 35 26 56 -11 13 -10 14 10 3 12 -6 22 -20 22 -30z m-2507 0 c3 -11 -1 -22
-9 -25 -9 -3 -11 1 -8 12 5 14 4 15 -5 2 -15 -21 -14 -28 8 -35 21 -6 22 -28
3 -47 -7 -7 -12 -25 -12 -41 0 -28 2 -29 39 -24 l38 4 -8 -35 c-4 -19 -12 -39
-18 -45 -6 -6 -11 -22 -11 -35 0 -18 -4 -23 -16 -18 -8 3 -12 2 -9 -4 3 -6 -3
-10 -14 -10 -12 0 -21 5 -21 12 0 19 -15 -1 -51 -67 -18 -33 -35 -62 -38 -65
-3 -3 -16 -26 -28 -52 -22 -47 -43 -63 -43 -32 0 20 17 51 42 76 13 13 18 28
15 44 -2 14 0 27 4 30 5 3 9 22 9 43 0 20 7 46 15 57 8 10 15 24 15 31 0 6 5
24 11 40 13 31 19 64 13 75 -4 7 -66 -20 -74 -33 -3 -4 -12 -4 -20 1 -11 7
-12 13 -2 35 10 22 17 26 35 20 44 -13 50 -9 76 42 14 29 33 54 41 57 8 2 16
4 16 5 1 0 4 -8 7 -18z m1567 -103 c0 -6 3 -9 6 -5 9 9 84 -31 91 -48 3 -8 9
-12 14 -9 5 3 9 1 9 -5 0 -5 6 -16 13 -23 17 -17 28 -80 17 -99 -6 -9 -3 -20
7 -32 13 -13 14 -20 5 -29 -7 -7 -12 -21 -12 -32 -1 -27 -18 -49 -55 -68 -26
-14 -33 -14 -59 -1 -15 8 -37 13 -47 10 -11 -3 -17 -1 -14 3 3 5 -1 13 -10 17
-12 7 -13 19 -6 60 5 35 5 50 -2 46 -7 -4 -8 1 -3 13 4 10 9 24 10 29 7 33 19
55 27 49 5 -3 7 -9 4 -14 -3 -4 2 -10 10 -14 21 -8 19 -24 -10 -78 -27 -51
-30 -63 -15 -53 6 3 10 -1 10 -11 0 -14 2 -15 17 -3 15 12 16 12 11 -2 -5 -12
0 -18 15 -22 12 -2 29 -7 38 -11 11 -5 23 4 40 31 24 37 28 73 8 73 -6 0 -6 8
1 19 7 13 7 22 0 26 -6 3 -15 -4 -20 -17 -10 -22 -10 -22 -5 3 3 19 0 29 -11
33 -12 4 -14 13 -10 31 5 19 2 27 -11 32 -10 4 -24 15 -31 25 -15 21 -32 24
-32 5 0 -8 -9 -24 -20 -37 -22 -26 -24 -23 -10 14 11 29 6 33 -15 12 -8 -7
-11 -17 -7 -21 4 -5 1 -5 -6 -1 -8 5 -9 13 -3 24 6 10 6 24 0 37 -9 18 -9 19
4 3 19 -23 26 -23 20 1 -3 11 1 27 9 35 16 18 28 20 28 4z m500 -38 c0 -5 -11
-17 -25 -26 -18 -11 -24 -22 -20 -35 4 -12 -3 -26 -19 -40 -26 -23 -35 -63
-16 -74 16 -10 12 -41 -10 -80 -24 -43 -25 -61 -4 -69 32 -12 43 -5 54 32 11
41 30 75 30 55 0 -7 14 -20 30 -28 33 -17 31 -40 -2 -29 -14 4 -18 2 -14 -5
20 -31 -60 -79 -87 -52 -16 16 -52 14 -67 -4 -10 -13 -17 -12 -51 5 -21 11
-39 18 -39 14 0 -3 -6 1 -13 8 -16 16 -17 26 -20 136 -2 77 -8 99 -20 70 -4
-10 -6 -10 -6 -1 -1 6 4 15 9 18 6 3 10 11 10 16 0 6 -4 8 -9 5 -5 -3 -12 1
-15 10 -8 21 2 33 13 16 6 -10 11 -10 21 3 11 13 10 15 -4 9 -9 -3 -16 -1 -16
5 0 6 7 12 15 12 8 1 21 2 28 3 6 1 21 -2 32 -8 11 -5 30 -10 42 -11 12 0 33
-10 47 -22 13 -12 27 -19 29 -16 3 3 3 -6 1 -19 -5 -22 -4 -21 19 6 14 16 23
35 21 41 -6 13 21 45 37 45 6 0 7 5 4 10 -3 6 -1 10 4 10 6 0 11 -4 11 -10z
m346 -69 c-4 -5 0 -12 6 -14 10 -4 9 -8 -2 -16 -13 -10 -13 -12 0 -21 8 -5 23
-10 33 -10 10 0 15 -4 12 -10 -3 -5 1 -10 10 -10 11 0 15 -5 12 -14 -4 -10 -1
-13 9 -9 19 7 18 20 -3 32 -10 5 -15 12 -13 15 6 5 66 -13 88 -27 18 -12 15
-27 -8 -27 -10 0 -23 -8 -29 -17 -8 -15 -13 -16 -30 -5 -12 6 -27 12 -35 12
-8 0 -16 5 -18 12 -3 8 -11 5 -23 -10 -25 -29 -35 -28 -35 4 0 16 -10 34 -25
46 -14 11 -25 28 -25 39 0 17 -3 18 -20 9 -11 -6 -19 -16 -18 -23 4 -17 -22
-77 -33 -77 -5 0 -10 -10 -10 -22 -1 -18 -2 -19 -6 -5 -3 10 1 24 7 32 8 9 8
15 2 15 -6 0 -7 13 -1 37 5 26 4 40 -4 45 -7 5 -8 8 -1 8 5 0 15 -5 21 -11 8
-8 18 -6 36 6 21 13 30 14 48 5 18 -10 24 -9 31 4 5 9 14 16 19 16 6 0 8 -4 5
-9z m-3506 -26 c-11 -13 -10 -14 4 -9 9 3 16 11 16 17 0 5 9 2 19 -7 19 -17
19 -20 4 -52 -9 -18 -20 -31 -25 -28 -4 3 -5 -1 -2 -9 3 -8 -5 -24 -17 -36
-22 -20 -32 -24 -54 -23 -5 1 -19 -18 -29 -41 -19 -43 -48 -77 -64 -77 -5 0
-17 -16 -28 -35 -10 -20 -24 -33 -31 -31 -7 3 -10 -1 -7 -8 2 -6 -7 -28 -20
-47 -14 -18 -31 -44 -38 -57 -7 -13 -17 -21 -26 -17 -15 5 -45 -19 -35 -29 4
-3 -1 -6 -10 -6 -14 0 -30 -27 -24 -40 4 -11 -28 -37 -40 -33 -8 3 -13 -2 -13
-12 0 -10 -5 -15 -13 -12 -8 3 -21 -7 -31 -24 -9 -16 -21 -29 -25 -29 -5 0
-12 -12 -15 -27 -4 -16 -9 -36 -13 -47 -3 -12 -1 -16 6 -12 6 4 11 15 11 25 0
21 44 82 68 94 13 6 12 4 -2 -7 -11 -9 -17 -16 -13 -16 5 0 -4 -12 -18 -27
-14 -15 -25 -35 -25 -44 0 -9 -11 -28 -25 -43 -25 -28 -46 -37 -25 -11 10 11
10 22 3 38 -8 17 -7 28 3 42 8 11 12 24 10 31 -2 6 16 32 40 59 25 26 43 50
40 52 -7 7 20 33 33 33 6 0 11 4 11 9 0 5 8 12 18 15 9 3 30 28 45 56 18 32
40 55 62 65 25 12 43 34 70 86 20 38 41 69 47 69 6 0 8 8 5 19 -4 15 1 17 24
15 18 -2 29 1 29 9 0 7 14 27 30 45 17 18 30 39 30 46 0 8 7 19 15 26 9 8 13
21 9 36 -5 18 -2 24 11 24 15 0 15 -3 5 -15z m1653 -64 c-2 -10 1 -24 9 -32 7
-8 13 -29 14 -47 1 -19 9 -39 20 -48 17 -14 17 -15 2 -10 -22 7 -23 -3 -3 -30
8 -12 12 -33 9 -48 -3 -19 -1 -25 6 -21 6 4 9 13 7 19 -3 7 -1 19 5 27 9 14 7
-18 -6 -80 -6 -28 -25 -43 -43 -36 -7 2 -13 -2 -13 -9 0 -7 -9 -21 -21 -31
-20 -19 -20 -19 -10 9 14 35 13 46 0 22 -9 -15 -13 -16 -20 -5 -8 11 -12 10
-24 -5 -31 -41 -5 -86 50 -86 15 0 40 -38 32 -47 -10 -9 -86 20 -80 31 4 6 -3
3 -14 -7 -11 -10 -23 -31 -27 -47 -3 -16 -14 -38 -24 -48 -10 -10 -21 -26 -25
-36 -5 -12 -13 -15 -34 -10 -35 9 -37 10 -29 29 4 12 10 13 24 6 13 -7 22 -7
30 1 15 15 16 58 2 58 -5 0 -10 7 -10 15 0 8 4 15 9 15 5 0 7 12 5 27 -3 15
-2 24 2 20 4 -3 13 5 21 19 16 32 17 48 2 38 -8 -5 -8 -1 0 14 6 11 8 28 5 36
-3 9 -2 16 3 16 5 0 9 10 10 23 2 21 1 21 -13 3 -8 -11 -15 -34 -15 -50 -2
-30 -2 -30 -6 -4 -2 14 5 44 16 66 11 22 17 43 13 46 -3 4 2 4 12 0 16 -6 17
-4 8 12 -7 14 -6 26 4 44 7 14 13 33 14 43 0 34 49 117 69 117 14 0 18 -5 14
-19z m-1346 -14 c11 -18 59 -46 83 -50 12 -2 25 -8 29 -15 3 -6 19 -15 34 -21
23 -9 27 -8 28 7 0 14 2 14 9 -3 13 -31 11 -55 -5 -55 -8 0 -20 -9 -27 -19
-10 -17 -13 -17 -26 -4 -12 11 -17 12 -23 2 -12 -20 15 -74 32 -63 5 3 6 -1 3
-9 -3 -8 0 -18 5 -22 12 -7 5 -25 -10 -25 -5 0 -9 11 -9 24 0 14 -11 33 -25
44 -25 20 -25 21 -9 56 14 29 15 40 6 61 -10 21 -17 25 -35 19 -12 -4 -23 -10
-25 -14 -2 -4 -12 -5 -24 -2 -13 3 -25 -1 -32 -11 -7 -8 -21 -17 -31 -19 -11
-1 -35 -21 -53 -43 -17 -22 -37 -46 -42 -52 -6 -7 -19 -13 -29 -13 -10 0 -24
-14 -34 -34 -11 -24 -25 -36 -46 -41 -17 -3 -33 -15 -36 -25 -8 -27 -41 -61
-62 -64 -13 -3 -17 -11 -15 -32 2 -21 0 -25 -7 -15 -11 17 -41 7 -41 -14 0 -8
-3 -15 -8 -15 -4 0 -13 -13 -20 -29 -7 -17 -25 -34 -42 -39 -16 -6 -36 -25
-46 -43 -9 -18 -23 -39 -30 -47 -8 -7 -14 -18 -14 -23 0 -16 38 28 58 67 12
23 22 33 26 25 4 -6 2 -11 -4 -11 -6 0 -8 -4 -5 -10 3 -5 1 -10 -6 -10 -7 0
-10 -3 -6 -6 10 -10 -55 -74 -75 -74 -11 0 -16 5 -13 10 11 18 -11 11 -30 -10
-10 -11 -22 -17 -28 -13 -5 3 -7 2 -4 -4 4 -6 0 -18 -7 -28 -11 -16 -13 -16
-19 -2 -3 9 -2 19 4 22 5 4 7 11 4 16 -4 5 2 9 11 9 10 0 15 3 11 6 -7 7 19
61 39 82 8 7 14 17 14 21 0 4 10 7 22 7 17 -1 29 11 51 52 22 41 34 52 53 52
13 0 24 4 24 8 0 14 76 92 88 92 7 0 12 4 12 8 0 5 11 14 23 19 13 6 32 27 41
47 14 29 22 35 41 32 18 -3 26 2 35 25 7 16 18 33 25 37 7 4 15 18 19 32 6 24
6 24 -9 -2 -17 -31 -25 -35 -25 -14 0 21 30 48 46 42 7 -3 18 3 24 12 9 14 10
13 4 -6 l-6 -24 21 21 c11 11 30 39 42 63 35 70 57 86 76 55z m20 -202 c-4
-24 -1 -35 10 -39 10 -4 13 -14 8 -35 -4 -20 -2 -30 9 -34 11 -5 12 -13 5 -44
-5 -21 -11 -49 -13 -63 -7 -60 -19 -99 -28 -94 -5 3 -6 14 -3 24 4 12 -1 19
-15 23 -11 3 -18 1 -14 -4 8 -13 -7 -11 -36 6 -14 7 -24 17 -23 22 3 14 -44 6
-71 -12 -14 -10 -24 -21 -21 -25 3 -4 -2 -13 -10 -20 -17 -14 -20 -40 -5 -40
6 0 10 5 10 11 0 6 9 22 20 36 27 35 25 17 -4 -29 -18 -30 -25 -35 -35 -25
-10 9 -15 8 -26 -7 -8 -10 -16 -24 -19 -30 -3 -8 -7 -7 -13 1 -6 9 -14 4 -27
-17 -9 -17 -21 -30 -27 -30 -5 0 -9 -8 -9 -17 0 -15 2 -16 10 -3 16 25 10 -3
-6 -30 -9 -15 -13 -17 -9 -6 5 16 0 15 -29 -7 -18 -14 -36 -23 -40 -20 -3 4
-6 1 -6 -4 0 -6 -9 -22 -20 -35 -11 -12 -29 -34 -40 -48 l-20 -25 6 29 c6 26
5 28 -8 15 -9 -8 -14 -17 -11 -22 2 -4 -2 -10 -10 -13 -9 -3 -18 -15 -21 -27
-8 -30 -62 -92 -70 -79 -3 5 0 14 7 20 7 6 14 25 15 43 1 17 7 39 12 48 8 12
8 8 3 -14 -6 -27 -5 -29 11 -16 9 8 15 20 12 27 -3 8 0 11 8 8 15 -6 28 18 33
60 l3 28 -20 -23 c-11 -13 -19 -19 -20 -12 0 16 28 43 46 43 8 0 14 -6 14 -14
0 -34 37 -1 60 54 14 32 27 54 30 49 8 -11 62 37 80 70 9 18 9 25 0 31 -17 11
7 53 25 46 25 -9 44 22 43 72 -1 58 3 71 23 93 20 20 71 15 62 -7 -7 -18 1
-18 40 2 55 28 107 96 107 139 0 9 5 13 11 9 7 -4 9 -20 6 -39z m2078 -79 c14
-9 34 -11 65 -7 25 4 56 2 69 -3 18 -8 25 -8 29 2 2 7 8 10 13 6 5 -3 17 -7
26 -9 10 -2 39 -11 66 -20 26 -9 53 -12 60 -8 28 18 39 12 23 -12 -14 -21 -14
-25 -2 -32 12 -7 11 -12 -5 -32 -13 -16 -19 -19 -19 -8 0 8 6 17 13 20 6 2 10
7 7 10 -3 3 -12 2 -20 -3 -12 -7 -12 -16 -4 -49 15 -55 1 -68 -48 -48 -10 4
-25 9 -34 12 -12 4 -15 13 -11 34 3 16 1 33 -6 40 -9 9 -9 16 1 31 8 13 9 20
1 20 -5 0 -8 4 -5 9 3 4 -6 13 -19 19 -21 10 -29 8 -45 -5 -11 -10 -20 -26
-20 -35 0 -14 -6 -17 -26 -14 -15 3 -29 8 -32 11 -3 3 -15 -11 -27 -31 l-22
-37 -12 33 c-6 18 -11 41 -11 50 0 10 -12 29 -26 44 -29 28 -14 37 21 12z
m-1869 -335 c-20 -38 -20 -40 7 -70 17 -19 18 -23 5 -18 -12 4 -15 2 -11 -9 3
-10 0 -12 -10 -8 -22 8 -31 -14 -17 -42 11 -20 11 -27 -5 -44 -10 -11 -20 -18
-23 -16 -2 3 3 12 12 21 9 9 16 21 16 28 0 6 -10 -3 -22 -19 -25 -33 -48 -34
-48 -3 0 37 -43 16 -69 -34 -14 -25 -33 -48 -43 -50 -15 -4 -12 7 18 64 21 40
41 66 47 62 7 -4 8 0 3 13 -4 10 -4 15 0 11 4 -4 12 1 19 10 13 18 39 9 29
-10 -3 -7 2 -3 10 7 9 11 16 25 15 30 0 6 -3 5 -6 -1 -8 -22 -24 -14 -19 11 5
26 42 103 59 121 9 9 16 8 30 -6 17 -16 18 -19 3 -48z m480 -68 c-6 -27 -17
-58 -24 -70 -6 -12 -9 -34 -6 -51 4 -19 1 -34 -10 -45 -9 -8 -16 -23 -16 -31
0 -9 -4 -16 -8 -16 -8 0 -25 -34 -53 -107 -8 -22 3 -39 19 -29 4 2 8 -4 9 -14
1 -14 -3 -17 -15 -13 -15 6 -15 5 -3 -10 12 -15 12 -17 -2 -12 -8 4 -18 2 -22
-4 -9 -15 -55 -14 -55 2 1 6 7 23 15 37 17 29 20 80 4 80 -5 0 -7 -4 -4 -10 3
-5 1 -18 -5 -27 -8 -14 -10 -6 -7 37 3 45 10 61 35 88 29 31 82 128 82 151 0
6 -4 11 -10 11 -5 0 -2 16 7 34 12 27 24 36 47 39 17 2 31 5 32 5 1 1 -4 -19
-10 -45z m3677 -53 c-4 -14 0 -20 11 -20 9 0 16 -7 16 -15 0 -9 7 -18 15 -21
11 -5 8 -11 -12 -30 -14 -13 -31 -24 -38 -24 -11 0 -69 -109 -67 -127 0 -4 -4
-16 -10 -27 -7 -13 -7 -21 1 -26 7 -3 9 -13 6 -22 -5 -12 -14 -11 -56 10 -27
14 -63 25 -79 24 -27 -1 -28 1 -18 24 6 13 15 24 19 24 4 0 11 9 14 20 9 28
45 60 67 60 11 0 26 16 38 40 11 22 25 40 30 40 5 0 14 18 20 39 9 35 20 48
42 50 3 1 4 -8 1 -19z m-973 -46 c-12 -22 -32 -49 -46 -61 -21 -20 -22 -23 -7
-23 27 0 38 11 61 55 12 22 21 36 22 32 0 -14 -40 -87 -49 -87 -7 0 -25 -36
-35 -70 -11 -35 -19 -50 -27 -50 -12 0 -11 7 1 31 7 12 7 19 1 19 -13 0 -23
-33 -16 -53 4 -8 2 -18 -4 -22 -7 -3 -11 3 -12 17 -1 18 -2 19 -6 5 -3 -10
-11 -16 -18 -13 -7 2 -16 -3 -20 -12 -5 -14 -7 -14 -15 -2 -9 13 -10 13 -11 0
0 -10 -3 -8 -8 5 -5 11 -5 25 -1 30 5 6 23 37 41 70 18 33 35 62 38 65 4 3 12
18 19 34 11 25 17 28 42 22 17 -3 30 -1 30 4 0 10 33 48 38 45 2 -2 -6 -20
-18 -41z m-3519 8 c-6 -12 -11 -29 -11 -40 0 -10 -14 -44 -31 -75 -17 -31 -28
-57 -24 -57 3 0 1 -8 -4 -18 -5 -10 -6 -24 -1 -31 4 -8 1 -38 -9 -70 -22 -77
-129 -281 -144 -275 -12 4 -50 -67 -51 -95 -1 -8 -7 -16 -15 -19 -11 -4 -12 3
-7 29 18 93 15 129 -10 129 -8 0 -14 2 -14 5 0 13 35 75 42 75 5 0 6 5 3 10
-10 17 -33 11 -40 -10 -5 -15 -12 -19 -28 -15 -19 5 -27 -4 -57 -62 -29 -56
-40 -69 -62 -71 -16 -2 -28 -7 -28 -12 0 -5 -13 -16 -28 -24 -15 -8 -46 -31
-68 -50 -23 -22 -46 -34 -57 -32 -13 3 -25 -11 -49 -57 -17 -34 -34 -63 -39
-65 -5 -2 -9 -8 -9 -14 0 -6 -11 -21 -24 -33 -20 -19 -24 -20 -24 -6 1 9 0 21
-2 26 -5 20 0 36 10 30 11 -7 40 18 40 34 0 5 19 37 41 72 30 44 44 58 50 48
4 -7 9 -11 11 -9 2 3 15 22 28 43 14 20 31 35 38 32 20 -7 40 5 51 33 13 31
64 68 86 64 8 -2 15 1 15 7 0 5 3 17 7 27 5 14 3 16 -10 11 -15 -6 -16 -3 -7
13 11 20 21 27 19 13 -4 -22 3 -24 21 -8 25 22 26 37 3 28 -15 -6 -16 -5 -3 9
8 9 17 13 20 9 3 -3 14 -7 26 -8 16 -2 27 11 49 57 16 33 32 60 36 60 4 0 19
20 33 44 14 24 33 46 42 50 10 4 14 12 10 22 -8 20 2 36 16 28 6 -4 5 -10 -3
-16 -11 -8 -11 -9 1 -5 17 4 21 28 5 40 -5 4 2 5 18 3 15 -3 25 -1 22 4 -3 5
1 14 8 22 7 7 26 36 42 65 15 29 31 51 34 48 4 -2 13 0 21 5 20 12 24 5 11
-18z m557 -29 c2 -7 -3 -13 -12 -13 -9 0 -16 -5 -16 -11 0 -6 -6 -17 -14 -25
-8 -8 -13 -23 -11 -34 2 -11 1 -19 -3 -19 -18 3 -22 -3 -13 -20 9 -16 6 -20
-15 -25 -30 -8 -27 -32 4 -30 12 1 22 -3 22 -8 0 -5 -8 -8 -17 -6 -11 2 -17
-2 -15 -11 1 -7 -2 -19 -8 -27 -7 -7 -9 -22 -5 -34 4 -11 2 -20 -4 -20 -6 0
-11 -5 -11 -11 0 -8 5 -8 15 1 8 7 15 23 15 36 0 13 5 24 10 24 12 0 3 -49
-11 -64 -13 -14 -11 -28 3 -20 12 8 4 -10 -17 -36 -7 -8 -13 -22 -13 -30 -2
-63 -15 -128 -35 -168 -14 -26 -23 -60 -22 -77 2 -35 -14 -87 -24 -80 -4 2 -6
-10 -4 -28 6 -57 4 -71 -18 -122 -12 -27 -31 -71 -42 -97 -11 -26 -24 -45 -29
-42 -4 3 -8 1 -8 -5 0 -5 -9 -9 -20 -8 -11 1 -20 7 -20 15 0 7 4 11 9 8 13 -8
59 85 54 109 -9 43 -9 145 -1 145 5 0 7 4 4 9 -3 5 1 14 8 21 8 6 18 26 22 43
3 17 14 42 22 55 12 18 13 25 3 31 -15 9 -7 49 21 105 12 22 21 65 23 101 3
71 10 89 32 81 8 -3 11 -2 8 3 -3 5 1 29 9 53 8 24 13 60 11 81 -2 20 1 37 6
37 6 0 8 4 5 9 -3 5 4 20 15 35 11 14 18 30 15 34 -3 5 4 14 14 22 10 8 16 18
13 23 -3 5 5 7 18 5 12 -1 24 -9 27 -15z m-1555 -136 c-29 -53 -42 -69 -54
-62 -10 7 -34 -25 -72 -97 -50 -94 -75 -125 -107 -132 -17 -3 -31 -14 -35 -26
-3 -11 -12 -26 -18 -32 -7 -7 -20 -26 -30 -41 -10 -15 -22 -25 -27 -22 -6 4
-10 1 -10 -4 0 -6 -7 -11 -15 -11 -8 0 -15 -4 -15 -9 0 -5 -6 -16 -14 -23 -7
-8 -21 -28 -30 -46 -15 -29 -26 -37 -48 -33 -5 0 -8 -5 -8 -13 0 -8 -5 -18
-11 -22 -8 -4 -9 1 -4 16 4 14 3 20 -3 16 -5 -3 -13 -18 -17 -33 -3 -15 -10
-30 -14 -33 -14 -10 -41 -60 -33 -60 5 0 14 12 21 26 6 15 14 24 17 21 5 -4
-35 -88 -63 -136 -2 -2 -5 -2 -8 0 -2 3 2 17 10 32 17 34 3 36 -19 2 -9 -14
-14 -25 -10 -25 4 0 1 -7 -6 -15 -7 -8 -19 -15 -27 -15 -20 0 -96 -84 -86 -94
4 -3 1 -6 -6 -6 -7 0 -10 -4 -7 -9 3 -5 -2 -15 -11 -22 -9 -8 -17 -12 -17 -10
-3 14 -35 -20 -50 -54 -10 -22 -26 -49 -36 -60 -10 -11 -29 -41 -42 -66 -29
-55 -54 -83 -68 -74 -5 3 -10 -1 -10 -10 0 -9 -4 -14 -8 -11 -4 2 -19 -16 -32
-42 -13 -26 -38 -69 -55 -97 -17 -27 -57 -102 -89 -165 -32 -63 -62 -119 -66
-125 -5 -5 -10 -35 -13 -65 -6 -85 -67 -187 -102 -174 -18 7 -20 -7 -4 -23 16
-16 4 -43 -19 -43 -17 0 -47 -51 -66 -112 -3 -10 -12 -18 -19 -18 -14 0 -37
-40 -37 -65 0 -8 7 -15 16 -15 15 0 15 -2 -1 -26 -9 -14 -14 -28 -11 -31 3 -3
-2 -19 -10 -35 -8 -16 -12 -38 -9 -48 4 -12 -5 -33 -24 -60 -19 -27 -28 -49
-25 -65 2 -13 0 -27 -6 -30 -6 -4 -7 -11 -4 -17 4 -7 2 -8 -4 -4 -6 3 -16 -3
-23 -15 -10 -19 -9 -21 6 -16 11 5 15 3 12 -5 -2 -7 -11 -12 -21 -10 -10 2
-16 -4 -16 -18 0 -23 10 -26 30 -7 12 10 12 9 2 -4 -6 -9 -8 -19 -4 -23 4 -4
-1 -14 -12 -21 -16 -12 -22 -11 -44 3 -19 12 -24 13 -18 3 7 -11 3 -13 -18 -9
-14 3 -29 1 -33 -5 -4 -6 -1 -7 7 -2 14 8 13 8 -14 -47 -20 -39 -40 -49 -71
-37 -12 4 -14 8 -6 8 11 1 10 4 -3 14 -15 11 -16 17 -7 35 6 11 20 24 31 27
11 3 20 12 20 19 0 16 23 69 51 116 12 19 23 43 25 53 2 11 6 22 9 26 9 9 39
7 46 -2 7 -9 49 66 49 86 -1 7 -11 -6 -23 -28 -12 -22 -29 -41 -37 -43 -13 -2
-13 -1 0 10 8 8 23 27 32 43 9 17 21 30 27 30 15 0 24 13 42 60 9 23 13 48 9
55 -4 7 -12 -7 -19 -34 -6 -24 -15 -47 -20 -50 -18 -11 49 159 68 174 9 7 41
75 41 87 0 6 7 24 16 41 8 18 12 37 8 43 -4 7 -1 10 7 7 8 -3 19 7 27 25 16
39 15 47 -5 41 -15 -5 -15 -4 -3 4 8 6 17 9 21 6 4 -2 27 32 49 76 23 44 46
80 52 80 5 0 6 5 3 10 -3 6 -1 10 5 10 6 0 9 4 5 9 -3 5 2 17 11 25 8 9 12 16
7 16 -4 0 -3 4 3 8 21 13 63 108 54 122 -12 19 -1 40 20 40 22 0 40 47 35 90
-3 21 1 33 10 37 8 3 15 12 15 20 0 8 14 19 30 24 17 6 30 15 30 19 0 5 3 16
7 26 4 12 3 15 -5 10 -8 -5 -10 -2 -5 9 3 10 8 13 12 6 9 -15 24 -2 55 47 24
38 30 58 35 109 0 7 6 12 12 10 6 -1 14 4 16 11 3 6 0 12 -6 12 -6 0 -11 4
-11 9 0 5 21 13 47 17 45 9 49 12 84 74 29 51 42 65 60 65 19 1 24 6 23 25 -1
14 4 29 10 33 6 5 1 6 -14 3 -24 -5 -24 -4 -6 9 17 13 18 15 3 15 -21 0 -22
11 -1 36 14 18 15 18 4 -3 -14 -30 5 -31 21 -2 7 15 14 18 18 10 5 -8 14 -6
30 8 12 11 22 23 21 28 -1 4 6 21 17 36 13 20 24 27 41 24 19 -4 27 3 44 37
11 22 24 43 28 46 4 3 10 15 14 28 10 30 55 82 71 82 8 0 21 9 29 21 8 12 18
19 23 16 5 -3 10 4 10 15 2 25 39 62 53 53 6 -3 10 -2 10 4 0 6 11 21 25 35
14 14 26 29 26 33 0 5 11 21 25 37 13 17 24 39 25 50 0 19 1 20 8 3 6 -16 9
-16 18 -5 5 7 13 25 17 40 3 15 13 33 21 41 8 8 11 18 7 22 -4 5 -1 5 5 1 10
-6 10 -13 -2 -36 -8 -16 -15 -35 -15 -42 1 -7 12 7 25 32 13 25 24 39 25 33 0
-21 14 -15 33 15 17 25 18 25 11 3 -4 -16 -3 -21 5 -17 15 10 14 26 -5 47 -23
26 -7 45 19 22 20 -17 20 -17 14 0 -9 24 -3 32 23 34 20 2 20 0 -7 -50z m2552
34 c18 -2 11 -35 -18 -88 -30 -56 -41 -93 -27 -93 12 0 -8 -56 -35 -100 -13
-22 -20 -47 -18 -68 2 -19 -6 -50 -18 -75 -22 -41 -22 -41 -31 -17 -12 32 0
120 17 126 7 3 19 19 25 35 7 16 15 29 19 29 4 0 7 9 8 21 2 16 -1 18 -12 9
-15 -13 -13 0 20 89 9 24 13 46 11 49 -3 3 -8 -4 -11 -14 -4 -10 -13 -34 -21
-52 -8 -18 -14 -39 -14 -47 0 -8 -4 -15 -8 -15 -4 0 -8 9 -8 20 0 11 4 20 9
20 4 0 6 4 3 9 -4 5 -1 11 4 13 6 2 17 27 25 56 13 49 12 53 -3 48 -15 -5 -15
-5 -1 6 9 7 21 23 28 36 9 17 16 20 29 13 9 -5 21 -10 27 -10z m2760 -288 c11
-7 26 -13 35 -13 8 0 26 -9 39 -19 14 -10 30 -17 37 -14 8 3 11 -2 7 -16 -4
-15 -1 -21 11 -21 13 0 15 -4 7 -19 -6 -10 -8 -21 -5 -24 9 -9 -36 -28 -48
-21 -8 5 -9 2 -5 -10 4 -9 3 -15 -2 -11 -5 3 -12 -1 -15 -7 -3 -7 -3 -2 0 11
4 16 3 21 -5 17 -6 -4 -11 -20 -11 -35 0 -16 -11 -40 -25 -55 -14 -15 -25 -36
-25 -47 0 -10 -4 -19 -9 -19 -4 0 -20 -22 -34 -50 -14 -27 -22 -50 -17 -50 5
0 7 -7 4 -15 -7 -18 -39 -12 -65 11 -16 14 -17 36 -3 82 4 13 2 22 -4 22 -7 0
-10 19 -8 48 2 40 6 47 22 44 18 -3 18 -2 2 13 -15 16 -14 20 19 63 19 25 37
58 40 73 3 16 10 26 16 22 6 -4 7 -1 1 8 -5 8 -7 22 -5 33 1 11 -2 16 -8 12
-6 -4 -11 -14 -11 -22 0 -8 -4 -14 -10 -14 -15 0 -12 16 5 34 16 16 35 13 70
-11z m-278 -144 c1 -13 -2 -17 -10 -12 -20 13 -34 11 -34 -3 0 -17 17 -19 18
-1 0 9 2 9 5 0 9 -20 -16 -55 -33 -49 -14 6 -14 4 -2 -10 12 -15 11 -16 -10
-9 -15 4 -21 4 -17 -3 3 -6 0 -13 -6 -16 -7 -3 -2 -4 12 -1 14 3 19 2 12 -1
-6 -3 -10 -10 -7 -15 3 -5 -11 -6 -33 -3 l-39 5 -47 -82 c-25 -45 -46 -86 -46
-91 0 -6 -11 -24 -25 -40 -14 -16 -23 -34 -20 -39 3 -4 -1 -19 -10 -32 -8 -13
-12 -27 -8 -32 5 -4 0 -5 -10 -2 -10 4 -16 3 -13 -2 8 -13 -45 -91 -61 -91
-12 0 -11 3 2 16 14 15 14 19 0 40 -14 21 -13 25 9 49 13 14 29 39 35 55 6 17
16 44 23 61 14 39 54 80 71 74 7 -3 22 16 36 45 14 28 28 50 32 50 4 0 21 25
38 55 17 30 38 55 45 55 8 0 18 9 21 20 11 35 34 51 53 39 10 -6 19 -20 19
-30z m-3135 -49 c3 -19 11 -53 17 -75 16 -62 13 -90 -14 -119 l-25 -28 -33 19
c-30 18 -32 22 -32 76 0 40 -5 61 -15 67 -12 8 -12 11 3 28 9 10 17 25 17 33
0 16 37 38 60 35 8 -1 18 -16 22 -36z m-1154 -152 c-10 -6 -10 -10 1 -17 12
-8 12 -13 -3 -36 -10 -14 -26 -35 -37 -46 -10 -10 -19 -26 -19 -34 0 -8 -10
-35 -22 -59 -15 -32 -29 -47 -48 -51 -19 -4 -33 -19 -48 -51 -12 -25 -20 -50
-17 -55 12 -18 52 -9 71 16 15 20 28 25 60 25 25 0 47 6 54 15 11 13 15 13 21
3 6 -9 9 -7 9 7 0 11 5 27 10 35 8 12 10 11 10 -8 0 -13 -11 -34 -25 -46 -21
-19 -33 -23 -64 -19 -37 5 -40 3 -57 -33 -28 -58 -25 -81 9 -75 14 2 1 -24
-28 -56 -17 -19 -41 -34 -57 -35 -15 -1 -25 -5 -22 -9 2 -4 -9 -10 -25 -14
-16 -3 -37 -15 -47 -26 -9 -10 -26 -19 -36 -19 -10 0 -21 -7 -24 -15 -4 -8
-10 -12 -15 -9 -5 3 -9 0 -9 -5 0 -6 -11 -11 -25 -11 -14 0 -25 -4 -25 -8 0
-4 -22 -16 -50 -26 -27 -10 -50 -24 -50 -32 0 -8 -6 -11 -16 -7 -16 6 -16 7 0
18 18 13 22 45 6 45 -5 0 -10 4 -10 10 0 5 6 7 14 4 9 -4 20 6 30 25 l16 30
-45 -3 c-25 -2 -45 -2 -45 -1 0 2 8 20 18 42 11 25 23 37 33 35 20 -4 52 26
45 43 -3 8 6 11 30 9 22 -1 37 3 40 10 3 8 15 11 29 9 17 -4 25 1 30 16 4 14
18 24 36 28 16 3 29 9 29 14 0 4 9 11 20 14 11 4 18 11 15 16 -4 5 1 9 9 9 9
0 16 7 16 15 0 8 5 15 10 15 6 0 10 5 10 11 0 6 7 17 15 25 10 10 12 25 8 46
-4 21 -3 29 5 24 6 -3 13 3 17 14 3 11 10 20 14 20 5 0 14 14 21 30 7 17 16
30 21 30 5 0 9 7 9 16 0 15 44 98 65 120 7 9 12 6 18 -9 5 -13 3 -23 -5 -29z
m1988 30 c4 -13 11 -26 16 -29 6 -4 -1 -23 -16 -45 -20 -31 -24 -48 -20 -80 2
-23 -1 -54 -7 -70 -14 -34 -19 -125 -8 -139 4 -6 1 -21 -6 -35 -8 -14 -14 -21
-15 -17 0 5 5 17 10 28 6 10 7 19 2 19 -11 0 -29 -43 -36 -82 -4 -22 -1 -26
12 -21 15 4 15 3 2 -6 -12 -8 -21 -3 -42 21 -22 26 -28 58 -11 58 3 0 3 -7 -1
-15 -3 -8 -2 -15 3 -15 13 0 34 58 27 75 -9 25 -23 17 -20 -12 4 -28 4 -28 -5
-3 -9 29 -5 40 15 40 19 0 18 20 -3 35 -15 11 -14 15 7 53 13 23 27 42 32 42
12 0 10 -10 -13 -47 -12 -19 -19 -37 -16 -39 8 -8 49 75 42 85 -3 5 1 11 7 14
9 3 3 13 -15 31 -15 14 -23 26 -17 26 6 0 8 5 5 10 -3 6 -1 10 5 10 7 0 10 -7
6 -15 -3 -8 -2 -15 3 -15 15 0 33 58 34 110 1 53 11 65 23 28z m-2676 -8 c-11
-11 -22 -31 -26 -45 -3 -14 -10 -23 -14 -20 -4 3 -13 -8 -19 -23 -7 -15 -23
-40 -37 -57 -19 -22 -23 -24 -15 -7 10 18 9 22 -3 22 -8 0 -17 -9 -21 -20 -8
-26 -16 -79 -9 -62 8 16 25 5 18 -12 -3 -8 -14 -12 -27 -9 -16 3 -18 2 -9 -5
11 -7 8 -11 -12 -16 -14 -3 -26 -11 -26 -17 0 -6 -4 -7 -10 -4 -5 3 -10 2 -10
-4 0 -11 -57 -70 -63 -64 -2 2 -10 -10 -17 -26 -6 -16 -18 -32 -26 -35 -8 -3
-14 -11 -14 -18 0 -7 -14 -19 -31 -27 -37 -16 -60 -58 -39 -71 7 -4 10 -15 7
-24 -7 -18 -27 -22 -27 -6 0 21 -27 9 -39 -17 -9 -19 -15 -23 -23 -15 -8 8
-16 6 -30 -10 -24 -27 -23 -32 7 -48 14 -7 25 -17 25 -22 0 -5 4 -6 10 -3 6 3
7 -1 4 -9 -8 -20 -10 -20 -36 4 -30 27 -43 25 -58 -10 -7 -16 -17 -30 -23 -30
-6 0 -7 -3 -4 -7 6 -5 -28 -70 -43 -83 -15 -12 -31 -71 -25 -91 6 -18 4 -21
-13 -17 -17 5 -27 -10 -71 -101 -28 -58 -51 -109 -51 -113 0 -16 22 -7 44 17
24 26 36 31 36 16 0 -5 -9 -12 -19 -16 -15 -4 -38 -45 -26 -45 12 0 74 74 68
83 -4 6 -1 7 8 1 16 -10 44 -15 35 -7 -12 12 43 95 61 92 24 -4 34 5 54 49 26
55 29 68 12 65 -19 -4 -16 12 15 67 31 58 59 70 37 17 -13 -32 -13 -33 7 -32
13 1 23 9 24 21 6 39 29 94 41 94 7 0 16 7 21 16 7 13 11 14 17 4 5 -9 14 -5
29 14 19 25 37 33 74 35 6 1 12 4 12 9 0 4 18 41 41 82 22 41 38 67 35 58 -7
-23 6 -23 35 0 29 24 20 50 -21 58 -16 4 -30 8 -30 10 0 2 16 32 36 66 33 59
36 57 18 -14 -8 -37 8 -36 48 2 17 17 35 30 39 30 5 0 -8 -16 -29 -35 -45 -42
-29 -47 18 -5 18 17 38 30 43 30 12 0 32 21 40 43 9 25 0 21 -28 -10 -13 -16
-25 -22 -25 -15 0 6 3 12 8 12 4 0 18 20 31 45 13 25 28 45 32 45 14 0 11 -12
-8 -32 -13 -14 -13 -18 -2 -18 13 0 39 42 39 62 0 4 -6 6 -12 4 -7 -1 -10 -1
-5 1 4 3 5 9 1 14 -3 5 0 9 5 9 6 0 11 -4 11 -8 0 -5 11 -14 25 -20 26 -12 33
-37 13 -45 -10 -3 -10 -9 0 -26 10 -18 10 -22 -2 -27 -9 -3 -21 -4 -28 -1 -7
3 -2 6 12 7 23 1 23 2 5 10 -30 13 -31 13 -50 -30 -10 -22 -22 -40 -26 -40 -4
0 -11 -9 -14 -20 -7 -22 -31 -27 -37 -8 -3 7 -13 0 -24 -17 -10 -17 -22 -33
-27 -36 -5 -3 -8 -10 -6 -14 3 -10 -52 -95 -62 -95 -4 0 -11 -16 -15 -35 -8
-42 -17 -50 -44 -35 -18 9 -22 6 -42 -35 -16 -32 -27 -44 -38 -40 -20 6 -55
-29 -45 -45 3 -5 11 -8 16 -5 5 4 9 -1 9 -10 0 -13 -6 -16 -23 -11 -17 4 -30
-2 -50 -24 -15 -16 -36 -32 -46 -35 -20 -6 -37 -35 -21 -35 6 0 10 5 10 11 0
5 4 8 10 4 6 -3 5 -15 -2 -30 -12 -27 -34 -35 -24 -10 3 8 2 15 -2 15 -4 0
-18 -23 -32 -51 -14 -29 -40 -74 -57 -101 -18 -27 -33 -55 -33 -61 1 -7 6 -2
13 11 7 12 15 21 18 18 2 -3 22 31 43 74 22 44 44 76 50 73 6 -4 6 -8 -2 -11
-7 -2 -10 -8 -6 -13 3 -5 0 -9 -6 -9 -6 0 -8 -4 -5 -10 3 -5 1 -10 -5 -10 -6
0 -8 -4 -5 -10 3 -5 2 -10 -3 -10 -5 0 -17 -20 -26 -45 -10 -25 -24 -45 -31
-45 -7 0 -16 -7 -19 -16 -3 -8 -10 -13 -15 -10 -5 3 -14 -1 -21 -9 -8 -10 -21
-13 -39 -9 -25 6 -26 6 -6 -10 20 -17 20 -17 -1 -11 -15 4 -24 -1 -32 -20 -7
-14 -20 -25 -31 -25 -11 0 -23 -9 -26 -20 -6 -18 -17 -24 -37 -21 -4 0 -4 -7
-1 -16 5 -12 3 -14 -7 -8 -9 5 -11 4 -6 -4 4 -6 -10 -44 -32 -84 -67 -122 -94
-171 -108 -192 -21 -30 -17 -42 15 -43 24 0 31 6 45 36 8 20 14 48 13 62 -2
16 6 33 20 47 13 12 23 19 24 15 3 -28 10 -46 23 -61 13 -15 14 -20 1 -44 -7
-15 -10 -27 -6 -27 5 0 14 14 21 30 7 17 16 30 21 30 19 0 7 -24 -33 -63 -39
-38 -41 -39 -34 -14 l6 26 -28 -27 c-16 -15 -28 -29 -26 -31 2 -2 -6 -19 -17
-37 -11 -19 -18 -38 -14 -44 6 -10 -55 -7 -73 4 -15 9 -57 -39 -86 -103 -17
-35 -35 -60 -42 -57 -12 5 -74 -47 -74 -62 0 -5 -10 -20 -22 -34 -13 -14 -27
-33 -33 -42 -5 -9 -20 -18 -32 -19 -12 0 -19 -5 -17 -9 3 -4 1 -8 -5 -8 -5 0
-12 -8 -16 -19 -4 -12 -12 -17 -28 -14 -16 3 -27 -3 -40 -26 -18 -30 -18 -31
2 -31 12 0 21 -4 21 -10 0 -5 -13 -7 -30 -3 -25 5 -30 2 -30 -14 0 -11 -8 -31
-17 -44 -37 -51 -41 -63 -25 -79 9 -8 49 -33 89 -56 41 -22 70 -43 67 -47 -4
-4 6 -7 23 -7 28 0 32 4 51 60 20 59 20 60 0 49 -23 -13 -33 -6 -24 16 4 11
13 14 25 10 24 -7 48 33 66 115 19 80 38 127 66 158 14 15 30 39 37 54 6 15
22 30 35 33 19 5 26 16 33 52 7 38 15 49 44 64 23 13 43 36 62 73 21 42 33 55
57 59 25 5 36 20 82 106 28 55 55 98 59 96 5 -3 11 6 14 19 3 14 17 37 30 53
13 15 31 45 40 66 19 46 61 99 87 109 21 8 72 102 61 113 -4 4 3 4 16 1 17 -6
22 -4 21 11 0 10 -3 13 -6 5 -2 -6 -9 -10 -14 -6 -14 8 0 24 22 24 10 0 19 3
19 8 0 4 9 22 20 40 18 29 23 31 42 21 18 -10 20 -9 15 4 -4 11 -2 14 8 10 10
-3 21 7 32 27 10 18 28 44 41 58 12 14 22 29 22 34 0 5 4 6 10 3 6 -3 7 1 4 9
-6 15 18 22 49 17 5 -1 6 3 2 9 -3 6 0 17 8 25 9 8 17 20 19 27 3 7 18 11 36
10 18 -1 31 1 30 6 -4 12 39 62 46 54 4 -4 15 -7 24 -7 21 0 23 -39 2 -41 -8
-1 -20 -2 -26 -3 -6 0 -18 -17 -27 -37 -19 -39 -13 -58 24 -69 20 -7 53 17 41
29 -3 4 2 4 12 0 12 -5 22 -2 28 10 5 9 14 14 19 11 14 -9 1 -24 -36 -39 -18
-8 -38 -23 -44 -34 -7 -14 -17 -18 -36 -15 -18 4 -25 1 -25 -11 0 -9 -7 -16
-15 -16 -8 0 -15 -7 -15 -15 0 -9 -9 -15 -25 -15 -14 0 -25 -3 -25 -7 0 -7
-17 -29 -60 -80 -6 -7 -19 -13 -29 -13 -12 0 -34 -30 -71 -102 -29 -57 -57
-105 -62 -106 -4 -2 -5 -9 -1 -15 4 -7 -1 -6 -11 2 -12 10 -16 24 -13 48 4 28
1 36 -17 42 -18 7 -23 3 -34 -28 -8 -20 -19 -48 -24 -64 -7 -17 -17 -26 -27
-25 -9 2 -15 -3 -13 -10 3 -18 -30 -60 -45 -55 -6 2 -14 -5 -18 -17 -4 -11
-18 -32 -31 -45 -14 -14 -21 -25 -17 -25 4 0 3 -4 -2 -8 -6 -4 -16 -18 -23
-32 -38 -77 -81 -140 -98 -140 -6 0 -24 -19 -40 -42 -39 -57 -63 -80 -74 -73
-6 4 -10 -2 -11 -12 0 -16 -1 -16 -8 2 -7 16 -10 13 -26 -23 -10 -23 -22 -42
-26 -42 -4 0 -11 -9 -14 -20 -3 -11 -27 -57 -52 -102 -24 -45 -46 -89 -48 -97
-2 -9 -8 -29 -14 -45 -10 -26 -10 -27 4 -16 13 10 15 9 15 -8 0 -42 -19 -75
-40 -69 -11 3 -20 1 -20 -4 0 -5 5 -9 10 -9 6 0 -3 -24 -20 -53 -34 -60 -40
-88 -15 -67 13 11 14 10 10 -3 -4 -9 2 -21 15 -30 20 -14 21 -16 6 -45 -19
-37 -20 -46 -4 -36 13 8 3 -12 -20 -38 -8 -10 -12 -18 -8 -18 4 0 2 -6 -4 -12
-6 -7 -17 -22 -24 -33 -12 -17 -17 -18 -40 -7 -17 8 -24 17 -20 25 4 6 4 9 -1
5 -12 -11 -62 22 -74 48 -5 13 -29 33 -52 45 -23 11 -54 32 -68 45 -14 13 -36
24 -48 24 -13 0 -24 6 -24 15 -3 28 -4 31 -21 48 -10 10 -15 27 -12 42 3 18 0
25 -11 25 -8 0 -15 -4 -15 -9 0 -16 -38 -23 -60 -11 -11 6 -20 16 -20 23 0 8
3 9 8 1 13 -19 37 -22 58 -5 17 13 194 330 194 347 0 11 -28 33 -34 27 -3 -4
-6 -1 -6 6 0 9 9 11 29 6 27 -6 33 -2 54 32 14 22 44 76 66 122 26 51 46 79
53 75 7 -5 8 -3 3 5 -8 14 13 61 28 61 28 0 70 51 122 149 33 60 61 108 64
106 6 -7 50 87 51 107 0 9 11 29 25 44 14 15 25 31 25 36 0 4 15 16 34 25 30
14 34 20 29 43 -5 28 20 90 37 90 5 0 12 9 15 21 5 13 13 19 24 16 14 -3 16 1
13 24 -7 48 6 77 58 130 28 28 50 55 50 61 0 5 7 16 15 25 8 8 13 18 10 23 -3
5 4 11 14 15 11 3 34 31 51 61 24 41 37 54 55 54 19 0 30 12 56 65 17 36 34
65 36 65 2 0 1 -4 -2 -10 -3 -5 -3 -10 2 -10 4 0 19 23 32 50 14 28 28 50 31
50 4 0 12 11 18 25 13 27 35 35 25 9 -5 -14 -3 -14 15 -3 11 7 18 17 15 23 -4
5 1 7 12 2 14 -5 16 -4 6 7 -9 12 -7 14 13 12 33 -4 24 21 -15 41 -16 8 -29
17 -29 20 0 3 3 4 8 2 4 -2 19 -10 34 -17 23 -12 29 -11 42 2 9 9 16 21 16 27
0 16 26 41 34 32 4 -3 4 1 1 10 -4 11 1 20 14 28 12 6 21 7 21 3 0 -4 6 -1 13
8 11 14 30 23 60 28 4 0 -2 -8 -13 -19z m5435 -60 c-9 -14 9 -12 23 2 9 9 12
9 12 0 0 -7 -4 -12 -10 -12 -5 0 -8 -10 -6 -22 3 -13 5 -37 5 -55 1 -25 5 -31
16 -27 11 5 15 -1 15 -21 0 -23 -2 -26 -15 -15 -13 11 -15 8 -15 -13 0 -14 -4
-28 -9 -31 -5 -3 -7 -26 -4 -50 4 -47 -13 -77 -45 -75 -16 1 -16 2 0 6 10 2
15 10 11 19 -7 20 -18 18 -29 -6 -7 -15 -13 -17 -24 -10 -13 9 -13 12 3 24 10
8 19 23 22 34 2 11 9 30 15 41 10 19 6 33 -18 71 -2 2 -7 -2 -12 -10 -7 -10
-10 -11 -10 -2 0 6 -10 12 -22 12 -13 0 -40 11 -60 23 -41 26 -38 50 7 53 35
1 41 11 21 33 -11 13 -15 27 -11 40 8 25 45 29 45 5 0 -14 -3 -14 -15 -4 -8 7
-15 10 -15 7 0 -3 -3 -13 -7 -23 -5 -13 -3 -15 8 -8 8 4 21 9 29 11 8 1 21 11
29 22 12 19 15 19 42 5 16 -8 27 -19 24 -24z m-3955 -15 c33 -17 38 -36 15
-59 -8 -8 -15 -20 -15 -26 0 -6 -7 -21 -16 -34 -14 -22 -14 -26 6 -44 39 -36
47 -112 10 -92 -11 6 -23 9 -27 8 -4 -2 -26 8 -48 21 -34 20 -37 25 -24 34 24
18 40 54 39 89 -1 47 14 118 25 118 3 0 19 -7 35 -15z m3480 -33 c0 -4 -6 -14
-12 -21 -11 -11 -9 -11 8 -1 17 11 24 9 48 -13 26 -24 27 -27 12 -50 -9 -13
-13 -27 -9 -30 3 -4 -1 -7 -10 -7 -9 0 -17 -4 -17 -10 0 -5 7 -10 15 -10 8 0
15 -7 15 -16 0 -11 -6 -13 -19 -9 -33 10 -69 -5 -81 -36 -7 -16 -16 -29 -20
-29 -4 0 -13 -14 -20 -30 -16 -38 -45 -59 -71 -53 -10 3 -19 0 -19 -6 0 -5 -6
-8 -14 -5 -9 4 -12 15 -9 35 2 17 0 29 -7 29 -14 0 7 41 26 53 17 10 18 34 2
39 -17 6 0 28 22 28 11 0 22 11 28 29 10 28 44 56 54 45 3 -3 8 6 12 20 3 14
15 28 26 31 11 3 20 11 20 16 0 5 5 9 10 9 6 0 10 -4 10 -8z m-4035 -62 c-3
-5 -2 -10 3 -10 5 0 9 -6 9 -12 2 -32 12 -88 18 -98 4 -6 1 -9 -7 -8 -8 2 -13
-7 -13 -24 1 -20 -2 -24 -11 -17 -17 14 -12 -17 6 -34 10 -10 11 -9 5 2 -5 9
-4 12 3 7 9 -5 9 -13 0 -29 -7 -12 -11 -26 -10 -30 1 -5 -8 -23 -20 -40 -13
-17 -28 -41 -33 -52 -8 -15 -19 -19 -41 -17 -27 3 -32 -1 -49 -38 -13 -29 -21
-38 -29 -30 -7 7 -7 16 1 29 9 14 9 21 0 30 -9 9 -8 11 4 6 10 -4 20 4 30 22
16 32 86 103 94 95 3 -3 5 9 5 26 0 19 -8 39 -19 48 -11 10 -17 24 -13 37 3
12 -2 25 -13 33 -16 12 -17 14 -2 20 9 3 14 10 11 15 -3 5 0 9 6 9 6 0 8 5 5
10 -3 6 -2 10 4 10 5 0 13 9 16 21 4 11 9 18 12 16 2 -3 -5 -24 -17 -47 -12
-23 -19 -44 -16 -47 3 -4 17 19 32 50 14 32 28 57 30 57 3 0 2 -4 -1 -10z
m-1443 -48 c-7 -2 -9 -9 -6 -14 4 -6 2 -8 -3 -5 -6 4 -14 0 -17 -9 -8 -22 3
-33 14 -14 5 8 16 24 25 35 16 19 16 19 10 -16 -5 -31 -2 -37 20 -47 14 -7 35
-12 45 -12 11 0 20 -2 20 -5 0 -11 -24 -55 -30 -55 -16 0 -18 14 -4 27 8 9 12
18 9 21 -3 4 -10 0 -15 -8 -8 -12 -10 -12 -15 2 -4 9 -20 21 -36 27 -16 6 -27
6 -24 2 9 -16 -7 -41 -26 -41 -10 0 -19 -7 -19 -15 0 -9 -8 -19 -17 -22 -25
-9 -39 -25 -47 -51 -4 -12 -11 -22 -17 -22 -10 0 -79 -133 -79 -154 0 -8 -9
-25 -20 -38 -12 -12 -44 -66 -73 -119 -29 -52 -62 -105 -74 -118 -12 -13 -20
-28 -18 -35 7 -18 -22 -49 -37 -40 -7 4 -10 4 -6 -1 9 -10 -11 -37 -22 -30 -5
3 -12 -9 -15 -27 -8 -33 -9 -36 -49 -81 -13 -15 -29 -41 -36 -57 -7 -17 -17
-30 -22 -30 -5 0 -6 -4 -3 -10 3 -5 1 -10 -5 -10 -6 0 -9 -4 -6 -9 4 -5 -8
-12 -25 -16 -18 -4 -34 -16 -39 -30 -5 -12 -18 -25 -29 -28 -24 -6 -27 5 -8
25 21 22 57 84 57 100 0 8 18 23 39 33 29 13 38 22 36 36 -2 11 0 19 5 19 9 0
8 19 -3 37 -7 11 17 73 29 73 2 0 0 -9 -6 -19 -13 -26 -13 -31 4 -31 8 0 31
25 52 55 20 31 45 60 56 66 15 8 19 8 14 0 -4 -6 -3 -11 3 -11 6 0 15 9 22 21
10 19 8 20 -13 15 -12 -3 -17 -3 -10 0 6 3 12 16 12 29 0 26 19 75 29 75 17 1
70 60 71 78 0 12 0 32 0 44 1 12 9 30 18 39 37 36 57 65 62 89 3 15 12 25 23
25 13 0 35 31 72 100 30 55 59 99 65 98 5 -2 10 2 10 8 0 18 44 67 55 61 5 -3
4 -7 -3 -10z m4097 -21 c7 -5 10 -14 6 -21 -5 -8 -10 -8 -14 -2 -3 6 -6 -9 -7
-31 -1 -40 -39 -128 -81 -186 -14 -19 -14 -23 -3 -19 12 4 78 113 93 153 3 6
8 6 13 2 5 -4 4 -11 -2 -15 -7 -4 -26 -36 -44 -71 -31 -62 -60 -102 -60 -84
-1 4 -7 -3 -15 -17 l-15 -25 6 30 c5 28 4 29 -10 11 -8 -10 -13 -22 -11 -26 3
-4 -2 -13 -9 -19 -12 -10 -14 -8 -9 11 3 17 2 19 -5 9 -14 -20 -23 2 -13 35
12 42 79 170 96 184 8 7 12 16 9 21 -3 5 -1 9 4 9 5 0 15 14 22 30 13 31 25
36 49 21z m-2532 -161 c15 -13 23 -16 26 -7 3 8 10 6 25 -7 12 -10 33 -18 47
-18 16 0 25 -6 25 -17 0 -14 2 -14 10 -1 8 13 10 12 10 -2 0 -10 5 -18 11 -18
8 0 8 -4 2 -12 -12 -15 -13 -48 -2 -48 4 0 10 10 12 23 2 12 5 3 6 -21 1 -38
-1 -42 -16 -33 -24 13 -86 -34 -78 -60 4 -11 2 -19 -4 -19 -6 0 -11 5 -11 11
0 5 -5 7 -11 3 -7 -4 -7 1 1 16 11 20 21 94 11 85 -6 -7 -33 24 -28 32 3 5 -8
8 -23 8 -15 0 -27 -2 -25 -5 7 -12 -12 -31 -35 -35 -13 -2 -27 -10 -31 -17 -6
-9 -11 -10 -19 -2 -8 8 -6 23 9 55 11 24 25 59 31 77 14 37 28 40 57 12z m-77
-4 c0 -8 -6 -21 -14 -28 -17 -18 -66 -114 -72 -141 -2 -11 -10 -27 -19 -37 -8
-9 -15 -22 -15 -28 0 -13 -31 -85 -62 -145 -10 -21 -16 -46 -13 -57 6 -18 -17
-102 -34 -125 -4 -5 -7 -28 -6 -50 1 -22 -5 -53 -12 -69 -17 -33 -25 -99 -12
-90 15 9 10 -25 -9 -65 -12 -25 -16 -45 -11 -59 6 -16 5 -20 -7 -15 -7 3 -14
0 -14 -6 0 -6 7 -11 16 -11 13 0 15 -6 9 -27 -3 -16 -14 -35 -23 -43 -14 -13
-15 -13 -6 0 19 27 23 49 11 56 -7 4 -9 4 -5 -1 4 -4 0 -21 -10 -37 -16 -28
-16 -30 1 -39 11 -7 17 -22 17 -47 l0 -37 21 33 c21 32 46 45 36 17 -4 -8 -2
-17 3 -20 11 -7 4 -45 -16 -90 -13 -29 -18 -31 -67 -30 -36 0 -51 -4 -50 -12
2 -7 0 -13 -5 -13 -6 0 -9 -81 -4 -117 1 -6 11 -14 21 -18 20 -6 35 -42 20
-50 -5 -3 -14 -25 -20 -48 -7 -25 -14 -36 -17 -27 -6 19 -23 30 -34 24 -5 -3
-18 -24 -29 -47 -17 -33 -19 -45 -10 -59 14 -23 2 -75 -34 -137 -32 -56 -32
-66 5 -69 26 -2 33 3 47 33 9 19 23 35 30 35 17 0 17 -26 1 -37 -14 -9 -38
-48 -38 -60 0 -5 7 0 14 10 8 10 17 14 20 8 17 -27 -48 -48 -83 -26 -12 7 -4
-46 9 -59 5 -5 6 -16 3 -25 -4 -14 -3 -14 6 -1 5 8 14 11 18 6 4 -4 -2 -16
-15 -27 -26 -20 -47 -82 -36 -102 5 -9 4 -9 -6 0 -10 10 -10 21 3 60 17 52 16
68 -4 31 -7 -12 -13 -45 -14 -73 -2 -27 -4 -52 -5 -55 -1 -3 -3 -9 -4 -15 -1
-5 -8 -22 -16 -37 -10 -21 -11 -34 -2 -52 8 -18 7 -28 -4 -45 -12 -16 -12 -21
-2 -21 9 0 10 -3 2 -8 -15 -9 -54 -87 -54 -107 0 -8 4 -15 9 -15 10 0 -11 -80
-31 -118 -10 -18 -9 -25 1 -31 11 -7 0 -42 -50 -142 -10 -22 0 -59 16 -59 8 0
17 9 20 20 4 14 15 20 36 20 37 0 48 -24 28 -59 -19 -34 -42 -37 -70 -9 -12
13 -18 17 -14 9 6 -10 2 -12 -16 -7 -13 3 -19 3 -13 0 9 -3 8 -17 -2 -51 -9
-28 -10 -50 -5 -57 6 -7 2 -26 -10 -50 -14 -30 -16 -42 -7 -53 6 -7 8 -16 4
-20 -3 -3 -6 -1 -6 6 0 7 -4 10 -10 6 -5 -3 -7 -12 -4 -20 4 -8 11 -12 17 -8
6 3 -1 -14 -15 -40 -31 -56 -43 -103 -29 -112 7 -4 6 -17 -5 -38 -22 -43 -20
-42 -48 -24 -25 17 -26 26 -8 92 5 17 5 42 0 57 -8 22 -5 34 12 58 12 16 18
34 15 40 -3 5 -1 10 4 10 14 0 14 27 1 32 -6 2 0 29 15 66 20 50 23 66 14 80
-10 16 -7 28 16 70 26 47 29 92 5 77 -14 -9 -12 6 4 24 17 21 28 79 16 86 -6
4 -7 13 -1 23 5 9 10 22 10 27 1 6 4 17 6 26 3 9 2 26 -3 39 -8 23 5 78 30
124 7 12 13 37 14 56 1 19 2 43 3 53 1 11 6 15 13 11 7 -4 8 -3 4 4 -4 6 0 25
9 43 9 17 18 52 21 77 7 88 16 132 25 126 5 -3 9 2 9 11 0 9 -3 14 -8 11 -12
-7 -7 77 6 99 14 25 16 11 2 -16 -7 -13 -7 -19 0 -19 5 0 10 5 10 11 0 6 11
20 24 30 17 13 23 27 21 49 -1 17 -6 34 -9 37 -10 10 -46 11 -46 1 0 -21 -39
-45 -64 -41 -33 7 -41 20 -25 40 11 13 10 17 -6 29 -11 8 -23 13 -28 11 -5 -1
-23 -30 -41 -63 -17 -34 -39 -69 -49 -78 -9 -10 -15 -22 -12 -27 4 -5 1 -9 -5
-9 -6 0 -9 -4 -6 -9 3 -4 -1 -17 -9 -27 -14 -18 -14 -18 -15 9 0 26 34 105 50
117 3 3 17 28 30 55 13 28 30 56 37 63 13 13 18 45 14 89 -1 12 8 41 19 63 11
22 22 58 24 79 2 21 7 44 12 52 4 8 9 25 9 39 1 14 9 42 20 64 17 35 19 37 26
17 5 -11 13 -21 19 -21 6 0 8 5 4 12 -5 8 0 9 14 6 13 -4 22 -1 23 5 0 9 2 9
5 0 3 -7 11 -10 18 -7 10 4 13 -6 12 -35 -1 -47 3 -52 31 -45 29 8 57 72 45
104 -10 28 -9 37 20 102 19 43 19 86 0 74 -5 -3 -9 1 -9 9 0 11 4 12 14 4 10
-9 13 -8 13 2 0 8 11 36 25 63 14 27 25 57 24 65 0 12 -3 11 -9 -4 -8 -19 -9
-19 -9 2 -1 12 -8 26 -17 31 -11 6 -13 11 -5 16 6 4 11 15 11 25 0 9 7 26 16
37 8 10 12 13 8 5 -12 -24 -22 -81 -13 -75 5 3 9 13 9 23 0 9 5 22 11 28 7 7
8 19 4 30 -12 26 -6 51 25 113 19 38 27 68 26 95 -2 22 1 45 5 50 5 6 11 30
15 53 5 35 4 42 -10 42 -10 0 -15 -4 -11 -9 3 -5 1 -12 -4 -15 -5 -4 -13 -1
-17 5 -4 8 -3 9 4 5 8 -5 10 -1 5 10 -5 15 -7 15 -15 0 -12 -21 -28 -21 -28 0
0 27 -27 -2 -33 -36 -4 -16 -15 -38 -26 -49 -11 -11 -29 -37 -40 -58 -11 -21
-20 -36 -20 -33 -1 12 27 80 58 139 21 42 30 71 26 85 -3 11 -8 35 -11 51 -4
27 -3 28 8 10 7 -11 13 -22 13 -25 7 -54 37 -80 48 -41 3 14 11 18 26 14 14
-3 23 0 27 11 8 20 24 21 24 1 0 -44 74 26 90 85 6 23 17 40 25 40 14 0 20 12
16 33 -2 9 88 177 95 177 2 0 4 -6 4 -14z m1640 -107 c0 -10 -7 -24 -14 -32
-8 -8 -14 -27 -12 -43 1 -16 -1 -34 -6 -40 -11 -16 -18 -48 -22 -109 -4 -46
-15 -81 -53 -162 -9 -18 -13 -42 -9 -57 3 -14 1 -28 -4 -31 -6 -4 -10 -12 -9
-18 2 -7 -3 -32 -10 -56 -7 -23 -10 -49 -7 -57 3 -7 1 -16 -5 -19 -5 -4 -7
-11 -3 -16 3 -5 -2 -22 -12 -37 -37 -54 -46 -78 -49 -125 -2 -37 1 -47 11 -43
10 4 11 0 2 -20 -8 -18 -17 -23 -32 -18 -12 3 -16 2 -10 -3 15 -11 25 -43 14
-43 -6 0 -10 5 -10 11 0 5 -5 7 -11 3 -8 -5 -8 -9 1 -14 7 -4 9 -13 6 -19 -4
-6 -3 -11 3 -11 5 0 12 6 14 13 4 9 6 9 6 0 1 -6 -3 -15 -9 -18 -5 -3 -10 -14
-10 -24 0 -10 -11 -38 -24 -62 -14 -24 -24 -53 -22 -64 2 -11 -2 -26 -8 -34
-9 -11 -6 -13 14 -6 22 6 23 6 8 -6 -45 -35 -120 -239 -88 -239 5 0 10 4 10 9
0 5 7 11 15 15 8 3 14 0 12 -7 -1 -7 10 -10 31 -8 37 3 40 -8 13 -57 -15 -29
-19 -32 -30 -18 -7 9 -18 13 -23 10 -6 -4 -5 2 1 14 6 11 8 28 5 36 -5 14 -10
13 -30 -6 -13 -13 -24 -30 -24 -38 0 -9 -10 -31 -23 -50 -16 -24 -24 -52 -25
-87 -1 -29 2 -53 6 -53 18 -1 32 -18 26 -34 -5 -13 -9 -14 -20 -5 -22 18 -42
3 -54 -41 -9 -35 -8 -46 5 -66 9 -15 11 -23 4 -22 -6 2 -14 -3 -16 -9 -3 -7 2
-13 10 -13 13 0 13 -5 2 -37 -10 -28 -18 -37 -32 -35 -26 4 -49 -44 -32 -64 9
-11 5 -27 -20 -75 -17 -33 -27 -58 -21 -54 6 3 23 32 39 62 17 34 31 52 35 45
4 -7 2 -12 -4 -12 -6 0 -9 -4 -5 -9 3 -5 -2 -16 -10 -25 -9 -8 -15 -17 -14
-18 5 -7 -13 -48 -21 -48 -13 0 -20 -44 -8 -51 9 -6 9 -13 0 -31 l-12 -23 6
25 c5 24 4 23 -15 -5 -25 -37 -27 -52 -3 -34 15 13 16 12 3 -3 -7 -10 -20 -18
-28 -18 -8 0 -11 -4 -8 -10 3 -5 1 -19 -5 -30 -8 -15 -7 -28 6 -55 9 -19 13
-42 10 -52 -4 -9 -2 -19 4 -23 16 -10 0 -42 -18 -35 -8 3 -23 -2 -33 -11 -25
-23 -55 -10 -63 28 -5 24 1 44 26 87 21 37 32 71 33 102 1 25 5 51 9 57 4 7 5
16 2 21 -3 5 8 28 24 52 30 45 39 79 19 79 -7 0 -9 10 -5 27 5 17 3 29 -6 35
-11 6 -11 10 0 17 8 4 13 10 11 12 -5 9 13 49 21 44 5 -3 11 -1 15 5 3 5 1 10
-5 10 -6 0 -10 8 -9 18 4 24 -10 62 -23 62 -5 0 -8 -7 -4 -15 3 -8 1 -15 -4
-15 -6 0 -10 8 -11 18 0 13 -3 11 -9 -6 -8 -19 -13 -21 -29 -13 -15 8 -27 5
-55 -14 -28 -19 -42 -22 -59 -16 -26 10 -55 41 -39 41 6 0 9 6 6 13 -3 8 5 13
23 15 16 1 33 9 40 18 7 10 20 14 33 11 11 -3 18 -1 15 4 -3 5 -1 18 5 29 7
13 7 20 1 20 -6 0 -8 6 -5 13 3 8 -6 18 -21 25 -14 6 -25 17 -25 24 0 10 2 10
8 1 16 -25 50 -10 68 29 11 25 24 38 36 38 18 0 27 6 63 38 10 9 21 9 40 2 36
-14 38 -13 53 11 9 14 10 24 3 33 -7 9 -5 28 9 67 19 52 19 89 -1 89 -6 0 -7
5 -4 11 4 6 14 8 22 5 8 -3 11 -1 8 4 -3 5 -1 19 5 30 6 12 13 29 15 39 2 9
11 35 21 57 10 21 18 53 18 69 1 17 4 35 8 41 21 32 39 106 29 118 -6 7 -8 15
-5 18 3 3 0 9 -7 14 -8 4 -10 3 -5 -4 4 -7 1 -12 -9 -12 -13 0 -11 9 11 53 15
28 29 46 31 40 3 -7 -3 -20 -11 -29 -19 -18 -20 -30 -4 -40 7 -4 8 -3 4 4 -4
7 -3 12 2 12 13 0 29 42 24 63 -2 9 -8 14 -14 11 -5 -4 -5 4 2 16 11 21 10 22
-8 18 -24 -7 -67 33 -60 54 5 13 -27 48 -45 48 -5 0 -7 7 -4 14 4 11 1 13 -10
9 -12 -5 -14 -1 -8 17 5 17 4 21 -6 15 -8 -4 -3 3 11 14 31 26 36 26 57 2 9
-11 20 -18 24 -16 9 6 32 -51 25 -63 -3 -6 1 -13 10 -16 9 -4 18 -5 18 -4 1 2
7 14 14 28 12 24 12 24 6 -7 -3 -19 -1 -33 4 -33 14 0 25 51 13 63 -6 6 -7 17
-2 26 5 9 8 38 7 64 -2 46 -1 48 20 44 16 -3 21 0 17 10 -3 7 0 13 6 13 16 0
84 147 75 162 -17 27 15 134 45 152 6 4 5 18 -2 35 -12 32 -9 41 46 136 29 51
67 70 67 34z m778 -136 c-6 -7 -7 -13 -2 -13 4 0 3 -5 -4 -12 -7 -7 -12 -20
-12 -30 0 -10 -9 -32 -20 -50 -12 -21 -20 -51 -20 -80 0 -30 -11 -70 -31 -115
-23 -52 -29 -77 -25 -104 5 -28 0 -44 -19 -73 -23 -34 -23 -36 -5 -36 31 0 23
-28 -15 -52 -35 -24 -68 -81 -65 -114 4 -33 0 -45 -11 -39 -6 4 -10 1 -8 -6 3
-25 -1 -36 -21 -59 -11 -13 -25 -42 -30 -64 -6 -23 -24 -69 -41 -103 -23 -45
-30 -69 -25 -88 7 -27 -12 -85 -27 -85 -5 0 -5 -4 -2 -10 3 -5 1 -10 -5 -10
-6 0 -8 -4 -5 -10 3 -5 2 -10 -3 -10 -12 0 -142 -254 -142 -278 0 -10 3 -22 7
-26 10 -10 12 -36 3 -36 -5 0 -7 -9 -5 -20 2 -11 0 -20 -6 -20 -5 0 -8 -3 -7
-7 3 -11 -23 -56 -29 -50 -2 3 2 18 10 34 8 15 18 44 21 63 7 36 -15 -14 -65
-147 -18 -46 -26 -58 -31 -45 -5 14 -7 13 -7 -5 -1 -13 -7 -23 -15 -23 -8 0
-22 -10 -30 -22 -19 -26 -20 -38 -5 -38 5 0 8 4 4 9 -3 5 0 13 6 17 15 9 3
-90 -14 -120 -7 -12 -12 -25 -13 -31 -1 -22 -16 -55 -24 -55 -6 0 -6 10 0 25
6 16 6 25 -1 25 -5 0 -14 -10 -18 -22 -7 -18 -5 -25 11 -32 21 -11 21 -37 -2
-44 -13 -5 -13 -3 -1 11 9 12 10 17 2 17 -6 0 -14 -8 -17 -17 -11 -35 -22 -48
-39 -45 -10 2 -14 -1 -10 -7 9 -15 -10 -14 -22 2 -5 6 -11 30 -12 52 -1 21 -7
45 -13 53 -6 7 -7 12 -2 11 21 -4 28 2 14 11 -11 7 -11 10 -2 10 7 0 10 5 6
12 -4 6 -3 8 3 5 12 -8 39 20 30 30 -4 3 2 18 12 32 15 22 33 62 36 81 0 3 4
11 9 18 4 8 2 20 -6 29 -11 15 -11 16 4 10 19 -7 48 26 48 55 0 12 5 16 18 11
9 -3 14 -3 10 2 -4 4 6 26 22 48 17 23 30 49 30 59 0 10 5 18 11 18 5 0 7 5 4
10 -3 6 1 13 10 16 13 5 13 9 3 22 -11 13 -11 14 2 7 13 -8 13 -7 1 8 -15 19
-36 23 -25 5 4 -7 3 -8 -4 -4 -18 11 -14 23 9 29 12 3 18 10 15 15 -3 5 1 15
9 22 8 7 15 18 15 26 0 7 6 19 13 26 17 17 118 215 122 240 3 14 0 18 -9 15
-11 -4 -13 2 -9 26 3 18 7 34 10 37 3 3 3 -7 1 -22 -3 -16 -2 -28 2 -28 4 0
10 15 13 33 5 35 23 84 58 162 12 28 21 56 20 63 -1 7 5 15 13 18 9 3 18 22
22 42 3 21 22 67 40 105 19 37 32 67 29 67 -3 0 6 23 21 51 18 37 22 55 15 62
-8 8 -15 5 -26 -9 -14 -17 -14 -16 -1 16 8 19 17 43 20 53 3 9 15 17 27 17 18
0 20 4 15 25 -6 25 30 115 47 115 4 0 6 4 3 9 -3 5 2 19 12 32 28 36 33 57 17
72 -12 12 -10 21 11 58 14 24 30 56 36 70 10 23 14 25 39 15 21 -8 26 -13 17
-23z m2031 28 c8 -5 14 -25 14 -44 0 -20 5 -34 11 -33 6 2 8 1 4 -1 -12 -7
-10 -83 2 -83 6 0 7 -18 4 -44 -4 -24 -2 -52 4 -63 8 -15 7 -25 -4 -41 -8 -12
-12 -22 -8 -22 4 0 5 -2 2 -5 -3 -3 -17 -1 -31 6 -17 8 -23 17 -19 28 5 14 4
14 -11 2 -18 -14 -24 -2 -7 15 14 14 1 47 -15 40 -9 -3 -13 6 -12 31 1 20 3
31 5 24 8 -23 21 -10 32 29 12 46 6 63 -20 55 -12 -4 -22 0 -28 11 -10 18 -5
54 8 54 4 0 12 11 18 25 12 26 27 31 51 16z m255 -35 c27 -11 35 -22 44 -57 6
-23 9 -46 6 -51 -3 -4 0 -16 5 -26 7 -14 7 -29 -2 -51 -9 -25 -9 -36 1 -51 9
-15 10 -26 2 -40 -7 -14 -8 -26 0 -39 11 -21 11 -20 -41 -141 -47 -106 -93
-128 -155 -74 -21 19 -34 37 -31 41 4 3 7 1 7 -5 0 -7 9 -3 21 9 12 12 29 19
39 16 16 -4 17 -1 9 20 -6 17 -6 30 2 39 6 7 8 22 4 33 -3 10 -1 22 4 26 18
11 31 76 20 97 -15 27 -19 87 -7 94 5 3 6 19 3 35 -19 84 -10 139 21 139 8 0
30 -6 48 -14z m-690 -8 c-2 -3 9 -18 26 -31 19 -16 28 -31 24 -41 -4 -11 2
-19 17 -25 13 -5 19 -10 13 -10 -13 -1 -37 -51 -24 -51 5 0 12 9 15 21 4 11 9
18 11 16 7 -7 -18 -57 -28 -57 -8 0 -12 14 -9 36 1 7 -8 14 -19 17 -11 3 -17
1 -14 -4 8 -13 -16 -40 -28 -33 -5 3 -20 -1 -33 -10 -13 -9 -31 -13 -39 -10
-9 3 -16 1 -16 -6 0 -6 -4 -8 -10 -5 -5 3 -10 1 -10 -4 0 -6 -9 -11 -20 -11
-11 0 -20 -4 -20 -8 0 -11 -40 -13 -59 -3 -16 9 -46 -11 -34 -23 4 -3 1 -6 -5
-6 -7 0 -12 -5 -12 -12 0 -6 -10 -22 -22 -35 -24 -25 -31 -70 -14 -92 8 -11 8
-13 -1 -7 -9 5 -13 0 -13 -13 0 -12 4 -21 9 -21 6 0 6 -12 1 -31 -7 -23 -6
-31 6 -36 7 -3 14 -15 14 -27 0 -12 10 -33 22 -45 16 -18 21 -37 23 -80 1 -31
-3 -63 -9 -71 -6 -8 0 -6 13 5 26 21 26 22 4 -32 -4 -10 -3 -14 5 -9 7 4 8 -2
2 -24 -9 -31 1 -47 21 -34 8 5 8 1 0 -14 -15 -28 -14 -75 2 -91 10 -11 9 -14
-1 -18 -6 -3 -10 -9 -6 -14 3 -5 0 -9 -6 -9 -16 0 -8 -42 10 -58 8 -8 9 -11 3
-7 -7 3 -13 0 -13 -7 0 -17 36 -48 46 -40 4 4 4 1 0 -6 -5 -8 -13 -9 -26 -2
-25 14 -27 13 -33 -10 -3 -12 -14 -20 -27 -20 -11 0 -19 4 -16 8 2 4 -4 9 -15
10 -42 4 -48 6 -43 13 2 4 -2 10 -8 12 -8 3 -6 6 5 6 9 1 17 8 17 17 0 10 -6
14 -15 10 -11 -4 -9 6 9 42 15 30 23 63 22 90 -1 24 2 46 5 48 8 5 -1 44 -10
44 -3 0 -6 38 -6 85 0 60 -4 85 -12 85 -7 0 -10 7 -6 18 5 14 3 13 -10 -3 -16
-20 -16 -19 -17 8 0 16 5 26 13 25 11 -3 12 19 2 50 -12 33 -85 29 -85 -6 0
-7 4 -10 10 -7 6 4 7 -1 3 -11 -4 -11 -8 -13 -11 -6 -2 7 -8 10 -13 6 -5 -3
-9 0 -9 5 0 6 -7 11 -15 11 -12 0 -13 -4 -4 -18 9 -14 7 -26 -9 -58 -12 -21
-21 -32 -21 -24 0 8 6 26 14 40 17 30 18 40 4 40 -5 0 -7 -5 -4 -10 3 -6 -1
-13 -9 -16 -9 -3 -13 -10 -10 -15 3 -5 -7 -21 -21 -35 -14 -14 -24 -28 -22
-31 3 -2 12 3 21 12 9 9 16 12 16 6 0 -5 -7 -17 -16 -25 -9 -10 -11 -16 -4
-16 6 0 11 -10 10 -22 -4 -40 0 -59 9 -54 5 3 11 -1 15 -9 3 -8 1 -15 -4 -15
-15 0 -12 -26 4 -39 8 -7 12 -20 9 -30 -3 -10 2 -25 10 -32 13 -12 13 -20 0
-64 -8 -27 -17 -52 -19 -54 -2 -2 -18 2 -36 10 -18 8 -39 12 -47 11 -7 -2 -10
1 -7 6 3 6 -1 13 -9 16 -13 5 -14 9 -3 28 15 27 18 129 4 121 -5 -4 -7 1 -3
10 4 11 2 14 -9 10 -12 -5 -15 0 -11 24 3 18 -2 37 -13 51 -31 38 -68 23 -68
-28 0 -35 -31 -127 -48 -141 -8 -6 -14 -18 -14 -25 0 -8 -9 -33 -19 -57 -11
-23 -19 -58 -19 -77 2 -54 -59 -170 -89 -170 -8 0 -12 -4 -8 -9 3 -5 1 -12 -4
-16 -6 -3 -14 3 -20 13 -5 9 -19 18 -31 19 -43 3 -51 21 -30 62 10 21 25 43
34 50 8 7 18 27 21 44 8 34 43 105 61 122 6 6 17 30 24 55 13 41 40 83 40 63
1 -13 29 40 30 55 0 7 -5 10 -11 6 -8 -4 -8 0 0 15 14 25 23 28 14 4 -13 -34
14 -3 32 37 10 22 22 40 26 40 5 0 6 7 3 15 -3 8 5 24 18 37 14 13 33 44 44
71 11 28 24 45 32 42 6 -2 12 2 12 10 0 8 5 15 10 15 6 0 10 -4 10 -10 0 -12
33 19 49 46 10 16 10 14 6 -11 -6 -27 -5 -28 6 -10 7 11 19 27 27 35 9 9 11
15 4 18 -6 2 -8 10 -5 19 4 11 2 14 -5 9 -7 -4 -12 -6 -12 -4 0 11 70 131 70
121 0 -7 5 -13 10 -13 7 0 7 6 0 19 -13 25 -13 34 1 25 8 -5 8 -1 0 14 -16 30
-14 73 3 66 8 -3 16 3 19 15 4 15 10 19 23 14 13 -5 15 -3 9 7 -5 9 -4 11 4 6
6 -4 9 -12 6 -17 -11 -17 12 -9 30 11 12 13 14 20 6 20 -7 0 -11 6 -9 12 3 7
22 14 44 15 71 4 115 15 121 29 3 8 13 14 22 14 10 0 21 3 25 8 4 4 12 8 17 8
5 1 10 2 12 4 1 1 10 3 20 5 11 2 21 6 24 9 8 7 62 2 57 -6z m-2130 -120 c-4
-37 -30 -110 -56 -161 -11 -23 -23 -60 -26 -81 -4 -41 -35 -110 -60 -135 -10
-10 -10 -16 -2 -21 8 -5 6 -11 -5 -20 -12 -10 -13 -16 -3 -27 15 -18 18 -54 5
-46 -7 4 -8 -1 -3 -13 4 -10 4 -15 0 -12 -4 4 -14 -3 -24 -15 -19 -26 -63
-115 -58 -120 2 -1 -5 -15 -14 -29 -12 -18 -14 -29 -7 -33 6 -4 8 -14 4 -22
-5 -14 -3 -14 11 -2 16 13 17 11 10 -24 -8 -42 -43 -107 -58 -107 -5 0 0 16
12 35 12 19 20 40 18 47 -2 6 -12 -5 -22 -26 -28 -60 -47 -154 -28 -142 6 4 9
14 6 24 -5 14 -4 14 4 3 8 -11 5 -25 -8 -50 -35 -69 -52 -119 -46 -139 4 -13
-3 -37 -22 -68 -42 -74 -73 -153 -79 -209 -4 -34 -26 -89 -70 -175 -36 -69
-69 -130 -74 -136 -6 -7 -4 -16 6 -24 18 -15 14 -49 -15 -114 -12 -24 -15 -45
-10 -51 12 -14 -52 -150 -77 -163 -10 -6 -14 -14 -10 -18 11 -11 24 5 67 87
48 91 53 84 6 -9 -40 -80 -58 -98 -82 -84 -10 6 -13 12 -6 16 16 10 2 45 -20
52 -14 4 -17 8 -9 14 7 4 11 13 10 21 -4 21 11 59 23 59 6 0 7 -7 3 -17 -4
-10 -9 -31 -11 -48 l-3 -30 8 30 c4 17 20 56 34 88 14 31 22 57 16 57 -5 0 -9
-4 -9 -8 0 -5 -7 -17 -15 -28 -15 -17 -15 -16 -1 12 8 17 12 35 8 38 -3 4 2 4
13 0 16 -6 18 -4 8 6 -9 10 -9 19 3 41 8 16 18 29 23 29 8 0 31 44 31 58 0 4
-9 -4 -19 -18 l-19 -24 11 36 c6 20 14 32 18 27 4 -6 9 -4 13 6 10 27 7 55 -6
55 -9 0 -9 3 -1 11 6 6 9 18 6 25 -3 8 0 14 7 14 6 0 9 8 5 18 -3 11 3 29 13
43 26 34 72 130 72 150 0 10 -5 19 -11 21 -7 2 14 51 50 119 56 106 75 169 52
169 -15 0 3 51 35 101 15 24 29 51 31 59 11 62 11 96 0 109 -10 12 -9 13 2 6
11 -6 13 -4 8 9 -4 11 -3 15 4 11 6 -4 17 1 24 11 20 26 18 37 -2 30 -16 -6
-16 -5 0 8 10 8 14 17 8 20 -12 8 8 64 32 88 9 10 17 27 17 38 0 11 14 45 31
75 17 30 26 55 20 55 -7 0 -9 11 -6 28 3 15 2 21 -1 15 -8 -18 -21 -16 -21 2
0 8 5 15 11 15 6 0 28 34 49 75 21 41 43 77 48 80 5 4 7 10 4 15 -6 9 18 63
38 89 15 17 17 40 6 47 -5 3 -1 20 8 37 9 18 16 35 15 39 -1 4 11 6 27 5 25
-2 28 -5 25 -29z m-807 -17 c13 11 14 8 12 -24 -2 -20 2 -42 9 -49 8 -8 8 -15
1 -24 -12 -15 -32 -81 -20 -68 5 5 11 18 13 29 2 12 6 16 10 9 4 -6 0 -23 -8
-39 -8 -15 -17 -45 -20 -67 -4 -21 -11 -41 -15 -44 -5 -3 -9 -10 -9 -17 0 -25
22 13 34 59 10 39 14 44 18 27 3 -13 -2 -37 -13 -58 -11 -20 -17 -40 -14 -45
3 -5 1 -11 -5 -15 -5 -3 -10 0 -10 7 -1 18 -30 -22 -30 -41 0 -11 4 -10 14 5
13 17 14 15 3 -16 -7 -19 -16 -41 -20 -47 -5 -7 -6 -17 -2 -22 3 -6 0 -13 -7
-18 -22 -14 -58 -71 -58 -93 0 -11 -8 -32 -17 -46 -13 -21 -14 -30 -5 -44 9
-14 9 -27 0 -52 -6 -18 -14 -35 -17 -38 -11 -9 -71 -127 -71 -140 0 -7 7 -18
16 -25 15 -10 14 -15 -6 -56 -12 -24 -19 -41 -15 -37 4 4 13 1 20 -5 11 -10 6
-26 -27 -87 -23 -41 -46 -79 -53 -85 -6 -5 -10 -15 -8 -20 2 -6 -7 -16 -18
-23 -20 -13 -21 -12 -15 11 3 14 8 32 12 40 3 10 -3 17 -20 21 -22 5 -24 9
-15 38 5 17 14 36 20 42 9 8 10 6 4 -9 -13 -34 -18 -71 -9 -62 5 5 8 10 7 13
-1 2 4 16 12 31 8 14 11 31 8 35 -6 11 35 146 51 168 38 52 40 76 4 43 -17
-15 -18 -15 -13 0 4 9 15 19 26 22 32 10 47 105 17 105 -6 0 -8 6 -5 14 8 21
-19 39 -48 32 -53 -13 -90 40 -45 64 11 6 18 16 14 21 -8 14 -44 -24 -45 -48
-1 -15 -2 -15 -6 -2 -3 15 9 38 59 111 11 16 13 15 30 -5 11 -12 31 -30 46
-40 15 -11 19 -16 9 -13 -15 5 -16 3 -7 -14 18 -34 38 -18 31 24 -3 17 11 46
20 41 5 -3 6 2 2 11 -4 10 -2 15 4 11 6 -4 9 8 8 28 0 18 2 32 6 29 10 -6 44
56 52 94 4 17 3 31 -1 29 -11 -3 -12 9 -6 43 4 16 10 27 15 24 5 -3 6 1 4 8
-3 8 4 23 15 35 11 12 20 29 20 38 0 8 4 15 8 15 5 0 9 6 10 13 0 6 3 36 5 65
4 41 1 54 -12 62 -15 9 -14 9 2 10 9 0 18 8 18 18 1 16 2 16 6 -1 4 -15 7 -16
20 -6z m986 -20 c4 -1 7 -9 7 -19 0 -10 5 -23 10 -28 7 -7 7 -25 2 -49 -6 -33
-13 -40 -40 -47 -18 -5 -32 -13 -32 -18 0 -18 -26 -10 -49 14 -19 20 -21 28
-11 46 6 12 9 24 6 28 -6 5 15 42 38 69 6 7 22 11 36 8 14 -2 28 -4 33 -4z
m-1875 -277 c34 -19 62 -39 62 -45 0 -22 -45 -69 -65 -69 -16 0 -27 -11 -41
-42 -19 -42 -55 -88 -68 -88 -4 0 -4 5 -1 10 4 6 -1 22 -9 35 -15 23 -15 27 3
53 29 39 32 102 6 102 -16 0 -19 -9 -16 -52 0 -18 -7 -32 -21 -42 -12 -9 -19
-16 -15 -16 10 0 -23 -63 -39 -75 -12 -8 -12 -15 0 -37 10 -18 11 -30 4 -34
-5 -3 -7 -15 -5 -26 3 -11 -3 -34 -13 -51 -12 -22 -15 -38 -10 -52 8 -17 9
-18 9 -2 1 24 30 91 37 85 5 -5 -5 -30 -43 -115 -9 -21 -16 -41 -15 -45 1 -5
-2 -8 -8 -8 -5 0 -10 -9 -10 -19 0 -11 -4 -22 -9 -25 -5 -3 -8 -21 -6 -38 1
-18 -1 -53 -5 -78 -10 -52 -4 -69 16 -43 17 23 18 4 0 -22 -7 -11 -17 -33 -21
-50 -5 -16 -9 -33 -10 -37 -2 -5 -3 -15 -4 -23 0 -8 -10 -15 -21 -15 -11 0
-20 -5 -20 -11 0 -5 -4 -8 -9 -5 -4 3 -6 -6 -3 -21 4 -20 2 -24 -9 -17 -9 5
-8 0 4 -19 17 -26 17 -28 -16 -94 -19 -38 -37 -81 -41 -96 -4 -15 -13 -30 -20
-33 -8 -3 -12 -14 -9 -25 3 -11 0 -19 -7 -19 -6 0 -14 9 -17 21 -4 16 -8 17
-14 7 -5 -8 -9 7 -9 40 0 33 4 51 10 47 6 -3 10 3 10 14 0 11 5 23 10 26 8 5
7 11 -1 21 -6 7 -16 11 -21 8 -6 -4 -4 4 2 17 18 34 24 38 15 10 -11 -35 11
-17 24 20 9 26 8 30 -4 26 -9 -4 -12 -1 -8 9 3 7 9 14 15 14 5 0 6 5 3 10 -4
6 -3 19 1 28 4 9 9 26 11 36 2 11 8 25 14 32 6 7 12 37 14 66 1 29 6 63 10 76
5 14 3 22 -4 22 -18 0 -13 21 18 80 18 35 27 66 25 85 -2 17 -4 43 -4 60 1 29
0 29 -15 10 -15 -18 -15 -17 0 13 8 17 18 32 21 32 3 0 3 -4 -1 -9 -3 -5 -1
-12 4 -15 13 -8 39 62 33 90 -2 12 -9 21 -16 20 -6 -2 -7 -1 -2 2 4 2 2 8 -5
13 -11 7 -11 9 -1 9 7 0 10 5 7 10 -3 6 -1 10 6 10 7 0 10 3 6 6 -6 6 1 17 36
55 9 10 17 27 16 37 0 15 -2 14 -10 -3 -6 -14 -7 -5 -3 29 6 60 37 122 64 131
11 3 20 10 20 15 0 5 10 10 23 13 47 8 104 -6 165 -39z m4299 -105 c1 -30 -3
-72 -9 -93 -7 -28 -6 -45 2 -60 8 -15 8 -35 2 -63 -6 -26 -6 -45 0 -51 6 -6
-2 -31 -21 -67 -24 -44 -28 -61 -20 -71 6 -8 8 -22 5 -31 -6 -15 -5 -16 5 -5
19 18 31 15 20 -5 -5 -10 -10 -22 -10 -28 -3 -24 -13 -45 -22 -45 -6 0 -7 -4
-4 -10 3 -5 2 -10 -3 -10 -5 0 -12 -8 -16 -17 -3 -10 -9 -25 -12 -33 -5 -10 0
-9 15 4 28 25 27 18 -4 -24 -14 -18 -23 -36 -20 -39 3 -2 12 4 19 15 8 10 17
16 20 13 3 -3 -10 -23 -30 -43 -20 -20 -33 -40 -30 -44 4 -3 11 0 16 8 7 11
10 11 10 2 0 -7 -6 -15 -14 -18 -19 -7 -37 -53 -34 -84 2 -20 -1 -25 -20 -25
-13 0 -26 -5 -30 -10 -9 -12 -32 -18 -32 -7 0 4 5 23 11 42 13 46 21 170 9
170 -4 0 -7 8 -5 18 2 9 4 21 4 25 1 5 9 6 20 2 22 -7 38 10 45 48 4 21 1 27
-12 27 -14 0 -15 2 -3 9 12 8 13 12 1 25 -11 14 -10 16 6 9 17 -6 18 -5 4 13
-8 10 -10 16 -6 12 5 -4 15 -3 23 3 11 10 11 15 1 27 -11 13 -10 15 5 9 9 -3
17 -2 17 3 0 6 -6 10 -12 11 -7 0 -4 4 7 9 11 5 14 9 8 9 -7 1 -13 6 -13 11 0
6 3 9 8 9 19 -3 26 2 12 11 -12 8 -11 15 8 49 23 40 18 56 -15 45 -10 -3 -7 1
7 10 14 8 19 15 12 16 -10 0 -10 5 -2 20 6 11 8 25 5 30 -3 5 -1 11 4 14 5 3
9 44 9 91 1 105 6 126 35 121 19 -3 22 -10 24 -57z m-494 24 c-6 -15 -4 -16 9
-5 13 10 21 9 47 -5 17 -10 31 -24 31 -32 0 -8 7 -19 16 -26 15 -11 15 -14 -2
-40 -11 -16 -14 -26 -8 -22 15 9 28 -23 14 -37 -7 -7 -10 -4 -11 10 -1 15 -3
14 -9 -6 -12 -39 -11 -50 5 -50 9 0 22 13 28 29 13 32 43 29 31 -2 -3 -9 -10
-15 -14 -12 -5 3 -12 -4 -15 -16 -5 -14 -13 -19 -25 -16 -19 5 -47 -38 -30
-48 4 -3 11 1 14 7 3 7 3 -6 1 -29 -2 -25 0 -43 6 -43 6 0 8 -17 5 -40 -2 -22
0 -40 5 -40 10 0 7 -31 -7 -77 -4 -15 -2 -23 6 -23 8 0 9 -6 5 -17 -4 -10 -8
-33 -9 -51 -2 -31 -1 -32 12 -15 14 17 14 17 8 -1 -4 -11 -2 -22 4 -26 6 -4 5
-13 -5 -26 -13 -18 -14 -18 -9 6 5 24 5 24 -7 5 -7 -11 -14 -33 -16 -49 -2
-17 -9 -34 -16 -38 -6 -4 -8 -8 -4 -8 4 0 2 -10 -5 -22 -6 -13 -13 -29 -14
-36 -1 -8 -6 -17 -10 -20 -4 -4 -4 1 -1 11 4 11 2 17 -6 16 -25 -3 -38 1 -32
11 3 6 2 10 -3 10 -18 0 -22 32 -7 53 8 12 15 29 15 39 0 10 4 18 8 18 9 0 11
8 13 67 0 21 8 51 16 67 9 16 10 25 3 21 -6 -4 -16 -18 -21 -32 -5 -14 -12
-23 -15 -20 -9 8 25 67 39 67 6 0 4 5 -6 11 -10 6 -25 8 -33 5 -23 -9 -16 4 9
14 l22 9 -22 7 c-28 8 -30 24 -4 24 24 0 33 23 22 53 -5 13 -7 35 -4 50 3 15
1 27 -3 27 -5 0 -10 37 -11 81 -1 56 -6 84 -15 90 -10 7 -10 9 0 9 6 0 12 9
12 20 0 11 -7 20 -15 20 -8 0 -15 -4 -15 -9 0 -6 -9 -9 -20 -8 -11 1 -20 2
-20 3 0 12 14 34 22 34 6 0 7 -7 4 -16 -3 -9 -2 -12 4 -9 6 4 9 14 8 23 -2 10
3 16 11 14 9 -2 12 4 7 21 -3 13 -3 27 1 31 11 10 13 7 6 -11z m668 -53 c10
-6 19 -20 19 -31 0 -23 16 -42 43 -52 9 -3 17 -11 17 -16 0 -14 -30 -41 -46
-41 -16 0 -19 -26 -3 -36 6 -3 8 -16 4 -28 -3 -11 -8 -36 -10 -54 -3 -31 -2
-32 13 -19 35 30 39 28 32 -14 -4 -22 -15 -48 -25 -59 -19 -21 -45 -16 -45 9
-1 14 -2 14 -14 -2 -11 -15 -18 -16 -34 -8 -17 9 -21 7 -26 -14 -4 -14 -11
-25 -17 -25 -6 0 -8 -4 -5 -9 3 -5 -1 -14 -9 -21 -8 -7 -12 -16 -9 -22 3 -5
12 -4 20 3 9 7 14 8 13 3 -1 -5 -1 -23 0 -41 1 -25 7 -33 29 -41 26 -9 28 -8
30 22 4 49 12 66 33 66 13 0 19 -7 19 -24 0 -14 -5 -28 -10 -31 -6 -4 -8 -11
-4 -16 3 -5 1 -16 -6 -24 -8 -9 -8 -15 0 -20 6 -4 8 -20 4 -41 -3 -19 -2 -40
4 -47 18 -23 -5 -77 -33 -77 -7 0 -16 -11 -19 -25 -4 -15 -11 -23 -17 -19 -8
4 -7 9 2 15 8 5 10 9 5 9 -5 0 -18 -7 -28 -17 -22 -20 -37 -9 -21 17 18 28
-11 35 -30 7 -25 -37 -30 -12 -7 34 20 38 20 43 6 51 -9 5 -16 16 -16 24 0 8
-4 13 -9 10 -4 -3 -4 14 2 37 5 23 10 67 11 97 3 62 13 103 26 95 10 -6 22 23
15 36 -3 5 -1 18 5 29 9 16 8 25 -1 36 -9 11 -9 17 1 29 6 8 9 19 6 24 -4 5
-1 13 5 16 7 5 8 27 4 65 -4 38 -3 60 4 65 6 3 9 11 5 16 -3 6 3 19 15 30 12
11 21 24 21 29 0 13 7 13 31 0z m-4181 -95 c14 -8 19 -14 12 -15 -7 0 -10 -5
-7 -10 4 -6 -1 -22 -10 -36 -9 -15 -17 -46 -18 -70 0 -34 -4 -44 -16 -44 -20
0 -44 -27 -71 -80 -19 -37 -19 -42 -5 -56 10 -11 12 -20 6 -28 -13 -15 -17
-49 -8 -63 4 -6 2 -15 -4 -19 -8 -4 -9 -3 -5 4 4 7 1 12 -8 12 -9 0 -16 -5
-16 -10 0 -6 -14 -3 -31 6 -23 11 -28 18 -19 24 7 4 10 12 6 18 -3 6 4 23 17
39 33 38 50 73 38 73 -6 0 -17 -13 -26 -30 -9 -16 -20 -30 -25 -30 -5 0 -12
-9 -15 -21 -4 -11 -9 -18 -12 -15 -3 3 10 28 28 57 19 28 33 58 31 65 -1 7 2
15 8 19 17 10 11 28 -6 21 -14 -5 -15 -4 -5 8 10 11 9 16 -5 24 -11 6 -14 16
-9 31 9 30 49 71 69 71 9 0 16 4 16 9 0 13 43 61 55 60 6 0 21 -6 35 -14z
m759 -69 c8 -10 9 -16 1 -21 -5 -3 -10 -17 -10 -31 0 -13 -9 -29 -20 -36 -13
-9 -24 -32 -32 -69 -7 -35 -16 -55 -23 -53 -6 3 -29 -3 -50 -12 -38 -15 -39
-15 -56 7 -16 21 -16 27 -3 57 7 18 13 37 11 41 -4 16 45 70 59 64 8 -3 14 0
14 7 0 13 30 46 30 33 0 -4 5 0 11 10 12 21 52 23 68 3z m-180 -347 c14 -13
21 -29 18 -40 -4 -14 5 -25 34 -41 41 -23 47 -45 11 -41 -14 2 -24 -7 -32 -27
-9 -22 -23 -33 -51 -40 -22 -6 -39 -16 -39 -22 0 -6 -11 -8 -26 -5 -22 4 -28
0 -37 -24 -6 -16 -15 -29 -20 -29 -5 0 -7 3 -5 8 59 121 66 158 32 185 -14 11
-23 26 -20 34 3 8 1 11 -4 8 -13 -8 -13 1 0 25 8 15 17 18 40 13 19 -3 30 -1
30 6 0 19 45 12 69 -10z m2529 -65 c3 3 21 -4 41 -16 41 -25 79 -58 67 -58 -4
0 2 -16 14 -36 17 -26 20 -38 11 -47 -6 -6 -11 -16 -11 -21 1 -6 10 0 21 13
11 13 22 21 26 18 3 -4 -8 -21 -26 -38 -32 -30 -37 -55 -6 -29 13 10 15 9 15
-8 0 -12 -4 -24 -10 -27 -6 -4 -7 1 -3 11 5 13 3 15 -13 6 -10 -5 -43 -13 -71
-17 -45 -6 -53 -4 -53 9 0 19 -5 20 -30 6 -13 -7 -21 -7 -25 0 -10 16 -38 12
-32 -5 4 -8 2 -17 -2 -20 -5 -2 -11 4 -14 15 -7 26 -21 25 -46 -1 -30 -32 -65
-22 -71 21 -5 35 -23 45 -47 27 -7 -5 -19 -5 -28 1 -14 7 -12 11 14 22 17 7
31 20 32 29 0 9 2 26 5 39 2 12 -3 33 -11 46 -15 22 -12 36 8 36 5 0 7 -9 4
-19 -10 -38 74 -80 95 -48 6 9 10 9 17 -2 6 -9 15 -11 27 -6 11 5 22 7 27 7
11 -3 8 12 -7 34 -8 10 -20 19 -28 19 -7 0 -14 10 -16 23 -2 14 2 22 11 22 8
0 20 7 27 15 11 14 17 13 48 -5 19 -12 37 -18 40 -16z m-3294 -419 c-10 -15
-12 -25 -5 -30 6 -3 11 0 11 7 0 8 7 23 15 34 14 18 15 16 11 -19 -2 -21 0
-40 5 -43 4 -2 5 -12 2 -21 -4 -10 -2 -14 4 -10 5 3 9 -4 8 -16 -1 -14 -8 -22
-21 -22 -13 0 -18 -6 -16 -20 2 -10 -3 -24 -11 -29 -14 -11 -47 -69 -47 -83 0
-4 12 10 25 32 30 48 33 39 5 -15 -20 -39 -16 -52 8 -28 9 9 10 5 3 -19 -5
-17 -13 -39 -19 -49 -5 -10 -13 -41 -18 -69 -10 -59 -11 -67 -14 -80 -1 -5 -2
-14 -1 -18 1 -5 -7 -20 -17 -35 -11 -16 -18 -38 -15 -54 2 -16 0 -28 -5 -28
-5 0 -17 -18 -27 -41 -15 -33 -17 -46 -8 -70 9 -23 8 -37 -5 -69 -19 -44 -37
-56 -59 -38 -11 9 -16 9 -22 0 -4 -7 -15 -10 -24 -7 -10 4 -21 -1 -29 -14 -7
-12 -19 -21 -26 -21 -23 0 -24 28 -3 51 19 21 19 24 5 40 -14 16 -14 19 7 43
17 20 28 24 47 19 19 -5 24 -3 20 8 -3 8 0 23 7 32 7 10 11 27 8 38 -4 13 2
27 16 40 20 19 26 41 23 82 -1 10 1 16 6 14 4 -3 8 15 8 39 1 24 -3 44 -7 44
-12 0 -3 51 11 62 5 4 8 5 5 2 -6 -9 23 -36 33 -30 5 3 17 24 27 47 18 39 18
41 1 51 -16 9 -16 12 -2 33 23 35 21 59 -2 46 -20 -11 -62 -4 -62 10 0 4 8 16
18 26 11 10 27 32 37 50 16 28 23 31 49 26 17 -3 28 -2 24 2 -4 5 -3 14 4 22
6 7 8 17 4 21 -4 4 -14 -2 -22 -12 -8 -11 -14 -15 -14 -9 0 7 5 15 10 18 6 4
8 10 5 15 -7 12 26 80 37 74 4 -3 1 -16 -8 -29z m3317 -2 c0 -25 1 -26 9 -8 7
15 9 16 9 4 1 -9 -5 -22 -13 -28 -8 -6 -19 -25 -26 -42 -7 -16 -15 -27 -18
-25 -6 7 -43 -65 -38 -73 3 -3 -2 -17 -10 -31 -7 -14 -13 -21 -14 -17 0 5 5
17 10 28 6 10 8 19 5 19 -19 0 -69 -75 -60 -89 6 -11 -18 -66 -34 -75 -12 -8
-8 13 7 41 20 37 13 37 -18 2 -29 -33 -40 -56 -20 -44 6 3 10 -4 10 -16 0 -18
-3 -19 -15 -9 -16 13 -35 6 -34 -13 0 -9 2 -9 6 1 7 17 20 15 20 -3 0 -8 -4
-15 -8 -15 -4 0 -15 -8 -25 -17 -16 -16 -16 -16 -9 6 5 16 4 21 -4 17 -6 -4
-11 -16 -11 -26 0 -10 -5 -22 -12 -26 -7 -4 -8 -3 -4 4 4 7 1 12 -8 12 -9 0
-16 -4 -16 -9 0 -5 -11 -8 -23 -5 -16 2 -31 -4 -46 -19 -14 -16 -31 -23 -51
-22 -16 1 -27 -2 -25 -6 9 -14 -7 -40 -21 -35 -8 3 -13 0 -11 -7 1 -6 -9 -13
-22 -15 -13 -2 -30 -10 -38 -18 -9 -9 -25 -11 -45 -7 -20 4 -29 2 -25 -4 3 -5
-7 -23 -23 -38 -17 -16 -30 -24 -30 -18 0 6 6 14 13 17 6 3 0 3 -15 0 -24 -5
-28 -3 -28 16 0 46 32 84 74 87 17 1 34 9 38 17 5 8 15 13 22 10 8 -3 25 6 39
20 14 14 27 22 30 19 3 -2 25 16 50 41 24 25 49 46 55 46 7 0 12 6 12 13 0 9
2 9 8 -1 7 -10 13 -7 27 12 10 14 24 22 29 18 6 -3 4 3 -4 13 -14 17 -13 18 4
12 23 -9 56 0 56 15 0 5 -7 8 -15 4 -13 -5 -14 -2 -4 17 15 29 24 37 16 15
-13 -38 23 -15 41 25 6 15 20 30 29 34 20 8 53 42 53 55 0 5 4 6 10 3 6 -4 7
1 3 11 -4 12 -3 15 5 10 7 -4 10 -2 7 6 -3 7 8 35 25 61 24 38 35 47 49 42 11
-3 22 -1 26 5 12 19 25 10 26 -17z m-6525 -39 c-11 -18 -24 -30 -28 -28 -4 3
-5 -1 -3 -8 3 -8 -6 -29 -20 -48 -14 -19 -25 -40 -25 -47 0 -7 -10 -13 -21
-13 -12 0 -37 -9 -55 -21 -31 -19 -33 -19 -27 -2 3 10 14 29 23 43 23 36 40
78 40 101 0 11 8 23 18 26 9 4 20 11 24 17 3 6 26 11 51 11 l44 0 -21 -31z
m213 14 c62 -14 64 -28 16 -83 -66 -77 -96 -119 -91 -131 3 -7 -3 -15 -12 -19
-9 -3 -13 -3 -10 1 4 4 1 16 -7 27 -11 15 -12 24 -3 34 6 7 7 13 4 13 -4 0 -2
8 3 18 7 13 5 26 -8 46 -18 27 -18 29 3 67 23 43 31 45 105 27z m1866 -75 c-3
-52 -2 -56 11 -39 27 38 14 2 -32 -83 -26 -47 -50 -88 -55 -89 -5 -2 -7 -8 -3
-13 3 -5 0 -9 -5 -9 -6 0 -11 2 -11 5 0 6 32 63 65 115 21 33 24 45 14 54 -9
8 -10 8 -5 -1 4 -7 3 -13 -1 -13 -5 0 -16 -15 -24 -32 -9 -18 -25 -52 -38 -74
-12 -23 -25 -58 -28 -78 -5 -32 -4 -36 13 -30 15 5 16 4 5 -4 -12 -9 -13 -13
-1 -27 10 -13 15 -13 22 -3 6 11 10 10 17 -1 5 -8 18 -12 29 -9 15 4 18 1 14
-14 -3 -15 -10 -18 -28 -14 -26 7 -31 -3 -13 -21 8 -8 7 -26 -6 -67 -13 -40
-15 -63 -8 -78 7 -17 4 -32 -15 -65 -13 -24 -30 -43 -38 -43 -12 0 -12 4 -4
20 9 16 8 20 -5 20 -8 0 -15 -7 -15 -15 0 -8 -4 -15 -9 -15 -6 0 -6 12 -1 30
9 32 2 38 -19 18 -11 -11 -12 -4 -6 37 4 28 8 73 9 100 1 28 11 68 22 90 11
22 21 58 22 80 1 22 18 74 36 115 19 41 47 105 63 142 15 37 29 68 30 68 1 0
0 -26 -2 -57z m579 -5 c-5 -8 -2 -9 10 -5 10 4 15 3 11 -3 -3 -6 -13 -10 -20
-10 -8 0 -19 -9 -25 -20 -13 -25 5 -27 19 -2 6 9 11 12 11 5 0 -6 -4 -14 -9
-17 -5 -3 -7 -20 -5 -37 4 -30 3 -30 -14 -12 -9 10 -14 14 -11 8 4 -5 5 -18 4
-27 -2 -10 1 -20 6 -24 5 -3 9 0 9 7 0 7 3 9 7 6 7 -7 -26 -77 -41 -88 -5 -4
-8 -18 -8 -33 0 -16 -5 -23 -12 -19 -7 4 -7 1 1 -8 10 -12 9 -25 -2 -64 -8
-26 -14 -60 -14 -74 1 -14 -5 -45 -14 -69 l-15 -43 32 -35 c18 -20 39 -35 47
-33 29 5 68 -12 62 -27 -3 -9 -11 -13 -17 -10 -6 2 -28 11 -49 20 -20 9 -37
13 -36 9 2 -14 -13 -53 -20 -53 -14 0 -39 -57 -44 -100 -7 -62 -15 -80 -35
-73 -13 4 -12 2 3 -11 11 -10 15 -15 9 -12 -7 3 -14 -1 -18 -9 -3 -9 0 -15 9
-15 11 0 10 -7 -6 -34 -25 -43 -41 -96 -28 -96 5 0 9 5 9 10 0 6 5 10 10 10
18 0 10 -17 -12 -28 -13 -6 -17 -11 -10 -11 7 -1 10 -6 6 -12 -4 -7 -8 -19 -9
-28 -1 -9 -5 -29 -9 -44 -6 -21 -4 -31 8 -40 14 -10 15 -16 4 -39 -7 -16 -19
-28 -26 -28 -7 0 -10 -4 -7 -10 3 -5 1 -19 -5 -30 -9 -16 -8 -25 0 -35 7 -8 8
-19 4 -26 -4 -7 -8 -39 -10 -73 -4 -71 -7 -93 -17 -102 -4 -4 -36 -7 -71 -7
-62 1 -111 16 -102 32 3 4 -5 7 -17 7 -15 -1 -23 6 -25 21 -3 19 -22 32 -58
39 -7 1 -21 11 -33 23 -12 12 -25 21 -29 21 -5 0 -18 8 -30 18 -11 9 -29 25
-40 34 -11 9 -23 14 -26 11 -3 -4 -6 -2 -6 4 0 6 -13 16 -29 23 -19 8 -29 19
-28 31 1 22 2 22 28 8 11 -6 18 -17 15 -24 -3 -8 0 -12 7 -10 7 3 26 -4 42
-15 17 -11 26 -20 21 -20 -5 0 -3 -7 4 -15 7 -8 17 -12 23 -8 6 3 7 1 3 -5 -9
-15 28 -34 50 -25 13 5 16 3 11 -10 -5 -13 0 -17 21 -18 15 -1 32 -1 38 0 6 1
14 -11 17 -26 4 -22 18 -34 61 -56 66 -32 73 -33 55 -9 -13 15 -12 16 4 3 16
-13 21 -12 40 10 12 13 24 35 25 49 2 14 10 32 16 40 21 24 24 44 11 57 -7 6
-16 9 -20 5 -4 -4 -4 11 0 33 4 22 15 46 24 53 15 12 14 15 -7 30 l-23 18 20
26 c19 23 26 78 10 78 -8 0 -3 48 9 87 7 20 7 35 1 38 -5 4 -4 15 3 28 6 12
13 52 14 89 1 37 6 73 11 80 15 20 23 48 14 48 -5 0 -14 -13 -21 -30 -7 -16
-17 -30 -22 -30 -6 0 3 24 20 53 16 28 30 60 30 70 2 19 2 24 -3 87 -2 33 4
57 22 91 16 30 23 54 18 67 -3 12 1 35 11 54 20 37 36 120 22 112 -13 -8 81
176 106 208 21 26 44 39 30 16z m4140 -11 c12 -12 14 -73 2 -84 -3 -3 0 -15 6
-27 22 -39 -3 -92 -37 -80 -19 8 -47 -36 -34 -52 7 -9 6 -21 -5 -42 -14 -26
-20 -30 -48 -25 -30 4 -73 39 -65 52 29 55 30 60 14 85 -15 23 -15 26 4 50 11
14 27 26 35 26 8 0 14 4 14 8 0 5 8 18 18 30 10 11 27 32 37 46 22 29 40 33
59 13z m-6402 -47 c18 -17 20 -23 10 -42 -17 -35 -69 -162 -68 -168 1 -10 -48
-70 -57 -70 -6 0 -29 12 -52 27 l-42 26 16 29 c9 15 21 26 28 24 7 -3 10 1 6
10 -4 12 0 15 18 12 19 -2 23 1 21 16 -3 13 1 17 12 13 10 -4 13 -1 10 7 -3 7
3 21 13 31 36 36 61 77 56 91 -7 20 4 17 29 -6z m5534 -80 c-1 -9 -9 -24 -18
-34 -10 -10 -18 -22 -18 -27 0 -5 -8 -9 -18 -9 -10 0 -24 -9 -32 -21 -8 -11
-23 -30 -32 -41 -10 -12 -18 -25 -18 -30 0 -4 -11 -8 -25 -8 -21 0 -30 -9 -45
-42 -11 -24 -20 -38 -20 -32 0 14 -33 14 -42 0 -5 -7 -8 -3 -8 8 0 18 -1 18
-19 2 -21 -19 -52 -19 -58 0 -2 6 9 14 24 17 21 4 34 17 50 50 17 35 28 46 55
52 18 4 36 7 39 7 3 -1 12 17 19 39 10 28 18 38 28 34 8 -3 23 3 34 12 10 10
24 23 31 29 19 18 74 13 73 -6z m-5353 -55 c28 -19 49 -35 45 -35 -4 0 -2 -13
3 -30 8 -23 7 -34 -4 -51 -9 -12 -13 -27 -11 -34 3 -6 -2 -18 -11 -25 -8 -7
-15 -22 -15 -34 0 -39 -12 -66 -29 -66 -9 0 -23 -9 -31 -19 -12 -18 -16 -18
-40 -6 -54 28 -61 83 -21 151 22 38 27 64 11 64 -12 0 -2 29 18 53 8 9 12 20
9 23 -6 7 10 44 19 44 3 0 28 -16 57 -35z m6342 -85 c8 0 15 5 15 10 0 6 6 10
14 10 8 0 15 -14 18 -37 6 -46 -25 -115 -47 -107 -8 4 -15 1 -15 -5 0 -6 -7
-8 -15 -5 -8 4 -15 14 -15 24 0 10 -12 27 -27 38 -26 19 -26 21 -11 44 9 14
24 33 34 42 16 16 18 16 26 2 5 -9 16 -16 23 -16z m-6884 -10 c10 -6 19 -17
19 -25 0 -8 4 -15 9 -15 5 0 16 -6 23 -14 8 -7 30 -21 48 -31 38 -19 72 -50
64 -58 -3 -3 3 -4 13 -3 12 0 19 -7 21 -21 2 -13 7 -23 12 -23 6 0 5 -10 -1
-23 -8 -18 -17 -22 -39 -19 -22 3 -29 -1 -35 -18 -4 -13 -10 -18 -14 -13 -3 6
-24 14 -47 17 -37 7 -41 10 -36 32 2 13 8 27 13 30 14 8 11 40 -5 53 -19 16
-52 -1 -61 -29 -4 -11 -11 -18 -16 -14 -5 3 -6 10 -3 16 4 7 2 8 -4 4 -6 -4
-19 6 -29 21 -10 15 -25 33 -33 40 -8 7 -11 13 -6 13 6 0 2 6 -9 13 -16 13
-17 17 -4 45 12 29 18 32 57 32 24 0 52 -5 63 -10z m2905 -130 c3 0 1 6 -5 13
-14 17 -2 30 14 17 10 -8 7 -21 -10 -58 -87 -178 -114 -262 -85 -262 5 0 10
-7 10 -16 0 -8 5 -12 10 -9 6 3 10 -1 10 -11 0 -13 -3 -14 -14 -5 -19 16 -30
-2 -22 -34 4 -15 0 -29 -10 -39 -8 -9 -12 -16 -8 -16 4 0 0 -8 -9 -18 -16 -18
-7 -55 10 -39 4 5 1 12 -7 17 -8 6 -10 10 -5 10 11 0 41 53 48 85 4 18 5 17 6
-3 0 -13 -6 -37 -15 -53 -16 -31 -12 -65 6 -54 5 3 10 1 10 -5 0 -7 -7 -10
-15 -6 -8 3 -15 1 -15 -3 0 -15 33 -22 42 -9 5 8 7 2 6 -17 -1 -16 -8 -36 -14
-42 -7 -7 -14 -18 -17 -25 -4 -10 -7 -11 -18 0 -7 6 -16 12 -20 12 -16 0 -34
-56 -29 -85 4 -19 0 -43 -12 -67 -20 -41 -23 -68 -8 -68 12 0 5 -40 -17 -92
-13 -31 -14 -40 -3 -54 12 -13 11 -17 -1 -25 -8 -5 -11 -9 -7 -9 4 0 3 -12 -2
-26 -6 -15 -6 -23 -1 -19 5 3 11 -5 13 -17 2 -13 9 -22 15 -21 7 2 10 -4 7
-12 -7 -17 -24 -20 -24 -4 0 5 -5 7 -12 3 -9 -6 -9 -9 0 -12 8 -2 8 -8 -3 -19
-16 -16 -21 -38 -6 -28 5 3 12 1 16 -5 3 -5 -1 -10 -10 -10 -8 0 -18 -7 -21
-15 -5 -11 -11 -12 -25 -5 -16 9 -17 14 -6 31 10 17 9 22 -5 30 -16 9 -16 14
-5 42 8 18 13 47 11 65 -1 17 1 32 5 32 4 0 8 7 8 15 0 27 -16 16 -26 -17 -5
-18 -10 -26 -10 -18 -1 8 4 31 10 50 5 19 12 44 15 55 5 22 7 124 2 146 -3 14
-49 31 -78 29 -79 -6 -92 0 -65 30 10 11 13 20 7 20 -17 0 -15 16 4 35 19 18
37 85 23 85 -5 0 -9 -12 -9 -27 -1 -29 -36 -81 -47 -69 -4 3 3 13 15 22 14 10
22 26 22 44 0 16 5 32 10 35 6 3 10 23 11 43 0 20 3 31 6 25 5 -14 43 -18 43
-5 -1 12 -29 58 -30 47 0 -5 -7 0 -15 12 -18 26 -10 83 12 83 39 0 97 -51 100
-89 3 -32 42 -58 44 -28 0 6 2 20 4 31 2 10 0 28 -5 40 -5 11 -9 15 -9 8 -1
-7 -5 -10 -11 -7 -11 7 19 75 33 75 5 0 6 -7 3 -16 -6 -14 -4 -15 9 -4 14 12
14 15 2 22 -9 5 -13 16 -10 28 3 11 9 18 13 15 4 -3 8 5 8 18 -1 12 9 46 20
75 11 28 16 52 11 52 -5 0 -9 10 -9 23 -1 21 -1 22 -15 3 -24 -32 -17 -11 13
41 16 26 31 56 35 65 6 17 10 16 51 -7 25 -14 48 -25 52 -25z m2638 31 c18
-28 -46 -121 -93 -136 -11 -3 -23 -14 -26 -24 -3 -11 -18 -21 -33 -23 -15 -3
-35 -9 -44 -13 -14 -5 -18 -2 -18 11 0 22 29 105 30 87 0 -21 30 -2 31 21 0
11 3 15 6 9 6 -15 43 1 56 24 5 7 13 10 19 7 7 -4 8 -2 4 4 -5 8 0 12 14 12
11 0 23 7 26 15 7 17 20 20 28 6z m-290 -47 c15 -6 15 -8 -1 -21 -17 -13 -16
-13 7 -7 25 7 25 7 6 -15 -11 -11 -24 -21 -31 -21 -7 0 -21 -19 -31 -42 -28
-63 -55 -88 -96 -88 -23 0 -45 -9 -64 -25 -43 -37 -49 -30 -8 9 22 21 32 39
28 49 -3 9 -11 14 -18 11 -7 -3 -12 4 -12 16 0 21 15 29 17 8 0 -10 2 -10 6
-1 2 7 -3 21 -13 30 -17 17 -16 18 9 27 15 6 27 13 27 17 0 3 18 3 40 -1 34
-6 40 -5 46 12 4 15 12 18 29 14 18 -5 25 -1 30 14 7 22 7 22 29 14z m1850
-68 c-4 -16 0 -25 15 -32 25 -11 15 -31 -19 -35 -18 -3 -30 -15 -42 -42 -11
-24 -22 -36 -29 -31 -8 4 -9 3 -5 -4 13 -21 -22 -72 -49 -72 -14 0 -25 -4 -25
-10 0 -5 -4 -10 -10 -10 -13 0 -65 -52 -73 -73 -3 -9 -12 -17 -19 -17 -9 0 -8
3 2 10 9 6 10 10 3 10 -18 0 -54 -42 -49 -57 3 -7 1 -13 -5 -13 -6 0 -7 -4 -4
-10 3 -5 2 -10 -4 -10 -5 0 -12 -12 -14 -27 -4 -25 -4 -25 -2 2 1 17 6 39 10
49 6 13 5 17 -3 12 -6 -4 -14 -23 -17 -44 -12 -65 -16 -76 -26 -61 -7 12 -9
11 -9 -1 0 -13 -1 -13 -10 0 -9 13 -10 13 -10 0 0 -10 -3 -11 -8 -3 -9 14 -72
-10 -72 -28 0 -9 -3 -9 -14 0 -11 9 -18 8 -31 -6 -21 -20 -42 -25 -51 -11 -9
15 -49 -34 -46 -55 3 -16 -1 -19 -20 -14 -17 5 -29 0 -41 -14 -14 -16 -21 -18
-38 -8 -17 8 -23 8 -30 -2 -4 -7 -5 -17 -2 -23 4 -5 -1 -7 -10 -3 -10 3 -17 2
-17 -4 0 -7 -14 -8 -39 -4 -27 4 -42 2 -53 -8 -8 -9 -20 -12 -27 -8 -9 6 -8
11 3 20 8 7 19 10 25 7 5 -3 11 1 15 9 3 8 12 15 21 15 8 0 15 5 15 10 0 6
-10 10 -22 10 -45 0 -53 14 -32 56 11 23 27 40 39 42 17 3 18 1 5 -8 -12 -10
-11 -11 5 -5 11 4 28 7 38 7 9 0 15 4 11 9 -4 7 7 8 30 4 24 -5 36 -3 36 4 0
6 9 11 19 11 28 0 52 11 46 20 -3 5 10 6 28 3 24 -3 38 0 51 12 9 10 20 15 23
12 9 -10 43 12 43 28 0 16 54 57 64 48 3 -3 6 -1 6 5 0 5 -6 12 -12 15 -10 3
-10 11 -1 37 16 44 9 51 -12 11 -8 -17 -18 -31 -21 -31 -2 0 3 14 11 31 15 29
15 32 -2 45 -17 12 -16 13 9 14 30 0 79 19 90 35 28 40 43 55 54 55 25 0 28
38 9 111 -4 16 -2 30 5 34 17 10 41 -15 35 -36 -4 -11 -2 -19 4 -19 5 0 13 -9
16 -20 7 -22 -30 -78 -52 -79 -14 -1 -15 -4 -18 -41 -2 -22 3 -25 32 -27 19
-2 33 2 33 8 0 6 7 9 14 6 10 -4 13 -1 10 8 -4 8 8 20 31 31 20 9 42 28 50 43
22 40 52 71 67 71 16 0 42 65 32 81 -3 6 5 3 20 -6 19 -13 24 -23 20 -39z
m-3024 -161 c0 -19 -4 -35 -8 -35 -5 0 -8 14 -7 30 1 17 -2 30 -7 30 -7 0 -9
-10 -12 -82 -2 -25 -23 -79 -84 -208 -14 -30 -27 -62 -28 -71 -4 -46 -31 -132
-59 -190 -24 -51 -30 -71 -22 -84 7 -13 5 -27 -6 -49 -13 -26 -24 -55 -32 -86
-1 -3 -6 -14 -10 -24 -6 -13 -5 -21 3 -24 8 -2 8 -12 -3 -33 -9 -16 -13 -29
-10 -29 3 0 -2 -12 -11 -26 -10 -14 -18 -37 -20 -52 -1 -15 -3 -27 -4 -27 -1
0 -3 -8 -5 -17 -2 -10 3 -18 11 -18 19 0 18 -30 -2 -58 -8 -12 -12 -22 -9 -22
3 0 1 -10 -6 -22 -6 -11 -11 -39 -11 -61 1 -29 -2 -37 -10 -29 -11 11 5 111
27 167 l7 20 -14 -20 c-15 -21 -38 -111 -38 -151 0 -13 -16 -55 -35 -93 -38
-75 -42 -91 -21 -91 17 0 29 27 14 32 -8 3 -6 13 6 29 17 23 18 23 11 2 -3
-12 -1 -31 5 -43 6 -11 7 -20 2 -20 -14 0 -33 -48 -22 -55 6 -4 15 -3 20 0 6
3 10 1 10 -5 0 -19 68 -41 107 -34 35 7 35 6 18 -14 -16 -18 -21 -19 -49 -7
-108 45 -136 60 -136 72 0 13 -89 63 -114 63 -8 0 -21 6 -29 14 -7 8 -31 14
-53 13 -21 0 -51 2 -66 5 -39 9 -109 53 -101 63 5 4 2 5 -4 1 -29 -16 -109 51
-100 84 6 24 -20 41 -33 20 -4 -7 -20 -12 -35 -12 -24 0 -39 5 -95 32 -8 4
-31 5 -51 2 -29 -3 -40 1 -52 18 -18 26 -105 39 -118 18 -6 -10 -35 1 -116 43
-119 63 -171 79 -183 58 -7 -10 -17 -9 -50 6 -63 29 -110 69 -100 85 5 8 6 18
4 22 -3 4 1 5 9 2 9 -3 13 -13 9 -26 -6 -24 33 -59 57 -50 9 3 12 1 7 -6 -7
-12 8 -17 29 -12 6 2 18 2 28 2 11 0 15 4 11 11 -5 8 -3 8 7 0 15 -15 33 -18
25 -5 -3 5 1 9 9 9 12 0 12 -3 2 -15 -10 -13 -8 -15 20 -9 18 3 35 3 37 -2 3
-5 26 -12 51 -15 25 -4 58 -18 74 -32 30 -25 131 -48 118 -27 -4 6 2 21 12 34
10 13 28 42 39 65 19 37 19 43 6 56 -14 14 -14 19 0 53 19 44 19 45 6 45 -5 0
-12 -16 -16 -35 -3 -19 -11 -38 -17 -42 -6 -4 -8 0 -4 10 3 8 9 31 12 51 5 24
11 33 21 29 12 -4 12 0 4 21 -7 20 -7 25 2 20 7 -5 9 -2 5 9 -6 16 16 72 33
82 13 8 24 -16 22 -47 -1 -15 2 -28 8 -28 5 0 10 -5 10 -11 0 -5 -4 -8 -8 -5
-4 2 -8 -7 -7 -22 0 -15 -8 -42 -18 -59 -24 -41 -28 -80 -11 -94 13 -11 8 -43
-6 -34 -4 3 -6 -15 -3 -40 2 -24 -1 -54 -7 -66 -8 -15 -9 -19 -1 -15 6 4 11 3
11 -3 0 -9 41 -27 48 -22 2 2 14 -4 27 -13 41 -27 68 -26 96 5 15 15 24 30 21
33 -3 3 0 6 6 6 17 0 15 35 -3 50 -14 12 -13 16 6 36 18 19 20 26 9 39 -9 11
-9 15 -1 15 7 0 9 5 6 10 -3 6 1 10 10 10 10 0 13 -5 9 -12 -4 -7 -3 -8 5 -4
6 4 9 11 6 16 -3 5 2 21 11 35 9 14 14 32 10 40 -6 18 -2 19 24 5 12 -7 17
-16 13 -26 -4 -11 3 -23 18 -35 22 -17 23 -20 10 -51 -7 -18 -16 -46 -21 -63
-6 -26 -8 -28 -15 -11 -6 13 -2 32 12 58 26 46 13 51 -14 5 -12 -19 -17 -40
-13 -52 3 -10 3 -41 -1 -68 -7 -41 -5 -52 8 -62 19 -14 8 -39 -13 -31 -8 3
-14 0 -14 -7 0 -7 30 -27 66 -45 63 -32 70 -30 35 12 -15 18 -15 18 14 4 75
-38 143 -68 154 -68 7 0 9 -5 5 -12 -4 -7 -3 -8 4 -4 6 4 21 2 33 -4 15 -9 24
-9 32 -1 17 17 26 13 20 -9 -10 -40 16 -19 48 38 18 31 35 59 39 62 3 3 14 24
24 48 l19 42 -24 28 c-13 15 -20 24 -15 20 5 -4 15 -3 23 3 10 9 11 15 2 26
-10 11 -9 12 5 7 12 -5 16 0 16 17 0 12 7 31 17 41 9 10 13 21 10 25 -4 4 -14
-2 -23 -13 -14 -17 -14 -16 0 9 14 24 15 27 1 27 -8 0 -15 5 -15 11 0 5 6 7
13 3 9 -6 9 -4 -1 8 -11 14 -10 23 7 55 11 22 27 46 37 54 12 10 9 -1 -10 -38
-34 -68 -33 -79 2 -22 38 62 55 111 41 120 -8 5 -5 26 10 74 13 43 18 73 12
83 -11 19 0 56 32 119 27 52 39 89 43 141 2 18 19 58 38 90 35 56 72 142 83
191 3 13 14 26 24 28 10 3 21 14 24 24 11 33 45 5 45 -36z m507 24 c9 -9 8
-19 -3 -40 -19 -37 -238 -149 -255 -132 -15 15 -5 42 18 49 55 18 72 27 76 44
7 26 97 89 128 90 14 0 30 -5 36 -11z m-767 -62 c0 -7 -5 -18 -10 -23 -7 -7
-8 -19 -1 -37 7 -17 7 -28 0 -32 -5 -4 -7 -10 -4 -15 3 -5 -9 -34 -26 -65 -27
-49 -30 -61 -22 -93 8 -32 5 -45 -20 -97 -21 -41 -27 -64 -20 -74 6 -10 3 -27
-12 -55 -26 -50 -36 -76 -29 -76 3 0 15 23 28 50 16 35 25 46 29 35 4 -8 2
-15 -4 -15 -6 0 -7 -4 -4 -10 3 -5 1 -10 -5 -10 -6 0 -8 -4 -5 -10 3 -5 2 -10
-2 -10 -5 0 -17 -16 -28 -36 -10 -19 -28 -45 -38 -57 -10 -12 -25 -30 -32 -41
-7 -10 -18 -15 -24 -11 -15 9 -14 38 2 54 10 11 9 12 -3 6 -12 -7 -13 -6 -3 6
10 13 10 19 -1 34 -12 17 -9 29 28 105 22 47 46 88 51 92 6 4 6 8 1 8 -5 0 -3
7 4 15 15 18 -1 20 -18 3 -7 -7 -12 -9 -12 -5 0 4 9 16 20 27 11 11 20 28 20
37 0 9 8 25 17 35 10 11 18 36 19 56 1 20 11 62 23 92 11 30 21 60 21 67 0 13
41 63 53 63 4 0 7 -6 7 -13z m1824 -81 c-9 -36 42 -76 61 -47 3 6 18 6 36 1
18 -5 40 -5 55 1 34 12 44 11 38 -5 -3 -8 -15 -11 -30 -8 -14 2 -24 0 -24 -7
0 -7 -13 -10 -35 -7 -27 4 -37 0 -46 -15 -5 -11 -15 -19 -22 -18 -27 3 -47 -2
-47 -11 0 -5 -9 -19 -20 -30 -11 -11 -20 -23 -20 -28 0 -10 51 -31 82 -34 18
-2 24 -6 20 -17 -4 -10 -7 -11 -10 -3 -4 14 -52 16 -52 2 0 -5 -7 -10 -15 -10
-8 0 -15 -7 -15 -15 0 -28 -23 -66 -37 -60 -8 2 -25 -2 -39 -11 -15 -11 -24
-12 -24 -5 0 9 -5 9 -21 0 -18 -9 -19 -13 -8 -21 9 -6 2 -7 -22 -4 -30 5 -38
2 -42 -13 -6 -26 -47 -35 -47 -11 0 11 -4 21 -10 25 -5 3 -7 12 -3 20 3 9 0
21 -6 29 -9 11 -6 14 16 14 16 0 33 -4 38 -8 6 -4 22 -10 37 -14 21 -5 28 -2
33 15 5 16 12 19 30 15 18 -5 25 -1 30 14 3 11 10 20 14 20 4 0 8 15 7 33 -1
33 -18 43 -43 24 -7 -5 -22 -6 -34 -2 -14 5 -25 2 -30 -6 -10 -16 -31 -19 -41
-5 -4 6 -13 5 -22 -3 -21 -17 -21 -7 0 13 12 12 20 13 35 6 18 -10 20 -9 18 6
-1 12 26 24 43 18 11 -3 19 2 23 16 4 11 11 18 16 15 5 -4 9 1 9 11 0 13 7 15
34 12 25 -3 33 0 32 12 -1 9 6 14 17 12 24 -4 45 42 27 63 -13 16 -7 45 10 45
6 0 8 -10 4 -24z m-945 -65 c11 -19 -6 -81 -21 -81 -5 0 -38 -18 -73 -39 -75
-46 -155 -64 -155 -36 0 31 95 110 190 157 44 22 47 22 59 -1z m-1763 -91 c16
14 37 3 31 -15 -4 -8 3 -11 17 -10 15 2 22 -3 22 -16 0 -11 -4 -19 -8 -19 -4
0 -8 5 -8 11 0 5 -5 7 -11 3 -6 -3 -7 -9 -3 -13 5 -3 9 -12 10 -18 5 -63 3
-60 19 -39 8 11 15 16 15 12 0 -4 -9 -19 -20 -33 -11 -14 -17 -29 -14 -34 15
-25 11 -57 -14 -102 l-27 -50 -8 39 c-4 21 -8 89 -10 151 -1 61 -5 115 -9 119
-5 4 -8 12 -7 18 0 6 3 5 6 -2 4 -10 8 -10 19 -2z m1247 -181 c17 -19 17 -25
4 -70 -8 -27 -10 -46 -5 -43 5 3 12 -3 15 -15 3 -12 12 -21 19 -21 8 0 14 -7
14 -15 0 -20 -35 -76 -43 -68 -4 3 -7 -2 -7 -13 0 -16 -2 -17 -10 -4 -9 13
-14 10 -35 -14 -22 -28 -32 -86 -13 -86 4 0 8 -5 8 -12 0 -6 -3 -8 -7 -4 -4 4
-13 -13 -20 -36 -17 -56 -16 -70 3 -35 26 48 25 29 -1 -23 -14 -28 -23 -55
-20 -60 3 -5 -1 -7 -9 -4 -14 5 -14 8 -1 27 17 24 19 37 7 37 -14 0 -29 -56
-21 -78 6 -15 -1 -39 -27 -87 -19 -36 -32 -70 -29 -75 3 -5 1 -11 -4 -15 -6
-3 -10 -25 -9 -48 0 -24 -7 -58 -16 -76 -10 -18 -19 -56 -20 -86 -2 -29 -6
-58 -10 -63 -8 -13 34 -54 49 -48 5 2 9 8 8 14 -2 7 4 9 14 5 11 -4 13 -8 5
-11 -7 -2 -12 -10 -12 -18 0 -18 -54 -19 -72 0 -19 18 -74 46 -80 40 -3 -2 0
11 6 31 6 19 14 35 18 35 4 0 2 14 -4 31 -8 24 -8 33 3 40 7 4 10 11 7 14 -7
7 26 78 48 105 24 29 21 64 -7 92 -15 14 -25 29 -22 31 2 3 0 8 -6 12 -6 3
-11 1 -11 -6 0 -7 -3 -10 -6 -7 -7 7 13 47 35 68 13 13 14 13 8 -4 -7 -17 -6
-17 10 -5 15 12 16 12 11 -7 -8 -32 27 -19 41 14 19 47 18 75 -4 86 -11 6 -20
16 -20 21 1 15 38 75 47 75 12 0 10 -8 -8 -35 -9 -14 -12 -25 -8 -25 5 0 16
13 26 29 14 26 14 30 1 35 -11 5 -12 10 -5 19 6 6 9 29 8 50 -1 20 3 37 7 37
5 0 7 -23 5 -50 -1 -28 0 -50 5 -50 4 0 7 24 7 53 0 40 8 67 34 115 19 34 30
62 26 62 -4 0 -21 -26 -38 -57 -16 -31 -36 -59 -43 -61 -10 -3 -10 -1 1 7 8 6
11 11 5 11 -6 0 -5 3 1 8 17 11 58 95 56 112 -2 12 -1 12 6 1 14 -19 20 -2 16
42 -2 29 2 43 19 60 12 12 21 25 20 30 -5 14 13 7 30 -14z m562 0 c4 -6 22 -8
46 -4 31 5 40 3 45 -9 10 -27 -20 -59 -110 -115 -66 -41 -90 -51 -98 -43 -15
15 -48 15 -48 1 0 -8 -5 -8 -15 1 -23 19 -19 67 8 82 12 7 26 11 31 10 5 -2
25 12 45 31 54 52 84 66 96 46z m145 -169 c11 -11 22 -31 26 -45 7 -30 -20
-95 -40 -95 -8 0 -19 -6 -25 -14 -7 -8 -32 -23 -55 -35 -55 -25 -103 -19 -130
17 l-20 26 75 69 c64 60 116 95 142 97 4 0 16 -9 27 -20z m-2810 -210 c8 -5
12 -10 8 -10 -8 0 18 -35 40 -54 7 -6 21 -18 31 -27 24 -21 47 -29 57 -19 13
13 16 -106 4 -151 -6 -22 -15 -37 -20 -34 -4 3 -10 0 -12 -7 -5 -15 -98 50
-98 69 0 7 -9 18 -20 25 -12 8 -20 24 -20 40 0 16 -4 28 -9 28 -16 0 -19 64
-5 92 9 17 10 29 4 33 -13 8 -3 25 13 25 7 0 19 -5 27 -10z m3038 -42 c3 -23
-3 -30 -40 -49 -24 -12 -60 -35 -81 -52 -21 -16 -41 -27 -44 -23 -3 3 -13 0
-21 -6 -11 -10 -17 -8 -28 7 -8 10 -14 25 -14 33 0 7 -4 10 -10 7 -5 -3 -10
-4 -10 -2 0 7 94 69 145 96 22 12 53 20 70 19 24 -2 31 -8 33 -30z m100 -145
c0 -5 2 -16 7 -27 8 -19 -20 -87 -71 -168 l-26 -41 -14 33 c-8 18 -13 46 -12
63 1 17 -2 32 -8 34 -6 2 -20 10 -30 19 -15 11 -15 14 -3 12 8 -2 30 11 47 29
23 22 38 30 53 26 14 -4 25 0 31 11 9 16 29 23 26 9z m-2468 -127 c0 -18 86
-45 131 -41 52 5 64 -6 39 -35 -11 -13 -20 -30 -20 -39 0 -25 -73 -132 -83
-122 -5 5 -5 17 1 27 8 16 9 51 3 130 -1 6 -27 23 -60 38 -65 29 -86 48 -77
71 5 14 9 14 36 0 16 -8 30 -22 30 -29z m2247 -615 c30 -16 23 -90 -18 -174
-24 -48 -36 -55 -70 -36 -19 10 -19 10 1 39 23 32 26 60 8 78 -10 10 -10 15 1
21 7 5 11 13 7 19 -3 6 -2 13 3 17 7 4 7 15 1 31 -6 14 -10 27 -10 29 0 5 54
-11 77 -24z"/>
<path d="M6549 7982 c-21 -25 -34 -102 -17 -102 30 -1 40 -16 27 -43 -7 -15
-16 -27 -21 -27 -11 0 -10 7 2 31 7 12 7 19 1 19 -17 0 -23 -40 -10 -69 11
-25 18 -29 46 -26 18 1 33 -1 33 -5 0 -5 9 -6 20 -3 11 3 17 9 14 14 -3 5 -10
6 -16 3 -8 -5 -9 -1 -5 10 4 10 10 36 14 59 3 23 9 44 13 47 5 3 10 16 11 29
3 20 -5 30 -41 52 -55 33 -52 33 -71 11z"/>
</g>
</svg>
