<?xml version="1.0" standalone="no"?>
<!DOCTYPE svg PUBLIC "-//W3C//DTD SVG 20010904//EN"
 "http://www.w3.org/TR/2001/REC-SVG-20010904/DTD/svg10.dtd">
<svg version="1.0" xmlns="http://www.w3.org/2000/svg"
 width="1277.000000pt" height="583.000000pt" viewBox="0 0 1277.000000 583.000000"
 preserveAspectRatio="xMidYMid meet">
<metadata>
Created by potrace 1.16, written by Peter Selinger 2001-2019
</metadata>
<g transform="translate(0.000000,583.000000) scale(0.100000,-0.100000)"
fill="#000000" stroke="none">
<path d="M9550 4825 c-7 -9 -20 -13 -27 -10 -25 9 -93 -6 -93 -21 0 -8 -7 -14
-15 -14 -9 0 -19 -9 -23 -21 -4 -11 -19 -25 -32 -32 -19 -10 -34 -44 -82 -187
-59 -177 -67 -215 -47 -222 19 -6 -11 -88 -31 -88 -10 0 -23 -7 -30 -14 -9
-11 -18 -13 -38 -5 -20 8 -28 7 -34 -6 -5 -8 -18 -15 -28 -15 -10 0 -21 -4
-25 -10 -4 -6 -15 -6 -32 1 -21 8 -29 7 -36 -6 -6 -12 -17 -14 -44 -9 -19 4
-38 3 -42 -2 -13 -19 -52 -34 -74 -29 -15 4 -28 1 -36 -9 -7 -8 -19 -12 -27
-9 -8 3 -17 -2 -20 -12 -5 -13 -14 -15 -40 -11 -19 4 -35 2 -39 -4 -4 -6 -13
-9 -21 -6 -8 3 -17 -1 -21 -10 -4 -12 -14 -14 -38 -10 -25 5 -34 3 -39 -9 -4
-11 -13 -14 -26 -10 -12 4 -20 2 -20 -6 0 -8 -11 -10 -34 -6 -25 4 -36 1 -40
-9 -3 -8 -15 -14 -26 -14 -11 0 -20 -5 -20 -11 0 -8 -12 -10 -35 -6 -19 3 -37
1 -41 -4 -3 -6 -18 -7 -34 -4 -18 4 -39 -1 -63 -14 -26 -14 -46 -18 -71 -14
-24 4 -36 2 -36 -6 0 -6 -7 -11 -15 -11 -7 0 -18 -7 -23 -16 -7 -13 -15 -15
-38 -7 -30 10 -84 -8 -84 -28 0 -6 -15 -7 -36 -3 -20 4 -39 3 -43 -2 -15 -22
-54 -34 -86 -28 -23 4 -35 2 -35 -5 0 -6 -9 -11 -20 -11 -12 0 -20 -7 -20 -16
0 -13 -7 -15 -39 -9 -24 4 -41 2 -46 -4 -3 -6 -16 -9 -28 -5 -23 5 -75 -16
-87 -36 -5 -7 -15 -8 -33 -1 -27 10 -72 -4 -87 -29 -5 -8 -15 -8 -35 0 -22 8
-31 7 -45 -5 -9 -8 -21 -15 -27 -15 -6 0 -13 -5 -15 -12 -3 -8 -12 -9 -37 0
-26 9 -33 9 -38 -3 -3 -8 -12 -15 -20 -15 -9 0 -21 -7 -27 -16 -10 -12 -17
-13 -41 -4 -21 8 -31 8 -33 1 -2 -6 -9 -11 -15 -11 -6 0 -18 -7 -28 -16 -14
-13 -24 -14 -48 -6 -24 8 -31 8 -35 -5 -5 -11 -15 -14 -41 -9 -22 4 -35 3 -35
-4 0 -5 -8 -10 -18 -10 -10 0 -23 -5 -30 -12 -9 -9 -21 -8 -52 1 -36 11 -43
10 -69 -10 -23 -17 -37 -20 -64 -15 -24 5 -38 2 -47 -9 -7 -8 -16 -13 -20 -10
-4 3 -11 -2 -14 -11 -5 -12 -15 -14 -46 -9 -28 5 -40 3 -40 -5 0 -7 -7 -10
-15 -6 -9 3 -15 0 -15 -10 0 -14 -8 -15 -45 -10 -28 5 -45 3 -45 -3 0 -18 -55
-38 -80 -29 -16 6 -28 4 -39 -5 -16 -14 -51 -31 -61 -30 -3 1 -15 4 -26 7 -16
5 -23 2 -27 -14 -3 -14 -10 -18 -22 -14 -9 4 -21 -1 -29 -11 -7 -10 -18 -15
-24 -11 -6 3 -14 1 -17 -5 -5 -6 -20 -8 -40 -5 -25 5 -34 3 -39 -9 -3 -9 -10
-14 -15 -11 -5 4 -16 -1 -24 -9 -10 -10 -25 -13 -45 -9 -17 3 -32 1 -36 -5 -4
-5 -13 -8 -21 -5 -9 4 -18 -1 -21 -11 -5 -13 -14 -15 -39 -11 -25 5 -34 3 -39
-10 -3 -9 -13 -14 -21 -10 -8 3 -17 0 -21 -5 -4 -6 -20 -8 -39 -5 -24 5 -34 2
-39 -9 -3 -8 -15 -15 -26 -15 -11 0 -20 -4 -20 -10 0 -5 -9 -10 -20 -10 -11 0
-20 -4 -20 -10 0 -5 -8 -10 -19 -10 -10 0 -24 -7 -31 -14 -8 -11 -18 -12 -36
-6 -19 8 -26 6 -30 -5 -4 -8 -17 -15 -29 -15 -13 0 -26 -4 -30 -10 -3 -5 -12
-7 -20 -4 -11 4 -21 -17 -42 -87 -19 -62 -34 -93 -45 -97 -9 -2 -19 -10 -22
-18 -3 -8 -14 -14 -25 -14 -11 0 -23 -5 -27 -11 -3 -6 -19 -9 -35 -5 -15 3
-31 1 -34 -4 -3 -6 -15 -10 -26 -10 -10 0 -19 -5 -19 -11 0 -8 -13 -9 -40 -5
-32 5 -40 3 -40 -9 0 -9 -9 -15 -24 -15 -14 0 -27 -4 -31 -10 -3 -5 -12 -7
-19 -4 -9 4 -16 -4 -20 -23 -6 -27 -52 -63 -81 -63 -8 0 -19 -18 -25 -41 -11
-39 -13 -41 -42 -35 -22 4 -34 1 -42 -10 -9 -12 -17 -13 -39 -5 -26 10 -29 9
-39 -20 -10 -28 -14 -30 -41 -25 -30 6 -87 -11 -87 -26 0 -5 -8 -8 -19 -8 -10
0 -24 -6 -31 -14 -6 -8 -17 -13 -25 -10 -9 4 -20 -16 -35 -60 -17 -51 -26 -66
-41 -66 -10 0 -19 -5 -19 -11 0 -6 -7 -9 -15 -5 -8 3 -19 -2 -23 -11 -7 -12
-18 -14 -40 -10 -23 5 -34 2 -40 -9 -6 -10 -26 -16 -61 -18 -30 -1 -56 -8 -61
-16 -6 -10 -15 -10 -40 -1 -41 14 -40 14 -40 -4 0 -8 -9 -15 -19 -15 -11 0
-21 -5 -23 -12 -3 -8 -12 -9 -35 0 -25 8 -34 8 -44 -4 -6 -8 -16 -14 -22 -14
-5 0 -15 -7 -21 -16 -9 -12 -17 -13 -40 -4 -20 7 -32 7 -41 0 -7 -6 -24 -8
-37 -5 -16 4 -29 1 -37 -9 -7 -8 -18 -13 -25 -10 -8 3 -16 -2 -20 -12 -5 -12
-14 -15 -40 -10 -20 4 -37 2 -41 -4 -3 -5 -15 -10 -26 -10 -10 0 -19 -5 -19
-11 0 -7 -12 -9 -34 -5 -25 5 -35 3 -39 -8 -4 -11 -15 -13 -40 -9 -20 3 -37 1
-41 -5 -4 -6 -13 -9 -20 -6 -7 3 -16 -2 -20 -11 -4 -13 -13 -15 -32 -11 -15 4
-32 2 -40 -5 -8 -6 -27 -9 -44 -5 -17 3 -30 1 -30 -4 0 -6 -11 -10 -25 -10
-14 0 -25 -5 -25 -11 0 -7 -12 -9 -34 -5 -25 5 -35 3 -40 -9 -3 -8 -14 -15
-25 -15 -11 0 -22 -4 -26 -10 -4 -6 -15 -6 -32 1 -20 7 -28 6 -38 -7 -10 -14
-17 -15 -43 -6 -19 7 -32 7 -32 1 0 -5 -9 -9 -20 -9 -12 0 -20 -7 -20 -16 0
-13 -7 -15 -38 -9 -29 4 -42 2 -51 -9 -7 -9 -17 -13 -22 -10 -5 3 -9 0 -9 -7
0 -8 -12 -10 -39 -5 -27 4 -42 2 -50 -8 -7 -8 -21 -12 -32 -9 -18 5 -38 -1
-91 -28 -10 -5 -28 -5 -43 1 -20 7 -25 6 -25 -5 0 -9 -10 -15 -25 -15 -14 0
-25 -5 -25 -11 0 -8 -12 -10 -35 -6 -19 3 -37 1 -41 -4 -3 -6 -18 -7 -33 -4
-19 4 -32 1 -41 -9 -7 -9 -16 -14 -20 -11 -5 3 -15 -2 -24 -10 -10 -10 -24
-13 -41 -9 -14 3 -31 1 -39 -5 -9 -8 -22 -8 -39 -2 -19 8 -27 6 -31 -5 -3 -8
-13 -14 -22 -14 -9 0 -22 -7 -28 -16 -9 -11 -18 -13 -36 -6 -18 7 -29 6 -38
-4 -6 -7 -18 -11 -26 -8 -7 3 -16 -2 -20 -11 -4 -12 -14 -14 -39 -10 -26 5
-36 3 -40 -9 -5 -12 -12 -13 -37 -5 -26 10 -35 8 -63 -13 -26 -21 -37 -23 -60
-15 -23 7 -31 6 -42 -9 -10 -14 -26 -19 -62 -19 -28 0 -52 -5 -58 -13 -8 -10
-17 -11 -38 -3 -23 9 -29 8 -34 -5 -4 -12 -14 -14 -39 -10 -19 4 -35 2 -39 -4
-4 -6 -13 -9 -20 -6 -9 3 -18 -7 -25 -30 -8 -23 -18 -34 -31 -34 -29 0 -66
-28 -73 -55 -3 -13 -8 -30 -12 -38 -6 -17 52 -42 61 -26 4 5 14 9 25 9 10 0
21 7 24 15 4 12 14 14 41 9 24 -4 35 -3 35 6 0 8 12 10 39 5 25 -4 41 -2 46 5
4 6 16 8 27 4 22 -7 66 12 84 35 8 11 18 12 40 4 30 -11 61 -1 77 25 5 8 21
10 48 6 28 -5 39 -3 39 6 0 9 10 10 34 6 21 -4 37 -2 41 4 4 6 13 9 21 6 8 -3
17 1 21 10 4 12 14 14 39 10 18 -4 35 -2 39 4 3 5 15 10 26 10 10 0 19 5 19
11 0 8 12 10 34 6 25 -4 36 -1 40 9 4 11 15 13 41 8 24 -4 35 -3 35 6 0 7 8 9
19 5 12 -3 21 0 25 11 5 12 13 14 32 10 18 -5 32 -2 45 9 10 10 22 14 28 11 5
-4 13 -1 17 5 4 6 19 9 37 5 21 -4 33 -1 41 10 9 12 17 13 38 5 16 -6 30 -6
33 -1 14 22 66 39 92 29 21 -8 29 -7 35 6 5 8 14 15 20 15 6 0 16 7 22 16 9
12 17 13 39 5 29 -11 60 -1 82 27 8 10 17 11 38 3 23 -9 29 -8 34 5 4 12 14
14 39 9 31 -5 70 7 85 29 4 5 23 6 43 2 21 -4 36 -3 36 3 0 19 54 38 83 28 20
-6 31 -5 42 7 11 10 26 13 45 9 19 -3 30 -1 30 6 0 6 9 11 19 11 11 0 23 5 26
10 4 6 21 8 41 4 22 -4 34 -2 34 5 0 6 9 11 20 11 10 0 23 7 28 15 6 13 14 14
35 6 18 -7 28 -7 33 0 4 6 20 8 39 5 24 -5 34 -2 39 9 3 8 15 15 26 15 11 0
20 5 20 11 0 8 12 10 35 6 19 -3 37 -1 40 4 4 5 13 9 21 9 9 0 22 7 30 15 12
12 20 13 36 4 17 -9 24 -8 34 5 9 13 20 16 47 11 21 -4 37 -3 42 4 3 6 11 9
16 6 5 -4 12 1 15 10 5 13 14 15 41 10 25 -4 41 -1 63 15 23 16 38 19 65 14
23 -4 35 -2 35 5 0 6 9 11 20 11 11 0 20 5 20 11 0 8 11 9 31 5 23 -4 35 -2
43 10 9 12 17 13 38 5 21 -8 32 -5 62 15 20 14 41 22 46 19 5 -3 26 -8 45 -10
31 -4 94 -45 69 -45 -5 0 -2 -5 6 -10 19 -13 92 -2 105 17 9 12 16 12 54 -2
50 -17 91 -20 91 -5 0 6 9 10 19 10 10 0 21 6 24 14 7 19 -22 30 -39 15 -17
-14 -109 15 -118 37 -3 7 -12 14 -21 14 -9 0 -15 9 -15 23 0 12 -3 32 -6 45
-4 13 -3 22 2 20 21 -7 19 56 -2 77 -16 15 -16 18 0 33 16 16 17 15 22 -6 4
-12 12 -22 19 -22 7 0 17 -12 23 -28 6 -15 14 -36 18 -47 4 -11 6 -26 5 -33
-1 -7 5 -15 13 -18 9 -3 13 -10 10 -16 -3 -5 2 -18 12 -29 16 -18 16 -19 1
-13 -9 3 -17 2 -17 -4 0 -16 30 -23 50 -12 10 6 30 10 44 10 14 0 26 4 26 10
0 5 16 7 35 5 26 -4 35 -1 35 9 0 8 4 16 8 18 12 4 23 78 11 78 -5 0 -9 16 -9
35 0 19 -4 35 -10 35 -5 0 -10 7 -10 16 0 11 5 14 16 10 9 -3 17 -6 20 -6 2 0
1 -7 -2 -15 -4 -8 -1 -15 6 -15 8 0 10 -9 6 -26 -4 -14 -2 -32 4 -39 6 -7 10
-17 9 -21 -5 -27 4 -43 28 -49 19 -4 23 -9 14 -15 -9 -5 -2 -11 24 -20 33 -11
40 -10 66 9 15 11 39 21 52 21 12 0 28 5 33 10 16 16 65 -5 58 -25 -4 -10 0
-15 14 -15 12 0 23 4 27 9 3 6 17 6 37 -1 26 -9 32 -8 40 6 7 13 17 16 40 11
17 -4 33 -3 37 1 20 28 92 40 75 13 -3 -5 2 -12 10 -15 9 -3 16 -15 16 -25 0
-12 10 -23 25 -29 15 -6 25 -17 25 -29 0 -17 15 -25 78 -44 64 -20 78 -21 80
-9 3 11 14 12 48 7 31 -4 44 -3 44 6 0 8 11 10 35 6 19 -3 35 -2 35 4 0 5 9 9
19 9 11 0 23 5 27 11 4 6 20 8 39 5 24 -5 34 -3 39 9 3 9 11 15 18 14 7 -1 22
2 32 6 11 5 32 4 49 -3 25 -9 36 -8 61 6 17 9 34 22 39 29 5 9 23 6 67 -9 46
-15 64 -17 74 -9 10 8 22 8 40 1 21 -8 28 -7 33 6 4 12 14 14 40 9 26 -5 38
-2 47 10 9 13 17 14 38 6 18 -7 29 -7 33 -1 4 6 13 10 22 10 9 0 21 7 27 16 9
12 17 13 37 6 21 -8 28 -7 37 9 10 16 15 17 39 6 21 -9 27 -9 31 1 2 6 15 12
28 12 13 0 24 5 24 11 0 8 12 10 34 6 25 -4 36 -1 40 9 4 11 15 13 40 9 20 -4
36 -2 41 4 3 6 11 8 17 5 6 -4 14 -1 18 6 5 8 31 15 61 16 35 2 55 8 61 18 5
9 18 16 28 16 11 0 20 5 20 11 0 8 12 10 35 6 19 -3 37 -1 41 4 3 5 20 7 38 3
25 -4 35 -2 39 10 4 9 13 13 22 10 9 -4 17 1 21 10 5 13 14 15 36 11 17 -4 35
-2 43 5 8 6 18 9 24 6 5 -3 12 1 15 10 5 12 14 15 40 10 21 -4 36 -2 38 4 2 6
10 12 18 13 8 2 21 6 28 11 7 4 25 5 41 1 21 -4 30 -2 34 9 4 9 16 16 27 16
11 0 20 5 20 11 0 7 12 9 34 5 21 -4 37 -2 41 4 4 6 13 9 21 6 8 -3 17 1 21
10 4 12 14 14 38 10 22 -4 36 -2 44 8 7 8 19 12 27 9 8 -3 14 0 14 7 0 8 11
11 32 8 20 -3 38 0 46 9 8 8 21 12 28 9 8 -3 14 1 14 11 0 13 7 14 40 9 25 -4
40 -2 40 4 0 5 9 10 19 10 11 0 23 5 27 11 3 6 20 9 36 7 19 -3 32 0 35 9 3 7
16 13 28 13 13 0 26 4 30 10 4 6 15 6 31 0 19 -8 26 -6 30 5 4 8 14 15 24 15
11 0 22 5 26 11 4 6 20 8 40 4 21 -3 34 -2 34 5 0 5 11 10 25 10 14 0 25 5 25
11 0 8 12 10 34 6 25 -4 36 -1 40 9 4 11 15 13 40 9 20 -4 36 -2 40 4 4 5 13
8 20 5 7 -3 16 2 20 11 5 13 13 15 32 11 18 -5 32 -2 45 9 10 10 23 14 28 10
6 -3 11 -1 11 6 0 8 12 10 39 5 30 -5 40 -2 45 10 4 9 13 14 21 10 9 -3 18 1
22 10 4 12 14 14 39 9 21 -3 34 -2 34 5 0 5 11 10 25 10 14 0 25 5 25 11 0 7
11 9 30 5 21 -4 42 1 66 15 24 13 46 18 64 14 20 -4 29 -2 34 11 3 9 13 14 21
10 8 -3 17 0 21 5 4 6 20 8 39 5 24 -5 34 -2 39 9 3 8 15 15 26 15 11 0 20 5
20 11 0 8 12 10 35 6 19 -3 37 -1 40 4 4 5 13 9 22 9 9 0 21 7 28 16 10 14 15
15 35 4 18 -10 24 -9 30 0 12 20 74 38 99 28 16 -5 23 -3 27 7 4 8 14 15 24
15 11 0 22 5 26 11 4 7 20 9 40 6 20 -3 34 -1 37 6 3 10 40 3 101 -19 6 -2 17
0 25 5 21 13 -5 36 -57 52 -45 13 -59 35 -16 25 18 -5 30 -2 38 10 14 18 54
12 53 -9 -2 -57 3 -65 48 -83 25 -9 45 -21 45 -26 0 -10 -28 -6 -65 8 -13 5
-16 2 -13 -12 2 -13 22 -26 63 -40 44 -16 61 -27 63 -42 3 -16 20 -26 75 -45
54 -17 73 -29 75 -43 2 -16 31 -29 144 -67 127 -42 144 -45 158 -32 15 14 22
14 59 0 37 -13 43 -13 47 0 4 8 12 15 18 15 28 0 66 27 75 53 7 17 17 27 30
27 18 0 29 28 87 206 61 191 65 206 48 218 -28 21 -8 38 36 31 29 -5 39 -3 43
9 5 13 12 14 33 6 18 -7 30 -7 39 0 7 6 24 8 37 5 16 -4 29 -1 37 9 7 8 19 12
27 9 8 -3 14 0 14 6 0 6 11 11 24 11 13 0 26 7 30 15 3 8 12 15 21 15 8 0 15
5 15 10 0 6 8 10 18 11 39 1 75 35 92 84 9 28 24 51 33 53 21 4 52 93 35 103
-9 6 -7 24 10 77 25 78 27 99 10 104 -9 3 -8 16 1 53 11 43 10 51 -3 61 -12 8
-14 18 -8 35 10 25 -1 54 -27 75 -11 9 -12 17 -3 42 8 24 8 34 -1 39 -14 9
-37 48 -37 64 0 6 -7 17 -15 25 -8 8 -12 21 -9 28 3 7 -2 16 -10 19 -9 4 -16
13 -16 22 0 8 -4 15 -10 15 -5 0 -10 11 -10 23 0 19 -8 26 -40 36 -27 8 -40
18 -40 30 0 10 -13 23 -32 32 -18 8 -32 20 -31 26 2 7 -61 33 -147 61 -117 40
-150 47 -154 36 -4 -11 -11 -11 -33 -3 -22 8 -30 7 -39 -5 -8 -11 -20 -14 -41
-10 -27 5 -31 3 -37 -20 -5 -19 -13 -26 -30 -26 -13 0 -27 -7 -30 -16 -4 -10
-13 -14 -22 -10 -10 4 -18 -3 -25 -23 -6 -16 -18 -31 -27 -34 -12 -3 -32 -51
-66 -161 -39 -122 -54 -156 -67 -156 -30 0 -49 12 -49 30 0 11 -4 22 -10 25
-5 3 -10 14 -10 25 0 10 -7 20 -15 24 -8 3 -15 12 -15 20 0 7 -11 17 -25 20
-16 4 -25 13 -25 26 0 12 -10 24 -24 30 -14 5 -26 19 -28 31 -2 14 -14 26 -34
33 -17 6 -29 16 -27 23 2 6 -21 19 -54 30 -44 15 -59 25 -61 41 -3 17 -23 27
-112 57 -72 24 -110 42 -112 52 -4 22 -147 66 -165 52 -11 -10 -64 3 -159 38
-6 2 -17 -3 -24 -12z m147 -172 c68 -22 83 -31 83 -48 0 -16 12 -25 58 -40 57
-20 57 -20 57 -60 0 -33 4 -40 20 -42 11 -1 40 -6 65 -11 45 -10 39 -13 -34
-18 -21 -1 -42 -8 -46 -14 -4 -7 -13 -9 -19 -5 -7 4 -19 1 -27 -6 -8 -6 -27
-13 -42 -14 -15 -1 -35 -5 -44 -8 -10 -4 -26 -10 -35 -14 -10 -3 -24 -5 -30
-4 -7 1 -34 -5 -60 -14 -27 -9 -61 -17 -76 -17 -15 -1 -30 -5 -33 -10 -3 -4
-16 -8 -29 -8 -13 0 -27 -4 -30 -10 -3 -5 -16 -10 -28 -10 -12 0 -40 -7 -62
-15 -72 -26 -72 -25 -69 68 3 100 40 224 66 219 11 -2 18 7 23 28 5 23 12 30
31 30 13 0 24 5 24 10 0 6 9 10 19 10 11 0 23 5 26 11 4 6 19 7 35 4 16 -3 31
-2 35 4 10 16 31 14 122 -16z m1363 -6 c90 -28 105 -36 108 -55 2 -13 14 -27
28 -32 13 -5 24 -16 24 -25 0 -8 11 -17 25 -21 16 -4 25 -13 25 -25 0 -12 13
-24 36 -34 19 -8 34 -20 33 -27 -3 -19 18 -65 32 -70 8 -3 13 -24 13 -56 1
-32 6 -54 14 -57 6 -2 12 -13 12 -24 0 -11 6 -21 13 -24 9 -3 9 -13 -1 -51 -9
-34 -9 -52 -2 -61 6 -7 7 -20 4 -29 -4 -10 -1 -28 6 -41 11 -21 7 -41 -31
-162 -38 -119 -48 -138 -67 -141 -13 -2 -24 -13 -28 -28 -4 -14 -13 -24 -24
-24 -10 0 -20 -7 -24 -15 -3 -8 -14 -15 -25 -15 -10 0 -22 -7 -25 -16 -3 -8
-11 -12 -16 -9 -6 4 -17 1 -25 -5 -8 -6 -23 -9 -34 -5 -11 3 -29 0 -39 -6 -16
-10 -29 -10 -62 0 -36 11 -43 10 -54 -4 -16 -23 -66 -4 -66 25 0 11 -4 20 -10
20 -5 0 -10 11 -10 24 0 17 -7 26 -25 30 -27 7 -31 25 -15 56 9 16 15 18 37 9
19 -7 29 -7 31 0 2 6 11 11 20 11 8 0 23 7 33 16 13 12 22 13 38 5 27 -15 28
-15 40 21 8 22 8 34 1 36 -5 2 -10 12 -10 23 0 20 -24 26 -35 9 -4 -6 -15 -8
-25 -5 -11 3 -20 0 -24 -10 -4 -12 -14 -14 -41 -9 -29 5 -35 3 -35 -11 0 -12
-5 -15 -16 -11 -9 4 -22 2 -29 -4 -20 -16 -65 -1 -65 21 0 10 -7 19 -15 19 -9
0 -15 9 -15 24 0 17 -7 26 -24 30 -18 4 -25 15 -30 41 -4 20 -14 39 -22 42 -7
3 -14 13 -14 23 0 10 -7 23 -15 30 -8 7 -12 16 -10 21 7 10 -15 51 -32 62 -20
12 -15 65 7 87 16 16 25 18 45 10 19 -7 26 -6 33 7 7 12 18 14 41 10 30 -6 67
6 82 27 4 5 21 6 38 3 21 -5 33 -2 39 8 6 12 15 13 40 5 35 -9 36 -9 56 57 8
24 -12 43 -24 23 -5 -8 -19 -11 -39 -7 -17 4 -33 2 -37 -4 -3 -6 -22 -8 -45
-4 -27 5 -39 3 -39 -5 0 -8 -11 -10 -34 -6 -27 5 -37 3 -44 -10 -8 -14 -14
-15 -48 -4 -21 7 -43 16 -48 20 -4 5 6 52 24 104 27 82 35 96 50 91 13 -4 20
2 28 25 8 20 18 30 31 30 12 0 21 5 21 10 0 6 7 10 15 10 9 0 18 7 21 15 4 8
17 15 29 15 13 0 26 4 30 10 3 6 15 6 30 0 17 -6 27 -5 35 6 16 18 8 19 130
-19z m-1037 -163 c26 -22 33 -24 41 -12 9 12 16 12 41 2 24 -9 31 -9 40 1 8
10 16 11 35 2 25 -10 25 -10 3 -14 -32 -6 -28 -31 7 -51 16 -9 30 -23 30 -29
0 -7 11 -20 25 -29 14 -9 25 -23 25 -31 0 -8 9 -17 20 -20 10 -3 22 -13 25
-22 3 -9 19 -24 36 -33 16 -10 28 -22 25 -27 -3 -5 0 -14 8 -20 14 -11 31 -58
28 -74 -1 -4 5 -10 13 -13 8 -4 15 -14 15 -24 0 -10 7 -23 15 -30 8 -7 12 -16
9 -21 -3 -5 0 -9 5 -9 6 0 11 -10 11 -21 0 -12 8 -28 18 -35 13 -10 14 -15 5
-24 -8 -9 -15 -3 -29 26 -10 22 -21 41 -24 44 -4 3 -9 13 -13 23 -3 9 -13 17
-21 17 -15 0 -30 -41 -18 -50 5 -3 7 -41 7 -85 -1 -71 -10 -105 -75 -300 -40
-121 -78 -223 -84 -227 -6 -4 -23 -8 -37 -8 -15 0 -29 -6 -32 -14 -4 -9 -14
-12 -26 -9 -13 3 -23 -2 -31 -16 -16 -30 -4 -58 28 -65 32 -7 68 -33 59 -42
-16 -16 -123 48 -112 66 3 4 -16 13 -40 20 -50 14 -72 34 -33 28 14 -1 33 3
41 11 9 7 23 11 31 8 7 -3 18 -1 23 4 5 5 23 11 39 13 51 7 84 25 94 51 13 35
13 35 -13 35 -16 0 -26 -9 -34 -30 -10 -28 -13 -29 -39 -20 -20 8 -29 8 -35
-1 -12 -19 -75 -37 -94 -27 -12 7 -20 5 -29 -8 -9 -12 -29 -18 -66 -19 -31 -1
-56 -7 -58 -13 -2 -7 -12 -12 -22 -12 -10 0 -22 -5 -26 -11 -3 -6 -19 -9 -35
-5 -15 3 -31 1 -34 -4 -3 -6 -13 -10 -21 -10 -9 0 -22 -7 -30 -15 -12 -11 -20
-12 -36 -4 -15 8 -24 7 -36 -3 -30 -25 -66 -36 -90 -27 -17 6 -24 5 -28 -6 -4
-8 -16 -15 -29 -15 -13 0 -25 -7 -29 -15 -4 -12 -11 -13 -33 -4 -19 7 -29 7
-31 0 -2 -6 -12 -11 -22 -11 -9 0 -23 -7 -30 -15 -8 -9 -21 -13 -33 -9 -17 5
-34 0 -88 -26 -8 -4 -27 -6 -42 -3 -16 3 -27 1 -27 -6 0 -6 -10 -11 -21 -11
-12 0 -27 -7 -33 -16 -9 -12 -17 -13 -38 -5 -19 7 -29 7 -34 0 -3 -6 -19 -8
-35 -5 -20 4 -31 1 -37 -11 -6 -10 -16 -14 -26 -10 -10 4 -19 1 -23 -9 -4 -12
-14 -14 -39 -9 -21 3 -34 2 -34 -5 0 -5 -8 -10 -19 -10 -10 0 -24 -7 -31 -14
-9 -11 -18 -13 -38 -5 -20 8 -28 7 -34 -6 -5 -8 -18 -15 -28 -15 -10 0 -21 -4
-25 -10 -4 -6 -15 -6 -31 0 -33 13 -34 13 -34 -5 0 -9 -9 -15 -25 -15 -14 0
-25 -5 -25 -11 0 -7 -12 -9 -32 -7 -21 4 -45 -2 -67 -14 -22 -13 -45 -18 -62
-14 -18 3 -29 0 -33 -9 -3 -8 -14 -15 -25 -15 -11 0 -22 -4 -26 -10 -4 -6 -15
-6 -33 1 -21 8 -29 7 -38 -5 -6 -9 -17 -16 -23 -16 -7 0 -19 -7 -27 -15 -11
-11 -21 -12 -42 -4 -18 7 -28 7 -30 0 -2 -6 -12 -11 -22 -11 -9 0 -23 -7 -30
-14 -8 -11 -18 -12 -35 -6 -15 6 -27 6 -30 0 -4 -6 -15 -10 -26 -10 -10 0 -19
-4 -19 -9 0 -15 -30 -21 -51 -11 -15 8 -21 7 -25 -5 -3 -8 -14 -15 -24 -15
-11 0 -22 -5 -25 -10 -4 -6 -21 -8 -41 -4 -22 4 -34 2 -34 -5 0 -6 -11 -11
-25 -11 -14 0 -25 -6 -25 -14 0 -10 -17 -13 -70 -12 -49 2 -71 -2 -74 -11 -3
-7 -14 -13 -25 -13 -11 0 -23 -5 -27 -11 -3 -6 -19 -9 -35 -5 -15 3 -31 1 -34
-4 -3 -6 -13 -10 -21 -10 -9 0 -22 -7 -30 -15 -11 -11 -21 -12 -40 -5 -33 13
-34 13 -34 -5 0 -9 -9 -15 -24 -15 -14 0 -27 -4 -31 -10 -4 -6 -15 -6 -31 0
-19 8 -26 6 -30 -5 -7 -18 -34 -19 -57 -2 -15 11 -15 17 7 87 21 64 22 76 9
85 -12 9 -12 18 -2 59 10 40 9 50 -2 56 -11 7 -11 17 -2 51 7 26 8 49 2 61 -5
10 -14 27 -20 39 -5 11 -7 33 -4 49 4 20 2 29 -9 33 -20 8 -9 37 13 37 12 0
22 14 31 41 13 37 12 43 -3 54 -9 6 -14 15 -10 19 4 4 1 11 -6 16 -25 15 -4
40 30 38 29 -3 33 1 46 38 11 33 18 41 33 37 10 -3 16 -11 14 -18 -6 -16 32
-39 51 -31 8 3 17 21 21 41 3 19 10 37 14 40 13 8 40 -6 40 -20 0 -11 28 -24
51 -25 4 0 10 12 13 26 6 23 11 26 39 21 18 -4 42 -9 55 -13 17 -5 22 -2 22
12 0 38 15 48 50 34 18 -7 29 -18 26 -26 -3 -7 2 -15 10 -18 8 -3 14 -15 14
-26 0 -11 5 -20 10 -20 6 0 10 -11 10 -25 0 -14 5 -25 10 -25 6 0 10 -7 10
-15 0 -15 30 -35 53 -35 9 0 22 19 30 45 9 25 12 45 6 45 -5 0 -13 8 -16 18
-4 9 -13 22 -21 28 -22 16 -8 64 19 64 14 0 25 10 32 31 12 32 24 34 94 13 17
-5 22 -1 28 25 8 36 8 36 66 16 43 -16 58 -10 59 22 0 18 22 21 62 7 41 -14
59 -4 38 21 -8 9 -10 28 -5 51 4 23 3 34 -4 30 -5 -3 -11 -1 -13 4 -2 6 -20
13 -41 17 -32 5 -37 3 -37 -13 0 -41 -14 -48 -65 -31 l-46 16 -11 -29 c-11
-33 -20 -35 -67 -19 -27 10 -36 9 -48 -4 -12 -12 -22 -13 -42 -6 -17 7 -27 7
-29 0 -2 -6 -12 -11 -22 -11 -10 0 -22 -5 -26 -11 -6 -11 -40 -8 -91 7 -16 4
-23 2 -23 -8 0 -8 -6 -22 -13 -32 -10 -14 -18 -15 -39 -7 -20 8 -28 7 -32 -5
-3 -8 -15 -14 -26 -14 -11 0 -23 -6 -26 -14 -4 -11 -13 -12 -35 -6 -17 5 -31
5 -34 -1 -4 -5 -13 -9 -21 -9 -9 0 -22 -7 -30 -14 -13 -13 -20 -13 -55 0 -23
7 -43 14 -44 14 -2 0 -8 -14 -14 -31 -9 -26 -14 -29 -33 -24 -13 4 -27 8 -32
9 -5 0 -15 -18 -23 -41 -16 -47 -33 -54 -54 -24 -8 10 -51 31 -97 46 -64 21
-82 31 -79 44 2 9 8 15 15 14 6 -2 16 6 22 17 9 16 15 18 37 9 19 -7 29 -7 31
0 2 6 15 11 28 11 13 0 24 5 24 11 0 8 12 10 34 6 25 -4 36 -1 40 9 3 8 14 14
24 14 10 0 23 5 28 10 7 7 19 8 37 1 19 -8 29 -7 34 2 12 19 67 35 90 26 15
-6 23 -3 27 8 5 11 14 14 36 9 20 -4 41 1 64 14 25 13 45 17 70 13 24 -4 36
-2 36 6 0 6 7 11 15 11 9 0 18 7 22 16 4 12 14 14 43 9 23 -4 41 -2 45 4 3 6
11 9 16 6 5 -4 12 1 15 10 5 13 15 15 44 10 27 -4 40 -2 49 9 7 9 17 13 22 10
5 -3 9 0 9 7 0 8 12 10 36 6 34 -6 41 -3 79 31 11 10 28 12 55 7 25 -4 40 -3
40 3 0 7 14 8 35 5 23 -4 35 -2 35 6 0 6 8 11 19 11 10 0 24 6 31 14 8 10 18
12 33 7 21 -8 44 0 78 27 12 9 23 10 43 2 35 -13 36 -13 36 5 0 8 9 15 20 15
11 0 20 5 20 11 0 7 12 9 35 5 35 -7 69 6 91 33 8 11 18 12 40 4 31 -11 61 -1
78 25 5 9 19 12 41 8 22 -4 36 -2 44 8 10 12 19 13 39 5 18 -7 28 -7 30 0 2 6
12 11 22 11 10 0 22 5 26 11 4 7 21 9 40 6 24 -4 34 -2 34 7 0 15 70 29 95 19
11 -4 21 0 27 10 5 10 17 17 27 17 11 0 21 7 25 15 4 12 11 13 33 4 19 -7 29
-7 31 0 2 6 15 11 28 11 13 0 24 5 24 11 0 8 12 10 35 6 19 -3 37 -1 40 4 4 5
14 9 25 9 10 0 20 7 23 14 4 11 16 13 41 9 25 -4 36 -2 36 7 0 9 10 10 35 6
22 -4 35 -3 35 4 0 5 9 10 19 10 11 0 23 5 27 11 4 6 19 9 37 5 21 -4 33 -1
42 11 9 12 27 17 63 17 33 0 53 5 56 13 3 7 15 13 26 13 11 0 20 5 20 11 0 7
12 9 34 5 21 -4 37 -2 41 4 4 6 13 9 21 6 7 -3 18 2 22 11 7 12 18 14 41 10
17 -4 31 -3 31 2 0 22 38 17 145 -19 113 -38 116 -38 113 -17 -2 18 -21 27
-118 58 -106 34 -116 43 -50 40 14 0 19 2 13 5 -7 3 -13 12 -13 20 0 8 -7 14
-15 14 -8 0 -29 14 -47 30 -38 37 -27 40 15 4z m573 -788 c8 -8 14 -19 14 -24
0 -5 11 -14 25 -20 14 -7 25 -20 25 -31 0 -10 7 -21 15 -25 8 -3 12 -12 9 -21
-4 -8 1 -17 10 -21 9 -3 16 -15 16 -25 0 -10 5 -19 10 -19 6 0 10 -9 10 -20 0
-11 5 -20 10 -20 18 0 11 -33 -38 -180 l-49 -145 -32 0 c-17 0 -35 -6 -40 -13
-13 -21 -189 37 -204 68 -12 23 -122 70 -145 62 -7 -2 -12 1 -12 6 0 6 9 13
19 17 11 3 23 14 26 24 4 12 12 17 24 14 15 -4 22 7 37 54 14 43 24 59 39 61
12 2 26 15 32 32 6 17 18 30 26 30 9 0 21 18 29 43 10 29 21 43 35 45 15 2 25
18 38 63 19 62 40 75 71 45z m-4508 -388 c-3 -7 -14 -14 -26 -16 -11 -2 -24
-12 -28 -24 -8 -25 34 -65 100 -98 25 -12 44 -26 41 -30 -3 -5 2 -15 10 -23 8
-9 15 -20 15 -25 0 -4 11 -19 25 -32 14 -13 25 -29 25 -37 0 -7 4 -13 10 -13
5 0 7 -6 4 -14 -3 -7 2 -16 10 -19 9 -4 16 -17 16 -31 0 -14 5 -28 10 -31 6
-3 10 -19 10 -36 0 -16 4 -29 9 -29 4 0 7 -12 5 -27 -1 -15 2 -31 8 -34 8 -5
7 -20 -2 -53 -7 -25 -9 -53 -5 -63 12 -28 6 -67 -26 -153 -16 -44 -28 -85 -26
-92 1 -6 -10 -18 -25 -27 -25 -14 -30 -14 -57 2 -46 27 -88 29 -134 5 -28 -14
-52 -19 -79 -15 -21 3 -38 1 -38 -4 0 -5 -11 -9 -25 -9 -14 0 -25 -4 -25 -10
0 -5 -13 -7 -30 -3 -19 3 -30 1 -30 -6 0 -6 -13 -11 -29 -11 -16 0 -31 -5 -33
-10 -2 -6 -50 -12 -110 -15 l-106 -4 -41 38 c-23 21 -41 45 -41 52 0 13 85 45
135 51 11 2 26 8 33 15 7 7 19 10 27 7 8 -4 15 -1 15 5 0 6 8 11 19 11 10 0
24 6 31 14 6 8 17 13 24 10 8 -3 16 5 19 18 9 32 -27 58 -75 56 -21 -1 -38 -5
-38 -10 0 -4 -9 -8 -20 -8 -11 0 -20 -5 -20 -11 0 -6 -6 -9 -14 -6 -7 3 -26
-1 -41 -9 -15 -8 -36 -14 -46 -14 -10 0 -20 -4 -24 -10 -3 -5 -12 -7 -20 -3
-8 3 -15 0 -15 -6 0 -6 -15 -11 -33 -11 -18 0 -38 -5 -44 -11 -6 -6 -17 -12
-24 -13 -19 -4 -51 -16 -70 -26 -9 -5 -28 -7 -42 -6 -15 2 -28 -3 -31 -10 -3
-9 -17 -12 -38 -10 -18 2 -35 1 -38 -4 -3 -4 -25 -10 -50 -14 -43 -6 -46 -5
-58 22 -7 16 -9 42 -6 59 3 18 1 33 -5 37 -6 4 -11 18 -11 32 0 14 -7 32 -15
40 -8 8 -19 33 -25 54 -6 22 -14 40 -18 40 -17 0 -27 46 -18 82 8 30 15 37 40
41 17 3 42 8 56 12 14 4 48 11 75 16 28 6 55 11 62 13 7 1 16 5 19 9 4 4 22 7
41 7 18 0 33 4 33 9 0 9 74 26 98 22 7 -1 15 4 18 12 3 8 16 13 29 11 14 -1
27 2 30 6 3 5 19 7 35 5 17 -2 30 0 30 5 0 6 11 10 25 10 14 0 28 7 31 15 4 8
12 15 19 15 23 0 27 32 6 52 -23 21 -57 23 -98 7 -15 -6 -37 -15 -48 -19 -11
-5 -36 -11 -56 -13 -36 -5 -36 -5 -35 31 1 32 5 38 46 58 25 12 54 24 65 27
41 10 120 42 132 53 6 6 23 10 37 9 14 -2 26 1 26 5 0 5 19 14 43 21 23 6 50
15 60 20 10 6 27 7 38 4 12 -4 21 -1 25 10 5 12 14 14 34 10 16 -3 37 -2 47 4
21 11 53 23 68 26 6 0 17 4 25 8 13 5 39 10 88 16 8 0 12 -5 10 -11z m114 -39
c14 -11 29 -19 33 -19 13 0 36 -30 30 -39 -3 -5 4 -12 15 -16 11 -3 20 -11 20
-17 0 -6 12 -23 28 -39 32 -33 52 -57 52 -62 0 -3 7 -22 17 -43 9 -22 17 -50
18 -64 1 -14 4 -32 7 -40 4 -8 6 -22 6 -30 0 -8 3 -30 6 -48 6 -40 -3 -70 -15
-51 -4 7 -3 23 2 35 5 16 4 28 -4 36 -7 7 -18 36 -25 63 -7 28 -17 52 -23 53
-5 2 -9 10 -9 18 0 7 -13 36 -30 62 -16 27 -30 54 -30 61 0 6 -5 11 -10 11 -6
0 -14 8 -17 18 -11 30 -56 72 -100 93 -24 11 -43 27 -43 36 0 18 32 10 72 -18z
m-1366 -557 c5 -4 18 -24 27 -44 10 -20 22 -40 27 -43 5 -3 7 -12 4 -20 -4 -8
1 -17 9 -21 16 -6 30 -53 29 -98 0 -16 3 -37 7 -45 14 -26 -4 -60 -28 -54 -12
3 -21 12 -21 19 0 8 -6 17 -14 20 -8 3 -17 28 -21 60 -3 29 -11 56 -16 59 -5
4 -9 15 -9 26 0 10 -6 19 -13 19 -21 0 -39 46 -23 59 7 6 15 8 19 5 3 -3 8 5
12 17 5 14 3 25 -4 27 -12 4 -15 22 -3 22 4 0 12 -4 18 -8z m-146 -105 c0 -7
9 -23 20 -35 11 -12 20 -26 20 -31 0 -6 7 -14 16 -19 10 -6 18 -28 21 -58 3
-27 10 -55 16 -61 7 -10 2 -13 -20 -13 -16 0 -34 -5 -40 -11 -13 -13 -36 -2
-27 13 4 6 3 13 -2 17 -12 8 -37 61 -39 84 -1 10 -11 31 -23 47 -28 38 -30 74
-3 65 11 -3 22 -1 26 5 9 14 35 12 35 -3z"/>
<path d="M9317 4103 c-2 -5 -10 -25 -17 -47 -11 -36 -14 -38 -44 -33 -17 4
-41 9 -53 13 -16 4 -23 2 -23 -8 0 -8 -6 -22 -13 -32 -11 -16 -17 -17 -36 -6
-19 10 -25 9 -36 -6 -11 -16 -17 -16 -52 -6 -53 16 -52 16 -63 -14 -8 -21 -15
-25 -33 -20 -70 20 -76 19 -87 -9 -8 -22 -15 -26 -33 -21 -58 17 -74 17 -86 2
-10 -11 -18 -13 -39 -5 -20 8 -28 7 -34 -6 -5 -8 -18 -15 -28 -15 -10 0 -21
-4 -25 -10 -4 -6 -15 -6 -31 0 -33 13 -34 13 -34 -5 0 -9 -9 -15 -23 -15 -13
0 -27 -4 -33 -10 -6 -6 -24 -4 -49 5 -48 16 -67 5 -40 -25 27 -30 8 -46 -36
-31 -47 16 -58 14 -69 -15 -9 -23 -14 -25 -38 -18 -54 15 -75 11 -84 -17 -7
-22 -5 -32 14 -51 13 -14 31 -27 41 -31 9 -3 17 -14 17 -23 0 -9 7 -22 16 -28
12 -9 13 -17 5 -38 -7 -18 -7 -29 -1 -33 6 -4 10 -14 10 -25 0 -11 11 -22 31
-29 29 -10 31 -9 45 24 16 40 18 65 4 65 -11 0 -13 30 -4 54 3 9 15 16 26 16
12 0 23 11 29 30 13 35 13 35 67 16 43 -15 52 -13 52 15 0 23 30 32 64 19 42
-15 53 -12 60 16 6 23 10 25 41 20 31 -6 34 -4 45 29 13 40 10 38 44 25 16 -6
26 -17 26 -29 0 -11 7 -24 15 -29 13 -6 14 -14 6 -35 -7 -17 -7 -28 -1 -32 6
-4 10 -14 10 -25 0 -13 14 -23 46 -34 26 -9 50 -14 54 -11 15 10 21 56 8 70
-32 36 -38 45 -38 63 0 22 25 46 39 38 5 -3 11 1 15 9 3 8 13 15 21 15 9 0 23
7 31 14 13 13 20 13 56 0 42 -15 57 -9 58 23 0 19 16 24 44 13 23 -8 28 -7 36
14 13 34 23 38 69 21 37 -13 41 -12 50 3 8 13 15 15 38 6 15 -5 28 -16 28 -24
0 -8 6 -19 13 -24 9 -5 12 -19 8 -40 -6 -31 -4 -33 31 -45 21 -7 43 -12 48
-12 17 0 23 45 8 62 -9 11 -11 23 -5 40 7 18 4 32 -9 54 -10 17 -23 40 -28 52
-5 11 -14 24 -20 27 -6 4 -8 13 -5 21 4 9 -3 16 -20 21 -14 3 -28 15 -31 26
-4 10 -18 23 -32 29 -29 11 -31 11 -36 2z"/>
<path d="M5763 3125 c-7 -8 -13 -22 -13 -31 0 -23 39 -74 56 -74 8 0 18 -8 21
-17 4 -10 17 -34 29 -54 13 -20 20 -39 17 -43 -3 -3 2 -8 11 -12 9 -3 16 -14
16 -24 0 -11 5 -22 10 -25 6 -3 10 -17 10 -31 0 -13 4 -24 9 -24 5 0 8 -16 5
-35 -2 -20 0 -35 6 -35 5 0 10 -16 10 -35 0 -19 5 -35 10 -35 13 0 6 -70 -9
-99 -10 -18 -6 -31 26 -90 1 -2 10 0 20 4 10 5 24 9 31 11 21 4 20 2 22 104 2
143 2 153 -12 161 -6 4 -13 16 -14 26 -5 31 -15 77 -21 93 -4 8 -5 21 -4 28 1
7 -5 15 -14 18 -8 3 -15 12 -15 18 0 18 -24 66 -32 66 -5 0 -8 11 -8 25 0 16
-6 25 -15 25 -8 0 -15 8 -15 18 0 10 -21 30 -54 50 -61 36 -66 37 -83 17z"/>
</g>
</svg>
