<?xml version="1.0" standalone="no"?>
<!DOCTYPE svg PUBLIC "-//W3C//DTD SVG 20010904//EN"
 "http://www.w3.org/TR/2001/REC-SVG-20010904/DTD/svg10.dtd">
<svg version="1.0" xmlns="http://www.w3.org/2000/svg"
 width="991.000000pt" height="1125.000000pt" viewBox="0 0 991.000000 1125.000000"
 preserveAspectRatio="xMidYMid meet">
<metadata>
Created by potrace 1.16, written by Peter Selinger 2001-2019
</metadata>
<g transform="translate(0.000000,1125.000000) scale(0.100000,-0.100000)"
fill="#000000" stroke="none">
<path d="M4749 10361 c-1 -3 -1 -9 0 -13 0 -5 -64 -8 -144 -8 -126 0 -145 -2
-145 -16 0 -14 -14 -15 -110 -11 -105 5 -110 4 -110 -15 0 -17 -6 -19 -57 -18
-78 3 -83 2 -83 -15 0 -12 -14 -15 -69 -15 -39 0 -73 -5 -76 -10 -4 -6 -23
-10 -43 -9 -55 3 -62 1 -62 -18 0 -16 -9 -18 -70 -15 -63 3 -70 2 -70 -15 0
-15 -7 -19 -32 -19 -20 1 -35 -5 -39 -13 -3 -9 -22 -15 -55 -15 -40 -1 -49 -4
-48 -18 2 -15 -7 -18 -57 -18 -46 0 -59 -3 -59 -15 0 -15 -9 -18 -46 -16 -12
1 -24 -5 -27 -13 -4 -10 -19 -16 -38 -16 -23 0 -32 -5 -36 -21 -5 -17 -12 -20
-38 -17 -28 3 -31 1 -27 -19 4 -20 1 -22 -31 -16 -41 6 -90 -3 -82 -17 3 -5
-5 -10 -17 -12 -13 -2 -22 -9 -20 -16 1 -7 -9 -12 -25 -12 -35 0 -58 -14 -48
-29 4 -8 -2 -10 -20 -7 -17 3 -33 -2 -45 -14 -10 -10 -31 -20 -47 -22 -16 -2
-27 -8 -25 -15 1 -9 -11 -13 -38 -13 -34 0 -40 -3 -40 -20 0 -14 -6 -20 -17
-18 -10 2 -18 -3 -18 -12 0 -10 -14 -17 -40 -20 -24 -3 -39 -10 -37 -18 2 -11
-10 -16 -30 -13 -5 0 -8 -8 -8 -19 0 -16 -7 -20 -35 -20 -25 0 -35 -4 -35 -16
0 -8 -5 -12 -11 -9 -6 4 -13 -2 -16 -13 -3 -13 -13 -21 -27 -20 -49 2 -58 -2
-53 -21 3 -14 1 -18 -10 -14 -9 4 -16 -2 -20 -15 -2 -11 -16 -23 -29 -26 -14
-4 -22 -11 -19 -16 4 -6 -9 -10 -29 -10 -29 0 -36 -4 -36 -20 0 -15 -7 -20
-26 -20 -19 0 -25 -4 -20 -15 3 -9 0 -15 -8 -15 -8 0 -16 -9 -19 -20 -3 -13
-10 -18 -21 -14 -12 4 -16 0 -16 -15 0 -17 -6 -21 -35 -21 -24 0 -35 -5 -35
-15 0 -8 -7 -15 -15 -15 -9 0 -18 -7 -21 -15 -4 -8 -11 -15 -16 -15 -13 0 -58
-47 -58 -61 0 -5 -9 -9 -20 -9 -11 0 -20 -7 -20 -15 0 -8 -9 -15 -20 -15 -13
0 -20 -7 -20 -19 0 -10 -7 -21 -15 -25 -8 -3 -15 -12 -15 -20 0 -10 -6 -13
-16 -9 -10 4 -17 -2 -21 -16 -3 -13 -11 -20 -19 -17 -13 5 -18 -6 -15 -26 0
-5 -8 -8 -19 -8 -11 0 -20 -6 -20 -14 0 -8 -11 -17 -25 -20 -14 -4 -23 -11
-20 -16 3 -5 -4 -11 -15 -15 -11 -3 -20 -12 -20 -18 0 -7 -19 -25 -41 -41 -35
-24 -40 -33 -37 -58 4 -21 1 -27 -9 -24 -8 3 -13 -2 -13 -14 0 -13 -7 -20 -19
-20 -10 0 -21 -9 -24 -20 -3 -13 -10 -18 -21 -14 -11 4 -16 1 -16 -10 0 -9 -8
-16 -20 -16 -13 0 -20 -7 -20 -19 0 -12 -7 -18 -17 -17 -13 1 -19 -8 -21 -32
-3 -34 -25 -63 -55 -75 -9 -3 -17 -13 -17 -22 0 -8 -9 -15 -20 -15 -11 0 -21
-6 -21 -12 -1 -7 -2 -17 -4 -23 -1 -5 -3 -16 -3 -24 -1 -7 -8 -11 -17 -7 -11
4 -15 -1 -15 -19 0 -18 -4 -23 -15 -19 -11 5 -15 -1 -15 -24 0 -22 -6 -32 -20
-37 -11 -3 -20 -13 -20 -21 0 -8 -7 -14 -15 -14 -15 0 -19 -9 -17 -47 1 -18
-4 -23 -23 -23 -22 0 -25 -4 -25 -35 0 -22 -6 -38 -15 -41 -8 -4 -15 -12 -15
-20 0 -8 -3 -13 -7 -13 -24 4 -33 -4 -33 -30 0 -21 -6 -32 -20 -36 -17 -5 -26
-29 -21 -57 0 -5 -6 -8 -14 -8 -8 0 -17 -14 -20 -34 -5 -22 -14 -36 -26 -39
-14 -4 -19 -14 -19 -36 0 -19 -6 -34 -15 -37 -9 -4 -15 -19 -15 -40 0 -27 -4
-34 -20 -34 -16 0 -20 -7 -20 -30 0 -16 -3 -29 -7 -29 -28 5 -33 -4 -33 -57 0
-44 -3 -55 -14 -51 -16 6 -26 -13 -26 -49 0 -13 -3 -23 -8 -23 -27 4 -32 -4
-32 -51 0 -27 -3 -49 -7 -49 -25 4 -33 -4 -33 -35 0 -26 -5 -36 -20 -41 -16
-5 -20 -15 -20 -56 0 -42 -3 -49 -20 -49 -18 0 -20 -7 -20 -65 0 -49 -3 -65
-14 -65 -18 0 -26 -22 -26 -72 0 -32 -3 -39 -15 -34 -15 5 -16 -1 -17 -111 -1
-28 -4 -33 -25 -33 -13 0 -23 -6 -22 -12 1 -7 1 -45 0 -84 -1 -63 -4 -72 -21
-77 -18 -5 -20 -14 -20 -116 0 -61 0 -114 1 -118 0 -5 -10 -10 -22 -13 -15 -4
-23 -14 -25 -30 -3 -30 -14 -282 -14 -327 0 -25 -4 -31 -17 -29 -15 3 -18 -4
-19 -43 0 -25 -3 -133 -7 -238 -7 -185 -7 -193 11 -193 16 0 19 -7 16 -42 -1
-24 -5 -112 -9 -195 -6 -138 -5 -153 10 -153 15 0 16 -14 13 -122 -3 -112 -1
-123 15 -126 16 -3 18 -12 15 -73 -3 -60 -1 -69 15 -69 15 0 17 -11 17 -90 0
-65 3 -90 13 -90 8 0 11 -15 9 -50 -3 -39 0 -51 12 -56 13 -5 16 -21 16 -75 0
-60 2 -69 18 -69 16 0 18 -7 14 -49 -3 -44 -1 -50 18 -56 17 -6 21 -13 18 -36
-3 -22 0 -30 14 -35 16 -5 18 -13 14 -51 -4 -38 -1 -46 15 -50 15 -4 19 -14
19 -44 0 -32 4 -39 19 -39 16 0 19 -7 17 -45 -2 -43 12 -73 28 -58 3 4 3 -7 0
-24 -5 -25 -2 -34 15 -45 13 -8 21 -23 21 -39 0 -16 7 -30 16 -33 12 -4 15
-15 12 -37 -4 -25 -1 -33 14 -37 13 -3 18 -14 18 -38 0 -26 4 -34 18 -34 15 0
17 -6 14 -36 -4 -29 -1 -36 17 -41 15 -4 21 -13 21 -34 0 -19 5 -29 15 -29 8
0 15 -9 15 -20 0 -11 7 -20 15 -20 10 0 15 -10 15 -34 0 -25 5 -35 20 -39 15
-4 20 -14 20 -41 0 -25 4 -36 15 -36 8 0 15 -9 15 -20 0 -13 7 -20 19 -20 11
0 18 -7 18 -17 0 -35 3 -43 18 -43 9 0 12 -6 8 -16 -4 -10 1 -17 16 -21 12 -3
21 -13 21 -24 0 -11 6 -19 14 -19 8 0 16 -16 20 -40 5 -29 10 -38 21 -34 9 4
15 0 15 -9 0 -9 6 -20 13 -24 8 -4 16 -16 20 -26 3 -9 12 -17 20 -17 9 0 12
-10 9 -35 -4 -30 -1 -35 17 -35 12 0 21 -6 21 -15 0 -8 7 -15 15 -15 8 0 15
-5 15 -11 0 -13 47 -59 60 -59 4 0 7 -14 6 -31 -2 -21 4 -35 16 -42 10 -7 18
-17 18 -23 0 -7 7 -14 15 -18 8 -3 15 -12 15 -21 0 -8 4 -15 9 -15 15 0 61
-49 61 -65 0 -8 9 -15 20 -15 11 0 19 -5 18 -12 -2 -6 6 -14 17 -17 11 -3 20
-13 20 -21 0 -8 8 -14 18 -14 9 1 17 -4 17 -11 0 -26 32 -76 46 -71 8 3 14 -1
14 -10 0 -9 9 -18 19 -21 11 -3 17 -11 15 -18 -3 -7 4 -16 15 -20 11 -3 23
-15 26 -25 3 -11 12 -19 18 -17 7 1 11 -6 9 -17 -2 -10 1 -15 7 -12 5 4 12 2
15 -2 3 -5 17 -7 31 -4 14 2 25 1 24 -4 -4 -22 2 -34 16 -34 8 0 15 -7 15 -15
0 -8 9 -15 20 -15 13 0 18 -5 14 -15 -4 -8 1 -17 10 -21 9 -3 16 -15 16 -25 0
-12 7 -19 20 -19 11 0 20 -7 20 -15 0 -13 31 -21 63 -16 4 0 7 -8 7 -19 0 -11
6 -20 14 -20 8 0 18 -9 21 -20 3 -11 11 -20 16 -20 5 0 9 -9 9 -20 0 -17 7
-20 40 -20 33 0 40 -3 40 -20 0 -11 7 -20 15 -20 8 0 15 -7 15 -15 0 -10 11
-15 35 -15 24 0 35 -5 35 -15 0 -7 8 -19 18 -24 9 -6 13 -11 8 -11 -23 -1 20
-30 45 -30 19 0 29 -5 29 -15 0 -8 9 -15 19 -15 12 0 18 -7 17 -17 -1 -14 8
-19 37 -21 29 -3 37 -7 37 -23 0 -14 7 -19 29 -19 21 0 32 -6 36 -20 4 -14 15
-20 36 -20 18 0 29 -5 29 -14 0 -16 21 -26 56 -26 16 0 23 -4 18 -11 -8 -13
13 -29 39 -29 10 0 25 -7 33 -15 9 -8 28 -15 44 -15 20 0 27 -5 26 -17 -1 -13
8 -19 32 -21 22 -2 32 -8 32 -20 0 -14 8 -17 35 -17 30 1 35 -2 35 -21 0 -18
5 -23 23 -22 38 1 47 -2 47 -16 0 -18 16 -24 67 -22 35 1 43 -2 45 -19 3 -21
6 -22 62 -24 24 -1 35 -6 39 -20 4 -16 15 -20 53 -23 33 -2 48 -7 46 -15 -1
-7 2 -14 8 -14 5 -1 19 -3 30 -4 11 -1 29 -3 39 -4 11 0 23 -10 26 -21 5 -16
15 -20 56 -20 37 0 49 -4 49 -15 0 -12 15 -15 75 -15 67 0 76 -2 73 -17 -3
-16 8 -18 84 -21 81 -3 87 -4 90 -25 3 -20 10 -22 86 -27 45 -3 82 -9 81 -14
-2 -19 31 -25 159 -27 94 -2 131 -7 128 -15 -12 -31 22 -35 479 -49 77 -3 199
-7 272 -10 125 -5 132 -4 138 15 5 16 13 18 43 15 20 -2 92 -7 160 -10 122 -6
124 -6 117 15 -7 21 -5 21 76 17 92 -5 109 -2 109 20 0 12 16 14 87 12 71 -3
88 -1 91 11 2 12 17 14 72 12 60 -3 70 -1 70 13 0 14 8 16 50 13 42 -2 50 0
50 15 0 14 9 17 55 17 46 0 55 3 55 18 0 15 8 17 51 16 42 -2 52 1 56 15 4 15
13 17 59 14 30 -2 54 -1 53 4 -4 25 4 33 36 33 24 0 35 5 35 15 0 12 13 15 55
15 42 0 55 3 55 15 0 10 11 15 35 15 28 0 35 4 35 19 0 15 7 19 35 17 27 -1
35 3 35 16 0 12 10 18 38 20 20 2 36 8 35 14 -1 6 10 9 27 6 21 -3 31 1 39 17
8 14 21 21 41 21 17 0 33 7 39 17 5 10 21 17 38 18 17 0 27 5 25 13 -1 8 11
12 38 12 33 0 40 3 40 20 0 13 7 20 20 20 13 0 20 7 20 20 0 17 5 19 35 14 30
-4 35 -2 35 14 0 17 6 19 35 16 27 -2 35 1 40 17 4 10 13 19 21 19 13 0 19 12
15 33 -1 5 12 6 28 4 20 -3 31 0 35 9 3 8 15 14 26 14 11 0 19 3 19 7 -3 21 3
31 22 36 13 4 19 11 16 20 -4 10 3 12 25 9 24 -4 36 2 65 33 19 20 40 34 47
32 9 -4 12 3 10 19 -2 22 1 24 32 20 28 -4 34 -1 34 14 0 12 5 17 14 14 15 -6
30 22 19 38 -3 6 -1 8 5 5 15 -10 42 3 42 19 0 8 7 14 15 14 8 0 15 5 15 10 0
6 6 10 14 10 8 0 18 9 21 20 5 14 15 20 37 20 21 0 31 6 35 20 3 11 9 17 14
14 11 -7 40 21 31 30 -3 4 2 4 11 0 13 -5 20 -1 24 15 3 11 12 21 20 21 8 0
13 8 11 18 -2 11 4 18 20 20 12 2 22 9 22 17 0 7 10 15 21 18 15 4 20 11 16
21 -5 11 0 16 13 16 11 0 20 7 20 15 0 8 7 15 15 15 9 0 18 6 21 14 3 8 11 13
19 10 7 -3 15 5 19 21 4 14 10 23 15 21 5 -3 14 1 21 9 7 8 9 15 4 16 -5 1 2
4 16 8 19 5 26 14 28 39 2 18 7 32 13 32 5 0 9 9 9 20 0 11 3 19 8 19 20 -3
32 2 32 16 0 8 3 14 8 14 22 -4 32 3 32 22 0 11 4 18 9 14 5 -3 15 1 23 8 7 7
21 16 31 20 11 4 17 17 17 36 0 16 6 31 15 35 8 3 15 12 15 21 0 8 7 15 15 15
7 0 18 6 22 12 4 7 17 18 28 24 13 8 19 20 18 38 -1 17 3 26 13 26 8 0 19 10
24 23 5 12 9 18 10 12 1 -19 20 20 20 43 0 15 6 22 20 22 13 0 20 7 20 20 0
13 5 18 15 14 15 -6 18 5 18 59 0 12 5 16 17 12 13 -4 20 1 25 15 3 11 13 20
21 20 9 0 14 11 14 34 0 25 5 35 20 39 15 4 20 14 20 42 0 20 4 34 9 31 4 -3
19 3 31 14 13 11 27 20 33 20 5 0 7 15 5 34 -2 19 -1 33 3 30 17 -10 39 10 39
37 0 19 5 29 15 29 10 0 15 11 15 35 0 24 5 35 15 35 8 0 16 9 16 20 1 11 2
28 3 38 0 9 10 19 21 22 20 6 22 9 24 59 1 20 7 32 20 36 13 4 18 14 16 35 -2
24 2 31 19 36 17 4 21 12 20 39 -2 30 1 34 20 32 18 -2 21 4 24 42 2 25 9 50
17 55 7 6 16 32 20 58 4 30 11 48 19 48 16 0 26 30 26 76 0 22 6 33 18 36 14
4 19 16 20 49 1 23 7 46 14 50 7 4 14 37 16 73 4 56 7 66 23 66 16 0 19 8 20
48 1 26 1 53 0 60 -1 8 7 16 18 19 16 4 21 14 22 37 2 149 2 151 23 156 23 6
24 13 27 142 2 70 6 98 15 98 7 0 15 4 18 8 3 5 8 78 12 163 3 85 8 182 9 214
2 33 3 72 4 86 1 18 8 28 21 32 18 5 20 14 20 91 0 73 -2 86 -16 86 -15 0 -16
17 -9 183 7 172 9 260 6 300 0 9 -8 17 -17 17 -15 0 -16 13 -10 125 5 110 4
125 -10 125 -13 0 -15 12 -14 68 2 107 2 112 -17 112 -16 0 -18 9 -15 70 3 65
2 70 -17 70 -18 0 -19 5 -15 66 3 54 1 69 -12 79 -13 9 -16 22 -12 53 5 34 3
42 -13 47 -15 5 -18 14 -14 55 3 41 1 49 -16 53 -17 5 -20 13 -18 52 2 37 -1
51 -16 61 -14 10 -18 25 -17 59 2 37 -1 45 -16 45 -15 0 -17 6 -14 35 4 30 1
35 -17 35 -18 0 -21 6 -21 40 0 31 -4 40 -17 40 -15 0 -17 8 -15 50 3 41 1 50
-12 50 -12 0 -16 10 -16 36 0 27 -5 37 -20 41 -15 4 -20 14 -20 38 0 18 -4 35
-10 37 -5 2 -11 15 -12 31 -1 15 -10 29 -20 33 -10 3 -15 11 -11 20 8 22 -6
64 -22 64 -8 0 -15 5 -15 10 0 6 -9 10 -20 10 -17 0 -20 7 -20 40 0 26 -5 40
-13 40 -9 0 -12 11 -9 35 4 30 1 35 -17 35 -14 0 -21 6 -21 20 0 14 -7 20 -21
20 -18 0 -20 5 -16 26 3 18 -2 33 -14 45 -11 11 -19 24 -19 29 0 6 -9 10 -19
10 -16 0 -18 6 -15 35 2 25 -1 35 -12 35 -7 0 -14 9 -14 20 0 13 -5 18 -15 14
-12 -5 -15 2 -15 30 0 25 -5 39 -17 43 -22 8 -62 54 -63 71 0 6 -6 12 -13 12
-9 0 -12 10 -9 31 4 24 0 31 -17 36 -11 3 -21 12 -21 19 0 8 -9 14 -20 14 -11
0 -20 6 -20 14 0 8 -7 16 -15 20 -8 3 -15 12 -15 21 0 14 -12 20 -33 16 -4 -1
-7 4 -6 11 3 26 -1 39 -11 33 -6 -3 -10 4 -10 17 0 27 -47 101 -59 93 -10 -6
-23 23 -16 35 3 4 -5 6 -17 2 -17 -4 -20 -2 -15 11 4 10 -1 18 -14 22 -10 4
-19 12 -19 20 0 7 -10 15 -21 18 -14 4 -20 11 -16 20 4 11 0 13 -14 10 -15 -4
-19 0 -19 21 0 14 -3 25 -7 24 -9 -3 -93 79 -93 90 0 11 -47 52 -59 52 -6 0
-11 7 -11 15 0 16 -13 24 -47 30 -10 1 -17 8 -16 14 2 6 -6 11 -16 11 -11 0
-23 9 -26 20 -3 11 -13 20 -21 20 -8 0 -14 9 -14 20 0 11 -7 20 -15 20 -8 0
-15 6 -15 14 0 8 -7 17 -16 20 -9 4 -14 13 -10 21 5 14 -22 21 -63 15 -8 -1
-12 4 -8 13 5 15 -18 32 -36 28 -5 -1 -6 3 -2 8 3 6 -3 16 -15 23 -11 7 -20
18 -20 24 0 13 -23 24 -51 24 -17 0 -24 11 -20 33 0 4 -6 7 -15 7 -8 0 -22 6
-30 14 -7 8 -22 13 -31 12 -11 -2 -20 5 -24 18 -3 12 -11 20 -18 18 -7 -1 -15
6 -18 17 -3 14 -15 21 -37 23 -19 2 -31 8 -31 18 0 10 -12 16 -37 18 -28 2
-36 7 -31 18 4 10 -2 17 -16 21 -12 3 -21 13 -21 24 0 11 -3 18 -7 18 -37 -6
-63 3 -63 21 0 16 -7 20 -37 20 -20 0 -33 3 -30 7 13 12 -15 33 -44 33 -19 0
-29 5 -29 15 0 8 -7 16 -15 16 -8 1 -19 3 -25 4 -5 1 -14 3 -20 4 -5 0 -10 8
-10 16 0 10 -11 15 -35 15 -23 0 -34 4 -33 12 2 7 -12 17 -29 22 -18 6 -33 16
-33 23 0 11 -27 18 -53 14 -4 -1 -10 7 -14 16 -9 23 -23 33 -50 33 -14 0 -23
6 -23 15 0 14 -35 20 -97 18 -7 -1 -13 8 -13 18 0 11 -8 20 -17 21 -10 1 -25
2 -33 4 -8 1 -23 2 -32 3 -10 1 -18 8 -18 16 0 10 -11 15 -30 16 -16 1 -34 3
-40 4 -5 1 -17 3 -26 4 -8 0 -13 5 -9 10 7 13 -12 24 -49 26 -17 2 -37 3 -43
4 -7 0 -13 7 -13 15 0 17 -22 26 -65 26 -18 0 -35 6 -37 12 -4 12 -24 14 -127
17 -18 1 -22 5 -18 21 5 19 0 20 -66 21 -40 1 -80 2 -90 2 -12 0 -16 5 -13 14
3 7 0 16 -7 18 -12 4 -97 12 -149 14 -20 1 -28 6 -28 20 0 14 -7 19 -27 19
-16 -1 -77 1 -137 2 -96 3 -109 6 -114 22 -6 25 -15 26 -282 33 -210 5 -327 9
-567 20 -40 1 -74 0 -74 -4z m421 -126 c113 -4 225 -9 250 -10 25 -2 64 -3 88
-4 35 -1 42 -4 42 -21 0 -14 7 -20 23 -20 12 -1 81 -3 152 -6 113 -5 132 -8
144 -25 11 -16 26 -19 93 -19 66 0 79 -3 75 -14 -7 -18 8 -23 98 -31 43 -3 74
-11 81 -20 12 -16 40 -23 96 -24 28 -1 38 -6 43 -21 4 -11 12 -20 18 -19 43 5
87 -2 87 -15 0 -18 20 -25 83 -28 26 -1 53 -8 59 -15 6 -7 30 -13 54 -13 37 0
44 -3 44 -20 0 -16 7 -20 34 -20 25 0 35 -5 39 -20 4 -15 14 -20 44 -21 21 -1
42 -1 46 0 5 1 11 -8 14 -19 4 -16 14 -20 45 -20 21 0 37 -4 34 -9 -11 -18 5
-39 25 -34 13 4 25 -2 35 -16 9 -12 21 -21 27 -20 45 5 75 -2 80 -21 4 -15 14
-20 36 -20 24 0 31 -4 31 -20 0 -16 7 -20 35 -20 28 0 33 -3 28 -17 -4 -9 -2
-14 3 -11 5 3 15 0 22 -8 7 -8 9 -14 5 -14 -21 -1 26 -20 48 -20 19 0 28 -6
32 -21 5 -18 12 -21 39 -17 29 3 34 0 34 -16 -1 -15 6 -20 28 -20 21 -1 31 -7
37 -25 6 -15 14 -21 24 -17 10 4 15 -1 15 -14 0 -16 7 -20 30 -20 21 0 30 -5
30 -16 0 -9 9 -18 19 -21 11 -3 21 -13 24 -24 3 -13 14 -19 32 -19 19 0 29 -6
32 -21 3 -11 11 -18 18 -15 7 2 15 -4 18 -15 4 -14 14 -19 36 -19 25 0 31 -4
31 -21 0 -17 5 -20 21 -16 18 5 20 2 17 -17 -4 -19 -1 -22 15 -18 16 4 18 1
12 -17 -7 -22 -3 -24 47 -23 15 0 27 -2 27 -6 -3 -21 3 -32 16 -32 8 0 15 -4
15 -10 0 -5 -20 -7 -45 -5 -37 4 -47 2 -57 -15 -8 -12 -24 -20 -39 -20 -16 0
-33 -9 -42 -22 l-16 -23 0 23 c-1 12 -8 23 -16 23 -8 1 -19 3 -25 4 -5 1 -14
3 -19 4 -5 0 -12 9 -15 19 -3 10 -16 18 -28 19 -11 1 -24 7 -27 12 -4 6 -23
11 -43 13 -23 1 -34 6 -31 14 6 15 -4 21 -42 25 -20 3 -32 11 -35 24 -4 15
-14 20 -38 20 -24 0 -32 4 -32 17 0 13 -8 18 -30 18 -23 0 -30 4 -30 20 0 20
-13 23 -92 23 -9 0 -17 2 -16 6 3 26 -6 31 -58 31 -51 0 -55 2 -49 20 5 17 2
20 -27 20 -25 0 -36 6 -43 23 -11 24 -14 24 -137 26 -62 1 -78 4 -78 16 0 8
-7 16 -15 16 -8 1 -19 3 -25 4 -5 1 -37 3 -70 4 -46 1 -60 4 -60 16 0 9 -10
15 -27 16 -16 1 -50 3 -78 4 -27 2 -62 3 -77 4 -20 1 -28 6 -28 19 0 18 -8 19
-219 21 -68 1 -73 2 -68 21 4 17 0 20 -36 22 -23 1 -51 3 -62 4 -11 1 -32 2
-47 3 -20 1 -26 5 -22 16 6 13 -6 20 -28 16 -5 0 -8 8 -8 19 0 13 -7 20 -18
20 -15 0 -17 6 -14 35 4 33 -3 41 -31 36 -5 -1 -7 9 -5 21 2 15 -2 23 -12 24
-8 1 -23 2 -32 3 -10 0 -18 7 -18 15 0 8 -9 18 -20 21 -11 4 -18 11 -15 16 4
5 -12 9 -34 9 -34 0 -41 3 -41 20 0 19 -13 24 -51 21 -9 -1 -19 7 -22 19 -4
16 -14 20 -49 21 -23 1 -47 1 -52 0 -5 -1 -6 7 -3 19 4 17 0 20 -29 20 -27 0
-34 4 -34 20 0 11 -7 21 -15 21 -8 1 -23 2 -32 3 -10 0 -21 9 -25 18 -6 14
-19 18 -58 18 -47 0 -51 2 -45 20 6 18 2 20 -48 20 -46 0 -55 3 -53 18 1 13
-8 18 -36 20 -26 2 -39 9 -43 23 -5 14 -16 19 -48 20 -23 1 -45 1 -49 0 -5 0
-8 6 -8 14 0 8 -10 16 -22 17 -13 1 -40 2 -61 4 -21 1 -41 5 -45 9 -7 7 18 26
28 20 3 -1 97 -6 210 -10z m-2520 -734 c0 -16 6 -19 40 -15 22 2 39 0 39 -4
-4 -24 3 -43 14 -39 9 3 11 -24 9 -124 -4 -125 -3 -129 17 -129 17 0 20 -5 16
-22 -2 -13 -7 -85 -9 -160 -5 -133 -4 -138 15 -138 19 0 19 -5 13 -137 -3 -76
-8 -141 -10 -144 -2 -3 7 -4 19 -2 20 4 23 1 21 -29 -1 -18 -2 -54 -3 -80 -1
-36 -5 -48 -16 -48 -9 0 -18 -7 -21 -15 -4 -8 -15 -15 -26 -15 -15 0 -19 -5
-15 -20 4 -15 0 -20 -14 -20 -10 0 -19 -7 -19 -15 0 -8 -9 -15 -20 -15 -18 0
-25 -10 -21 -32 0 -4 -6 -5 -13 -2 -8 3 -17 -3 -20 -14 -4 -11 -16 -22 -26
-25 -11 -3 -20 -12 -20 -21 0 -10 -6 -13 -16 -9 -10 4 -17 -2 -21 -16 -3 -13
-11 -20 -19 -17 -13 5 -18 -5 -15 -31 1 -7 -7 -13 -18 -13 -14 0 -19 -5 -14
-15 3 -9 2 -15 -3 -14 -21 4 -34 -2 -34 -16 0 -9 -6 -12 -16 -8 -10 4 -17 -1
-21 -16 -3 -11 -11 -21 -18 -21 -14 0 -25 -22 -25 -51 0 -11 -7 -19 -16 -19
-9 0 -18 -9 -21 -21 -3 -12 -11 -18 -19 -15 -14 5 -19 -15 -15 -56 1 -10 -7
-18 -21 -20 -15 -2 -22 -9 -20 -19 1 -11 -4 -16 -15 -15 -13 1 -19 -8 -21 -32
-2 -19 -7 -30 -14 -26 -14 9 -28 -15 -28 -49 0 -16 -5 -26 -12 -25 -8 2 -14
-11 -16 -33 -2 -27 -9 -38 -23 -42 -13 -4 -19 -14 -19 -35 0 -21 -6 -31 -20
-35 -15 -4 -20 -14 -20 -36 0 -24 -4 -31 -20 -31 -17 0 -20 -7 -20 -52 0 -28
-3 -49 -6 -45 -11 11 -34 -21 -34 -47 0 -19 -5 -26 -20 -26 -18 0 -20 -7 -20
-55 0 -30 -3 -54 -7 -54 -28 4 -35 -3 -31 -30 4 -25 0 -31 -19 -36 -12 -3 -22
-9 -22 -13 5 -29 -4 -52 -21 -57 -16 -5 -20 -15 -20 -55 0 -33 -5 -50 -15 -54
-10 -4 -15 -20 -15 -51 0 -38 -3 -45 -20 -45 -18 0 -20 -7 -20 -56 0 -46 -3
-55 -15 -50 -16 6 -23 -12 -27 -74 -2 -27 -7 -34 -20 -32 -13 2 -18 -4 -18
-18 0 -19 -5 -21 -42 -19 -61 2 -68 1 -68 -17 0 -9 -8 -14 -17 -13 -32 3 -43
-1 -43 -14 0 -10 -15 -12 -59 -9 -57 4 -59 3 -54 -17 5 -19 1 -21 -35 -21 -26
0 -42 -5 -46 -15 -3 -8 -17 -15 -30 -15 -14 0 -29 -6 -33 -14 -5 -9 -28 -16
-58 -18 -42 -2 -50 -6 -48 -22 1 -16 -4 -18 -38 -13 -34 4 -39 3 -39 -15 0
-18 -5 -19 -51 -13 -45 6 -51 4 -56 -14 -4 -17 -13 -21 -43 -21 -33 0 -37 -3
-33 -20 4 -15 0 -19 -18 -18 -39 2 -49 -1 -49 -15 0 -9 -11 -12 -35 -9 -27 3
-35 1 -35 -12 0 -10 -9 -16 -24 -16 -35 0 -56 -10 -56 -26 0 -8 -7 -14 -15
-14 -9 0 -18 -7 -21 -15 -4 -8 -18 -15 -34 -15 -17 0 -34 -9 -44 -22 -16 -22
-16 -22 -12 22 3 25 5 87 5 138 1 51 5 91 9 88 16 -10 33 12 37 45 2 19 4 73
4 122 1 80 3 87 21 87 11 0 19 3 19 8 -1 4 -1 41 0 83 1 68 3 77 21 82 15 4
20 14 21 41 1 20 3 41 4 46 1 6 3 21 4 35 1 15 7 25 16 25 14 0 17 15 18 108
0 15 6 22 18 22 11 0 20 7 20 15 1 8 3 20 4 25 1 6 3 24 4 40 1 19 6 30 15 30
11 0 16 15 18 53 2 33 7 51 15 50 15 -3 25 28 19 59 -5 29 3 43 24 43 10 0 17
13 20 38 3 21 8 38 13 37 4 0 12 0 17 0 6 0 10 23 10 50 0 36 4 50 14 50 15 0
26 21 26 50 0 10 9 20 20 23 15 4 20 14 20 36 0 27 7 35 30 33 3 0 5 15 4 34
-2 29 1 34 21 34 20 0 23 4 21 33 -2 25 2 33 18 38 15 4 21 13 21 32 -1 16 5
27 12 27 8 0 13 12 13 31 0 22 5 32 20 36 11 3 21 9 21 14 1 5 3 18 4 29 1 11
3 25 4 30 0 6 8 10 16 10 8 0 15 7 15 15 0 10 7 15 18 13 13 -2 18 5 20 35 3
29 7 37 23 37 15 0 19 7 19 37 0 20 3 34 6 30 3 -3 17 5 31 19 13 13 28 24 33
24 6 0 10 13 10 29 0 21 6 32 20 36 11 3 20 12 20 20 0 7 5 15 11 17 5 2 11
18 11 36 1 27 5 32 25 32 15 0 22 4 18 11 -4 6 2 13 13 16 11 2 23 14 25 25 3
11 10 17 15 14 11 -7 22 16 22 45 0 12 7 19 20 19 11 0 20 6 20 13 0 7 9 18
20 25 12 7 18 17 15 22 -3 6 3 10 14 10 12 0 21 7 21 15 0 8 9 15 20 15 19 0
21 5 25 55 1 11 7 19 14 17 7 -1 15 7 18 18 3 11 12 20 19 20 8 0 14 6 14 14
0 8 9 18 20 21 11 3 20 10 20 15 0 4 9 10 21 13 12 3 18 10 14 16 -3 7 2 11
14 11 14 0 21 6 21 20 0 13 7 20 20 20 11 0 20 4 20 10 0 9 46 59 55 60 3 0
10 0 16 0 6 0 9 9 6 19 -4 15 0 19 14 16 13 -3 19 2 19 16 0 12 7 19 20 19 13
0 20 7 20 20 0 13 5 18 15 14 10 -4 15 0 15 15 0 12 6 21 14 21 8 0 16 7 20
15 3 8 15 15 26 15 11 0 19 6 18 13 -2 8 9 12 31 12 21 0 36 6 39 15 8 22 81
90 98 90 8 0 14 9 14 20 0 16 7 20 36 20 20 0 33 4 29 9 -7 12 30 33 40 23 3
-4 5 -2 3 3 -6 19 52 65 82 65 20 0 30 5 30 15 0 9 9 15 25 15 18 0 25 -5 25
-19z m3568 -21 c28 0 51 -3 51 -7 -5 -30 4 -33 87 -33 74 0 85 -2 80 -16 -3
-8 -2 -13 3 -9 5 3 11 1 13 -4 1 -4 46 -11 98 -15 52 -4 96 -10 98 -14 10 -28
24 -32 115 -34 71 -2 97 -6 97 -15 0 -12 15 -14 138 -15 27 -1 32 -4 32 -25 0
-23 3 -25 35 -21 29 3 35 1 35 -14 0 -17 16 -21 93 -21 10 0 17 -7 17 -18 0
-11 6 -20 13 -20 6 -1 26 -3 42 -4 17 -2 33 -3 38 -4 4 -1 7 -10 7 -21 0 -16
7 -20 34 -20 21 0 36 -6 40 -15 3 -9 18 -15 36 -15 28 0 34 -7 31 -36 0 -5 9
-10 22 -11 50 -1 56 -3 51 -18 -5 -11 1 -15 22 -16 16 -1 33 -1 37 0 5 1 5 -4
1 -10 -9 -15 14 -29 48 -29 17 0 28 -6 30 -17 2 -10 13 -19 26 -19 12 -1 26
-2 31 -3 5 0 8 -17 7 -36 -1 -25 2 -34 12 -30 7 2 16 -3 19 -13 10 -27 46 -62
65 -62 11 0 15 -6 11 -20 -4 -14 0 -20 11 -20 11 0 16 -9 16 -30 0 -16 6 -33
13 -37 8 -4 16 -16 20 -25 3 -10 13 -18 21 -18 9 0 13 -6 10 -14 -4 -10 2 -16
18 -18 20 -3 23 -8 20 -42 -3 -24 0 -36 7 -32 5 4 15 -3 21 -14 6 -11 17 -20
25 -20 11 0 15 -12 15 -40 0 -29 4 -40 15 -40 13 0 19 -12 16 -32 0 -4 6 -5
14 -2 12 5 15 -3 15 -35 0 -34 3 -41 20 -41 11 0 20 -7 20 -15 0 -8 6 -14 13
-13 7 2 13 -11 15 -34 2 -25 8 -38 18 -38 8 0 14 -9 14 -20 0 -13 7 -20 20
-20 13 0 17 -5 14 -14 -3 -9 3 -17 15 -21 21 -6 25 -15 21 -48 -1 -11 7 -21
18 -24 14 -3 18 -11 15 -24 -4 -14 0 -19 16 -19 14 0 21 -6 21 -20 0 -14 6
-20 17 -18 12 2 18 -4 19 -19 1 -13 2 -30 3 -39 0 -8 6 -12 11 -9 6 3 10 0 11
-7 1 -7 2 -24 2 -38 2 -17 7 -25 20 -24 10 1 17 -5 17 -17 0 -10 7 -19 15 -19
11 0 15 -11 15 -35 0 -22 6 -38 15 -41 9 -4 15 -19 15 -35 0 -17 6 -32 15 -35
9 -4 15 -19 15 -41 0 -30 3 -34 20 -28 16 5 20 2 20 -19 0 -16 5 -25 13 -24 7
2 13 -11 15 -33 2 -26 9 -38 22 -42 16 -4 18 -12 13 -56 -3 -29 -1 -51 3 -50
32 5 35 -2 32 -84 -3 -75 -5 -83 -23 -82 -14 0 -21 -9 -25 -30 -3 -16 -11 -29
-18 -28 -7 2 -12 -10 -12 -31 0 -26 -5 -36 -20 -41 -11 -3 -21 -15 -21 -26 -1
-17 -4 -43 -8 -68 0 -5 -10 -11 -21 -14 -15 -4 -20 -14 -20 -36 0 -19 -5 -30
-12 -28 -8 1 -14 -12 -16 -35 -2 -25 -8 -38 -18 -38 -15 0 -35 -39 -27 -53 2
-4 -3 -10 -11 -13 -10 -4 -16 -19 -16 -40 0 -27 -4 -34 -20 -34 -17 0 -20 -7
-20 -39 0 -34 -3 -38 -20 -34 -11 3 -20 0 -20 -6 0 -6 -6 -11 -14 -11 -16 0
-26 -21 -26 -56 0 -18 -5 -24 -21 -24 -11 0 -17 -4 -14 -10 3 -5 -5 -15 -19
-22 -20 -9 -26 -19 -26 -43 0 -25 -4 -32 -17 -31 -12 1 -17 -5 -15 -17 2 -10
-2 -17 -10 -16 -29 3 -40 -2 -34 -16 4 -10 -1 -15 -14 -15 -16 0 -20 -7 -20
-35 0 -26 -3 -33 -15 -29 -10 4 -15 0 -15 -15 0 -14 -6 -21 -20 -21 -13 0 -20
-7 -20 -20 0 -11 -7 -20 -15 -20 -10 0 -15 -11 -15 -35 0 -28 -4 -35 -20 -35
-11 0 -20 -7 -20 -15 0 -8 -12 -18 -26 -21 -16 -4 -23 -12 -20 -20 3 -8 1 -14
-4 -14 -6 0 -10 9 -10 20 0 18 -7 20 -74 20 -70 0 -73 1 -71 23 3 21 -1 22
-57 21 -57 -1 -88 12 -88 37 0 5 -29 9 -65 9 -57 0 -65 2 -65 19 0 12 -7 18
-22 18 -115 1 -158 4 -154 11 12 20 -15 32 -77 34 -56 3 -67 6 -67 21 0 17
-21 20 -132 20 -10 0 -14 5 -11 13 3 8 0 15 -6 15 -6 1 -15 3 -21 4 -5 1 -32
3 -59 4 -40 1 -49 4 -47 19 1 15 -11 17 -91 20 -85 2 -93 4 -93 22 0 18 -7 20
-65 20 -58 0 -65 2 -65 20 0 18 -30 34 -56 29 -5 -1 -29 -1 -53 0 -34 1 -42 4
-37 16 6 16 6 16 -72 17 -46 0 -55 3 -64 24 -10 22 -17 24 -92 25 -45 1 -84 1
-87 1 -4 -1 -4 17 -2 39 4 30 2 39 -8 37 -10 -2 -13 6 -11 25 3 22 -1 30 -17
34 -17 4 -21 13 -21 44 0 33 -3 39 -21 39 -12 0 -17 4 -14 11 10 16 -4 59 -19
59 -9 0 -12 8 -9 24 3 16 -2 28 -14 37 -11 8 -22 22 -26 32 -3 9 -14 17 -22
17 -13 0 -16 8 -13 32 2 24 -1 33 -12 33 -9 0 -16 10 -17 25 0 14 -1 31 -2 38
-1 6 -10 12 -21 12 -13 0 -17 5 -14 14 3 9 -3 17 -16 21 -18 6 -21 13 -18 45
2 27 0 36 -9 33 -7 -3 -13 2 -13 10 0 9 -9 18 -20 22 -11 3 -19 11 -17 17 1 6
-7 16 -18 22 -14 8 -19 19 -17 39 3 24 -5 32 -30 28 -3 0 -4 13 -1 29 3 22 0
32 -12 36 -9 4 -21 18 -26 31 -6 16 -15 23 -24 20 -11 -5 -13 2 -10 33 2 22 1
39 -3 39 -28 -4 -34 3 -30 36 3 29 1 35 -14 35 -14 0 -18 8 -18 35 0 29 -4 35
-21 35 -18 0 -20 5 -16 35 4 25 1 35 -9 35 -8 0 -14 9 -14 20 0 11 -7 20 -15
20 -10 0 -15 10 -15 29 0 28 -21 57 -33 45 -3 -3 -8 4 -12 15 -3 12 -13 21
-21 21 -8 0 -13 3 -13 8 3 20 -2 32 -16 32 -8 0 -14 5 -12 12 1 6 -7 14 -18
17 -11 3 -20 13 -20 21 0 9 -7 14 -17 12 -12 -2 -18 4 -18 18 0 11 -7 20 -15
20 -11 0 -15 11 -15 40 0 33 -3 40 -17 38 -12 -2 -19 4 -21 20 -2 12 -8 20
-13 17 -5 -4 -9 -1 -9 6 0 6 -16 26 -35 45 -26 24 -35 41 -35 64 0 28 -3 32
-21 27 -20 -5 -21 -3 -15 46 3 29 6 53 6 55 0 2 8 2 18 0 9 -2 16 3 15 10 -2
6 6 12 17 12 11 0 20 6 20 13 0 8 16 27 35 43 19 16 35 34 35 40 0 7 8 11 18
10 13 -1 18 8 20 37 3 30 7 37 24 37 14 0 18 5 14 15 -4 11 1 15 19 15 18 0
25 5 25 20 0 11 7 20 15 20 8 0 15 6 15 14 0 7 9 16 20 19 15 4 20 14 20 36 0
22 4 29 14 25 9 -3 17 3 21 15 3 12 13 21 21 21 8 0 14 7 14 15 0 8 9 15 20
15 13 0 20 7 20 20 0 14 7 20 21 20 11 0 18 4 14 9 -3 6 4 15 15 21 14 8 20
21 20 45 0 19 3 34 8 34 20 -3 32 2 32 16 0 8 9 15 20 15 11 0 20 7 20 15 0 8
3 14 8 14 21 -4 31 3 26 16 -4 10 0 15 15 15 12 0 22 7 22 15 1 8 2 23 3 33 0
9 9 20 18 24 10 4 18 14 18 23 0 8 9 15 20 15 11 0 20 7 20 15 0 8 9 15 20 15
13 0 20 7 20 19 0 11 5 21 11 23 9 3 16 24 18 56 1 7 9 12 19 10 9 -2 16 3 15
10 -2 7 8 12 23 12 21 0 25 4 21 20 -4 15 0 20 14 20 10 0 19 6 19 14 0 8 9
18 20 21 11 3 20 13 20 22 0 13 10 15 68 9 37 -3 91 -6 120 -6z m-1763 -1055
c110 -4 223 -9 250 -11 28 -2 69 -3 93 -4 35 0 42 -3 42 -20 0 -16 7 -20 35
-20 28 0 35 -4 35 -20 0 -11 6 -20 14 -20 14 0 29 -28 25 -46 -4 -21 2 -34 14
-31 6 1 11 -6 9 -15 -2 -12 4 -18 18 -18 11 0 20 -6 20 -14 0 -8 7 -16 15 -20
9 -3 15 -18 15 -36 0 -20 5 -30 15 -30 8 0 15 -9 15 -20 0 -13 7 -20 20 -20
13 0 20 -7 20 -20 0 -11 7 -20 15 -20 14 0 20 -12 16 -33 -1 -4 7 -7 16 -5 12
2 17 -3 15 -14 -1 -9 6 -19 17 -23 10 -3 22 -12 25 -20 3 -8 12 -15 21 -15 8
0 15 -9 15 -20 0 -11 7 -20 15 -20 10 0 15 -11 15 -35 0 -29 4 -35 21 -35 15
0 19 -5 15 -15 -3 -9 0 -15 9 -15 13 0 22 -41 16 -74 -1 -5 5 -6 14 -3 10 4
15 0 15 -12 0 -11 9 -21 21 -24 17 -5 21 -12 17 -36 -2 -16 -2 -29 1 -29 20 4
39 -16 35 -37 -2 -13 3 -30 11 -39 8 -8 15 -28 15 -45 0 -25 4 -31 21 -31 17
0 20 -5 17 -32 -2 -28 1 -34 20 -36 17 -3 21 -8 17 -23 -6 -17 3 -24 27 -20 5
0 5 -15 2 -34 -4 -27 -2 -35 10 -35 9 0 16 -6 16 -14 0 -8 9 -18 20 -21 15 -5
20 -15 20 -41 0 -21 4 -33 10 -29 6 3 14 -5 20 -19 5 -14 16 -26 23 -26 10 0
14 -11 12 -35 -1 -28 2 -35 17 -35 12 0 18 -7 18 -21 0 -15 5 -19 15 -15 12 4
15 -3 15 -34 0 -34 3 -40 21 -40 18 0 20 -5 17 -37 -3 -32 0 -38 17 -38 14 0
19 -6 17 -18 -2 -13 2 -17 15 -15 15 2 17 -3 15 -30 -3 -22 1 -34 12 -38 10
-4 16 -18 16 -40 0 -28 4 -34 21 -34 17 0 20 -4 16 -22 -7 -25 10 -61 24 -53
5 4 9 2 9 -4 0 -5 -9 -13 -20 -16 -15 -5 -20 -15 -20 -40 0 -25 -4 -32 -17
-31 -13 1 -19 -8 -21 -29 -2 -16 -10 -35 -18 -42 -9 -6 -15 -14 -15 -17 3 -26
0 -46 -7 -42 -5 3 -19 -6 -30 -19 -12 -14 -26 -25 -32 -25 -5 0 -10 -13 -10
-30 0 -20 -5 -30 -15 -30 -13 0 -21 -36 -17 -71 1 -4 -8 -5 -18 -2 -15 4 -20
0 -21 -16 -1 -11 -3 -25 -4 -31 -1 -5 -3 -15 -4 -21 0 -5 -6 -7 -12 -4 -6 4
-13 -2 -16 -14 -3 -12 -13 -21 -24 -21 -15 0 -19 -7 -19 -36 0 -27 -4 -35 -14
-31 -16 6 -26 -13 -26 -49 0 -13 -3 -23 -7 -23 -24 4 -33 -4 -33 -30 0 -16 -6
-31 -15 -35 -8 -3 -15 -12 -15 -20 0 -7 -9 -16 -20 -19 -15 -4 -20 -14 -20
-36 0 -24 -4 -31 -19 -31 -16 0 -19 -6 -17 -32 2 -26 -2 -34 -18 -38 -12 -3
-21 -12 -22 -20 -3 -44 -5 -50 -19 -50 -8 0 -15 -7 -15 -15 0 -8 -9 -15 -20
-15 -16 0 -20 -7 -20 -35 0 -28 -4 -35 -20 -35 -18 0 -26 -20 -21 -52 0 -4 -8
-12 -19 -18 -13 -7 -20 -21 -20 -41 0 -24 -4 -30 -15 -25 -10 4 -15 -1 -15
-14 0 -13 -7 -20 -20 -20 -16 0 -20 -7 -20 -34 0 -26 -5 -35 -21 -39 -11 -3
-19 -11 -18 -19 3 -27 -1 -61 -8 -55 -10 11 -33 -13 -33 -34 0 -11 -7 -19 -16
-19 -9 0 -18 -9 -21 -20 -3 -10 -13 -22 -22 -25 -13 -4 -16 -13 -13 -34 3 -24
0 -29 -22 -35 -22 -5 -25 -11 -22 -32 4 -20 0 -27 -14 -31 -16 -4 -20 -14 -20
-45 0 -35 -2 -39 -20 -33 -16 5 -20 2 -21 -17 -1 -13 0 -29 1 -37 1 -9 -4 -12
-14 -8 -11 5 -16 0 -16 -13 0 -13 -7 -20 -20 -20 -11 0 -19 -3 -19 -7 3 -21
-2 -32 -13 -28 -7 2 -130 6 -272 10 -143 3 -263 8 -268 11 -5 3 -6 9 -3 14 7
12 -31 23 -85 25 -264 11 -404 17 -450 20 -30 2 -129 7 -220 10 -91 4 -189 8
-219 10 -46 3 -54 1 -59 -17 -5 -19 -10 -19 -171 -13 -91 4 -169 9 -173 12 -7
4 -12 -19 -9 -39 0 -4 -16 -6 -37 -4 -20 3 -59 5 -85 5 -31 1 -46 5 -42 12 11
16 -4 59 -20 59 -10 0 -15 11 -15 35 0 29 -4 35 -21 35 -16 0 -20 5 -16 20 3
10 2 19 -2 18 -26 -3 -32 4 -27 33 4 24 0 32 -18 39 -19 7 -22 14 -18 44 3 29
1 36 -13 36 -13 0 -16 6 -12 26 3 18 -1 29 -14 37 -11 7 -19 17 -19 24 0 6 -9
15 -20 18 -17 5 -20 13 -16 36 4 25 1 29 -18 29 -19 0 -22 4 -18 29 3 23 -2
36 -23 55 -16 15 -32 26 -37 26 -5 0 -9 12 -8 28 3 44 1 52 -15 52 -10 0 -15
10 -15 30 0 18 -6 33 -15 36 -9 4 -15 19 -15 40 0 27 -4 34 -20 34 -14 0 -20
7 -20 21 0 15 -5 19 -15 15 -9 -3 -15 -1 -14 7 5 37 -2 67 -16 67 -10 0 -15
10 -15 30 0 18 -6 33 -15 36 -8 4 -15 10 -15 16 0 15 -27 38 -35 30 -4 -4 -6
7 -3 25 3 24 0 33 -14 36 -13 4 -18 15 -18 41 0 25 -5 36 -14 36 -8 0 -18 9
-21 20 -3 11 -13 20 -21 20 -9 0 -14 11 -14 35 0 24 -5 35 -15 35 -10 0 -15
10 -15 34 0 26 -5 36 -21 41 -13 5 -19 14 -18 28 4 26 -28 77 -47 77 -10 0
-14 13 -14 40 0 28 -4 40 -14 40 -9 0 -13 7 -11 19 4 19 -52 89 -67 83 -5 -1
-8 14 -8 33 0 24 -5 35 -15 35 -10 0 -15 10 -15 30 0 22 5 30 18 30 13 0 18 8
17 33 0 24 5 33 20 37 16 5 21 16 23 58 2 34 7 50 14 46 16 -10 28 16 28 64 0
36 3 42 20 42 12 0 20 6 19 13 -6 48 2 85 21 90 15 4 20 14 20 36 0 21 5 31
15 31 12 0 15 13 15 55 0 48 2 55 20 55 16 0 20 7 20 35 0 28 4 35 20 35 15 0
20 7 20 29 0 20 6 30 20 34 13 3 19 13 18 28 -3 62 2 80 20 77 13 -2 18 6 22
37 3 27 10 40 20 40 10 0 16 12 18 33 3 28 11 37 34 33 3 0 5 11 3 25 -2 19 4
28 21 36 18 9 24 19 24 45 0 23 5 33 15 33 13 0 21 31 16 63 0 4 6 7 14 7 8 0
15 6 15 14 0 8 10 16 23 18 17 2 23 11 25 36 2 20 9 32 18 32 8 0 14 7 14 15
0 8 9 15 20 15 11 0 20 6 20 14 0 8 9 18 20 21 11 3 20 12 20 20 0 8 9 16 19
20 12 4 18 12 14 21 -3 9 2 14 15 14 22 0 33 19 27 50 -3 14 1 20 16 20 10 0
19 7 19 15 0 8 9 15 20 15 13 0 20 7 20 20 0 13 5 18 15 14 10 -4 15 0 15 15
0 14 6 21 20 21 13 0 18 5 14 15 -5 11 1 15 20 15 18 0 24 4 20 15 -5 12 2 15
31 15 28 0 38 5 42 19 4 17 12 19 54 14 57 -6 100 2 96 20 -1 8 20 11 80 9 67
-3 83 -1 90 13 9 14 24 16 111 12 97 -4 102 -3 102 16 0 19 4 20 140 13 135
-6 140 -5 140 14 0 19 6 19 133 15 72 -3 162 -7 200 -10 77 -7 109 -1 101 20
-5 12 7 14 68 10 40 -2 163 -7 273 -10z m4299 -1260 c5 -21 11 -24 33 -20 19
3 31 -1 40 -15 9 -12 26 -20 43 -20 23 0 27 -3 23 -20 -4 -15 0 -20 16 -20 11
0 20 -6 19 -12 -2 -8 13 -15 37 -19 22 -3 36 -7 31 -8 -5 0 -3 -8 4 -16 7 -8
17 -12 23 -8 6 3 7 1 3 -6 -12 -18 13 -41 45 -41 18 0 28 -5 27 -12 -2 -8 11
-14 36 -16 34 -3 38 -6 34 -26 -4 -19 -1 -22 14 -18 13 3 18 -1 18 -16 0 -17
7 -21 37 -24 36 -3 37 -4 36 -40 0 -20 2 -36 6 -35 9 3 51 -41 51 -53 0 -5 9
-10 20 -10 16 0 20 -7 20 -35 0 -22 6 -38 15 -41 8 -4 15 -12 15 -20 0 -8 9
-14 19 -14 16 0 18 -6 16 -42 -3 -51 2 -68 22 -68 13 0 15 -14 11 -90 -3 -49
-2 -89 1 -88 31 3 32 -2 25 -122 -6 -109 -5 -120 11 -126 16 -7 17 -19 11
-133 -3 -69 -8 -207 -11 -306 -4 -99 -8 -229 -10 -290 -2 -60 -4 -151 -4 -202
-1 -86 -2 -92 -21 -88 -15 3 -20 -2 -21 -21 -1 -13 -3 -28 -4 -34 -1 -5 -3
-48 -4 -95 -1 -78 -3 -85 -21 -85 -18 0 -20 -7 -21 -82 -1 -46 -1 -86 0 -90 0
-5 -5 -8 -13 -8 -22 0 -28 -16 -28 -78 -1 -50 -3 -58 -22 -62 -15 -4 -22 -15
-24 -38 -2 -20 -9 -32 -18 -32 -8 0 -14 -6 -14 -14 0 -7 -9 -16 -20 -19 -19
-5 -24 -21 -22 -74 1 -14 -5 -23 -13 -23 -15 0 -23 -22 -27 -80 -2 -22 -8 -34
-15 -32 -7 1 -13 -7 -13 -18 0 -13 -7 -20 -20 -20 -16 0 -20 -7 -20 -30 0 -23
-4 -30 -20 -30 -16 0 -20 -7 -20 -35 0 -23 -5 -35 -14 -35 -16 0 -26 -21 -26
-56 0 -17 -4 -22 -16 -17 -10 4 -17 -1 -21 -15 -3 -11 -11 -18 -18 -16 -7 3
-15 -4 -18 -15 -3 -12 -12 -21 -21 -21 -16 0 -17 -3 -20 -37 -1 -20 -40 -63
-56 -63 -5 0 -10 -9 -10 -20 0 -13 -7 -20 -20 -20 -11 0 -20 -7 -20 -15 0 -8
-9 -15 -20 -15 -14 0 -20 -7 -20 -21 0 -11 -4 -18 -9 -15 -11 7 -33 -18 -24
-27 3 -4 -7 -7 -24 -7 -22 0 -32 6 -36 20 -4 15 -14 20 -36 20 -18 0 -31 5
-31 13 0 7 -9 18 -20 25 -12 7 -18 17 -15 22 3 6 -5 11 -19 11 -47 3 -50 4
-56 25 -4 16 -12 21 -38 20 -24 -1 -32 3 -32 17 0 12 -8 17 -30 17 -20 0 -30
5 -30 15 0 11 -11 15 -41 15 -22 0 -38 4 -35 9 12 19 -6 39 -31 36 -18 -2 -27
3 -30 16 -4 14 -14 19 -39 19 -27 0 -34 4 -34 20 0 20 -13 24 -77 23 -13 0
-23 6 -23 13 0 18 -38 37 -61 31 -16 -4 -19 -1 -16 21 3 18 10 27 21 26 10 -1
15 1 12 4 -3 3 -2 10 3 16 5 6 12 99 16 206 4 107 8 213 10 235 1 22 5 132 9
245 4 113 9 258 12 322 4 110 3 117 -15 123 -15 5 -19 13 -16 33 2 15 7 84 10
155 5 125 5 127 -16 127 -21 0 -21 2 -15 125 7 121 7 125 -13 125 -19 0 -20 5
-15 125 5 109 4 125 -10 125 -9 0 -16 5 -16 10 0 6 7 10 15 10 8 0 15 9 15 20
0 15 7 20 25 20 18 0 23 4 19 15 -4 10 0 15 10 15 9 0 19 7 22 15 4 8 12 15
19 15 14 0 25 22 25 50 0 10 9 20 20 23 11 3 20 13 20 22 0 9 3 14 8 12 4 -3
13 1 20 9 7 8 9 14 5 15 -4 0 2 4 15 9 14 6 22 18 22 34 0 15 8 30 21 36 12 7
18 18 15 26 -3 9 1 14 14 14 16 0 20 7 20 31 0 25 3 29 19 24 15 -4 20 0 23
17 2 15 9 22 21 20 11 -2 17 4 17 18 0 11 7 20 15 20 8 0 15 9 15 19 0 33 11
51 31 51 15 0 19 7 19 35 0 24 5 35 15 35 14 0 20 24 16 58 -1 6 7 12 19 12
19 0 24 13 21 51 -1 11 5 16 16 15 14 -1 18 8 20 44 4 56 10 73 23 65 5 -3 10
3 10 14 0 14 5 19 20 16 20 -4 22 2 23 83 0 15 6 22 18 22 15 0 19 8 19 35 0
29 4 35 18 33 13 -2 18 5 20 35 4 43 17 49 26 12z m-5239 -2391 c99 -3 198 -7
220 -9 22 -2 130 -6 240 -9 213 -7 277 -13 286 -27 3 -5 73 -12 155 -15 82 -3
169 -7 194 -9 25 -2 78 -4 119 -4 68 -1 73 -3 68 -20 -3 -15 1 -21 17 -23 11
-2 21 -10 21 -18 0 -8 8 -18 18 -22 9 -4 17 -15 17 -23 0 -9 5 -13 10 -10 6 3
10 2 10 -3 0 -14 56 -72 69 -72 6 0 10 -3 10 -7 -3 -21 2 -33 16 -33 8 0 15
-7 15 -16 0 -9 9 -18 21 -21 12 -3 18 -11 15 -19 -5 -13 6 -18 27 -15 4 0 7
-8 7 -20 0 -16 4 -19 20 -14 11 4 20 3 19 -2 -5 -27 2 -45 16 -39 9 3 15 0 15
-10 0 -8 7 -17 15 -20 8 -4 15 -11 15 -16 0 -14 43 -58 57 -58 7 0 10 -13 8
-35 -2 -27 1 -36 16 -40 10 -4 19 -12 19 -20 0 -7 9 -15 20 -18 13 -3 18 -11
14 -20 -4 -12 0 -14 15 -10 16 4 21 1 21 -16 0 -12 7 -24 15 -27 8 -4 15 -12
15 -20 0 -8 9 -14 20 -14 13 0 20 -7 20 -20 0 -13 7 -20 20 -20 12 0 20 -6 18
-13 -2 -8 12 -28 30 -46 17 -18 32 -37 32 -42 0 -5 7 -9 15 -9 8 0 15 -4 15
-9 0 -14 84 -101 98 -101 6 0 11 -10 10 -22 -2 -39 2 -48 17 -48 8 0 14 -3 14
-7 -4 -23 3 -33 23 -33 12 0 18 -3 15 -7 -9 -9 13 -34 24 -27 5 3 9 -4 9 -15
0 -12 4 -21 9 -21 5 0 11 -9 14 -20 3 -11 12 -20 21 -20 9 0 16 -7 16 -16 0
-9 9 -18 20 -21 11 -3 18 -9 15 -13 -5 -8 34 -45 50 -47 6 -1 13 -12 16 -25 3
-15 12 -22 22 -20 11 2 17 -4 17 -18 0 -11 7 -20 15 -20 8 0 15 -6 15 -14 0
-8 9 -18 20 -21 11 -3 20 -13 20 -22 0 -8 8 -17 18 -20 12 -3 17 -13 16 -31
-1 -15 -3 -51 -3 -80 -1 -45 -4 -52 -18 -50 -14 2 -19 -5 -21 -34 -3 -34 -11
-43 -34 -39 -5 0 -8 -21 -8 -49 0 -43 -3 -50 -20 -50 -16 0 -20 -7 -20 -35 0
-25 -4 -35 -15 -35 -17 0 -35 -38 -28 -57 3 -8 -3 -13 -16 -13 -19 0 -21 -6
-21 -55 0 -48 -2 -55 -20 -55 -11 0 -20 -6 -20 -14 0 -7 -9 -16 -20 -19 -14
-4 -20 -14 -20 -32 0 -15 -7 -33 -15 -39 -8 -6 -17 -22 -20 -35 -3 -14 -11
-29 -20 -33 -8 -5 -15 -22 -15 -38 0 -20 -5 -30 -15 -30 -8 0 -16 -7 -16 -15
-1 -8 -3 -19 -4 -25 -1 -5 -3 -14 -4 -20 0 -5 -10 -10 -21 -10 -16 0 -19 -5
-16 -26 3 -17 0 -27 -12 -31 -22 -9 -32 -23 -32 -50 0 -26 -33 -63 -55 -63
-10 0 -15 -11 -15 -35 0 -28 -4 -35 -20 -35 -16 0 -20 -7 -20 -35 0 -25 -4
-35 -15 -35 -9 0 -18 -7 -21 -15 -4 -8 -12 -15 -19 -15 -14 0 -25 -22 -25 -51
0 -10 -7 -19 -15 -19 -11 0 -15 -11 -15 -35 0 -23 -5 -35 -12 -34 -37 4 -58
-2 -58 -18 0 -16 -10 -18 -95 -15 -81 3 -95 1 -95 -12 0 -18 -4 -19 -82 -16
-48 1 -58 -1 -58 -15 0 -15 -12 -16 -115 -11 -99 5 -116 4 -122 -9 -5 -14 -22
-15 -117 -10 -237 11 -317 15 -476 21 -111 4 -168 10 -175 18 -10 12 -15 13
-115 15 -53 1 -60 3 -60 21 0 16 -7 20 -37 22 -21 0 -45 1 -54 0 -12 -1 -15 4
-12 18 5 18 0 20 -51 20 -49 0 -56 2 -56 20 0 21 -1 22 -82 23 -45 1 -54 4
-59 21 -4 16 -13 21 -37 21 -20 0 -32 5 -32 13 0 7 -7 15 -15 18 -8 4 -15 11
-15 16 0 18 -59 70 -71 62 -8 -5 -9 -3 -4 6 5 8 2 17 -7 24 -8 6 -17 19 -21
29 -3 9 -13 17 -22 17 -8 0 -15 7 -15 15 0 9 -9 15 -21 15 -16 0 -20 5 -16 20
4 15 0 20 -14 20 -12 0 -19 7 -19 20 0 15 -7 20 -26 20 -27 0 -65 32 -77 65
-4 9 -11 14 -16 10 -5 -3 -12 4 -16 15 -3 11 -13 20 -21 20 -8 0 -14 6 -14 13
0 15 -44 57 -59 57 -6 0 -11 6 -11 14 0 15 -21 26 -51 26 -12 0 -19 7 -19 20
0 12 -7 20 -16 20 -11 0 -14 5 -10 16 4 11 -1 18 -14 21 -11 3 -20 12 -20 19
0 8 -5 14 -11 14 -18 0 -59 49 -59 70 0 28 -11 51 -22 44 -5 -3 -12 3 -15 15
-3 12 -12 21 -19 21 -8 0 -14 7 -14 15 0 8 -9 15 -21 15 -11 0 -17 4 -14 10 3
5 -3 15 -15 22 -11 7 -20 21 -20 30 0 10 -7 18 -15 18 -8 0 -15 7 -15 15 0 8
-7 15 -15 15 -8 0 -15 9 -15 20 0 13 -7 20 -19 20 -10 0 -21 9 -24 20 -4 15
-14 20 -36 20 -21 0 -31 5 -31 15 0 9 -7 18 -15 21 -8 3 -17 14 -20 25 -4 10
-12 19 -19 19 -9 0 -12 9 -8 26 3 20 0 26 -17 31 -12 3 -21 13 -21 24 0 12 -7
19 -20 19 -13 0 -18 5 -14 15 6 13 -6 20 -28 16 -5 0 -8 8 -8 19 0 12 -7 20
-17 20 -14 0 -13 3 5 20 19 18 22 31 22 99 0 71 2 79 21 84 11 3 19 11 18 19
-1 7 -1 30 0 51 1 30 5 37 21 37 18 0 20 7 21 65 1 36 3 70 4 75 1 6 3 14 4
19 0 5 10 11 20 14 17 4 19 13 18 75 -2 64 0 70 18 68 18 -2 20 3 20 65 0 62
2 69 23 74 19 5 22 12 22 54 0 40 3 50 20 54 11 3 20 9 19 14 -4 23 2 85 8 80
12 -12 33 15 33 43 0 19 6 29 20 33 15 4 20 14 20 36 0 17 5 31 10 31 6 0 10
7 10 15 0 13 16 19 41 17 3 0 5 9 6 21 1 50 3 56 18 51 11 -5 15 1 16 22 1 16
1 32 0 36 0 4 6 5 15 1 10 -4 17 1 21 15 2 11 13 22 24 25 16 4 25 29 20 60 0
4 5 7 13 7 8 0 18 9 21 21 5 14 13 19 26 16 11 -3 19 0 18 6 -1 7 -1 23 0 37
1 25 2 26 67 22 60 -4 66 -2 71 17 5 21 8 21 166 15 147 -6 160 -5 154 10 -6
14 -1 16 36 12 23 -3 123 -8 222 -12z m-2600 -795 c-4 -5 0 -12 8 -15 8 -3 17
-14 20 -25 3 -13 11 -17 21 -13 10 4 16 1 16 -9 0 -9 9 -19 21 -22 13 -4 18
-12 15 -22 -4 -9 1 -17 14 -20 11 -3 20 -12 20 -19 0 -9 12 -14 36 -14 31 0
35 -3 29 -20 -5 -16 -2 -20 14 -20 12 0 21 -7 21 -15 0 -9 7 -18 15 -21 8 -4
15 -12 15 -19 0 -14 22 -25 51 -25 12 0 19 -7 19 -20 0 -13 7 -20 20 -20 11 0
20 -6 20 -14 0 -20 45 -46 80 -46 27 0 31 -3 28 -22 -2 -14 2 -22 10 -20 6 1
12 -7 12 -18 0 -11 7 -20 15 -20 14 0 19 -12 16 -32 0 -5 17 -8 39 -8 33 0 40
-3 40 -20 0 -11 7 -20 15 -20 8 0 15 -6 15 -14 0 -9 12 -16 33 -18 24 -2 33
-8 35 -26 2 -12 8 -20 13 -16 18 11 56 -5 62 -26 4 -15 13 -20 36 -20 27 0 35
-7 33 -30 0 -3 18 -4 41 -4 30 1 49 -4 65 -20 13 -11 25 -20 28 -18 2 1 22 2
45 2 27 0 38 -4 33 -11 -10 -16 15 -29 59 -29 26 0 37 -4 37 -15 0 -14 12 -19
33 -16 4 0 7 -15 7 -34 0 -18 6 -38 13 -42 8 -4 16 -16 20 -25 3 -10 14 -18
22 -18 12 0 15 -6 10 -20 -5 -16 -2 -20 14 -20 12 0 21 -7 21 -15 0 -8 9 -15
19 -15 14 0 18 -5 14 -20 -4 -15 0 -20 16 -20 12 0 21 -6 21 -15 0 -8 7 -15
15 -15 8 0 15 -9 15 -20 0 -11 7 -20 15 -20 8 0 15 -9 15 -21 0 -11 4 -17 10
-14 5 3 15 -3 22 -15 7 -11 18 -20 24 -20 7 0 14 -9 17 -20 4 -14 14 -20 35
-20 28 0 31 -3 34 -37 2 -30 7 -37 21 -35 14 2 18 -2 15 -20 -2 -18 1 -22 16
-20 15 3 18 -1 13 -17 -3 -12 -1 -21 4 -21 5 0 12 0 17 -1 14 -1 34 -23 43
-46 5 -13 15 -23 23 -23 7 0 13 -8 12 -17 0 -11 6 -17 17 -17 10 1 17 -5 17
-17 0 -12 7 -19 20 -19 11 0 20 -5 20 -10 0 -18 43 -70 57 -70 7 0 13 -9 13
-20 0 -11 7 -20 15 -20 8 0 15 -9 15 -20 0 -11 7 -20 15 -20 8 0 15 -4 15 -10
0 -5 16 -10 35 -10 28 0 35 -4 35 -19 0 -10 7 -21 15 -25 8 -3 15 -12 15 -21
0 -8 9 -15 20 -15 13 0 20 -7 20 -20 0 -14 6 -20 18 -18 12 2 17 -3 16 -20 0
-15 5 -21 15 -20 10 2 15 -4 15 -14 -1 -11 5 -18 17 -18 13 0 19 -7 19 -24 0
-19 4 -23 20 -19 15 4 20 0 20 -16 0 -11 6 -21 14 -21 7 0 16 -10 19 -21 4
-15 11 -20 21 -16 10 4 16 1 16 -8 0 -7 14 -16 30 -20 21 -5 30 -13 30 -26 0
-12 7 -19 20 -19 13 0 18 -5 14 -15 -4 -10 0 -15 15 -15 14 0 21 -6 21 -20 0
-12 7 -20 16 -20 15 0 16 -14 11 -132 -4 -73 -7 -143 -7 -155 0 -13 -4 -23 -9
-23 -5 0 -8 8 -7 17 1 13 -9 19 -34 23 -26 4 -34 9 -32 23 2 9 -1 17 -5 16
-26 -4 -113 2 -112 9 4 25 -4 32 -37 32 -31 0 -35 3 -29 20 5 17 2 20 -21 20
-15 0 -33 8 -40 18 -13 18 -15 19 -68 21 -25 1 -36 7 -41 21 -4 14 -15 20 -33
20 -15 0 -35 9 -45 20 -9 11 -28 20 -42 20 -19 0 -25 5 -23 18 2 9 -2 16 -9
15 -6 -2 -15 6 -18 17 -4 12 -17 20 -38 22 -19 2 -31 8 -29 16 2 10 -32 18
-60 13 -5 0 -8 8 -8 19 0 20 -11 24 -57 22 -15 -1 -23 6 -25 21 -2 12 -9 21
-16 19 -6 -1 -12 7 -12 18 0 16 -7 20 -36 20 -27 0 -35 3 -31 14 4 9 -1 17
-12 21 -11 3 -21 15 -24 25 -4 15 -14 20 -36 20 -17 0 -31 5 -31 10 0 21 -53
60 -82 60 -18 0 -27 4 -23 11 4 6 -2 13 -14 16 -12 3 -21 13 -21 24 0 12 -7
19 -20 19 -13 0 -20 7 -20 20 0 19 -6 23 -42 23 -11 0 -18 7 -18 18 0 12 -7
19 -20 19 -11 0 -20 6 -20 14 0 8 -7 16 -15 20 -8 3 -15 12 -15 21 0 8 -7 15
-15 15 -8 0 -15 9 -15 20 0 16 -7 20 -32 21 -18 1 -36 1 -39 1 -4 -1 -5 8 -2
18 4 15 0 20 -16 20 -12 0 -21 6 -21 15 0 8 -9 15 -20 15 -13 0 -20 7 -20 20
0 11 -4 20 -10 20 -5 0 -10 9 -10 20 0 13 -7 20 -20 20 -13 0 -18 5 -14 15 4
10 0 15 -15 15 -14 0 -21 6 -21 20 0 11 -6 20 -14 20 -8 0 -18 9 -21 20 -3 11
-13 20 -21 20 -8 0 -14 7 -14 15 0 14 -12 20 -34 16 -5 -1 -6 5 -3 13 6 16
-16 40 -26 29 -4 -3 -7 3 -7 15 0 16 -6 22 -21 22 -15 0 -19 5 -15 15 4 10 -1
15 -14 15 -13 0 -20 7 -20 20 0 11 -4 20 -10 20 -5 0 -10 16 -10 35 0 28 -4
35 -20 35 -13 0 -20 7 -20 20 0 13 -7 20 -20 20 -11 0 -20 4 -20 9 0 6 -13 25
-30 43 -16 18 -30 38 -30 45 0 7 -9 13 -20 13 -16 0 -20 7 -20 35 0 23 -5 35
-14 35 -7 0 -16 9 -19 20 -3 11 -12 20 -21 20 -9 0 -16 7 -16 15 0 8 -9 15
-19 15 -17 0 -18 5 -14 42 5 36 4 40 -11 35 -9 -4 -15 -3 -11 3 3 5 -3 17 -14
27 -11 10 -21 32 -23 48 -2 18 -8 29 -16 27 -7 -1 -16 6 -19 15 -4 10 -13 23
-20 28 -9 7 -12 21 -9 38 4 23 1 27 -18 27 -19 0 -21 4 -18 35 4 33 -2 41 -30
36 -5 0 -8 8 -8 19 0 11 -7 23 -15 26 -9 4 -15 19 -15 36 0 21 -6 31 -19 35
-15 4 -18 12 -14 39 4 26 1 34 -11 34 -12 0 -16 10 -16 35 0 27 -4 35 -18 35
-15 0 -17 6 -14 35 4 30 1 35 -17 35 -16 0 -20 5 -17 23 3 12 5 26 5 30 1 5 6
5 11 2 6 -4 8 -11 5 -16z m7041 -67 c-1 -13 6 -16 33 -14 27 3 33 1 28 -12 -8
-19 8 -29 48 -32 63 -3 64 -4 59 -19 -6 -15 -3 -16 44 -19 9 0 20 -9 24 -18 5
-13 18 -18 43 -18 31 0 35 -3 35 -25 0 -22 3 -25 29 -20 23 4 31 1 36 -15 4
-14 15 -20 36 -20 19 0 29 -5 29 -15 0 -14 51 -33 72 -27 4 1 5 -5 2 -13 -6
-16 -6 -16 41 -19 23 -1 29 -6 27 -19 -2 -9 1 -17 5 -16 22 4 33 -3 33 -21 0
-16 7 -20 30 -20 20 0 30 -5 30 -15 0 -14 12 -20 33 -16 4 1 7 -26 6 -59 -2
-50 -6 -62 -26 -75 -18 -12 -23 -24 -23 -60 0 -38 -3 -45 -20 -45 -17 0 -20
-7 -20 -49 0 -35 -4 -51 -15 -55 -9 -3 -15 -11 -14 -18 4 -33 -2 -48 -21 -48
-16 0 -20 -7 -20 -35 0 -24 -5 -35 -15 -35 -8 0 -16 -4 -16 -10 -1 -5 -3 -14
-4 -20 -1 -5 -3 -17 -4 -25 0 -8 -8 -15 -16 -15 -14 0 -29 -34 -24 -56 1 -5 1
-33 0 -61 -1 -46 -4 -53 -21 -53 -13 0 -20 -7 -20 -19 0 -11 -9 -23 -21 -26
-13 -4 -18 -12 -15 -22 5 -12 1 -14 -14 -10 -13 3 -21 -1 -25 -14 -4 -10 -12
-19 -20 -19 -7 0 -15 -9 -18 -20 -3 -13 -10 -18 -21 -14 -13 5 -16 -1 -16 -35
0 -32 -3 -39 -15 -35 -9 4 -15 0 -15 -10 0 -9 -8 -16 -20 -16 -14 0 -20 -7
-20 -21 0 -11 -4 -18 -9 -14 -5 3 -16 -3 -23 -13 -7 -10 -21 -21 -30 -25 -10
-3 -18 -14 -18 -22 0 -9 -5 -13 -11 -10 -6 4 -13 -2 -16 -14 -3 -12 -13 -21
-24 -21 -12 0 -19 -7 -19 -20 0 -13 -5 -18 -16 -13 -10 4 -17 -1 -21 -16 -3
-11 -11 -21 -18 -21 -7 0 -15 -9 -18 -20 -3 -11 -12 -20 -21 -20 -9 0 -16 -6
-16 -13 0 -17 -39 -41 -70 -43 -40 -3 -41 -3 -35 -13 3 -6 -4 -15 -15 -21 -11
-6 -20 -17 -20 -25 0 -9 -6 -12 -16 -8 -10 4 -17 -1 -21 -16 -3 -11 -11 -21
-18 -21 -8 0 -17 -9 -20 -21 -4 -12 -13 -18 -20 -15 -8 3 -17 -4 -20 -15 -4
-13 -15 -20 -28 -18 -39 3 -47 -1 -47 -21 0 -11 -6 -19 -12 -18 -7 2 -12 -5
-12 -14 1 -13 -6 -18 -23 -18 -18 0 -24 -4 -19 -15 4 -12 -3 -15 -30 -15 -22
0 -37 -6 -40 -15 -4 -8 -12 -15 -20 -15 -7 0 -18 -8 -23 -19 -7 -13 -18 -17
-36 -13 -20 3 -27 0 -32 -16 -3 -12 -11 -18 -18 -16 -7 3 -16 -4 -20 -15 -5
-16 -15 -21 -40 -21 -29 0 -33 -3 -30 -21 3 -16 0 -19 -15 -14 -13 4 -20 0
-25 -16 -5 -16 -13 -20 -31 -16 -17 3 -29 -2 -38 -15 -8 -12 -26 -20 -45 -20
-24 -1 -31 -6 -31 -21 0 -16 -6 -19 -35 -15 -22 2 -36 -1 -39 -9 -3 -7 -18
-11 -33 -10 -22 2 -29 -3 -31 -20 -3 -18 -9 -21 -43 -19 -34 2 -39 0 -33 -16
4 -15 0 -18 -29 -18 -22 0 -37 -6 -41 -15 -3 -8 -18 -15 -33 -15 -34 0 -58
-14 -49 -28 4 -7 -2 -11 -16 -10 -39 2 -48 -2 -48 -17 0 -10 -11 -15 -35 -15
-25 0 -35 -4 -35 -16 0 -12 -10 -15 -42 -14 -64 3 -68 2 -68 -19 0 -13 -6 -18
-17 -16 -10 2 -24 4 -30 4 -8 1 -13 15 -13 36 l0 35 -56 0 c-51 0 -55 2 -49
20 7 22 4 22 -84 22 -34 0 -45 4 -48 19 -4 15 -15 19 -47 20 -22 1 -47 1 -55
0 -7 -2 -11 2 -8 6 16 26 -25 40 -120 42 -16 1 -23 7 -23 21 0 17 -7 20 -49
20 -41 0 -51 4 -56 20 -3 11 -9 19 -13 19 -4 -1 -26 -1 -49 0 -31 1 -43 5 -43
16 0 10 -11 15 -35 15 -28 0 -35 4 -35 20 0 17 -7 20 -51 20 -41 0 -50 3 -45
15 5 13 -5 20 -26 16 -5 0 -8 12 -8 29 0 21 5 30 16 30 9 0 18 9 21 19 3 11
13 21 24 24 13 4 19 14 19 35 0 17 5 32 10 34 6 2 12 17 13 33 1 20 8 32 22
35 11 3 21 11 21 18 1 7 2 21 3 32 1 13 8 20 21 20 13 0 20 7 20 19 0 10 8 21
19 24 14 3 17 11 13 32 -4 23 -2 27 11 22 14 -5 30 17 32 46 0 5 8 14 18 21
10 8 17 26 17 45 0 24 4 31 20 31 16 0 20 7 20 34 0 25 5 35 20 39 13 3 20 14
20 30 0 17 7 28 20 32 15 5 20 15 20 42 0 27 3 34 15 29 12 -4 15 3 15 34 0
22 3 39 8 39 24 -4 32 4 32 31 0 27 9 35 34 31 4 -1 6 14 4 34 -4 31 -1 35 19
35 19 0 23 5 23 31 0 18 7 37 17 44 10 7 17 28 19 51 3 53 2 51 24 57 17 4 20
14 20 57 0 43 3 50 18 48 13 -2 18 5 20 30 3 27 7 32 30 32 23 0 71 19 49 20
-5 0 -6 4 -2 9 3 6 17 6 34 1 25 -7 28 -6 25 15 -2 21 1 23 33 18 29 -5 35 -3
40 15 4 18 11 21 44 18 33 -3 38 -1 41 18 2 17 9 20 36 18 27 -3 32 0 32 18 0
18 5 20 30 16 25 -3 30 -1 30 16 0 15 6 19 28 18 45 -3 52 -1 52 19 0 16 6 18
35 14 27 -4 35 -1 35 11 0 12 10 16 35 16 23 0 38 6 42 16 3 9 15 14 32 12 21
-2 27 2 29 20 3 18 8 21 28 18 32 -6 54 2 54 20 0 9 12 14 35 14 24 0 35 5 35
15 0 10 11 15 35 15 29 0 35 4 35 21 0 18 5 20 36 16 30 -4 37 -2 41 14 4 13
14 19 34 19 20 0 29 5 29 16 0 13 8 15 34 12 30 -3 36 0 41 20 5 20 10 23 40
19 28 -4 35 -1 35 12 0 13 7 16 35 13 25 -3 36 0 41 12 4 10 18 16 35 16 22 0
29 5 29 20 0 17 6 19 37 17 27 -1 38 2 38 13 0 8 14 17 35 21 19 4 36 12 38
18 2 6 19 11 38 11 27 0 34 4 34 20 0 16 6 20 32 18 24 -2 35 2 43 17 6 13 18
19 33 17 16 -3 25 2 28 15 7 25 72 20 70 -5z"/>
</g>
</svg>
