<?xml version="1.0" standalone="no"?>
<!DOCTYPE svg PUBLIC "-//W3C//DTD SVG 20010904//EN"
 "http://www.w3.org/TR/2001/REC-SVG-20010904/DTD/svg10.dtd">
<svg version="1.0" xmlns="http://www.w3.org/2000/svg"
 width="816.000000pt" height="1125.000000pt" viewBox="0 0 816.000000 1125.000000"
 preserveAspectRatio="xMidYMid meet">
<metadata>
Created by potrace 1.16, written by Peter Selinger 2001-2019
</metadata>
<g transform="translate(0.000000,1125.000000) scale(0.100000,-0.100000)"
fill="#000000" stroke="none">
<path d="M4520 10540 c0 -20 -3 -20 -1453 -18 -1380 3 -1454 2 -1449 -14 3
-13 -2 -18 -17 -18 -15 0 -21 -6 -21 -21 0 -16 -5 -20 -19 -16 -14 3 -17 0
-14 -14 4 -14 0 -19 -16 -19 -17 0 -21 -6 -21 -30 0 -16 -5 -30 -10 -30 -6 0
-14 -8 -17 -17 -8 -21 -40 -53 -53 -53 -5 0 -10 -16 -10 -35 0 -24 -5 -35 -15
-35 -8 0 -15 -9 -15 -20 0 -13 -7 -20 -20 -20 -12 0 -20 -7 -20 -16 0 -11 -6
-15 -18 -12 -15 4 -17 -1 -14 -34 4 -33 1 -38 -17 -38 -12 0 -21 -6 -21 -16 0
-8 -5 -12 -11 -9 -6 4 -13 -2 -16 -13 -2 -11 -13 -22 -24 -25 -14 -4 -19 -14
-19 -37 0 -24 -4 -30 -17 -28 -12 2 -17 -3 -15 -13 1 -10 -6 -19 -18 -22 -20
-5 -20 -12 -20 -712 0 -699 0 -707 20 -712 20 -5 20 -11 18 -2813 -3 -2669 -2
-2807 15 -2802 16 4 17 -22 17 -453 0 -454 0 -457 21 -462 19 -5 20 -12 17
-87 l-3 -81 37 3 c33 4 38 1 38 -17 0 -12 6 -21 15 -21 8 0 15 -7 15 -15 0
-12 19 -15 115 -15 63 0 118 0 123 0 4 1 6 10 4 20 -2 15 1 18 12 14 12 -4 16
0 16 16 0 16 5 21 18 18 15 -4 17 2 14 49 l-4 53 1367 0 c1297 0 1367 -1 1363
-17 -5 -17 54 -18 1139 -15 l1143 2 0 -35 c0 -28 4 -35 20 -35 13 0 20 -7 20
-20 0 -16 7 -20 36 -20 27 0 35 -4 31 -14 -5 -11 16 -14 114 -15 99 -2 120 1
125 14 4 9 19 15 40 15 28 0 34 4 34 21 0 15 5 20 18 17 15 -4 17 3 14 77 -3
76 -2 83 17 88 l21 5 0 3987 0 3987 -21 5 c-16 5 -20 12 -17 42 2 28 -1 35
-14 33 -9 -1 -18 7 -21 19 -4 15 -11 20 -21 16 -13 -5 -16 1 -16 28 0 24 -5
35 -15 35 -8 0 -15 7 -15 15 0 9 -9 15 -21 15 -18 0 -21 5 -17 38 3 33 1 38
-14 34 -12 -3 -18 1 -18 12 0 10 -8 16 -21 16 -18 0 -21 5 -17 38 3 33 1 38
-14 34 -13 -3 -18 2 -18 17 0 14 -6 21 -20 21 -16 0 -20 7 -20 30 0 21 -5 30
-16 30 -11 0 -15 6 -11 19 3 14 0 17 -14 14 -16 -5 -19 0 -19 31 0 34 -2 36
-34 36 -26 0 -33 4 -32 18 1 16 -58 17 -1091 20 -1089 2 -1093 2 -1093 -18z
m2148 -99 c9 -10 28 -33 42 -51 14 -18 37 -47 51 -64 14 -17 24 -37 22 -43 -3
-7 2 -16 11 -19 9 -3 16 -13 16 -20 0 -8 7 -17 15 -20 8 -3 17 -16 21 -27 3
-12 19 -34 35 -49 16 -15 29 -34 29 -43 0 -8 9 -23 20 -32 11 -10 20 -23 20
-30 0 -7 4 -13 9 -13 5 0 12 -11 15 -24 3 -14 13 -32 22 -41 9 -9 14 -18 12
-21 -3 -2 -895 -6 -1984 -9 -1088 -3 -2369 -7 -2846 -10 -862 -5 -868 -5 -868
15 0 11 7 20 15 20 8 0 15 9 15 20 0 11 7 20 15 20 8 0 15 9 15 20 0 11 9 25
20 32 11 7 20 18 20 24 0 7 7 14 15 18 8 3 15 12 15 21 0 8 7 15 15 15 8 0 15
8 15 18 0 11 9 29 20 42 11 13 20 27 20 32 0 4 7 8 15 8 8 0 15 6 15 14 0 8 7
16 15 20 8 3 15 12 15 19 0 8 10 26 23 40 12 14 37 44 56 65 l33 39 1697 7
c1678 6 2702 15 2710 22 2 2 130 4 283 4 258 0 279 -1 296 -19z m374 -690 c0
-75 -4 -106 -14 -112 -7 -5 -1306 -9 -2885 -9 l-2873 0 -1 85 c-1 47 -2 91 -3
98 -3 31 935 43 3532 42 l2244 0 0 -104z m-12 -221 c20 -20 20 -33 20 -3634 0
-2471 -3 -3623 -10 -3642 l-11 -27 -447 7 c-378 6 -3965 24 -4963 26 l-316 0
-7 917 c-4 505 -11 1159 -16 1453 -10 613 -13 4903 -3 4913 3 4 1295 7 2870 7
2850 0 2863 0 2883 -20z m-2318 -7376 l2326 -6 4 -55 c1 -30 0 -57 -5 -60 -4
-2 -14 -20 -22 -40 l-15 -36 -738 7 c-405 3 -820 10 -922 15 -102 5 -1042 10
-2089 10 l-1903 1 -24 23 c-19 17 -24 32 -24 74 0 93 -57 85 549 79 295 -4
1583 -9 2863 -12z"/>
<path d="M4703 9463 l-72 -4 -7 -35 c-9 -46 1 -89 26 -114 16 -16 33 -20 93
-20 40 0 77 4 83 9 5 4 30 14 57 21 42 11 47 16 47 41 0 16 -4 29 -10 29 -5 0
-10 14 -10 30 0 36 -29 51 -93 48 -23 -1 -74 -4 -114 -5z"/>
<path d="M5628 9463 l-28 -4 0 -135 c0 -190 -32 -174 343 -174 232 0 307 3
321 13 15 11 17 30 18 133 0 179 29 164 -307 164 -154 0 -289 2 -300 4 -11 2
-32 1 -47 -1z"/>
<path d="M6340 9380 c-6 -11 -18 -20 -27 -20 -13 0 -15 -8 -10 -45 2 -26 7
-49 10 -52 3 -3 27 -8 52 -11 57 -6 85 15 85 64 0 67 -83 115 -110 64z"/>
<path d="M4043 9331 c-29 -3 -62 -14 -73 -23 -11 -10 -25 -18 -30 -18 -6 0
-13 -7 -16 -15 -4 -8 -12 -15 -20 -15 -8 0 -14 -7 -14 -15 0 -9 -7 -18 -15
-21 -8 -4 -15 -12 -15 -19 0 -7 -7 -18 -15 -25 -26 -22 -54 -93 -59 -155 -3
-33 -10 -61 -16 -63 -13 -5 -13 -72 0 -72 5 0 12 -23 16 -51 4 -28 13 -53 20
-56 8 -3 14 -18 14 -34 0 -17 6 -32 14 -35 8 -3 19 -19 25 -35 5 -16 15 -29
20 -29 6 0 11 -7 11 -15 0 -8 7 -15 15 -15 8 0 24 -9 35 -20 14 -14 33 -20 65
-20 30 0 47 -5 53 -16 7 -13 29 -17 116 -18 92 -1 109 2 120 17 7 9 25 17 40
17 14 0 26 4 26 8 0 5 30 30 66 57 40 29 70 59 76 77 5 15 16 28 24 28 8 0 14
10 14 24 0 13 7 37 15 52 20 38 19 194 0 249 -8 22 -15 48 -15 58 0 11 -9 21
-20 24 -11 3 -20 10 -20 15 0 15 -43 58 -57 58 -7 0 -13 6 -13 13 0 13 -84 57
-109 57 -8 0 -19 6 -25 14 -13 16 -169 26 -253 17z"/>
<path d="M1670 9315 c0 -8 -10 -19 -21 -26 -22 -11 -22 -13 -15 -228 6 -161
12 -228 24 -264 l17 -47 705 2 705 3 3 263 c2 253 2 264 -17 269 -10 3 -21 13
-24 24 -5 18 -25 19 -691 19 -596 0 -686 -2 -686 -15z m1328 -230 c9 -3 12
-38 12 -130 l0 -125 -635 0 c-617 0 -635 1 -645 19 -11 22 -14 241 -2 241 4 0
6 -46 4 -102 -2 -55 -1 -112 2 -125 l6 -23 630 0 630 0 0 120 0 120 -482 1
c-266 1 -541 4 -613 8 -71 3 142 5 475 3 333 -2 611 -5 618 -7z"/>
<path d="M4700 9180 c0 -5 -6 -10 -14 -10 -8 0 -18 -5 -21 -10 -9 -15 4 -50
20 -50 7 0 15 -6 18 -12 3 -10 11 -10 39 0 19 6 52 12 74 12 46 0 114 17 114
29 0 5 -7 11 -15 15 -8 3 -15 12 -15 21 0 12 -17 15 -100 15 -60 0 -100 -4
-100 -10z"/>
<path d="M3480 9139 c0 -11 5 -29 10 -40 10 -17 22 -19 113 -19 112 0 127 6
127 52 l0 28 -125 0 c-120 0 -125 -1 -125 -21z"/>
<path d="M3450 8929 c-11 -26 -11 -32 1 -40 20 -12 196 -11 220 2 19 10 19 10
-1 40 -21 29 -23 29 -114 29 l-94 0 -12 -31z"/>
<path d="M4722 8933 c-31 -6 -38 -28 -18 -58 16 -24 22 -25 105 -25 l89 0 12
31 c17 41 4 49 -77 49 -34 0 -67 2 -75 4 -7 2 -23 1 -36 -1z"/>
<path d="M5268 8782 c-1 -5 -16 -15 -32 -23 -35 -17 -70 -98 -61 -141 4 -15
11 -28 16 -28 5 0 9 -8 9 -19 0 -10 9 -21 20 -24 11 -3 20 -11 20 -19 0 -10
19 -14 73 -16 64 -3 76 0 99 20 15 13 30 35 33 50 4 15 13 29 21 32 22 8 18
63 -6 76 -11 6 -20 21 -20 33 0 12 -12 32 -27 44 -21 18 -38 23 -84 23 -31 0
-59 -4 -61 -8z"/>
<path d="M5710 8782 c0 -5 -16 -16 -34 -25 -27 -13 -36 -24 -42 -52 -15 -84
13 -144 76 -162 14 -3 30 -12 37 -18 9 -10 22 -8 57 9 25 11 45 27 46 34 0 6
7 12 15 12 12 0 15 14 15 70 0 56 -3 70 -15 70 -8 0 -15 9 -15 20 0 13 -7 20
-20 20 -11 0 -20 7 -20 15 0 11 -12 15 -50 15 -27 0 -50 -4 -50 -8z"/>
<path d="M6465 8767 c-53 -58 -65 -154 -24 -200 12 -15 29 -27 36 -27 7 0 13
-4 13 -10 0 -6 28 -10 65 -10 37 0 65 4 65 10 0 6 5 10 11 10 7 0 22 11 35 26
43 46 26 194 -22 194 -8 0 -17 7 -20 15 -5 11 -22 15 -73 14 -54 -1 -70 -5
-86 -22z"/>
<path d="M6062 8730 c-17 -22 -22 -43 -22 -88 0 -80 22 -102 106 -102 80 0
104 24 104 104 0 30 -5 58 -11 61 -5 4 -14 18 -19 31 -9 22 -15 24 -73 24 -58
0 -65 -2 -85 -30z"/>
<path d="M3466 8705 c-9 -9 -16 -25 -16 -34 0 -24 36 -31 159 -31 107 0 145
14 139 53 -3 21 -9 22 -135 25 -109 2 -134 0 -147 -13z"/>
<path d="M4639 8699 c-11 -11 -19 -28 -17 -37 3 -15 20 -17 143 -17 136 0 140
1 143 22 6 39 -31 53 -145 53 -91 0 -105 -2 -124 -21z"/>
<path d="M3830 8323 c-19 -3 -39 -11 -43 -19 -5 -8 -24 -14 -47 -14 -22 0 -57
-6 -77 -14 -21 -8 -62 -17 -92 -21 -29 -3 -60 -13 -68 -21 -8 -7 -29 -14 -48
-14 -39 0 -145 -37 -161 -57 -6 -7 -23 -13 -36 -13 -14 0 -31 -7 -38 -15 -7
-8 -22 -15 -34 -15 -12 0 -29 -9 -39 -20 -9 -11 -26 -20 -37 -20 -11 0 -36
-16 -56 -35 -19 -19 -42 -35 -49 -35 -7 0 -15 -7 -19 -15 -3 -8 -14 -15 -25
-15 -10 0 -21 -7 -25 -15 -3 -8 -17 -15 -31 -15 -16 0 -25 -6 -25 -15 0 -8 -4
-15 -8 -15 -5 0 -35 -25 -67 -55 -32 -30 -63 -55 -70 -55 -7 0 -15 -7 -19 -15
-3 -8 -11 -15 -18 -15 -15 0 -41 -27 -51 -53 -3 -9 -13 -17 -22 -17 -8 0 -15
-7 -15 -15 0 -8 -6 -15 -14 -15 -8 0 -17 -8 -20 -18 -4 -11 -17 -25 -31 -32
-14 -7 -35 -28 -47 -47 -13 -18 -31 -36 -40 -39 -10 -3 -18 -12 -18 -20 0 -8
-7 -14 -15 -14 -8 0 -15 -7 -15 -16 0 -9 -8 -18 -17 -21 -10 -2 -27 -23 -37
-46 -11 -23 -28 -48 -38 -55 -10 -7 -18 -24 -18 -38 0 -13 -4 -24 -10 -24 -5
0 -10 -7 -10 -14 0 -8 -11 -27 -25 -42 -14 -15 -25 -33 -25 -40 0 -8 -4 -14
-9 -14 -5 0 -12 -14 -16 -31 -4 -17 -13 -33 -21 -36 -8 -3 -14 -16 -14 -29 0
-14 -6 -27 -14 -30 -8 -3 -18 -19 -21 -35 -4 -16 -11 -29 -16 -29 -5 0 -9 -9
-9 -20 0 -11 -9 -28 -20 -37 -12 -10 -20 -30 -20 -48 0 -16 -7 -43 -15 -59 -8
-15 -15 -44 -15 -63 0 -20 -9 -46 -20 -60 -12 -16 -20 -41 -20 -65 0 -21 -6
-51 -14 -66 -7 -15 -16 -65 -18 -110 -3 -57 -9 -87 -19 -93 -12 -7 -14 -58
-14 -291 0 -249 3 -287 18 -313 10 -17 17 -51 17 -81 0 -28 6 -58 15 -70 8
-10 15 -40 15 -65 0 -31 6 -53 20 -69 13 -16 20 -37 20 -67 0 -30 5 -45 15
-49 9 -4 15 -19 15 -40 0 -23 5 -34 15 -34 8 0 18 -12 21 -27 4 -15 13 -38 20
-52 8 -14 14 -31 14 -37 0 -7 7 -14 15 -18 8 -3 15 -16 15 -30 0 -13 7 -26 15
-30 8 -3 15 -12 15 -19 0 -8 9 -22 20 -32 11 -10 20 -23 20 -29 0 -7 8 -19 18
-28 31 -30 42 -47 42 -67 0 -11 9 -25 20 -31 11 -6 20 -17 20 -24 0 -8 7 -19
15 -26 8 -7 15 -20 15 -30 0 -10 8 -20 18 -22 11 -3 29 -25 41 -49 12 -24 35
-55 51 -69 17 -13 30 -29 30 -36 0 -6 9 -14 21 -17 12 -3 18 -10 14 -16 -3 -6
-1 -11 5 -11 7 0 27 -16 46 -35 18 -19 38 -35 44 -35 5 0 10 -6 10 -14 0 -8
10 -16 23 -20 12 -3 36 -19 53 -35 17 -16 42 -33 57 -36 15 -4 27 -10 27 -14
0 -4 10 -13 23 -20 12 -6 36 -20 52 -31 17 -11 41 -25 55 -31 14 -6 33 -18 42
-26 10 -9 18 -12 18 -7 0 5 7 -2 16 -14 8 -12 21 -22 29 -22 7 0 20 -6 27 -12
18 -17 46 -35 78 -50 14 -7 28 -16 31 -21 3 -4 23 -10 45 -14 21 -3 46 -11 54
-18 8 -7 49 -23 90 -35 41 -13 80 -30 86 -37 6 -7 33 -16 60 -19 27 -4 54 -11
60 -15 6 -5 40 -12 75 -16 35 -3 70 -12 77 -20 8 -7 35 -13 62 -13 26 0 61 -7
76 -15 43 -22 555 -22 607 0 21 9 67 15 107 15 40 0 83 6 98 14 15 7 56 16 91
19 35 3 67 10 70 15 3 5 24 12 45 15 22 4 44 13 48 22 5 8 21 15 36 15 15 0
37 6 48 14 11 8 36 17 56 21 20 4 39 13 42 21 3 8 15 14 27 14 27 0 89 28 112
52 10 10 27 18 37 18 11 0 20 4 20 9 0 5 10 13 23 17 12 3 30 13 40 22 10 9
25 17 34 18 9 2 20 10 25 18 5 9 17 16 27 16 10 0 24 7 31 15 7 8 19 15 27 15
8 0 40 25 71 55 31 30 65 55 75 55 10 0 15 5 12 11 -4 6 2 13 13 16 11 3 23
11 26 19 3 8 12 14 21 14 8 0 15 7 15 15 0 8 5 15 11 15 14 0 83 70 92 93 3 9
11 17 17 17 5 0 10 7 10 15 0 8 5 15 11 15 5 0 16 15 24 33 7 17 24 43 37 57
30 32 68 88 68 100 0 6 7 10 15 10 8 0 15 8 15 18 0 17 8 29 49 79 6 6 13 23
17 37 3 14 10 26 15 26 5 0 14 11 19 25 5 14 14 25 19 25 5 0 12 13 16 29 3
16 13 32 21 35 8 3 14 12 14 20 0 8 5 16 11 18 6 2 15 28 20 58 5 30 13 56 19
58 5 2 12 26 16 53 4 27 10 52 15 54 4 3 11 27 14 53 4 26 13 52 21 58 8 6 16
41 20 85 4 41 10 79 15 84 4 6 10 44 14 85 4 41 13 85 21 97 20 32 20 495 1
515 -8 7 -17 43 -21 78 -4 36 -11 69 -15 75 -5 5 -11 33 -14 62 -3 29 -12 62
-20 75 -8 13 -18 38 -22 56 -4 17 -10 32 -14 32 -5 0 -11 20 -13 44 -3 25 -13
52 -22 61 -9 9 -16 29 -16 45 0 16 -7 35 -15 44 -8 8 -15 25 -15 39 0 13 -9
32 -20 42 -11 10 -20 26 -20 35 0 10 -7 20 -15 24 -8 3 -15 16 -15 29 0 13 -9
32 -19 41 -11 10 -17 25 -14 33 4 9 0 21 -8 27 -8 6 -20 22 -27 36 -25 49 -38
66 -88 117 -27 28 -59 68 -69 87 -11 20 -25 36 -32 36 -7 0 -13 6 -13 14 0 8
-7 16 -15 20 -8 3 -15 12 -15 21 0 8 -7 15 -15 15 -9 0 -18 7 -21 15 -4 8 -12
15 -20 15 -8 0 -14 9 -14 20 0 11 -7 20 -15 20 -8 0 -15 7 -15 15 0 8 -7 15
-15 15 -8 0 -15 5 -15 11 0 13 -46 59 -58 59 -5 0 -19 13 -32 30 -14 16 -29
29 -35 30 -13 0 -57 35 -100 78 -18 17 -38 32 -43 32 -5 0 -15 7 -22 15 -7 8
-21 15 -32 15 -10 0 -21 7 -24 15 -4 8 -17 15 -30 15 -13 0 -29 9 -36 20 -8
12 -24 20 -40 20 -18 0 -28 5 -28 15 0 9 -9 15 -25 15 -14 0 -29 8 -35 20 -7
13 -21 20 -39 20 -16 0 -31 7 -35 15 -3 8 -17 15 -31 15 -14 0 -42 9 -62 20
-21 11 -48 20 -60 20 -13 0 -23 4 -23 9 0 6 -20 13 -45 17 -26 3 -45 12 -45
19 0 13 -51 25 -107 25 -18 0 -33 4 -33 9 0 5 -34 12 -75 16 -54 5 -78 12 -84
24 -9 14 -46 16 -343 17 -183 1 -349 0 -368 -3z m698 -99 c4 -6 41 -17 82 -23
122 -18 184 -32 207 -47 12 -8 33 -14 45 -14 13 0 32 -7 42 -15 11 -8 33 -15
48 -15 16 0 36 -9 45 -20 10 -11 27 -20 38 -20 12 0 30 -7 41 -15 10 -8 27
-15 37 -15 10 0 20 -7 23 -15 4 -8 11 -15 16 -15 10 0 87 -33 118 -51 8 -5 40
-21 70 -36 30 -15 65 -38 78 -52 22 -24 47 -41 90 -60 12 -6 22 -17 22 -26 0
-8 7 -15 15 -15 17 0 55 -35 55 -50 0 -5 6 -10 13 -10 15 0 57 -44 57 -59 0
-6 4 -11 8 -11 13 0 62 -44 62 -55 1 -6 14 -21 30 -35 17 -13 30 -30 30 -37 0
-7 4 -13 9 -13 25 0 107 -99 127 -152 3 -10 13 -18 20 -18 8 0 14 -4 14 -10 0
-5 9 -19 20 -30 11 -11 20 -27 20 -35 0 -8 4 -15 9 -15 5 0 12 -14 16 -31 4
-17 13 -33 21 -36 8 -3 14 -13 14 -22 0 -10 7 -26 15 -37 8 -10 15 -27 15 -36
0 -9 8 -24 17 -34 18 -18 38 -64 53 -122 4 -19 15 -41 24 -51 9 -10 16 -27 16
-38 0 -11 7 -34 15 -49 8 -16 15 -41 15 -56 0 -15 8 -31 17 -37 13 -7 20 -28
25 -78 12 -123 30 -208 45 -220 12 -9 14 -48 11 -232 -2 -160 -6 -224 -15
-229 -7 -4 -15 -44 -19 -90 -4 -46 -11 -85 -15 -88 -5 -3 -9 -40 -9 -83 0 -63
-3 -81 -19 -95 -11 -10 -21 -36 -24 -63 -2 -25 -9 -48 -14 -52 -6 -3 -13 -26
-16 -50 -3 -25 -12 -48 -21 -53 -11 -6 -16 -23 -16 -52 0 -30 -5 -46 -15 -50
-8 -3 -15 -14 -15 -24 0 -10 -9 -27 -20 -37 -11 -10 -20 -24 -20 -32 0 -7 -4
-13 -9 -13 -5 0 -12 -14 -16 -30 -4 -17 -11 -30 -16 -30 -5 0 -13 -8 -16 -17
-4 -9 -15 -25 -25 -35 -10 -10 -18 -25 -18 -33 0 -8 -7 -15 -15 -15 -8 0 -15
-9 -15 -20 0 -11 -4 -20 -9 -20 -5 0 -14 -14 -21 -30 -7 -16 -16 -30 -21 -30
-5 0 -9 -7 -9 -15 0 -9 -6 -18 -14 -21 -7 -3 -24 -26 -37 -51 -13 -25 -32 -48
-41 -51 -10 -2 -18 -12 -18 -22 0 -21 -81 -106 -110 -115 -11 -4 -20 -13 -20
-21 0 -8 -6 -14 -14 -14 -8 0 -16 -7 -20 -15 -3 -8 -12 -15 -21 -15 -8 0 -15
-4 -15 -9 0 -11 -105 -91 -120 -91 -5 0 -10 -7 -10 -15 0 -8 -9 -15 -19 -15
-11 0 -26 -6 -33 -14 -8 -7 -23 -16 -35 -20 -12 -4 -27 -13 -33 -21 -7 -8 -21
-15 -32 -15 -10 0 -21 -6 -24 -13 -2 -7 -14 -14 -26 -14 -12 -1 -29 -11 -38
-21 -8 -11 -25 -23 -37 -27 -13 -3 -23 -11 -23 -16 0 -5 -13 -9 -30 -9 -16 0
-33 -6 -37 -14 -4 -8 -26 -19 -48 -25 -102 -25 -131 -35 -146 -47 -8 -8 -22
-14 -30 -14 -8 0 -26 -6 -40 -14 -14 -7 -59 -16 -99 -20 -40 -4 -79 -13 -86
-20 -7 -7 -51 -16 -98 -19 -46 -4 -97 -12 -111 -17 -34 -13 -542 -13 -550 -1
-3 6 -37 13 -75 17 -38 3 -75 12 -81 20 -6 7 -36 16 -67 19 -31 3 -66 10 -77
15 -11 5 -37 11 -58 15 -21 3 -41 13 -44 20 -3 9 -26 17 -54 21 -27 4 -52 11
-55 15 -3 5 -18 9 -35 9 -16 0 -38 9 -49 20 -11 11 -29 20 -40 20 -29 0 -96
36 -103 55 -4 8 -17 15 -31 15 -13 0 -26 7 -30 15 -3 8 -12 15 -20 15 -8 0
-19 6 -23 13 -4 6 -29 23 -55 37 -26 13 -50 30 -52 37 -3 7 -17 13 -31 13 -14
0 -28 6 -31 14 -3 8 -19 20 -35 26 -16 7 -29 16 -29 21 0 5 -5 9 -11 9 -6 0
-31 14 -56 30 -24 17 -48 30 -54 30 -5 0 -9 5 -9 11 0 6 -16 26 -35 45 -19 18
-35 38 -35 44 0 5 -6 10 -13 10 -15 0 -28 12 -88 80 -21 24 -39 52 -39 62 0
10 -7 18 -15 18 -8 0 -15 7 -15 15 0 9 -7 18 -15 21 -8 4 -15 14 -15 23 0 10
-16 35 -35 57 -19 21 -35 49 -35 60 0 14 -8 24 -21 27 -12 3 -18 10 -15 16 4
5 1 13 -7 18 -7 4 -18 20 -24 36 -7 15 -17 27 -23 27 -5 0 -10 9 -10 20 0 20
-37 81 -52 88 -5 2 -8 12 -8 21 0 10 -9 30 -20 44 -11 14 -20 31 -20 39 0 8
-7 23 -15 34 -8 10 -15 40 -15 66 0 31 -5 50 -15 56 -10 5 -18 29 -21 63 -3
29 -12 68 -20 86 -8 17 -14 55 -14 84 0 36 -5 58 -17 72 -16 17 -18 45 -18
271 0 223 2 254 18 276 11 16 17 44 17 85 1 33 7 78 15 100 8 22 15 55 15 74
0 18 9 48 19 65 11 17 21 52 23 78 2 26 7 51 11 54 4 4 10 29 13 56 4 26 11
48 16 48 4 0 14 12 21 28 6 15 14 29 17 32 9 9 50 95 50 105 0 6 9 16 20 23
11 7 20 21 20 31 0 11 5 21 11 23 6 2 13 15 14 28 4 39 4 40 19 40 8 0 17 11
20 25 4 14 11 25 16 25 6 0 10 8 10 18 0 10 9 25 20 35 11 9 20 22 20 29 0 17
103 128 118 128 7 0 12 5 12 11 0 15 42 59 58 59 6 0 12 5 12 11 0 11 145 159
155 159 8 0 45 39 45 48 0 4 12 13 28 20 55 26 72 37 72 49 0 7 7 13 15 13 8
0 24 8 34 18 36 32 50 42 60 42 5 0 16 8 23 18 14 19 73 52 93 52 7 0 15 7 18
14 3 8 24 20 46 26 22 6 43 15 46 20 3 6 15 10 26 10 10 0 27 9 36 20 10 11
30 20 44 20 15 0 29 5 31 11 2 5 28 14 58 18 30 4 64 12 75 18 11 6 49 16 85
22 157 27 184 34 198 47 12 12 70 14 363 12 246 -2 352 -6 357 -14z"/>
<path d="M4085 7709 c-49 -3 -110 -11 -135 -17 -25 -6 -70 -11 -100 -12 -31 0
-61 -5 -68 -12 -7 -7 -44 -15 -83 -19 -39 -3 -74 -11 -78 -17 -3 -5 -23 -13
-44 -17 -20 -4 -37 -11 -37 -15 0 -4 -18 -10 -40 -14 -23 -3 -43 -13 -46 -20
-3 -8 -18 -16 -33 -19 -15 -3 -45 -22 -66 -41 -22 -20 -54 -42 -72 -48 -18 -7
-33 -18 -33 -24 0 -7 -21 -23 -47 -36 -25 -13 -48 -31 -51 -40 -2 -10 -10 -18
-16 -18 -7 0 -26 -13 -42 -30 -16 -16 -33 -30 -37 -30 -14 0 -77 -54 -77 -65
0 -6 -16 -26 -35 -45 -19 -19 -35 -41 -35 -47 0 -7 -7 -13 -15 -13 -8 0 -15
-7 -15 -15 0 -8 -7 -15 -15 -15 -9 0 -20 -11 -25 -24 -5 -13 -14 -27 -19 -31
-6 -3 -11 -14 -11 -24 0 -10 -7 -24 -15 -31 -8 -7 -15 -22 -15 -34 0 -12 -9
-29 -20 -39 -11 -9 -20 -26 -20 -36 0 -11 -4 -23 -10 -26 -5 -3 -15 -25 -21
-48 -6 -22 -17 -46 -24 -52 -7 -5 -15 -26 -18 -45 -13 -84 -36 -171 -48 -187
-11 -12 -14 -65 -14 -240 0 -202 2 -226 18 -237 11 -9 17 -27 17 -53 0 -22 7
-62 15 -89 8 -27 15 -64 15 -82 0 -20 8 -39 20 -49 11 -10 20 -29 20 -43 0
-15 7 -35 15 -46 8 -10 15 -30 15 -44 0 -14 9 -33 20 -43 11 -9 20 -25 20 -36
0 -10 6 -21 14 -24 8 -3 17 -19 21 -36 4 -17 11 -31 16 -31 5 0 9 -8 9 -19 0
-10 7 -24 15 -31 8 -7 15 -19 15 -27 0 -7 7 -16 15 -19 8 -4 15 -12 15 -18 0
-7 11 -23 25 -36 14 -13 25 -28 25 -34 1 -6 14 -22 30 -36 17 -13 30 -30 30
-37 0 -7 7 -13 15 -13 8 0 15 -6 15 -14 0 -8 9 -17 19 -21 10 -3 21 -15 24
-26 3 -12 10 -18 16 -14 6 3 11 -1 11 -9 0 -9 7 -16 15 -16 9 0 18 -7 21 -15
3 -8 29 -29 57 -47 29 -18 68 -49 87 -68 19 -19 48 -41 63 -47 15 -7 27 -17
27 -23 0 -5 13 -10 29 -10 17 0 32 -4 36 -9 3 -5 19 -12 36 -16 17 -4 33 -13
36 -21 3 -7 20 -16 39 -20 19 -3 34 -10 34 -14 0 -4 18 -10 41 -14 22 -4 51
-13 63 -21 12 -8 45 -18 72 -21 27 -4 52 -11 55 -17 4 -5 28 -11 55 -14 27 -3
63 -11 81 -19 44 -20 439 -20 468 0 11 7 51 16 90 20 38 4 74 11 80 15 5 5 29
11 52 14 23 3 54 14 69 26 15 12 33 21 40 21 8 0 14 5 14 10 0 6 9 10 20 10
11 0 29 9 40 20 11 11 31 22 45 26 14 3 25 10 25 15 0 5 6 9 13 9 8 0 24 9 37
20 13 11 31 20 42 20 10 0 18 4 18 10 0 5 11 12 25 16 14 3 30 15 36 25 5 11
14 19 20 19 11 0 72 41 77 53 2 4 12 7 23 7 10 0 19 7 19 15 0 8 5 15 10 15
15 0 130 113 130 128 0 7 6 15 14 18 8 3 17 16 20 30 4 13 11 24 16 24 6 0 10
6 10 13 0 8 9 22 20 32 11 10 20 26 20 37 0 10 5 18 10 18 6 0 15 11 20 25 5
14 14 25 20 25 5 0 10 11 10 24 0 14 5 28 10 31 6 3 10 1 10 -5 0 -9 77 -90
86 -90 9 0 54 -49 54 -59 0 -6 7 -11 15 -11 19 0 78 -31 100 -54 10 -10 29
-16 44 -14 22 3 26 8 29 41 3 29 -1 39 -15 44 -10 3 -22 12 -26 20 -4 7 -19
13 -31 13 -13 0 -26 7 -30 15 -3 8 -15 15 -26 15 -11 0 -20 6 -20 13 0 6 -14
21 -30 32 -17 11 -41 35 -53 52 -12 18 -28 33 -34 33 -7 0 -13 9 -13 20 0 11
-7 20 -15 20 -8 0 -15 6 -15 14 0 7 -9 16 -20 19 -11 3 -20 12 -20 21 0 9 -4
16 -9 16 -5 0 -14 13 -21 29 -6 16 -18 32 -26 35 -7 3 -11 12 -8 21 4 9 1 15
-9 15 -18 0 -27 21 -27 62 0 17 -7 36 -17 43 -15 11 -16 39 -16 249 1 189 4
241 16 259 8 12 16 48 19 79 3 33 12 65 21 75 9 10 15 33 15 52 -1 21 5 37 15
43 10 5 17 20 17 34 0 13 6 27 14 30 8 3 18 18 21 34 3 16 13 31 21 34 8 3 14
12 14 20 0 7 7 16 15 20 8 3 15 10 15 16 0 5 9 20 20 33 39 43 50 57 50 62 0
9 77 85 86 85 18 0 45 42 42 63 -3 19 -9 22 -47 21 -29 -1 -48 -7 -56 -17 -7
-10 -17 -17 -24 -17 -6 0 -11 -7 -11 -15 0 -9 -7 -18 -15 -21 -8 -3 -25 -22
-37 -42 -12 -21 -32 -47 -45 -59 l-23 -22 -6 24 c-3 13 -12 26 -20 29 -8 3
-14 15 -14 26 0 11 -5 20 -10 20 -6 0 -15 11 -20 25 -5 14 -17 28 -25 31 -8 4
-15 12 -15 19 0 7 -7 15 -15 19 -8 3 -15 12 -15 19 0 8 -9 22 -20 32 -11 10
-20 22 -20 26 0 4 -33 41 -72 81 -69 69 -141 125 -180 141 -10 3 -18 11 -18
18 0 13 -41 48 -57 49 -7 0 -20 8 -30 19 -10 10 -30 21 -44 24 -14 4 -37 18
-50 31 -14 14 -37 28 -52 31 -15 4 -27 11 -27 15 0 5 -14 11 -31 15 -17 4 -33
13 -36 21 -3 8 -10 14 -15 14 -14 0 -98 40 -118 56 -8 7 -31 13 -50 15 -19 2
-42 8 -50 15 -8 7 -54 14 -101 16 -65 2 -92 7 -106 21 -21 18 -52 19 -218 6z
m1 -1698 c-3 -5 1 -11 9 -15 8 -3 15 -11 14 -18 0 -10 -2 -10 -6 0 -2 6 -10
12 -16 12 -7 -1 -2 -9 11 -19 27 -23 28 -33 2 -49 -16 -10 -18 -16 -10 -38 15
-38 12 -54 -10 -54 -11 0 -20 6 -20 14 0 21 -19 30 -35 16 -22 -18 -37 -2 -30
31 5 23 3 29 -10 29 -9 0 -23 7 -31 15 -9 8 -11 15 -5 15 6 0 11 9 11 20 0 23
8 24 44 10 19 -7 26 -6 26 3 0 6 5 4 11 -6 6 -11 8 -32 5 -48 -4 -21 -2 -28 6
-23 7 4 8 3 4 -4 -4 -6 -14 -8 -23 -5 -11 4 -14 3 -9 -5 10 -16 36 -15 37 1 2
24 8 92 9 110 1 9 6 17 11 17 6 0 8 -4 5 -9z"/>
</g>
</svg>
