<?xml version="1.0" standalone="no"?>
<!DOCTYPE svg PUBLIC "-//W3C//DTD SVG 20010904//EN"
 "http://www.w3.org/TR/2001/REC-SVG-20010904/DTD/svg10.dtd">
<svg version="1.0" xmlns="http://www.w3.org/2000/svg"
 width="1152.000000pt" height="1241.000000pt" viewBox="0 0 1152.000000 1241.000000"
 preserveAspectRatio="xMidYMid meet">
<metadata>
Created by potrace 1.16, written by Peter Selinger 2001-2019
</metadata>
<g transform="translate(0.000000,1241.000000) scale(0.100000,-0.100000)"
fill="#000000" stroke="none">
<path d="M6890 9740 c-29 -28 -56 -50 -60 -50 -5 0 -15 -3 -23 -6 -12 -4 -14
0 -11 18 4 18 -5 12 -40 -27 -45 -50 -55 -87 -32 -123 5 -8 4 -18 -2 -24 -6
-6 -7 -19 -2 -33 13 -35 -6 -151 -30 -180 -6 -8 -9 -19 -5 -25 3 -5 -3 -23
-14 -39 -11 -15 -18 -31 -15 -34 3 -3 -5 -24 -18 -47 -22 -40 -23 -41 -4 -55
16 -12 17 -17 6 -30 -7 -8 -18 -15 -24 -15 -6 0 -11 -14 -10 -32 0 -18 -8 -47
-19 -66 -23 -39 -29 -95 -9 -87 21 8 -11 -45 -58 -95 -23 -25 -49 -55 -57 -67
-9 -13 -24 -23 -34 -23 -11 0 -19 -4 -19 -10 0 -5 -5 -10 -11 -10 -5 0 -7 5
-4 10 13 20 -16 9 -36 -14 -12 -14 -27 -22 -33 -20 -7 3 -19 -8 -27 -23 -8
-15 -22 -37 -32 -48 -17 -19 -19 -19 -28 -2 -10 16 -14 13 -46 -27 -32 -41
-54 -62 -38 -36 12 20 -3 9 -47 -32 -48 -46 -188 -220 -188 -235 0 -4 -14 -25
-31 -46 -26 -32 -33 -35 -50 -26 -13 6 -18 16 -15 26 4 9 2 21 -4 28 -8 9 -8
15 0 20 5 3 10 11 10 17 0 7 -4 7 -13 0 -11 -9 -14 12 -15 116 -1 70 -2 137
-2 150 0 12 -5 22 -10 22 -6 0 -10 14 -10 30 0 27 -9 35 -33 31 -4 -1 -3 8 3
20 9 16 8 24 -4 38 -9 10 -14 25 -10 35 5 12 2 15 -12 9 -12 -4 -15 -3 -10 5
4 7 3 12 -1 12 -5 0 -14 9 -21 21 -8 12 -9 18 -3 15 19 -12 20 12 1 29 -14 13
-17 22 -10 34 6 13 3 20 -11 29 -11 7 -17 17 -13 23 3 6 -1 18 -9 27 -21 25
-28 52 -14 52 6 0 1 7 -11 16 -17 12 -20 19 -12 34 11 21 -11 47 -31 35 -8 -5
-8 -1 1 15 13 25 8 35 -15 26 -14 -5 -16 -17 -11 -73 7 -89 10 -104 24 -130 7
-12 12 -28 12 -36 0 -8 7 -20 15 -27 9 -7 13 -20 10 -28 -4 -10 0 -12 10 -8
10 3 14 2 9 -5 -3 -6 7 -24 22 -41 16 -16 25 -29 19 -28 -20 4 -30 0 -18 -8 7
-5 16 -30 19 -57 3 -28 11 -56 17 -63 6 -7 11 -33 12 -58 1 -24 8 -50 15 -59
9 -11 9 -19 2 -28 -7 -8 -11 -56 -10 -118 1 -58 -2 -110 -5 -116 -4 -6 -3 -13
0 -17 4 -4 8 -24 9 -44 3 -53 11 -92 24 -107 7 -9 8 -15 1 -19 -10 -7 -9 -34
5 -111 9 -47 6 -67 -9 -77 -16 -10 -37 20 -37 51 0 20 2 23 10 11 8 -12 10
-12 15 2 11 28 -4 39 -29 23 -21 -14 -25 -14 -47 6 -21 18 -21 20 -4 14 13 -4
8 4 -14 23 -26 21 -31 31 -21 37 9 6 11 4 5 -5 -5 -9 -4 -11 4 -6 18 12 2 28
-21 20 -16 -5 -20 -3 -15 9 3 8 -3 23 -14 33 -23 20 -25 36 -4 28 24 -9 18 2
-11 21 -15 9 -23 12 -20 6 4 -6 0 -11 -9 -11 -11 0 -15 5 -12 14 3 8 -2 20
-11 28 -9 7 -13 8 -9 1 5 -7 0 -9 -13 -6 -11 3 -20 9 -20 14 0 5 7 6 15 3 10
-4 15 1 16 15 5 83 6 82 -43 120 -31 23 -46 42 -44 53 3 11 -16 33 -56 64 -44
34 -58 52 -55 65 6 22 -8 34 -25 22 -7 -4 -20 -6 -30 -5 -21 4 -33 -15 -19
-32 7 -9 7 -16 -1 -24 -9 -9 -5 -17 16 -33 18 -14 26 -28 23 -40 -3 -10 4 -26
14 -35 11 -10 18 -23 15 -30 -3 -7 2 -18 10 -25 9 -7 13 -21 10 -34 -4 -14 1
-25 15 -33 17 -11 18 -16 8 -29 -11 -12 -9 -18 10 -33 17 -12 20 -19 12 -25
-9 -5 -7 -13 7 -29 14 -15 19 -32 17 -57 -3 -34 1 -40 41 -69 24 -17 44 -38
44 -46 0 -18 40 -74 52 -74 5 0 6 5 2 12 -4 7 -3 8 4 4 13 -8 5 -36 -11 -36
-6 0 -1 -9 12 -21 12 -12 20 -27 17 -35 -3 -7 3 -18 12 -23 9 -6 13 -11 8 -11
-5 0 -3 -7 4 -15 6 -8 9 -18 6 -23 -3 -5 14 -24 37 -43 23 -18 43 -37 45 -41
2 -4 10 -4 18 -1 9 3 14 0 12 -7 -2 -7 10 -13 29 -15 22 -2 31 1 26 9 -3 6 4
1 16 -12 18 -18 24 -20 35 -10 8 7 11 17 8 22 -3 5 0 6 7 2 6 -4 9 -11 7 -15
-3 -4 4 -12 15 -19 11 -7 19 -8 19 -2 0 15 25 1 69 -39 l40 -37 -150 -189
c-84 -106 -147 -195 -144 -202 6 -17 -180 -254 -197 -250 -6 1 -46 -41 -89
-93 -46 -57 -84 -94 -94 -93 -11 0 -58 -51 -127 -138 -72 -91 -116 -139 -129
-139 -12 0 -47 -35 -94 -95 -42 -52 -82 -95 -90 -95 -9 0 -56 -52 -106 -115
l-92 -115 -33 25 -33 25 -36 -45 c-20 -24 -34 -49 -30 -54 3 -6 -1 -21 -10
-34 -8 -13 -13 -31 -10 -39 9 -23 -461 -614 -484 -610 -22 3 -55 -43 -47 -64
4 -9 -45 -78 -125 -179 -90 -114 -129 -170 -125 -182 4 -13 -34 -68 -124 -181
-71 -90 -126 -170 -124 -177 7 -18 -173 -245 -194 -245 -10 -1 -75 -76 -152
-175 -98 -127 -140 -173 -152 -171 -12 3 -36 -19 -75 -69 -41 -52 -63 -72 -75
-69 -11 3 -31 -14 -63 -56 -26 -34 -53 -59 -59 -57 -7 3 -39 -28 -71 -69 -39
-50 -65 -74 -79 -74 -13 0 -30 -14 -44 -34 -14 -20 -29 -33 -37 -30 -7 3 -26
-11 -41 -30 -19 -24 -34 -34 -46 -30 -11 3 -21 -3 -28 -16 -7 -13 -17 -19 -26
-16 -9 4 -28 -8 -48 -30 -19 -20 -38 -34 -43 -31 -5 4 -23 -11 -38 -31 -23
-31 -35 -38 -64 -39 -23 -1 -41 -8 -53 -23 -10 -12 -24 -20 -32 -17 -8 3 -22
-3 -32 -14 -10 -11 -24 -17 -31 -15 -7 3 -15 1 -18 -4 -4 -6 -15 -10 -25 -10
-23 0 -108 -107 -94 -119 48 -41 144 -111 152 -111 6 0 17 9 25 20 8 12 21 18
29 15 8 -3 22 3 32 14 10 11 23 18 28 15 5 -3 18 6 30 21 12 16 26 24 36 20 9
-3 21 3 29 15 8 11 22 20 31 20 9 0 30 16 45 35 16 20 33 33 38 29 6 -3 21 4
34 16 13 12 28 19 33 16 6 -3 24 10 41 29 17 19 37 35 45 35 8 0 35 27 61 59
33 41 51 57 64 54 12 -3 25 7 42 31 16 23 30 34 40 31 11 -4 29 10 54 40 20
25 42 44 48 42 7 -2 25 12 40 32 17 21 36 35 46 33 11 -2 29 11 44 32 15 18
33 33 40 32 8 0 35 25 61 56 29 36 52 55 61 52 9 -4 47 37 112 120 71 91 103
125 116 122 12 -3 44 30 114 120 54 68 105 124 114 124 9 0 43 34 75 75 32 41
60 72 63 70 2 -3 -13 -26 -33 -52 -20 -26 -34 -53 -31 -61 3 -7 -15 -38 -40
-69 -30 -36 -44 -62 -40 -73 3 -11 -5 -30 -20 -49 -17 -20 -24 -37 -20 -50 4
-12 -4 -30 -21 -50 -14 -17 -24 -37 -21 -43 2 -7 -6 -27 -18 -44 -17 -22 -23
-41 -21 -75 2 -24 -3 -53 -10 -64 -7 -11 -11 -36 -10 -55 2 -19 -2 -44 -8 -55
-18 -35 -15 -74 7 -90 l21 -15 -21 -22 c-21 -23 -24 -52 -9 -76 4 -7 3 -19 -3
-26 -7 -9 -7 -16 1 -24 9 -9 8 -16 -4 -29 -20 -23 -21 -78 -2 -93 12 -11 11
-16 -3 -41 -17 -29 -17 -30 12 -53 28 -23 29 -24 12 -49 -16 -25 -16 -26 14
-51 28 -24 29 -27 14 -49 -8 -13 -13 -31 -10 -39 3 -8 -10 -34 -28 -59 -38
-49 -47 -103 -20 -114 9 -3 19 -2 22 3 36 52 67 82 85 82 12 0 31 15 46 34 14
18 30 32 36 29 7 -2 25 12 40 31 20 24 34 34 46 30 11 -3 22 3 30 15 7 12 20
21 30 21 9 0 20 5 23 10 5 8 11 8 20 0 11 -9 18 -5 31 15 11 17 22 24 34 20
12 -4 24 2 33 16 9 11 20 19 25 15 5 -3 17 3 27 14 10 11 26 20 35 20 9 0 25
9 35 20 10 12 25 18 33 15 8 -3 23 6 33 19 11 14 25 23 32 21 7 -2 36 27 66
65 36 47 61 70 75 70 26 1 59 44 52 68 -7 22 208 297 233 298 30 2 43 15 37
38 -3 12 1 32 10 44 8 12 12 27 9 32 -3 6 0 10 8 10 18 0 59 45 56 61 -2 8 2
24 9 37 7 12 10 27 7 33 -4 5 0 21 9 34 9 13 13 31 10 40 -4 9 1 24 9 33 13
14 15 33 11 87 -3 39 -6 85 -7 104 -2 20 4 43 15 57 12 15 15 25 8 29 -8 5 -8
11 0 20 8 10 8 15 0 20 -6 4 -8 15 -5 25 4 13 -3 25 -25 41 -20 15 -27 26 -20
33 17 17 13 21 -58 76 -61 47 -67 55 -69 90 -1 44 21 72 64 76 14 2 33 6 42
10 48 20 101 1 101 -36 0 -10 6 -23 14 -29 9 -8 13 -30 11 -71 l-2 -60 48 -41
c31 -26 46 -45 42 -55 -3 -8 2 -23 10 -32 10 -11 15 -31 12 -55 -3 -33 1 -41
31 -63 28 -22 37 -24 49 -14 13 11 20 9 43 -11 15 -13 31 -27 36 -31 5 -4 4
-13 -3 -22 -10 -12 -8 -18 12 -31 14 -9 35 -14 48 -11 32 8 80 -34 73 -61 -7
-27 54 -75 77 -60 13 8 26 3 56 -21 29 -23 43 -28 51 -20 8 8 15 8 26 -1 8 -7
24 -10 36 -6 12 4 27 1 35 -5 8 -7 20 -8 27 -3 23 14 62 10 91 -10 18 -12 32
-16 40 -10 17 13 59 14 74 1 9 -7 17 -7 28 2 13 10 19 9 35 -5 20 -18 21 -18
43 3 13 12 28 22 34 22 5 0 18 9 28 20 11 13 25 18 37 14 10 -3 18 0 18 6 0 7
8 9 19 5 11 -3 22 -1 26 5 4 6 13 9 20 6 7 -2 21 4 30 14 9 10 34 21 55 25 29
5 45 16 70 51 32 42 48 50 100 46 8 0 35 26 60 59 26 35 53 60 65 60 11 1 27
2 35 3 8 1 21 5 28 9 6 5 16 6 21 2 5 -3 13 0 16 6 4 5 13 8 20 5 18 -7 39 20
31 40 -8 21 10 43 32 38 11 -3 31 14 60 52 35 47 40 59 30 72 -11 13 -10 15 9
10 13 -4 25 -2 28 2 3 4 14 6 25 3 12 -3 20 0 20 7 0 7 7 10 15 7 9 -4 28 10
51 38 20 25 44 45 54 45 10 0 30 14 45 32 15 18 35 32 45 33 10 0 37 24 60 53
32 40 40 56 31 66 -14 16 9 39 31 31 18 -7 60 49 52 70 -7 18 14 48 28 39 5
-3 18 2 30 12 11 10 25 19 32 19 7 0 26 15 41 33 15 18 33 31 40 28 7 -2 23 6
35 19 13 14 27 22 32 19 5 -3 18 6 29 20 12 15 26 23 35 19 9 -3 21 3 31 16 9
13 21 20 30 17 8 -3 20 -3 26 1 6 4 24 8 41 10 41 4 53 18 52 57 -2 43 -11 53
-31 36 -13 -11 -19 -10 -35 5 -16 14 -23 15 -34 6 -12 -10 -22 -8 -50 14 -20
15 -36 21 -38 15 -2 -8 -11 -8 -31 1 -22 10 -30 10 -36 1 -5 -8 -43 16 -119
75 -69 55 -107 92 -101 98 15 15 11 21 -44 64 -33 25 -53 48 -53 60 1 25 -286
254 -308 245 -8 -3 -29 4 -46 16 -23 16 -34 19 -44 11 -7 -6 -16 -8 -19 -4 -4
3 -13 0 -22 -7 -9 -7 -18 -10 -22 -7 -3 4 -12 2 -19 -4 -10 -8 -21 -5 -45 16
-23 19 -34 23 -40 14 -4 -6 -14 -9 -22 -6 -8 3 -23 -3 -33 -14 -9 -10 -25 -19
-36 -19 -10 0 -18 -4 -18 -8 0 -4 -17 -9 -37 -10 -60 -4 -77 -7 -91 -16 -7 -4
-19 -3 -26 3 -13 11 -73 5 -81 -9 -2 -3 -20 -5 -40 -4 -28 3 -38 -2 -52 -22
-9 -14 -22 -23 -28 -20 -23 8 -157 -29 -171 -48 -7 -10 -17 -15 -23 -12 -5 4
-13 2 -16 -4 -4 -6 -15 -8 -25 -5 -10 3 -21 1 -24 -4 -4 -6 -14 -7 -22 -4 -9
3 -21 -3 -31 -16 -8 -12 -21 -20 -28 -17 -7 2 -17 0 -23 -6 -8 -8 -18 -6 -36
6 -25 15 -26 15 -41 -8 -9 -14 -22 -23 -30 -20 -7 3 -24 -10 -39 -28 -20 -27
-33 -34 -61 -35 -19 -1 -38 3 -41 8 -3 5 -13 5 -23 -1 -10 -5 -21 -6 -25 -3
-3 4 -17 -4 -30 -16 -14 -13 -29 -20 -34 -17 -5 3 -17 -6 -26 -20 -11 -15 -25
-24 -36 -22 -26 4 -253 -281 -238 -299 8 -10 0 -25 -27 -58 -38 -48 -44 -66
-49 -152 -3 -43 -10 -60 -40 -98 -22 -26 -47 -46 -59 -46 -12 -1 -29 -2 -37
-3 -8 -1 -21 -5 -27 -9 -7 -5 -17 -6 -22 -2 -5 3 -13 1 -16 -5 -4 -6 -15 -8
-26 -5 -11 4 -19 2 -19 -5 0 -7 -7 -10 -15 -7 -8 4 -17 2 -21 -4 -3 -6 -13 -8
-21 -5 -8 3 -20 3 -25 0 -6 -4 -27 -8 -46 -10 -20 -2 -38 -8 -42 -14 -4 -6
-13 -8 -21 -5 -9 3 -23 -3 -33 -14 -10 -11 -23 -18 -28 -15 -5 3 -15 0 -23 -6
-8 -6 -18 -9 -24 -6 -5 4 -18 -4 -28 -16 -11 -15 -29 -23 -48 -23 -16 0 -35
-3 -42 -8 -6 -4 -30 -9 -52 -10 -23 -1 -41 -5 -41 -9 0 -4 -6 -5 -14 -2 -8 3
-17 0 -21 -6 -4 -6 -15 -8 -25 -5 -12 4 -23 -1 -32 -13 -7 -11 -31 -23 -56
-27 -27 -4 -46 -14 -53 -26 -7 -13 -16 -18 -29 -14 -10 3 -21 1 -24 -4 -4 -6
-13 -8 -21 -5 -7 3 -18 -4 -25 -15 -6 -12 -15 -21 -21 -21 -5 0 6 21 26 47 21
27 34 55 32 65 -3 11 20 50 63 104 37 48 66 93 63 100 -6 17 204 283 231 294
12 4 30 17 40 29 15 16 22 18 33 10 10 -9 13 -8 13 1 0 7 7 10 17 6 19 -8 63
29 63 52 0 9 -7 23 -16 33 -15 17 -8 28 100 163 76 95 120 144 130 140 9 -3
58 51 144 159 85 108 137 164 148 164 11 -1 81 79 208 240 109 139 196 240
204 238 7 -2 51 44 99 105 59 76 93 110 107 110 13 1 37 22 66 59 27 35 51 56
60 54 9 -2 34 20 63 56 26 33 53 58 60 56 6 -2 43 36 82 85 50 65 75 88 87 85
10 -4 24 5 37 24 12 16 21 32 21 36 0 3 11 21 25 39 14 18 25 40 25 48 0 9 7
18 14 21 10 4 13 1 10 -7 -6 -15 74 -78 91 -73 5 2 10 11 10 20 0 9 5 17 10
17 16 1 18 -32 4 -41 -11 -7 -11 -11 -1 -21 10 -10 17 -7 35 12 l22 24 -25
-19 -25 -20 18 21 c9 11 15 23 13 25 -10 12 -16 60 -6 54 5 -3 10 -16 10 -29
0 -35 18 -47 42 -28 21 18 48 64 48 82 0 8 -6 8 -20 0 -16 -9 -18 -8 -14 5 4
9 9 13 12 10 7 -6 38 37 34 48 -1 5 2 5 8 2 8 -5 5 -14 -7 -28 l-18 -21 27 20
c15 10 28 23 28 27 0 5 16 -1 35 -13 25 -15 35 -18 35 -8 0 10 2 10 9 -2 6 -8
8 -17 5 -21 -2 -4 0 -10 5 -13 4 -3 7 -26 5 -51 -2 -33 1 -48 12 -52 9 -3 12
-12 8 -25 -3 -12 1 -27 11 -38 9 -10 14 -23 11 -28 -3 -5 3 -17 14 -27 15 -14
17 -21 8 -32 -11 -14 -6 -20 50 -60 14 -10 21 -22 17 -33 -7 -22 34 -51 62
-44 11 3 26 -3 38 -15 17 -20 19 -20 36 -5 15 14 22 14 33 4 12 -9 21 -9 44 2
23 12 29 12 29 2 0 -7 -5 -11 -11 -7 -6 3 2 -6 19 -20 19 -16 32 -21 37 -14 4
7 15 6 36 -2 17 -7 38 -12 48 -11 11 1 24 1 29 0 27 -6 41 -4 51 9 9 11 12 12
19 1 5 -9 4 -11 -3 -6 -7 4 -12 2 -12 -3 0 -14 17 -14 25 -1 4 6 10 8 15 5 5
-3 11 -1 14 4 3 5 15 7 26 4 13 -4 26 1 34 12 8 11 20 16 29 12 10 -4 21 3 31
18 21 32 20 41 -1 24 -16 -13 -17 -12 -4 4 8 9 16 15 19 12 3 -3 13 2 23 11
13 12 19 12 25 3 5 -8 3 -10 -6 -4 -9 5 -11 4 -6 -3 11 -17 19 -14 40 15 11
14 14 23 8 19 -7 -4 -10 2 -9 16 1 13 33 64 72 113 91 114 99 129 80 145 -8 6
-19 9 -25 5 -28 -17 -180 -222 -180 -242 0 -13 -5 -23 -11 -23 -5 0 -7 5 -4
10 3 6 1 10 -4 10 -6 0 -11 -5 -11 -11 0 -5 -4 -7 -10 -4 -5 3 -16 3 -22 -2
-7 -4 -20 -8 -28 -9 -8 -1 -25 -2 -38 -3 -15 0 -21 -5 -16 -13 4 -6 -3 -4 -17
5 -27 19 -64 23 -53 6 3 -6 -5 -3 -20 6 -23 16 -30 14 -27 -7 0 -4 -6 -5 -15
-1 -11 4 -12 8 -4 13 15 9 -42 54 -71 56 -10 1 -21 3 -24 4 -3 1 -10 3 -15 4
-6 0 -15 7 -20 15 -6 11 -12 12 -22 3 -9 -7 -18 -8 -24 -2 -5 5 -24 10 -42 12
-36 3 -49 12 -31 23 7 5 1 17 -16 35 -15 16 -26 30 -25 32 5 9 -13 77 -20 73
-11 -7 7 56 19 68 5 5 11 4 15 -2 4 -6 2 -11 -5 -11 -21 0 3 -17 33 -24 15 -3
29 -2 32 3 3 5 15 7 26 4 11 -3 20 -1 20 5 0 5 15 9 33 8 17 -2 38 2 44 7 7 5
19 7 28 4 8 -4 17 -2 21 4 3 6 12 8 19 5 7 -2 23 6 35 19 12 13 28 21 35 19 8
-3 18 4 25 15 6 12 21 21 34 21 14 0 30 10 39 24 9 13 24 31 34 41 10 10 18
22 18 26 0 11 42 49 54 49 5 0 36 29 68 65 32 36 60 60 64 54 3 -6 64 62 135
152 117 148 138 180 110 171 -10 -3 4 17 38 56 14 15 17 25 10 30 -7 5 -3 16
12 32 l24 25 0 -27 c0 -14 7 -28 15 -31 17 -7 29 8 19 25 -5 8 -2 9 9 5 18 -7
33 8 17 18 -17 11 -11 22 16 28 18 3 24 1 20 -8 -3 -8 6 -16 20 -19 14 -4 27
-13 30 -20 3 -8 13 -12 24 -9 10 3 20 1 23 -4 9 -15 -10 -36 -35 -39 -12 -1
-25 -3 -28 -3 -3 -1 11 -9 30 -20 19 -10 40 -16 45 -12 6 3 17 6 25 7 8 1 25
2 38 3 14 0 38 22 69 61 28 37 52 59 60 56 8 -3 13 0 11 7 -4 24 14 59 28 53
8 -3 14 -2 14 3 0 4 21 6 48 4 93 -8 144 -3 150 15 2 7 8 12 14 12 6 0 17 8
25 18 8 9 12 11 8 5 -7 -15 11 -18 19 -4 3 5 15 7 25 4 13 -3 23 2 31 17 6 12
18 19 25 16 11 -4 45 31 97 100 5 7 -8 25 -37 49 -38 31 -48 35 -61 24 -11 -9
-18 -9 -26 -1 -16 16 -45 15 -51 0 -3 -9 -11 -7 -26 7 l-23 20 -19 -24 c-13
-15 -19 -18 -19 -9 0 24 -38 54 -52 40 -8 -8 -15 -7 -26 4 -9 10 -24 13 -41 9
-22 -5 -36 3 -82 48 -31 29 -54 58 -51 65 6 19 59 72 72 72 6 0 8 4 5 10 -3 5
1 20 10 33 8 13 13 31 10 39 -4 9 12 37 39 70 39 49 44 60 43 101 -1 31 -10
56 -27 79 -14 18 -25 38 -25 43 0 6 -4 10 -10 11 -19 2 -45 16 -45 26 0 5 4 7
9 3 5 -3 13 0 16 6 4 5 13 8 21 5 22 -8 17 4 -12 31 -20 19 -27 34 -27 64 0
30 -6 44 -23 58 -13 11 -24 24 -24 31 0 6 -4 9 -10 5 -5 -3 -6 -13 -3 -22 5
-12 3 -14 -8 -8 -40 23 -67 61 -34 49 8 -4 15 -2 15 2 0 10 -61 40 -73 36 -5
-1 -4 5 1 15 7 11 6 23 -2 35 -9 15 -8 21 4 28 8 5 12 10 10 12 -3 2 -26 20
-52 41 -41 33 -46 41 -44 73 3 26 0 34 -10 30 -21 -8 -43 4 -37 20 8 21 -68
49 -92 33 -5 -4 -22 3 -37 16 -33 28 -36 39 -9 30 16 -5 18 -2 14 15 -3 11 -8
18 -11 15 -9 -9 -32 17 -32 36 0 20 -35 43 -51 33 -6 -3 -19 2 -29 11 -15 14
-21 14 -39 3 -12 -7 -21 -17 -21 -23 0 -5 -14 -11 -31 -12 -23 -2 -43 7 -75
33 -42 34 -74 40 -74 13 0 -9 -4 -9 -14 0 -10 8 -16 9 -21 1 -3 -6 -11 -8 -16
-4 -5 3 -16 1 -23 -5 -7 -6 -20 -9 -27 -6 -16 6 -89 -71 -117 -124 -25 -47
-37 -44 -39 12 -1 35 2 47 13 47 24 0 16 20 -13 31 -31 12 -42 3 -48 -37 -2
-16 -13 -54 -23 -84 -21 -60 -29 -195 -13 -214 22 -27 9 -120 -31 -216 -6 -14
-12 -34 -13 -45 -3 -20 -37 -104 -56 -138 -5 -10 -7 -22 -4 -27 3 -5 1 -19 -5
-30 -6 -12 -11 -44 -10 -73 2 -91 1 -98 -25 -131 -30 -40 -35 -71 -39 -271 -2
-88 -7 -176 -11 -195 -4 -19 -8 -44 -9 -55 0 -11 -4 -24 -7 -30 -3 -5 -7 -28
-8 -50 -2 -52 -19 -114 -38 -143 -8 -13 -12 -29 -10 -37 3 -7 -7 -28 -23 -46
-27 -33 -29 -33 -47 -17 -15 14 -22 15 -31 6 -6 -6 -15 -9 -19 -5 -3 4 8 25
25 46 18 22 32 50 32 63 0 13 6 32 14 43 19 28 19 160 0 176 -7 6 -11 16 -8
21 4 5 -11 27 -32 49 -29 30 -38 48 -41 81 -2 24 -5 55 -8 69 -2 15 -1 30 2
33 7 6 9 17 16 71 2 17 8 39 14 50 6 11 14 43 18 70 4 28 11 55 16 61 20 25
29 166 17 267 -5 46 7 108 30 153 9 17 37 121 46 169 2 11 8 40 14 64 6 25 9
48 7 52 -3 4 7 24 21 44 14 21 26 47 27 59 1 12 7 32 14 45 6 14 9 29 6 35 -4
5 -7 38 -9 72 -2 51 2 68 18 89 11 14 24 23 29 20 10 -7 40 22 80 74 31 41 53
37 74 -13 17 -41 33 -53 41 -32 3 9 10 14 14 11 4 -3 10 7 13 22 3 19 -1 32
-17 44 -27 23 -37 24 -29 2 5 -14 -2 -11 -29 9 l-36 28 -52 -50z m439 -193
c33 -27 49 -33 62 -27 9 5 19 7 22 3 4 -3 13 -1 20 5 8 7 16 9 20 6 3 -3 15
-1 26 6 28 14 26 4 -4 -32 -21 -25 -24 -36 -18 -71 4 -23 6 -51 5 -62 -16
-142 5 -194 109 -276 46 -36 69 -61 69 -74 0 -12 5 -26 12 -33 20 -20 -1 -14
-55 16 -50 27 -90 34 -114 19 -31 -19 -55 14 -57 80 -3 70 -56 107 -112 78
-29 -15 -54 -6 -54 19 0 24 -41 96 -60 106 -11 6 -37 11 -59 13 l-40 2 3 76
c2 73 5 79 42 123 21 25 46 46 54 46 8 0 23 7 34 15 22 16 31 13 95 -38z
m-112 -382 c57 -47 68 -52 78 -35 4 6 11 8 16 4 5 -3 15 -1 22 4 22 18 44 -9
45 -58 1 -25 8 -50 16 -55 7 -6 15 -19 18 -30 3 -17 12 -20 58 -20 30 0 60 3
66 7 6 4 85 -52 181 -127 133 -105 177 -134 199 -133 40 1 88 -8 112 -21 14
-7 23 -8 27 -1 8 13 25 3 25 -14 0 -7 -15 -32 -33 -55 -22 -28 -32 -50 -30
-65 3 -15 -8 -38 -35 -72 l-40 -50 -87 -2 c-51 -2 -93 2 -100 8 -9 8 -15 8
-20 1 -4 -7 -16 -6 -36 4 -16 9 -34 13 -39 10 -6 -3 -15 -3 -21 1 -6 4 -39 8
-73 9 -75 3 -125 11 -140 23 -6 5 -24 12 -41 16 -35 9 -57 25 -50 36 7 11 -48
62 -72 68 -10 2 -74 5 -143 6 -69 1 -130 5 -137 9 -6 4 -14 3 -17 -2 -6 -9
-68 -7 -83 2 -10 6 -8 136 2 160 4 10 8 28 9 40 1 12 6 21 12 20 5 -1 11 13
12 30 2 17 9 44 17 61 8 16 15 35 15 41 0 7 7 26 15 41 8 16 15 37 15 47 0 10
7 29 16 42 10 16 12 25 5 25 -7 0 -5 9 5 25 12 18 20 22 29 15 6 -5 15 -7 18
-3 4 3 21 8 38 10 17 2 38 7 47 13 10 5 18 10 20 10 2 0 28 -20 59 -45z m741
-77 c12 -6 22 -18 22 -25 0 -8 7 -25 16 -39 9 -14 18 -41 20 -60 2 -20 16 -51
34 -73 16 -22 30 -45 30 -53 0 -8 5 -19 10 -24 15 -15 -7 -61 -32 -67 -11 -3
-34 3 -51 13 -19 11 -46 17 -67 16 -44 -4 -82 15 -110 54 -12 17 -37 37 -56
45 -27 11 -34 20 -35 42 -1 42 -6 64 -18 76 -6 6 -11 22 -11 37 0 31 36 51 69
38 13 -4 28 -5 34 -1 7 4 18 8 26 10 8 1 20 8 28 16 15 15 53 13 91 -5z
m-1394 -410 c-3 -29 -10 -58 -16 -65 -5 -7 -7 -17 -3 -22 3 -6 -1 -24 -10 -40
-8 -17 -14 -34 -13 -38 3 -11 -11 -73 -22 -98 -27 -64 -34 -235 -10 -259 5 -5
10 -17 10 -24 0 -8 15 -30 34 -48 46 -45 65 -125 37 -158 -7 -8 -11 -21 -8
-28 4 -14 -48 -98 -69 -111 -7 -4 -22 -23 -34 -42 -12 -19 -32 -38 -45 -41
-13 -3 -31 -16 -39 -29 -9 -13 -26 -27 -38 -30 -13 -4 -32 -15 -43 -25 -47
-41 -207 -68 -256 -43 -33 16 -89 72 -89 88 0 7 -10 32 -22 56 -30 59 -30 57
-32 179 -2 103 3 134 30 195 7 17 15 39 19 51 3 12 24 46 48 77 23 31 62 83
87 117 41 56 65 80 167 167 18 16 37 27 42 26 4 -1 19 9 31 22 13 14 29 25 36
25 7 0 26 11 42 25 17 14 34 25 39 25 5 0 22 14 38 30 16 17 34 30 40 30 7 0
20 9 30 20 10 11 19 20 21 20 2 0 1 -24 -2 -52z m426 -152 c18 -8 36 -13 41
-10 5 3 18 0 30 -6 17 -10 24 -8 41 9 11 12 24 18 31 14 32 -19 91 -63 155
-116 52 -43 79 -58 106 -61 26 -2 45 -12 65 -33 49 -54 141 -103 141 -75 0 18
65 11 87 -10 17 -16 35 -20 85 -21 l63 0 -35 -15 c-23 -10 -62 -49 -115 -116
-44 -56 -91 -106 -105 -113 -30 -14 -95 -98 -104 -134 -8 -34 -230 -316 -255
-324 -11 -3 -44 -34 -73 -67 -81 -94 -154 -158 -181 -158 -8 0 -20 -7 -27 -15
-7 -8 -18 -15 -25 -15 -7 0 -24 -9 -37 -20 -14 -10 -28 -17 -31 -13 -4 3 -13
0 -21 -6 -8 -7 -34 -14 -58 -17 -59 -7 -199 -4 -212 4 -6 4 -13 7 -16 8 -15 3
-50 17 -83 35 -40 21 -104 32 -122 21 -31 -19 -53 -3 -45 33 1 6 4 22 5 38 2
15 7 33 12 40 4 6 8 20 8 29 2 21 33 58 50 58 6 0 22 11 35 25 15 16 30 23 41
20 10 -4 31 1 46 9 16 8 45 17 66 21 26 5 47 19 71 49 66 77 126 164 126 181
0 9 5 26 12 38 14 26 38 125 44 182 2 22 9 63 14 90 6 28 12 82 15 120 2 39 5
70 5 70 5 0 4 108 -1 110 -6 4 -3 71 6 122 3 19 13 33 23 36 32 7 90 0 122
-17z m484 -92 c143 -8 197 -14 214 -23 11 -6 28 -8 36 -5 9 4 22 2 29 -4 16
-13 97 -14 97 0 0 6 6 5 16 -3 9 -7 18 -9 22 -3 11 15 29 14 43 -2 28 -34 -32
-82 -128 -103 -38 -8 -46 -6 -82 21 -40 29 -42 29 -96 17 l-55 -12 -58 44
c-31 24 -74 55 -94 69 -20 13 -34 28 -32 32 3 4 17 0 31 -9 15 -10 40 -18 57
-19z m516 -139 c6 -7 13 -22 14 -31 5 -33 76 -73 136 -77 41 -3 67 -12 98 -33
67 -46 48 -65 -78 -80 -80 -9 -151 -39 -190 -79 -40 -41 -49 -42 -87 -12 -34
27 -88 54 -126 62 -25 5 -26 8 -15 24 14 19 104 91 114 91 12 0 33 35 34 53 0
11 4 15 12 11 7 -4 8 -3 4 4 -8 14 41 82 59 82 7 0 18 -7 25 -15z"/>
</g>
</svg>
