<?xml version="1.0" standalone="no"?>
<!DOCTYPE svg PUBLIC "-//W3C//DTD SVG 20010904//EN"
 "http://www.w3.org/TR/2001/REC-SVG-20010904/DTD/svg10.dtd">
<svg version="1.0" xmlns="http://www.w3.org/2000/svg"
 width="1277.000000pt" height="814.000000pt" viewBox="0 0 1277.000000 814.000000"
 preserveAspectRatio="xMidYMid meet">
<metadata>
Created by potrace 1.16, written by Peter Selinger 2001-2019
</metadata>
<g transform="translate(0.000000,814.000000) scale(0.100000,-0.100000)"
fill="#000000" stroke="none">
<path d="M6818 7433 c-8 -10 -16 -25 -16 -33 0 -8 -6 -80 -12 -160 -11 -132
-9 -417 3 -530 3 -25 8 -85 12 -135 7 -100 30 -262 46 -333 6 -26 14 -85 18
-132 6 -61 17 -107 40 -163 33 -78 95 -157 124 -157 21 0 30 29 11 37 -8 3
-13 11 -10 18 2 7 -8 55 -23 107 -16 51 -31 125 -35 163 -4 39 -15 115 -26
170 -10 55 -26 137 -34 183 -9 45 -16 111 -16 146 0 35 -7 100 -15 143 -12 61
-15 142 -14 374 1 163 -1 301 -5 307 -10 17 -31 15 -48 -5z"/>
<path d="M5463 7213 c-21 -8 -15 -42 11 -58 42 -28 59 -65 67 -150 4 -44 14
-123 23 -176 11 -76 13 -143 7 -335 -4 -132 -10 -245 -14 -251 -3 -5 -15 -78
-26 -160 -15 -108 -29 -172 -50 -225 -16 -41 -33 -92 -37 -114 -4 -21 -11 -42
-17 -45 -14 -10 -1 -39 18 -39 8 0 15 5 15 11 0 5 5 7 12 3 7 -4 8 -3 4 4 -4
6 11 29 32 50 47 47 95 162 111 267 6 39 20 113 31 165 29 132 49 569 32 679
-7 42 -19 115 -26 162 -24 150 -111 246 -193 212z"/>
<path d="M7160 5509 c-69 -11 -157 -54 -285 -137 -105 -69 -185 -111 -247
-131 -21 -7 -65 -33 -98 -57 -67 -49 -155 -88 -173 -78 -7 4 -9 4 -5 -1 15
-16 -40 -45 -89 -47 -69 -2 -148 11 -170 29 -10 8 -12 11 -4 7 8 -4 12 -3 8 3
-3 5 -19 8 -35 5 -18 -2 -35 2 -45 12 -8 9 -22 16 -30 16 -26 0 -47 12 -47 26
0 10 -13 14 -42 14 -23 0 -38 3 -35 7 13 13 -16 33 -49 33 -24 0 -34 5 -34 15
0 11 -12 15 -50 15 -36 0 -52 4 -56 15 -4 10 -20 15 -50 15 -37 0 -44 3 -44
20 0 18 -7 20 -55 20 -48 0 -55 2 -55 20 0 18 -7 20 -55 20 -42 0 -55 3 -55
15 0 12 -16 15 -80 15 -73 0 -80 2 -80 20 0 18 -9 19 -223 22 -202 3 -223 1
-220 -13 5 -17 -37 -29 -103 -29 -19 0 -34 -6 -38 -15 -4 -11 -23 -15 -81 -15
-68 0 -75 -2 -75 -20 0 -15 -7 -20 -26 -20 -21 0 -25 -4 -21 -20 4 -17 0 -20
-34 -20 -28 0 -39 -4 -39 -15 0 -8 -7 -15 -15 -15 -9 0 -18 -7 -21 -15 -4 -9
-19 -15 -40 -15 -22 0 -37 -6 -40 -15 -4 -8 -10 -15 -15 -15 -5 0 -38 -18 -73
-40 -35 -22 -73 -40 -85 -40 -15 0 -21 -6 -21 -21 0 -18 -5 -20 -42 -18 -39 3
-43 2 -40 -19 3 -18 -2 -22 -22 -22 -19 0 -26 -5 -26 -19 0 -14 -6 -17 -25
-13 -26 5 -74 -31 -75 -55 0 -7 -6 -13 -13 -13 -8 0 -27 -11 -43 -25 -16 -14
-63 -42 -104 -61 -41 -20 -100 -57 -130 -83 -113 -96 -219 -160 -315 -191 -60
-19 -150 -66 -242 -125 -44 -30 -92 -55 -105 -57 -12 -2 -23 -10 -23 -18 0
-11 -13 -16 -44 -18 -37 -3 -42 -6 -38 -23 4 -14 0 -19 -15 -19 -14 0 -18 -5
-14 -16 5 -13 -2 -15 -42 -13 -44 3 -47 2 -44 -20 3 -19 -1 -22 -20 -19 -18 2
-22 -1 -20 -18 2 -18 -2 -20 -33 -16 -30 4 -37 1 -42 -17 -3 -12 -13 -21 -24
-21 -11 0 -19 -7 -19 -15 0 -10 -11 -15 -35 -15 -29 0 -35 -4 -35 -21 0 -17
-5 -20 -23 -17 -20 4 -23 1 -19 -19 4 -21 1 -23 -43 -23 -42 0 -47 -2 -42 -20
4 -15 0 -20 -13 -20 -10 0 -20 -7 -24 -15 -3 -8 -16 -15 -29 -15 -12 0 -32 -7
-42 -15 -47 -35 -125 -85 -135 -85 -5 0 -15 -9 -22 -20 -7 -11 -18 -20 -25
-20 -7 0 -13 -9 -13 -20 0 -13 -7 -20 -20 -20 -13 0 -20 -7 -20 -19 0 -14 -14
-22 -58 -35 -32 -9 -71 -16 -86 -16 -14 0 -38 -7 -52 -17 -18 -11 -55 -17
-127 -20 -125 -5 -147 -9 -147 -28 0 -9 -9 -15 -24 -15 -30 0 -76 -36 -76 -60
0 -37 47 -60 122 -60 56 0 69 -3 65 -14 -4 -10 0 -12 14 -9 14 4 19 0 19 -16
0 -18 6 -21 40 -21 33 0 40 -3 40 -20 0 -16 7 -20 35 -20 19 0 35 -4 35 -10 0
-5 12 -13 26 -16 18 -5 24 -12 21 -24 -3 -13 1 -16 21 -12 22 4 24 2 20 -20
-4 -20 -1 -24 12 -21 11 3 19 -3 23 -16 3 -13 13 -21 26 -21 14 0 19 -5 15
-15 -4 -10 0 -15 15 -15 18 0 21 -6 21 -40 0 -33 3 -40 20 -40 17 0 20 -7 20
-50 0 -41 3 -50 18 -50 13 0 17 -8 17 -32 0 -25 6 -36 23 -43 16 -7 22 -18 22
-42 0 -27 4 -33 21 -33 18 0 21 -5 17 -38 -3 -35 -1 -38 19 -34 20 4 23 0 23
-32 0 -29 4 -36 20 -36 13 0 18 -5 14 -15 -4 -9 2 -16 18 -20 20 -5 23 -11 20
-41 -4 -29 -1 -34 17 -34 14 0 21 -6 21 -20 0 -11 5 -20 11 -20 6 0 17 -6 24
-12 8 -7 21 -19 30 -26 8 -7 13 -18 9 -23 -3 -5 0 -8 8 -7 7 2 12 -5 12 -14
-1 -10 3 -16 10 -15 6 1 11 -10 11 -24 0 -15 5 -26 12 -25 7 1 31 -28 55 -64
35 -53 68 -83 181 -167 99 -75 137 -109 137 -124 0 -12 8 -23 20 -26 11 -3 20
-14 20 -24 0 -16 8 -19 41 -19 35 0 41 -3 37 -18 -4 -15 -1 -18 20 -14 22 4
24 2 20 -20 -4 -21 -1 -24 19 -20 18 3 23 0 23 -17 0 -18 6 -21 40 -21 30 0
38 -3 34 -14 -3 -9 3 -17 15 -21 12 -3 21 -13 21 -21 0 -10 13 -14 45 -14 38
0 45 -3 45 -20 0 -16 7 -20 34 -20 21 0 36 -6 40 -15 3 -8 15 -15 26 -15 13 0
20 -7 20 -20 0 -18 7 -20 55 -20 44 0 53 -3 49 -15 -5 -12 5 -15 55 -15 54 0
61 -2 61 -20 0 -17 7 -20 40 -20 33 0 40 -3 40 -20 0 -18 7 -20 80 -20 64 0
80 -3 80 -15 0 -12 13 -15 55 -15 48 0 55 -2 55 -20 0 -18 7 -20 80 -20 64 0
80 -3 80 -15 0 -12 17 -15 96 -15 67 0 93 -3 88 -11 -12 -20 20 -29 113 -29
78 0 91 -2 87 -15 -5 -13 7 -15 76 -15 80 0 82 -1 78 -22 -4 -23 -3 -23 78
-20 79 3 82 3 77 -17 -5 -20 -2 -21 101 -21 98 0 106 -2 106 -19 0 -18 11 -19
185 -23 122 -2 188 -7 193 -14 4 -7 71 -14 177 -18 94 -4 172 -12 173 -17 2
-5 158 -9 380 -9 208 0 435 -3 505 -7 111 -5 128 -8 124 -22 -3 -14 29 -16
330 -13 281 2 335 5 339 17 5 12 28 14 143 8 90 -4 160 -2 206 6 39 7 121 12
183 12 68 -1 139 5 178 14 36 8 92 15 125 15 46 0 59 3 59 15 0 12 15 15 76
15 67 0 76 2 81 20 4 17 14 20 55 20 41 0 51 3 55 20 5 18 14 20 81 20 60 0
77 4 88 18 10 13 27 17 82 17 61 0 68 2 64 18 -4 14 3 17 37 17 34 0 41 3 41
20 0 17 7 20 51 20 31 0 56 6 65 15 9 8 29 15 45 15 19 0 29 5 29 15 0 9 14
17 39 21 22 4 42 13 45 20 3 8 14 14 25 14 30 0 51 11 51 26 0 9 12 14 35 14
23 0 35 5 35 14 0 16 30 26 83 26 26 0 37 4 37 15 0 11 11 15 36 15 27 0 37 5
41 20 4 15 14 20 39 20 24 0 34 5 34 15 0 11 11 15 40 15 33 0 40 3 40 20 0
17 7 20 40 20 29 0 40 4 40 15 0 10 10 15 32 15 17 0 38 7 47 16 9 8 60 41
113 72 53 31 112 72 132 90 20 17 41 32 48 32 8 0 29 13 48 28 19 16 63 44 98
62 39 20 70 45 83 66 11 19 24 34 28 34 4 0 22 16 41 35 19 19 40 35 45 35 6
0 16 9 23 20 7 11 17 20 23 20 11 0 81 63 132 117 16 18 34 30 40 26 6 -3 7
-1 3 5 -3 6 14 23 39 39 107 66 223 151 267 196 26 26 54 47 63 47 8 0 15 9
15 21 0 11 4 17 10 14 5 -3 15 3 22 15 7 11 21 20 30 20 11 0 18 8 18 20 0 11
7 20 15 20 8 0 15 7 15 16 0 12 7 15 23 12 20 -4 23 -1 19 24 -5 31 14 62 33
54 6 -2 11 5 11 18 -1 14 6 22 22 24 12 2 22 8 22 14 0 5 18 33 40 60 22 28
40 55 40 59 0 5 6 9 13 9 6 1 37 32 67 70 30 37 59 66 64 63 5 -3 6 -2 3 4 -9
14 67 73 92 73 14 0 21 6 21 20 0 13 7 20 20 20 12 0 20 7 20 16 0 13 8 15 38
12 32 -3 38 0 35 13 -3 11 4 18 24 22 15 3 43 19 62 34 32 28 34 31 27 75 -8
54 -18 60 -72 46 -54 -15 -194 -2 -194 18 0 10 -12 14 -41 14 -38 0 -41 2 -37
23 4 20 1 22 -32 19 -31 -3 -38 0 -43 17 -4 16 -13 21 -41 21 -29 0 -36 4 -36
20 0 18 -7 20 -60 20 -47 0 -60 3 -60 15 0 11 -11 15 -40 15 -29 0 -40 4 -40
15 0 12 -13 15 -55 15 -48 0 -55 2 -55 20 0 16 -7 20 -37 20 -53 0 -85 10 -79
25 3 8 -4 10 -19 7 -28 -5 -95 15 -95 29 0 5 -18 9 -41 9 -32 0 -42 4 -46 20
-4 15 -14 20 -39 20 -24 0 -34 4 -34 16 0 9 -9 18 -20 21 -11 3 -20 12 -20 19
0 9 -12 14 -35 14 -28 0 -35 4 -35 20 0 17 -7 20 -45 20 -33 0 -45 4 -45 15 0
9 -9 15 -21 15 -17 0 -20 5 -17 23 4 20 1 22 -34 19 -30 -3 -38 -1 -38 12 0 9
-8 16 -20 16 -13 0 -20 7 -20 20 0 16 -7 20 -35 20 -24 0 -35 5 -35 15 0 8
-12 17 -27 21 -55 12 -63 16 -63 30 0 8 -7 14 -15 14 -8 0 -15 7 -15 15 0 10
-10 15 -29 15 -16 0 -36 6 -43 13 -7 6 -38 25 -68 41 -56 30 -72 44 -64 57 2
4 -5 5 -16 2 -11 -3 -26 -1 -33 5 -6 5 -102 56 -212 112 -110 56 -238 128
-285 161 -47 32 -90 58 -97 59 -6 0 -13 3 -15 8 -5 12 -141 74 -169 77 -9 0
-204 99 -209 106 -3 3 -22 9 -43 13 -24 4 -37 12 -34 19 3 8 -8 12 -31 13 -20
0 -40 8 -47 17 -7 9 -21 17 -32 17 -10 0 -28 8 -39 18 -11 9 -35 24 -54 33
-19 9 -60 28 -90 42 -76 37 -283 111 -352 127 -32 7 -58 17 -58 22 0 4 -20 8
-44 8 -54 0 -76 8 -76 26 0 10 -15 14 -55 14 -49 0 -55 2 -55 21 0 19 -5 20
-80 17 -59 -2 -80 0 -80 10 0 9 -53 12 -232 11 -128 -1 -258 -5 -288 -10z
m1285 -543 c-9 -7 -18 -24 -18 -39 -1 -15 -8 -29 -14 -32 -9 -3 -13 -26 -13
-65 0 -38 -4 -59 -10 -55 -6 3 -7 -1 -4 -9 4 -10 1 -16 -9 -16 -17 0 -20 -13
-34 -135 l-8 -70 -3 114 c-2 89 0 116 12 125 8 6 16 35 18 69 4 45 9 61 27 73
12 9 21 23 19 32 -1 10 9 32 22 51 l25 33 3 -32 c2 -21 -2 -36 -13 -44z m-945
-29 c0 -21 -7 -36 -20 -45 -16 -10 -20 -23 -20 -72 0 -46 -4 -61 -17 -69 -16
-8 -18 -31 -21 -200 -2 -105 -7 -191 -12 -191 -17 0 -21 64 -18 238 3 153 5
175 21 183 12 7 17 23 17 59 0 43 3 49 23 52 18 2 23 10 25 41 4 46 22 50 22
4z m-276 -68 c-3 -5 -12 -9 -20 -9 -9 0 -14 -11 -14 -36 0 -26 -4 -35 -13 -31
-8 3 -14 0 -15 -6 -1 -7 -5 -31 -8 -54 -5 -32 -11 -43 -24 -43 -26 0 -30 -26
-31 -210 -1 -98 -4 -153 -9 -135 -4 17 -8 100 -9 186 -1 143 1 158 19 179 11
13 20 34 20 47 0 23 33 66 43 56 3 -3 3 5 0 17 -4 16 2 28 21 45 14 12 26 29
27 36 0 8 4 3 10 -9 5 -13 7 -28 3 -33z m1516 -19 c7 -14 7 -20 0 -20 -5 0
-10 -11 -10 -25 0 -16 -6 -25 -15 -25 -11 0 -15 -12 -15 -45 0 -33 -4 -45 -15
-45 -12 0 -15 -13 -15 -61 0 -33 -4 -58 -9 -55 -5 4 -7 -3 -4 -14 4 -14 0 -20
-11 -20 -10 0 -14 -4 -11 -10 3 -5 1 -10 -4 -10 -7 0 -11 -32 -11 -86 0 -54
-4 -83 -10 -79 -6 4 -10 53 -10 115 0 83 4 112 15 124 8 8 15 26 15 39 0 49
13 86 31 92 14 5 19 15 17 35 -1 16 6 37 15 48 9 10 17 28 17 40 0 27 16 28
30 2z m289 -39 c11 -7 9 -10 -8 -16 -12 -3 -21 -15 -21 -26 0 -10 -7 -19 -15
-19 -10 0 -15 -10 -15 -30 0 -20 -5 -30 -15 -30 -12 0 -15 -13 -15 -61 0 -37
-4 -58 -10 -54 -6 4 -7 -1 -3 -11 4 -10 -1 -22 -12 -30 -15 -11 -18 -33 -23
-129 -2 -63 -9 -115 -13 -115 -16 0 -11 273 5 295 7 11 17 43 21 72 5 39 12
54 26 58 13 4 19 16 19 36 0 18 5 29 14 29 8 0 18 9 21 20 7 21 22 25 44 11z
m-3701 -150 c2 -29 -1 -51 -5 -48 -4 3 -5 -36 -1 -86 12 -172 10 -209 -9 -205
-13 2 -20 16 -24 48 -3 24 -11 46 -17 48 -16 5 -16 218 0 228 7 5 8 3 3 -6 -5
-8 -4 -11 3 -7 5 4 8 17 4 29 -4 16 -2 19 8 13 9 -5 11 -4 6 4 -11 17 1 44 17
39 7 -3 13 -26 15 -57z m-998 -311 c25 0 29 -9 31 -64 2 -31 7 -46 16 -46 8 0
13 -12 13 -30 0 -20 5 -30 16 -30 8 0 20 -13 25 -30 6 -16 18 -30 26 -30 10 0
13 -6 9 -16 -3 -8 -2 -13 3 -10 5 3 11 -1 15 -9 3 -8 13 -15 21 -15 9 0 13 -4
10 -10 -4 -6 1 -7 11 -3 13 5 16 2 12 -8 -4 -10 1 -15 15 -17 12 0 26 -7 32
-15 6 -8 24 -17 40 -21 36 -8 64 -53 38 -63 -8 -3 -18 -1 -22 4 -3 5 -19 13
-36 17 -16 4 -38 16 -48 27 -10 10 -25 19 -33 19 -8 0 -12 5 -9 10 3 6 0 10
-7 10 -19 0 -81 67 -73 79 3 7 0 8 -9 5 -11 -4 -19 2 -26 20 -5 14 -14 26 -20
26 -5 0 -10 7 -10 15 0 8 -9 24 -20 35 -15 15 -20 33 -20 79 0 43 -4 60 -15
65 -8 3 -14 16 -14 28 l2 23 4 -22 c3 -14 12 -23 23 -23z m5029 -7 c-3 -43 -1
-48 17 -45 10 2 23 8 29 13 18 17 25 9 25 -31 0 -22 -4 -40 -10 -40 -5 0 -12
-16 -16 -35 -6 -35 -28 -55 -58 -55 -9 0 -16 7 -16 15 0 8 8 15 19 15 20 0 31
25 31 71 0 22 -5 28 -29 31 -24 3 -27 1 -23 -16 3 -11 1 -17 -5 -13 -6 4 -8
-3 -5 -18 3 -18 0 -25 -12 -25 -9 0 -21 -12 -26 -26 -6 -14 -14 -22 -20 -19
-16 10 -11 41 10 60 11 10 20 31 20 47 0 17 4 27 10 23 6 -4 7 1 3 11 -5 13
-3 16 10 11 12 -4 14 -2 10 10 -4 10 -2 14 3 10 6 -4 9 6 6 24 -3 22 0 29 13
29 13 0 16 -9 14 -47z m-3341 -43 c2 -36 9 -57 27 -76 20 -22 25 -37 25 -80 0
-33 5 -58 15 -67 8 -8 17 -45 21 -81 5 -48 11 -66 21 -66 11 0 14 -11 12 -42
-3 -37 -1 -43 15 -40 14 3 17 -1 12 -13 -3 -9 -2 -13 3 -10 5 3 11 -5 13 -17
2 -15 11 -24 26 -26 12 -2 22 -10 22 -17 0 -8 11 -26 25 -41 24 -26 26 -26
113 -20 49 4 106 13 128 21 l39 13 0 56 c0 30 6 60 13 67 10 11 12 7 12 -19 0
-18 4 -32 10 -32 5 0 7 -7 4 -15 -4 -10 0 -15 10 -15 9 0 20 -10 25 -23 7 -19
21 -25 82 -35 41 -7 111 -16 157 -19 45 -3 85 -10 88 -15 9 -13 -150 -10 -165
5 -19 19 -339 17 -354 -3 -9 -11 -29 -14 -84 -12 -64 3 -73 1 -83 -18 -8 -15
-21 -20 -53 -20 l-42 0 33 16 c34 18 42 38 17 48 -8 3 -15 12 -15 21 0 8 -7
15 -15 15 -8 0 -15 9 -15 20 0 10 -7 25 -15 32 -39 33 -45 41 -45 64 0 14 -7
27 -16 31 -12 4 -15 18 -13 59 2 36 -2 58 -11 67 -12 10 -12 9 -5 -3 6 -9 2
-7 -7 3 -14 14 -18 37 -18 91 -1 46 -6 78 -15 90 -20 26 -20 157 -1 156 1 0 2
-22 4 -50z m2022 -284 c0 -74 -2 -87 -15 -82 -10 3 -15 -1 -15 -13 0 -22 -38
-65 -65 -75 -43 -16 14 -25 161 -26 128 -2 149 0 146 13 -2 10 8 18 28 22 32
7 80 45 80 62 0 5 11 16 25 23 18 9 23 19 19 32 -3 12 0 18 9 18 16 0 27 21
27 51 0 11 7 19 18 19 12 0 17 -8 17 -25 0 -14 -3 -25 -7 -25 -5 0 -8 -11 -8
-25 0 -14 -5 -25 -10 -25 -6 0 -21 -22 -33 -49 -14 -33 -29 -52 -44 -56 -34
-8 -31 -45 3 -45 16 0 23 -4 18 -12 -4 -7 -3 -8 4 -4 7 4 20 2 29 -4 14 -9 -2
-10 -67 -6 -47 3 -145 6 -218 6 -73 0 -131 4 -128 9 6 9 -122 21 -238 21 -107
0 -89 19 31 32 50 6 95 17 105 25 9 8 22 12 29 7 8 -5 10 -3 4 6 -6 10 -4 12
8 7 12 -4 14 -2 10 10 -4 10 -2 14 4 10 6 -4 8 3 5 18 -2 15 3 36 14 52 10 16
17 31 16 36 -1 4 3 7 8 7 6 0 10 24 10 53 0 37 3 48 10 37 5 -8 10 -55 10
-104z m-310 26 c0 -55 -4 -71 -20 -85 -11 -9 -20 -28 -20 -41 0 -15 -7 -26
-20 -29 -30 -8 -28 -64 3 -70 18 -4 17 -4 -6 -6 -18 -1 -26 -5 -21 -12 5 -8
-6 -10 -34 -7 -22 2 -38 0 -36 -4 3 -5 -4 -8 -16 -8 -18 0 -19 3 -10 20 6 11
15 20 20 20 6 0 10 8 10 19 0 10 9 21 20 24 13 3 20 14 20 31 0 15 8 30 20 36
12 6 20 21 20 36 0 13 7 27 15 30 8 4 15 15 15 26 0 10 4 17 8 14 5 -3 6 8 4
24 -5 36 4 64 18 55 5 -3 10 -36 10 -73z m-2309 -47 c16 -5 19 -16 19 -61 0
-31 4 -54 11 -54 5 0 7 -4 4 -10 -3 -5 1 -10 9 -10 10 0 16 -9 16 -25 0 -19 5
-25 21 -25 11 0 17 -4 14 -10 -3 -5 5 -21 19 -34 14 -13 26 -28 26 -34 0 -5
16 -19 35 -31 19 -11 35 -27 35 -35 0 -8 6 -17 13 -20 6 -3 -15 -4 -47 -2 -33
3 -62 9 -65 13 -3 4 -15 10 -26 11 -30 6 -32 12 -3 12 35 0 43 33 14 57 l-21
18 20 -25 20 -25 -22 19 c-12 10 -25 27 -28 37 -4 11 -13 19 -21 19 -8 0 -14
6 -14 14 0 8 -8 17 -17 20 -13 4 -19 18 -21 51 -1 26 -9 57 -18 70 -12 18 -14
35 -7 72 6 36 8 41 11 21 2 -16 11 -30 23 -33z m1664 -37 c-13 -8 -16 -27 -14
-111 1 -84 -1 -102 -13 -101 -10 1 -13 -6 -10 -24 5 -24 6 -24 70 -18 35 4 71
13 79 21 8 9 33 15 61 15 42 0 45 -1 27 -14 -11 -7 -42 -16 -69 -19 -28 -3
-55 -11 -60 -18 -9 -11 -34 -13 -109 -9 l-99 5 31 30 c17 17 31 36 31 43 0 7
7 20 15 28 11 11 15 38 15 94 0 65 3 81 19 92 10 7 22 24 27 38 8 24 9 24 12
-9 2 -24 -1 -37 -13 -43z m-1373 3 c-2 -14 5 -31 17 -42 12 -11 21 -28 21 -39
0 -10 9 -21 19 -25 11 -3 18 -12 15 -19 -6 -15 55 -82 100 -111 14 -10 41 -21
58 -24 53 -11 44 -28 -14 -27 -36 1 -59 7 -72 19 -11 9 -28 17 -39 17 -14 0
-18 5 -14 20 3 11 -2 25 -12 32 -14 11 -15 11 -6 -2 6 -9 2 -7 -8 4 -10 11
-16 27 -14 36 3 11 -2 16 -17 16 -17 -1 -22 6 -24 32 -2 18 -10 36 -18 39 -19
7 -20 107 -1 100 6 -2 11 -14 9 -26z m-2573 -395 c-2 -2 -54 -6 -116 -8 -61
-1 -109 -6 -106 -10 6 -12 -521 -10 -532 1 -6 5 -26 11 -45 14 -19 2 154 5
384 5 231 1 417 0 415 -2z m1615 -154 c10 -17 -8 -54 -31 -63 -13 -5 -22 -13
-18 -18 3 -5 -4 -12 -15 -16 -18 -6 -24 -17 -21 -37 0 -5 -8 -8 -20 -8 -15 0
-19 -5 -15 -15 3 -8 1 -15 -4 -15 -5 0 -7 -7 -3 -16 4 -10 -1 -17 -16 -21 -15
-4 -21 -13 -21 -34 0 -22 -5 -29 -20 -29 -17 0 -20 -7 -20 -42 0 -45 -12 -74
-26 -65 -5 3 -7 -18 -5 -45 2 -28 -1 -48 -6 -45 -5 3 -7 -9 -5 -27 2 -21 -2
-37 -12 -45 -10 -9 -16 -30 -16 -58 0 -24 -3 -42 -7 -40 -5 3 -6 -21 -5 -54 4
-55 2 -59 -18 -59 -12 0 -19 -4 -16 -9 3 -5 -1 -11 -9 -15 -20 -7 -20 24 0 50
10 14 14 48 15 127 0 85 3 107 14 107 19 0 26 22 26 83 0 42 4 55 21 65 15 10
20 21 16 38 -2 13 0 24 4 24 5 0 9 5 9 11 0 6 7 17 15 25 8 9 15 29 15 45 0
22 5 29 20 29 15 0 20 7 20 24 0 14 9 31 21 40 12 8 18 19 14 25 -6 11 34 32
47 25 3 -2 4 6 0 18 -4 17 -2 20 15 16 16 -4 19 -2 16 13 -4 14 0 19 15 19 12
0 23 -4 26 -8z m4644 -96 c2 -27 9 -40 22 -43 12 -3 16 -11 13 -25 -3 -10 -1
-29 5 -41 6 -12 13 -41 15 -64 2 -24 7 -46 12 -50 4 -5 5 -2 0 6 -5 9 -4 12 3
7 8 -5 12 -40 12 -98 0 -77 -2 -89 -16 -84 -8 3 -12 2 -9 -4 3 -6 -1 -13 -9
-16 -9 -3 -16 -17 -16 -30 0 -13 -5 -24 -11 -24 -7 0 -9 11 -6 30 4 16 4 96 0
176 -5 127 -9 147 -23 151 -12 3 -16 11 -13 24 3 10 2 27 -2 36 -5 10 -7 25
-6 34 1 9 -8 20 -21 24 -22 8 -22 8 5 12 16 3 25 9 21 15 -4 6 -1 9 7 6 8 -3
15 -21 17 -42z m-4963 -88 c0 -33 -15 -58 -34 -58 -6 0 -11 -7 -11 -16 0 -8
-7 -22 -15 -30 -8 -9 -15 -26 -15 -38 0 -12 -9 -32 -21 -45 -15 -16 -20 -31
-17 -53 4 -21 0 -32 -11 -36 -27 -10 -31 -24 -32 -117 -1 -49 -5 -103 -9 -120
-8 -32 -13 -18 -10 27 1 15 -2 33 -5 39 -9 14 -9 129 0 152 4 9 4 24 1 33 -4
11 1 18 14 21 15 4 20 14 20 37 0 19 8 38 20 49 11 9 20 28 20 42 0 14 6 28
14 31 8 3 17 16 20 30 4 13 12 24 19 24 7 0 18 14 24 30 15 39 28 38 28 -2z
m5944 -5 c8 -15 12 -16 22 -5 18 17 49 15 49 -3 0 -8 9 -15 20 -15 11 0 20 -6
20 -14 0 -7 9 -16 20 -19 18 -5 27 -40 21 -79 0 -4 7 -4 16 -1 13 5 15 2 11
-15 -4 -12 -3 -20 2 -17 4 2 10 -19 12 -47 3 -29 9 -53 14 -55 9 -3 10 -120 1
-129 -3 -3 -8 4 -12 15 -3 12 -12 21 -19 21 -9 0 -15 28 -20 97 -5 67 -11 100
-20 105 -8 5 -17 26 -21 48 -4 22 -15 46 -25 53 -9 6 -18 17 -18 22 -1 6 -20
13 -42 16 -43 6 -92 39 -58 39 10 0 21 -8 27 -17z m-2379 -38 c0 -8 9 -24 21
-36 14 -14 20 -30 17 -49 -2 -16 -2 -29 1 -28 3 0 15 -3 26 -7 17 -5 20 -13
17 -40 -3 -26 0 -34 16 -39 14 -5 21 -18 25 -53 3 -28 11 -50 21 -55 12 -7 16
-24 16 -71 0 -66 -12 -102 -24 -72 -3 9 -6 39 -6 66 0 42 -3 49 -20 49 -17 0
-20 7 -20 50 0 36 -4 50 -14 50 -9 0 -16 17 -20 49 -5 37 -12 51 -26 56 -11 3
-17 12 -14 20 3 7 1 16 -5 20 -6 3 -11 15 -11 27 0 14 -5 18 -15 14 -11 -4
-15 2 -15 23 0 15 3 31 7 34 11 12 23 8 23 -8z m546 -21 c3 -12 3 -27 0 -32
-3 -5 2 -16 12 -23 16 -13 16 -13 2 6 -14 19 -14 19 3 6 12 -9 17 -23 14 -38
-2 -12 0 -20 4 -17 5 3 9 -6 9 -20 0 -15 6 -26 17 -28 14 -2 17 -13 14 -56 -2
-46 0 -52 17 -52 25 0 32 -18 32 -81 0 -63 -25 -69 -33 -7 -3 23 -12 47 -21
53 -8 6 -18 28 -21 48 -4 21 -15 45 -23 54 -10 9 -15 28 -13 46 2 20 -5 37
-23 56 -16 16 -26 40 -27 62 -2 26 -7 35 -16 32 -7 -3 -13 -1 -13 4 0 31 58
20 66 -13z m668 11 c4 -14 11 -25 17 -25 6 0 7 -4 4 -10 -3 -5 -1 -10 5 -10 6
0 9 -4 6 -9 -3 -4 3 -16 14 -26 11 -10 17 -22 14 -26 -3 -5 -1 -9 4 -9 6 0 8
-8 6 -18 -3 -9 3 -26 14 -37 24 -27 33 -62 25 -108 -8 -53 -28 -41 -29 19 -1
34 -5 48 -14 46 -16 -4 -30 16 -30 44 0 12 -6 24 -14 27 -7 3 -16 17 -20 31
-4 15 -15 35 -26 46 -11 11 -20 29 -20 39 0 11 -5 23 -11 27 -8 4 -7 9 2 15
25 16 47 9 53 -16z m1106 -25 c0 -5 11 -12 24 -16 16 -4 23 -11 19 -20 -3 -8
0 -14 6 -14 6 0 8 -6 5 -14 -3 -9 3 -17 15 -21 12 -3 21 -15 21 -25 0 -29 11
-50 26 -50 9 0 14 -12 14 -34 0 -18 7 -39 15 -46 17 -14 22 -155 6 -164 -5 -4
-7 3 -4 14 3 11 1 20 -4 20 -5 0 -7 15 -5 33 3 28 -1 37 -23 51 -23 15 -26 23
-24 62 2 28 -2 48 -11 56 -12 11 -12 10 -5 -2 6 -9 2 -7 -8 4 -11 12 -17 30
-14 43 2 12 1 21 -3 18 -3 -2 -13 6 -21 17 -8 12 -22 30 -31 40 -19 19 -24 58
-8 58 6 0 10 -4 10 -10z m-59 -37 c1 -10 1 -21 0 -25 0 -4 7 -4 16 -1 13 5 15
2 11 -15 -4 -12 -2 -20 3 -16 5 3 9 -9 9 -26 0 -17 6 -33 13 -35 8 -4 13 -33
15 -83 2 -44 9 -80 15 -84 7 -4 8 -8 4 -8 -5 0 -5 -6 -1 -12 15 -23 11 -49 -9
-63 -10 -7 -16 -18 -12 -24 3 -6 2 -11 -3 -11 -15 0 -22 39 -22 126 0 66 -4
86 -20 107 -12 15 -20 40 -20 64 0 27 -8 47 -29 71 -16 17 -34 32 -40 32 -6 0
-11 5 -11 10 0 6 18 10 40 10 31 0 40 -4 41 -17z m-6831 -479 c0 -17 -6 -28
-20 -31 -16 -4 -20 -14 -20 -52 0 -61 -9 -91 -27 -91 -12 0 -14 -19 -11 -105
2 -58 -1 -105 -6 -105 -4 0 -6 -20 -4 -45 2 -31 -1 -45 -9 -45 -10 0 -13 42
-13 181 0 168 1 181 18 177 15 -4 17 1 13 35 -2 24 0 37 6 34 6 -4 8 4 5 18
-3 18 0 25 12 25 9 0 16 7 16 15 0 8 9 15 20 15 15 0 20 -7 20 -26z m420 -31
c0 -44 -11 -73 -27 -73 -12 0 -14 -10 -11 -40 3 -34 1 -40 -15 -40 -16 0 -18
-6 -15 -35 2 -19 0 -35 -4 -35 -4 0 -8 -13 -8 -29 0 -16 -6 -31 -15 -35 -12
-4 -15 -25 -15 -101 0 -83 -2 -96 -16 -93 -13 2 -16 21 -18 113 -1 101 1 112
22 135 15 18 22 37 22 67 0 30 4 43 14 43 14 0 30 55 20 71 -3 5 5 9 16 9 16
0 20 5 16 15 -3 8 -1 15 4 15 6 0 10 9 10 20 0 11 5 20 10 20 6 0 10 -12 10
-27z m133 -162 c18 -7 18 -8 1 -21 -16 -13 -17 -13 -9 0 4 8 5 12 0 8 -5 -5
-7 -40 -6 -79 2 -44 -1 -69 -7 -65 -6 3 -8 -2 -5 -13 3 -10 -1 -22 -8 -26 -8
-6 -10 -4 -4 6 5 8 5 12 2 8 -4 -3 -8 -71 -10 -151 -3 -80 -8 -151 -11 -157
-19 -31 -26 15 -26 178 0 158 2 180 18 192 16 13 16 13 2 -6 -14 -18 -14 -19
1 -7 10 7 15 21 12 32 -8 30 7 110 20 109 7 0 20 -4 30 -8z m3881 -154 c12
-12 20 -30 18 -40 -2 -9 0 -17 5 -17 4 0 6 -21 4 -46 -2 -25 2 -56 8 -68 15
-30 19 -196 5 -196 -6 0 -14 -23 -16 -51 -4 -34 -11 -55 -22 -61 -9 -5 -16
-15 -16 -22 0 -8 -11 -17 -25 -20 -14 -4 -23 -11 -20 -16 3 -6 1 -10 -4 -10
-16 0 -13 20 4 26 9 4 15 19 15 36 0 18 7 36 18 44 15 11 17 34 17 222 0 194
-1 208 -17 204 -18 -4 -25 17 -11 31 10 11 14 9 37 -16z"/>
</g>
</svg>
