<?xml version="1.0" standalone="no"?>
<!DOCTYPE svg PUBLIC "-//W3C//DTD SVG 20010904//EN"
 "http://www.w3.org/TR/2001/REC-SVG-20010904/DTD/svg10.dtd">
<svg version="1.0" xmlns="http://www.w3.org/2000/svg"
 width="1150.000000pt" height="716.000000pt" viewBox="0 0 1150.000000 716.000000"
 preserveAspectRatio="xMidYMid meet">
<metadata>
Created by potrace 1.16, written by Peter Selinger 2001-2019
</metadata>
<g transform="translate(0.000000,716.000000) scale(0.100000,-0.100000)"
fill="#000000" stroke="none">
<path d="M4895 6250 c-3 -5 -19 -7 -35 -3 -19 3 -30 1 -30 -5 0 -6 -7 -9 -15
-6 -9 4 -15 0 -15 -10 0 -9 -3 -16 -7 -15 -15 2 -53 -13 -53 -21 0 -5 -25 -12
-55 -15 -45 -6 -55 -11 -55 -26 0 -11 -7 -22 -15 -25 -8 -4 -15 -14 -16 -23 0
-10 -2 -11 -6 -3 -2 6 -10 12 -18 12 -17 0 -28 -72 -12 -82 8 -5 4 -8 -10 -8
-20 0 -21 -4 -17 -57 3 -32 6 -68 8 -80 2 -12 0 -20 -5 -18 -12 8 -18 -7 -20
-53 -2 -23 -8 -43 -15 -46 -8 -3 -11 -19 -9 -40 2 -30 0 -36 -17 -36 -18 0
-20 -5 -16 -45 2 -31 -1 -45 -9 -45 -9 0 -13 -16 -13 -45 0 -26 -5 -45 -11
-45 -7 0 -10 -14 -7 -36 3 -29 1 -38 -14 -42 -14 -3 -18 -14 -18 -49 0 -24 5
-53 10 -64 9 -16 7 -19 -10 -19 -17 0 -20 -6 -20 -50 0 -39 -4 -52 -17 -57
-23 -9 -33 -23 -33 -50 0 -14 -6 -23 -15 -23 -14 0 -20 -22 -17 -62 1 -11 -5
-18 -14 -18 -12 0 -15 -7 -12 -25 4 -18 1 -25 -10 -25 -9 0 -13 -7 -9 -20 4
-16 0 -20 -19 -20 -16 0 -24 -6 -24 -18 0 -26 -20 -42 -53 -42 -24 0 -28 -4
-25 -22 3 -20 -1 -23 -27 -21 -61 4 -135 -8 -135 -22 0 -7 5 -15 12 -17 6 -2
-6 -4 -27 -4 -21 0 -40 -5 -43 -12 -2 -7 -8 -10 -13 -6 -5 3 -12 -2 -15 -10
-3 -9 -17 -16 -31 -16 -13 0 -31 -7 -39 -15 -9 -8 -29 -15 -45 -15 -22 0 -29
-5 -29 -19 0 -10 -6 -18 -12 -18 -31 3 -88 -16 -88 -29 0 -8 -10 -14 -24 -14
-13 0 -26 -7 -30 -15 -3 -8 -14 -15 -25 -15 -10 0 -21 -6 -24 -14 -3 -7 -19
-16 -36 -19 -22 -5 -31 -12 -31 -27 0 -16 -7 -20 -30 -20 -20 0 -30 -5 -30
-15 0 -10 -11 -15 -35 -15 -22 0 -43 -8 -55 -20 -11 -11 -29 -20 -40 -20 -14
0 -20 -6 -18 -17 2 -12 -4 -19 -19 -21 -13 -2 -23 -7 -23 -12 0 -10 -60 -34
-77 -31 -7 1 -13 -5 -13 -14 0 -9 -4 -13 -10 -10 -5 3 -12 -5 -16 -19 -3 -13
-12 -27 -21 -30 -8 -3 -12 -10 -9 -15 3 -5 -3 -7 -14 -4 -11 3 -20 1 -20 -4 0
-5 -14 -17 -31 -27 -18 -11 -28 -23 -25 -32 3 -8 -1 -14 -9 -14 -8 0 -15 -6
-15 -14 0 -7 -13 -16 -30 -19 -18 -4 -30 -13 -30 -22 0 -8 -5 -15 -11 -15 -15
0 -49 -39 -49 -57 0 -7 -6 -13 -14 -13 -7 0 -16 -8 -19 -18 -2 -12 -17 -22
-36 -25 -18 -4 -30 -11 -26 -17 3 -5 2 -10 -4 -10 -5 0 -18 -13 -28 -30 -9
-16 -22 -30 -28 -30 -12 0 -55 -73 -55 -94 0 -9 -4 -16 -10 -16 -5 0 -10 -7
-10 -15 0 -8 -9 -15 -20 -15 -11 0 -20 -4 -20 -9 0 -5 -9 -12 -20 -16 -12 -4
-22 -19 -26 -41 -4 -23 -12 -34 -24 -34 -26 0 -59 -34 -66 -69 -4 -17 -10 -31
-15 -31 -5 0 -17 -18 -27 -40 -12 -29 -22 -40 -33 -37 -12 3 -15 -1 -12 -14 4
-13 0 -19 -11 -19 -9 0 -16 -7 -16 -15 0 -8 -7 -15 -15 -15 -8 0 -15 -7 -15
-15 0 -9 -9 -15 -25 -15 -18 0 -28 -7 -35 -25 -5 -13 -18 -30 -30 -37 -11 -7
-20 -20 -20 -30 0 -12 -8 -16 -27 -15 -19 1 -28 -3 -28 -13 0 -8 -10 -21 -22
-28 -13 -7 -23 -17 -23 -22 0 -6 -7 -10 -15 -10 -9 0 -12 -6 -9 -15 4 -10 0
-15 -15 -15 -23 0 -61 -28 -61 -45 0 -13 -46 -55 -60 -55 -6 0 -10 -7 -10 -16
0 -8 -6 -22 -12 -29 -30 -33 -38 -45 -38 -53 0 -6 -18 -17 -41 -26 -33 -13
-39 -20 -34 -36 4 -13 1 -22 -9 -26 -9 -3 -13 -10 -10 -15 3 -5 0 -9 -6 -9 -7
0 -10 -6 -8 -12 3 -7 1 -17 -4 -23 -5 -5 -18 -21 -29 -35 -13 -16 -18 -32 -14
-47 4 -16 1 -23 -10 -23 -10 0 -15 -10 -15 -30 0 -21 -5 -30 -16 -30 -10 0
-14 -6 -11 -14 3 -8 -1 -17 -9 -20 -8 -3 -14 -18 -14 -35 0 -16 -6 -31 -15
-35 -8 -3 -15 -16 -15 -30 0 -14 -5 -28 -10 -31 -6 -3 -10 -22 -10 -40 0 -26
-3 -33 -15 -29 -8 4 -15 1 -15 -6 0 -7 -9 -20 -20 -30 -29 -25 -25 -121 7
-135 22 -9 33 -42 33 -99 0 -46 11 -76 26 -76 8 0 14 -7 14 -15 0 -9 6 -12 15
-9 10 4 15 0 15 -10 0 -9 7 -19 15 -22 8 -4 15 -12 15 -20 0 -8 6 -14 14 -14
8 0 16 -7 20 -15 3 -8 10 -15 16 -15 6 0 25 -14 43 -30 21 -20 40 -29 54 -27
13 2 24 -2 27 -10 4 -9 1 -11 -6 -7 -7 4 -8 3 -4 -4 4 -6 14 -8 23 -5 10 4 14
2 10 -4 -5 -7 5 -14 25 -18 17 -4 38 -14 46 -22 10 -10 28 -12 63 -8 42 5 48
3 42 -11 -5 -15 1 -16 60 -10 57 7 67 5 67 -8 0 -12 10 -16 39 -16 25 0 41 -5
45 -15 7 -20 125 -22 127 -2 1 6 4 1 8 -13 6 -22 12 -24 64 -24 31 0 57 -4 57
-8 0 -4 25 -8 55 -8 44 0 55 -3 55 -16 0 -13 9 -15 45 -12 38 3 45 0 45 -15 0
-16 7 -18 45 -15 31 2 46 -1 50 -10 4 -10 22 -13 70 -9 36 2 65 0 65 -4 0 -5
16 -9 36 -9 25 0 43 -7 55 -21 15 -17 26 -20 54 -16 24 4 40 1 50 -10 11 -10
30 -14 65 -11 35 2 50 -1 50 -9 0 -8 13 -13 30 -13 18 0 33 -6 36 -15 5 -11
21 -14 73 -12 36 1 69 7 73 12 4 6 8 -1 8 -14 0 -23 2 -23 58 -18 178 19 243
20 255 5 11 -14 36 -14 232 2 121 10 222 18 224 19 2 1 1 8 -3 16 -4 12 3 15
34 15 22 0 40 -4 40 -10 0 -15 19 -12 37 6 11 11 30 15 63 12 43 -3 46 -1 42
19 -3 18 0 22 19 21 73 -4 107 2 112 22 4 15 14 20 36 20 20 0 31 5 31 15 0
10 15 15 58 17 51 3 57 5 56 25 0 15 7 23 23 26 13 2 23 0 23 -6 0 -6 23 -7
63 -3 34 3 93 9 132 12 38 3 73 11 77 17 5 7 8 0 8 -17 l0 -28 65 4 c47 3 66
0 69 -9 3 -7 20 -13 37 -13 18 0 37 -7 43 -15 9 -12 20 -14 57 -7 39 8 46 7
45 -7 -1 -13 8 -16 43 -14 31 1 48 -3 56 -14 8 -11 23 -14 48 -11 24 3 37 0
37 -8 0 -16 41 -26 55 -14 16 14 26 1 15 -19 -7 -15 -4 -16 27 -13 26 3 34 1
28 -8 -5 -9 20 -11 105 -9 81 2 114 -1 119 -10 6 -10 34 -11 117 -5 88 6 112
11 125 25 12 14 30 19 72 19 65 0 87 7 87 26 0 8 7 14 15 14 9 0 15 10 16 23
0 12 3 16 6 10 2 -7 12 -13 20 -13 12 0 14 9 11 39 -2 30 0 37 11 33 11 -4 13
2 8 34 -4 21 -7 52 -7 68 0 21 -4 27 -15 22 -11 -4 -15 2 -15 25 0 18 -6 32
-17 36 -29 11 -53 42 -53 68 0 19 -5 25 -21 25 -12 0 -17 4 -14 11 12 19 -5
78 -24 84 -10 3 -21 18 -24 33 -4 20 -12 28 -29 29 -12 1 -24 7 -26 13 -2 5
-16 10 -32 10 -23 0 -27 3 -23 20 4 16 0 20 -20 20 -14 0 -28 7 -31 16 -4 9
-9 14 -13 11 -9 -10 -31 24 -26 42 3 11 18 17 46 19 23 1 47 9 53 17 6 8 14
12 17 8 4 -3 7 -1 7 5 0 7 14 12 30 12 24 0 30 4 30 23 0 13 3 17 8 10 13 -20
76 -1 80 24 2 14 8 20 18 16 8 -3 14 1 14 8 0 9 13 15 33 16 19 2 37 10 46 23
7 11 24 20 37 20 17 0 25 7 30 25 4 16 13 25 26 25 14 0 18 5 14 15 -4 11 2
15 23 15 16 0 31 7 35 15 3 8 13 15 21 15 16 0 45 23 45 35 0 3 11 17 25 31
14 14 25 29 25 34 0 6 7 10 15 10 8 0 15 6 15 13 0 7 17 13 44 15 24 1 53 4
64 7 13 2 19 -1 16 -8 -4 -12 63 -47 90 -47 7 0 16 -13 19 -29 4 -20 16 -33
37 -42 16 -8 30 -20 30 -26 0 -7 7 -13 15 -13 8 0 15 -4 15 -10 0 -14 50 -61
60 -55 4 2 10 -5 13 -16 3 -12 10 -18 16 -14 6 3 11 1 11 -6 0 -22 45 -59 73
-59 15 0 27 -4 27 -10 0 -5 20 -10 45 -10 32 0 45 -4 45 -14 0 -10 11 -13 43
-10 165 14 177 16 177 30 0 8 10 14 25 14 14 0 28 7 31 15 4 8 12 15 20 15 8
0 14 9 14 21 0 11 5 17 10 14 6 -4 13 7 16 24 4 17 13 31 20 31 10 0 13 20 11
85 -1 48 -6 85 -12 85 -5 0 -2 7 8 14 16 12 17 25 11 110 -6 78 -10 96 -23 96
-13 0 -13 2 -2 9 15 10 16 28 9 151 -3 47 -3 64 -1 38 3 -37 8 -48 21 -48 19
0 19 -10 -3 298 l-8 102 24 1 c13 0 54 3 91 7 59 7 67 6 71 -9 4 -14 13 -17
38 -14 19 2 28 1 22 -2 -7 -2 -13 -9 -13 -15 0 -7 17 -9 44 -6 39 5 43 3 39
-13 -4 -14 0 -19 16 -19 11 0 21 -4 21 -10 0 -17 18 -11 23 8 4 16 5 16 6 0 0
-10 7 -18 15 -18 8 0 18 -9 21 -21 5 -16 13 -20 31 -16 15 3 24 0 24 -8 0 -7
11 -16 25 -19 14 -4 39 -22 57 -41 35 -39 45 -43 51 -17 4 13 5 11 6 -5 0 -13
7 -23 14 -23 7 0 23 -9 35 -20 12 -11 35 -23 52 -26 16 -4 27 -10 25 -15 -3
-4 9 -16 26 -25 26 -13 33 -14 40 -2 7 10 9 9 9 -4 0 -17 30 -24 83 -20 11 1
15 -2 11 -9 -4 -7 4 -10 22 -9 41 3 71 -1 57 -7 -7 -2 -13 -9 -13 -15 0 -6 24
-8 60 -6 33 1 60 0 60 -4 0 -5 10 -8 21 -8 18 0 19 2 9 15 -11 13 -8 15 14 15
20 0 26 -5 26 -21 0 -19 4 -20 65 -14 56 6 65 5 65 -9 0 -12 9 -16 35 -16 24
0 35 -5 35 -15 0 -12 14 -15 63 -15 35 0 67 3 71 7 15 15 38 11 43 -8 6 -22
12 -23 176 -9 130 11 144 15 126 36 -9 12 -5 14 24 14 27 0 37 5 42 20 3 11
11 20 16 20 5 0 9 7 9 15 0 8 4 15 8 15 8 0 14 44 15 105 1 58 -14 148 -28
161 -8 9 -15 22 -15 30 0 8 -9 14 -20 14 -11 0 -20 7 -20 15 0 8 -7 15 -15 15
-8 0 -15 7 -15 16 0 11 -5 14 -16 10 -14 -6 -15 -4 -4 10 12 13 11 17 0 24 -8
5 -18 6 -22 4 -14 -9 -58 48 -58 74 0 24 -41 72 -61 72 -5 0 -9 5 -9 10 0 6
-10 11 -22 11 -17 1 -19 2 -5 6 18 5 24 33 7 33 -5 0 -10 18 -10 40 0 22 -3
40 -8 40 -10 0 -79 63 -72 66 3 1 -7 12 -22 24 -15 12 -32 18 -38 15 -6 -3
-10 4 -10 18 0 14 -7 27 -15 31 -8 3 -15 12 -15 21 0 8 -8 15 -17 16 -11 0
-13 3 -5 6 6 2 12 11 12 19 0 17 -46 19 -53 2 -3 -7 -3 2 0 20 5 28 3 32 -16
32 -11 0 -21 5 -21 11 0 15 -79 89 -96 89 -8 0 -14 9 -14 20 0 12 -7 20 -16
20 -12 0 -15 10 -13 53 1 29 -1 59 -5 65 -4 7 -1 12 10 12 13 0 15 6 11 29 -5
23 -2 30 13 34 12 3 20 14 20 26 0 12 7 24 15 27 8 4 15 18 15 33 0 16 12 41
30 61 31 35 39 65 18 73 -7 3 -3 6 10 6 12 1 22 7 22 15 0 7 7 19 15 26 8 7
15 25 15 40 0 27 26 90 42 101 5 3 8 30 6 60 -2 37 1 57 11 65 14 11 18 95 6
134 -4 14 -3 20 3 16 14 -8 20 30 15 89 -2 28 -5 79 -7 115 -5 137 -16 183
-52 218 -35 34 -49 39 -57 20 -4 -10 -6 -10 -6 0 -3 40 -95 77 -127 51 -7 -6
-18 -8 -23 -4 -6 3 -33 3 -60 -1 -35 -4 -51 -11 -54 -24 -4 -17 -51 -30 -109
-30 -19 0 -28 -5 -28 -16 0 -13 -7 -15 -30 -10 -17 3 -30 1 -30 -4 0 -6 -13
-10 -30 -10 -22 0 -30 -5 -30 -17 0 -15 -2 -16 -10 -3 -7 11 -12 12 -18 3 -4
-6 -24 -14 -44 -18 -21 -4 -42 -13 -49 -21 -6 -8 -20 -14 -30 -14 -10 0 -20
-9 -24 -20 -3 -11 -9 -19 -13 -19 -24 4 -41 -3 -47 -20 -4 -13 -12 -17 -30
-13 -20 3 -25 0 -25 -17 0 -12 -8 -24 -17 -28 -22 -8 -59 -45 -56 -55 2 -5 -6
-8 -17 -8 -23 0 -25 -10 -7 -30 10 -12 9 -12 -5 -1 -19 14 -38 7 -38 -15 0 -8
-4 -14 -10 -14 -5 0 -10 -8 -10 -19 0 -11 -9 -21 -22 -24 -18 -5 -19 -8 -8
-21 10 -13 10 -16 -4 -16 -9 0 -16 -7 -16 -15 0 -9 -7 -18 -15 -21 -8 -4 -15
-12 -15 -20 0 -8 -7 -14 -15 -14 -8 0 -15 -7 -15 -16 0 -8 -4 -13 -10 -9 -5 3
-34 -19 -65 -50 -31 -30 -60 -55 -65 -55 -6 0 -10 -8 -10 -19 0 -14 -6 -17
-25 -13 -18 3 -25 0 -25 -12 0 -9 6 -17 13 -17 6 -1 -1 -4 -18 -8 -21 -5 -29
-12 -27 -24 2 -13 -4 -17 -27 -17 -18 0 -34 -7 -40 -17 -6 -11 -22 -17 -49
-17 -27 -1 -38 -5 -35 -13 3 -7 11 -13 19 -13 8 0 14 -4 14 -8 0 -5 -8 -9 -17
-9 -83 1 -113 -4 -113 -18 0 -10 -10 -15 -34 -15 -32 0 -33 1 -39 49 -3 27
-10 58 -16 68 -5 10 -13 40 -16 66 -5 39 -11 50 -31 57 -13 5 -24 17 -24 26 0
10 -3 15 -6 12 -8 -9 -44 29 -44 47 0 9 -9 15 -21 15 -18 0 -20 4 -14 30 8 35
-8 62 -31 53 -9 -3 -14 1 -14 11 0 9 -6 19 -14 22 -8 3 -16 19 -20 35 -3 17
-10 28 -16 24 -5 -3 -10 -1 -10 4 0 15 -27 14 -33 -1 -3 -8 -6 -5 -6 6 -1 12
-6 16 -17 12 -11 -4 -14 -1 -10 12 4 10 -4 28 -18 45 -25 29 -41 34 -49 15 -3
-8 -6 -6 -6 5 -1 10 -9 17 -21 17 -11 0 -20 4 -20 10 0 19 -53 62 -71 57 -12
-3 -19 0 -19 9 0 8 -6 14 -14 14 -8 0 -17 7 -20 16 -3 9 -12 14 -20 11 -8 -3
-16 2 -19 14 -4 15 -11 18 -36 13 -26 -6 -30 -4 -25 10 5 13 -1 16 -35 16 -34
0 -41 3 -41 20 0 16 -5 19 -24 14 -16 -4 -25 -1 -29 10 -4 11 -19 16 -44 16
-21 0 -49 9 -62 19 -13 10 -32 16 -42 14 -11 -3 -19 0 -19 6 0 20 -37 11 -49
-11 l-11 -23 6 23 c8 32 -19 55 -55 47 -27 -6 -29 -4 -24 16 6 21 4 22 -40 17
-26 -3 -47 -2 -47 3 0 5 -3 8 -7 8 -5 -1 -20 -1 -35 0 -21 1 -25 5 -21 22 5
19 2 20 -41 18 -26 -2 -51 2 -58 9 -7 7 -16 12 -21 12 -18 0 -53 36 -49 49 3
10 -4 12 -29 9 -19 -3 -42 -8 -51 -13 -14 -5 -18 -2 -18 14 0 17 -6 21 -30 21
-20 0 -30 5 -30 15 0 8 -7 15 -15 15 -9 0 -18 7 -21 15 -4 8 -13 15 -22 15 -8
0 -23 7 -32 15 -8 8 -35 16 -58 17 -31 2 -42 7 -42 19 0 10 -11 20 -25 23 -17
4 -25 13 -25 27 0 17 -5 20 -25 17 -17 -4 -25 -1 -25 8 0 11 -13 12 -60 7 -61
-6 -68 -2 -61 40 1 6 -39 12 -61 8 -8 -1 -12 15 -9 32 0 4 -6 7 -15 7 -8 0
-22 7 -30 15 -17 17 -73 20 -122 6 -21 -7 -32 -6 -32 1 0 5 -6 8 -14 5 -11 -4
-16 3 -18 26 -2 18 -7 31 -11 29 -4 -1 -14 4 -23 12 -11 11 -34 15 -84 13 -39
-1 -70 1 -70 6 0 4 -9 7 -20 7 -11 0 -20 5 -20 10 0 13 -17 13 -25 0z m3482
-1004 c-12 -13 -32 -26 -44 -30 -13 -4 -23 -12 -23 -17 0 -5 -7 -9 -15 -9 -9
0 -18 -7 -21 -15 -4 -8 -11 -15 -18 -15 -16 0 -78 -69 -71 -81 4 -5 -1 -9 -9
-9 -8 0 -23 -11 -34 -25 -11 -14 -25 -25 -31 -25 -6 0 -11 -6 -11 -14 0 -13
-90 -110 -90 -97 0 3 -10 -9 -21 -26 -12 -18 -28 -33 -36 -33 -8 0 -11 5 -8
10 4 6 11 8 16 5 5 -4 9 1 9 9 0 23 -30 8 -41 -20 -4 -13 -15 -24 -24 -24 -8
0 -15 -8 -15 -17 0 -11 3 -14 8 -7 5 8 42 17 42 10 0 -1 -13 -13 -29 -28 -21
-20 -28 -23 -27 -11 0 9 -5 18 -11 20 -7 3 -13 -2 -13 -11 0 -9 -7 -16 -15
-16 -8 0 -15 -6 -15 -14 0 -14 -56 -33 -67 -23 -9 10 18 47 35 47 9 0 30 16
46 35 16 19 38 35 48 35 11 0 18 7 18 20 0 11 7 20 15 20 8 0 15 7 15 15 0 8
4 15 10 15 9 0 130 116 130 126 0 2 14 18 30 34 17 16 30 34 30 40 0 6 10 8
23 5 16 -4 31 1 50 19 16 14 30 26 32 26 2 0 21 16 42 35 21 19 46 35 55 35
11 0 15 5 12 15 -5 11 1 15 19 15 l26 0 -22 -24z m-4884 -1544 c-2 -6 2 -12 7
-12 23 0 48 -37 53 -78 7 -53 -19 -88 -56 -76 -12 5 -24 8 -27 9 -3 0 -15 9
-27 20 -28 23 -34 101 -8 91 10 -3 14 1 13 12 -3 43 2 53 25 50 12 -2 21 -9
20 -16z m-155 -440 c2 -12 8 -20 13 -17 5 4 9 -3 9 -14 0 -12 7 -21 15 -21 23
0 31 -67 10 -90 -11 -12 -16 -29 -13 -44 3 -14 1 -23 -3 -20 -5 3 -9 11 -9 17
-1 12 -64 57 -80 57 -4 0 -10 7 -14 15 -4 11 -13 14 -33 9 -28 -7 -28 -7 -9
15 11 11 15 22 10 22 -5 1 7 4 26 8 30 5 35 10 38 36 2 17 5 36 7 43 7 20 30
9 33 -16z m-966 -507 c77 -37 111 -84 116 -157 11 -150 -80 -258 -217 -258
-134 0 -219 82 -229 221 -7 103 21 149 123 204 62 33 126 30 207 -10z m166
-51 c2 -16 9 -32 16 -36 7 -4 13 -31 14 -65 2 -32 5 -77 8 -99 4 -26 2 -44 -5
-48 -6 -4 -11 -18 -11 -32 0 -14 -13 -37 -30 -54 -16 -16 -30 -32 -30 -35 0
-5 -21 -26 -57 -58 -21 -19 -131 -49 -145 -41 -5 3 -8 14 -8 26 0 16 -4 19
-24 14 -14 -3 -28 -2 -31 4 -4 6 13 10 43 10 32 0 65 8 98 25 27 14 55 25 62
25 7 0 18 11 24 25 6 14 17 25 25 25 7 0 13 11 13 24 0 13 7 29 15 36 9 7 14
19 11 25 -2 7 0 33 6 59 8 38 6 57 -11 109 -21 62 -20 102 3 94 6 -2 13 -17
14 -33z m1493 -664 c38 0 69 -5 71 -10 2 -6 27 -12 56 -14 29 -2 59 -9 67 -16
8 -6 34 -10 59 -9 26 2 51 -2 58 -9 7 -7 40 -12 79 -12 37 0 70 -4 73 -9 8
-12 148 -25 255 -23 81 2 92 0 81 -13 -7 -8 -10 -24 -7 -35 4 -17 0 -20 -24
-20 -16 0 -29 4 -29 9 0 5 -45 9 -101 8 -62 0 -104 4 -112 12 -6 6 -37 11 -69
11 -32 0 -58 4 -58 10 0 6 -20 10 -44 10 -24 0 -46 5 -48 10 -2 6 -24 12 -51
14 -26 2 -53 8 -60 14 -12 10 -53 17 -152 28 -27 3 -57 11 -65 18 -8 7 -50 13
-93 15 -43 1 -90 7 -105 14 -25 10 -21 12 43 17 47 3 76 1 90 -7 11 -7 50 -13
86 -13z"/>
<path d="M2227 2680 c-39 -12 -56 -28 -73 -69 -38 -91 22 -181 120 -181 43 0
53 4 82 36 29 30 34 43 34 82 0 59 -26 103 -73 125 -38 19 -48 19 -90 7z"/>
</g>
</svg>
