<?xml version="1.0" standalone="no"?>
<!DOCTYPE svg PUBLIC "-//W3C//DTD SVG 20010904//EN"
 "http://www.w3.org/TR/2001/REC-SVG-20010904/DTD/svg10.dtd">
<svg version="1.0" xmlns="http://www.w3.org/2000/svg"
 width="662.000000pt" height="1125.000000pt" viewBox="0 0 662.000000 1125.000000"
 preserveAspectRatio="xMidYMid meet">
<metadata>
Created by potrace 1.16, written by Peter Selinger 2001-2019
</metadata>
<g transform="translate(0.000000,1125.000000) scale(0.100000,-0.100000)"
fill="#000000" stroke="none">
<path d="M3670 10311 c-25 -4 -67 -17 -94 -30 -27 -13 -66 -26 -88 -28 -22 -1
-48 -8 -58 -13 -10 -6 -29 -10 -40 -10 -35 0 -241 -106 -284 -146 l-39 -36 7
-85 c3 -46 11 -93 16 -103 6 -10 10 -33 10 -50 0 -17 8 -42 17 -56 15 -23 17
-63 16 -358 -1 -182 -7 -421 -15 -531 -8 -128 -13 -414 -14 -795 -1 -327 -2
-670 -2 -762 l-2 -168 -31 0 c-18 0 -48 -4 -68 -10 -20 -5 -92 -14 -161 -20
-231 -20 -466 -50 -488 -64 -10 -6 -166 -35 -252 -46 -36 -5 -99 -13 -140 -19
-42 -5 -105 -13 -140 -16 -36 -4 -83 -13 -105 -20 -22 -7 -132 -18 -245 -25
-211 -13 -264 -23 -329 -65 -97 -62 -136 -130 -154 -265 -16 -124 -13 -602 7
-1305 4 -126 2 -417 -4 -645 -6 -228 -10 -431 -9 -450 3 -32 3 -307 1 -390 -1
-19 0 -91 2 -160 8 -346 5 -734 -5 -775 -6 -24 -8 -66 -5 -92 15 -120 18 -215
8 -222 -5 -3 -15 -58 -22 -121 -9 -95 -9 -123 3 -161 13 -44 13 -47 -9 -68
-57 -55 -86 -179 -64 -271 10 -40 23 -62 59 -96 25 -24 53 -44 63 -44 10 0 33
-14 51 -30 19 -17 44 -30 55 -30 12 0 24 -4 27 -10 10 -16 158 -12 192 5 37
19 120 105 133 139 l9 26 138 -72 c192 -99 211 -108 222 -108 6 0 23 -12 39
-28 58 -54 82 -65 187 -86 88 -18 157 -21 195 -10 l25 8 -26 -35 c-14 -19 -40
-71 -58 -117 -31 -80 -31 -86 -20 -145 21 -106 82 -182 155 -193 24 -3 47 -10
50 -15 7 -12 101 -59 137 -70 20 -6 48 -1 98 16 72 24 131 67 163 119 63 102
70 121 74 201 4 76 -1 100 -36 168 -2 4 10 7 27 7 37 0 72 18 125 65 6 6 32
21 59 34 26 13 47 28 47 33 0 4 12 8 28 8 33 0 112 35 112 50 0 6 23 10 53 10
39 0 61 6 88 24 20 14 53 28 75 32 46 8 85 26 103 48 8 9 28 16 46 16 36 0
135 38 135 51 0 5 20 9 44 9 24 0 46 5 48 10 2 6 29 17 60 24 32 7 68 20 80
28 13 8 46 21 73 28 28 7 62 22 77 32 14 10 40 18 57 18 17 0 46 9 66 20 20
11 54 20 77 20 27 0 45 6 53 17 7 10 27 18 44 19 30 2 31 0 31 -42 0 -89 40
-128 144 -140 46 -5 64 -13 85 -35 34 -35 87 -45 149 -29 26 7 51 17 57 21 5
5 15 9 22 9 26 0 96 75 119 128 25 55 33 155 14 167 -5 3 -10 17 -10 31 0 44
-43 105 -92 130 -24 12 -28 21 -28 58 0 30 6 48 20 61 16 14 20 31 20 75 0 63
-18 170 -31 184 -12 13 -11 340 1 391 8 36 28 1440 22 1605 -1 36 5 157 13
269 8 112 15 310 15 441 0 151 4 240 11 247 12 12 7 223 -11 492 -6 96 -8 181
-4 190 9 23 5 240 -7 341 -9 77 -24 137 -38 150 -3 3 -11 13 -16 24 -12 20
-87 66 -110 66 -9 0 -23 4 -33 10 -23 13 -139 42 -178 44 -17 1 -42 9 -57 19
-14 9 -44 17 -65 17 -23 0 -58 10 -83 24 -24 13 -64 30 -87 36 l-44 11 6 147
c3 81 9 275 12 432 3 167 10 293 16 304 8 14 8 86 2 231 -11 249 -12 1141 -2
1205 4 25 11 134 14 243 5 148 10 197 20 197 11 0 22 32 23 70 0 8 3 44 7 80
11 113 -9 142 -139 204 -67 31 -139 47 -224 48 -35 0 -63 3 -63 7 0 4 -20 12
-45 19 -48 13 -110 14 -185 3z m415 -86 c17 -4 62 -22 102 -42 51 -25 75 -43
83 -63 13 -32 11 -199 -4 -207 -5 -3 -28 -7 -50 -8 -23 -2 -62 -6 -87 -10
l-46 -7 -8 68 c-10 100 -23 111 -128 108 -165 -5 -451 -39 -537 -64 -30 -8
-38 -17 -53 -59 -9 -27 -17 -60 -17 -74 0 -14 -4 -29 -10 -32 -5 -3 -10 -19
-10 -36 0 -16 5 -29 10 -29 6 0 10 16 10 35 0 32 19 52 21 23 1 -7 7 16 15 52
8 35 20 70 27 78 18 17 197 46 377 62 263 22 245 26 260 -57 6 -38 15 -77 20
-88 25 -60 16 -987 -12 -1148 -10 -61 -7 -90 8 -75 14 14 26 335 28 758 l3
465 65 9 c105 14 101 19 95 -147 -3 -78 -11 -234 -17 -347 -7 -131 -9 -408 -5
-770 4 -390 2 -625 -7 -760 -6 -107 -12 -283 -13 -390 -1 -107 -5 -361 -10
-563 -7 -309 -11 -370 -23 -375 -22 -8 -93 -7 -126 1 -23 7 -27 12 -22 30 4
12 9 128 12 257 3 129 10 248 15 264 11 37 12 66 0 66 -5 0 -11 -9 -14 -19 -4
-16 -12 -18 -53 -15 -62 5 -227 31 -319 49 -38 8 -84 17 -101 20 -18 3 -78 -5
-144 -20 -63 -14 -117 -22 -121 -18 -4 5 -3 141 2 302 5 164 5 299 0 304 -14
14 -21 -106 -21 -388 0 -148 -5 -304 -11 -345 -9 -67 -8 -335 2 -535 4 -66 3
-70 -18 -73 -18 -3 -23 1 -23 20 0 13 -6 35 -14 50 -8 15 -17 40 -21 56 -3 16
-21 47 -39 68 l-33 39 4 290 c2 160 5 655 7 1100 1 446 6 821 10 835 22 79 28
990 6 990 -21 0 -40 159 -22 186 10 16 142 94 158 94 8 0 14 4 14 9 0 5 10 12
23 15 145 43 206 50 237 29 17 -12 37 -14 93 -8 75 7 225 39 236 51 6 6 145
-1 196 -11z m-160 -3125 c50 -5 91 -10 93 -10 1 0 2 -6 2 -12 0 -8 -16 -13
-43 -14 -23 0 -58 -8 -77 -17 -19 -9 -53 -17 -75 -19 -32 -2 -40 -7 -40 -23 0
-17 6 -20 44 -17 25 1 59 10 78 18 31 15 99 22 109 11 3 -3 2 -20 -1 -39 -7
-34 -8 -35 -78 -47 -40 -6 -108 -18 -152 -26 -129 -24 -211 -33 -357 -39
l-138 -7 0 24 c0 22 7 26 93 45 50 12 115 26 142 31 74 13 208 51 221 62 17
14 24 72 10 88 -9 12 -4 13 34 7 25 -3 86 -11 135 -16z m-825 -42 c0 -40 -2
-43 -27 -45 -16 -1 -54 -5 -85 -9 -35 -4 -69 -2 -85 4 -16 6 -59 13 -96 14
-38 1 -71 6 -73 10 -3 5 -16 8 -29 8 -13 0 -26 4 -29 9 -6 9 51 17 214 27 58
4 114 10 125 15 11 4 35 8 53 8 31 1 32 0 32 -41z m1222 -9 c20 -10 39 -23 42
-28 3 -5 29 -9 57 -9 72 -1 87 -17 81 -86 -5 -60 21 -126 68 -173 28 -28 115
-73 141 -73 10 0 21 -4 24 -10 3 -5 14 -10 24 -10 10 0 32 -13 49 -30 58 -55
75 -107 87 -265 2 -22 9 -116 16 -210 8 -93 13 -228 12 -300 -3 -272 -22 -764
-32 -855 -6 -52 -11 -270 -12 -485 -2 -214 -4 -601 -5 -860 -2 -268 -7 -498
-13 -535 -6 -36 -11 -133 -11 -217 l0 -152 -33 -25 c-33 -25 -131 -69 -214
-95 -104 -34 -159 -166 -122 -292 9 -29 9 -45 -1 -69 -15 -35 -86 -100 -110
-100 -8 0 -22 -9 -30 -20 -10 -14 -26 -20 -53 -20 -21 0 -55 -9 -77 -20 -22
-11 -53 -20 -70 -20 -17 0 -43 -9 -58 -20 -15 -10 -49 -25 -77 -32 -27 -7 -56
-18 -63 -25 -14 -13 -76 -33 -105 -33 -10 0 -25 -6 -32 -14 -8 -7 -31 -16 -53
-19 -21 -4 -60 -18 -86 -32 -29 -15 -63 -25 -89 -25 -32 0 -49 -7 -72 -28 -20
-19 -46 -31 -74 -35 -24 -3 -58 -16 -75 -28 -21 -16 -49 -24 -88 -27 -33 -3
-64 -11 -75 -21 -26 -24 -70 -41 -103 -41 -18 0 -34 -8 -44 -22 -22 -31 -31
-15 -18 31 23 76 9 223 -26 264 -21 24 -64 21 -128 -8 -30 -14 -63 -25 -74
-25 -10 0 -30 -4 -43 -9 -45 -17 -170 -42 -277 -56 -106 -13 -129 -10 -190 22
-14 7 -32 13 -40 14 -8 0 -49 18 -90 39 -242 124 -275 133 -323 84 -22 -21
-26 -37 -32 -109 -4 -47 -4 -106 -1 -132 5 -39 4 -44 -5 -29 -13 21 -5 231 11
301 5 22 10 100 10 173 l0 132 28 -6 c15 -4 39 -13 54 -20 34 -17 63 -18 75
-1 24 29 31 201 18 415 l-7 112 -39 41 c-23 24 -60 48 -87 58 l-47 17 -1 584
c-1 322 -3 655 -4 740 -1 85 -2 324 -1 531 l1 377 51 -15 c29 -9 65 -12 83 -9
28 5 36 14 49 49 20 50 37 253 37 423 l0 124 -46 44 c-52 51 -117 86 -157 86
-27 0 -27 1 -27 68 1 197 21 517 35 545 8 17 15 40 15 51 0 21 23 61 50 88 25
24 167 62 330 88 41 7 80 16 85 20 15 11 64 19 220 36 212 23 208 22 202 46
-5 19 -2 20 41 14 26 -4 59 -12 73 -17 29 -11 190 -7 227 6 20 6 22 4 22 -23
0 -33 -9 -37 -162 -67 -95 -19 -128 -33 -128 -56 0 -28 41 -68 100 -97 30 -15
59 -36 64 -46 6 -11 25 -43 43 -71 45 -74 63 -122 63 -171 0 -61 39 -141 94
-195 43 -42 55 -48 119 -59 40 -6 110 -10 157 -8 110 6 374 51 516 88 61 17
120 30 132 30 37 0 174 41 237 70 113 53 163 117 195 248 21 85 21 98 10 155
-17 77 -59 158 -106 200 -62 55 -125 87 -173 87 l-44 0 7 46 c3 26 6 53 6 61
0 16 37 9 92 -18z m-1740 -22 c-12 -13 -22 -28 -22 -34 0 -12 -48 -19 -205
-28 -55 -3 -158 -19 -230 -35 -71 -16 -184 -38 -250 -50 -156 -28 -224 -46
-245 -65 -9 -8 -20 -15 -25 -15 -15 0 -93 -86 -122 -135 -17 -28 -35 -73 -41
-100 -20 -86 -31 -278 -25 -427 5 -118 3 -141 -8 -130 -7 6 -31 12 -52 12 -42
0 -74 -25 -82 -64 -2 -12 -9 -43 -14 -71 -6 -27 -15 -96 -21 -152 -11 -108
-11 -113 42 -286 12 -41 68 -97 96 -97 16 0 17 -21 15 -277 -2 -153 -7 -352
-13 -444 -5 -91 -7 -268 -4 -395 4 -126 3 -407 -1 -625 -7 -392 -7 -395 -28
-395 -16 1 -25 -10 -38 -44 -15 -39 -18 -82 -18 -305 l-1 -260 38 -17 c20 -10
52 -24 70 -31 l33 -14 5 -239 c3 -131 8 -265 13 -297 l8 -58 -22 27 c-38 48
-48 103 -36 196 10 76 9 85 -10 126 -21 43 -88 102 -116 102 -8 0 -27 7 -41
15 -40 21 -114 53 -144 60 -47 12 -55 32 -62 160 -4 66 -7 129 -6 140 1 11 3
479 4 1040 3 705 7 1037 15 1074 13 65 14 223 2 306 -10 64 -23 566 -26 980
-2 344 23 565 65 565 6 0 10 6 10 13 1 31 123 107 174 107 17 0 67 6 111 14
44 7 125 14 180 15 55 0 129 7 165 15 86 20 201 36 249 36 21 0 51 4 67 9 16
5 76 15 134 21 58 7 132 19 165 27 33 8 105 23 160 33 55 10 102 19 104 19 3
1 -5 -9 -17 -22z m2168 -89 c82 -27 105 -43 130 -94 27 -53 56 -251 45 -301
-7 -33 -22 -28 -34 10 -26 77 -92 129 -204 162 -97 28 -157 106 -157 204 0 36
5 53 17 59 18 11 97 -5 203 -40z m-2169 -15 c19 -10 57 -23 84 -29 l50 -12
-55 -1 c-67 -1 -262 -27 -310 -40 -19 -5 -52 -14 -72 -21 -20 -6 -65 -15 -100
-20 -35 -5 -81 -13 -103 -19 -22 -5 -66 -16 -99 -24 -112 -28 -156 -84 -185
-232 -16 -82 -20 -152 -23 -391 -3 -267 -1 -294 15 -311 17 -19 16 -20 -40
-16 -134 9 -183 21 -212 50 -15 15 -39 38 -53 50 l-25 23 2 232 c3 278 19 413
59 473 9 13 16 29 16 35 0 15 73 90 88 90 6 0 12 3 12 8 0 17 140 58 235 68
22 3 47 7 55 10 8 4 40 10 70 14 30 5 73 14 95 20 77 23 191 41 310 49 66 4
127 9 136 10 9 0 31 -7 50 -16z m1749 -24 c59 -27 94 -61 133 -129 31 -53 32
-60 31 -160 0 -87 -4 -114 -23 -154 -39 -87 -120 -148 -241 -181 -36 -9 -74
-21 -85 -27 -11 -5 -32 -9 -45 -9 -29 -1 -69 -10 -161 -38 -36 -11 -88 -22
-115 -25 -27 -3 -118 -17 -202 -31 -138 -24 -163 -26 -267 -17 l-115 9 -48 53
c-51 57 -59 75 -72 167 -8 63 -36 130 -91 218 -36 57 -49 69 -105 95 -42 20
-71 46 -62 56 3 2 51 13 106 24 56 11 107 21 114 22 9 2 14 -12 16 -42 3 -39
1 -43 -10 -28 -18 24 -61 28 -66 6 -2 -12 5 -21 21 -27 44 -17 111 -106 135
-179 12 -38 22 -77 22 -88 0 -11 12 -31 26 -45 24 -23 32 -24 152 -24 107 0
131 -3 154 -18 40 -27 96 -31 227 -18 158 16 213 28 301 64 83 34 113 56 130
96 9 22 25 33 78 51 37 13 79 32 95 42 24 18 27 25 27 81 0 53 -5 70 -34 118
-46 77 -75 109 -113 125 -18 8 -33 18 -33 22 0 17 77 11 120 -9z m-320 -4 c0
-8 -9 -15 -20 -15 -20 0 -59 -8 -193 -42 -95 -23 -268 -48 -405 -56 -94 -6
-102 -6 -102 11 0 10 6 20 13 22 6 2 99 9 206 14 106 6 199 15 205 20 6 4 34
11 61 14 28 3 88 15 135 25 47 11 88 20 93 21 4 1 7 -6 7 -14z m319 -167 c24
-50 28 -120 7 -137 -10 -8 -98 -40 -113 -41 -2 0 -3 71 -3 157 l0 157 44 -46
c24 -25 53 -66 65 -90z m-325 -58 l-6 -169 84 -3 83 -3 -38 -37 c-21 -21 -44
-38 -51 -38 -7 0 -26 -6 -42 -14 -43 -22 -147 -44 -259 -56 -158 -16 -192 -14
-221 15 -25 25 -27 25 -134 19 l-109 -7 -5 24 c-3 13 -7 92 -10 175 -7 174
-13 164 96 164 32 0 88 5 125 10 194 30 252 40 288 50 22 6 67 16 99 21 33 5
62 11 64 14 3 3 14 5 24 5 17 0 18 -10 12 -170z m-2610 -696 c9 -3 16 -16 16
-28 1 -31 22 -65 56 -87 l29 -19 -32 0 c-40 0 -68 -36 -94 -123 -40 -131 -17
-216 63 -237 24 -6 57 -15 73 -20 17 -5 59 -14 95 -20 36 -6 74 -15 85 -19 44
-19 188 -39 214 -30 35 12 51 79 51 210 0 113 -14 148 -70 184 -46 29 -70 61
-70 92 l0 23 53 -20 c31 -12 67 -36 90 -60 l38 -41 -4 -187 c-5 -205 -19 -318
-41 -341 -13 -12 -23 -12 -80 3 -36 10 -73 16 -81 12 -13 -5 -15 -124 -15
-1005 0 -716 3 -1002 11 -1007 7 -4 9 -25 4 -60 -6 -48 -4 -54 12 -54 17 -1
17 -2 -2 -16 -16 -12 -20 -29 -23 -87 l-4 -73 50 -14 c29 -7 69 -29 94 -50
l43 -38 3 -153 c2 -85 1 -195 -3 -245 l-7 -91 -38 18 c-22 11 -48 19 -60 19
-21 0 -27 14 -10 25 6 3 10 15 10 25 0 10 12 28 27 40 44 35 53 70 53 216 l0
133 -32 24 c-18 13 -49 29 -68 36 -19 7 -44 17 -55 21 -11 5 -54 18 -95 30
-41 12 -91 28 -110 37 -19 9 -52 18 -75 20 -33 4 -44 1 -61 -19 -44 -49 -66
-164 -43 -225 13 -35 76 -102 109 -115 l25 -10 -27 -14 c-16 -8 -28 -21 -28
-29 0 -27 -22 -27 -81 1 l-60 29 3 255 c2 140 7 263 12 272 7 16 9 16 29 -2
39 -37 62 -22 47 30 -12 42 -12 329 0 585 6 129 6 285 0 440 -7 160 -7 285 -1
375 6 74 12 282 14 462 5 354 7 338 -49 338 -27 0 -46 25 -64 85 -7 22 -17 49
-23 60 -16 28 -21 220 -8 280 18 87 28 129 36 148 7 17 39 22 69 11z m3495
-3298 c12 -50 15 -156 3 -171 -4 -6 -32 -11 -63 -12 -33 -2 -78 -12 -111 -27
-71 -31 -100 -75 -109 -166 -6 -58 -10 -68 -43 -96 -34 -29 -118 -55 -133 -41
-2 3 13 21 34 40 l38 35 0 141 0 140 33 34 c35 36 53 45 181 93 40 16 89 41
108 56 20 15 39 26 43 23 4 -3 13 -25 19 -49z m-3314 -66 c3 -5 13 -10 21 -10
8 0 44 -13 79 -30 35 -16 74 -30 87 -30 13 0 31 -7 41 -15 21 -15 18 -35 -14
-95 -15 -29 -19 -66 -24 -220 -3 -102 -8 -236 -11 -298 l-5 -112 -27 13 c-15
8 -49 26 -77 41 -27 14 -71 36 -97 48 -36 18 -48 30 -52 53 -4 17 -9 147 -12
290 -7 291 -2 335 44 359 34 18 39 18 47 6z m-500 -158 c40 -14 247 -100 249
-104 1 -2 12 -16 25 -32 20 -27 22 -40 20 -151 -2 -117 -1 -124 27 -173 16
-28 25 -54 21 -58 -8 -8 -75 43 -88 66 -5 8 -19 43 -33 78 -38 98 -62 127
-132 157 -45 19 -74 25 -114 23 l-54 -3 -9 40 c-7 27 -6 62 2 109 14 83 18 91
39 73 10 -8 31 -19 47 -25z m3686 -384 c-40 -40 -54 -78 -28 -78 7 0 29 18 50
40 20 22 39 40 42 40 3 0 5 -30 5 -66 0 -56 2 -65 16 -60 8 3 12 2 9 -4 -7
-11 -67 -13 -101 -4 -24 6 -64 82 -67 128 -2 32 17 43 81 45 l34 1 -41 -42z
m-2815 -34 c22 -8 92 -42 157 -75 144 -73 246 -109 312 -109 98 0 399 65 467
101 20 10 53 19 72 19 34 0 35 -1 47 -54 17 -77 7 -200 -20 -256 -24 -48 -86
-100 -120 -100 -26 0 -27 13 -1 48 30 40 36 96 16 127 -29 45 -54 49 -132 25
-92 -28 -226 -80 -241 -94 -7 -6 -15 -30 -19 -53 -6 -39 -5 -43 15 -43 12 0
24 -6 27 -13 2 -7 -29 -63 -71 -125 -41 -62 -75 -119 -75 -127 0 -25 -18 -26
-92 -1 -56 19 -74 30 -76 46 -5 32 36 143 68 186 30 40 37 68 20 79 -5 3 -10
24 -10 46 0 29 -5 41 -17 45 -42 13 -100 37 -123 50 -14 7 -41 21 -60 29 -19
9 -47 22 -62 30 -62 35 -105 -1 -95 -80 8 -56 -5 -58 -56 -11 -40 37 -39 32
-37 186 1 93 3 107 22 123 25 21 35 21 84 1z m82 -249 c26 -14 52 -25 59 -25
6 0 19 -7 28 -17 9 -9 44 -26 78 -38 56 -21 62 -25 62 -51 0 -27 -3 -29 -48
-32 -26 -2 -75 4 -108 12 -33 9 -71 16 -84 16 -38 0 -65 76 -49 138 4 12 8 22
11 22 2 0 25 -11 51 -25z m815 -49 c26 -20 21 -67 -13 -114 -37 -49 -56 -57
-107 -43 -21 6 -48 11 -61 11 -13 0 -37 13 -53 29 -16 16 -42 31 -57 33 l-27
4 30 8 c17 4 60 21 98 37 37 16 78 29 91 29 14 0 28 5 31 10 9 14 47 12 68 -4z"/>
<path d="M2498 6685 c-156 -43 -268 -158 -290 -299 -17 -106 -27 -216 -34
-346 l-7 -136 61 -17 c72 -20 197 -22 255 -5 76 23 150 128 168 239 6 35 14
66 18 69 5 3 11 15 15 27 11 36 62 71 114 79 53 7 105 41 127 84 20 38 19 55
-6 130 -40 123 -96 165 -244 180 -110 12 -118 12 -177 -5z m270 -42 c34 -10
59 -25 71 -42 34 -48 59 -106 66 -152 6 -42 4 -48 -27 -81 -26 -28 -45 -38
-81 -43 -95 -15 -157 -87 -177 -208 -5 -28 -12 -61 -17 -72 -18 -43 -67 -106
-99 -126 -48 -29 -161 -36 -236 -14 l-58 16 0 102 c0 120 16 315 31 372 34
135 127 227 264 261 61 15 189 9 263 -13z"/>
<path d="M4167 6034 c-4 -4 -7 -119 -7 -256 0 -232 1 -249 18 -246 16 3 17 23
17 252 0 237 -4 274 -28 250z"/>
<path d="M3220 5560 c0 -277 3 -351 13 -347 9 3 12 81 12 347 0 266 -3 344
-12 348 -10 3 -13 -71 -13 -348z"/>
<path d="M2407 5824 c-4 -4 -7 -864 -7 -1911 0 -1897 0 -1903 20 -1903 20 0
20 5 18 1907 -2 1335 -6 1907 -14 1910 -5 2 -13 0 -17 -3z"/>
<path d="M4160 4990 c0 -231 2 -420 4 -420 2 0 11 3 20 6 14 5 16 52 16 420 0
407 0 414 -20 414 -20 0 -20 -7 -20 -420z"/>
<path d="M3220 4669 c0 -332 3 -420 13 -417 9 4 13 99 15 421 2 367 0 417 -13
417 -13 0 -15 -52 -15 -421z"/>
<path d="M4160 4014 c0 -409 1 -435 18 -432 16 3 17 33 20 436 2 427 2 432
-18 432 -20 0 -20 -6 -20 -436z"/>
<path d="M3233 4133 c-10 -4 -13 -99 -13 -429 0 -370 2 -424 15 -424 13 0 15
54 15 430 0 237 -1 430 -2 429 -2 0 -9 -3 -15 -6z"/>
<path d="M4167 3453 c-4 -3 -7 -190 -7 -415 0 -385 1 -409 18 -406 16 3 17 32
20 416 2 340 0 412 -11 412 -8 0 -17 -3 -20 -7z"/>
<path d="M3220 2719 c0 -348 3 -440 13 -437 9 4 13 103 15 441 2 384 0 437
-13 437 -13 0 -15 -54 -15 -441z"/>
</g>
</svg>
