<?xml version="1.0" standalone="no"?>
<!DOCTYPE svg PUBLIC "-//W3C//DTD SVG 20010904//EN"
 "http://www.w3.org/TR/2001/REC-SVG-20010904/DTD/svg10.dtd">
<svg version="1.0" xmlns="http://www.w3.org/2000/svg"
 width="1277.000000pt" height="756.000000pt" viewBox="0 0 1277.000000 756.000000"
 preserveAspectRatio="xMidYMid meet">
<metadata>
Created by potrace 1.16, written by Peter Selinger 2001-2019
</metadata>
<g transform="translate(0.000000,756.000000) scale(0.100000,-0.100000)"
fill="#000000" stroke="none">
<path d="M5367 6464 c-1 -1 -81 -5 -177 -8 -155 -5 -504 -26 -705 -41 -38 -3
-133 -10 -210 -15 -77 -6 -187 -15 -245 -20 -58 -5 -136 -12 -175 -16 -294
-23 -378 -34 -545 -65 -30 -5 -64 -12 -75 -14 -11 -2 -42 -13 -69 -24 -38 -17
-47 -18 -43 -6 9 22 -7 27 -81 26 -184 -4 -323 -30 -397 -76 -22 -14 -47 -28
-55 -31 -8 -4 -50 -45 -93 -93 -71 -78 -130 -176 -179 -296 -13 -32 -56 -171
-63 -207 -4 -18 -16 -49 -26 -68 -19 -35 -27 -145 -11 -152 4 -1 18 -24 31
-50 41 -82 129 -110 177 -57 9 10 38 104 65 209 26 104 53 206 60 227 18 58
80 206 91 221 6 7 34 12 69 12 45 0 71 7 116 30 32 17 72 31 88 32 35 1 115
-12 115 -19 0 -10 -23 -47 -56 -90 -19 -25 -34 -49 -34 -55 0 -6 -12 -27 -27
-46 -30 -40 -83 -140 -83 -158 0 -6 -7 -17 -15 -24 -8 -7 -15 -20 -15 -30 0
-15 -13 -48 -65 -165 -35 -78 -45 -104 -45 -117 0 -8 -4 -18 -9 -23 -10 -10
-34 -73 -53 -135 -5 -19 -14 -39 -19 -45 -5 -5 -9 -18 -9 -30 0 -12 -4 -25 -9
-30 -12 -13 -141 -266 -141 -277 0 -5 -11 -34 -25 -64 -14 -30 -41 -102 -60
-161 -34 -105 -45 -141 -80 -268 -10 -33 -23 -79 -31 -103 -8 -23 -14 -49 -14
-56 0 -8 -7 -27 -15 -42 -8 -16 -15 -38 -15 -49 0 -11 -6 -30 -14 -41 -8 -11
-17 -37 -21 -57 -4 -20 -11 -37 -16 -37 -5 0 -9 -10 -9 -22 0 -13 -7 -36 -15
-52 -8 -15 -15 -39 -15 -52 0 -12 -5 -26 -11 -29 -11 -7 -11 -187 1 -220 8
-21 2 -44 -38 -145 -14 -36 -29 -83 -33 -105 -4 -22 -13 -58 -19 -80 -29 -99
-46 -316 -36 -445 2 -24 19 -70 37 -100 5 -8 14 -26 20 -40 18 -42 161 -199
182 -200 5 0 27 -13 50 -29 28 -20 61 -32 97 -36 30 -4 60 -10 65 -14 6 -4 37
-13 70 -20 116 -25 191 -40 255 -51 36 -7 74 -16 85 -20 11 -5 38 -11 60 -13
22 -2 76 -12 120 -21 74 -15 121 -24 235 -47 25 -5 99 -18 165 -30 66 -12 163
-30 215 -41 52 -11 122 -23 155 -28 33 -4 67 -11 75 -14 42 -15 400 -47 522
-47 128 1 138 -1 165 -22 112 -92 272 -131 423 -104 97 17 241 71 281 104 29
25 30 25 177 19 81 -3 208 -12 282 -18 74 -7 280 -13 457 -13 223 0 325 -3
333 -11 6 -6 13 -36 16 -65 16 -173 81 -274 199 -309 22 -6 54 -16 71 -21 56
-17 248 -41 324 -41 85 0 194 23 244 52 75 42 114 70 136 97 22 28 22 28 143
29 67 0 129 3 137 5 8 3 25 8 36 12 40 14 72 76 80 155 3 40 11 75 16 78 27
17 385 26 948 24 648 -3 732 -4 748 -14 7 -4 12 -22 12 -39 0 -112 70 -182
225 -226 22 -6 117 -17 210 -24 184 -14 222 -10 287 31 33 20 98 105 98 128 0
5 14 44 31 86 22 54 37 79 52 85 12 4 126 8 252 8 229 2 268 7 319 40 43 29
58 71 78 230 11 82 21 161 23 175 2 14 9 72 15 130 7 58 23 191 37 295 13 105
25 213 28 240 2 28 9 90 15 138 35 284 31 651 -10 804 -30 110 -51 153 -96
193 -39 35 -200 144 -281 191 -23 13 -95 55 -160 92 -98 57 -366 192 -528 267
-22 11 -83 24 -135 31 -52 7 -99 16 -105 20 -5 4 -41 24 -80 45 -123 65 -359
199 -480 271 -11 7 -38 21 -60 32 -22 11 -76 41 -120 65 -99 57 -140 79 -185
100 -19 10 -42 21 -50 26 -44 25 -220 110 -228 110 -6 0 -12 4 -14 8 -3 8
-810 415 -913 460 -27 13 -57 26 -65 31 -8 5 -40 20 -70 34 -30 14 -77 35
-105 48 -27 12 -54 29 -58 36 -4 7 -18 13 -30 13 -22 0 -131 41 -144 54 -3 3
-16 6 -27 6 -12 0 -30 6 -41 13 -11 7 -49 22 -85 32 -36 10 -69 22 -75 25 -14
10 -178 59 -254 76 -35 8 -68 17 -74 21 -6 4 -29 10 -52 14 -22 5 -74 15 -115
23 -198 39 -249 48 -440 71 -113 14 -213 30 -222 35 -11 6 -19 6 -23 0 -4 -6
-46 -8 -108 -4 -106 6 -485 12 -490 8z m-29 -214 c98 0 128 -10 80 -26 -13 -5
-25 -8 -28 -9 -3 0 -25 -13 -50 -29 -59 -37 -106 -82 -138 -131 -28 -44 -125
-231 -135 -261 -4 -11 -14 -37 -22 -59 -16 -39 -28 -80 -40 -140 -4 -16 -10
-39 -15 -50 -5 -11 -16 -47 -25 -80 -9 -33 -21 -75 -26 -92 -21 -67 -23 -171
-5 -211 34 -75 173 -121 315 -103 113 14 115 17 130 162 8 68 17 133 21 144 5
11 16 47 25 80 9 33 20 67 24 75 5 9 12 30 15 48 4 17 12 34 17 37 5 4 9 16 9
28 0 13 6 31 13 42 7 11 21 45 31 75 26 75 63 157 75 164 6 4 37 0 69 -7 36
-8 68 -10 82 -5 22 8 22 7 16 -34 -6 -41 -20 -90 -36 -133 -5 -11 -16 -49 -25
-85 -9 -36 -19 -72 -22 -80 -4 -8 -12 -37 -19 -65 -7 -27 -17 -66 -23 -85 -5
-19 -17 -62 -26 -95 -9 -33 -20 -73 -25 -90 -22 -78 -42 -153 -46 -180 -3 -16
-9 -39 -14 -50 -4 -11 -13 -40 -19 -65 -7 -25 -17 -58 -23 -75 -5 -16 -12 -41
-15 -55 -2 -14 -8 -34 -12 -45 -9 -21 -60 -185 -85 -270 -40 -136 -80 -263
-92 -292 -8 -17 -14 -38 -14 -47 0 -9 -10 -20 -22 -25 -39 -15 -246 -27 -593
-36 -191 -5 -238 -4 -228 6 10 10 9 16 -4 31 -9 10 -24 18 -33 18 -9 0 -20 4
-25 9 -6 5 -28 12 -50 15 -265 38 -322 45 -337 40 -10 -3 -34 0 -55 6 -91 25
-347 49 -473 44 -69 -4 -174 -7 -235 -8 -102 -1 -111 -3 -119 -23 -10 -20 -15
-21 -153 -19 -93 2 -148 7 -155 14 -7 7 -31 12 -54 12 -23 0 -66 5 -95 10 -30
6 -99 13 -154 16 -55 3 -104 9 -110 15 -6 6 -5 21 4 42 16 42 41 124 48 162 3
17 12 39 19 50 8 11 14 27 14 36 0 9 7 30 15 45 8 16 15 37 15 46 0 9 5 20 10
23 6 3 10 14 10 23 0 19 170 365 182 370 4 2 8 8 8 13 0 6 11 34 24 62 13 29
31 72 41 97 9 25 23 58 31 73 8 16 14 33 14 39 0 5 6 24 14 41 32 76 41 98 78
212 41 122 60 168 83 195 7 8 22 31 33 50 11 19 37 64 57 100 21 36 45 79 53
96 8 18 28 36 46 43 27 10 184 30 366 47 30 3 75 7 100 9 69 7 160 16 210 19
25 2 70 7 100 10 112 13 155 18 175 18 11 0 52 4 90 9 39 4 126 11 195 14 69
4 135 8 148 10 13 2 121 7 240 10 119 4 218 8 219 8 1 1 48 1 105 0 56 -2 149
-3 206 -3z m1392 -170 c25 -6 57 -18 72 -26 14 -8 34 -14 45 -14 10 0 56 -14
103 -31 47 -17 123 -44 170 -61 46 -16 125 -45 175 -65 49 -19 119 -46 155
-60 155 -60 438 -200 451 -224 5 -10 12 -58 15 -106 8 -117 7 -624 -1 -843 -4
-96 -8 -217 -10 -268 -1 -51 -5 -95 -8 -99 -4 -3 -21 1 -39 10 -114 54 -305
97 -428 96 -87 -1 -291 -40 -414 -79 -33 -11 -83 -27 -111 -35 -59 -17 -222
-70 -393 -127 -72 -24 -126 -37 -131 -32 -5 5 0 72 10 149 10 77 21 181 24
230 2 50 14 162 24 250 11 88 17 172 14 188 -3 15 -1 27 5 27 5 0 9 19 9 43
-1 56 11 250 18 290 5 36 16 288 16 385 0 44 4 62 13 62 14 0 14 -163 0 -350
-4 -47 -6 -104 -6 -127 1 -97 1 -96 16 -84 14 12 25 92 32 221 2 41 6 125 10
185 4 61 7 124 7 142 -1 23 4 32 18 36 25 7 24 27 -1 34 -24 6 -23 2 -5 47 12
27 14 60 10 140 -8 136 -8 136 135 96z m-786 -93 c11 -8 46 -20 76 -27 30 -7
67 -19 82 -26 15 -8 40 -14 57 -14 16 0 32 -4 35 -9 3 -4 31 -11 61 -14 31 -3
63 -11 72 -18 17 -15 16 -15 100 -31 34 -7 65 -17 70 -22 5 -5 -2 -7 -15 -3
-15 3 -25 0 -29 -9 -3 -8 -14 -14 -25 -14 -22 0 -90 17 -123 30 -11 5 -33 11
-50 15 -83 17 -117 26 -171 44 -33 10 -85 22 -116 26 -42 5 -59 12 -63 25 -6
18 -33 34 -80 46 l-30 8 33 4 c17 2 32 7 32 12 0 11 55 -4 84 -23z m-47 -127
c47 0 62 -16 50 -55 -16 -47 -16 -49 -26 -65 -5 -8 -17 -42 -26 -75 -10 -33
-21 -69 -26 -80 -4 -11 -13 -39 -20 -62 -7 -23 -15 -40 -19 -38 -3 2 -5 -9 -2
-24 2 -16 -1 -32 -7 -35 -6 -4 -11 -19 -11 -34 -1 -15 -7 -38 -15 -52 -8 -14
-14 -37 -15 -51 0 -14 -3 -29 -6 -32 -11 -11 -43 -110 -44 -134 0 -12 -4 -24
-9 -27 -5 -3 -11 -20 -14 -38 -3 -18 -10 -51 -16 -73 -6 -22 -15 -58 -20 -80
-5 -22 -26 -105 -45 -184 -20 -79 -36 -155 -36 -170 0 -15 -4 -31 -8 -36 -13
-16 -30 -102 -43 -215 -7 -58 -15 -109 -20 -115 -4 -5 -8 -30 -10 -55 -1 -25
-5 -49 -8 -55 -6 -11 -8 -20 -17 -90 -3 -27 -8 -59 -10 -70 -3 -11 -8 -40 -12
-65 l-7 -45 -45 1 c-25 1 -73 2 -106 4 -34 1 -71 -1 -83 -5 -15 -4 -21 -2 -21
8 0 9 3 17 8 19 4 2 18 30 31 63 13 33 32 79 42 102 11 23 19 51 19 62 0 12 4
21 10 21 5 0 12 16 16 35 3 19 10 38 15 41 5 3 9 13 9 22 0 9 7 30 15 46 8 16
18 46 21 67 4 22 10 39 15 39 4 0 11 20 15 45 3 25 10 45 15 45 5 0 9 7 9 16
0 19 30 115 41 129 4 6 10 31 14 58 4 26 11 47 16 47 5 0 9 13 9 29 0 15 9 57
20 91 11 34 20 71 20 81 0 11 4 19 9 19 5 0 11 17 14 38 5 45 43 180 57 204 6
10 10 30 10 46 0 15 4 32 8 38 5 5 17 46 27 92 10 46 22 85 27 88 4 3 8 21 8
40 0 19 4 34 9 34 5 0 11 15 14 33 12 69 31 137 39 137 4 0 8 18 8 40 0 22 5
40 10 40 6 0 10 10 10 22 0 12 4 35 10 52 5 17 12 44 15 60 5 22 9 26 18 17 6
-6 26 -11 44 -11z m213 -40 c30 -7 70 -18 88 -26 18 -8 43 -14 55 -15 12 0 60
-10 107 -22 l85 -23 0 -59 c-1 -157 -22 -465 -32 -465 -12 0 -149 44 -158 50
-5 4 -39 16 -75 25 -36 9 -74 21 -85 26 -11 4 -56 18 -100 30 -114 30 -115 30
-115 43 1 6 7 29 15 51 8 22 15 46 15 53 0 8 6 28 14 45 14 34 34 104 43 152
3 17 12 39 19 50 8 11 14 27 14 35 0 30 25 70 40 66 8 -3 40 -10 70 -16z
m2004 -229 c43 -20 136 -63 221 -101 28 -13 106 -49 175 -80 69 -31 148 -67
175 -80 209 -94 288 -132 296 -143 3 -4 18 -11 33 -15 30 -8 42 -32 73 -142
22 -79 23 -84 39 -200 26 -192 17 -382 -28 -565 -5 -22 -12 -57 -15 -78 -3
-20 -9 -40 -14 -43 -5 -3 -9 -19 -9 -36 0 -28 -2 -30 -27 -25 -70 14 -89 19
-108 27 -11 5 -54 19 -95 30 -41 12 -111 33 -155 47 -44 14 -111 32 -150 41
-38 10 -74 20 -80 23 -5 3 -62 18 -125 34 -63 15 -122 30 -130 33 -8 3 -37 10
-65 16 l-50 11 -2 495 c-1 272 -4 557 -6 633 -3 75 -2 137 1 137 3 0 24 -9 46
-19z m-2189 -376 c22 -4 49 -11 60 -15 11 -5 51 -17 88 -26 38 -9 81 -22 95
-30 15 -8 37 -14 49 -14 12 0 25 -4 28 -10 3 -5 16 -10 28 -10 13 0 31 -6 42
-14 11 -7 36 -18 55 -25 l36 -11 -3 -67 c-1 -36 -9 -127 -18 -202 -10 -75 -17
-152 -17 -171 0 -19 -11 -125 -23 -235 -13 -110 -24 -220 -24 -244 0 -45 -22
-81 -49 -81 -7 0 -28 -6 -45 -14 -18 -7 -93 -32 -167 -55 -74 -24 -148 -49
-165 -56 -16 -7 -41 -16 -55 -19 -14 -2 -83 -25 -154 -50 -140 -49 -161 -48
-146 2 5 15 14 59 19 97 6 39 19 115 29 170 11 55 22 132 26 170 4 39 15 106
25 150 11 44 25 107 31 140 7 33 16 69 20 80 5 11 11 34 14 50 2 17 10 50 16
75 6 25 15 63 19 85 5 22 15 60 24 85 9 25 17 57 17 72 0 15 4 29 9 33 6 3 13
26 17 50 3 25 10 48 15 51 5 3 9 17 9 31 0 22 3 25 28 20 15 -3 45 -8 67 -12z
m3305 -145 c14 -11 28 -20 32 -20 5 0 99 -44 210 -99 112 -54 234 -113 271
-131 72 -34 102 -66 135 -140 29 -65 33 -81 57 -185 31 -138 24 -358 -21 -647
-7 -46 -13 -47 -118 -9 -45 15 -121 41 -171 56 -49 15 -103 33 -120 40 -16 6
-55 18 -85 25 -30 8 -59 17 -65 21 -5 4 -26 10 -45 14 -44 8 -98 25 -127 38
-18 8 -21 16 -17 41 8 53 35 189 45 226 17 67 45 366 42 450 -5 126 -12 167
-49 278 -23 68 -18 76 26 42z m811 -396 c6 -8 16 -14 21 -14 14 0 357 -170
363 -180 2 -4 14 -65 25 -136 25 -156 27 -328 5 -509 -23 -199 -25 -205 -43
-205 -20 0 -89 23 -98 33 -4 4 -20 7 -35 7 -15 0 -31 4 -34 10 -3 5 -38 19
-78 30 -40 11 -84 27 -99 35 -14 8 -33 15 -41 15 -9 0 -18 3 -21 8 -2 4 2 57
10 117 17 134 36 384 36 480 0 87 -14 172 -41 250 -12 32 -21 65 -21 71 0 15
35 7 51 -12z m656 -325 c76 -40 164 -85 195 -100 76 -38 95 -73 116 -214 17
-117 0 -455 -29 -567 -9 -36 -10 -37 -42 -26 -17 6 -36 14 -42 18 -15 10 -70
29 -155 52 -41 11 -79 23 -85 27 -5 5 -34 16 -62 25 -29 10 -55 21 -58 26 -3
4 4 81 16 171 16 133 19 197 15 340 -5 155 -10 200 -30 297 -3 14 0 22 9 22 7
0 76 -32 152 -71z m-3117 -94 c107 -18 180 -37 180 -47 0 -5 11 -8 24 -8 13 0
40 -7 61 -16 35 -14 37 -17 31 -48 -4 -18 -9 -74 -11 -124 -3 -50 -12 -139
-20 -198 -7 -60 -11 -112 -9 -116 3 -4 0 -53 -7 -109 -14 -114 -6 -107 -104
-79 -40 11 -151 31 -300 53 -155 23 -392 8 -613 -39 -64 -14 -151 -32 -192
-40 -41 -7 -103 -20 -137 -28 -34 -7 -64 -11 -67 -9 -2 3 -14 -1 -26 -7 -12
-6 -30 -13 -42 -15 -18 -4 -19 0 -14 28 9 53 43 388 45 452 1 33 4 62 7 64 9
9 110 41 131 41 12 0 24 4 27 9 3 5 20 11 38 14 18 2 47 10 63 16 17 6 77 25
135 41 58 17 114 35 125 40 11 5 49 16 83 25 35 9 71 20 80 25 26 14 243 76
292 83 55 9 139 6 220 -8z m590 -32 c36 -8 74 -18 85 -23 35 -17 108 -38 170
-50 33 -7 65 -15 70 -19 6 -4 37 -13 70 -20 62 -13 137 -36 167 -52 10 -5 27
-9 39 -9 18 0 59 -11 139 -38 20 -7 117 -36 220 -66 197 -57 236 -69 255 -77
16 -7 87 -26 160 -44 6 -1 17 -5 26 -9 9 -4 20 -6 25 -5 5 1 16 -1 24 -4 42
-18 107 -37 126 -37 11 0 24 -4 30 -10 5 -5 46 -19 89 -31 44 -11 84 -24 90
-29 5 -4 39 -16 75 -25 35 -9 76 -22 90 -29 14 -7 57 -21 95 -31 39 -10 75
-21 80 -25 6 -4 35 -15 65 -24 30 -10 68 -24 83 -32 16 -8 41 -14 57 -14 16 0
30 -3 32 -8 2 -4 37 -18 78 -31 41 -13 80 -27 85 -31 6 -4 45 -18 88 -30 43
-13 80 -27 83 -32 3 -4 15 -8 27 -8 13 0 31 -6 42 -14 11 -7 47 -21 80 -30 33
-9 78 -25 100 -35 22 -11 48 -22 58 -25 16 -5 17 -15 11 -88 -3 -46 -8 -90
-11 -98 -3 -8 -7 -49 -8 -90 -3 -106 -15 -174 -28 -161 -6 6 -19 11 -28 11
-17 0 -107 25 -144 40 -19 8 -72 19 -126 26 -34 4 -84 16 -182 43 -43 12 -105
24 -138 28 -33 3 -62 10 -65 14 -3 5 -21 9 -40 9 -19 0 -34 5 -34 10 0 6 -15
10 -34 10 -18 0 -46 4 -62 10 -16 5 -56 14 -89 19 -33 6 -94 17 -135 26 -41 9
-92 19 -113 22 l-39 5 7 47 c7 56 16 297 15 399 -1 78 -9 111 -31 129 -12 9
-150 60 -184 68 -5 1 -17 5 -25 8 -8 4 -25 8 -37 10 -12 2 -26 6 -29 10 -12
12 -74 8 -79 -5 -9 -25 -35 -255 -40 -353 -3 -55 -8 -107 -10 -115 -3 -8 -5
-38 -6 -66 l-2 -51 -41 9 c-23 5 -79 15 -126 22 -154 25 -225 38 -245 46 -11
5 -40 11 -65 14 -25 2 -76 12 -115 20 -38 9 -101 21 -140 26 -38 5 -90 12
-115 15 -25 4 -54 11 -65 15 -11 5 -54 14 -95 19 -41 5 -118 18 -170 29 -52
11 -141 26 -198 33 -57 7 -105 16 -108 20 -3 5 2 61 11 126 17 126 49 545 47
603 -2 49 5 63 26 55 9 -4 46 -14 82 -22z m-5682 -29 c53 -3 126 -9 162 -14
36 -5 72 -10 80 -10 8 0 -2 -11 -22 -25 -20 -14 -39 -25 -42 -25 -9 0 -132
-59 -140 -67 -3 -4 -13 -8 -21 -9 -8 -1 -29 -10 -47 -19 -69 -36 -109 -56
-134 -66 -30 -11 -30 -21 1 106 9 39 21 78 26 87 5 10 9 27 9 39 0 15 4 19 16
15 8 -3 59 -8 112 -12z m8579 -35 c6 -6 22 -16 34 -23 24 -11 33 -38 44 -125
3 -24 7 -46 9 -50 7 -11 18 -219 18 -331 0 -123 -11 -270 -21 -270 -4 0 -24 9
-46 20 -22 11 -45 20 -52 20 -16 0 -16 8 1 150 31 250 24 446 -20 598 -7 24
13 31 33 11z m-7876 -82 c166 -38 438 -52 619 -30 189 22 196 21 277 -40 38
-29 114 -89 168 -132 104 -84 129 -103 213 -161 104 -73 86 -76 -458 -76
l-375 -1 -365 46 c-201 26 -387 53 -415 61 -27 8 -74 17 -102 21 -29 4 -55 10
-58 15 -3 4 -25 11 -50 14 -25 4 -45 11 -45 17 0 5 -9 9 -21 9 -32 0 -121 32
-112 40 4 4 26 13 48 19 22 7 49 16 60 21 11 4 47 18 80 31 33 12 83 32 110
44 28 13 68 28 90 35 22 7 45 17 52 22 7 5 45 23 85 39 77 31 89 31 199 6z
m2029 -32 c0 -9 -11 -41 -24 -73 -38 -94 -39 -97 -38 -104 1 -5 -3 -8 -9 -8
-6 0 -9 -9 -6 -20 3 -10 2 -20 -2 -22 -4 -2 -19 -29 -35 -60 -16 -31 -36 -60
-45 -63 -34 -13 -283 -26 -298 -16 -5 3 -19 23 -32 44 -12 20 -27 35 -31 32
-5 -3 -12 0 -15 6 -4 5 -13 8 -20 6 -6 -3 -19 2 -27 11 -27 30 -58 52 -73 52
-8 0 -20 9 -27 20 -7 11 -20 20 -29 20 -9 0 -23 7 -30 16 -12 15 -64 53 -110
80 -10 5 -28 18 -41 27 -13 9 -31 23 -41 30 -14 10 44 12 300 14 175 2 368 7
428 11 179 15 205 14 205 -3z m1022 -92 c-2 -21 -30 -258 -63 -528 -32 -269
-62 -515 -65 -545 -3 -30 -10 -72 -16 -94 -5 -21 -16 -79 -24 -130 -25 -151
-32 -188 -49 -261 -9 -38 -19 -91 -22 -118 -3 -26 -10 -50 -14 -53 -5 -3 -9
-18 -9 -35 0 -16 -4 -37 -10 -47 -5 -9 -12 -43 -15 -75 -10 -90 -24 -96 -185
-76 -41 4 -138 11 -215 14 -77 3 -159 8 -181 11 -40 5 -42 6 -46 48 -10 88 -7
272 7 384 8 63 12 119 9 124 -3 5 1 43 10 86 9 42 22 122 31 177 8 55 19 123
25 150 6 28 15 70 20 95 5 25 14 65 20 90 11 46 22 91 40 178 6 26 16 86 23
134 6 47 15 90 20 94 4 4 7 21 7 38 1 17 7 60 14 95 13 60 30 86 48 74 5 -2
14 -1 21 4 7 5 100 38 207 72 107 34 210 69 228 77 18 8 39 14 47 14 9 0 23 4
33 9 25 13 74 29 92 30 13 1 15 -7 12 -36z m-3905 -135 c7 -6 19 -8 28 -5 8 4
17 2 20 -3 6 -10 105 -40 133 -40 11 0 27 -6 34 -13 7 -8 29 -17 48 -20 49 -9
105 -23 175 -42 50 -14 62 -22 75 -48 17 -37 67 -73 119 -87 20 -5 153 -23
296 -40 360 -43 508 -34 544 34 13 23 16 23 184 24 95 0 255 3 357 6 102 4
248 9 325 11 165 5 315 14 332 20 22 7 14 -9 -15 -32 -15 -12 -45 -38 -67 -58
-22 -20 -54 -42 -70 -50 -17 -7 -43 -25 -58 -39 -15 -14 -33 -26 -40 -26 -7 0
-32 -14 -57 -31 -25 -17 -101 -58 -170 -91 -187 -89 -221 -105 -265 -119 -22
-7 -44 -16 -50 -20 -5 -3 -37 -14 -70 -23 -33 -10 -76 -22 -95 -27 -19 -6 -42
-12 -50 -13 -8 -2 -33 -6 -55 -10 -22 -4 -60 -11 -85 -17 -78 -16 -187 -26
-324 -29 -81 -2 -447 39 -456 51 -3 3 -18 9 -35 12 -49 9 -210 59 -215 67 -3
4 -22 10 -42 14 -21 4 -38 10 -38 15 0 4 -18 14 -40 21 -22 7 -40 17 -40 22 0
4 -5 8 -12 8 -18 0 -180 94 -235 136 -141 107 -164 158 -178 382 l-6 83 43 -6
c24 -4 49 -11 55 -17z m2991 -90 c110 1 122 -1 122 -17 0 -9 -4 -21 -9 -26 -5
-6 -11 -28 -14 -50 -8 -55 -32 -168 -51 -238 -9 -32 -16 -71 -16 -87 0 -16 -4
-32 -10 -35 -5 -3 -10 -24 -10 -45 0 -21 -4 -41 -9 -44 -5 -3 -11 -23 -14 -43
-3 -21 -11 -58 -17 -83 -6 -25 -17 -79 -23 -120 -6 -41 -13 -77 -17 -80 -11
-8 -52 -379 -54 -487 -2 -57 3 -154 9 -215 6 -62 9 -121 7 -132 -5 -17 -14
-18 -151 -12 -80 4 -153 7 -161 7 -8 0 -51 0 -95 0 -256 2 -317 1 -387 -5 -51
-5 -83 -4 -98 4 -17 9 -54 61 -117 166 -19 32 -79 157 -91 189 -9 24 -38 173
-46 235 -14 101 -20 122 -40 135 -21 13 -319 53 -458 61 -96 5 -475 51 -488
59 -5 3 -37 10 -72 14 -71 10 -195 32 -313 56 -44 9 -97 19 -118 22 -20 3 -40
9 -43 14 -10 17 -64 10 -71 -8 -3 -10 -12 -25 -19 -33 -42 -52 -134 -244 -150
-318 -17 -76 -18 -170 -2 -189 22 -27 -2 -24 -45 6 -56 38 -145 138 -154 171
-3 14 -9 27 -13 30 -4 3 -10 20 -13 39 -6 29 -5 32 11 26 42 -17 54 -17 77 5
19 18 25 34 25 66 0 83 -83 137 -124 82 -16 -22 -17 -19 -12 65 2 49 7 91 10
95 4 3 21 0 39 -7 134 -54 291 -50 355 10 26 25 32 38 32 72 0 58 -25 95 -112
163 -89 71 -163 147 -184 188 -19 39 -33 183 -16 172 7 -4 12 -18 12 -31 0
-25 51 -128 78 -158 42 -47 206 -162 279 -196 29 -14 41 -25 37 -34 -7 -18 48
-82 96 -112 100 -63 344 -128 606 -160 114 -14 422 -15 494 0 122 24 162 43
175 86 4 12 28 22 83 34 108 24 235 68 381 132 129 56 324 155 351 178 8 7 33
22 55 34 53 28 197 132 230 166 18 18 75 103 75 111 0 4 8 25 18 45 14 31 21
37 37 32 11 -4 75 -6 143 -5z m-3075 -440 c185 -169 193 -180 166 -230 -10
-19 -17 -20 -93 -14 -44 4 -85 11 -90 16 -6 6 -18 10 -28 10 -9 0 -42 9 -71
20 l-54 20 5 48 c2 26 10 54 17 62 7 8 15 32 18 53 6 36 28 97 35 97 2 0 45
-37 95 -82z m5802 -302 c114 -18 316 -58 420 -84 94 -24 457 -77 630 -92 180
-16 366 -46 365 -59 -9 -103 -62 -427 -72 -437 -5 -4 -8 -23 -8 -42 0 -38 -18
-111 -32 -126 -4 -6 -8 -17 -8 -25 0 -8 -12 -40 -27 -72 -34 -71 -33 -70 -263
-64 -386 10 -1024 5 -1210 -10 -19 -2 -47 -1 -62 2 l-26 5 15 51 c25 86 44
178 58 282 19 139 6 355 -25 433 -5 12 -6 22 -1 22 5 0 12 -7 15 -16 4 -9 9
-14 13 -10 4 3 12 -5 18 -20 l10 -26 11 23 c18 38 34 94 34 116 0 42 33 163
44 163 6 -1 52 -7 101 -14z m-445 -93 c40 -16 96 -66 116 -104 37 -72 58 -255
46 -404 l-6 -80 -8 65 c-4 36 -11 81 -17 100 -18 66 -32 120 -32 127 -2 40
-154 233 -184 233 -6 0 -27 9 -48 20 -20 11 -51 20 -69 20 -39 0 -29 13 27 34
45 16 120 12 175 -11z m2720 -205 l65 -12 -53 -7 c-35 -5 -62 -15 -79 -31 -26
-24 -63 -96 -83 -163 -7 -22 -16 -48 -21 -57 -5 -10 -9 -31 -9 -47 0 -17 -4
-33 -10 -36 -5 -3 -10 -24 -10 -46 0 -21 -4 -39 -10 -39 -5 0 -10 -18 -10 -39
0 -22 -4 -42 -9 -45 -5 -3 -11 -20 -14 -38 -28 -162 -8 -148 -209 -148 -92 0
-168 3 -168 8 0 4 6 16 14 27 15 23 60 169 71 230 4 22 10 60 15 85 4 25 10
52 13 60 3 8 14 80 22 160 9 81 22 149 28 153 16 11 376 -1 457 -15z m247 -47
c54 -11 145 -31 203 -45 58 -14 148 -32 200 -41 147 -24 140 -21 140 -57 0
-33 -16 -99 -32 -134 -7 -15 -7 -28 1 -42 16 -30 13 -150 -5 -211 -24 -82 -48
-89 -306 -90 -115 0 -208 1 -208 2 0 1 6 54 14 117 16 138 12 268 -12 345 -23
75 -79 152 -122 168 -35 13 34 6 127 -12z m-3106 -385 c12 -44 13 -147 1 -156
-4 -3 -15 -21 -25 -41 -15 -30 -61 -69 -81 -69 -3 0 -10 9 -16 19 -39 75 -2
253 60 286 34 18 48 9 61 -39z m-222 -92 c-6 -27 -11 -80 -10 -119 0 -48 -2
-64 -8 -49 -14 33 -79 77 -104 70 -21 -5 -22 -3 -18 67 3 47 6 63 10 47 6 -22
12 -25 51 -25 39 0 47 4 65 31 11 18 21 31 23 30 1 -2 -3 -25 -9 -52z"/>
<path d="M4890 3139 c-132 -22 -165 -29 -285 -61 -60 -16 -123 -33 -140 -38
-16 -5 -80 -22 -142 -39 -159 -43 -281 -79 -293 -86 -16 -10 39 -103 84 -141
22 -19 64 -41 95 -50 31 -9 65 -20 76 -25 84 -33 616 -44 729 -15 82 22 176
90 176 129 0 7 7 22 15 35 13 17 15 40 10 114 -4 51 -11 103 -17 116 -7 12
-31 33 -54 47 -36 21 -54 25 -121 24 -43 -1 -103 -6 -133 -10z m253 -59 c47
-52 32 -152 -34 -228 -34 -40 -107 -80 -159 -88 -145 -23 -210 -28 -366 -29
-120 0 -189 4 -205 12 -13 6 -37 14 -54 17 -101 17 -192 56 -219 92 -20 29
-13 43 25 49 13 2 65 16 114 30 50 15 104 30 120 35 17 4 82 22 145 40 133 38
252 68 295 75 92 15 150 26 152 29 2 2 38 1 81 0 71 -4 79 -6 105 -34z"/>
</g>
</svg>
