<?xml version="1.0" standalone="no"?>
<!DOCTYPE svg PUBLIC "-//W3C//DTD SVG 20010904//EN"
 "http://www.w3.org/TR/2001/REC-SVG-20010904/DTD/svg10.dtd">
<svg version="1.0" xmlns="http://www.w3.org/2000/svg"
 width="1175.000000pt" height="683.000000pt" viewBox="0 0 1175.000000 683.000000"
 preserveAspectRatio="xMidYMid meet">
<metadata>
Created by potrace 1.16, written by Peter Selinger 2001-2019
</metadata>
<g transform="translate(0.000000,683.000000) scale(0.100000,-0.100000)"
fill="#000000" stroke="none">
<path d="M5770 5854 c-19 -3 -44 -9 -55 -14 -11 -5 -40 -11 -65 -14 -64 -7
-112 -16 -135 -26 -11 -5 -41 -11 -67 -14 -26 -3 -56 -10 -65 -15 -10 -5 -29
-13 -43 -19 -14 -6 -46 -20 -72 -31 -26 -12 -50 -21 -53 -21 -4 0 -19 -9 -34
-19 -14 -10 -44 -24 -66 -30 -23 -6 -49 -17 -60 -25 -11 -9 -30 -16 -42 -16
-12 0 -32 -11 -45 -23 -33 -34 -83 -67 -102 -67 -9 0 -19 -7 -22 -15 -4 -8
-10 -15 -15 -15 -5 0 -50 -27 -101 -60 -51 -33 -89 -60 -85 -60 7 0 105 50
152 78 11 7 31 17 45 22 34 15 71 36 79 47 10 14 80 43 104 43 12 0 31 7 41
15 28 21 528 22 545 1 9 -11 97 -14 452 -18 313 -4 443 -8 451 -16 8 -8 48
-12 106 -12 79 0 93 2 83 14 -8 10 -57 15 -186 21 -96 4 -178 11 -181 16 -3 5
-81 9 -174 9 -102 0 -171 4 -175 10 -4 6 -128 10 -339 10 -192 0 -336 4 -342
9 -5 5 -27 11 -49 13 -33 2 -41 7 -43 26 -2 14 2 22 11 22 13 0 58 19 99 41
10 5 27 9 38 9 11 0 20 4 20 8 0 12 63 32 103 32 20 0 38 4 41 9 3 4 43 12 88
16 46 4 88 11 94 16 21 17 1421 36 1438 19 6 -6 79 -10 182 -10 95 0 175 -4
178 -8 3 -5 121 -12 263 -16 142 -4 263 -12 269 -17 6 -5 61 -9 123 -10 61 -1
114 -6 117 -10 3 -5 47 -9 99 -9 52 0 97 -4 100 -10 3 -5 33 -10 66 -10 56 0
59 -1 59 -25 0 -22 4 -25 39 -25 22 0 43 5 46 10 4 6 58 10 131 10 74 0 124 4
124 10 0 14 -29 18 -185 25 -77 4 -144 11 -149 16 -6 5 -33 9 -61 9 -28 0 -55
4 -61 9 -5 5 -85 13 -179 17 -93 3 -175 10 -180 15 -11 8 -114 15 -340 25 -71
3 -135 10 -142 16 -13 10 -1795 22 -1873 12z"/>
<path d="M9405 5621 c9 -15 92 -59 123 -66 16 -3 39 -15 50 -25 12 -11 25 -20
30 -20 5 0 19 -11 32 -25 13 -14 29 -25 35 -25 6 0 22 -11 35 -25 13 -14 29
-25 37 -25 7 0 13 -4 13 -8 0 -4 38 -36 85 -71 46 -35 117 -97 157 -137 40
-41 77 -74 82 -74 14 0 66 -51 66 -65 0 -6 38 -48 85 -95 47 -47 85 -89 85
-96 0 -25 73 -71 150 -94 25 -8 50 -17 55 -20 6 -4 26 -10 46 -14 78 -14 95
-30 150 -144 29 -59 58 -114 65 -122 30 -37 57 -267 36 -314 -4 -12 -18 -41
-30 -66 -12 -25 -22 -52 -22 -61 0 -24 -60 -77 -120 -105 -8 -4 -37 -25 -64
-46 -41 -32 -56 -38 -95 -38 -26 0 -52 5 -57 10 -12 12 -30 6 -111 -32 -56
-27 -120 -87 -128 -120 -4 -14 -15 -34 -26 -44 -10 -9 -19 -23 -19 -29 0 -7
-7 -18 -15 -25 -8 -7 -15 -19 -15 -26 0 -8 -9 -33 -19 -57 -11 -23 -22 -55
-25 -70 -4 -16 -22 -62 -41 -104 -19 -41 -35 -85 -35 -98 0 -13 -4 -26 -9 -30
-6 -3 -13 -27 -16 -53 -3 -26 -10 -55 -16 -64 -5 -10 -9 -27 -9 -37 0 -11 -4
-23 -10 -26 -5 -3 -10 -17 -10 -31 0 -13 -4 -32 -9 -42 -5 -9 -12 -25 -15 -34
-8 -25 -43 -23 -51 3 -13 40 9 155 41 214 6 11 14 40 18 64 7 43 6 44 -12 28
-10 -9 -34 -20 -53 -23 -19 -4 -45 -15 -58 -26 l-24 -18 42 4 c23 2 45 7 49
11 4 5 0 5 -8 0 -12 -6 -12 -5 -3 5 6 7 16 9 22 6 14 -9 14 -43 1 -51 -5 -3
-10 -15 -10 -25 0 -10 -5 -22 -12 -26 -7 -5 -8 -2 -3 7 5 8 4 11 0 6 -5 -4 -8
-26 -6 -49 1 -23 -1 -38 -7 -34 -5 3 -7 -6 -4 -20 2 -14 0 -35 -6 -47 -6 -12
-13 -35 -14 -52 -2 -16 -8 -29 -14 -28 -7 1 -10 -6 -6 -19 4 -18 2 -20 -25
-16 -23 3 -30 1 -26 -9 3 -9 -3 -13 -20 -13 -14 0 -29 -5 -32 -11 -4 -6 -22
-9 -40 -7 -19 1 -38 -2 -42 -6 -5 -5 -2 -6 6 -1 10 6 12 4 6 -4 -4 -7 -16 -11
-26 -8 -12 3 -17 1 -13 -5 5 -7 -3 -9 -20 -6 -14 3 -29 1 -33 -5 -4 -6 -1 -7
7 -2 9 6 11 4 5 -4 -4 -7 -20 -11 -35 -9 -20 3 -27 1 -23 -9 3 -9 -3 -13 -20
-13 -14 0 -29 -4 -32 -10 -3 -5 -19 -10 -36 -10 -16 0 -29 -4 -29 -9 0 -5 -18
-11 -39 -15 -21 -3 -41 -12 -44 -20 -3 -9 -14 -12 -25 -9 -11 3 -22 -1 -25
-10 -3 -9 -14 -13 -30 -10 -14 3 -28 0 -31 -6 -4 -6 -18 -11 -32 -11 -13 0
-24 -5 -24 -11 0 -7 -12 -9 -30 -7 -17 3 -34 0 -37 -5 -4 -6 -1 -7 8 -2 11 6
12 5 2 -5 -19 -20 -24 -7 -17 39 5 29 11 41 20 37 9 -3 11 0 7 11 -4 10 -2 14
4 10 7 -5 9 1 5 15 -3 12 -1 19 5 15 5 -3 8 6 5 22 -2 16 1 32 9 36 8 6 10 4
4 -5 -5 -8 -4 -11 2 -7 5 3 8 19 5 35 -2 16 1 33 7 36 6 4 11 18 11 31 0 28
47 65 83 65 14 0 27 5 29 11 2 6 23 12 46 13 24 2 46 7 50 11 4 5 1 5 -7 0
-10 -6 -12 -4 -6 4 4 7 15 11 24 8 11 -3 18 1 18 10 0 19 -62 11 -86 -11 -9
-8 -29 -17 -46 -21 -16 -4 -40 -12 -53 -18 -17 -8 -28 -8 -40 0 -15 9 -17 34
-20 188 -2 132 1 181 10 193 7 8 16 47 20 86 4 39 10 90 14 114 5 35 4 41 -9
36 -9 -3 -17 -24 -20 -52 -16 -122 -20 -148 -30 -160 -6 -7 -10 -98 -11 -225
0 -223 -3 -236 -47 -237 -25 0 -80 -31 -74 -41 8 -12 45 -12 45 1 0 6 7 10 15
10 8 0 15 5 15 10 0 6 5 10 10 10 14 0 13 -47 -2 -56 -7 -5 -8 -3 -3 6 5 8 4
11 -2 7 -6 -4 -8 -17 -6 -31 3 -13 -1 -27 -8 -31 -8 -6 -10 -4 -4 5 5 8 4 11
-2 7 -6 -4 -8 -19 -5 -33 3 -19 1 -25 -6 -20 -8 5 -10 1 -6 -9 9 -22 -25 -127
-38 -118 -7 3 -8 1 -4 -6 12 -18 -13 -41 -45 -41 -16 0 -29 -5 -29 -11 0 -7
-12 -10 -29 -7 -22 3 -28 1 -23 -10 4 -12 -2 -14 -26 -10 -17 2 -29 1 -26 -3
7 -12 -19 -17 -37 -8 -12 6 -21 3 -30 -9 -13 -16 -12 -16 6 -2 18 14 19 14 7
-2 -7 -9 -32 -19 -55 -23 -39 -6 -69 -15 -109 -36 -10 -5 -26 -9 -37 -9 -10 0
-21 -6 -24 -14 -4 -9 -14 -12 -26 -9 -12 3 -21 1 -21 -4 0 -6 -10 -8 -23 -6
-14 3 -29 -2 -36 -11 -8 -9 -24 -16 -37 -16 -13 0 -24 -5 -24 -11 0 -7 -12
-10 -29 -7 -18 3 -27 0 -24 -5 4 -6 -5 -8 -21 -5 -14 3 -29 1 -33 -5 -4 -6 -1
-7 7 -2 9 6 11 4 5 -4 -4 -7 -18 -11 -31 -8 -13 2 -21 1 -19 -3 6 -10 -20 -20
-50 -20 -13 0 -27 -5 -31 -11 -3 -6 -17 -9 -30 -6 -14 2 -27 0 -31 -6 -4 -6
-1 -7 7 -2 9 6 11 4 5 -4 -4 -7 -18 -11 -31 -8 -14 2 -21 0 -17 -6 3 -6 -6 -8
-26 -5 -18 3 -35 0 -38 -5 -4 -6 -1 -7 7 -2 9 5 11 4 6 -3 -4 -7 -15 -12 -25
-12 -9 0 -21 -4 -27 -10 -5 -5 -33 -11 -61 -12 -28 -2 -50 -7 -50 -12 1 -6 -7
-11 -18 -13 -11 -2 -29 -8 -40 -13 -67 -29 -150 -51 -136 -37 6 6 11 26 11 45
0 23 4 33 13 29 9 -3 11 6 9 35 -5 46 20 82 50 72 10 -3 18 -1 18 5 0 6 9 11
19 11 10 0 21 6 24 14 4 9 14 12 26 9 13 -3 21 -1 21 6 0 7 5 9 10 6 6 -3 10
-1 10 5 0 6 5 8 10 5 6 -3 10 -1 10 4 0 6 7 11 17 11 9 0 40 12 69 26 32 16
64 24 78 22 15 -3 24 -1 23 6 -1 6 6 10 15 10 10 -1 15 3 11 9 -4 6 0 8 11 4
11 -5 15 -3 10 5 -5 7 1 9 20 6 14 -3 29 -1 33 5 4 6 1 7 -7 2 -9 -6 -11 -4
-6 4 5 7 15 10 23 7 8 -3 11 -1 8 4 -3 6 2 10 13 10 10 0 38 9 62 21 23 11 53
19 65 16 18 -3 22 0 17 11 -4 11 0 14 14 10 14 -4 20 0 20 13 0 25 -11 24 -71
-6 -27 -13 -92 -41 -142 -62 -51 -20 -93 -41 -93 -45 0 -4 -13 -8 -28 -8 -16
0 -37 -7 -48 -15 -10 -8 -27 -15 -36 -15 -10 0 -32 -8 -51 -19 -18 -10 -48
-22 -65 -26 -18 -3 -34 -11 -37 -16 -4 -5 -17 -9 -30 -9 -13 0 -27 -4 -30 -10
-3 -5 -21 -10 -40 -10 l-33 0 -4 83 c-4 108 11 377 23 399 5 10 9 53 9 95 0
67 -2 75 -14 63 -11 -11 -17 -55 -22 -162 -4 -82 -11 -148 -15 -148 -5 0 -9
-40 -9 -89 0 -50 -4 -93 -10 -96 -12 -8 -13 -62 -1 -69 12 -8 12 -244 0 -251
-5 -4 -9 -21 -9 -40 0 -28 -5 -35 -31 -44 -18 -6 -41 -11 -52 -11 -11 0 -28
-6 -36 -13 -9 -8 -43 -22 -76 -31 -33 -10 -70 -22 -83 -29 -45 -21 -45 -6 -11
243 19 130 11 380 -11 380 -4 0 -10 21 -14 48 -7 49 -27 117 -39 128 -4 4 -7
17 -7 29 0 11 -11 36 -25 55 -14 19 -25 39 -25 45 0 6 -39 49 -87 97 -96 94
-91 92 -242 104 -39 4 -67 2 -74 -5 -6 -6 -26 -11 -44 -11 -18 0 -59 -13 -90
-30 -31 -16 -63 -30 -71 -30 -9 0 -48 -32 -88 -70 -39 -38 -78 -70 -86 -70 -8
0 -20 11 -26 24 -6 13 -23 27 -38 30 -15 4 -39 16 -52 27 -14 10 -29 19 -34
19 -6 0 -23 10 -38 22 -15 13 -37 30 -50 38 -13 8 -35 24 -49 35 -40 30 -62
44 -104 63 -37 17 -38 18 -33 62 2 25 8 61 11 80 6 29 5 33 -6 23 -15 -15 -60
-17 -74 -5 -32 27 -216 45 -230 22 -4 -6 22 -10 70 -10 41 0 83 -4 93 -9 9 -5
32 -16 51 -23 l33 -13 -5 -105 c-4 -85 -9 -112 -27 -142 -12 -21 -26 -38 -31
-38 -5 0 -9 -6 -9 -13 0 -7 -13 -26 -30 -42 -16 -16 -30 -35 -30 -42 0 -19
-127 -137 -158 -146 -15 -5 -36 -12 -47 -17 -11 -5 -38 -12 -60 -15 -81 -12
-192 -26 -255 -31 -36 -3 -69 -9 -75 -14 -5 -4 -76 -11 -158 -15 -81 -4 -150
-11 -153 -16 -3 -5 -34 -9 -70 -9 -64 0 -64 0 -64 29 0 16 7 34 15 41 8 7 15
18 15 24 0 7 14 25 30 41 17 16 30 34 30 42 0 7 9 17 20 23 11 6 20 17 20 24
0 7 19 33 43 57 23 25 59 66 80 92 21 26 57 56 80 67 58 28 80 42 95 63 7 9
20 17 28 17 8 0 14 5 14 10 0 6 7 10 16 10 9 0 30 6 47 14 113 50 147 68 147
76 0 5 25 12 55 15 30 4 58 11 61 16 3 5 25 9 49 9 24 0 47 5 50 10 4 6 -13
10 -45 10 -27 0 -59 -4 -70 -10 -11 -5 -29 -14 -40 -20 -11 -5 -28 -10 -37
-10 -10 0 -27 -7 -37 -15 -11 -8 -30 -15 -42 -15 -13 0 -26 -4 -29 -10 -3 -5
-17 -10 -31 -10 -13 0 -24 -4 -24 -10 0 -5 -10 -10 -22 -10 -11 0 -35 -10 -52
-23 -17 -13 -48 -31 -68 -40 -20 -10 -40 -22 -43 -27 -3 -6 -30 -10 -59 -10
-59 0 -85 -16 -59 -35 28 -21 6 -63 -85 -158 -54 -57 -99 -115 -117 -152 -16
-33 -36 -64 -42 -68 -7 -4 -13 -17 -13 -27 0 -11 -3 -20 -7 -20 -5 0 -16 -14
-26 -31 l-17 -31 147 7 c82 4 152 11 158 16 5 5 37 9 71 9 35 0 66 5 69 10 3
6 30 10 60 10 30 0 56 4 59 9 3 4 58 11 123 15 74 5 124 13 137 22 11 8 35 14
53 14 17 0 34 4 37 9 3 4 21 11 39 14 24 4 52 24 100 72 37 37 67 70 67 73 0
3 17 26 38 51 56 68 82 107 82 125 0 9 5 16 10 16 6 0 10 12 10 26 0 26 1 26
50 22 32 -3 59 -13 73 -26 12 -11 34 -24 50 -27 15 -4 27 -11 27 -15 0 -4 15
-17 33 -29 17 -11 41 -26 52 -33 11 -7 39 -25 63 -40 24 -16 47 -28 52 -28 13
0 22 -54 15 -93 -4 -20 -18 -45 -31 -58 -13 -12 -24 -28 -24 -34 0 -6 -16 -26
-35 -45 -19 -19 -35 -39 -35 -46 0 -7 -11 -25 -24 -41 -13 -15 -27 -39 -31
-53 -4 -14 -15 -34 -24 -45 -18 -21 -42 -70 -86 -175 -15 -36 -31 -73 -36 -82
-5 -10 -9 -26 -9 -35 0 -10 -7 -31 -15 -47 -8 -15 -15 -37 -15 -47 0 -11 -4
-19 -10 -19 -5 0 -10 -10 -10 -23 0 -13 -11 -45 -24 -71 -13 -26 -27 -68 -31
-94 -4 -26 -10 -51 -13 -57 -14 -21 -32 -81 -32 -107 0 -16 -4 -28 -9 -28 -13
0 -32 -139 -38 -268 -3 -95 -7 -114 -21 -118 -9 -3 -26 -10 -37 -14 -20 -9
-27 -10 -177 -32 -47 -7 -90 -16 -94 -20 -4 -5 -23 -8 -43 -8 -20 0 -45 -7
-55 -15 -28 -21 -369 -21 -406 0 -18 10 -61 14 -150 15 -69 0 -142 5 -164 9
-21 5 -139 13 -262 17 -124 4 -227 11 -230 15 -3 5 -63 9 -134 9 -71 0 -131 4
-134 9 -3 4 -23 11 -44 14 -22 4 -48 17 -62 32 -13 14 -28 25 -33 25 -5 0 -20
9 -34 20 -16 12 -41 20 -64 20 -22 0 -39 4 -39 9 0 5 -24 12 -53 15 -109 11
-152 18 -162 26 -5 4 -53 11 -105 15 -52 4 -104 13 -115 20 -21 13 -35 15
-216 37 -58 7 -112 18 -120 25 -8 6 -60 14 -116 18 -57 4 -103 11 -103 16 0 5
-22 9 -49 9 -28 0 -52 4 -55 9 -3 5 -36 12 -73 16 -36 4 -76 12 -87 18 -48 24
-57 27 -75 27 -11 0 -22 4 -25 9 -3 5 -30 12 -61 16 -30 3 -57 11 -60 16 -4 5
-19 9 -35 9 -16 0 -32 5 -35 10 -3 6 -16 10 -28 10 -13 0 -32 6 -43 14 -11 8
-41 17 -67 21 -26 4 -50 11 -53 16 -3 5 -20 9 -38 9 -18 0 -36 3 -40 7 -10 11
-79 33 -102 33 -11 0 -25 5 -32 12 -11 11 -22 9 -84 -23 -45 -23 -111 -10
-213 41 -55 27 -109 50 -121 50 -11 0 -25 5 -32 12 -6 6 -35 23 -64 38 -56 29
-75 65 -44 82 9 5 16 14 16 20 0 17 -57 -40 -63 -63 -4 -13 3 -23 21 -32 47
-23 76 -41 105 -64 16 -13 35 -23 43 -23 8 0 25 -11 37 -24 21 -22 100 -56
132 -56 8 0 15 -4 15 -9 0 -5 9 -11 20 -14 11 -3 24 -17 30 -31 5 -15 17 -29
25 -32 8 -4 15 -14 15 -24 0 -10 7 -20 15 -24 8 -3 15 -12 15 -20 0 -11 44
-55 96 -96 6 -4 32 -12 58 -15 25 -4 49 -11 52 -16 3 -5 18 -9 34 -9 16 0 32
-5 35 -10 3 -5 25 -10 49 -10 23 0 46 -3 50 -7 4 -5 53 -14 109 -21 159 -19
181 -23 191 -33 16 -14 169 -11 191 4 11 7 36 19 55 27 19 7 51 29 71 48 l37
34 96 -7 c53 -4 99 -11 102 -16 3 -5 27 -9 54 -9 27 0 52 -5 55 -10 3 -5 31
-10 61 -10 30 0 54 -4 54 -8 0 -5 48 -14 108 -21 170 -18 196 -22 207 -32 5
-5 32 -9 60 -9 28 0 55 -4 60 -9 6 -5 30 -11 55 -14 181 -22 227 -33 265 -62
20 -17 59 -42 85 -56 47 -26 55 -27 281 -34 163 -5 240 -12 254 -21 12 -7 54
-13 105 -13 47 -1 175 -6 285 -12 185 -10 617 -6 745 7 l55 5 22 -43 c12 -24
25 -61 29 -83 3 -22 19 -53 33 -70 15 -16 45 -56 66 -87 31 -48 44 -59 74 -64
20 -4 42 -12 50 -18 7 -6 19 -11 25 -11 6 -1 22 -6 36 -12 52 -24 68 -27 165
-40 170 -21 190 -25 199 -34 6 -5 31 -9 57 -9 26 0 51 -5 54 -10 8 -13 152
-13 160 0 3 6 17 10 31 10 13 0 42 11 64 25 22 14 44 25 49 25 15 0 221 250
221 268 0 13 32 85 41 92 4 3 10 16 14 30 4 14 16 37 26 52 11 14 19 34 19 45
0 10 9 31 20 48 11 16 22 49 26 72 3 24 10 46 15 49 5 3 9 17 9 32 0 15 7 36
15 46 8 11 15 32 15 47 0 15 4 30 9 33 5 3 12 40 16 82 l7 76 40 -5 c22 -3 50
-15 63 -27 25 -23 79 -30 97 -12 7 7 22 12 35 12 13 0 23 4 23 9 0 5 16 12 36
15 19 4 51 16 70 27 19 10 40 19 46 19 12 0 203 82 259 111 20 10 44 19 54 19
9 0 29 8 43 19 15 10 47 22 72 26 24 4 51 11 60 16 23 13 168 59 185 59 9 0
24 4 35 10 11 6 29 15 40 20 11 5 27 10 35 10 8 0 23 4 33 9 32 17 98 42 115
45 9 1 23 8 29 14 7 7 22 12 34 12 13 0 25 4 28 9 3 4 24 11 46 15 23 3 51 11
63 18 48 24 57 28 76 28 11 0 22 4 25 9 4 5 30 12 59 16 28 4 57 11 62 15 9 7
36 13 113 27 18 3 35 9 38 14 3 5 18 9 34 9 16 0 31 4 34 9 3 5 37 12 76 16
39 4 73 11 76 16 3 5 18 9 33 9 15 0 32 5 38 11 6 6 21 12 34 14 75 11 106 18
124 25 11 5 38 11 60 14 22 3 55 8 73 12 26 5 38 2 57 -16 13 -12 26 -32 29
-43 7 -26 70 -75 106 -83 14 -3 35 -10 46 -16 12 -5 31 -7 43 -3 13 4 27 1 36
-8 10 -10 50 -17 135 -22 66 -4 120 -11 120 -16 0 -5 9 -9 20 -9 11 0 20 5 20
10 0 6 9 10 21 10 25 0 61 18 72 36 4 8 14 14 22 14 8 0 28 20 46 45 18 25 36
45 40 45 4 0 17 19 30 43 12 23 28 53 35 67 8 14 14 30 14 37 0 7 9 28 20 48
11 20 20 44 20 53 0 10 4 22 10 28 5 5 12 42 16 82 4 40 11 75 15 78 5 3 9 25
9 48 0 48 15 84 51 120 13 13 38 43 54 66 17 23 44 58 60 78 40 49 52 77 59
137 12 99 23 145 38 162 9 10 19 45 23 78 4 33 13 67 20 75 14 17 24 54 32
116 4 33 0 50 -20 80 -17 26 -28 61 -32 104 -4 36 -13 79 -21 96 -10 20 -17
93 -23 225 -7 181 -9 197 -29 217 -12 12 -22 28 -22 36 0 8 -3 16 -7 18 -5 2
-21 30 -38 63 -63 128 -84 153 -139 170 -28 9 -60 20 -71 25 -11 5 -38 14 -60
21 -22 7 -44 17 -49 21 -6 4 -19 8 -31 8 -21 0 -105 77 -105 96 0 6 -28 39
-63 75 -34 35 -70 76 -80 92 -10 15 -23 27 -30 27 -7 0 -42 29 -77 65 -35 36
-68 65 -72 65 -4 0 -35 26 -69 58 -33 31 -77 67 -97 79 -21 12 -50 34 -67 49
-53 46 -107 84 -120 84 -7 0 -15 7 -19 15 -3 8 -18 20 -33 26 -38 16 -114 49
-135 60 -23 12 -41 12 -33 0z m1436 -1687 c5 -6 11 -37 13 -68 2 -32 8 -61 12
-64 4 -4 4 0 0 8 -4 8 2 4 13 -10 23 -28 25 -36 11 -45 -5 -3 -10 -21 -10 -40
0 -19 -4 -37 -10 -40 -5 -3 -10 -20 -10 -36 0 -17 -4 -28 -8 -25 -5 3 -7 -7
-4 -22 2 -20 -3 -33 -20 -47 l-23 -20 20 25 20 25 -21 -18 c-13 -11 -20 -26
-17 -36 3 -11 -1 -22 -8 -26 -8 -6 -10 -4 -4 6 5 8 4 11 0 6 -5 -4 -11 -19
-13 -34 -3 -25 -59 -102 -74 -103 -5 0 -9 42 -10 93 -3 147 -4 156 -13 164 -4
5 -5 1 -1 -7 4 -8 0 -6 -8 5 -9 11 -14 26 -11 33 3 8 1 20 -5 26 -5 7 -10 26
-12 43 -1 22 -6 29 -17 25 -10 -4 -13 -1 -8 12 5 11 3 15 -5 10 -7 -5 -9 -2
-6 8 4 8 2 21 -4 29 -8 11 -8 10 -4 -5 6 -16 4 -17 -9 -6 -14 11 -12 15 15 32
17 10 35 16 39 13 5 -2 8 2 7 11 0 9 8 21 19 28 11 6 39 28 62 49 39 34 54 42
76 38 4 0 6 2 6 7 -1 4 0 12 1 17 2 6 5 -3 7 -20 3 -16 9 -35 14 -41z m-382
-150 c17 -8 29 -20 26 -25 -4 -5 0 -6 8 -3 24 9 77 -44 77 -77 0 -19 4 -28 11
-23 7 4 10 -6 8 -29 -2 -20 1 -40 5 -44 5 -5 6 -2 1 6 -5 9 -4 12 3 7 15 -9
16 -86 1 -86 -5 0 -7 -5 -3 -12 6 -9 9 -9 12 0 10 31 22 6 22 -48 0 -72 -15
-79 -25 -12 -4 26 -11 53 -17 59 -6 7 -8 19 -5 28 4 8 1 17 -5 21 -7 5 -8 2
-3 -6 6 -9 4 -11 -4 -5 -7 4 -11 15 -8 25 3 11 -1 17 -12 16 -9 -1 -17 8 -19
20 -2 12 -14 27 -27 34 -13 7 -22 17 -19 22 3 4 -6 8 -20 8 -14 0 -35 9 -46
20 -16 16 -33 20 -90 20 -59 0 -68 2 -63 16 3 8 12 13 19 10 15 -6 28 11 29
34 0 10 10 15 32 15 17 0 29 3 27 7 -5 7 14 16 37 17 9 1 30 -6 48 -15z m17
-225 c29 -28 43 -50 40 -61 -2 -10 1 -21 6 -25 7 -4 8 -1 4 8 -4 8 1 3 12 -10
20 -25 32 -71 32 -128 0 -18 5 -33 10 -33 6 0 10 -77 10 -211 0 -137 -3 -208
-10 -204 -6 4 -10 -13 -10 -45 0 -28 -4 -49 -9 -46 -4 3 -6 -6 -3 -20 4 -23
-2 -42 -29 -96 -5 -10 -9 -27 -9 -37 0 -25 -20 -71 -32 -71 -4 0 -8 -7 -8 -15
0 -8 -5 -15 -11 -15 -6 0 -9 -9 -6 -20 3 -13 0 -20 -9 -20 -8 0 -14 -6 -12
-13 5 -21 -134 -159 -155 -153 -9 2 -15 0 -11 -5 6 -10 -58 -12 -104 -3 -18 4
-34 14 -37 25 -4 11 -10 17 -15 14 -13 -8 -33 34 -27 55 3 14 1 17 -11 13 -12
-5 -14 -1 -10 15 4 12 1 25 -4 29 -7 4 -8 1 -3 -7 6 -9 4 -11 -4 -5 -7 4 -11
16 -8 26 3 10 0 22 -5 26 -7 4 -8 1 -3 -7 6 -9 4 -11 -4 -5 -7 4 -11 18 -8 31
2 13 0 21 -4 18 -5 -3 -9 11 -9 30 0 19 -4 38 -10 41 -12 8 -14 391 -2 399 5
3 12 42 15 87 4 46 12 87 18 93 9 8 10 7 4 -3 -5 -9 -4 -12 2 -8 5 3 8 21 5
38 -4 25 -2 31 10 27 11 -5 13 1 10 22 -2 15 2 31 9 35 8 6 10 4 4 -6 -5 -8
-5 -11 0 -7 4 4 9 23 11 42 3 38 31 89 44 81 5 -3 6 3 3 13 -2 11 7 27 24 42
l28 25 -25 -30 -24 -30 24 22 c13 13 25 33 25 45 0 20 8 26 95 75 16 9 46 13
83 10 52 -3 61 -7 103 -48z m-3591 -498 c3 -5 18 -12 34 -16 16 -3 36 -14 43
-23 12 -16 11 -16 -7 -2 -18 14 -19 14 -7 -1 8 -11 21 -15 34 -11 14 3 19 1
14 -6 -5 -8 -2 -10 9 -6 19 8 48 -15 41 -32 -3 -8 0 -11 8 -8 17 6 86 -73 86
-98 0 -10 5 -18 10 -18 6 0 10 -9 10 -19 0 -11 5 -23 11 -27 6 -3 9 -17 6 -30
-2 -14 0 -27 6 -31 6 -4 7 -1 2 7 -6 9 -4 11 4 5 7 -4 11 -18 8 -31 -2 -13 0
-21 4 -18 13 8 31 -73 28 -127 -2 -27 1 -52 6 -56 4 -5 5 -1 0 7 -6 12 -5 12
5 3 7 -7 11 -29 9 -56 -2 -25 -1 -43 3 -41 14 9 19 -38 8 -66 -7 -16 -10 -62
-8 -108 2 -44 1 -79 -2 -77 -3 2 -6 -5 -6 -15 0 -10 4 -16 8 -14 15 9 8 -23
-7 -36 -10 -9 -15 -31 -15 -72 0 -32 -4 -57 -8 -54 -4 2 -6 -10 -4 -28 4 -35
-16 -60 -40 -51 -17 7 -17 47 0 53 18 6 17 332 0 332 -10 0 -12 18 -10 65 3
46 0 69 -11 79 -8 8 -17 43 -21 78 -3 35 -11 65 -16 66 -6 2 -10 14 -10 27 0
13 -4 27 -10 30 -5 3 -10 17 -10 30 0 13 -5 27 -11 31 -6 3 -9 15 -6 25 3 12
1 17 -6 12 -6 -4 -8 2 -5 15 4 12 1 25 -4 29 -7 4 -8 1 -4 -8 4 -8 -2 -3 -13
11 -11 14 -19 30 -16 37 5 13 -19 36 -28 26 -4 -3 -24 13 -45 36 -41 45 -83
71 -113 71 -10 0 -21 5 -25 12 -5 7 -2 8 7 3 8 -5 11 -5 8 -2 -3 4 -53 9 -110
11 -57 2 -112 7 -121 11 -23 9 -13 25 14 25 12 0 30 7 40 17 13 12 42 17 114
19 54 2 100 7 103 10 3 4 0 4 -8 -1 -9 -5 -12 -4 -7 3 9 14 23 15 31 3z m-55
-221 c0 -5 8 -10 18 -10 26 0 136 -115 129 -134 -3 -8 -1 -18 5 -22 7 -4 8 -3
4 4 -4 7 -5 12 -1 12 14 0 66 -136 63 -166 -3 -23 0 -30 9 -27 7 3 13 -2 13
-12 0 -9 -4 -14 -8 -11 -11 7 -8 -31 3 -41 4 -5 5 -1 1 7 -4 8 -1 7 7 -3 11
-13 17 -57 22 -145 10 -162 -1 -493 -17 -507 -8 -7 -9 -6 -3 5 5 8 4 12 0 7
-5 -4 -8 -26 -6 -48 1 -22 -2 -45 -7 -52 -5 -7 -12 -32 -15 -57 -9 -72 -19
-110 -30 -117 -6 -4 -7 -1 -2 7 5 8 4 11 -2 7 -5 -3 -8 -20 -5 -38 3 -20 1
-29 -5 -26 -6 4 -8 -3 -6 -17 3 -14 -1 -27 -9 -31 -7 -5 -10 -5 -6 0 4 4 3 14
-3 21 -12 15 -2 104 12 104 5 0 9 13 9 29 0 39 10 62 23 54 5 -3 7 -1 3 5 -10
17 6 152 21 167 9 10 13 42 13 110 0 53 4 94 8 91 4 -2 4 30 0 72 -4 42 -7
112 -7 155 2 55 -2 82 -12 90 -10 9 -10 8 1 -8 13 -19 13 -19 -4 -4 -13 12
-18 34 -19 86 -2 56 -5 69 -16 65 -10 -4 -13 0 -9 16 4 12 1 25 -4 29 -7 4 -8
1 -3 -7 6 -9 4 -11 -4 -6 -7 5 -11 22 -9 39 2 21 -1 32 -10 32 -7 0 -20 12
-30 26 -29 44 -78 88 -106 95 -14 3 -29 11 -33 17 -4 6 -1 7 8 2 8 -5 11 -5 7
-1 -10 12 -137 13 -135 1 1 -5 -10 -11 -25 -13 -14 -2 -32 -10 -38 -18 -7 -8
-18 -14 -25 -14 -7 0 -16 -7 -19 -16 -4 -9 -9 -14 -13 -10 -3 3 -15 -8 -25
-25 -11 -19 -24 -29 -33 -25 -8 3 -12 0 -10 -7 3 -7 -8 -26 -23 -42 -15 -17
-22 -24 -17 -15 9 13 8 13 -7 2 -10 -8 -14 -20 -11 -29 4 -11 2 -14 -5 -9 -8
4 -10 2 -6 -7 3 -8 0 -18 -6 -22 -6 -4 -15 -17 -21 -28 -5 -12 -22 -44 -38
-72 -17 -27 -30 -58 -30 -68 -1 -10 -5 -16 -10 -13 -5 4 -7 -2 -4 -13 3 -10
-1 -22 -8 -26 -8 -6 -10 -4 -4 5 5 8 4 11 -3 7 -5 -4 -8 -16 -5 -27 3 -11 1
-26 -5 -33 -5 -6 -13 -38 -17 -70 -4 -31 -12 -60 -18 -64 -6 -4 -7 -1 -2 8 5
8 4 11 -1 6 -4 -4 -7 -23 -6 -42 2 -18 -2 -36 -9 -41 -8 -5 -10 -3 -4 7 5 8 4
11 0 6 -5 -4 -7 -34 -6 -66 1 -34 -2 -62 -8 -66 -6 -3 -11 -39 -11 -81 0 -41
-3 -73 -7 -71 -5 3 -4 -59 0 -136 4 -78 6 -156 5 -173 -3 -21 0 -30 8 -27 11
4 20 -41 27 -133 1 -22 6 -30 16 -26 10 4 13 -2 9 -26 -3 -19 -1 -29 5 -25 6
4 8 -3 5 -15 -4 -12 -1 -25 4 -29 7 -4 8 -1 3 7 -6 9 -4 11 4 6 7 -5 10 -15 6
-24 -3 -9 -3 -13 1 -9 11 11 63 -43 57 -59 -3 -9 2 -14 14 -14 11 0 28 -9 38
-20 10 -11 24 -20 31 -20 7 0 16 -5 20 -12 5 -7 2 -8 -7 -3 -8 5 -11 5 -7 1 9
-11 157 -13 155 -2 -1 4 17 15 41 24 23 9 42 22 42 29 0 7 6 13 13 13 8 0 20
11 27 25 7 14 20 24 29 23 10 -2 16 5 16 17 0 13 7 20 19 20 13 0 20 8 21 23
1 13 12 33 26 45 l23 22 -19 -25 -20 -25 22 19 c13 10 20 23 17 27 -7 11 45
119 57 119 5 0 6 7 3 15 -4 8 -1 15 6 15 7 0 10 8 7 20 -3 11 -2 20 2 20 4 0
13 12 19 26 7 14 16 23 20 20 12 -7 14 -74 2 -81 -5 -3 -10 -16 -10 -27 0 -12
-3 -18 -7 -14 -5 4 -13 -14 -18 -41 -8 -34 -17 -51 -33 -58 -15 -6 -21 -16
-18 -27 2 -10 0 -18 -5 -18 -5 0 -9 -9 -9 -20 0 -10 -6 -23 -12 -27 -14 -9
-33 -36 -47 -68 -5 -11 -24 -33 -42 -50 l-34 -30 25 30 25 30 -26 -23 c-19
-16 -25 -30 -21 -44 4 -17 2 -20 -11 -15 -12 4 -14 2 -10 -10 5 -13 2 -15 -15
-11 -20 6 -52 -17 -43 -31 5 -8 -50 -39 -71 -40 -9 -1 -18 -6 -20 -12 -2 -7
-33 -11 -80 -11 -62 0 -82 4 -106 21 -17 11 -34 21 -39 21 -18 0 -54 48 -51
66 2 14 -2 18 -16 16 -14 -3 -17 1 -12 14 4 10 4 15 0 11 -8 -8 -64 98 -64
120 0 7 -4 13 -9 13 -4 0 -12 28 -15 62 -4 35 -12 66 -18 69 -7 5 -10 35 -9
77 2 55 -1 71 -13 75 -24 9 -24 315 0 324 12 4 15 21 13 85 -1 48 2 83 9 87 5
3 13 43 17 89 4 45 12 85 16 88 5 3 9 20 9 39 0 19 5 37 12 41 7 5 8 3 3 -6
-5 -8 -4 -11 2 -7 6 4 8 19 5 33 -4 21 -2 26 9 22 12 -5 14 2 11 30 -3 22 -1
32 6 28 6 -3 8 1 5 13 -2 10 5 38 16 62 12 23 21 49 21 56 0 8 4 12 9 9 5 -4
7 2 4 12 -2 11 3 25 14 33 17 13 17 13 3 -6 -14 -18 -14 -19 1 -7 11 8 15 21
11 34 -3 13 -1 19 5 15 7 -4 9 0 6 11 -2 10 5 26 16 36 12 11 21 25 21 31 0 7
18 33 40 58 22 25 40 49 40 54 0 5 24 33 54 62 36 35 60 52 70 48 8 -3 18 -1
22 5 5 7 2 8 -6 3 -9 -5 -11 -4 -6 3 4 7 14 12 22 12 8 0 14 5 14 10 0 6 9 10
19 10 11 0 23 5 26 10 3 6 40 10 81 10 43 0 74 -4 74 -10z m3009 -94 c-3 -34
-1 -42 10 -38 10 4 13 -1 9 -20 -4 -20 -1 -25 9 -21 11 4 14 -3 11 -33 -2 -24
-8 -38 -15 -37 -7 2 -10 -3 -7 -11 8 -22 -32 -38 -86 -34 -27 1 -46 0 -44 -4
7 -11 -34 -20 -81 -17 -24 2 -48 -1 -52 -6 -5 -4 -1 -5 7 0 12 6 12 5 3 -5 -7
-7 -27 -11 -51 -8 -22 2 -38 0 -36 -4 6 -10 -42 -22 -60 -15 -8 3 -20 -1 -27
-9 -9 -11 -25 -15 -50 -12 -21 2 -35 0 -32 -5 3 -5 -15 -7 -41 -6 -25 2 -49
-1 -53 -6 -5 -4 -1 -5 7 0 10 5 12 5 5 -3 -5 -5 -29 -13 -52 -16 -106 -15
-123 -19 -123 -26 0 -5 -9 -6 -20 -3 -11 3 -20 1 -20 -5 0 -6 -9 -8 -20 -5
-11 3 -20 1 -20 -4 0 -5 -13 -8 -30 -5 -23 3 -30 0 -30 -12 0 -12 -9 -16 -34
-16 -19 0 -38 -5 -42 -11 -3 -6 -19 -9 -35 -7 -16 3 -25 0 -22 -5 3 -6 -7 -8
-26 -5 -18 3 -35 0 -38 -5 -4 -6 -1 -7 7 -2 9 6 11 4 5 -4 -4 -7 -18 -11 -31
-8 -14 2 -27 0 -31 -6 -4 -6 -1 -7 8 -2 9 5 11 5 4 -2 -14 -14 -101 -36 -114
-29 -5 4 -13 1 -17 -5 -5 -8 -3 -9 6 -4 9 6 11 4 5 -4 -4 -7 -18 -11 -31 -8
-14 2 -21 0 -17 -6 3 -6 -6 -8 -25 -5 -20 3 -28 0 -25 -8 2 -6 -8 -14 -24 -17
-118 -25 -143 -31 -143 -39 0 -4 -7 -8 -15 -8 -32 0 -95 -25 -95 -38 0 -7 -4
-11 -9 -8 -17 11 -101 -6 -101 -20 0 -8 -10 -14 -24 -14 -14 0 -28 -5 -32 -11
-3 -6 -19 -9 -34 -7 -21 3 -27 1 -22 -10 4 -12 -2 -14 -26 -10 -17 2 -29 1
-26 -3 2 -4 -13 -13 -33 -19 -21 -6 -48 -16 -60 -22 -12 -6 -31 -8 -42 -5 -12
3 -24 0 -28 -5 -4 -7 -1 -8 7 -3 9 6 11 4 5 -4 -4 -7 -16 -11 -26 -8 -10 3
-22 0 -26 -5 -4 -7 -1 -8 7 -3 9 6 11 4 5 -4 -4 -7 -18 -11 -32 -8 -13 2 -21
2 -18 -1 8 -8 -45 -32 -71 -32 -13 0 -24 -4 -24 -10 0 -5 -18 -13 -40 -16 -22
-4 -40 -10 -40 -15 0 -5 -6 -9 -14 -9 -8 0 -16 -6 -19 -14 -3 -9 -15 -12 -31
-9 -18 4 -26 1 -26 -9 0 -8 -23 -20 -58 -31 -66 -19 -86 -21 -77 -7 3 5 0 7
-8 4 -23 -8 -38 22 -35 68 3 37 6 43 25 42 12 0 19 4 16 9 -4 6 1 8 11 4 9 -4
14 -3 11 2 -7 12 31 24 46 15 7 -4 9 -3 5 4 -7 11 7 17 67 28 20 3 37 11 37
16 0 6 14 8 30 6 17 -3 34 0 37 5 4 6 1 7 -7 2 -9 -6 -11 -4 -5 4 4 7 18 11
31 8 13 -2 21 0 18 4 -3 5 -4 9 -2 9 2 0 28 9 58 20 30 11 62 20 71 20 9 0 19
7 23 15 3 8 16 15 30 15 14 0 28 5 32 11 3 6 17 9 30 6 14 -2 27 0 31 6 4 6 1
7 -8 2 -8 -5 -11 -4 -6 1 10 10 98 35 140 38 15 2 30 6 35 11 4 5 1 5 -7 0
-10 -6 -12 -4 -6 4 4 8 20 11 36 9 16 -3 25 0 22 5 -3 6 7 8 26 5 18 -3 35 0
38 5 4 6 1 7 -7 2 -9 -5 -11 -4 -6 3 4 7 16 12 26 12 10 0 22 5 25 10 3 6 19
10 36 10 16 0 29 5 29 11 0 7 12 10 29 7 18 -3 27 0 24 5 -4 6 5 8 20 5 17 -3
24 -1 20 5 -4 6 0 8 11 4 9 -4 15 -3 12 1 -5 9 109 52 137 52 8 0 18 7 21 16
3 8 11 12 17 8 6 -3 21 -2 32 3 85 39 132 54 176 58 23 1 45 6 49 10 4 5 1 5
-7 0 -10 -6 -12 -4 -6 4 4 8 20 11 37 9 16 -3 32 0 35 5 4 6 1 7 -7 2 -9 -6
-11 -4 -5 4 4 7 18 11 31 8 13 -2 21 -1 18 4 -5 8 58 29 89 29 10 0 25 7 34
16 9 8 22 13 30 10 9 -4 11 -1 7 5 -5 8 3 10 25 7 18 -3 35 0 38 5 4 6 1 7 -8
2 -9 -5 -11 -5 -4 2 13 13 111 43 141 43 13 0 24 5 24 10 0 6 11 10 24 10 13
0 26 7 30 15 3 8 17 15 31 15 14 0 25 4 25 9 0 5 25 13 55 16 30 4 52 11 49
16 -4 8 24 13 63 12 7 -1 10 4 7 9 -4 7 6 9 29 6 20 -2 33 0 30 5 -3 6 7 8 25
5 22 -3 29 -1 25 9 -3 9 3 13 20 13 14 0 29 5 32 10 3 6 19 10 35 10 16 0 32
5 36 11 3 6 17 9 30 6 13 -2 21 0 18 4 -3 5 2 9 11 9 14 0 16 -8 14 -44z
m-2984 -196 c18 -18 31 -39 28 -46 -3 -8 1 -14 9 -14 19 0 43 -44 33 -61 -5
-8 -4 -10 3 -5 8 5 12 -1 12 -18 0 -13 4 -26 9 -28 6 -1 11 -24 13 -50 2 -25
7 -44 11 -41 5 3 7 -18 6 -46 -2 -28 1 -54 6 -58 4 -5 5 -2 0 6 -5 9 -4 12 3
7 8 -5 12 -51 12 -141 0 -90 -4 -136 -12 -141 -7 -5 -8 -2 -3 7 5 8 5 11 0 7
-4 -4 -7 -41 -6 -82 2 -49 -2 -77 -10 -82 -8 -5 -10 -3 -4 7 5 8 4 11 0 6 -5
-4 -8 -30 -6 -59 2 -39 0 -50 -11 -46 -10 4 -13 -7 -14 -42 -1 -62 -25 -140
-42 -140 -9 0 -12 -7 -9 -20 3 -11 2 -20 -3 -20 -4 0 -13 -13 -20 -30 -7 -16
-16 -30 -21 -30 -5 0 -9 -9 -9 -20 0 -11 -4 -20 -10 -20 -5 0 -10 -6 -10 -13
0 -23 -28 -72 -52 -93 -20 -17 -20 -16 2 11 l25 30 -27 -24 c-15 -13 -24 -29
-21 -38 6 -16 -53 -83 -73 -83 -6 0 -17 -7 -24 -15 -7 -8 -23 -15 -36 -15 -13
0 -24 -4 -24 -10 0 -5 -20 -10 -45 -10 -25 0 -45 5 -45 10 0 6 -7 10 -15 10
-8 0 -15 5 -15 10 0 6 -10 10 -22 10 -12 0 -30 7 -40 17 -20 18 -25 47 -5 40
6 -2 11 -8 10 -13 -2 -14 127 -8 140 7 9 9 6 9 -8 -1 -19 -13 -19 -13 -3 5 9
10 27 19 40 20 13 1 23 8 23 17 0 8 18 31 39 52 39 36 55 58 75 104 6 12 13
22 16 22 4 0 3 -5 -1 -12 -4 -6 -3 -8 4 -5 5 4 8 17 4 29 -4 16 -2 20 10 16
11 -5 13 1 10 24 -4 23 -2 29 8 23 9 -6 11 -4 5 4 -4 7 -3 23 3 34 6 12 16 43
23 69 7 26 16 45 19 43 3 -2 4 11 2 29 -3 22 2 36 15 47 17 13 17 13 3 -6 -10
-15 -10 -17 0 -8 7 7 14 31 14 55 1 24 3 78 4 122 1 58 5 77 15 73 15 -6 12
197 -4 229 -6 12 -10 42 -8 67 2 25 0 43 -5 40 -4 -3 -7 12 -5 34 3 29 1 39
-8 36 -13 -5 -37 71 -29 93 3 8 0 11 -10 7 -11 -4 -15 0 -12 13 2 14 -2 18
-16 16 -13 -3 -17 1 -13 11 12 32 -29 50 -104 48 -80 -3 -83 7 -16 39 34 16
57 20 115 17 66 -4 76 -7 107 -37z m-185 -133 c14 -7 32 -27 41 -44 9 -18 20
-29 24 -25 4 4 5 -10 4 -30 -2 -20 1 -41 5 -45 5 -5 6 -2 1 6 -6 10 -4 12 4 6
8 -4 11 -20 9 -37 -3 -16 0 -32 5 -35 6 -4 7 -1 2 8 -6 10 -5 11 3 4 14 -13
30 -301 16 -293 -5 4 -8 -27 -6 -74 3 -55 0 -84 -9 -92 -9 -8 -10 -7 -4 4 5 9
4 12 -1 7 -4 -4 -7 -23 -6 -42 2 -18 -2 -36 -9 -41 -8 -5 -10 -3 -4 7 5 8 4
11 0 6 -5 -4 -8 -26 -6 -47 1 -22 -2 -40 -7 -40 -5 0 -12 -19 -15 -41 -3 -23
-11 -47 -18 -53 -9 -8 -10 -8 -4 3 5 9 4 12 -2 8 -6 -4 -8 -17 -6 -31 3 -13
-1 -27 -8 -31 -8 -6 -10 -4 -4 5 5 8 4 11 -3 7 -5 -4 -8 -15 -5 -26 3 -12 -3
-24 -17 -34 -12 -8 -20 -19 -17 -24 9 -15 -99 -117 -114 -108 -7 5 -10 4 -6
-2 14 -22 -49 -30 -86 -11 -12 6 -28 14 -36 18 -8 3 -18 13 -22 21 -26 53 -30
69 -24 80 6 8 4 10 -5 4 -10 -6 -12 -4 -7 9 5 11 3 15 -5 10 -7 -5 -9 -2 -5 9
4 12 2 14 -10 10 -13 -5 -15 2 -12 40 2 25 1 43 -3 40 -5 -2 -8 80 -8 182 0
102 3 184 8 182 4 -3 5 15 3 40 -2 27 2 49 9 56 10 9 11 9 5 -2 -5 -9 -4 -12
3 -7 6 4 8 14 5 23 -4 9 -2 14 3 10 5 -3 10 3 10 13 0 10 -4 16 -8 14 -4 -3
-8 -1 -8 5 0 5 5 13 10 16 6 3 10 16 10 28 0 31 24 95 44 118 9 11 14 24 11
30 -4 5 1 12 9 15 9 3 16 15 16 25 0 10 5 19 10 19 6 0 10 7 10 15 0 8 5 15
10 15 6 0 10 6 10 13 0 14 49 63 85 84 26 16 93 16 125 0z m-4494 -759 c5 -7
2 -8 -7 -3 -8 5 -11 4 -6 -1 4 -4 24 -7 43 -5 19 1 40 -2 47 -7 7 -5 26 -12
42 -15 92 -16 158 -36 166 -48 6 -10 3 -15 -11 -17 -11 -2 -20 -8 -20 -13 0
-12 -167 -12 -175 0 -3 5 -18 12 -35 16 -16 4 -32 15 -35 26 -4 10 -13 19 -21
19 -15 0 -35 39 -27 53 7 11 31 8 39 -5z"/>
<path d="M10318 3526 c3 -5 -5 -7 -16 -4 -12 4 -25 1 -29 -4 -4 -7 -1 -8 7 -3
9 6 11 4 6 -4 -5 -7 -15 -10 -23 -7 -8 3 -12 2 -9 -3 3 -4 -10 -20 -29 -35
-19 -15 -44 -48 -57 -72 -12 -25 -27 -43 -33 -40 -8 3 -10 -5 -7 -21 3 -17 1
-24 -6 -19 -6 4 -8 -2 -4 -16 4 -16 2 -20 -10 -16 -11 5 -13 -1 -10 -24 3 -18
1 -28 -5 -25 -5 3 -10 -8 -11 -25 -1 -17 -7 -38 -12 -48 -6 -10 -10 -35 -10
-55 0 -20 -3 -34 -7 -32 -5 3 -6 -22 -5 -55 3 -37 0 -58 -6 -54 -6 3 -10 -33
-11 -96 -1 -56 -4 -105 -7 -109 -2 -4 1 -11 7 -15 8 -5 9 -3 4 7 -6 11 -5 11
5 2 7 -7 11 -29 9 -56 -2 -25 -1 -43 4 -40 4 2 7 -14 7 -36 0 -22 5 -43 11
-47 6 -3 9 -15 6 -25 -3 -10 0 -22 5 -26 7 -4 8 -1 3 7 -6 9 -4 11 4 5 7 -4
11 -15 8 -25 -3 -11 1 -17 12 -16 11 1 16 -7 16 -26 -1 -14 3 -24 8 -21 4 2
15 -1 23 -8 18 -15 165 -29 157 -15 -4 5 1 7 10 3 9 -3 19 -1 23 5 5 7 2 8 -6
3 -9 -6 -11 -4 -6 4 5 7 14 10 22 7 7 -3 11 0 8 7 -2 7 13 28 33 47 l38 35
-35 -40 -35 -40 36 33 c25 23 35 40 32 53 -4 13 2 22 20 30 25 11 45 67 33 88
-3 5 1 11 9 15 8 3 15 12 15 21 0 8 5 15 10 15 6 0 10 12 10 28 0 19 3 23 9
13 5 -8 7 4 4 33 -4 31 -2 46 6 46 7 0 11 21 11 56 0 30 4 53 9 50 13 -8 14
273 2 288 -5 6 -11 33 -12 58 -2 27 -7 44 -12 41 -6 -4 -8 5 -5 20 3 15 1 24
-3 21 -5 -3 -9 4 -9 15 0 12 -3 21 -7 21 -11 0 -43 58 -43 76 0 7 -12 17 -26
20 -14 4 -23 12 -21 19 4 8 -3 10 -20 7 -14 -3 -23 -1 -20 4 3 5 -14 9 -38 9
-24 0 -41 -4 -37 -9z m112 -102 c22 -20 39 -39 38 -42 -2 -11 14 -46 30 -64 8
-10 12 -26 9 -38 -3 -11 -1 -18 3 -15 5 3 11 -27 14 -67 2 -40 8 -93 11 -116
5 -30 3 -47 -5 -55 -10 -9 -11 -9 -5 3 5 8 5 12 2 9 -4 -3 -9 -54 -11 -114 -3
-85 -7 -111 -20 -120 -9 -7 -16 -26 -16 -43 0 -17 -5 -34 -10 -37 -6 -4 -8
-10 -5 -15 3 -5 0 -12 -8 -17 -7 -4 -21 -28 -32 -53 -24 -58 -94 -133 -117
-126 -10 2 -21 -1 -25 -6 -4 -7 -1 -8 7 -3 9 5 11 4 6 -3 -10 -17 -57 -15 -94
4 -51 25 -48 34 12 34 52 0 56 2 84 40 16 22 31 37 34 34 3 -3 9 7 12 21 4 14
11 23 15 20 5 -3 7 3 4 14 -3 10 1 22 8 26 8 6 10 4 4 -5 -5 -8 -4 -11 3 -6 6
4 8 14 5 23 -4 9 -2 14 3 10 6 -4 9 5 6 22 -2 16 1 32 9 36 8 6 10 4 4 -5 -5
-8 -4 -11 2 -7 6 4 8 18 5 33 -3 16 1 29 9 35 11 7 14 53 15 233 1 196 0 224
-14 219 -12 -5 -14 0 -10 26 3 17 0 35 -5 38 -6 4 -7 1 -2 -7 6 -9 4 -11 -4
-5 -7 4 -11 16 -8 26 3 12 1 17 -5 12 -6 -3 -17 1 -23 11 -8 10 -29 17 -54 19
-31 1 -41 6 -41 20 0 10 8 17 19 17 11 0 23 5 26 10 3 6 22 10 41 10 25 0 44
-9 74 -36z m-101 -100 c16 -11 22 -24 18 -39 -3 -17 0 -22 11 -17 12 4 14 -2
10 -27 -3 -17 0 -35 5 -38 6 -4 7 -1 2 8 -6 10 -5 11 4 3 9 -8 11 -56 8 -175
-5 -182 -13 -243 -31 -236 -8 3 -11 -5 -8 -25 3 -20 1 -29 -6 -24 -6 4 -8 -1
-5 -13 3 -10 -1 -22 -8 -26 -8 -6 -10 -4 -4 5 5 9 4 11 -4 6 -6 -4 -9 -11 -6
-16 7 -12 -35 -81 -46 -74 -5 3 -9 0 -9 -5 0 -6 -7 -11 -15 -11 -8 0 -15 -4
-15 -10 0 -5 -9 -10 -20 -10 -11 0 -20 4 -20 9 0 5 -10 11 -22 13 -17 2 -24
11 -26 31 -2 15 -8 27 -14 27 -6 0 -8 9 -5 20 3 11 0 23 -5 27 -7 4 -8 1 -3
-7 6 -9 4 -11 -4 -5 -8 4 -11 21 -9 40 2 19 0 31 -4 29 -4 -3 -8 54 -8 126 0
72 3 129 8 127 4 -3 5 15 3 40 -2 25 2 50 8 56 6 6 11 19 11 28 0 10 5 21 12
25 7 5 8 3 3 -6 -5 -8 -4 -11 3 -7 5 4 8 15 6 25 -3 9 2 26 11 37 9 11 13 14
9 6 -4 -9 -3 -12 4 -7 6 4 8 14 5 22 -3 9 7 29 28 50 38 39 88 46 128 18z"/>
<path d="M8575 5563 c-40 -4 -108 -24 -119 -35 -6 -4 -20 -8 -32 -8 -13 0 -25
-4 -28 -9 -3 -5 32 -6 82 -3 48 2 89 9 90 13 2 5 19 9 37 9 31 0 35 -3 41 -37
4 -21 15 -49 25 -62 11 -13 19 -36 19 -50 0 -15 4 -31 8 -36 12 -14 29 -74 37
-125 4 -25 13 -52 20 -60 13 -16 19 -39 36 -130 6 -30 14 -64 19 -75 9 -20 17
-76 26 -195 3 -36 9 -74 14 -85 4 -11 11 -66 14 -122 l6 -103 -25 0 c-14 0
-25 -3 -25 -7 0 -12 -147 -56 -165 -49 -8 3 -19 16 -24 29 -8 21 -19 25 -71
31 -34 4 -70 11 -79 15 -30 16 -87 31 -114 31 -14 0 -28 4 -31 9 -3 5 -20 11
-38 14 -18 3 -53 10 -78 16 -78 18 -135 13 -196 -16 -31 -14 -58 -33 -61 -42
-2 -9 -9 -24 -14 -33 -5 -10 -9 -31 -9 -47 0 -17 -4 -33 -10 -36 -5 -3 -10
-35 -10 -71 l0 -64 -35 0 c-19 0 -35 -4 -35 -10 0 -16 -40 -12 -57 6 -13 13
-14 20 -5 35 7 10 12 30 12 43 0 14 5 28 10 31 6 3 10 21 10 39 0 19 6 39 14
45 8 7 17 40 21 74 4 33 11 69 16 79 5 10 13 26 18 36 5 10 12 37 16 60 4 23
13 48 20 55 7 7 16 33 19 58 7 44 9 51 40 121 9 20 16 43 16 51 0 9 5 19 10
22 6 3 10 15 10 26 0 10 4 27 9 37 5 9 17 35 26 57 18 44 51 115 90 198 30 63
32 78 5 44 -11 -14 -20 -29 -20 -35 0 -5 -9 -17 -20 -27 -11 -10 -20 -24 -20
-31 0 -8 -12 -39 -26 -71 -48 -105 -54 -121 -54 -137 0 -8 -11 -32 -25 -52
-14 -20 -25 -45 -25 -56 0 -10 -4 -26 -9 -36 -23 -43 -41 -92 -41 -111 0 -12
-4 -21 -10 -21 -5 0 -10 -9 -10 -20 0 -11 -8 -34 -18 -52 -11 -18 -22 -58 -26
-88 -7 -52 -19 -101 -37 -145 -4 -11 -11 -45 -15 -75 -3 -30 -12 -62 -19 -70
-7 -8 -16 -37 -20 -65 -3 -27 -13 -60 -21 -72 -8 -12 -14 -31 -14 -43 0 -11
-4 -20 -9 -20 -5 0 -11 -8 -15 -17 -14 -43 -44 -78 -67 -81 -13 -2 -33 -7 -44
-12 -26 -11 -86 -21 -155 -25 -48 -2 -56 -6 -64 -27 -5 -13 -20 -29 -35 -36
-115 -50 -141 -62 -141 -66 0 -9 47 7 101 34 30 15 77 30 105 34 27 4 56 14
64 21 8 7 38 16 67 20 45 6 53 4 62 -14 6 -11 11 -36 11 -55 0 -20 4 -36 9
-36 5 0 12 -38 16 -85 4 -47 11 -87 16 -91 5 -3 9 -27 9 -53 0 -31 5 -53 15
-61 13 -11 15 -6 15 33 0 25 -4 49 -10 52 -5 3 -10 28 -10 55 0 27 -4 51 -9
54 -4 3 -11 51 -15 106 l-7 101 52 50 c28 27 60 49 70 49 10 0 21 5 24 10 3 6
27 10 52 10 42 0 111 23 124 42 3 4 165 9 360 10 l354 3 -2 60 c-1 33 -5 81
-8 106 l-7 45 44 14 c23 7 48 17 53 21 6 5 30 11 53 15 23 4 45 11 48 15 3 5
20 9 38 9 17 0 36 4 42 10 5 5 30 12 54 15 43 6 46 5 73 -34 15 -21 27 -45 27
-53 0 -7 7 -22 15 -32 20 -27 20 -1 0 38 -8 15 -15 37 -15 47 0 11 -4 19 -10
19 -24 0 -8 36 23 48 17 8 41 17 52 22 11 5 43 12 70 15 28 4 56 12 64 18 8 7
30 17 50 23 l36 12 -31 1 c-16 1 -34 -3 -40 -8 -5 -6 -49 -11 -99 -13 l-90 -3
-3 40 c-2 22 -8 44 -13 50 -5 5 -9 21 -9 36 0 15 -4 30 -9 33 -4 3 -11 28 -15
55 -4 28 -13 56 -20 64 -8 7 -17 38 -20 68 -7 50 -15 77 -36 120 -5 9 -12 33
-15 53 -4 20 -11 36 -16 36 -5 0 -9 7 -9 15 0 9 -9 33 -20 55 -11 22 -20 48
-20 58 0 10 -25 67 -55 127 -30 59 -55 114 -55 121 0 8 -5 14 -11 14 -6 0 -9
12 -7 28 l3 27 158 3 c99 1 156 6 152 12 -6 9 -438 12 -510 3z m-347 -1062
c28 -14 87 -31 109 -31 11 0 23 -3 27 -7 7 -7 64 -21 161 -40 17 -3 40 -14 51
-25 21 -18 26 -37 40 -131 l6 -37 -198 6 c-110 3 -208 10 -219 15 -11 5 -67
10 -125 11 l-105 3 -3 60 c-4 68 12 129 41 163 18 20 30 22 109 22 48 0 96 -4
106 -9z"/>
<path d="M8085 5519 c-16 -11 -38 -22 -47 -25 -10 -4 -18 -15 -18 -25 0 -31
-35 -41 -118 -35 -42 3 -122 8 -177 11 -55 3 -109 10 -120 15 -11 5 -62 12
-112 15 -228 13 -273 17 -273 26 0 5 -35 9 -77 9 -70 0 -76 -1 -61 -16 11 -11
51 -18 154 -26 77 -5 147 -14 156 -19 10 -5 51 -9 91 -9 41 0 77 -3 81 -7 4
-5 62 -14 129 -21 201 -21 218 -23 245 -38 26 -13 52 -4 52 18 0 6 30 39 67
74 70 66 80 85 28 53z"/>
<path d="M9286 5519 c3 -5 12 -9 20 -9 19 0 87 -36 140 -74 39 -29 64 -65 64
-95 0 -9 9 -27 20 -41 11 -14 20 -34 20 -45 0 -11 8 -34 19 -50 10 -17 21 -53
25 -80 4 -26 14 -58 22 -70 8 -13 17 -46 21 -74 3 -28 10 -51 14 -51 5 0 9
-15 9 -34 0 -19 4 -37 9 -40 5 -3 12 -35 16 -71 3 -36 11 -67 16 -70 32 -20
-13 -66 -68 -69 -13 -1 -28 -7 -35 -14 -9 -9 -5 -12 19 -12 18 0 35 5 38 10 3
6 19 10 35 10 16 0 32 5 35 10 3 6 24 10 45 10 21 0 42 5 45 10 3 6 -4 10 -18
10 -27 0 -57 28 -57 53 0 9 -4 19 -10 22 -5 3 -10 22 -10 41 0 19 -4 34 -9 34
-5 0 -12 30 -16 68 -4 37 -10 72 -13 77 -13 19 -32 80 -32 101 0 12 -9 33 -20
47 -11 14 -20 34 -20 45 0 12 -4 24 -10 27 -5 3 -10 26 -10 51 0 42 1 44 30
44 18 0 30 5 30 13 0 15 -71 87 -87 87 -6 0 -16 7 -23 15 -7 8 -32 24 -56 35
-24 10 -44 23 -44 28 0 5 -17 16 -37 25 -48 21 -125 38 -117 26z"/>
<path d="M4222 5075 c-17 -14 -34 -25 -39 -25 -5 0 -20 -11 -33 -25 -13 -14
-28 -25 -33 -25 -5 0 -27 -16 -48 -35 l-38 -34 -100 6 c-99 6 -100 6 -158 -27
-32 -18 -71 -44 -87 -57 -28 -23 -29 -28 -27 -98 1 -43 -3 -84 -10 -97 -18
-34 -57 -68 -79 -68 -10 0 -21 -4 -24 -9 -8 -12 46 -1 64 14 15 13 66 10 85
-4 5 -5 57 -11 115 -15 72 -4 100 -3 90 4 -8 5 -45 10 -83 10 -37 0 -75 4 -85
9 -9 5 -25 12 -34 15 -33 10 -18 33 50 80 37 26 87 62 112 81 25 19 52 38 60
42 8 3 42 30 76 60 34 29 66 53 71 53 5 0 20 11 33 25 13 14 29 25 35 25 6 0
22 11 35 25 13 14 28 25 33 25 9 0 67 55 67 64 0 13 -20 5 -48 -19z"/>
<path d="M7692 4693 c-12 -27 -22 -53 -22 -59 0 -15 -24 -64 -32 -64 -4 0 -10
-17 -14 -37 -4 -21 -15 -50 -25 -65 -11 -14 -19 -30 -19 -35 0 -26 -63 -133
-98 -167 l-41 -39 -165 5 c-154 4 -165 3 -151 -12 8 -9 15 -22 15 -28 0 -15
56 -16 65 -2 3 6 26 10 50 10 24 0 47 -4 50 -10 3 -5 17 -10 31 -10 18 0 24
-5 24 -23 0 -13 7 -32 15 -43 13 -18 14 -16 15 23 0 34 5 45 23 54 12 6 32 21
44 32 12 11 32 25 44 31 13 6 33 30 45 53 12 24 32 58 43 76 12 19 21 41 21
48 0 8 12 37 25 64 14 28 25 55 25 61 0 7 7 25 15 40 8 16 15 37 15 46 0 9 7
23 15 31 17 17 31 67 18 67 -4 0 -18 -21 -31 -47z"/>
<path d="M3345 4510 c-3 -5 -17 -10 -30 -10 -13 0 -27 -4 -30 -10 -3 -5 -19
-10 -35 -10 -16 0 -31 -4 -34 -9 -4 -5 -25 -12 -49 -16 -23 -3 -52 -10 -64
-16 -13 -5 -33 -13 -45 -18 -13 -4 -48 -18 -78 -30 -31 -11 -65 -21 -78 -21
-12 0 -31 -4 -42 -10 -11 -5 -28 -14 -38 -19 -10 -5 -38 -12 -62 -16 -25 -4
-52 -14 -62 -22 -9 -8 -25 -13 -35 -12 -18 3 -52 -5 -88 -21 -39 -17 -116 -40
-135 -40 -11 0 -20 -4 -20 -10 0 -5 -8 -10 -18 -10 -9 0 -42 -10 -72 -21 -30
-12 -67 -24 -83 -26 -15 -3 -30 -9 -33 -14 -3 -5 -13 -9 -23 -9 -10 0 -24 -6
-30 -14 -7 -8 -30 -17 -52 -21 -21 -4 -42 -11 -45 -17 -7 -11 66 0 81 13 5 5
19 9 31 9 13 0 25 4 28 9 4 5 29 12 56 16 28 4 50 11 50 15 0 12 66 30 108 30
25 0 32 -4 32 -20 0 -21 14 -27 25 -11 3 6 18 16 33 24 15 8 53 29 85 46 32
17 66 31 75 31 9 0 26 7 36 15 11 8 28 15 38 15 10 0 18 5 18 10 0 6 9 10 20
10 17 0 66 18 112 41 10 5 27 9 38 9 11 0 28 4 38 9 36 18 68 30 100 36 17 4
32 11 32 16 0 5 11 9 24 9 14 0 27 4 30 9 3 5 23 12 43 15 65 11 163 53 163
68 0 11 -8 10 -15 -2z"/>
<path d="M9150 3884 c0 -245 2 -275 15 -264 13 10 15 52 15 260 0 137 -3 255
-6 264 -19 49 -24 -10 -24 -260z"/>
<path d="M9035 4050 c-3 -5 -16 -10 -28 -11 -34 -1 -162 -73 -166 -94 -3 -15
2 -17 30 -12 169 32 209 51 209 97 0 23 -5 30 -19 30 -11 0 -23 -4 -26 -10z"/>
<path d="M1670 3898 c-30 -28 -106 -78 -118 -78 -13 0 -102 -92 -102 -106 0
-7 -4 -14 -10 -16 -5 -1 -12 -19 -15 -38 l-6 -35 18 37 c25 50 72 98 96 98 18
0 19 -5 12 -82 -4 -46 -11 -87 -16 -93 -13 -13 -12 -88 1 -80 6 3 10 20 10 37
0 21 6 31 20 35 17 4 20 14 20 54 0 26 5 51 10 54 6 3 10 17 10 30 0 37 30
106 60 140 23 25 45 65 37 65 -1 0 -13 -10 -27 -22z"/>
<path d="M1811 3551 c-12 -22 -21 -47 -21 -56 0 -22 -29 -19 -86 9 l-49 24 -9
-32 c-4 -17 -6 -121 -3 -231 4 -170 7 -205 23 -236 25 -46 92 -106 99 -87 3 7
6 108 7 223 l3 210 30 0 c17 0 35 3 42 8 15 10 9 43 -8 38 -8 -2 -23 -6 -33
-9 -17 -5 -18 -1 -12 39 4 24 11 48 17 54 5 5 9 18 9 30 0 12 5 26 12 33 6 6
9 14 6 18 -4 3 -16 -12 -27 -35z m-101 -131 c7 -12 9 -89 8 -206 -2 -150 -6
-188 -17 -192 -10 -3 -12 1 -8 17 3 11 0 24 -5 28 -7 4 -8 1 -3 -7 5 -9 4 -11
-3 -6 -9 5 -12 64 -12 197 0 159 2 189 15 189 8 0 19 -9 25 -20z"/>
<path d="M1357 3505 c-8 -16 -27 -50 -41 -75 -14 -25 -35 -64 -46 -87 -11 -23
-25 -45 -30 -48 -19 -12 -10 -26 9 -15 34 18 59 11 95 -27 20 -21 36 -42 36
-46 0 -14 60 -67 75 -67 7 0 15 -4 17 -10 2 -5 14 -11 28 -12 l25 -3 3 164 c2
146 1 162 -13 151 -12 -10 -15 -37 -15 -136 0 -120 -1 -124 -21 -124 -13 0
-41 20 -68 47 -87 90 -110 143 -76 177 8 8 15 22 15 31 0 9 7 32 16 51 21 43
13 69 -9 29z"/>
<path d="M1878 3486 c-10 -13 -18 -30 -18 -35 0 -19 17 -12 35 15 l17 26 151
-7 c84 -4 157 -12 162 -18 7 -7 6 -7 -4 -2 -9 5 -12 4 -8 -2 4 -7 44 -9 106
-6 71 3 101 1 107 -8 5 -8 3 -10 -7 -4 -8 5 -11 5 -7 0 4 -4 48 -7 97 -6 54 1
92 -2 96 -8 3 -6 35 -11 71 -11 52 0 64 -3 64 -16 0 -13 11 -15 65 -12 36 1
65 -1 65 -5 0 -5 18 -7 41 -6 22 2 43 -2 47 -8 4 -6 27 -13 52 -17 113 -14
136 -19 145 -28 7 -8 5 -8 -5 -3 -8 5 -12 4 -7 0 4 -5 30 -8 58 -6 28 1 49 -1
46 -6 -3 -4 15 -6 40 -4 25 2 50 -2 56 -8 6 -6 28 -11 48 -11 21 0 41 -5 45
-12 5 -7 2 -8 -7 -3 -8 5 -11 4 -6 0 4 -5 28 -8 53 -6 26 1 44 -1 41 -6 -3 -4
21 -7 52 -5 46 3 60 0 72 -15 13 -17 13 -17 -6 -3 -16 11 -17 11 -7 0 8 -9 28
-13 58 -11 25 1 44 -1 41 -6 -3 -4 26 -7 64 -5 45 2 69 0 69 -7 0 -6 21 -11
49 -11 28 0 53 -5 57 -12 5 -7 3 -8 -6 -3 -8 5 -11 4 -7 -2 3 -5 20 -8 37 -5
48 7 120 -7 120 -24 0 -8 6 -13 13 -12 7 2 13 -9 15 -26 2 -18 0 -26 -7 -22
-7 5 -8 1 -4 -10 5 -13 3 -15 -7 -9 -8 5 -11 4 -6 -3 3 -6 0 -17 -8 -25 -8 -8
-12 -17 -9 -21 4 -3 -1 -6 -10 -6 -10 0 -17 -8 -17 -20 0 -11 -4 -20 -10 -20
-5 0 -10 -9 -10 -20 0 -11 -7 -20 -15 -20 -8 0 -15 -6 -15 -13 0 -19 -29 -75
-43 -84 -7 -4 -5 2 3 13 14 17 14 18 -1 6 -10 -7 -15 -21 -12 -31 3 -10 -1
-22 -8 -26 -8 -6 -10 -4 -4 5 5 8 4 11 -3 7 -5 -4 -8 -15 -5 -25 2 -11 -4 -25
-14 -33 -17 -13 -17 -13 -3 6 14 18 14 19 -1 7 -10 -8 -15 -21 -12 -33 4 -16
1 -20 -12 -17 -13 2 -19 -4 -20 -20 -1 -12 -14 -35 -29 -51 -16 -16 -25 -34
-21 -40 3 -6 -1 -14 -10 -17 -9 -4 -14 -12 -12 -19 5 -10 -28 -39 -45 -40 -3
0 -10 -4 -15 -9 -5 -5 -2 -6 6 -1 10 6 12 4 6 -4 -4 -7 -16 -11 -26 -8 -12 3
-17 1 -12 -6 4 -6 -2 -8 -15 -5 -13 4 -26 0 -34 -11 -12 -15 -11 -15 7 -1 19
14 19 14 6 -2 -12 -17 -52 -18 -566 -18 -479 0 -554 2 -565 15 -7 8 -19 15
-27 15 -8 0 -12 4 -9 9 4 5 -4 7 -16 3 -16 -4 -20 -2 -15 10 4 12 1 14 -13 11
-10 -3 -21 1 -25 8 -6 8 -4 10 5 4 8 -5 11 -4 7 3 -4 5 -15 8 -25 6 -9 -3 -26
2 -37 11 -11 9 -14 13 -6 9 9 -4 12 -3 8 3 -4 6 -18 8 -32 5 -28 -5 -115 34
-115 51 0 5 -9 7 -20 4 -13 -3 -20 0 -20 10 0 10 -6 13 -15 9 -9 -3 -18 1 -21
9 -4 8 -24 18 -45 21 -21 4 -39 10 -39 14 0 4 -18 13 -41 20 -22 8 -43 18 -46
23 -4 6 -1 7 7 2 8 -5 11 -4 7 3 -4 5 -16 8 -26 5 -10 -3 -22 1 -26 8 -6 8 -4
10 5 4 8 -5 11 -4 7 3 -4 5 -15 8 -25 6 -9 -3 -26 2 -37 11 -11 9 -14 13 -6 9
9 -4 12 -3 8 4 -4 5 -17 8 -29 4 -18 -4 -20 -2 -16 16 4 13 2 20 -6 19 -7 -1
-12 31 -14 105 -2 82 -6 107 -17 112 -13 4 -15 -12 -15 -107 1 -69 5 -120 13
-133 23 -41 117 -104 155 -104 9 0 23 -6 31 -13 9 -7 45 -26 81 -42 36 -17 67
-33 68 -37 2 -5 13 -8 23 -8 11 0 64 -22 118 -50 54 -27 103 -50 108 -50 6 0
47 -18 91 -40 l80 -40 513 0 c537 0 533 0 636 47 40 18 56 33 73 66 12 23 27
47 34 52 7 6 15 17 19 25 4 8 16 29 27 45 11 17 24 39 29 50 5 12 16 27 25 34
9 7 16 18 16 24 0 6 6 18 14 26 8 9 21 27 28 41 36 67 103 160 115 160 8 0 13
11 13 28 0 16 7 43 16 60 18 38 13 60 -24 95 -24 23 -38 27 -119 33 -51 4 -93
11 -93 15 0 5 -20 9 -45 9 -25 0 -45 5 -45 10 0 6 -24 10 -53 10 -30 0 -57 3
-61 8 -4 4 -22 8 -39 9 -18 2 -59 7 -92 13 -33 5 -78 12 -100 16 -22 3 -44 10
-50 14 -5 4 -53 11 -105 15 -52 4 -105 13 -117 21 -12 8 -38 14 -57 14 -19 0
-37 4 -40 8 -3 5 -44 12 -91 16 -48 3 -96 13 -109 21 -14 10 -63 17 -139 21
-65 4 -120 11 -123 16 -3 4 -43 8 -89 8 -46 0 -87 5 -90 10 -3 6 -42 10 -85
10 -43 0 -80 4 -82 10 -2 5 -90 12 -208 15 l-205 7 -17 -26z"/>
<path d="M1887 3354 c2 -7 -1 -15 -8 -20 -8 -5 -10 -3 -4 7 5 8 5 11 0 7 -4
-4 -8 -27 -8 -50 l0 -42 41 3 c38 2 89 -18 77 -31 -3 -3 12 -2 35 2 22 4 43 3
46 -1 3 -5 25 -9 49 -9 24 0 47 -5 51 -12 5 -7 2 -8 -7 -3 -8 5 -11 4 -6 -1 4
-4 24 -7 43 -5 19 1 40 -2 47 -7 7 -5 53 -12 102 -16 56 -4 94 -12 100 -20 10
-13 51 -21 168 -32 l57 -6 0 32 c0 22 4 31 13 27 8 -3 12 7 12 32 0 35 -1 36
-31 33 -18 -2 -35 1 -38 7 -4 6 -30 11 -57 11 -31 0 -48 4 -44 10 4 6 -1 7
-11 3 -10 -3 -15 -2 -12 3 4 5 -13 7 -39 5 -28 -2 -43 1 -40 6 4 6 -4 8 -20 5
-15 -3 -23 -1 -20 4 3 6 -3 10 -13 10 -10 0 -16 -4 -14 -8 3 -4 -4 -8 -15 -8
-11 0 -23 5 -26 10 -3 6 -28 10 -55 10 -27 0 -52 5 -56 12 -5 7 -2 8 7 3 8 -5
11 -4 6 0 -4 5 -30 8 -57 6 -31 -1 -50 2 -50 8 0 7 -23 11 -56 11 -30 0 -53 3
-51 8 3 4 -23 7 -58 7 -43 0 -61 -4 -58 -11z"/>
<path d="M1944 3239 c-3 -6 -21 -9 -38 -7 -31 3 -32 2 -35 -35 -3 -51 7 -80
25 -73 8 3 14 -1 14 -9 0 -10 18 -16 60 -21 33 -4 63 -11 66 -15 3 -5 18 -9
34 -9 16 0 32 -5 36 -12 5 -7 3 -8 -6 -3 -8 5 -11 4 -7 -2 3 -5 20 -8 38 -5
18 3 29 1 26 -5 -3 -5 9 -7 27 -5 22 3 36 -2 47 -15 13 -17 13 -17 -6 -3 -15
10 -17 11 -8 0 13 -14 65 -21 57 -8 -3 4 2 8 10 8 8 0 18 -4 21 -10 3 -5 22
-10 42 -10 24 0 34 -4 30 -13 -3 -9 5 -12 31 -9 24 3 33 1 28 -7 -5 -7 -1 -9
10 -4 10 3 15 2 12 -3 -3 -5 30 -10 77 -11 67 -2 84 1 89 13 3 8 9 13 13 11 5
-3 8 18 8 46 l0 52 -50 0 c-28 0 -49 4 -48 10 1 6 -15 9 -39 7 -24 -3 -44 1
-51 8 -9 10 -9 11 3 5 9 -5 12 -4 7 1 -4 4 -24 7 -43 5 -18 -1 -34 2 -34 7 0
5 -40 13 -90 16 -66 6 -92 12 -99 23 -5 11 -18 14 -38 11 -16 -2 -34 1 -40 8
-7 6 -45 15 -85 18 -80 8 -105 17 -94 35 4 6 12 8 18 5 7 -4 8 -2 4 4 -9 15
-13 15 -22 1z"/>
<path d="M2740 3205 c0 -8 -4 -23 -9 -33 -5 -9 -12 -25 -15 -35 -3 -10 -10
-16 -15 -13 -5 3 -7 -3 -4 -14 5 -18 14 -20 90 -20 64 0 84 -3 80 -12 -3 -10
17 -14 77 -15 132 -4 257 -14 252 -21 -2 -4 39 -6 91 -4 82 3 95 1 90 -12 -4
-11 -1 -13 10 -9 9 4 14 2 11 -3 -4 -5 61 -10 156 -12 97 -2 165 -8 171 -14 7
-8 6 -9 -2 -4 -6 3 -14 2 -18 -4 -3 -6 -49 -10 -106 -10 -55 0 -98 3 -96 8 3
4 -35 6 -85 4 -83 -3 -126 7 -114 27 2 3 -39 4 -91 1 -52 -3 -97 -2 -100 3 -2
4 -46 7 -98 7 -60 0 -96 4 -101 12 -5 7 -2 8 7 3 8 -5 11 -5 7 0 -4 4 -48 7
-97 6 -61 -2 -91 2 -97 10 -5 8 -3 10 7 4 8 -5 11 -5 7 0 -5 5 -20 9 -36 9
-25 1 -27 -2 -24 -28 3 -20 1 -27 -7 -22 -7 5 -9 1 -4 -10 3 -10 2 -15 -3 -12
-5 4 -9 -13 -9 -37 0 -24 2 -43 5 -43 51 4 90 -4 90 -18 0 -13 13 -15 90 -12
50 2 90 -1 90 -5 0 -4 70 -7 155 -5 116 2 155 0 155 -9 0 -9 44 -14 158 -17
86 -3 220 -8 297 -11 76 -4 148 -4 160 -1 23 6 48 76 34 98 -5 8 -41 14 -101
18 -52 3 -93 9 -93 15 0 6 43 11 104 13 56 2 101 0 98 -5 -3 -5 7 -8 21 -7 23
1 27 5 24 29 -3 17 0 25 7 21 7 -5 8 -1 4 10 -3 10 -2 15 3 12 5 -4 9 4 9 15
0 20 -4 22 -59 19 -40 -3 -56 -1 -52 7 5 8 -16 11 -69 11 -58 0 -76 3 -72 13
3 9 -13 11 -70 9 -41 -2 -79 1 -86 6 -7 6 -78 13 -159 17 -121 6 -148 10 -148
22 0 12 -11 14 -50 11 -28 -1 -50 0 -50 5 0 4 -7 7 -15 7 -8 0 -15 -5 -15 -11
0 -7 -8 -6 -23 4 -16 10 -67 17 -175 22 -84 4 -155 11 -158 16 -9 15 -34 10
-34 -6z"/>
<path d="M4785 3086 c-11 -9 -41 -16 -67 -16 -26 0 -48 -5 -50 -12 -5 -15
-402 -25 -421 -10 -15 13 -27 6 -45 -25 -12 -23 -12 -23 61 -23 41 0 77 3 81
7 3 4 13 8 21 9 22 3 19 -40 -5 -61 -11 -10 -20 -23 -20 -29 0 -6 -23 -33 -50
-60 -28 -27 -50 -54 -50 -59 0 -6 -23 -34 -51 -64 -27 -29 -47 -58 -44 -64 7
-10 75 54 75 70 0 4 32 38 71 76 39 39 75 80 80 93 6 15 17 22 34 22 15 0 36
5 48 12 23 13 237 39 250 31 4 -2 5 -13 2 -24 -10 -31 4 -22 70 45 48 50 70
65 96 68 52 5 41 23 -16 26 -33 2 -57 -2 -70 -12z"/>
<path d="M1870 3032 c8 -53 11 -57 32 -54 9 2 20 -2 24 -9 5 -8 3 -9 -6 -4 -8
5 -11 4 -7 -2 4 -6 19 -8 33 -5 17 3 25 1 20 -6 -4 -6 1 -8 13 -5 10 3 22 0
25 -6 4 -6 20 -11 35 -11 16 0 40 -11 56 -26 17 -15 35 -24 46 -21 11 3 19 1
19 -5 0 -6 11 -8 25 -6 17 4 25 1 25 -8 0 -9 11 -14 29 -14 17 0 33 -4 36 -10
3 -5 22 -10 41 -10 19 0 34 -4 34 -10 0 -5 16 -10 36 -10 24 0 33 -4 28 -12
-4 -7 -3 -8 5 -4 13 9 53 -2 47 -13 -3 -4 11 -5 30 -3 19 2 40 -1 48 -7 22
-18 46 -2 46 30 0 16 5 29 11 29 6 0 9 14 7 33 -3 28 -7 32 -31 32 -16 1 -32
7 -36 14 -6 9 -24 12 -55 10 -25 -2 -46 -1 -46 3 0 5 -11 8 -25 8 -14 0 -25 5
-25 10 0 6 -18 10 -40 10 -22 0 -40 5 -40 10 0 6 -12 10 -26 10 -14 0 -23 3
-20 8 2 4 -12 6 -33 4 -27 -3 -41 1 -52 15 -13 17 -13 17 6 3 18 -14 19 -14 7
1 -8 11 -21 14 -39 11 -14 -3 -23 -1 -20 4 3 5 -12 8 -35 6 -22 -3 -45 1 -51
7 -6 6 -20 11 -30 11 -11 0 -17 5 -14 13 3 9 -6 11 -36 8 -22 -2 -37 1 -34 5
3 5 -12 9 -32 9 l-37 0 6 -43z"/>
<path d="M1127 3003 c-4 -3 -7 -25 -7 -47 0 -23 -7 -50 -15 -60 -11 -15 -15
-50 -15 -142 l0 -121 34 -44 c30 -37 36 -53 41 -116 4 -42 13 -77 21 -84 18
-15 19 -69 1 -69 -20 0 -71 -57 -58 -64 6 -4 11 -25 11 -47 0 -36 2 -39 24
-33 17 4 33 -2 59 -25 19 -17 38 -31 42 -31 5 0 22 -10 39 -23 17 -13 47 -29
66 -36 19 -8 42 -22 51 -32 9 -10 35 -21 58 -25 35 -6 46 -3 66 16 29 27 31
42 11 78 -8 15 -19 52 -24 82 -21 122 -95 260 -139 260 -7 0 -18 9 -25 21 -7
11 -29 30 -48 42 -19 11 -53 40 -75 62 -22 23 -57 54 -78 70 l-39 29 7 173 c4
95 5 173 3 173 -3 0 -8 -3 -11 -7z"/>
<path d="M1890 2912 c0 -32 30 -82 50 -82 10 0 20 -4 22 -8 2 -5 33 -23 71
-41 37 -18 67 -35 67 -37 0 -3 -5 -2 -12 2 -6 4 -8 3 -5 -3 4 -6 17 -8 31 -6
13 3 27 -1 31 -8 6 -8 4 -10 -5 -4 -8 5 -11 4 -7 -3 4 -5 17 -8 29 -4 13 3 19
1 15 -5 -4 -6 4 -8 20 -5 18 3 24 1 19 -6 -5 -8 -1 -10 10 -5 13 5 15 3 9 -7
-5 -8 -4 -11 2 -7 14 9 143 -23 143 -34 0 -5 11 -9 25 -9 16 0 25 -6 25 -16 0
-12 7 -15 25 -12 14 3 29 0 33 -7 4 -7 17 -16 30 -19 19 -6 22 -4 22 18 0 14
5 28 10 31 16 10 12 72 -6 79 -8 3 -13 10 -10 14 3 5 -8 7 -23 4 -16 -2 -32 1
-36 9 -6 8 -4 10 5 4 9 -5 11 -4 6 4 -4 6 -12 9 -17 5 -16 -10 -61 5 -53 18 4
6 3 8 -3 5 -15 -10 -104 4 -97 14 3 5 -9 9 -26 9 -18 0 -29 4 -25 10 4 6 -1 7
-11 3 -11 -4 -15 -2 -11 4 4 6 -3 8 -17 6 -13 -3 -27 1 -31 8 -6 8 -4 10 5 4
8 -5 11 -4 7 2 -4 6 -19 8 -33 5 -16 -3 -25 -1 -21 5 3 5 -6 8 -24 5 -17 -3
-29 0 -29 7 0 6 -13 11 -30 11 -17 0 -33 7 -38 16 -6 11 -17 15 -31 11 -15 -3
-24 0 -28 10 -3 8 -13 13 -24 10 -11 -3 -19 -1 -19 4 0 5 -9 9 -20 9 -13 0
-20 -7 -20 -18z"/>
<path d="M2649 2836 c2 -21 -1 -36 -5 -33 -5 3 -9 -11 -9 -31 0 -35 2 -37 32
-37 17 0 29 3 27 6 -2 3 8 4 21 1 14 -2 28 -9 32 -15 4 -6 1 -7 -8 -2 -8 5
-11 5 -7 0 4 -4 51 -7 104 -6 53 1 94 -1 91 -6 -3 -4 69 -7 159 -5 109 2 164
-1 164 -8 0 -6 66 -10 194 -10 110 0 196 -4 198 -9 2 -5 30 -11 62 -12 55 -3
60 -1 61 20 1 12 10 30 20 39 18 16 18 16 5 -3 -11 -16 -11 -18 0 -8 7 7 14
25 14 40 1 27 -1 28 -42 24 -27 -2 -48 2 -55 9 -9 10 -9 11 3 5 8 -5 12 -5 8
0 -4 4 -62 7 -128 6 -82 -2 -120 1 -115 8 4 7 0 8 -11 4 -10 -3 -15 -2 -12 3
4 5 -43 8 -114 6 -85 -2 -124 0 -132 9 -8 9 -7 10 4 4 8 -5 12 -5 8 -1 -4 5
-66 7 -138 7 -73 -1 -130 2 -127 6 3 4 -42 7 -100 5 -74 -2 -109 0 -117 9 -8
9 -7 10 4 4 8 -5 12 -5 8 0 -4 4 -29 8 -55 9 l-48 1 4 -39z"/>
<path d="M2620 2666 c0 -14 -4 -28 -10 -31 -5 -3 -10 -17 -10 -31 0 -19 5 -24
26 -24 17 0 24 -4 21 -12 -3 -10 99 -12 494 -10 318 1 499 6 499 12 0 6 12 10
28 10 32 0 56 31 47 61 -6 18 -17 19 -196 19 -105 0 -198 4 -207 9 -9 4 -169
11 -354 15 l-338 6 0 -24z"/>
<path d="M1670 2281 c0 -27 4 -52 9 -55 5 -3 11 -20 14 -38 9 -54 31 -131 45
-156 7 -12 26 -25 43 -29 16 -3 29 -9 29 -14 0 -5 9 -9 19 -9 11 0 22 -4 26
-9 3 -5 20 -13 37 -17 18 -3 39 -10 48 -14 29 -14 85 -32 115 -37 17 -3 35 -9
40 -13 6 -4 35 -11 65 -15 30 -4 61 -12 69 -19 13 -10 98 -29 196 -43 22 -3
45 -9 52 -15 6 -5 50 -12 97 -15 48 -3 89 -10 92 -15 3 -4 31 -8 63 -8 31 0
61 -4 66 -9 6 -5 37 -12 70 -14 116 -10 300 -33 315 -40 8 -3 38 -8 65 -11
264 -28 291 -32 315 -48 13 -10 30 -18 38 -18 28 0 95 66 118 117 13 28 29 55
34 58 6 4 26 38 44 76 l34 69 -49 0 c-26 0 -51 5 -54 10 -3 6 -46 10 -96 10
-49 0 -89 4 -89 9 0 5 -42 12 -92 15 -218 12 -447 32 -454 39 -4 4 -25 7 -46
7 -22 0 -51 6 -66 14 -15 7 -69 17 -120 21 -51 4 -98 12 -105 19 -7 6 -25 12
-42 13 -68 3 -156 16 -161 24 -3 5 -27 9 -54 9 -27 0 -51 4 -54 8 -3 5 -42 12
-87 15 -45 4 -87 10 -93 15 -6 5 -31 14 -56 22 -25 7 -49 17 -55 22 -5 4 -19
8 -32 8 -23 0 -107 24 -133 39 -9 5 -35 12 -58 16 -23 3 -52 15 -64 24 -13 10
-40 21 -60 25 l-38 7 0 -50z"/>
<path d="M5130 1952 c0 -5 -158 -12 -387 -16 -219 -4 -392 -11 -397 -17 -6 -5
-36 -9 -67 -9 -34 0 -74 -8 -98 -19 -42 -18 -161 -123 -161 -141 0 -5 -15 -30
-34 -54 -19 -25 -40 -62 -46 -82 -12 -35 -11 -38 16 -61 16 -13 38 -28 49 -33
11 -6 34 -19 50 -29 28 -18 53 -20 337 -20 193 -1 309 -5 313 -11 8 -13 527
-14 541 -1 5 5 41 12 79 14 87 6 203 25 230 36 11 5 28 12 37 15 15 4 16 10 8
32 -6 15 -19 39 -30 54 -11 16 -20 36 -20 47 -1 35 -56 128 -104 176 -74 73
-108 96 -162 108 -72 16 -154 22 -154 11z"/>
</g>
</svg>
