<?xml version="1.0" standalone="no"?>
<!DOCTYPE svg PUBLIC "-//W3C//DTD SVG 20010904//EN"
 "http://www.w3.org/TR/2001/REC-SVG-20010904/DTD/svg10.dtd">
<svg version="1.0" xmlns="http://www.w3.org/2000/svg"
 width="1277.000000pt" height="797.000000pt" viewBox="0 0 1277.000000 797.000000"
 preserveAspectRatio="xMidYMid meet">
<metadata>
Created by potrace 1.16, written by Peter Selinger 2001-2019
</metadata>
<g transform="translate(0.000000,797.000000) scale(0.100000,-0.100000)"
fill="#000000" stroke="none">
<path d="M7734 7030 c-202 -7 -216 -11 -257 -78 -69 -111 -85 -215 -45 -296
24 -51 78 -86 131 -86 22 0 37 -6 41 -15 8 -22 -4 -73 -21 -86 -10 -9 -194
-14 -686 -20 -649 -8 -866 -16 -1047 -39 -47 -6 -121 -15 -165 -20 -77 -9
-172 -25 -320 -55 -103 -22 -331 -98 -409 -137 -82 -41 -405 -281 -653 -485
-90 -73 -165 -133 -168 -133 -3 0 -52 -35 -107 -77 -56 -43 -144 -110 -195
-149 l-93 -70 -141 -12 c-122 -11 -148 -16 -199 -42 -50 -25 -60 -36 -75 -75
-13 -32 -16 -58 -11 -95 4 -32 3 -50 -4 -50 -6 0 -47 -18 -92 -41 -46 -22
-116 -54 -158 -70 -41 -17 -122 -56 -180 -87 -150 -81 -279 -142 -301 -142
-11 0 -59 -18 -107 -41 -83 -39 -190 -86 -422 -186 -58 -25 -118 -52 -135 -61
-16 -9 -32 -17 -35 -17 -102 -27 -489 -283 -505 -334 -3 -9 -31 -44 -63 -76
-48 -51 -189 -258 -197 -290 -1 -5 -8 -23 -14 -40 -7 -16 -26 -68 -41 -115
-16 -47 -45 -120 -64 -162 -72 -155 -97 -339 -85 -628 4 -107 8 -266 8 -352 1
-241 22 -313 105 -377 30 -22 72 -43 101 -50 28 -7 93 -22 145 -34 l95 -23 34
-64 c105 -204 173 -281 302 -344 l86 -43 184 -12 c101 -7 225 -17 276 -22 150
-15 241 -12 303 11 76 28 152 83 219 158 54 61 57 63 96 57 22 -3 94 -10 160
-15 66 -5 170 -14 230 -20 61 -6 162 -15 225 -21 63 -5 162 -14 220 -20 458
-43 605 -50 1755 -79 237 -6 526 -13 643 -16 l213 -6 31 -67 c17 -36 32 -68
32 -71 1 -3 21 -35 44 -72 118 -184 278 -238 702 -238 286 0 404 15 508 66 40
20 89 52 109 71 35 36 142 193 147 216 2 7 14 37 28 67 13 30 29 73 36 95 56
197 62 224 83 415 9 82 16 110 33 129 26 29 116 71 361 168 105 41 253 101
330 133 202 85 693 261 805 288 152 37 226 53 257 55 l36 2 33 -83 c39 -100
101 -184 163 -220 l46 -27 282 -3 c317 -4 322 -3 395 70 32 32 121 193 115
209 -1 3 4 13 12 22 7 10 10 17 6 17 -4 0 -3 6 3 12 28 35 90 400 95 566 l3
72 63 64 c78 78 77 78 91 376 5 122 16 247 25 290 9 41 17 125 17 185 1 94 -2
117 -21 160 -20 45 -21 54 -10 93 16 58 5 354 -16 437 -16 61 -66 145 -118
197 -16 16 -108 90 -205 165 -101 78 -246 205 -337 293 -88 85 -218 211 -290
280 -71 69 -178 172 -237 229 -59 57 -132 122 -163 143 -132 94 -386 146 -865
178 -184 12 -194 15 -186 43 3 12 6 46 6 75 0 44 3 52 19 52 26 0 40 20 50 76
6 27 19 87 30 134 l21 85 -21 42 c-11 24 -37 57 -57 73 l-37 30 -425 -2 c-234
-1 -507 -4 -606 -8z m1035 -92 c24 -24 31 -41 31 -70 0 -22 -4 -37 -9 -34 -4
3 -6 -6 -3 -21 3 -16 1 -24 -5 -20 -6 4 -8 -4 -5 -20 3 -16 1 -24 -5 -20 -6 4
-8 -4 -5 -20 3 -15 1 -24 -5 -20 -5 3 -9 -4 -9 -16 1 -21 -3 -22 -91 -22 -50
0 -89 -3 -87 -6 5 -8 -745 -21 -758 -13 -7 4 -8 3 -4 -4 9 -15 -267 -17 -295
-2 -50 27 -62 109 -27 187 12 26 20 52 20 56 -1 4 5 10 13 13 8 3 13 10 10 14
-11 18 31 32 117 40 51 4 316 8 589 9 l497 1 31 -32z m-249 -408 l0 -59 -37
-7 c-44 -8 -621 2 -646 12 -10 3 -17 17 -17 31 0 13 4 22 9 19 5 -4 7 2 4 12
-9 35 19 43 140 40 63 -2 113 0 110 5 -2 4 95 7 216 7 l221 0 0 -60z m-62
-139 c23 -6 23 -7 5 -22 -10 -9 -40 -24 -67 -34 -48 -18 -162 -116 -149 -129
4 -3 1 -6 -6 -6 -7 0 -10 -4 -7 -9 3 -5 -1 -11 -9 -15 -18 -7 -47 3 -40 14 3
5 -5 6 -17 2 -13 -3 -19 -1 -15 5 5 7 -1 9 -15 5 -12 -3 -19 -1 -15 4 3 5 -12
8 -35 6 -22 -3 -38 0 -35 4 3 5 -18 7 -45 5 -28 -2 -48 1 -45 5 3 5 -591 8
-1325 6 -1015 -2 -1329 1 -1326 10 4 11 209 58 256 58 12 0 22 4 22 9 0 5 9 7
20 4 11 -3 20 -1 20 3 0 5 22 7 50 6 27 -2 50 0 50 5 0 5 14 8 30 5 17 -2 30
0 30 4 0 5 22 7 50 6 27 -2 50 0 50 5 0 5 16 7 35 5 19 -2 35 0 35 5 0 15 246
25 765 32 636 9 1704 11 1733 2z m602 -32 c0 -7 15 -10 40 -7 22 2 40 0 40 -5
0 -5 29 -7 65 -5 36 1 65 -1 65 -6 0 -4 11 -6 25 -4 14 3 25 1 25 -4 0 -6 16
-8 35 -6 19 2 35 0 35 -5 0 -5 9 -7 20 -4 11 3 20 2 20 -3 0 -4 23 -10 52 -13
93 -11 219 -57 290 -106 36 -25 189 -165 340 -311 150 -145 327 -317 393 -380
66 -64 152 -141 190 -170 399 -307 402 -312 412 -614 7 -237 10 -230 -142
-332 -113 -77 -115 -77 -135 -59 -12 11 -42 22 -68 25 -45 5 -47 6 -54 45 -4
22 -7 101 -8 175 -1 241 -17 431 -40 493 -12 32 -25 57 -30 57 -4 0 -11 11
-14 25 -4 14 -11 25 -16 25 -6 0 -10 6 -10 13 0 7 -9 18 -20 25 -12 7 -18 17
-15 22 3 6 2 10 -4 10 -6 0 -61 62 -123 138 -486 594 -504 614 -620 693 -57
38 -102 75 -100 80 1 6 -2 8 -8 4 -15 -9 -51 5 -44 17 4 7 2 8 -5 4 -14 -9
-53 2 -46 14 3 4 -5 6 -17 2 -13 -3 -19 -1 -15 5 5 7 -1 9 -15 5 -12 -3 -19
-1 -15 5 4 5 -6 8 -25 5 -20 -3 -29 -1 -24 6 4 6 -2 8 -16 4 -13 -3 -19 -1
-15 5 4 6 -4 8 -20 5 -15 -3 -23 -1 -20 4 3 6 -9 8 -30 6 -20 -3 -33 -1 -30 4
6 12 -110 17 -348 18 -220 0 -315 -5 -307 -18 3 -5 -5 -7 -16 -4 -14 4 -20 2
-15 -5 4 -6 -2 -8 -15 -5 -14 4 -20 2 -15 -5 4 -7 0 -8 -11 -4 -9 4 -15 3 -12
-2 6 -10 -42 -33 -54 -26 -5 3 -12 0 -16 -6 -5 -8 -3 -9 6 -4 9 6 11 4 6 -4
-5 -7 -14 -10 -21 -7 -15 6 -84 -65 -78 -81 2 -6 -1 -15 -8 -19 -8 -5 -9 -3
-4 6 5 8 4 11 -3 6 -6 -4 -8 -14 -5 -23 5 -12 3 -14 -7 -8 -9 5 -11 4 -6 -4 9
-13 -2 -53 -13 -47 -4 3 -5 -9 -3 -26 3 -20 1 -29 -6 -24 -6 4 -8 -2 -4 -16 3
-12 1 -19 -4 -15 -6 3 -8 -9 -6 -30 3 -23 1 -33 -6 -29 -6 4 -8 -2 -4 -16 3
-13 1 -19 -5 -15 -7 5 -9 0 -6 -12 3 -11 -4 -59 -16 -108 -26 -107 -70 -308
-84 -382 -8 -40 -8 -56 0 -58 12 -4 -14 -92 -30 -104 -5 -3 -7 -12 -6 -20 1
-8 0 -21 -3 -29 -29 -78 -38 -109 -38 -125 0 -29 -56 -190 -81 -235 -22 -40
-23 -40 -43 -21 -25 22 -68 46 -78 43 -5 -1 -8 3 -8 9 0 5 -4 7 -10 4 -5 -3
-10 -1 -10 4 0 6 -11 11 -25 11 -30 0 -33 28 -9 85 9 21 24 73 35 114 10 42
28 97 39 123 11 26 20 68 20 93 0 45 1 46 28 43 24 -3 27 0 24 26 -2 15 0 26
5 23 4 -3 9 14 10 37 4 54 67 309 75 300 4 -3 4 4 1 17 -4 13 -2 20 4 16 5 -4
8 6 5 25 -3 20 -1 29 6 24 6 -4 8 2 4 16 -3 11 -1 19 4 16 5 -4 9 8 10 25 0
18 6 55 12 82 7 28 17 75 23 105 6 30 15 60 21 67 5 7 7 17 3 23 -3 5 -1 10 5
10 7 0 10 7 6 15 -3 8 -1 15 5 15 6 0 9 7 5 15 -3 8 -1 15 4 15 5 0 12 11 16
24 9 39 74 92 142 116 34 13 62 26 62 30 0 5 9 6 20 3 11 -3 20 -1 20 4 0 5
16 7 35 5 19 -2 35 0 35 6 0 5 11 7 25 4 14 -2 25 0 25 5 0 5 18 7 40 5 22 -2
40 0 40 4 0 5 34 8 75 6 49 -2 75 0 75 7 0 7 29 11 80 11 52 0 80 -4 80 -11z
m-80 -174 c7 -8 9 -15 4 -15 -5 0 -2 -5 6 -10 8 -5 15 -13 16 -17 0 -4 30 -66
66 -138 127 -252 265 -615 245 -646 -7 -12 -5 -34 6 -76 10 -33 17 -76 17 -96
0 -26 6 -41 24 -54 l23 -18 -61 -15 -61 -15 -35 41 c-44 53 -86 76 -180 103
-41 12 -84 26 -95 31 -85 36 -370 48 -439 17 -21 -9 -42 -15 -46 -12 -4 2 -15
-4 -25 -15 -10 -11 -15 -20 -12 -20 3 0 -5 -21 -18 -47 -23 -48 -75 -275 -75
-332 0 -34 -21 -58 -98 -113 l-51 -37 23 62 c13 34 27 81 31 104 4 24 11 45
16 49 5 3 7 9 4 14 -3 5 -2 11 3 14 4 2 7 25 7 50 -1 25 2 46 7 46 4 0 7 3 6
8 -1 4 4 20 10 35 7 16 12 37 12 47 0 10 12 52 27 92 17 47 27 98 29 143 3 77
9 106 91 438 56 226 57 229 99 272 76 79 193 121 340 124 53 1 75 -3 84 -14z
m269 4 c196 -25 387 -83 478 -145 63 -43 90 -82 141 -204 37 -88 153 -376 165
-410 3 -8 12 -31 20 -51 9 -19 12 -41 8 -48 -11 -17 -516 -165 -532 -156 -4 3
-13 -3 -20 -13 -13 -16 -13 -16 6 -2 19 14 19 14 6 -2 -7 -10 -24 -18 -36 -18
-20 0 -40 23 -37 41 0 3 -9 5 -21 5 -19 -1 -22 5 -25 42 -3 36 0 43 14 40 12
-2 17 4 18 24 1 14 -3 24 -8 21 -5 -4 -7 3 -4 15 4 12 2 20 -2 17 -5 -3 -13 9
-18 27 -6 18 -29 85 -52 148 -23 63 -47 133 -54 155 -29 91 -173 407 -188 413
-5 2 -8 12 -8 22 0 10 -7 20 -15 24 -8 3 -12 12 -9 21 3 8 1 15 -5 15 -6 0 -8
7 -5 15 7 18 62 20 183 4z m-1199 -33 c151 -27 158 -36 135 -153 -15 -79 -123
-514 -175 -702 -11 -41 -20 -86 -20 -101 0 -14 -13 -57 -30 -95 -16 -39 -30
-77 -30 -85 0 -11 -65 -163 -77 -179 -2 -3 -29 4 -60 13 -32 10 -107 25 -168
33 -279 36 -418 42 -1020 42 -330 1 -661 5 -735 11 -320 22 -909 39 -1372 40
-384 0 -708 16 -811 40 -23 5 -59 10 -79 10 -20 0 -39 4 -42 9 -9 14 4 41 20
41 8 0 14 5 14 10 0 6 7 13 16 17 34 13 83 68 86 98 3 27 7 31 44 35 49 7 67
18 195 120 54 43 121 94 151 113 29 20 134 102 233 183 172 140 511 398 604
459 32 22 65 33 125 41 128 18 2895 18 2996 0z m2086 -532 c88 -103 162 -195
166 -205 9 -22 -23 -44 -53 -36 -12 3 -17 1 -12 -6 4 -6 -2 -8 -15 -5 -12 4
-20 3 -17 -2 3 -4 -8 -10 -23 -13 -32 -7 -66 25 -59 55 3 11 1 15 -6 11 -7 -4
-8 0 -4 11 4 9 3 14 -2 11 -12 -7 -24 31 -15 46 4 7 3 9 -3 6 -6 -4 -26 36
-47 91 -21 53 -46 119 -57 146 -18 46 -24 76 -15 76 2 0 75 -84 162 -186z
m264 -321 c17 -14 30 -30 30 -35 0 -5 14 -21 30 -35 17 -14 29 -27 27 -29 -2
-3 10 -19 27 -37 17 -19 46 -64 64 -100 30 -61 34 -79 42 -205 5 -75 10 -228
12 -339 l2 -202 -36 -53 c-31 -44 -89 -150 -93 -168 -1 -3 -12 -27 -24 -55
-24 -54 -101 -280 -101 -298 0 -5 -12 -26 -26 -45 -33 -42 -70 -60 -606 -292
-43 -18 -81 -31 -84 -27 -8 8 -6 236 6 462 5 105 14 316 21 470 13 315 14 303
-60 498 -23 59 -39 113 -35 119 4 6 3 8 -3 5 -12 -8 -37 59 -27 74 5 8 3 9 -6
4 -10 -6 -12 -4 -7 9 4 11 3 15 -4 10 -6 -4 -16 0 -21 7 -6 9 -8 -11 -5 -61 3
-58 14 -98 47 -180 73 -181 73 -181 61 -470 -11 -244 -25 -596 -35 -858 -3
-75 -10 -130 -17 -138 -7 -8 -37 -26 -67 -40 -30 -13 -61 -31 -69 -39 -8 -8
-26 -18 -41 -21 -15 -3 -97 -33 -182 -66 -136 -52 -233 -98 -485 -228 -64 -32
-315 -143 -352 -154 -18 -6 -23 -3 -28 16 -3 13 -6 32 -6 43 4 218 21 730 26
761 10 71 7 445 -4 535 -11 88 -52 243 -77 291 -17 33 -18 48 -1 48 6 0 23 12
37 27 33 34 153 119 213 149 52 27 184 47 392 59 114 6 253 36 292 61 41 26
55 69 51 153 l-3 76 73 18 c64 16 75 16 85 4 7 -8 25 -18 41 -21 26 -7 28 -5
22 18 -5 20 -1 26 24 35 17 5 30 17 30 27 0 10 5 14 16 10 10 -4 13 -2 8 6 -5
7 1 9 19 6 15 -3 24 -2 22 2 -4 7 93 38 225 74 76 21 385 111 440 129 66 22
87 20 120 -10z m-1485 -114 c120 -41 206 -83 236 -117 36 -39 63 -175 41 -208
-12 -19 -184 -64 -247 -65 -33 0 -87 -5 -120 -10 -33 -5 -78 -9 -100 -9 -112
1 -249 -54 -363 -143 -29 -23 -69 -54 -89 -68 l-36 -26 -31 46 -31 45 89 61
c101 69 102 69 139 84 27 10 28 14 22 55 -4 27 0 76 10 127 30 151 45 191 86
233 l39 39 133 -7 c109 -6 147 -12 222 -37z m-5321 2 c7 -11 -71 -74 -83 -67
-5 3 -15 -2 -22 -12 -13 -16 -12 -16 6 -3 11 8 0 -4 -25 -27 -46 -42 -88 -56
-76 -26 3 8 2 12 -4 9 -6 -4 -10 8 -10 29 0 19 5 38 12 42 7 5 8 3 3 -6 -5 -8
-4 -11 3 -6 6 4 8 14 5 23 -5 13 -2 15 11 10 9 -4 15 -3 12 2 -8 12 50 35 69
27 9 -3 13 -2 10 4 -4 6 12 10 39 10 25 0 47 -4 50 -9z m326 -233 c135 -18
231 -21 750 -28 579 -7 965 -20 1220 -40 69 -6 397 -10 730 -10 757 -1 1005
-16 1081 -66 19 -13 42 -24 50 -24 7 0 41 -14 74 -30 33 -17 70 -30 83 -30 39
0 85 -26 131 -74 25 -25 43 -47 40 -48 -2 -2 -38 -21 -79 -42 -41 -22 -109
-59 -150 -84 -41 -25 -173 -94 -293 -154 -120 -60 -268 -139 -330 -177 -62
-38 -215 -120 -340 -182 l-228 -113 -51 28 -51 29 -141 -6 c-203 -9 -257 -25
-371 -112 -108 -82 -356 -177 -541 -209 -51 -8 -127 -24 -170 -35 -72 -18
-148 -32 -309 -60 -90 -16 -273 -35 -335 -35 l-55 -1 3 44 c4 50 -13 98 -37
105 -45 14 -126 28 -259 45 -81 11 -163 26 -182 34 -34 14 -226 46 -440 72
-58 7 -127 19 -155 25 -29 7 -117 12 -212 11 -90 -1 -163 0 -163 2 0 2 24 28
54 58 30 30 58 67 62 83 7 29 -5 77 -41 162 -20 46 -28 53 -89 82 -48 23 -81
32 -117 32 -46 0 -53 -3 -104 -53 -37 -36 -55 -61 -55 -78 0 -13 -8 -37 -17
-54 -9 -16 -20 -57 -24 -90 -7 -53 -5 -64 14 -92 12 -18 25 -33 30 -33 4 0 7
-4 7 -9 0 -12 -160 -20 -595 -30 -420 -9 -414 -8 -474 -76 -17 -20 -31 -40
-31 -45 0 -22 -49 -9 -69 18 -12 17 -70 55 -148 96 -70 37 -137 76 -147 86
-15 15 -19 34 -20 86 l-1 66 60 55 c33 30 92 73 130 95 39 23 102 60 140 83
39 23 111 59 160 80 50 21 95 42 101 46 27 21 502 219 526 219 20 0 28 7 36
28 8 24 26 35 118 71 60 24 149 63 197 88 134 67 357 154 378 148 11 -4 34 5
58 21 58 38 116 46 245 33 96 -9 112 -9 120 4 6 10 20 14 40 11 17 -3 101 -14
186 -26z m4261 -495 c99 -196 144 -543 120 -913 -6 -91 -16 -311 -21 -490 -8
-295 -11 -326 -27 -338 -10 -7 -54 -34 -98 -60 -44 -27 -90 -54 -102 -62 -29
-19 -53 1 -53 44 0 42 -18 145 -30 171 -11 24 -41 258 -33 265 7 8 33 -32 33
-52 0 -10 7 -18 16 -18 13 0 15 7 9 37 -4 20 -15 54 -26 75 -10 20 -19 49 -19
63 0 15 -14 41 -35 64 -19 21 -35 41 -35 45 0 4 -16 30 -35 59 -19 28 -35 61
-35 72 0 40 -109 159 -155 171 -58 15 -195 -5 -271 -39 -95 -41 -213 -151
-272 -252 -22 -39 -58 -90 -79 -114 l-39 -44 -49 56 c-26 31 -60 59 -74 62
-15 4 -49 34 -80 71 -46 54 -64 67 -109 81 -30 10 -57 23 -59 31 -3 7 4 43 16
79 15 44 24 104 28 180 5 91 9 113 21 113 8 0 36 13 61 28 25 15 78 41 116 57
39 16 160 75 270 132 110 57 270 138 355 179 228 110 368 183 430 222 30 19
83 48 118 63 34 16 65 35 68 44 11 29 28 10 75 -82z m2952 -123 c12 -45 -7
-250 -30 -319 -11 -34 -29 -63 -55 -86 -40 -37 -75 -47 -64 -19 3 8 2 12 -4 9
-5 -3 -12 11 -16 32 -4 21 -13 50 -20 65 -16 31 -18 52 -5 44 5 -3 2 24 -6 61
-7 37 -11 73 -8 81 2 7 1 11 -4 8 -15 -10 -22 27 -8 41 34 35 174 122 191 120
13 -1 23 -14 29 -37z m-7978 -206 c38 -22 52 -38 72 -81 14 -30 28 -73 31 -95
l5 -41 -36 7 c-19 4 -59 13 -87 22 l-51 15 4 69 c3 53 1 73 -10 82 -24 20 -43
-17 -43 -84 0 -32 -4 -58 -9 -58 -5 0 -31 -18 -57 -40 l-49 -40 -7 42 c-5 29
-4 48 6 63 8 12 16 39 19 60 4 31 15 48 49 78 37 33 48 37 79 33 20 -3 58 -18
84 -32z m7591 -5 c32 -10 124 -98 124 -118 0 -6 4 -11 9 -11 14 0 39 -84 50
-165 27 -199 18 -781 -12 -812 -4 -3 -7 25 -8 63 -2 195 -25 485 -50 634 -31
182 -71 250 -149 250 -66 0 -102 -42 -150 -173 -57 -156 -89 -272 -94 -347 -2
-36 -9 -94 -16 -130 -17 -90 0 -347 30 -445 33 -105 99 -217 143 -242 61 -34
156 11 205 97 17 30 32 46 34 38 3 -7 1 -20 -3 -28 -4 -8 -17 -42 -30 -75 -30
-82 -72 -154 -108 -189 -26 -25 -43 -31 -99 -37 -100 -12 -472 -10 -514 1 -63
18 -136 112 -178 231 -17 48 -9 65 37 79 21 6 45 14 53 17 8 4 18 7 23 8 4 2
10 4 15 5 4 2 12 4 17 5 6 2 13 4 18 5 4 1 10 3 15 4 65 17 134 81 178 168 21
41 28 71 31 133 3 44 11 98 18 120 8 22 19 76 25 120 26 190 77 388 158 617
30 87 64 167 74 178 16 18 28 20 71 15 29 -3 66 -10 83 -16z m-9375 -351 c7
-62 13 -202 14 -311 0 -164 -3 -199 -15 -207 -9 -6 -17 -5 -21 2 -4 6 -11 8
-17 4 -6 -3 -12 -2 -14 2 -1 5 -39 28 -83 52 -97 52 -125 76 -125 107 0 49 71
227 127 316 69 113 103 158 113 152 4 -2 13 -55 21 -117z m9363 78 c33 -80 60
-326 73 -674 7 -199 -11 -296 -72 -387 -22 -33 -48 -61 -57 -63 -23 -4 -90 89
-111 153 -50 157 -64 319 -43 500 21 180 38 256 82 366 57 142 98 176 128 105z
m354 -148 c-6 -154 -13 -191 -43 -221 -27 -27 -37 -20 -33 22 2 22 0 37 -4 35
-5 -3 -8 55 -8 128 l1 133 37 27 c20 15 41 27 46 28 5 0 6 -67 4 -152z m-4543
90 c24 -11 25 -15 25 -90 0 -99 -31 -226 -71 -292 -46 -74 -129 -180 -148
-188 -9 -3 -56 -18 -106 -32 -231 -65 -342 -99 -490 -146 -159 -51 -386 -113
-391 -107 -8 8 102 207 185 336 51 80 103 165 116 191 22 43 28 48 112 79 110
42 236 108 331 172 39 27 84 54 100 60 60 24 296 36 337 17z m-4981 -94 c166
-85 198 -136 216 -346 6 -73 15 -165 19 -204 8 -80 6 -94 -15 -94 -25 0 -272
131 -298 159 l-26 27 -4 252 c-3 180 -1 252 7 252 6 0 52 -21 101 -46z m1386
26 c36 -6 168 -14 294 -16 151 -3 255 -10 305 -21 42 -8 112 -21 156 -28 44
-7 143 -23 220 -35 77 -12 167 -30 200 -41 33 -10 133 -30 222 -44 89 -14 169
-28 177 -31 11 -4 14 -17 9 -53 -3 -28 -1 -57 6 -69 10 -19 6 -29 -27 -74 -54
-74 -157 -274 -177 -344 -10 -33 -27 -70 -40 -84 -12 -14 -27 -33 -32 -43 -8
-15 -29 -18 -173 -23 -90 -3 -166 -7 -170 -9 -13 -8 -502 -64 -695 -80 -110
-9 -216 -17 -235 -19 -19 -2 -64 1 -100 7 -36 5 -108 9 -160 8 -103 -2 -126 6
-117 38 6 26 -18 47 -51 43 -14 -2 -22 0 -18 6 4 6 -3 8 -16 4 -14 -3 -19 -1
-14 6 5 8 2 10 -9 6 -9 -4 -35 -2 -58 4 -23 6 -92 23 -154 38 -62 15 -110 30
-108 34 2 3 -10 4 -27 2 -20 -3 -29 -1 -24 6 4 6 -2 8 -16 4 -13 -3 -19 -1
-15 5 4 6 -4 8 -20 5 -18 -3 -24 -1 -19 6 4 8 2 10 -8 6 -8 -3 -43 9 -77 27
-64 34 -103 80 -95 112 2 9 0 15 -4 12 -5 -3 -11 30 -14 72 -4 43 -11 128 -16
189 -12 137 -13 197 -1 190 5 -4 7 4 3 16 -3 14 -1 19 6 14 8 -4 10 -2 6 8 -5
14 21 76 32 76 3 0 2 -5 -2 -12 -4 -7 -3 -8 4 -4 6 4 8 14 5 23 -5 13 -2 15
11 10 11 -4 15 -3 10 4 -4 8 11 10 49 7 30 -1 53 0 50 5 -2 4 153 6 344 5 345
-3 349 -3 345 17 -3 19 3 20 85 23 48 2 117 -2 153 -8z m7366 -236 c-8 -38
-20 -109 -26 -158 -11 -88 -39 -154 -61 -141 -5 4 -9 1 -9 -6 0 -7 -3 -9 -7
-6 -3 4 -11 3 -17 -2 -21 -17 -158 -61 -168 -55 -7 5 -8 2 -3 -6 6 -10 3 -12
-13 -8 -12 4 -20 2 -17 -2 7 -12 -32 -23 -46 -14 -8 5 -9 3 -4 -6 6 -10 3 -12
-13 -8 -14 4 -20 2 -15 -5 4 -6 -2 -8 -15 -5 -12 4 -20 2 -17 -2 7 -12 -32
-23 -46 -14 -7 4 -9 3 -6 -3 7 -11 -182 -83 -215 -83 -21 0 -21 6 -9 63 5 23
15 83 21 132 14 109 25 139 46 131 8 -3 13 -2 10 3 -4 7 150 81 169 81 3 0 26
9 51 20 24 12 50 18 56 14 7 -5 8 -3 3 6 -6 10 -3 12 13 8 14 -4 20 -2 15 5
-4 7 0 8 11 4 9 -4 15 -3 12 2 -8 12 50 35 65 25 8 -5 9 -3 4 6 -6 10 -4 12 9
7 9 -4 15 -3 12 2 -8 12 50 35 65 25 7 -4 10 -3 5 4 -8 13 29 26 45 16 8 -5 9
-3 4 6 -6 10 -4 12 9 7 9 -4 15 -3 12 2 -7 11 66 42 77 32 4 -5 1 -39 -7 -77z
m-2704 18 c29 -12 90 -91 98 -128 6 -26 5 -33 -3 -26 -60 44 -202 30 -344 -34
-37 -16 -60 -36 -83 -69 -18 -26 -52 -70 -76 -98 -89 -106 -102 -123 -118
-154 -9 -18 -19 -33 -22 -33 -3 0 -2 5 2 12 4 6 3 8 -4 5 -5 -4 -8 -17 -4 -29
3 -13 1 -19 -5 -15 -7 5 -9 0 -6 -12 3 -10 -9 -50 -26 -89 -17 -39 -31 -84
-31 -102 0 -17 -3 -29 -8 -26 -4 2 -6 -14 -4 -36 3 -22 0 -38 -4 -35 -5 3 -10
-32 -12 -77 -2 -44 -8 -97 -14 -116 -16 -48 -15 -482 1 -635 20 -191 56 -352
101 -457 33 -77 55 -109 115 -175 41 -44 71 -83 67 -87 -3 -4 1 -4 10 -1 9 4
18 0 21 -9 6 -14 -16 -16 -186 -16 -216 0 -351 19 -447 63 -88 41 -176 145
-222 262 -17 45 -14 65 10 65 30 0 152 32 152 40 0 5 9 6 20 3 12 -3 20 0 20
8 0 7 3 10 6 6 4 -3 15 4 25 16 10 12 18 18 19 14 0 -12 45 43 63 79 9 16 19
58 23 92 3 34 11 62 16 62 6 0 8 18 6 40 -2 22 0 40 5 40 5 0 7 11 5 25 -3 14
-1 25 4 25 6 0 8 18 6 40 -2 22 0 40 5 40 5 0 7 9 4 20 -3 11 -1 20 5 20 6 0
8 17 6 40 -2 22 0 41 3 42 4 2 13 37 19 78 23 151 62 350 85 435 39 143 45
170 45 192 0 13 -6 23 -14 23 -36 0 28 151 108 255 26 33 72 99 104 148 32 48
62 84 67 80 4 -5 5 -3 1 4 -16 28 119 148 198 175 51 17 155 23 188 10z
m-2006 -29 c-16 -42 -135 -230 -188 -296 -32 -40 -72 -99 -88 -132 -16 -33
-44 -81 -62 -107 -37 -53 -53 -58 -233 -78 -55 -7 -127 -18 -160 -25 -33 -7
-96 -16 -140 -20 -44 -4 -89 -9 -99 -12 -15 -4 -18 -2 -11 13 4 11 22 60 40
109 39 108 140 330 182 400 l29 49 104 13 c240 28 289 35 370 54 67 15 186 37
254 48 4 0 5 -7 2 -16z m-794 -98 c7 -7 -98 -213 -158 -310 -23 -38 -54 -100
-69 -136 -35 -90 -82 -133 -159 -148 -78 -15 -87 -5 -54 56 14 27 33 73 43
103 23 72 103 230 171 341 l55 88 72 4 c40 1 77 4 83 5 6 1 13 0 16 -3z m1835
-22 c21 -10 40 -22 42 -26 10 -23 116 -133 136 -142 13 -6 41 -32 61 -58 20
-26 43 -47 50 -47 19 0 18 -7 -6 -37 -38 -49 -61 -131 -59 -213 1 -43 -2 -83
-6 -90 -5 -8 -4 -11 3 -7 5 4 2 -21 -9 -55 -17 -59 -32 -129 -75 -355 -9 -51
-21 -93 -27 -93 -5 0 -7 -16 -5 -35 2 -19 0 -35 -5 -35 -5 0 -7 -11 -5 -25 3
-14 1 -25 -4 -25 -6 0 -8 -18 -6 -40 2 -22 0 -40 -5 -40 -5 0 -7 -11 -5 -25 3
-14 1 -25 -4 -25 -6 0 -8 -18 -6 -40 2 -22 0 -40 -3 -40 -7 0 -9 -7 -30 -163
-12 -83 -15 -92 -53 -133 -46 -49 -85 -63 -256 -90 -83 -13 -164 -14 -630 -4
-294 6 -613 15 -709 20 -95 6 -248 10 -340 10 -206 0 -692 29 -708 42 -6 5
-40 9 -75 8 -35 -1 -70 1 -79 4 -9 4 -62 8 -118 9 -55 1 -101 6 -101 11 0 4
-20 6 -45 4 -25 -2 -45 1 -45 5 0 5 -27 7 -60 5 -33 -1 -60 1 -60 6 0 4 -20 6
-45 4 -25 -2 -45 0 -45 4 0 5 -21 8 -47 8 -27 0 -86 4 -133 9 -47 5 -148 15
-225 21 -150 12 -224 23 -760 110 -225 37 -316 54 -440 81 -22 5 -60 13 -85
18 -25 5 -128 28 -230 51 -102 23 -204 46 -227 51 -58 11 -95 32 -127 69 -29
35 -35 80 -10 80 9 0 12 -5 8 -12 -4 -6 -3 -8 3 -5 5 4 41 -7 80 -23 145 -61
435 -114 493 -90 20 8 30 20 30 33 0 30 -42 157 -53 157 -4 0 -5 4 -2 10 3 6
1 10 -5 10 -6 0 -8 5 -5 10 3 6 1 10 -5 10 -6 0 -8 5 -5 10 3 6 2 10 -4 10 -6
0 -8 7 -5 15 4 8 1 15 -6 15 -6 0 -8 4 -5 10 3 5 1 10 -5 10 -6 0 -8 4 -5 10
3 6 1 10 -5 10 -6 0 -8 5 -5 10 3 6 1 10 -6 10 -7 0 -10 2 -7 5 8 8 -86 101
-118 118 -16 8 -103 38 -194 67 -212 67 -220 75 -220 195 0 79 10 110 26 84 5
-8 3 -9 -6 -4 -9 5 -11 4 -6 -4 4 -6 11 -9 16 -6 9 5 44 -9 175 -70 132 -61
242 -100 480 -167 44 -12 134 -41 200 -63 l120 -41 0 -34 c0 -31 -2 -33 -33
-34 -17 -1 -32 3 -32 8 0 4 -11 6 -25 4 -14 -3 -25 -1 -25 5 0 5 -14 7 -30 5
-17 -3 -30 0 -30 5 0 5 -7 7 -15 3 -8 -3 -15 -1 -15 4 0 6 -22 10 -49 10 -45
0 -50 -2 -64 -32 -20 -42 -8 -97 52 -247 65 -161 77 -180 124 -201 46 -20 261
-66 372 -80 39 -5 107 -14 153 -19 81 -11 170 -22 320 -41 42 -5 131 -16 197
-24 66 -8 192 -20 280 -25 88 -6 248 -16 355 -22 107 -7 294 -13 415 -13 253
-1 296 8 357 72 45 47 46 48 102 215 30 86 45 145 41 158 -4 12 -29 31 -58 45
-50 23 -61 24 -273 24 -158 0 -223 3 -232 12 -17 17 -15 55 4 62 9 3 204 6
435 6 230 0 419 3 419 8 0 4 45 6 100 4 55 -2 100 0 100 5 0 4 20 7 45 5 25
-2 45 0 45 4 0 5 40 8 90 6 53 -2 90 1 90 6 0 5 44 13 98 16 340 23 526 47
802 102 76 15 176 57 223 94 31 24 54 90 65 186 7 64 6 70 -10 69 -10 -1 -21
-5 -25 -10 -5 -4 -2 -5 6 0 10 6 12 4 7 -4 -4 -7 -17 -11 -28 -9 -17 3 -20 -4
-23 -51 -5 -61 -21 -110 -45 -128 -68 -53 -205 -92 -435 -123 -49 -7 -106 -16
-125 -21 -19 -5 -61 -9 -92 -9 -32 0 -58 -3 -58 -7 0 -5 -22 -6 -50 -5 -27 2
-50 0 -50 -5 0 -4 -35 -8 -77 -8 -105 0 -457 -26 -460 -34 -2 -3 -41 -5 -88
-3 -47 2 -85 0 -85 -5 0 -4 -200 -7 -444 -5 -430 2 -445 3 -451 22 -3 10 -19
30 -34 43 -25 21 -45 25 -172 35 -165 13 -420 29 -626 38 -79 3 -141 9 -139
13 2 3 -37 6 -88 7 -50 1 -152 7 -226 13 -74 7 -222 15 -328 18 l-193 6 -33
-32 -32 -31 -104 35 c-58 20 -148 47 -200 61 -139 37 -331 101 -397 133 -32
15 -78 36 -103 47 -162 68 -190 99 -190 208 0 105 53 296 82 296 6 0 19 -7 28
-15 9 -8 64 -39 123 -70 81 -41 118 -55 150 -55 36 0 49 -6 76 -34 19 -19 57
-45 85 -57 28 -12 86 -41 129 -66 52 -29 95 -46 130 -50 36 -4 64 -16 92 -38
64 -48 150 -79 385 -137 132 -32 221 -59 230 -69 24 -27 163 -69 228 -69 31 0
94 -7 140 -15 46 -8 111 -13 145 -11 34 3 139 10 232 15 187 12 307 23 555 51
91 10 217 22 281 26 l117 6 13 -28 c16 -33 52 -43 77 -22 40 34 162 51 162 23
0 -9 12 -21 26 -27 23 -11 28 -9 54 19 27 28 34 30 152 42 67 7 139 17 158 22
20 5 110 18 200 29 187 23 209 27 375 68 66 17 149 35 184 42 35 6 123 31 195
55 72 24 145 46 161 48 17 3 41 8 55 11 14 3 105 24 203 46 98 23 189 45 201
50 13 4 38 32 56 62 101 161 126 198 132 198 4 0 24 -8 45 -17z m1028 -85 c41
-24 58 -43 76 -80 12 -26 35 -59 51 -73 15 -14 28 -33 28 -43 0 -9 9 -41 21
-71 11 -30 18 -63 16 -73 -3 -11 -1 -15 6 -11 6 4 8 -2 5 -15 -4 -12 -3 -20 1
-18 13 8 39 -126 60 -304 6 -47 16 -131 22 -187 22 -190 -2 -544 -53 -768 -38
-170 -115 -338 -196 -427 -108 -120 -277 -145 -401 -61 -213 146 -302 430
-305 980 -1 193 9 336 35 488 15 87 42 184 50 179 4 -2 5 6 1 18 -3 13 -1 19
5 15 7 -5 9 1 5 15 -3 12 -1 19 4 15 6 -3 8 8 6 27 -4 38 15 81 62 141 17 22
39 51 48 65 9 14 24 34 34 45 11 11 38 43 62 71 56 69 135 100 255 103 38 1
60 -6 102 -31z m1891 -74 c-6 -22 -25 -154 -26 -177 0 -5 -4 -6 -8 -3 -5 3 -6
-9 -4 -26 3 -19 1 -28 -5 -25 -6 4 -8 -4 -5 -20 3 -17 1 -24 -6 -19 -6 3 -8
-1 -6 -11 3 -10 -2 -27 -11 -38 -9 -11 -13 -13 -9 -5 4 8 3 12 -1 7 -5 -4 -9
-15 -10 -25 -1 -12 6 -17 26 -17 15 0 25 4 22 9 -3 5 6 7 20 4 15 -3 24 -2 22
3 -7 11 32 22 46 13 8 -5 9 -3 4 6 -6 10 -3 12 13 8 14 -4 20 -2 15 5 -4 7 0
8 11 4 9 -4 15 -3 12 1 -2 4 44 25 102 46 59 21 166 60 237 86 72 27 140 51
153 55 12 3 22 10 22 15 0 5 7 7 15 4 8 -4 15 -2 15 4 0 6 9 8 20 5 15 -4 20
-14 20 -40 0 -20 -4 -32 -10 -28 -6 3 -7 -1 -4 -9 7 -17 -30 -86 -72 -136 -18
-21 -33 -30 -46 -27 -11 3 -16 1 -11 -6 4 -6 -2 -8 -15 -5 -14 4 -20 2 -16 -4
5 -7 -2 -9 -19 -6 -15 3 -24 1 -21 -3 7 -11 -42 -23 -57 -13 -8 5 -9 3 -4 -6
6 -10 3 -12 -13 -8 -14 4 -20 2 -16 -4 5 -7 -2 -9 -19 -6 -16 3 -24 1 -20 -5
4 -6 -2 -8 -15 -5 -14 4 -20 2 -16 -4 5 -7 -2 -9 -19 -6 -15 3 -24 2 -22 -3 3
-4 -9 -10 -27 -14 -47 -9 -163 -35 -235 -52 -34 -8 -68 -11 -74 -7 -8 5 -9 3
-4 -6 6 -10 3 -12 -13 -8 -14 4 -20 2 -15 -5 4 -6 -2 -8 -15 -5 -14 4 -20 2
-15 -5 4 -6 -2 -8 -15 -5 -14 4 -20 2 -15 -5 4 -6 -2 -8 -15 -5 -12 4 -20 2
-17 -3 8 -11 -40 -23 -56 -13 -8 4 -9 3 -5 -4 8 -14 -37 -27 -55 -16 -7 4 -9
3 -5 -4 8 -13 -29 -26 -46 -16 -7 4 -10 3 -5 -1 8 -10 -31 -26 -208 -86 -141
-47 -245 -90 -245 -101 0 -4 -7 -5 -15 -2 -8 4 -15 1 -15 -6 0 -6 -4 -8 -10
-5 -5 3 -10 1 -10 -5 0 -6 -4 -8 -10 -5 -5 3 -10 1 -10 -5 0 -6 -4 -9 -9 -6
-5 4 -11 3 -13 -2 -6 -14 -137 -64 -149 -56 -7 4 -9 3 -5 -4 8 -13 -29 -26
-45 -16 -7 4 -9 3 -5 -4 8 -13 -29 -26 -45 -16 -7 4 -9 3 -5 -4 8 -13 -29 -26
-45 -16 -8 5 -9 3 -4 -6 6 -10 3 -12 -13 -8 -12 4 -20 3 -17 -1 4 -7 -236
-111 -265 -114 -11 -2 -16 11 -18 49 l-3 51 58 26 c32 14 94 40 138 57 44 17
89 37 100 45 43 27 225 96 236 89 8 -5 9 -3 4 6 -6 10 -4 12 9 7 9 -4 14 -3
11 2 -7 12 31 24 46 15 7 -4 9 -3 5 4 -8 13 29 26 45 16 7 -4 9 -3 5 4 -8 13
29 26 45 16 7 -4 9 -3 5 4 -8 13 29 26 45 16 8 -5 9 -3 4 6 -6 10 -4 12 9 7 9
-4 14 -3 11 2 -7 12 31 24 46 15 8 -5 9 -3 4 6 -6 10 -3 12 13 8 14 -4 20 -2
15 5 -4 7 0 8 11 4 9 -4 15 -3 12 2 -8 13 291 124 307 114 6 -4 7 -1 2 7 -6
10 -3 12 13 8 12 -4 20 -2 17 2 -7 12 32 23 46 14 8 -5 9 -3 4 6 -6 10 -4 12
9 7 11 -4 15 -3 11 4 -4 6 0 9 11 7 13 -2 18 3 18 21 0 22 -3 23 -66 25 -37 0
-64 -3 -61 -8 3 -5 -6 -7 -21 -4 -14 3 -29 1 -33 -5 -4 -6 -1 -7 7 -2 9 6 11
4 5 -4 -4 -7 -16 -11 -26 -8 -11 3 -17 1 -14 -3 7 -12 -32 -23 -46 -14 -8 5
-9 3 -4 -6 6 -10 4 -12 -9 -7 -9 4 -15 3 -12 -1 2 -4 -41 -25 -97 -47 -262
-100 -720 -289 -825 -340 -72 -35 -107 -41 -115 -21 -3 8 -9 50 -13 92 -6 70
-6 77 10 71 11 -5 15 -3 10 5 -5 7 0 9 14 6 14 -4 20 -2 15 5 -4 6 2 8 15 5
14 -4 20 -2 15 5 -4 6 0 8 10 4 9 -3 19 -1 23 5 4 7 3 8 -4 4 -7 -4 -12 -4
-12 -1 0 3 30 20 67 36 57 26 69 29 89 18 19 -10 28 -9 49 5 18 12 25 24 22
36 -4 14 6 22 42 35 25 10 52 22 58 28 7 5 20 7 28 3 11 -4 14 -2 9 6 -5 8 -2
9 10 5 9 -4 15 -3 12 1 -6 10 122 74 134 67 5 -3 12 0 16 6 5 8 3 9 -7 4 -10
-5 -11 -5 -4 2 6 6 37 22 70 35 437 179 692 292 707 313 4 6 8 7 8 2 0 -4 28
11 63 33 34 22 66 40 71 40 4 0 5 -12 2 -26z m-8542 -670 c9 -3 14 -9 11 -14
-2 -4 7 -5 22 -2 17 3 24 1 19 -6 -4 -6 2 -8 16 -4 16 4 19 2 13 -8 -5 -9 -4
-11 4 -6 15 10 64 -2 57 -13 -3 -4 6 -6 21 -3 19 4 24 2 18 -8 -5 -8 -4 -11 2
-7 19 12 141 -34 187 -69 28 -21 57 -57 78 -96 18 -34 33 -65 34 -68 0 -3 11
-27 23 -54 23 -52 25 -92 4 -90 -7 1 -29 2 -49 3 -19 0 -33 4 -30 9 2 4 -14 6
-36 4 -25 -3 -38 -1 -35 5 4 6 -4 8 -20 5 -16 -3 -24 -1 -20 5 4 6 -4 8 -20 5
-16 -3 -24 -1 -20 5 4 6 -4 8 -20 5 -19 -4 -24 -2 -18 8 5 9 4 11 -4 6 -18
-11 -63 2 -55 16 4 7 3 8 -5 4 -15 -9 -53 3 -46 15 3 5 -1 6 -9 3 -20 -8 -74
21 -118 64 l-38 36 0 121 c0 133 2 141 34 129z m1526 -13 c151 -13 530 -38
780 -51 271 -14 431 -29 448 -42 23 -19 7 -318 -18 -326 -6 -2 -8 -8 -4 -13 7
-12 -91 -12 -231 0 -103 9 -208 17 -580 41 -82 6 -204 15 -270 20 -66 5 -199
14 -295 20 -258 16 -279 19 -301 41 -17 17 -19 34 -19 162 0 101 4 147 13 156
13 14 271 10 477 -8z m-780 -154 c0 -5 7 -7 15 -3 8 3 15 1 15 -5 0 -7 12 -9
30 -7 17 3 30 0 30 -5 0 -5 11 -7 25 -5 14 3 25 1 25 -4 0 -5 17 -8 38 -6 l37
3 8 -80 c12 -123 22 -129 262 -145 88 -6 221 -15 295 -21 150 -10 353 -24 565
-39 77 -6 201 -14 275 -20 350 -25 366 -25 404 1 28 19 38 34 46 72 5 26 10
57 10 67 0 19 9 20 229 20 132 0 241 -4 256 -10 33 -12 33 -13 -24 -169 -43
-122 -65 -153 -121 -178 -49 -22 -233 -27 -485 -14 -115 6 -295 16 -400 21
-178 9 -283 19 -450 39 -111 14 -482 60 -575 72 -150 19 -383 70 -411 90 -34
24 -149 304 -135 327 7 12 36 11 36 -1z m-205 -527 c60 -13 130 -29 178 -40
23 -6 83 -17 132 -26 92 -16 107 -18 325 -53 189 -31 178 -26 190 -74 6 -23
21 -74 34 -114 13 -39 21 -74 18 -77 -8 -9 -102 -7 -226 3 -61 6 -176 15 -256
21 -129 11 -153 16 -217 45 -66 30 -173 115 -173 137 0 5 -9 19 -21 31 -31 33
-91 145 -84 157 3 5 18 8 33 4 15 -3 45 -9 67 -14z m981 -178 c-3 -5 9 -6 26
-4 18 3 28 1 25 -5 -3 -5 6 -8 21 -5 36 5 95 -11 100 -27 6 -17 -97 -113 -114
-107 -7 3 -16 0 -20 -6 -5 -7 -2 -8 7 -4 8 4 5 0 -5 -8 -22 -18 -51 -22 -41
-6 3 5 0 7 -9 4 -9 -3 -21 5 -32 21 -19 29 -46 134 -38 147 3 4 23 8 45 8 22
0 38 -4 35 -8z"/>
<path d="M8405 6929 c6 -9 2 -11 -13 -7 -13 4 -26 0 -34 -11 -12 -14 -11 -15
7 -2 19 14 19 14 2 -5 -18 -19 -18 -19 -58 4 -52 30 -89 24 -89 -14 0 -14 10
-34 23 -45 l22 -19 -28 -25 c-15 -14 -24 -25 -20 -25 4 0 1 -5 -7 -11 -11 -8
-12 -12 -2 -16 6 -2 10 -9 7 -14 -13 -20 45 -20 78 0 38 24 62 27 73 9 5 -7 3
-8 -6 -3 -8 5 -11 4 -6 -3 4 -6 14 -8 23 -5 10 4 14 2 9 -5 -4 -8 3 -8 26 -1
18 5 34 9 35 9 8 0 1 53 -9 70 -10 15 -9 22 4 37 13 16 33 82 20 69 -2 -3 -18
2 -34 10 -20 11 -28 12 -23 3z"/>
<path d="M7647 6917 c3 -5 -3 -7 -13 -5 -14 2 -18 -2 -16 -16 2 -10 0 -16 -5
-13 -5 3 -9 -3 -9 -13 0 -10 4 -16 9 -13 5 3 7 -3 5 -13 -2 -14 2 -18 16 -16
10 2 15 -1 12 -6 -3 -5 6 -7 20 -4 26 5 26 4 22 -55 -2 -49 0 -59 11 -55 8 3
12 1 9 -4 -9 -13 48 -9 65 4 9 8 12 23 9 39 -3 17 -1 24 6 19 6 -4 8 2 4 16
-3 14 -1 19 6 14 8 -5 10 -1 5 10 -5 14 -2 16 15 12 13 -4 20 -2 16 4 -4 5 3
8 16 6 21 -3 23 1 23 42 0 37 -3 44 -18 42 -9 -2 -15 0 -12 5 3 4 -41 8 -98 8
-57 0 -101 -4 -98 -8z"/>
<path d="M7961 6905 c-10 -11 -17 -25 -14 -31 2 -6 -4 -17 -14 -25 -17 -13
-17 -13 -3 6 14 18 14 19 -2 7 -9 -8 -15 -19 -12 -26 3 -7 -3 -19 -13 -27 -17
-13 -17 -13 -3 6 14 18 14 19 -2 7 -9 -8 -15 -19 -12 -27 3 -7 0 -16 -7 -21
-8 -5 -10 -3 -4 6 5 7 4 11 -1 7 -10 -6 -11 -64 -1 -74 9 -9 71 -8 85 1 7 4
10 12 6 17 -6 11 33 59 48 59 5 0 27 -18 49 -39 44 -42 75 -56 86 -39 10 17 9
77 -1 70 -5 -3 -7 2 -3 11 3 9 -1 21 -11 29 -16 12 -16 11 -2 -7 14 -19 14
-19 -3 -6 -10 8 -16 20 -13 27 3 7 -3 18 -12 26 -16 12 -16 11 -2 -7 14 -19
14 -19 -3 -6 -10 8 -16 20 -13 27 8 20 -31 47 -70 48 -23 1 -41 -6 -53 -19z"/>
<path d="M8575 6922 c-2 -2 -1 -11 2 -20 4 -8 2 -13 -3 -10 -5 4 -7 -13 -5
-39 2 -25 -1 -43 -5 -40 -5 3 -9 -12 -9 -33 0 -21 4 -36 9 -32 5 3 7 -1 4 -9
-4 -11 4 -14 36 -13 33 1 40 5 38 19 -2 9 0 15 5 12 4 -3 7 33 6 80 l-1 86
-37 1 c-20 1 -38 -1 -40 -2z"/>
<path d="M1942 3606 c-3 -5 -5 -24 -5 -42 l0 -33 164 -5 c90 -2 237 -5 327 -5
90 -1 161 -4 159 -8 -3 -5 22 -6 55 -5 43 3 63 0 71 -11 16 -19 41 -27 57 -17
11 7 11 14 -1 42 -7 18 -13 36 -11 40 1 4 -5 5 -14 1 -12 -4 -15 0 -12 16 l3
22 -235 0 c-129 0 -306 3 -393 7 -95 4 -161 3 -165 -2z"/>
<path d="M3095 3536 c-145 -21 -173 -33 -185 -75 -5 -20 -10 -44 -10 -53 0
-15 -9 -18 -56 -18 -30 0 -53 3 -51 8 3 4 -29 6 -70 4 -52 -3 -73 0 -69 7 5 7
1 8 -9 5 -18 -7 -586 37 -580 45 1 3 -25 6 -60 6 -36 0 -61 -4 -57 -9 3 -5 -1
-7 -9 -4 -10 4 -14 -4 -14 -32 0 -28 4 -36 14 -32 9 3 12 1 7 -6 -5 -8 -1 -10
10 -5 10 3 15 2 12 -3 -4 -5 25 -9 65 -9 103 0 317 -17 313 -24 -2 -3 19 -4
46 -2 28 2 48 -1 45 -5 -3 -5 24 -7 60 -6 36 2 63 0 60 -5 -3 -4 15 -6 40 -4
25 2 43 -1 40 -5 -3 -5 24 -7 60 -6 36 2 63 0 60 -5 -3 -4 16 -7 42 -5 41 3
50 0 81 -30 35 -33 35 -33 33 -117 l-2 -84 77 6 c42 4 111 11 152 16 110 15
788 13 912 -1 57 -7 123 -12 148 -13 40 0 45 3 54 28 18 51 2 61 -120 71 -60
5 -185 10 -279 10 -243 1 -764 -21 -805 -33 -47 -15 -60 -14 -60 4 0 8 -9 15
-20 15 -25 0 -27 34 -6 85 15 35 15 35 81 35 36 0 64 -3 62 -7 -3 -5 62 -7
145 -5 82 2 148 -1 145 -5 -3 -4 107 -7 244 -6 137 1 247 -2 245 -5 -2 -4 21
-5 51 -4 32 3 53 0 50 -5 -4 -6 16 -6 50 -2 31 4 61 5 66 2 6 -3 7 -1 3 5 -5
8 2 12 19 12 17 0 24 -4 19 -12 -4 -7 -3 -8 4 -4 7 4 27 3 46 -2 30 -9 34 -8
29 6 -4 9 -2 13 4 9 8 -5 8 5 1 31 l-10 38 -326 12 c-680 25 -877 34 -890 37
-14 5 -6 57 10 63 4 2 6 7 3 12 -7 12 278 12 410 0 61 -5 193 -16 295 -25 203
-17 227 -20 315 -40 53 -12 261 -36 339 -39 40 -1 71 40 57 77 -18 47 -55 57
-208 57 -94 0 -154 5 -187 15 -68 21 -197 29 -626 39 -160 4 -251 2 -315 -8z"/>
<path d="M1936 3304 c-3 -9 -6 -27 -6 -40 0 -31 15 -37 155 -58 61 -10 120
-22 132 -28 12 -6 31 -8 42 -5 12 3 21 1 21 -5 0 -6 13 -8 30 -6 17 3 30 0 30
-5 0 -5 14 -7 30 -5 17 3 30 0 30 -5 0 -5 14 -7 30 -5 17 3 30 0 30 -5 0 -5
11 -7 25 -5 14 3 25 2 25 -3 0 -7 33 -22 55 -24 50 -5 105 -19 105 -26 0 -5 9
-9 21 -9 17 0 20 5 17 33 -2 27 -9 34 -38 44 -20 6 -34 17 -32 24 5 20 -20 60
-35 55 -7 -3 -13 -2 -13 2 0 4 -60 16 -132 26 -73 10 -198 29 -278 42 -174 28
-235 31 -244 8z"/>
<path d="M1963 3153 c-16 -6 -16 -33 0 -54 12 -16 40 -24 334 -95 84 -20 150
-41 147 -45 -3 -5 1 -6 9 -3 8 3 17 -2 21 -12 5 -13 14 -15 46 -10 26 4 56 0
92 -13 88 -31 142 -45 163 -42 31 4 46 22 43 50 -3 24 -7 26 -53 28 -27 2 -76
8 -108 14 -50 10 -57 15 -55 33 2 16 -2 20 -16 18 -10 -2 -16 1 -13 6 3 4 -8
6 -25 4 -17 -3 -28 -1 -25 4 3 5 -9 10 -27 11 -17 1 -134 26 -260 57 -225 55
-249 59 -273 49z"/>
<path d="M3980 2999 c-96 -4 -211 -12 -255 -18 -44 -6 -143 -16 -220 -21 -129
-9 -339 -33 -392 -45 -15 -3 -23 -13 -23 -25 0 -18 5 -20 53 -15 28 3 194 10
367 16 706 25 664 23 693 42 15 9 27 26 27 37 0 18 -9 23 -65 34 -5 1 -89 -2
-185 -5z"/>
<path d="M5705 2320 c-176 -19 -328 -34 -500 -51 -365 -35 -385 -40 -433 -117
-78 -123 -182 -326 -182 -354 0 -40 29 -87 57 -95 35 -8 655 4 808 16 66 5
201 14 300 20 418 26 561 55 586 118 17 46 4 95 -48 179 -27 43 -64 109 -82
145 -18 37 -50 83 -70 103 -32 31 -48 39 -102 46 -84 12 -130 11 -334 -10z
m355 -99 c14 -9 45 -55 70 -102 25 -47 60 -109 78 -137 17 -29 32 -61 32 -71
0 -38 -111 -54 -605 -86 -467 -30 -929 -43 -939 -27 -8 13 136 275 172 314 14
15 33 30 41 32 9 3 162 19 341 36 179 17 404 40 500 49 192 20 272 18 310 -8z"/>
<path d="M7420 3030 c-43 -10 -70 -43 -70 -82 0 -27 -2 -29 -32 -27 -21 2 -32
-1 -31 -8 2 -7 -7 -34 -18 -60 -48 -111 -86 -448 -76 -672 13 -285 58 -500
127 -601 71 -105 143 -152 236 -153 97 -2 160 67 236 258 63 157 69 206 68
515 0 227 -4 297 -20 395 -28 166 -45 223 -73 254 -14 14 -28 42 -32 61 -11
50 -32 87 -61 106 -29 20 -196 29 -254 14z m210 -105 c0 -11 13 -48 29 -82 38
-80 66 -181 86 -317 14 -88 16 -158 12 -370 -4 -231 -7 -270 -26 -336 -29 -97
-92 -232 -125 -265 -66 -66 -182 11 -238 157 -28 76 -57 265 -68 447 -8 132
-7 194 6 315 16 163 38 274 61 320 8 16 13 45 11 65 -3 34 -1 37 22 33 18 -2
33 5 54 27 28 30 33 31 103 28 65 -2 73 -4 73 -22z"/>
</g>
</svg>
