<?xml version="1.0" standalone="no"?>
<!DOCTYPE svg PUBLIC "-//W3C//DTD SVG 20010904//EN"
 "http://www.w3.org/TR/2001/REC-SVG-20010904/DTD/svg10.dtd">
<svg version="1.0" xmlns="http://www.w3.org/2000/svg"
 width="862.000000pt" height="595.000000pt" viewBox="0 0 862.000000 595.000000"
 preserveAspectRatio="xMidYMid meet">
<metadata>
Created by potrace 1.16, written by Peter Selinger 2001-2019
</metadata>
<g transform="translate(0.000000,595.000000) scale(0.100000,-0.100000)"
fill="#000000" stroke="none">
<path d="M5200 5455 c0 -8 -7 -15 -15 -15 -23 0 -18 -51 8 -82 12 -15 34 -31
50 -37 21 -8 27 -17 27 -41 0 -17 -5 -39 -12 -50 -9 -15 -9 -29 0 -67 16 -60
8 -85 -40 -131 -21 -20 -23 -60 -4 -87 7 -11 16 -39 19 -61 4 -23 14 -54 22
-70 8 -16 15 -43 15 -60 0 -16 7 -39 15 -50 30 -40 10 -109 -37 -127 -10 -3
-18 -10 -18 -15 0 -5 -23 -13 -52 -16 -28 -4 -60 -12 -71 -18 -11 -5 -34 -12
-51 -15 -17 -3 -38 -11 -46 -18 -8 -7 -32 -15 -52 -19 -20 -4 -50 -13 -65 -21
-15 -8 -35 -15 -43 -15 -9 0 -24 -6 -35 -14 -11 -7 -36 -17 -55 -21 -19 -4
-44 -14 -55 -21 -11 -8 -30 -14 -43 -14 -12 0 -25 -7 -28 -15 -4 -9 -19 -15
-38 -15 -17 0 -47 -8 -66 -18 -19 -10 -69 -26 -110 -36 -41 -11 -82 -25 -90
-31 -8 -7 -34 -16 -57 -20 -24 -4 -43 -10 -43 -15 0 -5 -19 -11 -42 -15 -24
-4 -50 -13 -58 -20 -8 -7 -36 -16 -62 -19 -25 -4 -49 -13 -51 -20 -3 -8 -26
-17 -51 -20 -25 -4 -48 -11 -51 -17 -4 -5 -23 -9 -43 -9 -20 0 -50 -9 -67 -20
-16 -11 -40 -20 -53 -20 -13 0 -32 -5 -43 -11 -11 -5 -46 -14 -77 -19 -31 -6
-58 -14 -60 -20 -2 -5 -20 -10 -40 -10 -34 1 -39 4 -59 48 -12 26 -24 71 -27
100 -3 29 -12 62 -21 74 -8 13 -15 34 -15 48 0 14 -7 34 -15 44 -8 11 -15 29
-15 40 0 12 -9 35 -20 51 -11 17 -20 37 -20 46 0 9 -7 30 -15 45 -8 16 -15 39
-15 50 0 12 -6 27 -14 33 -8 7 -18 26 -21 42 -4 16 -14 33 -23 39 -16 9 -16
11 1 20 9 6 17 16 17 22 0 17 42 51 89 72 34 16 46 17 62 8 26 -16 71 -15 105
3 16 8 37 15 47 15 10 0 20 7 23 15 4 8 12 15 20 15 8 0 14 7 14 15 0 8 7 15
15 15 19 0 29 39 17 70 -14 35 -49 70 -71 70 -10 0 -24 7 -31 15 -11 13 -68
15 -404 14 -215 0 -413 -5 -441 -10 -27 -5 -62 -12 -77 -16 -15 -3 -30 -14
-33 -24 -4 -10 -13 -19 -21 -19 -10 0 -14 -13 -14 -45 0 -34 5 -47 20 -55 11
-6 20 -20 20 -31 0 -11 7 -22 15 -25 8 -4 15 -15 15 -25 0 -10 6 -19 13 -19 6
0 27 -16 44 -35 32 -34 34 -35 110 -35 51 0 88 6 108 16 19 10 31 11 33 5 2
-6 10 -11 18 -11 15 0 60 -65 66 -95 2 -11 12 -21 23 -23 11 -2 34 -10 52 -18
17 -8 36 -14 41 -14 18 0 25 -20 33 -89 11 -95 30 -175 44 -183 7 -4 16 -29
20 -55 4 -26 13 -59 20 -73 7 -14 16 -43 20 -65 3 -22 13 -47 20 -55 7 -8 16
-38 20 -65 6 -45 4 -54 -19 -78 -14 -16 -26 -35 -26 -43 0 -8 -7 -17 -15 -20
-8 -3 -17 -15 -21 -26 -5 -18 -12 -20 -48 -15 -23 3 -55 13 -71 21 -20 11 -58
16 -113 16 -63 0 -84 3 -88 14 -3 8 -20 18 -37 22 -18 4 -36 13 -42 20 -10 13
-60 28 -142 43 -24 4 -51 15 -61 24 -10 10 -24 17 -30 17 -7 0 -12 9 -12 20 0
14 7 20 21 20 32 0 77 31 84 57 3 13 10 23 15 23 6 0 10 11 10 25 0 22 -4 25
-33 25 -18 0 -43 -7 -56 -16 -21 -15 -44 -16 -187 -10 -89 4 -171 8 -181 10
-10 2 -126 7 -258 11 -143 4 -264 13 -300 21 -80 18 -229 18 -291 -1 -27 -8
-74 -15 -104 -15 -72 0 -97 -8 -103 -30 -5 -21 30 -60 54 -60 27 0 36 -20 31
-68 -3 -36 0 -51 12 -61 9 -7 16 -21 16 -31 0 -24 32 -50 61 -50 40 0 69 -11
69 -26 0 -8 -4 -14 -10 -14 -5 0 -10 -22 -10 -50 0 -29 -5 -50 -11 -50 -6 0
-28 -18 -49 -39 -64 -65 -105 -92 -126 -84 -11 3 -37 21 -58 40 -22 18 -47 33
-55 33 -29 -1 -61 -37 -61 -68 0 -17 -7 -37 -15 -46 -25 -24 -18 -66 15 -98
17 -15 30 -30 30 -33 0 -3 -16 -21 -35 -41 -19 -19 -35 -44 -35 -54 0 -10 -7
-20 -15 -24 -8 -3 -15 -10 -15 -15 0 -6 -23 -34 -50 -63 -35 -37 -52 -64 -56
-90 -4 -20 -12 -39 -20 -42 -7 -3 -16 -22 -20 -43 -4 -21 -11 -46 -16 -56 -12
-24 -44 -150 -53 -212 -4 -27 -10 -54 -13 -60 -8 -12 -15 -150 -16 -346 -1
-106 3 -150 12 -162 7 -8 17 -46 22 -84 16 -117 22 -148 31 -159 16 -19 79
-148 79 -160 0 -6 6 -17 14 -23 8 -7 18 -26 21 -42 4 -16 10 -29 13 -29 4 0
13 -13 20 -29 7 -16 24 -41 37 -55 14 -15 25 -29 25 -31 0 -9 48 -55 58 -55 5
0 12 -10 16 -23 3 -13 26 -41 52 -62 26 -22 65 -57 88 -78 22 -20 46 -37 53
-37 6 0 15 -9 18 -20 3 -11 14 -20 24 -20 10 0 24 -7 31 -15 7 -8 18 -15 25
-15 7 0 18 -6 24 -14 7 -8 25 -18 41 -21 16 -3 31 -13 34 -21 3 -8 12 -14 20
-14 14 0 70 -24 121 -53 23 -12 121 -34 214 -48 36 -5 81 -14 100 -21 43 -14
323 -13 350 2 10 5 63 12 117 16 55 4 104 10 109 14 6 5 28 12 50 16 22 4 49
13 60 20 11 7 37 16 58 19 20 4 37 11 37 16 0 4 16 11 35 15 19 3 39 12 45 19
6 8 25 17 41 20 16 4 29 13 29 21 0 8 4 14 10 14 5 0 26 15 45 34 20 19 44 38
55 41 11 4 20 11 20 16 0 5 7 9 15 9 8 0 19 9 25 20 6 11 17 20 25 20 8 0 15
4 15 9 0 6 32 42 70 82 75 76 153 180 170 223 5 14 14 26 19 26 5 0 13 9 16
20 6 19 15 20 329 20 268 0 325 2 342 15 10 8 27 15 37 15 9 0 25 9 34 20 10
11 23 20 30 20 7 0 13 5 13 10 0 6 5 10 10 10 19 0 96 84 119 130 13 25 29 56
37 70 7 14 14 37 14 53 0 17 5 27 15 27 7 0 18 8 24 17 8 15 14 15 48 4 21 -7
97 -15 168 -18 156 -6 163 -3 167 76 3 51 2 54 -32 73 -32 18 -47 19 -158 13
-68 -3 -135 -10 -149 -16 -21 -8 -29 -5 -54 18 -34 33 -37 68 -8 94 17 15 20
25 15 53 -4 20 -13 42 -21 50 -24 23 -17 55 20 100 19 24 35 51 35 60 0 9 7
19 15 22 8 4 15 12 15 19 0 6 9 20 20 30 11 10 20 26 20 37 0 10 4 18 10 18 5
0 16 15 25 33 17 37 36 67 51 82 5 5 23 29 38 53 16 23 32 42 36 42 4 0 13 14
20 30 7 17 16 30 21 30 5 0 9 8 9 18 0 10 8 25 18 34 29 27 62 69 62 79 0 6
14 24 30 42 17 18 33 42 36 54 3 12 12 24 20 27 8 3 14 12 14 21 0 8 4 15 10
15 5 0 16 16 24 35 8 19 20 35 25 35 6 0 11 7 11 15 0 9 6 18 14 21 8 3 17 16
20 30 4 13 22 40 41 60 19 20 35 40 35 45 0 6 16 31 35 56 19 25 35 52 35 59
0 8 6 14 14 14 8 0 18 9 21 20 3 11 11 20 16 20 6 0 15 14 20 30 6 17 15 30
20 30 5 0 14 10 19 23 6 12 19 36 30 52 10 17 25 39 32 51 49 78 61 94 69 94
5 0 9 7 9 15 0 8 6 15 14 15 8 0 18 9 21 20 9 28 75 29 75 1 0 -24 41 -90 56
-91 7 0 14 -7 18 -15 3 -9 18 -15 40 -15 40 0 66 -8 66 -21 0 -5 9 -18 21 -30
l20 -20 -33 -34 c-18 -19 -44 -37 -57 -40 -40 -10 -109 -63 -195 -150 -44 -45
-119 -115 -165 -155 -46 -40 -103 -101 -127 -134 -24 -34 -55 -77 -69 -96 -72
-97 -115 -175 -120 -219 -7 -55 -18 -84 -50 -131 -32 -47 -40 -186 -12 -204
30 -19 52 4 55 60 2 27 7 53 13 58 5 6 9 19 9 31 0 11 11 36 24 56 13 19 30
55 36 80 7 24 18 51 25 59 8 8 22 35 33 60 20 46 52 90 152 204 30 35 71 83
90 108 19 25 67 73 107 107 39 34 73 65 75 69 9 20 171 123 216 136 19 7 22 4
22 -22 0 -29 -16 -43 -68 -57 -12 -4 -44 -25 -70 -47 -26 -23 -66 -50 -89 -60
-28 -12 -49 -30 -59 -51 -9 -18 -40 -54 -68 -80 -28 -26 -65 -62 -83 -78 -17
-17 -41 -51 -53 -77 -12 -26 -46 -79 -76 -118 -64 -84 -111 -181 -135 -278 -9
-39 -25 -96 -33 -126 -14 -47 -15 -91 -10 -295 5 -177 10 -249 21 -275 8 -19
14 -62 14 -95 -1 -55 5 -74 79 -235 44 -96 95 -198 113 -227 37 -61 315 -319
385 -360 26 -14 67 -38 92 -54 25 -15 97 -51 160 -79 63 -28 135 -61 160 -72
37 -17 81 -23 245 -34 109 -7 202 -11 206 -9 3 3 44 5 90 6 52 0 92 6 106 15
12 7 41 16 65 20 24 3 57 12 73 19 17 7 57 16 90 20 140 16 302 94 427 207
176 158 328 317 348 364 61 141 123 411 138 594 5 61 -10 255 -28 365 -27 167
-90 388 -119 419 -11 12 -30 44 -42 71 -19 43 -108 161 -174 230 -11 12 -31
34 -45 50 -14 17 -46 46 -70 65 -24 19 -71 60 -105 91 -58 55 -200 139 -233
139 -9 0 -39 11 -67 24 -48 22 -107 41 -168 53 -16 3 -31 12 -34 19 -4 10 -25
14 -73 14 -37 0 -83 6 -101 14 -23 9 -99 15 -230 19 -164 5 -201 3 -225 -9
-42 -22 -107 -24 -112 -3 -3 19 17 23 169 38 48 4 91 11 97 15 6 4 84 1 174
-5 90 -6 178 -11 197 -10 38 1 172 -19 323 -50 100 -20 128 -18 128 9 0 21
-79 92 -102 92 -10 0 -35 9 -55 20 -21 11 -50 20 -65 20 -15 0 -39 5 -55 11
-60 24 -170 49 -218 49 -27 0 -95 -7 -150 -16 -55 -8 -144 -19 -197 -24 -53
-5 -105 -13 -115 -18 -10 -5 -51 -11 -90 -14 l-73 -4 0 28 c0 15 4 28 8 28 10
0 32 45 32 66 0 22 31 51 62 59 26 7 26 7 30 118 2 62 0 120 -4 130 -11 21
-46 22 -84 2 -16 -8 -38 -15 -50 -15 -31 0 -60 -72 -46 -116 8 -27 6 -41 -9
-71 -10 -20 -23 -41 -29 -47 -16 -16 -12 -93 5 -100 9 -3 15 -18 15 -36 0 -27
-3 -30 -34 -30 -38 0 -46 12 -46 66 0 38 -21 64 -68 85 -19 8 -32 21 -32 31 0
10 -9 27 -20 38 -11 11 -20 33 -20 49 0 16 -6 34 -14 40 -8 7 -17 30 -21 52
-4 21 -10 39 -15 39 -13 0 -48 81 -55 128 -4 24 -13 46 -21 49 -8 3 -14 11
-14 19 0 26 -42 139 -56 150 -8 6 -14 16 -14 22 0 6 -7 15 -16 20 -8 5 -18 28
-21 51 -3 24 -12 45 -19 48 -9 3 -14 21 -14 49 0 38 5 49 40 84 40 40 65 50
72 29 2 -5 39 -13 82 -16 67 -5 81 -4 92 11 7 11 28 18 55 19 49 2 56 15 58
103 1 34 6 56 17 65 31 26 -8 92 -63 105 -35 9 -103 51 -103 64 0 6 -7 10 -15
10 -9 0 -18 7 -21 15 -4 8 -14 15 -24 15 -10 0 -20 5 -22 11 -2 7 -42 14 -96
18 -50 3 -97 12 -104 19 -7 7 -38 12 -75 12 -49 0 -63 -3 -63 -15z m354 -121
c28 -21 55 -43 59 -50 4 -8 14 -14 21 -14 8 0 21 -11 30 -25 15 -23 15 -26 1
-32 -13 -4 -16 -17 -13 -57 l3 -51 -33 -3 c-18 -2 -36 -10 -39 -18 -7 -18 -34
-18 -59 1 -29 22 -96 19 -117 -5 -21 -25 -37 -18 -37 14 0 13 -7 29 -15 36 -8
7 -15 25 -15 40 0 33 30 49 84 42 26 -3 41 0 47 9 14 22 11 66 -6 82 -7 8 -17
26 -21 41 -6 24 -4 26 26 26 21 0 50 -13 84 -36z m-385 -1052 c-12 -23 -25
-42 -29 -42 -4 0 -13 -13 -20 -30 -7 -16 -16 -30 -21 -30 -4 0 -11 -10 -15
-22 -3 -12 -13 -28 -20 -36 -8 -7 -14 -20 -14 -27 0 -8 -6 -18 -12 -22 -14 -9
-31 -33 -51 -73 -6 -14 -20 -33 -29 -42 -10 -10 -18 -25 -18 -33 0 -8 -5 -15
-10 -15 -6 0 -15 -11 -20 -25 -5 -14 -14 -25 -19 -25 -5 0 -12 -14 -16 -31 -4
-17 -13 -33 -21 -36 -8 -3 -14 -11 -14 -18 0 -6 -9 -22 -20 -35 -11 -13 -20
-29 -20 -37 0 -7 -4 -13 -10 -13 -5 0 -16 -16 -24 -35 -8 -19 -20 -35 -25 -35
-6 0 -11 -8 -11 -18 0 -11 -9 -27 -20 -37 -11 -10 -20 -24 -20 -32 0 -7 -4
-13 -9 -13 -5 0 -14 -12 -20 -27 -19 -45 -39 -76 -55 -85 -9 -5 -16 -15 -16
-22 0 -7 -9 -21 -20 -31 -11 -10 -20 -24 -20 -32 0 -7 -6 -13 -13 -13 -7 0
-18 -12 -24 -27 -16 -38 -35 -66 -50 -76 -7 -4 -13 -14 -13 -20 0 -7 -9 -20
-20 -30 -11 -9 -20 -24 -20 -32 0 -8 -4 -15 -8 -15 -5 0 -21 -18 -38 -41 -16
-22 -34 -46 -40 -52 -9 -11 -29 -42 -91 -145 -12 -21 -27 -47 -32 -59 -6 -13
-14 -23 -19 -23 -4 0 -13 -13 -19 -30 -9 -24 -17 -30 -40 -30 -15 1 -39 7 -53
15 -15 9 -54 14 -97 15 l-73 0 -23 38 c-13 20 -27 58 -30 85 -4 26 -13 61 -22
77 -8 16 -15 42 -15 59 0 16 -7 36 -15 44 -8 8 -17 33 -21 56 -4 22 -13 46
-20 52 -8 6 -14 26 -14 43 0 17 -7 44 -15 59 -8 15 -17 43 -21 62 -3 19 -12
39 -20 46 -8 6 -14 29 -14 50 0 20 -7 44 -15 53 -8 8 -18 30 -22 48 -3 18 -11
40 -18 48 -7 8 -15 35 -19 59 -4 24 -13 53 -21 64 -21 30 -19 79 4 99 10 9 43
19 72 23 30 4 65 12 79 17 14 6 67 13 118 17 52 5 97 12 100 18 7 9 36 19 132
43 25 7 58 18 73 26 16 8 34 14 40 14 7 1 30 9 52 20 22 11 50 19 63 20 12 0
33 6 45 14 12 8 38 17 57 21 19 4 38 12 41 17 3 5 26 12 50 15 24 3 51 11 59
18 8 7 33 15 54 18 22 4 42 10 45 15 3 5 26 12 49 16 24 3 51 13 59 21 8 8 25
15 39 15 14 0 27 7 30 15 4 8 14 15 23 15 9 0 33 9 54 20 20 11 44 20 52 20 9
0 18 7 21 15 3 8 26 17 50 21 24 3 44 10 44 14 0 5 18 11 39 15 22 4 42 14 46
22 3 10 9 13 15 7 6 -6 2 -25 -11 -52z m-3026 -294 c12 -7 40 -17 61 -23 22
-5 41 -15 43 -22 8 -22 -40 -35 -156 -44 -64 -5 -129 -14 -144 -19 -16 -5 -59
-12 -95 -16 -37 -3 -77 -13 -89 -20 -33 -21 -112 -18 -120 4 -3 9 -11 24 -18
32 -14 17 -28 104 -18 114 3 3 121 6 260 6 183 0 260 -3 276 -12z m97 -222
c13 -25 8 -79 -19 -196 -6 -25 -10 -83 -11 -128 0 -77 2 -84 21 -89 21 -6 22
-9 15 -142 -4 -74 -11 -140 -16 -146 -4 -5 -11 -29 -15 -53 -6 -37 -10 -43
-28 -40 -21 3 -22 7 -18 86 2 55 0 82 -8 82 -7 0 -11 -26 -11 -71 0 -61 -2
-70 -17 -67 -10 2 -20 17 -24 36 -4 18 -14 41 -23 51 -9 10 -16 25 -16 34 0 9
-5 17 -11 17 -5 0 -16 15 -24 34 -8 19 -18 36 -22 38 -5 1 -19 26 -32 53 -13
28 -37 69 -52 93 -16 23 -32 54 -35 67 -3 13 -12 29 -20 36 -8 6 -14 17 -14
24 0 6 -9 22 -20 35 -11 13 -20 31 -20 42 0 10 -4 18 -10 18 -9 0 -32 38 -49
84 -16 41 33 67 157 83 57 7 116 20 131 28 16 9 56 14 102 15 70 0 77 -2 89
-24z m195 11 c-24 -18 -11 -37 25 -37 16 0 52 -9 80 -20 28 -11 66 -20 84 -20
50 0 126 -37 126 -60 0 -23 4 -24 29 -8 15 9 25 9 45 0 28 -12 36 -42 12 -42
-8 0 -18 -9 -21 -20 -3 -11 -10 -20 -15 -20 -13 0 -60 -46 -60 -59 0 -6 -6
-11 -14 -11 -30 0 -35 -86 -6 -123 11 -14 20 -31 20 -39 0 -7 -47 -62 -105
-121 -58 -60 -105 -113 -105 -118 0 -5 -6 -9 -14 -9 -8 0 -18 -9 -21 -20 -3
-11 -11 -20 -17 -20 -6 0 -17 -8 -24 -17 -13 -17 -15 -17 -28 1 -18 22 -39 12
-31 -16 5 -14 1 -21 -14 -25 -11 -3 -23 -14 -26 -24 -4 -10 -14 -19 -24 -19
-16 0 -17 11 -13 118 2 64 8 140 14 167 5 28 16 133 23 235 6 102 17 201 24
220 6 19 11 54 11 77 0 42 1 43 32 43 29 0 30 -1 13 -13z m3681 -32 l31 -6 7
-97 c4 -53 11 -167 15 -252 4 -85 13 -168 20 -183 16 -40 26 -163 13 -171 -12
-7 -39 31 -48 70 -4 16 -12 36 -19 44 -7 8 -15 32 -19 52 -4 20 -11 38 -17 40
-6 2 -13 24 -16 48 -3 25 -11 52 -19 60 -7 8 -16 40 -20 70 -4 30 -10 60 -14
65 -4 6 -10 65 -14 133 -7 121 -6 123 16 131 13 5 30 8 38 6 8 -2 29 -6 46
-10z m464 -10 c30 -8 71 -15 90 -16 l35 -1 -32 -14 c-37 -16 -48 -30 -35 -47
13 -18 -2 -161 -27 -241 -14 -46 -21 -95 -21 -150 0 -86 -18 -165 -65 -283
-21 -52 -28 -88 -31 -162 -4 -128 -13 -202 -25 -227 -6 -11 -9 -24 -7 -30 2
-5 -1 -10 -7 -11 -17 -4 -45 8 -45 19 0 5 -10 23 -22 38 -46 56 -58 74 -58 83
0 5 -9 20 -20 34 -11 14 -20 34 -20 43 0 10 -7 20 -15 24 -8 3 -15 16 -15 28
-1 13 -7 34 -15 48 -16 29 -20 136 -5 145 16 10 12 105 -9 186 -11 43 -21 130
-25 209 -3 74 -9 178 -12 230 l-7 95 112 0 111 0 1 -180 c1 -126 4 -165 9
-130 5 28 9 112 9 188 l1 137 48 0 c26 0 72 -7 102 -15z m198 -54 c9 -5 37
-15 62 -22 58 -16 220 -90 220 -100 0 -9 58 -39 76 -39 7 0 28 -14 46 -31 18
-17 47 -36 63 -43 17 -7 54 -40 83 -73 l52 -61 -26 -6 c-15 -4 -72 -47 -128
-95 -56 -48 -123 -103 -151 -121 -65 -44 -183 -140 -215 -175 -14 -15 -45 -41
-70 -58 -25 -17 -67 -50 -95 -74 -27 -24 -54 -43 -60 -43 -6 0 -21 -20 -34
-43 -18 -33 -21 -48 -14 -62 9 -16 12 -15 29 10 10 15 32 40 48 54 89 81 149
131 157 131 4 0 44 31 89 69 45 38 103 80 129 93 76 38 131 77 231 165 62 55
102 83 115 81 11 -1 26 1 33 6 20 12 39 -10 64 -75 13 -32 27 -59 32 -59 5 0
19 -11 32 -26 18 -18 24 -37 24 -70 0 -32 4 -44 15 -44 8 0 15 -8 15 -17 1
-10 9 -36 20 -58 11 -22 19 -55 20 -72 0 -18 6 -50 14 -70 8 -21 16 -66 18
-101 4 -54 2 -62 -11 -56 -27 13 -290 16 -416 5 -133 -11 -328 -41 -420 -64
-33 -9 -107 -21 -165 -27 -58 -7 -109 -16 -114 -21 -11 -9 12 -41 24 -34 4 3
69 14 144 25 75 10 140 22 145 24 13 8 269 48 361 57 139 12 376 10 421 -3
l42 -13 -8 -105 c-9 -127 -9 -152 0 -211 6 -36 3 -55 -14 -92 -12 -25 -21 -56
-21 -67 0 -13 -8 -24 -20 -27 -11 -3 -20 -12 -20 -20 0 -8 9 -17 20 -20 24 -6
27 -45 5 -67 -8 -8 -18 -28 -21 -45 -4 -16 -12 -32 -20 -35 -8 -3 -14 -14 -14
-25 0 -11 -6 -24 -13 -28 -8 -4 -16 -16 -20 -26 -13 -34 -36 -28 -140 37 -57
36 -126 76 -153 87 -65 29 -512 321 -637 416 -33 26 -65 43 -77 41 -10 -2 -19
0 -20 5 -2 35 3 47 20 52 11 3 20 11 20 17 0 5 -9 12 -20 15 -23 6 -27 31 -5
39 8 4 15 12 15 20 0 8 7 14 15 14 9 0 18 7 22 16 3 8 17 20 31 25 30 11 20
24 -25 32 -29 6 -34 3 -39 -18 -3 -14 -12 -25 -19 -25 -14 0 -11 74 6 147 5
23 9 80 9 126 0 56 6 102 19 138 10 30 32 92 49 139 17 49 32 118 36 162 4 44
18 107 32 145 20 51 64 246 64 280 0 6 20 3 38 -6z m-3419 -31 c12 -6 21 -26
25 -57 4 -26 13 -57 21 -67 8 -11 15 -32 15 -47 0 -14 6 -32 14 -38 8 -6 17
-36 21 -66 3 -29 13 -59 21 -66 8 -6 14 -23 14 -38 0 -14 6 -38 14 -52 7 -14
16 -49 20 -79 4 -29 14 -62 22 -74 8 -11 14 -33 14 -48 0 -14 7 -33 15 -42 8
-8 18 -36 21 -63 4 -26 13 -56 21 -65 34 -38 -4 -70 -59 -49 -22 8 -26 17 -32
73 -4 36 -19 88 -35 123 -16 33 -31 77 -34 98 -3 20 -13 44 -21 52 -8 8 -18
24 -21 35 -3 11 -10 20 -15 20 -5 0 -14 16 -20 35 -6 19 -16 35 -21 35 -5 0
-9 7 -9 15 0 9 -7 18 -15 21 -8 4 -15 10 -15 16 0 5 -16 26 -35 46 -71 76 -85
93 -85 102 0 6 -7 10 -15 10 -8 0 -15 9 -15 20 0 11 5 20 10 20 6 0 41 31 78
70 37 38 71 69 75 70 5 0 16 -4 26 -10z m2401 -62 c0 -13 9 -36 20 -53 11 -16
20 -42 20 -57 0 -15 5 -30 10 -33 6 -3 15 -26 21 -51 6 -24 15 -44 19 -44 5 0
11 -18 15 -39 4 -22 12 -45 20 -51 7 -6 16 -27 20 -47 3 -20 13 -42 21 -50 8
-8 14 -32 14 -52 0 -22 6 -44 15 -51 10 -8 14 -28 13 -59 -2 -36 3 -54 20 -76
12 -15 22 -35 22 -44 0 -9 7 -25 15 -35 8 -11 15 -27 15 -37 0 -9 8 -27 18
-40 11 -13 22 -42 25 -64 4 -22 11 -41 16 -43 6 -2 13 -19 17 -37 3 -19 13
-37 22 -40 14 -6 12 -10 -12 -30 l-29 -23 24 -7 c27 -8 104 -84 95 -93 -7 -6
-276 12 -491 33 -243 24 -495 45 -570 48 l-70 2 1 90 c0 78 6 108 43 220 44
134 57 161 104 230 15 22 45 66 66 98 l38 57 94 -81 c52 -46 148 -125 214
-178 66 -52 149 -120 185 -151 36 -30 98 -82 138 -114 39 -32 73 -62 74 -67 4
-27 2 -34 -11 -34 -8 0 -16 -6 -18 -12 -5 -15 62 -19 71 -5 3 5 3 25 -1 46 -5
32 -18 46 -97 108 -50 39 -120 97 -156 128 -36 31 -96 81 -135 110 -38 30
-131 106 -205 169 -74 63 -136 116 -138 117 -4 3 28 67 37 74 3 3 25 31 49 62
27 37 52 60 70 64 15 4 33 13 39 22 7 9 34 27 60 41 26 14 53 37 60 50 23 48
93 69 93 29z m-4130 -12 c0 -8 -4 -18 -10 -21 -15 -9 -12 -101 4 -114 7 -6 16
-29 20 -50 3 -21 13 -41 21 -45 9 -3 15 -18 15 -35 0 -17 6 -34 13 -38 6 -4
19 -20 27 -35 47 -83 83 -138 91 -138 5 0 9 -9 9 -20 0 -11 9 -28 20 -37 11
-10 20 -21 20 -25 0 -13 35 -45 66 -59 15 -8 32 -23 38 -34 6 -11 17 -24 24
-28 19 -12 17 -196 -2 -203 -8 -3 -18 -19 -21 -36 -4 -16 -13 -32 -21 -35 -8
-3 -14 -10 -14 -17 0 -6 -4 -17 -9 -25 -8 -12 -12 -12 -25 -2 -20 17 -36 6
-36 -25 0 -14 -7 -27 -17 -31 -33 -12 -82 -55 -89 -76 -8 -27 -22 -37 -51 -37
-29 0 -30 -16 -3 -23 19 -5 21 -12 18 -89 l-3 -83 -224 -3 c-178 -2 -235 1
-277 13 -70 20 -100 19 -140 -6 -27 -17 -34 -27 -34 -53 0 -49 36 -82 112
-101 104 -27 117 -28 135 -14 12 11 76 15 286 17 279 4 317 -1 273 -34 -11 -7
-16 -17 -13 -21 4 -3 25 8 47 26 36 29 46 32 98 29 l57 -3 3 -37 c4 -45 20
-50 28 -9 7 36 44 54 100 49 l39 -3 7 -129 c3 -71 10 -132 15 -135 5 -3 12
-13 15 -22 5 -13 31 -17 155 -22 231 -10 366 -25 379 -42 15 -19 24 -19 40 2
11 16 39 19 220 25 115 3 210 5 212 3 16 -16 -110 -172 -151 -188 -10 -4 -30
-28 -45 -53 -55 -95 -139 -160 -220 -170 -36 -4 -65 -14 -79 -27 -19 -16 -25
-18 -38 -7 -8 7 -15 19 -15 26 0 8 -15 31 -33 51 -47 53 -90 119 -115 175 -24
56 -89 143 -105 143 -23 0 -17 -32 14 -71 17 -21 46 -68 64 -104 18 -36 56
-96 84 -134 29 -37 54 -81 58 -96 5 -26 2 -29 -28 -34 -123 -20 -154 -28 -211
-52 -56 -24 -77 -27 -183 -28 l-120 -1 -3 240 c-1 139 2 269 9 310 16 102 21
238 11 254 -19 27 -32 -1 -32 -67 0 -37 -6 -98 -12 -137 -6 -38 -12 -122 -12
-185 -1 -63 -3 -183 -4 -266 l-2 -152 -107 5 c-124 7 -153 14 -153 42 0 22
-22 41 -28 23 -2 -7 -17 -4 -45 11 -24 12 -62 22 -92 22 -95 3 -107 26 -50 97
19 24 46 66 61 93 15 28 52 93 84 145 31 52 67 120 79 150 27 65 53 109 98
169 35 47 44 91 18 91 -9 0 -18 -8 -22 -17 -3 -10 -22 -40 -41 -68 -20 -27
-56 -93 -80 -145 -25 -52 -57 -113 -72 -135 -15 -22 -49 -80 -75 -130 -27 -49
-59 -101 -72 -114 -12 -13 -30 -41 -40 -62 -14 -34 -20 -38 -42 -33 -46 11
-231 147 -246 182 -5 12 -17 22 -27 22 -9 0 -38 25 -65 56 -26 31 -65 74 -85
96 -21 22 -38 49 -38 59 0 11 -5 19 -12 19 -29 0 32 42 110 75 48 21 128 61
177 90 97 57 130 70 158 66 13 -2 18 3 15 16 -6 33 -57 27 -133 -17 -38 -22
-113 -60 -165 -85 -52 -25 -117 -57 -144 -71 -47 -25 -50 -25 -63 -8 -7 10
-13 29 -13 42 0 27 -14 56 -46 95 -14 17 -24 42 -24 60 0 18 -9 56 -18 85 -15
43 -16 66 -9 120 5 37 7 128 5 202 -5 208 -3 260 10 325 22 104 23 106 79 91
26 -7 71 -24 98 -38 28 -14 133 -56 235 -93 256 -93 381 -143 402 -161 18 -17
38 -11 38 11 0 27 -30 39 -485 207 -60 23 -135 54 -166 69 -31 16 -78 33 -104
40 -41 10 -46 14 -40 33 3 12 11 39 18 61 11 40 122 205 137 205 5 0 15 11 22
24 31 56 69 105 124 158 33 31 76 75 97 97 20 23 45 41 55 41 18 -1 82 -90
330 -456 95 -142 132 -205 132 -226 0 -23 4 -29 18 -26 30 6 20 66 -23 133
-22 33 -59 92 -84 130 -25 39 -70 104 -100 145 -101 136 -221 311 -221 321 0
10 142 79 163 79 9 0 17 -6 17 -14z m1380 -44 c23 -11 34 -23 32 -34 -3 -16
41 -81 107 -158 35 -40 37 -48 14 -46 -10 0 -19 -7 -21 -16 -6 -30 -134 -147
-234 -214 -53 -35 -100 -69 -103 -74 -4 -6 -21 -17 -38 -25 -18 -8 -45 -24
-62 -35 -16 -11 -41 -25 -55 -31 -37 -16 -61 -40 -77 -77 -11 -28 -17 -32 -36
-26 -31 9 -34 14 -14 25 9 6 17 14 17 20 0 5 14 23 30 39 17 16 30 32 30 36 0
4 17 24 38 45 20 21 53 57 72 79 19 23 90 97 158 165 71 73 122 133 122 144 0
33 -43 91 -72 97 -16 4 -28 10 -28 15 0 9 72 89 80 89 3 0 21 -8 40 -18z
m-1240 -57 c17 -36 36 -65 41 -65 5 0 9 -11 9 -24 0 -14 5 -28 11 -32 6 -3 17
-22 25 -40 8 -19 19 -34 24 -34 6 0 10 -8 10 -19 0 -10 9 -30 20 -44 11 -14
20 -30 20 -35 0 -5 6 -12 14 -15 7 -3 17 -18 21 -34 3 -15 11 -30 16 -33 5 -3
12 -20 15 -38 5 -26 3 -32 -10 -32 -25 0 -56 19 -56 34 0 7 -9 21 -20 31 -11
10 -20 22 -20 27 0 10 -40 69 -53 79 -16 11 -87 149 -87 168 0 8 -6 22 -14 30
-7 9 -18 36 -24 61 -9 37 -8 47 5 62 9 10 17 18 19 18 1 0 17 -29 34 -65z
m1476 -263 c17 -20 39 -53 49 -72 10 -18 24 -40 32 -48 10 -11 11 -18 4 -25
-15 -15 -14 -27 3 -27 28 0 70 -96 80 -180 2 -24 11 -47 18 -51 7 -5 -86 -9
-209 -9 -142 0 -223 4 -223 10 0 6 5 10 10 10 6 0 10 9 10 20 0 23 -13 26 -29
6 -7 -8 -26 -18 -42 -21 -16 -4 -31 -11 -34 -16 -7 -11 -305 -12 -305 -1 1 14
27 41 51 52 25 11 98 57 245 154 49 32 124 92 167 133 53 49 87 73 103 73 15
0 24 6 24 15 0 24 13 17 46 -23z m2834 -163 c0 -27 4 -39 14 -39 9 0 17 -15
21 -39 4 -22 13 -42 21 -45 8 -3 14 -19 14 -42 0 -21 8 -46 20 -61 11 -14 20
-34 20 -43 0 -10 7 -20 15 -24 9 -3 15 -18 15 -34 0 -16 9 -37 20 -47 11 -10
20 -26 20 -37 0 -10 6 -18 14 -18 8 0 17 -11 20 -25 6 -22 23 -44 91 -116 23
-24 9 -50 -24 -42 -50 12 -71 23 -71 37 0 7 -7 16 -15 20 -8 3 -15 12 -15 19
0 8 -9 24 -20 37 -11 13 -20 32 -20 44 0 12 -7 30 -15 40 -8 11 -15 30 -15 42
0 13 -7 29 -15 37 -8 8 -17 34 -21 57 -4 23 -13 44 -20 47 -8 3 -14 15 -14 27
0 11 -9 35 -20 51 -11 17 -20 46 -20 66 0 20 -6 42 -14 48 -15 12 -29 78 -20
93 12 19 34 -16 34 -53z m-3876 -175 c3 -9 6 -51 6 -95 0 -67 3 -81 18 -86 22
-8 62 -44 62 -56 0 -5 8 -16 17 -22 13 -10 17 -25 16 -57 -1 -23 0 -57 3 -74
l4 -31 80 -5 c47 -3 86 -10 96 -19 11 -9 51 -16 108 -19 56 -3 89 -9 86 -15
-6 -13 -191 -8 -205 6 -5 5 -47 9 -93 9 l-83 0 3 -32 c2 -27 8 -34 28 -36 66
-8 109 -202 45 -202 -8 0 -23 -9 -34 -21 -20 -22 -41 -19 -41 7 0 8 -6 14 -14
14 -7 0 -19 7 -26 15 -8 10 -17 12 -24 6 -19 -16 -96 -23 -162 -16 -60 6 -64
8 -58 28 3 12 12 27 20 33 20 16 19 100 -1 108 -8 3 -15 12 -15 21 0 8 -8 23
-17 33 -49 51 -68 128 -38 152 8 7 15 23 15 37 0 13 7 26 15 29 8 3 17 15 21
27 4 11 22 35 41 53 28 27 33 37 27 61 -4 15 -11 30 -16 31 -11 5 -10 72 1 72
5 0 13 9 16 20 5 15 15 20 41 20 19 0 34 5 34 10 0 16 17 12 24 -6z m1399
-166 c13 -7 94 -14 197 -18 96 -3 186 -11 200 -17 14 -7 42 -14 63 -18 23 -4
37 -11 37 -20 0 -10 11 -15 33 -15 20 0 44 -9 57 -20 13 -11 27 -20 32 -20 4
0 8 -11 8 -24 0 -24 0 -24 -32 -8 -18 9 -39 22 -46 29 -7 7 -21 13 -30 13 -9
0 -26 7 -36 15 -28 21 -213 21 -263 0 -45 -19 -80 -19 -117 0 -15 8 -45 15
-65 15 -20 0 -49 7 -66 16 -16 8 -59 18 -95 21 -36 3 -77 12 -92 19 -18 9 -63
14 -130 14 -113 0 -178 8 -178 21 0 14 497 11 523 -3z m-930 -70 c17 -20 18
-20 38 -2 18 16 35 19 121 16 55 -1 109 -7 121 -13 11 -7 86 -15 166 -20 80
-5 164 -13 186 -18 22 -6 63 -11 92 -11 49 0 75 -12 54 -25 -7 -4 -7 -15 -1
-31 6 -14 10 -48 10 -76 l0 -51 -185 7 c-102 4 -198 11 -213 16 -15 5 -80 13
-145 19 -65 5 -123 14 -130 19 -7 6 -50 13 -97 17 -83 7 -127 22 -162 53 -12
10 -29 13 -53 9 -33 -5 -36 -3 -49 27 -8 19 -19 37 -25 40 -17 11 -13 44 7 49
9 3 69 2 132 0 100 -4 117 -8 133 -25z m1363 -103 c10 -8 27 -15 37 -15 10 0
20 -6 23 -14 3 -8 19 -18 36 -21 16 -4 32 -13 34 -20 3 -7 15 -16 28 -19 35
-9 75 -58 78 -96 l3 -35 -110 -6 c-60 -3 -123 -11 -138 -17 -16 -7 -48 -12
-73 -12 -59 0 -88 -27 -79 -73 14 -66 19 -67 217 -67 l178 0 0 -30 c0 -20 -6
-33 -17 -37 -20 -8 -52 -43 -53 -58 0 -16 -70 -85 -86 -85 -8 0 -14 -7 -14
-15 0 -8 -6 -15 -14 -15 -7 0 -19 -6 -25 -14 -24 -29 -218 -59 -244 -38 -7 5
-26 13 -44 16 -17 4 -34 14 -37 22 -3 8 -12 14 -21 14 -8 0 -15 7 -15 15 0 8
-7 15 -15 15 -8 0 -15 7 -15 15 0 9 -7 18 -15 21 -8 3 -17 21 -21 39 -3 19
-12 36 -20 39 -8 3 -14 19 -14 37 0 18 -10 52 -22 76 -21 41 -21 45 -6 54 11
6 20 28 24 59 7 50 16 67 69 123 17 18 35 44 41 57 14 31 89 70 135 70 19 0
43 7 53 15 12 9 41 15 71 15 30 0 59 -6 71 -15z m1441 -84 c169 -17 345 -33
618 -56 137 -11 185 -18 185 -26 0 -4 -34 -47 -76 -96 -41 -48 -106 -124 -144
-168 -37 -44 -97 -113 -131 -154 -35 -41 -77 -90 -93 -110 -16 -20 -64 -72
-105 -117 -42 -44 -107 -115 -144 -157 -65 -73 -107 -97 -107 -62 0 8 -6 15
-14 15 -8 0 -18 9 -21 20 -3 11 -13 20 -21 20 -8 0 -14 7 -14 15 0 8 -4 15
-10 15 -5 0 -16 12 -24 28 -8 15 -28 41 -45 57 -17 17 -31 35 -31 41 0 6 -9
21 -20 34 -11 13 -20 29 -20 35 0 7 -7 15 -15 19 -33 12 -10 89 28 97 31 7 24
24 -10 27 -21 2 -33 9 -33 18 0 8 -6 14 -13 14 -31 0 -55 38 -55 88 0 62 -11
132 -22 132 -4 0 -13 28 -19 62 -6 34 -15 64 -20 67 -7 5 -16 114 -12 154 2
13 186 7 388 -12z m-3587 -27 c0 -8 9 -22 20 -31 11 -10 20 -25 20 -35 0 -9 5
-20 11 -24 21 -13 41 -75 29 -89 -14 -17 -100 -31 -109 -18 -3 5 -14 12 -23
16 -13 4 -18 18 -19 44 -2 93 2 115 29 138 28 24 42 24 42 -1z m1440 -94 c14
-5 54 -12 90 -16 75 -7 81 -10 74 -29 -5 -12 -23 -14 -108 -8 -55 3 -110 12
-121 19 -11 7 -58 15 -105 19 -47 4 -92 9 -100 13 -45 18 217 20 270 2z m3074
-2 c11 -42 6 -100 -23 -277 -16 -97 -34 -221 -41 -276 -6 -55 -16 -131 -21
-170 -5 -38 -18 -146 -29 -240 -27 -228 -26 -225 -57 -225 -14 0 -43 14 -64
31 -35 28 -44 30 -84 25 -57 -9 -177 25 -212 60 -16 16 -31 23 -43 19 -19 -6
-70 13 -70 26 0 4 -13 10 -29 14 -16 3 -32 13 -35 21 -3 8 -10 14 -16 14 -6 0
-24 14 -40 30 -16 17 -34 30 -39 30 -6 0 -14 6 -18 13 -4 8 -16 18 -27 24 -20
11 -34 -7 184 228 41 44 109 121 151 170 42 50 105 123 140 164 35 40 88 103
118 140 30 36 81 96 114 134 54 60 64 67 97 67 31 0 39 -4 44 -22z m-3794 -29
c19 -6 94 -17 165 -25 72 -7 150 -17 175 -23 25 -6 72 -10 105 -11 33 0 76 -5
95 -11 19 -6 84 -14 143 -19 116 -8 153 -24 128 -54 -8 -10 -9 -16 -1 -21 18
-11 11 -39 -36 -151 -70 -169 -32 -154 -396 -154 -265 0 -309 2 -314 15 -4 8
-12 15 -19 15 -7 0 -15 -7 -19 -15 -6 -16 -75 -20 -158 -9 l-45 6 -1 99 c-1
90 1 99 17 99 11 0 22 -7 25 -16 3 -8 11 -12 16 -9 8 5 8 11 0 20 -12 14 2 49
28 70 6 5 13 36 15 68 2 47 -1 60 -15 68 -18 10 -25 49 -11 62 10 11 64 8 103
-4z m3980 -18 c35 -28 303 -208 495 -332 55 -36 120 -74 145 -84 48 -21 224
-128 252 -154 16 -15 15 -19 -22 -61 -22 -25 -46 -52 -55 -61 -8 -9 -15 -19
-15 -23 0 -4 -6 -13 -12 -20 -7 -7 -22 -25 -33 -41 -11 -15 -28 -35 -37 -44
-10 -8 -18 -20 -18 -25 0 -14 -50 -56 -67 -56 -7 0 -13 7 -13 15 0 8 -4 15
-10 15 -5 0 -10 -4 -10 -9 0 -6 5 -13 10 -16 20 -12 9 -25 -45 -56 -30 -17
-58 -35 -61 -40 -3 -5 -13 -9 -23 -9 -10 0 -24 -7 -31 -16 -27 -32 -61 -13
-105 60 -22 37 -63 96 -91 130 -27 33 -67 97 -90 141 -22 44 -55 105 -72 135
-17 31 -53 121 -81 200 -27 80 -63 175 -80 212 -37 80 -40 108 -11 108 11 0
20 6 20 13 0 6 5 4 11 -5 5 -10 14 -18 19 -18 16 0 11 27 -5 34 -15 5 -21 36
-7 36 4 0 23 -13 42 -29z m-79 -341 c0 -174 26 -211 31 -45 l3 80 34 -100 c36
-108 58 -157 101 -220 14 -22 34 -60 43 -85 9 -25 35 -67 56 -95 78 -98 169
-241 159 -250 -2 -1 -51 -19 -110 -39 -104 -35 -181 -46 -193 -26 -3 5 -14 1
-24 -9 -11 -11 -42 -22 -72 -27 -56 -8 -228 -9 -235 -1 -3 2 4 76 15 163 25
199 48 384 62 494 13 106 58 390 65 410 3 9 18 -17 35 -60 27 -68 30 -86 30
-190z m-2991 55 c0 -8 18 -33 40 -55 22 -22 40 -48 40 -56 0 -8 7 -17 15 -20
37 -15 8 -24 -76 -24 l-92 0 6 35 c7 40 48 135 59 135 5 0 8 -7 8 -15z"/>
<path d="M2594 2098 c-8 -13 43 -58 66 -58 8 0 35 -14 60 -30 25 -16 51 -30
58 -30 26 0 89 -44 110 -77 23 -34 49 -43 58 -19 7 19 -71 97 -121 120 -38 17
-57 27 -130 64 -95 49 -91 47 -101 30z"/>
</g>
</svg>
