<?xml version="1.0" standalone="no"?>
<!DOCTYPE svg PUBLIC "-//W3C//DTD SVG 20010904//EN"
 "http://www.w3.org/TR/2001/REC-SVG-20010904/DTD/svg10.dtd">
<svg version="1.0" xmlns="http://www.w3.org/2000/svg"
 width="937.000000pt" height="766.000000pt" viewBox="0 0 937.000000 766.000000"
 preserveAspectRatio="xMidYMid meet">
<metadata>
Created by potrace 1.16, written by Peter Selinger 2001-2019
</metadata>
<g transform="translate(0.000000,766.000000) scale(0.100000,-0.100000)"
fill="#000000" stroke="none">
<path d="M4520 6555 c-23 -28 4 -363 39 -485 23 -79 43 -343 51 -645 4 -176
13 -346 20 -379 6 -32 8 -62 3 -67 -4 -4 -69 -15 -143 -24 -74 -8 -162 -20
-195 -25 -99 -16 -363 -48 -475 -59 -124 -12 -336 -44 -470 -70 -121 -25 -284
-49 -380 -56 -71 -6 -229 -28 -425 -60 -49 -8 -157 -22 -240 -31 -82 -8 -187
-24 -231 -35 -45 -10 -87 -19 -93 -19 -21 0 -168 129 -231 201 -58 67 -64 79
-61 107 1 6 -2 12 -8 12 -5 0 -12 -6 -15 -12 -2 -7 -2 13 1 45 5 48 3 57 -11
57 -9 0 -16 7 -16 16 0 9 5 12 11 8 8 -5 9 14 4 67 -4 41 -9 76 -11 78 -12 13
-190 19 -214 8 -11 -5 -37 17 -92 80 -89 102 -267 316 -318 384 -80 105 -261
296 -306 322 -6 4 -42 0 -80 -9 -38 -8 -107 -22 -154 -30 -118 -22 -123 -25
-118 -82 5 -45 61 -215 80 -238 15 -20 95 -187 108 -228 17 -52 97 -235 115
-263 8 -12 25 -48 36 -80 12 -32 25 -62 29 -68 4 -5 68 -129 141 -275 73 -146
140 -270 149 -277 9 -8 11 -12 3 -13 -6 0 -14 4 -17 9 -8 12 -38 2 -113 -37
-34 -17 -69 -32 -78 -32 -20 0 -55 -80 -55 -126 0 -19 6 -47 13 -62 8 -15 22
-58 32 -95 15 -59 21 -69 49 -81 78 -34 79 -30 -30 -167 -54 -68 -107 -133
-119 -144 -11 -11 -33 -36 -49 -55 -16 -19 -68 -77 -117 -128 -49 -51 -89 -98
-89 -104 0 -6 11 -8 28 -4 15 3 68 13 117 21 161 27 249 58 305 109 19 17 73
51 120 75 47 24 99 56 115 71 17 15 62 44 100 64 39 21 82 49 97 64 24 22 31
24 50 14 23 -11 211 -67 278 -81 19 -5 71 -20 115 -34 44 -14 103 -31 132 -37
28 -6 87 -29 130 -51 158 -79 318 -93 1198 -105 643 -9 636 -8 749 -23 72 -10
105 -10 122 -2 13 6 24 8 24 6 0 -14 -82 -210 -145 -346 -61 -133 -84 -171
-160 -265 -49 -60 -113 -135 -142 -167 -29 -32 -79 -91 -110 -130 -32 -40 -78
-94 -103 -122 -26 -27 -79 -95 -120 -150 -40 -55 -96 -127 -124 -160 -91 -107
-254 -319 -325 -424 -22 -32 -60 -82 -86 -112 -25 -30 -71 -95 -100 -145 -29
-49 -60 -96 -68 -103 -9 -7 -34 -41 -57 -76 -23 -35 -47 -66 -54 -68 -7 -3
-29 -29 -50 -59 -20 -29 -46 -65 -57 -79 -43 -54 -23 -153 37 -185 34 -19 35
-19 67 0 18 11 64 37 103 57 44 24 91 60 124 96 54 58 1365 1387 1430 1449 21
21 45 34 61 34 49 0 274 -38 354 -61 74 -20 102 -22 383 -23 l302 -1 25 30
c50 59 57 76 69 167 15 109 14 198 -3 253 -7 22 -33 83 -58 135 -25 52 -49
102 -53 110 -4 9 -28 18 -56 22 -87 12 -202 -9 -413 -78 -25 -7 -47 -12 -49
-9 -3 2 7 19 21 38 31 40 215 244 278 307 25 26 54 60 63 76 17 29 18 29 97
25 118 -5 222 30 314 104 55 45 187 110 260 128 72 18 311 53 415 61 41 3 137
10 212 16 75 6 204 21 285 34 81 14 216 30 298 36 638 47 637 47 1035 120 185
34 452 151 576 253 47 39 148 173 164 219 11 31 12 49 2 96 -7 32 -12 83 -12
113 -1 38 -6 61 -20 77 -22 26 -114 86 -220 141 -57 30 -108 71 -210 169
l-134 130 -96 26 c-52 15 -108 28 -125 30 -16 2 -68 9 -115 15 -114 16 -455
29 -506 20 -23 -5 -127 -11 -230 -14 -211 -6 -356 -21 -644 -66 -107 -16 -247
-34 -310 -40 -63 -5 -146 -14 -185 -19 -188 -27 -298 -41 -380 -50 -49 -6
-125 -15 -169 -21 -65 -10 -80 -9 -87 2 -22 35 -89 223 -135 377 -13 46 -31
96 -39 111 -11 23 -60 178 -96 306 -31 112 -41 145 -54 185 -8 25 -40 126 -71
225 -31 99 -63 188 -72 197 -9 11 -23 16 -36 12 -12 -2 -48 4 -80 16 -33 11
-75 20 -95 20 -20 0 -49 7 -65 15 -36 19 -50 19 -66 0z m232 -102 l78 -26 16
-56 c8 -31 26 -83 39 -116 12 -33 26 -76 30 -95 4 -19 11 -40 15 -45 5 -6 20
-53 34 -105 40 -153 102 -360 129 -431 14 -36 34 -100 46 -142 11 -42 30 -94
41 -114 11 -21 20 -43 20 -49 0 -6 16 -51 35 -98 19 -48 35 -91 35 -95 0 -18
-121 -41 -235 -45 -66 -2 -166 -11 -223 -21 -56 -10 -105 -16 -107 -13 -2 2
-5 20 -6 39 -2 18 -5 39 -8 44 -10 17 -14 160 -12 420 1 180 -3 246 -31 480
-6 55 -12 136 -14 180 -1 44 -9 108 -18 141 -9 34 -16 87 -16 118 l0 56 36 0
c20 0 72 -12 116 -27z m-4025 -580 c29 -12 51 -32 73 -65 17 -27 28 -53 25
-58 -4 -6 -1 -9 6 -8 15 4 209 -233 202 -246 -4 -5 -1 -6 5 -2 6 3 17 -2 24
-12 20 -29 112 -133 233 -266 274 -300 278 -305 284 -344 6 -32 10 -37 34 -37
21 1 52 -23 145 -115 169 -165 208 -195 235 -182 51 23 157 43 309 57 90 9
201 22 248 29 47 8 139 22 205 31 66 10 125 22 132 27 6 5 22 8 35 6 37 -4
274 28 468 62 30 5 89 14 130 20 41 5 111 14 155 20 44 6 130 13 190 16 61 2
193 15 295 29 102 13 271 31 375 40 200 16 386 40 420 55 11 4 52 13 90 19 39
6 136 22 216 36 147 25 336 48 484 60 44 3 152 15 240 25 88 11 210 24 270 30
61 6 127 15 147 21 34 9 234 41 458 74 97 14 529 31 720 28 109 -1 309 -28
347 -45 12 -6 28 -8 36 -5 8 3 18 2 23 -2 5 -4 41 -16 79 -26 74 -19 135 -62
135 -96 0 -16 39 -51 67 -60 9 -3 5 -13 -11 -31 -13 -16 -26 -28 -29 -28 -3 0
-41 -21 -84 -47 -43 -27 -97 -56 -120 -67 l-41 -18 1 -139 c1 -130 3 -139 21
-145 11 -4 22 -2 24 5 2 6 13 11 25 11 12 0 39 9 60 20 20 11 40 20 44 20 23
-1 178 148 188 180 4 11 10 18 15 15 7 -5 29 14 28 25 -2 16 15 47 32 58 17
10 24 10 44 -3 13 -9 61 -31 107 -50 122 -51 120 -49 122 -196 l2 -124 -47
-76 c-38 -61 -60 -84 -111 -117 -69 -44 -187 -99 -284 -130 -33 -11 -71 -26
-83 -32 -29 -16 -433 -98 -518 -106 -37 -3 -123 -15 -191 -26 -68 -11 -132
-18 -141 -15 -42 11 -558 -27 -650 -48 -93 -21 -277 -42 -485 -55 -200 -13
-282 -26 -430 -71 -122 -38 -184 -68 -238 -118 -62 -57 -179 -109 -229 -102
-10 1 -18 -2 -18 -8 0 -11 -87 -27 -97 -18 -12 12 48 95 121 167 82 81 94 112
44 118 -14 2 -37 13 -50 25 -13 13 -56 33 -96 45 -83 27 -154 26 -307 -4 -90
-17 -381 -100 -400 -114 -5 -4 -41 -17 -80 -30 -38 -12 -78 -30 -88 -41 -10
-10 -24 -19 -32 -19 -21 0 -165 -141 -165 -162 0 -14 -6 -17 -22 -14 -13 3
-57 8 -98 11 -41 4 -83 11 -93 17 -12 6 -268 11 -685 14 -855 5 -997 17 -1184
100 -35 16 -65 32 -66 36 -2 5 -8 6 -13 2 -5 -3 -9 -1 -9 5 0 5 -26 15 -57 21
-32 6 -85 20 -118 31 -33 10 -91 26 -128 34 -37 9 -90 24 -118 35 -27 11 -66
20 -86 20 l-37 0 59 44 c33 24 75 59 93 78 25 26 39 34 57 30 18 -3 26 1 31
14 3 11 12 34 20 53 25 57 6 85 -71 106 -35 9 -79 15 -99 14 -19 -2 -41 2 -48
9 -14 14 -128 16 -128 2 0 -5 -17 -10 -39 -10 -38 0 -91 -17 -144 -46 -15 -8
-32 -12 -39 -8 -6 4 -8 3 -5 -3 4 -6 -9 -18 -27 -28 -19 -10 -51 -40 -72 -67
-21 -26 -41 -48 -45 -48 -13 0 -79 72 -74 81 4 5 0 9 -8 9 -14 0 -26 43 -28
93 0 9 -7 17 -15 17 -18 0 -19 49 0 56 8 3 11 15 8 30 -3 17 0 24 12 24 16 0
140 61 163 80 7 6 23 10 37 10 14 0 28 5 31 10 3 6 2 10 -3 10 -6 0 -8 9 -5
20 3 12 -4 30 -18 48 -38 45 -162 303 -162 337 0 8 -4 15 -8 15 -8 0 -24 40
-21 53 1 4 -3 7 -9 7 -5 0 -8 4 -5 9 4 5 2 11 -3 13 -23 8 -118 218 -99 218 5
0 2 7 -6 16 -15 14 -18 22 -15 40 0 4 -4 10 -9 13 -16 10 -43 71 -37 81 3 6 2
10 -4 10 -5 0 -8 9 -6 20 2 11 0 18 -4 16 -9 -6 -62 111 -135 299 -6 17 -19
42 -29 56 -20 31 -67 143 -67 162 0 11 30 17 117 26 64 6 119 14 122 16 7 8
13 6 58 -12z m7623 -915 c33 -25 38 -34 28 -46 -10 -11 -9 -17 6 -27 17 -13
16 -17 -19 -77 -21 -35 -71 -95 -112 -135 -58 -56 -90 -78 -149 -103 -41 -17
-79 -28 -84 -25 -6 3 -10 34 -11 68 0 34 -4 83 -8 109 -4 26 -5 51 -2 56 3 4
39 25 79 45 97 49 177 103 205 137 12 16 23 29 25 29 2 1 21 -13 42 -31z
m-6897 -857 c18 -5 50 -12 71 -16 l40 -7 -79 -76 c-90 -87 -183 -162 -201
-162 -6 0 -14 -6 -17 -14 -3 -8 -27 -27 -54 -42 -26 -15 -64 -41 -83 -57 -57
-46 -130 -92 -205 -126 -38 -18 -82 -43 -96 -57 -17 -16 -49 -29 -99 -40 -40
-8 -81 -19 -91 -25 -27 -14 -23 -7 13 27 18 16 26 20 18 9 -12 -17 -12 -18 0
-8 8 7 15 19 16 27 3 20 56 96 89 126 15 14 45 51 67 82 22 32 45 55 51 51 6
-3 7 -1 3 5 -7 11 15 39 127 161 32 34 56 66 52 69 -7 7 104 61 127 62 9 0 19
3 22 8 7 11 194 14 229 3z m3709 -302 c9 -5 26 -9 37 -9 17 0 41 -26 41 -44 0
-3 -20 -27 -45 -53 -25 -26 -68 -85 -97 -131 -31 -51 -100 -133 -177 -213 -68
-72 -136 -145 -149 -162 -13 -18 -28 -31 -33 -29 -6 1 -8 -1 -5 -6 3 -5 -54
-64 -127 -133 -72 -68 -291 -284 -486 -479 -195 -195 -359 -354 -364 -352 -5
1 -6 -2 -3 -7 3 -5 -11 -21 -32 -37 -72 -54 -532 -523 -640 -653 -24 -28 -47
-49 -52 -46 -8 5 -24 -12 -25 -25 0 -8 -141 -166 -196 -220 -25 -25 -61 -65
-80 -90 -18 -25 -40 -49 -48 -55 -17 -12 -102 -60 -151 -87 -19 -10 -34 -22
-32 -25 7 -16 -17 -13 -33 3 -16 16 -15 18 9 28 17 7 46 46 88 118 70 119 195
310 276 421 28 40 64 91 79 115 16 24 36 42 46 42 10 0 15 4 12 10 -8 13 26
70 42 70 7 0 13 7 13 16 0 8 12 28 28 43 15 16 36 45 46 65 11 20 23 36 27 36
5 0 18 18 29 40 14 27 27 40 41 40 15 0 19 5 15 16 -4 10 6 27 26 47 18 18 33
34 33 37 1 16 48 79 56 74 5 -3 9 1 9 10 0 8 15 34 33 58 18 24 40 55 50 71
10 15 24 27 32 27 8 0 12 6 10 13 -3 6 8 26 23 42 15 17 59 68 96 115 38 47
99 117 136 155 36 39 76 85 89 103 12 18 27 29 33 26 6 -4 8 -3 5 3 -3 5 26
43 64 84 49 51 85 102 116 164 26 49 64 124 86 165 110 209 107 201 107 272 0
37 -5 70 -11 73 -17 11 28 52 85 79 28 13 83 34 121 46 39 13 75 26 80 30 17
12 175 57 245 69 36 7 83 17 105 22 104 25 275 29 317 8z m-13 -786 c-25 -108
-4 -375 37 -470 25 -57 26 -56 -118 -50 -73 3 -146 8 -163 10 -16 2 -68 7
-115 12 -48 4 -133 22 -193 41 -103 32 -114 34 -207 28 l-98 -7 135 139 c73
76 144 155 157 174 13 19 39 50 58 67 33 32 37 33 163 44 72 6 171 19 220 29
135 27 135 27 124 -17z m141 -102 c27 -50 30 -63 30 -150 -1 -99 -19 -201 -41
-227 -11 -13 -15 -12 -27 13 -8 15 -21 50 -29 78 -17 60 -29 283 -18 351 l7
49 24 -30 c14 -17 38 -54 54 -84z"/>
<path d="M907 5323 c-25 -24 5 -101 80 -204 18 -26 33 -52 33 -58 0 -6 5 -11
10 -11 6 0 17 -18 26 -40 9 -22 19 -40 23 -40 5 0 13 -12 20 -26 6 -15 31 -50
55 -78 55 -65 132 -171 119 -163 -13 8 -63 -30 -63 -46 0 -26 51 -87 73 -87
27 0 110 31 119 44 14 20 8 61 -11 86 -11 14 -47 61 -79 105 -33 44 -71 92
-85 107 -14 15 -35 45 -48 68 -12 22 -26 40 -30 40 -3 0 -12 15 -20 33 -7 17
-16 34 -21 37 -6 5 -50 78 -119 200 -8 14 -18 28 -24 32 -13 10 -49 10 -58 1z"/>
<path d="M7680 4863 c-30 -2 -64 -7 -75 -12 -11 -5 -28 -12 -37 -15 -21 -6
-21 -2 -3 -241 14 -188 45 -362 67 -377 11 -7 207 -1 216 7 3 3 -15 173 -28
265 -6 36 -14 119 -20 185 -5 66 -12 134 -15 152 -5 28 -24 46 -43 41 -4 -1
-32 -3 -62 -5z m58 -140 c15 -113 22 -185 24 -250 0 -29 4 -53 8 -53 4 0 10
-26 13 -57 3 -32 7 -65 8 -73 3 -12 -9 -16 -59 -18 -34 -2 -62 1 -61 5 1 4 -1
15 -4 23 -23 55 -53 268 -59 415 l-3 80 50 6 c28 3 55 7 61 7 6 1 15 -36 22
-85z"/>
<path d="M7251 4553 c-21 -4 -23 -9 -17 -41 3 -21 6 -49 6 -64 0 -27 2 -28 54
-28 30 0 56 4 58 10 2 5 1 37 0 70 l-4 60 -36 -1 c-21 -1 -48 -4 -61 -6z"/>
<path d="M7076 4537 c-16 -12 -17 -22 -11 -76 l7 -63 52 7 c28 4 54 10 57 14
4 3 4 34 2 69 l-5 62 -42 0 c-23 0 -50 -6 -60 -13z"/>
<path d="M6905 4532 c-29 -6 -31 -14 -25 -79 l5 -58 58 -3 57 -3 0 29 c0 16
-3 50 -6 76 -7 45 -8 46 -38 44 -17 -1 -40 -4 -51 -6z"/>
<path d="M6553 4503 c-36 -5 -38 -12 -27 -97 l7 -46 48 0 c56 0 62 11 57 96
-3 54 -9 57 -85 47z"/>
<path d="M6388 4493 c-41 -6 -49 -24 -42 -87 l7 -56 53 0 54 0 0 63 c0 60 -11
89 -34 86 -6 -1 -23 -4 -38 -6z"/>
<path d="M6172 4433 c-34 -3 -42 -8 -38 -19 3 -9 6 -36 6 -60 l0 -44 58 0 c32
0 61 2 63 4 2 3 2 31 -1 63 -6 64 -5 64 -88 56z"/>
<path d="M5850 4412 c-70 -8 -70 -8 -70 -72 0 -32 4 -62 10 -65 5 -3 32 -3 60
1 l50 7 0 51 c-1 59 -15 82 -50 78z"/>
<path d="M3870 4150 l0 -70 29 0 c16 0 43 3 60 6 30 6 31 9 31 54 0 75 -4 80
-66 80 l-54 0 0 -70z"/>
<path d="M3687 4203 c-9 -8 -9 -90 -1 -120 5 -18 14 -23 40 -23 18 0 44 4 58
10 23 8 26 15 26 55 0 70 -12 85 -69 85 -26 0 -51 -3 -54 -7z"/>
<path d="M3515 4180 c-3 -5 -5 -38 -3 -73 l3 -63 47 6 c26 4 51 10 55 14 4 4
10 34 13 67 l6 59 -58 0 c-31 0 -60 -4 -63 -10z"/>
</g>
</svg>
