<?xml version="1.0" standalone="no"?>
<!DOCTYPE svg PUBLIC "-//W3C//DTD SVG 20010904//EN"
 "http://www.w3.org/TR/2001/REC-SVG-20010904/DTD/svg10.dtd">
<svg version="1.0" xmlns="http://www.w3.org/2000/svg"
 width="1187.000000pt" height="708.000000pt" viewBox="0 0 1187.000000 708.000000"
 preserveAspectRatio="xMidYMid meet">
<metadata>
Created by potrace 1.16, written by Peter Selinger 2001-2019
</metadata>
<g transform="translate(0.000000,708.000000) scale(0.100000,-0.100000)"
fill="#000000" stroke="none">
<path d="M4685 6165 c-27 -7 -77 -16 -110 -18 -33 -3 -82 -13 -110 -21 -27 -9
-72 -16 -100 -16 -32 0 -62 -7 -82 -19 -18 -12 -49 -20 -72 -19 -23 0 -52 -7
-66 -16 -13 -9 -45 -16 -70 -16 -25 0 -45 -4 -45 -8 0 -12 -62 -32 -102 -32
-19 0 -50 -7 -68 -16 -18 -9 -60 -19 -94 -21 -33 -2 -71 -10 -82 -18 -12 -8
-46 -17 -75 -21 -29 -4 -64 -13 -78 -20 -14 -8 -42 -14 -61 -14 -19 0 -50 -9
-68 -20 -20 -12 -50 -20 -80 -20 -31 0 -55 -7 -72 -20 -18 -14 -41 -20 -80
-20 -30 0 -66 -7 -80 -15 -14 -8 -45 -15 -70 -15 -29 0 -54 -8 -70 -20 -16
-12 -41 -20 -68 -20 -23 0 -53 -6 -65 -14 -12 -8 -44 -17 -72 -21 -27 -3 -60
-13 -71 -20 -12 -8 -45 -17 -73 -21 -28 -4 -51 -10 -51 -15 0 -11 -78 -32 -90
-24 -6 4 -13 -1 -16 -9 -3 -9 -10 -14 -14 -11 -5 3 -11 1 -15 -5 -3 -5 -19
-10 -34 -10 -16 0 -40 -9 -54 -20 -14 -11 -33 -20 -44 -20 -10 0 -29 -9 -43
-20 -14 -11 -35 -20 -47 -20 -13 0 -23 -4 -23 -9 0 -5 -15 -14 -32 -22 -57
-22 -188 -118 -188 -136 0 -5 -13 -17 -30 -26 -16 -10 -30 -24 -30 -31 0 -7
-13 -25 -30 -41 -16 -16 -30 -37 -30 -48 0 -10 -14 -30 -30 -44 -23 -19 -30
-33 -30 -61 0 -29 -9 -46 -40 -80 -45 -48 -47 -54 -24 -73 14 -11 15 -26 11
-83 -4 -38 -12 -73 -18 -77 -7 -4 -16 -31 -20 -61 -5 -29 -13 -78 -18 -108 -5
-30 -10 -82 -10 -116 -1 -45 -8 -73 -27 -109 -21 -40 -27 -69 -33 -165 -5 -64
-13 -125 -19 -136 -5 -10 -13 -41 -17 -69 -4 -27 -12 -56 -18 -63 -5 -7 -14
-92 -19 -190 -5 -97 -14 -206 -20 -242 -14 -84 -22 -384 -10 -407 5 -10 6
-112 2 -228 -6 -191 -5 -214 12 -252 10 -24 23 -43 28 -43 6 0 10 -15 10 -32
1 -35 19 -68 39 -68 6 0 11 -10 11 -22 1 -20 51 -88 65 -88 2 0 17 -11 32 -25
69 -63 97 -85 106 -85 5 0 20 -9 34 -20 14 -11 34 -20 44 -20 10 0 35 -11 55
-25 23 -15 51 -25 73 -25 71 0 74 -9 65 -156 l-9 -129 -60 -6 c-33 -4 -78 -12
-100 -19 -22 -7 -60 -13 -85 -14 -25 -1 -47 -3 -50 -6 -17 -17 -55 -30 -86
-30 -21 0 -47 -8 -61 -20 -14 -11 -41 -20 -59 -20 -19 0 -34 -4 -34 -10 0 -5
-7 -10 -15 -10 -8 0 -15 -4 -15 -10 0 -5 -16 -10 -35 -10 -20 0 -49 -7 -65
-15 -31 -16 -60 -61 -53 -82 2 -6 -2 -26 -10 -45 -8 -19 -20 -73 -27 -120 -15
-103 -4 -148 36 -148 23 0 99 -22 139 -40 32 -15 401 -15 470 -1 33 7 116 14
185 15 75 1 141 7 165 16 23 8 87 14 150 15 61 1 133 7 160 15 30 8 128 14
250 16 319 6 379 8 393 17 7 5 83 7 170 6 157 -2 248 6 258 22 3 5 52 9 109 9
58 0 107 4 110 10 3 6 17 10 30 10 13 0 27 5 30 10 4 7 40 10 88 9 49 -1 108
5 147 14 38 10 106 17 163 17 54 0 107 5 118 11 11 6 93 14 182 18 89 5 180
14 202 20 22 6 87 11 146 11 58 0 109 4 115 8 18 16 84 33 103 27 10 -3 58 2
107 12 144 29 503 16 550 -19 7 -5 56 -13 110 -18 96 -9 145 -17 249 -40 74
-17 368 -14 435 3 l55 15 -46 1 c-25 1 -49 -3 -55 -7 -5 -5 -30 -7 -56 -4 -38
3 -48 8 -48 22 0 10 9 22 20 25 25 8 26 25 2 25 -10 0 -27 7 -38 15 -10 8 -26
15 -34 15 -20 0 -53 37 -38 42 7 3 -4 27 -24 59 -34 54 -52 105 -69 209 -17
95 -16 103 8 109 13 3 32 14 43 24 13 11 37 17 70 17 28 0 50 5 50 10 0 6 7
10 15 10 8 0 15 4 15 9 0 5 17 8 38 6 20 -1 63 6 94 17 32 10 69 18 83 18 14
0 25 4 25 9 0 6 21 13 48 16 26 4 82 15 124 26 43 10 97 19 121 19 24 0 66 7
93 14 27 8 85 19 129 25 101 12 233 37 298 56 28 8 70 15 94 15 24 0 57 7 73
15 17 9 56 18 87 21 32 3 80 12 107 20 27 7 66 14 86 14 19 0 61 9 93 20 31
11 76 20 99 20 24 0 56 7 72 15 15 8 47 15 70 15 22 0 73 9 111 20 38 11 84
20 101 20 17 0 49 6 70 14 22 7 70 16 107 20 38 3 84 13 104 21 19 8 54 15 77
15 22 0 73 9 111 20 38 11 91 20 118 20 26 0 63 7 83 15 19 8 68 17 110 20 42
3 84 9 93 15 10 5 55 14 101 19 45 6 88 15 95 21 7 5 34 13 61 16 27 4 59 13
71 20 12 8 30 11 39 7 27 -10 12 -156 -21 -204 -14 -19 -25 -42 -25 -51 0 -32
-120 -138 -158 -138 -9 0 -28 -9 -42 -20 -14 -11 -35 -20 -48 -20 -12 0 -40
-9 -62 -20 -22 -11 -54 -20 -73 -20 -18 0 -42 -7 -53 -15 -10 -8 -36 -15 -56
-15 -21 0 -53 -9 -73 -20 -20 -11 -52 -20 -73 -20 -20 0 -52 -9 -71 -21 -21
-13 -46 -19 -70 -17 l-36 3 -5 86 c-3 57 -10 90 -20 100 -67 65 -170 85 -254
50 -26 -12 -56 -21 -67 -21 -10 0 -33 -9 -51 -20 -18 -11 -41 -20 -51 -20 -11
0 -30 -9 -44 -20 -14 -11 -31 -20 -38 -20 -6 0 -20 -9 -30 -20 -10 -11 -24
-20 -32 -20 -7 0 -13 -6 -13 -14 0 -7 -11 -21 -25 -30 -14 -9 -28 -29 -32 -44
-3 -15 -15 -40 -25 -57 -10 -16 -18 -37 -18 -46 0 -29 -38 -65 -82 -78 -24 -7
-62 -21 -86 -32 -23 -10 -51 -19 -62 -19 -11 0 -34 -9 -52 -20 -18 -11 -43
-20 -56 -20 -12 0 -40 -9 -62 -20 -22 -11 -48 -20 -59 -20 -11 0 -36 -9 -55
-21 -19 -11 -43 -20 -53 -18 -27 3 -83 -12 -83 -22 0 -5 -18 -9 -40 -9 -22 0
-40 -4 -40 -9 0 -12 -55 -31 -89 -31 -14 0 -41 -9 -59 -20 -18 -11 -49 -20
-70 -20 -20 0 -57 -10 -82 -21 -24 -11 -54 -18 -66 -15 -11 3 -29 -1 -40 -9
-10 -8 -27 -15 -36 -15 -37 0 -16 -19 25 -22 l42 -4 -30 -13 c-24 -11 -26 -15
-12 -18 10 -3 38 5 62 16 25 12 56 21 70 21 14 0 43 9 65 20 22 11 55 20 74
20 19 0 55 9 81 20 26 11 58 20 72 20 14 0 38 9 54 21 17 12 37 18 46 15 8 -4
31 3 50 14 19 11 46 20 61 20 50 0 56 -11 58 -110 1 -78 4 -94 23 -114 11 -12
21 -29 21 -38 0 -9 12 -23 26 -33 24 -15 36 -25 86 -68 14 -11 38 -17 69 -17
30 0 51 -5 56 -14 15 -25 85 -39 191 -38 96 1 107 3 146 28 50 33 86 66 86 79
0 6 8 15 19 22 10 6 21 24 24 40 3 15 17 40 31 55 15 16 28 44 32 70 4 24 17
55 29 69 17 21 23 45 28 113 3 47 11 94 16 105 14 25 14 101 1 101 -5 0 -10
-6 -10 -13 0 -7 -12 -30 -26 -51 -22 -32 -28 -55 -34 -138 -6 -79 -12 -102
-28 -116 -11 -10 -22 -37 -26 -64 -5 -34 -14 -51 -31 -62 -14 -9 -25 -26 -25
-37 0 -13 -28 -48 -72 -90 -77 -75 -108 -85 -167 -55 -35 18 -101 91 -101 111
0 9 -9 28 -20 43 -14 20 -24 63 -37 165 l-16 137 28 30 c38 39 51 27 58 -55 6
-67 53 -184 86 -215 38 -37 95 -62 125 -56 38 8 126 88 126 115 0 11 9 36 21
55 13 22 23 60 26 98 4 58 11 85 34 130 5 10 9 27 9 38 0 11 8 24 18 27 9 4
22 13 27 20 6 8 17 15 25 16 8 2 22 7 30 12 8 5 22 11 30 13 17 4 18 4 122 -4
68 -5 80 -4 107 15 16 12 42 21 58 21 15 0 37 7 47 15 11 8 36 15 55 15 20 0
56 12 80 25 26 15 57 25 75 23 17 -1 44 7 60 17 16 11 42 18 57 17 15 -2 45 6
68 17 22 12 49 21 60 21 11 0 35 9 53 20 18 11 43 20 56 20 12 0 22 4 22 9 0
5 17 16 38 26 88 41 192 141 192 187 0 10 12 37 26 59 20 32 27 59 31 118 3
42 12 101 20 131 31 113 35 150 43 355 5 134 4 224 -2 250 -12 46 -3 444 12
585 6 52 16 142 23 200 6 58 11 186 10 285 -1 204 -17 279 -77 380 -57 93
-195 246 -281 310 -15 11 -38 30 -51 43 -14 12 -31 22 -39 22 -8 0 -20 9 -27
20 -7 11 -21 20 -32 20 -11 0 -28 7 -38 17 -10 9 -27 21 -37 27 -10 6 -44 28
-75 48 -31 21 -71 44 -88 53 -18 8 -51 26 -73 40 -22 14 -47 28 -55 31 -8 3
-38 17 -66 31 -28 14 -56 23 -62 19 -5 -3 -12 1 -16 9 -3 8 -12 15 -21 15 -8
0 -15 5 -15 10 0 6 -12 10 -27 10 -16 0 -50 11 -77 25 -27 14 -60 25 -72 25
-13 0 -33 4 -46 9 -50 20 -65 25 -118 38 -113 28 -147 34 -230 43 -47 5 -98
14 -115 20 -16 7 -75 13 -130 15 -55 2 -129 8 -165 14 -36 6 -113 11 -172 11
-62 0 -131 6 -165 15 -38 10 -105 15 -200 15 -95 0 -156 5 -185 14 -27 9 -106
16 -208 19 -126 4 -181 9 -230 24 -36 11 -123 25 -195 32 -71 6 -155 18 -185
27 -30 9 -111 20 -180 25 -68 5 -129 14 -134 19 -6 6 -20 10 -33 10 -13 0 -23
5 -23 10 0 6 -33 10 -77 11 -74 0 -112 5 -220 30 -27 6 -169 17 -316 25 -250
14 -270 17 -302 38 -32 22 -41 23 -247 24 -150 1 -228 -3 -263 -13z m530 -71
c11 -7 101 -14 200 -18 238 -8 311 -15 365 -33 25 -8 65 -17 90 -19 149 -17
284 -36 306 -44 14 -6 76 -14 138 -20 62 -5 157 -19 211 -30 53 -11 121 -20
150 -20 78 0 200 -19 232 -35 16 -8 42 -15 60 -15 17 0 35 -5 39 -12 5 -8 2
-9 -10 -5 -17 7 -84 -12 -146 -40 -70 -32 -115 -56 -131 -69 -8 -8 -23 -14
-33 -14 -9 0 -19 -7 -22 -15 -3 -8 -14 -17 -24 -20 -11 -3 -22 -14 -25 -24 -3
-10 -17 -23 -30 -29 -14 -7 -28 -19 -32 -28 -3 -9 -19 -30 -34 -47 -16 -17
-29 -39 -29 -49 0 -10 -3 -18 -8 -18 -11 0 -48 -77 -63 -130 -7 -25 -17 -50
-21 -57 -5 -6 -12 -37 -15 -67 -3 -31 -9 -56 -13 -56 -8 0 -30 -92 -30 -126 0
-13 -4 -24 -9 -24 -5 0 -11 -10 -14 -21 -6 -21 -9 -21 -99 -14 -97 7 -823 7
-1758 1 -300 -2 -593 -1 -652 2 -98 4 -107 7 -119 28 -9 17 -9 27 -1 37 6 7
11 22 11 32 0 27 16 99 25 114 4 6 12 54 17 106 7 77 14 106 39 150 16 29 30
63 30 73 0 11 7 25 15 32 8 7 13 16 10 20 -3 4 2 10 10 14 9 3 15 19 15 41 0
41 -6 43 -31 13 -11 -11 -21 -19 -24 -16 -3 3 11 22 30 42 19 21 35 42 35 47
0 6 7 17 15 25 13 14 15 13 15 -5 0 -12 3 -21 7 -21 13 0 73 45 73 54 0 14 79
86 93 86 7 0 18 9 25 20 7 12 16 18 21 15 5 -2 14 2 21 11 18 21 181 98 265
124 39 12 91 29 116 37 25 7 90 18 145 23 138 12 524 7 549 -6z m-1177 -127
c-16 -6 -28 -19 -28 -29 0 -10 -3 -18 -8 -18 -4 0 -36 -27 -71 -60 -35 -33
-68 -60 -73 -60 -4 0 -8 -5 -8 -12 0 -7 -14 -24 -31 -39 -16 -14 -31 -32 -32
-41 -2 -8 -15 -27 -30 -42 -15 -15 -27 -37 -27 -50 0 -13 -7 -29 -15 -36 -8
-7 -15 -18 -15 -25 0 -8 -5 -15 -11 -17 -6 -2 -13 -26 -17 -53 -3 -27 -11 -55
-17 -62 -7 -6 -18 -48 -25 -93 -8 -53 -18 -83 -29 -89 -11 -7 -17 -32 -22 -98
-4 -52 -14 -102 -24 -122 l-18 -33 -326 7 c-179 4 -556 8 -838 10 -282 2 -517
6 -522 10 -6 3 -11 25 -11 49 0 34 6 48 30 71 17 16 30 38 30 50 0 14 10 26
25 33 15 7 25 20 25 32 0 12 12 26 30 35 17 9 30 20 30 24 0 30 307 206 395
227 17 4 37 12 45 19 8 8 33 17 55 21 22 4 45 13 52 20 7 7 34 16 60 20 26 4
53 13 61 20 7 8 33 14 56 14 24 0 58 7 76 16 18 9 53 19 79 22 25 2 53 10 61
18 8 7 40 16 70 19 30 4 72 13 93 21 20 8 51 14 68 14 16 0 44 8 62 17 37 20
47 22 105 27 23 2 49 9 56 15 8 7 41 15 73 18 32 3 67 11 79 18 11 7 43 17 70
21 27 4 64 13 83 21 18 8 50 16 70 18 20 1 63 10 96 19 32 9 71 16 85 16 14 1
36 7 50 15 14 8 32 14 40 14 8 -1 3 -6 -12 -12z m3465 -242 c18 -7 63 -16 101
-19 38 -4 113 -15 165 -25 53 -11 125 -22 161 -26 35 -4 80 -13 100 -22 19 -8
71 -17 115 -20 51 -4 92 -13 114 -25 18 -10 63 -22 100 -25 36 -3 71 -9 76
-13 21 -15 110 -40 141 -40 19 0 51 -9 72 -20 21 -11 69 -24 108 -29 38 -5 86
-16 106 -25 21 -9 50 -16 66 -16 16 0 56 -11 90 -25 34 -14 80 -25 102 -25 23
0 60 -9 83 -19 23 -11 60 -22 82 -26 62 -11 73 -15 79 -31 5 -13 0 -14 -27 -9
-17 4 -35 12 -39 18 -3 6 -32 12 -65 14 -32 3 -78 14 -103 25 -25 12 -77 24
-116 27 -39 4 -79 12 -88 20 -9 8 -48 16 -86 19 -39 2 -70 9 -70 13 0 5 -8 9
-18 9 -10 0 -23 5 -29 11 -5 5 -46 14 -89 18 -44 4 -89 13 -101 20 -12 6 -31
11 -42 11 -12 0 -21 5 -21 10 0 6 -19 10 -42 10 -44 0 -156 27 -173 41 -5 5
-32 9 -60 9 -32 0 -75 10 -113 25 -42 17 -81 25 -122 25 -33 0 -76 6 -95 14
-18 8 -78 22 -133 30 -55 9 -116 23 -136 31 -19 8 -65 15 -101 15 -57 0 -99
11 -115 31 -3 4 -14 9 -25 12 -11 4 11 4 48 1 38 -3 83 -12 100 -19z m952 -60
c28 -7 77 -16 110 -20 33 -4 98 -17 145 -31 46 -13 102 -24 125 -24 22 0 54
-8 70 -18 17 -10 50 -26 75 -35 25 -10 56 -26 69 -36 23 -18 23 -18 -25 -11
-27 4 -78 17 -113 28 -35 12 -74 22 -85 22 -12 0 -43 11 -71 25 -27 13 -66 25
-85 25 -19 0 -64 9 -98 20 -35 11 -79 20 -98 20 -19 0 -42 4 -52 9 -54 28 -78
34 -163 41 -92 9 -92 9 26 4 66 -3 143 -11 170 -19z m-1730 -361 c17 -8 73
-18 125 -23 52 -5 115 -17 138 -25 24 -9 93 -20 152 -26 59 -6 126 -17 148
-24 22 -8 93 -20 159 -26 65 -7 150 -21 188 -30 39 -10 106 -21 150 -25 44 -3
112 -15 150 -25 39 -10 102 -21 140 -25 39 -4 93 -13 120 -20 28 -8 101 -21
164 -30 62 -8 118 -18 124 -22 5 -3 62 -14 126 -23 64 -10 170 -27 236 -38 66
-11 153 -25 194 -31 41 -7 79 -15 85 -20 6 -5 65 -12 131 -16 77 -5 137 -14
167 -26 25 -10 81 -21 125 -24 43 -4 114 -18 157 -31 44 -13 94 -24 112 -24
46 0 79 -17 95 -49 29 -59 26 -332 -8 -671 -12 -127 -14 -223 -10 -416 6 -235
5 -253 -12 -268 -10 -9 -31 -16 -47 -16 -59 2 -257 -20 -307 -34 -29 -8 -88
-15 -132 -14 -47 0 -103 -6 -134 -16 -36 -10 -93 -16 -165 -16 -61 -1 -138 -7
-171 -15 -33 -8 -109 -15 -170 -15 -60 -1 -130 -5 -155 -11 -25 -6 -115 -14
-201 -18 -85 -5 -164 -13 -175 -19 -10 -5 -82 -12 -159 -15 -77 -3 -155 -10
-174 -16 -18 -6 -90 -13 -160 -15 -69 -3 -166 -12 -216 -21 -49 -8 -117 -13
-150 -11 -33 3 -96 -2 -139 -10 -44 -9 -147 -19 -230 -24 -83 -5 -167 -13
-186 -19 -19 -6 -84 -11 -144 -11 -60 0 -148 -7 -196 -17 -49 -9 -98 -13 -115
-9 l-28 7 7 202 c6 171 10 208 28 249 17 41 19 52 8 77 -7 17 -10 35 -8 42 5
15 102 41 106 28 2 -5 14 -9 28 -9 13 0 30 -10 39 -22 8 -13 35 -32 60 -43 25
-11 45 -23 45 -27 0 -11 158 -10 162 1 2 5 33 4 72 -1 38 -5 76 -6 85 -3 9 3
18 6 20 5 2 -1 7 4 12 11 11 19 148 26 304 16 145 -9 228 -3 246 19 6 8 17 14
23 14 16 0 97 80 91 90 -3 5 2 35 10 67 11 41 15 98 14 198 -5 352 1 669 14
677 6 4 49 8 95 8 49 0 82 4 82 10 0 13 -43 30 -78 31 -15 0 -45 6 -67 13
l-40 13 28 13 c15 7 27 20 27 28 0 17 -28 52 -42 52 -4 0 -37 14 -71 30 -51
24 -77 30 -130 30 -36 0 -68 3 -71 8 -2 4 -37 9 -78 10 -100 3 -164 10 -292
33 -60 10 -141 19 -181 19 -39 0 -95 7 -125 16 -75 21 -134 33 -203 40 -56 5
-92 25 -84 48 3 7 38 11 103 11 82 0 99 3 102 16 4 21 -36 36 -112 43 -74 6
-85 16 -67 59 7 17 22 55 32 82 9 28 27 61 39 74 19 21 26 23 78 16 31 -4 71
-13 87 -21z m-284 -105 c-23 -47 -28 -105 -10 -111 9 -3 9 -9 0 -25 -12 -24
-14 -72 -3 -90 4 -6 29 -17 55 -23 40 -11 47 -16 47 -38 0 -13 8 -31 18 -38
16 -12 16 -13 0 -19 -10 -4 -18 -17 -19 -29 0 -21 0 -21 -9 2 -5 12 -14 22
-21 22 -7 0 -9 9 -5 26 11 43 -1 64 -39 64 -26 0 -34 -5 -39 -24 -3 -14 -3
-32 0 -41 4 -10 1 -21 -6 -25 -8 -5 -18 -47 -24 -108 -7 -60 -8 -98 -2 -94 5
3 7 -2 3 -12 -4 -9 -3 -14 2 -11 5 3 13 0 17 -6 3 -6 2 -14 -3 -18 -27 -17
-55 -232 -33 -246 16 -10 12 -45 -5 -45 -11 0 -15 -13 -16 -52 -1 -29 -1 -59
0 -67 2 -7 -3 -11 -9 -9 -14 4 -14 3 -6 92 7 77 -5 131 -26 124 -7 -3 -16 -20
-20 -39 -11 -52 -36 -254 -43 -349 -3 -47 -10 -114 -15 -150 -5 -36 -10 -99
-10 -140 0 -111 -5 -115 -180 -106 -75 4 -144 4 -153 0 -10 -3 -17 -16 -17
-29 0 -20 8 -23 69 -34 39 -6 92 -11 120 -11 27 0 53 -4 56 -10 3 -5 13 -10
22 -10 21 0 72 -38 69 -53 -1 -6 -5 -18 -9 -25 -5 -7 -12 -88 -17 -180 -5 -92
-11 -204 -14 -248 -3 -45 -8 -242 -10 -438 -3 -259 -8 -361 -16 -371 -15 -19
-43 -19 -78 -2 -41 21 -152 36 -307 42 -77 3 -153 10 -170 15 -116 34 -155 41
-280 50 -131 10 -227 22 -285 36 -14 4 -99 9 -189 11 -147 4 -170 7 -217 29
-29 13 -68 24 -86 24 -36 0 -58 15 -58 39 0 8 -6 22 -13 30 -26 32 -39 90 -32
145 6 48 5 55 -19 79 -14 14 -26 33 -26 42 0 8 -7 15 -15 15 -8 0 -15 7 -15
15 0 10 -10 15 -29 15 -17 0 -33 5 -36 10 -4 6 -11 8 -16 5 -5 -4 -9 -3 -9 2
0 24 -70 32 -320 37 -420 10 -659 26 -761 52 -31 8 -91 14 -132 14 -72 0 -121
14 -137 39 -4 7 -85 13 -222 16 -194 5 -218 4 -226 -11 -6 -10 -27 -18 -58
-22 -27 -3 -54 -11 -62 -18 -7 -7 -29 -16 -50 -20 -20 -4 -48 -14 -61 -23 -13
-8 -30 -16 -38 -17 -8 -2 -31 -14 -52 -28 -20 -14 -40 -26 -44 -26 -4 0 -23
-16 -43 -35 -32 -33 -39 -35 -98 -35 -35 0 -85 4 -112 9 -27 5 -68 12 -91 16
-23 3 -55 12 -70 20 -15 8 -42 15 -59 15 -17 0 -37 6 -43 14 -8 10 -13 94 -16
269 -2 140 -5 258 -6 263 -1 5 1 16 4 24 5 14 27 332 27 400 0 26 4 30 36 36
20 4 59 3 87 -2 45 -8 52 -12 55 -34 2 -14 16 -41 32 -60 17 -19 30 -41 30
-48 0 -7 7 -15 15 -18 8 -4 12 -11 8 -18 -3 -6 -3 -8 2 -4 4 4 15 3 24 -1 9
-5 140 -17 291 -26 282 -17 392 -26 515 -46 39 -6 138 -15 220 -20 329 -19
423 -27 505 -43 62 -12 222 -20 595 -31 468 -14 602 -21 800 -40 198 -18 320
-27 520 -34 207 -8 222 -8 251 10 17 11 39 19 48 19 9 0 16 4 16 8 0 5 11 15
25 22 14 7 25 20 25 27 0 7 7 16 15 19 8 4 15 13 15 22 0 8 3 12 7 9 3 -4 16
6 27 22 12 15 26 26 32 24 28 -9 38 91 11 109 -7 4 -7 11 1 21 7 8 14 58 16
115 2 56 7 105 10 110 2 4 8 55 11 113 8 118 20 206 39 264 8 22 14 73 15 113
2 66 0 72 -18 72 -14 0 -21 -8 -24 -27 -2 -16 -4 19 -4 77 -1 92 1 99 9 60 15
-68 18 -74 28 -64 5 5 10 48 11 94 1 70 -3 92 -20 123 -11 21 -21 46 -21 55 0
10 -18 35 -40 57 -22 21 -38 41 -35 43 6 7 503 2 521 -5 10 -4 12 -23 9 -81
-3 -43 -7 -143 -10 -224 -4 -143 -4 -148 16 -148 25 0 27 5 33 130 3 58 8 155
12 216 5 79 4 113 -5 118 -14 9 -15 66 -1 66 6 0 10 7 10 15 0 8 4 15 9 15 13
0 31 58 31 102 0 21 7 54 14 73 8 19 13 35 10 35 -2 0 2 13 11 30 8 16 16 39
17 52 1 15 3 12 5 -9 3 -19 -4 -49 -16 -74z m3444 -220 c3 -9 19 -31 35 -49
17 -19 30 -42 30 -52 0 -10 4 -18 9 -18 11 0 37 -98 50 -190 16 -110 15 -187
-3 -360 -21 -202 -35 -479 -35 -707 0 -101 -2 -183 -5 -183 -15 0 -29 136 -28
275 2 305 13 467 40 585 9 40 4 401 -6 448 -5 24 -16 51 -25 59 -10 10 -13 27
-10 54 4 23 2 39 -5 39 -5 0 -13 11 -16 25 -4 14 -11 25 -16 25 -6 0 -10 6
-10 14 0 8 -12 29 -27 47 -24 28 -24 30 -5 18 12 -8 24 -21 27 -30z m-6115
-79 c564 1 1185 1 1380 2 l355 1 70 -36 c71 -36 135 -94 135 -122 0 -8 5 -15
10 -15 6 0 10 -5 10 -12 0 -6 6 -19 14 -27 30 -35 41 -232 19 -326 -3 -11 -8
-74 -12 -141 -4 -86 -11 -128 -23 -145 -9 -14 -18 -54 -21 -90 -8 -120 -28
-254 -41 -274 -7 -11 -19 -51 -27 -89 -16 -85 -42 -107 -155 -136 -72 -19 -98
-20 -304 -14 -124 3 -228 8 -231 10 -16 9 -402 44 -489 44 -54 0 -109 4 -123
9 -13 5 -46 12 -73 15 -281 31 -476 43 -779 51 -296 7 -582 23 -740 41 -199
22 -343 33 -542 43 -195 10 -227 19 -270 70 -19 22 -22 38 -23 104 0 67 4 87
29 137 26 51 30 74 36 177 3 67 12 131 20 148 8 17 17 60 20 98 4 37 11 67 16
67 6 0 8 4 5 8 -8 14 16 225 28 239 28 31 34 41 38 59 2 10 23 29 46 43 44 23
92 31 282 46 47 4 121 10 165 14 44 4 96 6 115 4 19 -2 496 -3 1060 -3z
m-1792 -19 c16 -10 2 -40 -35 -77 -18 -17 -23 -33 -23 -73 0 -28 -4 -51 -9
-51 -5 0 -13 -15 -16 -32 -4 -18 -11 -35 -16 -38 -8 -6 -11 -32 -25 -263 -5
-89 -10 -116 -32 -155 -21 -40 -26 -63 -30 -159 -3 -87 -8 -113 -18 -113 -8 0
-14 -4 -14 -9 0 -5 -18 -12 -41 -16 -42 -7 -98 9 -100 29 -3 27 4 63 17 88 10
18 14 62 14 137 0 108 6 138 45 226 9 18 16 85 19 172 3 78 10 150 15 160 15
26 42 103 48 138 3 17 11 33 17 37 15 11 168 10 184 -1z m4780 -62 c26 -6 63
-18 82 -27 26 -13 67 -17 165 -18 158 -2 500 -31 535 -46 14 -6 31 -12 38 -14
26 -5 25 -14 -4 -25 -18 -7 -58 -9 -109 -5 -44 4 -152 11 -240 16 -88 5 -189
14 -225 20 -70 11 -190 26 -308 36 -57 6 -76 11 -87 27 -11 15 -12 24 -3 34
13 16 92 17 156 2z m-171 -89 c12 0 8 -6 -14 -20 -36 -22 -40 -32 -19 -49 7
-6 11 -22 8 -36 -2 -14 0 -31 5 -38 6 -7 7 -48 2 -107 -7 -76 -6 -101 6 -126
22 -47 13 -509 -11 -559 -9 -19 -13 -39 -9 -44 3 -6 1 -11 -5 -11 -8 0 -11
-15 -9 -43 3 -36 1 -43 -11 -40 -19 5 -21 34 -20 389 0 232 -2 263 -17 268
-14 6 -14 8 -1 24 33 39 40 76 30 168 -7 59 -15 92 -25 98 -13 8 -11 13 10 29
23 19 25 25 19 75 l-6 55 24 -17 c14 -9 33 -16 43 -16z m313 -47 c36 -8 133
-19 215 -24 83 -5 202 -13 265 -18 63 -5 120 -6 127 -4 7 3 22 -5 33 -18 20
-23 20 -33 15 -204 -5 -123 -3 -196 5 -230 7 -29 11 -117 10 -210 -1 -139 -4
-166 -21 -202 -12 -24 -27 -43 -35 -43 -8 0 -28 -10 -44 -21 -28 -21 -36 -22
-232 -17 -189 5 -314 -4 -303 -22 8 -13 525 -22 540 -10 8 6 26 10 41 8 l28
-3 -34 -34 -34 -34 -111 7 c-123 8 -287 8 -313 -1 -9 -3 -30 -11 -47 -17 -21
-9 -75 -10 -180 -7 -142 6 -153 8 -182 31 -18 14 -32 32 -32 40 -1 9 -6 21
-13 28 -9 9 -9 12 0 12 7 0 12 -4 12 -9 0 -15 102 -30 124 -19 19 10 19 11 -3
29 -13 11 -29 19 -35 19 -15 0 -45 34 -65 72 -11 22 -12 78 -5 320 5 172 5
333 0 391 -10 112 3 203 31 209 36 7 182 -4 243 -19z m749 -30 c-14 -3 -18
-21 -21 -91 -5 -86 -4 -142 7 -539 5 -175 4 -206 -10 -230 -15 -26 -16 -16
-11 167 4 122 2 209 -5 230 -5 19 -10 114 -11 210 0 96 -5 186 -10 200 -8 20
-5 28 12 42 12 10 32 17 44 17 15 -1 16 -3 5 -6z m-1201 -765 c-2 -51 0 -106
4 -123 6 -23 3 -36 -12 -55 -18 -24 -21 -24 -47 -10 -25 14 -28 22 -31 70 -4
75 15 181 36 197 9 7 25 13 35 13 17 0 18 -8 15 -92z m3448 -643 c3 -12 4 -41
2 -66 l-3 -44 -76 -2 c-43 -1 -93 -9 -114 -17 -21 -9 -58 -16 -84 -16 -25 0
-62 -5 -81 -11 -19 -6 -71 -14 -115 -19 -44 -5 -101 -18 -127 -29 -37 -17 -58
-20 -100 -15 -40 5 -67 1 -113 -15 -32 -12 -83 -21 -112 -21 -30 0 -70 -7 -90
-15 -20 -8 -72 -17 -117 -18 -50 -2 -93 -10 -113 -20 -18 -10 -55 -17 -83 -17
-28 0 -67 -7 -87 -15 -19 -8 -60 -15 -90 -15 -30 0 -69 -6 -86 -14 -46 -20
-126 -37 -172 -35 -22 1 -53 -4 -69 -10 -16 -6 -63 -14 -105 -18 -42 -3 -81
-10 -88 -15 -6 -5 -56 -14 -110 -20 -54 -5 -107 -14 -118 -19 -11 -4 -55 -13
-97 -19 -185 -24 -234 -32 -243 -40 -5 -4 -30 -10 -55 -14 -24 -4 -50 -12 -57
-18 -9 -7 -39 -9 -82 -5 -64 5 -138 -7 -157 -26 -4 -4 -48 -7 -98 -7 -54 0
-107 -6 -131 -15 -27 -9 -83 -14 -172 -15 -72 0 -144 -5 -160 -11 -15 -6 -42
-8 -60 -4 -31 5 -32 7 -38 70 -10 87 22 267 50 287 5 4 60 8 121 8 61 0 150 7
197 15 49 8 139 14 210 14 85 -1 131 2 148 12 15 8 70 14 149 16 136 3 188 9
207 25 7 6 59 10 115 10 63 0 141 7 199 19 58 11 135 18 190 18 55 -1 121 5
159 15 39 9 109 16 175 16 63 0 133 6 164 15 30 8 104 15 165 15 61 1 143 8
181 15 39 8 120 15 180 16 61 0 137 7 170 14 33 8 110 15 170 16 61 2 130 9
154 16 24 7 72 13 105 13 34 1 81 5 106 11 25 5 90 13 145 16 55 3 101 6 103
7 11 10 33 -1 38 -19z m-3636 -265 c-4 -3 -11 -103 -15 -222 -6 -196 -5 -218
9 -218 9 0 16 -4 16 -10 0 -5 -6 -10 -14 -10 -17 0 -32 -209 -22 -322 3 -40 8
-111 11 -158 l5 -85 -15 50 c-9 28 -25 76 -35 107 -11 33 -15 58 -9 60 6 2 14
165 20 403 6 220 15 411 20 424 9 23 10 23 24 5 7 -10 10 -21 5 -24z m-4559
-280 c37 -11 115 -23 184 -27 l120 -8 1 -158 c1 -131 4 -160 18 -175 9 -10 16
-32 16 -49 0 -25 -5 -32 -25 -37 -29 -7 -77 2 -70 14 3 4 -11 11 -30 14 -20 4
-41 16 -48 26 -6 11 -17 20 -24 20 -6 0 -18 6 -25 13 -7 7 -34 28 -60 45 -27
18 -48 36 -48 40 0 4 -13 16 -30 25 -16 10 -30 27 -30 37 0 10 -11 27 -25 38
-15 12 -25 30 -25 46 0 24 -16 64 -31 76 -3 3 -8 17 -11 33 -10 50 38 59 143
27z m645 -75 c27 -9 89 -15 179 -16 89 -1 153 -6 178 -15 27 -9 86 -14 183
-14 113 0 146 -3 158 -15 8 -8 23 -15 33 -15 11 0 23 -4 28 -9 6 -5 65 -12
132 -15 68 -3 132 -10 144 -16 11 -6 48 -15 82 -18 54 -6 62 -10 60 -27 -2
-11 -4 -44 -5 -74 l-3 -54 -190 6 c-166 6 -247 16 -315 40 -8 3 -54 8 -101 11
-48 3 -142 15 -210 27 -75 13 -191 24 -294 28 -159 6 -172 8 -195 29 -15 13
-36 22 -57 22 l-33 0 0 70 0 70 93 0 c54 0 109 -6 133 -15z m6500 -260 c8 -8
22 -18 30 -23 10 -6 18 -30 21 -72 4 -46 3 -61 -5 -56 -8 5 -10 1 -6 -9 12
-29 -30 -57 -78 -51 -22 2 -44 9 -47 14 -3 5 -20 16 -36 25 -17 8 -37 27 -45
41 -7 14 -17 26 -22 26 -4 0 -8 8 -8 19 0 10 -11 26 -25 35 -30 19 -25 36 8
31 12 -3 36 4 52 14 38 25 139 28 161 6z m-4506 -55 c0 -33 4 -60 10 -60 6 0
10 -30 10 -69 0 -59 4 -74 25 -99 17 -20 25 -42 25 -66 0 -29 5 -39 25 -48 14
-6 25 -20 25 -30 0 -18 6 -27 38 -63 6 -7 12 -18 12 -24 0 -6 8 -11 18 -11 10
0 24 -10 32 -21 8 -12 31 -29 50 -38 l35 -16 -100 -6 c-55 -4 -124 -13 -152
-22 -37 -11 -76 -14 -132 -10 -62 5 -93 1 -147 -15 -62 -19 -85 -20 -218 -15
-133 6 -149 8 -154 25 -2 10 -8 18 -12 18 -9 0 -24 209 -24 346 -1 77 -4 100
-13 97 -8 -3 -13 3 -13 16 0 19 6 21 63 21 40 0 70 5 83 15 10 8 41 15 67 15
44 0 107 23 115 42 2 4 23 5 46 2 27 -4 46 -2 50 5 4 6 16 11 27 11 10 0 19 5
19 10 0 6 23 10 50 10 28 0 50 3 50 8 0 10 41 29 68 31 20 1 22 -3 22 -59z
m-2120 30 c0 -5 16 -10 36 -10 20 0 50 -6 67 -14 23 -10 89 -16 223 -19 154
-4 196 -8 216 -21 14 -9 36 -15 49 -13 13 2 30 -2 37 -10 9 -9 41 -13 104 -13
56 0 102 -5 121 -14 53 -24 84 -28 281 -37 104 -4 189 -10 190 -11 1 -2 -1
-37 -4 -78 -3 -47 0 -94 8 -125 7 -27 14 -78 15 -112 1 -39 7 -64 15 -67 7 -4
12 -26 12 -63 l0 -58 -123 -3 c-160 -4 -287 6 -287 22 0 7 -11 19 -25 26 -14
7 -25 19 -25 27 0 7 -7 13 -15 13 -8 0 -15 5 -15 10 0 6 -7 10 -15 10 -8 0
-15 4 -15 10 0 5 -17 14 -37 20 -21 6 -47 17 -57 25 -11 8 -30 15 -43 15 -13
0 -46 11 -73 25 -33 17 -66 25 -100 25 -56 0 -138 17 -158 33 -7 5 -63 13
-125 18 -62 4 -134 15 -162 25 -27 9 -72 20 -100 23 l-50 6 -3 120 c-2 66 0
144 3 173 6 47 9 52 31 52 13 0 24 -4 24 -10z m2325 -1 c123 -32 176 -39 335
-45 104 -3 193 -11 220 -20 54 -17 265 -45 284 -38 7 3 59 -4 114 -16 90 -18
173 -28 357 -44 92 -7 290 -48 305 -63 11 -10 15 -35 16 -86 0 -83 13 -169 26
-178 5 -3 12 -28 17 -56 4 -28 17 -67 29 -87 12 -21 22 -42 22 -48 0 -5 13
-27 30 -48 26 -32 28 -39 14 -44 -22 -8 -108 3 -164 21 -25 8 -86 19 -135 23
-50 5 -117 16 -150 25 -33 9 -136 23 -230 30 -264 22 -297 26 -343 41 -25 8
-84 14 -142 14 -85 0 -105 3 -148 25 -31 16 -67 25 -95 25 -30 0 -63 9 -93 25
-26 14 -56 25 -68 25 -12 0 -27 9 -34 20 -7 11 -18 20 -25 20 -15 1 -67 46
-67 59 0 6 -11 18 -25 27 -14 9 -25 25 -25 36 0 11 -13 33 -30 50 -21 21 -30
39 -30 63 0 19 -4 37 -10 40 -5 3 -10 13 -10 21 0 9 -7 22 -15 30 -10 11 -14
35 -14 82 1 37 3 70 6 75 6 10 30 9 78 -4z m3956 -172 c2 -120 -7 -181 -45
-282 -8 -22 -15 -55 -16 -73 0 -40 -46 -102 -74 -102 -32 0 -66 39 -66 76 0
18 -4 34 -9 36 -6 2 -12 14 -15 28 -3 14 -8 35 -12 47 -4 16 0 25 20 38 23 15
26 24 26 70 0 43 5 59 29 89 16 20 33 50 36 67 4 16 10 29 14 29 4 0 18 9 30
19 18 16 28 18 52 9 26 -9 29 -15 30 -51z m56 -111 c-6 -143 -20 -226 -45
-271 -7 -11 -15 -36 -20 -55 -5 -20 -14 -35 -23 -35 -8 0 -12 7 -10 15 2 8 7
38 11 65 6 48 24 94 41 105 9 6 30 251 22 263 -9 15 7 78 19 71 7 -5 9 -54 5
-158z m-542 -193 c11 -25 23 -94 36 -192 8 -67 15 -87 34 -105 15 -14 27 -40
31 -65 4 -23 11 -44 15 -47 5 -3 9 -9 9 -15 0 -9 -7 -7 -57 19 -13 7 -41 12
-63 12 -29 0 -43 5 -52 20 -7 11 -21 20 -30 20 -10 0 -18 6 -18 14 0 8 -12 29
-26 46 -25 30 -27 37 -26 143 0 109 1 112 27 135 19 16 35 22 51 18 12 -3 26
-2 29 4 10 16 32 12 40 -7z m-4986 -193 c28 -25 51 -50 51 -57 0 -26 43 -28
560 -33 105 0 201 4 240 12 36 6 121 13 190 13 78 1 150 8 193 18 39 10 108
17 161 17 50 0 116 6 146 14 30 8 100 15 155 15 147 2 482 -13 491 -22 4 -4
-2 -7 -15 -7 -12 0 -55 -9 -96 -20 -58 -16 -92 -19 -150 -14 -60 5 -83 3 -117
-12 -32 -13 -73 -18 -163 -19 -73 -1 -149 -9 -195 -19 -56 -13 -97 -16 -162
-11 -62 4 -95 2 -110 -7 -13 -7 -26 -11 -30 -10 -4 1 -26 -5 -48 -14 -32 -13
-58 -15 -116 -10 -49 5 -74 3 -74 -4 0 -5 -9 -10 -21 -10 -11 0 -28 -4 -38 -9
-10 -6 -60 -11 -112 -12 -52 -1 -100 -6 -107 -12 -7 -5 -134 -13 -305 -17
-161 -5 -304 -13 -319 -19 -17 -6 -87 -8 -195 -4 -125 4 -175 3 -192 -6 -13
-8 -93 -16 -190 -21 -91 -5 -191 -13 -221 -19 -30 -5 -106 -10 -168 -10 -86
-1 -119 -5 -137 -17 -33 -21 -270 -33 -303 -15 -21 11 -22 18 -22 151 0 113 3
142 16 154 18 18 47 20 75 6 14 -8 40 -6 97 7 55 12 123 18 237 19 113 0 169
5 190 15 20 9 75 14 170 15 131 1 278 14 289 24 2 3 70 3 149 0 l146 -5 50
-45z m-1480 -29 c15 -2 22 -99 14 -201 l-8 -95 -38 -3 c-23 -2 -48 3 -62 12
-14 9 -34 16 -45 16 -40 0 -70 29 -70 69 0 20 7 45 15 55 8 11 15 28 15 37 0
32 38 107 56 111 16 3 100 2 123 -1z"/>
</g>
</svg>
