<?xml version="1.0" standalone="no"?>
<!DOCTYPE svg PUBLIC "-//W3C//DTD SVG 20010904//EN"
 "http://www.w3.org/TR/2001/REC-SVG-20010904/DTD/svg10.dtd">
<svg version="1.0" xmlns="http://www.w3.org/2000/svg"
 width="1204.000000pt" height="887.000000pt" viewBox="0 0 1204.000000 887.000000"
 preserveAspectRatio="xMidYMid meet">
<metadata>
Created by potrace 1.16, written by Peter Selinger 2001-2019
</metadata>
<g transform="translate(0.000000,887.000000) scale(0.100000,-0.100000)"
fill="#000000" stroke="none">
<path d="M3855 7744 c-12 -9 -33 -14 -52 -12 -17 2 -29 0 -26 -5 3 -5 -12 -8
-35 -5 -22 2 -38 0 -36 -4 4 -6 -88 -12 -198 -12 -9 0 -14 -4 -11 -9 3 -5 -13
-8 -40 -6 -25 2 -43 1 -41 -2 2 -4 -20 -9 -48 -12 -28 -4 -55 -12 -59 -18 -4
-7 -23 -10 -47 -7 -22 2 -38 -1 -35 -5 3 -5 -17 -8 -45 -6 -28 2 -49 2 -46 0
2 -2 -6 -10 -19 -17 -34 -20 -39 -22 -79 -29 -24 -4 -38 -11 -38 -21 0 -18
-38 -33 -94 -36 -24 -2 -42 -6 -40 -9 6 -10 -73 -32 -86 -24 -9 5 -11 4 -6 -3
5 -8 0 -12 -12 -12 -11 0 -23 -7 -26 -16 -4 -11 -14 -15 -31 -11 -14 2 -28 0
-32 -6 -4 -6 -1 -7 7 -2 9 6 11 4 6 -4 -5 -7 -14 -10 -21 -7 -7 2 -12 -3 -11
-12 1 -13 -7 -17 -31 -17 -17 0 -30 -2 -28 -4 8 -8 -44 -41 -64 -41 -14 0 -21
-6 -21 -20 0 -15 -7 -20 -25 -20 -14 0 -25 -4 -25 -10 0 -5 -6 -7 -14 -4 -8 3
-16 -3 -19 -15 -3 -12 -13 -21 -25 -21 -11 0 -22 -8 -25 -19 -3 -12 -20 -24
-45 -32 -23 -6 -40 -16 -39 -22 1 -5 -11 -13 -27 -18 -15 -4 -36 -15 -46 -24
-11 -10 -24 -14 -32 -9 -7 4 -10 4 -6 -1 4 -4 -8 -21 -26 -39 -18 -17 -35 -39
-39 -49 -4 -10 -11 -16 -16 -13 -5 4 -17 -12 -27 -34 -10 -22 -21 -40 -26 -40
-4 0 -17 -10 -28 -22 -12 -13 -29 -23 -38 -23 -13 0 -16 -7 -14 -29 3 -25 1
-28 -16 -24 -16 4 -19 2 -15 -10 4 -10 2 -13 -5 -8 -8 4 -10 2 -6 -7 3 -9 -3
-16 -15 -20 -14 -3 -21 -13 -21 -30 0 -20 -4 -24 -20 -20 -14 4 -20 0 -20 -11
0 -9 -13 -30 -29 -45 -16 -16 -27 -31 -25 -34 3 -2 -7 -7 -21 -11 -14 -4 -25
-12 -25 -20 0 -7 -9 -21 -20 -31 -11 -10 -20 -26 -20 -35 0 -10 -9 -29 -20
-43 -11 -14 -20 -39 -20 -57 0 -17 -3 -29 -8 -26 -4 2 -6 -14 -3 -37 2 -29 -1
-44 -13 -52 -18 -14 -55 -113 -49 -132 8 -22 -28 -166 -44 -178 -37 -27 -70
-204 -72 -378 -1 -43 -4 -76 -8 -74 -5 3 -8 -5 -8 -18 0 -13 3 -21 6 -19 4 2
10 -16 13 -40 4 -25 14 -50 21 -56 9 -8 15 -30 15 -56 0 -24 4 -44 9 -44 5 0
7 -9 4 -19 -3 -13 2 -21 17 -26 15 -5 20 -13 17 -26 -3 -10 -2 -17 3 -14 4 2
10 -13 13 -35 3 -22 12 -47 21 -55 9 -9 16 -27 16 -41 0 -13 9 -33 19 -43 11
-11 27 -35 36 -55 10 -20 21 -36 26 -36 5 0 9 -8 9 -19 0 -10 9 -21 20 -24 12
-3 20 -14 20 -27 0 -12 8 -24 18 -26 17 -5 66 -69 67 -89 0 -5 8 -9 17 -7 10
1 23 -6 30 -18 7 -11 18 -20 25 -20 11 0 38 -38 35 -50 0 -3 6 -4 14 -2 8 2
14 -4 14 -12 0 -8 10 -18 23 -22 12 -4 28 -15 35 -25 7 -11 17 -19 22 -19 5 0
20 -10 33 -22 70 -66 145 -108 214 -123 17 -3 34 -13 37 -21 3 -8 12 -14 20
-14 9 0 20 -9 26 -20 6 -11 20 -20 31 -20 11 0 31 -11 44 -25 14 -13 41 -27
61 -31 44 -8 117 -48 107 -58 -4 -4 1 -4 12 0 14 6 17 4 12 -9 -3 -9 -3 -16 1
-16 28 4 92 -3 88 -9 -3 -5 7 -7 23 -4 17 2 32 -2 40 -12 8 -9 29 -16 48 -16
19 0 32 -4 29 -9 -3 -4 6 -6 21 -3 17 3 24 1 19 -6 -4 -6 1 -8 13 -5 10 3 22
0 25 -6 4 -6 16 -11 27 -11 11 0 18 -4 15 -9 -4 -5 3 -7 13 -4 11 3 28 -4 40
-16 13 -13 34 -21 56 -21 23 0 38 -6 42 -16 3 -8 12 -13 19 -10 8 3 14 1 14
-5 0 -6 5 -7 10 -4 6 3 10 1 10 -4 0 -7 24 -11 60 -11 33 0 60 -3 60 -7 0 -11
50 -33 73 -33 10 0 16 -4 13 -9 -3 -4 6 -6 21 -3 15 3 23 1 20 -4 -3 -6 4 -11
15 -11 12 -1 24 -6 27 -12 4 -5 27 -11 51 -13 26 -2 43 -7 40 -13 -6 -13 39
-22 113 -24 41 -1 56 -4 51 -13 -4 -7 -3 -8 5 -4 6 4 18 1 26 -7 9 -9 45 -18
90 -22 41 -4 72 -11 69 -16 -3 -5 -2 -9 3 -7 24 6 125 -28 144 -49 13 -12 33
-23 45 -23 13 0 40 -11 60 -25 20 -14 45 -25 56 -25 12 0 16 -4 12 -12 -5 -7
-3 -8 5 -4 7 5 20 1 29 -7 9 -8 27 -18 40 -22 12 -3 20 -10 17 -15 -7 -11 20
-20 61 -20 20 0 33 -4 30 -9 -3 -4 6 -6 21 -3 17 3 24 1 19 -6 -4 -6 2 -8 16
-4 16 4 20 1 16 -9 -4 -10 3 -14 20 -16 14 0 29 -8 34 -17 5 -9 22 -16 38 -16
17 0 30 -5 30 -11 0 -7 14 -10 35 -7 26 3 36 0 40 -12 6 -20 85 -40 154 -40
26 0 62 -7 80 -16 24 -12 62 -16 141 -16 60 -1 107 -5 104 -9 -3 -5 2 -6 11
-3 9 4 24 -1 35 -11 13 -11 45 -19 101 -24 50 -4 84 -12 87 -19 6 -18 162 -15
186 3 16 12 57 15 204 15 101 0 181 -3 179 -7 -6 -9 28 -8 261 7 116 8 165 15
199 30 25 11 65 20 90 20 24 0 70 9 102 20 33 11 84 23 115 26 37 4 56 11 56
20 0 8 6 11 15 8 8 -4 15 -2 15 4 0 7 12 7 36 0 21 -5 47 -8 60 -5 15 3 21 0
17 -10 -3 -7 2 -13 11 -13 9 0 16 -7 16 -16 0 -11 -5 -14 -17 -10 -10 4 -14 4
-11 0 11 -10 -83 -56 -104 -51 -11 3 -15 1 -12 -5 5 -7 -3 -9 -20 -6 -14 3
-29 1 -33 -5 -4 -6 -1 -7 8 -3 8 4 5 0 -6 -9 -11 -9 -28 -14 -38 -11 -9 2 -15
1 -12 -4 3 -4 -2 -10 -10 -14 -8 -3 -15 -12 -15 -21 0 -8 -7 -15 -15 -15 -8 0
-15 -9 -15 -19 0 -22 -58 -71 -83 -71 -9 0 -21 -9 -27 -21 -7 -11 -17 -18 -24
-16 -9 4 -10 -7 -4 -47 5 -28 9 -56 10 -63 1 -7 5 -10 9 -8 3 3 9 -4 12 -15 3
-12 14 -20 25 -20 11 0 22 -9 25 -21 3 -11 15 -23 26 -26 11 -3 23 -14 26 -24
4 -10 13 -19 21 -19 8 0 14 -7 14 -15 0 -8 10 -20 23 -26 12 -7 28 -20 35 -31
7 -10 19 -18 26 -18 7 0 25 -9 39 -20 20 -16 40 -20 106 -20 62 0 83 -3 87
-15 7 -18 68 -38 93 -30 36 11 69 -11 77 -52 4 -20 14 -44 23 -53 13 -11 13
-13 1 -5 -12 7 -13 7 -3 -5 7 -7 21 -15 30 -16 82 -9 169 -26 177 -34 6 -6 27
-10 49 -10 21 0 36 -3 33 -8 -2 -4 14 -6 36 -4 23 3 38 0 35 -5 -3 -5 3 -9 13
-9 10 0 16 4 13 9 -3 5 35 7 85 5 50 -2 88 0 85 5 -2 4 12 7 31 7 19 0 38 5
42 11 3 6 15 9 25 6 11 -3 17 -1 13 4 -3 5 18 9 46 9 31 0 49 -4 45 -10 -4 -6
1 -7 11 -3 14 5 16 3 11 -11 -4 -10 -3 -15 3 -11 6 3 10 -5 10 -19 0 -19 5
-26 20 -26 11 0 20 -7 20 -15 0 -20 40 -35 90 -35 21 0 42 -5 45 -11 4 -6 13
-8 20 -6 6 3 19 -3 28 -14 12 -14 30 -19 64 -19 27 -1 59 -7 73 -15 14 -8 37
-14 52 -15 15 0 30 -4 33 -10 3 -5 15 -10 26 -10 11 0 18 -3 16 -7 -8 -12 52
-16 249 -17 147 -1 184 2 199 14 14 11 45 15 126 15 59 0 105 3 102 8 -2 4 16
7 42 7 25 0 62 7 82 15 19 8 48 15 64 15 16 0 29 4 29 9 0 4 11 6 24 4 19 -4
25 0 30 21 6 23 11 26 50 26 31 0 46 5 50 16 4 9 13 14 22 10 10 -4 13 -2 8 6
-5 8 -1 9 12 4 10 -4 16 -4 12 -1 -10 10 33 55 53 55 9 0 19 7 23 15 3 8 12
15 20 15 8 0 16 10 18 23 2 14 11 23 26 25 16 3 22 10 22 28 0 17 5 24 20 24
13 0 20 7 20 18 0 11 11 24 25 30 14 6 25 18 25 25 0 7 7 22 16 33 8 10 12 12
8 4 -4 -9 -3 -12 2 -7 9 9 10 13 13 43 0 8 5 13 10 10 5 -4 7 4 3 16 -3 14 -1
19 6 14 8 -5 10 -2 6 8 -4 9 0 18 9 22 8 3 18 16 21 29 4 14 13 22 23 21 11 0
18 6 18 18 0 10 10 22 21 27 15 5 23 19 28 47 3 22 12 42 19 45 14 5 37 91 37
138 0 17 4 28 8 25 5 -3 10 24 11 60 1 38 10 84 22 110 21 51 27 188 8 200 -6
3 -9 15 -6 25 3 12 1 17 -6 12 -7 -4 -8 0 -4 11 4 9 3 15 -1 13 -7 -4 -43 29
-37 35 2 2 -24 5 -58 6 -34 2 -65 6 -69 8 -14 9 -8 34 13 55 13 13 19 29 16
41 -3 11 0 21 9 25 15 6 20 43 5 43 -5 0 -7 9 -4 20 3 11 1 20 -4 20 -6 0 -8
11 -5 25 2 14 0 25 -6 25 -5 0 -13 11 -16 25 -4 14 -11 23 -16 20 -6 -3 -10 4
-10 17 0 13 -11 39 -25 58 -14 19 -25 39 -25 46 0 6 -9 14 -20 17 -12 3 -20
14 -20 26 0 14 -6 21 -20 21 -12 0 -32 8 -47 17 -24 16 -25 20 -19 84 3 36 13
85 21 109 19 54 19 74 0 90 -11 9 -15 34 -15 96 0 46 -4 84 -9 84 -5 0 -7 9
-4 20 4 15 0 20 -16 20 -14 0 -25 9 -31 25 -8 20 -16 25 -45 25 -29 0 -35 4
-35 21 0 21 -98 129 -117 129 -6 0 -16 7 -23 15 -11 13 -35 16 -126 14 -63 -1
-112 -5 -109 -9 6 -9 -56 -27 -119 -34 -29 -4 -54 -13 -61 -22 -8 -11 -21 -15
-38 -12 -15 3 -24 1 -21 -3 3 -5 -3 -9 -13 -9 -10 0 -29 -7 -41 -16 -41 -28
-52 -13 -52 74 0 64 -4 84 -20 104 -10 14 -22 44 -26 68 -4 23 -13 44 -20 47
-8 3 -14 20 -14 38 0 18 -7 38 -15 45 -9 7 -14 19 -11 26 3 8 0 13 -6 11 -6
-1 -15 13 -20 31 -5 17 -15 32 -23 32 -8 0 -15 6 -15 13 0 8 -11 19 -24 25
-17 8 -27 22 -32 47 -3 19 -15 40 -25 46 -11 5 -19 19 -19 29 0 11 -8 28 -19
39 -10 10 -21 30 -25 45 -3 14 -12 26 -20 26 -8 0 -16 16 -20 39 -4 29 -18 52
-52 85 -25 25 -54 46 -64 46 -14 0 -20 11 -25 43 -4 23 -12 47 -17 54 -5 7 -6
18 -2 24 5 8 3 9 -6 4 -10 -6 -12 -4 -7 9 4 10 3 15 -3 11 -6 -3 -10 1 -10 9
0 9 -5 16 -10 16 -6 0 -39 29 -74 65 -35 36 -70 65 -78 65 -17 0 -38 22 -57
62 -8 15 -27 32 -43 39 -16 6 -33 20 -39 30 -5 11 -18 19 -29 19 -10 0 -22 5
-26 12 -5 7 -2 8 7 3 8 -5 11 -4 6 1 -9 10 -14 11 -51 13 -14 0 -37 12 -52 26
-15 14 -30 25 -33 25 -3 0 -12 14 -19 30 -8 17 -18 28 -23 24 -5 -3 -9 4 -9
14 0 13 -9 22 -25 26 -14 4 -25 12 -25 19 0 6 -29 29 -64 50 -36 21 -67 45
-70 53 -3 8 -12 14 -21 14 -10 0 -15 7 -13 18 2 12 -3 16 -16 14 -10 -2 -15 1
-11 7 4 7 0 8 -11 4 -12 -4 -15 -3 -10 5 4 8 2 10 -7 6 -9 -3 -22 4 -30 17
-11 15 -22 20 -36 16 -12 -3 -21 -1 -21 4 0 5 -9 9 -20 9 -11 0 -20 6 -20 14
0 9 -17 16 -45 21 -35 5 -45 10 -43 23 2 13 -3 16 -21 14 -13 -2 -21 1 -17 6
3 5 -6 7 -20 4 -20 -3 -26 0 -31 17 -3 12 -13 21 -24 21 -11 0 -22 7 -25 15
-4 8 -26 20 -50 26 -25 6 -47 16 -51 22 -4 6 -1 7 8 2 8 -5 11 -4 6 1 -8 9
-12 10 -55 12 -13 1 -21 6 -18 10 3 5 -7 7 -22 4 -22 -3 -31 2 -41 21 -8 15
-26 27 -44 31 -17 3 -38 13 -46 20 -11 10 -51 15 -133 18 -109 3 -119 5 -133
26 -9 12 -24 22 -34 22 -10 0 -24 7 -31 15 -7 8 -23 15 -37 15 -13 0 -22 4
-19 9 3 4 -6 6 -21 3 -15 -3 -23 -1 -20 4 3 6 -6 11 -21 12 -14 1 -31 7 -36
12 -6 6 -20 10 -33 10 -14 0 -23 6 -23 15 0 24 -44 35 -138 35 l-87 0 -20 45
c-12 28 -26 45 -37 45 -9 0 -20 5 -24 12 -5 7 -2 8 7 3 8 -5 11 -4 6 1 -5 5
-13 10 -18 10 -5 1 -14 2 -20 3 -5 0 -8 4 -6 9 3 4 -27 8 -66 9 -52 1 -74 6
-83 17 -6 9 -21 16 -33 16 -12 0 -20 3 -18 8 3 4 -24 5 -59 4 -53 -3 -64 -1
-64 12 0 9 -8 16 -18 16 -25 0 -82 29 -82 41 0 6 -31 9 -74 8 -62 -2 -73 -4
-68 -17 4 -11 1 -14 -14 -9 -27 9 -94 26 -128 32 -16 3 -30 14 -33 24 -4 15
-18 19 -69 24 -35 2 -72 11 -81 18 -17 15 -185 30 -176 16 2 -4 -11 -7 -29 -6
-18 0 -55 -5 -83 -12 -42 -10 -56 -9 -88 4 -21 9 -36 21 -33 25 3 5 -6 7 -20
4 -20 -4 -26 0 -31 18 -6 21 -10 22 -74 18 -38 -3 -67 -2 -64 2 2 4 -7 5 -22
2 -17 -3 -24 -1 -19 6 4 6 -1 8 -13 5 -10 -3 -22 1 -26 8 -6 8 -4 10 6 4 8 -5
11 -4 6 1 -11 11 -10 11 -118 13 -49 0 -88 5 -85 10 3 4 -6 6 -21 3 -16 -3
-24 -1 -20 5 4 6 -43 9 -131 9 -75 -1 -155 2 -177 6 -30 6 -45 4 -60 -8z m450
-131 c38 -8 39 -9 14 -16 -15 -4 -34 -18 -43 -32 -9 -14 -25 -25 -36 -25 -10
0 -36 -11 -56 -25 -20 -14 -42 -25 -49 -25 -7 0 -15 -6 -18 -14 -3 -7 -18 -17
-33 -20 -15 -4 -39 -16 -52 -27 -14 -10 -32 -19 -41 -19 -9 0 -22 -9 -29 -20
-7 -11 -23 -20 -37 -20 -18 0 -25 -5 -25 -20 0 -12 -10 -24 -24 -29 -13 -5
-26 -17 -29 -25 -4 -9 -13 -16 -22 -16 -8 0 -15 -7 -15 -15 0 -9 -11 -21 -25
-27 -13 -6 -27 -19 -30 -30 -4 -10 -12 -18 -20 -18 -8 0 -16 -9 -20 -19 -3
-11 -15 -21 -27 -23 -12 -2 -29 -20 -43 -46 -13 -24 -31 -49 -41 -56 -24 -18
-12 -121 17 -136 10 -6 19 -17 19 -25 0 -21 86 -21 93 -1 3 8 22 18 41 21 22
5 36 14 39 26 3 10 13 19 24 19 15 0 54 31 153 123 8 8 23 17 33 20 9 4 17 13
17 21 0 8 14 16 34 20 19 4 39 13 46 21 7 8 20 15 29 15 10 0 27 11 39 25 12
14 32 25 45 25 13 0 26 9 32 22 6 12 24 26 40 31 17 5 37 15 45 22 8 7 30 16
48 20 18 4 37 15 42 26 6 10 21 19 33 19 12 0 31 6 42 14 11 7 37 16 58 20 21
4 46 15 56 25 12 12 41 20 87 25 38 4 87 13 109 20 41 14 105 11 105 -5 0 -12
37 -11 45 1 9 14 71 12 95 -2 16 -10 24 -10 40 0 26 16 77 15 83 -2 3 -7 24
-16 46 -20 27 -4 41 -11 41 -21 0 -12 18 -15 96 -15 94 0 174 -15 174 -32 0
-4 30 -8 66 -8 81 0 104 -11 104 -51 0 -40 -37 -119 -55 -119 -8 0 -15 -9 -15
-20 0 -11 -7 -23 -15 -26 -8 -4 -13 -10 -10 -14 3 -4 -15 -13 -40 -19 -58 -14
-65 -14 -65 5 0 11 8 14 26 12 25 -3 27 0 28 34 1 20 -2 34 -6 31 -5 -2 -8 12
-8 32 0 29 -5 37 -26 45 -44 17 -140 12 -178 -9 -18 -11 -54 -22 -78 -26 -57
-9 -75 -23 -195 -151 -17 -19 -38 -34 -47 -34 -9 0 -16 -4 -16 -9 0 -6 -11
-22 -25 -37 -14 -15 -25 -31 -25 -35 0 -5 -9 -9 -20 -9 -11 0 -20 -7 -20 -15
0 -8 -11 -17 -25 -21 -16 -4 -25 -13 -25 -25 0 -10 -6 -19 -14 -19 -8 0 -21
-8 -28 -18 -7 -10 -21 -21 -31 -25 -11 -4 -21 -16 -24 -27 -3 -11 -11 -20 -18
-20 -16 0 -65 -57 -65 -75 0 -8 -9 -19 -20 -25 -11 -6 -20 -16 -20 -23 0 -8
-13 -26 -30 -42 -16 -16 -30 -33 -30 -38 0 -6 -7 -15 -16 -22 -12 -8 -16 -28
-16 -72 0 -69 5 -83 32 -83 10 0 20 -7 24 -15 6 -17 96 -22 96 -5 0 5 18 13
41 16 29 5 47 15 65 39 13 17 24 35 24 39 0 15 59 66 75 66 9 0 19 9 22 20 3
11 20 24 38 30 18 6 36 17 39 25 3 8 12 15 21 15 8 0 32 17 53 38 20 21 52 45
70 53 18 8 35 22 38 31 3 10 14 18 25 18 12 0 19 7 19 20 0 11 6 20 14 20 7 0
19 7 26 14 6 8 28 20 48 27 20 7 42 18 47 26 6 8 30 17 53 20 24 3 42 11 42
18 0 15 22 25 56 25 33 0 64 17 64 34 0 9 17 16 46 21 25 3 54 15 65 26 13 13
33 19 64 19 30 0 47 5 53 16 7 13 32 18 109 23 77 6 105 12 119 25 14 15 31
17 106 14 65 -2 91 -7 98 -18 7 -12 37 -16 137 -18 l128 -3 28 -31 c15 -17 27
-34 27 -38 0 -10 57 -30 86 -30 15 0 29 11 41 30 9 17 25 30 33 30 26 0 72
-54 64 -75 -6 -15 -14 -16 -63 -10 -104 14 -184 3 -218 -29 -23 -22 -23 -45 3
-95 8 -14 14 -32 14 -38 0 -7 9 -13 20 -13 31 0 114 30 126 46 8 10 37 15 97
17 47 1 83 5 80 10 -2 4 3 7 11 7 9 0 16 6 16 14 0 32 74 27 91 -6 8 -15 18
-19 39 -15 43 9 99 -3 93 -19 -3 -9 2 -14 16 -14 11 0 28 -11 36 -24 9 -13 29
-29 45 -36 16 -6 37 -21 46 -32 14 -15 29 -19 67 -17 35 2 53 -1 61 -12 6 -9
29 -22 51 -29 22 -7 46 -19 53 -27 7 -7 22 -13 33 -13 10 0 24 -9 31 -20 7
-11 19 -20 26 -20 7 0 17 -11 22 -25 6 -15 17 -25 29 -25 24 0 66 -37 75 -66
3 -12 17 -26 31 -32 26 -12 53 -52 35 -52 -5 0 -10 6 -10 14 0 9 -17 16 -48
20 -68 9 -276 -10 -304 -27 -27 -17 -146 -29 -285 -28 -74 1 -99 -3 -107 -14
-6 -9 -35 -18 -66 -22 -32 -4 -63 -14 -74 -25 -12 -10 -32 -22 -46 -25 -14 -3
-35 -14 -47 -23 -13 -10 -43 -21 -68 -24 -25 -4 -57 -14 -73 -22 -15 -7 -42
-14 -59 -14 -40 0 -108 -45 -122 -80 -5 -14 -13 -40 -16 -58 -5 -25 -15 -37
-38 -47 -18 -7 -48 -20 -69 -29 -20 -9 -53 -16 -73 -16 -22 0 -43 -6 -49 -15
-6 -8 -36 -19 -66 -25 -30 -6 -59 -15 -64 -20 -6 -6 -18 -10 -28 -10 -10 0
-18 -4 -18 -10 0 -5 -9 -10 -20 -10 -11 0 -20 -7 -20 -15 0 -9 -11 -20 -25
-25 -14 -5 -25 -16 -25 -24 0 -18 -38 -60 -62 -69 -10 -3 -18 -15 -18 -26 0
-14 -9 -23 -25 -27 -13 -3 -27 -13 -30 -22 -3 -10 -23 -36 -45 -60 -22 -24
-40 -49 -40 -56 0 -17 -25 -38 -33 -29 -4 3 -7 -3 -7 -15 0 -18 -9 -25 -45
-34 -25 -7 -45 -18 -45 -25 0 -7 -9 -13 -20 -13 -28 0 -112 -45 -137 -73 -10
-13 -24 -43 -29 -67 -7 -33 -14 -45 -27 -44 -14 2 -17 -7 -17 -42 0 -23 -4
-45 -9 -48 -4 -3 -11 -32 -15 -65 -7 -65 -28 -116 -51 -125 -8 -3 -15 -12 -15
-19 0 -8 -9 -22 -19 -31 -11 -10 -22 -28 -25 -42 -4 -13 -13 -24 -21 -24 -8 0
-17 -11 -21 -25 -3 -14 -12 -25 -19 -25 -7 0 -15 -9 -18 -20 -3 -11 -12 -20
-20 -20 -8 0 -22 -11 -30 -24 -9 -13 -30 -26 -47 -29 -23 -5 -35 -15 -46 -43
-10 -25 -20 -34 -30 -30 -10 4 -12 2 -8 -6 5 -7 0 -9 -14 -6 -14 4 -20 2 -15
-5 4 -6 0 -8 -10 -4 -11 4 -14 2 -11 -7 3 -8 0 -17 -7 -22 -8 -5 -10 -3 -4 6
5 8 4 11 -3 6 -6 -4 -9 -13 -6 -20 3 -7 -2 -19 -11 -26 -8 -7 -15 -22 -15 -34
0 -12 -5 -27 -12 -34 -7 -7 -8 -12 -3 -12 4 0 1 -8 -7 -17 -8 -10 -23 -55 -33
-101 -10 -46 -22 -85 -27 -88 -4 -3 -8 -23 -8 -45 0 -32 -4 -39 -19 -39 -10 0
-21 -7 -25 -15 -3 -8 -10 -15 -16 -15 -5 0 -10 7 -10 15 0 8 -9 15 -20 15 -13
0 -20 7 -20 19 0 10 -7 21 -15 25 -8 3 -15 11 -15 18 0 7 -15 20 -33 28 -18 8
-31 22 -31 31 1 12 -4 15 -19 11 -13 -3 -18 -1 -13 6 4 8 2 10 -7 6 -12 -4
-16 10 -21 68 -9 106 -9 106 -24 100 -10 -3 -13 2 -10 19 2 20 -1 23 -19 21
-12 -2 -25 2 -29 9 -5 8 -3 9 6 4 8 -5 11 -4 6 3 -4 6 -13 9 -20 6 -8 -3 -17
-1 -21 5 -9 16 -75 13 -109 -4 -16 -8 -36 -14 -44 -13 -11 2 -16 -5 -17 -22 0
-16 -5 -25 -16 -24 -12 1 -16 -10 -18 -45 -3 -53 -1 -50 -33 -53 -18 -2 -24
-7 -20 -17 4 -11 1 -13 -13 -7 -11 4 -16 4 -13 0 4 -3 -2 -15 -12 -26 -17 -18
-21 -19 -34 -5 -8 8 -13 17 -10 20 3 3 -3 3 -15 0 -16 -4 -21 -1 -21 16 0 12
-6 21 -15 21 -9 0 -15 -10 -15 -26 0 -14 -3 -23 -7 -21 -11 7 -8 -61 2 -71 5
-4 5 -1 0 7 -5 9 -4 12 3 7 7 -4 12 -20 12 -37 0 -26 -3 -29 -30 -29 -24 0
-30 4 -28 17 3 14 -6 17 -52 17 -30 0 -59 -1 -65 -3 -19 -6 -86 -1 -82 7 3 4
-14 7 -36 7 -35 0 -42 3 -42 20 0 13 -6 19 -17 17 -20 -3 -73 17 -65 25 14 13
-62 50 -118 57 -63 7 -80 15 -133 65 -18 17 -41 31 -51 31 -10 0 -21 9 -24 19
-3 13 -17 22 -42 27 -20 3 -39 13 -42 20 -3 8 -14 14 -25 14 -10 0 -17 3 -15
8 3 4 -8 7 -23 7 -16 0 -27 -2 -25 -4 8 -8 -16 -41 -30 -41 -8 0 -21 -10 -29
-21 -10 -15 -29 -23 -62 -27 l-47 -5 7 34 c5 28 1 39 -18 61 -14 14 -23 28
-21 30 2 2 -12 5 -33 6 -23 2 -46 12 -62 27 -15 14 -31 25 -37 25 -6 0 -22 20
-36 44 -23 41 -23 44 -6 41 11 -2 17 0 14 4 -3 5 -21 7 -41 4 -27 -4 -34 -2
-29 8 5 8 4 10 -3 5 -6 -4 -25 0 -41 9 -17 8 -43 15 -60 15 -18 0 -35 8 -43
19 -7 10 -23 21 -35 25 -13 4 -23 14 -23 22 0 8 -7 14 -16 14 -10 0 -14 5 -10
16 3 8 2 12 -4 9 -6 -4 -10 7 -10 24 0 17 -9 46 -20 66 -11 20 -20 42 -20 49
0 8 -11 21 -25 30 -14 9 -24 20 -23 24 6 23 -17 50 -52 62 -32 10 -50 11 -97
1 -32 -7 -72 -11 -88 -9 -29 3 -29 3 -26 64 1 34 -2 65 -8 68 -18 11 -41 68
-41 102 0 23 -6 37 -20 44 -11 6 -22 25 -25 48 -10 62 -42 118 -75 132 -17 7
-33 17 -37 23 -3 5 -1 7 5 3 6 -3 13 -2 17 3 3 6 -4 8 -16 6 -13 -3 -29 0 -36
7 -9 7 -35 9 -74 5 -38 -5 -58 -3 -54 3 4 6 -1 7 -11 3 -14 -5 -15 -1 -9 28 4
19 9 36 12 39 2 2 33 5 69 6 35 1 71 7 78 13 8 7 27 13 44 14 21 1 28 6 24 16
-3 8 -1 12 4 9 11 -7 10 49 -1 60 -5 4 -5 1 0 -7 6 -10 4 -12 -4 -6 -7 4 -11
16 -8 26 3 12 1 17 -5 13 -7 -5 -9 2 -6 17 4 22 1 24 -31 23 -31 -1 -36 -4
-33 -23 2 -14 -2 -21 -13 -21 -9 0 -13 5 -10 10 3 6 1 10 -5 10 -6 0 -8 5 -5
10 3 6 -4 10 -18 10 -21 0 -25 6 -30 40 -3 22 -2 53 2 68 6 23 13 27 50 30 24
2 41 0 38 -5 -3 -4 11 -8 31 -7 31 1 35 4 36 27 1 14 -3 23 -8 20 -5 -4 -7 1
-3 10 4 12 2 14 -10 10 -12 -5 -14 -3 -8 7 5 8 4 11 -2 7 -14 -9 -75 22 -68
34 4 5 3 9 -2 9 -4 0 -19 9 -32 19 -22 17 -23 21 -11 55 6 20 17 36 25 36 8 0
13 15 13 43 1 58 5 87 13 87 6 0 18 28 23 55 1 6 5 18 9 28 4 9 9 24 12 33 3
10 12 14 24 11 15 -3 18 -1 14 11 -4 9 -2 13 4 9 6 -4 10 1 9 11 0 10 6 17 15
16 12 -1 15 4 11 19 -3 11 -1 18 4 14 5 -3 10 7 9 21 0 19 5 27 17 26 11 -1
14 4 11 14 -4 10 -2 13 5 8 8 -5 10 -2 6 8 -5 12 0 16 18 16 29 0 68 26 68 46
0 8 4 13 9 10 13 -8 28 14 36 52 3 17 13 32 20 32 18 0 54 38 66 68 5 12 15
22 24 22 8 0 17 11 21 25 3 14 10 25 15 25 5 0 27 18 49 39 23 22 54 43 71 46
16 4 34 15 39 25 5 10 25 21 45 24 19 4 39 15 45 26 6 11 16 20 23 20 7 0 18
9 25 20 7 11 23 20 36 20 13 0 29 7 37 16 7 8 29 24 48 34 20 11 54 35 76 55
36 32 45 35 100 35 42 0 70 6 93 20 18 11 38 20 45 20 7 0 20 8 29 19 10 12
36 21 74 26 33 3 68 13 80 20 11 7 56 14 99 16 73 4 80 2 83 -16 6 -30 43 -65
69 -65 49 0 87 76 44 87 -25 6 -32 24 -22 60 l7 28 147 3 c132 2 148 4 157 22
5 10 22 20 37 22 61 7 460 0 498 -9z m3039 -1388 c13 -18 27 -20 178 -21 128
0 173 -4 211 -18 45 -16 50 -16 66 -2 10 9 23 16 29 16 7 0 12 6 12 14 0 23
15 27 62 17 28 -7 59 -6 92 1 38 8 51 8 54 -2 2 -6 24 -20 48 -31 30 -13 47
-27 54 -46 6 -15 15 -36 21 -46 16 -29 2 -33 -53 -13 -52 18 -67 13 -68 -21 0
-7 -5 -13 -10 -13 -19 0 9 -38 32 -45 52 -15 107 -48 113 -66 4 -10 13 -19 22
-19 8 0 17 -9 20 -20 3 -13 14 -20 29 -20 13 0 24 -4 24 -9 0 -4 10 -21 22
-37 13 -15 21 -38 20 -49 -2 -12 4 -28 12 -35 9 -7 16 -18 16 -25 0 -20 30
-73 44 -78 8 -3 17 -24 21 -46 4 -24 12 -41 20 -41 7 0 16 -17 20 -37 4 -25
20 -51 46 -76 21 -21 39 -41 39 -45 0 -4 19 -28 43 -52 23 -25 50 -56 59 -69
12 -17 29 -25 63 -28 53 -7 60 -16 69 -93 7 -60 2 -76 -29 -81 -11 -3 -21 -13
-23 -24 -3 -11 -10 -24 -18 -28 -8 -4 -14 -23 -14 -42 0 -28 5 -35 33 -45 17
-7 35 -12 40 -11 18 3 5 -17 -18 -27 -14 -6 -25 -18 -25 -27 0 -8 -7 -15 -15
-15 -9 0 -18 -6 -21 -14 -3 -8 -26 -23 -50 -33 -24 -10 -44 -21 -44 -26 0 -4
-11 -12 -25 -17 -14 -5 -25 -16 -25 -24 0 -7 -11 -17 -25 -20 -14 -4 -25 -14
-25 -23 0 -9 -3 -14 -6 -10 -3 3 -24 -15 -47 -41 -51 -59 -113 -106 -128 -96
-8 5 -9 3 -4 -6 6 -10 3 -12 -12 -8 -15 4 -20 1 -19 -11 1 -9 -6 -15 -16 -15
-10 1 -15 -2 -12 -7 3 -5 0 -9 -5 -9 -6 0 -11 -7 -11 -15 0 -8 -7 -15 -15 -15
-8 0 -30 -13 -48 -30 -19 -16 -42 -30 -52 -30 -9 0 -19 -9 -22 -20 -4 -14 -12
-20 -27 -18 -17 2 -20 -2 -18 -20 3 -20 0 -23 -20 -20 -18 2 -22 -1 -20 -16 2
-10 -1 -15 -7 -11 -6 3 -9 0 -5 -8 4 -10 -5 -16 -29 -21 -19 -4 -40 -13 -47
-21 -7 -8 -21 -15 -32 -15 -10 0 -30 -12 -44 -27 -15 -16 -34 -27 -43 -25 -9
1 -28 -9 -41 -23 -13 -14 -29 -25 -35 -25 -7 0 -17 -11 -23 -25 -7 -16 -20
-25 -33 -25 -12 0 -20 -3 -16 -6 9 -9 -19 -34 -37 -34 -9 0 -16 -7 -16 -16 0
-11 -6 -15 -20 -11 -13 3 -18 1 -13 -6 4 -6 0 -8 -9 -4 -10 3 -24 -3 -35 -16
l-18 -22 25 20 25 20 -19 -22 c-22 -26 -44 -30 -52 -9 -8 22 -87 39 -141 31
-65 -9 -81 -20 -91 -58 -5 -17 -14 -31 -21 -29 -6 1 -11 -3 -11 -9 0 -5 -4 -7
-10 -4 -6 4 -10 -5 -10 -19 0 -19 -5 -26 -20 -26 -11 0 -19 -6 -18 -12 2 -7
-8 -14 -21 -16 -14 -2 -21 0 -17 7 5 7 -3 7 -24 0 -17 -6 -39 -9 -50 -6 -13 3
-18 1 -13 -6 4 -7 0 -8 -11 -4 -9 4 -15 3 -12 -2 3 -5 -3 -11 -14 -14 -14 -4
-20 -14 -20 -32 0 -22 -4 -26 -20 -22 -11 3 -18 0 -17 -7 1 -8 -27 -11 -94
-11 -73 0 -95 -3 -92 -12 6 -15 -5 -15 -65 -4 -67 13 -142 -13 -142 -49 0 -13
-6 -17 -20 -13 -11 3 -20 1 -20 -4 0 -5 -16 -7 -35 -5 -21 3 -35 0 -35 -7 0
-6 -7 -11 -15 -11 -8 0 -15 -5 -15 -11 0 -8 -31 -9 -107 -4 -156 10 -296 6
-441 -10 -40 -5 -67 -4 -75 3 -16 13 -107 11 -99 -2 3 -5 -13 -6 -39 -2 -24 4
-45 11 -47 16 -2 6 -17 10 -33 10 -16 0 -29 5 -29 11 0 5 -4 7 -10 4 -5 -3
-12 6 -16 20 -3 14 -11 25 -18 25 -6 0 -17 9 -24 20 -7 11 -19 20 -26 20 -8 0
-17 9 -21 19 -3 10 -15 21 -27 25 -12 3 -19 8 -16 12 4 3 -2 15 -12 27 -11 11
-17 25 -13 30 4 6 1 7 -7 2 -9 -6 -12 -4 -8 6 5 11 -7 13 -63 11 -66 -4 -68
-3 -75 22 -3 14 -12 26 -20 26 -8 0 -14 7 -14 15 0 9 -11 20 -24 27 -18 7 -27
22 -31 49 -8 44 2 116 17 125 5 3 8 24 7 46 -2 21 1 42 7 46 6 4 14 31 18 61
4 29 14 60 22 68 7 8 14 23 14 34 0 10 13 31 30 45 16 15 27 31 24 35 -3 5 6
11 20 15 14 3 28 15 31 25 4 10 11 19 16 19 5 0 9 6 9 13 0 7 13 31 30 53 16
21 30 44 30 50 0 7 7 14 15 18 8 3 15 13 15 23 0 10 11 31 25 47 14 16 25 35
25 42 0 7 9 18 21 24 11 7 18 18 15 25 -3 8 8 28 25 46 16 17 29 40 29 50 0
10 4 19 9 19 5 0 14 15 22 33 7 17 22 42 33 54 36 37 48 54 68 94 10 22 23 39
28 39 5 0 10 10 12 23 2 14 11 23 26 25 12 2 22 10 22 18 0 7 9 19 20 26 12 8
23 28 26 50 5 25 10 35 20 31 8 -3 18 5 24 21 5 15 18 30 27 33 22 8 52 43 53
60 0 7 11 20 25 29 14 9 25 23 25 30 0 8 10 14 25 14 18 0 25 5 25 20 0 15 7
20 25 20 20 0 25 5 25 25 0 14 6 25 14 25 7 0 24 10 38 23 55 49 79 67 89 67
18 0 39 27 39 51 0 13 -9 33 -21 45 l-21 22 34 7 c18 4 46 18 61 31 16 13 41
24 56 24 15 0 37 9 48 19 11 11 38 23 59 27 22 4 47 15 57 25 10 10 29 22 42
25 14 3 25 12 25 20 0 8 9 14 19 14 20 0 51 25 51 41 0 5 -11 9 -24 9 -14 0
-27 4 -30 9 -6 10 41 21 89 21 24 0 34 6 43 25 8 18 22 26 52 31 22 4 40 10
40 14 0 11 74 30 118 30 22 0 44 5 48 11 4 8 27 9 66 5 43 -4 69 -2 92 9 60
27 140 28 160 0z m-1614 -854 c0 -20 -43 -62 -58 -56 -9 3 -13 3 -9 -1 3 -4
-2 -19 -12 -33 -10 -14 -18 -30 -17 -36 0 -5 -9 -11 -21 -13 -18 -3 -23 -10
-23 -31 0 -16 -7 -34 -15 -41 -8 -7 -15 -9 -15 -5 0 4 -6 2 -14 -4 -8 -7 -12
-21 -9 -32 5 -17 2 -20 -18 -17 -21 3 -24 -1 -21 -24 2 -16 -1 -28 -7 -28 -17
0 -14 109 3 116 8 3 17 16 20 30 4 13 13 24 21 24 8 0 15 5 15 11 0 5 3 8 8 6
4 -3 7 11 7 31 0 31 3 37 21 36 14 0 20 4 17 13 -3 8 2 13 15 13 12 0 24 5 27
10 3 6 14 10 25 10 10 0 20 7 24 15 6 16 36 21 36 6z m3490 -412 c0 -8 25 -10
85 -7 47 3 88 2 91 -3 3 -5 16 -9 30 -9 15 0 24 -6 24 -15 0 -18 1 -18 36 0
28 14 29 14 36 -8 10 -34 9 -59 -2 -52 -6 4 -7 -1 -3 -11 4 -10 0 -22 -11 -29
-9 -7 -19 -30 -22 -51 -8 -55 -46 -133 -65 -134 -11 0 -18 -12 -21 -38 -6 -38
-52 -102 -75 -102 -7 0 -17 -9 -23 -20 -6 -11 -17 -20 -25 -20 -8 0 -15 -8
-15 -19 0 -10 -9 -21 -20 -24 -11 -3 -20 -14 -20 -24 0 -11 -11 -29 -25 -41
-14 -12 -25 -31 -25 -43 0 -12 -8 -23 -20 -26 -11 -3 -20 -9 -20 -13 0 -4 -14
-13 -30 -20 -17 -7 -44 -30 -61 -51 -17 -21 -46 -46 -65 -55 -18 -9 -31 -20
-28 -25 3 -5 -2 -9 -10 -9 -8 0 -23 -9 -33 -19 -10 -11 -31 -23 -48 -27 -16
-3 -37 -12 -45 -19 -8 -6 -31 -18 -50 -25 -19 -8 -39 -20 -43 -27 -4 -7 -14
-13 -21 -13 -8 0 -16 -6 -19 -13 -2 -7 -22 -21 -43 -32 -22 -11 -43 -26 -47
-32 -4 -7 -14 -13 -22 -13 -7 0 -46 -34 -87 -75 -40 -41 -78 -75 -85 -75 -7 0
-17 -9 -23 -20 -6 -11 -20 -20 -30 -20 -11 0 -20 -7 -20 -15 0 -9 -11 -20 -25
-25 -14 -5 -25 -14 -25 -19 0 -6 -17 -13 -37 -17 -21 -3 -52 -17 -70 -30 -19
-15 -45 -24 -67 -24 -19 0 -39 -6 -43 -14 -4 -7 -33 -19 -63 -26 -30 -7 -59
-19 -65 -25 -5 -7 -32 -18 -60 -25 -27 -7 -58 -20 -67 -28 -10 -8 -46 -18 -80
-22 -55 -7 -91 -14 -108 -20 -3 -1 -9 -3 -15 -5 -5 -1 -12 -3 -15 -4 -3 -1
-23 -5 -45 -7 -22 -3 -47 -12 -57 -21 -11 -10 -52 -19 -110 -25 -55 -6 -100
-16 -109 -25 -13 -11 -44 -14 -147 -11 -76 2 -128 -1 -125 -6 4 -5 -4 -6 -18
-3 -13 4 -37 7 -52 7 -16 0 -26 3 -24 8 3 4 -10 7 -28 7 -18 0 -31 -3 -28 -7
5 -9 -21 -11 -30 -2 -8 9 15 44 29 44 7 0 14 6 17 14 4 9 14 12 26 9 12 -3 21
-1 21 6 0 6 18 19 40 28 22 10 43 25 45 34 3 10 21 20 42 24 37 7 93 50 93 71
0 13 23 24 50 24 11 0 24 9 30 20 6 11 17 20 25 20 8 0 19 9 25 20 6 11 21 20
35 20 13 0 32 11 43 25 11 14 29 25 41 25 12 0 21 6 21 15 0 9 12 18 30 22 31
6 60 44 60 78 0 9 9 19 20 22 11 3 20 14 20 24 0 13 7 19 24 19 15 0 26 7 29
19 3 12 17 21 40 25 19 4 38 13 41 21 3 8 12 15 20 15 8 0 21 8 28 19 7 10 23
21 35 25 13 4 44 29 70 57 27 27 53 49 59 49 7 0 14 9 17 20 4 17 14 20 61 20
33 0 56 4 56 11 0 5 5 7 10 4 6 -3 10 -2 10 4 0 6 11 13 25 17 16 4 25 13 25
25 0 11 7 19 16 19 9 0 18 9 21 20 3 11 14 20 24 20 14 0 19 7 19 25 0 15 7
28 18 32 9 4 19 10 22 14 8 11 103 74 123 82 9 3 17 13 17 22 0 9 9 15 25 15
14 0 25 4 25 8 0 12 46 32 72 32 15 0 19 5 15 20 -5 19 5 24 49 23 6 0 9 8 7
18 -4 13 0 19 10 19 9 0 17 10 19 23 2 12 13 26 26 32 12 5 22 13 22 17 0 5 5
8 10 8 6 0 18 8 29 18 34 31 65 52 78 52 7 0 22 9 34 21 13 13 28 19 41 16 11
-3 17 -3 14 0 -3 4 10 17 29 30 19 13 35 28 35 34 0 5 17 17 38 27 20 9 41 23
45 30 4 6 15 12 23 12 9 0 28 9 43 19 14 11 48 22 74 26 26 4 50 11 53 16 8
13 74 11 74 -2z m528 -638 c8 -4 12 -17 10 -27 -2 -13 2 -18 14 -16 9 1 19 -2
23 -8 11 -18 -6 -91 -26 -108 -10 -9 -19 -24 -19 -34 0 -11 -10 -20 -26 -24
-19 -5 -24 -12 -21 -25 5 -17 -10 -24 -44 -21 -3 1 -5 -7 -5 -17 1 -25 -124
-163 -141 -157 -8 3 -11 1 -8 -4 3 -6 1 -10 -4 -10 -6 0 -11 -6 -11 -14 0 -19
-127 -129 -140 -121 -6 3 -7 0 -4 -9 4 -11 0 -16 -10 -16 -9 0 -21 -12 -26
-26 -6 -14 -19 -28 -30 -31 -11 -3 -20 -11 -20 -18 0 -7 -12 -16 -26 -19 -17
-5 -24 -12 -20 -21 5 -15 -2 -17 -74 -20 -18 0 -25 -6 -25 -20 0 -14 -7 -20
-21 -19 -13 0 -20 -5 -18 -11 7 -16 -23 -38 -41 -32 -8 4 -17 1 -21 -5 -5 -7
-2 -8 7 -3 8 5 3 -3 -11 -17 -14 -14 -40 -28 -59 -32 -19 -3 -40 -15 -48 -26
-7 -10 -20 -17 -28 -14 -10 4 -18 -3 -25 -21 -8 -22 -15 -26 -35 -23 -15 3
-22 1 -18 -5 4 -6 -2 -8 -15 -5 -12 4 -25 1 -29 -4 -3 -7 -1 -8 5 -4 7 4 12 4
12 1 0 -3 -21 -16 -47 -27 -27 -11 -51 -25 -55 -31 -3 -5 -23 -11 -43 -12 -21
-1 -44 -10 -53 -21 -15 -16 -13 -16 8 1 l25 20 -20 -23 c-11 -14 -26 -21 -37
-19 -11 3 -15 1 -11 -6 4 -6 -2 -8 -15 -5 -12 4 -20 1 -19 -4 1 -6 -14 -20
-34 -32 -20 -11 -47 -29 -60 -38 -13 -9 -43 -18 -66 -19 -24 -2 -39 -7 -36
-13 4 -5 -1 -7 -10 -3 -9 3 -19 1 -23 -5 -5 -7 -2 -8 6 -3 9 5 11 4 6 -4 -5
-7 -20 -11 -34 -9 -21 2 -27 -1 -27 -17 0 -16 -9 -21 -49 -27 -28 -4 -54 -4
-59 -1 -6 4 -7 1 -2 -7 6 -10 4 -12 -8 -7 -9 3 -19 1 -23 -5 -5 -7 -2 -8 6 -3
9 6 11 4 5 -4 -4 -7 -18 -11 -31 -8 -13 2 -21 0 -18 -5 4 -5 -47 -8 -124 -6
-78 2 -128 -1 -124 -6 3 -5 -2 -7 -11 -3 -9 3 -19 1 -23 -5 -4 -7 -3 -8 4 -4
7 4 12 4 12 1 0 -3 -16 -13 -35 -21 -20 -8 -38 -21 -42 -29 -4 -12 -25 -15
-97 -15 -91 0 -135 10 -101 24 9 3 20 4 25 1 4 -3 7 3 6 13 -1 13 7 17 36 17
20 0 34 3 31 8 -2 4 21 7 52 7 45 0 56 3 52 14 -4 10 5 16 33 21 22 4 45 3 51
-1 8 -5 9 -3 4 6 -6 10 -3 12 13 8 13 -4 26 0 34 11 12 15 11 15 -7 1 -19 -14
-19 -14 -6 3 8 11 22 16 33 14 10 -3 16 -1 12 4 -3 5 7 9 21 9 14 0 39 7 55
15 16 8 56 18 89 21 48 5 61 11 69 29 7 16 22 24 50 27 21 3 56 13 76 23 19 9
43 15 51 11 10 -3 13 -2 9 5 -4 7 3 9 17 7 18 -2 24 2 24 17 0 15 7 20 26 20
17 0 26 5 25 15 -1 8 7 15 16 15 9 0 20 4 25 9 5 5 2 6 -6 1 -9 -5 -12 -4 -7
3 4 7 18 12 32 12 15 0 24 6 24 15 0 11 12 15 45 15 33 0 50 6 65 22 11 12 20
25 20 29 0 4 9 5 20 2 14 -4 20 0 20 10 0 15 47 37 79 37 9 0 25 9 35 21 12
14 25 20 41 16 15 -2 22 0 18 6 -4 6 0 8 10 4 9 -3 21 1 29 11 12 16 11 16 -7
2 -19 -14 -19 -14 -6 3 8 10 20 16 28 13 8 -3 11 -1 8 5 -10 15 16 41 34 34 8
-3 13 -3 9 0 -8 8 51 65 67 65 7 0 15 9 18 21 3 12 10 18 16 14 6 -3 21 3 33
15 12 11 28 18 35 16 7 -3 15 0 19 6 5 7 2 8 -6 3 -9 -5 -11 -4 -6 4 5 7 18
11 31 9 29 -4 64 27 58 51 -5 18 32 41 67 41 11 0 20 6 20 14 0 7 9 16 21 19
11 3 23 15 26 26 3 12 14 21 24 21 14 0 19 7 19 25 0 23 31 51 43 39 3 -3 4 3
4 13 -2 12 5 18 19 17 17 0 20 5 16 24 -3 17 -1 23 6 18 8 -4 10 -2 6 7 -3 8
6 23 20 35 14 11 26 24 26 30 0 5 9 12 20 15 12 3 20 14 20 26 0 12 6 21 13
21 6 0 20 14 29 30 10 17 23 29 30 28 8 -2 12 5 10 16 -2 10 1 16 6 13 4 -4 8
4 8 16 -1 16 5 22 20 21 16 0 20 5 16 23 -3 17 2 25 19 32 30 12 41 13 57 2z
m-2324 -1173 c1 -44 -1 -49 -28 -58 -16 -5 -50 -10 -76 -10 -45 0 -48 2 -54
31 -3 17 -3 42 0 56 6 21 11 24 35 21 15 -3 26 0 23 4 -3 5 18 8 46 6 l53 -3
1 -47z m-345 16 c30 -6 32 -9 29 -43 -3 -33 -6 -36 -37 -39 -18 -2 -31 0 -28
5 3 4 -15 9 -40 9 -24 1 -50 7 -56 13 -6 6 -21 11 -34 11 -13 0 -23 5 -23 11
0 6 -7 8 -16 5 -10 -4 -14 -1 -12 6 3 8 32 15 74 19 38 3 79 6 90 7 12 1 36
-1 53 -4z"/>
<path d="M2544 6708 c9 -76 16 -112 24 -120 4 -4 31 -10 60 -14 52 -7 53 -6
92 35 46 48 50 72 16 99 -29 22 -111 29 -122 10 -6 -9 -10 -5 -14 12 -4 18
-13 26 -34 28 l-29 4 7 -54z"/>
<path d="M3456 6498 c-8 -13 -18 -34 -22 -48 -8 -24 -8 -24 -14 10 -4 29 -9
35 -30 35 -24 0 -25 -3 -33 -84 -6 -67 -4 -88 7 -99 20 -20 42 -3 104 81 53
72 61 94 40 115 -18 18 -36 15 -52 -10z"/>
<path d="M3217 5803 c-9 -2 -26 -22 -37 -43 -11 -21 -24 -41 -30 -45 -5 -3
-10 -27 -10 -53 1 -59 35 -96 97 -107 44 -7 112 9 125 29 4 6 8 46 8 88 0 67
-2 77 -19 83 -11 3 -21 16 -23 28 -3 19 -10 22 -48 24 -25 0 -53 -1 -63 -4z"/>
<path d="M4542 5204 c-23 -16 -31 -67 -12 -79 23 -14 9 -27 -24 -21 -38 7 -50
-3 -51 -41 -1 -12 1 -20 3 -18 2 2 14 -5 25 -16 35 -33 66 -35 92 -7 12 13 25
37 28 54 3 16 11 48 18 71 10 34 10 44 0 57 -17 20 -50 20 -79 0z"/>
<path d="M7246 5523 c-4 -5 -24 -13 -44 -18 -36 -10 -86 -67 -79 -89 2 -6 18
-19 37 -28 18 -9 37 -23 41 -29 4 -7 35 -15 68 -17 61 -4 61 -4 72 27 7 20 18
31 30 31 16 0 19 7 19 40 0 33 -4 42 -24 49 -13 5 -26 17 -29 25 -7 17 -77 23
-91 9z"/>
<path d="M7966 5339 c-34 -64 -28 -89 21 -89 43 0 130 45 139 72 9 29 -14 48
-57 48 -21 0 -41 5 -44 10 -13 22 -34 8 -59 -41z"/>
<path d="M5835 5065 c-16 -13 -38 -24 -48 -25 -10 0 -27 -5 -38 -10 -28 -16
-26 -80 4 -107 30 -27 90 -36 125 -17 15 7 37 14 49 14 12 0 25 5 28 11 4 5
17 14 30 19 15 6 24 19 27 39 5 33 -7 51 -33 51 -10 0 -20 11 -23 25 -6 22
-12 25 -49 25 -30 0 -51 -7 -72 -25z"/>
<path d="M7362 5028 c-28 -14 -38 -49 -25 -91 9 -31 11 -32 59 -32 27 0 66 9
87 18 30 15 37 23 37 47 0 17 -4 30 -9 30 -5 0 -16 6 -23 14 -19 18 -98 27
-126 14z"/>
<path d="M7562 4630 c-43 -27 -47 -40 -27 -99 23 -71 62 -81 120 -30 44 39 48
87 10 124 -29 30 -59 31 -103 5z"/>
<path d="M7048 4495 c-47 -25 -82 -73 -71 -101 6 -16 29 -19 37 -5 3 5 22 12
41 15 20 4 51 21 71 38 72 63 15 102 -78 53z"/>
<path d="M6088 4273 c-36 -6 -88 -79 -88 -123 0 -24 6 -33 26 -40 29 -11 81
-13 147 -4 38 5 48 11 57 35 15 35 4 88 -22 113 -20 19 -73 27 -120 19z"/>
<path d="M1554 3609 c-3 -6 -15 -8 -26 -6 -10 3 -32 2 -48 -3 -40 -11 -130
-70 -130 -85 0 -6 -14 -24 -31 -41 -46 -43 -59 -82 -58 -173 0 -44 -2 -84 -5
-90 -4 -5 4 -34 18 -63 13 -29 27 -63 30 -75 7 -21 73 -76 140 -117 17 -10 39
-27 49 -37 10 -10 26 -19 37 -19 21 0 80 -31 80 -42 0 -5 9 -8 20 -8 12 0 43
-11 70 -25 27 -14 64 -25 82 -25 18 -1 51 -8 73 -16 22 -9 121 -31 219 -49 99
-19 191 -38 205 -43 14 -6 53 -15 86 -22 33 -6 67 -16 77 -20 9 -5 61 -14 115
-19 54 -6 116 -17 138 -24 22 -8 58 -17 80 -21 22 -4 76 -19 120 -32 90 -29
265 -46 465 -47 135 0 320 32 370 65 22 15 39 16 160 6 100 -8 148 -17 185
-33 28 -12 69 -27 91 -34 25 -6 57 -27 80 -51 21 -22 52 -42 69 -46 16 -3 49
-12 72 -20 36 -11 48 -11 85 2 39 13 49 13 87 -1 24 -8 52 -15 62 -15 11 0 19
-4 19 -10 0 -5 7 -10 15 -10 25 0 92 -37 98 -55 4 -8 14 -15 23 -15 10 0 37
-11 60 -25 48 -28 57 -26 147 29 33 20 45 22 84 15 66 -13 124 -50 171 -112
l42 -54 72 14 c86 16 195 11 266 -12 47 -16 54 -22 77 -72 25 -53 58 -78 87
-68 7 3 58 9 113 14 137 12 178 -1 223 -69 17 -27 32 -57 32 -65 0 -8 9 -15
19 -15 11 0 26 -3 35 -6 11 -4 16 -1 16 10 0 23 31 20 37 -4 6 -23 23 -27 23
-6 0 10 16 17 46 22 102 15 227 -24 247 -79 3 -9 14 -17 24 -17 10 0 104 -16
208 -36 146 -28 194 -41 205 -55 11 -14 45 -25 125 -39 186 -32 388 -58 437
-57 l46 2 -46 87 c-35 65 -53 89 -72 93 -14 4 -45 19 -70 34 -25 16 -63 34
-85 41 -83 27 -142 53 -192 86 -28 19 -60 34 -70 34 -11 0 -61 20 -111 45 -50
25 -101 45 -113 45 -11 0 -51 14 -88 31 -36 17 -75 34 -86 39 -11 4 -58 24
-105 43 -47 19 -103 39 -125 42 -22 4 -44 11 -50 15 -5 4 -34 11 -62 15 -29 4
-55 11 -59 16 -3 5 -14 9 -25 9 -11 0 -53 13 -92 30 -40 16 -85 32 -102 35
-32 7 -48 13 -110 40 -22 9 -51 19 -64 22 -13 2 -40 11 -60 20 -42 19 -183 60
-258 76 -29 5 -53 14 -53 18 0 3 -21 10 -47 14 -27 4 -56 14 -65 22 -9 8 -21
12 -27 9 -6 -4 -18 -2 -28 3 -10 5 -61 17 -113 26 -52 9 -113 22 -135 29 -55
18 -149 43 -215 57 -30 6 -93 23 -140 39 -47 15 -128 37 -180 50 -91 21 -228
63 -261 80 -8 4 -73 17 -145 29 -171 29 -236 42 -251 53 -7 5 -36 16 -65 24
-55 14 -240 79 -270 95 -10 5 -25 9 -35 9 -9 0 -24 6 -32 14 -9 7 -41 21 -71
31 -70 21 -137 51 -145 65 -3 5 -14 10 -24 10 -10 0 -24 6 -30 14 -6 7 -30 17
-54 20 -23 4 -64 18 -92 31 -27 13 -77 31 -110 40 -79 22 -130 41 -188 71 -27
15 -55 23 -66 19 -11 -3 -22 -1 -26 5 -3 5 -14 10 -23 10 -9 0 -39 11 -67 25
-27 13 -66 25 -85 25 -20 0 -40 4 -45 9 -6 5 -48 15 -94 21 -46 6 -95 18 -108
27 -13 9 -40 16 -60 15 -20 -1 -50 4 -67 12 -31 13 -97 32 -146 42 -14 3 -34
9 -45 14 -29 12 -134 23 -251 25 -56 1 -113 5 -127 9 -15 3 -29 1 -33 -5z
m287 -120 c54 -10 69 -16 69 -29 0 -22 17 -36 52 -45 22 -6 32 -1 53 21 16 17
35 27 53 27 38 -1 276 -44 282 -52 11 -14 80 -31 126 -31 l49 0 -39 -35 c-38
-34 -39 -35 -21 -55 20 -22 70 -27 82 -7 13 21 14 49 1 65 -7 8 -8 13 -3 11 6
-3 27 -13 47 -22 34 -15 37 -20 32 -46 -5 -23 -2 -32 15 -41 34 -18 75 -9 79
18 4 28 34 29 71 3 14 -11 49 -22 76 -26 28 -4 65 -14 84 -21 18 -8 41 -14 51
-14 10 0 20 -7 24 -15 3 -8 16 -15 30 -15 27 0 42 -15 26 -25 -14 -9 -12 -21
6 -39 12 -12 13 -23 6 -49 -7 -23 -6 -38 2 -50 17 -22 63 -32 81 -17 8 6 19 9
25 5 16 -10 -7 -45 -25 -39 -8 4 -23 3 -32 -1 -10 -4 -30 -7 -45 -6 -21 2 -31
-4 -40 -24 -10 -23 -10 -29 4 -39 11 -8 14 -21 11 -39 -3 -15 -1 -27 5 -27 16
0 42 -29 42 -46 0 -11 -9 -14 -31 -12 -40 4 -60 -22 -41 -53 13 -20 12 -21
-20 -14 -18 4 -33 8 -33 9 -13 36 -30 59 -45 63 -16 4 -17 8 -7 23 8 15 8 25
-3 44 -18 34 -67 36 -79 4 -8 -22 2 -56 20 -68 12 -8 -1 -50 -15 -50 -26 0
-332 62 -348 71 -10 5 -49 14 -86 21 -66 11 -68 12 -50 30 22 22 23 44 3 65
-23 22 -69 4 -73 -29 l-3 -25 -93 18 c-51 9 -109 24 -129 32 -19 9 -38 13 -41
10 -3 -3 -11 -1 -18 5 -7 5 -42 16 -78 22 -36 6 -69 15 -75 20 -5 4 -29 11
-53 15 -24 4 -46 13 -49 21 -3 7 -20 16 -38 20 -19 3 -48 17 -66 30 -18 13
-43 24 -55 24 -32 0 -75 20 -99 46 -61 68 -90 108 -102 141 -18 52 -16 70 8
109 25 42 132 97 193 100 46 2 108 13 115 20 7 7 37 5 112 -7z m-338 -455 c9
-4 17 -10 17 -15 0 -5 5 -9 11 -9 6 0 25 -6 42 -14 18 -7 66 -23 107 -36 41
-12 84 -28 95 -34 26 -15 82 -32 170 -52 167 -36 201 -46 224 -61 23 -15 96
-33 321 -79 41 -9 84 -20 95 -25 11 -4 36 -13 55 -19 65 -19 -78 -3 -176 20
-49 12 -107 22 -129 24 -22 1 -45 5 -50 8 -6 3 -30 9 -54 13 -24 4 -59 13 -77
21 -17 7 -47 13 -66 12 -31 -1 -92 14 -128 32 -9 4 -60 15 -115 25 -100 18
-198 55 -212 79 -5 8 -40 29 -79 48 -80 38 -157 95 -149 109 3 5 23 -3 43 -16
20 -14 45 -28 55 -31z m2410 -171 c6 -4 1 -14 -15 -27 -14 -12 -33 -34 -42
-51 -48 -88 -85 -135 -105 -135 -29 0 -36 69 -15 140 9 30 18 60 19 67 2 6 14
14 27 16 29 6 116 -1 131 -10z m312 -53 c32 -15 196 -68 235 -75 19 -4 40 -11
45 -15 6 -4 44 -13 85 -20 41 -7 82 -17 92 -21 10 -5 27 -13 38 -19 11 -5 28
-10 38 -10 10 0 42 -7 72 -15 77 -22 175 -45 240 -55 30 -5 96 -18 145 -29 86
-19 106 -24 219 -57 26 -8 56 -14 66 -14 10 0 23 -7 30 -14 6 -8 37 -20 68
-26 31 -6 65 -15 74 -20 10 -6 25 -10 34 -10 14 0 99 -31 135 -50 9 -5 33 -12
53 -15 20 -4 39 -11 42 -16 8 -14 85 -46 129 -53 49 -8 95 -25 115 -42 8 -7
42 -17 74 -23 33 -6 70 -18 82 -26 12 -8 42 -18 66 -21 24 -4 48 -10 53 -14
44 -32 125 -66 203 -86 51 -12 105 -32 121 -43 16 -12 37 -21 48 -21 10 0 45
-14 77 -30 32 -17 66 -30 74 -30 9 0 23 -7 32 -15 9 -8 42 -20 74 -26 31 -5
76 -23 99 -38 23 -16 65 -37 92 -47 28 -10 66 -29 85 -42 19 -13 56 -34 81
-47 41 -21 67 -50 55 -62 -2 -2 -41 3 -86 11 -45 9 -105 16 -134 16 -76 0
-184 24 -242 54 -29 14 -62 26 -73 26 -12 0 -24 6 -27 14 -10 26 -60 38 -136
32 -52 -4 -77 -2 -88 8 -48 42 -121 84 -165 95 -27 7 -55 17 -61 22 -16 13
-151 20 -181 8 -22 -8 -33 -3 -92 44 -36 29 -77 58 -91 64 -41 19 -110 27
-207 24 l-92 -3 -33 35 c-35 38 -137 97 -166 97 -10 0 -23 5 -30 12 -12 12
-163 15 -197 4 -15 -5 -32 4 -70 39 -44 40 -95 65 -133 65 -12 0 -25 5 -72 30
-17 9 -69 13 -173 13 -142 -1 -149 0 -170 22 -22 23 -73 56 -115 75 -12 5 -68
12 -125 16 -56 3 -106 6 -112 6 -5 1 -30 -2 -55 -6 -41 -6 -48 -4 -78 23 -35
32 -72 52 -137 71 -22 7 -45 17 -52 22 -7 5 -42 20 -80 33 -77 27 -88 45 -74
122 10 53 11 53 64 73 37 14 51 14 117 3 41 -8 84 -18 95 -23z m-1150 -186
c50 -3 106 -9 125 -14 31 -7 111 -11 245 -13 22 0 54 3 70 8 l30 7 -20 -21
c-19 -19 -32 -21 -180 -23 -210 -3 -320 7 -380 32 -11 5 -45 14 -75 20 -94 20
-170 42 -170 50 0 4 60 -3 133 -16 72 -13 173 -27 222 -30z"/>
<path d="M1608 3411 c-26 -4 -50 -10 -54 -14 -4 -4 -8 -27 -8 -52 -1 -39 4
-50 31 -75 18 -17 41 -30 52 -30 11 0 23 -4 26 -10 3 -5 40 -10 80 -10 68 0
76 2 90 24 17 26 12 96 -7 96 -5 0 -19 10 -32 23 -45 44 -99 59 -178 48z"/>
</g>
</svg>
