<?xml version="1.0" standalone="no"?>
<!DOCTYPE svg PUBLIC "-//W3C//DTD SVG 20010904//EN"
 "http://www.w3.org/TR/2001/REC-SVG-20010904/DTD/svg10.dtd">
<svg version="1.0" xmlns="http://www.w3.org/2000/svg"
 width="1229.000000pt" height="687.000000pt" viewBox="0 0 1229.000000 687.000000"
 preserveAspectRatio="xMidYMid meet">
<metadata>
Created by potrace 1.16, written by Peter Selinger 2001-2019
</metadata>
<g transform="translate(0.000000,687.000000) scale(0.100000,-0.100000)"
fill="#000000" stroke="none">
<path d="M6640 5908 c-80 -4 -190 -7 -245 -8 -174 -2 -311 -45 -403 -127 -23
-22 -34 -23 -171 -23 -299 0 -648 -59 -841 -142 -25 -10 -70 -25 -100 -33
-108 -27 -176 -46 -225 -65 -27 -11 -90 -31 -140 -45 -49 -15 -138 -44 -197
-66 -59 -21 -113 -39 -121 -39 -7 0 -18 -5 -23 -10 -6 -6 -27 -11 -48 -12 -20
-1 -39 -5 -41 -8 -3 -4 -37 -18 -77 -30 -40 -12 -80 -26 -88 -31 -22 -13 -44
-20 -155 -50 -78 -20 -319 -95 -405 -125 -42 -15 -81 -27 -320 -101 -47 -15
-112 -37 -145 -49 -33 -12 -118 -41 -190 -63 -71 -22 -157 -49 -190 -60 -33
-12 -118 -39 -190 -61 -241 -74 -360 -113 -435 -141 -41 -15 -122 -42 -180
-59 -103 -32 -196 -61 -255 -81 -16 -6 -59 -18 -95 -29 -36 -10 -105 -30 -155
-44 -181 -53 -231 -66 -255 -66 -15 0 -31 -5 -38 -12 -7 -7 -12 -9 -12 -6 0 4
-15 2 -32 -3 -18 -6 -44 -12 -56 -15 -13 -3 -43 -11 -65 -19 -23 -8 -52 -15
-63 -15 -18 0 -23 -7 -27 -37 -3 -21 -14 -63 -26 -93 -13 -36 -20 -79 -21
-126 0 -99 11 -195 22 -188 12 8 103 6 144 -2 18 -3 34 -2 37 3 3 4 26 7 51 5
42 -4 46 -6 46 -29 0 -32 -43 -73 -75 -73 -13 0 -57 5 -98 11 -64 9 -76 15
-93 40 -24 37 -34 37 -34 0 0 -16 -3 -43 -6 -60 -6 -31 -6 -31 38 -31 24 0 97
-6 163 -14 66 -8 170 -17 230 -21 61 -4 146 -13 190 -20 44 -8 140 -21 214
-30 74 -9 137 -18 141 -20 4 -2 36 -7 71 -10 35 -3 93 -12 128 -21 35 -8 91
-17 125 -20 33 -3 72 -9 86 -14 14 -5 68 -16 120 -24 52 -9 124 -22 160 -31
36 -8 94 -20 130 -25 36 -5 85 -14 110 -20 25 -5 70 -15 101 -20 30 -5 82 -18
115 -29 32 -11 106 -29 164 -40 58 -12 112 -24 120 -28 8 -4 38 -12 65 -19 95
-23 255 -73 365 -113 47 -17 103 -31 125 -31 22 0 65 -7 95 -16 30 -8 73 -20
95 -26 22 -5 49 -14 60 -18 23 -10 155 -53 290 -95 50 -16 95 -31 100 -35 6
-4 21 -10 35 -13 43 -10 152 -45 225 -72 39 -14 99 -35 135 -47 36 -11 72 -26
80 -33 8 -6 44 -20 80 -30 36 -10 74 -23 85 -30 11 -6 33 -15 49 -19 29 -7
105 -39 141 -59 11 -6 43 -23 70 -38 28 -14 82 -43 120 -64 39 -21 124 -66
190 -100 191 -99 285 -149 360 -189 39 -21 111 -60 160 -86 50 -26 135 -71
190 -100 55 -29 141 -74 190 -100 50 -25 109 -58 132 -73 24 -15 47 -27 51
-27 11 0 75 -31 82 -40 9 -12 340 -172 372 -181 18 -4 74 -20 123 -35 50 -14
129 -34 177 -44 60 -12 101 -27 133 -49 25 -17 49 -31 53 -31 4 0 25 -14 46
-30 22 -17 43 -30 47 -30 5 0 27 -13 51 -28 44 -30 137 -89 198 -127 19 -12
63 -39 96 -61 34 -21 75 -47 90 -56 40 -24 60 -37 124 -80 31 -21 59 -38 64
-38 4 0 22 -11 40 -25 18 -14 36 -25 40 -25 4 0 53 -31 110 -70 57 -38 107
-70 111 -70 4 0 30 -16 56 -35 27 -19 51 -35 53 -35 5 0 114 -66 195 -119 61
-39 68 -41 143 -41 45 0 78 4 78 10 0 6 -4 10 -9 10 -5 0 -42 22 -82 49 -145
96 -215 139 -274 170 -67 35 -66 35 -185 111 -47 30 -89 57 -95 60 -5 3 -21
12 -35 21 -196 126 -363 231 -413 262 -34 20 -67 40 -73 45 -6 4 -40 26 -75
49 -35 23 -95 64 -134 90 l-70 48 90 7 c184 13 239 12 275 -7 31 -16 96 -58
155 -100 21 -15 111 -73 216 -140 34 -22 72 -47 85 -55 12 -8 47 -31 78 -50
32 -19 82 -54 113 -77 31 -24 60 -43 64 -43 8 0 65 -37 281 -182 48 -32 91
-58 96 -58 4 0 30 -17 58 -38 47 -34 85 -59 228 -149 45 -29 59 -33 124 -33
39 0 72 4 72 9 0 5 -15 19 -33 30 -18 11 -41 29 -51 40 -17 18 -16 19 26 26
24 3 77 13 118 21 41 7 129 23 195 34 66 12 185 32 265 46 80 14 186 31 235
39 80 13 128 22 295 55 25 5 79 15 120 21 l76 12 77 -54 c42 -30 76 -57 77
-60 0 -3 -30 -9 -67 -13 -38 -4 -97 -14 -133 -22 -36 -9 -92 -20 -125 -24 -33
-4 -96 -15 -140 -25 -44 -9 -111 -20 -150 -25 -38 -5 -92 -13 -120 -18 -140
-26 -236 -45 -295 -58 -36 -8 -77 -14 -92 -14 -16 0 -28 -4 -28 -10 0 -6 79
-10 218 -10 203 0 229 3 412 35 107 19 227 42 265 50 39 8 93 17 120 20 28 4
82 12 120 20 134 26 122 28 213 -33 46 -32 95 -65 110 -74 19 -13 48 -18 100
-18 39 0 72 4 72 8 0 5 -40 35 -90 68 -49 32 -90 62 -90 66 0 4 -4 8 -9 8 -10
0 -85 48 -181 115 -36 26 -81 56 -100 69 -19 12 -64 42 -100 67 -36 24 -73 49
-81 54 -9 6 -89 60 -178 120 -89 61 -171 114 -181 120 -14 7 -20 20 -20 42 0
34 0 34 -169 150 -53 37 -55 37 -152 38 -109 1 -132 12 -144 67 -5 20 -17 34
-41 45 -19 9 -34 20 -34 25 0 4 -7 8 -15 8 -8 0 -15 5 -15 10 0 6 40 10 99 10
93 0 104 -2 158 -32 66 -36 474 -281 841 -506 43 -26 102 -60 141 -82 15 -9
52 -32 82 -52 30 -19 68 -43 84 -52 42 -23 63 -36 115 -72 57 -40 136 -84 150
-84 7 0 10 17 8 47 l-3 47 -92 61 c-96 62 -374 235 -472 293 -78 45 -92 54
-126 78 -16 11 -38 24 -49 27 -10 4 -65 36 -122 72 -56 36 -106 65 -110 65 -4
0 -21 10 -38 23 -17 13 -38 26 -46 30 -8 4 -32 17 -52 29 -20 13 -75 46 -122
73 -52 30 -85 56 -84 64 2 8 31 21 73 31 75 18 206 72 293 122 124 71 192 125
293 234 25 27 72 67 103 89 124 85 159 145 164 277 4 78 1 92 -19 125 -32 52
-48 71 -92 112 l-38 35 1 161 c0 88 -2 178 -4 200 -3 22 -8 67 -11 100 -5 66
-11 102 -45 275 -12 63 -28 130 -36 148 -8 18 -14 41 -14 51 0 21 -37 149 -51
173 -5 10 -9 25 -9 33 0 8 -11 33 -25 55 -14 22 -25 44 -25 50 0 6 -4 18 -9
28 -20 39 -51 110 -51 115 0 4 -18 36 -40 71 -21 36 -51 88 -65 115 -25 49
-46 80 -206 291 -170 224 -480 520 -744 710 -42 30 -93 68 -113 84 -20 15 -58
39 -84 52 -26 13 -49 28 -52 33 -4 5 -19 16 -34 24 -15 8 -49 26 -77 42 -114
63 -238 124 -385 188 -19 8 -57 22 -85 30 -27 8 -88 29 -135 46 -83 30 -216
61 -255 60 -11 -1 -141 2 -290 6 -371 10 -1228 12 -1405 3z m980 -79 c351 -11
412 -14 534 -23 83 -7 97 -11 150 -46 186 -123 203 -136 263 -187 21 -18 43
-33 50 -33 6 0 18 -8 25 -18 7 -11 24 -25 38 -32 53 -28 220 -182 220 -202 0
-5 -346 -8 -769 -8 l-769 0 -64 67 c-35 36 -85 87 -112 112 -26 25 -69 66 -95
91 -61 59 -199 169 -285 228 l-70 47 180 5 c324 10 356 10 704 -1z m-1005 -39
c22 -12 54 -33 72 -46 17 -13 35 -24 38 -24 8 0 134 -98 150 -116 6 -6 17 -15
26 -20 31 -17 133 -110 263 -240 140 -141 144 -145 266 -304 44 -58 93 -121
109 -140 15 -19 40 -53 54 -75 15 -22 43 -60 62 -85 64 -83 95 -129 95 -139 0
-6 4 -11 9 -11 5 0 14 -13 21 -30 7 -16 16 -30 20 -30 9 0 59 -77 101 -158 16
-29 35 -60 44 -68 8 -9 15 -22 15 -30 0 -8 3 -14 8 -14 4 0 12 -10 18 -23 6
-12 69 -137 140 -277 71 -140 142 -285 157 -321 15 -36 43 -90 62 -120 19 -29
35 -62 35 -72 0 -10 7 -29 16 -43 9 -14 18 -36 19 -49 2 -13 16 -52 33 -87 44
-93 51 -115 69 -187 27 -115 20 -153 -33 -195 -36 -28 -38 -29 -88 -17 -56 13
-136 51 -136 64 0 7 -92 208 -174 382 -13 28 -41 86 -61 130 -65 141 -246 499
-260 515 -7 8 -21 35 -31 60 -10 25 -41 82 -70 127 -30 45 -73 119 -96 163
-24 45 -54 93 -67 108 -13 14 -38 47 -55 72 -34 52 -142 197 -163 220 -7 8
-35 42 -61 76 -58 74 -149 179 -179 207 -13 11 -23 27 -23 34 0 7 -3 13 -7 13
-13 0 -128 102 -134 119 -4 9 -26 32 -49 51 -23 19 -50 43 -59 53 -18 21 -190
158 -246 197 -20 14 -54 40 -77 58 -22 17 -44 32 -49 32 -4 0 -52 26 -106 58
-54 32 -126 71 -160 88 -67 31 -73 38 -45 48 9 4 33 15 52 26 37 20 83 27 219
35 46 2 86 6 88 9 13 13 132 -3 168 -24z m1995 -80 c47 -28 93 -53 103 -56 9
-4 17 -10 17 -15 0 -5 6 -9 13 -9 7 0 61 -33 121 -72 60 -40 119 -80 131 -88
19 -12 143 -105 190 -142 292 -229 526 -469 721 -738 67 -93 84 -116 156 -230
49 -77 118 -200 118 -211 0 -5 14 -28 30 -51 17 -22 30 -46 30 -53 0 -6 13
-38 29 -71 52 -104 151 -395 151 -440 0 -11 7 -45 16 -75 28 -94 16 -344 -17
-365 -5 -3 -9 -13 -9 -22 0 -9 -23 -42 -50 -72 -46 -51 -50 -53 -43 -25 5 17
7 102 7 190 -1 129 -5 174 -22 230 -11 39 -30 104 -41 145 -12 41 -28 89 -35
105 -8 17 -17 41 -21 55 -4 14 -25 63 -47 110 -22 47 -49 108 -60 135 -12 28
-26 56 -31 63 -6 7 -27 45 -47 85 -67 130 -92 173 -185 309 -27 40 -52 78 -54
83 -2 6 -24 33 -48 61 -23 28 -43 54 -43 57 0 3 -12 19 -27 35 -16 17 -48 56
-73 86 -25 31 -56 69 -70 85 -95 108 -188 207 -267 287 -51 51 -93 97 -93 103
0 5 -8 12 -18 15 -10 3 -45 32 -77 64 -33 32 -112 102 -175 157 -63 54 -123
107 -133 117 -10 10 -30 24 -45 32 -15 8 -40 28 -56 45 -17 17 -34 31 -39 31
-9 0 -49 30 -110 83 -31 28 -31 28 -7 23 14 -3 64 -28 110 -56z m-2582 -70
c161 -70 338 -180 502 -312 19 -16 48 -39 63 -51 115 -89 415 -385 484 -477
23 -30 59 -77 80 -105 21 -27 46 -61 55 -75 10 -14 34 -47 53 -75 70 -98 235
-346 235 -353 0 -4 11 -23 24 -42 30 -46 106 -187 106 -198 0 -5 -35 -19 -77
-30 -198 -51 -239 -63 -258 -71 -11 -6 -49 -23 -85 -40 -36 -17 -82 -41 -103
-53 -46 -29 -167 -147 -167 -163 0 -7 -8 -20 -19 -29 -35 -32 -90 -158 -96
-221 -3 -33 -12 -109 -20 -170 -17 -140 -17 -130 -19 -455 l-1 -276 -35 18
c-48 25 -189 88 -196 88 -2 0 -47 20 -98 45 -52 25 -98 45 -104 45 -15 0 -39
33 -46 65 -4 17 -12 59 -17 95 -5 36 -16 106 -24 155 -8 50 -17 110 -21 135
-11 79 -27 92 -124 104 -19 3 -80 12 -135 20 -55 9 -118 17 -140 19 -22 3 -47
7 -55 10 -20 7 -140 26 -210 32 -30 3 -102 14 -160 24 -58 11 -138 24 -178 30
-41 5 -76 11 -78 13 -2 3 -4 413 -4 912 -1 807 1 910 15 925 8 10 15 21 15 25
0 4 17 27 38 51 20 23 53 68 72 99 19 31 58 87 85 124 28 37 68 94 89 127 22
33 40 62 42 63 7 10 204 19 307 15 109 -5 126 -8 205 -43z m-678 -19 c0 -4 -9
-20 -20 -34 -11 -14 -20 -29 -20 -34 0 -5 -12 -24 -27 -41 -16 -18 -57 -77
-93 -132 -69 -107 -84 -116 -195 -135 -22 -4 -69 -15 -105 -26 -36 -10 -121
-32 -190 -49 -69 -17 -145 -37 -170 -45 -49 -15 -144 -38 -255 -61 -38 -9 -84
-22 -102 -30 -17 -8 -37 -14 -45 -14 -27 1 -347 -79 -363 -91 -5 -4 -28 -9
-51 -12 -51 -7 -362 -85 -389 -98 -18 -8 -115 -29 -137 -29 -4 0 2 19 15 43
32 59 78 127 87 127 4 0 12 11 18 24 7 15 23 27 44 31 43 9 150 42 213 66 28
10 68 23 90 28 45 11 234 73 310 101 28 11 91 31 140 46 50 15 135 42 190 61
55 19 116 39 135 43 19 5 91 28 160 50 69 23 130 43 135 44 6 1 15 4 20 7 6 3
28 10 50 16 85 23 260 77 270 84 6 3 35 12 65 18 78 17 133 33 145 43 12 11
75 10 75 -1z m3911 -205 c99 -65 205 -137 222 -151 7 -6 28 -20 47 -32 19 -12
51 -38 69 -57 19 -20 40 -36 46 -36 15 0 65 -53 65 -69 0 -7 6 -11 15 -7 8 3
18 -1 22 -8 5 -7 16 -17 25 -22 45 -25 335 -324 391 -405 21 -31 47 -61 58
-67 10 -7 19 -17 19 -22 0 -6 16 -33 35 -60 89 -127 103 -148 126 -190 13 -25
34 -59 46 -75 12 -17 26 -41 32 -55 6 -14 15 -32 20 -40 12 -18 111 -228 111
-234 0 -3 -15 0 -32 6 -18 6 -66 18 -107 27 l-75 16 -16 45 c-9 25 -23 59 -30
75 -18 38 -133 248 -140 255 -8 8 -29 43 -39 66 -9 19 -111 173 -181 272 -100
142 -420 492 -505 553 -23 17 -48 41 -55 55 -8 13 -18 24 -23 24 -11 0 -50 30
-119 92 -29 26 -58 48 -64 48 -10 0 -62 50 -52 50 3 0 43 -25 89 -54z m-189
-286 c17 -16 34 -30 38 -30 8 0 123 -113 185 -183 28 -31 72 -81 100 -112 27
-31 82 -100 122 -153 39 -53 87 -117 106 -142 47 -63 177 -280 177 -296 0 -12
-130 -14 -813 -12 -768 3 -814 4 -841 21 -15 10 -34 33 -42 50 -23 50 -135
224 -169 264 -5 6 -21 28 -35 48 -37 54 -107 148 -123 165 -7 8 -24 31 -37 50
-13 19 -49 68 -79 108 -31 41 -65 88 -76 106 -11 18 -32 49 -47 69 -33 42 -34
52 -10 66 11 7 275 10 765 11 l747 0 32 -30z m-4042 -1026 l0 -1016 -37 6
c-36 6 -184 41 -303 71 -30 8 -107 26 -170 41 -63 14 -131 31 -150 36 -19 5
-75 20 -125 33 -49 13 -117 31 -150 40 -33 9 -87 23 -120 30 -33 7 -126 30
-206 51 -81 20 -154 34 -163 31 -9 -4 -22 -19 -28 -34 -10 -23 -72 -128 -84
-142 -2 -2 -40 7 -85 20 -78 23 -82 26 -118 78 -20 30 -44 66 -53 80 -10 14
-23 36 -30 49 -6 13 -27 26 -49 32 -21 6 -40 14 -43 19 -8 12 -9 1104 -1 1122
3 10 18 19 33 22 50 9 247 55 327 77 44 11 116 28 160 36 44 9 109 24 145 35
36 10 71 19 78 19 7 0 61 13 120 30 59 16 125 32 147 36 22 3 117 26 210 51
94 25 208 53 255 64 47 10 110 24 140 31 30 6 105 24 165 39 61 15 116 28 123
28 9 1 12 -208 12 -1015z m-1860 841 c0 -6 -43 -66 -101 -144 -43 -56 -57 -63
-209 -97 -244 -56 -268 -62 -279 -68 -11 -7 -138 -42 -186 -50 -16 -3 -55 -13
-85 -22 -90 -26 -120 -32 -120 -27 0 3 22 35 49 72 l49 66 124 39 c68 21 148
47 178 58 30 11 64 21 75 23 11 2 44 13 73 24 29 12 60 21 70 21 9 0 44 12 77
26 33 14 102 37 154 50 51 13 96 26 99 29 7 7 32 7 32 0z m-153 -858 l-2 -542
-66 3 c-61 4 -68 2 -95 -25 -87 -83 -86 -82 -129 -73 -22 5 -98 20 -168 34
-70 14 -133 29 -140 33 -6 4 -41 12 -76 18 -66 11 -68 12 -98 80 -14 31 -25
41 -48 45 -28 5 -30 8 -33 56 l-3 51 62 -9 c34 -6 65 -6 69 -1 7 6 14 199 11
290 -1 20 -8 22 -72 29 l-72 7 7 75 c3 41 6 123 6 182 l0 108 98 21 c53 12
126 30 162 40 36 10 119 30 185 45 66 14 149 34 185 43 36 9 94 20 129 24 35
5 66 11 69 14 3 2 9 2 13 -1 5 -3 8 -249 6 -547z m-891 496 c-55 -78 -60 -82
-115 -93 -30 -5 -59 -14 -65 -19 -6 -5 -33 -12 -61 -16 -27 -4 -77 -15 -110
-25 -33 -10 -100 -28 -150 -40 -49 -13 -94 -26 -99 -31 -6 -5 -14 -9 -18 -9
-15 0 -8 27 12 45 11 10 20 24 20 32 0 7 8 13 19 13 10 0 38 7 62 16 24 8 67
21 94 29 59 16 172 53 200 66 11 5 45 15 75 23 30 8 78 23 105 34 28 11 52 18
54 16 2 -2 -8 -21 -23 -41z m-66 -338 l0 -175 -24 -10 c-14 -5 -47 -8 -75 -8
-28 1 -53 -1 -56 -4 -4 -3 -6 -63 -6 -134 1 -92 4 -130 13 -136 7 -4 43 -8 81
-8 l67 0 0 -45 c0 -39 -4 -47 -24 -55 -13 -5 -27 -18 -31 -29 -11 -37 -25 -39
-140 -26 -60 8 -121 16 -135 19 -14 3 -67 10 -118 17 -91 12 -93 13 -107 45
-7 18 -22 37 -33 43 -11 6 -19 19 -18 28 2 14 16 19 57 24 30 3 67 2 84 -3 43
-12 103 -10 111 4 4 6 8 61 8 121 1 126 -4 133 -83 123 -106 -14 -121 -14
-127 -5 -4 6 -11 5 -21 -2 -12 -10 -16 -10 -24 2 -10 15 -10 212 0 226 8 11
77 40 116 48 35 8 45 11 100 25 22 6 72 17 110 26 106 23 186 42 225 53 19 5
38 9 43 10 4 1 7 -78 7 -174z m-630 138 c-1 -5 -9 -18 -19 -30 -18 -22 -35
-28 -211 -74 -75 -20 -115 -32 -157 -44 -14 -4 -23 -3 -23 3 0 17 69 72 90 72
18 0 201 46 275 69 39 12 45 13 45 4z m-50 -160 c1 -10 2 -57 4 -105 2 -48 0
-91 -3 -96 -3 -6 -53 -13 -110 -16 -57 -3 -109 -10 -114 -15 -6 -6 -19 -6 -32
-1 -12 5 -39 5 -59 0 -70 -15 -76 -8 -76 85 l0 83 78 16 c42 9 100 24 129 32
49 15 128 30 166 33 10 1 17 -6 17 -16z m-464 -115 c-3 -13 -6 -46 -6 -74 l0
-51 -42 -7 c-24 -4 -87 -9 -141 -10 l-99 -2 7 44 c4 25 9 50 11 56 6 15 50 31
124 45 30 6 64 13 75 15 11 2 33 4 49 5 25 1 28 -2 22 -21z m7354 -18 c21 -6
338 -10 836 -10 l803 0 35 -59 c20 -32 36 -62 36 -66 0 -5 12 -33 26 -64 14
-31 37 -81 51 -111 14 -30 31 -66 38 -80 10 -21 83 -245 115 -355 33 -116 38
-282 9 -335 -8 -14 -32 -42 -54 -61 -45 -40 -110 -57 -275 -69 -52 -4 -169
-17 -260 -28 -269 -34 -683 -49 -890 -32 -138 11 -183 22 -147 36 30 11 50 99
44 191 -3 47 -10 90 -16 96 -6 6 -11 17 -11 24 0 7 -9 32 -19 56 -11 23 -35
85 -55 137 -20 52 -56 132 -79 176 -105 204 -267 532 -267 542 0 9 9 14 40 21
3 0 21 -3 40 -9z m-565 -257 c14 -21 25 -47 25 -59 0 -13 4 -24 9 -26 14 -5
136 -251 226 -453 14 -33 30 -69 35 -80 45 -101 58 -133 65 -155 4 -14 21 -54
38 -90 78 -163 188 -206 617 -238 126 -9 483 -3 747 12 273 16 390 26 440 37
62 13 178 29 253 35 70 6 127 22 190 54 185 94 248 329 177 665 -28 135 -46
202 -71 270 -8 22 -12 43 -10 46 7 13 164 -50 196 -78 16 -14 93 -244 117
-348 30 -134 61 -505 52 -621 -1 -11 -55 -29 -74 -25 -11 2 -165 -25 -272 -47
-49 -11 -130 -25 -180 -32 -49 -7 -110 -17 -135 -22 -25 -6 -85 -14 -135 -18
-49 -5 -130 -14 -180 -20 -49 -6 -133 -15 -185 -20 -52 -4 -165 -17 -250 -27
-125 -14 -231 -18 -545 -18 -374 0 -397 1 -575 28 -102 15 -211 34 -243 42
-32 8 -69 15 -82 15 -13 0 -26 4 -29 9 -3 5 -30 14 -58 21 -61 13 -175 48
-200 61 -10 5 -30 9 -46 9 -15 0 -57 9 -93 20 -123 39 -155 49 -249 75 -52 14
-113 31 -135 37 -69 19 -158 50 -204 71 l-44 21 6 112 c3 62 9 119 13 126 4 7
9 28 11 48 8 96 86 269 154 341 82 87 194 143 389 195 141 37 153 41 180 52
14 6 26 11 27 11 1 1 14 -16 28 -36z m-6537 -27 c7 -4 36 -7 65 -5 29 1 73 1
99 1 40 -2 47 -5 50 -24 2 -13 -5 -32 -17 -45 -11 -11 -25 -27 -31 -35 -10
-12 -33 -12 -163 1 -145 15 -153 17 -167 41 -16 31 -18 67 -3 72 22 7 154 3
167 -6z m2627 -487 c39 -10 111 -30 160 -44 50 -14 141 -37 204 -50 63 -13
121 -27 130 -30 9 -4 34 -10 56 -15 22 -4 67 -16 100 -25 33 -9 72 -19 86 -21
25 -3 223 -54 374 -95 61 -17 85 -22 118 -28 5 0 7 -16 5 -33 -2 -23 -7 -32
-18 -30 -65 15 -332 91 -425 121 -33 11 -76 23 -95 26 -19 4 -64 15 -100 26
-96 28 -194 55 -290 79 -47 12 -128 35 -180 50 -52 16 -129 39 -170 50 -41 12
-83 28 -95 36 -18 14 -16 14 25 8 25 -3 77 -14 115 -25z m1580 -104 c128 -15
196 -26 370 -55 61 -11 142 -22 180 -26 98 -9 196 -30 205 -44 4 -7 13 -47 20
-89 29 -185 78 -406 91 -412 8 -4 25 -11 39 -16 14 -5 59 -25 100 -45 115 -55
188 -88 194 -88 3 0 33 -13 68 -29 35 -16 84 -39 111 -50 l47 -20 0 -60 0 -60
-30 9 c-16 5 -42 15 -57 23 -43 23 -122 57 -132 57 -5 0 -22 7 -38 15 -29 15
-130 57 -198 81 -22 8 -65 26 -95 41 -30 14 -116 50 -190 80 -74 30 -149 63
-166 74 -17 10 -37 19 -45 19 -7 0 -31 8 -53 19 -23 10 -68 29 -101 42 -33 12
-151 62 -262 111 -112 48 -208 88 -216 88 -7 0 -23 7 -35 16 -21 15 -22 21
-22 181 l0 166 48 -7 c26 -4 101 -13 167 -21z m1597 -361 c114 -41 516 -158
654 -189 33 -8 89 -23 125 -35 35 -11 70 -20 77 -20 7 0 32 -9 55 -19 23 -11
60 -22 82 -26 72 -11 85 -15 85 -26 0 -5 -8 -13 -19 -17 -26 -10 -82 -61 -110
-101 -32 -44 -42 -176 -19 -231 20 -47 63 -96 112 -128 37 -24 50 -27 131 -27
86 1 92 2 141 35 83 56 114 115 114 219 0 76 -19 129 -62 174 -21 22 -37 41
-36 42 2 1 31 -1 66 -5 217 -27 856 -19 1142 14 186 21 463 50 565 59 28 3 79
10 115 15 36 6 95 16 132 21 37 6 76 14 86 20 9 5 29 7 44 4 27 -5 27 -6 13
-34 -20 -38 -20 -180 0 -219 29 -57 76 -120 103 -138 15 -10 47 -24 71 -31 24
-7 40 -16 35 -21 -20 -19 -316 -82 -474 -101 -41 -5 -127 -18 -190 -28 -63
-11 -144 -22 -180 -26 -36 -4 -78 -9 -95 -11 -84 -13 -280 -35 -355 -39 -47
-3 -148 -10 -225 -16 -175 -12 -975 -12 -1110 0 -55 5 -142 10 -194 10 -52 1
-109 6 -125 11 -17 5 -74 15 -126 20 -52 6 -106 12 -120 15 -14 2 -65 8 -115
15 -49 6 -115 18 -145 26 -30 8 -68 19 -85 24 -55 15 -165 58 -198 77 -21 13
-32 27 -33 44 -6 118 -15 669 -11 669 3 0 39 -12 79 -26z m-1677 -106 c50 -22
151 -63 225 -92 74 -30 155 -62 180 -73 25 -11 74 -33 110 -48 36 -16 97 -43
136 -62 40 -18 76 -33 82 -33 9 0 64 -22 149 -61 23 -10 84 -35 135 -55 51
-20 125 -51 163 -69 39 -18 147 -62 240 -99 94 -37 218 -88 277 -112 59 -24
114 -44 121 -44 8 0 31 -7 50 -15 20 -8 60 -17 89 -20 29 -4 121 -17 203 -30
200 -32 241 -36 370 -41 61 -2 154 -8 209 -14 125 -13 974 -13 1126 0 63 5
153 12 200 14 118 7 301 24 385 36 39 5 147 17 240 25 94 9 208 22 255 31 47
8 110 19 140 24 30 6 71 14 90 20 98 28 56 -20 -73 -83 -157 -78 -263 -107
-417 -118 -74 -5 -171 -13 -215 -19 -44 -5 -152 -14 -240 -20 -88 -6 -194 -15
-235 -20 -41 -6 -101 -10 -132 -10 -31 0 -90 -4 -130 -10 -110 -14 -298 -29
-443 -35 -132 -6 -277 -17 -465 -35 -188 -18 -502 -31 -629 -25 -75 3 -169 15
-235 29 -61 14 -127 28 -146 31 -68 13 -254 80 -281 102 -8 7 -22 13 -30 13
-8 0 -19 4 -24 9 -6 5 -80 45 -165 89 -85 43 -193 99 -240 124 -47 25 -166 87
-265 138 -256 132 -456 236 -695 363 -41 22 -106 56 -145 74 -38 19 -77 38
-85 42 -10 6 -16 27 -18 70 -4 73 -13 73 133 9z m5557 -88 c61 -40 83 -87 83
-171 0 -55 -5 -72 -28 -107 -32 -50 -62 -71 -118 -83 -51 -12 -134 4 -166 30
-41 34 -73 105 -73 163 0 69 46 154 88 164 15 3 47 12 72 19 68 20 92 18 142
-15z m-2628 -227 c79 -37 101 -183 39 -257 -36 -44 -63 -56 -122 -56 -162 0
-211 259 -61 319 39 15 106 13 144 -6z m1452 -777 c48 -17 117 -57 110 -63 -5
-6 -45 -10 -231 -23 -168 -12 -238 -18 -330 -30 -44 -5 -165 -15 -270 -20
-194 -11 -443 -33 -550 -49 -33 -5 -91 -10 -128 -10 -63 -1 -75 2 -130 36 -34
20 -64 38 -66 40 -14 10 48 24 109 25 71 0 323 20 355 27 22 5 132 15 245 21
113 6 237 16 275 21 39 6 135 13 214 15 79 3 183 9 230 14 47 4 96 8 107 9 12
0 39 -5 60 -13z m439 -239 c50 -34 58 -51 28 -54 -10 -1 -49 -4 -88 -8 -38 -3
-104 -11 -145 -16 -41 -5 -109 -12 -150 -15 -41 -3 -82 -8 -90 -10 -8 -3 -51
-8 -95 -10 -44 -3 -114 -9 -155 -14 -41 -5 -138 -14 -215 -20 -77 -6 -223 -22
-325 -35 -301 -39 -264 -41 -359 20 -45 29 -79 55 -74 58 4 3 51 8 103 11 52
4 142 11 200 16 58 6 200 19 315 30 116 10 278 24 360 30 83 6 215 18 295 26
80 8 170 15 200 17 147 9 145 9 195 -26z m134 -151 c25 -21 271 -186 279 -186
8 -1 62 -47 62 -53 0 -3 -79 -18 -170 -32 -19 -3 -66 -12 -105 -20 -38 -7
-110 -21 -160 -29 -49 -9 -128 -22 -175 -31 -47 -8 -137 -24 -200 -35 -63 -11
-135 -24 -160 -30 -36 -8 -206 -35 -280 -44 -9 -1 -20 -5 -25 -8 -32 -20 -73
-10 -140 33 -159 102 -257 165 -273 174 -9 6 -36 25 -61 43 -24 17 -49 32 -55
32 -11 1 -56 35 -56 43 0 4 113 16 200 22 8 1 22 4 30 8 14 6 129 17 365 37
206 18 329 30 386 39 33 6 66 8 73 5 8 -3 17 -1 21 5 3 6 34 11 68 12 34 0
100 6 147 13 119 18 210 19 229 2z"/>
<path d="M5445 4811 c-22 -5 -79 -14 -127 -21 -48 -7 -91 -16 -97 -19 -11 -7
-18 -678 -7 -688 3 -4 79 0 168 8 l163 14 0 355 0 355 -30 2 c-16 1 -48 -2
-70 -6z m-15 -361 l0 -291 -82 3 c-68 2 -82 6 -80 18 6 27 3 490 -3 510 -5 15
-1 20 17 24 13 2 43 9 68 14 88 19 80 48 80 -278z"/>
<path d="M4820 4710 c-30 -5 -75 -12 -100 -17 l-45 -9 -3 -306 -2 -306 22 -6
c13 -3 75 -6 139 -6 87 0 119 4 128 14 8 9 11 104 9 327 l-3 314 -45 1 c-25 1
-70 -2 -100 -6z m48 -324 c2 -209 1 -230 -15 -242 -10 -7 -30 -14 -46 -14
l-27 0 2 237 3 237 25 7 c56 16 55 23 58 -225z"/>
<path d="M4410 4324 c-14 -2 -65 -9 -114 -16 -49 -7 -95 -18 -102 -26 -11 -11
-14 -78 -14 -340 0 -180 4 -333 9 -341 9 -14 232 -50 319 -51 l42 0 0 390 0
390 -57 -1 c-32 -1 -69 -3 -83 -5z m54 -90 c9 -24 7 -594 -2 -594 -4 0 -12 4
-18 10 -5 5 -43 10 -84 12 l-75 3 0 271 0 271 25 13 c21 11 62 19 136 29 7 0
15 -6 18 -15z"/>
<path d="M3907 4264 c-3 -4 -30 -8 -59 -10 -29 -2 -82 -10 -118 -17 l-65 -13
-3 -287 c-3 -327 -9 -304 91 -313 29 -2 88 -8 132 -13 45 -4 87 -4 97 1 16 8
18 36 20 308 2 164 1 309 -2 322 -5 19 -14 24 -46 26 -22 2 -43 0 -47 -4z m3
-320 l0 -236 -62 7 c-35 4 -67 11 -71 15 -5 4 -7 95 -5 202 3 205 4 207 53
236 11 6 35 12 53 12 l32 0 0 -236z"/>
<path d="M3440 4209 c-30 -4 -86 -10 -125 -14 -38 -4 -76 -12 -82 -18 -16 -11
-18 -463 -4 -486 10 -16 85 -25 216 -26 l80 0 3 250 c1 138 0 260 -3 271 -6
28 -18 31 -85 23z m-2 -279 l3 -180 -35 0 c-19 0 -38 -4 -41 -10 -3 -5 -17
-10 -31 -10 l-24 0 0 195 0 196 34 -7 c19 -3 43 -1 53 4 12 7 21 7 28 1 6 -6
11 -87 13 -189z"/>
<path d="M2884 4146 c-45 -6 -89 -17 -98 -25 -14 -12 -16 -40 -16 -200 0 -132
4 -191 12 -199 8 -8 48 -12 115 -12 l103 0 -2 222 c-3 189 -5 223 -18 224 -8
1 -52 -4 -96 -10z m44 -218 l3 -128 -31 0 -30 0 0 123 c0 68 3 127 7 131 4 4
16 6 28 4 19 -3 20 -11 23 -130z"/>
<path d="M2601 4119 c-25 -5 -48 -12 -53 -17 -5 -5 -7 -89 -6 -188 l3 -179 67
-9 c37 -4 79 -5 93 -2 l25 6 0 188 c0 133 -4 192 -12 200 -14 14 -52 14 -117
1z"/>
<path d="M2385 4103 c-22 -3 -45 -9 -52 -15 -9 -7 -12 -54 -12 -170 0 -183 -7
-172 104 -172 l70 -1 3 174 c2 133 -1 176 -10 183 -13 8 -31 8 -103 1z"/>
<path d="M1748 4043 c-16 -4 -18 -19 -18 -134 l0 -130 68 3 67 3 5 120 c3 66
1 126 -4 133 -8 12 -81 15 -118 5z"/>
</g>
</svg>
