<?xml version="1.0" standalone="no"?>
<!DOCTYPE svg PUBLIC "-//W3C//DTD SVG 20010904//EN"
 "http://www.w3.org/TR/2001/REC-SVG-20010904/DTD/svg10.dtd">
<svg version="1.0" xmlns="http://www.w3.org/2000/svg"
 width="899.000000pt" height="1037.000000pt" viewBox="0 0 899.000000 1037.000000"
 preserveAspectRatio="xMidYMid meet">
<metadata>
Created by potrace 1.16, written by Peter Selinger 2001-2019
</metadata>
<g transform="translate(0.000000,1037.000000) scale(0.100000,-0.100000)"
fill="#000000" stroke="none">
<path d="M4620 9602 c-65 -31 -90 -70 -90 -138 0 -102 83 -164 221 -164 31 0
76 -7 99 -15 23 -8 61 -15 84 -15 35 0 48 -6 84 -41 30 -29 42 -50 42 -69 0
-16 3 -35 6 -44 5 -14 -9 -16 -115 -16 l-120 0 -32 -31 c-30 -29 -31 -34 -25
-82 3 -29 12 -57 21 -63 8 -6 15 -16 15 -23 0 -6 22 -33 49 -61 46 -46 52 -50
98 -50 29 0 60 7 79 19 45 27 84 16 132 -40 53 -60 94 -73 211 -67 90 4 92 5
131 43 22 21 41 37 42 34 18 -29 28 -52 28 -64 0 -9 9 -33 19 -53 11 -20 24
-48 29 -62 6 -14 19 -46 31 -72 12 -26 21 -56 21 -67 0 -10 7 -24 15 -31 8 -7
15 -23 15 -36 0 -12 4 -25 9 -28 5 -3 12 -18 15 -32 4 -15 14 -34 23 -43 15
-14 14 -16 -13 -22 -16 -4 -50 -12 -77 -18 -26 -6 -90 -11 -141 -11 -52 0
-107 -5 -123 -11 -19 -8 -223 -12 -643 -13 -668 -3 -618 1 -737 -58 -51 -25
-70 -45 -75 -77 -1 -13 -10 -27 -18 -31 -35 -18 -162 -40 -260 -45 -326 -18
-416 -32 -458 -69 l-22 -20 -77 76 c-42 42 -97 87 -122 100 -25 13 -47 26 -49
31 -2 4 -10 7 -17 7 -16 0 -34 29 -64 100 -27 64 -61 140 -101 225 -15 33 -36
78 -45 100 -10 22 -21 42 -24 45 -10 8 -111 215 -111 228 0 7 -4 12 -10 12 -5
0 -12 11 -16 25 -3 13 -12 29 -20 36 -8 6 -21 26 -29 43 -23 49 -131 156 -157
156 -8 0 -18 4 -24 9 -5 5 -22 11 -39 13 -24 2 -30 9 -36 37 -4 18 -16 45 -26
59 -24 32 -88 56 -113 42 -45 -24 -383 -4 -420 25 -41 31 -112 46 -125 25 -3
-5 -14 -10 -25 -10 -22 0 -70 -78 -70 -114 0 -14 -9 -41 -19 -60 -17 -29 -18
-38 -7 -69 16 -47 52 -90 97 -115 31 -17 54 -20 155 -20 83 0 132 -5 163 -16
24 -9 47 -14 52 -11 18 12 27 -32 19 -90 -13 -90 -20 -113 -39 -121 -29 -13
-292 -17 -304 -5 -6 6 -25 11 -43 11 -24 0 -40 -9 -63 -35 -17 -20 -31 -42
-31 -50 0 -8 -4 -15 -10 -15 -18 0 -11 -68 11 -107 42 -74 112 -153 155 -175
45 -22 63 -21 260 8 27 4 33 1 37 -18 12 -45 69 -88 133 -99 52 -9 66 -8 117
11 52 19 61 28 105 95 41 62 51 71 66 63 9 -5 23 -7 30 -5 8 3 22 0 32 -7 11
-7 37 -19 59 -26 22 -7 44 -16 49 -21 6 -5 20 -9 33 -9 26 0 44 -30 73 -118
10 -31 28 -79 40 -107 21 -47 58 -143 100 -260 9 -27 29 -78 44 -112 14 -34
26 -73 26 -87 0 -13 7 -26 15 -30 8 -3 15 -10 15 -15 0 -25 -30 5 -49 48 -28
66 -42 75 -98 67 -52 -7 -83 -29 -83 -59 0 -27 31 -139 42 -153 5 -8 0 -28
-14 -55 -12 -24 -24 -68 -26 -101 -4 -50 -1 -61 19 -83 20 -21 33 -25 81 -25
51 0 61 4 93 32 25 24 35 41 35 63 0 37 16 55 47 55 28 0 30 -24 9 -85 -21
-59 -33 -112 -44 -189 -6 -38 -15 -72 -20 -75 -5 -3 -12 -22 -15 -42 -2 -19
-9 -45 -16 -56 -6 -12 -11 -30 -11 -41 0 -10 -6 -32 -14 -48 -8 -16 -24 -69
-35 -119 -12 -49 -28 -111 -36 -136 -8 -26 -15 -54 -15 -63 0 -8 -6 -30 -14
-48 -8 -18 -19 -53 -26 -78 -6 -25 -18 -58 -25 -75 -7 -16 -19 -52 -26 -80 -6
-27 -15 -54 -19 -60 -4 -5 -22 -55 -40 -110 -19 -55 -37 -104 -42 -110 -4 -5
-8 -17 -8 -27 0 -10 -4 -26 -9 -36 -5 -9 -24 -64 -41 -122 -17 -58 -35 -113
-40 -122 -6 -10 -10 -26 -10 -37 0 -10 -7 -24 -15 -31 -8 -7 -15 -23 -15 -35
0 -20 -27 -91 -79 -210 -10 -22 -30 -71 -46 -110 -15 -38 -31 -79 -35 -90 -46
-108 -76 -192 -100 -275 -13 -47 -52 -154 -75 -205 -8 -16 -16 -48 -18 -70 -3
-22 -15 -69 -28 -104 -18 -51 -29 -66 -56 -79 -19 -9 -33 -23 -33 -33 0 -10
-5 -21 -10 -24 -6 -3 -10 -16 -10 -29 0 -12 -7 -31 -15 -42 -8 -10 -15 -31
-15 -45 0 -15 -7 -43 -15 -62 -8 -20 -15 -47 -15 -60 0 -13 -10 -53 -22 -88
-21 -63 -34 -122 -44 -205 -5 -32 0 -52 19 -88 23 -43 24 -50 11 -74 -8 -15
-14 -44 -14 -65 0 -44 -27 -97 -49 -97 -8 0 -30 -17 -50 -39 -37 -39 -88 -61
-146 -61 -16 0 -52 -8 -80 -17 -84 -29 -255 -162 -255 -198 0 -8 -3 -15 -7
-17 -10 -4 -48 -83 -61 -128 -58 -192 -57 -283 5 -500 50 -175 174 -338 317
-418 61 -34 181 -72 228 -72 42 0 151 39 203 72 82 53 165 148 223 259 37 69
42 86 51 191 15 153 2 290 -35 391 -20 54 -17 82 11 127 14 22 25 44 25 49 0
5 7 14 15 21 8 7 15 23 15 36 0 12 4 25 8 28 5 3 14 30 22 60 15 64 4 125 -35
184 -20 31 -24 52 -26 128 -3 91 -3 92 29 128 18 20 32 41 32 46 0 4 11 21 24
37 32 38 80 123 111 198 9 22 26 59 37 82 11 24 24 66 28 95 9 54 21 103 46
192 8 26 14 61 14 77 0 15 4 31 10 34 5 3 10 19 10 35 0 66 28 75 122 41 29
-11 69 -22 88 -26 83 -14 156 -33 292 -75 37 -11 75 -20 85 -20 10 0 47 -9 83
-21 36 -11 74 -22 85 -24 107 -19 143 -27 160 -35 33 -15 122 -38 270 -69 278
-59 309 -67 385 -106 32 -15 46 -29 48 -46 2 -13 7 -28 12 -34 4 -5 13 -35 20
-65 7 -30 18 -66 25 -80 7 -14 15 -59 18 -100 5 -64 3 -80 -13 -105 -17 -26
-19 -48 -19 -190 0 -88 4 -178 10 -200 6 -22 14 -74 18 -117 7 -67 12 -80 37
-102 l29 -26 -28 -21 c-41 -31 -55 -66 -58 -144 -3 -76 -12 -105 -33 -105 -15
0 -86 -74 -86 -90 0 -5 -12 -12 -27 -16 -73 -16 -192 -58 -228 -79 -67 -39
-151 -121 -189 -186 -20 -33 -36 -66 -36 -73 0 -6 -4 -16 -9 -22 -5 -5 -19
-38 -32 -74 -22 -60 -24 -80 -23 -250 0 -189 13 -271 50 -324 8 -11 14 -31 14
-43 0 -13 5 -23 10 -23 6 0 10 -9 10 -19 0 -11 4 -22 9 -25 5 -3 20 -29 34
-59 23 -46 157 -194 223 -247 43 -34 132 -78 184 -90 30 -8 59 -17 65 -22 5
-4 44 -8 88 -8 84 0 205 33 248 67 45 36 124 109 149 137 33 38 100 163 100
186 0 10 7 25 15 34 8 8 15 31 15 51 0 20 5 45 11 56 15 28 14 256 -1 321 -7
29 -18 71 -26 93 -8 23 -14 46 -14 53 0 7 -13 42 -30 77 -16 35 -30 76 -30 91
0 23 18 71 51 136 5 10 9 26 9 37 0 10 7 32 15 47 8 16 15 37 15 48 0 15 6 17
31 14 31 -5 123 11 164 28 30 12 126 84 158 119 44 46 81 104 106 165 13 30
29 62 35 70 21 26 38 187 26 255 -5 33 -10 78 -10 100 0 22 -7 49 -15 59 -8
11 -15 28 -15 38 0 10 -5 26 -11 36 -9 14 -7 25 10 52 11 19 29 53 39 75 76
158 79 193 27 279 -27 45 -32 62 -25 76 6 10 10 30 10 45 0 14 7 39 15 55 12
24 22 30 48 30 18 0 38 5 43 10 6 6 62 22 125 35 63 14 139 32 169 41 56 16
103 28 175 44 97 21 185 43 243 61 34 10 73 19 87 19 13 0 27 5 30 10 3 6 20
10 36 10 17 0 42 6 57 14 15 7 50 16 77 20 28 4 73 11 100 16 28 5 77 14 111
19 33 6 73 15 89 21 15 6 50 11 78 12 28 0 66 7 84 14 18 8 48 14 68 14 19 0
55 5 79 12 35 9 56 9 99 -2 l55 -13 2 -191 c0 -105 2 -209 4 -231 9 -101 19
-162 32 -182 19 -30 18 -36 -11 -79 -21 -30 -25 -49 -25 -105 0 -66 -1 -69
-29 -84 -16 -8 -40 -29 -52 -47 -33 -46 -49 -57 -87 -58 -19 0 -46 -6 -60 -14
-15 -7 -43 -21 -62 -30 -19 -9 -47 -24 -61 -31 -30 -17 -149 -141 -149 -156 0
-5 -11 -27 -25 -50 -37 -58 -47 -114 -52 -289 -5 -158 4 -220 42 -293 8 -16
15 -35 15 -43 0 -7 8 -28 18 -46 11 -18 34 -60 52 -93 39 -70 138 -171 215
-221 30 -18 58 -34 62 -34 5 0 26 -10 48 -22 36 -20 54 -23 176 -23 117 0 140
3 156 18 11 9 24 17 29 17 5 0 37 25 71 55 67 60 130 152 157 230 10 28 22 57
26 66 5 9 14 61 21 115 10 83 9 114 -4 194 -24 145 -28 161 -80 267 -14 31
-13 77 2 111 60 128 71 164 71 229 0 58 -20 113 -56 151 -18 20 -24 38 -24 70
0 56 -18 128 -36 143 -18 15 -18 60 1 85 19 25 19 162 1 342 -11 109 -17 137
-34 155 -16 17 -18 26 -11 40 6 10 9 50 7 90 -4 74 -12 112 -54 253 -13 44
-24 90 -24 102 0 11 -4 24 -10 27 -5 3 -10 17 -10 29 0 13 -7 29 -15 36 -8 7
-15 24 -15 37 0 14 -6 39 -14 56 -8 18 -22 57 -31 87 -10 30 -21 59 -26 65 -5
5 -9 19 -9 31 0 13 -4 26 -10 29 -5 3 -10 17 -10 29 0 13 -6 29 -14 35 -7 6
-16 30 -20 53 -4 22 -16 64 -27 92 -24 57 -31 75 -48 126 -35 98 -49 132 -60
143 -6 6 -11 19 -11 29 0 10 -4 26 -9 36 -22 45 -40 91 -51 132 -7 25 -18 57
-26 72 -8 14 -14 31 -14 38 0 7 -10 33 -23 59 -13 25 -29 66 -36 91 -29 99
-50 156 -82 222 -5 10 -9 29 -9 42 0 14 -4 28 -10 31 -5 3 -10 16 -10 27 0 12
-6 29 -13 37 -7 9 -21 41 -31 71 -11 30 -22 60 -27 65 -4 6 -13 33 -20 60 -6
28 -17 61 -24 75 -7 14 -18 39 -25 55 -6 17 -18 43 -26 58 -8 16 -14 33 -14
38 0 5 -10 31 -21 57 -12 26 -29 65 -39 87 -10 22 -29 65 -43 96 -13 30 -32
76 -41 102 -9 26 -20 55 -25 64 -18 33 -51 109 -51 117 0 7 -22 57 -66 153
-13 28 -24 55 -24 58 0 4 -10 20 -21 37 -15 21 -18 33 -11 40 19 19 138 55
186 56 59 3 205 49 213 68 3 8 12 14 20 14 24 0 130 115 143 156 13 40 9 138
-8 170 -5 10 -15 31 -22 46 -20 43 -95 116 -136 133 -41 17 -204 21 -220 5 -5
-5 -24 -6 -49 0 -22 5 -65 10 -96 10 -48 0 -61 4 -80 26 -59 63 -136 138 -159
152 -14 9 -43 31 -66 49 -23 18 -46 33 -53 33 -6 0 -11 3 -11 8 0 4 -10 12
-22 17 -13 6 -28 28 -38 55 -9 25 -21 55 -28 67 -7 12 -12 30 -12 41 0 11 -7
25 -15 32 -8 7 -15 23 -15 36 0 13 -4 24 -8 24 -5 0 -15 19 -22 43 -8 23 -24
56 -36 72 -24 33 -74 136 -74 152 0 5 -9 18 -20 28 -11 10 -31 36 -44 59 -22
38 -80 92 -116 110 -8 4 -26 13 -40 21 -14 8 -35 15 -48 15 -34 0 -92 27 -92
42 0 21 -35 46 -80 58 -41 11 -82 5 -137 -22 -21 -10 -49 -9 -258 10 -44 4
-90 13 -102 20 -28 15 -40 15 -83 -6z m64 -77 c27 -8 72 -15 100 -15 90 0 181
-14 180 -27 -1 -7 -2 -42 -2 -78 -2 -72 -11 -79 -58 -48 -19 12 -54 18 -133
20 -58 2 -115 9 -127 14 -21 11 -54 68 -54 94 0 10 37 56 44 55 1 0 23 -7 50
-15z m526 2 c0 -8 -22 -25 -50 -38 -29 -14 -49 -31 -50 -41 0 -9 -5 -18 -11
-20 -19 -6 -23 -83 -6 -109 11 -16 13 -29 7 -39 -8 -12 -12 -11 -30 8 -12 12
-18 27 -14 34 4 6 3 8 -3 5 -15 -9 -23 16 -23 69 0 58 26 103 74 130 30 17
106 17 106 1z m196 -108 c50 -24 69 -40 98 -84 20 -30 36 -59 36 -65 0 -5 4
-10 9 -10 5 0 11 -8 15 -17 3 -10 10 -25 15 -33 22 -34 121 -212 121 -216 0
-3 7 -21 16 -42 28 -63 62 -162 56 -162 -15 0 -78 26 -90 38 -7 6 -25 12 -40
12 -16 1 -33 10 -43 23 -23 32 -52 114 -45 126 4 5 1 13 -5 17 -8 4 -9 3 -5
-4 4 -7 5 -12 2 -12 -6 0 -50 91 -82 168 -10 23 -21 42 -26 42 -4 0 -8 5 -8
11 0 15 -39 48 -72 60 -16 6 -26 14 -23 19 2 4 -7 5 -22 2 -18 -3 -24 -1 -19
6 4 7 2 10 -6 7 -7 -3 -44 1 -83 9 -38 8 -65 15 -60 15 6 1 3 6 -5 11 -13 8
-12 15 6 47 44 78 138 90 260 32z m-3766 -205 c44 -29 161 -48 262 -41 43 3
58 1 58 -9 0 -7 -6 -17 -12 -21 -26 -16 -49 -73 -46 -112 1 -22 0 -43 -3 -45
-6 -6 -153 12 -197 24 -22 6 -30 5 -26 -2 5 -7 0 -9 -14 -6 -12 4 -20 2 -16
-3 11 -19 -51 1 -66 20 -3 4 -20 17 -38 30 -18 12 -30 27 -27 32 4 5 2 9 -3 9
-5 0 -12 11 -14 25 -3 15 -1 25 6 25 6 0 20 23 31 50 23 59 44 64 105 24z
m540 -50 c9 -9 10 -14 3 -14 -7 0 -15 5 -18 10 -7 12 -42 14 -47 3 -1 -5 -22
-20 -45 -36 -24 -15 -43 -33 -43 -41 0 -7 -7 -19 -15 -26 -19 -16 -19 -86 0
-124 23 -44 18 -52 -15 -21 -45 43 -56 87 -35 143 22 58 46 85 99 112 44 22
89 19 116 -6z m3115 -23 c54 -30 82 -63 95 -114 6 -23 17 -54 25 -69 20 -36
19 -72 -4 -92 -24 -22 -109 -13 -119 13 -3 9 -12 21 -20 27 -8 6 -23 44 -33
85 -10 41 -26 91 -35 111 -31 70 5 86 91 39z m-2971 -131 c26 -13 51 -31 54
-40 3 -8 15 -24 26 -35 12 -11 41 -58 64 -105 60 -116 81 -152 103 -173 10 -9
24 -35 30 -57 7 -22 16 -40 20 -40 4 0 15 -21 25 -47 10 -27 20 -50 23 -53 12
-11 29 -47 36 -79 4 -18 9 -30 13 -27 3 3 13 -15 22 -42 9 -26 27 -67 38 -91
12 -25 22 -52 22 -61 0 -9 9 -25 19 -34 11 -10 25 -37 32 -62 7 -24 17 -44 20
-44 4 0 15 -26 24 -57 9 -31 23 -66 31 -77 8 -11 14 -29 14 -38 0 -10 4 -26 9
-36 24 -47 51 -131 51 -159 0 -12 7 -23 15 -27 8 -3 15 -14 15 -25 0 -20 8
-43 39 -111 8 -19 15 -38 16 -42 0 -4 6 -13 13 -19 6 -7 12 -26 12 -41 0 -16
7 -31 15 -34 9 -4 15 -19 15 -37 0 -17 3 -27 7 -24 3 4 19 -30 35 -75 16 -45
33 -87 38 -92 6 -6 10 -20 10 -32 0 -12 7 -27 15 -34 8 -7 15 -23 15 -36 0
-14 5 -34 12 -47 24 -47 28 -57 28 -74 0 -10 7 -27 15 -37 8 -11 15 -28 15
-38 0 -10 9 -23 20 -30 11 -7 20 -20 20 -30 0 -9 5 -20 10 -23 6 -3 10 -15 10
-26 0 -10 5 -19 10 -19 6 0 10 -9 10 -21 0 -11 10 -44 23 -72 13 -29 29 -70
36 -92 14 -43 37 -99 52 -127 5 -10 9 -28 9 -42 0 -13 6 -28 13 -34 7 -6 19
-34 27 -62 8 -28 20 -56 27 -62 7 -6 13 -16 13 -24 0 -7 7 -30 16 -51 38 -88
47 -109 55 -125 5 -10 9 -27 9 -37 0 -11 4 -22 8 -25 5 -3 15 -31 22 -63 7
-32 19 -69 26 -83 16 -31 84 -245 84 -264 0 -7 9 -21 20 -31 11 -10 20 -26 20
-36 0 -9 16 -55 35 -100 19 -46 35 -89 35 -95 0 -6 7 -17 15 -24 8 -7 15 -26
15 -42 0 -16 11 -50 23 -76 13 -26 30 -68 37 -94 7 -26 19 -53 26 -59 8 -6 14
-22 14 -35 0 -13 5 -24 10 -24 6 0 10 -13 10 -30 0 -19 5 -30 14 -30 8 0 16
-14 20 -33 3 -18 15 -49 26 -70 11 -20 20 -41 20 -47 0 -5 11 -33 23 -62 31
-69 47 -119 47 -146 0 -13 6 -22 15 -22 10 0 15 -10 15 -33 0 -19 3 -37 7 -40
9 -10 38 -93 52 -154 7 -29 19 -57 27 -64 9 -7 14 -32 14 -71 0 -43 4 -60 15
-64 8 -4 15 -15 15 -25 0 -10 5 -19 10 -19 6 0 10 -35 10 -84 0 -47 5 -88 10
-91 6 -3 10 -15 10 -26 0 -13 -7 -19 -23 -19 -21 0 -22 4 -25 98 -3 65 -8 102
-18 113 -7 8 -18 40 -24 70 -13 70 -40 161 -50 174 -5 6 -11 24 -14 41 -3 17
-13 45 -22 63 -9 18 -14 41 -11 52 3 10 2 17 -2 14 -5 -2 -14 15 -21 38 -6 23
-21 61 -31 84 -10 23 -19 49 -19 57 0 9 -6 16 -13 16 -7 0 -17 8 -22 18 -33
62 -84 176 -120 272 -9 25 -21 53 -26 62 -5 10 -9 24 -9 32 0 8 -9 30 -19 48
-10 18 -29 68 -41 111 -13 42 -27 77 -33 77 -5 0 -7 6 -4 14 3 7 -4 26 -16 41
-25 31 -59 118 -61 157 0 14 -5 24 -10 20 -5 -3 -7 5 -4 16 4 12 2 20 -3 16
-5 -3 -9 3 -9 13 0 10 -7 29 -16 42 -13 18 -39 107 -46 156 -1 6 -17 9 -37 9
-20 -1 -35 -6 -34 -10 15 -53 57 -160 64 -162 5 -2 9 -19 9 -37 0 -19 6 -35
14 -38 7 -3 16 -22 20 -41 3 -20 9 -52 12 -71 3 -19 10 -35 15 -35 5 0 9 -16
9 -35 0 -19 5 -35 10 -35 6 0 10 -11 10 -25 0 -14 7 -28 15 -31 8 -4 15 -15
15 -27 0 -11 8 -30 17 -41 14 -16 12 -16 -9 3 -15 13 -35 46 -46 75 -11 28
-32 81 -46 119 -14 37 -26 75 -26 85 0 10 -4 22 -10 28 -5 5 -11 26 -12 46 -2
20 -7 36 -12 35 -4 -1 -10 6 -11 17 -2 10 -13 40 -24 67 -12 26 -21 54 -21 62
0 8 -7 20 -15 27 -8 7 -12 16 -9 21 2 5 -4 16 -16 26 -11 10 -20 27 -20 38 0
12 -11 49 -25 83 -14 34 -25 71 -25 82 0 11 -4 20 -9 20 -5 0 -17 26 -26 58
-9 31 -23 71 -31 87 -31 65 -72 251 -52 239 4 -3 8 -16 8 -29 0 -13 6 -36 14
-52 8 -15 20 -48 26 -73 14 -51 25 -82 46 -123 8 -16 14 -39 14 -51 0 -25 26
-82 41 -91 5 -4 9 -15 9 -25 0 -40 54 -37 64 3 7 28 -11 97 -25 97 -6 0 -7 5
-4 10 3 6 1 10 -5 10 -6 0 -8 5 -5 10 3 6 1 10 -4 10 -6 0 -11 8 -11 17 0 9
-8 35 -19 57 -28 61 -42 107 -34 119 3 5 1 7 -5 3 -13 -8 -26 29 -16 46 4 7 3
10 -1 5 -9 -7 -19 17 -96 228 -21 60 -44 114 -49 119 -6 6 -10 19 -10 29 0 10
-8 31 -19 45 -10 15 -22 47 -26 72 -4 25 -19 74 -34 110 -39 91 -51 131 -44
143 4 6 1 7 -7 2 -10 -6 -12 -3 -7 14 3 13 3 20 -1 17 -3 -4 -21 33 -40 81
-18 49 -42 107 -53 130 -10 24 -19 47 -19 53 0 6 -4 18 -9 28 -14 25 -73 165
-75 177 -2 6 -9 26 -18 45 -8 19 -18 47 -21 61 -4 15 -16 37 -26 50 -17 21
-22 23 -41 11 -12 -7 -23 -12 -24 -10 -10 14 -46 100 -46 111 0 7 -6 22 -14
33 -8 11 -17 37 -21 57 -4 20 -11 37 -16 37 -5 0 -9 4 -9 9 0 5 -5 22 -12 38
-6 15 -12 34 -14 41 -1 8 -14 38 -28 68 -14 30 -26 66 -26 79 0 14 -4 25 -9
25 -5 0 -11 10 -14 23 -6 26 -33 100 -52 142 -7 17 -16 47 -20 68 -3 20 -10
37 -15 37 -6 0 -10 9 -10 19 0 10 -7 22 -16 25 -10 4 -13 13 -9 25 3 11 0 23
-7 28 -7 4 -14 15 -15 23 -2 19 -23 80 -34 100 -5 8 -18 35 -29 59 -11 24 -30
53 -43 65 -16 15 -21 30 -19 54 2 18 -1 32 -7 32 -6 0 -11 6 -11 13 0 7 -11
24 -25 39 -14 15 -25 32 -25 38 0 5 -3 10 -7 10 -5 1 -26 17 -48 36 -44 39
-43 39 29 4z m2743 6 c11 -11 12 -106 1 -112 -6 -4 -39 -8 -74 -10 -49 -2 -65
1 -80 16 -55 55 -56 70 -11 99 27 18 43 21 96 17 34 -3 65 -7 68 -10z m-2838
-190 c22 -12 24 -20 26 -102 1 -49 5 -124 10 -166 8 -79 4 -89 -24 -64 -9 8
-32 16 -51 18 -30 2 -35 0 -32 -16 3 -13 -1 -17 -11 -13 -13 5 -14 0 -7 -24
12 -41 36 -62 65 -56 14 2 25 3 25 1 0 -13 -53 -104 -70 -119 -32 -29 -126
-22 -159 12 -23 22 -27 36 -31 109 -3 47 -2 97 3 112 4 15 10 52 13 82 4 30 8
69 10 85 2 17 7 53 10 81 l6 51 43 -4 c27 -4 52 0 71 10 35 20 71 21 103 3z
m3490 -82 c58 -12 121 -56 121 -86 0 -10 4 -26 9 -36 5 -9 23 -46 41 -82 17
-36 35 -72 40 -80 25 -44 70 -149 70 -163 0 -12 -9 -17 -27 -17 -16 0 -52 -3
-80 -6 -51 -7 -53 -6 -64 22 -7 16 -13 36 -15 45 -2 8 -10 29 -19 45 -8 16
-15 35 -15 42 0 7 -4 20 -9 30 -19 37 -51 110 -73 167 -13 33 -25 62 -29 65
-5 5 -39 70 -39 76 0 1 15 -2 33 -7 17 -6 43 -12 56 -15z m-3297 -152 c4 -2 8
-11 8 -21 0 -9 9 -37 21 -61 12 -24 27 -60 34 -81 l14 -39 -52 20 c-29 11 -53
24 -55 30 -2 5 -9 10 -15 10 -9 0 -12 37 -12 126 l0 126 24 -53 c13 -30 28
-55 33 -57z m3540 19 c7 -10 27 -25 44 -34 36 -18 116 -105 109 -117 -3 -5
-18 -11 -34 -15 -16 -3 -32 -13 -35 -21 -11 -28 -32 -13 -50 36 -10 28 -22 50
-28 50 -5 0 -6 5 -3 10 4 6 -7 33 -24 60 -17 28 -31 55 -31 61 0 14 35 -6 52
-30z m-4228 -28 c71 3 133 10 139 16 23 23 27 8 24 -91 l-3 -103 -49 -8 c-28
-4 -81 -13 -119 -19 -54 -9 -71 -9 -74 0 -2 7 -9 12 -16 12 -11 0 -86 75 -86
86 0 2 -9 13 -20 24 -29 29 -36 67 -15 90 15 17 19 17 53 3 30 -13 63 -14 166
-10z m4823 -192 c81 -12 133 -49 169 -119 31 -61 29 -119 -6 -161 -11 -14 -23
-33 -26 -41 -3 -9 -26 -29 -52 -45 -26 -16 -49 -32 -52 -35 -3 -4 -39 -18 -80
-32 -55 -19 -87 -25 -121 -21 -29 3 -49 1 -53 -6 -4 -6 -13 -11 -21 -11 -8 0
-26 -5 -42 -12 -25 -10 -71 -24 -203 -59 -25 -6 -61 -17 -80 -24 -59 -21 -128
-35 -173 -35 -24 0 -106 -9 -183 -19 -215 -30 -288 -36 -280 -23 9 16 -25 4
-39 -13 -14 -17 -387 -37 -665 -35 -247 1 -462 13 -503 29 -16 6 -44 11 -63
11 -24 0 -33 4 -28 12 4 7 3 8 -4 4 -12 -7 -72 19 -72 32 0 4 8 21 17 37 19
35 27 162 10 172 -6 4 -7 1 -2 -7 5 -9 4 -11 -3 -6 -7 4 -12 21 -12 37 0 17 4
28 9 24 5 -3 12 3 15 13 8 23 100 63 176 76 43 8 498 8 640 1 253 -14 1006 35
1048 68 7 6 46 9 87 8 66 -2 142 8 315 40 52 10 93 15 132 18 10 0 33 15 52
31 38 34 39 64 3 75 -22 6 -22 6 -2 15 26 11 20 11 92 1z m-3032 -491 c-3 -5
-28 -10 -55 -10 -49 0 -60 -9 -60 -50 0 -15 -12 -19 -77 -25 -66 -6 -81 -11
-105 -35 -15 -16 -28 -35 -28 -43 0 -8 -7 -17 -15 -21 -32 -12 -3 66 44 119
40 45 62 53 176 64 121 12 127 12 120 1z m2703 -250 c24 -58 49 -116 54 -130
5 -14 20 -47 33 -75 29 -64 39 -88 60 -150 9 -27 36 -90 60 -140 24 -49 57
-126 75 -170 17 -44 36 -88 41 -97 8 -17 42 -110 74 -203 7 -22 20 -53 29 -70
9 -16 16 -35 16 -41 0 -14 37 -109 56 -146 8 -14 14 -35 14 -46 0 -11 7 -25
15 -32 8 -7 15 -25 15 -41 0 -15 4 -30 9 -33 5 -3 11 -18 14 -33 6 -31 49
-152 59 -169 7 -10 48 -125 74 -204 13 -42 22 -63 59 -145 41 -92 55 -126 55
-140 0 -9 6 -28 14 -43 7 -15 30 -79 51 -142 20 -63 43 -127 51 -142 9 -16 12
-28 9 -28 -3 0 0 -12 8 -27 38 -73 64 -140 92 -238 10 -33 21 -64 26 -69 5 -6
9 -22 9 -38 0 -15 4 -37 9 -50 5 -13 14 -43 21 -68 7 -25 18 -61 25 -81 12
-32 18 -97 16 -174 -1 -26 -7 -33 -34 -43 -18 -7 -47 -12 -63 -11 -27 0 -28 1
-6 9 12 5 26 20 32 34 5 13 14 27 19 31 21 12 12 94 -13 132 -28 40 -96 83
-132 83 -22 0 -24 4 -24 44 0 25 -4 47 -9 50 -8 5 -25 79 -24 103 0 7 -3 10
-8 7 -5 -3 -9 5 -9 18 0 13 -4 28 -9 34 -5 5 -11 25 -13 44 -2 21 -8 34 -15
32 -9 -1 -13 13 -13 48 0 27 -4 50 -10 50 -5 0 -10 11 -10 24 0 13 -6 37 -14
53 -20 41 -56 158 -56 182 0 12 -9 26 -20 33 -11 7 -20 22 -20 33 0 12 -4 25
-8 31 -5 5 -15 29 -22 54 -8 25 -17 50 -21 55 -9 12 -25 95 -21 108 1 5 -2 6
-7 3 -5 -4 -12 8 -16 25 -4 17 -20 63 -37 103 -16 39 -31 84 -33 100 -3 15 -8
33 -13 40 -19 24 -31 104 -25 177 4 49 1 89 -7 113 -14 43 -65 106 -86 106
-21 0 -56 40 -50 56 3 8 2 13 -3 10 -5 -3 -12 6 -15 22 -4 15 -13 41 -21 57
-25 51 -75 186 -75 200 0 8 -9 22 -19 32 -11 10 -27 41 -36 68 -9 28 -21 60
-27 72 -6 11 -7 27 -3 34 5 8 4 10 -3 5 -7 -4 -14 4 -18 21 -4 15 -11 34 -16
40 -6 7 -8 20 -4 28 3 9 2 13 -4 10 -5 -3 -12 7 -16 22 -6 26 -28 80 -73 178
-10 22 -27 60 -37 85 -10 25 -21 50 -26 56 -15 20 -68 129 -68 140 0 5 -11 32
-24 60 -12 27 -26 63 -30 79 -4 17 -14 37 -22 46 -13 14 -8 17 48 32 97 24 95
25 146 -93z m-2291 67 c37 -62 277 -99 678 -104 168 -2 322 1 385 8 58 6 159
15 225 20 304 22 372 28 395 37 14 5 70 12 125 16 55 4 117 10 138 13 36 5 38
4 29 -13 -9 -18 -22 -51 -52 -134 -6 -19 -14 -46 -17 -60 -3 -14 -11 -39 -19
-57 -8 -17 -14 -39 -14 -48 0 -24 -21 -98 -32 -110 -4 -5 -8 -18 -8 -30 0 -12
-7 -30 -15 -41 -8 -10 -15 -27 -15 -37 0 -21 -27 -114 -40 -138 -5 -9 -14 -45
-20 -80 -7 -35 -18 -76 -26 -91 -8 -14 -14 -38 -14 -53 0 -14 -7 -39 -15 -54
l-14 -28 -53 13 c-29 8 -60 14 -70 14 -10 0 -26 4 -36 9 -45 23 -103 27 -204
16 -57 -7 -114 -17 -128 -22 -14 -5 -65 -16 -115 -23 -49 -7 -102 -19 -117
-27 -15 -7 -48 -13 -73 -13 -25 0 -59 -7 -75 -15 -20 -10 -55 -15 -104 -14
-41 1 -78 -1 -83 -4 -16 -10 -201 -44 -308 -57 -55 -7 -109 -17 -120 -23 -11
-6 -69 -14 -130 -18 -197 -14 -366 -36 -406 -53 -20 -9 -41 17 -58 69 -7 22
-19 54 -26 70 -8 17 -29 67 -46 113 -18 45 -37 82 -41 82 -4 0 -8 10 -8 23 0
12 -7 30 -15 40 -7 11 -17 38 -20 60 -4 23 -12 47 -17 54 -6 7 -6 18 0 30 6
10 16 48 22 83 6 36 16 71 22 77 25 30 -19 352 -54 403 -23 32 -23 42 4 75
l22 28 140 -7 c167 -8 255 -7 316 4 70 12 98 11 107 -3z m2058 -151 l19 -55
-31 -118 c-17 -65 -41 -149 -53 -188 -25 -83 -41 -142 -44 -170 -2 -11 -12
-51 -24 -90 -11 -38 -24 -87 -27 -107 -4 -21 -11 -38 -16 -38 -4 0 -11 -20
-15 -45 -3 -25 -10 -43 -14 -40 -5 3 -6 -5 -3 -16 4 -12 2 -20 -3 -18 -43 20
-62 28 -78 33 -12 4 -16 12 -11 24 3 9 11 37 17 62 6 25 26 94 44 154 19 61
34 119 34 130 0 12 7 30 15 40 8 11 15 29 15 40 0 11 8 45 19 75 10 31 24 79
31 106 7 28 20 68 30 90 25 57 40 104 52 153 5 23 13 40 17 38 4 -3 16 -30 26
-60z m-2689 -4 c7 -10 15 -46 19 -80 4 -34 11 -65 16 -68 12 -7 12 -201 0
-208 -5 -3 -12 -27 -16 -53 l-8 -48 -18 40 c-11 22 -17 48 -15 57 2 10 -1 21
-6 25 -7 4 -8 1 -3 -8 5 -10 5 -11 -3 -4 -5 6 -21 39 -35 75 l-26 65 19 55
c11 30 19 65 20 77 0 24 30 93 39 93 4 0 11 -8 17 -18z m2798 -195 c3 -18 15
-49 26 -70 11 -20 20 -44 20 -52 0 -8 5 -15 10 -15 6 0 10 -8 10 -18 0 -10 5
-23 11 -29 7 -7 20 -36 30 -65 15 -42 17 -63 10 -103 -5 -27 -9 -57 -9 -65 1
-47 -16 -197 -24 -207 -5 -6 -14 -42 -19 -78 -13 -92 -22 -108 -62 -100 -18 4
-59 17 -92 30 -33 13 -71 26 -85 29 -14 3 -36 14 -49 24 l-23 19 26 72 c14 40
26 82 26 94 0 12 7 31 15 41 8 11 15 29 15 41 0 11 7 45 15 75 9 30 22 84 30
120 8 36 24 97 35 135 11 39 25 88 31 110 6 22 13 46 15 54 7 22 31 -5 38 -42z
m-3109 -201 c7 -32 16 -61 22 -64 5 -4 15 -29 23 -57 7 -27 19 -60 27 -72 8
-13 9 -23 3 -23 -5 0 -10 -9 -10 -20 0 -11 -6 -37 -14 -57 -8 -21 -24 -72 -35
-113 -12 -41 -27 -88 -33 -105 -5 -16 -13 -43 -15 -60 -3 -16 -9 -34 -13 -40
-4 -5 -10 -23 -14 -38 -4 -15 -10 -26 -14 -23 -5 3 -6 -9 -4 -26 4 -23 2 -29
-8 -23 -8 5 -11 4 -7 -1 5 -10 -9 -73 -39 -174 -9 -30 -19 -68 -21 -85 -3 -16
-12 -34 -19 -38 -8 -4 -14 -15 -14 -24 0 -18 -14 -65 -36 -123 -7 -19 -20 -66
-29 -105 -9 -38 -20 -79 -24 -90 -17 -43 -31 -92 -31 -111 0 -11 -7 -29 -15
-40 -8 -10 -15 -35 -15 -54 0 -19 -7 -48 -15 -64 -8 -15 -15 -36 -15 -45 0 -9
-4 -21 -9 -27 -4 -5 -14 -31 -21 -59 -7 -27 -22 -62 -32 -77 -10 -14 -18 -36
-18 -47 0 -12 -4 -29 -9 -39 -10 -21 -28 -73 -45 -132 -13 -42 -39 -119 -57
-165 -4 -11 -10 -31 -12 -45 -11 -55 -50 -175 -58 -178 -5 -2 -9 -12 -9 -22 0
-10 -4 -21 -9 -24 -5 -4 -12 -25 -16 -48 -4 -24 -14 -47 -21 -53 -8 -5 -15
-22 -16 -37 -1 -16 -5 -28 -9 -28 -4 0 -9 -18 -13 -40 -3 -22 -11 -40 -16 -40
-6 0 -10 -20 -10 -44 0 -25 -4 -48 -10 -51 -5 -3 -10 -19 -10 -35 0 -16 -5
-32 -12 -36 -15 -10 -89 -6 -103 5 -5 5 -20 12 -33 16 -12 3 -38 21 -57 39
l-35 31 21 68 c11 37 32 84 47 104 15 22 25 50 24 66 -2 16 4 40 12 55 8 15
22 53 31 84 9 32 21 60 26 64 5 3 9 20 9 39 0 19 5 37 10 40 6 3 10 16 10 29
0 12 4 26 9 32 5 5 23 50 42 99 18 50 39 99 46 110 7 11 13 25 13 33 0 7 13
41 29 75 16 34 39 90 51 125 12 34 26 62 31 62 5 0 9 9 9 21 0 27 30 118 41
125 5 3 9 16 9 29 0 13 5 27 10 30 6 3 10 21 10 40 0 19 4 36 9 40 5 3 13 20
17 38 3 17 20 60 36 94 16 35 27 67 24 72 -3 5 1 14 9 21 8 7 15 21 15 32 0
10 6 29 14 41 7 12 17 42 20 67 4 25 13 54 20 65 7 11 25 65 40 120 16 55 32
109 36 120 4 11 13 36 20 55 7 19 15 52 17 72 3 21 11 42 19 49 8 6 14 26 14
44 0 27 16 83 90 311 6 17 10 40 10 52 0 11 5 24 10 27 6 3 10 19 10 35 0 16
6 44 14 62 8 18 20 54 28 81 7 26 17 46 22 44 5 -2 15 -29 21 -61z m3305 -263
c0 -7 4 -21 9 -31 4 -9 15 -33 23 -52 9 -19 27 -60 40 -90 13 -30 30 -75 38
-100 7 -25 20 -52 27 -61 7 -8 13 -25 13 -36 0 -12 4 -23 9 -25 13 -5 25 -68
13 -68 -6 0 -38 14 -71 31 -33 17 -91 39 -128 48 -66 17 -68 19 -65 47 1 16 8
52 16 79 22 78 36 165 36 231 0 34 3 64 7 68 9 8 33 -22 33 -41z m-3151 -118
c23 -65 25 -79 12 -71 -4 3 -6 -6 -3 -20 3 -15 1 -29 -4 -33 -14 -9 -34 -49
-34 -65 0 -8 -6 -19 -13 -23 -6 -4 -18 -20 -26 -35 -8 -16 -20 -28 -27 -28 -7
0 -16 -10 -20 -22 -3 -13 -12 -30 -18 -38 -7 -8 -22 -42 -35 -75 -12 -33 -27
-69 -31 -80 -5 -11 -12 -35 -15 -52 -4 -18 -10 -35 -15 -38 -4 -3 -7 1 -6 7 8
40 20 77 32 105 8 17 14 38 14 46 0 8 7 28 15 43 8 16 15 39 15 51 0 12 9 42
20 68 11 26 20 54 20 63 0 9 7 30 15 46 8 15 15 37 15 47 0 10 4 20 9 24 5 3
13 20 16 38 8 36 36 109 40 105 2 -2 13 -30 24 -63z m2286 -90 c72 -12 75 -13
33 -14 -40 -1 -48 -4 -48 -20 0 -14 10 -20 38 -24 20 -3 47 -9 58 -12 16 -5
23 -2 27 14 4 18 10 20 39 15 18 -4 39 -11 46 -17 7 -5 24 -11 39 -13 15 -1
36 -7 47 -13 12 -5 48 -19 81 -31 33 -11 69 -24 80 -29 25 -10 140 -50 180
-61 30 -9 126 -37 155 -45 8 -3 38 -11 65 -20 157 -46 257 -91 308 -139 20
-20 37 -37 37 -39 0 -1 -18 -1 -40 1 -23 2 -47 -1 -55 -8 -11 -9 -15 -9 -15
-1 0 6 -10 11 -23 11 -38 0 -222 -41 -225 -51 -5 -11 -58 -24 -162 -39 -47 -7
-103 -18 -125 -26 -23 -8 -50 -14 -60 -14 -35 0 -195 -33 -195 -40 0 -4 -11
-5 -25 -2 -14 2 -31 0 -38 -6 -6 -5 -44 -15 -84 -21 -39 -6 -84 -16 -98 -21
-30 -11 -186 -32 -252 -34 -22 -1 -39 -4 -37 -8 5 -7 -33 -15 -91 -20 -26 -3
-30 -7 -30 -33 0 -24 4 -30 20 -29 50 4 125 16 175 29 30 8 105 21 165 29 61
9 144 23 185 31 41 8 104 19 140 24 36 6 66 15 68 21 2 5 21 10 42 10 22 0 59
6 82 14 24 8 77 19 118 25 41 6 97 18 124 26 27 8 61 15 77 15 15 0 29 7 33
16 5 14 9 12 26 -9 11 -14 20 -32 20 -39 0 -17 34 -48 74 -68 l29 -15 -42 -18
c-47 -20 -243 -65 -341 -77 -78 -10 -363 -66 -405 -80 -16 -5 -46 -10 -65 -11
-19 -1 -44 -5 -55 -9 -35 -14 -177 -41 -260 -50 -44 -5 -102 -16 -130 -26 -27
-9 -88 -23 -135 -30 -47 -7 -110 -17 -140 -23 -30 -5 -89 -10 -130 -10 -41 -1
-90 -5 -109 -11 -32 -9 -125 6 -116 19 2 3 -17 4 -40 3 -27 -3 -57 2 -76 12
-18 9 -40 16 -50 16 -18 0 -59 9 -169 35 -138 34 -186 48 -206 62 -13 8 -33
13 -46 12 -13 -2 -33 2 -45 9 -12 7 -33 12 -47 12 -14 0 -26 5 -26 11 0 5 -4
7 -10 4 -6 -4 -10 6 -10 22 0 16 -6 37 -14 48 -7 11 -16 33 -20 49 -6 23 -4
27 8 23 9 -4 55 -18 103 -32 49 -14 97 -30 108 -35 24 -11 86 -27 135 -35 19
-3 53 -12 75 -19 77 -27 174 -39 190 -26 13 11 12 16 -10 36 -21 20 -37 24
-86 24 -32 0 -59 4 -59 9 0 10 -123 41 -162 41 -15 0 -30 5 -33 10 -3 6 -19
10 -35 10 -16 0 -32 5 -35 10 -3 6 -15 10 -27 10 -11 0 -34 6 -51 13 -48 21
-101 37 -120 37 -9 0 -17 4 -17 10 0 5 -5 9 -12 7 -6 -1 -20 25 -30 57 -10 33
-22 64 -27 70 -4 6 -11 24 -15 41 -4 16 -17 50 -29 75 -11 25 -21 50 -21 55
-1 6 -7 20 -14 33 -17 30 -8 42 31 42 18 0 53 7 80 15 26 8 82 17 125 20 179
13 300 29 420 56 23 5 61 9 85 9 23 0 60 6 82 14 22 8 99 19 171 25 72 6 146
16 165 22 19 6 53 10 77 10 24 0 60 6 80 14 20 7 59 16 85 20 26 3 63 13 81
20 18 8 35 12 38 10 5 -5 179 22 186 29 2 3 16 3 31 0 14 -3 62 -11 106 -19z
m-2219 -82 c3 -10 17 -44 30 -76 13 -32 24 -64 24 -70 0 -7 -23 -23 -51 -36
-113 -54 -179 -130 -181 -209 -1 -72 5 -107 27 -142 17 -28 19 -40 11 -62 -8
-22 -5 -38 10 -75 16 -40 28 -53 69 -74 44 -22 248 -99 346 -128 29 -9 39 -20
57 -61 12 -28 22 -56 22 -63 0 -8 3 -17 7 -21 8 -8 25 -52 63 -166 15 -47 33
-98 40 -115 7 -16 18 -43 25 -60 7 -16 25 -64 39 -105 15 -41 37 -95 50 -120
12 -25 28 -65 35 -90 7 -25 19 -56 25 -70 7 -14 18 -45 25 -70 7 -25 18 -56
23 -70 19 -48 38 -115 38 -137 0 -13 4 -23 8 -23 11 0 46 -119 38 -127 -3 -4
-16 -1 -29 4 -30 15 -101 33 -162 42 -27 4 -59 12 -70 18 -11 6 -51 14 -89 18
-38 4 -95 15 -125 25 -31 9 -141 38 -246 64 -104 26 -208 52 -230 57 -56 15
-122 29 -178 38 -26 4 -53 13 -59 19 -7 7 -25 12 -41 12 -16 0 -46 4 -66 9
-20 6 -57 15 -83 22 -29 7 -48 17 -48 25 0 8 14 40 30 71 17 31 30 62 30 69 0
7 3 14 8 16 4 2 44 77 90 168 56 113 82 177 82 201 0 19 5 40 11 46 11 11 24
76 39 198 13 102 26 170 49 259 12 43 21 91 21 107 0 15 5 40 11 56 16 41 39
153 39 190 0 18 6 47 14 65 8 18 21 49 30 70 9 20 16 43 16 51 0 9 4 19 10 22
5 3 20 27 33 53 31 61 51 96 58 102 4 3 16 24 28 48 23 45 38 53 47 25z m92
-300 c12 -38 22 -74 22 -81 0 -8 9 -25 20 -39 29 -37 25 -42 -22 -32 -49 12
-68 6 -68 -19 0 -26 27 -47 83 -63 41 -12 52 -20 68 -53 10 -22 18 -41 16 -42
-2 -2 -16 3 -31 11 -16 8 -37 15 -48 15 -23 0 -130 48 -139 62 -3 5 -9 9 -13
8 -4 0 -20 7 -36 17 -20 12 -35 32 -46 65 -20 61 -5 107 46 145 19 15 37 29
40 32 6 7 72 39 81 40 3 1 15 -29 27 -66z m-407 -198 c-6 -24 -11 -67 -11 -95
0 -36 -3 -49 -12 -44 -6 4 -8 3 -5 -3 8 -13 -11 -125 -24 -137 -5 -6 -9 -30
-9 -55 0 -25 -6 -51 -14 -60 -17 -19 -36 -123 -36 -198 0 -28 -5 -64 -11 -80
-12 -29 -27 -92 -36 -156 -3 -20 -10 -40 -16 -44 -6 -4 -7 -1 -2 7 5 9 4 11
-4 6 -6 -4 -9 -12 -6 -17 10 -14 -5 -50 -17 -43 -7 4 -8 2 -4 -5 8 -12 -75
-194 -93 -206 -6 -3 -11 -15 -11 -26 0 -10 -7 -19 -15 -19 -9 0 -15 -9 -15
-25 0 -14 -4 -25 -10 -25 -5 0 -10 -8 -10 -18 0 -24 -28 -62 -46 -62 -19 0
-19 60 1 86 8 10 15 26 15 35 0 9 14 46 31 83 17 36 28 69 25 75 -3 5 1 14 9
21 8 7 15 26 15 43 0 17 6 38 14 46 7 9 18 39 24 66 11 50 58 195 74 227 4 10
8 29 8 42 0 14 5 28 10 31 6 3 10 18 10 33 0 15 7 40 15 56 8 15 15 37 15 47
0 10 6 33 14 51 21 51 36 102 36 125 0 11 7 26 15 33 8 7 15 19 15 26 0 7 11
48 25 90 14 42 25 87 25 99 0 13 3 31 7 41 12 33 16 -5 4 -51z m3772 -171 c15
-43 33 -97 39 -119 6 -22 17 -49 25 -60 7 -11 13 -29 13 -42 0 -12 4 -24 9
-27 5 -3 11 -18 14 -33 2 -16 9 -41 15 -58 6 -16 16 -50 23 -75 7 -25 16 -49
19 -55 4 -5 10 -27 14 -47 4 -20 13 -50 21 -65 8 -15 15 -36 15 -45 0 -9 5
-20 10 -23 12 -7 14 -55 3 -55 -5 0 -26 5 -48 11 -22 6 -58 14 -80 19 -22 4
-65 16 -95 25 -30 9 -66 19 -80 22 -14 2 -34 8 -45 12 -59 23 -94 34 -130 40
-22 4 -56 13 -75 19 -84 27 -197 54 -224 53 -16 -1 -39 5 -52 14 -13 8 -38 15
-57 15 -18 0 -42 7 -53 15 -10 8 -40 17 -66 21 -27 4 -48 12 -48 18 0 7 16 39
36 71 29 48 33 63 25 81 -9 20 -7 22 32 27 23 3 76 13 117 22 41 9 100 20 130
25 124 20 159 28 239 55 46 15 92 36 102 46 21 21 49 83 49 110 0 20 49 71 64
66 6 -2 23 -39 39 -83z m-184 -18 c-9 -18 -25 -29 -53 -37 -43 -12 -201 -46
-276 -60 -25 -4 -74 -15 -110 -24 -36 -9 -103 -22 -150 -30 -47 -8 -119 -21
-160 -29 -41 -9 -95 -18 -120 -21 -25 -3 -62 -10 -83 -16 -20 -5 -43 -7 -49
-3 -6 4 -8 3 -4 -4 4 -7 -17 -13 -61 -17 -38 -4 -95 -13 -128 -21 -33 -8 -74
-14 -92 -14 -17 0 -34 -4 -37 -9 -3 -5 -45 -12 -92 -16 -47 -4 -100 -13 -118
-20 -17 -7 -78 -15 -135 -18 -58 -4 -107 -10 -110 -14 -3 -4 -26 -9 -51 -10
-25 -1 -82 -7 -127 -14 -46 -7 -85 -10 -88 -7 -3 3 -3 24 1 48 l7 42 36 -7
c20 -4 42 -11 48 -17 8 -6 43 -8 90 -4 43 3 114 8 158 11 44 4 100 13 124 21
25 8 61 14 80 14 20 0 54 5 75 11 22 6 60 12 85 13 59 3 197 24 236 36 17 5
50 10 75 11 25 1 81 10 125 20 44 9 104 20 133 24 28 4 52 10 52 13 0 4 16 8
35 9 19 2 54 10 77 18 24 8 53 15 66 15 13 0 58 7 100 16 42 9 84 16 92 16 54
-2 273 59 325 89 35 22 39 19 24 -15z m-2549 -168 c19 -6 53 -17 75 -24 23 -8
55 -14 72 -14 18 0 35 -4 38 -10 3 -5 20 -10 36 -10 17 0 38 -4 48 -9 9 -5 36
-12 60 -15 23 -2 64 -10 92 -17 l50 -13 -3 -44 c-4 -57 -24 -72 -70 -53 -18 8
-43 14 -55 15 -13 0 -23 4 -23 8 0 4 -26 10 -57 14 -32 3 -69 12 -83 19 -14 7
-44 19 -67 25 -24 7 -40 17 -36 23 3 6 1 7 -5 3 -7 -4 -33 0 -59 8 -27 9 -59
18 -73 20 -19 4 -29 16 -42 51 l-16 46 41 -6 c23 -4 58 -11 77 -17z m1879
-105 c-8 -10 -26 -41 -39 -69 -24 -50 -25 -50 -51 -37 -15 7 -33 20 -40 29 -9
11 -29 15 -76 13 -35 -1 -65 0 -68 3 -3 3 4 13 15 23 11 10 20 16 20 12 0 -3
28 2 63 10 76 19 134 30 166 32 22 1 23 -1 10 -16z m-1864 -43 c54 -23 70 -29
105 -38 19 -6 60 -17 90 -26 173 -50 266 -57 470 -38 254 25 287 29 300 37 12
8 90 17 255 30 33 3 66 7 73 10 17 6 15 -7 -7 -52 -62 -123 -79 -170 -101
-283 -10 -56 -14 -71 -41 -190 -49 -215 -56 -237 -83 -259 -8 -7 -28 -41 -45
-74 -28 -60 -41 -101 -76 -237 -10 -36 -21 -70 -25 -75 -5 -6 -10 -28 -12 -49
-3 -34 -9 -43 -43 -62 -22 -13 -54 -23 -70 -24 -17 0 -35 -4 -40 -9 -6 -5 -48
-21 -95 -36 -47 -15 -92 -33 -100 -40 -28 -25 -63 -22 -76 5 -28 56 -44 99
-44 118 0 12 -4 24 -10 27 -5 3 -10 19 -10 35 0 15 -7 30 -15 34 -8 3 -15 13
-15 23 0 21 -21 81 -35 103 -23 36 -45 86 -45 102 0 10 -4 18 -10 18 -5 0 -10
11 -10 24 0 14 -4 27 -9 30 -5 3 -12 22 -15 41 -4 19 -11 35 -16 35 -6 0 -10
7 -10 15 0 8 -7 31 -16 52 -9 21 -20 47 -25 58 -19 48 -43 104 -64 150 -13 28
-29 68 -35 90 -7 22 -18 54 -25 70 -22 53 -32 79 -50 125 -10 25 -22 54 -27
65 -5 12 -10 27 -12 35 -2 8 -8 28 -14 43 -7 16 -12 34 -12 41 0 6 -4 16 -9
22 -12 13 -22 60 -14 67 7 8 30 4 68 -13z m1506 -29 c-12 -22 -21 -45 -21 -51
0 -6 -7 -18 -15 -26 -8 -9 -15 -26 -15 -40 0 -13 -5 -24 -11 -24 -5 0 -7 -4
-4 -10 3 -5 1 -10 -5 -10 -6 0 -8 -4 -5 -10 3 -5 2 -10 -3 -10 -18 0 -32 -79
-52 -299 -18 -198 -23 -228 -43 -255 -12 -17 -29 -43 -36 -58 -8 -15 -19 -25
-24 -21 -6 3 -7 1 -3 -6 4 -6 1 -18 -7 -26 -19 -19 -126 -23 -137 -6 -4 7 1
45 12 85 11 39 25 94 33 121 7 28 17 61 23 75 15 38 32 117 32 148 0 16 7 53
15 83 9 30 20 72 26 94 12 44 14 49 58 147 16 37 27 76 24 87 -5 21 1 24 72
35 46 6 89 17 94 22 14 14 10 -10 -8 -45z m404 -147 c39 -8 85 -22 103 -30 18
-8 43 -14 55 -14 31 -1 209 -45 234 -59 12 -6 39 -11 59 -11 21 0 45 -6 53
-13 9 -7 52 -22 96 -31 44 -10 85 -21 90 -25 17 -10 98 -30 125 -31 15 0 31
-5 37 -11 6 -6 27 -12 46 -14 19 -2 44 -8 55 -14 12 -6 32 -11 45 -11 57 0 84
-19 101 -72 9 -28 14 -53 11 -56 -2 -3 -17 1 -33 7 -16 7 -38 13 -50 14 -12 1
-22 4 -22 8 0 8 -58 24 -140 39 -35 6 -76 17 -90 24 -14 7 -46 16 -71 19 -25
3 -67 13 -93 22 -26 9 -61 18 -79 20 -48 6 -77 16 -71 26 3 5 -2 6 -10 3 -8
-3 -37 1 -64 10 -27 9 -54 16 -58 15 -5 -2 -40 7 -79 19 -38 11 -88 23 -110
25 -22 2 -49 9 -60 15 -32 18 -134 40 -180 38 -31 -1 -41 2 -38 11 3 7 9 13
13 13 4 0 11 11 14 25 4 14 11 25 16 25 6 0 10 7 10 15 0 19 0 19 85 -1z
m-323 -116 c32 -7 58 -16 58 -21 0 -14 -41 -62 -53 -62 -7 0 -11 -9 -9 -19 2
-11 -1 -15 -7 -11 -7 3 -8 0 -5 -9 3 -9 1 -16 -5 -16 -6 0 -11 -7 -11 -15 0
-9 -7 -18 -15 -21 -8 -4 -15 -11 -15 -18 0 -14 -56 -83 -62 -76 -7 8 17 254
25 268 10 15 26 15 99 0z m328 -53 c74 -18 153 -35 175 -38 34 -4 153 -36 205
-55 8 -3 20 -6 25 -7 41 -10 316 -83 375 -101 25 -7 81 -22 125 -33 147 -36
219 -59 231 -76 7 -9 22 -49 34 -88 11 -40 25 -80 31 -90 14 -26 2 -60 -19
-52 -21 8 -250 7 -263 -1 -6 -3 -40 -8 -77 -11 -37 -3 -71 -9 -77 -14 -5 -5
-21 -9 -36 -9 -15 0 -40 -5 -55 -10 -14 -6 -54 -15 -88 -20 -33 -5 -86 -17
-116 -26 -30 -9 -80 -20 -110 -24 -48 -8 -140 -26 -250 -50 -19 -4 -46 -12
-60 -17 -14 -6 -65 -16 -115 -23 -49 -7 -95 -17 -100 -21 -10 -7 -93 -24 -180
-36 -22 -2 -58 -11 -80 -18 -22 -8 -59 -16 -82 -19 -42 -6 -43 -6 -43 24 0 16
6 44 14 62 21 49 36 123 36 172 0 36 -5 49 -25 64 -23 19 -35 62 -17 62 5 0
14 10 19 23 11 22 132 178 177 227 12 14 29 36 36 50 7 14 20 32 29 41 9 9 39
48 66 88 36 52 53 70 64 65 9 -4 77 -21 151 -39z m-3230 -568 c30 -8 82 -20
115 -26 33 -7 85 -19 115 -28 30 -8 75 -19 100 -25 25 -5 59 -13 76 -19 17 -5
44 -9 61 -9 17 0 36 -7 43 -15 7 -8 27 -15 46 -15 18 0 45 -5 61 -12 15 -6 53
-18 83 -25 30 -7 73 -18 95 -24 38 -10 58 -14 185 -38 30 -5 84 -17 120 -25
36 -9 79 -16 95 -16 17 0 43 -7 59 -15 15 -8 39 -15 52 -15 12 0 26 -5 29 -10
4 -6 11 -8 16 -5 5 4 9 1 9 -4 0 -6 6 -11 13 -11 15 0 37 -41 37 -70 0 -10 5
-22 10 -25 6 -3 10 -10 10 -16 0 -12 -37 -12 -45 1 -3 6 -18 10 -33 10 -15 0
-37 6 -48 14 -11 8 -42 14 -68 14 -30 0 -52 6 -57 14 -5 7 -9 9 -9 3 0 -5 -4
-4 -8 2 -8 12 -26 17 -157 43 -27 5 -70 14 -95 20 -25 6 -61 13 -80 16 -19 3
-48 12 -65 19 -16 7 -56 16 -87 20 -32 4 -56 11 -53 15 2 4 -7 5 -22 2 -18 -3
-24 -1 -19 6 4 7 2 10 -7 7 -7 -3 -29 1 -48 9 -18 7 -59 17 -89 21 -30 4 -66
13 -80 20 -14 7 -54 18 -90 25 -36 6 -71 16 -77 22 -7 6 -13 7 -13 4 0 -4 -10
0 -22 8 -12 9 -32 16 -45 16 -12 0 -32 4 -45 9 -52 21 -131 41 -139 35 -13 -8
-49 15 -44 29 21 60 25 66 42 62 10 -2 43 -11 73 -18z m2414 -22 c11 -8 37
-15 58 -15 21 0 66 -9 99 -20 34 -12 70 -18 81 -14 18 5 20 3 13 -12 -14 -33
-37 -118 -43 -154 -5 -37 -28 -62 -50 -55 -7 3 -10 0 -7 -5 3 -6 -5 -10 -20
-10 -37 0 -173 -28 -217 -45 -20 -8 -40 -11 -42 -6 -6 10 4 64 29 156 9 33 20
76 24 95 14 60 34 100 50 100 3 0 15 -7 25 -15z m2076 -25 c96 -33 116 -48
122 -94 2 -24 -3 -32 -27 -46 -16 -9 -32 -14 -35 -11 -3 3 -30 17 -60 31 -43
19 -70 24 -125 23 -70 -1 -230 -23 -315 -44 -40 -9 -105 -22 -395 -75 -44 -8
-100 -21 -125 -29 -68 -22 -258 -66 -355 -82 -22 -3 -45 -13 -51 -21 -6 -9
-25 -15 -45 -14 -18 0 -44 -5 -58 -13 -15 -7 -53 -18 -86 -24 -33 -7 -80 -17
-105 -23 -64 -15 -119 -28 -165 -38 -22 -5 -76 -18 -120 -30 -159 -42 -250
-64 -265 -65 -25 0 -110 -29 -110 -37 0 -4 -6 -5 -13 -2 -7 2 -54 -11 -105
-31 -50 -19 -98 -35 -106 -35 -9 0 -31 -14 -51 -31 l-35 -31 0 29 c0 16 -4 33
-9 38 -5 6 -11 35 -13 65 l-3 55 51 26 c50 25 80 37 117 45 9 2 45 14 80 25
34 12 70 22 80 21 9 0 29 6 45 14 15 7 39 14 54 14 15 0 39 5 55 12 15 6 34
10 41 9 8 -1 29 5 47 13 18 9 48 18 66 20 33 5 120 23 209 44 25 6 72 16 105
22 33 6 83 17 110 25 28 8 68 16 91 19 65 7 118 18 129 26 6 4 55 15 110 25
55 9 112 22 127 27 16 6 46 10 68 10 22 0 42 3 44 7 3 4 26 8 53 10 26 1 52 6
58 11 5 4 33 11 60 15 28 4 64 13 80 20 17 8 68 21 115 30 47 9 108 23 135 32
102 31 446 40 525 13z m-4700 -99 c0 -22 -4 -43 -10 -46 -5 -3 -10 -19 -10
-35 0 -33 -9 -62 -19 -56 -3 2 -4 -16 -2 -40 2 -29 -3 -53 -13 -69 -9 -13 -16
-39 -16 -58 0 -18 -7 -42 -15 -53 -8 -10 -15 -40 -15 -66 0 -26 -5 -50 -11
-54 -6 -3 -9 -15 -6 -25 3 -11 1 -19 -5 -19 -5 0 -6 -4 -3 -10 3 -5 1 -10 -4
-10 -6 0 -11 -11 -11 -24 0 -13 -7 -26 -15 -30 -8 -3 -15 -14 -15 -25 0 -11
-4 -23 -10 -26 -5 -3 -10 -13 -10 -21 0 -16 -37 -60 -44 -53 -2 2 2 22 10 44
7 22 14 49 14 61 0 11 7 29 15 40 8 10 15 33 15 51 0 32 15 73 52 146 14 27
18 46 12 65 -10 38 -11 55 -1 69 5 7 7 22 6 35 -2 13 2 33 9 44 6 12 9 24 5
27 -3 4 6 31 21 62 14 31 26 64 26 73 0 21 19 42 37 42 8 0 13 -14 13 -39z
m4974 -213 c3 -13 8 -111 12 -218 l6 -195 -29 -34 c-28 -32 -33 -35 -83 -32
-64 3 -90 15 -90 41 0 11 -4 20 -8 20 -5 0 -10 89 -11 197 -1 108 -5 201 -7
205 -3 4 33 8 79 8 66 0 86 3 91 15 8 23 33 18 40 -7z m-5447 -48 c3 -10 15
-22 26 -26 12 -4 27 -13 34 -20 14 -14 76 -34 106 -34 9 0 17 -4 17 -10 0 -14
64 -12 78 2 17 17 16 -8 -3 -80 -8 -31 -20 -83 -26 -115 -6 -31 -14 -55 -17
-53 -4 2 -8 -12 -10 -32 -4 -61 -32 -166 -52 -191 -43 -58 -275 -36 -310 29
-7 13 -7 32 1 62 6 24 16 66 23 95 6 28 15 55 19 59 4 4 7 19 7 33 0 14 6 46
15 71 15 47 43 156 52 203 6 31 32 36 40 7z m3203 -292 c0 -50 -81 -79 -167
-59 -26 6 -60 13 -74 16 -22 4 -25 9 -21 31 7 36 32 43 154 41 l108 -2 0 -27z
m-330 -17 c0 -17 -51 -46 -63 -35 -2 2 -12 -6 -23 -18 l-19 -23 25 20 25 20
-24 -27 c-13 -15 -36 -30 -52 -33 -16 -4 -31 -11 -34 -16 -4 -5 -30 -9 -59 -9
-28 0 -57 -5 -63 -11 -6 -6 -18 -9 -27 -7 -58 12 122 117 202 118 12 0 22 4
22 9 0 6 19 14 43 19 23 6 43 10 45 11 1 1 2 -8 2 -18z m85 -87 c28 -3 62 -13
77 -20 36 -19 65 -17 113 6 55 27 79 25 93 -5 20 -44 13 -173 -8 -160 -5 3 -6
-4 -3 -15 3 -11 1 -20 -4 -20 -6 0 -18 -20 -27 -45 -10 -25 -21 -45 -25 -45
-5 0 -21 19 -36 42 -15 23 -39 54 -52 67 -24 27 -30 51 -13 51 6 0 11 -1 13
-2 1 -1 12 4 23 10 18 10 26 8 48 -13 29 -27 52 -24 62 8 10 31 -45 77 -91 77
-19 0 -35 -4 -35 -10 0 -5 -4 -9 -8 -7 -15 4 -82 -37 -82 -51 0 -7 -4 -10 -10
-7 -5 3 -10 2 -10 -2 0 -5 -15 -25 -34 -45 -19 -20 -32 -39 -29 -42 4 -3 1 -6
-5 -6 -7 0 -12 -9 -12 -20 0 -11 -4 -20 -9 -20 -4 0 -16 -21 -26 -47 -10 -27
-26 -60 -36 -74 -10 -14 -21 -37 -24 -52 -4 -14 -13 -31 -21 -38 -8 -6 -14
-17 -14 -23 0 -10 -50 -119 -72 -156 -5 -8 -14 -27 -20 -42 -7 -14 -23 -32
-36 -38 -23 -10 -24 -9 -18 12 3 13 6 28 6 35 0 7 11 24 25 39 25 27 25 50 -1
40 -20 -8 -27 10 -13 35 8 16 8 27 -1 44 -8 14 -11 53 -9 106 4 72 8 89 31
119 14 19 34 54 44 78 10 23 22 42 26 42 5 0 8 5 8 12 0 22 55 128 67 128 6 0
15 9 18 20 10 31 36 52 59 46 12 -2 44 -8 71 -12z m2525 -213 c0 -44 -10 -55
-62 -69 -40 -11 -212 8 -190 22 6 4 12 21 12 37 0 29 1 30 22 15 25 -18 60
-21 86 -7 20 11 101 38 120 40 8 1 12 -13 12 -38z m-2917 -271 c-1 -155 -6
-236 -13 -238 -6 -2 -17 -10 -24 -18 -21 -20 -28 -17 -16 5 16 31 12 353 -5
436 -8 38 -15 71 -15 72 0 1 12 3 28 5 16 2 31 -3 37 -12 6 -9 9 -106 8 -250z
m-2600 180 c38 -5 79 -4 117 4 l60 13 0 -51 c0 -28 -4 -56 -8 -61 -14 -20 -64
-35 -117 -35 -47 0 -161 22 -172 34 -3 2 1 30 9 61 11 49 15 55 33 50 11 -4
46 -11 78 -15z m5593 -86 c19 -51 12 -122 -23 -209 -22 -57 -26 -56 -78 11
-28 35 -57 64 -65 64 -24 1 27 35 54 38 19 1 23 -2 19 -17 -7 -28 26 -43 58
-28 19 10 25 22 27 55 3 33 0 42 -13 42 -9 0 -14 4 -11 9 6 9 -39 21 -76 21
-79 0 -224 -135 -242 -225 -2 -11 -11 -33 -20 -50 -9 -16 -16 -40 -16 -52 0
-12 -4 -25 -10 -28 -5 -3 -21 -41 -34 -83 -41 -125 -67 -196 -77 -206 -5 -6
-9 -19 -9 -31 0 -12 -7 -30 -15 -41 -8 -10 -15 -28 -15 -39 0 -47 -57 -61 -97
-23 -21 20 -23 30 -23 123 0 87 4 114 30 191 17 49 42 112 55 139 22 47 40 87
64 145 6 14 15 32 19 40 25 43 32 62 32 80 0 11 5 20 10 20 6 0 17 17 26 38
l17 38 65 2 c36 1 70 -2 76 -7 24 -19 95 -23 127 -7 18 9 37 16 43 16 6 0 22
9 36 20 30 23 43 15 66 -46z m-5661 -83 c58 -24 181 -22 222 4 38 23 52 14 72
-44 19 -57 12 -149 -10 -135 -5 3 -6 -2 -3 -11 4 -8 0 -25 -8 -38 -8 -12 -23
-43 -33 -69 -16 -44 -45 -66 -45 -35 0 6 -30 47 -66 90 -36 42 -59 77 -52 77
8 0 32 9 53 20 l40 21 18 -22 c16 -20 16 -24 2 -45 -20 -31 -19 -54 3 -54 21
0 40 20 62 63 12 25 12 31 -2 55 -15 25 -22 27 -94 30 -75 3 -77 2 -105 -29
-16 -18 -29 -29 -29 -25 0 4 -18 -12 -40 -36 -22 -24 -40 -49 -40 -55 0 -7 -3
-13 -7 -13 -8 0 -35 -50 -88 -163 -14 -31 -30 -55 -34 -53 -4 3 -8 -10 -9 -27
-2 -17 -9 -38 -17 -47 -8 -9 -15 -22 -15 -28 0 -7 -4 -12 -10 -12 -5 0 -10 -5
-10 -11 0 -19 -62 -139 -72 -139 -5 0 -6 -4 -3 -10 3 -5 1 -10 -4 -10 -6 0
-11 -7 -11 -16 0 -21 -22 -42 -54 -50 -20 -5 -32 0 -57 26 l-32 31 6 91 c3 49
12 99 19 111 8 12 20 42 28 67 7 25 18 52 25 60 6 8 26 45 44 83 18 37 38 67
42 67 5 0 9 9 9 20 0 11 7 23 15 26 8 4 15 12 15 20 0 17 67 151 92 184 10 14
33 34 50 46 34 22 44 21 133 -15z m-430 -370 c-8 -17 -23 -36 -33 -43 -12 -8
-21 -32 -26 -67 -4 -29 -14 -64 -23 -78 -25 -38 -25 -233 0 -260 9 -11 17 -24
17 -30 0 -17 54 -34 100 -31 24 1 57 11 73 23 30 19 78 90 92 134 3 12 17 33
31 46 16 16 24 36 24 57 0 18 7 44 15 58 8 14 17 32 21 40 22 54 39 77 51 73
7 -3 13 -11 13 -19 0 -8 3 -14 8 -14 9 0 28 -40 53 -109 23 -64 24 -159 4
-216 -8 -22 -15 -53 -15 -68 0 -39 -21 -77 -64 -115 -10 -9 -28 -27 -39 -39
-52 -57 -174 -83 -221 -48 -11 8 -27 15 -35 15 -17 0 -110 70 -95 70 5 0 2 5
-8 10 -30 18 -116 199 -101 213 3 3 2 11 -3 18 -6 11 -6 93 0 154 5 42 30 102
60 140 40 52 53 65 64 65 5 0 14 11 20 25 6 14 16 25 22 25 6 0 4 -12 -5 -29z
m3236 9 c11 0 22 -7 25 -15 4 -10 21 -15 53 -16 61 -1 122 -22 100 -35 -9 -5
-18 -17 -22 -27 -10 -28 -85 -55 -138 -50 l-46 5 5 49 c3 29 1 49 -6 49 -15 0
-23 43 -9 52 7 4 14 3 15 -2 2 -6 12 -10 23 -10z m2142 8 c-19 -30 -33 -87
-33 -136 0 -37 -4 -54 -15 -58 -16 -7 -21 -49 -6 -58 5 -3 12 -35 16 -71 3
-36 11 -65 16 -65 5 0 9 -6 9 -13 0 -7 13 -25 28 -40 24 -23 37 -27 86 -27 53
0 60 3 97 39 41 40 72 91 84 138 7 28 38 104 55 135 6 10 10 27 10 39 0 11 7
27 15 35 8 9 15 32 16 52 0 32 1 34 9 15 5 -13 13 -23 19 -23 10 0 30 -42 71
-150 20 -50 25 -183 8 -212 -7 -13 -13 -30 -14 -38 -1 -18 -45 -89 -69 -113
-9 -10 -13 -17 -8 -17 8 0 -40 -32 -86 -57 -32 -18 -96 -16 -111 2 -7 8 -23
15 -36 15 -12 0 -26 5 -29 10 -3 6 -14 10 -24 10 -31 0 -104 84 -132 153 -6
15 -14 27 -17 27 -4 0 -8 15 -9 32 -2 18 -7 34 -13 36 -13 5 -14 242 -1 242 5
0 12 10 16 23 9 32 28 71 40 79 15 11 17 10 8 -4z m-2270 -119 c6 -45 4 -54
-16 -70 -44 -37 -83 -43 -189 -29 l-98 12 0 65 c0 51 3 63 13 55 34 -27 235
-25 260 4 20 22 24 16 30 -37z m71 -184 c18 -38 25 -140 12 -175 -3 -8 -16
-45 -30 -82 -13 -36 -22 -69 -19 -72 4 -3 2 -6 -3 -6 -9 1 -56 62 -81 104 -7
12 -16 21 -20 21 -5 0 -18 9 -31 21 l-22 20 30 22 c16 12 41 22 55 22 21 0 25
-5 25 -29 0 -16 7 -34 15 -41 25 -21 67 32 64 79 -3 44 -15 62 -36 54 -9 -4
-14 -2 -11 3 4 5 -19 9 -52 9 -32 0 -56 -3 -53 -7 2 -5 -4 -8 -13 -8 -18 0
-103 -63 -140 -102 -24 -26 -74 -129 -74 -152 0 -8 -5 -18 -12 -22 -7 -5 -8
-3 -3 6 5 9 4 11 -4 6 -6 -4 -9 -12 -5 -17 6 -11 -17 -87 -50 -163 -11 -27
-21 -52 -21 -55 -2 -19 -18 -51 -26 -51 -5 0 -9 -11 -9 -24 0 -14 -4 -28 -10
-31 -5 -3 -10 -16 -10 -28 0 -13 -6 -32 -14 -43 -8 -11 -22 -46 -31 -77 -9
-32 -20 -55 -23 -53 -4 2 -7 -9 -8 -25 -1 -35 -17 -55 -51 -64 -25 -6 -63 16
-63 37 0 4 -9 17 -21 29 -19 19 -20 30 -17 125 2 75 7 107 17 113 7 5 10 14 7
20 -4 6 -3 11 2 11 4 0 26 52 47 116 21 64 46 132 57 152 10 20 18 42 18 50 0
8 6 26 14 40 8 15 24 53 36 85 25 72 65 145 93 172 19 18 29 20 91 13 39 -4
94 -11 122 -17 69 -14 165 9 186 44 16 26 52 11 72 -30z m-796 -512 c-17 -20
-24 -44 -45 -153 -21 -108 -26 -189 -15 -214 6 -11 15 -37 21 -56 6 -19 33
-60 60 -90 40 -45 51 -53 63 -43 10 9 24 10 48 3 21 -6 39 -6 51 1 26 14 24
28 -3 22 -17 -4 -7 10 35 51 39 38 64 72 74 102 8 24 19 44 24 44 5 0 9 11 9
25 0 14 5 25 11 25 5 0 7 5 3 11 -3 6 3 24 15 40 11 15 21 35 21 43 0 7 8 17
17 20 12 5 14 9 6 14 -18 12 -18 35 1 72 10 19 20 36 21 38 2 2 14 -2 27 -9
12 -7 30 -15 38 -19 26 -12 50 -101 40 -146 -5 -21 -6 -73 -3 -115 5 -68 3
-81 -16 -112 -11 -19 -21 -44 -21 -55 0 -26 -92 -133 -128 -149 -33 -15 -182
-17 -182 -3 0 6 -16 8 -41 4 -40 -7 -41 -6 -119 72 -84 86 -124 151 -109 175
12 20 11 67 -2 71 -14 5 -13 138 1 152 6 6 10 25 10 42 0 18 5 36 10 39 6 3
10 13 10 20 0 22 53 94 69 95 12 0 11 -3 -1 -17z"/>
</g>
</svg>
