<?xml version="1.0" standalone="no"?>
<!DOCTYPE svg PUBLIC "-//W3C//DTD SVG 20010904//EN"
 "http://www.w3.org/TR/2001/REC-SVG-20010904/DTD/svg10.dtd">
<svg version="1.0" xmlns="http://www.w3.org/2000/svg"
 width="1166.000000pt" height="916.000000pt" viewBox="0 0 1166.000000 916.000000"
 preserveAspectRatio="xMidYMid meet">
<metadata>
Created by potrace 1.16, written by Peter Selinger 2001-2019
</metadata>
<g transform="translate(0.000000,916.000000) scale(0.100000,-0.100000)"
fill="#000000" stroke="none">
<path d="M7123 8533 c-18 -2 -33 -9 -33 -14 0 -6 -5 -7 -10 -4 -6 3 -13 -1
-16 -9 -3 -9 -10 -16 -16 -16 -5 0 -16 -7 -24 -15 -14 -14 -43 -10 -55 8 -6 8
-34 10 -123 7 -16 0 -35 -5 -43 -11 -7 -6 -19 -9 -28 -5 -8 3 -28 -2 -45 -12
-29 -17 -39 -32 -21 -32 5 0 -4 -14 -20 -31 -16 -17 -29 -36 -29 -43 0 -6 -6
-22 -13 -37 -38 -72 -27 -222 23 -295 16 -25 30 -49 30 -53 0 -5 7 -11 15 -15
16 -6 21 -41 6 -50 -5 -3 -7 -15 -4 -26 3 -11 9 -18 13 -15 5 3 5 -5 2 -17 -5
-19 -7 -20 -10 -5 -5 26 -18 20 -32 -15 -7 -18 -28 -64 -45 -103 -18 -38 -38
-88 -46 -110 -7 -22 -21 -51 -31 -64 -10 -13 -18 -29 -18 -36 0 -22 -36 -45
-84 -51 -25 -4 -49 -11 -52 -15 -3 -5 -16 -9 -30 -9 -13 0 -33 -4 -44 -10 -11
-5 -28 -14 -38 -19 -10 -5 -46 -12 -80 -16 -34 -4 -62 -10 -62 -15 0 -10 -75
-37 -127 -45 -23 -4 -44 -12 -46 -19 -3 -7 -24 -18 -48 -25 -58 -17 -119 -44
-119 -53 0 -4 8 -8 18 -11 9 -2 -2 -2 -26 1 -29 3 -48 0 -60 -10 -9 -8 -33
-21 -52 -28 -35 -13 -122 -53 -150 -70 -74 -44 -168 -96 -182 -102 -10 -4 -18
-12 -18 -17 0 -5 -11 -12 -25 -15 -13 -3 -29 -15 -35 -26 -6 -11 -18 -20 -27
-20 -16 0 -26 -8 -77 -57 -13 -13 -26 -23 -30 -23 -8 0 -146 -140 -146 -148 0
-3 -15 -23 -33 -46 -70 -85 -154 -286 -174 -413 -3 -18 -9 -33 -13 -33 -4 0
-8 -10 -8 -22 0 -13 -7 -54 -16 -93 -9 -38 -19 -92 -21 -120 -14 -144 -16
-195 -7 -195 6 0 12 6 15 13 2 6 4 -15 4 -48 0 -44 -1 -49 -4 -17 -4 41 -27
60 -30 25 -6 -55 -3 -561 3 -688 10 -210 8 -629 -4 -695 -17 -97 -39 -168 -61
-198 -12 -17 -21 -36 -21 -44 0 -7 -7 -24 -16 -37 -36 -50 -131 -229 -152
-286 -13 -33 -29 -66 -35 -75 -7 -8 -19 -33 -26 -55 -7 -22 -21 -58 -31 -80
-21 -44 -81 -216 -98 -280 -17 -63 -31 -154 -36 -231 -3 -39 -10 -83 -16 -98
-12 -33 -13 -130 -1 -211 5 -33 17 -107 25 -165 16 -110 30 -165 52 -215 7
-16 19 -45 26 -64 46 -119 162 -320 186 -321 6 0 12 -6 12 -14 0 -8 3 -16 8
-18 4 -2 22 -20 40 -41 17 -21 32 -35 32 -33 0 3 13 -7 29 -22 49 -44 163
-122 180 -122 5 0 29 -10 53 -21 23 -12 52 -25 63 -29 11 -4 34 -13 50 -21 17
-7 38 -14 48 -15 10 -1 28 -6 40 -12 12 -5 42 -15 67 -22 25 -7 54 -16 65 -20
11 -5 31 -11 45 -13 14 -3 68 -14 120 -25 128 -28 158 -33 207 -37 22 -1 47
-6 53 -10 7 -5 34 -9 59 -10 25 -2 48 -4 51 -5 3 -2 23 -5 45 -6 22 -2 103
-10 180 -18 77 -9 174 -18 215 -20 41 -3 122 -8 180 -12 58 -4 143 -8 190 -10
47 -1 166 -5 265 -8 99 -4 198 -6 220 -5 22 1 51 2 65 2 14 0 59 -1 100 -2 41
-1 167 1 280 4 113 3 228 4 255 3 28 -1 61 -1 75 0 14 1 91 4 171 6 80 3 188
12 240 20 52 8 138 14 191 14 114 0 115 0 486 58 327 50 361 58 383 86 16 20
29 24 189 57 47 10 92 20 100 23 57 21 150 48 164 48 9 0 27 6 39 14 12 8 38
17 57 21 19 4 55 18 79 31 24 13 50 24 58 24 8 0 36 11 62 24 25 13 65 32 88
43 24 10 43 21 43 26 0 4 12 7 28 7 16 0 32 8 40 20 7 11 22 20 35 20 12 0 30
9 40 20 9 11 23 20 30 20 8 0 22 9 32 20 10 11 22 20 28 20 5 0 30 17 56 38
25 20 62 48 81 62 49 34 53 37 128 114 118 121 202 223 202 246 0 6 4 10 9 10
7 0 124 221 127 239 0 3 3 13 6 21 20 57 28 90 28 113 0 14 4 29 10 32 5 3 10
16 10 28 -1 12 2 94 4 182 5 163 -4 260 -38 389 -16 62 -14 89 3 42 15 -39 31
-32 24 12 -5 37 -16 66 -56 151 -11 24 -20 51 -20 60 0 9 -7 25 -17 36 -28 33
-67 107 -81 153 -7 24 -29 62 -49 85 -21 23 -40 52 -44 63 -4 12 -27 40 -51
62 -25 23 -45 45 -45 49 0 5 -11 20 -24 34 -13 14 -31 40 -40 58 -10 18 -24
35 -32 38 -7 3 -14 10 -14 15 0 5 -31 49 -68 96 -37 48 -92 119 -121 157 -30
39 -64 79 -75 90 -12 11 -29 29 -37 41 -17 26 -95 118 -132 158 -15 17 -40 46
-55 65 -15 19 -39 47 -54 63 -35 36 -51 69 -67 138 -8 30 -17 60 -21 65 -4 6
-11 30 -15 55 -4 25 -13 55 -21 67 -8 12 -14 29 -14 38 0 8 -4 23 -9 33 -29
60 -40 93 -46 136 -4 27 -10 56 -15 65 -21 41 -30 86 -89 430 -27 161 -63 330
-98 461 -8 30 -17 67 -20 83 -3 15 -9 27 -14 27 -5 0 -9 15 -9 34 0 18 -6 39
-14 45 -8 7 -18 27 -22 44 -3 18 -15 44 -25 59 -11 14 -19 33 -19 42 0 9 -4
16 -8 16 -5 0 -14 12 -21 26 -15 33 -86 126 -140 182 -23 24 -41 47 -41 52 0
6 -5 10 -11 10 -6 0 -29 15 -50 33 -65 55 -218 157 -235 157 -4 0 -36 14 -71
30 -34 17 -69 30 -76 30 -7 0 -17 4 -23 9 -12 12 -130 51 -152 51 -10 0 -27 6
-37 14 -11 8 -25 12 -32 9 -7 -3 -24 2 -38 11 -14 9 -30 14 -34 11 -5 -3 -22
0 -38 7 -15 6 -41 12 -58 14 -16 1 -55 7 -85 13 -100 20 -283 39 -440 46 -102
4 -180 16 -180 26 0 5 -7 9 -15 9 -9 0 -37 15 -62 33 -53 36 -173 152 -173
167 0 5 -9 12 -20 15 -11 3 -20 13 -20 21 0 8 -11 24 -25 36 -31 27 -32 60 -2
107 33 54 43 90 45 162 2 84 -13 136 -66 222 -23 39 -125 112 -142 102 -5 -3
-11 -1 -15 5 -6 10 -57 11 -122 3z m89 -253 c14 -24 19 -46 16 -79 -6 -63 -10
-73 -36 -94 -34 -28 -58 -19 -54 23 5 74 1 110 -19 154 -11 26 -17 50 -14 56
10 16 86 -26 107 -60z m-407 -37 c19 -9 41 -29 47 -45 7 -15 16 -28 20 -28 13
0 9 -45 -7 -83 -18 -43 -63 -87 -85 -83 -64 12 -110 73 -110 147 0 48 29 96
63 102 12 2 25 5 29 6 4 0 23 -7 43 -16z m295 -281 c0 -8 55 -25 118 -37 26
-5 36 -15 52 -50 11 -24 20 -50 20 -57 0 -7 11 -35 24 -63 13 -27 27 -57 31
-65 3 -8 12 -26 20 -40 19 -33 8 -39 -92 -44 -73 -4 -410 -53 -424 -62 -4 -2
-14 5 -23 14 -12 15 -14 25 -6 53 6 18 13 65 16 104 4 38 10 78 16 88 5 10 6
26 3 37 -7 22 9 34 50 37 65 4 97 17 133 53 35 36 62 50 62 32z m1180 -612
c47 -5 103 -11 125 -14 81 -7 146 -19 151 -27 3 -5 17 -9 31 -9 29 0 138 -27
163 -39 9 -5 31 -12 50 -16 19 -4 40 -12 47 -17 7 -5 16 -7 22 -4 5 4 16 -1
24 -9 9 -8 20 -15 26 -15 12 0 18 -3 86 -39 22 -11 56 -28 75 -37 19 -9 47
-26 61 -38 15 -11 41 -32 60 -46 81 -62 229 -237 229 -272 0 -10 4 -18 9 -18
5 0 15 -17 22 -37 6 -21 15 -42 19 -48 4 -5 15 -36 24 -67 10 -32 22 -60 27
-64 5 -3 9 -16 9 -29 0 -13 5 -27 10 -30 6 -3 10 -20 10 -36 0 -17 6 -42 14
-57 7 -15 17 -49 20 -77 10 -71 17 -96 25 -90 4 2 6 -8 3 -23 -2 -15 6 -57 18
-92 12 -36 26 -92 31 -125 6 -33 20 -91 33 -130 13 -38 27 -83 31 -100 3 -16
15 -49 26 -72 11 -24 22 -58 26 -76 3 -17 12 -41 18 -52 7 -11 16 -33 19 -49
4 -17 16 -42 27 -57 10 -15 19 -38 19 -52 0 -13 7 -30 15 -37 8 -7 15 -18 15
-24 0 -6 6 -22 13 -36 17 -33 29 -90 19 -90 -5 0 -30 26 -57 58 -27 31 -55 61
-62 65 -7 4 -13 13 -13 19 0 6 -10 20 -23 32 -33 31 -147 173 -147 183 0 5 -8
18 -18 29 -9 10 -23 30 -30 44 -36 71 -64 101 -79 86 -6 -6 91 -201 108 -216
3 -3 16 -23 29 -45 12 -22 28 -45 34 -50 14 -13 56 -72 56 -79 0 -13 205 -272
254 -322 35 -35 104 -116 125 -147 8 -12 31 -41 50 -63 20 -23 48 -57 63 -75
15 -19 40 -50 56 -69 16 -19 39 -52 51 -72 12 -21 26 -38 31 -38 4 0 16 -17
25 -37 10 -21 28 -49 40 -63 24 -26 58 -79 74 -117 5 -11 14 -24 20 -27 12 -8
41 -65 41 -81 0 -7 7 -18 15 -25 17 -14 55 -91 55 -112 0 -7 9 -24 20 -38 11
-14 20 -33 20 -42 0 -9 5 -20 11 -23 14 -9 33 -56 30 -77 -1 -10 4 -18 12 -18
15 0 37 -40 37 -68 0 -20 23 -89 33 -98 4 -4 7 -19 7 -34 0 -14 4 -30 9 -35
10 -11 30 -148 26 -185 -1 -14 -5 -33 -9 -42 -5 -10 -5 -26 -1 -35 9 -21 6
-94 -4 -108 -6 -9 -7 -138 0 -160 3 -13 -12 -107 -19 -120 -3 -5 -7 -16 -8
-25 -4 -29 -42 -119 -63 -149 -12 -16 -21 -33 -21 -38 0 -20 -200 -233 -219
-233 -5 0 -11 -4 -13 -8 -6 -16 -135 -104 -186 -127 -18 -8 -46 -24 -62 -35
-15 -11 -34 -20 -41 -20 -6 0 -27 -11 -45 -25 -18 -14 -44 -25 -59 -25 -14 0
-28 -7 -31 -15 -4 -8 -14 -15 -24 -15 -11 0 -22 -4 -25 -10 -3 -6 -21 -10 -39
-10 -19 0 -39 -7 -46 -15 -7 -8 -21 -15 -31 -15 -10 0 -20 -4 -23 -9 -4 -5
-29 -12 -56 -16 -28 -4 -57 -13 -65 -21 -7 -8 -22 -14 -32 -14 -11 0 -23 -4
-29 -9 -14 -13 -114 -24 -114 -12 0 14 -61 3 -148 -25 -40 -13 -83 -24 -95
-24 -13 0 -32 -7 -43 -15 -10 -8 -32 -15 -49 -16 -16 -1 -22 -3 -13 -6 9 -2
39 0 67 5 28 5 48 6 46 2 -6 -9 -185 -34 -192 -26 -4 3 9 6 27 6 18 0 31 3 28
6 -3 3 -34 2 -69 -2 -57 -7 -60 -9 -29 -14 25 -4 -20 -13 -157 -34 -105 -15
-197 -26 -205 -23 -7 3 1 6 17 7 17 1 64 7 105 14 l75 14 -70 -4 c-130 -6
-457 -34 -466 -39 -4 -3 -74 -8 -156 -10 -81 -3 -164 -8 -183 -11 -19 -4 -91
-8 -160 -10 -69 -2 -174 -6 -235 -9 -60 -3 -168 -7 -240 -10 -71 -2 -159 -6
-193 -9 -35 -3 -73 -1 -84 3 -11 4 -53 2 -94 -4 -47 -8 -93 -9 -126 -4 -31 5
-75 5 -104 0 -29 -6 -76 -6 -110 -2 -32 5 -63 6 -68 3 -11 -6 -383 -4 -631 3
-168 5 -243 10 -360 24 -44 5 -105 12 -135 16 -30 3 -68 8 -85 11 -16 2 -47 6
-67 9 -21 2 -46 9 -57 14 -10 6 -20 9 -22 6 -2 -2 -31 3 -64 12 -33 8 -77 17
-98 20 -20 3 -40 9 -43 14 -3 5 -16 9 -29 9 -13 0 -27 5 -30 10 -3 6 -17 10
-30 10 -12 0 -25 6 -28 14 -3 7 -29 19 -57 26 -28 7 -60 22 -70 33 -11 11 -35
30 -54 41 -68 42 -122 81 -142 103 -12 13 -24 23 -28 23 -12 0 -81 83 -94 114
-8 17 -18 38 -23 46 -5 8 -14 26 -19 40 -6 14 -14 33 -20 42 -5 9 -21 63 -36
120 -21 86 -26 127 -27 248 -1 80 2 165 5 190 10 66 36 188 52 245 8 28 22 76
30 108 9 32 25 78 36 103 11 24 23 59 27 77 3 17 10 35 15 38 5 3 10 16 13 28
5 29 52 148 70 183 8 14 15 31 15 36 0 6 5 23 11 39 6 15 9 28 7 28 -2 0 7 13
20 29 12 16 22 37 22 46 0 10 23 62 50 116 28 55 50 101 50 104 0 3 13 32 29
65 35 74 57 128 53 138 -1 4 3 7 8 7 6 0 10 6 10 14 0 7 6 18 13 24 17 14 16
67 -1 67 -13 0 -102 -134 -125 -187 -16 -39 -37 -36 -37 5 0 19 3 36 6 40 4 3
7 30 9 59 1 29 5 100 9 158 12 218 17 600 7 600 -5 0 -11 -6 -14 -12 -2 -7 -5
21 -5 62 -1 41 1 80 6 87 4 7 6 -20 4 -60 -2 -61 -1 -69 10 -52 6 11 14 54 15
95 7 162 22 329 38 422 33 196 60 306 100 417 54 150 70 186 82 194 7 4 13 13
13 20 0 12 54 83 103 136 20 22 128 105 205 158 18 13 39 23 46 23 7 0 23 11
36 25 12 13 26 22 31 20 4 -3 21 6 37 20 16 14 39 25 50 25 12 0 24 5 27 11 4
5 19 15 33 20 19 7 23 12 13 18 -10 6 -9 10 4 14 9 4 13 3 10 -3 -10 -16 41
-12 54 4 7 8 24 17 39 21 15 3 45 14 67 24 22 10 66 26 97 36 32 9 60 21 64
26 3 5 14 9 26 9 11 0 36 7 56 16 21 9 46 20 57 24 11 4 33 13 48 19 15 6 36
11 46 11 10 0 59 13 109 30 49 16 139 37 198 45 60 9 118 20 129 25 52 21 121
37 330 76 249 47 231 45 589 68 43 3 80 7 83 10 8 8 558 -3 643 -14z"/>
<path d="M7470 7270 c-63 -4 -142 -12 -175 -18 -33 -6 -91 -14 -130 -16 -89
-6 -249 -32 -272 -44 -10 -5 -61 -15 -113 -22 -52 -7 -99 -17 -105 -21 -5 -5
-19 -9 -30 -9 -12 0 -25 -3 -29 -7 -4 -4 -31 -13 -59 -19 -106 -24 -173 -42
-212 -58 -22 -8 -47 -15 -56 -16 -8 0 -37 -11 -65 -24 -27 -12 -64 -26 -82
-29 -19 -4 -45 -16 -59 -27 -14 -11 -34 -20 -45 -20 -24 0 -78 -28 -78 -40 0
-6 -13 -10 -28 -10 -15 0 -43 -11 -62 -25 -19 -14 -41 -25 -50 -25 -9 0 -25
-9 -35 -20 -10 -11 -26 -20 -35 -20 -9 0 -25 -9 -35 -20 -10 -11 -22 -20 -27
-20 -8 0 -134 -85 -154 -104 -6 -6 -23 -20 -39 -31 -75 -54 -232 -211 -290
-290 -16 -22 -31 -42 -34 -45 -38 -34 -161 -322 -161 -375 0 -11 -4 -25 -9
-30 -13 -14 -30 -208 -24 -277 4 -40 10 -58 19 -58 9 0 14 11 13 33 -4 119 45
323 103 426 72 129 90 154 187 256 45 47 122 115 130 115 3 0 25 18 49 40 24
22 49 40 56 40 7 0 21 9 31 20 10 11 23 20 30 20 7 0 20 9 30 20 10 11 24 20
32 20 8 0 31 11 51 25 20 14 44 25 53 25 9 0 21 6 27 13 6 6 33 21 61 32 28
11 51 22 51 26 0 3 21 12 48 19 26 7 61 20 77 28 17 8 38 19 47 23 10 5 28 9
42 9 13 0 43 9 67 19 24 11 65 22 92 26 26 4 50 11 53 16 3 5 14 9 26 9 11 0
34 6 51 14 18 8 75 22 127 31 52 9 133 25 180 36 47 10 108 22 135 25 28 4 55
10 60 15 12 9 264 48 345 54 30 2 86 8 123 14 37 7 71 9 75 7 5 -3 64 4 132
14 69 11 165 20 215 21 329 5 519 -4 665 -31 36 -7 79 -13 95 -14 17 0 33 -5
36 -10 4 -4 20 -9 37 -10 17 -1 34 -5 38 -9 4 -4 20 -7 35 -7 15 0 30 -4 34
-9 3 -5 20 -13 38 -16 17 -4 48 -15 67 -25 19 -10 80 -40 134 -66 75 -37 124
-70 200 -138 56 -49 108 -101 117 -115 9 -14 26 -36 38 -48 41 -43 91 -138
133 -250 29 -80 40 -95 53 -73 6 10 -19 105 -33 124 -5 6 -12 26 -16 44 -7 40
-81 193 -110 231 -12 14 -25 33 -31 42 -39 63 -71 101 -121 150 -70 66 -170
149 -182 149 -4 0 -24 12 -43 26 -34 26 -230 124 -248 124 -6 0 -29 10 -53 23
-24 12 -70 29 -103 36 -32 7 -66 17 -75 21 -8 4 -42 13 -75 20 -33 6 -78 16
-100 21 -52 12 -167 28 -230 33 -110 9 -517 13 -625 6z"/>
<path d="M8520 5349 c-74 -4 -155 -11 -180 -17 -25 -5 -88 -15 -140 -21 -52
-6 -176 -20 -275 -32 -310 -35 -539 -72 -805 -129 -102 -22 -228 -46 -280 -55
-164 -26 -252 -44 -335 -70 -93 -28 -303 -79 -418 -101 -43 -8 -104 -26 -134
-40 -31 -13 -61 -24 -69 -24 -18 0 -28 -20 -16 -32 6 -6 33 1 80 21 39 17 116
40 172 51 120 24 300 68 425 103 50 14 135 33 190 42 144 24 282 51 430 84
121 27 506 92 620 105 28 3 113 13 190 21 276 30 331 37 414 51 46 8 126 14
177 14 86 0 121 10 98 29 -5 3 -70 3 -144 0z"/>
<path d="M9290 4630 c-41 -5 -205 -20 -365 -34 -458 -41 -484 -44 -600 -70
-126 -29 -241 -42 -440 -52 -90 -4 -174 -14 -237 -29 -53 -13 -122 -27 -152
-30 -40 -5 -56 -12 -56 -22 0 -19 68 -12 208 22 61 15 145 26 227 30 204 10
319 23 475 54 80 16 188 32 240 35 101 7 466 40 615 56 50 5 138 12 198 16 80
5 107 10 107 20 0 16 -91 17 -220 4z"/>
<path d="M2790 5490 c-63 -11 -161 -26 -217 -35 -56 -9 -126 -25 -155 -37 -29
-11 -73 -24 -98 -29 -25 -6 -56 -16 -70 -23 -14 -7 -38 -16 -55 -20 -40 -10
-152 -62 -160 -76 -3 -5 -14 -10 -24 -10 -10 0 -24 -7 -31 -15 -7 -8 -18 -15
-26 -15 -17 0 -77 -39 -132 -86 -41 -36 -89 -110 -78 -121 3 -3 32 22 66 56
33 33 67 61 75 61 8 0 15 4 15 8 0 8 111 62 128 62 5 0 15 7 22 15 7 8 21 15
31 15 11 0 36 9 56 20 21 11 50 20 64 20 24 0 58 11 124 40 11 4 54 13 95 20
270 41 405 58 475 60 130 3 257 1 300 -5 22 -3 77 -10 122 -15 138 -18 244
-61 279 -115 14 -22 14 -27 -2 -60 -17 -36 -85 -102 -134 -130 -81 -46 -205
-105 -220 -105 -10 0 -23 -6 -29 -14 -7 -8 -31 -17 -54 -21 -23 -4 -57 -13
-75 -21 -18 -8 -56 -19 -85 -24 -28 -6 -77 -17 -107 -26 -57 -16 -149 -38
-235 -55 -76 -15 -261 -24 -440 -22 -146 1 -215 10 -305 39 -8 3 -16 5 -18 4
-1 0 -27 13 -58 30 -72 39 -86 38 -44 -5 48 -50 154 -90 295 -113 66 -11 131
-20 145 -20 26 -1 182 -2 339 -2 91 0 415 42 456 59 11 5 38 17 60 27 39 17
105 27 105 15 -1 -14 -81 -44 -154 -57 -45 -8 -112 -21 -151 -29 -38 -8 -106
-17 -150 -20 -44 -3 -107 -10 -140 -15 -33 -5 -96 -10 -140 -10 -44 -1 -89 -1
-100 -1 -11 -1 -76 0 -145 1 -118 2 -125 2 -134 -19 -5 -12 -7 -24 -3 -27 9
-10 63 -14 232 -20 151 -5 176 -3 440 36 211 31 293 48 333 66 28 13 70 27 92
30 22 4 45 13 51 20 6 8 24 14 40 14 17 0 37 9 46 20 10 11 27 20 40 20 12 0
25 5 29 11 3 6 21 18 38 26 51 24 80 41 91 56 5 7 19 17 30 22 19 8 19 9 -2
12 -13 3 -23 9 -23 14 0 6 8 8 19 4 29 -9 54 4 40 21 -9 11 -8 14 2 14 16 0
128 119 129 136 0 7 7 24 15 40 l14 28 11 -29 c14 -38 33 -241 26 -278 -7 -32
-92 -137 -111 -137 -7 0 -15 -7 -19 -15 -3 -8 -12 -15 -19 -15 -8 0 -22 -9
-32 -20 -10 -11 -26 -20 -35 -20 -10 0 -23 -7 -30 -15 -7 -8 -20 -15 -30 -15
-10 0 -23 -7 -30 -15 -7 -8 -22 -15 -34 -15 -12 0 -39 -9 -61 -20 -22 -11 -46
-20 -55 -20 -9 0 -41 -12 -71 -27 -30 -14 -88 -32 -129 -38 -75 -12 -146 -28
-207 -46 -58 -18 -215 -40 -317 -45 -56 -2 -130 -9 -166 -13 -81 -11 -317 -2
-352 13 -9 4 -22 5 -27 2 -6 -4 -18 -3 -28 2 -10 6 -40 15 -68 21 -65 16 -147
56 -175 86 -13 14 -27 44 -31 67 -40 213 -45 231 -60 207 -5 -8 -6 -53 -3
-101 5 -80 4 -88 -13 -88 -22 0 -88 -61 -108 -100 -12 -23 -14 -52 -9 -131 3
-57 7 -106 10 -111 3 -5 3 -21 -1 -37 -4 -20 -16 -31 -41 -42 -40 -15 -75 -52
-101 -106 -14 -30 -15 -44 -6 -87 19 -91 111 -170 253 -219 76 -25 147 -42
164 -38 5 1 16 -1 25 -5 32 -13 225 -19 376 -10 157 9 258 24 350 51 44 13
107 29 140 35 33 7 76 20 95 30 19 11 69 28 110 40 41 12 89 27 105 35 17 7
51 19 78 25 26 7 47 17 47 21 0 5 12 9 28 9 15 0 45 12 67 25 22 14 47 25 56
25 9 0 19 7 23 15 3 8 13 15 22 15 27 0 179 107 252 178 104 101 115 121 115
206 -1 39 -7 87 -16 106 l-15 35 -10 -25 c-5 -14 -9 -52 -7 -85 3 -54 -1 -65
-30 -110 -28 -43 -97 -109 -130 -125 -5 -3 -36 -22 -67 -43 -31 -20 -61 -37
-66 -37 -5 0 -15 -7 -22 -15 -7 -8 -25 -15 -40 -15 -15 0 -33 -7 -40 -15 -7
-8 -20 -15 -29 -15 -10 0 -46 -11 -82 -25 -35 -14 -93 -32 -129 -40 -36 -7
-83 -19 -105 -25 -22 -6 -103 -22 -180 -35 -77 -14 -163 -29 -192 -34 -31 -6
-65 -6 -83 -1 -17 5 -28 6 -26 2 12 -20 -306 -17 -459 3 -52 7 -188 51 -245
79 -82 40 -105 65 -120 127 -13 58 -27 107 -43 152 -14 39 -3 44 32 14 26 -21
81 -51 146 -77 48 -19 135 -40 195 -46 36 -4 70 -9 75 -12 19 -12 222 -15 398
-7 133 6 333 38 407 65 30 11 64 20 75 20 23 0 63 25 54 34 -7 7 -126 -12
-154 -24 -24 -11 -215 -38 -270 -39 -22 0 -63 -5 -90 -10 -62 -11 -278 -6
-365 9 -36 6 -78 12 -95 14 -46 5 -138 26 -160 37 -11 5 -39 15 -63 24 -53 18
-127 68 -148 101 -11 16 -15 36 -11 60 6 38 57 125 71 121 4 -2 14 -19 21 -40
12 -36 49 -76 71 -77 7 0 15 -7 18 -15 3 -9 20 -22 38 -30 18 -7 36 -17 40
-21 7 -6 85 -36 128 -49 101 -30 298 -58 385 -55 11 0 67 1 125 1 59 0 169 11
250 24 80 13 181 29 225 35 80 12 192 44 209 61 6 5 24 9 41 9 17 0 48 9 70
20 22 11 51 20 66 20 15 0 29 7 33 15 3 8 11 15 18 15 16 0 121 52 129 63 6 9
40 30 69 43 15 7 71 51 123 97 15 14 47 54 71 90 l43 66 -19 118 c-10 65 -23
126 -28 135 -6 10 -10 31 -10 46 0 50 -45 160 -78 192 -37 35 -42 36 -42 13 0
-14 -3 -14 -22 4 -20 18 -106 63 -133 70 -5 1 -46 12 -90 23 -119 31 -473 36
-635 10z m-1204 -1427 c16 -16 37 -33 48 -37 10 -3 16 -12 13 -21 -4 -9 -1
-12 9 -8 7 3 14 0 14 -6 0 -6 5 -11 11 -11 6 0 25 -10 42 -22 18 -13 34 -23
37 -23 3 -1 14 -6 25 -12 16 -8 85 -34 105 -38 3 -1 23 -7 46 -13 85 -25 227
-44 311 -43 12 1 25 -4 28 -9 12 -19 -376 1 -470 25 -11 2 -41 10 -67 16 -27
6 -48 15 -48 20 0 5 -8 9 -17 9 -10 0 -40 14 -68 30 -27 16 -58 30 -67 30 -29
0 -69 90 -60 137 3 15 17 40 31 54 l26 25 11 -36 c7 -20 25 -50 40 -67z"/>
<path d="M3542 4174 c-21 -21 -31 -41 -28 -50 3 -9 -3 -27 -14 -41 -11 -14
-20 -30 -20 -35 0 -6 -16 -28 -35 -51 -23 -27 -32 -43 -23 -46 6 -2 14 2 16 9
3 8 16 25 29 38 13 13 31 40 41 59 25 54 39 52 47 -7 7 -48 5 -55 -26 -98 -40
-55 -49 -65 -114 -117 -28 -22 -54 -46 -58 -52 -4 -7 -12 -13 -18 -13 -10 0
-62 -34 -87 -57 -7 -7 -24 -13 -38 -13 -13 0 -24 -4 -24 -10 0 -11 -85 -50
-110 -50 -10 0 -23 -7 -30 -15 -7 -8 -20 -15 -29 -15 -10 0 -35 -9 -57 -19
-22 -11 -57 -22 -79 -26 -48 -8 -156 -40 -182 -53 -10 -6 -38 -16 -63 -23 -25
-7 -51 -17 -57 -22 -21 -16 -510 -29 -593 -16 -25 4 -49 3 -54 -2 -6 -6 -4 -9
5 -10 7 -1 25 -3 39 -5 47 -7 275 -7 420 0 80 3 192 8 250 10 119 5 320 33
335 47 5 5 24 9 41 9 18 0 36 5 39 10 3 6 17 10 30 10 13 0 26 4 29 9 3 4 27
11 53 15 27 3 66 15 88 26 22 10 57 22 77 25 21 3 44 12 52 20 8 8 23 15 33
15 11 0 28 7 39 15 10 8 27 15 36 15 9 0 18 3 20 8 2 4 30 20 63 37 33 16 65
34 71 40 7 5 37 30 68 54 31 24 56 50 56 57 0 7 11 25 24 41 29 35 39 79 31
137 -9 55 -49 101 -121 135 -104 51 -128 52 -172 5z m141 -136 c17 -9 20 -23
21 -103 1 -34 -5 -45 -47 -87 -26 -26 -56 -48 -66 -48 -11 0 -21 -7 -25 -15
-3 -8 -15 -15 -26 -15 -11 0 -23 -6 -26 -14 -3 -8 -17 -17 -31 -21 -13 -3 -34
-15 -46 -25 -11 -11 -29 -20 -38 -20 -10 0 -24 -7 -33 -15 -8 -8 -24 -15 -36
-15 -11 0 -40 -9 -62 -20 -23 -11 -54 -20 -68 -20 -14 0 -30 -4 -35 -8 -16
-13 -94 -36 -101 -29 -4 3 4 11 17 16 13 5 39 15 57 23 17 7 32 16 32 20 0 4
16 10 35 14 19 3 35 10 35 15 0 5 6 9 14 9 8 0 21 8 28 19 7 10 23 21 36 25
12 4 22 12 22 17 0 5 7 9 14 9 8 0 27 11 42 25 14 13 34 27 45 30 10 3 21 14
24 24 3 10 17 24 30 31 14 7 25 19 25 25 0 7 7 18 16 26 8 7 25 31 37 53 21
41 23 46 25 79 2 16 7 17 35 12 17 -4 40 -11 50 -17z"/>
<path d="M3285 3864 c-16 -13 -77 -48 -135 -77 -58 -28 -106 -55 -108 -59 -2
-5 -16 -8 -30 -8 -15 0 -35 -7 -45 -15 -11 -7 -38 -17 -60 -21 -23 -3 -51 -13
-62 -20 -10 -8 -41 -17 -67 -20 -27 -4 -51 -11 -54 -15 -3 -5 -15 -9 -27 -9
-12 0 -47 -9 -77 -21 -30 -11 -89 -27 -130 -35 -139 -27 -546 -34 -660 -11
-14 3 -47 10 -75 15 -27 6 -61 15 -75 20 -14 5 -28 10 -33 11 -4 0 -32 14 -63
31 -69 36 -74 37 -44 5 13 -14 31 -25 40 -25 9 0 20 -4 26 -9 13 -12 126 -53
131 -47 3 2 24 -2 46 -10 68 -24 141 -28 412 -20 149 4 414 38 447 56 10 6 25
10 33 10 9 0 26 6 38 14 12 8 38 17 57 21 66 13 196 55 216 70 10 8 28 15 38
15 22 0 129 50 134 62 2 4 12 8 21 8 10 0 28 9 41 20 13 11 27 20 32 20 16 0
78 45 78 58 0 18 -11 14 -45 -14z"/>
<path d="M3856 3872 c-3 -5 -8 -29 -12 -53 -15 -102 -121 -253 -226 -325 -50
-34 -63 -44 -86 -64 -10 -8 -43 -28 -75 -44 -32 -16 -60 -33 -63 -37 -3 -5
-13 -9 -23 -9 -10 0 -24 -6 -30 -14 -7 -8 -30 -17 -51 -21 -22 -4 -50 -15 -62
-24 -13 -10 -41 -21 -63 -25 -21 -4 -53 -15 -69 -23 -16 -9 -125 -31 -240 -50
-174 -29 -240 -35 -376 -36 -242 -3 -417 19 -478 59 -43 28 -37 4 8 -35 26
-23 69 -47 100 -56 30 -10 63 -21 72 -26 10 -5 24 -6 32 -3 8 3 23 1 33 -4 20
-11 158 -23 288 -26 44 -1 134 6 200 16 66 10 143 20 170 22 79 7 248 41 273
55 12 6 22 8 22 4 0 -4 5 -2 12 5 7 7 20 12 29 12 19 0 80 30 90 43 3 5 12 7
20 6 12 -3 87 28 129 52 8 5 22 12 30 15 141 54 307 176 389 284 24 32 24 34
13 119 -23 161 -38 211 -56 183z"/>
</g>
</svg>
