<?xml version="1.0" standalone="no"?>
<!DOCTYPE svg PUBLIC "-//W3C//DTD SVG 20010904//EN"
 "http://www.w3.org/TR/2001/REC-SVG-20010904/DTD/svg10.dtd">
<svg version="1.0" xmlns="http://www.w3.org/2000/svg"
 width="891.000000pt" height="1095.000000pt" viewBox="0 0 891.000000 1095.000000"
 preserveAspectRatio="xMidYMid meet">
<metadata>
Created by potrace 1.16, written by Peter Selinger 2001-2019
</metadata>
<g transform="translate(0.000000,1095.000000) scale(0.100000,-0.100000)"
fill="#000000" stroke="none">
<path d="M2670 10133 c-19 -2 -44 -8 -55 -12 -88 -38 -134 -61 -146 -73 -8 -7
-30 -25 -49 -38 -37 -26 -53 -39 -104 -81 -27 -23 -189 -146 -454 -346 -46
-35 -87 -63 -91 -63 -8 0 -49 50 -90 108 -19 27 -21 38 -14 55 37 79 41 110
22 168 -42 131 -108 179 -245 179 -101 0 -161 -36 -213 -129 -21 -38 -21 -167
1 -211 20 -41 100 -120 122 -120 8 0 18 -4 21 -10 3 -5 41 -10 84 -10 l78 0
36 -46 c20 -26 34 -51 30 -57 -3 -5 -1 -7 5 -3 6 3 14 -3 17 -15 8 -25 1 -31
-105 -103 -36 -25 -110 -79 -165 -121 -55 -42 -134 -102 -175 -133 -41 -31
-77 -59 -80 -62 -3 -3 -21 -17 -40 -30 -19 -13 -37 -27 -40 -30 -3 -4 -26 -21
-51 -38 -26 -17 -64 -49 -85 -71 -20 -22 -42 -37 -47 -34 -6 3 -7 2 -4 -4 3
-5 -4 -25 -16 -44 -27 -41 -51 -91 -66 -140 -14 -43 -14 -126 -1 -134 5 -3 7
-12 3 -20 -3 -8 0 -15 6 -15 6 0 8 -7 4 -15 -3 -9 1 -23 9 -33 8 -9 25 -41 37
-71 13 -30 29 -61 37 -69 8 -7 27 -30 42 -50 15 -21 29 -39 32 -42 3 -3 17
-21 30 -40 13 -19 27 -37 30 -40 3 -3 18 -23 35 -45 16 -22 32 -42 35 -45 3
-3 17 -21 30 -40 63 -91 92 -108 143 -86 18 7 40 21 49 29 9 9 47 38 85 63 37
26 72 53 76 60 4 8 14 14 21 14 8 0 16 6 19 13 3 8 31 31 64 52 32 21 111 80
177 129 185 142 204 155 210 150 3 -2 4 -1 1 2 -2 4 44 42 103 85 59 44 116
88 127 98 11 10 33 26 48 36 l29 18 24 -29 c13 -16 33 -41 44 -55 l19 -26 -57
-49 c-142 -121 -359 -347 -447 -465 -11 -15 -52 -69 -91 -120 -39 -52 -92
-130 -118 -174 -27 -44 -59 -94 -72 -112 -26 -34 -87 -153 -125 -243 -33 -78
-65 -140 -70 -136 -2 3 -5 -10 -6 -27 -1 -17 -7 -35 -13 -41 -5 -5 -10 -15
-10 -22 0 -6 -8 -29 -17 -50 -9 -22 -16 -42 -15 -46 1 -5 -3 -8 -9 -8 -6 0 -9
-9 -6 -20 3 -11 0 -23 -7 -28 -14 -9 -29 -56 -77 -254 -5 -21 -14 -57 -20 -80
-6 -24 -15 -72 -20 -108 -5 -36 -14 -94 -19 -130 -66 -427 -33 -995 80 -1395
6 -22 15 -58 20 -80 11 -53 26 -92 39 -99 6 -4 8 -13 5 -20 -3 -8 0 -17 5 -21
6 -3 9 -11 6 -16 -4 -5 -2 -9 3 -9 5 0 14 -19 21 -42 7 -24 17 -51 22 -60 5
-10 9 -22 9 -28 0 -6 21 -54 46 -108 26 -53 57 -122 71 -152 28 -63 54 -113
63 -120 11 -9 66 -94 78 -123 7 -15 31 -56 53 -90 23 -34 42 -68 42 -75 0 -6
2 -10 5 -7 5 4 17 -11 97 -116 52 -68 162 -195 247 -285 37 -39 64 -74 60 -78
-4 -4 -2 -6 5 -4 6 1 47 -29 90 -68 127 -115 143 -128 277 -228 70 -53 133
-96 140 -96 6 0 17 -5 24 -12 9 -9 1 -18 -36 -39 -246 -140 -471 -569 -449
-856 13 -172 133 -272 278 -230 250 74 530 503 538 827 1 46 3 85 4 86 1 1 38
-16 81 -37 44 -22 89 -39 101 -39 11 0 25 -4 30 -9 6 -4 33 -14 60 -21 28 -7
55 -16 60 -20 6 -4 19 -10 30 -13 11 -3 50 -16 86 -30 37 -13 96 -30 132 -37
36 -8 64 -16 63 -19 -2 -3 14 -7 37 -8 22 -2 44 -8 48 -15 4 -7 11 -9 15 -5 4
4 12 3 18 -2 16 -12 152 -36 341 -60 270 -35 661 -27 945 19 154 25 191 33
195 41 3 4 12 6 20 2 8 -3 15 -1 15 4 0 5 28 15 63 22 100 22 158 37 222 60
33 12 94 33 135 47 86 28 91 30 185 75 39 18 78 39 87 47 10 9 18 12 18 9 0
-4 15 2 33 13 51 31 55 28 56 -56 3 -205 133 -472 322 -664 199 -201 431 -226
511 -56 20 43 23 64 22 160 -1 93 -5 123 -28 189 -15 42 -34 89 -42 105 -7 15
-14 30 -14 34 0 14 -75 135 -125 203 -76 102 -213 235 -242 235 -6 0 -16 6
-22 14 -7 8 -26 18 -42 21 -43 10 -44 22 -2 44 21 11 49 30 63 43 14 13 68 56
120 96 52 39 128 103 169 142 41 38 79 66 84 63 6 -3 7 -2 4 4 -3 5 10 25 29
44 20 19 77 79 128 134 50 55 95 99 101 97 5 -2 7 -1 3 3 -3 4 35 62 86 128
98 129 171 238 201 300 9 20 22 37 27 37 5 0 7 4 3 9 -3 6 1 13 8 18 30 18
217 419 217 465 0 10 7 21 16 25 9 3 14 13 11 24 -3 11 -1 19 5 19 5 0 6 5 3
10 -3 6 -1 10 5 10 6 0 10 8 8 18 -2 11 2 26 9 34 11 13 30 73 54 168 4 19 13
54 19 78 25 105 31 131 41 192 44 280 62 514 54 710 -6 182 -18 318 -35 425
-6 39 -15 99 -20 135 -5 36 -14 83 -20 105 -14 51 -26 98 -39 155 -10 43 -22
87 -37 140 -4 14 -10 30 -14 35 -3 6 -13 30 -20 55 -7 25 -19 52 -25 60 -6 8
-17 33 -24 55 -17 49 -89 212 -141 317 -58 117 -242 405 -307 478 -12 14 -22
29 -22 34 1 5 -3 12 -9 15 -5 3 -43 47 -86 96 -92 108 -264 282 -363 367 l-72
61 42 54 c23 29 45 53 49 53 5 0 17 -9 28 -20 11 -11 20 -17 20 -14 0 3 24
-14 53 -38 28 -25 68 -55 87 -68 19 -13 37 -27 40 -30 3 -3 21 -17 40 -30 36
-25 50 -36 104 -81 48 -39 256 -191 304 -222 24 -15 45 -34 49 -42 3 -8 9 -12
14 -9 5 3 12 -2 15 -10 3 -9 12 -16 20 -16 7 0 19 -8 26 -18 7 -10 42 -37 78
-61 36 -24 67 -47 70 -51 16 -21 59 -40 92 -40 33 0 41 6 80 56 37 49 58 75
121 154 7 8 23 31 37 50 13 19 27 37 30 40 3 3 17 21 30 40 13 19 31 42 40 50
8 8 26 40 40 70 13 30 30 60 38 67 9 7 13 22 10 38 -3 14 -2 25 3 25 24 0 19
140 -8 210 -4 8 -5 18 -5 23 1 4 -1 7 -6 7 -4 0 -13 14 -20 30 -21 47 -108
137 -197 202 -83 62 -99 74 -194 146 -117 90 -318 239 -359 266 -24 16 -46 36
-51 44 -4 7 -12 13 -17 13 -5 -1 -9 9 -9 22 0 13 5 21 13 19 8 -1 11 2 8 6 -3
5 11 30 31 56 l36 46 67 0 c80 0 125 17 180 67 57 51 75 94 75 178 -1 80 -22
131 -77 180 -53 48 -73 55 -152 55 -115 0 -188 -41 -228 -129 -25 -54 -35
-133 -21 -164 34 -72 34 -77 11 -110 -40 -57 -81 -107 -89 -107 -4 0 -45 28
-91 63 -359 272 -433 328 -508 386 -47 36 -91 71 -97 78 -13 12 -93 51 -153
74 -22 9 -72 13 -135 13 -106 -2 -160 -18 -231 -70 -17 -13 -35 -20 -39 -16
-5 4 -5 2 -2 -4 3 -6 -4 -20 -17 -31 -13 -12 -77 -92 -142 -179 -65 -88 -138
-183 -161 -212 -32 -39 -43 -62 -43 -87 0 -32 7 -40 95 -105 52 -39 95 -75 95
-80 0 -6 5 -10 10 -10 6 0 57 -34 113 -76 101 -76 136 -105 108 -89 -10 5 -12
4 -7 -4 4 -6 11 -9 16 -6 4 3 32 -14 62 -38 85 -69 297 -227 304 -227 8 0 84
-58 104 -79 8 -9 36 -32 63 -50 26 -19 47 -42 47 -51 0 -9 -14 -35 -30 -58
-33 -43 -46 -45 -85 -12 -27 23 -203 140 -210 140 -4 0 -26 14 -50 30 -24 17
-51 30 -60 30 -8 0 -18 7 -21 15 -4 8 -10 13 -14 10 -5 -3 -12 0 -17 8 -4 7
-37 25 -73 41 -36 15 -99 44 -140 63 -41 19 -84 39 -95 43 -107 42 -130 50
-144 50 -9 0 -38 11 -65 25 -27 13 -53 22 -58 19 -4 -3 -8 0 -8 5 0 6 -3 10
-7 9 -5 0 -15 2 -23 5 -31 13 -308 77 -375 87 -38 5 -115 17 -169 25 -55 8
-123 15 -151 15 -29 0 -86 3 -128 6 l-77 7 0 163 0 164 205 0 c178 0 209 2
233 17 51 33 51 36 52 239 l0 191 -26 27 -27 26 -522 0 -522 0 -27 -26 -26
-27 0 -191 c1 -203 1 -206 53 -239 24 -16 52 -18 235 -17 l207 2 2 -154 c2
-84 -1 -158 -5 -165 -5 -8 -52 -14 -132 -18 -69 -4 -170 -13 -225 -21 -55 -8
-132 -19 -170 -24 -39 -6 -124 -24 -190 -41 -66 -17 -131 -33 -145 -36 -14 -2
-32 -7 -40 -10 -8 -4 -18 -5 -22 -5 -5 1 -8 -3 -8 -9 0 -5 -5 -7 -11 -4 -5 4
-18 1 -27 -7 -9 -8 -62 -29 -117 -47 -115 -37 -110 -35 -236 -94 -53 -25 -114
-53 -137 -63 -23 -9 -42 -20 -42 -26 0 -5 -4 -6 -10 -3 -5 3 -10 1 -10 -5 0
-6 -4 -8 -10 -5 -5 3 -10 1 -10 -4 0 -6 -16 -17 -35 -25 -19 -8 -55 -29 -79
-45 -25 -17 -47 -31 -51 -31 -3 0 -47 -28 -97 -62 -140 -97 -129 -93 -160 -55
-39 45 -46 77 -22 94 53 39 79 60 96 77 10 11 18 16 18 12 0 -5 9 3 21 18 11
14 25 26 31 26 6 0 80 53 165 118 85 64 216 163 291 219 75 57 154 117 174
134 21 17 68 53 105 80 95 68 93 66 93 103 0 31 -25 68 -143 216 -7 8 -23 31
-37 50 -14 19 -30 42 -37 50 -6 8 -35 46 -63 83 -64 85 -113 130 -170 158 -25
11 -52 25 -60 29 -20 10 -164 19 -210 13z m-1177 -272 c15 -6 27 -17 27 -26 0
-8 5 -15 10 -15 6 0 10 -11 10 -25 0 -14 -5 -25 -11 -25 -5 0 -8 -4 -5 -9 9
-14 -40 -41 -73 -41 -16 0 -33 5 -37 12 -5 7 -3 8 6 3 8 -5 11 -4 6 3 -4 6
-14 8 -23 5 -12 -5 -15 -2 -10 10 3 9 1 19 -5 23 -7 5 -8 2 -3 -6 5 -9 4 -11
-3 -6 -26 16 0 96 31 96 9 0 17 5 17 11 0 5 5 7 10 4 6 -3 10 0 10 7 0 10 2
10 8 1 4 -6 20 -16 35 -22z m5998 15 c5 3 9 0 9 -5 0 -6 8 -11 18 -11 26 0 52
-75 32 -93 -10 -10 -11 -9 -5 2 5 9 4 12 -3 7 -6 -4 -8 -14 -5 -23 5 -12 2
-15 -10 -10 -9 3 -19 1 -23 -5 -5 -7 -2 -8 6 -3 9 5 11 4 6 -3 -12 -19 -81
-14 -99 6 -10 10 -14 22 -10 25 3 4 2 7 -3 7 -5 0 -9 11 -9 25 0 14 3 25 8 25
4 0 7 7 7 16 0 8 14 20 30 25 17 6 30 16 31 22 0 8 2 8 6 -1 2 -6 9 -10 14 -6z
m-2964 -757 c6 -6 52 -9 122 -7 61 2 112 0 114 -4 1 -4 37 -9 79 -10 43 -2 78
-6 78 -9 0 -4 40 -12 89 -18 121 -15 407 -89 570 -146 138 -48 324 -138 312
-151 -3 -4 -1 -4 5 -1 15 8 207 -91 304 -157 25 -17 47 -29 49 -27 2 1 7 -2
10 -7 3 -6 38 -34 76 -62 39 -28 77 -56 85 -63 8 -7 31 -23 50 -37 34 -24 61
-47 184 -160 126 -115 283 -287 370 -405 33 -44 70 -91 82 -105 35 -40 144
-223 213 -360 138 -274 127 -250 151 -320 7 -19 15 -44 20 -55 29 -78 65 -192
80 -255 5 -19 13 -54 19 -76 6 -23 11 -51 11 -63 0 -11 5 -21 11 -21 5 0 7 -4
4 -10 -3 -5 -2 -10 3 -10 5 0 7 -13 4 -29 -2 -16 3 -44 11 -62 9 -19 18 -54
21 -79 2 -25 11 -103 20 -175 20 -171 20 -499 0 -670 -9 -71 -18 -154 -21
-182 -3 -29 -9 -53 -15 -53 -6 0 -8 -7 -5 -15 4 -8 2 -17 -3 -20 -6 -4 -10
-18 -10 -32 0 -15 -4 -40 -9 -57 -11 -36 -25 -91 -41 -161 -24 -102 -34 -134
-44 -128 -5 3 -6 1 -2 -5 6 -9 -6 -50 -34 -117 -5 -11 -14 -38 -20 -60 -13
-47 -19 -60 -55 -137 -14 -32 -31 -60 -36 -63 -5 -4 -7 -10 -4 -15 3 -5 1 -11
-4 -15 -6 -3 -25 -38 -44 -78 -19 -40 -52 -101 -73 -137 -22 -36 -51 -87 -64
-113 -14 -27 -35 -60 -47 -73 -12 -13 -19 -24 -15 -24 3 0 -10 -17 -29 -37
-19 -21 -52 -63 -72 -93 -95 -142 -420 -474 -559 -571 -18 -13 -35 -26 -38
-29 -3 -3 -21 -17 -40 -30 -19 -13 -41 -30 -48 -37 -7 -7 -17 -13 -22 -13 -5
0 -15 -7 -23 -15 -8 -8 -43 -31 -76 -50 -34 -20 -61 -41 -61 -46 0 -6 -4 -7
-10 -4 -5 3 -10 1 -10 -5 0 -6 -4 -8 -10 -5 -5 3 -10 1 -10 -4 0 -6 -5 -11
-11 -11 -6 0 -29 -13 -52 -28 -62 -42 -381 -192 -408 -192 -5 0 -29 -9 -52
-21 -120 -59 -414 -136 -647 -170 -268 -38 -690 -43 -900 -9 -36 5 -99 15
-140 21 -81 11 -376 81 -437 103 -21 8 -51 20 -68 27 -16 7 -32 13 -35 14 -3
1 -18 7 -35 14 -16 7 -52 21 -80 31 -123 44 -337 151 -450 224 -236 154 -314
208 -357 249 -10 9 -18 14 -18 10 0 -5 -4 -3 -8 2 -4 6 -56 56 -117 110 -166
152 -303 299 -393 425 -34 47 -71 95 -84 108 -12 12 -18 22 -13 22 6 0 3 5 -7
10 -15 9 -56 74 -104 167 -12 23 -30 54 -41 70 -11 15 -41 71 -67 123 -26 52
-55 109 -65 125 -10 17 -33 71 -51 120 -18 50 -36 98 -41 107 -5 10 -9 25 -9
33 0 8 -4 23 -9 33 -21 42 -43 109 -55 172 -2 14 -10 43 -16 65 -20 69 -31
119 -36 155 -3 19 -8 42 -11 50 -4 8 -5 21 -4 28 1 6 -2 12 -6 12 -5 0 -6 21
-4 46 2 29 -1 49 -9 54 -19 12 -39 251 -39 460 0 204 20 442 39 465 7 8 10 32
8 55 -2 22 0 41 5 43 5 1 10 27 10 57 1 30 8 61 14 68 7 7 13 23 13 35 0 11 4
34 9 51 5 17 14 50 20 74 31 123 40 152 62 194 5 10 9 28 9 41 0 13 4 27 8 33
5 5 14 28 22 51 7 23 16 41 19 39 3 -2 7 6 7 17 3 38 164 352 265 517 47 75
211 293 273 360 124 135 179 191 281 285 61 55 112 102 115 105 3 3 21 17 40
30 19 14 42 30 50 37 44 35 111 83 116 83 3 0 12 7 21 15 26 26 123 89 218
140 123 67 288 149 298 147 4 -1 7 2 7 7 0 11 -2 10 190 77 172 60 429 127
560 144 47 6 87 15 90 18 3 4 39 8 80 10 41 2 76 6 77 10 2 4 55 6 119 4 73
-2 121 1 127 7 14 14 100 14 114 0z"/>
<path d="M4230 8775 c-226 -21 -323 -37 -520 -86 -19 -4 -48 -11 -65 -14 -28
-6 -61 -18 -95 -35 -9 -4 -30 -11 -48 -15 -18 -3 -32 -11 -32 -15 0 -5 -6 -7
-13 -4 -8 3 -20 -2 -27 -11 -7 -8 -19 -15 -26 -15 -7 0 -38 -11 -68 -25 -30
-14 -58 -25 -63 -25 -4 0 -60 -26 -123 -58 -100 -49 -186 -104 -447 -282 -86
-59 -260 -223 -415 -392 -76 -83 -93 -104 -185 -240 -36 -54 -70 -98 -75 -98
-5 0 -6 -4 -3 -10 3 -5 2 -10 -4 -10 -6 0 -13 -11 -17 -25 -3 -14 -10 -25 -15
-25 -10 0 -160 -299 -179 -357 -7 -24 -17 -43 -22 -43 -5 0 -6 -4 -3 -10 3 -5
1 -10 -5 -10 -7 0 -10 -7 -6 -15 3 -8 1 -15 -5 -15 -6 0 -9 -6 -6 -14 3 -8 3
-16 -2 -18 -27 -11 -120 -370 -147 -568 -10 -71 -20 -127 -24 -125 -3 2 -5
-128 -5 -288 1 -251 4 -313 24 -442 35 -232 87 -438 152 -600 7 -16 11 -36 10
-42 -1 -7 3 -13 9 -13 6 0 8 -4 5 -10 -3 -6 -1 -10 4 -10 6 0 11 -5 11 -10 0
-25 154 -344 179 -371 12 -13 21 -27 21 -31 0 -5 22 -41 50 -80 27 -39 47 -75
43 -81 -3 -5 -2 -7 4 -4 10 6 32 -19 91 -108 18 -27 75 -93 125 -146 51 -53
106 -111 122 -130 17 -19 44 -46 62 -59 17 -14 64 -54 105 -89 90 -78 120
-103 140 -116 72 -47 117 -83 110 -90 -4 -5 -2 -5 4 -2 6 3 46 -18 90 -48 71
-48 288 -165 306 -165 4 0 37 -13 73 -30 36 -16 72 -30 80 -30 7 0 16 -4 19
-8 3 -4 28 -14 56 -22 28 -8 53 -18 56 -22 3 -4 16 -8 29 -8 13 0 27 -4 30
-10 3 -5 19 -10 36 -10 16 0 29 -5 29 -11 0 -5 5 -7 10 -4 6 3 10 2 10 -3 0
-5 17 -12 38 -15 20 -4 57 -11 82 -17 371 -89 885 -97 1240 -21 25 5 68 15 95
21 28 5 51 14 53 18 1 5 16 6 32 4 19 -3 30 0 30 7 0 7 5 9 10 6 6 -3 10 -1
10 4 0 6 11 11 25 11 14 0 33 4 43 9 9 5 35 14 57 20 39 12 52 17 105 39 14 5
63 25 110 43 109 43 277 130 375 194 105 68 317 226 371 277 24 22 54 48 66
56 13 9 37 30 53 47 228 243 241 258 362 433 19 28 40 52 46 52 6 0 8 3 5 6
-4 3 14 35 39 72 43 62 120 212 170 330 13 28 28 52 34 52 6 0 9 7 5 15 -3 8
-1 15 5 15 6 0 9 6 6 14 -3 8 -2 16 2 18 13 5 88 237 120 368 61 255 75 386
75 700 0 248 -3 304 -22 430 -37 234 -133 599 -161 608 -6 2 -7 10 -4 18 3 8
0 14 -6 14 -6 0 -8 7 -5 15 4 8 1 15 -5 15 -6 0 -8 6 -5 14 3 7 -2 16 -10 19
-9 4 -16 13 -16 21 0 23 -177 367 -192 374 -5 2 -8 10 -8 17 0 7 -7 16 -16 19
-8 3 -12 10 -9 16 3 5 2 10 -3 10 -5 0 -35 39 -67 88 -32 48 -84 119 -115 157
-93 113 -339 355 -440 433 -99 76 -385 257 -480 304 -121 60 -235 108 -255
108 -7 0 -18 7 -25 15 -7 9 -19 14 -26 11 -7 -3 -17 1 -23 8 -6 8 -33 19 -59
26 -26 7 -51 16 -57 20 -5 4 -23 10 -40 13 -16 3 -50 11 -75 17 -46 11 -93 22
-177 40 -211 46 -590 67 -813 45z m154 -161 c3 -9 6 -36 6 -60 0 -36 5 -50 26
-69 63 -58 134 -1 134 106 0 36 2 39 28 39 64 0 272 -25 272 -33 0 -4 8 -7 18
-6 9 1 25 -1 35 -6 9 -4 31 -5 47 -3 17 3 30 1 30 -2 0 -4 19 -10 43 -14 23
-4 56 -11 72 -16 17 -5 48 -13 70 -18 59 -15 187 -52 210 -62 11 -4 36 -13 55
-20 19 -7 45 -16 58 -21 12 -5 32 -13 45 -18 56 -23 137 -63 142 -72 4 -5 11
-7 16 -4 5 4 9 1 9 -5 0 -6 5 -8 10 -5 6 3 10 1 10 -5 0 -6 5 -8 10 -5 20 13
21 -24 1 -64 -12 -22 -21 -52 -21 -66 0 -31 44 -75 75 -75 23 0 100 62 90 72
-3 3 2 11 10 18 19 16 66 -8 159 -80 32 -25 80 -61 106 -80 110 -82 270 -232
355 -334 22 -27 57 -64 77 -84 20 -20 35 -39 32 -43 -2 -4 3 -9 11 -13 8 -3
15 -12 15 -19 0 -8 6 -20 14 -26 8 -7 40 -50 71 -97 55 -82 56 -86 39 -105 -9
-10 -20 -17 -22 -14 -3 3 -18 -7 -34 -22 -38 -37 -39 -87 0 -119 33 -29 57
-30 100 -4 57 35 66 29 112 -67 53 -110 144 -354 161 -427 7 -31 16 -56 20
-56 4 0 5 -9 2 -20 -3 -11 -1 -20 5 -20 6 0 8 -9 5 -20 -3 -11 0 -20 6 -20 5
0 8 -7 5 -15 -4 -8 -2 -21 4 -28 9 -11 17 -49 52 -273 6 -33 10 -100 10 -147
l0 -87 -54 0 c-43 0 -58 -5 -80 -25 -25 -23 -33 -56 -20 -90 10 -25 58 -45
109 -45 l45 0 0 -88 c0 -49 -4 -113 -10 -143 -5 -30 -16 -101 -25 -159 -9 -58
-21 -110 -26 -116 -5 -7 -9 -16 -8 -20 1 -5 -1 -16 -4 -24 -3 -8 -17 -58 -31
-110 -42 -160 -86 -277 -183 -487 -28 -60 -43 -65 -95 -33 -18 11 -43 20 -54
20 -32 0 -74 -47 -74 -83 0 -31 33 -77 55 -77 7 0 20 -9 29 -19 17 -18 16 -21
-10 -63 -96 -148 -204 -279 -364 -439 -149 -150 -219 -210 -234 -202 -6 3 -8
3 -4 -2 8 -8 -116 -106 -199 -158 -35 -22 -48 -25 -64 -17 -11 6 -17 15 -14
21 4 5 1 9 -6 9 -7 0 -10 3 -6 6 9 9 -52 64 -71 64 -10 0 -32 -13 -50 -29 -38
-35 -41 -69 -12 -124 11 -20 20 -39 20 -42 0 -3 -46 -27 -102 -55 -57 -28
-110 -54 -118 -59 -19 -11 -54 -25 -100 -41 -19 -7 -44 -16 -55 -21 -25 -10
-117 -38 -167 -50 -62 -15 -111 -27 -153 -39 -64 -17 -390 -59 -462 -60 -43 0
-43 0 -43 35 0 42 -24 105 -40 105 -6 0 -9 4 -6 8 2 4 -10 9 -28 10 -48 3 -86
-35 -86 -87 0 -62 -7 -71 -54 -71 -100 1 -386 43 -536 80 -25 6 -61 15 -80 19
-51 13 -141 40 -167 51 -55 24 -70 29 -108 41 -22 7 -47 18 -55 24 -8 7 -59
33 -112 59 -54 25 -98 49 -98 51 0 3 9 22 20 42 11 21 20 48 20 60 0 28 -21
74 -30 68 -4 -3 -13 2 -20 10 -16 19 -49 19 -56 0 -4 -8 -9 -13 -14 -10 -4 2
-13 -7 -20 -20 -7 -14 -17 -25 -22 -25 -5 0 -7 -4 -4 -9 3 -5 -1 -14 -9 -21
-13 -11 -22 -9 -50 6 -18 10 -31 22 -28 27 4 6 1 7 -7 2 -7 -4 -15 -3 -19 2
-3 5 -60 49 -126 98 -213 160 -531 501 -639 687 l-27 47 28 17 c56 35 73 56
73 91 0 24 -8 41 -26 58 -33 30 -52 31 -99 5 -36 -20 -81 -27 -71 -11 4 5 2
11 -3 13 -17 6 -118 241 -160 373 -54 169 -57 179 -72 248 -7 32 -16 60 -20
63 -5 2 -6 11 -2 19 3 8 1 15 -4 15 -6 0 -13 28 -17 63 -4 34 -12 89 -17 122
-5 33 -12 108 -15 168 l-6 107 54 0 c67 0 108 30 108 80 0 50 -41 80 -108 80
l-54 0 6 108 c3 59 10 136 15 172 6 36 13 91 17 123 4 31 11 57 16 57 5 0 8 6
7 13 -1 6 0 19 4 27 5 14 22 79 52 201 8 31 19 67 24 80 5 13 24 65 41 114 17
50 54 138 83 198 55 117 61 121 122 87 47 -26 66 -25 99 5 37 34 36 82 -4 120
-16 16 -30 25 -30 20 0 -4 -9 0 -20 10 -20 18 -20 18 7 64 14 25 46 72 70 103
23 31 43 61 43 67 0 5 7 14 15 18 8 5 25 22 37 39 101 135 290 321 447 439 36
27 72 55 79 62 7 7 26 20 42 30 17 9 30 21 30 25 0 4 5 8 11 8 6 0 25 10 41
22 29 20 62 17 58 -5 -3 -16 72 -77 95 -77 32 0 75 44 75 77 0 16 -9 46 -21
67 -19 36 -20 74 0 62 5 -3 14 1 21 9 7 8 16 13 20 10 5 -3 11 -1 15 5 8 12
117 63 195 90 44 15 68 24 100 38 25 11 141 45 215 63 22 6 54 14 70 19 17 5
49 11 73 15 23 4 42 10 42 14 0 4 13 6 30 3 16 -2 38 -1 47 3 10 5 22 7 27 6
5 -1 16 1 25 6 20 9 180 30 247 32 39 1 53 -3 58 -15z"/>
<path d="M6460 7163 c-19 -7 -203 -111 -510 -288 -135 -78 -337 -195 -450
-260 -113 -64 -268 -155 -345 -200 -77 -46 -219 -128 -315 -182 l-175 -100
-55 31 c-47 26 -65 31 -130 31 -56 0 -87 -6 -121 -22 -121 -55 -196 -196 -169
-317 10 -47 10 -49 -25 -88 -20 -21 -74 -89 -121 -151 -88 -118 -209 -274
-322 -417 -193 -244 -283 -366 -288 -387 -8 -30 12 -79 40 -98 31 -23 89 -19
117 8 13 12 87 103 163 202 77 99 163 209 192 245 28 36 89 115 135 175 46 61
120 156 164 212 l79 101 31 -16 c16 -8 64 -17 106 -20 67 -4 84 -1 130 21 101
47 163 131 177 242 l7 57 160 93 c88 51 229 132 313 179 84 48 208 120 275
160 67 40 169 99 227 131 58 32 152 86 210 120 58 35 175 102 260 150 366 207
380 218 380 289 0 33 -6 48 -28 70 -29 26 -83 41 -112 29z"/>
</g>
</svg>
