<?xml version="1.0" standalone="no"?>
<!DOCTYPE svg PUBLIC "-//W3C//DTD SVG 20010904//EN"
 "http://www.w3.org/TR/2001/REC-SVG-20010904/DTD/svg10.dtd">
<svg version="1.0" xmlns="http://www.w3.org/2000/svg"
 width="1277.000000pt" height="1022.000000pt" viewBox="0 0 1277.000000 1022.000000"
 preserveAspectRatio="xMidYMid meet">
<metadata>
Created by potrace 1.16, written by Peter Selinger 2001-2019
</metadata>
<g transform="translate(0.000000,1022.000000) scale(0.100000,-0.100000)"
fill="#000000" stroke="none">
<path d="M10467 9383 c-4 -3 -78 -13 -164 -21 -87 -7 -194 -18 -238 -23 -88
-10 -135 -15 -330 -30 -71 -5 -164 -14 -205 -19 -41 -5 -165 -17 -275 -25
-110 -9 -240 -20 -290 -25 -49 -4 -175 -16 -280 -25 -231 -20 -358 -31 -490
-45 -55 -5 -185 -17 -290 -25 -104 -9 -235 -20 -290 -25 -55 -5 -174 -14 -265
-19 -91 -6 -187 -15 -215 -21 -27 -6 -124 -15 -215 -20 -91 -5 -210 -14 -265
-19 -55 -6 -181 -17 -280 -26 -99 -9 -223 -20 -275 -25 -52 -5 -162 -14 -245
-20 -82 -5 -166 -14 -186 -20 -20 -5 -55 -10 -78 -10 -22 0 -60 -4 -83 -10
-24 -5 -99 -14 -168 -19 -69 -6 -154 -15 -190 -21 -57 -9 -233 -31 -370 -46
-25 -3 -54 -9 -65 -14 -11 -5 -40 -11 -65 -14 -102 -11 -299 -37 -355 -45 -33
-5 -107 -15 -165 -21 -58 -7 -112 -15 -120 -18 -8 -3 -67 -12 -130 -18 -63 -7
-142 -18 -175 -24 -33 -5 -125 -17 -205 -26 -148 -16 -200 -21 -515 -49 -99
-9 -218 -20 -265 -25 -322 -34 -393 -42 -455 -51 -106 -15 -217 -27 -345 -38
-63 -6 -124 -13 -135 -17 -24 -7 -128 -19 -340 -39 -88 -8 -196 -19 -240 -24
-44 -5 -126 -10 -182 -10 l-102 -1 -17 -36 c-15 -31 -16 -54 -9 -182 4 -81 11
-223 16 -317 12 -252 27 -436 37 -449 27 -32 48 -1154 41 -2101 -2 -199 12
-425 51 -815 7 -63 15 -290 20 -505 20 -1004 31 -1376 42 -1450 11 -72 12
-182 5 -539 l-2 -90 50 -24 c28 -14 58 -29 67 -33 10 -5 27 -9 37 -9 11 0 22
-4 25 -9 3 -5 26 -12 51 -15 24 -4 47 -11 50 -17 4 -5 19 -9 35 -9 16 0 32 -5
35 -10 4 -6 14 -10 23 -9 10 1 24 -1 32 -4 8 -3 40 -14 70 -24 48 -16 89 -36
150 -74 52 -32 143 -36 250 -10 25 6 81 17 125 26 44 9 100 20 125 26 25 5 83
16 130 25 47 8 108 19 135 24 28 5 68 12 90 14 22 3 65 9 95 15 30 6 100 18
155 26 55 9 127 20 160 26 33 5 101 14 150 19 50 6 100 15 113 20 29 13 105
13 117 1 9 -9 68 -16 315 -41 189 -19 267 -29 300 -39 120 -33 154 -41 234
-52 67 -8 114 -9 195 0 58 6 158 16 221 22 63 5 142 14 175 19 33 5 121 16
195 25 74 9 162 20 195 25 33 5 105 14 160 20 55 6 110 15 123 20 13 6 37 10
54 10 17 0 45 4 62 9 17 6 74 14 126 20 52 6 119 15 148 21 28 5 76 15 105 20
28 6 97 15 152 21 55 5 109 14 120 18 32 14 134 30 225 36 47 4 94 10 105 15
11 5 40 11 65 14 25 3 86 12 135 20 50 8 122 19 160 25 70 11 147 28 175 39 8
3 47 12 85 19 123 24 130 25 140 33 6 5 33 11 60 15 28 4 55 11 60 15 6 4 24
10 40 13 101 20 154 33 161 40 4 4 20 7 35 7 15 0 31 5 34 10 3 6 21 10 40 10
19 0 36 4 39 9 4 5 29 12 58 16 29 4 59 11 68 15 24 13 91 29 145 35 28 4 73
13 100 21 28 9 86 22 130 30 44 8 100 19 125 24 25 6 59 12 75 14 17 3 53 8
80 12 28 3 55 10 60 14 6 4 44 11 85 15 41 3 100 14 130 22 30 8 96 21 145 29
50 7 111 18 138 23 26 6 68 16 95 22 26 6 90 17 142 24 245 37 295 49 328 78
13 12 22 32 22 49 0 40 -76 114 -165 159 -83 42 -97 69 -36 69 22 0 43 5 46
10 3 6 19 10 35 10 16 0 39 5 52 10 13 6 57 14 98 20 102 13 141 20 165 30 19
8 113 25 200 36 22 3 49 9 60 13 18 8 76 19 185 38 19 3 40 9 45 13 6 5 43 12
83 15 39 4 72 11 72 15 0 8 9 10 145 33 44 7 87 16 95 19 8 3 51 13 95 22 44
9 94 21 111 26 17 6 42 10 57 10 14 0 29 5 32 10 3 6 21 10 39 10 17 0 36 4
42 9 8 8 78 24 164 38 19 3 40 10 47 15 6 5 20 8 30 7 35 -5 147 26 174 48 11
9 19 38 23 86 4 40 11 110 17 157 21 188 22 235 5 249 -9 7 -16 20 -16 27 0 8
-3 14 -7 14 -5 0 -8 33 -8 74 0 40 -5 84 -12 97 -12 23 -17 73 -29 279 -6 108
-20 268 -34 390 -22 186 -31 287 -36 395 -3 60 -10 115 -16 123 -6 7 -15 66
-19 130 -5 64 -13 167 -19 227 -6 61 -15 184 -21 275 -10 157 -15 276 -38 845
-6 138 -15 345 -21 460 -13 257 -26 554 -38 867 -5 144 -13 242 -19 250 -7 8
-13 82 -16 183 -3 94 -11 244 -18 335 -6 91 -13 197 -14 235 -1 60 -4 70 -21
74 -10 2 -24 7 -29 12 -6 4 -31 11 -55 15 -24 4 -67 15 -94 26 -28 10 -65 18
-83 18 -17 0 -34 4 -37 9 -3 5 -15 7 -27 4 -19 -5 -92 12 -114 28 -5 3 -31 10
-57 13 -26 4 -50 11 -53 17 -7 10 -228 13 -238 2z m273 -86 c25 -7 50 -15 55
-19 6 -3 37 -9 70 -13 57 -7 105 -26 105 -43 0 -13 -87 -32 -148 -32 -32 0
-63 -5 -70 -12 -9 -9 -24 -8 -66 2 -40 9 -62 10 -83 2 -15 -6 -53 -13 -83 -17
-30 -4 -86 -11 -125 -16 -38 -5 -144 -16 -235 -24 -91 -8 -196 -19 -235 -24
-142 -20 -252 -30 -327 -30 -42 -1 -88 -5 -101 -10 -13 -5 -67 -11 -120 -13
-52 -1 -93 -6 -91 -10 3 -5 -21 -8 -53 -8 -32 0 -72 -4 -89 -9 -18 -5 -103
-12 -190 -16 -88 -4 -169 -11 -182 -16 -13 -5 -52 -9 -87 -9 -35 0 -85 -5
-112 -10 -26 -6 -120 -15 -208 -21 -88 -5 -200 -14 -250 -19 -49 -5 -207 -19
-350 -30 -143 -11 -302 -25 -352 -30 -51 -6 -132 -14 -180 -19 -49 -6 -158
-17 -243 -26 -85 -9 -189 -20 -230 -25 -41 -5 -138 -16 -215 -25 -192 -21
-306 -34 -400 -45 -44 -5 -136 -14 -205 -19 -69 -6 -136 -14 -150 -17 -40 -10
-180 -23 -405 -39 -115 -8 -246 -20 -290 -27 -44 -6 -108 -12 -142 -12 -33 -1
-59 -4 -56 -8 2 -5 -4 -8 -14 -8 -99 -3 -173 -8 -253 -19 -52 -6 -117 -14
-145 -16 -27 -2 -86 -9 -130 -14 -44 -5 -109 -12 -145 -14 -36 -3 -101 -10
-145 -16 -44 -6 -111 -15 -150 -20 -38 -5 -86 -12 -105 -15 -19 -4 -87 -11
-150 -16 -110 -9 -195 -19 -340 -39 -106 -15 -260 -29 -342 -32 -42 -2 -74 -7
-72 -11 3 -4 -26 -8 -65 -8 -39 0 -80 -4 -93 -10 -13 -5 -93 -14 -178 -20
-147 -10 -206 -16 -395 -39 -44 -6 -111 -12 -150 -15 -38 -2 -106 -9 -150 -16
-44 -6 -102 -13 -130 -16 -27 -4 -55 -10 -61 -15 -18 -15 -148 -16 -178 -1
-35 16 -61 26 -121 47 -27 10 -54 22 -59 26 -6 5 -21 9 -35 10 l-26 0 24 10
c24 9 129 24 266 37 39 4 75 10 80 13 6 4 73 10 150 14 77 4 144 9 148 12 9 5
98 20 212 34 39 4 102 8 142 8 39 0 74 5 78 10 3 6 34 11 69 11 35 0 76 4 92
9 27 9 205 25 389 35 75 4 192 15 380 35 44 4 168 16 275 25 107 10 205 22
217 28 12 6 39 12 60 14 21 1 67 8 103 13 148 24 207 32 247 31 24 0 52 4 64
11 12 6 40 12 63 14 22 2 70 8 106 14 36 6 118 17 183 23 64 6 117 14 117 18
0 4 26 8 57 9 31 1 62 5 67 9 6 4 67 13 136 20 69 7 157 17 195 22 210 29 465
55 665 69 85 6 169 13 185 17 35 8 173 20 300 27 109 7 281 23 315 31 25 6 82
10 230 20 41 2 122 9 180 15 58 6 150 14 205 19 55 4 105 11 110 14 6 4 44 7
85 9 41 1 79 4 83 6 4 3 45 6 90 8 154 7 312 20 323 27 6 4 51 8 100 9 49 1
93 4 98 7 6 3 33 4 62 3 29 -1 54 2 57 6 3 5 45 10 94 11 48 1 108 7 133 12
25 5 128 14 230 20 102 6 221 15 265 20 44 6 175 17 290 25 372 26 431 31 440
37 6 3 80 9 165 13 85 4 160 10 165 14 12 7 214 19 335 20 74 0 87 3 100 21
13 18 25 20 110 20 52 -1 115 -6 140 -13z m432 -119 c14 -11 17 -39 20 -159 2
-105 7 -151 17 -162 10 -13 12 -42 6 -137 -5 -77 -4 -125 3 -133 13 -16 27
-268 52 -922 25 -681 37 -925 81 -1680 5 -88 13 -239 18 -335 16 -292 22 -364
31 -385 5 -11 12 -58 14 -105 3 -47 10 -125 15 -175 25 -221 31 -274 41 -340
5 -38 14 -124 19 -190 5 -66 14 -133 20 -148 7 -19 11 -134 11 -327 0 -183 4
-301 10 -305 6 -3 10 -34 10 -68 0 -58 -2 -63 -27 -74 -16 -6 -57 -14 -93 -18
-71 -7 -138 -23 -157 -38 -7 -5 -40 -11 -73 -14 -33 -3 -63 -10 -66 -14 -3 -5
-16 -9 -29 -9 -13 0 -27 -4 -30 -10 -3 -5 -15 -10 -26 -10 -10 0 -27 -4 -37
-10 -9 -5 -48 -14 -87 -19 -38 -6 -90 -15 -115 -20 -98 -23 -197 -43 -230 -47
-19 -3 -42 -8 -50 -11 -17 -8 -150 -32 -198 -37 -17 -1 -35 -6 -39 -9 -3 -4
-20 -7 -38 -7 -17 0 -35 -4 -41 -9 -5 -5 -27 -11 -49 -14 -22 -3 -60 -10 -85
-16 -25 -6 -74 -16 -110 -22 -36 -6 -72 -14 -80 -19 -9 -4 -45 -11 -80 -15
-36 -4 -69 -11 -75 -15 -5 -4 -26 -10 -45 -13 -76 -13 -106 -19 -120 -25 -13
-5 -88 -19 -200 -38 -19 -4 -39 -10 -45 -14 -5 -5 -41 -11 -80 -15 -38 -3 -79
-10 -90 -15 -11 -4 -47 -13 -80 -20 -33 -7 -67 -15 -75 -17 -8 -3 -29 -5 -46
-4 -18 1 -35 -2 -39 -8 -3 -6 -23 -11 -44 -11 -21 0 -58 -7 -81 -15 -23 -8
-59 -15 -79 -15 -20 0 -41 -4 -47 -9 -5 -5 -27 -11 -49 -14 -22 -3 -76 -12
-120 -20 -44 -9 -118 -22 -165 -30 -111 -20 -184 -34 -240 -48 -25 -5 -85 -17
-135 -25 -49 -8 -112 -19 -140 -24 -27 -5 -84 -15 -125 -20 -41 -6 -89 -15
-106 -21 -17 -5 -46 -9 -65 -9 -19 0 -39 -4 -44 -9 -6 -5 -32 -12 -60 -14 -88
-10 -200 -30 -205 -37 -5 -8 -77 -20 -117 -20 -13 0 -49 -7 -80 -16 -81 -21
-91 -23 -153 -30 -30 -3 -64 -9 -75 -14 -11 -5 -40 -11 -65 -14 -25 -3 -83
-13 -130 -22 -47 -8 -105 -18 -130 -21 -25 -3 -49 -9 -55 -14 -5 -5 -28 -9
-52 -9 -40 0 -155 -20 -233 -41 -19 -5 -73 -13 -120 -19 -47 -5 -105 -14 -130
-20 -89 -22 -136 -30 -220 -41 -47 -5 -94 -14 -105 -19 -21 -9 -42 -13 -165
-31 -41 -6 -82 -13 -90 -17 -8 -3 -51 -12 -95 -19 -44 -8 -102 -19 -130 -24
-27 -5 -99 -16 -160 -24 -60 -8 -135 -19 -165 -25 -72 -13 -99 -18 -190 -30
-41 -5 -102 -14 -135 -20 -33 -6 -100 -17 -150 -24 -49 -7 -97 -15 -105 -19
-8 -3 -37 -8 -65 -11 -27 -2 -77 -9 -110 -16 -33 -6 -76 -13 -95 -15 -19 -2
-62 -9 -95 -15 -33 -6 -82 -14 -110 -16 -27 -3 -59 -9 -70 -14 -11 -4 -58 -13
-105 -19 -47 -6 -110 -16 -140 -22 -30 -5 -102 -16 -160 -24 -157 -21 -283
-41 -300 -47 -8 -4 -35 -9 -60 -12 -68 -8 -120 -16 -175 -27 -77 -16 -141 -27
-250 -43 -55 -9 -120 -20 -145 -26 -25 -7 -63 -14 -85 -16 -22 -3 -47 -8 -55
-11 -8 -3 -33 -6 -55 -8 -22 -1 -60 -7 -84 -13 -70 -16 -71 -14 -71 114 0 63
-4 122 -9 132 -25 47 -31 153 -34 580 -1 283 -6 456 -12 460 -6 4 -10 34 -11
67 0 33 -2 148 -3 255 -1 107 -6 199 -11 205 -5 6 -12 250 -14 556 -9 961 -32
1980 -56 2434 -27 508 -56 916 -80 1095 -6 47 -15 123 -21 170 -5 47 -14 121
-20 165 -5 44 -11 105 -12 135 l-2 55 35 3 c19 1 42 6 50 9 8 3 21 5 28 4 7
-1 28 3 45 8 18 6 84 16 147 22 63 6 153 15 200 20 47 4 162 15 255 24 94 8
206 20 250 25 163 21 243 29 370 39 72 6 144 13 160 17 45 9 161 23 340 39 88
8 192 19 230 25 123 17 236 30 390 45 83 7 164 16 180 20 32 6 217 23 330 31
39 2 93 8 120 13 51 10 161 22 435 47 169 16 284 28 400 42 41 6 129 15 195
21 66 6 143 13 170 16 96 11 221 23 390 39 94 9 202 21 240 26 39 6 135 17
215 25 80 8 179 19 220 24 151 20 221 26 460 41 85 6 178 14 205 20 28 5 97
12 155 16 58 3 116 9 130 14 14 5 88 12 165 15 77 4 144 9 149 13 5 3 71 9
145 14 75 4 174 12 221 17 47 5 146 14 220 20 74 6 149 13 165 16 37 7 230 24
345 31 130 8 307 23 390 34 41 6 143 17 225 25 261 26 290 30 300 37 6 4 39 8
73 10 34 1 62 5 62 8 0 3 19 6 43 8 56 4 216 21 297 31 36 5 110 14 164 20 55
6 101 13 104 16 11 10 109 5 124 -7z m-10048 -857 c5 -8 52 -19 104 -24 12 -1
22 -4 22 -7 0 -3 21 -12 48 -19 26 -8 52 -17 57 -21 10 -8 86 -31 115 -35 18
-3 47 -13 78 -28 18 -8 22 -19 22 -57 0 -25 4 -50 9 -55 5 -6 12 -41 15 -80
15 -159 19 -180 28 -186 6 -4 10 -42 9 -88 -1 -59 3 -88 14 -104 11 -15 15
-48 15 -117 0 -52 4 -111 9 -130 5 -19 12 -147 16 -285 4 -137 11 -281 16
-320 4 -38 9 -127 9 -196 0 -70 5 -151 11 -180 17 -84 30 -425 40 -1024 20
-1304 28 -1707 39 -1990 6 -165 15 -516 20 -780 5 -264 12 -502 15 -529 5 -31
3 -56 -5 -71 -13 -24 -9 -109 8 -182 12 -54 -4 -73 -37 -42 -12 11 -29 19 -39
18 -23 -3 -68 9 -118 31 -23 11 -55 22 -70 26 -16 4 -34 11 -40 16 -16 12
-154 57 -177 58 -9 0 -25 4 -35 9 -9 4 -34 16 -55 26 -28 14 -40 27 -47 54 -5
20 -12 153 -15 296 -4 244 -11 417 -36 950 -6 121 -10 252 -10 290 7 488 3
622 -28 920 -39 372 -39 376 -27 1210 3 209 10 409 16 445 13 74 16 542 4 562
-8 12 -17 176 -32 590 -5 136 -13 222 -20 230 -7 9 -12 65 -13 148 0 74 -5
140 -9 145 -4 6 -10 53 -14 105 -3 52 -10 127 -15 165 -8 55 -14 210 -11 258
0 10 108 9 114 -2z m8153 -5350 c10 1 35 -5 56 -14 81 -37 108 -47 122 -47 8
0 15 -8 15 -19 0 -18 -13 -22 -155 -47 -16 -3 -39 -9 -50 -14 -45 -19 -206
-51 -267 -54 -20 0 -34 -5 -30 -10 3 -5 -5 -7 -16 -4 -12 4 -20 3 -17 -2 5 -9
-43 -20 -86 -20 -15 0 -30 -4 -33 -9 -7 -10 -69 -21 -133 -24 -22 -1 -39 -5
-36 -9 2 -5 1 -8 -4 -9 -64 -6 -149 -21 -168 -29 -28 -12 -83 -21 -127 -20
-22 1 -38 -4 -38 -11 0 -6 -7 -8 -16 -5 -17 6 -123 -10 -159 -25 -11 -4 -36
-10 -55 -13 -19 -3 -78 -12 -130 -21 -52 -9 -112 -18 -133 -21 -20 -4 -40 -10
-43 -15 -3 -5 -25 -9 -49 -9 -24 0 -47 -4 -50 -10 -3 -5 -30 -10 -58 -11 -29
0 -74 -5 -102 -10 -27 -6 -66 -12 -85 -15 -19 -3 -42 -8 -50 -12 -8 -3 -64
-11 -125 -18 -60 -7 -132 -18 -160 -25 -27 -6 -78 -12 -112 -13 -34 0 -61 -5
-60 -9 1 -5 -25 -10 -58 -12 -85 -5 -147 -14 -172 -27 -12 -6 -31 -8 -42 -5
-14 3 -19 1 -14 -6 4 -7 0 -8 -13 -3 -10 4 -15 3 -10 -1 4 -4 -30 -13 -76 -20
-45 -7 -126 -19 -178 -28 -52 -9 -135 -22 -185 -29 -49 -7 -97 -15 -105 -18
-8 -4 -31 -9 -50 -12 -19 -3 -57 -10 -85 -15 -27 -6 -68 -13 -90 -16 -22 -2
-62 -7 -90 -10 -27 -3 -60 -11 -71 -17 -12 -5 -42 -9 -67 -7 -25 2 -43 1 -41
-2 7 -11 -25 -19 -103 -26 -40 -3 -76 -10 -79 -14 -3 -5 -27 -9 -54 -9 -27 0
-51 -4 -54 -9 -3 -4 -51 -11 -107 -15 -57 -4 -110 -11 -119 -16 -9 -5 -41 -10
-72 -12 -31 -1 -54 -6 -52 -9 4 -7 -26 -11 -214 -28 -62 -6 -122 -15 -132 -21
-26 -14 -303 -14 -328 -1 -11 6 -52 14 -91 17 -44 4 -68 11 -64 17 3 6 1 7 -6
3 -14 -9 -51 2 -51 15 0 5 17 9 38 9 21 0 42 3 45 6 3 4 26 8 49 10 24 1 70 7
103 14 117 21 307 51 420 66 22 3 50 10 61 16 12 5 42 9 67 7 25 -2 45 0 44 4
-1 5 21 10 48 12 28 2 70 9 95 16 25 6 69 13 98 14 29 2 56 6 60 10 4 5 0 5
-8 0 -9 -5 -12 -5 -7 1 5 5 50 14 100 21 107 13 179 27 193 35 5 4 48 9 94 13
47 4 112 11 145 17 33 5 74 12 90 15 17 2 37 7 45 11 14 5 135 26 225 38 22 3
49 9 60 14 27 11 115 28 200 40 39 5 93 14 120 20 59 13 203 39 260 47 22 3
44 9 49 14 6 5 29 9 52 9 24 0 45 4 48 9 4 5 40 12 81 16 42 4 78 11 81 16 3
5 24 9 48 9 23 0 46 3 50 8 7 7 82 19 271 44 50 6 92 15 95 18 3 4 39 12 80
18 113 17 143 22 165 32 11 5 38 11 60 14 127 16 193 27 213 36 13 6 39 10 58
10 19 0 42 4 52 9 9 6 58 14 107 20 50 6 110 16 135 22 25 6 66 12 92 13 25 0
46 5 45 11 -1 5 39 14 88 20 50 5 95 13 101 17 6 4 31 8 56 10 25 2 44 6 42
10 -2 3 26 9 63 13 38 3 77 10 88 15 11 5 34 11 50 15 17 3 50 11 75 16 70 16
194 26 207 16 6 -5 20 -7 30 -6z m324 -138 c20 -12 29 -24 27 -38 -3 -21 -6
-22 -168 -45 -41 -6 -89 -15 -106 -21 -17 -5 -44 -9 -60 -9 -17 0 -34 -4 -39
-9 -6 -5 -30 -11 -55 -14 -81 -9 -125 -16 -170 -27 -87 -22 -135 -31 -168 -30
-18 0 -38 -3 -45 -7 -7 -4 -25 -9 -42 -10 -50 -3 -109 -14 -130 -23 -11 -5
-38 -11 -60 -15 -22 -4 -76 -13 -120 -21 -44 -8 -95 -18 -113 -21 -18 -3 -35
-9 -38 -14 -3 -5 -25 -9 -49 -9 -24 0 -46 -4 -49 -9 -3 -5 -37 -12 -76 -16
-39 -4 -73 -11 -76 -16 -3 -5 -20 -9 -38 -9 -18 0 -36 -3 -40 -7 -4 -5 -44
-13 -89 -20 -45 -6 -100 -16 -122 -23 -81 -23 -121 -31 -157 -30 -20 0 -39 -4
-43 -10 -3 -5 -24 -10 -45 -10 -21 0 -42 -4 -45 -10 -3 -5 -19 -10 -35 -10
-16 0 -31 -4 -34 -9 -3 -4 -40 -11 -83 -15 -42 -4 -82 -10 -87 -14 -6 -4 -45
-12 -86 -19 -41 -7 -95 -17 -120 -22 -25 -6 -64 -10 -87 -11 -23 0 -45 -4 -48
-10 -3 -5 -28 -10 -56 -10 -27 0 -49 -4 -49 -9 0 -5 -43 -12 -95 -16 -52 -4
-98 -11 -101 -16 -3 -5 -29 -9 -59 -9 -30 0 -57 -4 -60 -10 -3 -5 -24 -10 -46
-10 -22 0 -48 -4 -58 -10 -10 -5 -58 -12 -107 -16 -49 -4 -91 -10 -94 -14 -3
-4 -27 -10 -55 -13 -71 -8 -250 -35 -315 -47 -30 -6 -77 -14 -105 -18 -27 -4
-54 -10 -60 -14 -5 -3 -50 -8 -98 -12 -48 -4 -99 -11 -113 -16 -14 -6 -43 -10
-64 -10 -21 0 -41 -4 -44 -9 -3 -5 -54 -12 -113 -16 -60 -4 -130 -12 -158 -17
-71 -15 -143 -26 -270 -43 -60 -8 -135 -19 -165 -25 -30 -6 -75 -14 -100 -17
-25 -3 -49 -9 -55 -13 -5 -4 -39 -9 -75 -11 -79 -5 -88 10 -40 69 l31 39 202
12 c111 6 225 16 252 21 90 17 119 21 220 32 55 6 102 14 105 18 3 4 28 10 55
13 104 12 224 32 231 40 4 4 29 7 55 7 26 0 51 4 54 10 3 6 25 10 49 10 23 0
46 4 51 9 6 5 47 11 92 15 45 3 94 11 108 16 15 6 41 10 60 10 19 0 36 4 39 9
3 5 45 12 93 15 49 4 99 11 113 15 14 5 52 14 85 21 33 6 74 15 90 20 17 5 68
11 115 15 47 4 99 10 115 15 77 22 114 30 165 34 155 14 200 20 260 33 36 9
106 20 155 25 50 6 99 14 110 18 11 5 36 11 55 14 19 2 55 10 80 16 25 6 90
17 145 25 55 8 123 19 150 24 28 6 66 13 85 16 19 4 42 9 50 12 8 3 33 6 55 8
65 5 119 16 142 27 11 6 37 9 56 6 20 -2 34 0 31 4 -2 4 10 9 28 12 18 3 62
10 98 16 36 6 81 13 100 16 19 3 42 8 50 12 15 6 101 21 245 42 44 7 89 16
100 21 11 4 52 12 90 18 86 12 124 20 150 31 22 9 42 14 155 35 135 25 145 27
155 35 6 5 40 11 78 15 37 4 70 11 73 16 3 5 18 9 33 9 15 0 31 4 37 9 5 5 23
11 39 14 17 2 32 5 33 6 2 0 17 -7 33 -16z m-5561 -833 c36 -6 82 -13 103 -14
21 -2 40 -6 44 -10 3 -3 21 -6 39 -6 18 0 45 -5 61 -11 l28 -11 -22 -18 c-13
-10 -23 -27 -23 -37 0 -10 -5 -24 -12 -31 -14 -14 -99 -16 -114 -4 -21 20
-156 52 -254 62 -58 6 -141 15 -185 21 -44 6 -102 12 -130 14 -27 2 -61 8 -75
13 -29 12 -22 14 41 12 26 -1 50 3 54 9 3 6 19 11 35 11 16 0 32 5 35 10 9 14
285 7 375 -10z"/>
<path d="M10435 8620 c-33 -5 -89 -15 -125 -23 -36 -8 -112 -20 -170 -26 -58
-6 -134 -16 -170 -21 -36 -5 -139 -16 -230 -25 -91 -8 -212 -22 -269 -31 -58
-8 -159 -20 -225 -25 -143 -11 -420 -37 -526 -49 -41 -4 -160 -15 -265 -24
-104 -8 -239 -20 -300 -26 -60 -6 -128 -13 -150 -14 -22 -2 -72 -9 -110 -15
-39 -6 -144 -16 -235 -21 -91 -6 -205 -15 -255 -20 -92 -10 -126 -13 -345 -31
-69 -6 -163 -14 -210 -19 -47 -5 -166 -16 -265 -25 -99 -9 -216 -20 -260 -25
-44 -5 -138 -13 -210 -19 -71 -6 -155 -14 -185 -18 -30 -4 -62 -8 -70 -9 -8 0
-43 -4 -78 -8 -91 -11 -104 -13 -242 -25 -69 -6 -150 -15 -180 -21 -52 -11
-267 -36 -390 -46 -30 -2 -75 -8 -100 -14 -25 -5 -83 -12 -130 -16 -47 -3 -88
-8 -92 -10 -3 -2 -37 -7 -75 -10 -37 -3 -71 -8 -74 -10 -4 -2 -67 -10 -140
-19 -172 -20 -203 -24 -264 -35 -27 -6 -95 -14 -150 -20 -110 -11 -135 -14
-275 -35 -52 -8 -115 -17 -140 -20 -25 -3 -76 -10 -115 -15 -38 -4 -122 -16
-185 -25 -63 -8 -149 -20 -190 -25 -41 -5 -93 -11 -115 -14 -22 -3 -80 -11
-130 -17 -49 -6 -115 -15 -145 -21 -30 -5 -98 -11 -150 -12 -123 -4 -186 -14
-204 -32 -12 -12 -14 -40 -10 -152 3 -75 8 -144 11 -152 6 -16 21 -350 28
-630 3 -96 10 -216 15 -267 6 -50 10 -151 10 -225 0 -73 5 -151 10 -173 5 -22
10 -185 11 -362 0 -178 4 -325 9 -328 4 -3 8 -183 9 -401 1 -218 5 -401 9
-408 4 -6 10 -85 14 -176 4 -91 12 -230 18 -310 5 -80 14 -327 20 -550 11
-453 26 -797 39 -910 8 -67 15 -99 52 -232 11 -42 38 -55 87 -43 15 3 56 10
92 15 36 5 103 17 150 26 81 16 137 25 225 38 54 9 140 25 195 37 53 12 64 14
150 23 63 7 102 14 204 36 26 6 78 15 115 20 68 10 107 17 271 45 111 19 168
27 345 49 72 9 159 21 195 26 36 6 88 13 115 15 28 3 85 9 128 15 42 5 110 14
150 19 39 5 86 12 102 16 17 3 66 10 110 16 44 5 107 13 140 18 115 17 300 41
348 46 27 3 53 7 58 11 6 3 31 7 57 9 60 4 251 33 332 49 14 3 68 10 120 16
52 5 122 14 155 20 101 17 191 30 335 49 57 8 110 16 325 51 28 4 92 13 144
20 51 6 104 16 118 21 13 5 40 9 59 9 19 0 42 4 52 9 9 6 62 14 117 20 55 6
123 15 150 21 53 11 229 39 280 45 16 2 45 8 65 14 19 6 71 15 115 21 44 5
103 15 130 20 28 6 91 17 140 25 50 8 113 19 140 25 28 6 95 17 150 25 55 8
132 21 172 30 40 9 103 20 140 26 69 10 101 15 253 44 151 28 183 34 295 49
61 9 128 21 150 27 43 12 43 12 155 28 41 5 109 17 150 26 41 9 104 21 140 26
134 22 166 28 215 39 28 6 64 13 80 15 17 2 57 8 90 15 33 6 85 15 115 20 30
4 100 16 155 25 55 9 114 19 132 22 17 3 41 15 52 27 21 22 21 27 21 655 0
348 -3 638 -7 644 -4 6 -11 102 -15 212 -5 110 -13 245 -18 300 -25 267 -31
344 -40 515 -20 388 -30 570 -39 715 -6 83 -13 200 -16 260 -4 61 -11 124 -17
140 -11 29 -22 208 -33 515 -7 211 -10 237 -46 483 -5 39 -15 117 -20 172 -5
55 -11 114 -12 131 -2 16 -14 56 -27 87 l-24 57 -105 -2 c-58 0 -133 -4 -166
-8z m229 -70 c5 -5 10 -39 12 -75 3 -37 7 -72 10 -77 4 -5 10 -53 15 -106 5
-54 14 -133 20 -177 19 -139 38 -381 59 -750 5 -93 14 -240 19 -325 6 -85 14
-238 20 -340 5 -102 15 -203 20 -225 6 -22 10 -92 9 -157 0 -64 3 -121 7 -128
4 -6 11 -75 16 -153 9 -143 20 -290 40 -537 28 -350 52 -1681 30 -1703 -6 -6
-37 -14 -68 -19 -32 -4 -78 -12 -103 -18 -25 -6 -83 -17 -130 -25 -91 -15
-149 -26 -275 -50 -44 -8 -100 -18 -125 -21 -25 -4 -49 -10 -55 -14 -5 -4 -44
-11 -85 -14 -41 -4 -88 -11 -105 -16 -51 -16 -193 -40 -233 -40 -21 0 -42 -4
-48 -9 -5 -5 -27 -11 -49 -14 -22 -3 -80 -13 -130 -22 -49 -9 -115 -20 -145
-24 -31 -5 -65 -11 -75 -14 -19 -6 -128 -25 -185 -32 -48 -6 -195 -45 -230
-62 -54 -25 -89 -32 -320 -63 -118 -16 -235 -36 -260 -45 -74 -27 -279 -69
-415 -85 -103 -13 -244 -34 -360 -55 -44 -8 -122 -15 -173 -15 -92 0 -223 -20
-272 -42 -14 -6 -95 -14 -180 -19 -85 -5 -186 -13 -225 -19 -126 -17 -289 -41
-345 -51 -30 -5 -109 -16 -175 -24 -116 -14 -165 -22 -305 -45 -36 -6 -83 -12
-105 -15 -158 -18 -258 -32 -330 -46 -27 -5 -93 -14 -145 -20 -52 -6 -124 -15
-160 -20 -36 -5 -81 -11 -100 -14 -19 -2 -69 -9 -110 -15 -41 -6 -97 -12 -125
-14 -27 -2 -63 -9 -78 -15 -16 -6 -32 -9 -35 -7 -8 5 -192 -18 -272 -34 -30
-6 -68 -13 -85 -15 -87 -10 -211 -27 -295 -40 -52 -9 -122 -20 -155 -25 -33
-5 -87 -13 -120 -19 -33 -5 -78 -12 -100 -15 -22 -4 -67 -11 -100 -17 -33 -5
-85 -14 -115 -19 -30 -5 -68 -11 -85 -14 -16 -3 -59 -10 -95 -16 -36 -6 -87
-15 -115 -21 -27 -5 -88 -16 -135 -24 -47 -7 -107 -18 -135 -24 -27 -6 -86
-18 -130 -26 -44 -9 -92 -19 -106 -22 -39 -7 -46 19 -68 257 -6 58 -13 116
-16 130 -7 35 -14 253 -24 765 -5 242 -14 463 -19 490 -6 28 -11 89 -11 136
-1 47 -5 110 -11 140 -12 71 -21 373 -25 839 -2 206 -6 425 -9 485 -3 61 -8
191 -11 290 -3 99 -8 205 -11 235 -5 54 -17 276 -34 635 -4 99 -13 284 -20
410 -6 127 -13 265 -14 308 l-3 77 50 0 c44 0 49 2 44 20 -6 22 2 25 81 33 25
3 40 1 36 -4 -6 -10 116 -3 146 8 8 3 42 9 75 14 224 31 295 40 410 54 72 9
173 20 225 26 52 5 122 13 155 18 69 11 305 42 351 46 17 2 51 6 75 10 24 4
58 9 74 10 51 5 197 24 260 35 33 6 119 17 190 24 72 8 182 22 245 31 63 9
153 21 200 26 47 5 117 13 155 18 227 28 357 43 410 47 33 3 67 7 75 10 8 3
87 12 175 20 88 8 198 19 245 24 47 6 108 12 135 14 230 19 321 28 390 35 44
5 143 15 220 21 242 19 309 28 355 48 39 17 77 20 305 25 143 3 292 11 330 16
39 6 135 16 215 22 127 10 212 18 350 32 19 2 89 7 155 11 66 4 143 11 170 16
48 9 164 20 415 42 63 5 149 13 190 18 41 5 143 16 225 25 83 8 186 19 230 24
44 5 132 14 195 21 216 21 454 55 472 67 32 21 250 23 272 3z"/>
<path d="M8531 6446 c-163 -59 -214 -290 -93 -418 54 -57 114 -82 197 -82 104
0 182 50 232 148 22 44 25 59 20 121 -7 112 -68 196 -166 231 -45 16 -145 16
-190 0z m187 -42 c89 -35 152 -151 131 -242 -36 -163 -213 -231 -350 -136 -74
51 -112 174 -80 257 25 66 88 120 160 139 29 8 98 -1 139 -18z"/>
<path d="M8595 6312 c-126 -59 -125 -59 -125 -86 0 -33 9 -37 42 -20 17 9 34
12 39 7 4 -4 11 -45 15 -91 5 -54 11 -82 19 -82 17 0 149 60 156 71 3 5 -1 55
-8 111 -7 57 -12 111 -13 121 0 24 -13 21 -125 -31z"/>
<path d="M7115 2861 c-71 -43 -76 -69 -23 -118 32 -30 121 -35 165 -8 32 19
43 40 43 85 0 55 -120 81 -185 41z"/>
<path d="M2345 2095 c-5 -2 -44 -13 -85 -25 -104 -31 -120 -42 -120 -87 0 -53
29 -112 58 -120 45 -11 195 6 262 29 90 33 93 35 86 72 -3 17 -8 48 -12 69 -8
49 -42 67 -121 66 -32 0 -62 -2 -68 -4z"/>
<path d="M1403 3254 c-64 -50 -31 -126 60 -141 28 -4 40 0 70 27 21 18 37 38
37 46 0 45 -56 94 -108 94 -15 0 -42 -12 -59 -26z"/>
<path d="M1461 2900 c-56 -24 -69 -91 -25 -125 41 -31 73 -36 112 -18 91 43
73 135 -29 148 -19 3 -45 0 -58 -5z"/>
<path d="M1473 2499 c-66 -32 -69 -89 -7 -138 52 -41 141 -17 164 45 20 52
-31 114 -92 114 -13 0 -42 -9 -65 -21z"/>
<path d="M9625 2405 c-5 -1 -50 -16 -100 -31 -101 -31 -231 -96 -257 -128 -14
-16 -18 -41 -18 -113 0 -85 2 -94 25 -119 14 -15 36 -35 49 -43 13 -9 43 -29
67 -45 24 -16 71 -37 104 -47 33 -10 87 -32 120 -47 121 -58 310 -142 321
-142 5 0 34 -12 64 -27 30 -14 64 -30 75 -33 11 -4 43 -16 70 -28 28 -11 70
-28 95 -37 71 -28 93 -37 120 -50 14 -7 39 -15 55 -19 30 -8 134 -46 190 -71
94 -42 131 -50 230 -49 101 2 213 20 294 49 24 8 53 17 65 19 26 6 176 55 195
65 16 8 61 124 61 158 0 95 -115 177 -435 313 -11 5 -50 22 -86 39 -37 17 -70
31 -74 31 -5 0 -33 12 -64 26 -31 14 -67 31 -81 36 -14 6 -33 14 -43 19 -9 5
-61 25 -115 45 -53 20 -101 40 -107 44 -5 4 -28 13 -50 19 -22 7 -49 17 -60
22 -11 5 -47 15 -80 23 -33 8 -109 36 -170 61 -60 26 -122 50 -137 55 -25 8
-302 13 -323 5z m292 -168 c4 -6 1 -7 -7 -2 -8 5 -11 4 -6 -3 4 -6 13 -9 21
-6 18 7 48 -40 40 -65 -7 -23 -52 -36 -71 -20 -8 6 -14 20 -14 31 0 14 -6 19
-22 16 -16 -2 -23 -10 -23 -24 -1 -51 -63 -75 -82 -31 -8 17 -18 22 -49 22
-32 0 -40 4 -42 21 -4 30 37 48 89 40 34 -5 46 -3 63 13 32 29 87 34 103 8z
m-327 -176 c58 -24 134 -56 170 -71 102 -43 311 -123 500 -189 101 -36 398
-130 427 -135 41 -8 138 -40 151 -49 10 -8 10 -14 -1 -31 -8 -12 -19 -38 -26
-58 -7 -21 -16 -38 -19 -38 -7 0 -191 69 -317 120 -38 16 -90 35 -115 43 -143
49 -368 129 -393 142 -17 8 -37 15 -47 15 -9 0 -20 4 -26 8 -5 5 -36 19 -69
32 -71 27 -151 62 -220 97 -27 14 -77 39 -110 55 -72 36 -115 74 -115 103 0
42 -6 43 210 -44z m1680 -384 c23 -8 36 -19 38 -33 4 -27 -35 -72 -68 -78 -14
-2 -52 -12 -85 -21 -33 -9 -80 -21 -105 -25 -25 -5 -70 -16 -100 -24 -30 -8
-57 -13 -58 -11 -2 2 -1 21 3 42 10 62 68 115 160 147 49 18 167 19 215 3z"/>
</g>
</svg>
