<?xml version="1.0" standalone="no"?>
<!DOCTYPE svg PUBLIC "-//W3C//DTD SVG 20010904//EN"
 "http://www.w3.org/TR/2001/REC-SVG-20010904/DTD/svg10.dtd">
<svg version="1.0" xmlns="http://www.w3.org/2000/svg"
 width="1266.000000pt" height="874.000000pt" viewBox="0 0 1266.000000 874.000000"
 preserveAspectRatio="xMidYMid meet">
<metadata>
Created by potrace 1.16, written by Peter Selinger 2001-2019
</metadata>
<g transform="translate(0.000000,874.000000) scale(0.100000,-0.100000)"
fill="#000000" stroke="none">
<path d="M1938 6983 l-3 -468 -276 -5 -277 -5 -26 -26 c-23 -23 -24 -28 -11
-39 13 -11 15 -251 15 -2092 l0 -2080 44 -39 c24 -22 61 -65 82 -96 21 -32 64
-86 96 -121 32 -34 58 -67 58 -72 0 -5 20 -32 45 -60 25 -28 45 -54 45 -59 0
-4 8 -18 19 -30 l19 -21 4760 0 c2754 0 4771 4 4784 9 13 5 34 19 48 31 l25
22 3 2138 c2 1894 0 2140 -13 2154 -8 8 -15 19 -15 23 0 13 -47 46 -110 78
-30 15 -66 35 -80 45 -14 10 -56 35 -95 55 -38 21 -104 61 -145 89 -41 28 -84
56 -95 61 -19 10 -20 23 -25 372 -5 337 -6 362 -24 382 l-19 21 -991 0 -992 0
-10 28 c-8 22 -21 31 -55 41 -34 9 -518 11 -2109 9 -2027 -3 -2066 -3 -2097
-22 -18 -11 -37 -33 -43 -49 l-10 -30 -968 5 c-532 2 -993 2 -1025 -2 -32 -3
-64 -13 -73 -21 -13 -14 -15 -62 -15 -345 1 -181 -3 -335 -7 -342 -7 -9 -52
-12 -193 -10 l-184 3 -3 468 -2 467 -25 0 -25 0 -2 -467z m6721 47 l-1 -220
-2064 0 -2064 0 0 168 c1 131 4 171 15 186 8 11 15 32 15 48 l0 28 343 3 c188
1 1110 3 2050 5 l1707 2 -1 -220z m979 -140 l832 0 0 -190 0 -190 -3881 0
-3880 0 3 180 3 180 837 0 c461 0 841 -1 846 -2 4 -2 6 -22 4 -44 -2 -23 1
-45 7 -49 6 -3 9 -10 7 -14 -3 -4 4 -18 15 -29 l20 -22 2127 0 2127 1 25 20
c21 18 25 31 28 96 4 71 5 74 26 69 11 -3 396 -6 854 -6z m-7698 -464 c0 -36
-4 -67 -9 -70 -11 -7 -22 -96 -21 -163 1 -50 0 -51 -32 -58 -18 -4 -38 -12
-45 -17 -15 -12 -253 188 -298 250 -16 23 -40 44 -53 48 -12 3 -32 18 -43 33
l-21 26 24 6 c12 3 130 7 261 8 l237 2 0 -65z m432 -93 c-2 -87 -6 -159 -7
-161 -1 -1 -52 1 -114 4 l-111 7 0 71 c0 39 -4 76 -8 82 -4 6 -36 15 -72 20
l-65 9 -3 63 -3 62 194 0 194 0 -5 -157z m8095 45 c-3 -62 -8 -130 -12 -150
l-7 -38 -99 0 -99 0 0 105 c0 102 -1 106 -29 137 l-29 33 -244 3 c-240 3 -244
3 -272 -19 l-28 -22 5 -101 c3 -56 9 -111 12 -123 l7 -23 -136 0 -136 0 0 53
c0 28 -5 87 -12 129 -11 76 -12 78 -47 89 -25 8 -103 10 -264 6 -266 -6 -267
-6 -267 -91 0 -28 7 -73 15 -101 9 -27 13 -55 11 -62 -4 -10 -41 -13 -146 -13
l-141 0 7 94 c7 102 3 136 -22 160 -23 24 -555 24 -574 1 -10 -12 -12 -47 -8
-139 l6 -124 -97 -4 c-53 -3 -97 -4 -99 -3 -1 1 -5 33 -9 71 -9 106 -4 104
-219 104 -101 0 -185 4 -188 8 -3 5 -69 12 -146 15 -120 5 -147 3 -176 -11
-30 -14 -38 -14 -56 -3 -12 7 -71 17 -132 23 -97 8 -115 7 -142 -7 -30 -16
-33 -16 -58 0 -23 15 -46 17 -169 13 -101 -4 -151 -9 -172 -21 -27 -13 -33
-13 -50 0 -16 12 -38 13 -110 8 -49 -4 -141 -6 -203 -5 -78 1 -118 -3 -128
-11 -12 -10 -21 -9 -45 5 -24 14 -43 16 -116 10 -49 -4 -107 -15 -130 -25
l-42 -18 -3 -73 c-2 -40 -6 -72 -10 -70 -5 1 -167 2 -360 2 l-353 0 3 55 4 54
-53 26 c-42 20 -68 25 -127 25 -68 0 -76 -2 -103 -29 -25 -25 -29 -37 -29 -84
l0 -54 -46 -7 c-26 -3 -80 -6 -120 -6 l-74 0 0 77 c0 65 -3 80 -22 100 -19 20
-31 23 -105 23 -94 0 -140 -16 -148 -53 -3 -12 -6 -49 -7 -82 l-3 -60 -102 0
c-98 0 -103 1 -131 28 l-29 28 -363 -3 c-283 -2 -364 -6 -368 -16 -12 -38 -34
-45 -126 -38 -49 3 -91 8 -93 10 -2 2 -1 71 3 155 l7 151 3879 0 3879 0 -4
-112z m395 17 c29 -26 92 -66 160 -99 62 -31 127 -67 143 -80 l30 -25 -187 -1
c-104 0 -191 0 -195 0 -5 0 -9 56 -11 125 -1 69 1 125 5 125 4 0 29 -20 55
-45z m-9411 -45 c20 -14 104 -80 186 -148 153 -125 172 -149 149 -189 -8 -12
-13 -308 -17 -963 -5 -683 -10 -956 -18 -983 -9 -29 -9 -42 -1 -52 14 -16 28
-911 15 -941 -12 -28 -14 -127 -2 -142 6 -8 7 -179 3 -485 -6 -454 -10 -542
-26 -552 -11 -7 -195 186 -215 226 -10 19 -44 64 -76 101 l-59 66 0 2052 c0
1638 3 2050 13 2044 6 -5 28 -20 48 -34z m4159 -121 c0 -7 20 -10 55 -7 l55 3
0 -62 0 -63 -80 0 -80 0 0 70 c0 68 1 70 25 70 14 0 25 -5 25 -11z m961 1 c0
-5 0 -32 0 -60 0 -27 0 -54 0 -60 -1 -6 -48 -10 -121 -10 l-120 0 0 60 0 60
74 0 c41 0 78 5 81 10 3 6 24 10 46 10 21 0 39 -4 40 -10z m364 -60 l0 -65
-140 -3 -140 -3 3 71 4 71 136 -3 137 -3 0 -65z m122 59 c6 -6 49 -9 112 -7
l101 3 0 -62 0 -63 -135 0 -135 0 0 63 c0 35 3 67 7 70 10 11 38 8 50 -4z
m-1087 -66 l0 -63 -90 0 -90 0 0 63 0 62 90 0 90 0 0 -62z m282 -55 c-2 -5
-49 -8 -105 -8 l-102 0 3 60 4 59 96 3 97 3 5 -55 c3 -30 4 -58 2 -62z m1374
6 c-4 -11 -35 -14 -140 -14 -153 0 -153 0 -148 74 l4 45 141 3 142 3 3 -49 c2
-27 1 -55 -2 -62z m-4043 31 c-3 -11 -568 -20 -593 -9 -35 16 58 22 320 20
178 -1 274 -5 273 -11z m1467 -65 c-8 -5 -11 -12 -7 -16 4 -4 159 -10 345 -14
185 -4 -476 -7 -1469 -8 l-1806 -2 5 25 4 24 1472 1 c902 0 1465 -4 1456 -10z
m6220 0 c13 -8 15 -254 18 -2092 3 -2011 2 -2084 -16 -2103 -18 -20 -50 -20
-4713 -17 l-4694 2 3 995 c1 696 -1 995 -8 995 -8 0 -9 48 -5 153 3 83 8 543
10 1020 3 478 7 873 10 878 4 5 5 36 4 69 -3 67 2 75 49 83 28 6 32 4 32 -14
0 -19 4 -21 33 -16 17 3 26 3 20 0 -10 -4 -13 -113 -13 -498 l0 -494 23 -13
c12 -6 40 -14 62 -16 22 -2 676 -3 1453 -2 1291 1 1412 0 1412 -15 0 -9 11
-27 24 -40 l25 -25 1606 0 c1256 0 1610 3 1625 12 13 8 20 24 20 43 l0 30 448
-4 c246 -2 894 0 1440 4 l994 7 -6 469 c-5 476 -6 488 -44 532 -14 16 -155 17
-2656 19 -1896 2 -2328 4 -1532 8 1042 5 1109 6 1120 23 10 16 99 17 1626 17
1000 0 1621 -4 1630 -10z m-260 -101 c0 -6 7 -9 15 -5 10 4 17 -4 24 -27 5
-18 9 -223 10 -457 l1 -425 -1387 0 c-764 0 -1409 -4 -1435 -8 -43 -7 -48 -11
-48 -35 l0 -27 -1508 1 c-829 1 -1542 2 -1584 3 l-78 1 0 34 c0 27 -5 36 -21
41 -12 4 -24 2 -28 -4 -5 -7 -439 -11 -1449 -13 l-1442 -3 0 468 0 467 4465 0
c3258 0 4465 -3 4465 -11z"/>
<path d="M5356 4913 c-3 -4 -6 -306 -6 -672 1 -658 1 -665 -20 -681 -20 -15
-20 -24 -21 -511 -1 -451 1 -500 16 -530 21 -41 46 -65 82 -81 21 -10 313 -13
1218 -16 1062 -3 1194 -1 1227 12 23 10 40 25 43 39 3 12 5 258 3 545 l-3 524
-22 18 c-22 18 -22 18 -2 23 20 5 20 8 16 644 -2 351 -6 647 -8 658 -2 11 -11
23 -19 27 -20 9 -2495 10 -2504 1z m2384 -653 c0 -536 -1 -570 -17 -570 -280
-1 -2247 1 -2248 3 -1 1 -5 257 -9 570 l-6 567 1140 0 1140 0 0 -570z m40
-695 c11 -13 -96 -15 -956 -15 -988 0 -1407 7 -1398 22 3 4 531 8 1173 8 1027
0 1170 -2 1181 -15z m-981 -55 l1036 0 0 -35 c0 -19 -3 -35 -7 -35 -5 0 -8
-117 -8 -260 l0 -260 -1220 0 -1220 0 0 269 c0 148 -3 283 -7 301 l-6 33 198
-6 c109 -4 664 -7 1234 -7z m1021 -852 l-5 -173 -940 0 c-910 1 -1406 8 -1446
20 -38 12 -49 56 -49 195 l0 130 1223 0 1222 0 -5 -172z"/>
<path d="M7193 4454 c-60 -29 -118 -80 -140 -121 -25 -47 -20 -126 11 -171 41
-60 76 -89 136 -111 110 -42 232 -15 308 67 82 89 82 189 -1 273 -90 90 -212
115 -314 63z m150 -113 c71 -27 89 -102 36 -152 -59 -55 -160 -30 -174 44 -9
46 8 81 47 100 38 19 57 21 91 8z"/>
<path d="M5869 4422 c-87 -32 -129 -86 -129 -166 0 -59 14 -94 52 -127 77 -70
174 -86 262 -46 125 58 168 163 105 260 -58 87 -179 121 -290 79z m152 -92
c22 -12 37 -25 34 -30 -3 -4 1 -15 9 -23 12 -12 12 -19 -4 -55 -29 -63 -97
-82 -161 -45 -54 32 -51 120 4 153 41 25 68 25 118 0z"/>
<path d="M5601 3445 c-24 -14 -54 -25 -67 -25 -18 0 -24 -7 -30 -35 -7 -39 -2
-280 7 -289 11 -11 2150 -7 2164 4 7 6 15 34 19 63 9 78 10 262 2 275 -4 7
-18 12 -32 12 l-24 0 -2 -137 -2 -138 -3 133 c-2 72 -5 133 -6 134 -1 2 -438
5 -972 8 -533 3 -979 8 -990 12 -13 5 -36 -2 -64 -17z"/>
<path d="M5870 2753 c-19 -3 -40 -9 -45 -13 -12 -10 -12 -45 -1 -75 4 -11 10
-26 12 -32 2 -7 12 -13 22 -13 21 0 48 42 38 58 -3 6 -2 13 4 17 9 5 13 -25
14 -96 0 -9 5 -17 10 -18 6 -1 305 -4 664 -8 685 -5 704 -4 715 38 3 12 11 17
21 13 25 -9 46 21 46 65 0 75 44 71 -755 69 -390 0 -726 -3 -745 -5z m1310
-88 l0 -25 -570 0 -570 0 0 25 0 25 570 0 570 0 0 -25z"/>
<path d="M9360 4769 c-30 -5 -86 -17 -125 -26 -38 -9 -76 -16 -82 -15 -7 2
-13 -2 -13 -8 0 -6 -4 -9 -9 -6 -8 5 -113 -30 -232 -77 -282 -114 -532 -316
-692 -559 -185 -282 -243 -619 -160 -935 9 -35 20 -63 24 -63 5 0 6 -6 3 -14
-3 -7 2 -20 10 -29 8 -8 13 -17 10 -20 -7 -7 97 -213 115 -227 11 -9 51 -69
51 -78 0 -9 191 -200 250 -250 137 -116 439 -266 608 -302 28 -7 50 -15 48
-18 -2 -4 8 -7 22 -8 15 0 63 -6 107 -12 213 -32 338 -36 526 -18 167 16 248
33 447 90 51 15 281 130 334 167 14 11 30 19 35 19 6 0 18 9 28 20 10 11 23
20 28 20 11 0 83 65 200 178 67 65 157 180 157 201 0 6 5 11 10 11 6 0 10 7
10 15 0 8 5 15 11 15 5 0 7 5 4 10 -3 6 -2 10 4 10 20 0 112 212 124 285 2 11
9 40 16 63 7 24 12 56 11 70 -1 15 -1 30 -1 35 2 10 2 256 0 262 -2 5 -7 51
-10 83 -2 26 -28 120 -51 182 -34 95 -137 267 -212 355 -12 13 -32 38 -45 55
-40 52 -297 260 -321 260 -6 0 -10 4 -10 8 0 11 -223 122 -244 122 -9 0 -35 8
-58 19 -72 31 -137 52 -263 83 -114 29 -132 30 -365 33 -135 2 -270 -1 -300
-6z m230 -209 l0 -100 -65 0 -65 0 0 94 0 95 48 4 c26 2 55 4 65 5 15 2 17 -9
17 -98z m215 85 c19 -4 20 -9 14 -82 -4 -43 -8 -84 -8 -90 -1 -9 -22 -13 -71
-13 l-70 0 0 54 c0 29 -3 74 -6 99 l-6 45 63 -4 c35 -3 73 -7 84 -9z m-405
-95 l0 -90 -95 0 -95 0 0 65 c0 36 0 68 0 73 0 11 94 33 178 41 9 1 12 -23 12
-89z m607 63 l73 -18 0 -52 c0 -83 0 -83 -99 -83 l-86 0 0 85 c0 99 -5 96 112
68z m-867 -88 l0 -65 -90 0 -90 0 0 35 c0 30 4 35 33 44 17 6 57 19 87 30 30
11 56 20 58 21 1 0 2 -29 2 -65z m260 -165 l0 -40 -97 0 -98 0 0 40 0 40 98 0
97 0 0 -40z m-510 -145 l0 -55 -90 0 -90 0 0 48 c0 27 3 52 7 55 3 4 44 7 90
7 l83 0 0 -55z m250 -2 l0 -58 -85 0 -85 0 0 58 0 57 85 0 85 0 0 -57z m258
-3 l3 -55 -98 3 -98 3 0 55 0 55 95 -3 95 -3 3 -55z m417 5 l0 -55 -75 0 -75
0 0 55 0 55 75 0 75 0 0 -55z m255 -2 l0 -58 -87 3 -88 3 2 52 c1 29 2 53 2
55 1 1 39 2 86 2 l85 0 0 -57z m232 0 l-3 -58 -77 3 -77 3 0 55 0 54 80 0 80
0 -3 -57z m416 -3 l3 -55 -76 3 -75 4 0 47 c0 26 3 51 7 55 4 4 37 6 73 4 l65
-3 3 -55z m-2070 -187 l-3 -78 -67 -3 -66 -3 -4 81 -3 80 73 0 73 0 -3 -77z
m234 -3 l-4 -80 -78 0 c-90 0 -90 0 -90 96 l0 64 88 0 87 0 -3 -80z m256 3
l-3 -78 -82 -3 -81 -3 -4 81 -3 80 88 0 88 0 -3 -77z m260 0 l-3 -78 -92 -3
-93 -3 0 65 c0 35 -3 71 -6 80 -5 14 7 16 95 16 l102 0 -3 -77z m192 0 l-5
-78 -57 -3 -58 -3 0 81 0 80 63 0 62 0 -5 -77z m223 0 l-2 -78 -70 -3 -71 -3
0 65 c0 35 -3 71 -6 80 -5 14 5 16 72 16 l79 0 -2 -77z m255 0 l-3 -78 -83 0
-83 0 -2 78 -2 77 88 0 88 0 -3 -77z m234 2 l-4 -75 -76 0 -77 0 0 75 0 75 80
0 80 0 -3 -75z m208 0 l0 -75 -64 0 -64 0 -4 75 -3 75 68 0 67 0 0 -75z m202
68 c2 -5 2 -38 0 -75 l-4 -68 -64 0 -64 0 0 75 0 75 64 0 c36 0 66 -3 68 -7z
m178 -25 c12 -19 20 -51 20 -75 l0 -43 -64 0 -64 0 -4 75 -3 75 48 0 c43 0 49
-3 67 -32z m-2460 -253 l0 -75 -55 0 -55 0 0 75 0 75 55 0 55 0 0 -75z m220 0
l0 -75 -70 0 -70 0 0 75 0 75 70 0 70 0 0 -75z m230 0 l0 -75 -79 0 c-90 0
-91 1 -91 98 l0 52 85 0 85 0 0 -75z m260 0 l0 -75 -85 0 -85 0 0 75 0 75 85
0 85 0 0 -75z m260 0 l0 -75 -94 0 -94 0 -4 75 -3 75 98 0 97 0 0 -75z m190 0
l0 -75 -60 0 -60 0 0 75 0 75 60 0 60 0 0 -75z m222 0 l-4 -75 -68 0 -68 0 -4
75 -3 75 75 0 75 0 -3 -75z m258 0 l0 -75 -85 0 -85 0 0 59 c0 33 -3 66 -6 75
-5 14 6 16 85 16 l91 0 0 -75z m230 0 l0 -75 -74 0 -74 0 -4 75 -3 75 78 0 77
0 0 -75z m210 11 c0 -91 0 -92 -70 -88 l-60 4 0 74 0 74 65 0 65 0 0 -64z
m200 -13 l0 -78 -65 3 -65 4 0 74 0 74 65 0 65 0 0 -77z m200 2 l0 -75 -65 0
-65 0 0 75 0 75 65 0 65 0 0 -75z m-2480 -215 l0 -80 -55 0 -55 0 0 80 0 80
55 0 55 0 0 -80z m218 3 l-3 -78 -67 -3 -68 -3 0 81 0 80 70 0 71 0 -3 -77z
m232 -3 l0 -80 -80 0 -80 0 0 80 0 80 80 0 80 0 0 -80z m260 0 l0 -80 -85 0
-85 0 0 80 0 80 85 0 85 0 0 -80z m252 -6 l3 -74 -92 0 -91 0 -4 75 c-2 41 0
76 4 78 4 1 46 1 92 -1 l84 -3 4 -75z m198 1 l0 -75 -60 0 -60 0 0 75 0 75 60
0 60 0 0 -75z m222 0 l-4 -75 -68 0 -68 0 -4 75 -3 75 75 0 75 0 -3 -75z m258
0 l0 -76 -86 3 -86 3 -1 73 -2 72 88 0 87 0 0 -75z m230 0 l0 -75 -74 0 -74 0
-4 75 -3 75 78 0 77 0 0 -75z m208 3 l-3 -73 -62 -3 -63 -3 0 76 0 75 65 0 66
0 -3 -72z m202 -3 l0 -75 -65 0 -65 0 0 75 0 75 65 0 65 0 0 -75z m200 0 l0
-75 -64 0 -64 0 -4 75 -3 75 68 0 67 0 0 -75z m-200 -195 l0 -70 -65 0 -65 0
0 65 0 64 63 4 c34 2 63 4 65 5 1 1 2 -29 2 -68z m-2280 -10 l0 -70 -55 0 -55
0 0 70 0 70 55 0 55 0 0 -70z m218 3 l-3 -68 -67 -3 -68 -3 0 71 0 70 70 0 71
0 -3 -67z m232 -3 l0 -70 -80 0 -80 0 0 70 0 70 80 0 80 0 0 -70z m258 3 l-3
-68 -82 -3 -83 -3 0 71 0 70 85 0 86 0 -3 -67z m250 0 l-3 -68 -70 -3 c-109
-5 -110 -4 -110 73 l0 65 93 0 93 0 -3 -67z m202 2 l0 -65 -60 0 -60 0 0 65 0
65 60 0 60 0 0 -65z m225 0 l0 -65 -75 0 -75 0 0 65 0 65 75 0 75 0 0 -65z
m255 0 l0 -65 -87 0 -88 0 0 65 0 65 88 0 87 0 0 -65z m230 0 l0 -65 -77 0
-78 0 0 65 0 65 78 0 77 0 0 -65z m203 3 l-1 -63 -61 -3 -61 -3 0 66 0 65 63
0 62 0 -2 -62z m407 -3 l0 -66 -66 3 -66 3 -2 63 -1 62 68 0 67 0 0 -65z
m-2480 -210 l0 -85 -55 0 -55 0 0 85 0 85 55 0 55 0 0 -85z m218 3 l-3 -83
-67 -3 -68 -3 0 86 0 85 70 0 71 0 -3 -82z m232 -3 l0 -85 -80 0 -80 0 0 85 0
85 80 0 80 0 0 -85z m260 0 l0 -85 -85 0 -85 0 0 85 0 85 85 0 85 0 0 -85z
m250 0 l0 -85 -88 0 c-49 0 -91 2 -93 4 -2 2 -3 41 -1 85 l4 81 89 0 89 0 0
-85z m200 0 l0 -85 -60 0 -60 0 0 85 0 85 60 0 60 0 0 -85z m220 16 c0 -38 3
-76 6 -85 5 -14 -5 -16 -72 -16 l-79 0 0 85 0 85 73 0 72 0 0 -69z m260 -16
l0 -85 -87 0 -88 0 0 85 0 85 88 0 87 0 0 -85z m230 0 l0 -86 -76 3 -76 3 -1
83 -2 82 78 0 77 0 0 -85z m200 0 l0 -85 -60 0 -60 0 0 85 0 85 60 0 60 0 0
-85z m210 0 l0 -85 -65 0 -65 0 0 85 0 85 65 0 65 0 0 -85z m200 0 l0 -86 -66
3 -66 3 -1 83 -2 82 68 0 67 0 0 -85z m-2264 -197 l-1 -53 -67 -3 -68 -3 0 55
0 55 63 3 c34 2 65 2 68 1 3 -1 6 -26 5 -55z m494 2 l0 -60 -85 0 -85 0 0 55
0 54 83 4 c45 1 83 4 85 5 1 1 2 -25 2 -58z m-260 -5 l0 -55 -80 0 -80 0 0 55
0 55 80 0 80 0 0 -55z m510 0 l0 -56 -91 3 -91 3 -2 53 -1 52 93 0 92 0 0 -55z
m425 0 l0 -55 -75 0 -75 0 0 55 0 55 75 0 75 0 0 -55z m255 0 l0 -56 -86 3
-86 3 -2 53 -1 52 88 0 87 0 0 -55z m230 0 l0 -56 -76 3 -76 3 -2 53 -1 52 78
0 77 0 0 -55z m-1160 -152 l0 -48 -85 3 -85 3 0 45 0 44 85 0 85 0 0 -47z
m250 2 l0 -45 -89 0 -89 0 -4 41 c-2 22 -2 42 1 45 2 2 44 4 93 4 l88 0 0 -45z
m680 0 l0 -45 -87 0 -88 0 0 45 -1 45 88 0 88 0 0 -45z m-1430 -174 c0 -67 -1
-69 -27 -74 -21 -4 -37 3 -65 25 -34 26 -38 35 -38 74 l0 44 65 0 65 0 0 -69z
m240 -1 l0 -70 -80 0 -80 0 0 70 0 70 80 0 80 0 0 -70z m260 0 l0 -70 -85 0
-85 0 0 70 0 70 85 0 85 0 0 -70z m250 0 l0 -70 -92 0 -93 0 2 67 c1 38 2 69
2 71 1 1 42 2 91 2 l90 0 0 -70z m200 0 l0 -70 -60 0 -60 0 0 70 0 70 60 0 60
0 0 -70z m222 0 l3 -70 -75 0 -75 0 3 70 4 70 68 0 68 0 4 -70z m231 60 c27 0
27 -1 27 -65 l0 -65 -87 0 -88 0 2 60 c2 79 5 84 67 76 28 -3 63 -6 79 -6z
m655 -121 c-7 -5 -37 -9 -65 -9 l-53 0 0 65 0 64 63 3 62 3 3 -59 c2 -41 -1
-62 -10 -67z m-398 56 l0 -65 -77 0 -78 0 0 65 0 65 78 0 77 0 0 -65z m200 0
l0 -65 -60 0 -60 0 0 65 0 65 60 0 60 0 0 -65z m-1620 -196 c0 -68 -1 -70 -22
-63 -12 3 -28 13 -36 20 -7 8 -18 14 -24 14 -25 0 -78 52 -78 76 0 23 2 24 80
24 l80 0 0 -71z m260 1 l0 -70 -85 0 -85 0 0 70 0 70 85 0 85 0 0 -70z m250 0
l0 -70 -92 0 -93 0 3 70 4 70 89 0 89 0 0 -70z m200 0 l0 -70 -60 0 -60 0 0
70 0 70 60 0 60 0 0 -70z m222 0 l3 -70 -75 0 -75 0 3 70 4 70 68 0 68 0 4
-70z m258 0 l0 -70 -87 0 -88 0 2 67 c1 38 2 69 3 71 0 1 38 2 85 2 l85 0 0
-70z m230 0 l0 -70 -77 0 -78 0 3 70 4 70 74 0 74 0 0 -70z m-488 -185 l-4
-55 -38 0 c-20 0 -51 -3 -68 -6 l-30 -6 -4 61 -3 61 75 0 75 0 -3 -55z"/>
<path d="M3445 4709 c-33 -4 -96 -12 -140 -17 -83 -10 -198 -37 -320 -74 -38
-12 -73 -22 -76 -22 -3 -1 -30 -12 -60 -25 -131 -57 -179 -82 -179 -92 0 -5
-4 -7 -10 -4 -5 3 -10 1 -10 -5 0 -6 -4 -8 -10 -5 -5 3 -10 1 -10 -4 0 -6 -5
-11 -11 -11 -6 0 -28 -13 -48 -29 -20 -16 -55 -38 -78 -50 -42 -22 -193 -165
-271 -256 -45 -54 -51 -61 -69 -91 -64 -104 -83 -137 -83 -144 0 -5 -14 -35
-31 -67 -111 -210 -136 -561 -57 -798 11 -33 24 -64 29 -69 5 -6 9 -18 9 -28
0 -10 3 -18 8 -18 7 0 43 -73 48 -97 2 -13 72 -130 89 -150 5 -6 21 -26 35
-44 14 -18 30 -38 37 -45 7 -6 9 -14 6 -18 -4 -3 -2 -6 3 -6 10 0 104 -87 104
-96 0 -6 74 -73 82 -74 6 0 123 -83 155 -110 7 -5 17 -10 23 -10 5 0 10 -5 10
-11 0 -5 4 -8 9 -4 6 3 13 0 18 -7 4 -7 28 -23 53 -34 25 -12 69 -33 97 -48
29 -14 57 -26 63 -26 6 0 30 -9 53 -19 24 -11 56 -23 72 -26 17 -4 57 -15 90
-25 33 -10 96 -24 140 -31 44 -6 85 -16 92 -21 7 -5 22 -9 35 -7 13 1 31 -1
40 -5 27 -12 453 -3 469 10 8 6 48 16 89 23 282 47 584 179 776 340 17 14 51
42 74 61 24 19 58 51 74 70 17 19 46 49 64 67 18 18 29 33 25 33 -5 0 -3 4 3
8 10 7 44 56 95 134 13 21 27 38 32 38 4 0 7 9 7 19 0 11 7 27 16 35 8 9 13
16 10 16 -4 0 2 17 12 38 24 47 67 180 83 257 19 86 16 352 -4 440 -31 135
-95 307 -122 327 -5 4 -6 8 -2 8 5 0 -4 17 -20 38 -16 20 -40 55 -53 77 -48
81 -161 205 -256 282 -79 64 -290 203 -308 203 -8 0 -16 3 -18 8 -8 18 -250
108 -338 125 -14 2 -52 12 -86 21 -140 38 -440 62 -559 45z m585 -334 l0 -65
-77 0 -78 0 0 57 0 58 40 6 c22 3 57 7 78 7 l37 2 0 -65z m208 -2 l-3 -68 -67
-3 -68 -3 0 71 0 70 70 0 71 0 -3 -67z m155 28 c44 -22 47 -25 47 -62 l0 -40
-67 3 -68 3 -3 54 c-4 68 2 85 25 73 10 -5 39 -19 66 -31z m-993 -31 l0 -60
-80 0 -80 0 0 60 0 60 80 0 80 0 0 -60z m210 0 l0 -60 -70 0 -70 0 0 60 0 60
70 0 70 0 0 -60z m200 0 l0 -60 -65 0 -65 0 0 60 0 60 65 0 65 0 0 -60z
m-1220 -190 l0 -80 -49 0 c-54 0 -61 7 -61 68 0 28 7 42 33 63 17 16 42 28 55
29 21 0 22 -4 22 -80z m210 0 l0 -80 -64 0 c-58 0 -64 2 -70 23 -8 30 -8 122
1 130 3 4 35 7 70 7 l63 0 0 -80z m180 0 l0 -80 -55 0 -55 0 0 80 0 80 55 0
55 0 0 -80z m182 0 l-4 -80 -51 0 -52 0 0 80 0 80 55 0 55 0 -3 -80z m238 0
l0 -80 -80 0 -80 0 0 80 0 80 80 0 80 0 0 -80z m210 0 l0 -80 -65 0 -65 0 0
80 0 80 65 0 65 0 0 -80z m198 32 c2 -24 -2 -50 -8 -57 -7 -8 -9 -23 -5 -35 6
-19 2 -20 -54 -20 l-61 0 0 80 0 81 63 -3 62 -3 3 -43z m222 14 c0 -18 -3 -54
-6 -80 l-7 -46 -71 0 -71 0 3 80 4 80 74 0 74 0 0 -34z m210 -46 l0 -80 -70 0
-70 0 0 80 0 80 70 0 70 0 0 -80z m198 -2 l-3 -83 -60 4 c-33 2 -63 8 -67 15
-4 6 -8 41 -8 79 l0 67 70 0 71 0 -3 -82z m190 -5 l3 -83 -61 0 -60 0 0 85 0
86 58 -3 57 -3 3 -82z m-2228 -203 l0 -70 -65 0 c-51 0 -67 4 -72 16 -7 19 32
104 47 104 6 0 8 5 5 10 -4 6 12 10 39 10 l46 0 0 -70z m400 0 l0 -70 -65 0
-65 0 0 70 0 70 65 0 65 0 0 -70z m180 0 l0 -70 -54 0 -54 0 -4 70 -3 70 58 0
57 0 0 -70z m420 0 l0 -70 -80 0 -80 0 0 70 0 70 80 0 80 0 0 -70z m210 0 l0
-70 -65 0 -65 0 0 70 0 70 65 0 65 0 0 -70z m185 0 l0 -70 -57 0 -58 0 0 70 0
70 58 0 57 0 0 -70z m225 -5 l0 -75 -68 0 c-38 0 -71 2 -73 4 -2 2 -3 36 -1
75 l4 71 69 0 69 0 0 -75z m218 3 l-3 -73 -67 -3 -66 -3 -4 76 -3 75 73 0 73
0 -3 -72z m202 3 c0 -39 -5 -73 -10 -76 -6 -4 -34 -3 -63 0 l-52 7 0 69 0 69
63 0 62 0 0 -69z m190 -6 l0 -75 -59 0 -59 0 -4 75 -3 75 63 0 62 0 0 -75z
m-2230 -220 l0 -95 -65 0 -65 0 0 95 0 95 65 0 65 0 0 -95z m190 0 l0 -95 -50
0 -50 0 0 95 0 95 50 0 50 0 0 -95z m210 0 l0 -95 -65 0 -65 0 0 95 0 95 65 0
65 0 0 -95z m180 0 l0 -95 -55 0 -55 0 0 95 0 95 55 0 55 0 0 -95z m182 0 l-3
-95 -52 0 -52 0 0 95 0 95 55 0 55 0 -3 -95z m238 0 l0 -95 -80 0 -80 0 0 95
0 95 80 0 80 0 0 -95z m210 0 l0 -95 -65 0 -65 0 0 95 0 95 65 0 65 0 0 -95z
m185 0 l0 -95 -57 0 -58 0 0 95 0 95 58 0 57 0 0 -95z m225 0 l0 -95 -67 0
-68 0 0 95 0 95 68 0 67 0 0 -95z m220 0 l0 -95 -70 0 -70 0 0 95 0 95 70 0
70 0 0 -95z m200 0 l0 -95 -62 0 -63 0 0 95 0 95 63 0 62 0 0 -95z m190 0 l0
-95 -55 0 -55 0 0 58 c0 31 -3 74 -6 95 l-7 37 62 0 61 0 0 -95z m140 0 l0
-95 -40 0 -40 0 0 95 0 95 40 0 40 0 0 -95z m-2570 -230 l0 -75 -60 0 c-67 0
-65 -4 -49 87 l11 63 49 0 49 0 0 -75z m200 0 l0 -75 -65 0 -65 0 0 75 0 75
65 0 65 0 0 -75z m190 0 l0 -75 -49 0 -49 0 -4 75 -3 75 53 0 52 0 0 -75z
m210 0 l0 -75 -65 0 -65 0 0 75 0 75 65 0 65 0 0 -75z m180 0 l0 -75 -55 0
-55 0 0 75 0 75 55 0 55 0 0 -75z m182 0 l-4 -75 -51 0 -52 0 0 75 0 75 55 0
55 0 -3 -75z m238 0 l0 -75 -80 0 -80 0 0 75 0 75 80 0 80 0 0 -75z m210 0 l0
-75 -65 0 -65 0 0 75 0 75 65 0 65 0 0 -75z m185 0 l0 -75 -57 0 -58 0 0 75 0
75 58 0 57 0 0 -75z m225 0 l0 -75 -67 0 -68 0 0 75 0 75 68 0 67 0 0 -75z
m218 3 l-3 -73 -67 -3 -66 -3 -4 76 -3 75 73 0 73 0 -3 -72z m202 -3 l0 -75
-62 0 -63 0 0 75 0 75 63 0 62 0 0 -75z m190 0 l0 -75 -54 0 -54 0 -4 75 -3
75 58 0 57 0 0 -75z m449 12 c16 -91 18 -87 -43 -87 l-54 0 -4 75 -3 75 46 0
47 0 11 -63z m-2879 -224 l0 -78 -60 0 -60 0 0 40 c0 22 -3 57 -6 78 l-7 37
67 0 66 0 0 -77z m200 0 l0 -78 -65 0 -65 0 0 78 0 77 65 0 65 0 0 -77z m190
0 l0 -78 -49 0 -50 0 -3 78 -3 77 53 0 52 0 0 -77z m210 0 l0 -78 -65 0 -65 0
0 78 0 77 65 0 65 0 0 -77z m180 0 l0 -78 -54 0 -55 0 -3 78 -3 77 58 0 57 0
0 -77z m182 0 l-3 -78 -49 0 -49 0 -3 78 -3 77 55 0 55 0 -3 -77z m238 0 l0
-78 -79 0 -80 0 -3 78 -3 77 83 0 82 0 0 -77z m210 0 l0 -78 -65 0 -65 0 0 78
0 77 65 0 65 0 0 -77z m182 3 l-4 -74 -54 -4 -54 -3 0 78 0 77 58 0 57 0 -3
-74z m230 -3 l-3 -78 -64 0 -64 0 -3 78 -3 77 70 0 70 0 -3 -77z m216 1 l-3
-76 -67 -2 -67 -1 -3 78 -3 77 73 0 73 0 -3 -76z m202 -1 l0 -78 -59 3 -59 4
-4 74 -3 74 63 0 62 0 0 -77z m190 0 l0 -78 -54 0 -55 0 -3 78 -3 77 58 0 57
0 0 -77z m466 0 c-4 -42 -9 -80 -12 -85 -3 -4 -27 -8 -54 -8 l-49 0 -3 85 -3
85 64 0 64 0 -7 -77z m-2696 -223 l0 -80 -65 0 -65 0 0 80 0 80 65 0 65 0 0
-80z m190 0 l0 -80 -49 0 -49 0 -4 80 -3 80 53 0 52 0 0 -80z m210 0 l0 -80
-65 0 -65 0 0 80 0 80 65 0 65 0 0 -80z m180 0 l0 -80 -55 0 -55 0 0 80 0 80
55 0 55 0 0 -80z m180 0 l0 -80 -49 0 -49 0 -4 80 -3 80 53 0 52 0 0 -80z
m240 0 l0 -80 -80 0 -80 0 0 80 0 80 80 0 80 0 0 -80z m208 -2 l3 -78 -66 0
-65 0 0 80 0 81 63 -3 62 -3 3 -77z m184 2 l-4 -80 -54 0 -54 0 0 80 0 80 58
0 57 0 -3 -80z m228 0 l0 -80 -64 0 -64 0 -4 80 -3 80 68 0 67 0 0 -80z m215
0 l0 -75 -67 -3 -68 -3 0 81 0 81 68 -3 67 -3 0 -75z m205 0 l0 -80 -59 0 -59
0 -4 80 -3 80 63 0 62 0 0 -80z m188 -2 l3 -78 -55 0 -54 0 -4 80 -3 81 55 -3
55 -3 3 -77z m-2228 -198 l0 -60 -65 0 -65 0 0 60 0 60 65 0 65 0 0 -60z m400
0 l0 -60 -65 0 -65 0 0 60 0 60 65 0 65 0 0 -60z m600 0 l0 -60 -80 0 -80 0 0
60 0 60 80 0 80 0 0 -60z m210 0 l0 -60 -65 0 -65 0 0 60 0 60 65 0 65 0 0
-60z m410 0 l0 -60 -67 0 -68 0 0 60 0 60 68 0 67 0 0 -60z m215 0 l0 -55 -67
-3 -68 -3 0 61 0 61 68 -3 67 -3 0 -55z m-1437 -182 l-3 -63 -62 -3 -63 -3 0
66 0 65 65 0 66 0 -3 -62z m602 -3 l0 -65 -80 0 -80 0 0 65 0 65 80 0 80 0 0
-65z m208 3 l-3 -63 -62 -3 -63 -3 0 66 0 65 65 0 66 0 -3 -62z m412 -3 l0
-65 -67 0 -68 0 0 65 0 65 68 0 67 0 0 -65z m210 0 l0 -65 -65 0 -65 0 0 65 0
65 65 0 65 0 0 -65z m210 0 l0 -65 -62 0 -63 0 0 65 0 65 63 0 62 0 0 -65z
m-420 -180 l0 -65 -64 0 -64 0 -4 60 -3 59 65 4 c36 2 66 4 68 5 1 1 2 -27 2
-63z m210 0 l0 -66 -62 3 -63 3 -3 63 -3 62 66 0 65 0 0 -65z m210 0 l0 -65
-62 0 -63 0 0 65 0 65 63 0 62 0 0 -65z m-1640 -5 l0 -60 -65 0 -65 0 0 60 0
60 65 0 65 0 0 -60z m600 0 l0 -60 -80 0 -80 0 0 60 0 60 80 0 80 0 0 -60z
m210 0 l0 -60 -65 0 -65 0 0 60 0 60 65 0 65 0 0 -60z m-210 -187 l0 -68 -80
3 -80 4 0 64 0 64 80 0 80 0 0 -67z m210 0 l0 -68 -65 0 -65 0 0 68 0 67 65 0
65 0 0 -67z m410 2 l0 -65 -64 0 -64 0 -4 65 -3 65 68 0 67 0 0 -65z m210 0
l0 -65 -65 0 -65 0 0 65 0 65 65 0 65 0 0 -65z"/>
<path d="M8030 2180 c-10 -6 -550 -10 -1477 -10 l-1462 0 -25 -24 c-23 -20
-26 -31 -26 -90 0 -45 5 -75 16 -91 l16 -25 1517 0 c1224 0 1521 2 1535 13 20
15 33 113 22 171 -10 51 -75 83 -116 56z m20 -120 l0 -50 -1459 0 -1459 0 -4
45 -3 44 100 4 c55 1 713 4 1463 5 l1362 2 0 -50z"/>
<path d="M5549 5852 l-2645 -2 -1 -78 c0 -42 0 -174 0 -292 -1 -222 1 -278 11
-287 6 -7 1201 -10 1891 -6 17 0 1248 4 2737 8 l2707 8 6 26 c4 14 5 159 4
323 l-3 298 -1017 0 c-560 0 -1023 1 -1031 3 -7 1 -1204 1 -2659 -1z m-817
-112 l-4 -70 -878 0 -878 0 -4 70 -3 70 885 0 885 0 -3 -70z m3394 54 c-3 -9
-6 -40 -6 -70 l0 -54 -1629 0 -1629 0 -4 70 -3 70 1639 0 c1490 0 1638 -1
1632 -16z m-4214 -304 l-3 -110 -128 0 c-70 0 -283 3 -472 7 l-344 6 2 101 c1
56 2 102 3 104 0 1 213 2 473 2 l472 0 -3 -110z m458 33 c0 -89 7 -106 41
-101 23 3 24 7 27 91 l3 87 109 0 110 0 0 -45 c0 -40 2 -45 23 -45 13 0 28 5
35 12 9 9 12 -5 12 -65 l0 -77 -374 0 -375 0 -3 110 -3 110 198 0 197 0 0 -77z
m532 30 c3 -44 5 -48 30 -51 22 -3 29 2 34 23 3 14 4 37 2 50 -5 22 -2 25 22
25 25 0 27 -3 26 -42 -1 -43 -1 -43 34 -43 31 0 35 3 38 28 2 16 -2 35 -9 43
-10 12 3 14 90 14 l101 0 0 -100 c0 -99 0 -100 26 -106 41 -10 49 8 49 112 l0
94 85 0 86 0 -4 -40 c-4 -39 -3 -40 27 -40 23 0 34 6 44 28 8 15 12 33 10 40
-3 8 10 12 47 12 50 0 51 -1 50 -27 -4 -57 -1 -63 29 -63 23 0 31 6 40 30 5
17 8 37 5 45 -5 12 7 15 70 15 l76 0 0 -46 c0 -44 1 -45 28 -42 24 3 27 7 30
46 l3 42 55 0 c51 0 55 -1 49 -21 -12 -36 3 -69 30 -69 27 0 42 33 32 70 -5
19 0 20 120 20 l125 0 -2 -62 c-3 -95 -3 -98 24 -98 27 0 36 28 36 112 l0 49
73 -3 72 -3 11 -45 c10 -41 14 -45 43 -48 l33 -3 -3 48 -3 48 37 3 c35 3 37 2
37 -28 0 -33 19 -60 43 -60 18 0 27 21 27 61 0 29 0 29 63 29 l62 0 1 -31 c2
-40 19 -57 42 -43 9 6 18 20 18 30 1 11 2 25 3 32 1 6 14 12 30 12 24 0 28 -3
24 -20 -3 -11 -2 -31 1 -45 5 -20 13 -25 37 -25 17 0 28 4 24 9 -3 5 0 13 6
17 6 3 9 19 5 35 l-5 29 84 0 84 0 3 -71 c2 -55 7 -74 20 -83 31 -19 49 19 45
92 l-3 62 76 0 75 0 0 -47 c0 -45 2 -48 25 -48 23 0 25 4 28 48 l3 47 42 0 42
0 0 -47 c0 -44 2 -48 26 -51 28 -3 39 15 39 71 0 26 3 28 33 25 30 -3 32 -6
35 -45 2 -34 7 -43 21 -43 19 0 31 26 31 68 0 16 6 22 24 22 21 0 24 -6 30
-51 6 -40 10 -50 24 -47 12 2 18 16 22 48 l5 45 93 3 92 3 0 -117 0 -117
-1172 6 c-644 4 -1378 7 -1630 7 l-458 0 0 110 c0 102 1 110 19 110 17 0 20
-8 23 -47z m-172 -278 l0 -25 -477 -1 c-263 -1 -658 -4 -879 -8 l-400 -6 0 32
1 33 878 0 877 0 0 -25z m3390 0 l0 -25 -1630 0 -1630 0 0 25 0 25 1630 0
1630 0 0 -25z"/>
</g>
</svg>
