<?xml version="1.0" standalone="no"?>
<!DOCTYPE svg PUBLIC "-//W3C//DTD SVG 20010904//EN"
 "http://www.w3.org/TR/2001/REC-SVG-20010904/DTD/svg10.dtd">
<svg version="1.0" xmlns="http://www.w3.org/2000/svg"
 width="812.000000pt" height="741.000000pt" viewBox="0 0 812.000000 741.000000"
 preserveAspectRatio="xMidYMid meet">
<metadata>
Created by potrace 1.16, written by Peter Selinger 2001-2019
</metadata>
<g transform="translate(0.000000,741.000000) scale(0.100000,-0.100000)"
fill="#000000" stroke="none">
<path d="M4725 6611 c3 -6 -15 -9 -44 -9 -28 1 -56 -4 -64 -11 -11 -8 -16 -9
-19 -1 -2 7 -13 4 -30 -9 -14 -12 -31 -21 -36 -21 -5 0 -12 -7 -16 -15 -8 -22
-52 -18 -78 5 -13 12 -31 28 -40 36 -13 13 -30 14 -82 9 -36 -4 -64 -11 -61
-15 8 -13 -43 -20 -150 -22 -67 -1 -104 -6 -113 -15 -16 -15 -48 -17 -57 -3
-8 12 -92 13 -99 1 -7 -11 -58 -21 -146 -26 -39 -3 -80 -10 -91 -15 -10 -6
-44 -10 -74 -9 -31 1 -61 -3 -67 -9 -15 -15 -61 -15 -75 -1 -8 8 -19 6 -41 -5
-17 -9 -52 -15 -82 -15 -34 1 -55 -3 -60 -12 -7 -10 -18 -10 -53 -2 -38 8 -52
7 -84 -8 -39 -19 -113 -26 -113 -10 0 4 -12 6 -27 3 -24 -5 -25 -6 -8 -12 30
-11 -102 -23 -167 -16 -38 4 -47 3 -33 -4 14 -7 0 -9 -50 -5 -50 3 -60 1 -35
-4 30 -7 31 -9 9 -10 -14 0 -48 -3 -75 -6 -36 -3 -42 -2 -24 4 30 11 6 14 -40
5 -18 -4 -27 -10 -20 -14 15 -10 -210 -32 -247 -24 -19 4 -33 1 -38 -6 -5 -7
-28 -9 -73 -5 -49 5 -79 2 -111 -9 -51 -19 -75 -20 -65 -5 8 14 -32 2 -61 -17
-13 -10 -40 -12 -90 -9 -54 3 -62 2 -35 -5 28 -7 19 -8 -42 -6 -52 2 -76 -1
-75 -8 1 -6 -13 -12 -31 -14 -20 -2 -32 1 -32 9 0 14 -109 6 -119 -9 -6 -10
-66 -18 -190 -28 -41 -3 -83 -9 -92 -15 -10 -5 -28 -9 -41 -9 -19 0 -20 2 -8
11 11 8 5 9 -25 5 -22 -3 -49 -6 -60 -6 -15 0 -16 -3 -7 -9 8 -5 -24 -11 -79
-14 -68 -5 -95 -4 -100 5 -11 17 -13 12 -36 -64 -16 -51 -17 -68 -8 -68 19 0
117 -152 104 -161 -7 -4 -8 -12 -5 -18 4 -6 11 -9 15 -6 12 7 31 -67 25 -93
-4 -13 -2 -22 5 -22 17 0 14 -105 -4 -120 -16 -14 -21 -55 -5 -45 18 11 11
-23 -16 -80 -15 -30 -33 -55 -40 -55 -8 0 -14 -6 -14 -14 0 -14 -29 -30 -38
-21 -3 3 1 5 9 6 8 0 6 4 -6 9 -13 5 -25 3 -35 -5 -27 -24 -70 -36 -90 -25
-15 8 -28 6 -56 -9 -20 -11 -42 -17 -50 -14 -8 3 -17 -2 -20 -11 -3 -9 -11
-16 -17 -16 -7 0 -7 4 1 12 17 17 15 33 -2 19 -11 -9 -18 -6 -36 19 -33 46
-36 29 -4 -22 23 -36 28 -54 27 -108 0 -36 2 -59 4 -52 3 6 9 12 15 12 5 0 8
-5 6 -12 -2 -6 6 -22 19 -36 28 -30 88 -134 85 -146 -2 -5 6 -15 18 -23 11 -8
20 -19 20 -25 0 -5 9 -23 21 -39 11 -16 22 -36 23 -43 1 -7 10 -21 19 -31 10
-10 16 -24 13 -31 -3 -7 4 -16 15 -19 14 -5 19 -13 16 -26 -3 -11 0 -19 7 -19
14 0 73 -100 59 -100 -4 0 -1 -5 7 -10 8 -5 15 -16 15 -24 0 -9 3 -15 7 -13
16 6 85 -115 79 -142 -1 -7 2 -11 6 -8 12 8 46 -50 38 -63 -3 -6 0 -10 8 -10
21 0 137 -196 129 -218 -2 -7 1 -12 7 -12 17 0 80 -101 74 -118 -4 -9 -2 -13
4 -9 12 8 57 -69 48 -83 -2 -4 3 -10 13 -12 9 -3 26 -23 37 -44 11 -22 30 -53
43 -71 13 -18 21 -37 17 -43 -3 -5 0 -10 7 -10 7 0 33 -37 58 -82 54 -100 56
-103 41 -94 -6 4 -11 2 -11 -3 0 -6 8 -11 19 -11 11 0 21 -9 25 -22 8 -32 8
-32 22 -43 23 -17 85 -128 80 -142 -3 -7 1 -13 9 -13 13 0 20 -19 16 -43 -1
-5 3 -6 8 -3 10 6 91 -117 91 -138 0 -7 8 -21 18 -32 28 -32 64 -103 57 -115
-4 -6 2 -13 14 -16 23 -6 64 -65 59 -85 -2 -7 6 -23 17 -35 40 -44 89 -122 81
-130 -2 -3 4 -13 15 -24 10 -10 19 -28 19 -39 0 -11 5 -20 10 -20 6 0 10 -4
10 -10 0 -5 8 -19 18 -29 35 -39 44 -52 39 -57 -3 -3 6 -17 19 -31 13 -14 24
-34 24 -44 0 -11 6 -19 13 -19 13 0 57 -71 57 -93 0 -8 7 -17 15 -21 8 -3 15
-15 15 -26 0 -11 3 -20 8 -20 10 0 37 -62 34 -77 -2 -7 3 -10 12 -7 9 3 17 -3
22 -18 4 -13 6 -25 5 -26 -1 -2 5 -9 15 -16 9 -7 14 -18 10 -24 -4 -7 -3 -12
3 -12 15 0 73 -88 66 -100 -3 -6 1 -10 9 -10 9 0 16 -6 16 -14 0 -8 7 -22 16
-30 8 -9 12 -20 9 -26 -3 -5 1 -10 9 -10 8 0 18 -10 22 -22 3 -12 13 -28 20
-36 8 -7 14 -20 14 -28 0 -8 9 -24 20 -36 11 -12 20 -30 20 -40 0 -10 6 -18
13 -18 7 0 18 -12 25 -27 7 -16 27 -49 45 -75 46 -67 102 -161 102 -173 0 -5
8 -16 18 -24 10 -7 16 -19 13 -27 -3 -8 1 -14 10 -14 10 0 14 -6 10 -15 -3 -8
0 -15 7 -15 15 0 40 -38 32 -50 -3 -5 2 -13 12 -19 10 -5 29 -31 43 -58 14
-26 30 -51 37 -56 7 -4 10 -14 7 -22 -4 -8 -1 -15 5 -15 13 0 61 -81 61 -104
0 -9 4 -15 9 -11 12 7 25 -31 16 -45 -3 -5 1 -10 10 -10 11 0 15 -5 11 -15 -3
-9 0 -15 10 -15 10 0 14 -6 10 -15 -3 -9 0 -15 9 -15 8 0 15 -6 15 -14 0 -8 4
-16 8 -18 15 -6 71 -98 60 -98 -6 0 -3 -9 7 -20 19 -21 72 -29 59 -8 -5 7 -2
9 8 5 9 -3 21 0 27 6 16 16 100 39 140 38 20 -1 43 6 54 16 15 13 21 15 24 6
6 -18 23 -16 23 1 0 19 31 29 64 20 17 -4 26 -2 26 6 0 7 8 9 20 5 14 -4 20
-2 18 6 -2 7 5 15 16 17 11 2 16 0 12 -7 -11 -18 21 -13 40 6 12 12 34 18 67
19 29 0 52 6 57 14 5 8 18 11 38 7 19 -4 37 0 52 10 14 10 44 17 71 17 26 0
46 3 44 7 -5 7 29 19 55 19 13 0 13 -1 0 -10 -13 -8 -13 -10 2 -10 10 0 22 9
29 21 7 14 17 19 31 16 12 -3 27 1 36 10 11 11 26 13 55 9 24 -4 45 -2 53 5 8
6 14 8 14 3 0 -4 7 1 16 12 11 13 17 15 20 7 7 -17 24 -16 43 1 20 16 98 36
117 29 7 -3 21 3 30 12 11 10 27 15 42 12 15 -3 32 1 40 10 10 9 24 12 44 7
19 -4 33 -2 37 5 4 6 33 13 64 15 32 2 65 10 74 18 12 10 17 10 20 1 2 -7 11
-9 19 -6 7 3 12 9 9 13 -8 14 34 22 72 15 26 -5 33 -3 27 6 -5 8 0 10 19 7 17
-3 28 0 32 10 3 10 13 12 31 8 16 -4 23 -3 20 3 -7 11 57 26 72 17 5 -3 26 3
47 14 26 13 43 16 55 10 11 -6 24 -4 39 6 13 10 32 13 46 10 16 -4 25 -1 29
10 5 13 15 15 41 11 21 -4 35 -2 35 5 0 6 9 8 20 5 11 -3 27 1 34 9 18 17 36
18 36 2 0 -6 9 -2 20 10 12 13 33 22 50 22 16 0 50 7 76 16 26 9 56 13 67 10
11 -2 26 2 34 10 16 16 58 20 48 4 -10 -16 12 -12 29 6 9 8 21 12 27 9 5 -4
17 1 24 11 13 17 16 17 25 4 9 -13 12 -13 25 4 10 13 21 17 40 12 15 -4 37 0
56 10 21 10 44 14 68 10 28 -4 32 -3 16 4 -16 9 -14 9 13 5 25 -3 32 -1 32 12
0 12 7 14 35 10 19 -3 35 -2 35 2 0 13 87 34 114 27 15 -4 26 -1 29 7 7 18 81
39 112 31 14 -4 25 -2 25 4 0 13 66 36 80 27 5 -3 21 2 35 11 15 10 25 12 25
5 0 -6 9 -11 20 -11 11 0 20 6 20 14 0 20 27 27 69 20 28 -4 33 -3 21 6 -12 9
-10 11 10 6 19 -4 29 0 38 14 7 12 23 20 39 20 34 0 133 -50 133 -67 0 -7 5
-13 10 -13 6 0 10 5 10 10 0 6 16 10 36 10 21 0 33 -4 29 -10 -3 -5 1 -10 10
-10 8 0 18 6 21 14 5 14 58 33 77 28 14 -4 125 116 171 186 16 23 33 42 37 42
5 0 9 6 9 13 0 22 44 107 56 107 7 0 10 8 7 18 -6 26 44 135 58 126 8 -4 9 0
4 15 -6 21 14 93 24 86 3 -2 7 29 8 68 1 39 6 73 11 76 11 8 12 152 1 145 -5
-3 -9 5 -9 18 0 13 -3 34 -7 47 -5 18 -3 22 6 16 18 -10 3 36 -15 50 -7 5 -29
41 -49 79 -20 38 -43 75 -51 83 -8 8 -14 18 -14 23 0 4 -15 26 -32 48 -57 69
-73 95 -70 110 2 9 -2 13 -11 9 -9 -3 -20 5 -28 21 -11 22 -78 111 -99 132 -3
3 -9 12 -15 22 -5 9 -39 53 -74 99 -35 45 -64 89 -65 98 -1 17 -21 42 -31 41
-15 -2 -45 49 -38 66 4 11 3 15 -4 11 -12 -8 -39 20 -29 30 3 3 -4 11 -17 17
-12 6 -29 26 -37 43 -8 18 -20 33 -25 33 -6 0 -26 25 -45 55 -19 31 -44 66
-55 78 -39 44 -66 88 -60 97 3 6 2 10 -4 10 -6 0 -35 34 -66 75 -30 41 -64 85
-74 98 -53 62 -131 174 -131 187 0 8 -14 24 -30 35 -16 11 -30 25 -30 30 -1
10 -46 68 -87 112 -13 13 -23 28 -23 32 0 5 -14 26 -30 47 -48 61 -147 199
-159 222 -6 11 -17 26 -24 34 -7 7 -28 33 -47 58 -19 25 -43 54 -53 65 -11 11
-30 36 -42 55 -13 19 -37 51 -54 70 -17 19 -31 38 -31 41 0 10 -161 224 -171
227 -5 2 -9 10 -9 17 0 7 -4 15 -8 17 -4 2 -29 33 -55 69 -26 37 -55 70 -63
73 -13 5 -14 9 -4 21 10 12 10 15 -2 15 -8 0 -26 14 -39 31 -13 17 -32 41 -44
54 -17 20 -73 93 -140 185 -50 68 -178 235 -184 240 -3 3 -19 23 -36 45 -43
58 -85 102 -85 88 0 -6 5 -15 10 -18 19 -12 10 -60 -15 -88 l-26 -27 35 0 c19
0 36 5 38 12 3 7 13 5 31 -7 15 -10 26 -23 24 -28 -2 -6 -32 -16 -68 -22 -35
-6 -74 -16 -86 -23 -28 -16 -55 -15 -77 1 -16 12 -17 16 -5 35 9 14 20 20 31
16 10 -3 18 -1 18 5 0 6 6 11 14 11 24 0 28 18 11 43 -8 13 -12 27 -8 32 11
10 -2 5 -64 -28 l-53 -27 -28 27 c-16 16 -41 49 -55 75 -14 25 -32 54 -40 65
-9 10 -44 53 -79 95 -100 122 -118 149 -118 179 0 32 26 63 47 55 8 -3 21 1
29 9 20 19 83 20 90 1 3 -8 11 -13 18 -10 23 9 134 -126 121 -147 -4 -5 1 -9
9 -9 15 0 20 -10 17 -35 0 -6 9 -15 22 -20 12 -6 29 -25 37 -42 8 -18 20 -33
25 -33 6 0 23 -14 39 -30 27 -28 46 -31 46 -9 0 6 -4 8 -9 4 -8 -4 -71 76 -71
91 0 3 -22 31 -48 62 -27 31 -64 80 -82 107 -42 63 -71 95 -87 95 -7 0 -13 9
-13 20 0 11 -7 20 -16 20 -8 0 -13 -4 -9 -9z m-353 -70 c24 -9 72 -83 61 -95
-3 -3 0 -6 9 -6 8 0 30 -21 48 -47 19 -27 39 -51 44 -55 7 -5 6 -8 -2 -8 -7 0
-10 -5 -7 -11 4 -6 9 -8 12 -5 6 5 63 -67 84 -105 6 -13 17 -29 23 -35 59 -61
74 -82 63 -93 -8 -8 -7 -11 3 -11 21 0 49 -30 43 -46 -3 -8 1 -14 10 -14 16 0
27 -20 27 -51 0 -11 7 -19 18 -19 21 0 44 -34 36 -55 -4 -10 0 -15 15 -15 21
0 57 -53 53 -77 -2 -7 3 -13 10 -13 15 0 26 -12 73 -75 16 -22 34 -43 40 -47
6 -5 5 -8 -2 -8 -20 0 -15 -14 9 -25 21 -10 166 -191 167 -209 1 -5 16 -25 34
-45 62 -71 92 -114 98 -140 3 -14 10 -25 16 -24 11 2 133 -161 133 -178 0 -5
7 -9 15 -9 8 0 15 -4 15 -10 0 -11 88 -139 110 -160 25 -24 80 -115 80 -133 0
-10 5 -17 12 -17 20 0 58 -42 58 -66 0 -14 8 -24 21 -27 15 -4 20 -11 16 -21
-4 -10 -1 -16 7 -16 7 0 30 -26 52 -57 34 -52 90 -130 111 -158 5 -5 17 -23
27 -40 11 -16 23 -34 28 -40 23 -27 138 -195 138 -202 0 -5 9 -14 21 -21 12
-8 18 -19 15 -28 -3 -8 0 -14 8 -14 7 0 25 -17 39 -37 14 -21 46 -67 71 -102
24 -36 42 -70 39 -77 -2 -6 6 -14 18 -17 15 -4 20 -11 15 -22 -4 -11 -2 -15 6
-12 15 4 64 -62 60 -80 -2 -7 3 -13 10 -13 7 -1 33 -30 58 -65 25 -36 63 -89
85 -119 96 -131 115 -160 115 -177 0 -11 7 -19 15 -19 9 0 20 -11 25 -24 5
-13 15 -28 23 -33 8 -4 22 -21 33 -38 10 -16 21 -32 24 -35 16 -14 48 -80 39
-80 -6 0 -8 -4 -4 -10 3 -5 12 -7 20 -3 8 3 15 0 15 -5 0 -6 7 -18 16 -26 8
-9 11 -16 5 -16 -6 0 -11 -4 -11 -10 0 -5 8 -10 18 -10 16 0 46 -34 47 -53 0
-4 5 -11 10 -15 27 -19 102 -138 97 -154 -1 -5 5 -8 13 -8 10 0 15 -10 15 -30
0 -16 -4 -30 -10 -30 -5 0 -10 5 -10 10 0 18 -22 10 -27 -10 -6 -22 -19 -27
-25 -9 -3 8 -10 6 -21 -6 -10 -9 -25 -14 -33 -11 -9 3 -25 -1 -37 -9 -15 -11
-24 -12 -34 -3 -10 8 -20 5 -39 -13 -19 -18 -27 -20 -33 -10 -7 10 -11 10 -23
-2 -20 -20 -82 -37 -109 -30 -14 4 -20 2 -16 -4 4 -6 0 -14 -9 -17 -24 -9 -36
-7 -28 6 8 13 -57 3 -66 -11 -7 -12 -44 -22 -82 -23 -18 0 -38 -5 -45 -10 -7
-5 -22 -7 -34 -3 -13 5 -19 3 -15 -3 3 -5 -7 -12 -22 -15 -15 -3 -28 -2 -30 3
-2 4 -12 6 -22 3 -11 -3 -18 -9 -15 -13 2 -3 -18 -12 -46 -18 -62 -15 -72 -15
-64 -2 7 12 3 12 -19 4 -9 -3 -14 -10 -11 -14 8 -12 -31 -22 -55 -15 -11 3
-20 2 -20 -3 0 -13 -84 -34 -104 -26 -9 4 -23 1 -31 -6 -9 -7 -26 -10 -41 -6
-18 5 -30 2 -38 -8 -6 -9 -35 -20 -64 -26 -29 -5 -61 -14 -72 -20 -25 -13 -51
-14 -30 0 12 8 9 10 -12 10 -15 0 -31 -6 -35 -14 -4 -8 -30 -16 -58 -19 -27
-2 -63 -11 -79 -18 -25 -12 -30 -12 -34 0 -3 10 -10 8 -23 -10 -14 -18 -21
-21 -27 -11 -5 7 -16 10 -26 6 -12 -5 -14 -9 -6 -14 15 -10 -75 -21 -108 -14
-19 4 -23 3 -14 -4 11 -7 8 -11 -11 -16 -14 -3 -33 -9 -43 -13 -12 -4 -15 -3
-10 5 11 17 -16 15 -42 -4 -13 -9 -51 -20 -85 -25 -34 -5 -78 -12 -97 -15 -26
-4 -31 -3 -20 5 12 9 11 11 -7 11 -12 0 -31 -9 -42 -21 -11 -12 -25 -19 -33
-16 -7 2 -21 -2 -30 -10 -10 -9 -40 -16 -73 -17 -37 -1 -55 -5 -55 -13 0 -16
-26 -17 -35 -2 -5 7 -14 5 -29 -4 -28 -19 -111 -36 -138 -29 -13 3 -19 1 -15
-5 7 -10 -23 -23 -53 -23 -13 0 -13 1 0 11 11 8 7 9 -19 5 -19 -3 -39 -13 -46
-23 -8 -11 -20 -14 -38 -9 -18 4 -27 2 -27 -5 0 -7 -10 -9 -27 -6 -16 3 -32
-1 -40 -9 -8 -8 -26 -14 -41 -13 l-27 1 25 9 c18 6 12 7 -24 4 -27 -3 -55 -10
-62 -16 -8 -6 -14 -8 -14 -3 0 10 -66 45 -120 64 -19 7 -49 19 -67 26 -17 8
-37 14 -45 14 -8 0 -38 11 -66 25 -29 14 -59 25 -67 25 -9 0 -32 7 -53 17 -20
9 -55 22 -77 28 -22 7 -65 23 -95 35 -76 31 -117 46 -170 60 -25 6 -58 17 -75
24 -69 29 -98 36 -111 25 -7 -6 -17 -8 -22 -5 -20 12 -103 146 -97 156 3 5 0
10 -7 10 -7 0 -23 12 -35 27 -25 29 -32 11 -8 -21 8 -10 12 -23 9 -27 -3 -5 0
-9 5 -9 6 0 11 -9 11 -20 0 -11 6 -20 13 -20 18 0 89 -117 74 -124 -7 -3 -2
-8 11 -11 12 -4 23 -12 23 -19 1 -6 2 -15 4 -21 1 -5 3 -15 3 -21 1 -7 11 -14
23 -17 12 -3 18 -10 15 -15 -3 -5 3 -17 14 -27 11 -10 20 -26 20 -36 0 -9 4
-19 8 -21 15 -6 77 -103 74 -116 -2 -6 2 -12 8 -12 7 0 10 -5 8 -11 -2 -6 9
-25 26 -43 64 -69 87 -136 45 -136 -13 0 -25 11 -35 33 -16 36 -32 62 -54 88
-32 38 -40 48 -40 54 0 3 5 3 10 0 6 -3 10 -2 10 3 0 5 -9 12 -20 15 -11 3
-25 18 -32 34 -7 15 -23 39 -35 53 -15 16 -21 32 -17 44 4 11 2 16 -4 12 -6
-3 -13 -2 -17 4 -3 5 -1 10 4 10 6 0 -7 18 -28 39 -42 42 -74 94 -64 104 3 4
-2 9 -11 13 -9 3 -16 12 -16 19 0 7 -7 16 -16 19 -10 4 -14 14 -11 26 3 12 0
20 -7 20 -15 0 -49 57 -41 70 3 6 -1 10 -9 10 -9 0 -20 16 -27 40 -7 22 -16
40 -20 40 -5 0 -6 6 -3 14 3 8 -8 23 -25 36 -17 12 -31 28 -31 36 0 8 -5 14
-11 14 -6 0 -9 5 -7 12 3 7 -9 23 -24 36 -16 14 -27 31 -24 38 3 8 1 14 -4 14
-5 0 -23 25 -42 56 -18 31 -40 68 -49 83 -9 14 -14 32 -11 40 3 9 1 12 -6 7
-12 -7 -35 27 -25 38 3 3 2 6 -4 6 -15 0 -127 180 -126 201 1 10 -5 20 -13 23
-9 3 -12 10 -9 16 3 5 2 10 -4 10 -14 0 -39 52 -34 68 3 6 -2 12 -10 12 -8 0
-26 21 -40 48 -14 26 -43 74 -65 107 -28 42 -37 62 -29 67 9 6 9 8 0 8 -22 0
-53 39 -53 66 0 14 -4 23 -10 19 -11 -7 -43 52 -35 65 3 6 0 10 -7 10 -7 0
-19 10 -27 21 -11 18 -11 23 1 30 10 7 7 11 -10 15 -16 5 -21 11 -17 25 4 12
1 19 -7 19 -24 1 -107 129 -108 168 0 13 -6 22 -16 22 -9 0 -14 6 -11 13 3 7
-3 19 -14 25 -11 7 -16 18 -13 27 4 10 0 15 -12 16 -11 0 -14 3 -6 6 19 7 14
23 -7 23 -19 0 -37 32 -33 58 2 6 -3 12 -11 12 -7 0 -21 16 -30 35 -12 25 -13
35 -4 35 6 0 1 6 -12 13 -13 6 -28 19 -32 27 -4 8 -24 43 -44 77 -20 35 -34
67 -30 73 3 5 -1 10 -10 10 -9 0 -15 5 -13 12 3 7 -8 25 -24 42 -16 16 -26 36
-24 43 3 7 -1 13 -9 13 -13 0 -20 18 -16 43 0 4 -5 7 -11 7 -19 1 -79 110 -73
130 4 12 -1 19 -16 23 -16 4 -19 10 -14 28 6 17 4 21 -7 17 -18 -8 -73 78 -55
86 7 2 2 8 -11 11 -12 4 -22 12 -22 19 0 6 -14 31 -30 56 -33 49 -39 94 -14
104 11 4 14 1 10 -12 -7 -21 3 -36 28 -45 11 -4 16 -13 12 -22 -7 -20 4 -51
14 -35 10 15 61 -65 54 -85 -4 -10 0 -15 11 -15 12 0 15 -5 10 -21 -5 -15 -2
-22 12 -25 23 -6 65 -66 68 -97 4 -36 4 -37 18 -37 7 0 23 -13 35 -30 13 -16
18 -30 12 -30 -5 0 -10 -4 -10 -10 0 -5 10 -10 21 -10 17 0 19 -3 10 -14 -10
-12 -8 -17 9 -26 18 -9 19 -14 9 -27 -11 -12 -10 -14 7 -11 14 2 18 -2 16 -16
-2 -11 1 -15 8 -11 7 4 16 -5 23 -24 6 -17 15 -31 19 -31 4 0 5 -6 2 -14 -3
-7 2 -16 10 -19 9 -4 16 -16 16 -27 0 -11 5 -20 11 -20 6 0 9 -7 5 -15 -3 -9
0 -15 8 -15 8 0 13 -6 12 -12 0 -7 3 -14 7 -15 23 -7 87 -116 87 -150 0 -7 4
-13 9 -13 9 0 33 -36 73 -107 10 -18 14 -33 8 -33 -5 0 -7 -6 -4 -14 3 -8 11
-13 18 -10 8 3 23 -15 37 -43 13 -26 28 -51 33 -54 5 -4 5 -12 2 -18 -4 -6 -1
-11 6 -11 16 0 54 -59 50 -77 -2 -7 4 -13 12 -13 9 0 12 -7 9 -20 -3 -13 0
-20 8 -20 8 0 31 -27 51 -60 20 -33 33 -60 28 -60 -19 0 -10 -18 11 -23 16 -4
19 -11 14 -26 -5 -17 -2 -21 15 -21 12 0 18 -4 15 -10 -3 -5 -2 -10 4 -10 6 0
19 -18 30 -39 10 -22 28 -56 41 -75 12 -20 18 -36 13 -36 -4 0 0 -5 10 -11 9
-6 15 -14 12 -19 -3 -5 3 -15 13 -22 26 -19 104 -153 95 -162 -4 -3 0 -6 9 -6
23 0 10 55 -19 85 -14 14 -20 25 -14 25 7 0 -1 14 -18 31 -17 17 -31 39 -31
50 0 10 -5 19 -11 19 -6 0 -9 5 -7 11 2 6 -9 25 -24 41 -27 29 -38 55 -18 43
6 -3 10 -1 10 4 0 6 -6 11 -14 11 -8 0 -21 12 -29 27 -29 56 -43 79 -70 118
-45 66 -117 177 -117 182 0 2 5 1 10 -2 6 -3 10 -1 10 4 0 6 -4 11 -10 11 -11
0 -71 85 -64 92 7 7 -24 63 -36 64 -21 3 -22 4 -10 19 7 8 8 15 3 15 -21 0
-54 42 -48 61 4 13 2 19 -8 19 -8 0 -34 33 -58 73 -23 39 -46 74 -49 77 -14
10 -49 83 -44 92 3 4 -1 11 -10 14 -8 3 -22 17 -31 31 -14 21 -15 27 -4 34 11
7 9 10 -7 15 -23 6 -64 72 -57 92 3 6 -2 12 -11 12 -17 0 -52 57 -48 78 2 6
-2 12 -8 12 -6 0 -14 8 -17 18 -4 9 -22 36 -40 60 -18 24 -33 50 -33 57 0 7
-6 16 -12 18 -10 4 -9 8 2 16 13 9 13 11 -1 11 -18 0 -49 41 -49 65 0 8 -4 15
-10 15 -5 0 -10 6 -10 13 0 7 -9 18 -20 25 -11 7 -20 16 -20 22 0 5 -14 32
-30 60 -17 28 -28 56 -25 61 4 5 0 9 -8 9 -16 0 -40 47 -31 61 3 5 -1 12 -10
15 -19 7 -68 82 -61 93 2 5 -2 11 -10 15 -8 3 -15 12 -15 20 0 7 -7 17 -16 20
-9 3 -14 12 -11 19 2 6 -3 17 -12 24 -13 10 -13 12 -2 13 8 0 -3 16 -24 37
-21 20 -34 38 -28 40 6 2 -2 17 -18 34 -16 17 -26 36 -22 45 3 9 0 14 -8 12
-20 -5 -33 44 -25 94 5 36 12 47 29 52 18 5 19 8 7 16 -12 7 -12 12 -2 22 6 6
12 27 12 46 0 25 5 35 20 39 20 5 28 23 10 23 -18 0 -10 22 10 27 11 3 20 10
20 15 0 5 -5 6 -12 2 -8 -5 -9 -2 -4 12 5 10 11 27 13 37 3 9 12 17 19 17 8 0
14 7 14 16 0 9 -5 12 -12 8 -7 -5 -9 -2 -5 7 41 95 57 137 57 151 0 10 9 22
20 28 11 6 18 16 14 21 -9 15 26 49 50 49 17 0 18 -2 6 -10 -10 -7 1 -8 35 -4
28 4 55 10 61 15 16 13 153 32 185 25 16 -3 29 -1 31 6 2 6 28 13 57 16 43 4
52 2 46 -8 -6 -10 -2 -12 16 -7 13 4 30 7 37 7 7 0 11 4 8 9 -8 13 61 21 139
16 53 -3 63 -2 40 5 -24 7 -17 8 33 6 34 -2 60 -1 57 4 -5 7 51 20 90 20 17 0
17 -2 5 -10 -24 -15 5 -13 65 6 34 10 71 13 115 9 41 -3 58 -2 45 4 -25 11 83
25 202 25 44 1 77 4 71 7 -14 9 47 19 106 18 l51 -2 -40 -7 -40 -7 40 0 c22
-1 54 3 70 7 l30 8 -30 2 c-22 2 -16 5 25 12 30 5 78 7 105 4 36 -4 46 -3 35
5 -11 7 1 9 40 5 35 -4 48 -3 35 3 -16 7 -11 9 25 13 25 3 49 1 55 -3 16 -15
92 -10 109 6 22 22 69 29 111 15 31 -10 39 -10 55 5 14 13 29 16 52 11 18 -3
47 -8 63 -11 27 -4 28 -4 5 4 -25 9 -25 9 -2 10 13 1 32 6 44 12 26 14 99 2
77 -12 -10 -8 -7 -8 11 -3 13 4 37 16 52 27 24 18 31 19 52 8 20 -11 32 -10
78 7 41 15 73 20 126 18 44 -2 80 2 94 9 28 16 50 18 80 6z m-2962 -360 c0 -5
-7 -14 -15 -21 -9 -8 -13 -21 -9 -36 4 -15 2 -24 -5 -24 -6 0 -11 -10 -11 -22
0 -13 -6 -35 -14 -50 -8 -14 -19 -43 -26 -65 -7 -21 -17 -43 -22 -49 -5 -7
-10 -29 -12 -49 -2 -21 -9 -40 -15 -44 -6 -4 -9 -15 -6 -24 8 -19 -12 -60 -26
-52 -5 4 -9 4 -9 1 0 -2 -3 -12 -7 -22 -4 -12 -3 -15 5 -10 7 4 12 1 12 -8 0
-44 -33 -63 -45 -26 -3 11 -15 25 -26 30 -22 12 -25 27 -5 32 11 2 12 9 2 38
-9 28 -16 35 -36 35 -19 0 -29 9 -45 41 -11 23 -28 51 -37 61 -10 11 -18 24
-18 30 0 5 -11 20 -25 33 -14 13 -25 31 -25 39 0 9 -7 25 -15 35 -30 40 -9 94
32 83 14 -4 13 -5 -4 -6 -20 -1 -23 -6 -23 -42 l0 -41 19 23 c16 19 17 25 5
27 -26 6 -15 23 13 20 16 -2 28 2 29 10 1 6 2 16 3 20 1 8 42 12 136 15 11 0
23 6 27 11 5 7 11 7 20 -2 9 -9 9 -12 -5 -12 -9 0 -17 -7 -17 -15 0 -23 17
-18 38 13 18 25 26 27 91 29 39 2 71 -1 71 -6z m3795 -255 c11 -2 25 -5 32 -5
7 -1 27 -22 44 -48 18 -27 40 -53 48 -60 12 -9 12 -12 3 -13 -7 0 -10 -5 -7
-10 4 -6 10 -8 15 -5 5 3 13 -3 19 -13 5 -10 28 -40 50 -68 23 -27 39 -55 36
-61 -2 -7 2 -13 9 -13 8 0 33 -23 56 -52 36 -46 40 -56 35 -89 -4 -22 -2 -40
4 -44 6 -3 8 -11 5 -17 -4 -6 1 -6 14 1 17 9 26 7 48 -12 26 -23 27 -25 11
-48 -21 -29 -21 -39 -3 -39 8 0 35 -9 59 -19 34 -15 56 -35 89 -81 23 -34 42
-66 41 -71 -2 -5 3 -9 10 -9 13 -1 83 -88 75 -95 -3 -3 16 -27 41 -53 71 -74
111 -129 111 -151 0 -11 5 -23 10 -26 15 -9 12 -25 -6 -25 -8 0 -13 4 -9 9 7
13 -3 18 -55 25 -25 3 -39 3 -32 0 19 -9 14 -24 -8 -24 -11 0 -20 -4 -20 -8 0
-4 31 -8 69 -8 76 -1 131 -28 131 -65 0 -11 7 -22 15 -25 8 -4 15 -19 15 -34
0 -31 15 -49 23 -28 5 16 67 -39 67 -59 0 -7 4 -13 10 -13 5 0 7 -7 4 -15 -4
-9 0 -15 7 -16 15 0 97 -97 119 -139 7 -14 28 -44 47 -67 19 -24 32 -47 29
-52 -3 -5 3 -11 14 -14 13 -3 18 -10 14 -21 -3 -9 -1 -16 5 -16 21 0 61 -54
55 -73 -4 -11 1 -24 12 -31 27 -20 11 -44 -33 -49 -33 -4 -31 -5 12 -5 70 0
75 -1 74 -9 -3 -19 2 -33 11 -33 5 0 6 8 3 18 -6 15 -5 15 10 3 13 -10 14 -17
7 -26 -8 -9 -8 -15 0 -20 6 -4 9 -14 8 -22 -2 -9 12 -23 34 -35 34 -18 55 -38
110 -107 10 -11 13 -21 8 -21 -6 0 -10 -4 -10 -10 0 -5 8 -10 18 -10 20 0 89
-96 84 -117 -2 -8 1 -12 7 -9 5 3 19 -7 30 -23 16 -21 18 -31 9 -34 -7 -3 -3
-6 10 -6 12 -1 22 -5 22 -10 0 -5 16 -28 35 -51 19 -23 35 -51 35 -62 0 -10 4
-17 10 -13 5 3 16 -5 24 -17 18 -28 11 -108 -10 -108 -7 0 -15 -3 -17 -7 -3
-5 14 -8 38 -8 24 0 41 3 38 8 -2 4 0 7 5 7 13 0 46 -38 48 -57 2 -9 8 -19 15
-23 7 -5 10 -19 7 -35 -5 -23 -3 -26 16 -21 25 6 87 -47 112 -96 8 -15 19 -28
24 -28 5 0 11 -8 14 -17 4 -10 19 -33 36 -51 18 -21 26 -40 23 -49 -4 -10 -2
-14 4 -10 12 8 73 -59 73 -79 0 -22 -27 -36 -49 -25 -15 8 -22 8 -28 -2 -4 -6
-25 -23 -45 -37 -21 -14 -38 -28 -38 -32 0 -5 -7 -8 -15 -8 -8 0 -15 -7 -15
-15 0 -9 -9 -15 -23 -15 -16 0 -43 24 -95 88 -39 48 -72 95 -72 105 0 10 -4
16 -9 13 -5 -3 -26 19 -46 50 -42 63 -54 135 -27 166 13 15 12 19 -3 34 -16
16 -19 16 -45 1 -32 -20 -56 -14 -66 15 -8 26 20 65 69 97 31 20 37 30 37 59
0 19 -4 32 -11 30 -6 -2 -11 -8 -12 -13 -1 -6 -18 -18 -38 -28 -20 -9 -46 -27
-58 -38 -20 -19 -26 -20 -48 -8 -26 14 -83 86 -83 105 0 7 -4 14 -9 16 -5 2
-34 35 -65 73 -31 39 -60 75 -65 81 -47 57 -168 251 -162 259 5 5 7 20 5 32
-3 15 6 29 27 46 l30 23 -39 13 c-35 12 -43 11 -63 -2 -46 -33 -81 21 -39 63
25 25 25 30 2 30 -10 0 -22 3 -26 7 -3 4 -21 7 -38 7 -28 1 -41 13 -110 101
-42 55 -91 123 -107 150 -17 28 -38 60 -48 73 -43 57 -84 108 -95 121 -10 12
-9 16 1 19 8 3 6 9 -8 19 -28 19 -27 26 10 62 22 22 26 31 14 31 -8 0 -18 7
-21 15 -4 10 -10 12 -18 7 -6 -5 -25 -12 -42 -15 -31 -6 -31 -5 -29 32 3 48
14 69 26 50 7 -11 9 -10 9 4 0 9 -9 26 -19 36 -20 20 -20 20 -44 0 -14 -10
-30 -19 -35 -19 -16 0 -70 74 -64 89 2 8 1 11 -4 8 -10 -6 -49 36 -94 103 -17
25 -46 67 -65 94 -19 26 -35 57 -35 68 0 11 -8 22 -19 25 -11 3 -32 23 -46 45
-23 34 -25 44 -15 63 16 31 62 55 90 48 17 -4 21 -2 18 8 -3 8 -16 14 -29 14
-13 0 -32 5 -43 11 -15 9 -23 6 -42 -13 -25 -25 -57 -30 -70 -10 -13 17 -9 70
5 75 13 4 15 48 2 56 -5 3 -19 -3 -33 -13 -19 -16 -28 -17 -45 -8 -34 19 -114
134 -106 153 4 11 2 15 -4 11 -13 -8 -105 92 -100 108 2 5 -7 18 -20 28 -13
10 -23 23 -23 29 0 9 -14 28 -60 85 -25 30 -3 70 50 92 23 10 71 8 125 -3z
m-4158 -214 c10 -15 23 -34 28 -43 6 -9 31 -49 58 -88 26 -39 47 -77 47 -83 0
-7 11 -23 24 -37 40 -42 127 -194 122 -213 -3 -13 2 -18 15 -18 10 0 19 -6 19
-14 0 -7 7 -19 15 -26 9 -7 14 -19 11 -27 -3 -7 0 -13 7 -13 12 0 37 -44 37
-67 0 -7 7 -13 15 -13 8 0 15 -5 15 -11 0 -5 -4 -7 -10 -4 -5 3 -10 1 -10 -4
0 -6 7 -11 15 -11 17 0 36 -32 40 -66 1 -13 16 -36 32 -51 31 -29 68 -91 60
-100 -3 -2 6 -16 19 -30 15 -17 22 -33 18 -45 -3 -12 0 -18 10 -18 19 0 46
-38 39 -56 -3 -8 1 -14 11 -14 9 0 16 -5 16 -12 0 -6 7 -20 17 -30 10 -12 12
-18 4 -18 -7 0 -9 -5 -6 -11 4 -6 10 -8 13 -5 8 8 44 -53 37 -64 -7 -11 16
-50 30 -50 10 0 28 -28 88 -135 16 -27 37 -64 48 -81 10 -17 16 -34 12 -38 -4
-3 3 -13 15 -22 12 -8 29 -30 38 -47 9 -18 25 -42 36 -54 11 -12 17 -26 14
-32 -4 -5 5 -22 19 -37 14 -15 24 -34 23 -43 -2 -9 3 -15 11 -13 9 2 12 -4 9
-16 -3 -12 2 -23 14 -31 11 -7 17 -19 14 -27 -3 -8 1 -14 9 -14 14 0 59 -73
60 -95 0 -5 10 -18 23 -29 14 -11 21 -24 17 -36 -4 -11 4 -28 23 -46 27 -28
105 -151 128 -205 7 -15 17 -29 22 -33 6 -3 8 -15 5 -26 -3 -13 0 -20 8 -20
14 -1 69 -72 69 -89 0 -4 9 -16 20 -26 13 -11 18 -25 14 -37 -3 -12 0 -18 10
-18 8 0 20 -10 27 -21 8 -15 8 -19 0 -15 -6 4 -11 2 -11 -3 0 -6 6 -11 13 -11
15 0 69 -88 62 -101 -4 -5 1 -9 9 -9 15 0 21 -12 17 -33 -1 -4 10 -18 23 -30
28 -25 116 -165 116 -184 0 -7 5 -13 10 -13 6 0 10 -5 10 -12 0 -7 12 -25 27
-40 23 -24 25 -31 13 -38 -12 -8 -12 -10 2 -15 10 -4 26 -21 37 -38 12 -18 30
-45 40 -61 11 -16 17 -35 14 -42 -3 -8 1 -14 11 -14 9 0 13 -6 10 -14 -3 -7 2
-16 10 -19 9 -4 16 -14 16 -23 0 -9 11 -25 25 -35 13 -11 22 -26 19 -33 -3 -7
1 -16 9 -19 8 -3 27 -27 42 -54 16 -26 33 -51 39 -55 8 -6 6 -11 -4 -18 -13
-8 -11 -11 7 -16 12 -3 25 -15 28 -25 4 -10 11 -19 16 -19 6 0 8 -9 4 -19 -3
-12 0 -23 8 -28 20 -11 72 -95 69 -110 -2 -7 2 -13 8 -13 6 0 9 -4 5 -10 -3
-5 13 -28 35 -50 22 -22 38 -45 35 -50 -4 -6 -2 -10 4 -10 14 0 43 -58 36 -70
-3 -6 0 -10 8 -10 21 0 48 -35 41 -54 -3 -9 -1 -16 6 -16 6 0 26 -11 44 -25
18 -14 38 -25 43 -25 33 0 123 -147 123 -202 0 -15 5 -30 10 -33 6 -3 10 -18
10 -32 0 -18 -4 -24 -15 -19 -18 7 -19 2 -3 -23 9 -14 8 -27 -4 -57 -8 -22
-13 -44 -11 -51 2 -6 -1 -14 -6 -18 -6 -3 -11 -14 -11 -25 0 -20 -22 -32 -45
-24 -9 4 -15 0 -15 -10 0 -9 7 -16 15 -16 16 0 20 -18 7 -35 -14 -20 -64 -55
-72 -50 -4 3 -13 -2 -20 -10 -7 -8 -18 -15 -25 -15 -7 0 -15 -7 -18 -15 -7
-17 -83 -55 -112 -55 -27 0 -67 53 -58 76 4 12 3 15 -5 10 -7 -4 -22 12 -39
43 -30 54 -49 69 -33 25 12 -31 12 -34 2 -34 -4 0 -16 15 -26 32 -11 18 -41
66 -68 106 -50 75 -59 102 -33 102 16 0 10 26 -12 48 -11 12 -16 12 -29 1 -17
-14 -16 -15 -51 44 -10 15 -20 27 -24 27 -13 0 -6 -52 7 -57 8 -3 14 -14 14
-24 0 -11 7 -22 15 -25 8 -4 15 -12 15 -19 0 -7 3 -15 8 -17 17 -8 51 -68 46
-82 -4 -10 -1 -16 8 -16 14 0 43 -47 40 -62 -1 -5 5 -8 14 -8 11 0 15 -6 11
-20 -3 -13 0 -20 10 -20 9 0 13 -6 9 -15 -3 -8 0 -15 7 -15 7 -1 31 -32 54
-71 23 -38 38 -67 32 -64 -5 4 -9 -5 -9 -19 0 -14 -4 -26 -8 -26 -12 0 -53 76
-45 84 3 3 1 6 -4 6 -17 0 -72 80 -66 96 3 8 -1 14 -10 14 -9 0 -19 10 -23 22
-3 12 -15 31 -25 42 -12 12 -17 27 -13 39 4 12 2 17 -4 13 -12 -7 -33 18 -58
71 -10 24 -22 43 -26 43 -5 0 -8 7 -8 15 0 8 -4 15 -10 15 -5 0 -19 19 -31 42
-12 24 -28 51 -36 60 -9 10 -13 24 -10 33 4 9 1 15 -8 15 -9 0 -23 17 -33 38
-9 20 -21 40 -26 43 -5 4 -5 12 -2 18 4 6 0 11 -8 11 -9 0 -16 5 -16 10 0 6 5
10 10 10 7 0 7 7 0 21 -7 12 -18 18 -26 15 -8 -3 -14 -1 -14 5 0 5 -10 23 -21
39 -12 16 -19 36 -16 44 4 10 1 16 -9 16 -9 0 -14 6 -11 13 3 8 -4 20 -14 28
-11 8 -27 24 -35 37 -15 23 -15 23 17 20 32 -4 77 -48 49 -48 -7 0 4 -15 24
-34 35 -33 48 -55 25 -40 -7 4 -10 1 -7 -7 3 -8 10 -13 15 -12 12 2 59 -77 55
-93 -1 -7 5 -15 14 -18 9 -4 14 -13 10 -21 -3 -9 0 -15 9 -15 8 0 25 -18 37
-40 13 -22 29 -40 36 -40 6 0 12 2 12 5 0 14 -59 116 -97 168 -23 32 -45 68
-49 80 -4 12 -22 40 -40 61 -36 42 -44 76 -19 76 21 0 20 4 -30 81 -25 39 -43
74 -40 79 3 5 -3 14 -14 19 -28 16 -82 107 -74 127 4 10 2 15 -3 11 -5 -3 -19
10 -32 29 -12 19 -18 34 -12 34 5 0 2 9 -7 19 -33 36 -43 50 -43 60 0 6 -11
22 -25 37 -13 14 -22 30 -19 35 3 5 0 9 -5 9 -6 0 -21 16 -33 35 -13 19 -28
33 -35 30 -7 -2 -15 1 -19 7 -4 7 -3 8 4 4 7 -4 12 -3 12 2 0 13 -30 71 -40
77 -5 3 -7 12 -3 20 3 8 0 15 -6 15 -6 0 -11 -7 -11 -15 0 -25 -24 -7 -50 38
-34 58 -34 55 -14 74 17 17 16 18 -14 21 -20 2 -36 11 -43 24 -9 16 -8 19 2
16 8 -3 18 0 24 5 7 6 -2 22 -24 48 -19 21 -38 35 -41 29 -3 -5 -11 -5 -20 1
-11 8 -12 12 -2 16 17 7 15 24 -5 52 -15 23 -17 23 -23 6 -6 -16 -10 -13 -33
20 -31 45 -33 55 -13 55 11 0 7 15 -15 57 -17 32 -35 63 -41 70 -5 7 -8 18 -6
25 5 15 -39 41 -54 32 -10 -6 -35 17 -55 54 -17 29 -16 42 2 42 12 0 10 10
-10 50 -14 27 -25 52 -25 55 0 14 -47 49 -62 47 -19 -3 -42 33 -34 54 3 8 1
14 -5 14 -5 0 -7 11 -3 25 3 14 2 25 -4 25 -5 0 -12 10 -16 23 -3 13 -17 40
-30 60 -14 20 -23 44 -20 52 4 8 1 15 -6 15 -6 0 -14 -9 -17 -20 -12 -46 -48
3 -38 51 5 23 0 41 -27 82 -18 28 -32 56 -30 61 2 5 -6 15 -18 23 -20 14 -29
40 -10 28 6 -3 10 -2 10 3 0 5 -8 12 -17 14 -10 3 -25 18 -33 34 -23 46 -62
94 -74 93 -25 -3 -36 2 -36 15 0 8 5 16 10 18 7 2 5 19 -5 47 -8 24 -12 47 -9
52 3 5 0 9 -5 9 -6 0 -11 6 -11 14 0 7 -9 16 -19 19 -11 3 -22 17 -26 36 -4
17 -12 31 -19 31 -6 0 -29 33 -51 73 -21 39 -53 94 -71 120 -18 26 -31 54 -27
62 3 9 -1 15 -8 15 -8 0 -22 14 -31 30 -9 17 -12 30 -7 30 6 0 9 5 7 11 -2 6
-7 9 -10 7 -4 -2 -35 40 -70 92 -90 135 -110 171 -104 186 3 7 -4 16 -15 19
-10 4 -19 10 -19 15 0 5 -7 16 -17 25 -14 14 -14 18 -2 26 12 7 11 9 -2 9 -17
0 -64 87 -60 110 2 8 0 12 -4 8 -10 -9 -38 19 -31 31 3 5 -1 11 -9 15 -8 3
-15 10 -15 16 0 6 5 8 10 5 6 -3 10 1 10 9 0 22 39 41 53 27 8 -8 5 -11 -10
-11 -16 0 -19 -5 -15 -25 2 -14 8 -25 12 -25 5 0 29 -33 54 -72 25 -40 46 -69
46 -64 0 13 -68 122 -85 136 -22 18 -18 28 9 23 13 -3 27 0 30 6 4 6 0 11 -8
11 -30 0 -17 36 19 56 19 10 35 22 35 25 0 4 7 10 16 13 20 8 50 -17 71 -57 8
-16 17 -26 20 -23 3 3 -5 21 -17 41 -18 30 -22 46 -18 92 5 54 12 67 56 92 11
6 12 16 4 44 -9 32 -8 36 9 39 18 3 18 5 -6 40 -28 41 -33 78 -11 78 8 0 23
-12 33 -28z m6417 -2904 c-5 -8 -2 -9 10 -5 53 21 66 20 66 -4 0 -15 3 -19 8
-12 11 18 26 4 50 -47 29 -62 37 -297 10 -326 -9 -11 -19 -32 -21 -49 -3 -16
-3 6 0 50 11 180 10 196 -21 258 -16 34 -38 63 -52 69 -13 6 -21 14 -19 19 3
4 -11 7 -32 6 -29 -2 -45 -10 -73 -39 -39 -42 -60 -48 -60 -18 0 22 16 27 23
8 3 -9 7 -7 12 6 5 11 3 21 -4 25 -7 5 -2 15 15 30 21 18 28 20 35 10 8 -13
23 -6 25 12 3 18 4 19 20 19 9 0 12 -5 8 -12z m31 -128 c9 -17 11 -30 5 -30
-18 0 -10 -28 10 -33 16 -4 20 -13 19 -44 l-2 -38 -7 35 c-5 23 -8 -3 -7 -77
0 -102 2 -113 18 -113 25 0 28 -18 12 -70 -23 -79 -63 -148 -63 -108 1 14 17
90 26 121 3 9 1 17 -5 17 -6 0 -15 -18 -21 -40 -6 -22 -15 -38 -19 -35 -5 3
-11 -2 -15 -10 -3 -8 -1 -15 5 -15 6 0 9 -6 6 -12 -2 -7 -10 -12 -17 -10 -8 2
-11 -4 -7 -19 6 -22 1 -36 -44 -135 -11 -22 -19 -46 -19 -52 0 -7 -9 -12 -21
-12 -15 0 -19 -5 -15 -18 4 -12 -6 -30 -29 -55 -19 -20 -35 -34 -35 -31 0 4
-11 -5 -25 -20 -14 -15 -35 -26 -50 -26 -14 0 -24 -4 -20 -9 7 -13 -52 4 -71
20 -8 6 -14 18 -14 26 0 10 -6 12 -19 8 -12 -3 -23 0 -28 8 -4 8 -23 16 -42
19 -25 4 -39 0 -56 -18 -15 -15 -30 -21 -44 -17 -12 3 -21 1 -21 -4 0 -11
-147 -47 -170 -41 -8 1 -14 -3 -13 -9 4 -16 -23 -17 -33 -1 -5 8 -10 7 -18 -3
-6 -8 -40 -23 -76 -33 -36 -10 -74 -21 -84 -24 -13 -3 -17 -1 -12 6 5 8 0 12
-12 12 -12 0 -22 -9 -25 -21 -5 -17 -11 -21 -33 -16 -17 3 -33 -1 -42 -10 -10
-10 -25 -13 -44 -9 -15 3 -28 1 -28 -4 0 -5 -6 -7 -14 -4 -8 3 -17 1 -21 -5
-3 -6 -21 -11 -38 -11 -18 0 -68 -12 -111 -26 -64 -20 -81 -23 -88 -12 -6 10
-13 8 -27 -9 -21 -25 -41 -29 -58 -12 -7 7 -15 6 -27 -6 -9 -9 -21 -13 -27
-10 -5 4 -18 0 -27 -8 -9 -8 -28 -17 -42 -20 -14 -3 -36 -9 -49 -13 -17 -5
-22 -4 -17 4 12 20 -19 13 -45 -9 -18 -16 -32 -19 -59 -14 -27 4 -32 3 -20 -5
12 -10 11 -11 -9 -6 -13 2 -34 -2 -47 -11 -13 -8 -31 -12 -41 -9 -9 4 -20 1
-24 -5 -3 -6 -25 -11 -48 -11 -23 0 -57 -6 -76 -14 -20 -8 -46 -12 -59 -8 -16
4 -25 1 -29 -10 -4 -9 -14 -16 -22 -16 -9 0 -13 5 -10 10 11 18 -15 11 -62
-17 -34 -20 -47 -23 -53 -13 -6 9 -17 6 -49 -11 -34 -20 -43 -21 -50 -10 -7
11 -10 10 -18 -4 -10 -17 -56 -26 -121 -25 -13 0 -30 -7 -39 -15 -11 -12 -19
-13 -28 -5 -10 9 -19 6 -35 -10 -18 -18 -29 -20 -63 -15 -31 4 -38 3 -27 -4
13 -9 13 -11 -2 -11 -10 0 -18 -4 -18 -9 0 -5 6 -8 13 -7 6 0 14 -3 17 -9 3
-6 -11 -11 -31 -13 -30 -2 -37 1 -42 18 -5 20 -6 20 -36 3 -17 -10 -31 -24
-31 -30 0 -7 -4 -13 -10 -13 -5 0 -10 6 -10 14 0 16 -37 28 -46 15 -3 -6 -14
-7 -23 -4 -10 3 -24 -1 -31 -10 -14 -17 -35 -21 -25 -5 7 11 -6 13 -29 4 -9
-3 -14 -10 -11 -14 6 -10 -51 -21 -72 -13 -10 4 -14 2 -9 -5 7 -12 -7 -17 -71
-27 -24 -4 -43 -11 -43 -16 0 -5 5 -9 10 -9 21 0 9 -18 -21 -30 -23 -10 -33
-10 -42 -1 -9 9 -8 14 3 21 12 8 10 10 -10 11 -23 0 -23 1 -5 9 18 8 17 9 -7
9 -18 1 -28 -4 -28 -13 0 -14 -108 -38 -167 -38 -13 0 -23 -7 -23 -14 0 -9
-11 -14 -30 -14 -16 0 -30 3 -30 8 0 4 -23 8 -50 9 -39 1 -50 -2 -50 -14 0
-11 7 -14 25 -9 14 4 25 2 25 -3 0 -19 -58 -23 -84 -6 -24 16 -26 16 -26 1 0
-9 5 -16 11 -16 5 0 7 -5 4 -10 -10 -16 -58 -11 -85 10 -21 16 -23 22 -12 37
6 10 16 28 22 41 5 12 16 22 25 22 18 0 20 17 3 22 -8 3 -4 9 10 17 12 6 22
19 22 27 0 8 -4 12 -10 9 -5 -3 -10 1 -10 9 0 8 5 18 10 21 13 8 13 192 0 200
-6 4 -8 15 -5 26 4 13 2 19 -9 19 -9 0 -16 8 -16 18 0 10 -5 23 -12 30 -9 9
-9 15 0 24 9 9 12 9 12 -1 0 -7 4 -10 10 -6 14 9 0 35 -19 35 -10 0 -17 9 -17
25 -2 21 1 23 16 15 21 -11 138 -2 146 11 3 5 20 10 37 10 30 2 31 2 5 6 -16
2 -28 10 -28 16 0 7 -3 22 -6 35 -5 16 -2 22 10 22 9 0 16 -7 16 -15 0 -10 10
-15 26 -15 21 0 24 3 15 13 -13 16 -5 27 21 27 10 0 29 6 41 14 25 17 122 36
181 36 23 1 52 7 66 15 14 8 53 14 91 15 36 0 70 5 77 12 9 9 16 8 29 -4 22
-18 83 -32 83 -18 0 6 14 10 30 10 17 0 30 5 30 11 0 7 11 8 30 4 19 -4 37 -2
46 6 8 7 39 13 67 13 29 1 58 7 66 14 9 8 24 11 43 6 23 -4 29 -3 23 6 -5 9
-1 10 15 5 14 -5 20 -3 16 3 -3 6 0 13 6 15 7 3 -4 6 -24 6 -20 1 -40 -3 -43
-9 -8 -12 -62 -13 -69 -1 -10 16 18 28 94 40 41 7 89 16 106 22 39 11 57 12
50 0 -7 -10 61 -8 71 3 3 3 -7 7 -23 7 -28 1 -28 2 6 9 19 5 45 11 58 15 15 5
22 3 22 -6 0 -8 8 -4 20 9 12 12 33 22 48 22 22 0 24 -2 12 -11 -11 -8 -8 -9
14 -4 17 3 35 13 41 22 7 10 29 16 58 17 25 0 52 7 59 13 16 17 45 17 52 1 3
-9 9 -7 20 6 12 15 30 20 67 21 28 1 54 6 57 11 9 13 88 36 122 36 14 0 45 6
69 14 26 9 57 12 74 8 19 -4 27 -3 23 4 -9 14 30 25 61 18 15 -4 22 -3 19 3
-4 5 24 16 61 25 38 9 79 19 93 22 20 4 22 3 10 -5 -13 -9 -12 -11 6 -11 12 0
28 10 36 22 13 19 18 21 31 10 13 -11 24 -9 69 12 32 15 62 23 76 19 13 -3 22
-1 22 6 0 6 9 11 21 11 11 0 18 -4 15 -9 -4 -5 3 -7 14 -4 11 3 17 9 14 14 -6
10 36 22 85 23 20 1 41 7 47 15 6 8 20 12 31 9 12 -3 47 3 78 14 31 10 65 16
76 13 13 -4 19 -2 19 9 0 11 9 16 28 16 22 0 24 -2 12 -11 -11 -8 -8 -9 15 -4
17 4 34 13 38 21 4 8 16 14 25 14 15 0 15 -2 2 -11 -12 -8 -11 -9 5 -6 11 2
19 9 17 16 -2 10 6 12 31 7 26 -5 36 -3 41 9 3 8 15 15 26 15 12 0 18 -4 15
-10 -3 -5 -1 -10 5 -10 6 0 13 7 17 16 4 11 13 14 31 9 15 -4 28 -1 32 5 4 7
32 12 63 13 30 1 53 4 52 8 -2 3 12 5 31 5 19 0 34 -2 34 -5 0 -4 21 -6 46 -6
37 0 50 6 66 25 12 14 25 24 31 22 5 -2 7 4 3 13 -8 23 22 65 41 58 13 -5 15
-2 9 12 -4 11 -4 17 -1 13 3 -3 18 -2 33 2 40 12 40 12 57 -20z m-310 -27 c19
-26 -9 -48 -61 -48 -23 0 -40 -3 -38 -6 5 -8 -42 -29 -64 -29 -15 0 -15 2 -2
10 13 8 12 10 -3 10 -10 0 -31 -10 -47 -21 -17 -13 -45 -22 -72 -23 -23 -1
-49 -5 -56 -9 -7 -5 -21 -5 -33 -2 -13 4 -28 0 -41 -12 -16 -13 -22 -15 -25
-5 -4 10 -10 10 -28 -2 -15 -10 -36 -14 -57 -11 -18 3 -27 2 -20 -1 16 -7 -54
-44 -83 -43 -20 0 -20 0 0 10 16 7 12 8 -14 4 -19 -3 -39 -12 -45 -20 -10 -14
-15 -14 -50 3 -23 12 -34 22 -27 26 6 4 11 2 11 -3 0 -16 26 -13 44 4 8 8 22
15 30 15 9 0 16 4 16 9 0 13 49 20 54 7 3 -7 10 -4 20 7 10 13 21 17 35 12 11
-3 34 1 52 11 18 9 53 17 80 18 26 0 45 4 43 8 -2 4 5 10 17 13 13 4 24 2 29
-5 5 -8 11 -8 22 3 17 18 94 41 107 32 5 -3 11 0 13 5 2 6 21 13 43 15 30 4
35 3 20 -4 -18 -9 -17 -10 8 -10 21 -1 30 5 34 19 6 22 23 26 41 8 9 -9 13 -7
18 5 8 21 14 21 29 0z m-3404 -551 c8 -10 18 -26 22 -35 8 -22 53 -22 66 1 8
14 13 15 30 5 12 -7 31 -13 44 -13 13 0 32 -9 42 -20 18 -19 17 -20 -3 -20
-12 0 -22 -4 -22 -10 0 -5 -16 -10 -35 -10 -22 0 -38 -6 -41 -15 -5 -11 -18
-13 -54 -10 -35 4 -51 1 -60 -10 -7 -9 -21 -13 -31 -10 -11 4 -26 0 -35 -9
-18 -18 -34 -21 -34 -6 0 6 -9 10 -20 10 -12 0 -20 7 -20 16 0 13 -8 15 -35
12 l-35 -4 26 21 c16 13 25 28 22 40 -4 29 41 35 49 7 5 -21 46 -38 63 -27 6
4 10 19 10 36 0 16 5 29 11 29 5 0 7 5 4 10 -7 11 2 30 13 30 4 0 14 -8 23
-18z m3147 -324 c-8 -23 -62 -45 -98 -41 -28 4 -32 2 -20 -7 12 -9 8 -10 -17
-5 -23 5 -33 3 -33 -5 0 -8 -9 -10 -24 -6 -17 4 -26 1 -30 -10 -5 -13 -16 -15
-59 -11 -28 3 -43 3 -32 0 15 -4 9 -9 -24 -20 -36 -12 -45 -12 -53 -1 -7 10
-12 8 -27 -9 -21 -26 -37 -29 -45 -10 -3 8 -9 7 -20 -6 -9 -12 -21 -17 -34
-13 -13 5 -22 1 -26 -10 -4 -11 -13 -14 -29 -11 -12 3 -31 -1 -41 -9 -11 -8
-29 -14 -40 -14 -17 0 -18 2 -6 10 8 5 12 10 8 10 -3 0 -13 3 -22 6 -12 4 -16
0 -16 -15 0 -22 -7 -24 -50 -22 -20 2 -22 0 -10 -8 13 -9 13 -11 -1 -11 -9 0
-22 7 -29 15 -8 9 -8 15 -2 15 6 0 14 9 17 21 6 18 12 20 41 14 22 -4 34 -2
34 5 0 7 8 9 19 5 12 -4 21 0 25 11 5 13 9 14 20 5 11 -9 18 -8 31 6 10 9 34
18 54 19 20 1 52 8 71 17 19 8 49 13 65 10 24 -4 27 -2 15 7 -12 9 -7 10 25 7
24 -2 49 2 62 11 14 9 33 12 49 8 18 -5 24 -3 18 5 -5 9 0 10 18 6 18 -5 28
-2 32 8 3 8 13 15 21 15 9 0 13 -4 10 -10 -3 -5 -3 -10 2 -10 12 0 39 20 28
20 -5 0 -3 5 5 10 23 15 123 13 118 -2z"/>
</g>
</svg>
