<?xml version="1.0" standalone="no"?>
<!DOCTYPE svg PUBLIC "-//W3C//DTD SVG 20010904//EN"
 "http://www.w3.org/TR/2001/REC-SVG-20010904/DTD/svg10.dtd">
<svg version="1.0" xmlns="http://www.w3.org/2000/svg"
 width="1212.000000pt" height="1054.000000pt" viewBox="0 0 1212.000000 1054.000000"
 preserveAspectRatio="xMidYMid meet">
<metadata>
Created by potrace 1.16, written by Peter Selinger 2001-2019
</metadata>
<g transform="translate(0.000000,1054.000000) scale(0.100000,-0.100000)"
fill="#000000" stroke="none">
<path d="M2991 9541 c-10 -10 -21 -40 -25 -72 -10 -78 -37 -172 -52 -185 -8
-6 -14 -18 -14 -26 0 -8 -5 -19 -12 -26 -7 -7 -9 -12 -5 -12 4 0 -2 -18 -13
-40 -11 -21 -20 -45 -20 -51 0 -7 -9 -22 -19 -33 -11 -12 -36 -77 -56 -146
-19 -69 -45 -142 -55 -163 -11 -21 -20 -44 -20 -52 0 -8 -6 -29 -14 -47 -8
-18 -20 -48 -26 -65 -7 -18 -16 -30 -21 -28 -4 3 -15 -19 -24 -49 -9 -31 -21
-58 -26 -61 -5 -4 -9 -15 -9 -26 0 -10 -9 -36 -20 -56 -11 -21 -20 -43 -20
-50 0 -7 -4 -13 -9 -13 -5 0 -12 -12 -15 -27 -17 -69 -37 -174 -47 -245 -7
-43 -14 -76 -18 -74 -3 2 -6 -12 -7 -31 0 -22 -7 -39 -17 -45 -10 -5 -17 -21
-17 -36 0 -48 -47 -169 -80 -207 -9 -11 -25 -40 -34 -65 -10 -25 -22 -48 -28
-51 -5 -3 -12 -25 -15 -48 -3 -22 -11 -41 -17 -41 -10 0 -46 -113 -71 -223 -2
-9 -13 -30 -24 -46 -12 -16 -35 -65 -52 -109 -20 -55 -37 -83 -50 -87 -11 -4
-17 -10 -14 -15 3 -5 2 -10 -2 -12 -5 -1 -19 -37 -33 -78 -14 -41 -32 -81 -40
-90 -8 -8 -30 -62 -49 -120 -19 -58 -40 -110 -47 -116 -8 -6 -14 -17 -14 -23
0 -17 -29 -110 -45 -146 -7 -16 -14 -47 -14 -68 0 -21 -8 -52 -17 -70 -28 -53
-31 -61 -39 -97 -4 -19 -11 -41 -15 -50 -32 -68 -46 -95 -55 -104 -15 -17 -52
-97 -59 -133 -4 -17 -13 -34 -21 -37 -8 -3 -17 -21 -21 -41 -3 -20 -13 -39
-21 -42 -8 -3 -12 -12 -9 -19 3 -8 2 -14 -2 -14 -9 0 -42 -108 -42 -137 0 -12
-6 -26 -14 -30 -7 -4 -16 -24 -19 -43 -10 -62 -51 -195 -63 -205 -11 -9 -53
-99 -84 -182 -7 -18 -21 -35 -32 -39 -15 -4 -19 -12 -15 -30 2 -13 1 -24 -3
-24 -7 0 -20 -43 -25 -80 -6 -43 -31 -126 -41 -135 -6 -5 -15 -30 -18 -54 -8
-50 -33 -133 -53 -171 -7 -14 -13 -33 -13 -42 0 -10 -6 -18 -14 -18 -8 0 -20
-17 -27 -37 -6 -21 -15 -43 -20 -49 -5 -6 -13 -34 -20 -62 -6 -29 -16 -52 -23
-52 -8 0 -18 -28 -26 -72 -16 -94 -49 -220 -61 -233 -5 -5 -9 -17 -9 -27 0
-10 -6 -18 -14 -18 -21 0 -37 -130 -39 -325 -2 -187 7 -241 49 -277 13 -12 24
-27 24 -33 0 -18 52 -62 82 -69 15 -3 32 -15 38 -25 5 -11 33 -27 62 -36 29
-10 58 -21 63 -25 17 -12 105 -33 112 -27 3 4 18 0 32 -7 14 -8 78 -26 141
-41 211 -49 245 -58 252 -68 3 -6 46 -14 95 -18 48 -4 104 -12 123 -17 19 -6
62 -16 95 -23 33 -7 67 -21 76 -31 9 -10 22 -18 29 -18 7 0 58 -11 114 -24 55
-13 128 -27 161 -31 33 -4 67 -13 75 -20 15 -13 90 -30 255 -60 50 -8 104 -22
120 -29 31 -14 136 -36 171 -36 10 0 32 -7 48 -15 16 -9 35 -14 43 -11 7 3 15
0 19 -5 3 -6 17 -9 30 -6 13 2 24 1 24 -4 0 -4 15 -11 33 -14 17 -4 37 -12 44
-17 14 -11 121 -37 149 -36 31 0 187 -33 219 -47 17 -8 62 -21 100 -29 39 -8
115 -25 170 -36 55 -12 112 -28 127 -36 16 -9 28 -12 28 -9 0 3 9 1 21 -5 19
-11 91 -29 204 -52 28 -5 57 -15 65 -22 15 -13 91 -34 120 -33 52 1 269 -50
318 -75 20 -10 44 -18 54 -18 10 0 62 -11 115 -25 53 -14 103 -23 110 -21 7 3
13 -1 13 -8 0 -8 7 -17 15 -20 23 -8 210 -52 285 -66 36 -6 76 -16 90 -22 14
-6 34 -13 45 -15 155 -27 294 -59 308 -71 13 -11 204 -58 332 -83 39 -7 76
-19 83 -26 7 -7 29 -15 50 -19 20 -3 77 -17 126 -31 49 -13 95 -22 102 -19 8
3 14 0 14 -8 0 -7 6 -13 13 -13 6 0 68 -14 137 -31 69 -17 143 -34 165 -37 22
-4 49 -16 60 -25 18 -16 41 -23 159 -46 16 -3 40 -10 53 -15 13 -5 34 -9 45
-9 12 0 29 -7 39 -16 10 -9 40 -21 66 -26 26 -6 64 -14 83 -19 19 -4 64 -16
100 -24 36 -9 73 -21 82 -26 10 -5 52 -18 95 -30 43 -11 82 -24 88 -29 6 -5
28 -10 48 -12 20 -1 37 -6 37 -10 0 -4 9 -8 21 -8 11 0 27 -6 35 -14 8 -8 36
-18 62 -21 48 -6 74 -11 194 -39 37 -9 77 -16 89 -16 12 0 30 -6 38 -14 15
-13 158 -47 261 -61 60 -8 217 11 246 30 13 8 35 15 49 15 14 0 34 11 47 25
12 14 28 25 35 25 7 0 13 5 13 11 0 5 14 15 30 21 18 6 32 19 36 33 3 13 12
26 20 29 8 3 14 11 14 18 0 7 9 19 20 26 11 7 20 19 20 26 0 8 3 16 8 18 10 4
52 65 52 76 0 4 16 25 35 46 19 21 35 44 35 50 0 7 13 27 30 46 16 18 33 43
36 54 4 12 12 28 18 36 7 8 18 34 25 58 7 24 23 53 37 65 13 11 23 26 20 33
-2 6 4 24 15 40 10 16 19 36 19 45 0 8 11 25 24 36 12 11 40 55 62 97 21 43
47 82 57 88 10 5 27 29 37 53 10 23 27 51 38 61 23 22 52 90 82 192 11 40 27
75 35 78 7 3 17 19 20 36 9 41 53 138 62 138 8 0 58 88 58 100 0 4 8 14 18 24
9 10 17 26 17 36 0 10 6 20 14 23 7 3 28 41 45 86 18 44 37 81 42 83 13 4 79
159 79 185 0 12 8 29 17 39 10 9 36 73 59 141 22 68 48 131 57 141 8 9 24 40
34 67 11 28 36 74 56 104 20 29 37 60 37 67 0 17 21 52 70 115 20 25 42 64 49
87 8 23 18 42 23 42 9 0 51 89 75 160 8 25 28 67 44 93 16 26 31 56 32 67 2
10 10 33 19 52 48 97 68 144 68 159 0 10 4 21 10 24 5 3 14 25 21 48 6 23 18
53 27 67 9 14 30 53 48 87 17 34 37 69 44 77 6 9 30 50 51 92 22 43 48 84 57
93 10 9 26 37 36 63 10 26 22 50 27 53 5 4 9 17 9 29 0 13 7 29 15 36 8 7 20
31 26 54 6 22 30 82 53 131 23 50 55 131 71 180 16 50 34 97 41 105 7 8 22 41
34 72 12 32 26 60 31 63 5 4 9 14 9 23 0 9 10 27 23 41 13 15 37 56 53 93 16
37 34 68 39 68 6 0 26 34 44 75 19 41 38 75 43 75 4 0 8 5 8 10 0 6 9 23 20
38 11 15 32 64 48 108 15 45 33 88 39 95 6 8 16 33 22 57 26 97 64 198 82 217
23 26 59 128 59 169 0 25 -6 34 -29 44 l-29 13 19 60 c11 34 19 70 19 81 0 24
-27 47 -55 48 -11 0 -41 7 -66 17 -46 16 -47 17 -42 55 4 26 2 38 -7 38 -8 0
-10 8 -6 24 5 20 0 26 -28 40 -19 9 -41 16 -50 16 -28 0 -13 89 19 113 20 15
-35 47 -81 47 -32 0 -44 4 -44 14 0 8 4 17 9 21 5 3 14 20 19 38 59 192 68
179 -127 172 -199 -8 -489 16 -766 65 -60 10 -127 22 -148 25 -21 3 -35 10
-32 16 4 5 0 10 -7 11 -7 0 -17 2 -23 2 -5 1 -15 5 -21 8 -6 4 -89 19 -185 33
-241 35 -252 37 -267 52 -7 7 -28 13 -45 13 -18 0 -50 5 -72 11 -22 6 -76 19
-120 29 -44 11 -111 29 -150 41 -38 11 -96 27 -127 34 -32 7 -64 17 -70 22 -7
6 -35 14 -62 18 -27 3 -55 13 -63 20 -7 8 -39 17 -70 20 -32 4 -101 16 -153
26 -52 10 -107 19 -122 19 -18 0 -28 5 -28 15 0 10 -10 15 -30 15 -16 0 -53 6
-82 14 -29 7 -129 24 -223 37 -93 13 -172 26 -175 30 -3 3 -21 10 -40 14 -19
4 -40 12 -47 17 -7 5 -22 8 -35 7 -13 -2 -28 0 -35 4 -10 6 -98 22 -248 44
-22 3 -43 11 -47 17 -4 6 -45 14 -90 17 -46 4 -130 14 -188 23 -58 10 -146 23
-196 31 -50 7 -100 18 -110 23 -22 12 -172 42 -210 42 -14 0 -34 4 -44 10 -10
5 -44 12 -75 14 -33 3 -62 11 -69 19 -6 8 -33 17 -61 20 -49 6 -177 28 -265
47 -25 5 -64 9 -86 10 -23 0 -75 11 -115 24 -41 13 -123 29 -184 36 -60 7
-125 18 -144 26 -18 8 -44 14 -56 14 -13 0 -25 7 -29 15 -4 11 -23 15 -78 15
-40 1 -91 8 -113 16 -22 8 -83 18 -135 23 -128 12 -230 33 -230 47 0 11 -113
34 -170 34 -17 0 -41 5 -53 12 -12 6 -73 15 -136 19 -62 4 -116 11 -120 17 -8
14 -211 46 -558 89 -24 3 -43 8 -43 12 0 16 -53 31 -107 31 -31 0 -82 4 -112
10 -31 5 -103 16 -159 24 -57 8 -111 21 -120 29 -10 8 -50 17 -97 21 -44 4
-125 15 -180 26 -55 10 -131 23 -169 28 -38 6 -72 15 -75 19 -3 5 -26 17 -51
27 -25 9 -58 24 -73 32 -39 19 -83 18 -106 -5z m115 -94 c10 -2 36 -11 56 -21
20 -10 45 -16 55 -15 10 1 31 -3 46 -9 16 -7 47 -12 69 -12 23 0 62 -10 86
-22 25 -11 54 -22 66 -24 262 -30 339 -45 364 -67 13 -12 34 -18 59 -17 21 1
40 1 43 0 3 -2 16 -4 30 -5 94 -10 220 -27 310 -42 58 -9 129 -18 158 -18 37
0 52 -4 52 -14 0 -7 6 -11 14 -8 7 3 19 0 25 -6 6 -6 45 -13 86 -14 41 -1 80
-5 85 -8 6 -3 15 -3 20 0 6 3 10 2 10 -3 0 -13 122 -34 206 -36 45 0 74 -5 74
-12 0 -13 84 -35 131 -35 47 1 83 -4 98 -13 7 -4 15 -5 18 -2 3 3 11 2 17 -3
21 -17 148 -42 197 -40 28 2 54 -2 61 -9 7 -7 23 -12 37 -12 15 0 44 -7 66
-15 22 -8 67 -14 99 -15 78 0 206 -31 206 -49 0 -9 9 -12 30 -9 17 3 30 1 30
-4 0 -4 21 -8 48 -8 47 0 151 -19 207 -38 41 -14 203 -34 215 -27 6 3 10 -1
10 -10 0 -9 4 -14 9 -10 5 3 13 1 16 -5 4 -6 14 -10 23 -9 10 1 24 0 32 -3 14
-6 138 -26 170 -28 78 -5 164 -21 170 -31 9 -14 365 -73 387 -64 7 2 13 1 13
-4 0 -5 30 -12 68 -16 37 -4 78 -13 92 -20 26 -14 117 -32 315 -61 66 -10 126
-24 133 -31 7 -7 30 -14 50 -15 61 -3 76 -5 95 -13 10 -4 20 -5 23 -2 3 2 22
1 42 -4 20 -5 53 -11 72 -14 19 -3 46 -8 60 -12 14 -3 36 -7 50 -8 60 -6 126
-18 136 -27 11 -8 55 -17 287 -58 59 -10 114 -25 122 -33 7 -8 49 -20 92 -26
111 -16 307 -63 315 -75 4 -6 19 -11 35 -12 15 -1 28 -3 28 -4 0 -1 7 -3 15
-5 8 -1 35 -8 60 -16 58 -16 66 -18 120 -25 25 -4 50 -13 56 -20 11 -14 57
-26 169 -44 150 -24 225 -40 280 -58 68 -23 310 -65 428 -75 9 -1 17 -5 17 -9
0 -15 51 -29 119 -33 36 -2 73 -6 81 -9 16 -6 60 -9 375 -27 132 -8 219 -9
257 -3 l58 10 0 -27 c0 -15 -5 -31 -10 -34 -6 -4 -8 -10 -5 -15 3 -5 -2 -15
-10 -24 -9 -9 -15 -22 -13 -30 2 -8 -11 -27 -29 -43 -24 -22 -40 -52 -62 -119
-16 -49 -34 -88 -40 -87 -6 2 -7 -4 -4 -14 4 -10 2 -14 -4 -10 -6 4 -8 -3 -5
-20 3 -17 1 -24 -6 -19 -6 3 -8 -1 -5 -12 9 -35 -35 -140 -77 -183 -22 -22
-39 -44 -38 -47 2 -11 -49 -112 -54 -107 -6 7 -68 -176 -68 -202 0 -12 -6 -26
-14 -30 -13 -7 -52 -107 -62 -157 -2 -10 -10 -26 -19 -36 -8 -9 -15 -22 -15
-28 0 -7 -5 -12 -10 -12 -14 0 -80 -148 -80 -180 0 -11 -6 -20 -13 -20 -13 0
-19 -20 -47 -155 -18 -88 -39 -158 -53 -174 -8 -9 -20 -37 -27 -63 -7 -27 -17
-48 -22 -48 -6 0 -8 -7 -4 -15 3 -8 1 -15 -4 -15 -6 0 -10 -9 -10 -20 0 -10
-9 -24 -20 -30 -11 -6 -20 -17 -20 -25 0 -25 -53 -144 -61 -139 -5 3 -6 -3 -2
-12 5 -13 3 -15 -7 -9 -9 5 -11 4 -6 -4 4 -6 -2 -23 -13 -37 -11 -14 -32 -56
-46 -94 -15 -39 -30 -70 -35 -70 -17 0 -90 -247 -90 -304 0 -8 -6 -19 -14 -23
-12 -7 -44 -83 -67 -160 -6 -18 -16 -33 -24 -33 -8 0 -15 -6 -15 -14 0 -31
-73 -196 -89 -201 -16 -5 -91 -200 -91 -238 0 -9 -4 -17 -9 -17 -5 0 -15 -17
-21 -37 -21 -68 -55 -143 -65 -143 -5 0 -31 -45 -57 -99 -26 -54 -54 -104 -63
-111 -8 -7 -15 -19 -15 -27 0 -8 -9 -32 -19 -54 -11 -22 -22 -53 -26 -69 -3
-16 -13 -34 -21 -41 -8 -6 -14 -19 -14 -28 0 -19 -33 -119 -56 -168 -7 -17
-14 -38 -14 -47 0 -8 -6 -19 -13 -23 -22 -13 -47 -56 -47 -80 0 -13 -4 -23 -9
-23 -5 0 -14 -13 -20 -30 -5 -16 -14 -30 -19 -30 -5 0 -24 -33 -42 -72 -31
-71 -38 -89 -39 -116 -1 -7 -9 -12 -18 -10 -10 2 -17 -2 -16 -8 3 -18 -60
-167 -84 -197 -20 -26 -55 -126 -70 -197 -3 -18 -11 -34 -18 -36 -7 -3 -18
-23 -25 -44 -7 -22 -17 -37 -21 -34 -5 3 -6 -2 -3 -11 8 -19 -23 -122 -43
-146 -24 -29 -66 -141 -85 -226 -7 -29 -17 -53 -23 -53 -7 0 -27 -46 -45 -103
-18 -56 -38 -106 -45 -112 -13 -11 -60 -150 -70 -211 -4 -21 -13 -46 -20 -54
-15 -19 -29 -52 -26 -64 1 -5 -2 -12 -7 -15 -9 -6 -52 -164 -55 -201 -1 -11
-7 -20 -14 -20 -9 0 -13 -15 -12 -47 0 -45 4 -51 50 -90 27 -24 43 -43 35 -43
-8 0 -26 -14 -40 -31 -24 -28 -31 -31 -75 -27 -27 1 -47 -1 -44 -5 8 -14 -132
5 -143 19 -6 8 -22 14 -35 14 -13 0 -40 5 -59 10 -20 5 -93 18 -162 29 -111
17 -161 32 -178 52 -7 8 -251 69 -277 69 -12 0 -23 5 -25 11 -2 6 -31 17 -63
25 -147 32 -271 66 -280 78 -10 13 -43 22 -127 32 -27 4 -48 10 -48 13 0 4
-24 13 -52 21 -29 7 -57 18 -63 25 -10 12 -211 57 -310 70 -27 4 -54 13 -60
20 -5 7 -68 28 -140 45 -71 18 -137 38 -145 45 -8 6 -51 20 -95 29 -44 10 -93
22 -110 26 -16 5 -61 14 -100 21 -38 7 -86 20 -105 30 -32 16 -81 27 -260 59
-36 6 -72 18 -80 25 -8 7 -35 16 -60 20 -67 10 -213 45 -230 54 -9 5 -36 12
-60 16 -25 4 -49 11 -55 14 -9 7 -34 14 -212 58 -38 9 -72 21 -78 28 -5 6 -44
17 -85 24 -187 33 -319 62 -346 76 -16 8 -37 15 -46 15 -9 0 -20 5 -23 11 -4
6 -13 8 -20 5 -7 -2 -17 0 -21 4 -5 5 -47 16 -94 25 -47 9 -98 23 -115 30 -30
14 -337 85 -364 85 -8 0 -22 6 -30 14 -9 8 -59 22 -111 30 -175 29 -241 44
-258 59 -9 9 -30 18 -47 22 -16 3 -66 15 -110 25 -44 10 -115 24 -157 31 -43
6 -83 18 -89 25 -6 8 -19 14 -28 14 -32 0 -297 60 -329 75 -18 8 -49 15 -68
15 -41 0 -116 16 -159 35 -16 7 -59 18 -95 25 -36 7 -72 19 -80 26 -15 13 -76
29 -141 38 -53 7 -160 33 -205 50 -23 8 -85 22 -139 31 -125 20 -250 51 -300
75 -22 10 -98 30 -170 45 -71 14 -132 31 -136 36 -5 9 -33 19 -109 36 -36 9
-88 46 -83 61 3 7 -4 12 -15 12 -22 0 -44 28 -77 95 -10 22 -26 48 -34 58 -21
25 -20 207 1 240 8 12 20 56 28 97 7 41 19 89 26 105 30 70 67 185 80 247 7
37 20 84 29 104 8 20 15 45 15 55 0 10 6 22 14 26 18 11 37 51 71 148 15 44
31 82 35 85 3 3 14 39 23 80 34 148 52 206 73 232 11 14 26 45 33 69 7 24 19
59 27 77 8 18 14 39 14 46 0 7 9 25 20 38 10 14 29 52 40 84 37 104 42 114 50
109 8 -5 33 79 51 170 6 28 15 54 20 60 5 5 9 21 9 36 0 14 8 37 18 50 10 13
34 60 52 104 19 44 45 95 57 114 13 19 26 46 30 60 3 14 9 31 14 36 4 6 13 32
19 58 7 26 16 47 21 47 16 0 37 54 64 165 15 60 31 112 35 115 5 3 16 31 25
63 8 31 22 83 31 115 9 31 19 67 22 80 2 13 11 26 18 29 7 2 16 18 20 35 9 42
59 147 77 161 14 11 45 91 36 93 -2 0 1 7 7 15 7 8 15 29 19 46 3 18 15 39 25
46 18 12 29 37 69 150 9 27 22 51 28 55 6 4 24 58 39 121 22 86 36 121 57 144
15 16 27 33 27 39 0 5 11 29 25 54 14 25 25 51 25 58 0 7 9 23 19 35 11 13 25
48 31 79 6 32 15 75 20 97 5 22 17 80 25 129 8 49 19 92 23 95 5 3 12 24 16
46 4 22 20 69 36 105 15 36 34 85 41 110 7 25 16 50 21 56 8 11 54 128 66 169
3 11 11 25 17 30 16 14 54 106 77 188 10 38 25 78 32 90 8 12 24 59 36 105 13
46 33 96 46 111 26 31 94 227 94 272 0 16 5 38 12 49 11 17 14 17 28 5 9 -8
25 -16 36 -18z m8311 -1832 c-3 -20 -17 -49 -31 -66 -14 -17 -26 -38 -26 -48
0 -9 -11 -32 -25 -51 -14 -19 -25 -40 -25 -47 0 -7 -6 -13 -14 -13 -14 0 -52
-109 -76 -222 -7 -32 -21 -65 -31 -74 -10 -9 -24 -32 -30 -52 -12 -37 -22 -52
-51 -80 -10 -9 -18 -22 -18 -28 0 -6 -7 -17 -14 -24 -19 -15 -44 -89 -56 -165
-5 -32 -13 -61 -18 -64 -4 -3 -23 -42 -41 -86 -18 -44 -41 -89 -50 -100 -21
-23 -56 -98 -65 -137 -4 -16 -11 -28 -17 -28 -6 0 -7 -5 -4 -11 4 -6 -1 -13
-12 -15 -20 -6 -42 -69 -64 -183 -7 -37 -21 -73 -32 -84 -11 -11 -23 -34 -27
-51 -17 -65 -51 -142 -70 -158 -11 -9 -20 -23 -20 -30 0 -8 -9 -24 -19 -35
-11 -12 -17 -24 -14 -27 4 -3 1 -6 -5 -6 -7 0 -12 -8 -12 -19 0 -10 -11 -30
-25 -45 -14 -15 -26 -36 -27 -47 -1 -10 -2 -32 -3 -48 -6 -96 -18 -167 -37
-216 -11 -30 -24 -53 -28 -50 -4 2 -18 -19 -31 -48 -13 -29 -26 -54 -29 -57
-3 -3 -9 -12 -15 -21 -5 -9 -18 -28 -28 -42 -24 -33 -57 -120 -69 -182 -5 -27
-16 -57 -24 -66 -8 -8 -14 -19 -14 -23 0 -21 -75 -202 -86 -209 -8 -4 -14 -13
-14 -20 0 -22 -56 -122 -87 -154 -29 -30 -83 -159 -83 -195 0 -10 -4 -18 -8
-18 -5 0 -19 -34 -31 -75 -14 -50 -26 -73 -33 -69 -7 4 -8 3 -4 -5 12 -18 -2
-61 -19 -61 -8 0 -18 -12 -21 -27 -4 -16 -15 -40 -25 -54 -21 -30 -43 -80 -41
-91 1 -5 -3 -8 -9 -8 -5 0 -7 -4 -4 -10 3 -5 1 -10 -4 -10 -11 0 -35 -41 -67
-112 -9 -21 -21 -38 -25 -38 -11 0 8 59 24 79 8 9 20 41 27 71 22 98 40 149
65 186 14 20 25 41 25 46 0 4 11 25 24 46 12 20 27 48 31 62 4 14 15 34 25 45
10 11 30 49 45 85 15 35 33 69 41 75 7 5 29 57 49 115 19 58 42 110 50 116 8
6 15 18 15 27 0 9 7 33 16 54 46 108 68 153 75 153 4 0 15 21 25 48 17 45 52
111 64 122 8 8 40 103 40 120 0 8 7 28 15 44 9 16 13 36 11 43 -3 7 -1 13 3
13 5 0 12 19 16 43 4 23 12 48 18 55 6 7 25 56 42 109 18 52 37 98 42 102 6 3
14 16 18 29 14 48 75 172 83 172 8 0 72 118 72 134 0 4 11 32 25 62 14 30 25
59 25 64 0 6 4 18 9 28 5 9 16 49 26 87 9 39 23 84 31 100 8 17 23 59 34 95
27 95 42 132 68 164 12 16 22 34 22 40 0 21 65 156 75 156 9 0 75 191 75 216
0 5 9 27 20 49 11 22 20 45 20 51 0 22 71 152 86 158 8 3 22 22 30 42 8 20 26
54 40 75 13 22 35 83 48 137 30 118 46 161 69 184 9 10 17 23 17 28 0 6 19 10
41 10 l42 0 -6 -35z m97 -131 c9 -23 -15 -116 -35 -143 -11 -13 -19 -31 -19
-40 0 -9 -6 -25 -13 -36 -8 -11 -20 -42 -27 -68 -7 -27 -19 -51 -27 -54 -7 -3
-13 -9 -13 -14 0 -5 -7 -26 -17 -47 -9 -20 -17 -40 -18 -44 -2 -5 -4 -11 -5
-15 -1 -5 -2 -11 -1 -15 0 -5 -3 -8 -8 -8 -4 0 -14 -20 -21 -45 -7 -25 -15
-45 -19 -45 -8 0 -41 -60 -45 -81 -5 -31 -18 -59 -27 -59 -5 0 -9 -9 -9 -20 0
-10 -6 -23 -14 -27 -15 -8 -76 -146 -76 -170 0 -7 -6 -16 -13 -20 -17 -11 -42
-62 -34 -70 4 -3 2 -12 -4 -19 -5 -7 -14 -34 -19 -61 -11 -60 -32 -117 -52
-140 -8 -10 -30 -48 -48 -85 -18 -37 -44 -79 -57 -94 -21 -25 -27 -38 -24 -56
0 -5 -4 -8 -9 -8 -6 0 -10 -8 -10 -17 0 -10 -11 -38 -25 -63 -34 -63 -39 -74
-70 -169 -16 -47 -36 -92 -44 -100 -9 -9 -27 -49 -40 -88 -14 -44 -27 -70 -34
-66 -6 3 -7 1 -3 -5 4 -6 -2 -19 -14 -29 -11 -10 -20 -25 -20 -33 0 -9 -9 -26
-19 -37 -11 -12 -17 -24 -14 -27 4 -3 1 -6 -6 -6 -7 0 -9 -4 -6 -10 3 -5 1
-10 -5 -10 -7 0 -10 -7 -6 -15 3 -8 0 -15 -6 -15 -6 0 -17 -8 -24 -17 -7 -11
-5 7 7 41 10 33 19 70 19 83 0 12 4 23 9 23 6 0 13 21 16 48 4 26 10 56 15 67
5 11 17 43 26 70 9 28 21 56 27 63 16 20 57 104 57 117 0 7 18 39 40 72 39 57
73 134 89 198 4 17 13 40 19 52 7 12 12 30 12 40 0 26 67 186 83 198 8 6 29
42 47 80 18 39 36 72 39 75 14 10 52 116 58 158 3 23 10 45 14 48 5 3 9 18 9
33 0 16 9 36 21 47 19 17 58 91 73 142 4 12 12 22 17 22 13 0 57 103 76 180 9
36 27 81 40 100 12 19 23 41 23 48 0 8 9 26 19 41 11 15 23 39 26 53 4 15 13
29 20 32 8 3 19 22 25 44 11 34 15 38 40 34 16 -2 31 -11 34 -18z m133 -176
c11 -11 9 -23 -7 -67 -10 -29 -26 -64 -35 -77 -8 -13 -15 -30 -15 -38 0 -9 -8
-20 -18 -25 -10 -5 -31 -39 -47 -75 -16 -36 -35 -66 -42 -66 -7 0 -13 -9 -13
-19 0 -11 -9 -35 -19 -53 -11 -18 -22 -44 -24 -58 -12 -61 -30 -120 -37 -120
-5 0 -16 -25 -25 -55 -8 -30 -20 -55 -26 -55 -6 0 -7 -4 -4 -10 3 -5 1 -10 -5
-10 -7 0 -10 -6 -8 -12 4 -12 -2 -23 -33 -56 -9 -9 -31 -51 -49 -92 -18 -41
-43 -85 -56 -97 -13 -12 -24 -29 -24 -38 0 -9 -4 -13 -10 -10 -5 3 -7 0 -4 -9
3 -8 -2 -28 -10 -45 -9 -16 -16 -39 -16 -51 0 -11 -7 -23 -15 -26 -8 -4 -15
-17 -15 -29 0 -13 -5 -27 -11 -30 -6 -4 -8 -13 -5 -20 2 -7 -1 -21 -8 -31 -7
-11 -13 -26 -14 -34 -2 -28 -44 -140 -53 -140 -5 0 -26 -35 -46 -77 -21 -43
-42 -80 -46 -82 -16 -6 -58 -83 -54 -96 3 -7 -7 -26 -23 -43 -15 -17 -25 -33
-22 -36 3 -3 1 -6 -5 -6 -12 0 -33 -47 -64 -142 -12 -38 -25 -68 -29 -68 -7 0
-25 -75 -20 -82 6 -9 -54 -145 -70 -160 -11 -11 -20 -25 -20 -33 0 -8 -3 -15
-8 -15 -4 0 -16 -17 -27 -37 -10 -21 -32 -52 -48 -70 -16 -17 -27 -35 -24 -40
7 -11 -48 -95 -56 -87 -3 3 -3 -4 0 -15 4 -15 2 -20 -8 -16 -17 6 -30 -22 -59
-130 -12 -44 -28 -87 -34 -95 -7 -8 -23 -52 -36 -97 -12 -46 -26 -83 -31 -83
-4 0 -11 -16 -15 -35 -3 -19 -12 -35 -19 -35 -11 0 -21 -18 -64 -109 -9 -18
-22 -35 -28 -38 -7 -3 -13 -11 -13 -18 0 -24 -61 -147 -84 -168 -22 -22 -31
-40 -77 -162 -12 -33 -31 -78 -41 -101 -10 -22 -18 -46 -18 -53 0 -7 -4 -10
-9 -7 -5 4 -7 -4 -3 -16 3 -11 1 -19 -4 -16 -5 4 -9 -7 -10 -23 -1 -17 -12
-42 -26 -57 -14 -15 -29 -38 -33 -52 -4 -14 -18 -39 -31 -56 -13 -17 -20 -34
-17 -38 4 -3 1 -6 -6 -6 -7 0 -10 -4 -6 -9 3 -6 -6 -20 -19 -33 -14 -13 -30
-36 -36 -52 -11 -29 -75 -131 -97 -154 -7 -7 -13 -20 -13 -29 0 -8 -16 -46
-35 -85 -19 -39 -32 -75 -29 -79 3 -5 1 -9 -4 -9 -4 0 -19 -31 -31 -70 -13
-38 -36 -84 -52 -102 -16 -18 -29 -39 -29 -46 0 -8 -9 -26 -19 -40 -19 -27
-21 -33 -21 -52 0 -5 -7 -10 -15 -10 -8 0 -27 -27 -42 -60 -15 -32 -38 -64
-50 -71 -22 -12 -38 -52 -28 -69 4 -6 2 -10 -4 -10 -5 0 -17 -36 -27 -81 -12
-55 -26 -91 -46 -116 -15 -20 -28 -42 -28 -50 0 -8 -5 -11 -12 -7 -7 4 -8 3
-4 -4 7 -11 -39 -94 -56 -100 -11 -5 -78 -148 -78 -167 0 -8 -4 -16 -9 -19
-17 -11 2 51 40 131 21 44 39 86 39 92 0 6 4 11 9 11 5 0 12 13 16 30 4 16 13
33 20 37 15 9 99 200 109 249 14 62 56 150 87 182 18 17 30 32 26 32 -4 0 7
27 25 60 17 33 34 60 38 60 9 0 34 61 48 115 6 22 17 66 26 97 8 32 21 64 28
72 8 8 22 35 32 60 10 25 22 46 27 46 5 0 9 6 9 14 0 8 6 16 14 19 7 3 23 26
36 51 12 25 25 46 30 46 4 0 11 12 14 27 4 14 18 34 30 44 13 10 34 47 46 81
13 35 32 74 42 87 10 13 18 31 18 41 0 9 3 20 7 24 4 4 8 13 8 19 1 7 6 23 12
37 17 42 45 124 46 138 0 6 4 12 9 12 5 0 21 28 37 63 15 34 35 68 43 75 9 7
31 43 49 80 19 37 37 69 42 70 4 2 7 10 7 18 0 8 6 14 14 14 13 0 24 25 77
180 13 36 26 67 30 70 4 3 13 28 20 55 12 50 21 73 52 130 9 17 37 72 62 123
26 52 52 92 61 92 8 0 14 7 14 15 0 8 5 15 10 15 6 0 10 7 10 15 0 16 28 65
43 76 20 14 69 159 83 241 9 57 21 96 34 110 10 13 19 25 18 28 -2 8 42 92 71
135 15 22 40 70 57 107 16 37 34 68 41 68 7 0 17 17 23 39 5 21 25 67 43 102
19 36 42 89 51 119 28 90 40 115 116 255 62 115 120 231 120 241 0 4 10 21 23
38 13 17 29 58 36 91 23 105 40 157 55 169 7 6 21 34 30 63 10 28 23 57 31 63
8 6 17 24 20 40 3 16 12 31 20 34 17 6 41 51 66 125 11 30 23 57 28 61 4 3 20
42 35 87 15 45 38 98 51 117 28 42 65 123 65 144 0 11 8 13 37 9 20 -4 43 -12
50 -19z m53 -207 c0 -10 -6 -24 -14 -30 -18 -15 -60 -101 -82 -171 -10 -30
-24 -62 -31 -70 -14 -18 -63 -157 -63 -181 0 -9 -11 -28 -25 -43 -14 -15 -25
-34 -25 -42 0 -8 -9 -33 -20 -54 -11 -22 -18 -40 -15 -40 11 0 -25 -58 -39
-63 -8 -3 -19 -22 -26 -41 -6 -20 -16 -36 -21 -36 -6 0 -7 -4 -4 -10 3 -5 1
-10 -5 -10 -6 0 -8 -4 -5 -10 3 -5 1 -10 -4 -10 -6 0 -11 -9 -11 -20 0 -11 -6
-20 -14 -20 -16 0 -45 -57 -71 -135 -9 -27 -23 -55 -31 -61 -14 -11 -44 -81
-66 -153 -5 -18 -21 -44 -34 -56 -14 -13 -24 -27 -23 -31 1 -5 0 -12 -1 -16
-1 -5 -4 -12 -5 -18 -1 -5 -3 -11 -4 -12 -2 -2 -4 -14 -7 -28 -8 -48 -46 -160
-55 -166 -11 -7 -52 -96 -62 -135 -4 -14 -18 -38 -32 -53 -14 -15 -25 -32 -25
-39 0 -23 -61 -137 -73 -137 -7 0 -30 -39 -52 -85 -22 -47 -42 -85 -45 -85 -4
0 -12 -17 -19 -37 -30 -86 -64 -169 -76 -183 -7 -8 -16 -26 -20 -40 -4 -14
-15 -41 -25 -60 -10 -19 -23 -46 -29 -60 -7 -14 -19 -38 -27 -53 -9 -15 -17
-38 -19 -50 -7 -38 -54 -150 -79 -187 -13 -20 -34 -60 -46 -88 -12 -29 -26
-52 -31 -52 -4 0 -27 -38 -50 -85 -23 -47 -48 -85 -55 -85 -7 0 -16 -10 -20
-22 -15 -48 -63 -146 -74 -150 -6 -2 -12 -10 -14 -18 -5 -34 -58 -180 -67
-186 -5 -3 -7 -9 -4 -14 3 -5 -3 -11 -12 -14 -12 -4 -25 -29 -37 -73 -30 -107
-57 -188 -65 -193 -4 -3 -13 -20 -20 -37 -7 -18 -17 -31 -21 -28 -4 3 -7 -1
-7 -8 2 -24 -26 -97 -38 -97 -7 0 -16 -12 -20 -27 -6 -27 -41 -82 -58 -94 -5
-4 -6 -12 -3 -18 4 -6 2 -11 -4 -11 -6 0 -9 -4 -6 -9 3 -5 -1 -14 -10 -21 -8
-7 -30 -47 -49 -88 -19 -41 -42 -80 -50 -86 -16 -11 -60 -122 -77 -191 -5 -21
-14 -45 -21 -53 -6 -8 -12 -21 -13 -30 -2 -8 -9 -19 -16 -23 -7 -5 -8 -9 -3
-9 6 0 5 -3 -1 -8 -6 -4 -21 -28 -32 -54 -11 -27 -25 -48 -31 -48 -6 0 -27
-35 -48 -77 -20 -43 -43 -82 -50 -86 -7 -4 -27 -37 -45 -72 -17 -36 -40 -68
-50 -71 -11 -3 -17 -11 -15 -17 2 -7 -2 -18 -10 -25 -7 -8 -23 -46 -35 -86
-12 -42 -33 -86 -51 -106 -16 -19 -26 -29 -22 -21 5 9 4 12 -2 8 -6 -4 -8 -17
-6 -31 3 -13 -1 -27 -8 -31 -8 -6 -10 -4 -4 5 5 8 4 11 -3 6 -6 -4 -9 -13 -6
-21 4 -9 -2 -18 -12 -22 -26 -10 -44 -29 -44 -46 0 -9 -3 -17 -7 -19 -11 -5
-43 -67 -43 -84 0 -8 -8 -18 -17 -21 -10 -4 -26 -16 -35 -28 -24 -29 24 67 51
101 12 15 21 35 21 45 0 10 5 21 10 24 6 4 8 11 5 16 -4 5 -1 9 5 9 6 0 8 5 5
10 -3 6 -1 10 4 10 6 0 11 8 11 18 0 11 14 39 32 63 17 24 44 71 60 106 15 35
33 63 38 63 11 0 65 115 81 172 6 22 19 50 30 61 11 12 18 26 15 32 -2 5 2 21
9 35 7 14 21 44 30 68 10 23 22 42 26 42 4 0 15 15 24 34 9 18 25 43 35 54 11
11 22 32 26 46 3 14 12 26 18 26 11 0 126 224 126 245 0 13 62 169 70 175 12
9 60 103 60 116 0 7 9 18 21 24 11 6 29 31 39 56 11 24 24 44 29 44 5 0 15 16
21 35 6 19 15 35 19 35 9 0 30 41 61 120 12 30 28 62 34 70 7 8 25 51 40 95
32 96 47 127 63 138 7 4 13 14 13 22 0 22 77 183 99 206 11 12 28 44 38 71 10
27 25 54 34 59 10 5 23 26 30 46 6 21 20 50 31 65 10 15 18 30 16 35 -3 16 25
63 39 63 8 0 13 12 13 29 0 17 4 32 9 36 5 3 19 48 31 100 12 52 26 95 31 95
5 0 9 5 9 12 0 24 75 167 90 171 8 2 24 22 35 43 11 22 37 67 57 102 21 34 38
65 38 68 0 10 54 119 66 134 7 8 25 58 40 110 14 52 35 106 45 119 11 13 19
28 19 33 0 5 13 38 29 71 15 34 31 72 35 85 4 12 14 22 22 22 8 0 14 8 14 18
0 11 9 29 20 42 11 13 23 35 26 49 4 14 12 31 20 37 7 6 23 33 34 60 40 93 53
119 75 149 22 30 35 69 60 182 8 33 26 78 40 98 14 21 25 43 25 50 0 7 9 23
19 37 11 13 23 37 26 51 4 15 12 27 19 27 13 0 46 51 46 70 0 6 15 34 33 63
39 62 43 71 67 162 20 74 118 275 151 311 10 11 19 27 19 36 0 8 9 27 20 41
11 14 20 30 20 36 0 6 7 11 15 11 8 0 15 -8 15 -19z m-1213 -1893 c-8 -29 -18
-80 -22 -113 -7 -64 -19 -95 -41 -108 -8 -4 -14 -14 -14 -22 0 -27 -45 -109
-77 -141 -18 -18 -33 -39 -33 -47 0 -9 -6 -22 -13 -29 -7 -7 -19 -29 -27 -48
-14 -35 -50 -79 -50 -61 0 5 4 12 9 15 5 3 12 21 15 41 4 19 15 40 25 47 18
13 24 30 43 128 5 30 14 59 19 65 5 5 9 19 9 32 0 13 5 23 11 23 6 0 9 7 6 14
-4 9 1 17 12 21 10 3 24 23 31 45 7 22 19 45 27 51 7 6 13 19 13 29 0 9 9 25
20 35 10 9 24 33 31 52 17 54 23 31 6 -29z m-324 -685 c-8 -21 -22 -47 -29
-58 -8 -11 -14 -31 -14 -46 0 -39 -56 -198 -78 -223 -20 -21 -92 -166 -92
-184 0 -5 -7 -13 -15 -16 -9 -3 -27 -30 -40 -60 -13 -30 -30 -58 -38 -63 -8
-4 -21 -21 -30 -38 -9 -16 -16 -25 -16 -20 -1 6 18 42 42 81 23 38 56 104 72
145 16 41 33 76 36 79 4 3 23 52 43 110 20 57 44 116 54 130 10 14 33 57 51
95 44 92 87 145 54 68z m-394 -818 c-11 -19 -18 -38 -15 -43 3 -4 -4 -21 -15
-38 -10 -16 -19 -38 -19 -48 0 -32 -41 -140 -59 -156 -9 -8 -23 -28 -31 -45
-8 -16 -25 -44 -37 -61 -13 -17 -23 -34 -23 -39 0 -4 -14 -23 -30 -42 -17 -19
-38 -52 -46 -73 -9 -21 -24 -40 -35 -43 -10 -3 -17 -2 -15 1 2 4 9 26 15 50 7
23 18 42 25 42 8 0 19 15 26 33 8 17 33 60 58 95 44 63 92 169 92 204 0 10 9
27 20 38 11 11 20 25 20 31 0 17 51 123 63 131 23 14 25 -4 6 -37z m-381 -537
c-6 -24 -17 -50 -24 -59 -8 -8 -14 -27 -14 -42 0 -14 -13 -62 -30 -107 -16
-45 -30 -92 -30 -106 0 -39 28 -28 51 20 11 25 27 50 34 56 12 10 14 5 10 -27
-2 -21 -4 -44 -4 -51 -1 -7 -9 -12 -18 -10 -14 2 -17 -3 -15 -21 2 -14 0 -21
-7 -17 -6 4 -9 1 -6 -6 8 -19 -53 -128 -71 -128 -9 0 -13 -4 -10 -9 4 -5 2
-11 -4 -13 -10 -3 -47 -91 -57 -135 -3 -13 -11 -23 -17 -23 -15 0 -36 -56 -36
-94 0 -15 -4 -25 -10 -21 -5 3 -7 0 -4 -9 7 -18 -31 -106 -45 -106 -6 0 -11
-5 -11 -11 0 -18 -72 -161 -90 -179 -16 -16 -41 -90 -70 -207 -6 -24 -17 -43
-24 -43 -13 0 -51 -115 -62 -187 -5 -34 -3 -43 8 -43 10 0 13 -8 10 -30 -4
-25 -1 -30 16 -30 11 0 29 12 40 27 11 16 24 25 28 21 4 -4 -14 -27 -39 -50
-25 -24 -48 -53 -51 -65 -7 -21 -36 -41 -36 -24 0 5 7 11 15 15 25 9 17 36
-16 54 -27 15 -30 21 -25 52 12 77 24 123 34 129 5 3 26 69 46 146 21 77 45
152 56 166 10 14 27 55 39 90 27 85 43 125 69 178 12 24 19 48 16 52 -3 5 -1
9 4 9 5 0 15 19 22 43 28 94 44 137 52 137 4 0 8 7 8 15 0 8 4 23 9 33 13 27
41 118 41 135 0 9 6 20 14 24 7 4 19 26 25 48 7 22 18 54 26 70 7 17 21 55 30
85 10 30 27 65 38 78 11 12 17 22 13 22 -4 0 -1 10 6 23 7 12 13 24 13 27 3
19 40 117 48 128 15 19 16 15 5 -30z"/>
<path d="M3250 9222 c0 -47 48 -72 148 -76 17 0 32 -4 32 -8 0 -3 24 -9 53
-13 69 -9 126 -24 160 -42 16 -8 37 -13 48 -10 10 3 22 1 25 -4 3 -6 13 -9 22
-7 10 1 34 -4 55 -11 20 -7 56 -14 80 -16 23 -2 43 -5 45 -6 1 -1 5 -2 10 -4
4 -1 15 -5 24 -9 10 -5 25 -6 33 -3 8 4 17 2 20 -3 3 -5 19 -8 35 -8 16 1 35
-4 42 -10 12 -10 80 -25 241 -53 l68 -11 -6 -32 c-4 -17 -13 -36 -21 -42 -8
-6 -14 -20 -14 -31 0 -11 -11 -45 -24 -74 -13 -30 -31 -79 -40 -110 -8 -31
-23 -62 -31 -69 -8 -7 -15 -22 -15 -34 0 -11 -7 -34 -15 -50 -8 -15 -15 -35
-15 -43 0 -13 -23 -69 -82 -203 -6 -14 -11 -28 -10 -32 1 -5 -3 -8 -9 -8 -5 0
-7 -4 -4 -10 3 -5 2 -10 -3 -10 -6 0 -13 -15 -16 -34 -4 -18 -15 -41 -26 -51
-11 -10 -20 -26 -20 -35 0 -15 -6 -16 -39 -10 -22 4 -47 14 -55 23 -9 9 -24
18 -34 21 -42 12 -174 36 -201 36 -40 0 -164 29 -171 40 -6 10 -69 25 -245 61
-55 11 -109 24 -120 29 -11 4 -70 16 -132 26 -83 13 -108 20 -99 28 8 6 16 25
19 41 10 63 60 231 73 246 8 8 23 42 34 75 11 32 27 73 35 91 8 17 15 35 15
39 0 4 8 17 19 28 10 12 33 61 51 109 19 49 39 91 46 94 20 7 39 105 26 130
-15 26 -62 20 -62 -8 0 -11 -4 -19 -10 -19 -5 0 -10 -8 -10 -19 0 -28 -56
-146 -84 -176 -14 -15 -24 -30 -23 -34 1 -3 -3 -19 -10 -36 -6 -16 -14 -42
-17 -57 -3 -15 -14 -34 -23 -44 -20 -20 -46 -88 -75 -201 -12 -46 -27 -83 -34
-83 -6 0 -14 -17 -18 -37 -3 -21 -10 -63 -16 -93 -6 -30 -8 -72 -4 -93 6 -38
20 -48 69 -47 27 1 72 -7 83 -14 5 -3 33 -8 63 -10 30 -3 64 -7 76 -10 11 -2
42 -8 67 -11 26 -4 49 -11 51 -15 7 -11 85 -33 215 -60 58 -12 123 -27 145
-33 22 -6 45 -12 50 -12 6 0 15 -4 21 -7 18 -12 183 -48 266 -59 121 -16 123
-14 184 161 8 24 20 51 27 58 11 14 17 28 56 136 12 33 27 67 34 75 7 9 21 41
30 71 48 158 62 196 79 208 10 7 18 19 18 26 0 18 29 116 41 138 13 26 11 78
-3 78 -9 0 -9 3 0 12 7 7 12 15 12 19 0 9 -57 29 -82 29 -11 0 -26 6 -33 14
-8 7 -40 17 -72 20 -32 4 -87 13 -123 21 -36 8 -103 22 -150 31 -47 9 -95 23
-107 30 -11 7 -47 18 -80 24 -32 5 -78 14 -103 20 -25 6 -74 15 -110 21 -36 6
-67 14 -70 18 -5 6 -226 41 -262 41 -11 0 -18 -8 -18 -18z"/>
<path d="M4570 8650 c-13 -8 -12 -19 3 -87 9 -43 24 -130 33 -193 8 -63 19
-127 24 -142 12 -38 -2 -43 -57 -18 -58 26 -74 15 -50 -34 30 -64 145 -74 174
-16 14 28 16 143 4 209 l-9 45 19 -25 c10 -13 19 -34 19 -46 0 -13 8 -31 19
-42 10 -10 24 -36 31 -56 7 -22 34 -59 63 -86 42 -40 58 -49 87 -49 47 0 72
27 95 100 9 30 22 69 28 85 13 35 16 209 4 245 -5 14 6 0 25 -30 19 -30 49
-71 67 -90 17 -19 35 -47 38 -62 3 -16 9 -28 13 -28 4 0 10 -9 13 -21 3 -12
10 -18 15 -15 9 5 82 -131 82 -153 0 -6 6 -11 13 -11 14 0 57 -52 57 -68 0
-16 34 -40 68 -47 62 -13 122 53 122 136 0 65 -20 212 -31 223 -5 6 -9 29 -9
53 0 34 3 41 15 37 8 -4 15 -13 15 -21 0 -8 16 -31 35 -51 19 -20 35 -45 35
-54 0 -10 4 -18 8 -18 5 0 21 -24 36 -54 15 -30 33 -57 40 -59 6 -3 22 -25 35
-49 12 -25 33 -57 47 -71 13 -14 24 -33 24 -42 0 -8 4 -15 9 -15 4 0 18 -22
29 -50 24 -58 56 -73 98 -46 37 25 45 58 43 170 -1 91 -6 132 -23 231 -5 26
-5 27 3 5 4 -14 13 -24 19 -23 7 2 12 -3 12 -11 0 -8 3 -16 8 -18 4 -1 20 -29
36 -60 15 -32 32 -58 36 -58 7 0 70 -96 70 -108 0 -4 16 -22 35 -41 19 -18 35
-41 35 -51 0 -24 36 -52 88 -70 69 -22 74 -11 69 144 -5 142 -9 182 -33 294
-13 57 -20 72 -34 72 -33 0 -50 -12 -50 -35 0 -37 12 -85 20 -80 4 3 10 -14
13 -38 4 -23 11 -73 16 -112 10 -68 13 -197 4 -162 -2 9 -10 17 -17 17 -7 0
-30 34 -51 75 -22 41 -45 75 -52 75 -7 0 -13 6 -13 14 0 8 -6 21 -14 28 -7 8
-21 28 -30 45 -8 17 -29 46 -46 65 -17 18 -33 42 -36 53 -8 26 -44 65 -61 65
-7 0 -13 9 -13 20 0 13 -12 26 -34 37 -45 21 -84 11 -92 -24 -9 -33 13 -142
31 -163 7 -8 17 -48 21 -88 3 -40 11 -75 15 -78 12 -7 12 -104 1 -104 -13 0
-42 35 -42 51 0 8 -14 34 -30 59 -16 25 -30 51 -30 58 0 6 -6 12 -14 12 -8 0
-18 9 -21 20 -3 11 -11 20 -16 20 -6 0 -7 4 -4 10 7 12 -22 70 -36 70 -5 0
-17 16 -25 35 -8 19 -18 35 -23 35 -9 0 -35 51 -33 65 1 6 -12 19 -28 29 -17
9 -40 31 -52 47 -18 24 -29 29 -64 29 -42 0 -43 -1 -50 -37 -4 -20 -2 -79 4
-132 18 -152 23 -256 14 -282 l-9 -23 -14 22 c-8 12 -18 22 -22 22 -13 0 -37
27 -37 42 0 8 -7 23 -15 33 -62 81 -88 120 -101 150 -7 19 -24 44 -36 55 -13
12 -23 24 -23 28 -1 17 -36 70 -49 75 -8 3 -28 25 -43 49 -47 72 -74 98 -102
98 -56 0 -56 -2 -56 -222 0 -203 -6 -258 -29 -258 -17 0 -53 40 -65 73 -6 15
-17 27 -26 27 -8 0 -14 3 -13 8 1 4 -3 18 -10 32 -6 14 -19 44 -28 68 -10 23
-21 42 -25 42 -4 0 -14 12 -22 28 -8 15 -21 41 -30 57 -9 17 -24 47 -33 68 -9
20 -21 37 -28 37 -6 0 -17 9 -24 20 -13 21 -47 26 -72 10z"/>
<path d="M6882 8239 c-11 -17 -10 -34 7 -102 30 -124 51 -235 51 -271 0 -17
-9 -49 -20 -71 -25 -48 -25 -65 -2 -65 33 0 89 47 96 81 10 50 7 177 -4 182
-6 3 -5 4 2 3 6 -1 15 -15 19 -30 5 -16 17 -37 27 -47 11 -10 30 -49 42 -86
33 -100 55 -133 90 -133 42 0 100 30 106 56 3 12 3 55 0 96 -2 40 -5 90 -5
111 0 22 -5 45 -11 52 -8 9 -8 15 0 20 5 3 10 -1 10 -9 0 -9 4 -16 9 -16 5 0
16 -18 25 -40 9 -22 25 -49 36 -60 11 -11 20 -27 20 -35 0 -8 9 -32 20 -52 11
-21 20 -43 20 -48 0 -6 16 -26 35 -45 20 -19 35 -44 35 -57 0 -13 3 -23 8 -23
8 0 32 -48 32 -65 0 -16 73 -55 101 -55 13 1 36 11 51 23 35 30 53 142 43 279
-6 88 -5 97 10 92 9 -4 32 -41 52 -83 20 -42 42 -79 48 -83 14 -9 75 -148 75
-171 0 -8 9 -22 19 -31 11 -10 22 -30 26 -44 10 -39 34 -62 66 -62 50 0 59 27
58 185 0 77 -4 173 -8 213 -4 39 -5 72 -4 72 2 0 12 -20 24 -44 11 -25 27 -47
35 -50 8 -3 25 -30 38 -60 13 -29 30 -58 38 -62 12 -8 68 -114 68 -129 0 -20
34 -75 46 -75 8 0 14 -6 14 -14 0 -25 41 -66 66 -66 25 0 32 18 13 37 -6 6
-12 17 -13 24 -2 8 -13 36 -24 62 -12 27 -22 51 -22 53 0 3 -11 20 -23 37 -13
18 -30 47 -37 65 -7 17 -17 32 -22 32 -5 0 -6 5 -3 10 3 6 1 10 -4 10 -6 0
-10 3 -9 8 4 16 -14 52 -26 52 -8 0 -24 24 -37 54 -13 30 -34 60 -46 68 -12 7
-32 29 -45 48 -24 36 -52 46 -94 36 -23 -6 -24 -10 -24 -94 0 -48 4 -92 10
-98 8 -8 31 -244 24 -253 -2 -2 -6 5 -9 15 -3 10 -15 37 -26 59 -10 22 -19 48
-19 58 0 10 -4 15 -10 12 -5 -3 -31 37 -56 89 -25 52 -51 100 -58 105 -7 6
-21 28 -30 48 -22 49 -92 83 -132 64 l-25 -11 8 -108 c14 -183 8 -312 -15
-312 -12 0 -62 82 -62 102 0 10 -6 18 -14 18 -8 0 -18 9 -21 20 -3 11 -11 20
-16 20 -5 0 -9 7 -9 15 0 9 -9 35 -20 57 -11 23 -20 46 -20 50 0 5 -11 19 -24
31 -14 13 -36 49 -50 80 -15 34 -31 57 -40 57 -9 0 -16 9 -16 19 0 29 -47 79
-81 86 -20 5 -38 1 -56 -10 l-26 -17 7 -117 c3 -64 9 -138 11 -166 4 -41 3
-46 -5 -26 -6 13 -17 29 -24 35 -8 6 -17 24 -20 40 -4 17 -20 56 -36 88 -16
32 -26 58 -22 58 4 1 -4 7 -18 15 -14 8 -22 14 -17 15 4 0 -6 25 -23 56 -16
31 -30 63 -30 70 0 8 -5 14 -10 14 -6 0 -24 14 -40 30 -34 35 -60 38 -78 9z"/>
<path d="M4412 8081 c-8 -4 -12 -19 -10 -32 2 -17 13 -27 39 -36 36 -11 161
-33 209 -36 14 -1 30 -9 37 -17 7 -8 13 -11 13 -6 0 5 6 4 13 -2 7 -6 29 -13
48 -16 19 -3 49 -9 67 -15 18 -5 36 -10 40 -11 4 0 23 -5 42 -10 19 -5 44 -9
55 -10 38 -1 75 -7 82 -13 3 -4 26 -7 49 -7 24 0 45 -4 48 -9 4 -5 30 -12 59
-16 28 -4 66 -13 82 -21 17 -7 39 -14 50 -14 43 -2 91 -8 107 -15 9 -4 21 -4
27 -1 5 4 13 2 16 -4 4 -6 23 -9 43 -8 21 1 37 -3 40 -10 2 -7 17 -12 34 -12
17 0 47 -4 67 -10 63 -16 301 -52 315 -47 8 3 17 2 22 -3 5 -4 27 -10 49 -12
22 -1 45 -8 50 -15 6 -7 53 -19 105 -28 52 -8 133 -22 179 -30 45 -8 87 -12
92 -9 5 3 9 0 9 -6 0 -6 8 -10 18 -8 11 2 25 -2 33 -9 8 -6 16 -11 19 -12 3 0
12 -2 20 -5 30 -9 172 -26 180 -21 5 3 11 1 15 -4 3 -5 13 -10 23 -10 27 1
104 -11 142 -21 19 -6 49 -10 67 -10 18 0 36 -6 40 -13 9 -14 179 -51 193 -42
6 4 10 1 10 -6 0 -6 8 -9 20 -6 11 3 20 1 20 -5 0 -6 9 -8 20 -5 11 3 20 1 20
-4 0 -5 12 -9 28 -9 15 0 36 -6 47 -14 11 -7 34 -16 50 -18 17 -3 86 -17 155
-31 69 -15 146 -28 171 -30 25 -2 51 -7 58 -11 7 -5 15 -5 18 -2 3 3 18 -3 33
-14 16 -11 39 -19 52 -19 28 2 94 -9 128 -20 14 -5 58 -14 97 -21 40 -6 75
-16 78 -20 6 -10 34 -16 290 -66 99 -19 182 -39 183 -44 2 -6 12 -10 22 -10
11 0 87 -14 171 -30 84 -17 154 -28 157 -25 3 2 20 -5 39 -16 18 -11 33 -18
33 -16 0 3 17 1 38 -4 20 -5 55 -12 77 -14 77 -10 110 -16 140 -25 17 -5 61
-14 99 -21 38 -6 81 -18 95 -25 14 -8 33 -14 41 -14 34 0 247 -53 270 -68 14
-9 54 -21 90 -28 36 -7 91 -17 122 -23 92 -19 140 23 51 43 -25 6 -43 16 -46
26 -3 13 -27 22 -83 34 -44 9 -95 21 -115 26 -20 6 -49 10 -64 10 -16 0 -36 6
-44 14 -9 7 -45 19 -81 25 -292 55 -372 72 -386 83 -6 5 -33 11 -60 13 -72 7
-204 35 -241 51 -17 8 -35 14 -41 14 -5 0 -23 7 -38 15 -16 8 -39 15 -51 15
-12 0 -50 7 -85 14 -35 8 -85 17 -113 20 -104 10 -211 30 -225 42 -8 6 -89 26
-180 44 -91 18 -175 39 -187 46 -12 8 -39 14 -59 14 -20 0 -50 6 -67 14 -18 8
-45 17 -62 19 -133 22 -259 48 -264 55 -7 10 -94 28 -207 42 -95 12 -145 25
-154 40 -4 6 -40 17 -81 24 -41 8 -117 23 -169 34 -52 12 -117 24 -145 28 -27
3 -57 12 -65 19 -8 7 -33 15 -55 18 -22 3 -94 15 -160 27 -66 12 -138 24 -160
27 -22 3 -43 10 -46 15 -3 5 -39 14 -80 20 -248 33 -464 70 -469 79 -4 5 -53
16 -110 24 -56 8 -108 19 -115 25 -6 5 -40 12 -76 15 -93 7 -153 17 -159 25
-5 7 -201 47 -375 76 -55 9 -109 20 -120 24 -11 5 -56 16 -100 25 -44 9 -96
20 -115 25 -19 5 -62 12 -95 15 -33 4 -74 16 -91 26 -33 20 -89 25 -112 10z"/>
<path d="M2664 7956 c-3 -8 6 -60 21 -116 14 -57 24 -104 22 -106 -1 -2 -18
18 -37 44 -29 39 -41 48 -72 50 -50 4 -63 -19 -47 -85 7 -27 15 -52 19 -58 4
-5 11 -25 15 -42 8 -38 15 -41 40 -13 13 14 16 28 11 50 -8 41 10 30 30 -18
24 -58 64 -70 102 -29 26 27 29 99 8 160 -8 20 -12 37 -10 37 2 0 15 -20 29
-44 14 -24 34 -46 45 -49 11 -3 25 -18 31 -34 30 -77 40 -93 54 -93 8 0 15 -6
15 -14 0 -8 8 -17 19 -21 22 -7 51 3 51 18 0 6 9 20 20 32 20 21 20 24 5 81
-9 32 -18 75 -21 94 l-6 35 19 -25 c10 -14 28 -42 38 -63 11 -22 27 -44 36
-50 9 -7 31 -40 49 -75 39 -75 62 -95 96 -80 13 6 26 23 29 38 6 29 -28 184
-46 206 -7 8 -7 14 0 18 6 4 19 -11 31 -33 11 -22 29 -45 39 -50 10 -6 24 -24
29 -41 6 -16 15 -30 20 -30 4 0 18 -17 30 -39 39 -68 85 -111 120 -111 27 0
32 4 32 25 0 14 -6 25 -13 25 -8 0 -20 12 -28 27 -8 15 -42 65 -76 112 -35 46
-63 90 -63 98 0 7 -18 25 -41 40 -23 15 -45 37 -50 50 -7 19 -16 23 -49 23
-35 0 -42 -4 -51 -27 -10 -27 -7 -82 8 -119 4 -12 3 -15 -5 -10 -7 4 -12 18
-12 32 0 13 -6 24 -12 24 -14 0 -68 63 -68 79 0 21 -67 61 -102 61 -47 0 -51
-18 -27 -133 10 -51 19 -93 19 -95 0 -2 -9 3 -21 12 -11 8 -32 37 -45 65 -14
31 -33 56 -49 63 -14 6 -25 19 -25 30 0 10 -4 18 -10 18 -5 0 -10 6 -10 13 0
40 -122 78 -136 43z"/>
<path d="M4346 7925 c-14 -11 -17 -22 -13 -44 5 -23 3 -29 -8 -25 -7 3 -16 12
-19 19 -6 16 -95 57 -107 49 -31 -19 11 -85 72 -115 27 -13 49 -30 49 -36 0
-8 15 -13 40 -13 37 0 41 3 59 43 11 23 20 36 21 30 0 -7 6 -13 13 -13 16 -1
57 -35 57 -49 0 -15 34 -31 65 -31 17 0 29 7 35 23 5 12 9 17 9 10 1 -6 14
-16 31 -21 16 -6 45 -22 63 -36 41 -32 70 -33 89 -4 14 21 15 21 46 2 18 -10
32 -24 32 -30 0 -18 49 -54 74 -54 36 0 66 28 66 61 0 16 3 29 6 29 3 0 44
-39 90 -87 79 -83 85 -87 111 -77 24 8 29 16 33 54 l5 45 23 -29 c12 -16 22
-33 22 -37 0 -5 6 -9 13 -9 7 0 20 -9 30 -20 19 -23 36 -25 72 -8 26 12 42 48
30 67 -3 6 0 9 7 6 7 -3 19 -19 26 -35 8 -17 19 -30 27 -30 7 0 18 -7 25 -15
17 -20 56 -19 64 1 7 19 -57 104 -79 104 -8 0 -26 16 -41 35 -25 33 -31 36
-73 33 -37 -2 -48 -8 -56 -25 -5 -13 -13 -23 -17 -23 -5 0 -26 18 -48 39 -23
22 -55 43 -72 46 -35 8 -81 -12 -74 -32 8 -21 -4 -15 -50 22 -23 19 -47 35
-54 35 -6 0 -9 4 -6 9 7 10 -17 21 -46 21 -11 0 -22 -8 -25 -20 -3 -11 -12
-20 -19 -20 -8 0 -14 -9 -14 -20 0 -11 5 -20 12 -20 6 0 9 -3 5 -6 -10 -10
-66 39 -66 59 -1 10 -9 17 -20 17 -11 0 -26 9 -33 19 -8 11 -26 25 -41 32 -23
10 -30 10 -47 -6 -11 -10 -20 -24 -20 -32 0 -7 -4 -13 -10 -13 -5 0 -10 5 -10
10 0 6 -20 20 -45 32 -25 12 -45 26 -45 31 0 38 -85 52 -99 15 -6 -17 -9 -18
-13 -6 -8 19 -82 58 -111 58 -12 0 -30 -7 -41 -15z"/>
<path d="M8653 7878 c-4 -7 -8 -98 -9 -203 0 -104 -4 -200 -8 -212 -7 -23 -40
-31 -51 -13 -3 6 -15 10 -27 10 -18 0 -19 -4 -13 -36 3 -20 13 -43 20 -50 16
-16 58 -18 85 -4 22 12 46 83 55 165 4 33 11 65 15 70 5 6 10 33 12 60 3 47 4
48 12 20 5 -16 20 -42 33 -56 14 -14 40 -72 60 -130 19 -57 40 -108 47 -114
12 -11 45 -58 61 -90 15 -28 77 -42 110 -25 35 18 48 69 51 185 1 55 4 114 8
132 5 21 2 42 -8 62 -26 50 -18 46 19 -9 19 -29 35 -56 35 -61 0 -5 5 -9 10
-9 6 0 17 -17 26 -37 9 -21 25 -55 35 -75 10 -20 19 -44 19 -53 0 -8 11 -20
24 -27 15 -6 33 -30 45 -59 12 -26 32 -60 46 -75 14 -15 25 -33 25 -41 0 -19
43 -33 76 -24 39 10 44 40 35 190 -4 69 -8 135 -9 146 0 11 -4 42 -8 69 -8 56
7 57 30 1 8 -18 26 -41 39 -50 23 -15 56 -72 87 -152 7 -18 16 -31 20 -28 4 2
12 -6 17 -18 44 -97 53 -119 53 -132 0 -8 4 -15 9 -15 5 0 18 -16 30 -35 16
-27 27 -35 48 -35 68 1 82 38 81 214 -1 75 1 139 4 142 3 3 12 -9 19 -25 8
-17 17 -31 21 -31 5 0 8 -5 8 -10 0 -6 11 -27 24 -48 14 -20 28 -50 32 -67 4
-16 19 -44 35 -62 24 -28 42 -75 85 -225 3 -10 13 -19 22 -19 21 -2 56 2 60 6
9 8 -21 88 -39 103 -10 9 -19 24 -19 34 0 9 -6 32 -14 50 -7 18 -24 60 -37 93
-12 33 -29 64 -36 68 -8 5 -27 37 -44 73 -17 35 -35 64 -40 64 -5 0 -9 9 -9
20 0 11 -7 20 -15 20 -7 0 -18 7 -23 16 -6 11 -21 14 -52 12 -56 -4 -58 -11
-59 -182 -1 -109 -3 -127 -15 -117 -8 6 -20 26 -27 44 -7 18 -18 35 -25 39 -7
5 -23 37 -35 72 -15 41 -30 67 -41 69 -10 3 -18 13 -18 22 0 9 -13 34 -28 54
-15 20 -33 48 -40 64 -6 15 -19 27 -27 27 -9 0 -14 4 -11 9 3 5 -1 11 -9 15
-8 3 -15 12 -15 21 0 17 -38 35 -75 35 -44 0 -48 -27 -42 -240 5 -172 4 -191
-8 -162 -8 17 -18 32 -23 32 -6 0 -17 17 -27 38 -9 20 -25 54 -36 75 -11 20
-17 37 -13 37 4 0 -4 11 -17 24 -33 34 -41 44 -67 99 -13 26 -30 47 -38 47 -8
0 -14 6 -14 14 0 8 -15 31 -34 51 -29 30 -41 36 -68 33 l-33 -3 -3 -217 c-1
-123 -6 -218 -12 -218 -19 0 -90 136 -90 174 0 8 -9 20 -20 26 -11 6 -23 23
-26 38 -13 54 -67 172 -79 172 -6 0 -17 17 -24 38 -12 39 -53 92 -71 92 -5 0
-10 5 -10 10 0 14 -37 12 -47 -2z"/>
<path d="M3598 7763 c-14 -3 -18 -15 -18 -50 0 -26 6 -54 14 -62 8 -9 17 -40
21 -68 6 -45 4 -53 -9 -53 -9 0 -16 -7 -16 -15 0 -19 48 -19 74 0 15 12 19 26
17 71 -1 31 -4 61 -7 65 -3 5 2 6 11 3 8 -3 22 -23 31 -43 9 -20 27 -58 40
-85 13 -28 24 -56 24 -63 0 -7 6 -13 13 -13 8 0 19 -17 25 -38 14 -45 46 -82
72 -82 11 0 31 12 44 27 24 26 25 33 23 123 l-2 95 28 -29 c15 -16 32 -48 39
-70 16 -56 25 -66 63 -66 50 0 59 19 35 74 -12 25 -27 46 -34 46 -7 0 -25 25
-39 54 -15 30 -35 61 -46 68 -10 7 -21 23 -25 35 -8 27 -30 35 -70 27 -39 -7
-66 -55 -47 -85 6 -10 11 -27 11 -38 0 -11 4 -21 10 -23 13 -4 26 -128 13
-128 -5 0 -17 16 -26 35 -10 19 -25 51 -34 71 -10 20 -23 39 -30 41 -7 3 -13
10 -13 16 0 5 -13 39 -30 74 -20 41 -36 63 -47 63 -10 0 -27 7 -37 15 -19 15
-44 17 -78 8z"/>
<path d="M5877 7596 c-14 -11 -17 -27 -16 -79 1 -45 6 -67 15 -71 7 -3 16 -1
19 4 4 6 15 10 26 10 10 0 19 7 19 15 0 16 -5 19 68 -40 17 -15 32 -33 32 -41
0 -23 45 -16 68 11 26 30 42 32 49 5 6 -22 65 -60 94 -60 30 0 78 40 72 59 -3
9 7 -3 23 -26 48 -72 107 -53 89 27 -4 17 -12 30 -19 30 -20 0 -75 51 -70 65
6 13 -25 25 -66 25 -35 -1 -64 -25 -58 -48 5 -16 2 -17 -17 -8 -13 6 -21 14
-19 18 3 4 -9 21 -26 38 -24 23 -40 30 -71 30 -32 0 -42 -4 -46 -19 -4 -17 -8
-18 -25 -8 -11 7 -36 27 -56 45 -38 35 -57 39 -85 18z"/>
<path d="M4313 7518 c-6 -7 -16 -34 -23 -61 -7 -26 -18 -51 -25 -55 -6 -4 -26
-50 -44 -102 -18 -52 -41 -111 -50 -130 -10 -19 -24 -57 -31 -85 -7 -27 -17
-55 -21 -61 -5 -6 -6 -14 -2 -17 3 -4 2 -7 -4 -7 -5 0 -16 -19 -24 -42 -7 -24
-19 -47 -25 -53 -10 -9 -53 -133 -60 -173 -1 -8 -9 -21 -17 -30 -8 -10 -20
-33 -25 -52 -28 -95 -69 -198 -90 -220 -12 -13 -27 -41 -32 -62 -6 -21 -15
-57 -21 -80 -6 -24 -17 -50 -25 -59 -13 -14 -36 -76 -87 -229 -6 -19 -17 -39
-23 -45 -16 -13 -65 -155 -58 -167 3 -4 0 -8 -6 -8 -6 0 -8 -5 -5 -11 4 -6 -2
-13 -14 -16 -12 -3 -21 -11 -21 -19 0 -32 -77 -241 -97 -265 -8 -9 -22 -50
-32 -91 -10 -45 -26 -83 -39 -96 -12 -12 -22 -29 -22 -37 0 -8 -6 -29 -14 -47
-13 -29 -25 -62 -28 -78 -1 -3 -8 -11 -15 -19 -8 -7 -12 -20 -9 -27 3 -8 1
-14 -4 -14 -6 0 -10 -9 -10 -20 0 -11 -6 -20 -14 -20 -7 0 -16 -15 -20 -32 -3
-18 -16 -66 -28 -106 -16 -54 -25 -72 -37 -70 -11 2 -15 -3 -13 -19 2 -12 -3
-37 -11 -55 -8 -18 -17 -42 -20 -53 -13 -51 -50 -142 -65 -158 -9 -10 -17 -24
-19 -32 -2 -8 -5 -21 -6 -27 -2 -7 -7 -26 -11 -43 -11 -43 -38 -105 -46 -105
-4 0 -15 -28 -24 -62 -10 -35 -23 -81 -31 -103 -7 -22 -21 -66 -31 -97 -10
-32 -21 -58 -25 -58 -4 0 -10 -19 -14 -42 -12 -72 -14 -80 -31 -132 -9 -28
-25 -58 -35 -68 -10 -9 -19 -25 -19 -37 0 -11 -4 -22 -9 -25 -5 -3 -12 -23
-15 -43 -4 -21 -19 -99 -33 -174 -15 -74 -24 -143 -20 -152 3 -9 15 -17 26
-17 15 0 22 9 26 38 4 20 11 57 16 82 29 133 40 172 52 193 8 12 20 42 27 67
29 99 52 163 65 184 7 11 21 51 29 88 9 38 23 84 31 104 8 20 15 44 15 54 0 9
9 27 20 40 11 13 20 32 20 42 0 26 40 147 51 154 5 3 9 13 9 23 0 10 7 24 15
31 8 7 22 38 31 69 26 93 47 155 60 171 6 8 21 42 32 76 30 88 55 148 63 154
3 3 14 27 23 55 10 27 22 55 28 62 6 7 7 13 3 13 -4 0 0 11 9 25 9 13 16 30
16 36 0 7 15 44 33 83 19 39 42 96 53 126 10 30 24 60 31 65 6 6 21 39 34 75
47 141 55 161 65 168 6 4 28 58 49 120 21 61 41 112 45 112 4 0 24 53 45 118
21 64 43 124 50 132 7 8 23 47 35 85 13 39 29 77 37 86 7 8 13 21 13 28 0 7 9
26 21 42 11 16 31 68 45 116 14 49 31 93 37 98 7 6 27 56 46 113 19 56 42 112
52 123 10 11 21 35 25 52 3 18 10 37 14 42 4 6 18 46 30 90 13 44 28 85 35 90
6 6 26 56 44 112 18 57 38 106 45 110 15 10 76 208 76 246 0 20 -5 27 -19 27
-10 0 -23 -6 -28 -12z"/>
<path d="M4620 7507 c0 -14 5 -29 11 -32 7 -5 4 -14 -7 -26 -17 -19 -53 -111
-54 -138 0 -8 -6 -22 -14 -30 -8 -9 -19 -32 -24 -51 -19 -64 -63 -175 -76
-190 -19 -24 -52 -103 -73 -175 -3 -11 -12 -27 -19 -35 -17 -20 -74 -160 -74
-181 0 -9 -11 -27 -24 -41 -26 -25 -50 -82 -68 -158 -6 -25 -16 -49 -22 -55
-7 -5 -21 -37 -31 -70 -11 -33 -24 -63 -30 -67 -5 -4 -6 -8 -2 -8 5 0 1 -7 -8
-16 -9 -9 -19 -29 -22 -45 -3 -16 -11 -29 -17 -29 -11 0 -16 -12 -52 -137 -10
-35 -24 -63 -30 -63 -7 0 -15 -17 -19 -37 -3 -20 -15 -55 -25 -77 -9 -23 -26
-63 -35 -91 -10 -27 -24 -54 -31 -58 -16 -9 -46 -70 -49 -100 -5 -39 -27 -112
-36 -118 -9 -5 -32 -77 -48 -149 -4 -19 -13 -44 -19 -56 -16 -30 -28 -129 -14
-120 6 3 17 -2 24 -13 9 -13 35 -23 78 -31 36 -6 108 -22 160 -36 52 -13 129
-31 170 -39 41 -9 91 -19 110 -24 19 -5 80 -19 135 -31 55 -13 105 -29 110
-35 6 -7 35 -19 65 -27 165 -44 196 -53 201 -61 7 -10 333 -77 373 -77 16 0
37 -6 45 -13 9 -8 48 -19 86 -26 39 -7 84 -16 100 -21 17 -4 64 -14 105 -21
45 -7 82 -19 92 -30 10 -10 33 -20 50 -23 181 -30 394 -72 399 -79 7 -9 227
-57 256 -55 28 2 88 -11 119 -26 16 -8 64 -20 107 -27 43 -6 80 -16 83 -20 2
-4 12 -5 20 -2 8 3 25 1 37 -5 12 -6 76 -18 142 -28 66 -10 122 -21 125 -24 5
-6 202 -51 279 -64 19 -4 42 -12 50 -20 26 -21 181 -39 214 -24 25 12 38 48
17 48 -14 0 -12 21 3 34 12 10 66 176 82 253 4 18 11 35 16 39 13 8 59 108 59
129 0 9 16 48 35 86 19 39 35 76 35 84 0 21 44 110 71 142 13 16 35 62 49 103
14 41 33 82 43 92 9 10 17 25 17 33 0 8 6 29 14 47 8 18 22 54 32 81 9 26 23
47 30 47 8 0 14 7 14 15 0 8 6 29 14 47 8 18 20 47 27 63 7 17 13 36 15 43 1
8 9 21 17 30 8 10 24 44 37 77 47 125 63 160 75 170 6 5 24 48 40 95 15 47 38
108 51 136 13 28 38 96 54 150 16 54 36 104 44 110 8 5 18 23 22 40 3 16 19
69 35 118 33 100 35 119 15 135 -8 7 -12 20 -9 30 7 26 -5 30 -89 37 -40 3
-93 9 -118 14 -25 5 -76 14 -115 20 -68 12 -93 20 -125 39 -8 5 -62 17 -120
26 -58 10 -121 21 -140 26 -19 5 -55 9 -80 9 -25 0 -54 6 -65 13 -11 8 -60 21
-110 31 -173 34 -270 58 -305 76 -19 10 -55 18 -79 18 -49 1 -195 29 -227 44
-11 5 -24 9 -30 8 -15 -3 -54 12 -54 20 0 5 -33 13 -72 20 -40 6 -100 17 -133
25 -33 7 -76 13 -95 14 -48 1 -178 27 -193 38 -6 6 -57 18 -112 27 -55 10
-132 24 -172 32 -40 8 -83 14 -97 14 -13 0 -31 7 -40 15 -9 10 -34 15 -71 15
-31 0 -71 6 -88 14 -18 8 -45 16 -62 19 -119 18 -281 51 -286 58 -3 5 -43 14
-90 20 -46 6 -122 18 -169 26 -47 9 -100 18 -117 20 -18 3 -31 9 -28 13 8 13
-36 20 -167 27 l-128 6 0 -26z m1433 -429 c-13 -6 -23 -18 -23 -26 0 -11 7
-13 33 -6 34 9 167 11 229 4 29 -3 45 -13 68 -42 33 -41 21 -52 -23 -23 -38
25 -147 48 -199 42 -75 -9 -266 -76 -293 -103 -13 -13 -30 -24 -37 -24 -19 0
-37 -32 -44 -79 -4 -24 -11 -38 -17 -34 -6 3 -7 1 -3 -5 4 -6 4 -45 0 -86 l-7
-74 -24 11 c-34 15 -50 -8 -59 -84 -5 -49 -9 -56 -20 -44 -8 7 -14 21 -14 30
0 28 60 145 74 145 9 0 15 21 18 70 5 65 9 75 47 120 22 27 41 52 41 57 0 4
14 14 30 21 37 17 39 39 4 52 -33 13 -32 13 -37 -7 -4 -16 -5 -16 -6 -1 -1 18
34 48 56 48 7 0 13 -7 13 -15 0 -22 31 -18 37 4 3 12 11 17 23 14 10 -3 21 0
24 6 4 6 20 11 36 11 16 0 35 7 42 15 7 8 22 14 33 14 19 0 18 -1 -2 -11z
m508 -135 c8 -7 19 -13 22 -13 4 0 16 -9 27 -20 11 -11 29 -20 41 -20 17 0 20
4 14 29 -5 22 -1 31 17 43 22 15 24 14 35 -8 12 -26 8 -34 -19 -34 -13 0 -18
-6 -16 -17 2 -10 11 -17 19 -17 11 1 14 -6 11 -22 -5 -25 44 -84 70 -84 7 0
32 -40 56 -88 34 -70 42 -98 42 -142 0 -30 5 -73 10 -95 53 -212 44 -337 -27
-390 -44 -34 -43 -12 2 55 25 37 35 63 35 91 0 21 -4 39 -9 39 -5 0 -11 15
-14 33 -3 17 -11 55 -17 82 -6 28 -15 88 -21 135 -15 127 -30 190 -46 190 -7
0 -13 7 -13 15 0 8 -4 15 -9 15 -6 0 -16 12 -23 27 -7 16 -30 36 -50 45 -20
10 -49 33 -63 53 -15 19 -32 35 -38 35 -18 0 -87 52 -81 61 3 5 -4 9 -15 9
-14 0 -19 5 -15 14 5 12 11 13 32 3 15 -6 34 -17 43 -24z m-28 -155 c9 -5 17
-6 17 -3 0 3 11 -2 24 -10 29 -19 76 -105 76 -139 0 -13 7 -29 15 -36 8 -7 15
-25 15 -39 0 -19 10 -34 30 -49 50 -37 76 -133 50 -182 -5 -10 -14 -71 -19
-137 -11 -136 -31 -212 -62 -231 -18 -12 -20 -11 -16 5 3 10 8 31 12 48 4 16
11 33 17 36 5 3 12 39 14 80 2 41 7 85 11 99 4 14 8 32 9 40 2 8 8 37 13 63
12 56 -6 115 -37 124 -27 7 -49 49 -67 130 -9 39 -25 81 -35 94 -11 12 -25 37
-32 55 -9 25 -19 35 -42 39 -17 3 -41 11 -54 17 -32 16 -59 -10 -43 -40 10
-18 7 -21 -19 -27 -30 -6 -60 -46 -60 -78 0 -7 -25 -41 -56 -75 -48 -54 -60
-62 -91 -62 -26 0 -36 5 -40 20 -5 19 -43 29 -43 11 0 -12 -86 -35 -105 -28
-16 7 -21 37 -7 37 12 0 35 78 27 90 -8 13 -35 13 -35 -1 0 -5 -4 -7 -10 -4
-5 3 -10 1 -10 -6 0 -7 -2 -10 -5 -7 -11 10 7 37 42 64 20 15 38 23 43 18 5
-5 4 -35 -3 -70 -7 -34 -11 -66 -9 -73 5 -14 52 -15 52 -1 0 6 9 10 19 10 12
0 30 17 48 45 15 25 33 45 38 45 6 0 10 -27 10 -62 0 -52 3 -63 18 -66 10 -2
17 3 17 11 0 9 17 30 39 49 26 23 49 57 71 109 38 88 66 112 120 102 19 -3 43
-10 53 -15z m-1032 -271 c34 -9 68 -32 125 -82 96 -85 124 -113 124 -126 0 -5
6 -12 14 -15 8 -3 17 -17 20 -30 4 -14 11 -22 16 -19 10 6 55 -50 64 -81 3
-11 16 -30 27 -43 24 -25 43 -81 28 -81 -6 0 -8 -4 -5 -9 3 -5 -6 -12 -20 -15
-25 -7 -26 -10 -20 -51 4 -26 3 -46 -4 -50 -5 -3 -10 -14 -10 -25 0 -26 -22
-31 -58 -13 -39 19 -62 5 -62 -37 0 -23 8 -32 43 -50 72 -38 160 -68 203 -68
34 -1 47 -8 87 -47 26 -25 47 -49 47 -53 0 -4 14 -13 30 -21 39 -17 90 -59 90
-74 1 -18 36 -57 52 -57 7 0 22 -7 32 -15 11 -8 39 -15 62 -15 36 0 46 5 63
29 11 16 26 52 32 80 6 28 17 58 25 65 8 8 14 20 14 26 0 12 13 43 51 125 16
34 24 40 49 40 23 0 30 -4 30 -20 0 -15 13 -26 51 -40 28 -11 71 -39 96 -62
25 -24 49 -43 55 -43 5 0 16 -7 24 -15 9 -8 24 -15 34 -15 10 0 20 -7 24 -15
3 -8 12 -15 21 -15 24 0 127 -58 142 -80 8 -11 21 -20 29 -20 8 0 14 -4 14
-10 0 -5 7 -10 16 -10 8 0 21 -15 29 -32 17 -41 63 -90 76 -83 5 4 9 0 9 -8 0
-8 8 -25 19 -38 31 -40 87 -150 110 -219 13 -36 29 -72 36 -80 7 -8 16 -32 20
-52 8 -41 27 -63 49 -55 10 4 15 -6 19 -36 3 -23 10 -43 16 -45 7 -2 7 -8 -2
-16 -6 -7 -18 -41 -26 -77 -8 -35 -20 -72 -28 -81 -8 -9 -12 -22 -8 -27 3 -6
1 -11 -6 -11 -6 0 -9 -8 -6 -20 3 -11 1 -20 -5 -20 -6 0 -8 -7 -4 -15 3 -8 -3
-20 -12 -27 -10 -7 -28 -46 -40 -87 -12 -41 -23 -76 -25 -78 -8 -8 -216 34
-238 48 -34 22 -166 54 -344 84 -272 45 -504 92 -521 106 -11 9 -159 39 -314
64 -103 16 -136 24 -169 41 -14 8 -34 14 -44 14 -10 0 -52 9 -95 19 -42 10
-131 31 -197 46 -66 15 -156 35 -200 45 -44 10 -113 24 -154 31 -40 7 -78 18
-85 24 -6 7 -25 15 -41 18 -17 3 -41 8 -55 12 -26 7 -57 13 -77 14 -8 1 -13
15 -13 35 0 50 -40 112 -137 212 -48 50 -92 97 -98 106 -5 9 -22 19 -37 22
-23 5 -28 3 -28 -12 0 -10 9 -28 20 -40 11 -11 33 -48 50 -80 21 -42 39 -63
60 -72 17 -7 30 -16 30 -20 0 -5 16 -29 35 -54 43 -57 46 -81 8 -71 -15 3 -32
12 -37 19 -14 17 -189 64 -278 76 -38 4 -75 13 -82 19 -8 7 -45 20 -82 29
l-69 18 -3 42 c-2 33 0 42 12 42 13 0 16 16 16 94 0 56 4 98 11 101 5 4 14 17
19 29 5 14 33 35 76 55 37 18 78 41 91 51 29 23 107 46 183 56 30 4 60 10 65
14 6 4 40 17 78 30 37 12 88 33 113 46 55 29 64 30 64 4 0 -23 20 -70 37 -88
7 -7 27 -37 44 -66 17 -29 41 -57 53 -62 11 -5 30 -23 41 -40 11 -18 38 -40
60 -50 22 -9 52 -27 67 -40 15 -12 52 -28 82 -35 78 -17 136 5 171 65 14 24
25 54 25 68 0 26 15 44 53 63 27 13 55 63 56 99 1 45 23 106 38 106 7 0 13 5
13 11 0 6 11 25 25 43 15 19 25 46 25 65 0 21 8 40 25 55 14 13 25 31 25 40 0
30 -31 66 -57 66 -36 0 -115 51 -164 105 -18 19 -59 86 -59 95 0 5 -18 26 -41
47 -23 21 -47 50 -54 64 -21 40 -81 55 -152 39 -101 -22 -107 -25 -116 -57 -9
-29 -11 -30 -51 -26 -31 4 -54 -1 -85 -16 -44 -23 -61 -51 -61 -101 0 -16 -4
-32 -10 -35 -5 -3 -10 -28 -10 -55 0 -27 5 -52 10 -55 6 -3 10 -16 10 -28 0
-13 9 -40 20 -62 24 -47 25 -59 5 -75 -9 -7 -13 -20 -10 -27 3 -9 0 -13 -7
-11 -7 3 -15 13 -17 24 -5 27 -21 44 -42 44 -11 0 -19 2 -19 5 0 3 -7 39 -15
79 -14 66 -14 83 0 161 8 48 15 91 15 96 0 4 8 16 19 26 10 10 22 29 25 43 4
14 14 39 21 55 8 17 19 52 26 78 7 27 20 52 30 58 11 5 19 16 19 24 0 8 12 23
27 32 22 15 57 19 193 23 91 3 185 7 210 8 25 0 66 -4 91 -11z m1052 -686
c-13 -11 -23 -23 -23 -28 -1 -14 -34 -47 -75 -74 -54 -36 -166 -63 -228 -55
-51 7 -117 34 -117 48 0 4 -7 8 -15 8 -8 0 -15 9 -15 20 0 11 1 20 3 20 1 0
34 -11 72 -25 78 -27 150 -31 240 -13 52 10 65 18 109 65 28 29 55 53 61 53 5
-1 0 -9 -12 -19z"/>
<path d="M5530 5385 c-8 -10 -10 -29 -6 -58 8 -49 66 -177 81 -177 6 0 21 -28
35 -61 14 -34 36 -74 51 -89 22 -25 40 -48 112 -145 12 -17 28 -25 48 -25 25
0 29 4 29 29 0 17 -5 33 -10 36 -6 4 -16 21 -24 39 -7 17 -27 47 -44 65 -16
18 -32 46 -36 61 -3 16 -13 31 -23 35 -16 6 -94 147 -93 170 0 6 -12 21 -25
34 -14 13 -25 31 -25 40 0 22 -28 61 -44 61 -8 0 -19 -7 -26 -15z"/>
<path d="M2689 7414 c-5 -15 -7 -36 -3 -47 6 -18 3 -18 -27 5 -45 33 -65 40
-105 32 -31 -6 -34 -10 -34 -40 0 -19 4 -34 10 -34 5 0 12 -11 16 -25 9 -38
51 -67 76 -54 15 8 17 14 9 22 -22 22 -12 38 11 17 29 -26 70 -23 83 8 13 29
21 28 40 -8 12 -23 22 -30 44 -30 47 0 61 10 61 42 0 26 2 29 15 18 8 -7 15
-19 15 -27 0 -7 7 -16 15 -19 8 -3 17 -14 20 -25 4 -13 16 -19 36 -19 23 0 29
4 29 22 0 35 -41 109 -65 118 -12 5 -33 23 -45 40 -19 26 -28 31 -58 28 -25
-2 -40 -10 -47 -24 l-10 -21 -18 23 c-24 32 -55 31 -68 -2z"/>
<path d="M6646 7403 c-29 -42 -34 -81 -11 -90 9 -3 24 2 34 11 10 9 21 16 24
16 4 0 29 -22 57 -50 65 -64 97 -67 135 -13 14 21 25 31 25 23 0 -17 49 -70
66 -70 7 0 16 -9 19 -20 9 -28 45 -25 73 5 23 24 52 24 52 -1 0 -7 24 -31 53
-54 67 -50 105 -53 130 -10 10 17 15 35 12 40 -3 6 -2 10 2 10 13 0 73 -64 87
-92 23 -46 99 -32 111 21 6 28 8 29 31 19 14 -6 32 -26 40 -44 19 -41 70 -57
90 -29 11 15 10 23 -2 46 -8 16 -18 29 -23 29 -5 0 -23 14 -41 30 -18 17 -39
30 -47 30 -8 0 -12 4 -9 8 9 15 -54 44 -80 38 -20 -5 -24 -13 -24 -41 0 -19
-3 -35 -6 -35 -7 0 -34 27 -34 34 0 11 -38 44 -59 51 -12 3 -21 10 -21 15 0
14 -48 20 -76 10 -24 -10 -26 -14 -20 -50 5 -30 3 -38 -7 -35 -7 3 -17 15 -22
28 -6 12 -19 23 -30 25 -11 1 -31 18 -43 37 -26 37 -69 53 -101 36 -25 -14
-47 -6 -94 36 -45 40 -87 44 -114 9 -20 -25 -55 -21 -66 8 -4 9 -13 16 -22 16
-8 0 -15 7 -15 15 0 8 -4 15 -9 15 -5 0 -16 3 -24 6 -10 3 -24 -8 -41 -33z"/>
<path d="M3053 7311 c-19 -16 -23 -29 -23 -75 0 -53 1 -56 24 -56 20 0 25 6
28 31 l3 32 31 -29 c17 -16 33 -36 36 -44 7 -23 62 -1 66 28 5 31 13 28 45
-18 22 -31 35 -40 58 -40 22 0 29 5 29 19 0 30 -11 51 -26 51 -8 0 -14 5 -14
12 0 12 -67 78 -80 78 -4 0 -13 7 -20 15 -15 18 -70 16 -70 -2 0 -18 -27 -16
-34 2 -7 20 -26 18 -53 -4z"/>
<path d="M3398 7204 c-9 -9 -11 -116 -2 -138 13 -34 74 -3 74 38 0 14 5 12 25
-10 14 -15 25 -31 25 -35 0 -5 10 -13 21 -20 29 -15 69 3 69 31 0 11 4 20 8
20 10 0 54 -48 95 -103 31 -40 40 -43 80 -24 31 14 36 50 12 81 -8 11 -15 31
-15 45 1 25 1 26 15 6 58 -77 96 -102 109 -69 13 35 7 64 -15 64 -11 0 -18 4
-15 9 8 12 -51 69 -91 88 -48 22 -67 14 -71 -29 l-3 -36 -32 29 c-36 33 -80
45 -117 31 -18 -7 -28 -5 -35 5 -12 16 -125 30 -137 17z"/>
<path d="M7751 7164 c-36 -46 -22 -84 31 -84 15 0 28 -4 28 -10 0 -5 7 -10 15
-10 8 0 15 -4 15 -10 0 -5 3 -10 8 -9 15 2 52 -14 52 -22 0 -5 9 -9 20 -9 11
0 20 4 20 9 0 17 40 19 57 3 87 -88 164 -108 186 -49 3 9 10 17 15 17 17 0 61
-41 74 -68 17 -34 58 -50 93 -34 26 12 42 41 54 101 3 11 36 -29 48 -57 7 -18
21 -36 30 -39 10 -4 27 -18 38 -31 30 -34 83 -25 109 19 18 30 18 30 39 12 39
-32 52 -47 64 -75 23 -52 93 -44 93 10 0 32 -13 51 -52 75 -16 10 -28 22 -28
27 0 15 -38 50 -53 50 -8 0 -24 11 -37 25 -19 20 -32 25 -60 23 -32 -3 -36 -6
-40 -38 -5 -34 -6 -34 -18 -12 -7 12 -20 22 -28 22 -17 0 -44 23 -44 38 0 18
-49 42 -88 42 -45 0 -62 -14 -62 -52 0 -15 -4 -28 -10 -28 -5 0 -10 4 -10 10
0 17 -63 74 -103 95 -31 15 -42 17 -55 7 -9 -7 -24 -15 -32 -19 -8 -4 -20 -14
-26 -22 -10 -12 -14 -10 -28 17 -9 18 -21 32 -26 32 -6 0 -10 6 -10 13 0 30
-98 49 -122 23 -11 -11 -17 -10 -41 10 -40 33 -89 32 -116 -2z"/>
<path d="M2472 7135 c-7 -16 -8 -33 -3 -48 5 -13 7 -35 4 -50 -5 -24 -2 -27
20 -27 16 0 26 7 30 20 7 26 33 26 47 0 6 -11 24 -27 40 -35 27 -14 33 -14 59
-1 19 10 31 12 38 5 6 -6 23 -9 39 -7 48 5 43 38 -15 86 -56 47 -96 55 -106
21 -7 -20 -8 -19 -28 10 -37 52 -107 67 -125 26z"/>
<path d="M2838 7017 c-21 -8 -28 -18 -28 -38 0 -15 7 -29 16 -33 26 -10 52 -7
58 7 5 10 7 10 12 0 3 -7 11 -13 18 -13 6 0 19 -12 28 -27 22 -36 74 -93 86
-93 5 0 17 9 27 20 13 15 16 30 12 62 -4 34 -3 39 5 24 17 -31 42 -56 54 -56
7 0 14 -5 16 -11 6 -17 60 2 66 23 7 27 23 18 48 -27 24 -44 34 -50 69 -41 17
4 25 13 25 27 0 15 5 19 16 15 9 -3 18 -6 20 -6 2 0 4 -9 4 -20 0 -11 7 -23
16 -27 9 -3 26 -16 39 -29 21 -20 26 -22 54 -11 21 7 31 18 31 32 0 16 6 12
26 -17 34 -48 56 -55 92 -29 31 21 46 17 56 -16 7 -21 49 -39 66 -28 13 8 2
57 -16 71 -8 6 -11 14 -7 17 3 4 1 7 -5 7 -7 0 -11 4 -9 8 4 13 -76 92 -93 92
-8 0 -26 -7 -38 -16 -21 -15 -25 -15 -41 0 -21 19 -72 21 -89 4 -9 -9 -16 -8
-30 5 -10 9 -24 17 -30 17 -7 0 -17 9 -24 20 -17 26 -82 28 -97 3 -6 -10 -11
-12 -11 -5 0 26 -40 52 -79 52 -22 0 -43 -5 -46 -10 -6 -10 -66 25 -73 42 -2
4 -24 8 -48 8 -37 0 -46 -4 -53 -22 -5 -14 -10 -18 -15 -10 -8 14 -72 43 -90
41 -6 -1 -23 -6 -38 -12z"/>
<path d="M9136 6864 c-3 -9 -6 -27 -6 -40 0 -20 5 -24 28 -24 28 0 72 -35 72
-56 0 -13 37 -48 68 -64 28 -14 64 -7 87 17 16 16 18 15 36 -8 11 -13 22 -34
25 -46 3 -13 12 -23 20 -23 8 0 14 -4 14 -8 0 -5 10 -13 22 -19 17 -7 30 -5
55 10 29 16 33 24 33 60 0 39 0 40 20 22 11 -10 20 -24 20 -30 0 -7 21 -33 48
-59 57 -56 90 -60 134 -16 31 32 58 39 58 17 0 -27 37 -49 69 -42 30 6 44 35
18 35 -8 0 -24 21 -37 47 -13 26 -42 64 -64 85 -42 39 -86 50 -86 23 0 -8 -5
-15 -11 -15 -8 0 -9 -18 -4 -57 l7 -58 -21 19 c-12 11 -21 25 -21 31 0 7 -18
24 -40 39 -22 14 -42 36 -45 49 -8 29 -72 51 -109 37 -19 -7 -25 -17 -28 -47
-2 -31 -5 -35 -15 -23 -58 73 -79 89 -118 92 -32 2 -40 0 -40 -14 0 -16 -5
-20 -20 -17 -3 1 -9 2 -13 3 -15 2 -62 50 -62 63 0 30 -83 45 -94 17z"/>
<path d="M2278 6800 c-13 -8 -18 -24 -18 -55 0 -41 2 -45 25 -45 17 0 29 8 37
25 6 14 14 25 18 25 4 0 13 -11 20 -25 7 -14 19 -25 26 -25 7 0 17 -7 21 -15
5 -8 23 -17 40 -21 25 -5 34 -2 44 14 12 19 12 19 51 -1 32 -17 43 -19 58 -9
16 9 24 7 50 -18 43 -40 70 -40 70 0 0 17 -5 30 -10 30 -6 0 -16 11 -22 25 -6
13 -19 27 -30 30 -10 4 -18 13 -18 20 0 17 -42 30 -72 22 -13 -4 -35 2 -54 14
-41 25 -115 25 -106 0 5 -13 3 -14 -9 -4 -21 16 -101 25 -121 13z"/>
<path d="M2823 6693 c-31 -4 -33 -7 -33 -44 0 -37 2 -39 29 -39 17 0 33 5 36
10 8 14 45 -6 45 -24 0 -8 9 -16 21 -19 11 -3 23 -15 26 -26 8 -33 50 -27 72
10 l19 31 33 -42 c28 -34 38 -40 64 -38 25 3 30 8 33 33 2 25 -3 34 -28 48
-16 10 -42 34 -58 53 -23 29 -33 34 -69 34 -23 0 -44 -4 -47 -9 -4 -5 -18 -4
-34 4 -35 17 -69 22 -109 18z"/>
<path d="M3260 6593 c-21 -8 -30 -24 -30 -55 0 -34 12 -41 36 -24 14 11 24 11
38 4 25 -13 55 -49 56 -65 0 -6 9 -15 20 -18 11 -3 20 -10 20 -14 0 -20 52 4
61 28 9 23 11 24 20 9 6 -10 16 -18 23 -18 8 0 16 -8 19 -18 7 -29 44 -34 67
-10 12 13 25 18 38 14 55 -18 72 44 25 89 -22 21 -37 26 -73 25 -71 -3 -80 -1
-80 15 0 19 -62 30 -89 16 -12 -7 -21 -18 -21 -26 0 -8 -5 -15 -11 -15 -6 0
-9 7 -5 15 10 27 -76 63 -114 48z"/>
<path d="M8928 6530 c-21 -13 -24 -74 -8 -130 6 -19 11 -68 11 -108 1 -82 12
-96 55 -67 26 17 27 19 21 98 -3 44 -9 83 -14 86 -7 5 -15 41 -8 41 7 0 55
-82 61 -104 3 -14 10 -26 15 -26 5 0 9 -7 9 -15 0 -8 6 -15 13 -15 6 -1 27
-34 46 -76 41 -89 69 -105 108 -60 18 21 23 39 23 81 0 40 3 53 13 49 18 -7
77 -109 77 -134 0 -11 4 -19 9 -15 5 3 18 -8 27 -25 24 -39 44 -38 73 5 22 32
23 41 16 116 -3 45 -9 89 -12 98 -3 10 4 6 19 -10 14 -14 28 -35 32 -46 4 -11
18 -33 32 -48 14 -15 41 -58 60 -94 40 -74 67 -100 105 -101 41 0 51 19 40 76
-5 27 -12 77 -16 112 -7 71 6 82 32 27 9 -19 20 -35 23 -35 4 0 15 -20 24 -44
9 -24 26 -52 36 -61 11 -10 20 -23 20 -29 0 -21 50 -86 66 -86 9 0 22 -7 30
-15 22 -22 57 -18 82 8 23 24 28 47 13 63 -8 8 -31 134 -31 169 0 14 4 13 30
-5 17 -12 30 -26 30 -32 0 -5 14 -30 30 -55 45 -67 70 -119 70 -148 0 -14 4
-24 9 -20 5 3 12 1 16 -5 4 -6 17 -4 36 5 37 20 38 55 4 89 -14 14 -25 32 -25
41 0 9 -11 33 -25 53 -14 20 -25 42 -25 49 0 7 -6 13 -12 13 -7 0 -31 22 -53
49 -41 51 -89 71 -134 56 -29 -9 -31 -29 -18 -142 7 -57 11 -103 8 -103 -20 1
-64 78 -85 148 -4 12 -13 22 -21 22 -14 0 -29 27 -26 48 1 6 -4 12 -10 12 -7
0 -9 3 -6 6 8 9 -100 94 -119 94 -22 0 -64 -46 -64 -69 0 -12 6 -34 14 -49 7
-15 17 -47 20 -72 l7 -45 -35 60 c-20 33 -36 65 -36 70 0 6 -14 19 -30 30 -16
11 -30 28 -30 37 0 10 -19 38 -43 63 -48 50 -82 58 -112 25 -18 -20 -18 -64 1
-159 11 -53 -13 -35 -53 39 -42 80 -91 123 -128 114 -32 -8 -39 -36 -27 -113
5 -34 5 -61 1 -61 -8 0 -49 80 -49 97 0 6 -16 31 -36 55 -20 23 -41 52 -46 63
-21 45 -95 76 -130 55z"/>
<path d="M2231 6519 c-21 -8 -23 -14 -18 -49 3 -27 1 -43 -9 -51 -26 -21 -16
-39 22 -39 25 0 41 7 53 22 l18 22 28 -22 c15 -12 34 -22 42 -22 7 0 18 -11
23 -25 11 -30 24 -32 42 -7 7 10 21 21 32 25 12 5 17 14 13 27 -3 11 17 -4 45
-35 38 -41 57 -55 78 -55 36 0 53 22 48 60 -6 39 12 35 32 -7 21 -44 98 -116
116 -109 8 3 22 22 30 42 l15 36 20 -26 c20 -26 42 -32 73 -20 19 7 21 34 3
34 -7 0 -23 18 -36 40 -13 24 -32 42 -47 46 -13 3 -24 10 -24 15 0 16 -53 10
-73 -8 -15 -13 -21 -15 -24 -5 -3 6 -11 12 -19 12 -7 0 -19 9 -26 20 -7 11
-18 20 -24 20 -7 0 -14 7 -18 15 -9 25 -55 18 -68 -10 -7 -16 -17 -24 -26 -20
-7 3 -18 5 -23 5 -5 0 -9 6 -9 13 0 14 -60 57 -81 57 -18 -1 -55 -30 -62 -50
-5 -13 -6 -13 -7 0 -1 14 -84 61 -105 60 -5 -1 -21 -6 -34 -11z"/>
<path d="M3037 6323 c-14 -13 -7 -110 8 -123 19 -16 42 1 47 33 3 21 4 21 31
-7 15 -17 35 -45 44 -64 14 -29 20 -33 42 -27 42 11 53 25 47 59 -6 29 -4 28
49 -27 55 -57 56 -57 88 -44 17 7 37 22 42 33 9 19 11 18 28 -16 21 -45 59
-66 81 -45 14 15 11 51 -5 61 -5 3 -9 14 -9 25 0 10 -6 19 -14 19 -8 0 -28 14
-44 30 -23 22 -40 30 -66 30 -32 0 -36 -3 -36 -25 0 -35 -1 -35 -76 33 -25 22
-120 51 -110 33 2 -3 0 -15 -5 -26 -7 -19 -8 -19 -8 1 -1 35 -109 73 -134 47z"/>
<path d="M2094 6156 c-3 -8 -4 -25 -2 -38 2 -18 10 -24 35 -26 19 -2 39 -12
47 -23 11 -17 23 -20 71 -18 44 2 59 -1 66 -13 11 -19 60 -32 88 -23 10 3 21
16 25 28 5 21 7 20 44 -16 39 -38 77 -48 101 -24 10 10 16 7 32 -12 10 -13 19
-29 19 -37 0 -19 69 -19 76 0 7 17 -25 76 -41 76 -5 0 -27 16 -47 35 -36 34
-88 48 -88 23 0 -6 -15 5 -32 26 -25 28 -43 39 -73 43 -36 4 -42 2 -55 -21
l-14 -26 -26 25 c-28 27 -94 35 -104 13 -3 -10 -9 -8 -19 5 -18 22 -95 24
-103 3z"/>
<path d="M2766 5964 c-19 -19 -19 -19 -4 -61 13 -35 44 -45 54 -18 9 22 28 18
39 -7 6 -12 25 -31 44 -42 29 -17 38 -18 65 -7 40 17 64 16 85 -3 30 -27 101
-18 101 13 1 9 12 -4 24 -29 18 -34 33 -49 62 -59 28 -10 39 -11 42 -2 2 6 10
11 18 11 8 0 14 10 15 23 0 16 3 13 12 -13 8 -23 19 -36 33 -38 25 -4 57 24
48 40 -4 6 -7 18 -8 28 -1 9 -18 36 -38 59 -30 33 -45 41 -72 41 -21 0 -36 -6
-40 -15 -8 -21 -23 -19 -31 4 -19 62 -112 105 -147 67 -11 -11 -19 -10 -55 7
-40 20 -45 20 -77 5 -29 -14 -36 -15 -52 -3 -26 20 -99 19 -118 -1z"/>
<path d="M9190 5890 c-16 -38 0 -80 29 -80 11 0 31 -10 44 -22 13 -13 40 -38
59 -55 44 -41 67 -41 95 -1 18 26 23 29 29 15 3 -9 11 -17 18 -17 6 0 16 -10
21 -22 15 -34 53 -35 83 -3 22 24 24 30 12 49 -11 19 -10 18 14 -3 14 -14 26
-30 26 -36 0 -15 56 -65 64 -58 3 4 6 1 6 -5 0 -26 31 -10 60 30 16 22 30 36
30 30 0 -7 0 -14 1 -17 0 -2 13 -18 30 -36 16 -17 29 -35 29 -40 0 -5 11 -9
25 -9 31 0 49 32 42 76 l-6 33 39 -42 c22 -23 45 -50 53 -61 11 -15 17 -17 35
-7 12 6 22 17 22 24 0 29 -77 127 -100 127 -4 0 -17 16 -29 35 -14 25 -27 35
-45 35 -40 0 -56 -11 -56 -37 0 -29 -17 -22 -30 13 -8 20 -16 24 -50 24 -34 0
-41 -4 -46 -25 -3 -14 -4 -32 0 -40 5 -13 2 -13 -19 1 -14 9 -25 22 -25 29 0
7 -14 25 -31 40 -35 29 -81 32 -110 7 -15 -11 -21 -9 -52 17 -44 39 -88 42
-106 7 -8 -13 -10 -30 -5 -38 4 -7 -2 -4 -14 6 -12 11 -32 24 -45 30 -12 6
-26 21 -32 34 -15 33 -50 29 -65 -8z"/>
<path d="M8653 5742 c-7 -4 -16 -29 -19 -55 l-7 -46 43 2 c30 1 44 -3 51 -16
33 -59 89 -74 112 -31 l14 27 11 -32 c6 -17 17 -31 25 -31 8 0 20 -7 27 -15
23 -28 90 -9 90 26 1 15 64 -48 71 -70 3 -7 20 -13 39 -14 27 -2 37 3 45 21
10 22 35 31 35 12 0 -5 9 -10 20 -10 32 0 25 42 -12 77 -18 17 -46 45 -61 62
-32 35 -54 39 -72 15 -11 -16 -14 -15 -41 5 -16 12 -46 24 -66 28 -34 5 -38 3
-44 -22 l-7 -27 -45 46 c-24 25 -52 46 -62 46 -28 0 -51 -11 -44 -21 8 -14 -3
-11 -18 5 -18 17 -69 28 -85 18z"/>
<path d="M2686 5694 c-3 -9 -6 -32 -6 -51 0 -34 1 -35 30 -30 24 5 33 1 53
-24 22 -29 28 -31 65 -24 29 5 42 12 47 28 l6 22 11 -22 c6 -13 17 -23 25 -23
17 0 35 -17 52 -48 17 -31 86 -32 94 -1 6 22 27 18 27 -6 0 -18 46 -28 70 -15
11 6 20 18 20 27 0 13 8 9 33 -15 18 -18 43 -32 55 -32 18 0 22 6 22 33 0 25
-8 37 -36 57 -19 14 -41 37 -50 53 -11 21 -22 27 -49 27 -24 0 -35 -5 -35 -15
0 -24 -18 -18 -42 15 -28 39 -89 43 -106 8 -6 -13 -11 -17 -11 -10 -1 7 -11
17 -23 23 -13 5 -34 16 -48 24 -31 18 -82 19 -98 3 -9 -9 -15 -9 -24 0 -18 18
-75 15 -82 -4z"/>
<path d="M1872 5558 c2 -13 11 -24 23 -26 11 -2 27 -10 35 -16 15 -13 330 -60
474 -71 53 -4 97 -14 131 -30 35 -17 97 -31 196 -45 174 -25 250 -39 264 -51
6 -4 20 -8 30 -8 11 0 66 -3 123 -7 l104 -7 -4 29 c-3 25 -8 29 -38 31 -58 4
-174 25 -185 33 -5 4 -44 13 -85 20 -41 7 -81 17 -87 23 -7 5 -41 11 -75 13
-35 2 -85 8 -113 14 -49 9 -105 17 -309 45 -54 7 -101 18 -105 24 -4 5 -83 19
-176 31 -214 25 -207 25 -203 -2z"/>
<path d="M2400 5253 c0 -26 8 -65 19 -87 37 -82 44 -106 37 -146 -6 -37 -4
-40 17 -40 34 0 47 19 47 68 0 47 13 49 25 5 3 -15 10 -30 14 -33 4 -3 17 -22
30 -42 29 -48 58 -50 90 -7 21 28 23 39 18 108 -3 42 -3 66 0 54 2 -13 12 -28
22 -35 10 -7 27 -33 38 -58 34 -75 70 -110 113 -110 32 0 39 4 44 25 9 35 22
31 42 -11 14 -29 22 -35 43 -32 16 2 27 10 29 22 4 18 -26 88 -40 94 -5 2 -8
12 -8 21 0 21 -28 55 -52 64 -10 3 -18 15 -18 25 0 49 -85 71 -114 30 -9 -12
-16 -18 -16 -12 0 6 -18 29 -40 52 -22 22 -40 46 -40 54 0 16 -45 38 -77 38
-31 0 -39 -38 -25 -110 18 -83 15 -90 -13 -33 -15 28 -34 53 -45 56 -12 3 -20
14 -20 26 0 32 -39 61 -82 61 l-38 0 0 -47z"/>
<path d="M9272 5193 c-29 -6 -26 -37 4 -41 12 -2 26 -14 33 -28 6 -13 18 -27
26 -30 8 -4 15 -12 15 -20 0 -8 6 -14 13 -14 7 0 18 -9 25 -20 15 -25 48 -26
63 -1 11 17 15 15 52 -20 22 -22 45 -39 53 -39 30 0 63 20 66 41 3 20 6 19 46
-20 44 -43 74 -50 80 -19 2 10 -6 27 -17 40 -20 20 -25 33 -22 51 0 4 -3 7 -8
7 -14 0 -69 57 -76 79 -7 24 -56 37 -84 21 -13 -7 -21 -21 -21 -38 -1 -26 -1
-26 -15 -7 -8 11 -19 26 -25 33 -13 15 -80 16 -80 1 0 -6 -15 -1 -34 10 -33
21 -48 23 -94 14z"/>
<path d="M8590 5030 c0 -5 -7 -10 -15 -10 -8 0 -15 -6 -15 -14 0 -7 -9 -16
-20 -19 -26 -7 -26 -47 0 -75 29 -31 86 -30 96 0 7 22 7 22 30 -5 13 -15 28
-27 34 -27 5 0 10 -9 10 -19 0 -42 74 -37 91 6 l9 25 25 -36 c14 -20 25 -41
25 -45 0 -8 33 -21 53 -21 4 0 16 9 27 20 11 11 20 16 20 10 0 -5 6 -10 14
-10 7 0 19 -7 26 -15 19 -23 70 -20 70 4 0 10 -7 22 -15 25 -9 3 -21 19 -28
35 -7 17 -31 42 -52 57 -36 24 -44 26 -78 17 -35 -10 -39 -9 -58 19 -28 38
-59 50 -97 36 -27 -10 -33 -8 -68 20 -37 31 -84 43 -84 22z"/>
<path d="M3562 5008 c-7 -7 -12 -21 -12 -32 0 -31 34 -126 46 -126 13 0 42
-82 50 -143 7 -52 19 -63 58 -53 18 4 25 15 30 41 11 55 -3 123 -25 130 -10 4
-18 9 -17 13 4 14 -37 128 -55 155 -19 29 -54 36 -75 15z"/>
<path d="M3856 4868 c-17 -24 -22 -98 -7 -98 12 0 2 -49 -17 -88 -16 -32 -16
-34 3 -48 26 -20 74 -11 99 19 15 18 17 33 13 77 -3 34 -2 47 3 34 5 -12 22
-31 39 -43 17 -12 31 -28 31 -34 1 -16 36 -57 48 -57 6 0 12 -5 14 -11 2 -5
22 -13 44 -16 39 -5 42 -3 57 26 12 24 13 39 7 57 -23 59 -1 54 30 -7 12 -22
34 -51 50 -66 17 -14 30 -30 30 -35 0 -21 55 -68 79 -68 46 1 72 30 74 83 1
26 4 47 7 47 6 0 50 -67 50 -76 0 -4 14 -20 30 -36 17 -15 30 -35 30 -42 0
-38 91 -64 125 -36 18 15 21 113 4 157 l-10 28 25 -24 c14 -14 26 -28 26 -32
0 -4 14 -23 30 -41 17 -18 30 -38 30 -45 0 -7 18 -32 39 -54 40 -43 65 -47 78
-13 11 29 -16 92 -47 110 -16 10 -31 27 -34 38 -3 12 -39 56 -80 99 -63 65
-79 77 -107 77 -18 0 -40 -7 -49 -15 -16 -15 -16 -21 1 -103 14 -70 15 -83 3
-68 -8 11 -14 26 -14 33 0 7 -6 13 -12 13 -16 1 -42 36 -53 70 -11 37 -81 100
-110 100 -14 0 -25 -4 -25 -10 0 -5 -9 -10 -20 -10 -23 0 -27 -29 -8 -63 14
-26 28 -97 19 -97 -8 1 -61 78 -61 89 0 5 -18 24 -40 41 -22 17 -40 36 -40 42
0 11 -40 47 -54 48 -5 0 -14 7 -21 16 -8 12 -20 15 -36 11 -50 -14 -54 -22
-43 -76 10 -46 9 -49 -8 -40 -10 5 -18 14 -18 19 0 11 -56 70 -67 70 -10 0
-37 41 -38 55 0 6 -19 11 -42 13 -33 2 -44 -1 -57 -20z"/>
<path d="M5005 4603 c-13 -13 -16 -28 -12 -64 8 -65 28 -130 38 -123 5 3 9 -3
9 -13 0 -10 5 -35 11 -56 8 -31 14 -38 32 -35 20 3 22 9 22 74 l0 71 26 -21
c14 -11 37 -41 49 -64 13 -24 34 -48 47 -53 13 -5 23 -13 23 -19 0 -28 31 -42
75 -36 38 6 45 11 55 40 6 19 8 52 4 77 l-7 44 22 -19 c11 -11 21 -15 21 -10
0 9 13 -13 56 -94 29 -56 64 -82 106 -82 45 1 76 27 80 70 3 29 5 32 13 16 5
-11 23 -34 40 -50 17 -17 42 -52 55 -78 27 -54 58 -68 97 -43 22 15 24 22 21
75 -3 54 -2 57 17 50 11 -5 19 -13 18 -19 -2 -6 1 -11 7 -11 5 0 16 -15 24
-32 16 -39 51 -78 69 -78 7 0 21 6 31 13 17 12 17 17 5 52 -8 20 -29 52 -47
70 -18 17 -34 40 -36 49 -3 19 -53 76 -67 76 -5 0 -9 6 -9 13 0 6 -12 24 -25
40 -17 19 -34 27 -58 27 -43 0 -63 -32 -53 -84 l7 -36 -26 24 c-14 13 -25 27
-25 33 0 5 -19 28 -43 51 -34 33 -50 42 -77 42 -41 0 -63 -26 -55 -65 3 -14 7
-37 10 -51 8 -34 -9 -23 -41 27 -13 22 -49 65 -78 95 -48 50 -58 56 -109 63
-32 4 -58 6 -60 4 -3 -3 6 -88 17 -158 l7 -40 -18 37 c-9 20 -28 42 -40 49
-13 7 -23 18 -23 24 0 7 -7 18 -15 25 -8 7 -12 16 -9 21 3 5 1 9 -5 9 -5 0
-30 20 -55 45 -50 49 -91 59 -121 28z"/>
<path d="M3615 4479 c-10 -16 17 -139 30 -139 15 0 45 33 45 48 0 7 5 12 10
12 6 0 10 -6 10 -14 0 -8 17 -28 37 -45 46 -38 111 -44 120 -11 3 11 8 20 12
20 11 -1 57 -46 64 -63 4 -12 18 -17 47 -17 22 0 40 4 40 8 0 5 6 16 13 26 12
16 16 15 54 -23 22 -23 48 -41 57 -41 26 0 56 19 56 35 0 9 20 0 55 -27 31
-23 55 -49 55 -59 0 -11 10 -20 29 -24 35 -8 71 9 71 33 0 12 6 8 20 -13 11
-16 20 -26 20 -22 0 5 7 1 16 -7 21 -22 64 -21 64 1 0 21 -47 83 -64 83 -7 0
-23 11 -36 25 -17 18 -34 25 -63 25 -35 0 -39 -2 -34 -21 6 -21 5 -21 -19 2
-13 12 -24 28 -24 36 0 7 -5 13 -11 13 -6 0 -27 14 -46 30 -36 32 -98 41 -120
19 -8 -8 -17 -5 -32 10 -28 28 -77 28 -101 -1 -15 -19 -20 -20 -34 -9 -9 7
-14 17 -11 21 6 10 -40 44 -73 55 -36 11 -92 -3 -92 -22 0 -15 -1 -15 -12 -1
-39 50 -136 86 -153 57z"/>
<path d="M6193 4318 c-27 -13 -31 -53 -6 -66 13 -8 17 -25 17 -83 l1 -74 -38
3 c-37 4 -38 3 -35 -25 3 -26 7 -28 48 -31 37 -2 50 2 73 23 17 17 27 36 27
55 0 37 24 31 38 -9 11 -32 96 -121 115 -121 20 0 57 55 57 85 0 14 -4 25 -10
25 -5 0 -7 7 -3 16 3 9 0 20 -8 25 -11 7 -9 9 7 9 15 0 27 -11 39 -37 48 -101
120 -183 162 -183 14 0 38 13 55 30 32 33 32 36 12 139 -5 25 -4 32 4 27 7 -4
12 -14 12 -21 0 -8 9 -19 20 -25 11 -6 20 -17 20 -25 0 -8 4 -15 9 -15 5 0 13
-10 17 -22 3 -13 22 -38 40 -56 19 -18 34 -39 34 -46 0 -19 62 -74 91 -81 19
-5 33 0 54 17 26 23 27 26 17 74 -14 62 -4 72 28 29 26 -36 36 -40 60 -25 12
7 10 18 -15 69 -16 34 -41 72 -57 86 -15 14 -28 30 -28 36 0 6 -19 9 -47 7
l-48 -3 -3 -53 c-2 -36 2 -62 12 -78 27 -40 19 -60 -9 -26 -14 17 -25 37 -25
46 0 8 -18 32 -40 52 -22 21 -40 43 -40 50 0 7 -25 40 -57 73 -46 50 -62 61
-88 61 -54 0 -68 -26 -60 -114 4 -45 12 -77 20 -80 14 -5 27 -56 14 -56 -4 0
-11 9 -14 21 -4 11 -22 36 -40 55 -18 18 -45 57 -59 86 -35 70 -156 186 -156
149 0 -5 -12 -12 -26 -15 -25 -7 -26 -9 -22 -66 l4 -59 -18 30 c-10 16 -18 33
-18 37 0 4 -10 12 -22 17 -13 6 -27 24 -32 43 -7 26 -14 32 -35 31 -14 0 -36
-5 -48 -11z"/>
<path d="M8090 4239 c0 -38 25 -65 72 -77 56 -14 190 -39 252 -47 27 -4 56
-11 65 -16 20 -11 354 -75 441 -85 36 -4 68 -12 72 -18 4 -5 27 -11 51 -12 25
-1 49 -4 54 -6 4 -3 28 -6 51 -7 24 0 49 -4 54 -8 24 -14 125 -26 145 -18 10
5 24 9 31 11 33 7 42 15 42 43 0 32 -14 41 -64 41 -18 0 -113 13 -212 29 -98
16 -213 32 -254 36 -41 4 -80 11 -86 16 -7 5 -45 16 -85 25 -40 8 -78 19 -84
24 -5 4 -46 13 -90 20 -44 6 -93 18 -110 27 -28 14 -94 23 -272 39 -72 7 -73
7 -73 -17z"/>
<path d="M4810 4205 c0 -8 -5 -15 -11 -15 -7 0 -9 -12 -5 -36 l7 -35 -27 18
c-16 10 -38 28 -51 40 -24 25 -53 29 -84 13 -21 -12 -26 -68 -9 -101 13 -23
55 -25 68 -4 7 14 11 13 27 -5 10 -11 22 -20 27 -20 5 0 22 -10 37 -21 26 -19
33 -20 65 -9 29 9 36 17 36 38 l0 26 28 -27 c15 -15 33 -27 40 -27 7 0 12 -4
12 -10 0 -16 67 -12 84 5 20 20 38 11 56 -28 13 -28 21 -32 58 -35 l44 -4 -7
34 c-8 36 -30 57 -58 58 -11 0 -21 9 -24 20 -3 11 -12 20 -19 20 -8 0 -14 6
-14 14 0 21 -66 59 -90 51 -15 -5 -20 -15 -20 -43 l0 -36 -27 32 c-16 18 -41
48 -56 67 -21 25 -37 35 -58 35 -19 0 -29 -5 -29 -15z"/>
<path d="M8133 4043 c-30 -15 -33 -21 -33 -62 l-1 -46 -24 47 c-29 55 -35 60
-81 61 -46 1 -56 -16 -48 -82 4 -37 2 -51 -5 -47 -6 4 -11 13 -11 20 0 8 -12
35 -26 60 -25 44 -29 47 -63 44 l-36 -3 -6 -100 c-6 -113 -14 -145 -35 -145
-8 0 -14 -9 -14 -20 0 -27 31 -26 75 3 34 22 44 42 45 87 0 34 16 10 31 -47 6
-24 17 -43 24 -43 7 0 18 -7 25 -15 7 -8 21 -15 31 -15 9 0 24 7 33 15 8 8 19
15 25 15 5 0 11 19 13 43 l3 42 20 -40 c18 -36 24 -40 60 -42 28 -2 47 3 64
18 23 19 24 23 13 65 -27 99 -9 99 38 -1 19 -41 38 -75 43 -75 4 0 7 -7 7 -15
0 -8 7 -15 15 -15 8 0 15 -8 15 -17 1 -29 46 -73 75 -73 20 0 25 5 25 25 0 14
-4 25 -10 25 -5 0 -10 8 -10 18 0 9 -7 26 -16 37 -8 11 -19 37 -25 58 -6 23
-18 41 -28 44 -10 2 -23 21 -30 41 -8 20 -21 46 -31 57 -10 11 -21 29 -24 41
-5 18 -64 55 -84 53 -4 0 -22 -8 -39 -16z"/>
<path d="M5297 4023 c-4 -3 -7 -33 -7 -65 0 -51 2 -58 20 -58 13 0 20 7 20 19
0 35 22 35 54 -1 17 -19 48 -47 68 -62 25 -17 35 -32 31 -42 -5 -13 3 -15 42
-12 45 3 49 5 59 36 l12 33 22 -23 c12 -13 33 -35 46 -50 21 -23 33 -28 72
-28 46 0 46 0 41 29 l-6 29 42 -39 c48 -45 78 -56 116 -42 21 7 25 14 23 38
-2 17 -8 32 -13 33 -5 2 -9 10 -9 18 0 8 -5 14 -12 14 -6 0 -8 3 -5 6 9 10 38
-16 48 -42 4 -13 24 -30 44 -40 20 -9 42 -25 48 -36 16 -25 57 -24 57 2 0 11
-4 20 -10 20 -5 0 -10 7 -10 15 0 8 -6 15 -13 15 -7 0 -20 13 -29 28 -9 15
-28 34 -42 41 -14 8 -23 18 -20 23 3 4 -1 8 -9 8 -8 0 -22 9 -32 20 -34 38
-102 14 -93 -34 l5 -24 -29 21 c-15 11 -28 24 -28 29 0 4 -23 8 -51 8 -43 0
-52 -3 -56 -20 -4 -17 -8 -18 -20 -8 -8 7 -19 22 -24 35 -10 27 -77 63 -116
63 -42 0 -55 -13 -48 -46 4 -24 4 -25 -4 -8 -10 22 -62 64 -79 64 -6 0 -14 9
-17 20 -5 15 -15 20 -44 20 -21 0 -41 -3 -44 -7z"/>
<path d="M8503 3858 c-24 -12 -24 -7 -27 -230 -1 -29 3 -33 26 -36 42 -5 70
46 65 118 l-4 55 16 -38 c9 -21 19 -35 23 -32 4 4 20 -34 35 -84 l28 -92 35 3
c29 2 38 9 53 38 15 29 17 49 13 118 -4 55 -3 81 4 77 5 -3 10 -15 10 -26 0
-10 6 -19 13 -19 8 0 20 -19 26 -42 7 -24 22 -62 32 -85 10 -23 19 -45 19 -48
0 -4 12 -20 27 -36 35 -37 92 -40 123 -7 21 23 27 64 9 70 -6 2 -9 20 -7 42
l3 38 25 -64 c13 -34 30 -66 36 -71 7 -4 18 -23 24 -42 8 -24 18 -35 31 -35
26 0 34 40 18 87 -7 21 -14 41 -15 46 -1 4 -3 10 -4 15 -1 4 -2 10 -1 15 0 4
-4 7 -10 7 -5 0 -7 5 -4 10 3 6 1 10 -5 10 -6 0 -8 5 -5 10 3 6 1 10 -5 10 -6
0 -14 10 -19 23 -5 12 -23 41 -40 65 -26 35 -37 42 -66 42 -43 0 -50 -20 -42
-129 5 -74 5 -75 -8 -36 -8 22 -19 41 -25 43 -13 5 -50 76 -50 96 0 16 -12 33
-66 94 -30 34 -32 35 -75 26 l-44 -9 2 -80 c2 -55 0 -75 -7 -65 -5 8 -10 23
-10 33 0 10 -6 25 -12 32 -7 7 -24 32 -38 54 -20 34 -29 41 -55 40 -16 0 -40
-5 -52 -11z"/>
<path d="M6362 3710 c-13 -21 -16 -68 -6 -94 4 -11 19 -16 48 -16 23 0 47 -5
54 -12 7 -7 29 -11 50 -10 31 2 44 -4 76 -34 36 -33 42 -35 83 -29 35 5 48 2
69 -14 30 -24 77 -27 96 -8 19 21 42 10 69 -33 29 -47 64 -53 99 -16 20 22 24
23 37 10 18 -17 64 -19 81 -2 20 20 14 38 -28 79 -22 22 -40 44 -40 49 0 6 -7
10 -16 10 -8 0 -13 4 -10 9 8 12 -48 31 -90 31 -23 0 -34 -5 -34 -14 0 -12 -9
-11 -46 6 -30 13 -57 18 -75 14 -18 -3 -29 -1 -29 5 0 19 -44 48 -73 49 -16 0
-37 -5 -48 -11 -16 -8 -29 -7 -56 6 -24 12 -38 14 -42 6 -5 -7 -19 -2 -43 14
-47 32 -108 34 -126 5z"/>
<path d="M4412 3694 c-16 -11 -22 -25 -22 -53 0 -47 20 -67 49 -52 31 17 43
13 82 -22 68 -61 100 -70 144 -41 15 10 22 21 18 32 -3 9 12 -1 35 -23 71 -70
80 -75 127 -75 28 0 45 4 45 12 0 9 3 9 12 0 18 -18 75 -15 82 4 11 30 6 44
-19 50 -14 3 -25 11 -25 18 0 6 -15 24 -32 40 -40 35 -106 47 -120 22 -13 -23
-20 -21 -66 24 -43 42 -71 49 -117 28 -14 -6 -25 -18 -25 -27 -1 -13 -4 -12
-18 4 -34 39 -84 75 -106 75 -12 0 -32 -7 -44 -16z"/>
<path d="M5718 3636 c-19 -14 -25 -76 -8 -76 6 0 10 -9 10 -20 0 -14 7 -20 24
-20 24 0 41 23 30 41 -15 26 20 3 65 -41 42 -41 58 -50 86 -50 21 0 38 6 41
14 8 20 40 8 68 -25 29 -34 56 -37 81 -9 21 23 35 26 35 7 0 -24 38 -49 83
-54 41 -5 44 -4 57 27 l13 31 30 -45 c16 -25 33 -46 38 -46 5 0 9 -6 9 -14 0
-16 72 -32 90 -21 6 4 15 18 20 31 9 22 12 23 30 12 11 -7 20 -18 20 -24 0
-20 46 -54 73 -54 50 0 35 39 -46 124 -46 47 -60 56 -89 56 -27 0 -38 -6 -48
-25 -15 -28 -40 -34 -40 -9 0 25 -70 84 -99 84 -35 0 -48 -10 -52 -39 -4 -24
-7 -22 -58 28 -47 46 -58 52 -90 49 -31 -3 -36 -6 -35 -27 l1 -24 -20 24 c-28
35 -68 59 -99 59 -37 0 -59 -10 -51 -24 4 -6 -9 1 -28 15 -18 14 -42 28 -52
32 -10 4 -15 11 -12 17 9 15 -57 12 -77 -4z"/>
<path d="M3660 3560 c0 -17 5 -40 10 -51 12 -22 52 -25 69 -5 13 15 25 11 81
-26 40 -27 77 -32 104 -15 30 20 64 6 92 -35 30 -45 114 -64 132 -32 8 14 15
11 50 -26 37 -37 44 -41 69 -33 29 10 45 43 21 43 -7 1 -26 19 -43 40 -67 88
-161 133 -199 94 -9 -8 -16 -11 -16 -6 0 6 -13 13 -30 17 -16 4 -32 11 -35 16
-10 16 -63 10 -74 -8 -8 -14 -13 -15 -35 -5 -14 6 -26 18 -26 26 0 15 -34 25
-117 33 l-53 5 0 -32z"/>
<path d="M7697 3563 c-22 -21 17 -93 51 -93 6 0 19 -13 29 -30 24 -41 76 -43
97 -2 12 23 15 25 21 10 11 -27 100 -88 129 -88 15 0 31 8 38 19 9 15 15 17
25 9 7 -6 13 -16 13 -24 0 -14 51 -54 70 -54 6 0 23 9 37 20 l26 20 26 -35
c22 -30 31 -35 61 -32 27 1 36 7 38 24 2 14 -3 23 -17 28 -12 3 -21 12 -21 19
0 20 -87 96 -109 96 -11 0 -27 -7 -36 -16 -15 -15 -19 -13 -54 25 -40 43 -72
52 -113 30 -14 -8 -23 -8 -31 0 -6 6 -17 11 -25 11 -8 0 -25 9 -39 20 -32 25
-48 25 -75 0 -21 -19 -21 -19 -61 15 -39 33 -66 43 -80 28z"/>
<path d="M6745 3380 c-4 -6 -5 -26 -4 -44 2 -19 -3 -41 -10 -50 -7 -9 -11 -23
-7 -31 9 -24 50 -17 77 14 l25 29 13 -29 c10 -24 19 -29 47 -29 28 0 38 -6 52
-30 9 -17 25 -33 35 -36 27 -9 67 4 67 21 0 24 -49 95 -65 95 -8 0 -15 7 -15
15 0 15 -20 22 -74 27 -17 2 -34 12 -40 23 -6 11 -15 23 -21 27 -15 11 -73 9
-80 -2z"/>
<path d="M8465 3374 c-17 -18 -18 -69 -2 -91 11 -15 47 -17 47 -3 0 24 31 7
46 -26 9 -20 24 -38 33 -42 9 -3 19 -10 23 -16 5 -8 18 -5 39 7 44 25 54 22
86 -25 26 -39 33 -43 67 -42 21 1 43 8 48 15 7 11 11 11 15 2 2 -7 10 -13 16
-13 7 0 18 -9 25 -20 14 -23 54 -26 72 -5 9 11 6 22 -17 57 -16 24 -41 49 -57
57 -16 7 -31 22 -33 32 -10 36 -63 16 -63 -23 0 -10 -2 -18 -5 -18 -10 0 -42
35 -48 53 -4 9 -19 23 -34 29 -15 7 -30 15 -33 19 -3 3 -15 9 -27 13 -16 5
-26 1 -38 -16 l-16 -23 -29 35 c-15 19 -26 38 -24 41 4 7 -31 19 -58 19 -9 0
-24 -7 -33 -16z"/>
<path d="M7713 3293 c-7 -2 -13 -14 -13 -26 l0 -21 -20 22 c-27 29 -76 30 -85
2 -3 -11 -11 -20 -16 -20 -14 0 -7 -73 7 -77 7 -2 18 2 25 9 22 21 43 15 57
-14 11 -24 19 -28 56 -28 45 0 66 13 66 41 0 26 44 2 58 -31 17 -39 50 -70 73
-70 11 0 31 11 44 24 23 23 25 24 35 7 13 -26 68 -47 83 -32 20 20 46 12 62
-19 16 -30 31 -35 73 -24 31 9 28 19 -18 60 -22 20 -40 43 -40 50 0 8 -6 14
-14 14 -7 0 -21 11 -30 25 -19 28 -60 34 -70 9 -5 -13 -11 -10 -32 15 -20 24
-34 31 -63 31 -20 0 -42 -5 -49 -12 -9 -9 -16 -8 -29 5 -65 62 -112 80 -160
60z"/>
<path d="M4108 3234 c-12 -4 -18 -15 -18 -32 0 -38 18 -98 33 -110 17 -14 57
-4 57 14 0 24 18 15 51 -26 36 -45 69 -52 95 -21 16 18 18 18 61 -15 50 -38
93 -44 121 -16 16 18 18 17 50 -6 17 -13 32 -28 32 -33 0 -19 41 -49 68 -49
39 0 52 17 52 66 l0 42 29 -11 c22 -8 32 -22 45 -63 19 -59 38 -84 66 -84 21
0 50 25 50 43 0 16 -114 137 -128 137 -6 0 -17 8 -24 18 -24 32 -64 43 -112
31 -44 -11 -86 -1 -86 21 0 5 -14 17 -30 25 -40 21 -100 11 -100 -16 0 -17 -5
-16 -49 11 -49 31 -71 37 -71 21 0 -5 -9 -11 -21 -14 -14 -4 -29 4 -52 29 -32
35 -79 49 -119 38z"/>
<path d="M5242 3184 c-7 -14 -16 -22 -22 -19 -5 3 -12 -6 -16 -21 -4 -17 -2
-29 7 -35 19 -12 77 -11 81 1 5 17 63 -17 76 -44 13 -28 61 -42 91 -27 16 9
23 7 33 -6 29 -39 98 -58 98 -28 0 18 -39 55 -59 55 -8 0 -12 3 -8 6 3 4 -13
22 -35 41 -30 25 -49 33 -66 30 -18 -3 -33 3 -51 21 -14 15 -30 26 -34 24 -4
-1 -10 5 -13 13 -4 9 -19 15 -38 15 -25 0 -35 -6 -44 -26z"/>
<path d="M8349 3091 c-1 -3 -2 -12 -3 -20 0 -8 -16 -18 -33 -23 -20 -5 -33
-15 -33 -24 0 -20 59 -74 81 -74 19 0 52 34 42 43 -3 4 -2 7 4 7 6 0 18 -11
26 -24 38 -57 88 -74 121 -40 15 14 17 14 22 0 3 -9 10 -13 15 -10 5 3 9 0 9
-5 0 -6 7 -11 15 -11 8 0 21 -13 29 -29 22 -42 65 -54 100 -28 14 11 17 21 11
46 -6 26 -11 32 -30 29 -25 -3 -85 45 -85 68 0 19 -87 39 -116 26 -22 -10 -29
-8 -64 24 -36 32 -108 62 -111 45z"/>
<path d="M5015 2999 c-10 -29 3 -89 19 -89 7 0 19 -20 26 -46 11 -37 17 -44
34 -42 18 3 21 10 20 44 0 36 2 41 19 36 10 -2 22 -15 27 -28 11 -29 48 -53
93 -61 27 -4 38 -1 56 18 l21 23 25 -24 c14 -13 25 -30 25 -37 0 -19 67 -46
99 -40 19 4 33 -3 59 -29 35 -35 67 -43 103 -24 10 6 19 20 19 32 0 21 0 21
21 2 12 -10 32 -36 46 -57 19 -31 29 -38 51 -35 51 6 25 80 -46 128 -18 13
-30 25 -28 28 11 10 -68 62 -94 62 -32 0 -55 -23 -46 -46 3 -9 -17 3 -45 25
-45 36 -56 40 -88 35 -31 -5 -37 -2 -46 18 -5 12 -21 28 -33 34 -13 6 -29 17
-35 23 -6 6 -24 11 -39 11 -21 0 -29 -6 -34 -24 -3 -14 -3 -30 1 -37 14 -22
-22 5 -49 37 -14 18 -37 35 -51 38 -14 4 -25 13 -25 20 0 15 -30 26 -72 26
-18 0 -29 -6 -33 -21z"/>
<path d="M7663 2963 c-7 -2 -13 -13 -13 -23 0 -22 -22 -39 -28 -22 -2 7 -15
12 -28 12 -32 0 -33 -37 -1 -73 26 -31 71 -36 98 -11 16 14 18 14 29 -5 6 -12
17 -21 26 -21 8 0 17 -7 20 -15 8 -19 33 -19 55 1 14 12 21 13 37 3 41 -26 72
20 37 55 -8 8 -15 18 -15 23 0 15 -67 73 -84 73 -9 0 -16 -4 -16 -9 0 -20 -34
-21 -52 -1 -18 19 -40 24 -65 13z"/>
<path d="M8054 2851 c3 -5 -1 -11 -9 -15 -8 -3 -15 -16 -15 -30 0 -14 -4 -28
-10 -31 -5 -3 -10 -13 -10 -21 0 -19 44 -18 60 1 7 9 16 12 19 7 3 -5 25 -19
49 -32 41 -23 44 -23 71 -7 27 16 29 16 45 -2 9 -9 16 -22 16 -28 0 -17 45
-53 76 -59 21 -4 34 -1 43 10 8 9 22 16 31 16 20 0 60 -44 60 -66 0 -8 7 -14
15 -14 8 0 23 -5 34 -11 26 -17 92 -3 98 22 5 16 10 13 34 -21 31 -42 53 -49
85 -26 16 13 17 18 6 33 -7 10 -15 26 -18 36 -4 9 -12 17 -18 17 -15 0 -54 41
-70 71 -13 27 -61 42 -89 28 -14 -8 -18 -19 -15 -44 l4 -33 -28 19 c-15 11
-28 26 -28 32 -1 17 -69 67 -91 67 -10 0 -21 -5 -24 -10 -4 -6 -11 -8 -16 -5
-5 4 -9 -2 -10 -12 0 -10 -3 -13 -6 -5 -2 6 -10 12 -16 12 -17 0 -56 41 -51
54 6 15 -37 36 -71 36 -13 0 -28 -7 -33 -16 -8 -15 -12 -15 -40 0 -47 24 -84
37 -78 27z"/>
<path d="M7588 2733 c-12 -3 -18 -14 -18 -32 0 -42 -10 -43 -44 -5 -29 32 -35
35 -68 29 -36 -7 -48 -23 -48 -67 0 -14 9 -18 43 -18 35 0 49 -6 72 -30 38
-39 85 -41 105 -5 7 14 16 25 20 25 3 0 23 -20 43 -45 40 -47 68 -56 96 -31
14 13 20 13 49 -1 17 -8 32 -22 32 -29 0 -8 6 -14 13 -14 16 1 47 25 47 37 0
13 -74 93 -87 93 -6 0 -16 7 -23 16 -10 11 -27 14 -64 12 -43 -3 -52 0 -61 18
-26 52 -50 62 -107 47z"/>
<path d="M8035 2557 c-29 -17 -35 -28 -35 -64 0 -28 4 -33 24 -33 13 0 29 6
35 13 9 11 18 7 51 -23 22 -20 40 -44 40 -53 0 -21 60 -33 90 -17 18 10 26 8
45 -10 17 -16 34 -21 62 -20 65 4 73 1 95 -36 20 -34 24 -36 60 -31 48 6 51 9
52 46 l1 30 23 -21 c12 -12 22 -29 22 -38 0 -46 62 -81 75 -41 6 21 -3 51 -16
51 -5 0 -9 6 -9 13 0 7 -20 30 -45 51 -25 20 -43 41 -40 46 7 12 -35 23 -66
18 -13 -2 -23 -9 -21 -16 1 -6 -3 -12 -8 -12 -7 0 -7 -7 0 -22 10 -21 9 -21
-9 2 -11 14 -21 29 -21 34 0 11 -44 52 -69 65 -10 6 -35 8 -55 4 -32 -5 -36
-3 -36 15 0 24 -44 37 -93 28 -22 -4 -44 0 -70 14 -42 23 -54 24 -82 7z"/>
<path d="M7535 2460 c-4 -6 -11 -8 -16 -5 -5 4 -9 -12 -9 -35 0 -36 -2 -41
-17 -35 -10 4 -25 9 -35 12 -9 3 -18 13 -21 24 -4 14 -14 19 -36 19 -25 0 -34
-6 -41 -26 -14 -36 -13 -44 8 -44 10 0 27 -7 38 -15 10 -8 29 -15 40 -15 12 0
33 -9 47 -20 30 -24 87 -27 87 -5 0 23 16 18 28 -10 6 -14 16 -25 22 -25 7 0
18 -7 26 -15 33 -33 105 1 90 42 -4 9 18 -10 48 -42 31 -33 56 -63 56 -67 0
-20 48 -6 60 17 7 14 16 25 20 25 3 0 20 -20 38 -45 18 -25 43 -50 57 -55 14
-5 25 -16 25 -25 0 -22 33 -19 64 6 l27 21 6 -21 c4 -18 12 -21 37 -19 43 4
45 34 6 78 -16 18 -30 41 -30 51 0 12 -11 19 -40 24 -46 8 -60 2 -61 -28 0
-15 -2 -17 -6 -7 -10 27 -97 107 -124 113 -22 6 -30 2 -43 -18 l-17 -25 -51
55 c-28 30 -57 55 -65 55 -7 0 -16 7 -19 15 -11 27 -52 18 -69 -16 -13 -24
-19 -28 -30 -19 -8 7 -17 21 -21 33 -12 39 -65 70 -79 47z"/>
<path d="M7902 2008 c-7 -7 -12 -23 -12 -36 0 -22 3 -24 34 -18 28 5 36 3 50
-18 8 -14 32 -32 51 -42 30 -14 40 -14 67 -3 28 11 32 11 49 -9 9 -12 22 -22
27 -22 5 0 12 -7 16 -15 7 -20 70 -20 86 0 11 13 17 11 49 -14 66 -51 79 -55
122 -35 22 9 39 22 39 27 0 6 -12 26 -26 45 -23 30 -31 34 -60 29 -19 -3 -34
-2 -34 4 0 5 -9 9 -20 9 -11 0 -20 4 -20 9 0 18 -52 22 -77 6 -26 -18 -53 -14
-53 7 -1 43 -92 85 -125 58 -12 -10 -21 -10 -45 0 -16 7 -30 16 -30 21 0 13
-74 11 -88 -3z"/>
</g>
</svg>
