<?xml version="1.0" standalone="no"?>
<!DOCTYPE svg PUBLIC "-//W3C//DTD SVG 20010904//EN"
 "http://www.w3.org/TR/2001/REC-SVG-20010904/DTD/svg10.dtd">
<svg version="1.0" xmlns="http://www.w3.org/2000/svg"
 width="795.000000pt" height="641.000000pt" viewBox="0 0 795.000000 641.000000"
 preserveAspectRatio="xMidYMid meet">
<metadata>
Created by potrace 1.16, written by Peter Selinger 2001-2019
</metadata>
<g transform="translate(0.000000,641.000000) scale(0.100000,-0.100000)"
fill="#000000" stroke="none">
<path d="M1100 5733 c-25 -2 -49 -8 -54 -14 -6 -5 -23 -9 -38 -9 -15 0 -28 -4
-28 -10 0 -5 -6 -10 -12 -10 -7 0 -29 -16 -49 -34 -32 -29 -39 -44 -49 -103
-13 -79 -9 -3845 4 -3901 5 -17 12 -32 17 -32 5 0 14 -11 19 -24 12 -31 64
-71 120 -90 40 -14 361 -16 3154 -16 2354 0 3119 3 3150 12 56 16 116 57 138
94 18 30 18 114 18 2010 0 1310 -3 1981 -10 1988 -5 5 -10 17 -10 26 0 22 -68
90 -90 90 -9 0 -22 6 -28 13 -10 9 -647 12 -3110 13 -1703 1 -3117 0 -3142 -3z
m4495 -44 c935 0 1716 -3 1735 -7 19 -4 36 -14 37 -22 1 -9 -26 -35 -62 -60
-36 -25 -65 -48 -65 -52 0 -5 -7 -8 -15 -8 -8 0 -15 -7 -15 -15 0 -8 -6 -15
-13 -15 -7 0 -23 -10 -37 -23 -34 -31 -83 -69 -110 -87 -13 -8 -33 -25 -46
-37 -13 -13 -28 -23 -34 -23 -5 0 -10 -5 -10 -10 0 -6 -8 -14 -17 -17 -10 -4
-40 -25 -68 -47 -27 -23 -55 -45 -63 -51 -7 -5 -24 -20 -37 -32 -13 -13 -27
-23 -30 -23 -9 0 -77 -52 -101 -77 -12 -13 -26 -23 -31 -23 -5 0 -18 -9 -29
-21 -10 -11 -48 -41 -84 -67 -36 -25 -75 -56 -87 -69 -12 -13 -26 -23 -30 -23
-5 0 -20 -11 -35 -25 -15 -14 -30 -25 -33 -25 -4 0 -20 -14 -37 -30 -16 -16
-33 -30 -37 -30 -5 0 -25 -16 -45 -35 -20 -19 -50 -42 -66 -52 -17 -9 -30 -21
-30 -25 0 -4 -4 -8 -10 -8 -5 0 -18 -8 -28 -17 -10 -10 -31 -27 -46 -38 -16
-11 -33 -25 -40 -30 -35 -32 -166 -135 -192 -150 -16 -11 -36 -26 -45 -34 -8
-9 -28 -25 -43 -36 -16 -11 -34 -26 -41 -32 -8 -7 -18 -13 -24 -13 -6 0 -11
-4 -11 -8 0 -5 -18 -21 -41 -38 -22 -16 -53 -41 -69 -56 -16 -16 -31 -28 -35
-28 -6 0 -19 -10 -50 -37 -7 -7 -16 -13 -20 -13 -4 0 -12 -6 -19 -12 -7 -7
-27 -24 -45 -38 -18 -14 -39 -31 -46 -37 -8 -7 -16 -13 -20 -13 -3 0 -18 -12
-34 -27 -15 -16 -40 -37 -56 -48 -16 -11 -36 -27 -44 -35 -22 -22 -88 -70 -96
-70 -3 0 -18 -12 -34 -27 -15 -16 -40 -37 -56 -48 -16 -11 -33 -25 -39 -30 -6
-6 -31 -26 -56 -45 -25 -19 -46 -38 -48 -42 -2 -5 -10 -8 -18 -8 -8 0 -14 -4
-14 -9 0 -5 -8 -12 -19 -16 -10 -3 -35 -21 -54 -40 -20 -19 -40 -35 -46 -35
-5 0 -11 -3 -13 -8 -1 -4 -23 -23 -48 -42 -25 -19 -54 -43 -64 -52 -11 -10
-23 -18 -28 -18 -4 0 -21 -14 -38 -30 -17 -17 -33 -30 -36 -30 -5 0 -20 -11
-49 -37 -7 -7 -16 -13 -20 -13 -4 0 -20 -13 -37 -30 -16 -16 -33 -30 -37 -30
-4 0 -23 -15 -42 -32 -45 -42 -73 -58 -103 -58 -24 0 -126 56 -126 70 0 3 -16
12 -35 20 -19 8 -35 20 -35 27 0 7 -6 13 -14 13 -8 0 -16 3 -18 8 -1 4 -30 27
-63 51 -33 25 -67 53 -76 63 -9 10 -20 18 -25 18 -5 0 -29 18 -54 40 -25 23
-70 60 -100 83 -30 23 -56 45 -58 50 -2 4 -10 7 -18 7 -8 0 -14 5 -14 10 0 6
-8 14 -17 17 -10 4 -27 16 -38 27 -11 12 -47 41 -80 66 -33 24 -71 56 -85 70
-14 14 -42 36 -63 50 -20 14 -37 28 -37 33 0 4 -5 7 -10 7 -6 0 -16 5 -23 10
-7 6 -43 35 -82 65 -38 30 -82 66 -97 80 -15 14 -30 25 -34 25 -4 0 -17 11
-30 25 -13 14 -27 25 -31 25 -4 0 -22 13 -39 28 -17 15 -43 36 -59 47 -15 11
-40 32 -55 48 -16 15 -33 27 -39 27 -6 0 -11 4 -11 9 0 5 -17 20 -37 32 -40
25 -65 44 -92 70 -9 8 -34 29 -56 45 -22 16 -42 31 -45 34 -3 3 -25 21 -50 40
-25 19 -58 47 -75 62 -16 14 -73 59 -124 99 -52 39 -118 90 -146 113 -28 23
-67 53 -86 68 -31 24 -63 50 -96 78 -7 5 -15 10 -19 10 -4 0 -17 11 -30 25
-13 14 -28 25 -34 25 -6 0 -13 7 -16 15 -4 8 -11 15 -16 15 -6 0 -20 10 -32
23 -11 12 -46 40 -76 62 -30 22 -65 50 -76 62 -12 13 -25 23 -30 23 -5 0 -25
14 -44 31 -19 17 -51 43 -70 58 -35 26 -51 39 -105 85 -16 14 -33 26 -37 26
-4 0 -13 6 -20 13 -18 18 -164 135 -213 172 -87 65 -95 81 -45 92 17 3 33 10
36 14 3 5 22 9 42 9 20 0 44 5 52 11 11 7 424 9 1385 5 754 -4 2135 -6 3070
-7z m1833 -91 c18 -18 17 -3966 -1 -3989 -7 -8 -24 -23 -39 -33 -26 -17 -28
-17 -69 10 -23 14 -51 35 -62 45 -12 10 -29 21 -39 25 -10 3 -18 9 -18 13 0 4
-25 25 -55 46 -30 20 -55 41 -55 46 0 5 -7 9 -15 9 -8 0 -15 5 -15 10 0 6 -6
10 -13 10 -7 0 -24 11 -39 25 -15 14 -31 25 -35 25 -5 0 -20 11 -35 25 -15 14
-32 25 -38 25 -5 0 -10 5 -10 10 0 6 -6 10 -12 10 -7 0 -33 18 -58 40 -24 22
-50 40 -57 40 -8 0 -16 7 -19 15 -4 8 -12 15 -19 15 -7 0 -15 3 -17 8 -3 7
-114 83 -133 91 -5 2 -15 9 -21 15 -7 6 -26 22 -44 36 -18 14 -38 31 -45 38
-8 6 -18 12 -24 12 -6 0 -11 3 -11 8 0 4 -16 16 -35 26 -19 11 -35 23 -35 27
0 4 -23 21 -51 39 -28 17 -60 40 -72 50 -11 11 -24 20 -28 20 -4 0 -14 6 -21
12 -40 39 -265 198 -278 198 -6 0 -10 4 -10 9 0 5 -24 24 -52 42 -29 19 -64
44 -78 56 -14 13 -30 23 -37 23 -6 0 -13 4 -15 8 -1 5 -30 28 -63 53 -33 24
-61 47 -63 52 -2 4 -9 7 -15 7 -7 0 -24 11 -39 25 -15 14 -32 25 -38 25 -5 0
-10 3 -10 8 0 4 -16 16 -35 26 -19 11 -35 23 -35 27 0 4 -18 18 -40 30 -22 13
-40 26 -40 31 0 4 -6 8 -14 8 -8 0 -16 7 -20 15 -3 8 -12 15 -20 15 -8 0 -16
4 -18 8 -1 5 -61 50 -133 100 -71 51 -142 103 -157 117 -15 14 -32 25 -38 25
-6 0 -21 10 -34 23 -12 12 -39 31 -59 42 -20 11 -37 23 -37 27 0 5 -5 8 -10 8
-6 0 -23 11 -38 25 -15 14 -32 25 -38 25 -7 0 -14 9 -17 19 -3 14 6 28 31 48
20 15 41 34 48 41 7 6 16 12 21 12 4 0 19 12 32 25 13 14 27 25 32 25 5 0 18
8 28 18 41 38 73 62 82 62 5 0 9 7 9 15 0 8 7 15 15 15 8 0 15 5 15 10 0 6 7
10 15 10 9 0 18 7 21 15 4 8 10 15 16 15 5 0 15 6 22 13 28 26 66 57 72 57 3
0 16 9 28 19 55 51 95 81 104 81 5 0 16 7 23 17 8 9 36 33 64 53 27 21 59 46
70 57 11 10 35 28 53 38 17 11 32 23 32 27 0 4 4 8 10 8 5 0 23 14 40 30 17
17 34 30 38 30 4 0 27 18 50 40 24 22 47 40 51 40 5 0 25 16 45 35 21 19 40
35 42 35 8 0 79 54 82 63 2 4 8 7 13 7 5 0 22 14 37 30 16 17 33 30 37 30 4 0
17 10 29 23 12 12 41 35 66 52 25 16 61 45 80 62 19 18 38 33 42 33 4 0 33 22
65 48 32 26 92 73 133 104 41 30 85 65 97 77 12 11 27 21 33 21 5 0 10 5 10
10 0 6 7 13 16 17 9 3 28 17 43 31 14 13 42 35 61 47 19 13 47 35 62 49 15 14
32 26 38 26 6 0 13 7 16 15 4 8 10 15 15 15 8 0 21 10 93 72 17 15 34 28 38
28 3 0 26 18 49 40 24 22 47 40 52 40 4 0 19 10 32 23 35 32 53 47 60 47 3 0
13 8 24 18 10 9 62 51 115 92 54 41 109 85 124 97 32 26 34 27 50 11z m-6433
-55 c30 -21 54 -44 55 -50 0 -7 5 -13 11 -13 13 0 77 -47 105 -77 12 -13 24
-23 28 -23 4 0 13 -6 21 -12 7 -7 25 -22 41 -33 15 -11 35 -27 43 -35 9 -9 34
-29 56 -45 22 -16 51 -39 64 -52 14 -13 38 -32 53 -41 15 -9 28 -20 28 -24 0
-4 5 -8 10 -8 6 0 21 -11 34 -25 13 -14 27 -25 32 -25 5 0 21 -11 36 -25 15
-14 32 -25 37 -25 6 0 14 -6 18 -13 4 -7 26 -26 47 -43 22 -16 55 -44 74 -61
19 -18 38 -33 42 -33 4 0 18 -9 31 -21 48 -41 65 -55 104 -83 22 -16 49 -39
60 -50 11 -12 38 -33 60 -48 22 -15 60 -45 85 -67 25 -22 49 -41 54 -41 5 0
18 -10 30 -23 11 -12 42 -38 69 -56 26 -19 47 -38 47 -43 0 -4 5 -8 11 -8 6 0
27 -16 47 -35 20 -19 40 -35 44 -35 4 0 18 -11 32 -25 14 -14 28 -25 31 -25 3
0 11 -4 18 -10 40 -33 97 -78 121 -95 16 -11 41 -32 56 -47 16 -16 33 -28 39
-28 6 0 11 -3 11 -7 0 -5 23 -24 50 -43 27 -19 50 -38 50 -42 0 -5 4 -8 10 -8
9 0 43 -26 80 -60 8 -9 34 -29 55 -45 22 -17 44 -33 50 -38 5 -4 26 -21 45
-38 19 -17 52 -42 73 -56 20 -14 37 -30 37 -34 0 -5 7 -9 15 -9 8 0 15 -4 15
-8 0 -4 12 -15 28 -24 15 -9 38 -27 52 -40 36 -33 93 -80 124 -102 15 -11 39
-30 54 -43 15 -13 35 -26 45 -29 9 -3 17 -11 17 -17 0 -15 -46 -58 -84 -77
-15 -8 -38 -25 -50 -37 -11 -13 -26 -23 -32 -23 -6 0 -21 -11 -34 -25 -13 -14
-27 -25 -32 -25 -5 0 -21 -11 -36 -25 -15 -14 -32 -25 -39 -25 -7 0 -13 -4
-13 -8 0 -5 -16 -17 -35 -28 -19 -10 -35 -24 -35 -31 0 -7 -5 -13 -11 -13 -6
0 -25 -11 -43 -25 -18 -14 -36 -25 -39 -25 -3 0 -18 -11 -33 -25 -15 -14 -33
-25 -40 -25 -8 0 -14 -4 -14 -10 0 -5 -7 -10 -15 -10 -8 0 -15 -7 -15 -15 0
-8 -7 -15 -15 -15 -8 0 -15 -4 -15 -10 0 -5 -5 -10 -10 -10 -12 0 -163 -110
-168 -122 -2 -5 -9 -8 -15 -8 -7 0 -30 -16 -52 -35 -22 -20 -48 -38 -57 -41
-10 -3 -18 -10 -18 -15 0 -5 -4 -9 -9 -9 -6 0 -22 -11 -37 -25 -15 -14 -33
-25 -40 -25 -7 0 -25 -13 -41 -30 -15 -16 -33 -30 -40 -30 -6 0 -13 -3 -15 -7
-5 -12 -75 -63 -86 -63 -6 0 -12 -4 -14 -8 -1 -5 -30 -28 -63 -52 -33 -24 -64
-48 -70 -52 -5 -5 -46 -34 -90 -65 -44 -32 -86 -63 -93 -70 -7 -7 -18 -13 -23
-13 -8 0 -17 -6 -71 -53 -12 -9 -24 -17 -27 -17 -3 0 -24 -16 -45 -35 -22 -19
-46 -35 -53 -35 -8 0 -16 -6 -19 -14 -3 -7 -21 -22 -40 -32 -19 -10 -34 -22
-34 -26 0 -5 -6 -8 -14 -8 -8 0 -16 -4 -18 -9 -1 -5 -46 -40 -98 -77 -52 -37
-126 -91 -165 -119 -38 -29 -81 -58 -95 -66 -13 -8 -35 -24 -49 -36 -14 -13
-31 -23 -38 -23 -6 0 -13 -4 -15 -8 -1 -5 -30 -28 -63 -52 -33 -24 -66 -50
-73 -57 -7 -7 -17 -13 -20 -13 -4 0 -19 -10 -33 -23 -14 -12 -35 -28 -48 -35
-19 -11 -24 -10 -40 9 -42 52 -42 48 -39 2039 2 1048 7 1911 11 1918 11 17 11
17 72 -25z m2658 -2104 c12 -7 29 -19 38 -28 18 -17 31 -28 99 -81 25 -19 47
-38 48 -42 2 -5 10 -8 17 -8 7 0 15 -3 17 -8 2 -4 23 -23 48 -42 25 -19 51
-40 57 -46 7 -7 26 -18 43 -26 16 -7 30 -16 30 -19 0 -4 11 -10 25 -13 14 -4
25 -11 25 -16 0 -17 90 -12 96 5 4 8 14 15 24 15 9 0 34 16 55 36 21 20 57 47
79 61 23 15 54 39 70 55 17 15 34 28 39 28 5 0 17 8 26 18 9 10 34 31 56 47
22 16 45 34 50 39 22 23 59 39 63 27 2 -6 9 -11 15 -11 7 0 24 -11 39 -25 15
-14 30 -25 33 -25 6 0 20 -11 50 -37 7 -7 18 -13 24 -13 6 0 11 -4 11 -8 0 -4
15 -16 33 -27 17 -10 47 -31 66 -47 18 -16 44 -33 57 -38 13 -5 24 -14 24 -19
0 -5 23 -23 50 -41 28 -18 50 -36 50 -41 0 -5 7 -9 15 -9 8 0 15 -3 15 -8 0
-4 16 -16 35 -26 19 -11 35 -23 35 -28 0 -4 5 -8 10 -8 6 0 35 -18 65 -40 30
-22 59 -40 65 -40 5 0 10 -4 10 -9 0 -5 17 -20 38 -32 20 -13 39 -25 42 -29
10 -10 79 -60 84 -60 6 0 39 -25 68 -52 10 -10 23 -18 28 -18 6 0 21 -11 34
-25 13 -14 27 -25 32 -25 5 0 21 -11 35 -24 14 -13 43 -35 65 -49 21 -13 53
-36 69 -51 17 -14 38 -29 48 -32 9 -3 17 -10 17 -15 0 -5 7 -9 15 -9 8 0 15
-4 15 -9 0 -5 8 -12 18 -15 9 -3 35 -21 57 -41 22 -19 43 -35 47 -35 4 0 13
-6 20 -12 21 -21 86 -68 93 -68 3 0 18 -11 33 -25 15 -14 32 -25 39 -25 7 0
13 -4 13 -10 0 -5 6 -10 14 -10 8 0 16 -7 20 -15 3 -8 10 -15 16 -15 10 0 21
-8 55 -37 7 -7 18 -13 23 -13 6 0 12 -7 16 -15 3 -8 10 -15 16 -15 6 0 23 -11
38 -25 15 -14 39 -31 55 -38 15 -6 27 -18 27 -24 0 -7 7 -13 15 -13 9 0 28
-11 43 -25 15 -14 30 -25 35 -25 4 0 18 -9 30 -20 12 -11 58 -46 102 -78 44
-31 88 -64 98 -73 10 -9 43 -34 75 -55 31 -21 63 -44 69 -50 7 -7 29 -22 49
-35 20 -12 48 -33 62 -45 14 -13 30 -24 36 -24 6 0 25 -12 42 -27 16 -16 41
-36 54 -45 24 -16 -157 -17 -3091 -17 -1714 -1 -3118 2 -3122 5 -9 10 4 34 19
34 8 0 14 4 14 9 0 5 25 26 55 46 30 21 55 41 55 44 0 3 15 13 32 20 18 8 46
27 61 43 16 15 32 28 35 28 4 0 20 12 37 26 16 14 45 35 65 47 19 12 46 32 60
44 14 13 29 23 35 23 5 0 19 10 30 23 11 13 27 26 35 30 24 11 52 30 79 55 15
12 38 28 54 35 15 6 27 18 27 24 0 7 6 13 14 13 8 0 16 3 18 8 2 4 35 28 73
54 39 26 80 56 92 67 12 12 26 21 30 21 5 0 20 11 35 25 15 14 30 25 33 25 6
0 20 11 50 38 7 6 18 12 24 12 6 0 11 4 11 8 0 5 19 19 41 31 23 13 51 34 62
47 11 13 27 24 34 24 7 0 13 5 13 10 0 6 5 10 10 10 6 0 23 11 38 25 15 14 30
25 35 25 4 0 20 11 35 25 15 14 30 25 34 25 5 0 16 8 26 18 28 26 62 52 67 52
8 0 160 113 163 122 2 4 10 8 17 8 8 0 25 11 39 25 14 14 30 25 36 25 5 0 10
3 10 8 0 4 15 16 34 26 19 10 37 25 40 32 3 8 12 14 21 14 8 0 15 5 15 10 0 6
7 10 15 10 9 0 18 6 21 14 3 7 21 22 40 32 19 10 34 22 34 26 0 5 7 8 15 8 8
0 15 4 15 9 0 5 24 24 53 42 28 19 61 42 71 51 11 10 23 18 27 18 4 0 14 6 21
13 7 6 40 32 73 56 33 25 62 47 65 51 3 3 37 25 75 50 39 25 72 47 75 50 3 3
23 19 45 35 22 16 51 40 64 52 28 27 26 26 54 12z"/>
</g>
</svg>
