<?xml version="1.0" standalone="no"?>
<!DOCTYPE svg PUBLIC "-//W3C//DTD SVG 20010904//EN"
 "http://www.w3.org/TR/2001/REC-SVG-20010904/DTD/svg10.dtd">
<svg version="1.0" xmlns="http://www.w3.org/2000/svg"
 width="1183.000000pt" height="1045.000000pt" viewBox="0 0 1183.000000 1045.000000"
 preserveAspectRatio="xMidYMid meet">
<metadata>
Created by potrace 1.16, written by Peter Selinger 2001-2019
</metadata>
<g transform="translate(0.000000,1045.000000) scale(0.100000,-0.100000)"
fill="#000000" stroke="none">
<path d="M6960 9314 c0 -20 -4 -64 -10 -98 -5 -33 -16 -112 -24 -174 -8 -63
-17 -116 -20 -119 -2 -3 -62 7 -133 22 -138 29 -174 36 -273 54 -36 7 -80 17
-98 23 -18 5 -57 12 -88 15 -30 3 -57 10 -60 14 -3 5 -19 9 -36 9 -18 0 -59 6
-92 14 -34 7 -95 21 -136 29 -41 9 -110 23 -153 32 -90 19 -95 20 -1172 10
-396 -4 -772 -6 -835 -6 -63 0 -136 -2 -161 -5 l-46 -5 -7 -122 c-4 -67 -9
-174 -12 -237 -2 -63 -9 -175 -14 -248 -6 -73 -8 -137 -5 -142 3 -5 1 -71 -5
-147 -5 -76 -12 -201 -15 -278 -11 -324 -15 -428 -26 -572 -6 -83 -9 -155 -6
-160 3 -5 1 -58 -3 -118 -5 -61 -11 -159 -14 -220 -3 -60 -8 -150 -11 -200 -3
-49 -7 -144 -10 -210 -2 -66 -9 -226 -15 -355 -6 -129 -13 -291 -14 -360 -2
-69 -6 -163 -10 -210 -4 -47 -9 -146 -11 -220 -3 -74 -9 -214 -15 -310 -5 -96
-12 -247 -15 -335 -3 -88 -7 -173 -10 -190 -6 -34 -19 -390 -20 -510 l0 -79
55 -12 c55 -13 131 -31 245 -60 33 -8 85 -20 115 -26 30 -6 60 -14 65 -18 6
-5 33 -11 60 -15 28 -3 62 -11 76 -16 15 -6 55 -17 90 -25 107 -24 181 -42
249 -59 36 -9 92 -23 125 -30 121 -28 181 -43 240 -60 33 -9 83 -21 110 -26
28 -5 59 -14 70 -19 11 -5 43 -14 70 -19 83 -15 198 -42 207 -47 4 -3 42 -11
83 -19 66 -13 85 -13 138 -1 34 8 100 22 147 31 47 9 113 23 147 31 71 16 258
54 289 58 11 2 60 12 110 24 49 11 125 28 169 37 44 9 113 23 153 31 40 9 83
17 96 18 13 2 55 10 93 19 37 9 106 23 153 32 47 9 112 23 145 30 33 8 98 21
145 30 47 9 144 29 215 44 72 16 168 36 215 45 47 10 112 24 145 31 33 7 101
21 150 30 50 9 118 24 152 32 59 15 63 18 73 52 5 20 10 44 10 53 0 9 5 20 10
23 12 7 119 -103 120 -122 0 -7 -14 -20 -31 -28 -40 -21 -204 -84 -232 -89
-12 -2 -47 -11 -78 -20 -31 -9 -67 -19 -80 -21 -13 -3 -55 -12 -94 -20 -38 -8
-155 -29 -260 -45 -400 -63 -537 -93 -602 -132 -64 -38 -94 -106 -72 -161 18
-45 95 -137 149 -178 25 -18 80 -62 123 -96 43 -35 82 -63 87 -63 6 0 10 -11
10 -24 0 -22 -6 -25 -57 -33 -89 -12 -482 -8 -496 6 -6 6 -26 11 -45 11 -29 0
-161 30 -212 48 -114 40 -297 110 -345 132 -29 13 -128 39 -215 56 -114 22
-461 22 -780 -2 -277 -20 -560 -25 -650 -13 -106 15 -244 42 -255 49 -5 4 -35
13 -65 20 -30 7 -59 16 -65 20 -5 5 -35 15 -65 23 -30 9 -80 23 -110 32 -126
38 -168 48 -220 52 -30 3 -61 10 -67 15 -8 6 -46 8 -101 3 l-89 -7 -24 32
c-82 110 -220 216 -314 241 -22 6 -45 15 -52 21 -6 5 -38 12 -70 15 -32 3 -63
10 -69 15 -19 14 -172 7 -264 -13 -97 -21 -191 -63 -269 -121 -53 -40 -55 -41
-117 -35 -47 5 -81 1 -136 -14 -40 -12 -82 -22 -93 -24 -11 -1 -49 -12 -84
-24 -35 -11 -71 -21 -79 -21 -9 0 -45 -9 -81 -20 -36 -10 -111 -31 -166 -45
-55 -14 -145 -38 -200 -54 -55 -16 -138 -38 -185 -50 -47 -12 -116 -31 -155
-43 -38 -11 -80 -21 -92 -23 -12 -2 -44 -10 -70 -19 -26 -8 -75 -22 -108 -29
-152 -36 -261 -70 -272 -84 -14 -18 -1 -53 20 -53 7 0 32 -11 57 -24 25 -13
69 -29 98 -37 28 -7 52 -16 52 -20 0 -4 23 -12 50 -18 28 -6 67 -18 88 -27 20
-9 60 -22 87 -30 57 -15 205 -66 220 -75 6 -4 34 -12 63 -19 28 -6 52 -15 52
-20 0 -7 49 -21 66 -19 4 0 10 -3 13 -8 7 -10 81 -37 176 -64 38 -11 72 -24
75 -28 3 -5 22 -11 44 -15 21 -4 50 -12 65 -18 14 -6 29 -12 33 -12 3 -1 10
-4 14 -9 4 -4 16 -7 26 -7 11 0 17 -4 14 -9 -4 -5 2 -7 13 -4 10 2 38 -4 62
-15 24 -10 65 -25 92 -32 26 -7 50 -17 53 -21 3 -5 13 -9 22 -9 9 0 30 -7 46
-15 15 -8 33 -15 40 -15 6 0 24 -7 40 -15 15 -8 32 -12 37 -9 5 3 9 1 9 -4 0
-6 17 -13 38 -17 20 -4 56 -15 79 -26 23 -10 65 -24 92 -30 28 -6 51 -15 51
-20 0 -6 24 -9 54 -7 30 1 52 6 50 10 -2 3 13 12 33 18 33 11 65 24 148 60 11
5 32 11 47 14 15 3 33 12 40 19 7 8 19 12 26 9 6 -2 12 1 12 7 0 6 3 10 7 9
10 -2 48 14 105 43 24 11 53 22 65 24 11 2 44 15 72 29 28 14 73 32 99 40 26
8 66 24 89 35 23 12 46 21 51 21 8 0 137 54 232 98 25 11 86 36 135 55 229 89
311 122 330 132 11 7 40 18 65 25 71 22 101 48 98 87 -1 18 1 36 5 40 4 4 31
0 60 -9 29 -9 82 -22 120 -28 75 -14 343 -17 513 -7 94 6 113 5 124 -8 8 -10
9 -19 4 -25 -10 -9 -129 -59 -155 -65 -10 -2 -42 -15 -71 -29 -30 -14 -59 -26
-65 -26 -5 0 -45 -15 -89 -33 -43 -19 -106 -44 -139 -57 -33 -12 -96 -38 -140
-56 -44 -18 -118 -47 -165 -64 -47 -18 -110 -43 -140 -56 -63 -27 -286 -116
-375 -149 -33 -13 -97 -37 -143 -54 -46 -17 -101 -40 -122 -51 -22 -11 -44
-20 -50 -20 -6 0 -27 -7 -48 -17 -20 -9 -80 -33 -132 -53 l-95 -37 1 -129 c1
-71 2 -151 3 -179 l1 -50 88 -27 c48 -15 101 -30 117 -34 17 -3 39 -10 50 -15
11 -4 47 -15 80 -23 33 -8 94 -24 135 -36 41 -11 100 -27 130 -35 112 -28 176
-46 195 -55 11 -5 43 -14 70 -20 28 -6 70 -18 95 -26 25 -9 79 -25 120 -35 72
-20 159 -44 265 -74 28 -8 82 -22 120 -33 39 -10 77 -21 85 -24 8 -4 44 -14
80 -23 125 -32 255 -68 395 -109 28 -8 84 -24 125 -36 41 -11 104 -30 140 -40
36 -11 70 -20 76 -20 7 0 34 -7 60 -15 58 -17 176 -51 334 -96 63 -18 153 -43
200 -57 118 -33 174 -49 255 -69 39 -10 75 -21 80 -24 6 -4 37 -12 70 -18 33
-7 69 -16 80 -21 11 -5 47 -16 80 -24 81 -20 150 -39 275 -77 58 -17 132 -38
165 -46 33 -8 67 -18 76 -23 9 -5 45 -14 80 -21 35 -6 69 -15 74 -19 6 -4 37
-13 69 -20 33 -7 67 -16 75 -20 25 -12 169 -50 215 -56 44 -6 96 15 306 124
66 35 133 69 335 170 28 14 236 118 463 231 l412 205 0 32 c0 18 7 68 15 111
8 43 15 92 15 110 0 17 5 35 10 38 6 3 10 23 10 43 0 20 6 71 14 112 8 41 19
118 25 170 13 115 7 125 -79 135 -40 5 -61 12 -65 23 -8 23 0 28 105 57 302
86 334 97 464 152 161 69 214 128 171 190 -16 22 -99 83 -114 83 -5 0 -14 6
-20 14 -7 8 -35 19 -64 26 -29 6 -61 15 -72 20 -11 5 -47 14 -80 20 -33 6 -85
15 -115 21 -127 23 -167 47 -142 85 13 20 139 94 203 120 108 44 206 54 569
59 541 8 625 12 676 34 37 17 44 24 44 48 0 29 -41 83 -62 83 -7 0 -23 11 -37
24 -29 27 -133 71 -261 110 -47 14 -98 30 -115 36 -82 26 -360 95 -570 142
l-60 14 -1 84 c-1 47 -4 96 -7 110 -7 37 -28 161 -32 190 -2 14 -10 61 -19
105 -9 44 -22 121 -30 170 -8 50 -22 128 -30 175 -23 127 -23 130 20 130 20 0
66 -7 103 -14 36 -8 102 -22 146 -31 44 -9 110 -22 146 -30 37 -8 81 -15 97
-15 17 0 34 -4 37 -10 3 -6 20 -10 36 -10 17 0 62 -7 102 -15 78 -17 189 -39
277 -57 30 -5 69 -14 85 -19 17 -4 51 -11 77 -15 68 -9 65 -19 96 329 5 51 14
102 20 114 7 12 9 34 6 50 -3 16 0 53 6 83 7 30 16 96 21 145 5 50 13 131 18
180 5 50 14 134 19 188 5 53 15 103 21 111 7 8 9 29 6 52 -3 22 -1 62 5 89 7
28 14 88 16 133 2 46 9 92 14 102 6 10 10 52 10 92 0 43 6 84 14 100 10 18 13
45 9 86 -4 39 -1 67 8 83 7 13 14 63 15 112 2 49 7 94 12 100 6 7 10 47 11 90
1 43 6 87 11 97 6 10 10 50 10 89 0 38 5 82 11 98 6 15 11 47 10 71 0 24 5 66
10 95 6 29 13 88 16 131 2 44 8 87 14 97 5 10 9 54 9 98 0 44 5 83 10 86 6 3
10 36 10 73 0 37 4 83 10 102 5 18 12 68 14 109 3 42 9 87 14 101 5 14 10 56
11 94 1 37 4 73 8 80 4 6 11 54 15 106 5 52 13 138 18 190 6 52 12 131 15 175
3 44 11 96 17 115 7 19 11 63 9 98 -1 39 2 69 10 78 7 9 13 48 13 97 1 45 6
89 11 97 6 8 11 35 11 60 1 25 5 57 9 72 5 20 3 28 -12 36 -20 11 -309 34
-418 33 -39 0 -135 5 -215 10 -80 6 -183 10 -230 10 -47 0 -152 6 -233 15 -82
9 -158 13 -170 10 -11 -3 -104 1 -206 9 -102 8 -188 12 -193 9 -4 -3 -79 0
-166 5 -160 11 -349 19 -592 26 -74 2 -202 9 -285 14 -82 5 -181 10 -219 10
-38 0 -134 5 -213 11 -78 7 -147 9 -152 6 -6 -4 -70 -2 -143 4 -73 5 -198 12
-278 15 -80 2 -209 7 -287 10 l-143 6 0 -37z m-1632 -221 c4 -5 14 -13 22 -16
8 -4 -1 -6 -21 -4 -25 2 -35 -1 -32 -9 7 -20 45 -24 190 -23 124 1 138 -1 136
-16 0 -9 -4 -77 -8 -151 -6 -115 -5 -134 7 -134 16 0 28 57 28 137 0 42 1 43
28 37 15 -4 36 -15 48 -25 11 -11 26 -19 32 -19 7 0 12 -4 12 -10 0 -5 9 -10
19 -10 11 0 22 -4 26 -9 6 -11 186 -101 202 -101 6 0 16 -7 23 -14 6 -8 33
-25 58 -36 26 -12 54 -26 62 -31 8 -5 30 -15 48 -23 17 -8 32 -20 32 -27 0 -6
7 -9 15 -5 8 3 15 2 15 -2 0 -5 19 -18 43 -30 23 -12 49 -26 57 -31 15 -10 80
-42 175 -87 28 -13 61 -31 75 -39 14 -8 48 -26 75 -40 110 -57 105 -52 105
-98 -1 -23 -8 -94 -16 -157 -8 -63 -17 -152 -21 -198 -3 -45 -10 -85 -14 -88
-5 -3 -9 -39 -9 -80 0 -43 -4 -74 -10 -74 -6 0 -10 -30 -10 -69 0 -39 -4 -73
-10 -76 -5 -3 -10 -19 -10 -36 0 -28 -13 -39 -25 -20 -3 6 -31 24 -63 42 -31
18 -59 35 -62 38 -31 35 -180 83 -249 80 -31 -1 -80 1 -108 5 -55 8 -71 -4
-38 -28 12 -9 6 -10 -30 -8 -78 7 -62 -8 105 -96 47 -24 74 -42 60 -38 -14 3
-52 11 -85 17 -33 6 -73 14 -90 19 -50 14 -125 22 -125 13 0 -13 14 -28 30
-31 8 -2 17 -8 18 -13 2 -5 10 -9 18 -9 8 0 31 -9 51 -20 36 -19 36 -20 11
-20 -15 0 -30 5 -33 10 -3 6 -22 10 -41 10 -24 0 -33 -4 -28 -12 5 -8 0 -9
-17 -5 -110 30 -134 9 -41 -35 50 -25 53 -27 22 -23 -68 11 -75 10 -75 -5 0
-8 15 -20 33 -26 17 -5 37 -15 44 -22 9 -9 4 -9 -23 -1 -69 22 -91 23 -87 4 3
-20 11 -25 88 -60 47 -22 50 -25 20 -19 -19 3 -65 8 -102 11 -68 5 -68 5 -68
-21 0 -18 6 -26 18 -27 16 -1 16 -2 0 -6 -26 -7 -23 -48 5 -61 l22 -11 -22 0
c-29 -1 -28 3 -48 -306 -9 -143 -21 -285 -26 -315 -5 -30 -18 -188 -29 -350
-11 -162 -24 -335 -30 -385 -6 -49 -17 -187 -25 -305 -9 -118 -18 -231 -21
-250 -9 -55 -21 -205 -59 -775 -19 -291 -36 -546 -38 -565 -2 -33 0 -35 28
-36 17 -1 58 4 92 11 34 7 64 10 67 8 2 -2 31 3 64 12 34 8 65 14 69 13 15 -4
113 14 113 20 0 4 17 8 38 9 20 1 57 6 82 12 55 12 186 34 220 37 14 1 52 6
85 13 126 24 181 34 216 37 19 2 57 8 82 14 26 5 50 9 54 8 5 -1 40 4 78 12
39 7 77 13 85 13 8 -1 44 5 80 12 36 7 101 18 145 25 44 6 107 16 140 23 33 6
63 10 68 9 4 -1 28 3 55 9 26 6 72 13 102 15 30 3 68 12 84 20 16 7 31 12 35
10 4 -3 37 2 75 10 37 8 72 12 77 8 5 -3 9 -2 9 3 0 13 32 425 36 473 3 25 7
78 10 118 l6 72 67 -6 c36 -4 69 -9 72 -13 3 -3 2 -53 -2 -111 -4 -58 -9 -130
-10 -160 -1 -30 -5 -57 -9 -60 -3 -3 -14 -115 -24 -250 -9 -134 -19 -246 -21
-248 -1 -2 -13 -3 -26 -4 -13 0 -47 -7 -76 -14 -29 -8 -65 -16 -80 -18 -15 -2
-53 -8 -83 -14 -30 -6 -83 -16 -117 -23 -35 -6 -63 -16 -63 -21 0 -5 -4 -6
-10 -3 -5 3 -34 -1 -63 -10 -30 -9 -68 -17 -85 -19 -17 -3 -64 -12 -104 -20
-40 -9 -107 -24 -148 -32 -41 -9 -103 -22 -137 -30 -34 -8 -74 -14 -88 -14
-14 0 -51 -6 -83 -14 -52 -13 -87 -21 -287 -61 -38 -8 -105 -22 -148 -31 -43
-8 -95 -18 -115 -20 -20 -3 -41 -9 -46 -14 -6 -6 -21 -10 -35 -10 -15 0 -48
-7 -74 -15 -26 -8 -65 -16 -85 -19 -20 -2 -66 -11 -102 -19 -123 -29 -298 -64
-363 -73 -15 -2 -55 -11 -89 -19 -77 -20 -143 -21 -199 -2 -24 8 -70 18 -101
22 -32 4 -58 11 -58 15 0 5 -29 12 -65 15 -36 4 -68 11 -71 16 -2 5 -27 11
-54 15 -27 4 -48 10 -45 14 2 4 -7 5 -20 2 -14 -2 -31 0 -38 6 -6 5 -38 13
-69 16 -32 4 -58 12 -58 17 0 5 -13 9 -29 9 -17 0 -33 5 -36 11 -4 5 -17 9
-28 8 -12 -1 -35 4 -52 10 -16 7 -55 17 -85 23 -30 5 -64 14 -75 19 -11 5 -45
13 -75 18 -30 5 -66 12 -80 16 -14 4 -37 9 -52 12 -15 3 -26 9 -23 13 2 4 -7
5 -20 2 -14 -2 -33 -1 -42 4 -18 8 -80 23 -183 45 -30 6 -76 18 -102 25 -27 8
-68 17 -93 21 -25 3 -45 9 -45 13 0 4 -26 11 -57 15 -32 4 -63 11 -70 17 -6 5
-24 11 -40 12 l-28 3 3 79 c2 44 7 140 12 214 6 74 12 209 15 300 3 91 10 194
16 230 5 35 7 75 4 88 -3 13 -1 78 5 145 5 67 12 192 15 277 9 260 14 369 21
510 4 74 8 178 9 230 1 52 8 210 14 350 7 140 14 307 16 370 4 122 18 363 36
622 6 86 9 161 6 165 -3 4 1 91 8 193 8 101 11 188 9 192 -3 4 0 79 5 166 6
86 13 216 16 287 2 72 7 198 10 280 3 83 10 214 16 293 5 78 7 147 4 152 -8
12 -111 10 745 16 404 3 735 6 736 7 8 7 177 -2 182 -10z m2497 -129 c286 -19
579 -37 650 -39 183 -4 773 -44 815 -55 39 -10 503 -41 680 -45 159 -3 652
-38 641 -44 -4 -4 -13 -55 -20 -116 -6 -60 -16 -144 -21 -185 -6 -41 -15 -115
-20 -165 -6 -49 -15 -128 -20 -175 -6 -47 -12 -114 -15 -150 -3 -36 -8 -72
-11 -80 -3 -8 -8 -49 -11 -90 -2 -41 -8 -91 -13 -110 -6 -19 -10 -62 -10 -95
0 -34 -4 -65 -9 -70 -5 -6 -12 -44 -15 -85 -14 -183 -59 -535 -68 -538 -4 -2
-8 -25 -8 -51 0 -27 -5 -72 -10 -102 -6 -29 -15 -91 -21 -138 -6 -48 -15 -122
-20 -166 -35 -270 -64 -528 -74 -657 -5 -49 -11 -88 -16 -88 -4 0 -8 -34 -8
-76 0 -42 -5 -81 -10 -88 -5 -6 -11 -49 -13 -94 -2 -45 -6 -82 -9 -82 -5 0
-31 -205 -33 -263 -1 -20 -5 -26 -16 -21 -8 4 -37 8 -65 11 -27 2 -59 8 -70
13 -11 5 -45 11 -75 14 -30 3 -95 13 -145 22 -49 9 -116 18 -147 21 -32 3 -58
9 -58 14 0 5 -19 9 -42 9 -48 0 -155 18 -180 31 -9 4 -37 9 -62 10 -25 2 -46
6 -46 11 0 4 -21 8 -47 8 -26 0 -60 4 -77 9 -41 12 -233 41 -272 41 -16 0 -34
4 -40 9 -5 5 -31 11 -59 14 -27 3 -97 13 -155 22 -58 10 -131 19 -162 22 -32
3 -58 8 -58 13 0 4 -28 10 -62 13 -35 3 -106 13 -158 22 -52 10 -121 21 -152
26 -32 5 -84 13 -115 18 -32 5 -74 14 -93 20 -41 12 -199 39 -365 61 -44 6
-96 15 -115 20 -19 6 -54 10 -77 10 -23 0 -45 5 -48 10 -3 6 -30 10 -60 10
-30 0 -57 5 -60 10 -3 6 -23 10 -43 10 -42 0 -180 25 -189 34 -4 3 -1 6 5 6 8
0 12 22 13 63 0 34 5 89 10 122 5 33 13 109 19 169 5 60 14 114 19 120 5 6 11
61 13 121 1 61 7 113 12 116 4 4 12 49 16 100 5 52 21 222 35 379 15 157 29
305 31 330 3 25 11 97 19 160 8 63 17 169 20 235 3 66 10 122 15 123 6 2 10
31 10 65 0 34 7 105 15 157 8 52 15 123 15 158 0 34 4 62 8 62 5 0 12 48 16
108 3 59 11 125 16 147 9 35 45 377 57 535 6 80 6 80 55 75 24 -3 277 -21 563
-41z m307 -4153 c13 -6 48 -13 79 -16 31 -3 64 -12 72 -18 15 -11 29 -103 42
-257 7 -92 24 -276 25 -285 10 -47 -2 -47 -49 1 -76 75 -132 127 -173 158 -21
15 -41 38 -45 49 -4 12 -8 102 -8 199 0 194 -1 192 57 169z m350 -142 c35 -6
77 -18 93 -25 17 -7 51 -15 78 -19 26 -4 47 -11 47 -14 0 -4 6 -8 13 -9 39 -4
125 -23 142 -31 11 -5 73 -21 137 -37 64 -15 115 -30 113 -34 -2 -3 5 -37 15
-75 10 -39 21 -92 24 -120 3 -27 12 -71 20 -97 8 -25 12 -49 9 -51 -3 -3 0
-21 6 -39 6 -18 13 -52 16 -75 3 -23 9 -52 14 -65 4 -13 6 -29 4 -35 -3 -7 -1
-13 4 -13 4 0 9 -21 11 -47 1 -27 7 -66 13 -88 21 -76 21 -112 2 -120 -10 -5
-20 -9 -23 -9 -3 -1 -37 -17 -75 -37 -39 -20 -92 -45 -120 -55 -27 -10 -59
-23 -70 -30 -11 -7 -60 -29 -110 -50 -97 -40 -134 -64 -100 -64 20 0 79 -17
106 -31 9 -4 34 -11 55 -15 22 -3 44 -10 49 -14 6 -4 35 -13 65 -20 30 -7 48
-15 40 -18 -8 -3 -78 -35 -155 -72 -77 -37 -166 -79 -197 -94 -32 -14 -58 -30
-58 -35 0 -5 -10 -13 -22 -16 -13 -4 -43 -16 -67 -27 -30 -13 -56 -18 -80 -14
-35 5 -71 11 -216 36 -38 7 -85 19 -103 27 -19 8 -42 13 -53 10 -10 -3 -19 -1
-19 4 0 5 -18 9 -39 9 -22 0 -42 4 -45 9 -3 4 -32 11 -65 14 -32 4 -78 11
-102 16 -104 24 -202 41 -233 41 -18 0 -36 3 -40 8 -7 6 -62 17 -221 42 -33 5
-73 13 -90 18 l-30 9 2 103 c1 56 4 105 7 107 2 3 22 6 44 6 22 1 38 5 35 10
-2 4 2 7 9 8 28 2 55 7 93 17 47 13 171 40 235 52 25 5 59 14 75 21 17 7 33
12 37 11 3 -1 32 7 64 18 32 11 72 22 89 24 16 2 59 12 95 21 36 9 76 19 90
21 14 2 50 11 80 19 30 9 62 17 70 17 8 0 36 6 62 15 26 8 64 16 83 18 62 6
66 15 60 134 -3 58 -7 117 -10 131 -2 14 -7 59 -11 100 -3 41 -8 89 -10 105
-2 17 -6 80 -10 140 -6 111 -11 166 -14 175 -1 3 -1 15 0 28 1 12 -3 22 -8 22
-5 0 -7 12 -4 26 3 16 10 23 18 20 7 -3 41 -10 76 -17z m-5803 -880 c47 -6 92
-11 99 -11 6 -1 12 -5 12 -10 0 -4 9 -8 21 -8 11 0 17 -4 14 -10 -3 -6 1 -7
10 -4 39 15 234 -104 235 -144 0 -7 4 -11 9 -7 10 5 79 -83 73 -93 -2 -2 1 -8
7 -12 6 -3 13 -15 15 -26 2 -10 13 -39 24 -64 10 -25 22 -73 26 -108 l7 -63
-53 -23 c-29 -13 -65 -26 -80 -30 -16 -3 -28 -11 -28 -17 0 -6 -4 -7 -10 -4
-5 3 -10 2 -10 -4 0 -9 -27 -22 -58 -27 -7 -1 -41 -16 -75 -32 -35 -17 -76
-34 -92 -38 -17 -4 -46 -15 -66 -25 -47 -23 -191 -56 -254 -58 -27 -1 -62 -4
-77 -7 -20 -4 -28 -2 -28 8 0 9 -13 15 -37 16 -20 2 -41 6 -46 9 -6 3 -7 1 -3
-6 8 -12 -29 -8 -69 9 -11 4 -46 18 -77 30 -32 12 -58 26 -58 30 0 4 -28 15
-62 26 -35 10 -74 24 -88 31 -14 7 -37 13 -52 13 -72 0 -77 115 -11 246 21 42
46 82 56 88 9 6 17 16 17 23 0 6 10 19 23 28 12 8 20 16 18 18 -7 4 54 67 66
67 6 0 21 12 33 28 12 15 25 27 28 26 4 -1 12 5 17 12 20 25 149 88 224 109
89 25 180 29 300 14z m-690 -186 c-13 -15 -40 -44 -60 -64 -20 -20 -47 -59
-59 -88 -13 -28 -27 -51 -31 -51 -5 0 -13 -19 -19 -42 -6 -24 -18 -60 -27 -81
-14 -33 -15 -47 -5 -94 17 -84 46 -107 166 -134 31 -7 61 -18 67 -26 6 -7 18
-13 26 -13 8 0 11 -5 7 -12 -4 -7 -3 -8 5 -4 14 9 53 -2 46 -14 -3 -4 3 -6 13
-3 11 2 26 -2 34 -10 8 -9 40 -21 71 -28 32 -8 57 -16 57 -19 0 -4 24 -7 53
-8 28 -1 75 -5 102 -8 28 -3 88 0 135 6 47 7 93 13 102 13 9 1 15 4 12 8 -2 4
10 10 28 14 18 4 71 23 118 42 113 47 218 89 258 103 17 7 32 16 32 21 0 5 3
8 8 7 13 -2 89 30 108 47 6 6 21 17 33 25 18 12 21 24 21 82 0 37 1 68 3 68 1
0 18 -5 37 -10 19 -6 69 -17 110 -25 41 -7 107 -21 145 -30 39 -9 99 -22 135
-29 36 -7 72 -15 80 -19 8 -3 39 -10 68 -14 52 -8 67 -21 41 -35 -50 -26 -157
-72 -169 -74 -8 0 -35 -11 -60 -23 -25 -13 -74 -33 -110 -46 -36 -12 -114 -43
-175 -69 -60 -25 -115 -46 -120 -46 -6 0 -43 -16 -82 -35 -40 -19 -78 -35 -85
-35 -8 0 -24 -7 -36 -16 -13 -9 -30 -13 -38 -10 -8 3 -13 2 -10 -3 6 -9 -17
-23 -44 -27 -8 -1 -37 -12 -65 -24 -27 -12 -79 -33 -115 -47 -121 -47 -195
-75 -212 -80 -10 -3 -18 -10 -18 -15 0 -5 -4 -6 -10 -3 -5 3 -10 1 -10 -5 0
-6 -5 -8 -10 -5 -6 4 -16 2 -23 -3 -7 -5 -46 -24 -87 -42 -81 -34 -128 -36
-193 -6 -18 8 -52 20 -77 27 -25 7 -47 16 -50 19 -15 16 -134 58 -177 62 -7 1
-13 5 -13 9 0 4 -23 12 -51 18 -28 6 -60 16 -70 22 -11 6 -46 17 -77 25 -31 8
-61 19 -66 23 -6 5 -40 17 -76 26 -36 9 -69 20 -75 24 -5 4 -30 13 -55 20 -25
7 -68 23 -96 36 -27 13 -72 29 -100 36 -27 6 -53 15 -59 19 -13 9 -221 76
-262 85 -18 4 -33 10 -33 15 0 4 -17 11 -37 15 -21 4 -64 18 -95 31 -32 13
-65 24 -74 24 -9 0 -44 13 -78 29 -33 16 -78 32 -98 36 -21 4 -38 11 -38 16 0
5 -18 12 -41 15 -22 4 -37 10 -32 15 7 7 246 74 298 83 11 2 74 18 140 36 66
18 138 36 160 41 22 4 54 13 70 20 17 6 37 13 45 14 9 1 45 11 80 22 80 26
218 64 245 68 11 1 46 10 77 19 31 10 70 19 85 22 15 3 51 11 78 19 28 7 84
23 125 34 41 11 91 24 110 29 19 6 48 10 64 11 l29 1 -24 -27z m5292 22 c29
-10 6 -45 -29 -45 -53 0 -60 -15 -71 -149 -5 -68 -7 -130 -4 -138 3 -7 17 -13
32 -13 15 0 31 -3 35 -7 4 -5 44 -14 89 -21 45 -7 102 -17 127 -22 25 -5 81
-16 125 -24 74 -13 174 -33 300 -57 28 -6 86 -17 130 -25 44 -8 100 -19 125
-24 25 -5 70 -14 100 -19 30 -5 89 -17 130 -26 154 -33 148 -33 272 28 182 90
502 244 658 319 83 39 154 80 166 94 21 25 23 26 70 15 124 -30 223 -52 269
-61 28 -5 59 -14 70 -19 11 -6 43 -15 70 -20 67 -13 174 -40 205 -51 14 -4 52
-16 85 -25 124 -35 145 -45 145 -71 0 -24 -1 -24 -102 -24 -638 -1 -883 -15
-1004 -56 -74 -25 -184 -81 -233 -120 -76 -59 -97 -107 -66 -151 18 -26 147
-113 167 -113 8 0 18 -4 24 -9 5 -4 54 -18 109 -30 55 -13 127 -29 161 -37 33
-8 68 -14 77 -14 30 0 67 -23 67 -41 0 -49 -149 -107 -650 -253 -69 -20 -155
-46 -191 -57 -67 -21 -136 -20 -184 1 -11 5 -45 14 -75 20 -168 34 -300 65
-385 90 -16 4 -50 11 -75 15 -25 4 -67 13 -95 20 -49 13 -166 40 -215 48 -14
3 -65 15 -115 27 -49 12 -119 27 -155 35 -36 7 -87 18 -115 24 -27 6 -66 15
-85 20 -19 5 -71 17 -115 27 -44 9 -87 19 -95 22 -20 7 -121 30 -190 43 -30 5
-62 14 -71 19 -9 4 -42 11 -75 15 -32 4 -63 11 -69 15 -5 5 -37 13 -70 19
-126 22 -202 38 -212 44 -5 3 -34 11 -64 16 -30 6 -83 17 -119 25 -36 9 -94
22 -130 30 -60 13 -163 38 -300 71 -30 7 -91 21 -135 30 -44 9 -105 22 -135
30 -95 22 -193 44 -235 51 -22 4 -44 10 -50 14 -5 4 -37 11 -70 15 -33 4 -64
11 -70 15 -5 5 -23 10 -40 12 -22 2 -31 9 -33 26 -3 21 0 22 60 24 35 1 81 4
103 5 22 2 150 4 285 5 216 1 258 -1 355 -21 61 -12 119 -26 130 -31 11 -5 45
-18 75 -29 142 -49 169 -60 230 -89 25 -12 68 -27 95 -33 28 -7 55 -15 60 -20
6 -4 33 -10 60 -14 28 -3 59 -10 70 -15 23 -10 335 -29 412 -25 28 1 71 5 95
9 24 3 65 8 91 11 90 9 125 43 97 94 -6 12 -36 40 -68 63 -31 23 -59 45 -62
48 -3 4 -45 37 -94 75 -104 79 -136 113 -168 173 l-23 44 41 36 c48 43 107 63
276 95 133 26 173 30 199 22z m-2244 -520 c26 -4 57 -10 68 -15 11 -4 58 -16
105 -25 120 -24 153 -30 260 -55 52 -11 124 -27 160 -35 36 -8 92 -20 125 -27
33 -7 65 -16 70 -20 6 -3 39 -10 73 -14 34 -3 65 -11 68 -15 3 -5 15 -9 28 -9
12 0 26 -3 30 -7 8 -8 91 -27 191 -44 33 -5 67 -13 76 -18 9 -5 42 -12 75 -16
32 -4 64 -11 69 -15 6 -5 33 -11 60 -15 28 -4 70 -13 95 -20 25 -7 72 -18 105
-25 33 -6 89 -18 125 -26 36 -8 94 -21 130 -29 186 -40 236 -53 265 -65 11 -5
34 -11 50 -14 17 -3 71 -14 120 -26 50 -11 117 -25 149 -31 32 -5 66 -14 76
-19 9 -5 44 -12 78 -16 34 -3 65 -10 67 -15 3 -4 34 -11 70 -14 36 -4 65 -11
65 -15 0 -4 24 -11 53 -14 28 -4 77 -14 107 -21 30 -8 100 -23 155 -35 55 -12
114 -28 132 -35 18 -8 56 -17 85 -21 29 -4 58 -10 63 -14 6 -5 36 -11 67 -15
39 -5 55 -11 52 -20 -5 -13 76 -45 114 -45 11 0 39 -9 63 -20 24 -11 53 -20
64 -20 11 0 33 -7 49 -15 15 -8 39 -15 52 -15 12 0 26 -4 29 -10 3 -5 -3 -10
-14 -10 -12 0 -21 -4 -21 -10 0 -5 -21 -21 -47 -36 -27 -15 -75 -47 -108 -70
-33 -23 -82 -54 -110 -69 -27 -15 -100 -61 -161 -101 -61 -41 -114 -74 -118
-74 -3 0 -27 -15 -53 -34 -27 -18 -68 -45 -93 -58 -61 -34 -201 -122 -258
-162 -39 -27 -152 -96 -232 -141 -19 -11 -34 -21 -197 -129 l-103 -67 -122 31
c-68 18 -150 38 -183 46 -33 8 -68 19 -77 24 -10 6 -25 10 -33 10 -8 0 -23 4
-33 10 -16 9 -38 14 -182 46 -36 8 -72 18 -81 23 -9 5 -38 13 -65 17 -27 3
-60 11 -74 16 -14 6 -50 16 -80 23 -30 8 -91 23 -135 35 -44 11 -100 25 -125
31 -46 10 -80 19 -230 63 -163 48 -276 77 -389 102 -35 8 -67 16 -71 19 -4 3
-36 11 -71 19 -35 8 -98 24 -139 36 -41 11 -102 27 -135 35 -86 20 -195 51
-230 64 -16 7 -59 19 -95 27 -114 27 -172 41 -275 69 -55 15 -125 33 -155 40
-30 8 -91 23 -135 35 -44 12 -105 26 -135 33 -30 6 -57 14 -60 17 -3 3 -25 11
-50 18 -25 6 -97 25 -160 42 -63 17 -151 40 -195 51 -44 11 -105 26 -135 34
-30 8 -89 22 -130 32 -41 10 -80 21 -85 25 -6 3 -39 12 -75 18 -36 6 -70 16
-75 20 -6 5 -34 12 -63 16 -28 3 -52 10 -52 15 0 5 -8 9 -17 9 -10 0 -36 7
-58 14 l-40 14 55 25 c30 14 75 32 100 40 25 9 72 27 104 41 32 14 64 26 70
26 7 0 34 11 62 24 27 12 62 26 79 30 28 7 46 15 175 73 69 31 190 75 212 76
9 1 15 4 13 7 -2 4 13 12 33 19 135 47 317 118 375 147 38 19 75 34 83 34 8 0
22 4 32 9 23 13 148 61 159 61 4 0 21 7 37 15 15 8 33 12 40 8 6 -3 7 -2 3 2
-7 8 38 27 173 72 71 24 100 37 100 46 0 4 16 1 35 -7 19 -8 56 -18 82 -21z
m-1942 -810 c61 -15 140 -35 230 -59 28 -7 70 -19 95 -25 25 -7 76 -19 113
-27 38 -7 74 -17 79 -21 6 -3 36 -12 67 -19 86 -20 197 -51 211 -59 7 -4 49
-16 94 -27 44 -10 106 -25 136 -32 30 -8 87 -22 125 -31 39 -9 79 -21 90 -25
11 -5 52 -16 90 -25 103 -24 171 -40 255 -63 41 -12 95 -26 120 -32 25 -7 54
-15 65 -20 11 -5 31 -11 45 -15 89 -24 186 -49 255 -66 44 -11 107 -27 140
-35 33 -9 89 -22 124 -30 35 -8 71 -18 80 -23 9 -5 34 -12 56 -15 40 -7 99
-24 265 -72 47 -14 101 -30 120 -35 79 -20 168 -42 220 -54 30 -7 91 -23 135
-35 44 -12 105 -28 136 -35 30 -7 71 -17 90 -24 19 -6 72 -20 119 -31 47 -11
121 -31 165 -45 113 -35 248 -71 375 -100 75 -18 174 -43 240 -62 l56 -16 -6
-53 c-3 -30 -7 -57 -8 -59 -1 -3 -2 -49 -2 -103 l0 -98 -72 19 c-40 11 -102
27 -138 36 -36 9 -69 19 -75 23 -5 3 -39 12 -75 18 -36 7 -69 16 -75 20 -5 4
-37 13 -70 20 -33 7 -64 16 -70 20 -5 5 -31 11 -57 15 -26 4 -46 10 -44 14 2
3 -6 7 -17 8 -40 2 -122 24 -148 38 -14 8 -29 12 -33 8 -3 -3 -6 -1 -6 5 0 7
-8 12 -18 12 -10 0 -42 7 -72 15 -30 9 -86 23 -125 31 -38 9 -74 19 -80 24 -5
5 -32 13 -60 19 -66 13 -159 38 -215 56 -25 8 -63 17 -85 21 -22 4 -44 10 -50
14 -5 4 -37 13 -69 20 -33 7 -68 16 -78 21 -10 5 -26 13 -36 18 -10 5 -38 12
-62 16 -25 4 -50 12 -57 17 -7 5 -17 7 -23 3 -5 -3 -10 -2 -10 3 0 5 -25 13
-55 17 -30 3 -57 10 -60 15 -3 5 -26 12 -50 16 -25 3 -43 10 -40 14 3 5 -4 6
-16 3 -11 -3 -30 -1 -42 5 -12 6 -49 18 -82 26 -103 25 -189 48 -205 54 -17 6
-134 38 -200 54 -25 6 -47 13 -50 17 -8 9 -69 28 -135 41 -33 7 -64 16 -70 20
-5 5 -39 14 -75 20 -36 7 -69 17 -75 21 -5 5 -17 9 -28 9 -10 0 -16 4 -13 8 3
5 -9 6 -26 4 -17 -3 -28 -1 -25 4 3 5 -7 10 -21 10 -34 2 -145 29 -197 48 -22
8 -50 15 -61 16 -12 0 -34 6 -49 14 -15 8 -50 17 -76 21 -27 4 -49 11 -49 16
0 5 -11 9 -25 9 -14 0 -25 5 -25 10 0 6 -11 10 -25 10 -13 0 -46 7 -72 16 -26
9 -73 23 -103 30 -30 7 -91 22 -135 34 -44 12 -107 28 -140 36 -33 8 -68 18
-77 24 -9 5 -46 15 -82 21 -36 7 -66 16 -66 20 0 4 -22 10 -50 14 -55 8 -53 4
-50 98 1 26 -3 47 -8 47 -6 0 -7 14 -2 35 4 19 4 37 0 40 -5 3 -6 14 -3 26 4
15 11 19 27 14 11 -3 48 -12 81 -20z m5939 -302 c-4 -38 -8 -76 -9 -85 -1 -10
-4 -21 -8 -24 -4 -4 -7 -29 -7 -55 0 -26 -4 -51 -10 -54 -5 -3 -9 -20 -8 -38
0 -18 -4 -50 -10 -72 -6 -22 -13 -63 -17 -91 l-6 -51 -122 -61 c-67 -33 -153
-75 -192 -92 -38 -17 -72 -34 -75 -38 -3 -4 -34 -23 -70 -41 -89 -47 -87 -46
-163 -80 -37 -17 -75 -37 -83 -46 -9 -8 -22 -15 -29 -15 -8 0 -44 -16 -82 -35
-37 -19 -73 -35 -80 -35 -6 0 -18 -6 -25 -13 -18 -18 -65 -43 -283 -148 -104
-50 -198 -98 -208 -107 -16 -15 -17 -14 -11 1 3 10 1 23 -5 31 -12 14 1 134
20 183 9 25 2 56 -12 47 -12 -7 -11 -4 3 36 10 31 12 32 19 12 5 -12 6 -29 3
-37 -9 -23 20 -28 55 -11 38 20 40 20 34 -2 -9 -38 20 -43 66 -11 24 16 55 29
68 29 25 0 423 195 435 214 4 6 8 7 8 3 0 -5 12 0 28 11 61 42 263 143 273
136 7 -4 9 -3 6 3 -3 5 28 26 69 46 50 25 81 47 92 66 24 43 68 61 123 50 24
-4 48 -8 52 -9 4 0 19 -12 33 -27 28 -30 41 -24 45 22 2 17 7 35 11 41 5 7 8
25 8 40 -2 47 23 198 33 205 5 3 8 9 7 13 -3 10 12 140 17 149 12 20 14 1 7
-60z"/>
<path d="M3883 8762 c-20 -3 -23 -10 -24 -45 0 -23 -8 -152 -18 -287 -10 -135
-14 -252 -10 -260 5 -11 30 -15 106 -16 54 -1 278 -5 498 -8 220 -4 518 -9
663 -12 206 -3 262 -2 262 8 0 7 9 141 20 297 l21 285 -21 20 c-20 21 -25 21
-748 21 -400 0 -737 -1 -749 -3z m1417 -102 c0 -14 -7 -115 -15 -225 -8 -110
-15 -212 -15 -227 l0 -26 -132 3 c-293 7 -1099 19 -1182 18 l-88 -2 6 57 c3
31 11 141 17 243 l12 185 698 0 699 0 0 -26z"/>
<path d="M3818 8007 c-14 -11 -20 -57 -35 -278 -12 -160 -16 -272 -10 -285 8
-19 26 -21 330 -42 177 -13 338 -25 357 -27 19 -2 80 -6 135 -9 55 -4 109 -8
120 -10 11 -2 70 -7 130 -11 61 -3 126 -8 145 -10 19 -2 80 -7 135 -11 106 -7
141 -10 164 -16 30 -7 40 48 58 340 10 162 16 297 13 301 -16 24 -22 24 -425
36 -126 4 -284 8 -350 10 -66 2 -230 6 -365 9 -135 3 -276 8 -315 11 -49 4
-75 1 -87 -8z m382 -52 c118 -2 289 -7 380 -11 212 -8 368 -11 555 -13 83 -1
156 -5 163 -9 10 -7 9 -60 -6 -270 -10 -144 -21 -264 -23 -266 -3 -3 -167 6
-364 19 -198 13 -432 29 -520 35 -88 5 -182 12 -210 15 -27 2 -95 7 -150 10
-187 11 -207 14 -200 36 3 10 8 49 10 86 2 38 9 131 14 208 6 77 11 145 11
152 0 14 42 22 90 17 19 -2 132 -6 250 -9z"/>
<path d="M4441 6874 c-59 -30 -83 -62 -107 -143 -17 -58 -9 -121 23 -189 19
-40 86 -92 119 -92 13 0 25 -4 28 -9 7 -11 73 1 112 22 86 45 139 154 122 249
-16 87 -52 137 -120 168 -60 27 -114 25 -177 -6z m177 -58 c76 -69 82 -199 11
-272 -72 -74 -178 -57 -231 39 -22 39 -24 127 -4 165 49 93 160 127 224 68z"/>
<path d="M3780 5062 c0 -22 12 -25 145 -43 44 -6 109 -14 145 -19 36 -5 102
-13 147 -19 46 -5 87 -12 92 -15 10 -6 28 -9 361 -52 220 -28 311 -40 387 -50
44 -6 54 -4 59 10 11 27 -11 40 -84 48 -37 4 -98 12 -137 17 -38 6 -101 15
-140 20 -38 6 -97 15 -130 20 -33 6 -100 15 -150 21 -92 12 -180 23 -320 41
-165 22 -232 29 -302 35 -68 6 -73 5 -73 -14z"/>
<path d="M5383 2753 c-7 -3 -13 -13 -13 -24 0 -14 13 -22 58 -34 31 -8 77 -22
102 -30 25 -7 61 -17 80 -20 33 -6 64 -17 102 -36 9 -5 36 -12 60 -15 24 -4
51 -11 60 -15 9 -5 45 -16 80 -23 75 -18 184 -46 288 -76 41 -12 101 -27 133
-35 32 -7 66 -17 75 -20 9 -4 42 -13 72 -20 30 -8 100 -27 155 -45 97 -30 153
-46 318 -89 79 -21 189 -51 287 -78 30 -8 87 -22 125 -31 39 -9 75 -20 80 -24
6 -3 28 -10 50 -14 22 -4 60 -16 85 -26 24 -11 72 -25 105 -33 33 -7 94 -23
135 -34 155 -43 220 -55 232 -43 18 18 1 42 -31 42 -16 0 -32 4 -35 9 -3 5
-36 14 -73 21 -38 7 -72 16 -78 20 -5 4 -19 10 -30 13 -11 3 -54 15 -95 27
-41 12 -97 28 -125 36 -27 7 -84 22 -125 33 -113 30 -229 60 -290 76 -30 8
-89 24 -130 36 -41 12 -102 28 -135 36 -33 9 -74 21 -91 29 -17 7 -58 20 -90
28 -32 8 -95 24 -139 36 -160 43 -231 62 -300 78 -38 9 -74 20 -80 23 -5 4
-37 12 -69 19 -33 7 -67 16 -75 21 -9 4 -36 12 -61 18 -25 5 -72 18 -105 29
-103 34 -217 66 -350 97 -33 8 -80 21 -105 28 -25 8 -51 12 -57 10z"/>
<path d="M4866 2594 c-8 -8 -13 -20 -10 -27 5 -13 120 -62 169 -72 35 -8 166
-51 210 -70 17 -8 47 -16 67 -20 21 -4 62 -20 91 -35 29 -15 87 -37 128 -49
67 -20 186 -57 309 -96 46 -14 132 -37 230 -60 30 -7 79 -20 108 -29 120 -37
163 -49 272 -77 63 -17 144 -37 179 -45 35 -8 68 -17 74 -21 7 -4 46 -15 87
-24 41 -10 100 -25 130 -34 30 -9 87 -25 125 -35 106 -29 195 -59 240 -81 57
-27 176 -44 186 -27 17 26 8 37 -33 48 -147 37 -204 53 -213 60 -6 5 -37 15
-70 24 -97 24 -176 46 -245 66 -36 10 -92 26 -125 35 -33 9 -87 25 -121 36
-33 10 -70 19 -81 19 -11 0 -38 7 -59 16 -36 15 -82 28 -263 69 -35 9 -68 18
-74 22 -5 3 -38 13 -71 20 -34 8 -86 20 -116 27 -89 21 -289 83 -345 107 -31
13 -115 39 -125 39 -6 0 -29 9 -53 19 -23 11 -80 32 -127 46 -47 15 -110 36
-140 47 -30 11 -73 25 -95 30 -22 6 -56 16 -75 23 -19 7 -54 18 -77 24 -24 7
-43 16 -43 20 0 17 -30 20 -44 5z"/>
<path d="M4535 2389 c-11 -17 4 -59 21 -59 9 0 84 -22 167 -49 84 -27 186 -59
227 -71 41 -11 89 -26 105 -31 28 -10 102 -31 215 -60 25 -6 64 -20 87 -30 23
-10 64 -24 90 -29 26 -6 94 -27 153 -47 109 -36 198 -64 285 -88 161 -44 268
-78 310 -95 20 -9 197 -67 325 -108 36 -11 83 -23 105 -27 22 -4 45 -11 50
-15 6 -4 39 -15 75 -25 36 -9 70 -21 75 -25 6 -5 36 -16 69 -25 32 -9 73 -25
90 -35 17 -9 76 -27 131 -39 55 -12 122 -31 149 -42 39 -15 52 -16 58 -6 11
17 6 39 -12 47 -24 12 -181 59 -220 66 -19 3 -39 10 -45 14 -5 4 -32 13 -60
19 -27 7 -63 18 -80 26 -35 15 -139 50 -210 70 -27 8 -81 24 -120 34 -38 11
-88 27 -110 35 -22 8 -47 15 -55 16 -8 0 -42 14 -75 30 -33 16 -66 30 -74 30
-14 0 -201 56 -236 70 -11 5 -49 15 -85 23 -97 22 -196 53 -328 103 -34 13
-70 24 -80 24 -10 0 -22 4 -27 8 -6 5 -44 19 -85 31 -41 13 -95 29 -119 37
-25 8 -53 14 -63 14 -10 0 -44 9 -75 19 -32 11 -92 29 -133 41 -193 56 -250
74 -315 100 -38 15 -85 31 -102 35 -18 3 -35 11 -38 16 -8 12 -32 11 -40 -2z"/>
</g>
</svg>
