<?xml version="1.0" standalone="no"?>
<!DOCTYPE svg PUBLIC "-//W3C//DTD SVG 20010904//EN"
 "http://www.w3.org/TR/2001/REC-SVG-20010904/DTD/svg10.dtd">
<svg version="1.0" xmlns="http://www.w3.org/2000/svg"
 width="1158.000000pt" height="1125.000000pt" viewBox="0 0 1158.000000 1125.000000"
 preserveAspectRatio="xMidYMid meet">
<metadata>
Created by potrace 1.16, written by Peter Selinger 2001-2019
</metadata>
<g transform="translate(0.000000,1125.000000) scale(0.100000,-0.100000)"
fill="#000000" stroke="none">
<path d="M3110 10428 c-102 -5 -197 -15 -228 -24 -85 -24 -190 -77 -296 -147
-54 -37 -103 -64 -108 -61 -5 4 -33 -17 -61 -46 -28 -29 -67 -63 -87 -75 -53
-35 -204 -184 -236 -235 -16 -25 -65 -84 -109 -132 -83 -90 -184 -248 -225
-350 -12 -32 -29 -63 -38 -70 -18 -15 -82 -151 -107 -228 -10 -30 -32 -91 -50
-135 -18 -44 -47 -144 -63 -222 -17 -78 -37 -154 -45 -170 -8 -15 -18 -55 -22
-88 -4 -33 -11 -67 -15 -75 -13 -25 -38 -156 -59 -315 -16 -118 -20 -215 -22
-455 -1 -177 3 -318 9 -335 8 -26 7 -31 -7 -32 -28 -2 -64 -12 -70 -20 -3 -5
-23 -19 -43 -33 -39 -26 -43 -32 -82 -121 -52 -123 -40 -176 54 -242 l54 -38
18 -102 c9 -56 18 -124 18 -152 1 -27 5 -70 11 -95 13 -60 28 -158 39 -252 5
-43 20 -110 34 -150 26 -76 56 -211 56 -250 0 -13 9 -54 19 -93 11 -38 26
-103 35 -143 18 -81 128 -301 181 -362 43 -49 119 -150 135 -179 11 -22 50
-66 180 -207 75 -81 230 -211 304 -255 38 -23 89 -57 113 -75 24 -18 59 -36
78 -40 19 -3 63 -16 98 -28 l62 -21 -1 -115 c-4 -352 -7 -424 -24 -534 -10
-65 -22 -121 -25 -125 -10 -10 -449 -22 -565 -16 l-105 6 -37 -68 c-20 -37
-41 -93 -48 -123 -17 -78 -10 -246 13 -289 9 -19 17 -42 17 -51 0 -10 12 -22
28 -28 50 -21 225 -41 442 -52 118 -6 296 -17 395 -25 217 -18 1005 -21 1153
-4 53 6 167 19 252 29 85 11 169 18 185 16 38 -5 56 10 49 39 -3 14 3 40 17
66 12 24 24 58 26 76 7 53 -53 326 -87 392 -29 58 -29 60 -9 66 15 5 19 14 17
33 -3 24 -8 27 -42 30 -22 2 -60 -2 -85 -8 -25 -7 -89 -16 -141 -22 -220 -22
-281 -27 -392 -34 l-116 -7 -7 74 c-7 87 -26 432 -32 602 -3 91 -1 118 9 121
7 2 53 13 102 25 90 21 250 90 453 194 102 53 120 67 196 150 47 51 107 121
135 157 28 36 60 78 72 93 15 18 20 35 16 51 -4 17 11 59 50 142 31 66 72 157
91 204 19 47 47 114 63 150 55 123 128 325 163 450 47 168 50 186 49 253 -3
93 53 462 76 504 7 12 11 35 10 50 -1 15 4 38 10 50 17 31 15 166 -2 208 -8
19 -26 40 -39 46 -18 8 -22 17 -19 39 5 34 -8 43 -63 42 l-43 -1 1 177 c2 155
-21 482 -39 560 -12 55 -56 315 -70 412 -25 175 -82 391 -137 515 -16 39 -66
146 -110 240 -43 93 -81 182 -83 198 -5 41 -47 129 -94 195 -22 32 -40 62 -40
67 -1 6 -14 26 -30 45 -17 19 -30 39 -30 45 0 14 -68 112 -147 212 -71 89
-222 224 -338 301 -72 48 -267 153 -345 186 -25 11 -49 25 -55 31 -17 20 -36
21 -215 13z m145 -38 c54 -8 97 -24 190 -71 334 -170 567 -378 708 -631 15
-26 55 -92 89 -145 35 -54 70 -114 79 -133 9 -19 24 -51 33 -70 9 -19 20 -42
25 -50 17 -26 158 -324 166 -350 4 -14 18 -46 31 -71 39 -78 108 -336 124
-467 7 -48 22 -152 35 -232 43 -265 70 -638 59 -818 -6 -110 -7 -114 -33 -124
-45 -17 -564 -19 -836 -4 -192 11 -421 14 -985 10 -404 -2 -789 -8 -855 -13
-66 -4 -246 -8 -400 -7 l-280 1 -14 30 c-35 70 -21 690 19 890 33 163 80 366
99 430 10 33 24 88 30 123 29 154 131 430 216 582 29 52 70 129 90 170 58 115
98 173 183 263 43 45 93 102 110 127 39 58 172 187 237 230 28 19 68 51 90 71
72 65 221 159 327 206 86 38 117 46 193 53 133 11 192 11 270 0z m-1691 -3928
c2 -4 -12 -7 -32 -6 l-37 3 35 -7 c19 -4 47 -3 61 2 14 5 33 7 42 3 24 -9 46
-48 49 -85 1 -19 6 -36 10 -38 5 -3 6 -10 3 -15 -4 -5 0 -9 7 -9 9 0 9 -3 -2
-10 -8 -5 -10 -10 -4 -10 15 0 23 -80 9 -81 -5 0 -4 -3 3 -6 6 -2 9 -9 6 -14
-3 -6 0 -16 6 -24 7 -8 10 -22 6 -30 -3 -8 -1 -15 5 -15 6 0 7 -4 4 -10 -3 -5
-2 -10 2 -10 5 0 10 -8 11 -17 3 -30 7 -43 65 -223 63 -193 105 -292 120 -283
6 3 7 1 3 -6 -5 -7 4 -27 19 -47 15 -19 31 -52 37 -72 5 -20 20 -50 32 -67 55
-75 66 -104 66 -176 0 -51 -4 -71 -14 -75 -8 -3 -17 -13 -21 -22 -4 -11 2 -9
19 7 22 21 26 34 29 100 l3 76 2 -75 c2 -76 2 -76 -35 -112 -27 -25 -50 -38
-78 -42 l-40 -6 42 13 c23 6 45 16 50 21 4 5 -3 5 -17 0 -44 -15 -88 -8 -129
20 -39 27 -59 59 -138 218 -13 26 -27 50 -32 53 -5 3 -17 27 -26 54 -9 27 -22
55 -30 61 -8 6 -17 25 -20 41 -4 17 -13 42 -21 57 -8 15 -14 35 -14 44 0 9 -5
18 -11 20 -5 2 -11 10 -13 18 -1 8 -7 24 -13 35 -5 11 -8 26 -6 33 3 6 0 12
-7 12 -6 0 -8 5 -5 10 3 6 1 10 -5 10 -6 0 -8 5 -5 10 4 6 1 17 -5 25 -6 8 -9
19 -5 25 3 5 2 10 -3 10 -6 0 -8 9 -5 20 3 11 1 20 -5 20 -6 0 -8 9 -5 20 3
11 0 20 -6 20 -6 0 -11 9 -11 21 0 11 -4 18 -9 14 -6 -3 -8 6 -5 21 3 17 -1
31 -13 41 -10 8 -12 12 -5 8 6 -3 12 -1 12 4 0 6 -8 11 -17 11 -15 0 -15 2 -4
9 12 8 13 14 3 36 -7 14 -17 23 -22 20 -6 -4 -10 7 -10 25 0 18 4 29 10 25 6
-3 10 -1 10 4 0 6 -7 11 -15 11 -10 0 -15 9 -14 28 l1 27 9 -25 c7 -20 8 -17
4 15 -3 22 -6 60 -7 85 -1 43 -2 42 -8 -15 l-7 -60 -1 63 c-2 49 1 62 13 62
14 0 17 8 19 55 1 12 9 21 21 22 20 3 20 3 0 -7 l-20 -10 20 3 c11 1 21 9 21
17 1 8 2 18 3 23 1 10 58 9 65 -1z m514 -2992 c27 -26 28 -49 2 -97 -27 -52
-27 -142 1 -200 18 -38 20 -48 9 -74 -12 -28 -16 -30 -49 -24 -87 14 -89 15
-95 46 -3 16 -14 42 -25 57 -24 32 -35 159 -14 155 8 -2 10 4 6 14 -4 10 -2
14 4 10 7 -5 9 0 6 12 -7 26 64 104 89 98 10 -3 21 0 25 5 4 7 1 8 -7 3 -9 -5
-11 -4 -6 3 11 18 30 15 54 -8z"/>
<path d="M9100 4084 c-113 -58 -225 -118 -250 -132 -40 -24 -192 -97 -260
-124 -72 -29 -92 -38 -180 -82 -52 -26 -117 -60 -145 -75 -27 -15 -75 -41
-105 -58 -30 -16 -75 -42 -99 -57 -70 -45 -301 -156 -323 -156 -6 0 -74 -31
-150 -70 -76 -38 -175 -85 -221 -104 -94 -40 -195 -91 -218 -112 -8 -8 -20
-14 -26 -14 -10 0 -118 -41 -168 -64 -50 -23 -157 -62 -220 -80 -33 -10 -68
-22 -77 -27 -21 -11 -146 -55 -213 -76 -27 -8 -63 -22 -78 -30 -16 -8 -59 -23
-95 -33 -143 -39 -218 -63 -242 -76 -14 -7 -45 -17 -70 -23 -84 -18 -175 -44
-202 -57 -15 -8 -39 -14 -53 -14 -14 0 -42 -7 -63 -16 -45 -19 -191 -46 -204
-38 -6 4 -27 2 -47 -4 -33 -10 -138 -37 -186 -47 -11 -3 -63 -12 -115 -21 -52
-9 -104 -18 -115 -21 -33 -7 -226 -33 -292 -39 -34 -3 -115 -12 -180 -19 -75
-9 -181 -12 -293 -9 -96 2 -209 0 -250 -6 -41 -5 -97 -12 -125 -15 -195 -19
-247 -25 -286 -34 -24 -6 -45 -10 -47 -10 -9 0 -95 -16 -197 -37 -138 -27
-241 -56 -287 -78 -17 -9 -35 -16 -39 -16 -13 0 -110 -64 -139 -91 -50 -47
-92 -140 -70 -154 5 -3 10 -14 9 -23 0 -14 -2 -14 -10 3 -7 15 -8 9 -3 -20 3
-22 17 -61 31 -87 29 -54 153 -177 204 -204 37 -18 100 -63 110 -78 4 -5 19
-6 33 -2 20 5 26 3 26 -10 0 -11 6 -15 20 -11 11 3 20 0 20 -6 0 -15 58 -41
125 -58 28 -7 55 -16 62 -21 15 -12 200 -53 278 -63 33 -4 65 -10 70 -15 9 -7
104 -18 220 -26 28 -1 97 -8 155 -14 63 -7 180 -9 290 -6 182 6 279 20 323 48
12 8 42 20 67 28 25 7 70 24 100 38 30 14 82 37 115 52 33 16 80 46 105 69 24
23 52 44 62 47 10 3 18 8 18 12 0 4 26 21 57 37 32 17 67 38 78 49 11 10 31
25 45 34 50 32 239 184 349 280 30 26 82 64 115 86 34 21 80 52 103 67 23 16
44 29 47 29 3 0 55 33 115 73 61 39 125 82 143 93 81 53 286 152 296 142 6 -6
50 11 129 50 66 33 164 79 218 102 54 23 105 45 114 50 20 10 103 45 111 46 3
0 22 8 42 17 21 10 44 17 52 17 8 0 18 5 21 10 3 6 16 10 27 10 12 0 29 6 37
13 9 7 43 21 76 32 33 10 69 23 80 30 11 6 45 17 75 24 30 7 65 19 77 27 12 8
29 14 37 14 14 0 154 44 191 60 11 5 32 11 47 14 15 4 26 12 24 19 -1 6 -1 9
1 5 6 -10 61 1 96 19 15 8 67 25 115 39 48 13 96 29 107 34 34 17 79 33 100
37 11 2 27 6 35 10 8 3 22 7 30 8 23 3 104 28 115 35 6 4 39 15 75 25 36 10
69 22 74 27 6 4 20 8 32 8 13 0 25 4 28 9 3 5 40 17 81 26 42 10 78 22 81 27
3 4 16 8 30 8 13 0 32 4 42 9 9 5 60 21 112 35 52 14 120 35 150 47 30 11 78
27 105 36 28 9 101 33 164 55 62 21 123 38 135 38 13 0 26 3 30 7 3 4 16 8 29
10 12 2 26 8 31 13 6 6 20 10 32 10 13 0 26 5 29 10 3 6 15 10 26 10 10 0 19
4 19 10 0 5 6 7 13 4 7 -2 26 9 42 26 22 23 37 30 67 30 40 0 105 27 127 54 9
11 10 20 2 35 -6 11 -11 31 -11 45 0 19 -10 33 -37 51 -21 14 -65 43 -97 65
-64 43 -152 80 -190 80 -42 0 -129 34 -321 126 -28 13 -61 24 -75 24 -14 -1
-117 -48 -230 -106z m301 48 c28 -21 236 -112 329 -143 67 -23 90 -36 177
-104 52 -41 74 -88 53 -109 -8 -8 -9 -6 -5 7 10 24 10 24 -100 -25 -11 -4 -29
-10 -40 -12 -11 -2 -32 -9 -47 -15 -16 -6 -28 -9 -28 -6 0 4 -93 -26 -130 -41
-17 -8 -29 -11 -80 -20 -19 -4 -42 -12 -50 -19 -14 -11 -69 -29 -260 -85 -145
-42 -305 -91 -335 -103 -16 -7 -34 -12 -40 -13 -5 0 -17 -4 -25 -7 -8 -4 -24
-8 -35 -10 -11 -2 -27 -7 -35 -10 -8 -3 -62 -20 -120 -37 -58 -17 -136 -40
-175 -51 -38 -12 -78 -25 -87 -30 -10 -5 -26 -9 -37 -9 -11 0 -32 -5 -48 -12
-15 -6 -32 -10 -37 -9 -4 1 -19 -5 -32 -14 -20 -13 -24 -13 -24 -1 0 7 14 19
30 26 17 7 30 19 30 27 0 8 -4 11 -10 8 -5 -3 -10 -1 -10 4 0 6 -19 11 -41 11
-30 0 -47 -6 -60 -21 -10 -11 -23 -18 -28 -14 -6 3 -27 -5 -47 -19 -20 -13
-42 -22 -48 -20 -20 8 -106 -34 -106 -51 0 -8 -8 -15 -17 -15 -9 0 -24 -6 -32
-14 -9 -8 -56 -19 -109 -25 -62 -7 -104 -17 -126 -31 -18 -11 -39 -20 -46 -20
-6 0 -26 -6 -43 -14 -52 -23 -90 -34 -122 -35 -16 -1 -46 -10 -67 -21 -21 -11
-50 -20 -64 -20 -33 0 -64 -17 -64 -35 0 -9 -9 -15 -23 -15 -13 0 -29 -6 -35
-12 -10 -10 -15 -10 -22 2 -7 10 -10 11 -10 3 0 -7 -9 -13 -20 -13 -11 0 -20
5 -20 10 0 6 -9 10 -20 10 -11 0 -20 -4 -20 -9 0 -8 -35 -49 -86 -101 -13 -14
-24 -31 -24 -38 0 -6 -7 -12 -15 -12 -8 0 -31 -7 -52 -16 -21 -9 -51 -22 -68
-29 -16 -7 -50 -21 -75 -32 -25 -11 -61 -26 -80 -33 -19 -7 -42 -19 -50 -25
-8 -7 -49 -28 -92 -48 -57 -26 -79 -32 -88 -23 -8 8 -10 7 -5 -5 10 -27 -11
-31 -50 -9 -19 11 -45 20 -56 20 -11 0 -34 8 -52 17 -18 9 -38 17 -45 17 -7 1
-16 7 -21 15 -7 11 -22 11 -87 1 -152 -23 -179 -28 -214 -39 -42 -13 -58 -14
-45 -3 6 5 28 14 50 20 22 6 105 32 185 58 80 26 161 50 180 54 19 5 73 22
120 40 181 67 269 97 358 124 30 9 65 25 79 36 14 11 32 20 39 20 8 0 22 4 32
10 9 5 59 25 110 45 51 19 114 46 140 59 26 12 92 45 147 73 55 27 116 56 135
63 19 7 98 43 175 80 77 37 160 75 185 84 25 10 77 33 115 51 39 18 81 36 94
40 34 10 377 186 442 226 30 19 92 49 139 67 223 88 258 104 424 201 50 29
119 68 155 87 36 19 93 50 126 69 68 39 102 43 136 17z m-4457 -1712 c-5 -5
-29 -11 -54 -14 -58 -7 -72 -10 -88 -20 -7 -4 -45 -10 -85 -13 -40 -3 -79 -9
-87 -13 -8 -4 -40 -11 -70 -15 -30 -4 -64 -14 -75 -21 -11 -7 -49 -23 -84 -34
-35 -11 -69 -25 -76 -30 -7 -5 -15 -7 -18 -4 -3 4 -28 1 -55 -6 -28 -6 -65
-13 -83 -15 -19 -2 -59 -9 -89 -15 -30 -6 -82 -15 -115 -20 -111 -16 -250 -46
-273 -59 -45 -24 -118 -41 -183 -41 -65 0 -65 0 -111 -47 -35 -38 -53 -49 -81
-50 -20 -2 -39 2 -42 7 -8 13 -45 13 -45 0 0 -5 5 -10 10 -10 6 0 10 -4 10
-10 0 -5 -8 -10 -18 -10 -10 0 -27 -7 -38 -15 -10 -8 -25 -15 -32 -15 -13 0
-42 -23 -42 -33 0 -10 124 -17 130 -7 4 6 21 4 48 -6 23 -9 39 -20 37 -25 -3
-4 -1 -10 5 -14 5 -3 10 -1 10 4 0 6 5 11 11 11 6 0 9 -7 5 -15 -3 -8 2 -22
11 -30 19 -20 19 -20 -42 -33 -55 -12 -209 -6 -237 9 -9 5 -25 9 -34 9 -10 0
-25 6 -33 14 -22 20 -71 31 -71 17 0 -6 -5 -11 -11 -11 -6 0 -9 7 -5 15 3 8 0
15 -6 15 -6 0 -20 8 -31 17 -18 17 -19 17 -32 0 -17 -23 -22 -13 -23 43 -1 28
6 58 19 80 l20 35 -6 -31 c-3 -17 -1 -43 4 -57 l10 -27 103 2 c57 1 94 4 83 6
-51 9 -85 25 -85 39 0 12 3 13 13 4 11 -8 26 -7 61 3 42 13 50 13 76 -2 49
-28 47 -3 -3 44 -45 43 -62 78 -34 72 11 -3 78 15 124 33 13 5 30 6 38 3 9 -4
24 1 34 10 10 9 29 15 42 12 13 -2 31 2 39 9 8 6 40 17 71 24 31 6 65 21 74
31 10 11 28 20 39 20 12 0 34 7 50 15 15 8 36 15 46 15 10 0 26 8 36 17 9 10
24 18 33 18 44 4 51 6 48 17 -5 25 143 39 438 42 239 3 297 6 325 19 20 9 80
19 140 22 58 4 123 11 145 15 59 12 121 12 109 0z m634 -375 c-6 -14 -16 -25
-21 -25 -15 0 -86 -82 -87 -100 0 -12 -2 -12 -9 -2 -10 17 -131 -97 -132 -124
0 -11 -3 -14 -6 -6 -8 19 -27 14 -63 -18 -18 -16 -44 -30 -56 -30 -12 0 -24
-7 -28 -15 -4 -12 -10 -13 -30 -3 -18 8 -29 8 -39 0 -8 -7 -18 -7 -27 -2 -8 6
-27 10 -42 10 -16 0 -28 6 -28 13 0 13 34 47 48 47 4 0 25 17 47 38 22 20 53
47 70 60 16 12 32 32 35 43 5 20 46 38 219 95 41 14 81 29 90 34 9 5 28 10 43
10 26 0 27 -2 16 -25z m-1061 -109 c3 -3 14 -6 24 -6 21 0 69 -45 69 -65 0 -8
-4 -16 -10 -20 -6 -4 -6 -15 0 -31 14 -35 14 -34 -22 -34 -29 0 -30 -1 -13
-13 18 -14 13 -43 -6 -32 -5 4 -24 2 -42 -4 -17 -6 -59 -18 -92 -27 -33 -9
-78 -22 -100 -30 -82 -28 -212 -36 -320 -19 -157 24 -238 40 -268 53 -16 7
-47 15 -70 19 -23 3 -48 14 -55 25 -7 10 -24 18 -38 18 -13 0 -24 5 -24 10 0
6 9 10 20 10 14 0 20 7 20 24 0 36 10 56 29 56 9 0 29 7 45 15 35 18 171 36
313 41 56 2 111 7 122 12 24 9 409 7 418 -2z m-1277 -189 c0 -25 207 -97 339
-118 31 -5 79 -14 106 -19 170 -33 450 -65 555 -62 213 6 332 13 351 21 44 18
162 31 176 19 10 -8 13 -6 13 6 0 9 7 16 15 16 22 0 19 -9 -12 -38 -16 -14
-29 -20 -31 -14 -2 8 -11 7 -26 -4 -13 -8 -54 -16 -91 -19 -37 -2 -73 -9 -81
-16 -7 -6 -18 -8 -24 -4 -6 3 -26 1 -46 -5 -19 -7 -97 -14 -172 -16 -75 -2
-141 -4 -147 -5 -94 -6 -433 40 -550 76 -44 13 -99 29 -122 35 -23 6 -45 15
-48 20 -3 6 -17 10 -30 10 -14 0 -39 8 -58 19 -18 10 -49 22 -67 26 -49 11
-110 47 -110 66 0 7 22 15 48 18 6 0 12 -5 12 -12z m108 -188 c6 18 32 13 32
-6 0 -15 2 -16 10 -3 8 12 10 11 10 -7 0 -17 6 -23 24 -23 12 0 37 -5 55 -11
24 -8 35 -8 46 1 12 10 15 10 15 -2 0 -9 20 -17 65 -24 36 -5 65 -6 65 -2 0 5
4 8 10 8 5 0 7 -6 4 -14 -4 -10 6 -15 33 -19 197 -29 323 -51 323 -56 0 -15
-221 7 -335 34 -33 8 -87 19 -120 24 -67 10 -169 36 -200 51 -11 5 -32 14 -47
20 -19 6 -28 17 -28 30 0 20 1 20 17 4 11 -11 18 -13 21 -5z"/>
</g>
</svg>
