<?xml version="1.0" standalone="no"?>
<!DOCTYPE svg PUBLIC "-//W3C//DTD SVG 20010904//EN"
 "http://www.w3.org/TR/2001/REC-SVG-20010904/DTD/svg10.dtd">
<svg version="1.0" xmlns="http://www.w3.org/2000/svg"
 width="891.000000pt" height="1125.000000pt" viewBox="0 0 891.000000 1125.000000"
 preserveAspectRatio="xMidYMid meet">
<metadata>
Created by potrace 1.16, written by Peter Selinger 2001-2019
</metadata>
<g transform="translate(0.000000,1125.000000) scale(0.100000,-0.100000)"
fill="#000000" stroke="none">
<path d="M6730 10458 c-25 -5 -70 -14 -100 -20 -30 -7 -57 -12 -60 -13 -24 -4
-71 -33 -76 -47 -3 -10 -12 -18 -20 -18 -8 0 -14 -7 -14 -15 0 -8 -12 -25 -26
-38 -14 -12 -37 -41 -51 -64 -14 -24 -29 -43 -34 -43 -5 0 -9 -5 -9 -12 0 -6
-22 -45 -48 -87 -27 -42 -63 -103 -81 -136 -18 -33 -38 -67 -45 -75 -6 -8 -26
-44 -44 -80 -19 -36 -38 -72 -43 -80 -5 -8 -16 -31 -25 -50 -27 -61 -39 -80
-46 -80 -5 0 -8 -7 -8 -15 0 -9 -8 -30 -17 -48 -9 -18 -16 -35 -15 -39 1 -5
-2 -8 -7 -8 -5 0 -14 -15 -21 -32 -7 -18 -25 -61 -41 -95 -16 -34 -29 -67 -29
-72 0 -6 -4 -11 -10 -11 -5 0 -10 -8 -10 -18 0 -10 -13 -46 -30 -80 -16 -33
-32 -74 -36 -89 -4 -15 -12 -34 -18 -42 -6 -8 -16 -32 -23 -55 -9 -33 -61
-182 -98 -281 -4 -11 -11 -33 -17 -50 -17 -50 -24 -68 -47 -113 -11 -24 -21
-48 -21 -53 0 -6 -16 -45 -36 -87 -20 -42 -43 -95 -52 -117 -8 -22 -22 -48
-30 -57 -7 -9 -11 -21 -8 -27 3 -5 2 -11 -3 -13 -6 -1 -12 -15 -15 -31 -8 -45
-17 -67 -27 -67 -5 0 -9 -7 -9 -15 0 -9 -11 -37 -25 -63 -14 -26 -25 -53 -25
-60 0 -7 -10 -32 -23 -55 -13 -23 -31 -64 -41 -92 -11 -27 -22 -54 -26 -60 -3
-5 -12 -29 -20 -52 -7 -24 -17 -43 -22 -43 -4 0 -8 -5 -8 -10 0 -6 -16 -44
-35 -84 -19 -41 -35 -79 -35 -85 0 -7 -11 -34 -25 -61 -14 -28 -26 -53 -26
-57 -1 -6 -44 -86 -55 -101 -2 -3 -10 0 -72 31 -19 9 -42 17 -53 17 -10 0 -19
4 -19 9 0 5 -12 11 -27 14 -16 3 -46 11 -68 17 -22 7 -55 14 -72 17 -18 3 -33
9 -33 14 0 5 -8 9 -17 9 -10 0 -31 7 -47 15 -15 8 -37 15 -47 15 -10 0 -20 4
-23 9 -3 5 -18 11 -33 14 -16 2 -51 14 -79 24 -28 11 -69 23 -90 27 -38 7
-118 30 -159 47 -11 4 -47 15 -80 25 -33 9 -70 20 -83 25 -13 5 -33 9 -46 9
-12 0 -31 7 -42 15 -10 8 -34 15 -51 15 -18 0 -33 4 -33 8 0 4 -37 13 -82 20
-45 6 -84 16 -87 21 -3 5 -31 11 -61 14 -30 3 -86 11 -125 17 -77 13 -260 8
-291 -8 -10 -5 -43 -21 -71 -33 -29 -13 -53 -27 -53 -31 0 -5 -7 -8 -15 -8 -8
0 -15 -4 -15 -9 0 -6 -13 -18 -29 -27 -17 -10 -28 -21 -25 -26 3 -4 1 -8 -5
-8 -5 0 -33 -30 -62 -67 -30 -38 -62 -76 -73 -86 -10 -9 -17 -20 -14 -23 3 -3
-4 -16 -17 -30 -13 -14 -33 -44 -45 -67 -34 -67 -71 -131 -84 -147 -13 -15
-24 -41 -22 -50 0 -3 -9 -16 -21 -30 -13 -13 -23 -30 -23 -37 0 -7 -4 -13 -10
-13 -5 0 -10 -7 -10 -15 0 -8 -4 -15 -10 -15 -5 0 -10 -9 -10 -20 0 -11 -4
-20 -10 -20 -5 0 -10 -7 -10 -15 0 -8 -4 -15 -10 -15 -5 0 -10 -5 -10 -11 0
-6 -9 -23 -20 -39 -11 -15 -17 -30 -13 -34 3 -3 2 -6 -4 -6 -6 0 -17 -15 -24
-32 -7 -18 -23 -44 -36 -57 -12 -14 -20 -28 -17 -33 3 -4 0 -8 -5 -8 -6 0 -11
-6 -11 -14 0 -8 -4 -16 -9 -18 -5 -1 -11 -10 -13 -18 -2 -8 -11 -23 -22 -35
-10 -11 -25 -36 -33 -55 -9 -19 -26 -48 -39 -63 -13 -16 -24 -34 -24 -41 0 -7
-9 -21 -20 -31 -11 -10 -22 -27 -26 -39 -4 -11 -29 -53 -55 -93 -27 -40 -49
-77 -49 -83 0 -5 -4 -10 -10 -10 -5 0 -10 -7 -10 -15 0 -8 -4 -15 -9 -15 -10
0 -27 -39 -23 -52 1 -5 -2 -8 -8 -8 -5 0 -21 -22 -35 -49 -13 -27 -28 -51 -33
-53 -5 -1 -28 -37 -51 -78 -24 -41 -58 -97 -76 -125 -80 -121 -105 -162 -105
-173 0 -7 -3 -12 -8 -12 -4 0 -13 -15 -21 -32 -8 -18 -17 -35 -21 -38 -17 -13
-68 -98 -63 -104 4 -3 -1 -6 -10 -6 -10 0 -16 -3 -15 -7 4 -16 -13 -51 -27
-57 -8 -3 -15 -10 -15 -17 0 -6 -25 -49 -55 -94 -30 -46 -55 -86 -55 -89 0 -3
-34 -57 -75 -120 -41 -63 -75 -119 -75 -124 0 -6 -4 -12 -8 -14 -4 -1 -20 -23
-34 -48 -14 -25 -36 -56 -48 -70 -12 -14 -34 -43 -48 -65 -14 -22 -28 -42 -31
-45 -3 -3 -19 -23 -36 -45 -16 -22 -32 -42 -35 -45 -4 -3 -25 -32 -47 -65 -23
-33 -50 -69 -60 -80 -31 -32 -90 -137 -103 -180 -6 -22 -15 -49 -20 -60 -22
-53 -32 -132 -31 -255 0 -130 16 -274 31 -295 5 -5 11 -32 16 -60 11 -77 56
-180 89 -205 30 -23 156 -90 169 -90 6 0 29 -9 51 -20 22 -11 45 -20 52 -20 7
0 13 -4 13 -8 0 -5 20 -17 45 -28 25 -10 45 -22 45 -26 0 -4 7 -8 15 -8 8 0
32 -9 52 -20 21 -11 44 -20 51 -20 16 0 75 -31 80 -42 2 -5 14 -8 27 -8 13 0
25 -3 27 -7 4 -10 110 -63 124 -63 6 0 17 -6 23 -14 7 -8 30 -17 52 -21 21 -4
39 -11 39 -15 0 -5 13 -11 30 -15 16 -4 30 -11 30 -16 0 -5 6 -9 13 -9 6 0 52
-21 101 -45 50 -25 98 -45 108 -45 10 0 18 -4 18 -10 0 -5 7 -10 15 -10 9 0
59 -23 113 -50 54 -27 103 -50 110 -50 7 0 12 -4 12 -9 0 -5 23 -14 50 -21 28
-7 53 -16 56 -21 3 -5 14 -9 25 -9 10 0 19 -4 19 -8 0 -5 19 -17 43 -27 74
-31 112 -50 115 -57 2 -5 12 -8 22 -8 10 0 22 -5 25 -10 4 -6 12 -10 18 -8 7
1 31 -8 54 -20 23 -12 47 -22 53 -22 6 0 18 -7 26 -15 9 -8 24 -15 35 -15 10
0 19 -4 19 -10 0 -5 6 -10 14 -10 7 0 34 -11 60 -25 26 -14 51 -25 56 -25 5 0
38 -13 72 -30 34 -16 67 -30 74 -30 6 0 17 -7 24 -15 7 -8 21 -15 31 -15 11 0
19 -4 19 -10 0 -5 6 -10 13 -10 7 0 40 -13 72 -30 32 -16 64 -30 71 -30 7 0
35 -11 62 -25 28 -14 55 -25 62 -25 6 0 18 -7 26 -15 9 -8 24 -15 35 -15 10 0
19 -4 19 -10 0 -5 8 -10 18 -10 10 0 22 -3 26 -8 4 -4 42 -21 84 -38 42 -17
76 -36 75 -42 -2 -6 4 -9 12 -6 8 4 40 -6 70 -20 31 -14 60 -26 65 -26 6 0 10
-4 10 -10 0 -5 9 -10 19 -10 11 0 26 -6 33 -14 8 -7 29 -17 48 -21 19 -4 41
-11 50 -16 8 -4 33 -16 55 -25 22 -9 80 -36 128 -60 49 -24 97 -44 108 -44 11
0 27 -4 37 -9 69 -35 130 -61 145 -61 9 0 17 -4 17 -10 0 -5 6 -10 14 -10 7 0
35 -10 62 -22 27 -12 69 -25 94 -30 25 -5 68 -14 95 -20 72 -15 315 -22 328
-9 6 6 29 11 52 11 73 1 164 25 183 49 9 12 29 35 44 51 15 15 25 30 23 32 -3
3 6 11 20 18 14 7 25 19 25 25 0 7 11 21 25 31 14 10 25 22 25 25 0 4 26 34
58 66 55 58 160 174 202 224 12 13 37 42 58 64 20 23 55 63 77 89 22 27 56 66
75 87 59 64 76 84 77 92 1 5 20 25 42 45 23 21 41 42 41 48 0 5 9 16 19 24 11
7 18 17 15 22 -3 4 2 8 10 8 9 0 16 7 16 15 0 8 5 15 11 15 5 0 8 4 5 8 -3 5
5 14 17 21 12 7 38 33 57 59 19 26 39 50 45 54 5 4 6 8 2 8 -12 0 20 30 32 30
5 0 12 8 15 18 4 9 21 33 39 54 17 20 46 53 62 73 17 20 40 46 53 58 12 11 22
25 22 30 0 5 12 21 28 36 42 44 72 80 72 89 0 5 14 21 30 37 17 16 30 34 30
39 0 6 9 17 20 24 11 7 20 19 20 27 0 8 14 27 30 42 17 14 28 29 25 31 -3 3
12 21 33 41 20 20 46 52 56 72 11 21 31 50 45 67 49 57 58 69 77 100 10 18 22
32 27 32 4 0 6 4 3 9 -3 4 3 16 13 25 10 9 26 34 36 56 10 22 22 40 27 40 4 0
8 7 8 15 0 8 4 15 8 15 11 0 54 89 47 100 -3 4 -1 10 3 12 10 3 50 86 82 169
12 29 25 58 30 64 4 5 11 30 15 55 4 25 12 50 17 57 6 7 12 25 14 40 2 15 11
73 19 128 25 164 24 317 -6 755 -5 69 -12 163 -15 210 -3 47 -7 155 -8 240 -2
85 -8 198 -15 250 -12 101 -38 200 -52 200 -5 0 -9 8 -9 18 0 19 -48 94 -79
122 -9 8 -41 28 -71 44 -30 16 -57 32 -60 35 -3 3 -14 11 -25 17 -28 15 -30
59 -7 113 11 25 33 81 48 124 16 42 32 77 36 77 5 0 8 7 8 15 0 9 9 35 20 57
11 23 20 45 20 50 0 7 25 67 52 125 6 11 7 26 4 32 -4 6 -2 11 3 11 6 0 11 6
11 13 0 6 9 30 19 52 38 78 68 151 85 205 10 30 21 64 26 75 19 47 52 122 65
150 26 55 44 105 39 105 -3 0 2 12 10 28 13 22 37 83 50 127 2 6 15 36 30 68
14 32 26 62 26 67 0 5 9 24 20 42 11 18 20 41 20 51 0 9 5 17 10 17 6 0 10 9
10 20 0 11 4 28 9 38 5 9 19 42 32 72 13 30 28 58 33 61 4 4 6 13 4 20 -3 8 6
30 19 49 12 19 23 49 23 67 0 17 5 35 10 38 6 3 10 17 10 31 0 13 5 24 10 24
6 0 10 6 10 14 0 8 9 31 19 53 10 21 31 70 46 108 14 39 31 77 36 85 15 26 36
73 69 155 40 100 75 179 100 228 12 23 20 59 20 87 0 27 5 61 10 76 15 38 15
536 1 562 -6 12 -11 38 -11 59 0 42 -43 161 -75 207 -33 48 -99 116 -113 116
-7 0 -15 7 -18 15 -4 8 -12 15 -20 15 -8 0 -14 3 -14 8 0 4 -8 12 -18 17 -27
15 -150 74 -191 91 -20 9 -49 21 -66 29 -16 7 -46 18 -65 25 -19 7 -44 16 -55
20 -46 18 -111 38 -125 38 -8 0 -52 10 -98 21 -74 19 -111 21 -330 20 -136 -1
-267 -6 -292 -11z m557 -89 c75 -17 157 -42 167 -51 6 -4 22 -8 36 -8 14 0 30
-4 36 -8 5 -5 34 -14 64 -22 64 -15 170 -61 277 -120 162 -89 243 -190 259
-322 5 -45 2 -65 -14 -100 -41 -90 -52 -119 -52 -138 0 -11 -4 -20 -10 -20 -5
0 -10 -8 -10 -19 0 -10 -7 -24 -15 -31 -8 -7 -17 -27 -21 -46 -3 -19 -10 -37
-15 -40 -16 -10 -9 -43 13 -58 30 -22 51 -6 77 56 34 81 43 98 56 98 27 0 26
-83 -4 -337 -6 -51 -22 -111 -41 -155 -16 -40 -30 -76 -30 -81 0 -4 -11 -25
-25 -47 -14 -22 -25 -44 -25 -50 0 -5 -11 -33 -24 -62 -13 -29 -30 -69 -37
-88 -7 -19 -29 -69 -49 -110 -31 -66 -73 -166 -75 -180 -1 -11 -29 -55 -42
-68 -7 -8 -11 -17 -8 -22 3 -5 1 -11 -5 -15 -5 -3 -10 -15 -10 -26 0 -10 -4
-19 -10 -19 -5 0 -10 -9 -10 -19 0 -11 -4 -22 -9 -25 -5 -3 -12 -22 -15 -41
-5 -22 -11 -33 -18 -29 -7 4 -8 3 -4 -4 7 -12 5 -17 -32 -89 -12 -23 -22 -49
-22 -57 0 -9 -5 -16 -11 -16 -6 0 -9 -9 -6 -20 3 -11 1 -20 -4 -20 -4 0 -13
-19 -20 -42 -6 -24 -16 -49 -21 -56 -6 -7 -8 -15 -5 -19 4 -3 -3 -21 -14 -40
-11 -18 -24 -46 -29 -61 -4 -15 -12 -26 -18 -25 -5 1 -8 -7 -5 -18 3 -12 2
-24 -3 -28 -14 -9 -34 -59 -34 -81 0 -11 -5 -20 -11 -20 -6 0 -9 -9 -6 -20 3
-11 1 -20 -4 -20 -5 0 -14 -20 -20 -45 -6 -25 -15 -42 -20 -39 -5 3 -6 -3 -2
-12 5 -13 3 -15 -7 -9 -8 5 -11 4 -7 -2 7 -11 -15 -78 -42 -126 -11 -20 -23
-52 -27 -71 -3 -20 -10 -39 -15 -42 -5 -3 -9 -14 -9 -25 0 -10 -4 -19 -9 -19
-5 0 -11 -18 -15 -40 -4 -27 -10 -39 -18 -34 -7 4 -8 3 -4 -4 4 -7 0 -22 -8
-34 -9 -12 -16 -31 -16 -41 0 -10 -11 -38 -25 -63 -14 -25 -25 -51 -25 -59 0
-8 -5 -15 -11 -15 -5 0 -9 -8 -8 -17 2 -20 -6 -45 -27 -84 -7 -14 -11 -29 -7
-33 3 -3 1 -6 -5 -6 -7 0 -12 -9 -12 -19 0 -11 -4 -23 -10 -26 -5 -3 -14 -24
-20 -45 -6 -22 -15 -40 -20 -40 -6 0 -10 -11 -10 -24 0 -13 -5 -26 -12 -28 -6
-2 -12 -13 -13 -24 -2 -18 -9 -38 -38 -109 -6 -16 -12 -34 -12 -40 -1 -5 -6
-9 -13 -8 -7 2 -9 -4 -5 -14 5 -12 3 -14 -7 -8 -8 5 -11 4 -7 -3 7 -10 -4 -39
-51 -142 -11 -25 -23 -60 -27 -77 -4 -18 -11 -33 -16 -33 -5 0 -9 -8 -9 -18 0
-10 -3 -22 -7 -26 -5 -4 -8 -11 -8 -14 -1 -15 -30 -72 -37 -72 -5 0 -8 -11 -8
-24 0 -14 -4 -28 -10 -31 -5 -3 -10 -15 -10 -26 0 -10 -3 -19 -8 -19 -8 0 -27
-42 -36 -83 -4 -17 -11 -25 -18 -21 -6 4 -8 3 -5 -3 9 -14 -27 -95 -37 -86 -4
4 -4 -1 0 -11 6 -15 4 -17 -6 -11 -8 5 -11 4 -6 -3 3 -6 -3 -28 -14 -49 -11
-21 -20 -46 -20 -56 0 -10 -7 -20 -15 -23 -9 -4 -15 -11 -14 -18 3 -14 -6 -39
-32 -91 -10 -22 -19 -45 -19 -51 0 -5 -7 -19 -16 -30 -8 -10 -12 -13 -8 -5 5
9 3 12 -5 7 -6 -4 -9 -12 -5 -17 3 -5 -1 -21 -10 -34 -9 -13 -16 -31 -16 -39
0 -8 -9 -30 -20 -49 -12 -19 -20 -39 -19 -43 2 -10 -5 -30 -32 -91 -10 -24
-19 -47 -19 -53 0 -5 -11 -30 -25 -55 -14 -25 -23 -50 -20 -55 3 -6 1 -10 -4
-10 -6 0 -11 -7 -11 -15 0 -15 -4 -24 -28 -71 -6 -12 -14 -38 -18 -58 -4 -25
-11 -36 -20 -32 -8 3 -11 0 -8 -9 3 -7 -2 -27 -10 -44 -9 -17 -16 -33 -16 -36
1 -21 -1 -25 -10 -20 -6 4 -7 -1 -3 -11 4 -11 3 -15 -4 -11 -7 5 -9 0 -6 -13
3 -11 1 -20 -5 -20 -5 0 -13 -16 -17 -36 -3 -21 -13 -47 -22 -60 -8 -13 -12
-28 -8 -34 3 -5 1 -10 -4 -10 -6 0 -11 -8 -11 -17 0 -9 -8 -35 -19 -57 -28
-61 -34 -79 -37 -101 -1 -10 -7 -21 -13 -23 -6 -2 -11 -12 -11 -23 0 -10 -4
-19 -10 -19 -5 0 -10 -9 -10 -20 0 -11 -4 -28 -9 -38 -24 -46 -46 -110 -50
-143 0 -5 -5 -7 -11 -4 -5 3 -7 0 -4 -8 3 -8 -9 -43 -25 -77 -17 -35 -31 -69
-31 -76 0 -6 -6 -17 -14 -23 -8 -7 -17 -30 -21 -52 -4 -21 -11 -39 -17 -39 -5
0 -8 -6 -5 -12 2 -7 -4 -29 -15 -48 -10 -19 -18 -40 -18 -46 0 -6 -7 -17 -15
-24 -8 -7 -15 -22 -15 -34 0 -11 -7 -32 -15 -46 -20 -34 -33 -63 -33 -74 0 -5
-5 -12 -10 -15 -6 -3 -12 -15 -14 -26 -1 -11 -11 -29 -20 -39 -10 -11 -18 -28
-18 -38 0 -10 -4 -18 -10 -18 -5 0 -10 -6 -10 -14 0 -7 -7 -19 -15 -26 -9 -7
-13 -15 -11 -18 3 -2 -8 -24 -24 -48 -17 -23 -30 -47 -30 -53 0 -6 -5 -11 -11
-11 -6 0 -9 -7 -5 -15 3 -8 1 -15 -4 -15 -6 0 -10 -7 -10 -15 0 -8 -4 -15 -10
-15 -5 0 -10 -7 -10 -15 0 -8 -4 -15 -10 -15 -5 0 -10 -6 -10 -13 0 -7 -16
-32 -35 -54 -19 -23 -35 -45 -35 -50 0 -17 -56 -73 -65 -65 -4 4 -5 1 0 -7 5
-9 -2 -21 -20 -37 -16 -13 -25 -24 -21 -24 4 0 -11 -18 -33 -40 -22 -22 -45
-40 -51 -40 -5 0 -10 -5 -10 -11 0 -6 -7 -8 -17 -5 -10 4 -14 4 -11 0 4 -3 0
-13 -8 -21 -21 -22 -124 -73 -146 -73 -10 0 -18 -4 -18 -9 0 -5 -11 -12 -25
-15 -14 -4 -25 -11 -25 -16 0 -6 -9 -10 -19 -10 -11 0 -23 -4 -26 -10 -3 -5
-42 -10 -85 -10 -43 0 -82 5 -85 10 -3 6 -27 10 -53 10 -26 0 -56 7 -66 15
-11 8 -37 15 -58 15 -21 0 -38 4 -38 8 0 5 -26 13 -57 19 -62 11 -191 57 -207
73 -6 6 -20 10 -33 10 -13 0 -23 5 -23 10 0 6 -7 10 -16 10 -9 0 -28 6 -42 14
-41 22 -99 46 -110 46 -5 0 -46 18 -91 40 -44 22 -85 40 -90 40 -5 0 -14 7
-21 15 -7 8 -21 15 -31 15 -11 0 -19 4 -19 9 0 5 -13 12 -30 16 -16 4 -44 16
-62 28 -18 12 -46 29 -63 37 -29 14 -62 44 -95 86 -15 18 -50 101 -50 117 0
11 49 -19 85 -50 7 -7 18 -13 24 -13 6 0 11 -4 11 -10 0 -5 9 -10 19 -10 11 0
21 -5 23 -11 2 -5 10 -11 18 -13 25 -5 70 -25 70 -31 0 -4 -5 -3 -12 1 -7 4
-8 3 -4 -5 4 -6 12 -9 18 -5 8 5 73 -21 88 -36 11 -11 131 -65 175 -78 17 -5
29 -14 28 -20 -1 -5 6 -8 16 -5 9 2 44 -8 77 -22 32 -15 68 -30 79 -35 11 -4
37 -15 58 -24 21 -9 48 -16 60 -16 13 0 28 -5 34 -11 6 -6 26 -12 45 -14 19
-2 65 -11 103 -20 78 -20 299 -24 331 -7 10 6 45 15 77 22 31 6 57 15 57 18 0
4 20 16 44 27 24 11 42 23 40 27 -3 5 3 8 12 8 10 0 15 3 12 6 -7 6 72 84 84
84 5 0 8 7 8 15 0 8 7 15 16 15 8 0 12 5 9 10 -3 5 -3 10 2 10 4 0 19 18 33
40 13 22 28 40 32 40 4 0 8 6 8 13 0 7 9 19 20 27 11 8 20 20 20 27 0 7 5 13
10 13 6 0 10 7 10 15 0 8 4 15 9 15 5 0 11 8 15 18 5 17 26 52 36 62 3 3 12
19 20 35 8 17 23 39 33 49 9 11 17 26 17 33 0 7 5 13 10 13 6 0 10 9 10 19 0
11 5 21 11 23 5 2 11 10 12 18 2 8 6 21 11 28 4 7 5 16 2 19 -3 3 4 14 15 24
11 9 21 27 22 38 1 12 5 21 9 21 4 0 8 8 8 17 0 9 6 24 13 32 7 9 22 36 32 61
10 25 25 53 33 63 8 9 12 17 9 17 -4 0 2 16 13 35 11 20 20 42 20 50 0 8 5 15
10 15 6 0 10 11 10 25 0 14 3 25 8 25 4 0 18 27 32 60 14 33 29 60 34 60 4 0
6 9 3 20 -3 13 0 20 10 20 9 0 13 6 10 15 -4 8 -2 17 3 20 6 4 10 14 10 23 0
9 9 28 20 42 11 14 20 34 20 46 0 11 9 30 19 41 11 11 25 40 32 64 7 24 16 46
20 49 4 3 14 26 22 51 16 47 40 98 83 181 13 26 23 50 22 55 -1 4 6 24 17 43
11 19 20 37 20 40 0 3 6 14 12 25 6 11 14 35 18 52 3 18 11 33 17 33 6 0 8 8
6 18 -3 10 1 24 9 31 8 7 12 19 9 27 -3 8 1 14 10 14 9 0 14 7 13 17 -2 10 5
33 14 50 10 18 16 35 15 37 -2 2 6 13 16 25 11 12 16 21 12 21 -4 0 -1 12 7
28 28 52 66 150 60 156 -3 3 2 8 11 12 9 3 16 12 16 20 0 8 4 22 10 32 9 15
32 69 34 82 1 3 13 30 27 60 14 30 29 68 33 85 4 16 12 33 18 36 6 4 12 16 13
26 0 11 13 42 28 70 14 28 23 53 20 57 -4 3 -2 6 4 6 6 0 19 27 29 60 10 33
21 60 26 60 4 0 8 7 8 15 0 8 5 24 10 35 6 11 15 29 20 40 6 12 8 25 5 30 -3
4 -2 10 2 12 9 4 59 103 52 103 -2 1 4 13 14 29 10 15 16 34 13 42 -3 8 -1 14
4 14 6 0 10 8 10 19 0 10 7 24 15 31 8 7 13 16 10 20 -3 5 -1 11 5 15 5 3 10
15 10 26 0 10 5 19 11 19 6 0 8 7 5 15 -3 9 1 18 9 21 8 4 15 17 15 29 0 13 5
25 11 27 6 2 13 16 14 31 2 14 10 41 19 58 9 18 16 38 16 46 0 7 5 13 11 13 6
0 9 7 5 15 -3 8 2 19 11 23 10 6 14 16 10 26 -4 9 -3 16 1 16 9 0 36 60 35 78
-1 6 2 12 6 12 8 0 36 71 33 83 -1 4 2 7 6 7 5 0 14 19 21 43 7 23 22 59 32
80 10 22 19 47 19 58 0 10 5 19 10 19 6 0 10 11 10 24 0 14 5 28 10 31 6 4 8
10 5 15 -3 4 2 13 10 20 8 7 15 20 15 30 0 10 11 42 25 72 14 29 25 61 25 71
0 9 5 17 11 17 5 0 7 5 4 10 -3 6 -1 10 6 10 7 0 9 10 7 25 -3 14 -2 25 1 25
8 0 36 71 33 83 -1 4 2 7 8 7 5 0 10 11 10 25 0 14 4 25 8 25 5 0 15 19 22 43
7 23 16 44 20 47 5 3 11 17 13 30 2 14 7 34 11 45 5 11 10 27 14 35 3 8 6 17
7 20 9 25 27 68 35 83 6 10 8 22 5 27 -4 6 2 10 11 10 10 0 15 3 11 6 -3 4 0
19 8 35 8 15 15 36 15 46 0 10 9 36 20 57 10 22 17 43 14 47 -3 5 0 9 5 9 6 0
11 11 11 25 0 14 5 25 11 25 6 0 9 6 6 13 -2 6 6 31 19 55 13 23 21 42 18 42
-4 0 -1 7 6 15 7 8 10 15 6 15 -3 0 3 16 14 35 11 20 20 44 20 55 0 11 5 20
10 20 6 0 10 10 10 23 0 12 7 36 16 52 9 17 18 44 20 60 4 27 25 89 56 165 6
14 15 35 19 48 5 12 13 32 18 45 6 12 20 47 31 77 12 30 29 73 38 95 10 21 17
42 18 45 0 3 8 22 17 42 10 21 17 41 17 46 0 4 9 27 20 50 11 22 20 59 20 82
0 36 -2 40 -26 40 -25 0 -56 -22 -52 -37 1 -4 -6 -25 -15 -47 -9 -21 -17 -42
-17 -46 0 -4 -6 -20 -14 -36 -21 -45 -52 -118 -75 -176 -4 -13 -18 -44 -30
-71 -11 -26 -21 -53 -21 -60 0 -7 -9 -30 -19 -51 -11 -21 -23 -51 -26 -68 -8
-34 -56 -131 -67 -136 -5 -2 -8 -11 -8 -19 0 -9 -11 -40 -25 -70 -14 -29 -23
-58 -20 -63 3 -6 1 -10 -4 -10 -6 0 -11 -8 -11 -18 0 -10 -4 -22 -8 -28 -4 -5
-16 -34 -26 -64 -10 -30 -25 -70 -33 -89 -9 -19 -19 -46 -23 -60 -4 -14 -12
-25 -18 -24 -6 2 -9 -3 -6 -11 3 -8 -4 -31 -15 -52 -12 -21 -21 -49 -21 -61 0
-13 -5 -23 -11 -23 -5 0 -8 -4 -5 -8 3 -5 -1 -19 -7 -33 -7 -13 -18 -43 -25
-67 -7 -23 -16 -41 -20 -38 -4 3 -9 -6 -10 -19 -1 -13 -14 -50 -28 -82 -21
-46 -73 -185 -89 -238 -13 -43 -18 -55 -25 -55 -5 0 -14 -22 -21 -50 -7 -27
-16 -50 -21 -50 -4 0 -8 -11 -8 -24 0 -13 -7 -29 -15 -36 -9 -7 -14 -19 -11
-26 3 -7 1 -16 -5 -20 -6 -3 -8 -11 -6 -17 2 -7 -5 -30 -17 -52 -11 -22 -21
-47 -21 -55 -1 -8 -6 -14 -13 -13 -7 2 -9 -4 -5 -14 4 -10 2 -14 -4 -10 -7 5
-9 0 -6 -13 3 -11 0 -20 -6 -20 -6 0 -11 -7 -11 -16 0 -8 -13 -43 -29 -77 -16
-34 -32 -77 -36 -94 -4 -18 -10 -33 -14 -33 -4 0 -13 -23 -20 -50 -7 -28 -17
-48 -22 -44 -5 3 -9 -6 -9 -20 0 -14 -4 -26 -10 -26 -5 0 -10 -9 -10 -20 0
-11 -13 -45 -29 -77 -16 -32 -33 -75 -36 -95 -4 -21 -11 -38 -15 -38 -4 0 -14
-20 -21 -45 -9 -30 -18 -44 -27 -40 -7 3 -10 0 -7 -5 7 -12 -34 -121 -49 -132
-5 -3 -10 -14 -11 -25 -4 -35 -36 -113 -46 -113 -5 0 -9 -9 -9 -19 0 -28 -11
-52 -21 -45 -5 3 -6 -3 -2 -12 4 -12 3 -15 -5 -10 -8 4 -10 2 -6 -8 3 -8 0
-25 -7 -38 -7 -13 -12 -26 -11 -30 1 -3 -5 -12 -13 -18 -8 -7 -15 -18 -15 -25
0 -7 -7 -26 -15 -41 -8 -16 -15 -39 -15 -51 0 -13 -4 -23 -8 -23 -4 0 -14 -17
-22 -37 -17 -47 -16 -43 -25 -70 -4 -13 -11 -23 -15 -23 -5 0 -14 -22 -21 -50
-7 -28 -16 -50 -20 -50 -3 0 -14 -26 -24 -57 -10 -32 -22 -62 -28 -68 -7 -7
-7 -5 -2 4 5 9 4 12 -3 7 -6 -4 -9 -13 -6 -21 3 -7 0 -24 -7 -37 -7 -13 -14
-25 -14 -28 0 -3 -13 -29 -28 -58 -15 -30 -27 -60 -27 -67 0 -8 -6 -20 -13
-27 -8 -7 -17 -27 -21 -43 -9 -39 -88 -219 -98 -223 -5 -2 -8 -12 -8 -22 0
-10 -4 -22 -10 -25 -5 -3 -10 -15 -10 -26 0 -10 -5 -19 -11 -19 -6 0 -9 -9 -6
-20 3 -11 2 -20 -2 -20 -4 0 -13 -17 -20 -38 -8 -20 -21 -48 -30 -61 -8 -13
-17 -33 -18 -45 -2 -11 -8 -25 -13 -30 -6 -6 -10 -17 -10 -26 0 -8 -9 -26 -20
-40 -11 -14 -20 -33 -20 -42 0 -10 -4 -18 -9 -18 -7 0 -19 -35 -25 -75 -1 -5
-7 -9 -14 -8 -7 2 -9 -4 -5 -14 5 -12 3 -14 -7 -8 -8 5 -11 4 -6 -3 4 -6 3
-19 -2 -29 -62 -128 -112 -242 -118 -272 -1 -7 -8 -19 -15 -25 -9 -8 -10 -8
-4 3 5 10 4 12 -4 7 -6 -4 -9 -12 -5 -17 3 -6 -16 -54 -42 -107 -27 -53 -49
-99 -49 -102 -2 -14 -40 -106 -45 -110 -7 -5 -33 -50 -36 -60 -3 -14 -18 -46
-24 -50 -10 -8 -40 -72 -40 -85 0 -7 -7 -18 -15 -25 -8 -7 -15 -21 -15 -32 0
-12 -4 -17 -12 -12 -6 4 -8 3 -5 -4 7 -10 -41 -92 -54 -92 -7 0 -44 -72 -40
-79 2 -2 -2 -7 -7 -10 -5 -3 -42 -49 -82 -101 -39 -52 -78 -99 -86 -103 -8 -4
-14 -15 -14 -24 0 -10 -5 -13 -17 -9 -10 4 -15 4 -11 1 9 -9 -32 -49 -67 -67
-16 -8 -46 -24 -65 -35 -20 -11 -49 -23 -65 -26 -145 -26 -157 -27 -217 -16
-35 6 -79 13 -98 16 -19 3 -39 9 -45 13 -5 4 -26 11 -45 15 -19 4 -39 11 -45
15 -5 4 -32 11 -59 15 -27 3 -56 11 -65 15 -17 10 -43 20 -164 70 -43 17 -94
40 -112 50 -18 10 -50 22 -69 26 -20 3 -33 10 -30 15 3 5 -8 12 -25 15 -17 4
-31 10 -31 15 0 5 -9 9 -20 9 -11 0 -20 4 -20 9 0 5 -8 11 -17 14 -36 12 -142
75 -136 81 4 3 -2 6 -12 6 -10 0 -33 11 -51 25 -18 14 -37 25 -42 25 -5 0 -15
11 -22 25 -7 14 -17 25 -21 25 -9 0 -27 54 -30 90 -1 14 1 54 6 90 5 36 8 68
7 73 -1 4 3 7 8 7 6 0 10 15 10 33 -2 44 65 258 83 265 4 2 7 13 7 24 0 10 7
27 16 35 8 9 13 24 11 34 -3 10 -1 19 4 21 5 2 10 12 12 23 9 45 20 75 28 75
5 0 9 6 9 13 0 6 12 35 25 62 14 28 25 58 25 68 0 9 4 17 8 17 8 0 23 26 33
55 1 6 8 21 15 34 7 14 11 28 8 33 -3 4 -1 8 5 8 12 0 82 141 75 152 -3 4 -1
8 4 8 9 0 21 33 21 53 0 5 8 15 18 23 10 7 14 14 9 14 -5 0 -1 9 8 19 10 10
16 25 15 33 -3 13 59 148 72 158 4 3 10 20 14 38 3 17 11 32 16 32 4 0 16 25
24 55 9 30 23 62 32 70 8 9 13 25 10 35 -3 11 -1 20 4 20 5 0 11 11 15 25 3
14 9 25 13 25 6 0 11 11 45 93 6 15 14 27 18 27 5 0 8 9 8 19 0 11 5 23 10 26
6 3 10 14 10 23 0 10 9 34 19 54 11 19 17 39 14 42 -4 3 -1 6 5 6 7 0 12 6 12
14 0 16 35 91 82 174 10 19 17 41 14 48 -3 8 -1 14 4 14 6 0 10 5 10 12 0 6 6
19 13 27 7 9 19 34 26 56 8 22 18 43 23 46 5 3 11 19 14 35 3 16 9 31 15 32 5
2 9 9 9 17 0 7 7 18 15 25 8 6 14 15 13 18 -5 17 66 179 83 192 4 3 8 14 11
25 2 11 3 -20 3 -68 0 -64 4 -90 14 -96 7 -5 11 -14 7 -20 -4 -6 -1 -9 7 -5 8
3 17 -2 20 -10 4 -9 13 -16 22 -16 8 0 15 -4 15 -10 0 -5 9 -10 20 -10 11 0
20 -4 20 -9 0 -4 36 -16 80 -25 44 -10 78 -21 76 -25 -8 -13 119 6 151 22 55
29 87 87 85 157 -1 85 -20 131 -61 150 -14 7 -34 16 -43 21 -10 5 -23 9 -29 9
-6 0 -25 6 -42 14 -55 23 -164 56 -186 56 -22 0 -55 -16 -79 -37 -7 -7 -18
-13 -23 -13 -6 0 -8 -3 -6 -7 3 -5 -4 -17 -14 -27 -18 -19 -28 -10 -11 9 4 6
16 35 27 65 10 30 31 79 47 108 15 29 28 59 28 66 0 8 6 16 13 19 10 4 31 52
42 97 1 3 15 34 32 69 18 36 30 68 27 73 -3 4 -1 8 4 8 15 0 20 -35 7 -47 -7
-7 -16 -34 -20 -62 -10 -72 6 -131 45 -171 14 -13 14 -14 0 -5 -13 9 -13 8 -2
-7 8 -9 20 -14 28 -11 8 3 14 1 14 -4 0 -5 20 -17 45 -27 25 -11 45 -23 45
-28 0 -4 10 -8 23 -8 26 0 159 -44 153 -51 -2 -2 9 -5 25 -6 16 -1 37 -9 45
-18 9 -8 23 -15 33 -15 9 0 21 -4 27 -8 5 -5 35 -17 67 -27 31 -11 57 -23 57
-28 0 -5 14 -7 30 -5 20 3 29 1 27 -6 -3 -6 7 -12 22 -12 35 -2 107 -31 104
-42 -1 -6 7 -8 17 -5 11 3 31 -2 45 -11 13 -9 33 -16 45 -16 11 0 20 -4 20
-10 0 -5 9 -10 20 -10 11 0 28 -5 38 -10 9 -6 42 -16 72 -24 30 -8 54 -19 53
-24 -1 -5 6 -8 15 -5 10 2 31 -3 47 -11 17 -9 36 -16 43 -16 7 0 11 -4 8 -8
-6 -10 16 -12 141 -12 56 0 110 4 120 9 10 5 33 15 52 22 49 18 91 65 100 111
1 4 19 42 41 84 22 41 38 80 35 85 -4 5 -2 9 4 9 5 0 15 17 21 38 6 20 15 46
19 57 5 11 14 33 20 48 6 15 11 41 11 58 0 26 -6 33 -52 54 -29 14 -61 25 -70
25 -9 0 -20 5 -23 10 -3 6 -15 10 -27 10 -11 0 -32 6 -46 14 -26 13 -52 21
-137 44 -22 6 -79 23 -127 37 -62 19 -98 25 -123 21 -19 -4 -34 -10 -33 -14 3
-10 -36 -102 -43 -102 -4 0 -12 -20 -19 -45 -7 -25 -17 -45 -21 -45 -5 0 -9
-7 -9 -15 0 -8 -4 -15 -9 -15 -21 0 -156 34 -161 40 -3 4 -18 10 -35 12 -30 5
-127 38 -197 67 -28 11 -38 21 -38 37 0 13 5 26 10 29 6 3 10 19 10 36 0 16 5
29 10 29 6 0 10 8 10 19 0 10 7 35 16 56 22 55 12 87 -36 108 -22 9 -47 17
-54 17 -8 0 -17 4 -20 9 -3 5 -31 12 -61 16 -31 3 -68 13 -83 21 -15 7 -34 14
-42 14 -8 0 -40 9 -70 20 -30 11 -74 20 -98 20 -32 0 -41 3 -35 13 4 6 8 14 9
17 11 37 18 50 25 50 5 0 9 8 9 18 0 10 5 23 12 30 7 7 8 12 3 12 -4 0 0 9 10
20 10 11 15 23 12 26 -3 3 5 24 19 45 14 22 22 44 19 49 -4 6 -1 10 4 10 6 0
11 6 11 14 0 8 6 21 14 28 7 8 17 29 21 46 3 18 11 32 15 32 5 0 14 18 20 41
6 22 20 55 31 72 10 18 19 38 19 45 0 8 18 52 41 98 22 46 38 88 34 94 -3 5 0
10 8 10 8 0 21 24 31 58 10 31 27 77 38 102 33 74 54 121 87 191 16 36 32 77
35 91 2 15 11 37 19 50 8 12 18 37 22 53 3 17 12 37 19 45 11 14 24 53 60 175
18 63 56 167 66 180 4 6 11 26 15 45 4 19 14 44 21 55 8 11 14 27 14 37 0 27
52 178 62 178 4 0 8 7 8 15 0 8 9 34 19 58 11 23 25 59 32 80 7 20 17 37 21
37 4 0 8 7 8 16 0 9 20 58 45 110 25 51 45 98 45 103 0 6 6 14 13 18 7 4 19
27 25 50 7 23 19 49 27 57 8 8 15 19 15 24 0 6 16 39 35 74 19 34 45 83 57
108 13 25 26 47 29 50 3 3 16 28 28 55 13 28 26 52 30 55 8 6 25 34 51 83 11
20 24 37 29 37 5 0 12 13 16 28 5 24 17 42 65 99 5 7 10 16 10 21 0 5 12 22
28 39 15 16 36 42 48 56 26 35 108 67 199 78 39 5 75 11 80 13 24 10 438 5
482 -5z m-3802 -2764 c33 -8 75 -14 93 -15 18 0 31 -3 29 -7 -3 -5 11 -9 31
-10 21 -2 46 -7 57 -12 30 -14 172 -50 308 -78 15 -3 30 -9 33 -14 3 -5 17 -9
32 -9 15 -1 38 -7 52 -15 14 -8 35 -14 48 -15 12 0 22 -4 22 -9 0 -5 15 -11
33 -14 60 -10 127 -30 127 -39 0 -4 10 -8 22 -8 39 0 138 -32 131 -43 -3 -6
-1 -7 5 -3 16 10 113 -24 105 -37 -3 -5 -1 -7 5 -3 6 3 30 0 54 -9 24 -8 51
-15 61 -15 9 0 17 -4 17 -9 0 -5 18 -12 40 -16 22 -4 40 -10 40 -15 0 -4 20
-11 45 -15 29 -4 43 -10 39 -17 -4 -7 -2 -8 4 -4 20 12 54 -13 50 -37 -2 -12
-8 -21 -14 -20 -5 1 -11 -9 -12 -22 -1 -13 -15 -47 -32 -76 -17 -28 -29 -58
-26 -65 3 -8 1 -14 -4 -14 -5 0 -12 -11 -16 -25 -3 -14 -10 -25 -14 -25 -4 0
-13 -20 -20 -45 -7 -24 -16 -42 -21 -39 -5 3 -6 -2 -3 -10 3 -9 -4 -27 -15
-42 -12 -15 -21 -35 -21 -45 0 -11 -4 -19 -10 -19 -5 0 -10 -9 -10 -20 0 -11
-7 -23 -15 -26 -8 -4 -15 -15 -15 -27 0 -19 -15 -55 -76 -183 -13 -28 -24 -56
-24 -61 0 -6 -6 -16 -14 -22 -8 -7 -17 -24 -21 -39 -3 -14 -20 -56 -37 -92
-16 -36 -35 -76 -41 -90 -7 -14 -15 -27 -19 -30 -4 -3 -9 -15 -11 -25 -2 -11
-20 -53 -40 -94 -20 -41 -37 -78 -37 -84 0 -5 -18 -44 -40 -88 -22 -44 -40
-80 -39 -82 2 -8 -22 -56 -31 -62 -5 -3 -8 -11 -5 -16 4 -5 1 -9 -4 -9 -6 0
-11 -9 -11 -19 0 -11 -5 -23 -10 -26 -6 -4 -8 -11 -5 -16 4 -5 2 -9 -4 -9 -6
0 -14 -12 -17 -27 -4 -16 -19 -53 -34 -83 -16 -30 -40 -84 -55 -120 -42 -98
-64 -147 -106 -237 -22 -44 -39 -86 -39 -91 0 -25 -48 -22 -100 5 -14 7 -32
13 -40 13 -9 0 -20 4 -25 8 -6 5 -30 15 -55 22 -25 8 -51 18 -58 23 -6 5 -38
15 -70 23 -75 17 -132 37 -132 46 0 5 -11 8 -25 8 -14 0 -33 4 -43 9 -40 22
-86 41 -99 41 -7 0 -22 5 -33 10 -11 6 -29 15 -40 20 -11 6 -33 10 -50 10 -16
0 -30 5 -30 10 0 6 -8 10 -17 10 -23 0 -117 33 -121 43 -2 4 -17 7 -33 7 -16
0 -29 5 -29 10 0 6 -7 10 -15 10 -8 0 -31 7 -52 16 -64 28 -76 32 -133 45 -30
7 -59 16 -65 19 -5 4 -30 13 -55 20 -25 8 -54 20 -65 27 -11 7 -27 13 -36 13
-11 0 -28 25 -49 73 -40 87 -46 168 -17 232 32 68 132 270 137 275 3 3 13 21
22 40 30 59 82 153 109 195 14 22 33 56 42 75 22 44 34 63 75 121 17 26 32 54
32 63 0 9 4 16 9 16 5 0 21 25 36 55 16 30 35 63 44 73 23 26 54 73 71 107 8
17 17 32 20 35 3 3 34 44 68 92 86 120 94 125 173 117 75 -8 150 -26 164 -40
5 -5 26 -9 47 -9 21 0 38 -4 38 -9 0 -5 18 -12 40 -16 22 -4 42 -11 46 -16 3
-5 16 -9 29 -9 13 0 27 -4 30 -10 3 -5 16 -10 28 -10 13 0 32 -7 45 -15 12 -9
27 -15 34 -14 7 1 20 0 28 -3 8 -3 35 -12 60 -21 25 -8 61 -21 80 -28 49 -17
80 -29 115 -44 17 -8 48 -19 70 -26 22 -6 49 -15 60 -19 11 -5 36 -13 55 -20
19 -7 44 -16 55 -20 152 -59 177 -69 197 -80 10 -6 25 -10 33 -10 8 0 15 -4
15 -10 0 -16 67 -12 84 6 17 16 21 52 8 69 -16 22 -64 46 -107 52 -25 3 -50
12 -56 19 -6 8 -22 14 -35 14 -12 0 -26 5 -29 10 -3 6 -15 10 -26 10 -10 0
-19 5 -19 10 0 6 -6 10 -13 10 -8 0 -54 18 -104 39 -50 22 -111 43 -137 46
-26 4 -53 14 -61 21 -7 8 -22 14 -33 14 -10 0 -22 3 -25 7 -8 8 -130 52 -167
60 -14 3 -30 10 -36 15 -10 7 -40 15 -174 45 -14 3 -30 9 -35 14 -6 4 -46 17
-90 29 -106 29 -98 27 -197 45 -81 16 -88 16 -125 -1 -39 -18 -46 -25 -98 -89
-16 -20 -38 -46 -47 -57 -10 -12 -18 -27 -18 -33 0 -7 -8 -19 -17 -26 -15 -12
-16 -12 -8 1 4 8 4 12 0 7 -5 -4 -10 -15 -11 -25 -2 -9 -8 -18 -13 -20 -6 -2
-11 -9 -11 -16 0 -7 -8 -21 -18 -32 -9 -10 -23 -30 -30 -44 -7 -14 -20 -37
-30 -51 -9 -15 -30 -48 -46 -75 -17 -27 -42 -65 -58 -84 -15 -19 -28 -41 -28
-48 0 -20 -46 -83 -54 -75 -4 4 -4 0 -1 -9 4 -10 -11 -41 -39 -83 -25 -36 -46
-70 -46 -74 0 -18 -63 -121 -71 -116 -5 4 -6 -1 -3 -9 3 -8 -4 -29 -15 -45
-12 -16 -21 -34 -21 -40 0 -6 -4 -11 -10 -11 -5 0 -10 -9 -10 -20 0 -11 -4
-20 -10 -20 -5 0 -10 -9 -10 -20 0 -11 -4 -20 -8 -20 -5 0 -17 -25 -28 -55
-11 -33 -23 -54 -30 -51 -7 3 -10 -3 -7 -15 3 -11 -1 -27 -10 -37 -8 -9 -19
-30 -23 -47 -4 -16 -10 -34 -14 -40 -15 -20 -20 -82 -11 -125 18 -81 37 -140
49 -152 7 -7 12 -20 12 -30 0 -10 4 -18 10 -18 5 0 12 -11 16 -24 4 -17 19
-30 45 -40 22 -9 38 -20 35 -24 -3 -5 7 -7 22 -4 17 2 47 -6 76 -22 27 -14 59
-26 70 -26 12 0 26 -4 31 -9 11 -9 89 -36 152 -51 23 -6 45 -15 48 -20 3 -6
17 -10 31 -10 14 0 23 -3 21 -7 -3 -5 11 -9 31 -11 21 -1 39 -7 40 -12 2 -6
10 -10 17 -10 8 0 29 -6 47 -14 18 -8 59 -22 91 -32 31 -10 57 -21 57 -25 0
-3 20 -9 44 -12 39 -6 87 -22 138 -48 10 -5 24 -9 32 -9 8 0 43 -12 78 -26
121 -50 133 -54 170 -60 15 -3 55 -16 89 -30 35 -13 68 -24 74 -24 19 0 10
-63 -18 -122 -15 -31 -27 -62 -27 -67 0 -6 -4 -11 -10 -11 -5 0 -12 -11 -16
-25 -3 -14 -10 -25 -14 -25 -5 0 -11 -18 -15 -40 -4 -22 -11 -42 -16 -46 -5
-3 -9 -14 -9 -25 0 -10 -4 -19 -10 -19 -5 0 -10 -9 -10 -19 0 -11 -3 -21 -8
-23 -9 -4 -88 -163 -97 -197 -4 -13 -20 -46 -36 -73 -16 -27 -29 -55 -29 -62
0 -8 -7 -19 -15 -26 -8 -7 -14 -18 -13 -24 1 -6 -10 -36 -24 -67 -15 -31 -30
-71 -33 -89 -3 -18 -12 -45 -20 -59 -8 -14 -19 -45 -25 -69 -7 -28 -15 -40
-23 -36 -7 4 -9 4 -5 0 3 -4 0 -28 -7 -54 -8 -25 -12 -49 -9 -53 2 -4 0 -10
-5 -13 -4 -3 -11 -25 -15 -48 -4 -23 -12 -49 -19 -57 -16 -19 -17 -438 -1
-449 6 -4 17 -25 24 -47 7 -22 19 -49 27 -61 7 -11 10 -24 6 -29 -5 -4 -2 -5
5 -1 8 5 17 -2 25 -21 18 -42 59 -93 74 -93 7 0 13 -4 13 -9 0 -5 9 -11 21
-14 12 -3 18 -10 14 -16 -4 -7 0 -8 11 -4 13 5 15 3 9 -7 -5 -9 -4 -11 4 -6 6
4 23 -1 39 -12 15 -11 37 -23 50 -26 12 -4 22 -12 22 -17 0 -5 7 -9 15 -9 8 0
29 -9 47 -20 18 -11 40 -20 49 -20 19 0 76 -28 84 -41 4 -5 15 -9 26 -9 10 0
19 -4 19 -10 0 -5 6 -10 12 -10 7 0 35 -11 63 -24 45 -22 81 -37 95 -41 47
-11 60 -17 55 -24 -3 -5 4 -7 15 -4 11 3 20 0 20 -6 0 -6 12 -11 26 -11 24 0
58 -22 49 -32 -3 -3 8 -3 24 0 16 2 32 -1 35 -7 4 -6 17 -11 30 -11 12 0 26
-3 30 -7 13 -13 87 -33 196 -54 229 -44 321 -44 411 3 25 12 70 35 99 50 30
16 61 28 71 28 9 0 19 7 23 15 3 8 13 15 21 15 9 0 13 4 10 10 -3 6 1 10 9 10
9 0 16 4 16 8 0 5 12 15 27 23 28 14 68 49 57 49 -3 0 11 16 30 35 20 19 34
35 31 35 -3 0 13 18 35 41 22 23 37 45 34 50 -3 5 2 9 10 9 9 0 16 7 16 15 0
8 5 15 10 15 6 0 10 6 10 14 0 8 8 21 19 28 10 7 22 24 26 38 4 13 14 30 21
38 8 7 12 18 9 23 -4 5 -1 9 4 9 6 0 11 5 11 10 0 6 11 23 24 37 14 15 23 30
20 35 -3 4 0 8 5 8 6 0 11 6 11 13 0 18 24 67 33 67 4 0 7 7 7 15 0 8 5 15 10
15 6 0 10 9 10 19 0 11 5 23 10 26 6 4 8 11 5 16 -4 5 -1 9 5 9 5 0 18 17 28
38 9 20 20 39 23 42 3 3 9 19 13 35 8 32 66 157 78 165 4 3 9 17 12 32 2 14
18 57 35 96 17 39 31 75 31 81 0 6 9 28 20 48 11 21 20 46 20 56 0 10 7 20 15
23 8 4 15 17 15 29 0 13 4 26 9 29 5 3 12 23 16 43 4 21 13 45 21 54 8 9 14
20 13 25 -1 5 2 20 8 34 6 14 18 43 27 64 9 22 14 41 12 44 -3 2 6 24 19 48
14 25 24 48 23 52 -2 14 24 72 33 72 5 0 9 8 9 18 0 10 3 22 7 26 4 3 8 12 10
19 8 36 42 134 64 181 6 13 8 29 5 35 -4 6 0 11 8 11 9 0 16 8 16 19 0 11 4
23 10 26 6 3 10 17 10 30 0 13 5 27 10 30 6 4 8 11 5 16 -4 5 -1 9 4 9 6 0 10
3 9 8 -1 8 9 39 23 64 5 10 9 25 9 33 0 8 5 15 11 15 6 0 9 9 6 20 -3 11 -2
20 1 20 8 0 37 59 37 75 1 15 37 88 53 107 8 9 12 23 10 30 -3 7 2 19 9 27 8
7 12 19 9 27 -3 7 -2 14 3 16 10 4 51 94 51 112 0 8 5 18 10 21 6 4 9 9 6 13
-2 4 5 21 15 37 34 56 69 137 63 146 -3 5 0 9 5 9 6 0 11 8 11 19 0 10 7 24
15 31 9 7 14 19 11 27 -3 7 -1 13 4 13 6 0 10 9 10 19 0 11 5 23 10 26 6 4 8
11 5 16 -4 5 -2 9 2 9 8 0 47 76 42 82 -1 2 8 22 20 45 11 23 21 49 21 58 0 8
5 15 11 15 6 0 9 7 5 15 -3 8 -1 15 5 15 6 0 7 5 4 10 -3 6 -1 10 6 10 7 0 10
3 6 6 -3 3 5 24 19 45 13 21 23 42 22 46 0 5 15 43 35 86 21 43 37 87 37 98 0
10 5 19 11 19 6 0 9 8 7 18 -3 11 2 23 13 30 21 13 52 5 42 -11 -3 -5 -1 -7 4
-4 25 16 173 -85 173 -117 0 -8 4 -16 9 -18 5 -1 11 -10 13 -18 2 -8 6 -18 11
-21 16 -12 44 -433 30 -452 -6 -6 -13 -31 -17 -55 -3 -24 -10 -51 -15 -60 -10
-18 -38 -92 -40 -104 -1 -5 -1 -13 -1 -19 0 -5 -5 -7 -12 -3 -6 4 -8 3 -4 -4
3 -6 -12 -37 -34 -70 -21 -33 -41 -66 -42 -74 -2 -7 -5 -15 -8 -18 -3 -3 -15
-26 -28 -52 -13 -27 -26 -48 -28 -48 -3 0 -2 5 2 12 4 7 3 8 -4 4 -6 -4 -9
-13 -6 -21 3 -8 -8 -34 -25 -59 -17 -24 -31 -49 -31 -55 0 -5 -8 -15 -17 -20
-10 -6 -15 -11 -11 -11 3 0 -7 -27 -23 -60 -16 -34 -34 -58 -39 -55 -5 3 -7 0
-4 -8 3 -8 -2 -20 -11 -27 -8 -7 -15 -17 -15 -22 0 -14 -112 -212 -122 -216
-4 -2 -8 -12 -8 -23 0 -10 -3 -19 -8 -19 -4 0 -14 -15 -22 -32 -7 -18 -22 -41
-31 -52 -10 -10 -21 -32 -24 -47 -4 -16 -10 -29 -13 -29 -4 0 -13 -15 -21 -32
-8 -18 -27 -52 -43 -75 -15 -23 -28 -46 -28 -51 0 -6 -7 -13 -16 -16 -9 -4
-14 -13 -10 -21 3 -8 2 -15 -2 -15 -4 0 -18 -20 -31 -45 -13 -24 -27 -42 -31
-40 -5 3 -6 -3 -3 -14 3 -10 -1 -22 -8 -26 -8 -6 -10 -4 -4 6 5 8 4 10 0 6 -5
-4 -10 -15 -11 -25 -2 -9 -8 -18 -13 -20 -6 -2 -11 -10 -11 -18 0 -8 -9 -24
-20 -36 -11 -12 -19 -27 -18 -32 3 -26 -59 -129 -73 -120 -5 3 -6 -1 -3 -9 3
-8 1 -18 -5 -21 -6 -4 -20 -28 -31 -54 -11 -25 -25 -49 -31 -52 -5 -4 -12 -17
-14 -30 -2 -13 -10 -28 -16 -34 -9 -8 -10 -7 -4 4 5 8 4 11 0 7 -5 -4 -10 -13
-11 -20 -1 -7 -15 -35 -32 -62 -16 -28 -33 -60 -37 -72 -3 -13 -10 -23 -15
-23 -5 0 -16 -20 -26 -45 -9 -25 -21 -48 -27 -52 -6 -4 -7 -1 -2 8 5 8 4 11 0
6 -5 -4 -10 -17 -12 -29 -2 -12 -8 -25 -14 -29 -6 -3 -10 -10 -10 -15 0 -5 -8
-18 -17 -29 -10 -11 -24 -35 -31 -52 -7 -18 -18 -33 -23 -33 -5 0 -8 -6 -6
-12 3 -7 -4 -21 -14 -32 -10 -11 -18 -26 -18 -33 0 -7 -4 -13 -8 -13 -4 0 -14
-16 -21 -35 -7 -19 -16 -35 -21 -35 -4 0 -11 -11 -14 -25 -4 -14 -11 -25 -17
-25 -6 0 -7 -4 -4 -10 3 -6 2 -10 -4 -10 -5 0 -15 -16 -21 -35 -6 -19 -16 -35
-22 -35 -5 0 -8 -6 -5 -12 2 -7 -9 -29 -24 -49 -16 -20 -29 -42 -29 -47 0 -6
-11 -23 -25 -38 -14 -15 -25 -35 -25 -45 0 -10 -4 -21 -10 -24 -5 -3 -18 -26
-29 -50 -11 -25 -23 -45 -26 -45 -3 0 -3 5 1 12 4 7 3 8 -5 4 -6 -4 -9 -12 -5
-17 3 -6 -1 -18 -9 -27 -8 -9 -27 -42 -43 -72 -16 -30 -33 -58 -38 -61 -5 -4
-5 -12 -2 -18 4 -6 3 -11 -1 -11 -5 0 -17 -13 -26 -30 -28 -47 -111 -126 -166
-156 -28 -16 -51 -32 -51 -36 0 -5 -9 -8 -20 -8 -11 0 -20 -4 -20 -10 0 -5 -9
-10 -19 -10 -11 0 -23 -4 -26 -10 -3 -5 -13 -10 -22 -10 -8 0 -29 -6 -46 -14
-32 -14 -65 -19 -257 -36 -88 -8 -116 -7 -172 7 -38 10 -68 21 -68 24 0 4 -13
10 -30 14 -16 3 -47 15 -69 26 -22 10 -47 19 -54 19 -8 0 -17 7 -21 15 -3 8
-14 15 -24 15 -10 0 -37 9 -59 20 -23 11 -62 25 -87 32 -25 7 -46 16 -46 20 0
4 -6 8 -12 8 -19 0 -141 53 -156 67 -7 7 -24 13 -38 13 -13 0 -24 5 -24 10 0
6 -9 10 -20 10 -11 0 -28 4 -38 9 -9 5 -28 13 -42 19 -75 30 -107 44 -122 52
-10 6 -25 10 -33 10 -8 0 -15 5 -15 10 0 6 -11 10 -24 10 -13 0 -29 7 -36 15
-7 8 -18 15 -25 15 -7 0 -26 7 -41 15 -16 8 -37 15 -47 15 -11 0 -31 6 -45 14
-65 33 -144 66 -157 66 -8 0 -15 5 -15 10 0 6 -11 10 -25 10 -14 0 -25 4 -25
9 0 5 -38 21 -85 36 -47 15 -85 32 -85 36 0 5 -9 9 -19 9 -11 0 -46 15 -80 34
-33 19 -69 37 -80 41 -12 3 -21 10 -21 15 0 4 -12 11 -27 15 -38 9 -103 37
-103 45 0 3 -20 14 -45 24 -25 11 -45 23 -45 28 0 4 -9 8 -19 8 -11 0 -21 3
-23 8 -5 12 -97 52 -119 52 -11 0 -17 4 -14 10 3 5 -6 12 -20 16 -14 3 -25 10
-25 15 0 5 -6 9 -13 9 -21 0 -77 30 -77 41 0 5 -9 9 -21 9 -11 0 -27 7 -36 15
-8 9 -28 19 -44 22 -16 3 -29 9 -29 14 0 5 -7 9 -16 9 -8 0 -22 7 -30 15 -9 8
-24 15 -35 15 -10 0 -19 4 -19 8 0 4 -20 16 -45 26 -25 11 -45 23 -45 28 0 4
-9 8 -20 8 -11 0 -20 5 -20 10 0 6 -5 10 -10 10 -6 0 -29 9 -53 19 -23 11 -52
22 -65 26 -12 3 -22 10 -22 14 0 4 -18 14 -40 21 -22 7 -40 17 -40 22 0 4 -6
8 -14 8 -8 0 -21 6 -28 13 -7 7 -40 24 -73 37 -33 13 -91 41 -130 63 -38 21
-82 43 -97 48 -16 6 -28 15 -28 20 0 5 -7 9 -15 9 -9 0 -35 9 -57 20 -23 11
-48 20 -55 20 -7 0 -13 3 -13 8 0 4 -20 16 -45 27 -25 11 -45 23 -45 27 0 5
-9 8 -19 8 -11 0 -26 7 -35 15 -8 8 -21 15 -28 15 -8 0 -19 5 -26 12 -7 7 -12
9 -12 5 0 -21 -87 45 -130 99 -62 77 -63 82 -63 188 0 89 4 109 26 156 14 30
24 57 21 62 -3 4 -1 8 4 8 4 0 19 20 31 45 12 25 26 45 30 45 4 0 17 18 30 40
12 22 26 40 31 40 5 0 12 9 15 21 4 11 22 36 41 56 19 19 32 38 30 42 -3 4 4
14 15 21 10 8 19 21 19 28 0 8 6 12 14 9 9 -4 13 -1 10 6 -2 7 7 25 21 41 14
16 25 32 25 35 0 3 11 19 25 34 14 15 23 27 21 27 -3 0 23 42 58 93 35 52 76
117 91 145 16 29 32 52 37 52 4 0 7 3 6 8 -3 10 20 50 43 73 10 10 19 26 19
34 0 8 5 15 11 15 5 0 7 5 4 10 -3 6 1 13 9 16 9 3 13 10 10 15 -3 5 0 9 5 9
6 0 11 6 11 13 0 8 9 22 20 32 11 10 20 22 20 27 0 5 9 18 20 30 10 12 17 25
14 30 -3 4 0 8 7 8 7 0 10 3 6 6 -3 3 2 15 12 26 10 10 29 39 41 63 13 25 27
45 32 45 4 0 8 9 8 20 0 11 9 25 20 32 11 7 20 18 20 24 0 6 9 21 20 34 11 12
18 26 15 30 -2 4 3 16 13 26 9 10 23 31 29 47 7 15 17 27 23 27 5 0 10 6 10
13 0 7 9 23 20 35 11 12 20 28 20 37 0 8 4 15 8 15 5 0 22 24 37 53 32 59 86
140 98 145 4 2 7 10 7 17 0 17 81 145 92 145 4 0 8 8 8 18 0 10 9 28 20 40 11
12 20 24 20 27 0 3 9 16 20 28 11 12 18 27 16 34 -3 7 -2 13 2 13 4 0 16 14
25 30 10 17 15 30 12 30 -3 0 3 10 15 22 11 12 26 34 32 50 7 15 16 28 20 28
5 0 8 7 8 15 0 7 7 18 16 23 9 5 16 13 16 18 1 17 32 74 40 74 4 0 8 6 8 13 0
7 9 23 20 34 10 12 22 33 26 47 3 14 12 26 19 26 13 0 28 35 26 58 -1 6 3 12
9 12 5 0 10 7 10 15 0 8 4 15 8 15 5 0 17 17 28 38 34 62 48 85 66 105 19 22
73 128 70 140 -1 4 2 7 8 7 5 0 10 4 10 9 0 6 14 30 30 54 17 25 30 50 30 55
0 6 8 16 18 21 9 6 13 11 9 11 -5 0 -2 6 5 14 7 8 22 26 33 42 11 15 26 33 33
40 6 7 12 17 12 23 0 6 8 11 17 11 9 0 14 3 11 6 -8 7 62 74 78 74 7 0 14 7
18 15 3 8 13 15 21 15 9 0 13 5 10 10 -4 6 5 10 21 10 15 0 24 3 21 7 -14 13
90 40 158 42 39 0 97 -6 130 -14z m1701 -765 c12 0 26 -5 30 -12 5 -7 3 -8 -6
-3 -9 5 -11 4 -6 -4 4 -6 12 -9 17 -5 5 3 35 -2 67 -11 97 -29 112 -38 112
-62 0 -13 -4 -23 -10 -23 -5 0 -10 -11 -10 -24 0 -33 -10 -57 -21 -50 -5 3 -6
-3 -2 -12 3 -10 2 -15 -3 -12 -5 3 -10 -10 -11 -29 -1 -19 -7 -40 -13 -47 -8
-10 -6 -22 7 -44 17 -30 27 -34 136 -63 23 -7 67 -20 97 -31 30 -11 64 -22 75
-25 11 -2 30 -9 43 -14 128 -52 211 -74 248 -65 16 4 30 20 41 44 8 20 24 53
34 73 11 20 19 44 19 52 0 9 6 22 13 29 7 7 16 21 20 31 4 10 17 17 32 17 17
0 24 -4 19 -12 -5 -7 -3 -8 5 -3 7 4 23 3 34 -2 32 -15 116 -44 162 -57 22 -6
43 -15 46 -20 4 -5 14 -6 22 -3 8 3 27 -1 42 -9 15 -8 35 -14 45 -14 27 0 34
-35 16 -72 -9 -17 -16 -38 -16 -46 0 -8 -9 -30 -21 -48 -11 -19 -18 -38 -14
-44 3 -5 1 -10 -4 -10 -6 0 -11 -9 -11 -19 0 -25 -36 -89 -67 -119 -14 -14
-37 -24 -57 -25 -19 -1 -32 -5 -30 -8 8 -14 -92 -15 -125 -2 -18 7 -42 13 -53
13 -10 0 -16 5 -13 10 4 6 -8 10 -28 10 -19 0 -40 7 -47 15 -7 8 -23 15 -36
15 -13 0 -24 5 -24 10 0 6 -10 10 -23 10 -13 0 -27 3 -31 7 -11 11 -79 33
-104 33 -13 0 -20 4 -17 10 3 6 -2 10 -12 10 -23 0 -117 33 -121 43 -2 4 -17
7 -33 7 -16 0 -29 4 -29 9 0 5 -25 17 -55 27 -31 9 -58 21 -61 25 -3 5 -18 9
-34 9 -16 0 -32 5 -35 10 -3 6 -20 10 -37 10 -17 0 -28 3 -25 6 6 6 -81 41
-160 65 -18 6 -33 14 -33 19 0 6 -9 10 -19 10 -11 0 -22 4 -25 9 -3 4 -23 11
-44 14 -53 9 -77 40 -77 100 0 26 3 47 6 47 3 0 12 19 19 43 7 23 17 46 22 52
4 5 8 15 8 22 0 8 9 33 20 55 11 23 20 46 20 50 0 5 7 20 16 33 15 24 17 24
51 10 20 -8 46 -15 59 -15z m-342 -715 c15 -8 37 -15 47 -15 10 0 21 -5 25
-12 5 -7 3 -8 -6 -3 -8 5 -11 4 -7 -2 4 -6 17 -8 30 -6 36 7 107 -41 107 -72
0 -61 -47 -103 -96 -85 -14 6 -39 10 -55 10 -16 0 -29 5 -29 10 0 6 -11 10
-24 10 -14 0 -28 5 -31 10 -3 6 -14 10 -24 10 -9 0 -27 9 -40 21 -18 17 -21
27 -15 52 3 18 10 34 15 35 5 2 9 12 9 22 0 32 47 39 94 15z m2554 -1052 c-2
-33 0 -59 3 -57 11 6 19 -96 19 -242 0 -139 -6 -207 -19 -200 -3 2 -6 -15 -7
-37 -2 -77 -17 -151 -40 -201 -13 -28 -24 -56 -24 -64 0 -8 -7 -30 -16 -50
-26 -61 -32 -76 -39 -100 -4 -12 -11 -20 -16 -17 -5 3 -6 -2 -2 -11 5 -13 3
-15 -7 -9 -8 5 -11 4 -7 -2 8 -12 -41 -113 -54 -113 -5 0 -9 -6 -9 -12 0 -24
-55 -118 -66 -114 -7 3 -10 -3 -7 -15 3 -10 1 -19 -5 -19 -6 0 -13 -8 -16 -17
-3 -10 -18 -31 -33 -48 -16 -16 -27 -33 -25 -37 1 -5 -3 -8 -10 -8 -6 0 -8 -3
-5 -7 4 -4 -4 -19 -19 -34 -14 -15 -27 -31 -27 -36 -1 -4 -5 -7 -10 -5 -4 1
-6 -2 -5 -7 2 -5 -11 -24 -29 -44 -17 -19 -29 -38 -26 -41 4 -3 -2 -6 -11 -6
-12 0 -16 -5 -12 -15 3 -8 2 -15 -2 -15 -4 0 -16 -14 -27 -30 -11 -16 -26 -30
-32 -30 -7 0 -13 -7 -13 -15 0 -8 -4 -15 -10 -15 -5 0 -10 -5 -10 -11 0 -6
-19 -34 -42 -62 -24 -28 -47 -57 -53 -65 -5 -8 -22 -26 -37 -42 -15 -15 -24
-30 -22 -33 3 -3 -8 -15 -25 -28 -17 -13 -31 -28 -31 -33 0 -6 -18 -31 -40
-55 -22 -24 -40 -45 -40 -47 0 -2 -10 -14 -22 -27 -13 -13 -31 -35 -42 -50
-10 -15 -23 -24 -29 -20 -6 3 -7 1 -3 -5 8 -14 -24 -53 -37 -45 -6 3 -7 1 -3
-5 3 -6 -12 -28 -34 -50 -22 -21 -40 -44 -40 -50 0 -6 -8 -17 -18 -24 -10 -7
-27 -25 -36 -40 -10 -16 -24 -28 -31 -28 -7 0 -16 -11 -19 -25 -4 -14 -13 -25
-22 -25 -8 0 -13 -4 -10 -9 3 -5 -1 -12 -10 -15 -9 -3 -12 -11 -8 -18 5 -8 2
-9 -10 -5 -10 4 -15 3 -11 -3 3 -6 -17 -33 -44 -61 -28 -29 -51 -55 -51 -60 0
-4 -26 -34 -57 -67 -86 -88 -112 -120 -106 -126 4 -3 -1 -6 -9 -6 -9 0 -18 -9
-21 -20 -3 -11 -12 -20 -21 -20 -9 0 -16 -5 -16 -10 0 -6 -14 -24 -30 -40 -17
-17 -28 -30 -25 -30 3 0 -18 -25 -47 -55 -103 -106 -138 -144 -138 -150 0 -3
-16 -22 -36 -41 -20 -19 -34 -34 -30 -34 4 0 1 -7 -8 -15 -8 -8 -19 -15 -25
-15 -6 0 -11 -6 -11 -14 0 -18 -64 -56 -95 -56 -13 0 -26 -4 -29 -9 -18 -29
-384 -31 -406 -2 -5 6 -28 13 -145 46 -82 23 -125 39 -125 47 0 5 -9 8 -19 8
-18 0 -55 16 -173 76 -26 13 -65 27 -88 30 -22 4 -40 10 -40 13 0 4 -19 15
-42 25 -24 10 -74 33 -113 51 -38 19 -91 41 -116 49 -26 8 -75 29 -109 45 -35
17 -69 31 -77 31 -7 0 -13 4 -13 10 0 5 -11 12 -25 16 -14 3 -25 9 -25 13 0 4
-23 14 -51 21 -27 8 -52 18 -55 22 -3 4 -16 8 -30 8 -13 0 -24 5 -24 10 0 6
-4 10 -9 10 -8 0 -118 51 -151 70 -25 14 -109 50 -118 50 -5 0 -41 16 -81 35
-39 19 -76 35 -81 35 -6 0 -10 5 -10 10 0 6 -9 10 -21 10 -11 0 -27 7 -35 15
-9 8 -24 15 -35 15 -10 0 -19 4 -19 8 0 5 -22 14 -50 21 -27 7 -50 17 -50 22
0 5 -12 9 -26 9 -14 0 -23 4 -19 10 3 6 -3 10 -14 10 -12 0 -21 4 -21 9 0 5
-13 12 -30 16 -16 4 -32 11 -35 16 -4 5 -15 9 -26 9 -10 0 -19 5 -19 10 0 6
-6 10 -12 10 -7 1 -31 9 -53 20 -22 11 -47 19 -56 20 -9 0 -22 7 -29 15 -7 8
-21 15 -31 15 -11 0 -19 5 -19 10 0 6 -8 10 -18 10 -10 0 -27 7 -38 15 -10 8
-27 15 -36 15 -10 0 -18 3 -18 8 0 4 -21 15 -48 26 -26 10 -60 24 -77 31 -16
7 -37 16 -45 19 -8 3 -22 10 -30 15 -13 7 -51 25 -170 80 -19 9 -37 19 -40 22
-3 4 -24 12 -47 18 -24 7 -43 16 -43 21 0 6 -11 10 -25 10 -14 0 -25 5 -25 10
0 6 -6 10 -12 10 -13 0 -118 49 -128 60 -10 11 -62 30 -80 30 -11 0 -20 5 -20
10 0 6 -9 10 -19 10 -11 0 -26 7 -35 15 -8 8 -19 15 -25 15 -6 0 -19 4 -29 9
-9 5 -44 22 -77 38 -33 15 -61 31 -63 36 -2 4 -12 7 -22 7 -10 0 -22 5 -25 10
-3 6 -17 10 -31 10 -14 0 -22 4 -19 10 3 6 -4 10 -18 10 -14 0 -30 7 -37 15
-7 8 -19 15 -27 15 -8 0 -11 5 -7 12 4 7 3 8 -4 4 -11 -6 -92 29 -102 44 -3 5
-29 16 -58 25 -41 14 -55 24 -67 49 -24 51 -65 179 -65 204 0 24 18 30 26 8 3
-8 30 -27 60 -43 30 -15 54 -31 54 -35 0 -5 11 -8 25 -8 14 0 25 -4 25 -8 0
-4 21 -14 48 -22 50 -15 76 -33 64 -45 -4 -5 -2 -5 4 -2 13 7 74 -14 74 -25 0
-4 8 -8 19 -8 10 0 24 -7 31 -15 6 -8 35 -23 63 -34 74 -28 108 -47 99 -56 -4
-5 -2 -5 4 -2 14 8 154 -60 154 -74 0 -5 11 -9 25 -9 14 0 25 -4 25 -10 0 -5
7 -10 15 -10 24 0 76 -30 70 -39 -3 -5 3 -7 14 -4 10 3 37 -7 60 -21 22 -14
45 -26 51 -26 5 0 10 -4 10 -10 0 -5 9 -10 20 -10 11 0 20 -4 20 -10 0 -5 12
-13 27 -17 32 -7 123 -52 123 -59 0 -3 -5 -2 -12 2 -6 4 -8 3 -5 -4 4 -5 16
-8 28 -5 12 3 24 2 28 -4 9 -13 101 -63 117 -63 8 0 14 -4 14 -9 0 -4 27 -18
60 -30 33 -12 58 -26 55 -31 -4 -6 2 -7 11 -3 12 4 15 3 10 -6 -4 -6 -4 -11 1
-10 22 4 41 -3 67 -26 16 -14 37 -25 48 -25 10 0 18 -4 18 -8 0 -4 17 -14 38
-21 63 -22 92 -36 92 -43 0 -5 9 -8 19 -8 11 0 23 -5 26 -10 3 -6 60 -36 125
-69 66 -32 116 -62 112 -66 -4 -5 -2 -5 5 -2 13 8 45 -2 39 -12 -2 -3 8 -7 22
-8 15 0 28 -6 30 -12 2 -6 11 -11 20 -11 9 0 39 -11 67 -24 61 -29 85 -39 105
-41 8 -1 35 -12 59 -24 25 -11 51 -21 58 -21 7 0 13 -4 13 -10 0 -5 7 -10 16
-10 8 0 12 -4 9 -10 -3 -6 1 -7 10 -4 9 4 37 -4 63 -16 60 -29 93 -43 167 -70
75 -27 103 -39 137 -56 14 -8 33 -14 42 -14 9 0 16 -4 16 -10 0 -5 9 -10 19
-10 11 0 22 -4 26 -9 3 -5 19 -12 35 -16 17 -4 30 -11 30 -16 0 -6 8 -9 18 -7
22 3 144 -50 138 -61 -3 -4 7 -6 23 -3 17 2 32 -2 40 -12 8 -9 20 -16 27 -16
7 0 33 -9 56 -19 24 -11 71 -30 105 -43 34 -12 59 -27 56 -32 -3 -5 -1 -6 5
-3 14 9 43 -3 36 -14 -3 -5 2 -6 11 -3 8 4 41 -6 73 -21 31 -15 77 -37 101
-48 71 -34 147 -33 366 3 28 4 66 13 85 19 19 6 56 16 83 23 26 7 47 16 47 20
0 5 6 8 13 8 15 0 147 69 165 86 6 7 21 16 32 19 11 3 20 11 20 16 0 5 18 25
40 45 22 20 47 52 56 70 9 19 20 34 25 34 5 0 9 5 9 10 0 10 7 21 36 53 6 7
15 24 19 37 4 14 16 37 26 52 11 14 19 31 19 37 0 7 9 21 20 33 11 12 26 34
32 50 7 15 16 28 20 28 5 0 8 7 8 15 0 8 5 15 10 15 6 0 9 3 9 8 -3 17 2 31
14 44 7 7 26 39 41 71 16 31 32 57 36 57 3 0 12 16 19 35 7 19 17 35 22 35 6
0 7 4 4 10 -3 6 -1 10 4 10 6 0 11 8 11 18 0 9 11 30 25 46 14 16 25 34 25 41
0 7 11 25 24 40 14 16 24 31 24 34 -2 11 16 46 26 53 6 4 11 11 12 15 1 15 39
88 49 95 6 4 6 8 2 8 -4 0 4 16 19 35 14 19 23 35 20 35 -6 0 2 12 32 45 7 8
10 19 7 25 -3 5 1 10 9 10 9 0 16 3 15 8 -2 15 14 52 22 52 5 0 9 8 9 18 0 9
9 28 20 42 11 14 20 31 20 38 0 6 4 12 9 12 5 0 20 23 32 50 12 28 27 50 32
50 5 0 7 7 3 15 -3 9 0 15 10 15 8 0 13 4 10 8 -3 5 2 18 10 30 8 12 28 48 45
79 17 32 40 68 51 81 12 12 18 22 13 22 -4 0 0 9 10 20 10 11 14 20 9 20 -5 0
-4 4 1 8 6 4 16 18 23 31 8 13 22 39 33 57 10 19 16 34 13 34 -2 0 5 10 16 22
11 13 23 32 26 45 3 12 12 24 19 27 7 2 19 22 25 43 7 21 19 46 28 56 8 9 11
17 6 17 -5 0 -4 4 1 8 15 11 55 70 55 81 0 5 5 11 11 13 5 2 11 10 12 18 1 9
13 33 26 54 14 21 24 45 24 52 0 8 6 14 14 14 7 0 12 3 11 8 -1 4 3 17 10 28
6 12 8 24 5 28 -3 3 0 6 8 6 12 0 68 100 68 123 0 4 10 17 21 29 11 12 20 28
20 35 0 7 3 13 8 13 10 0 32 51 26 61 -3 5 -1 9 4 9 4 0 19 19 32 43 12 23 29
50 37 59 8 9 12 21 9 27 -3 5 -2 11 3 13 13 4 71 106 71 123 0 8 3 15 8 15 7
0 21 22 44 73 7 15 16 27 20 27 4 0 8 9 8 19 0 11 5 23 11 26 6 4 8 13 5 21
-3 8 1 14 11 14 9 0 13 3 10 7 -4 3 -1 13 6 21 10 12 14 -10 25 -119 7 -74 11
-162 10 -196z"/>
<path d="M5896 8796 c-41 -42 -87 -133 -116 -228 -6 -21 -16 -38 -21 -38 -5 0
-9 -7 -9 -15 0 -9 -7 -18 -15 -22 -9 -3 -15 -13 -14 -22 3 -22 -53 -141 -63
-135 -4 3 -5 -3 -1 -12 4 -11 3 -15 -4 -11 -7 5 -9 0 -6 -13 3 -11 1 -20 -5
-20 -5 0 -15 -13 -22 -30 -7 -16 -16 -30 -21 -30 -5 0 -9 -8 -9 -17 0 -10 -7
-27 -15 -37 -8 -10 -12 -23 -9 -27 3 -5 0 -9 -5 -9 -6 0 -10 -3 -9 -7 1 -5 -6
-22 -15 -40 -9 -18 -17 -41 -17 -53 0 -12 -4 -18 -10 -15 -6 4 -7 -1 -3 -11 4
-11 2 -15 -4 -11 -8 5 -8 -5 -3 -30 5 -20 6 -41 3 -46 -4 -6 -1 -7 7 -2 10 6
12 3 8 -13 -3 -12 -3 -21 1 -20 6 1 50 -16 83 -33 10 -5 29 -9 42 -9 14 0 27
-4 30 -9 5 -8 35 -16 100 -28 16 -2 52 -15 80 -27 28 -13 64 -26 79 -30 17 -4
25 -11 21 -18 -5 -7 -3 -8 6 -3 13 8 120 -24 120 -37 0 -4 9 -8 20 -8 12 0 34
-7 50 -15 16 -8 33 -14 37 -13 4 1 25 -2 46 -7 25 -5 36 -12 33 -20 -3 -8 2
-11 15 -8 10 3 29 -2 42 -10 13 -8 34 -17 48 -19 13 -2 23 -8 22 -14 -1 -6 10
-9 28 -6 16 2 29 0 29 -6 0 -6 18 -13 40 -17 22 -4 40 -11 40 -16 0 -5 11 -9
24 -9 14 0 28 -4 31 -10 3 -5 17 -10 30 -10 30 0 56 -10 50 -19 -2 -4 9 -5 26
-3 17 3 29 0 29 -7 0 -6 11 -11 24 -11 25 0 79 -24 71 -31 -2 -3 11 -3 29 -1
19 2 37 -1 40 -7 11 -18 98 -13 123 7 24 19 63 85 63 107 0 8 5 15 10 15 6 0
10 9 10 20 0 11 14 46 30 78 17 33 30 64 30 70 0 6 4 12 9 14 6 2 12 15 15 30
2 14 10 37 17 50 7 12 12 26 11 31 -1 4 3 7 8 7 6 0 10 9 10 19 0 11 4 21 10
23 5 2 11 12 13 23 6 29 19 58 34 73 7 7 15 28 19 47 3 19 10 35 14 35 4 0 13
19 20 43 8 23 27 66 42 95 22 42 28 66 28 116 0 60 -2 66 -34 94 -19 17 -33
32 -30 34 2 3 -42 20 -99 38 -56 19 -103 38 -105 42 -2 4 -16 8 -32 8 -15 0
-88 20 -162 44 -73 24 -155 48 -183 51 -27 4 -54 11 -60 14 -5 4 -44 18 -85
30 -41 13 -95 30 -120 38 -25 9 -61 20 -80 25 -19 5 -51 13 -70 19 -19 5 -55
14 -80 19 -25 4 -74 16 -110 25 -36 10 -100 19 -142 22 l-77 4 -35 -35z m234
-97 c30 -6 64 -15 75 -19 11 -4 49 -16 85 -25 36 -9 74 -21 85 -25 11 -5 31
-11 45 -14 46 -9 115 -31 120 -37 6 -7 47 -17 100 -25 19 -3 39 -9 44 -15 6
-5 20 -9 32 -9 13 0 25 -4 28 -9 4 -5 24 -12 46 -16 22 -4 42 -11 46 -16 3 -5
18 -9 34 -9 16 0 32 -4 35 -10 3 -5 16 -10 28 -10 13 0 31 -6 42 -13 24 -15
78 -34 120 -41 65 -12 85 -18 85 -27 0 -5 11 -9 24 -9 33 0 57 -10 50 -21 -3
-5 2 -6 11 -2 14 5 16 -1 14 -38 -3 -48 -17 -89 -31 -89 -4 0 -8 -7 -8 -16 0
-9 -18 -50 -40 -92 -23 -42 -38 -82 -36 -89 3 -7 1 -13 -4 -13 -6 0 -10 -4
-10 -9 0 -6 -17 -47 -39 -93 -21 -46 -45 -98 -52 -115 -8 -18 -17 -33 -21 -33
-5 0 -8 -9 -8 -19 0 -11 -5 -23 -11 -26 -6 -4 -8 -13 -5 -20 2 -7 -5 -28 -17
-46 -21 -34 -23 -39 -26 -60 0 -5 -5 -7 -11 -4 -6 4 -7 -1 -3 -11 4 -12 3 -15
-5 -10 -8 5 -10 2 -6 -8 8 -21 -23 -32 -47 -18 -10 6 -36 15 -59 18 -22 4 -43
11 -46 15 -3 5 -16 9 -30 9 -13 0 -24 5 -24 10 0 6 -12 10 -26 10 -14 0 -32 7
-40 15 -9 8 -25 15 -38 15 -12 0 -26 4 -32 8 -5 5 -35 14 -66 21 -32 7 -60 17
-63 22 -4 5 -19 9 -36 9 -16 0 -29 5 -29 10 0 6 -7 10 -15 10 -8 0 -31 7 -52
16 -21 9 -47 20 -58 24 -11 4 -36 14 -55 22 -19 9 -51 18 -70 22 -31 6 -57 15
-135 46 -11 5 -54 20 -95 35 -41 15 -89 33 -107 41 -17 8 -37 14 -45 14 -8 0
-18 3 -22 8 -4 4 -33 12 -64 17 -71 12 -76 31 -33 103 17 27 31 54 31 61 0 14
21 53 34 62 5 4 5 12 2 18 -4 6 -3 11 1 11 5 0 22 26 38 58 17 31 34 60 39 63
5 4 6 14 3 23 -4 10 -1 16 7 16 9 0 17 16 21 42 4 24 14 53 22 65 9 13 17 35
18 51 3 32 9 50 43 120 30 65 59 82 116 71 23 -5 66 -14 96 -20z"/>
<path d="M5398 7577 c-7 -8 -19 -12 -25 -10 -21 7 -53 -17 -53 -39 0 -12 -12
-46 -27 -77 -21 -44 -28 -73 -30 -136 -3 -86 -11 -128 -23 -120 -4 2 -12 -7
-19 -22 -17 -37 7 -70 56 -78 92 -13 266 -64 296 -86 32 -23 75 -22 91 3 8 14
6 26 -9 55 -33 60 -29 73 21 73 23 0 49 3 58 6 18 7 22 34 4 34 -6 0 -9 2 -6
5 2 3 76 -22 164 -56 87 -33 173 -65 189 -71 17 -5 39 -14 50 -18 11 -5 32
-11 48 -12 l27 -3 -34 -52 c-45 -69 -59 -113 -47 -146 12 -30 54 -45 75 -28
11 9 29 5 80 -18 36 -16 66 -28 66 -25 0 3 27 -9 59 -27 41 -21 61 -38 63 -52
2 -12 12 -23 23 -25 11 -3 28 -13 38 -23 10 -10 24 -19 32 -19 20 0 45 28 45
51 0 42 51 109 82 109 11 0 30 12 43 26 22 24 25 36 25 103 0 69 -3 81 -34
133 -20 33 -32 64 -29 76 6 24 -24 55 -48 49 -12 -3 -20 2 -24 12 -9 28 -52
64 -69 58 -9 -4 -16 -17 -16 -31 0 -24 -1 -24 -27 -10 -16 7 -38 14 -49 14
-21 0 -332 102 -404 132 -19 8 -75 25 -125 38 -49 12 -112 34 -139 48 -27 13
-92 39 -143 58 -110 40 -147 58 -186 90 -32 27 -50 30 -69 11z m28 -113 c-21
-20 -20 -30 1 -39 12 -4 24 1 35 15 14 18 21 19 39 10 12 -7 51 -23 88 -35 36
-13 111 -40 166 -60 55 -20 125 -44 155 -52 30 -8 109 -32 175 -53 66 -21 149
-43 185 -50 114 -19 300 -84 300 -104 0 -7 14 -25 30 -41 44 -43 80 -108 80
-148 0 -30 -4 -35 -28 -40 -19 -4 -40 -24 -72 -70 l-45 -64 -156 81 -156 81
29 55 c34 65 36 123 3 128 -11 2 -47 16 -80 31 -62 29 -190 79 -259 101 -22 7
-60 25 -85 41 -35 23 -57 29 -98 29 -51 0 -55 -2 -67 -31 -12 -28 -15 -30 -23
-14 -12 20 -61 24 -73 5 -10 -17 -22 -119 -15 -131 8 -12 4 -11 -36 5 -19 7
-67 26 -107 41 -55 20 -70 30 -63 39 6 8 8 39 4 78 -8 92 32 208 73 208 14 0
14 -2 0 -16z"/>
<path d="M5293 6072 c-13 -2 -23 -8 -23 -13 0 -5 -7 -9 -16 -9 -9 0 -23 -8
-31 -17 -8 -10 -11 -12 -7 -4 4 9 3 12 -4 7 -6 -4 -9 -13 -5 -21 3 -8 1 -15
-5 -15 -5 0 -19 -20 -31 -45 -26 -56 -28 -144 -4 -183 22 -34 64 -72 74 -66 4
2 13 -2 21 -9 7 -7 32 -19 55 -26 23 -8 41 -17 39 -20 -4 -7 9 -8 139 -16 l90
-6 54 49 54 48 0 85 c1 47 -5 99 -12 116 -13 31 -74 73 -108 73 -10 0 -23 4
-28 9 -6 4 -35 16 -65 26 -30 10 -64 21 -75 26 -27 10 -85 16 -112 11z m62
-142 c-2 -4 7 -5 20 -2 14 2 36 -3 50 -12 13 -9 31 -16 40 -16 8 0 23 -4 33
-10 9 -5 30 -14 45 -20 25 -9 28 -14 25 -51 -2 -31 -9 -44 -29 -56 -25 -15
-32 -15 -93 3 -36 10 -66 22 -66 26 0 5 -10 8 -22 8 -65 1 -97 78 -51 124 21
22 61 27 48 6z"/>
<path d="M5840 5881 c-8 -5 -19 -7 -25 -4 -5 4 -7 3 -3 -1 4 -5 -11 -25 -33
-47 -21 -21 -39 -47 -39 -59 0 -11 -4 -20 -10 -20 -6 0 -9 -29 -9 -67 1 -64
16 -106 44 -125 22 -14 49 -39 36 -32 -9 4 -12 3 -7 -4 4 -6 12 -9 19 -7 14 6
110 -39 102 -47 -3 -3 6 -3 20 -1 14 3 40 -2 59 -11 49 -23 185 -19 170 5 -3
5 2 9 10 9 8 0 23 11 34 25 11 14 25 25 32 25 6 0 10 6 8 12 -3 7 2 19 9 27
18 18 15 147 -4 177 -7 11 -10 24 -6 27 3 4 -1 7 -10 7 -9 0 -17 7 -17 15 0 8
-6 15 -13 15 -7 0 -33 10 -58 22 -97 48 -274 82 -309 59z m100 -131 c0 -5 11
-10 24 -10 14 0 28 -4 31 -10 3 -5 19 -10 36 -10 16 0 29 -4 29 -9 0 -5 11 -8
25 -8 35 0 52 -18 57 -56 5 -46 -29 -82 -69 -74 -69 14 -90 20 -120 33 -17 8
-36 14 -42 14 -6 0 -11 5 -11 10 0 6 -9 10 -20 10 -11 0 -20 7 -20 15 0 8 -4
15 -10 15 -11 0 7 47 28 73 16 18 62 24 62 7z"/>
<path d="M4545 5784 c-11 -8 -25 -12 -32 -10 -7 3 -15 0 -19 -6 -5 -7 -2 -8 7
-4 10 6 10 4 -1 -6 -8 -7 -21 -24 -28 -37 -8 -13 -22 -39 -33 -58 -25 -44 -26
-125 -1 -154 36 -45 63 -69 77 -69 8 0 15 -4 15 -10 0 -5 9 -10 19 -10 11 0
23 -5 26 -10 4 -6 14 -10 23 -9 21 3 53 -11 48 -20 -2 -3 12 -7 32 -8 21 -1
63 -5 96 -9 41 -4 56 -3 52 5 -4 6 0 11 11 11 36 0 89 56 107 112 15 48 15 58
1 111 -8 32 -15 60 -15 63 0 2 -30 18 -67 35 -38 17 -76 35 -85 40 -10 5 -27
9 -38 9 -11 0 -20 4 -20 9 0 4 -19 11 -42 14 -24 3 -44 11 -46 16 -5 16 -64
13 -87 -5z m144 -127 c18 -9 48 -19 67 -23 19 -3 34 -10 34 -14 0 -5 10 -10
23 -12 18 -3 22 -10 25 -48 4 -67 -14 -86 -79 -83 -59 3 -182 46 -211 75 -21
21 -19 59 5 107 10 20 17 23 57 19 26 -3 61 -12 79 -21z"/>
<path d="M5080 5599 c0 -6 -9 -9 -20 -6 -11 3 -18 1 -14 -4 3 -5 -5 -19 -18
-31 -47 -45 -56 -71 -56 -154 0 -46 5 -86 12 -96 14 -19 81 -58 100 -58 7 0
19 -7 26 -15 7 -8 21 -15 31 -15 11 0 27 -4 37 -9 27 -14 109 -31 147 -31 41
0 66 13 113 57 64 60 77 118 46 198 -8 22 -17 47 -20 57 -6 16 -93 58 -120 58
-8 0 -22 4 -32 9 -68 37 -232 65 -232 40z m104 -110 c14 -7 24 -15 21 -18 -2
-4 12 -5 31 -3 21 3 34 0 34 -7 0 -6 5 -11 11 -11 28 0 97 -41 102 -62 9 -32
-3 -70 -19 -64 -7 3 -11 0 -8 -7 9 -23 -30 -36 -77 -26 -24 6 -48 14 -53 20
-6 5 -18 9 -27 9 -9 0 -40 12 -68 26 -48 25 -51 29 -51 65 0 22 4 39 9 39 5 0
12 11 15 25 7 28 37 33 80 14z"/>
<path d="M5667 5426 c4 -5 -1 -7 -11 -3 -9 4 -15 3 -11 -2 3 -5 -9 -15 -25
-23 -17 -7 -36 -25 -43 -40 -6 -16 -15 -28 -19 -28 -4 0 -8 -10 -8 -22 0 -13
-3 -47 -6 -76 -3 -29 -3 -60 2 -70 4 -9 8 -19 9 -22 10 -28 21 -40 46 -49 16
-5 29 -15 29 -20 0 -6 9 -11 20 -11 11 0 28 -4 38 -9 56 -29 165 -61 204 -61
21 0 50 10 72 25 20 14 41 25 47 25 6 0 7 5 4 10 -3 6 -1 10 4 10 6 0 11 7 11
15 0 8 4 15 9 15 14 0 41 59 41 88 0 43 -24 106 -49 130 -13 12 -20 22 -15 22
8 1 -33 19 -111 50 -11 5 -42 13 -70 20 -27 7 -59 16 -70 20 -29 13 -104 17
-98 6z m99 -124 c5 -5 43 -19 84 -31 101 -30 105 -33 108 -76 2 -27 0 -35 -9
-29 -7 4 -10 3 -5 -4 4 -6 -1 -20 -11 -32 -24 -28 -78 -26 -155 5 -34 14 -67
25 -74 25 -19 0 -54 49 -54 75 0 12 7 28 15 35 8 7 15 19 15 26 0 16 69 20 86
6z"/>
<path d="M4366 5279 c3 -5 -1 -9 -9 -9 -41 0 -123 -71 -113 -97 3 -7 2 -13 -3
-13 -13 0 -23 -81 -15 -128 6 -41 50 -102 73 -102 7 0 9 -5 5 -12 -4 -7 -3 -8
4 -4 11 6 18 4 69 -22 13 -7 31 -12 41 -12 10 0 22 -4 27 -9 21 -21 165 -49
165 -32 0 6 9 11 20 11 11 0 23 7 26 15 4 8 10 15 16 15 12 0 27 15 56 57 18
25 22 45 22 102 0 84 -23 128 -80 156 -19 9 -43 21 -52 26 -10 5 -29 9 -43 9
-14 0 -25 5 -25 10 0 6 -14 10 -30 10 -17 0 -38 4 -48 10 -25 13 -113 29 -106
19z m49 -119 c3 -5 15 -10 26 -10 10 0 27 -4 37 -9 36 -18 68 -31 87 -35 50
-10 64 -19 70 -47 7 -33 -2 -72 -16 -64 -5 3 -7 0 -4 -7 3 -7 -7 -18 -21 -25
-22 -10 -36 -10 -78 3 -28 8 -59 20 -68 25 -10 5 -23 9 -31 9 -7 0 -29 11 -50
25 -43 30 -48 59 -17 93 12 12 17 22 13 22 -9 0 29 29 39 30 4 0 10 -4 13 -10z"/>
<path d="M4828 5057 c-24 -25 -44 -62 -58 -103 -25 -78 -25 -80 2 -135 12 -24
22 -48 23 -54 0 -5 8 -9 18 -7 9 2 17 -2 17 -8 0 -5 7 -10 15 -10 8 0 15 -4
15 -10 0 -5 8 -10 18 -10 9 0 26 -7 36 -15 11 -8 28 -15 38 -15 10 0 26 -4 36
-9 47 -26 166 -39 177 -21 3 6 16 10 29 10 14 0 28 10 36 25 7 14 18 25 24 25
13 0 56 102 56 133 -1 67 -62 161 -112 172 -15 4 -30 11 -33 16 -4 5 -17 9
-31 9 -13 0 -24 5 -24 10 0 6 -12 10 -28 10 -15 0 -37 7 -49 15 -16 11 -44 15
-95 14 -71 -2 -74 -3 -110 -42z m197 -103 c22 -4 49 -13 60 -20 11 -8 27 -14
35 -14 9 0 26 -9 39 -21 48 -45 -4 -128 -69 -108 -14 4 -45 12 -70 18 -63 13
-121 36 -113 44 3 4 -1 7 -10 7 -24 0 -23 67 1 92 17 18 29 18 127 2z"/>
<path d="M5419 4877 c-20 -17 -42 -49 -48 -69 -7 -21 -17 -40 -22 -44 -6 -3
-9 -37 -7 -74 2 -55 5 -67 17 -62 10 4 13 1 8 -12 -4 -9 -3 -15 2 -12 5 3 11
0 14 -7 3 -6 31 -25 64 -41 32 -16 66 -33 75 -37 31 -15 160 -31 201 -25 61
10 91 33 122 93 24 47 26 61 20 109 -3 30 -10 54 -14 54 -5 0 -11 12 -14 28
-4 20 -16 32 -46 45 -23 9 -48 17 -55 17 -8 0 -18 5 -21 10 -3 6 -13 10 -22
10 -8 0 -29 6 -46 14 -76 32 -91 36 -140 36 -45 0 -57 -5 -88 -33z m156 -86
c22 -4 39 -12 38 -18 -1 -6 6 -9 19 -5 16 4 19 2 13 -8 -5 -9 -4 -11 4 -6 15
10 69 -11 99 -37 26 -24 31 -77 7 -77 -8 0 -15 -5 -15 -11 0 -32 -88 -56 -105
-29 -3 6 -13 10 -22 10 -8 0 -29 6 -46 14 -18 8 -44 17 -58 20 -38 8 -69 40
-69 70 0 14 5 26 10 26 6 0 10 11 10 24 0 35 32 43 115 27z"/>
<path d="M4086 4774 c-77 -53 -111 -196 -63 -269 12 -20 30 -35 41 -35 11 0
16 -3 13 -7 -8 -7 105 -63 130 -63 10 -1 29 -7 43 -15 35 -20 166 -20 174 0 3
8 15 15 27 15 12 0 20 3 16 6 -3 3 3 15 13 27 11 11 17 24 14 29 -3 4 1 8 9 8
37 0 31 159 -8 204 -12 14 -27 26 -32 26 -6 0 -16 7 -23 15 -7 8 -20 15 -30
15 -17 0 -130 42 -162 60 -10 6 -41 10 -71 10 -40 0 -61 -6 -91 -26z m123 -95
c20 -7 43 -14 51 -17 8 -3 26 -7 39 -8 36 -4 53 -13 47 -23 -3 -5 3 -7 14 -4
56 15 82 -79 34 -123 -26 -25 -87 -33 -99 -14 -3 6 -16 10 -27 10 -23 0 -90
21 -98 31 -3 3 -18 9 -33 13 -15 4 -25 11 -22 16 3 6 1 10 -4 10 -6 0 -11 14
-11 30 0 17 5 30 10 30 6 0 10 5 10 12 0 13 31 47 44 47 5 1 26 -4 45 -10z"/>
<path d="M4653 4614 c-26 -11 -85 -73 -78 -83 3 -6 1 -11 -4 -11 -6 0 -11 -6
-11 -13 0 -7 -5 -18 -12 -25 -21 -21 -10 -120 19 -163 14 -22 31 -39 38 -39 8
0 15 -4 17 -8 5 -14 110 -59 148 -65 19 -3 56 -9 82 -12 45 -7 148 9 148 23 0
4 12 21 28 37 41 47 52 71 52 118 0 49 -44 147 -66 147 -8 0 -14 4 -14 9 0 5
-10 11 -22 14 -21 5 -62 18 -113 38 -11 4 -39 14 -63 23 -40 15 -123 20 -149
10z m108 -115 c19 -6 43 -14 54 -19 11 -4 35 -13 52 -20 18 -7 31 -16 28 -20
-3 -5 3 -6 13 -4 22 6 62 -31 62 -57 0 -30 -56 -79 -90 -79 -16 0 -32 5 -35
10 -3 6 -19 10 -35 10 -16 0 -31 4 -34 9 -3 5 -18 12 -33 16 -16 3 -41 13 -58
21 -27 12 -30 19 -29 56 1 32 7 47 28 65 31 26 32 27 77 12z"/>
<path d="M5242 4445 c-47 -14 -109 -75 -118 -115 -3 -14 -10 -43 -15 -65 -7
-30 -6 -52 5 -87 8 -27 12 -48 9 -48 -2 0 2 -7 11 -15 8 -8 17 -15 21 -15 6 0
20 -11 50 -38 8 -7 20 -12 27 -11 14 2 36 -5 83 -26 56 -25 205 -44 205 -26 0
6 9 11 20 11 11 0 20 4 20 10 0 5 13 16 28 24 15 8 38 35 51 61 19 39 23 58
18 104 -9 93 -40 137 -117 161 -25 7 -54 20 -65 27 -11 7 -29 13 -40 13 -12 0
-25 4 -30 8 -10 8 -57 24 -100 35 -11 3 -39 0 -63 -8z m91 -141 c9 -9 108 -43
125 -44 7 0 20 -6 28 -14 7 -8 19 -16 26 -18 20 -7 10 -59 -14 -80 -17 -15
-31 -18 -58 -13 -39 7 -100 26 -115 36 -5 3 -22 9 -37 13 -53 12 -74 58 -42
90 8 9 13 16 9 16 -3 0 -3 5 0 10 7 11 68 14 78 4z"/>
<path d="M3921 4343 c-25 -10 -81 -65 -81 -79 0 -7 -5 -14 -11 -16 -6 -2 -13
-40 -16 -84 -6 -88 -4 -93 73 -153 16 -12 22 -19 14 -15 -8 4 -12 3 -7 -1 4
-5 17 -9 30 -10 12 -1 51 -12 87 -24 127 -44 182 -53 195 -31 3 6 15 10 26 10
10 0 19 4 19 9 0 6 13 17 28 27 37 21 52 64 52 147 0 73 -14 114 -42 122 -10
4 -18 11 -18 16 0 5 -9 9 -19 9 -11 0 -23 5 -26 10 -3 6 -14 10 -23 10 -9 0
-30 7 -46 15 -15 8 -39 15 -51 15 -13 0 -25 5 -27 12 -5 13 -132 22 -157 11z
m117 -117 c15 -7 51 -17 79 -21 29 -4 56 -11 59 -17 3 -5 17 -13 30 -18 20 -8
24 -16 24 -52 0 -24 -7 -52 -15 -62 -8 -11 -15 -16 -15 -12 0 5 -7 3 -14 -4
-12 -9 -31 -8 -88 5 -40 9 -81 21 -90 26 -10 5 -23 9 -29 9 -6 0 -22 9 -36 20
-14 11 -23 20 -19 20 4 0 -1 11 -10 25 -15 23 -15 25 0 25 9 0 16 8 16 19 0
46 55 64 108 37z"/>
<path d="M4465 4167 c-10 -7 -25 -18 -33 -24 -7 -7 -16 -13 -20 -13 -4 0 -15
-21 -25 -48 -10 -26 -23 -55 -28 -64 -13 -24 -11 -95 2 -104 6 -3 9 -15 6 -25
-3 -11 -2 -17 1 -16 4 2 15 -4 25 -15 9 -10 14 -18 10 -18 -5 0 19 -14 51 -30
32 -17 64 -30 71 -30 7 0 25 -6 40 -14 61 -32 235 -28 235 5 0 5 7 9 15 9 8 0
15 4 15 8 0 5 10 19 23 32 18 20 23 38 25 105 3 75 2 82 -24 115 -27 35 -86
70 -117 70 -9 0 -17 4 -17 9 0 5 -12 11 -27 14 -30 5 -87 24 -115 38 -25 13
-89 10 -113 -4z m188 -145 c16 -7 35 -12 43 -12 8 0 14 -4 14 -10 0 -5 8 -10
19 -10 23 0 37 -17 43 -53 8 -45 -30 -77 -92 -77 -30 0 -54 6 -64 15 -8 8 -27
15 -43 15 -15 0 -44 8 -63 18 -30 14 -36 23 -41 60 -3 23 -2 42 3 42 4 0 8 6
8 13 0 35 88 34 173 -1z"/>
<path d="M5040 3983 c-14 -9 -27 -20 -30 -23 -3 -4 -13 -9 -23 -13 -10 -4 -16
-11 -12 -17 3 -5 -3 -18 -13 -28 -33 -33 -50 -129 -31 -174 23 -55 100 -115
157 -123 17 -2 39 -8 50 -14 12 -6 33 -11 47 -11 18 0 25 -4 22 -13 -3 -9 9
-11 57 -6 71 8 106 18 106 30 0 5 5 9 11 9 15 0 33 21 50 58 7 17 17 32 21 32
23 0 -6 149 -37 198 -1 1 -42 16 -91 33 -49 16 -98 34 -109 39 -99 45 -136 50
-175 23z m114 -118 c11 -8 32 -15 48 -15 15 0 28 -4 28 -10 0 -5 9 -10 20 -10
32 0 80 -29 89 -53 15 -38 2 -73 -32 -92 -27 -14 -39 -15 -77 -5 -25 6 -57 14
-72 17 -16 3 -28 9 -28 14 0 4 -18 13 -40 19 -52 14 -66 40 -50 91 7 22 19 39
27 39 8 0 11 5 8 10 -10 16 58 11 79 -5z"/>
<path d="M3720 3863 c-28 -5 -80 -69 -104 -128 -18 -43 -21 -111 -5 -121 6 -3
8 -15 6 -26 -3 -11 -3 -18 0 -15 3 3 15 -5 28 -19 12 -13 27 -24 34 -24 6 0
11 -4 11 -10 0 -5 9 -10 20 -10 11 0 20 -4 20 -9 0 -22 153 -57 237 -54 51 1
113 27 113 47 0 5 10 20 23 34 19 21 22 34 22 106 0 82 -1 84 -37 120 -23 23
-45 36 -62 36 -14 0 -26 4 -26 9 0 5 -10 11 -22 14 -28 6 -87 27 -110 38 -22
11 -115 19 -148 12z m123 -118 c20 -4 37 -11 37 -16 0 -5 12 -9 28 -9 15 -1
45 -11 67 -24 35 -20 40 -28 43 -64 2 -25 -1 -42 -7 -42 -6 0 -11 -7 -11 -15
0 -8 -6 -15 -14 -15 -8 0 -16 -6 -18 -12 -4 -10 -10 -10 -32 0 -15 6 -38 12
-51 12 -13 0 -26 4 -30 9 -3 5 -31 17 -62 26 -70 20 -80 31 -79 80 1 48 36 89
70 81 11 -2 38 -8 59 -11z"/>
<path d="M4845 3495 c-16 -7 -34 -11 -40 -7 -5 3 -7 2 -3 -2 3 -4 -7 -20 -23
-35 -16 -16 -29 -31 -29 -35 0 -4 -7 -14 -15 -23 -11 -11 -15 -34 -14 -89 1
-68 4 -77 33 -108 17 -18 42 -37 56 -41 14 -4 30 -11 35 -15 6 -4 25 -11 43
-15 18 -3 30 -10 28 -14 -3 -4 12 -8 32 -9 20 -2 41 -7 46 -12 6 -6 23 -10 39
-10 18 0 26 -4 21 -11 -5 -8 -1 -8 14 0 11 6 30 11 41 11 12 0 21 5 21 10 0 6
6 10 14 10 17 0 76 56 93 89 17 30 16 96 -1 144 -14 40 -67 97 -92 97 -8 0
-22 4 -32 9 -29 15 -87 31 -110 31 -12 0 -22 4 -22 9 0 5 -15 11 -32 14 -18 3
-42 7 -53 10 -11 3 -33 0 -50 -8z m69 -107 c-4 -6 -3 -8 3 -5 15 9 74 -10 165
-52 68 -32 77 -84 23 -133 -31 -29 -50 -35 -59 -19 -3 5 -18 12 -33 15 -67 15
-113 31 -113 38 0 4 -8 8 -18 8 -19 0 -50 30 -53 52 -4 35 3 59 26 83 26 25
73 36 59 13z"/>
<path d="M2145 5140 c2 -4 -14 -13 -35 -20 -22 -7 -40 -16 -40 -19 0 -4 -10
-17 -23 -31 -16 -17 -28 -51 -39 -102 -8 -43 -11 -75 -6 -72 4 3 8 -5 8 -18 1
-29 44 -78 92 -103 20 -10 35 -22 32 -27 -3 -4 3 -5 12 -1 11 4 15 2 11 -4 -4
-6 3 -8 17 -6 13 3 27 0 30 -6 4 -6 20 -11 35 -11 16 0 42 -7 57 -15 16 -8 42
-15 58 -15 33 0 113 48 136 81 8 12 21 27 28 35 7 8 12 41 12 89 0 67 -3 81
-26 111 -15 19 -43 41 -63 50 -20 8 -49 21 -66 28 -26 11 -76 25 -202 56 -18
4 -31 5 -28 0z m93 -140 c2 -5 14 -10 26 -10 13 0 26 -3 30 -7 9 -10 78 -33
97 -33 19 0 31 -23 33 -63 1 -19 -3 -26 -12 -22 -7 3 -10 0 -7 -6 8 -13 -32
-49 -54 -49 -9 1 -34 7 -56 15 -22 8 -50 15 -62 15 -13 0 -23 5 -23 10 0 6 -6
10 -14 10 -26 0 -75 35 -79 55 -3 23 11 62 33 88 11 14 24 17 50 13 19 -3 36
-10 38 -16z"/>
<path d="M2609 4912 c-21 -22 -36 -42 -31 -47 4 -4 0 -6 -9 -3 -12 5 -15 1
-11 -17 2 -12 -1 -26 -7 -29 -15 -10 -14 -133 2 -152 6 -8 21 -24 32 -36 11
-11 14 -17 6 -13 -9 5 -12 4 -7 -3 4 -6 13 -9 20 -6 7 3 19 -2 26 -11 7 -8 21
-15 32 -15 10 0 16 -4 13 -10 -4 -6 8 -10 29 -10 19 0 36 -5 38 -11 8 -23 218
-52 218 -30 0 6 5 11 10 11 6 0 21 11 34 25 13 14 28 25 35 25 6 0 11 7 11 15
0 8 5 15 10 15 6 0 9 3 8 8 -1 4 3 24 10 45 14 49 -3 157 -25 157 -8 0 -12 4
-9 9 3 4 -10 17 -29 27 -19 10 -35 22 -35 26 0 5 -11 8 -25 8 -14 0 -25 5 -25
10 0 6 -10 10 -23 10 -13 0 -27 4 -32 9 -17 15 -102 31 -165 31 -58 0 -64 -2
-101 -38z m223 -109 c37 -11 71 -23 75 -28 5 -4 2 -5 -6 0 -10 5 -12 4 -7 -4
4 -6 11 -9 16 -6 12 8 41 -6 34 -16 -3 -5 0 -9 5 -9 6 0 11 -13 11 -30 0 -16
-4 -30 -10 -30 -5 0 -10 -7 -10 -15 0 -37 -116 -25 -224 24 -59 28 -72 67 -39
117 19 30 39 29 155 -3z"/>
<path d="M3258 4773 c-16 -3 -28 -9 -28 -14 0 -5 -7 -9 -15 -9 -8 0 -15 -4
-15 -10 0 -5 -7 -10 -16 -10 -11 0 -14 -5 -10 -16 5 -12 2 -15 -9 -10 -10 3
-13 2 -10 -5 4 -6 -1 -16 -10 -23 -30 -22 -33 -206 -3 -206 5 0 19 -11 30 -25
11 -14 26 -25 34 -25 8 0 14 -4 14 -10 0 -5 9 -10 19 -10 11 0 22 -4 25 -9 16
-26 189 -58 250 -47 50 9 119 81 136 141 8 27 9 50 4 53 -5 4 -10 21 -11 37
-6 82 -20 92 -223 161 -25 8 -54 19 -65 24 -29 12 -66 17 -97 13z m112 -133
c0 -5 14 -10 30 -10 17 0 30 -4 30 -10 0 -5 9 -10 21 -10 13 0 18 -4 13 -12
-4 -7 -3 -8 4 -4 12 7 52 -10 64 -28 23 -34 -6 -96 -50 -111 -22 -6 -116 15
-154 36 -10 5 -27 9 -38 9 -11 0 -20 4 -20 9 0 5 -9 11 -19 14 -16 4 -19 13
-17 50 3 63 17 77 82 77 30 0 54 -4 54 -10z"/>
<path d="M2078 4722 c-47 -10 2 -81 96 -141 57 -36 76 -38 99 -13 28 30 20 50
-30 78 -27 15 -64 37 -83 49 -44 27 -60 32 -82 27z"/>
<path d="M1930 4605 c-6 -8 -9 -23 -5 -35 8 -27 101 -80 140 -80 17 0 44 -9
60 -20 83 -55 137 12 66 81 -46 44 -121 75 -139 57 -6 -6 -17 -6 -30 1 -29 16
-77 14 -92 -4z"/>
<path d="M2608 4538 c-30 -24 -31 -55 -3 -75 14 -10 45 -33 67 -51 66 -53 91
-63 127 -51 48 17 50 46 5 85 -22 18 -50 38 -64 46 -14 7 -36 20 -50 29 -38
25 -64 30 -82 17z"/>
<path d="M2562 4388 c-21 -21 -13 -47 18 -63 17 -9 28 -20 25 -25 -3 -6 0 -8
7 -5 7 3 27 -7 44 -23 43 -39 101 -65 129 -58 23 6 38 37 28 62 -6 15 -203
124 -225 124 -8 0 -19 -5 -26 -12z"/>
<path d="M3124 4335 c-14 -34 6 -50 159 -127 69 -35 101 -34 105 2 2 21 -7 31
-60 61 -92 54 -119 66 -161 74 -30 6 -38 4 -43 -10z"/>
<path d="M3076 4185 c-10 -27 4 -42 103 -104 101 -63 127 -72 138 -45 8 22
-39 68 -125 120 -77 46 -106 54 -116 29z"/>
<path d="M7222 4333 c-5 -10 -12 -31 -16 -48 -5 -17 -43 -66 -95 -120 -48 -49
-99 -108 -114 -130 -14 -22 -47 -68 -71 -103 -25 -34 -52 -75 -60 -91 -9 -16
-36 -48 -62 -72 -76 -72 -193 -217 -262 -324 -133 -207 -154 -237 -187 -273
-18 -20 -46 -58 -61 -84 -16 -26 -81 -116 -145 -200 -211 -279 -224 -299 -212
-317 5 -9 21 -17 35 -19 21 -3 34 7 69 54 46 59 140 175 149 184 15 14 90 108
90 113 0 7 170 259 233 347 84 116 188 274 213 322 13 26 51 77 85 115 33 37
80 98 105 136 24 37 48 67 53 67 11 0 139 156 191 234 57 83 102 136 118 136
11 0 13 8 7 37 -10 52 -45 72 -63 36z"/>
</g>
</svg>
