<?xml version="1.0" standalone="no"?>
<!DOCTYPE svg PUBLIC "-//W3C//DTD SVG 20010904//EN"
 "http://www.w3.org/TR/2001/REC-SVG-20010904/DTD/svg10.dtd">
<svg version="1.0" xmlns="http://www.w3.org/2000/svg"
 width="554.000000pt" height="1125.000000pt" viewBox="0 0 554.000000 1125.000000"
 preserveAspectRatio="xMidYMid meet">
<metadata>
Created by potrace 1.16, written by Peter Selinger 2001-2019
</metadata>
<g transform="translate(0.000000,1125.000000) scale(0.100000,-0.100000)"
fill="#000000" stroke="none">
<path d="M3591 10239 c-12 -11 -18 -25 -15 -31 4 -6 3 -8 -4 -4 -10 6 -55 -32
-190 -162 -57 -55 -69 -71 -97 -132 -9 -19 -38 -77 -63 -129 -26 -51 -46 -97
-44 -102 1 -5 -2 -9 -8 -9 -6 0 -9 -3 -8 -7 1 -5 -13 -39 -31 -76 -20 -40 -31
-76 -28 -88 3 -12 3 -18 0 -15 -17 16 -89 -207 -99 -304 -6 -57 -50 -224 -112
-420 -20 -63 -36 -117 -35 -120 1 -3 5 -14 9 -24 5 -12 4 -17 -3 -13 -10 6
-18 -22 -48 -173 -7 -36 -20 -98 -28 -138 -8 -40 -11 -75 -6 -78 5 -3 9 -10 9
-15 0 -6 -3 -8 -8 -5 -16 9 -71 -247 -76 -359 -4 -60 -8 -129 -10 -153 -2 -23
1 -45 5 -48 5 -3 9 -10 9 -15 0 -6 -4 -8 -8 -5 -10 6 -24 -83 -52 -319 -30
-260 -27 -296 30 -368 l22 -28 -38 26 c-21 14 -44 23 -51 20 -8 -2 -11 0 -8 5
3 5 -14 23 -37 40 -24 17 -58 44 -75 60 -18 17 -48 38 -68 47 -19 9 -37 24
-40 32 -7 22 -45 63 -77 83 -14 10 -29 25 -33 35 -9 27 -104 89 -161 105 -33
10 -97 14 -199 14 -136 -1 -154 -3 -193 -24 -50 -26 -79 -69 -88 -128 -8 -57
1 -92 40 -153 43 -67 51 -109 31 -158 -21 -48 -21 -243 -1 -300 21 -58 38
-174 35 -234 -3 -41 3 -66 21 -104 14 -27 28 -52 32 -55 4 -3 4 -35 1 -70 -3
-36 -6 -112 -7 -170 -1 -58 -7 -123 -14 -145 -7 -27 -9 -95 -6 -205 3 -91 7
-241 8 -335 1 -93 6 -188 10 -210 13 -64 6 -164 -14 -218 -16 -43 -19 -74 -17
-222 1 -95 -1 -171 -5 -168 -14 8 -12 -148 1 -157 4 -3 5 -33 2 -67 -4 -34 -4
-60 -1 -58 3 2 4 -58 3 -133 -2 -90 0 -130 6 -117 7 14 9 -6 9 -65 -1 -80 -2
-82 -8 -30 l-7 55 0 -72 c0 -40 6 -105 14 -145 15 -77 14 -230 -7 -742 -5
-132 -6 -244 -3 -249 3 -6 1 -7 -5 -3 -8 5 -12 -5 -12 -31 0 -21 -7 -62 -14
-91 -8 -29 -17 -108 -21 -175 -4 -67 -8 -142 -10 -167 -3 -45 22 -317 31 -331
2 -4 -1 -31 -7 -60 -6 -30 -12 -119 -14 -199 -1 -80 -6 -174 -10 -210 -5 -56
-3 -70 14 -98 22 -34 45 -40 74 -18 20 15 23 49 31 316 3 85 11 185 17 223 10
53 10 100 -1 225 -7 86 -10 202 -7 257 7 140 26 340 38 405 31 168 30 772 -1
985 -12 83 -21 215 -24 365 -6 242 -12 304 -27 294 -5 -3 -9 1 -9 10 0 8 4 16
10 18 5 2 12 86 16 188 5 154 11 198 30 260 25 79 31 169 15 230 -5 19 -12
112 -15 205 -3 94 -10 186 -16 206 -6 20 -9 63 -9 95 3 81 -12 224 -22 224 -5
0 -9 8 -9 18 0 14 2 15 10 2 7 -10 10 23 10 103 0 129 18 247 37 247 6 0 15 5
19 12 5 7 3 8 -6 3 -8 -5 -11 -4 -6 3 4 6 13 9 21 6 10 -4 15 9 20 53 3 32 10
68 15 80 6 13 7 98 3 195 -5 145 -3 179 10 210 18 44 46 43 49 -1 2 -49 1 -56
-17 -96 -27 -59 -30 -123 -10 -201 11 -44 18 -112 19 -186 2 -102 5 -121 22
-145 41 -55 126 -33 179 45 21 31 25 48 25 112 0 41 -7 103 -15 137 -11 48
-12 69 -4 87 12 27 45 40 56 24 4 -7 1 -8 -7 -3 -9 5 -10 2 -6 -11 12 -38 47
-169 48 -182 1 -6 3 -10 6 -7 6 5 94 -55 105 -72 4 -6 23 -21 42 -33 19 -12
35 -27 35 -34 0 -7 8 -21 19 -32 10 -11 30 -39 44 -61 15 -23 32 -45 39 -49 8
-5 8 -1 -2 12 -14 17 -14 18 2 6 9 -7 15 -21 13 -30 -3 -19 13 -44 25 -37 4 2
17 -6 30 -20 l22 -24 -27 -73 c-15 -40 -30 -87 -32 -105 -6 -36 14 -106 28
-98 5 4 6 -2 2 -11 -4 -10 -2 -15 3 -11 5 3 11 -3 12 -14 4 -42 6 -48 12 -44
4 2 18 -7 31 -21 53 -57 100 -64 147 -21 17 16 22 31 22 71 0 28 6 67 13 87
l12 36 18 -24 c10 -13 15 -28 11 -35 -4 -6 -3 -8 3 -5 10 6 31 -10 31 -23 1
-3 6 -18 12 -35 7 -16 12 -65 12 -108 0 -53 5 -92 18 -120 17 -40 35 -252 32
-387 0 -36 1 -40 8 -20 l8 25 1 -27 c1 -14 -4 -28 -9 -30 -12 -4 17 -94 52
-168 26 -53 91 -126 132 -147 46 -24 106 -21 144 6 19 13 31 29 28 37 -3 9 0
11 12 7 15 -6 16 -5 2 12 -9 11 -10 16 -2 11 6 -4 12 -5 12 -3 0 2 16 48 35
103 38 110 43 163 20 251 -19 72 -19 124 0 149 8 10 15 35 15 55 0 47 27 71
72 67 27 -2 39 -12 70 -58 21 -30 36 -60 33 -67 -2 -6 0 -27 6 -45 15 -55 13
-246 -5 -321 -16 -66 -13 -123 5 -111 5 3 6 -1 3 -9 -9 -25 42 -112 94 -159
56 -50 105 -68 184 -68 53 0 135 30 120 44 -3 4 2 4 12 0 15 -6 17 -15 12 -73
-6 -74 -17 -227 -22 -311 -2 -30 -11 -89 -20 -130 -20 -89 -24 -213 -13 -405
19 -329 23 -555 12 -760 -4 -82 -6 -207 -5 -277 2 -87 -2 -156 -13 -217 -14
-73 -15 -102 -6 -160 15 -97 14 -175 -5 -283 -13 -73 -15 -121 -9 -223 16
-253 14 -376 -6 -421 -25 -55 -32 -109 -19 -134 13 -25 55 -27 64 -3 19 50 29
187 30 448 1 200 6 310 15 353 10 46 12 93 6 175 -8 120 -9 164 -2 442 4 175
13 347 22 412 2 18 0 33 -6 33 -5 0 -9 17 -8 38 0 30 2 33 9 17 5 -12 9 50 9
160 1 120 -3 175 -9 165 -8 -12 -10 -10 -10 8 0 14 4 21 11 16 8 -5 8 -1 0 14
-8 15 -8 23 0 27 6 4 8 18 4 32 -3 14 -8 73 -11 131 -2 59 -7 134 -10 167 -6
77 -5 286 3 298 12 20 18 261 6 280 -3 6 -1 7 5 3 9 -5 12 14 13 68 1 42 3 81
4 86 1 6 3 20 4 33 0 13 15 42 33 65 29 37 46 88 26 76 -4 -3 -8 -1 -8 4 0 5
22 21 49 35 76 42 119 91 112 130 -1 5 2 6 7 3 5 -3 14 6 21 20 6 14 15 23 19
20 12 -7 13 13 16 359 3 236 7 333 18 370 16 57 16 64 4 84 -6 10 -5 12 2 7 7
-4 12 0 12 10 0 21 46 121 61 129 5 4 14 18 20 32 5 14 14 21 21 17 7 -4 8 -3
4 4 -4 6 0 24 7 39 22 42 30 107 22 175 -13 113 -83 159 -240 157 -81 -1 -190
15 -245 36 -25 9 -54 19 -65 21 -53 9 -332 77 -350 84 -11 5 -38 14 -60 21
-22 7 -50 18 -62 26 -12 8 -27 12 -32 8 -7 -4 -8 1 -4 11 4 10 2 15 -3 11 -5
-3 -66 24 -134 59 -69 35 -145 74 -170 86 -25 13 -47 24 -49 25 -1 1 0 24 4
51 l7 49 38 -1 c28 0 46 6 64 23 14 13 23 27 21 32 -3 4 0 11 6 15 8 4 9 3 5
-4 -15 -24 15 -11 53 23 21 19 43 35 48 35 12 0 83 73 83 86 0 6 17 36 39 66
30 43 36 59 28 73 -6 12 -6 16 1 11 15 -9 26 91 17 169 -3 36 -11 65 -17 65
-6 0 -7 7 -3 18 12 26 7 96 -10 166 -25 100 -61 196 -71 188 -4 -4 -3 0 3 8 9
11 3 45 -23 145 -19 72 -41 164 -49 205 -8 41 -21 107 -30 146 -8 39 -19 120
-25 180 -5 60 -14 134 -20 164 -6 30 -15 93 -20 140 -6 47 -15 109 -20 139
-14 75 -13 124 5 206 8 39 15 91 15 117 0 26 7 80 15 120 9 40 18 105 20 143
14 248 18 283 37 333 11 28 18 61 15 73 -3 12 -3 19 0 16 6 -7 76 93 76 110 0
7 3 10 7 8 4 -2 22 23 41 56 19 33 51 87 72 120 20 33 34 65 31 71 -4 7 -2 8
4 4 7 -4 12 -3 12 3 0 20 -17 20 -39 0z m-393 -724 c-5 -38 -15 -98 -22 -132
-9 -43 -10 -65 -2 -73 7 -7 7 -10 -1 -10 -12 0 -18 -33 -28 -142 -3 -37 -10
-82 -16 -100 -13 -46 -11 -106 5 -185 14 -68 29 -183 29 -229 0 -13 5 -24 13
-24 7 0 11 -6 8 -14 -3 -8 1 -34 9 -58 9 -24 18 -84 21 -133 6 -79 16 -175 22
-197 1 -5 2 -20 3 -34 1 -17 5 -23 14 -18 9 6 9 4 1 -7 -14 -19 -7 -93 14
-159 13 -39 46 -172 67 -267 8 -35 23 -83 34 -108 11 -25 23 -61 27 -80 4 -22
10 -32 18 -28 8 5 8 3 0 -8 -14 -16 -10 -65 11 -157 8 -35 15 -92 15 -126 0
-55 -6 -75 -42 -146 -22 -45 -52 -89 -65 -98 -13 -9 -37 -28 -54 -40 -16 -13
-37 -25 -46 -26 -10 -2 -18 -9 -18 -17 0 -7 -9 -15 -19 -17 -18 -4 -19 1 -12
89 4 52 8 153 9 224 2 151 -8 182 -73 215 -59 30 -112 27 -155 -11 -19 -17
-32 -36 -28 -42 3 -6 1 -7 -5 -3 -21 13 -45 -43 -47 -108 -1 -35 -5 -68 -8
-73 -9 -14 -10 -97 -2 -206 6 -95 6 -98 -13 -88 -11 6 -23 7 -27 3 -5 -4 -5
-2 -2 4 3 6 -7 24 -23 39 -66 63 -79 93 -81 185 -1 47 5 128 14 180 9 52 18
133 21 180 10 138 17 212 27 269 5 30 9 80 9 111 0 49 19 148 37 190 3 8 8 24
10 35 3 18 56 248 69 300 3 11 7 36 9 55 7 49 32 153 57 232 11 37 18 76 15
87 -3 12 -2 19 2 16 4 -2 20 49 35 113 15 64 32 128 38 142 5 13 11 56 13 95
4 67 45 247 65 286 6 10 10 27 10 39 0 21 40 154 45 148 1 -2 -2 -34 -7 -73z
m-1072 -2210 c25 -8 55 -22 66 -29 17 -12 11 -13 -45 -9 -141 12 -215 -81
-176 -220 5 -21 14 -35 19 -32 6 3 7 -1 4 -9 -10 -26 136 -268 158 -264 7 2
12 -3 10 -11 -2 -8 13 -31 33 -51 19 -20 33 -39 30 -41 -2 -3 42 -52 100 -109
58 -56 105 -105 105 -108 0 -9 145 -142 162 -147 9 -3 25 -21 36 -39 10 -18
41 -50 68 -71 27 -21 72 -60 99 -86 28 -26 68 -52 90 -59 22 -7 57 -21 78 -32
21 -10 43 -16 49 -12 7 4 8 3 4 -4 -4 -8 3 -16 19 -22 16 -6 23 -14 19 -22 -4
-7 -3 -8 5 -4 6 4 17 3 24 -2 50 -42 334 -73 413 -46 26 9 51 10 84 4 65 -12
131 -15 159 -6 18 6 22 5 16 -4 -6 -10 4 -11 51 -5 32 4 80 7 107 6 26 -1 57
4 70 11 12 6 50 15 84 19 84 9 187 60 208 105 18 38 18 46 4 95 -7 23 -16 36
-23 32 -6 -3 -6 0 1 7 10 10 8 20 -9 43 -19 27 -20 30 -4 24 10 -4 53 -10 95
-13 91 -6 121 -29 121 -93 0 -53 -28 -143 -42 -135 -6 4 -8 3 -4 -4 3 -6 -12
-30 -34 -54 -22 -24 -40 -46 -40 -50 0 -4 -16 -22 -35 -39 -19 -18 -32 -36
-28 -42 3 -6 1 -7 -5 -3 -14 8 -72 -66 -100 -129 -30 -68 -42 -139 -42 -254 0
-53 -5 -123 -10 -156 -6 -39 -6 -63 0 -69 6 -6 10 -39 10 -75 0 -46 -3 -62
-10 -51 -7 11 -10 -1 -9 -40 0 -40 3 -49 9 -35 7 17 9 15 9 -12 1 -18 -3 -33
-7 -33 -5 0 -8 -33 -7 -72 2 -60 -1 -76 -17 -91 -10 -10 -22 -32 -25 -49 -3
-16 -12 -32 -19 -35 -8 -3 -14 -9 -14 -15 0 -5 5 -6 12 -2 7 4 8 3 4 -5 -4 -6
-11 -9 -16 -6 -5 3 -12 1 -15 -5 -4 -6 -24 -18 -46 -27 -21 -8 -39 -19 -39
-24 0 -5 -7 -5 -17 0 -10 6 -30 12 -46 16 -15 3 -39 19 -54 35 -25 28 -52 42
-38 20 10 -16 -1 -11 -16 7 -10 11 -10 14 -1 9 20 -12 14 19 -8 39 -29 26 -34
73 -14 130 13 40 15 70 10 151 -4 56 -13 121 -21 145 -8 24 -16 56 -17 70 -5
38 -76 142 -114 167 -84 55 -213 3 -214 -86 0 -18 -7 -43 -14 -55 -18 -27 -21
-73 -11 -203 7 -88 5 -108 -12 -155 -11 -30 -23 -70 -27 -90 -3 -20 -18 -47
-32 -60 l-25 -24 -37 20 c-20 11 -37 25 -37 32 0 6 -4 15 -9 20 -5 5 -6 2 -1
-6 5 -9 4 -12 -3 -7 -13 8 -54 93 -70 146 -10 33 -17 133 -26 340 -5 108 -4
108 -16 90 -6 -9 -10 -10 -10 -3 0 6 4 14 10 18 5 3 2 23 -9 48 -12 28 -18 68
-18 119 -1 49 -6 88 -17 109 -9 18 -16 38 -16 46 0 8 -5 11 -12 7 -7 -4 -8 -3
-4 5 4 7 -5 26 -22 45 -16 19 -40 52 -53 75 -12 23 -26 41 -31 41 -4 0 -25 16
-47 35 -45 41 -64 44 -85 13 -21 -30 -20 -60 5 -118 16 -37 18 -53 10 -68 -6
-12 -11 -39 -11 -61 0 -51 -13 -52 -44 -3 -36 56 -50 106 -36 132 6 12 16 45
21 73 6 29 12 64 15 78 6 28 -21 83 -36 74 -5 -3 -12 0 -16 6 -4 8 -3 9 4 5
23 -14 11 6 -20 34 -17 16 -35 27 -39 24 -4 -2 -11 1 -15 7 -4 8 -3 9 4 5 17
-10 15 1 -5 35 -10 16 -23 29 -29 29 -6 0 -17 13 -24 30 -7 17 -17 27 -24 23
-8 -4 -8 -3 0 6 14 15 -4 34 -90 100 -77 59 -106 96 -107 134 -1 89 -72 175
-133 163 -40 -8 -53 -21 -83 -80 -24 -48 -25 -52 -13 -115 30 -153 19 -242
-29 -238 -11 0 -17 5 -14 11 16 25 1 213 -24 290 -16 51 -12 128 8 153 15 17
29 93 18 93 -5 0 -9 8 -9 18 0 15 2 15 11 2 8 -11 9 -8 4 15 -7 38 -71 95
-106 95 -36 0 -84 -51 -98 -103 -6 -24 -11 -115 -10 -212 0 -93 -1 -181 -4
-195 -3 -14 -6 -38 -7 -55 l-1 -30 -16 35 c-10 23 -17 74 -19 145 -3 70 -10
125 -20 150 -11 25 -18 83 -22 157 -4 98 -2 122 12 142 10 16 16 46 16 82 0
58 -15 95 -67 157 -14 17 -23 42 -23 61 0 40 18 96 32 96 5 0 6 5 2 12 -5 7
-3 8 5 3 7 -4 23 -2 34 3 47 24 96 30 204 27 67 -2 131 -10 159 -20z m-17 -85
c12 -6 30 -6 50 0 19 5 29 5 26 -1 -4 -5 3 -9 15 -9 24 0 72 -29 65 -40 -2 -4
6 -6 20 -5 14 2 31 -5 42 -18 10 -11 12 -17 6 -13 -16 9 -16 4 -1 -29 11 -24
21 -30 43 -25 5 1 7 -2 3 -6 -8 -7 29 -44 44 -44 5 0 33 -25 63 -55 31 -30 74
-67 98 -83 23 -15 53 -37 66 -49 13 -12 32 -20 43 -18 10 2 16 0 13 -5 -3 -5
4 -14 15 -20 11 -6 18 -15 15 -21 -4 -5 -3 -8 2 -7 4 2 36 -8 70 -22 l63 -24
-5 -139 c-3 -76 -7 -143 -10 -148 -4 -5 -1 -9 4 -9 6 0 11 -19 11 -42 0 -32
-3 -39 -10 -28 -7 10 -10 -13 -10 -74 l0 -88 -24 23 c-14 13 -29 24 -33 25
-21 2 -43 17 -43 29 0 8 -13 23 -29 34 -32 23 -46 27 -35 9 4 -7 3 -8 -5 -4
-6 4 -9 11 -6 16 3 4 -12 22 -34 39 -41 33 -57 39 -45 19 6 -9 3 -9 -9 0 -9 8
-16 17 -15 20 0 4 -1 10 -2 15 -1 4 -3 13 -4 20 0 6 -6 12 -13 12 -18 0 -153
124 -150 138 1 7 -3 11 -10 10 -10 -2 -34 22 -115 117 -15 18 -26 35 -25 38 1
4 -1 7 -4 7 -17 0 -57 48 -121 145 -38 58 -73 104 -76 103 -4 -1 -8 8 -9 20 0
12 -4 41 -8 64 -10 56 0 91 30 105 13 6 22 15 19 19 -7 12 3 11 25 -1z m936
-491 c-4 -17 -11 -54 -15 -82 -9 -60 -15 -87 -29 -131 -6 -17 -9 -112 -7 -212
l3 -181 -24 5 c-22 4 -23 8 -23 92 0 48 3 189 7 313 l6 227 44 0 c45 0 45 0
38 -31z m211 -215 c44 -20 96 -48 117 -61 22 -14 45 -22 53 -19 9 3 12 1 9 -4
-3 -6 -2 -10 3 -10 5 0 36 -16 68 -36 36 -21 68 -33 81 -31 12 2 20 1 18 -3
-2 -3 37 -19 88 -34 51 -16 110 -34 132 -41 22 -7 55 -16 73 -19 28 -5 114
-39 163 -66 10 -5 21 -4 29 3 10 9 11 9 6 0 -4 -7 -3 -13 3 -13 10 0 67 -108
60 -113 -2 -2 -17 -13 -33 -25 -16 -12 -45 -23 -65 -23 l-36 -1 30 -8 c26 -7
24 -8 -20 -9 -36 0 -46 2 -35 9 21 14 7 12 -53 -4 -86 -24 -286 -27 -405 -7
-71 12 -106 14 -114 6 -8 -7 -9 -7 -4 2 6 12 -53 26 -184 43 -41 5 -95 16
-120 23 -45 13 -45 13 -45 58 1 24 4 71 9 103 4 32 9 102 11 155 2 53 8 107
13 121 6 14 13 33 16 42 6 21 13 19 132 -38z m1122 -854 c-22 -104 -29 -170
-17 -170 4 0 5 -10 3 -22 -10 -40 -12 -311 -3 -297 6 10 8 8 6 -8 0 -12 -4
-20 -8 -17 -4 2 -8 -39 -8 -93 -1 -76 -5 -105 -21 -137 -28 -57 -90 -124 -121
-131 -24 -6 -25 -5 -21 31 3 20 1 34 -4 31 -5 -2 -10 25 -11 62 -1 45 1 57 6
36 8 -32 21 190 26 425 2 108 7 147 24 194 24 68 67 130 83 120 6 -4 8 -2 4 4
-3 6 -2 13 4 17 6 4 8 10 5 15 -3 5 0 12 6 16 8 4 9 3 5 -4 -11 -18 9 -14 35
7 13 11 25 19 26 18 1 -1 -8 -45 -19 -97z"/>
<path d="M2007 5989 c-23 -18 -26 -24 -15 -37 11 -13 11 -14 -2 -7 -12 7 -13
6 -3 -7 7 -8 10 -18 7 -21 -9 -9 -10 -138 -1 -144 4 -3 4 -10 -1 -16 -9 -12
-8 -112 2 -157 3 -14 15 -56 28 -93 29 -86 45 -85 75 3 37 112 48 303 23 398
-27 99 -58 121 -113 81z"/>
<path d="M2042 5200 c-17 -16 -22 -31 -21 -73 1 -28 -3 -84 -8 -122 -5 -40 -5
-88 0 -110 11 -54 4 -122 -18 -168 -15 -33 -16 -40 -4 -48 9 -5 10 -9 2 -9
-25 0 -38 -122 -21 -202 5 -24 9 -51 9 -61 0 -12 5 -17 14 -13 7 2 19 -3 27
-12 12 -15 11 -16 -4 -3 -12 9 -18 10 -18 2 0 -17 45 -34 73 -27 26 6 54 57
42 75 -4 7 1 8 12 4 10 -3 15 -3 11 1 -3 4 -2 22 3 39 11 35 31 237 31 302 0
22 -4 114 -9 205 -9 180 -18 211 -69 230 -32 12 -27 13 -52 -10z"/>
</g>
</svg>
