<?xml version="1.0" standalone="no"?>
<!DOCTYPE svg PUBLIC "-//W3C//DTD SVG 20010904//EN"
 "http://www.w3.org/TR/2001/REC-SVG-20010904/DTD/svg10.dtd">
<svg version="1.0" xmlns="http://www.w3.org/2000/svg"
 width="887.000000pt" height="1125.000000pt" viewBox="0 0 887.000000 1125.000000"
 preserveAspectRatio="xMidYMid meet">
<metadata>
Created by potrace 1.16, written by Peter Selinger 2001-2019
</metadata>
<g transform="translate(0.000000,1125.000000) scale(0.100000,-0.100000)"
fill="#000000" stroke="none">
<path d="M3755 10566 c-124 -39 -203 -118 -234 -231 -8 -31 -126 -846 -157
-1082 -3 -24 -8 -43 -12 -43 -4 0 -17 20 -30 43 -27 52 -83 87 -137 87 -31 0
-45 -7 -75 -39 -38 -40 -89 -136 -135 -256 -15 -38 -35 -88 -45 -110 -9 -22
-21 -50 -24 -62 -4 -13 -49 -56 -99 -97 -83 -67 -166 -148 -238 -232 -37 -43
-95 -150 -113 -209 -9 -27 -32 -178 -51 -335 -41 -335 -67 -494 -95 -582 -11
-34 -27 -110 -35 -167 -15 -103 -20 -179 -50 -836 -19 -404 -34 -527 -74 -610
-28 -57 -119 -196 -306 -470 -162 -239 -261 -381 -313 -455 -29 -41 -79 -113
-112 -160 -32 -47 -84 -121 -115 -165 -31 -44 -72 -102 -91 -130 -34 -51 -79
-114 -168 -238 -33 -46 -45 -72 -39 -78 11 -11 54 42 172 211 29 41 106 152
171 245 66 94 155 222 200 285 266 381 584 856 619 925 57 113 72 260 106
1025 16 366 25 470 50 562 56 204 51 177 115 693 26 207 42 279 76 348 38 74
132 192 207 260 74 66 176 147 186 147 4 0 18 -11 31 -25 13 -14 28 -25 35
-25 21 0 103 96 145 170 52 92 57 130 35 261 -18 111 -16 119 36 119 40 0 90
-40 118 -95 34 -64 33 -141 -2 -370 -14 -93 -37 -258 -52 -365 -14 -107 -31
-213 -37 -235 -6 -22 -10 -52 -9 -67 2 -23 -6 -32 -54 -60 -135 -79 -136 -79
-228 -11 -59 43 -77 51 -77 34 0 -11 50 -49 111 -84 47 -28 93 -35 104 -17 3
6 16 10 27 10 21 0 21 -1 13 -202 -5 -112 -9 -298 -10 -415 -1 -148 -5 -215
-13 -226 -7 -8 -30 -144 -52 -303 -22 -159 -53 -381 -70 -494 -37 -238 -33
-308 20 -390 78 -122 140 -154 359 -186 86 -12 217 -32 291 -43 74 -11 248
-36 385 -56 138 -20 257 -37 265 -38 8 -1 16 6 18 16 2 9 -2 17 -9 17 -8 0
-108 14 -224 31 -115 17 -357 52 -537 78 -277 41 -336 52 -383 76 -100 48
-161 133 -172 237 -3 33 6 132 26 268 17 118 46 325 66 460 19 135 41 292 50
350 9 57 14 115 10 127 -3 13 -2 23 3 23 5 0 16 60 26 133 30 220 35 258 51
362 8 55 29 197 45 315 17 118 39 278 50 355 11 77 34 235 50 350 128 912 191
1366 196 1400 16 108 124 221 235 244 39 9 77 7 187 -9 75 -12 245 -36 377
-55 132 -19 299 -44 370 -54 72 -11 258 -38 415 -61 474 -68 518 -76 570 -110
89 -57 142 -148 143 -246 0 -36 -41 -340 -113 -834 -39 -267 -176 -1230 -190
-1340 -6 -47 -22 -125 -36 -175 -14 -53 -29 -144 -35 -220 -5 -71 -19 -206
-30 -300 -17 -140 -26 -181 -49 -230 -84 -176 -97 -253 -62 -363 21 -64 17
-122 -9 -138 -6 -3 -24 -27 -40 -52 l-29 -46 0 33 c0 19 7 77 15 130 8 53 22
152 31 221 9 69 29 215 45 325 16 110 36 247 44 305 8 58 48 341 89 630 42
289 89 622 105 740 17 118 40 276 50 350 39 260 91 645 91 668 0 12 -3 22 -7
22 -5 0 -35 5 -68 10 -33 6 -197 30 -365 55 -168 24 -460 67 -650 94 -888 130
-1025 149 -1032 143 -7 -8 -20 -94 -89 -587 -27 -198 -54 -385 -59 -415 -5
-30 -32 -219 -60 -420 -27 -201 -74 -538 -104 -750 -30 -212 -80 -563 -110
-780 -31 -217 -64 -446 -73 -508 -10 -69 -13 -116 -7 -121 5 -5 106 -23 224
-40 594 -84 986 -142 998 -146 6 -2 12 2 12 9 0 15 0 15 -263 52 -600 84 -932
135 -941 144 -11 11 0 106 55 490 21 151 53 372 69 490 17 118 44 307 61 420
16 113 41 291 55 395 14 105 41 298 60 430 19 132 50 353 69 490 74 527 117
810 125 819 5 5 75 -1 162 -13 273 -39 351 -50 453 -66 55 -8 192 -29 305 -45
113 -16 358 -52 545 -79 187 -28 376 -55 420 -61 122 -18 184 -31 189 -39 3
-4 -2 -52 -9 -106 -23 -160 -93 -658 -115 -805 -10 -74 -31 -218 -45 -320 -14
-102 -32 -230 -40 -285 -9 -55 -56 -386 -105 -735 -50 -349 -104 -734 -122
-855 -18 -121 -32 -236 -33 -255 0 -97 16 -214 36 -261 21 -48 22 -56 11 -139
-7 -48 -19 -104 -27 -124 -8 -19 -15 -47 -15 -62 l0 -27 19 25 c11 13 27 47
36 75 10 31 25 55 38 61 74 38 138 53 253 62 155 12 208 34 288 121 70 76 92
140 77 223 -12 65 -38 119 -80 164 l-31 33 26 40 c52 83 143 281 150 327 12
79 -10 192 -55 278 l-39 77 29 82 c15 45 42 110 60 145 17 34 37 80 45 102 16
47 19 206 4 260 -15 54 -69 127 -128 173 -28 22 -51 45 -51 51 -1 7 30 23 69
38 84 31 212 114 259 167 43 50 60 99 61 177 1 160 -121 244 -439 301 -56 10
-105 21 -108 25 -6 6 46 393 118 876 53 355 57 416 33 486 -10 30 -39 81 -65
112 -72 89 -135 114 -374 146 -195 27 -344 49 -450 66 -33 6 -186 28 -340 51
-154 22 -387 55 -518 74 -256 38 -301 40 -362 21z m-631 -1325 c3 -4 11 -51
17 -103 l12 -94 -38 -78 c-37 -75 -116 -176 -138 -176 -6 0 -21 9 -33 21 l-22
21 20 47 c11 25 31 78 45 116 34 94 112 255 123 255 5 0 11 -4 14 -9z m2741
-576 c216 -45 316 -99 350 -190 19 -47 15 -112 -10 -170 -35 -83 -201 -191
-366 -238 -96 -28 -215 -42 -224 -28 -5 9 51 446 76 589 13 74 5 72 174 37z
m-14 -676 c74 -46 143 -129 164 -198 32 -107 10 -258 -49 -334 -13 -17 -14 -8
-13 75 1 62 -3 103 -11 119 -28 52 -95 78 -164 65 -38 -7 -98 -56 -98 -79 0
-9 20 -30 44 -46 62 -43 135 -127 164 -190 23 -50 24 -57 12 -110 -17 -78 -24
-87 -75 -106 -83 -32 -208 0 -294 75 l-34 30 7 103 c7 106 22 202 50 317 8 36
23 117 33 180 l18 115 50 5 c123 13 144 10 196 -21z m44 -319 c39 -37 48 -79
35 -162 -13 -86 -23 -100 -40 -59 -13 32 -64 88 -139 153 -46 41 -46 49 3 79
40 26 107 21 141 -11z m-343 -455 c94 -64 235 -89 288 -52 13 9 30 17 37 17
16 0 65 -102 87 -176 31 -109 -5 -227 -132 -436 -51 -84 -81 -114 -66 -65 27
91 49 160 65 210 11 31 19 69 19 85 0 36 -30 83 -76 118 -62 48 -135 37 -251
-37 -13 -7 -23 -19 -23 -25 0 -6 31 -42 68 -80 66 -68 125 -160 153 -239 8
-22 21 -45 29 -51 38 -30 -67 -84 -161 -83 -88 0 -146 24 -186 77 -76 100 -72
228 14 399 35 68 42 94 57 212 9 74 19 138 22 143 8 12 16 10 56 -17z m193
-309 c37 -16 75 -67 75 -102 0 -27 -38 -178 -57 -222 l-15 -36 -41 79 c-26 48
-69 106 -109 149 -76 80 -76 84 7 122 58 27 92 30 140 10z m92 -478 c67 -69
90 -174 57 -253 -20 -48 -98 -132 -147 -156 -35 -18 -101 -29 -263 -43 -50 -4
-69 -1 -105 17 -92 46 -136 220 -82 323 19 35 93 114 108 114 5 0 50 -27 65
-38 3 -2 -10 -16 -29 -31 l-34 -28 21 -31 c41 -56 81 -148 88 -199 3 -28 10
-56 14 -64 13 -19 46 -1 117 65 97 89 113 159 52 226 -37 40 -37 53 4 68 17 6
43 23 57 36 33 33 40 32 77 -6z m-225 -68 c44 -13 98 -71 98 -106 0 -43 -30
-92 -84 -139 -68 -61 -79 -59 -93 16 -7 35 -27 86 -47 120 -20 33 -36 67 -36
74 0 36 89 55 162 35z"/>
<path d="M4650 7422 c-17 -6 -89 -84 -107 -116 -7 -11 -15 -41 -19 -66 -4 -25
-22 -74 -40 -110 -32 -66 -62 -208 -48 -231 4 -6 8 -86 10 -178 2 -91 7 -198
12 -236 5 -39 7 -221 5 -405 -5 -292 -3 -356 14 -500 30 -244 30 -257 25 -632
-2 -176 -3 -186 -21 -181 -10 3 -21 -2 -24 -10 -3 -8 -28 -27 -56 -43 -100
-54 -229 -253 -237 -366 -2 -29 -8 -142 -14 -250 -11 -188 -10 -202 10 -285
48 -202 63 -252 96 -333 20 -47 46 -116 59 -155 64 -189 132 -330 213 -440 20
-27 51 -72 69 -100 18 -27 68 -77 110 -112 43 -34 96 -86 118 -115 23 -30 69
-71 105 -95 36 -22 88 -60 116 -82 73 -58 117 -87 186 -122 33 -17 78 -47 101
-68 23 -20 65 -52 93 -69 28 -18 64 -44 80 -57 16 -14 45 -30 64 -36 36 -12
165 -73 185 -88 5 -4 26 -14 45 -21 19 -8 84 -46 144 -86 115 -76 126 -90 271
-309 18 -27 91 -118 162 -201 70 -83 148 -177 173 -208 25 -32 70 -90 101
-129 31 -40 69 -97 86 -127 16 -30 41 -74 56 -96 14 -23 37 -70 52 -105 14
-35 51 -115 81 -177 52 -105 57 -112 85 -112 16 0 29 2 29 5 0 4 -33 73 -163
345 -47 98 -93 182 -114 209 -7 9 -39 52 -72 96 -32 44 -68 89 -78 100 -10 11
-34 40 -53 65 -19 25 -37 47 -40 50 -14 13 -151 171 -191 220 -24 30 -80 109
-124 174 -44 65 -96 134 -115 152 -71 67 -201 141 -480 273 -36 17 -87 47
-115 66 -27 19 -65 45 -83 57 -18 13 -49 36 -69 51 -20 15 -65 41 -99 57 -34
16 -99 58 -145 93 -46 35 -106 78 -134 97 -46 31 -165 147 -165 161 0 3 -25
23 -56 44 -51 35 -144 135 -144 155 0 4 -10 18 -23 31 -71 74 -163 246 -216
408 -17 51 -38 107 -46 125 -53 116 -84 217 -131 426 -14 62 -19 192 -8 255 2
17 8 95 12 175 8 134 11 150 40 210 18 36 45 79 60 95 15 17 38 45 51 63 21
30 81 71 81 55 0 -4 16 8 35 27 19 19 35 30 36 24 1 -12 11 -667 11 -714 0
-19 -1 -90 -2 -157 -1 -67 1 -126 4 -132 3 -5 9 -76 12 -158 4 -81 11 -156 16
-165 12 -24 32 -24 23 0 -10 24 -17 222 -9 241 16 36 22 293 11 416 -14 143
-18 343 -15 710 4 587 -2 738 -37 980 -9 64 -11 153 -7 310 8 287 8 313 -3
555 -14 341 -12 397 14 458 13 28 27 52 31 52 5 0 12 -15 15 -32 4 -18 11 -37
15 -43 4 -5 12 -30 17 -55 6 -33 14 -46 28 -49 11 -2 33 -12 48 -23 24 -17 39
-20 93 -15 78 6 124 37 157 103 11 24 24 44 27 44 4 0 5 35 3 78 l-4 77 26
-49 c25 -45 27 -61 36 -245 10 -226 16 -297 34 -381 3 -14 9 -74 15 -135 12
-141 29 -312 35 -350 2 -16 7 -66 10 -110 7 -103 23 -221 41 -312 8 -40 14
-94 14 -122 0 -32 5 -51 14 -54 8 -3 16 -23 19 -44 12 -80 45 -230 60 -276 10
-26 17 -55 17 -63 0 -9 13 -55 29 -104 36 -106 57 -215 71 -359 9 -100 56
-276 81 -307 6 -7 23 -52 39 -101 43 -134 114 -288 204 -443 14 -25 28 -53 32
-62 7 -21 30 -24 37 -5 2 6 -1 19 -8 27 -7 8 -29 47 -50 85 -21 39 -48 86 -60
105 -36 59 -72 140 -115 260 -23 63 -58 158 -77 210 -49 133 -53 149 -53 199
0 74 -39 283 -81 431 -28 97 -55 245 -55 290 1 33 3 35 41 41 22 3 57 13 78
23 43 21 120 17 217 -10 67 -19 87 -30 133 -70 31 -28 107 -135 107 -151 0 -3
11 -20 24 -37 27 -36 124 -235 157 -321 12 -33 32 -82 44 -110 12 -27 28 -68
35 -90 7 -22 25 -62 40 -90 15 -27 41 -90 58 -140 27 -82 55 -146 129 -303 14
-29 37 -88 52 -130 17 -52 32 -78 44 -80 31 -6 19 47 -42 182 -46 101 -60 135
-80 191 -25 69 -30 82 -60 149 -12 27 -29 70 -38 95 -8 25 -28 64 -42 86 -15
22 -33 60 -41 85 -7 25 -24 67 -38 94 -13 27 -35 83 -49 125 -14 42 -30 81
-35 88 -5 6 -28 46 -52 90 -24 43 -58 103 -75 135 l-32 56 30 7 c50 11 214 8
258 -4 33 -9 64 -32 131 -99 48 -48 141 -139 207 -202 101 -97 128 -129 169
-205 28 -49 67 -119 88 -154 21 -35 50 -98 65 -140 15 -42 32 -85 39 -96 24
-37 109 -280 120 -338 3 -18 11 -41 19 -53 7 -12 17 -39 21 -60 3 -21 10 -43
14 -49 10 -14 22 -65 24 -100 1 -19 6 -30 16 -30 25 0 19 146 -9 220 -13 33
-31 96 -41 140 -27 118 -58 222 -86 282 -13 30 -24 62 -24 72 0 20 -101 220
-150 297 -16 27 -30 52 -30 56 0 10 -79 126 -91 134 -5 3 -9 9 -9 13 0 9 30 6
170 -19 58 -10 132 -22 165 -26 33 -4 73 -13 90 -20 31 -13 214 -194 279 -277
81 -102 143 -270 151 -407 3 -47 10 -112 15 -145 5 -33 10 -85 10 -115 0 -30
9 -100 20 -155 12 -59 23 -158 26 -240 2 -78 11 -166 20 -200 35 -135 67 -241
79 -260 6 -11 15 -33 19 -49 9 -36 54 -127 139 -277 14 -25 34 -66 43 -90 10
-24 30 -63 46 -86 15 -23 28 -44 28 -48 0 -3 16 -31 35 -61 19 -30 35 -58 35
-62 0 -4 27 -50 59 -102 33 -52 81 -131 108 -175 26 -44 62 -96 79 -115 33
-36 124 -168 124 -179 0 -11 99 -143 136 -183 36 -39 70 -48 92 -26 19 19 14
51 -11 78 -36 39 -157 202 -173 233 -8 15 -27 40 -42 55 -84 82 -309 427 -407
623 -21 41 -41 76 -45 79 -4 3 -18 28 -31 55 -13 28 -40 79 -60 115 -93 163
-196 504 -182 599 6 36 -13 211 -28 271 -6 19 -14 100 -20 180 -6 80 -12 163
-14 185 -2 22 -7 73 -10 114 -4 53 -14 93 -35 138 -17 35 -30 68 -30 73 0 6
-4 10 -9 10 -4 0 -18 27 -30 60 -12 33 -42 83 -66 112 -25 28 -55 72 -66 96
-24 50 -125 152 -173 176 -70 34 -167 66 -203 66 -21 0 -54 5 -73 11 -19 6
-94 12 -165 12 l-131 2 -68 60 c-90 79 -193 183 -213 216 -23 38 -59 56 -149
75 -89 18 -239 12 -285 -12 -26 -13 -29 -11 -90 45 -82 76 -153 103 -309 115
-21 2 -53 -6 -81 -20 -25 -12 -61 -25 -81 -29 -45 -9 -42 -19 -78 240 -6 44
-15 103 -20 130 -15 84 -39 218 -45 254 -3 19 -8 38 -12 44 -10 17 -33 280
-48 557 -8 151 -21 316 -29 365 -8 50 -18 111 -21 136 -3 26 -14 63 -24 83
-11 20 -15 36 -10 36 5 0 9 5 9 11 0 6 -9 9 -19 6 -14 -3 -23 4 -36 32 -10 20
-23 47 -29 60 -6 13 -31 35 -56 48 -25 14 -52 31 -61 39 -16 14 -114 18 -149
6z m151 -41 c13 -10 34 -21 47 -25 28 -9 43 -38 46 -90 2 -22 6 -72 11 -109 7
-61 6 -70 -12 -90 -12 -12 -30 -41 -42 -64 -23 -46 -44 -57 -113 -56 -61 1
-92 21 -117 78 -24 55 -51 157 -51 195 0 16 -5 30 -11 32 -17 6 16 64 62 109
37 36 44 39 98 39 42 0 65 -5 82 -19z"/>
<path d="M4056 6205 c-74 -26 -126 -100 -126 -181 1 -67 82 -154 157 -169 72
-13 156 32 193 106 30 58 26 108 -12 165 -51 73 -135 105 -212 79z m126 -32
c51 -26 80 -68 86 -123 9 -91 -47 -158 -141 -167 -45 -4 -58 -1 -94 23 -60 39
-78 77 -70 149 7 65 24 89 82 116 50 23 95 24 137 2z"/>
<path d="M3468 5689 c-9 -20 -19 -46 -23 -57 -3 -12 -28 -66 -55 -120 -108
-217 -233 -333 -410 -378 -87 -22 -304 -14 -445 16 -135 28 -285 80 -397 135
-51 25 -68 29 -68 19 0 -13 62 -46 173 -93 134 -56 367 -109 507 -116 322 -16
508 99 663 411 56 111 80 176 75 200 -3 15 -8 11 -20 -17z"/>
<path d="M4182 4922 c-187 -187 -276 -247 -470 -313 -174 -60 -231 -115 -346
-334 -56 -106 -191 -291 -284 -390 -37 -38 -123 -133 -192 -210 -69 -77 -162
-178 -207 -225 -46 -47 -102 -115 -125 -152 -162 -253 -237 -345 -353 -433
-46 -35 -84 -74 -96 -96 -10 -21 -41 -68 -69 -104 -52 -69 -60 -100 -25 -100
20 0 81 81 127 169 11 22 69 87 128 145 59 58 140 151 180 206 41 55 88 117
106 137 18 21 45 57 60 80 15 24 64 81 108 128 45 47 99 105 120 130 22 25
100 108 175 184 75 77 156 165 181 197 125 159 164 215 226 324 37 65 90 142
118 171 45 47 65 58 171 99 173 67 296 142 424 259 70 63 198 209 198 226 0 8
3 25 7 38 4 12 5 22 2 22 -3 0 -77 -71 -164 -158z"/>
</g>
</svg>
