<?xml version="1.0" standalone="no"?>
<!DOCTYPE svg PUBLIC "-//W3C//DTD SVG 20010904//EN"
 "http://www.w3.org/TR/2001/REC-SVG-20010904/DTD/svg10.dtd">
<svg version="1.0" xmlns="http://www.w3.org/2000/svg"
 width="1277.000000pt" height="1081.000000pt" viewBox="0 0 1277.000000 1081.000000"
 preserveAspectRatio="xMidYMid meet">
<metadata>
Created by potrace 1.16, written by Peter Selinger 2001-2019
</metadata>
<g transform="translate(0.000000,1081.000000) scale(0.100000,-0.100000)"
fill="#000000" stroke="none">
<path d="M8624 9840 c-28 -4 -72 -20 -98 -35 -46 -27 -47 -27 -128 -15 -179
28 -255 10 -351 -82 -64 -62 -80 -67 -138 -43 -10 4 -31 -7 -57 -29 -23 -19
-57 -38 -74 -41 -18 -4 -37 -11 -43 -15 -5 -5 -26 -12 -45 -17 -27 -7 -39 -18
-54 -49 -10 -21 -24 -46 -31 -54 -16 -18 -22 -161 -11 -239 4 -30 21 -88 37
-130 16 -42 29 -81 29 -88 0 -25 49 -133 87 -192 23 -37 48 -64 65 -70 20 -7
29 -20 36 -48 5 -21 15 -62 22 -92 7 -29 23 -80 36 -113 28 -73 23 -93 -20
-83 -68 17 -109 6 -176 -44 -31 -23 -42 -25 -99 -22 -36 2 -76 7 -89 12 -14 5
-80 10 -147 11 -108 2 -126 0 -164 -21 -39 -19 -119 -85 -216 -176 -259 -242
-520 -497 -571 -557 -34 -40 -99 -141 -112 -173 -18 -44 -17 -120 1 -148 9
-13 74 -80 146 -147 72 -68 131 -127 131 -131 0 -4 -30 -31 -66 -59 -72 -57
-217 -199 -275 -271 -78 -96 -128 -175 -229 -364 -24 -44 -51 -91 -60 -105 -9
-14 -34 -61 -55 -106 -28 -59 -48 -88 -74 -105 -194 -130 -407 -338 -563 -549
-106 -143 -122 -171 -249 -432 -33 -68 -105 -266 -120 -328 -10 -48 -47 -197
-59 -241 -6 -20 -10 -48 -10 -62 0 -17 -16 -44 -42 -75 -44 -49 -97 -111 -165
-193 -21 -26 -74 -93 -118 -150 -44 -57 -86 -111 -92 -119 -26 -31 -134 -177
-175 -235 -23 -33 -67 -91 -97 -129 -31 -38 -64 -82 -74 -98 -10 -17 -24 -37
-32 -44 -24 -24 -89 -42 -136 -37 -67 7 -120 -16 -144 -62 -11 -21 -46 -59
-78 -84 l-57 -46 3 -74 c2 -40 9 -76 15 -80 72 -44 122 -110 122 -160 0 -40
-42 -114 -80 -141 -20 -14 -27 -27 -25 -43 3 -12 6 -42 9 -67 14 -152 91 -281
203 -339 67 -35 169 -14 225 45 31 34 104 177 117 232 5 20 17 64 26 97 35
124 36 137 10 175 -14 19 -33 40 -44 47 -19 12 -19 13 4 80 62 184 57 176 265
388 148 151 164 165 187 165 9 0 38 18 64 40 55 46 59 42 59 -53 1 -34 5 -96
11 -137 6 -41 12 -91 14 -110 2 -19 11 -73 20 -120 10 -47 21 -107 25 -135 7
-48 35 -167 67 -289 13 -53 25 -120 39 -226 9 -72 6 -272 -5 -283 -6 -6 -11
-21 -11 -34 0 -12 -9 -39 -21 -60 -105 -189 -354 -222 -899 -118 -99 19 -265
45 -332 52 -35 4 -49 10 -53 24 -10 30 -31 36 -175 48 -218 18 -220 19 -231
49 -22 57 -83 169 -113 206 -67 85 -263 270 -334 317 -107 71 -251 139 -377
177 -208 64 -524 87 -695 51 -30 -6 -73 -15 -95 -19 -40 -8 -116 -36 -185 -67
-123 -54 -277 -196 -317 -290 -12 -29 -62 -517 -63 -616 0 -9 15 -33 32 -51
37 -39 140 -76 209 -76 26 0 50 -7 66 -20 14 -11 31 -20 38 -20 7 0 23 -8 36
-19 32 -25 151 -61 201 -61 33 0 100 12 146 26 7 2 16 4 20 5 4 1 23 9 43 19
39 21 0 23 834 -51 298 -26 384 -21 462 27 27 17 49 39 51 49 2 11 7 24 11 28
5 4 88 1 186 -8 l178 -16 29 21 c35 26 56 25 288 -15 85 -14 182 -30 215 -36
33 -5 87 -15 120 -21 83 -14 395 -19 480 -7 137 20 290 90 373 169 156 152
205 446 131 800 -11 52 -22 104 -24 115 -2 11 -13 61 -25 110 -30 126 -47 213
-65 330 -13 89 -19 140 -31 265 -1 19 -6 109 -10 200 l-7 165 124 116 c150
140 289 265 378 339 63 53 323 309 480 473 40 42 77 77 83 77 5 0 45 -21 89
-46 119 -67 384 -192 447 -209 27 -8 28 -23 7 -255 -8 -91 -15 -266 -15 -390
1 -222 3 -283 14 -430 19 -239 21 -260 40 -385 9 -55 16 -105 16 -112 0 -7 11
-22 24 -35 13 -13 26 -36 29 -53 4 -16 13 -61 21 -100 21 -102 31 -189 30
-280 0 -72 -3 -86 -32 -135 -18 -30 -42 -67 -54 -82 -19 -24 -20 -30 -8 -60 7
-18 19 -40 26 -48 7 -8 16 -39 20 -68 6 -49 8 -52 35 -52 15 0 30 -4 34 -10 7
-11 29 -3 73 26 68 46 118 56 239 44 107 -10 161 -25 313 -85 35 -14 80 -38
100 -54 57 -46 70 -49 221 -62 111 -9 154 -9 188 0 109 30 128 145 38 234 -35
36 -155 120 -232 164 -87 50 -265 134 -272 130 -6 -4 -33 3 -62 13 -28 11 -65
20 -81 20 -38 0 -116 68 -138 120 -11 25 -16 84 -19 205 -4 187 12 669 27 810
5 50 12 142 15 205 7 141 34 487 41 517 3 18 11 23 38 23 18 0 38 6 43 13 11
14 38 129 52 227 14 90 25 153 65 355 48 242 65 330 77 414 6 40 15 84 20 98
5 13 9 41 9 61 0 20 9 71 20 112 11 41 20 85 20 98 0 21 3 23 33 17 153 -31
188 -57 335 -251 48 -63 62 -90 62 -116 0 -66 131 -228 201 -249 21 -7 39 -15
39 -19 0 -3 19 -29 43 -57 38 -45 267 -337 327 -417 70 -94 142 -176 154 -176
13 0 59 -47 87 -90 10 -14 25 -34 35 -45 11 -11 41 -50 68 -85 28 -36 53 -69
58 -75 54 -68 96 -122 108 -139 8 -11 30 -41 50 -66 20 -25 81 -103 135 -175
54 -71 109 -143 122 -160 14 -16 56 -70 94 -120 39 -49 76 -97 83 -106 7 -8
31 -40 54 -70 23 -30 80 -103 127 -164 48 -60 101 -130 118 -154 18 -25 40
-53 50 -63 15 -16 106 -134 241 -313 20 -27 44 -58 52 -68 17 -21 18 -32 3
-55 -10 -16 -1 -32 57 -106 38 -48 79 -101 92 -119 12 -18 61 -79 107 -137
132 -163 265 -334 265 -341 0 -3 -13 -12 -30 -20 -16 -8 -70 -38 -119 -68 -93
-57 -138 -109 -125 -147 13 -43 28 -62 52 -73 14 -7 304 -36 645 -66 l619 -54
39 24 c51 33 59 65 30 120 -20 37 -34 48 -114 85 -51 24 -138 65 -194 92 -57
26 -109 48 -116 48 -7 0 -18 5 -24 11 -11 11 -97 32 -175 43 -50 8 -71 27
-194 184 -27 35 -64 82 -82 105 -56 72 -63 81 -87 112 -13 17 -43 54 -67 84
-24 30 -56 73 -72 95 -16 23 -43 57 -60 77 -17 20 -51 62 -76 94 -92 117 -90
115 -125 115 -30 0 -40 9 -102 87 -37 48 -76 99 -85 113 -9 14 -42 57 -73 95
-30 39 -80 102 -109 140 -30 39 -84 108 -120 155 -102 130 -177 227 -221 285
-22 29 -67 87 -100 129 -33 43 -70 92 -83 109 -13 18 -31 41 -41 53 -10 11
-36 45 -59 75 -73 97 -125 164 -131 169 -3 3 -39 50 -80 105 -41 55 -82 107
-91 115 -8 8 -29 33 -45 56 -17 23 -63 84 -103 137 -40 52 -72 102 -70 110 2
8 -28 56 -67 107 -38 50 -80 106 -93 123 -13 18 -61 79 -107 137 -47 58 -126
157 -176 220 l-90 115 6 116 c8 132 8 131 -67 226 l-49 62 7 373 c4 205 7 387
7 403 -1 17 5 80 13 140 26 209 35 280 49 410 7 72 18 166 24 210 6 44 18 155
27 247 19 186 13 233 -33 285 -13 16 -28 36 -31 45 -4 9 -34 49 -66 88 -48 57
-116 181 -116 210 0 3 46 6 103 7 145 2 235 28 341 98 46 30 103 71 126 90 23
19 50 35 60 35 39 0 140 48 189 89 29 25 78 57 109 72 60 28 99 65 127 119 25
48 46 315 33 416 -5 43 -11 90 -13 104 -9 73 -60 231 -101 313 -88 173 -280
328 -462 372 -90 21 -104 22 -158 15z m-76 -587 c15 -10 30 -21 33 -26 3 -5
10 -8 14 -7 16 5 245 -211 245 -231 0 -4 6 -14 14 -21 7 -8 27 -40 44 -73 29
-54 30 -59 14 -71 -9 -8 -23 -14 -29 -14 -19 0 -16 -40 4 -62 9 -10 30 -18 47
-18 28 0 33 -5 44 -40 23 -76 17 -106 -35 -162 -46 -48 -48 -49 -54 -27 -3 13
-4 36 -2 51 7 37 -15 98 -35 99 -11 0 -12 2 -5 6 16 6 79 -32 87 -52 6 -17 46
-20 46 -4 0 6 -9 28 -21 48 -39 70 -125 105 -149 60 -8 -14 -8 -24 -1 -33 12
-15 5 -26 -17 -26 -24 0 -82 -49 -82 -70 0 -24 95 -107 132 -115 24 -6 26 -9
15 -26 -18 -28 -34 -30 -70 -9 -36 22 -94 26 -118 7 -23 -18 -13 -74 17 -94
33 -21 30 -38 -8 -54 -18 -7 -49 -23 -68 -35 -19 -13 -53 -26 -75 -30 -22 -3
-44 -9 -49 -12 -9 -5 -43 -10 -96 -14 -14 -1 -77 1 -141 6 l-117 8 -18 -31
c-10 -17 -22 -31 -26 -31 -4 0 -8 -11 -8 -24 0 -18 -6 -25 -22 -28 -19 -2 -23
-9 -23 -43 -1 -44 -60 -165 -80 -165 -7 0 -16 -10 -20 -22 -6 -17 -10 -5 -16
47 -4 39 -15 99 -24 135 -27 110 -28 123 -8 145 10 11 26 32 35 47 13 20 23
25 39 21 20 -6 22 -3 16 29 -5 35 -5 36 25 31 29 -4 30 -3 24 21 -4 15 -1 34
6 46 10 16 10 25 -5 49 -9 16 -17 39 -17 50 0 12 -4 21 -8 21 -8 0 -38 90 -34
103 1 4 -5 21 -13 37 -8 16 -15 43 -15 61 0 35 -32 94 -55 103 -8 3 -15 12
-15 21 0 8 -4 15 -8 15 -10 0 -37 51 -33 64 1 4 -3 14 -9 20 -5 7 -7 16 -4 19
4 4 1 19 -5 35 -9 21 -9 39 -3 63 6 19 11 26 11 17 1 -11 9 -18 21 -18 21 0
45 -41 41 -72 -1 -9 3 -19 9 -23 15 -9 12 -25 -5 -25 -17 0 -20 -23 -5 -51 15
-27 23 -24 70 21 28 27 40 45 36 57 -4 14 0 19 19 20 47 4 52 6 48 23 -5 18
16 40 89 94 44 33 148 86 168 86 6 0 10 4 10 9 0 5 14 12 30 16 17 4 30 10 30
14 0 4 6 8 13 8 6 1 35 10 62 21 63 25 61 25 93 5z m-822 -968 c12 -10 15 -17
8 -22 -6 -5 -14 -16 -17 -27 -4 -10 -13 -16 -21 -13 -16 6 -76 -100 -76 -134
0 -12 -7 -19 -19 -19 -14 0 -17 6 -13 25 2 14 9 25 14 25 5 0 7 8 4 18 -4 11
5 29 24 50 34 38 38 59 13 65 -36 9 -129 7 -163 -3 -19 -5 -38 -6 -43 -1 -11
11 46 31 92 32 20 0 45 4 56 9 33 14 119 11 141 -5z m-158 -288 c2 -9 -4 -24
-12 -33 -9 -8 -16 -22 -16 -30 0 -16 31 -19 46 -5 15 14 135 58 179 66 46 8
38 -5 -15 -25 -19 -7 -54 -21 -77 -31 -24 -11 -50 -19 -58 -19 -9 0 -30 -10
-48 -22 -79 -54 -89 -59 -94 -55 -9 10 20 122 40 150 21 30 50 33 55 4z m-160
-363 c23 -3 42 -9 42 -14 0 -4 39 -19 88 -34 48 -15 107 -38 132 -51 25 -12
60 -26 77 -30 18 -3 35 -10 38 -15 7 -12 65 -40 82 -40 8 0 29 -11 46 -24 18
-13 46 -27 62 -30 17 -4 38 -15 48 -23 9 -9 20 -13 24 -10 3 4 -17 31 -45 61
-29 30 -52 59 -52 64 0 17 98 -36 111 -60 l12 -22 17 22 c24 29 33 28 28 -3
-4 -21 -1 -26 21 -31 14 -3 38 -10 53 -14 27 -9 28 -7 34 31 4 21 11 39 16 39
5 0 6 5 3 10 -3 6 -1 10 4 10 6 0 11 -17 11 -39 0 -43 -35 -87 -77 -97 -28 -7
-30 -30 -3 -39 11 -3 20 -10 20 -16 0 -18 -23 -105 -36 -136 -8 -17 -14 -40
-14 -51 0 -19 -46 -59 -62 -54 -5 1 -8 -4 -8 -11 -1 -6 -20 -28 -43 -47 -23
-19 -72 -65 -108 -102 -36 -38 -71 -68 -76 -68 -6 0 -13 -10 -17 -23 -3 -12
-13 -31 -23 -42 -39 -43 -91 -122 -104 -157 -7 -21 -17 -38 -21 -38 -4 0 -8
-8 -8 -18 0 -10 -5 -23 -11 -29 -14 -14 -29 -80 -36 -153 -3 -30 -9 -59 -14
-65 -5 -5 -9 -18 -9 -30 -1 -37 -17 6 -24 65 -7 56 -34 147 -48 165 -26 33
-90 107 -132 152 -27 29 -46 53 -42 53 4 0 -14 23 -41 51 -26 27 -52 60 -58
72 -5 12 -27 40 -47 62 -21 21 -38 42 -38 47 0 4 -26 38 -57 76 -32 38 -67 81
-78 97 -11 15 -28 36 -37 47 -10 10 -18 21 -18 25 0 4 -14 22 -31 39 -31 32
-31 34 -17 66 15 31 35 172 30 211 -2 17 26 57 40 57 4 0 18 10 31 23 14 12
51 28 82 35 32 8 65 18 74 23 49 27 96 30 209 13z m-463 -548 c69 -75 95 -106
90 -106 -4 0 0 -6 7 -14 31 -32 76 -92 74 -98 0 -4 8 -14 20 -22 11 -8 33 -34
49 -58 16 -24 50 -68 76 -98 25 -30 48 -60 50 -66 6 -18 78 -94 88 -94 5 0 13
-9 16 -20 3 -11 12 -26 18 -33 40 -43 49 -59 52 -96 2 -23 9 -50 15 -60 15
-30 12 -33 -15 -15 -48 31 -74 3 -75 -81 0 -22 -3 -50 -6 -63 -6 -22 -8 -21
-41 18 -19 22 -40 40 -47 40 -7 0 -45 16 -84 36 -61 31 -72 40 -72 63 -1 65
-8 170 -14 211 -4 25 -8 59 -10 76 -3 34 -35 94 -49 94 -5 0 -26 17 -46 38
-21 21 -47 45 -58 53 -28 20 -137 115 -189 166 -23 22 -44 40 -46 39 -2 -2
-24 19 -50 46 -32 34 -41 48 -29 48 9 0 22 5 28 11 6 6 36 12 67 13 30 1 58 5
63 9 17 18 88 -5 118 -37z m-250 -148 c7 -7 44 -40 81 -73 37 -33 89 -81 116
-107 26 -27 50 -48 53 -48 3 0 26 -19 50 -42 54 -51 66 -88 70 -205 l3 -83
-72 6 c-39 3 -76 7 -83 9 -28 9 -72 -18 -92 -55 -11 -22 -16 -42 -12 -44 5 -3
11 -17 14 -32 5 -26 4 -26 -47 -20 -63 8 -261 10 -273 3 -4 -3 -35 -8 -67 -12
-33 -3 -68 -10 -78 -16 -10 -5 -23 -7 -29 -4 -5 4 -15 2 -22 -3 -7 -5 -37 -15
-67 -22 -30 -7 -60 -17 -66 -21 -6 -5 -33 -16 -59 -23 -36 -11 -50 -12 -60 -3
-10 10 -9 17 7 40 11 15 16 27 11 27 -4 0 0 5 10 11 9 5 17 17 17 26 0 9 21
57 47 107 25 50 51 101 57 113 6 13 14 23 18 23 4 0 19 21 34 48 15 26 40 58
54 72 14 14 37 41 50 60 13 19 28 38 33 41 5 4 55 50 112 104 96 90 149 133
168 134 5 1 14 -5 22 -11z m1300 -348 c3 -36 5 -72 6 -80 0 -8 0 -51 -1 -94 0
-64 17 -246 35 -386 2 -14 6 -58 10 -99 l7 -74 -30 31 c-16 17 -33 28 -36 25
-3 -4 -6 -1 -6 6 0 7 -4 10 -9 7 -10 -7 -44 29 -64 69 -18 36 -131 156 -169
180 -25 15 -26 19 -21 78 2 34 9 72 15 84 6 12 8 31 5 42 -3 12 -1 21 4 21 5
0 9 10 9 23 0 29 94 214 126 247 28 30 53 59 80 95 l19 26 8 -68 c4 -37 10
-97 12 -133z m222 -276 c12 -8 30 -14 40 -14 10 0 25 -6 33 -13 16 -13 16 -22
11 -417 -1 -96 -2 -183 -1 -193 0 -10 23 -43 52 -73 50 -53 52 -57 55 -117 2
-48 1 -56 -6 -34 -12 36 -26 52 -83 98 -26 20 -44 39 -41 43 4 3 0 6 -8 6 -9
0 -23 15 -33 33 -9 17 -24 45 -33 61 -9 17 -20 46 -25 65 -13 51 -37 200 -38
236 0 17 -2 50 -5 75 -3 25 -7 68 -10 95 -2 28 -7 74 -11 103 -5 40 -4 56 7
62 16 11 67 2 96 -16z m-1461 -135 c16 -13 8 -89 -10 -102 -6 -4 -49 -5 -96
-2 -47 4 -114 1 -150 -4 -36 -6 -78 -13 -95 -16 -16 -3 -48 -11 -70 -20 -22
-8 -49 -16 -60 -18 -47 -8 -257 -115 -320 -163 -18 -13 -37 -24 -42 -24 -6 0
-17 -7 -24 -17 -8 -9 -36 -33 -64 -53 -63 -48 -250 -231 -295 -290 -19 -25
-40 -49 -47 -53 -7 -4 -29 -31 -47 -60 -19 -29 -56 -84 -83 -123 -80 -117
-213 -402 -213 -455 0 -9 -7 -22 -15 -29 -8 -7 -15 -21 -15 -32 0 -11 -6 -40
-14 -66 -123 -411 -161 -910 -105 -1377 14 -115 16 -128 23 -162 10 -46 13
-64 25 -148 7 -44 16 -89 21 -100 5 -11 14 -42 20 -70 6 -27 18 -79 26 -115
26 -111 45 -240 53 -360 19 -290 -87 -491 -308 -584 -90 -39 -174 -55 -286
-55 -122 -1 -332 16 -440 35 -44 8 -118 19 -165 25 -47 5 -95 14 -108 19 -13
6 -45 10 -72 10 -27 0 -52 5 -55 10 -3 6 -20 10 -36 10 -17 0 -50 5 -75 11
l-45 12 6 41 c9 55 16 60 61 47 22 -6 55 -11 74 -11 19 0 73 -7 120 -15 309
-54 347 -60 519 -75 139 -13 298 -8 381 12 147 35 258 144 293 289 25 100 24
239 -3 384 -6 33 -15 85 -19 115 -5 30 -14 68 -20 83 -6 16 -11 41 -11 57 0
16 -4 32 -10 35 -5 3 -10 16 -10 27 0 12 -6 49 -14 82 -18 76 -49 234 -51 261
-1 11 -5 34 -9 50 -3 17 -9 64 -12 105 -3 41 -7 91 -9 110 -13 129 -13 496 0
638 17 189 43 363 56 376 5 6 9 24 9 40 0 17 6 51 14 76 8 25 24 74 34 110 56
187 65 216 72 225 4 6 11 21 15 35 10 33 59 141 97 215 18 33 36 70 42 82 6
13 14 23 19 23 4 0 7 5 7 12 0 25 157 239 258 351 211 233 443 405 677 502 11
5 22 9 25 10 3 1 12 4 20 7 63 24 173 52 242 63 112 16 296 19 314 4z m-26
-176 c70 -27 116 -41 122 -37 3 2 9 0 13 -6 3 -5 17 -10 30 -10 13 0 27 -4 30
-10 3 -5 18 -10 32 -10 28 0 65 -9 188 -45 117 -34 160 -45 179 -45 9 0 36 -8
59 -19 23 -10 66 -24 96 -31 l53 -13 -6 -45 c-3 -24 -6 -53 -6 -64 0 -11 -3
-17 -7 -15 -5 3 -9 -9 -10 -26 -4 -74 -24 -195 -38 -230 -8 -20 -15 -61 -15
-90 0 -29 -4 -57 -10 -63 -11 -11 -38 -150 -47 -242 -3 -34 -10 -65 -14 -68
-5 -3 -9 -27 -9 -54 0 -27 -4 -51 -9 -54 -5 -3 -12 -33 -16 -66 -4 -33 -13
-66 -20 -73 -7 -7 -16 -48 -20 -91 -4 -42 -13 -89 -21 -104 -8 -15 -14 -33
-14 -39 0 -9 -16 -13 -47 -13 -37 0 -44 3 -35 12 18 18 15 46 -5 50 -10 2 -34
1 -53 -3 -69 -15 -210 7 -210 32 0 3 -18 6 -41 6 -55 0 -73 19 -29 30 47 12
48 29 4 48 -36 15 -80 12 -69 -5 15 -25 -130 -12 -165 15 -20 16 -85 45 -102
46 -10 0 -10 2 0 6 6 2 12 11 12 18 0 8 -22 15 -65 20 -36 3 -65 10 -65 15 0
5 -9 12 -20 15 -11 3 -20 13 -20 21 0 8 -6 14 -14 14 -7 0 -16 9 -19 19 -5 22
-69 41 -75 22 -3 -8 -10 -6 -24 6 -11 10 -23 17 -27 15 -3 -1 -7 7 -9 18 -4
26 -27 36 -46 21 -8 -7 -16 -8 -18 -2 -1 5 -14 11 -27 13 -13 1 -37 15 -52 31
-15 15 -35 27 -43 27 -9 0 -16 5 -16 10 0 6 -5 10 -11 10 -18 0 -41 30 -35 46
8 21 -42 44 -54 24 -9 -15 -29 -3 -71 43 -9 9 -21 17 -28 17 -6 0 -11 5 -11
11 0 5 -4 8 -9 5 -11 -7 -121 95 -121 113 0 9 -7 11 -21 8 -15 -4 -23 1 -32
20 -9 21 -9 27 1 31 6 2 12 12 12 23 0 26 19 58 54 91 18 17 26 33 22 43 -6
16 58 147 75 153 5 2 9 9 9 16 0 17 38 47 42 34 7 -20 38 0 38 24 0 15 12 31
35 47 19 13 46 34 60 47 14 13 33 24 41 24 8 0 12 5 9 10 -3 6 0 10 7 10 7 0
26 12 41 26 24 22 34 25 68 20 63 -10 85 0 98 45 10 34 16 39 41 39 17 0 30 5
30 10 0 6 3 9 8 8 4 -1 23 3 42 9 43 13 174 41 215 46 38 4 165 -3 185 -10z
m1485 -624 c35 -47 59 -63 86 -57 10 2 15 -10 17 -39 2 -24 -1 -43 -7 -43 -5
0 -13 -9 -16 -20 -6 -19 -35 -29 -35 -12 0 4 -18 27 -40 52 -22 25 -44 50 -48
55 -4 6 -13 18 -20 27 -19 23 -7 99 14 91 7 -3 30 -27 49 -54z m-2527 -267
c70 -56 231 -230 246 -267 28 -65 4 -104 -73 -125 l-45 -12 -37 41 c-36 38
-69 56 -53 29 5 -9 4 -10 -4 -3 -5 6 -24 45 -42 88 -23 56 -37 77 -50 77 -13
0 -17 6 -13 19 3 11 -3 24 -14 32 -11 8 -28 30 -39 49 -29 54 -44 69 -62 64
-10 -3 -2 8 16 24 30 27 36 28 83 21 31 -5 63 -19 87 -37z m3349 -662 c35 -47
86 -113 113 -147 28 -34 50 -65 50 -70 0 -5 20 -29 45 -53 25 -24 45 -48 45
-53 0 -5 27 -41 60 -81 33 -40 60 -76 60 -81 0 -4 15 -24 33 -44 38 -44 87
-105 119 -148 51 -71 139 -181 153 -193 8 -7 15 -17 15 -23 0 -5 19 -33 43
-61 24 -28 54 -67 67 -86 13 -19 30 -39 36 -45 7 -5 25 -29 41 -51 26 -39 84
-114 227 -296 34 -42 77 -98 96 -124 19 -25 58 -75 85 -110 153 -195 150 -189
118 -201 -10 -3 -25 -12 -35 -20 -18 -16 -2 -35 -198 224 -58 76 -133 173
-167 215 -35 42 -63 80 -63 83 0 3 -31 43 -68 88 -38 45 -83 102 -100 127 -33
48 -107 143 -151 197 -14 18 -55 70 -91 117 -36 47 -100 129 -142 182 -43 53
-78 99 -78 103 0 3 -13 20 -28 37 -15 17 -52 64 -82 103 -30 40 -73 95 -95
123 -22 27 -53 69 -70 93 -50 71 -151 200 -169 214 -9 7 -16 20 -16 27 0 16
48 45 69 41 8 -1 43 -40 78 -87z m-4240 -361 c0 -55 -4 -102 -7 -104 -4 -2 -3
-32 2 -66 7 -43 6 -69 -2 -89 -13 -32 -15 -83 -5 -128 9 -45 -6 -45 -52 -3
-22 21 -47 43 -55 47 -29 18 -108 125 -108 148 0 13 20 46 48 78 26 30 67 78
92 108 25 29 53 62 63 73 9 11 17 24 17 29 0 4 2 8 4 8 3 0 4 -45 3 -101z
m-147 -415 c47 -46 79 -84 71 -84 -7 0 -22 -11 -33 -25 -11 -14 -25 -25 -31
-25 -21 0 -160 148 -178 191 -18 40 -18 41 4 71 l22 30 30 -37 c17 -21 68 -75
115 -121z m-149 -96 c20 -21 34 -38 31 -38 -3 0 5 -9 17 -19 l22 -19 -31 -28
c-17 -16 -48 -47 -68 -68 -20 -22 -50 -51 -66 -65 -16 -14 -36 -35 -45 -45 -9
-11 -41 -45 -71 -77 -30 -31 -64 -69 -75 -83 l-20 -26 -55 16 c-30 9 -61 18
-68 20 -7 2 -20 20 -28 39 -17 41 -9 60 41 92 19 12 48 44 66 70 18 26 43 57
56 68 13 11 23 25 23 31 0 6 14 25 30 43 17 17 27 31 24 31 -4 0 2 8 12 18 11
9 25 28 32 42 7 14 29 43 50 64 l36 39 26 -33 c14 -19 41 -51 61 -72z m2409
-520 c25 -5 65 -12 90 -15 25 -2 52 -7 60 -11 8 -3 22 -6 30 -6 11 -1 16 -15
18 -51 l3 -50 -48 3 c-26 2 -52 8 -57 13 -6 5 -21 9 -35 9 -19 0 -176 29 -188
34 0 1 -4 22 -8 48 l-7 48 48 -6 c27 -4 69 -11 94 -16z m-26 -174 c12 -1 61
-9 110 -18 49 -9 93 -16 98 -16 8 0 10 -48 9 -190 -1 -32 6 -56 30 -103 12
-22 -11 -33 -40 -18 -11 6 -30 11 -42 11 -29 0 -159 42 -155 49 2 3 -1 31 -6
61 -5 30 -9 66 -9 79 1 12 -2 28 -7 35 -12 19 -29 126 -19 119 6 -3 20 -7 31
-9z m-4580 -143 c66 -18 140 -41 165 -51 102 -41 157 -66 181 -83 13 -9 28
-17 33 -17 13 0 186 -134 237 -183 58 -57 142 -152 157 -180 23 -41 17 -46
-44 -41 -98 8 -175 33 -213 68 -75 68 -236 186 -254 186 -4 0 -31 15 -60 34
-29 18 -69 39 -89 47 -20 7 -37 16 -37 20 0 4 -12 10 -27 14 -15 3 -48 16 -73
27 -25 12 -82 31 -127 44 -46 12 -87 25 -92 28 -5 3 -38 11 -73 16 -34 6 -90
16 -123 22 -73 13 -288 17 -330 6 -19 -5 -33 -4 -40 4 -7 8 -7 9 2 4 6 -3 14
-2 18 4 5 8 75 32 95 32 3 0 16 5 30 10 31 12 153 30 200 29 19 -1 48 3 63 7
49 13 274 -13 401 -47z m-379 -117 c66 -14 146 -30 178 -37 31 -6 57 -15 57
-19 0 -4 16 -10 35 -14 19 -3 38 -10 41 -15 3 -5 13 -9 22 -9 14 0 231 -103
257 -123 15 -11 134 -90 153 -102 10 -5 29 -22 44 -37 35 -35 143 -108 160
-108 8 0 19 -5 24 -10 6 -6 62 -15 125 -21 62 -6 115 -11 115 -12 1 -1 5 -17
9 -34 6 -32 5 -33 -24 -33 -25 0 -34 -7 -55 -42 -13 -24 -28 -55 -31 -70 -4
-17 -14 -28 -24 -28 -9 0 -225 18 -480 40 -255 22 -465 40 -467 40 -2 0 -4 14
-4 30 0 17 -7 60 -16 95 -14 55 -25 74 -79 132 -101 108 -218 159 -346 149
-101 -7 -156 -24 -206 -60 -23 -17 -54 -39 -68 -49 -35 -25 -101 -125 -110
-167 -4 -19 -12 -41 -17 -47 -15 -18 -57 -16 -65 3 -10 26 22 347 35 352 7 2
12 12 12 21 0 25 113 146 147 158 55 20 99 30 133 32 19 1 73 5 120 9 115 10
183 4 325 -24z m8700 -135 c39 -50 93 -118 120 -152 28 -34 61 -78 75 -97 13
-19 44 -60 69 -91 25 -30 56 -69 68 -85 49 -64 60 -78 109 -137 82 -101 106
-135 96 -140 -4 -3 -28 -1 -53 4 -24 6 -78 9 -119 7 l-75 -3 -68 90 c-38 50
-75 94 -83 98 -8 4 -14 13 -14 19 0 5 -17 31 -39 57 -21 25 -62 78 -92 116
-29 39 -76 98 -104 132 -131 162 -136 169 -116 187 10 9 22 16 28 16 5 0 18 9
28 20 10 11 24 20 30 20 7 0 18 7 25 15 23 28 45 14 115 -76z m-9403 -538 c4
-25 17 -64 28 -88 11 -23 20 -46 20 -49 0 -4 -23 -4 -51 -1 -78 9 -93 30 -84
118 l7 70 36 -3 c35 -3 37 -5 44 -47z m1328 -71 c179 -16 362 -32 408 -36 70
-6 82 -9 82 -25 0 -34 23 -68 51 -78 54 -19 18 -54 -77 -76 -55 -13 -33 -14
-819 56 -132 12 -241 23 -243 24 -2 2 9 17 25 35 34 37 63 89 63 111 0 37 -31
37 510 -11z m8360 -279 c41 -5 107 -14 145 -20 39 -6 101 -13 138 -17 56 -5
68 -9 65 -22 -3 -14 -16 -17 -78 -15 -109 3 -181 13 -175 24 4 5 0 9 -7 9 -7
0 -26 7 -43 16 -21 11 -53 15 -110 13 -70 -2 -80 0 -83 16 -3 15 1 17 35 11
21 -3 72 -10 113 -15z"/>
<path d="M8297 9076 c-9 -23 65 -76 78 -57 7 12 85 -28 92 -46 3 -7 11 -13 18
-13 8 0 17 -9 20 -20 3 -11 11 -20 16 -20 6 0 17 -16 25 -35 14 -34 42 -48 46
-22 0 6 2 19 3 27 2 19 -36 90 -48 90 -6 0 -22 13 -37 29 -45 47 -97 71 -167
77 -28 2 -43 -1 -46 -10z"/>
<path d="M8275 8953 c-27 -9 -55 -17 -62 -19 -39 -10 91 -156 156 -174 57 -16
99 -13 110 9 42 77 11 153 -74 183 -58 21 -64 21 -130 1z"/>
<path d="M8166 8704 c-5 -12 -18 -15 -54 -14 -86 4 -102 1 -102 -19 0 -19 34
-31 86 -31 13 0 24 -3 24 -7 3 -118 66 -260 144 -327 48 -41 59 -46 103 -46
60 0 82 12 67 37 -8 12 -24 18 -50 18 -67 0 -146 77 -187 183 -18 45 -23 147
-8 156 5 3 14 19 19 36 10 28 9 30 -12 30 -13 0 -27 -7 -30 -16z"/>
<path d="M8476 8648 c-3 -13 -7 -45 -10 -73 -16 -136 -24 -150 -70 -120 -25
17 -56 15 -56 -3 0 -5 18 -22 40 -37 31 -22 45 -26 67 -20 15 5 32 7 36 6 5
-1 6 3 3 8 -3 5 1 25 9 45 8 19 15 51 15 69 0 19 5 48 11 66 15 42 4 81 -21
81 -12 0 -21 -8 -24 -22z"/>
</g>
</svg>
