<?xml version="1.0" standalone="no"?>
<!DOCTYPE svg PUBLIC "-//W3C//DTD SVG 20010904//EN"
 "http://www.w3.org/TR/2001/REC-SVG-20010904/DTD/svg10.dtd">
<svg version="1.0" xmlns="http://www.w3.org/2000/svg"
 width="979.000000pt" height="1125.000000pt" viewBox="0 0 979.000000 1125.000000"
 preserveAspectRatio="xMidYMid meet">
<metadata>
Created by potrace 1.16, written by Peter Selinger 2001-2019
</metadata>
<g transform="translate(0.000000,1125.000000) scale(0.100000,-0.100000)"
fill="#000000" stroke="none">
<path d="M3650 10661 c-8 -6 -41 -13 -73 -17 -31 -4 -60 -11 -63 -15 -3 -5
-33 -9 -68 -9 -35 0 -85 -7 -112 -15 -27 -8 -62 -15 -77 -15 -15 0 -40 -6 -55
-14 -15 -7 -43 -17 -62 -21 -47 -9 -88 -28 -306 -139 -23 -12 -57 -37 -76 -56
-20 -19 -54 -51 -77 -70 -23 -19 -64 -65 -91 -102 -28 -37 -66 -82 -85 -100
-19 -18 -35 -36 -35 -40 0 -4 -21 -36 -46 -70 -26 -35 -53 -76 -60 -93 -8 -16
-19 -37 -24 -45 -20 -31 -60 -124 -55 -128 2 -3 -5 -16 -15 -30 -11 -13 -20
-35 -20 -48 0 -12 -4 -25 -9 -29 -5 -3 -15 -22 -21 -43 -6 -20 -15 -46 -20
-57 -41 -101 -77 -265 -59 -265 5 0 9 7 9 15 0 8 4 15 10 15 5 0 14 19 20 43
23 83 42 137 51 137 10 0 4 -39 -11 -75 -4 -11 -13 -47 -20 -80 -7 -33 -16
-71 -21 -85 -4 -14 -11 -51 -15 -83 -3 -31 -15 -74 -25 -95 -12 -22 -15 -38
-9 -40 19 -7 10 -60 -20 -117 -17 -31 -30 -71 -30 -89 0 -18 -4 -36 -9 -42
-10 -10 -30 -88 -41 -154 -4 -25 -12 -58 -18 -75 -30 -89 -31 -96 -15 -102 23
-9 63 71 63 129 0 15 5 30 12 34 8 5 9 -3 4 -32 -25 -134 -38 -220 -46 -304
-5 -52 -14 -111 -20 -130 -23 -82 -31 -125 -36 -192 -2 -39 -8 -76 -13 -82 -5
-6 -16 -38 -24 -71 -42 -157 -48 -181 -57 -200 -9 -21 -15 -47 -30 -125 -11
-64 -29 -118 -40 -125 -6 -4 -10 -15 -10 -26 0 -11 -11 -37 -25 -59 -14 -22
-25 -51 -25 -64 0 -14 -4 -28 -10 -31 -5 -3 -10 -17 -10 -31 0 -13 -4 -32 -8
-42 -50 -103 -64 -134 -79 -179 -15 -46 -20 -52 -52 -57 -20 -3 -55 -6 -79 -6
-47 0 -106 -26 -164 -72 -31 -24 -37 -35 -37 -66 0 -53 -30 -186 -65 -286 -10
-28 -11 -50 -4 -80 10 -43 3 -133 -12 -151 -4 -5 -11 -48 -15 -95 -3 -47 -9
-105 -11 -130 -3 -25 -7 -85 -9 -135 -5 -125 -12 -197 -21 -219 -4 -10 -3 -26
3 -35 5 -9 9 -61 8 -116 -1 -55 1 -104 5 -110 4 -5 4 -59 0 -120 -6 -101 -5
-114 16 -159 13 -27 28 -81 34 -120 14 -90 22 -117 83 -305 52 -161 80 -221
102 -221 21 0 57 -71 60 -118 1 -24 16 -69 33 -102 34 -64 111 -150 136 -150
19 0 66 -46 84 -80 6 -14 26 -47 42 -75 17 -27 41 -73 55 -102 13 -28 29 -54
34 -58 6 -3 11 -19 11 -35 0 -16 4 -31 9 -34 11 -7 34 -88 34 -121 0 -14 3
-28 8 -31 5 -3 9 -12 9 -20 0 -11 -15 -14 -63 -14 -34 0 -85 -6 -112 -14 -207
-59 -286 -86 -322 -109 -24 -15 -47 -27 -52 -27 -18 0 -171 -62 -171 -69 0 -9
137 -74 193 -91 46 -15 78 -7 138 30 25 16 89 41 143 55 53 14 114 34 134 44
34 17 58 19 238 16 111 -1 206 -5 212 -9 6 -3 13 -3 16 2 2 4 89 6 193 5 103
-2 362 -5 574 -7 212 -1 390 -6 396 -9 5 -4 45 -2 88 2 124 14 651 -36 733
-69 14 -6 22 -6 22 1 0 6 4 8 9 4 6 -3 36 -1 68 5 65 13 67 13 178 7 44 -2 98
-11 120 -20 42 -16 75 -22 215 -38 72 -8 383 -30 430 -30 8 0 32 -3 53 -5 33
-5 37 -9 37 -34 0 -26 -4 -29 -51 -39 -28 -6 -55 -9 -59 -6 -5 3 -69 0 -142
-6 -169 -15 -320 -18 -334 -7 -7 5 -31 5 -55 0 -24 -5 -78 -7 -119 -4 -105 8
-149 7 -280 -5 -63 -6 -122 -7 -130 -3 -8 4 -113 6 -233 6 -206 -1 -217 0
-198 15 12 10 21 20 21 23 0 12 -38 6 -49 -8 -22 -27 -103 -36 -213 -26 -94
10 -227 12 -321 6 -20 -2 -85 0 -145 4 -62 3 -116 2 -129 -4 -17 -7 -27 -5
-41 7 -9 9 -33 15 -52 15 -46 -2 -132 17 -171 38 -22 11 -34 13 -42 5 -18 -18
8 -58 52 -81 22 -11 44 -26 48 -33 4 -7 30 -30 56 -50 27 -20 73 -58 102 -84
29 -26 75 -66 102 -88 50 -41 174 -174 181 -194 2 -6 -7 -11 -22 -11 -31 0
-35 -16 -6 -25 73 -23 320 -230 320 -268 0 -7 17 -23 37 -37 20 -14 107 -94
192 -178 86 -85 173 -167 195 -183 21 -15 50 -48 66 -72 15 -24 38 -52 51 -63
33 -26 75 -86 71 -101 -2 -7 4 -13 11 -13 8 0 23 -12 32 -28 10 -15 40 -49 66
-76 50 -50 93 -124 87 -151 -2 -12 -17 -2 -53 36 -87 91 -111 114 -144 133
-32 18 -33 18 -23 0 6 -11 38 -44 71 -74 33 -30 61 -59 61 -64 0 -4 12 -17 26
-28 47 -37 20 -41 -103 -13 -26 6 -34 4 -39 -9 -10 -26 0 -29 79 -27 92 2 119
-8 144 -56 23 -45 81 -89 97 -73 7 7 1 19 -17 38 -74 77 6 39 98 -46 87 -82
54 -76 485 -76 336 0 432 3 600 20 19 2 94 5 165 8 312 12 412 17 445 23 l35
6 -35 8 c-19 4 -65 5 -101 2 -37 -3 -74 -1 -85 4 -10 6 -28 7 -38 3 -11 -3
-38 -3 -60 1 -31 6 -44 4 -52 -7 -13 -16 -34 -19 -34 -3 0 5 -5 7 -12 3 -6 -4
-75 -8 -154 -9 -92 -1 -147 -5 -157 -13 -10 -9 -18 -8 -33 2 -25 19 -154 10
-169 -11 -9 -13 -16 -12 -47 3 -27 12 -45 15 -74 8 -22 -4 -46 -7 -54 -6 -8 2
-44 2 -80 1 -36 -1 -69 -1 -75 0 -5 0 -30 2 -55 4 -25 3 -49 6 -55 8 -5 1 -53
0 -106 -4 -83 -7 -101 -5 -140 12 -58 25 -158 118 -136 127 9 3 21 3 27 -1 20
-13 220 -16 220 -4 0 7 7 5 19 -5 15 -13 39 -16 137 -16 65 1 178 -2 249 -5
72 -3 177 -8 235 -10 58 -3 148 -8 200 -13 52 -5 100 -6 105 -3 6 3 28 6 50 7
37 1 95 2 190 5 22 1 45 1 50 0 139 -14 210 -17 255 -11 30 4 62 4 70 0 8 -4
44 -6 80 -5 36 2 70 0 75 -4 11 -7 8 -7 460 -15 448 -8 880 -27 922 -41 7 -2
39 1 73 7 71 12 78 29 26 71 -19 15 -38 27 -42 27 -4 0 -30 17 -58 39 -28 21
-66 46 -83 55 -33 17 -43 35 -20 37 51 4 99 10 137 17 37 7 44 11 42 27 -5 25
-58 71 -91 80 -22 6 -144 95 -196 143 -11 10 -35 29 -54 42 -18 13 -52 40 -75
61 -22 22 -43 39 -46 39 -3 0 -35 27 -70 60 -35 33 -68 60 -73 60 -5 0 -35 24
-66 53 -32 29 -83 70 -115 91 -31 20 -63 48 -71 60 -8 12 -67 67 -130 120 -63
54 -115 100 -115 103 0 3 9 3 20 0 11 -3 20 -2 20 2 0 12 -93 96 -135 122 -22
14 -58 37 -80 51 -22 14 -76 47 -120 73 -91 56 -145 94 -145 104 0 4 12 14 28
21 15 8 41 28 57 46 34 35 107 74 141 74 13 0 26 5 29 10 3 6 16 10 29 10 31
0 107 75 99 98 -11 31 -36 52 -62 52 -37 1 -186 45 -216 64 -13 9 -27 27 -31
40 -3 13 -14 26 -24 29 -21 5 -18 38 6 58 8 6 14 26 14 43 0 24 -10 41 -42 73
-24 22 -51 43 -61 47 -10 3 -17 13 -15 23 3 17 53 51 77 52 22 1 88 50 106 78
16 25 16 26 -20 63 -41 42 -100 57 -164 41 -78 -19 -91 -21 -91 -11 0 16 51
123 74 155 12 17 35 59 50 95 16 36 32 72 37 80 5 8 12 22 15 30 3 8 10 23 15
32 5 10 9 24 9 32 0 7 18 32 40 55 22 22 40 47 40 55 0 7 7 19 15 26 8 7 15
25 15 40 0 53 -20 88 -65 115 -53 31 -66 31 -92 3 -22 -25 -103 -184 -103
-203 0 -7 -9 -20 -20 -30 -12 -10 -29 -37 -40 -59 -10 -23 -25 -52 -33 -66 -8
-14 -24 -46 -36 -71 -11 -25 -30 -54 -41 -64 -11 -10 -20 -23 -20 -30 0 -7 -9
-20 -20 -30 -11 -10 -20 -22 -20 -27 0 -5 -12 -25 -26 -43 l-26 -35 -44 48
c-24 26 -43 51 -44 56 0 4 -16 34 -35 66 -37 62 -75 166 -75 208 0 14 -4 39
-9 56 -5 17 -16 56 -25 86 -32 116 -39 135 -47 145 -5 5 -9 17 -9 27 0 10 -4
26 -9 36 -5 9 -17 44 -27 77 -10 33 -21 65 -25 71 -5 5 -10 30 -13 55 -5 53
-34 176 -46 199 -5 9 -11 28 -14 41 -3 13 -22 71 -42 129 -20 58 -42 132 -49
165 -7 33 -16 69 -19 80 -3 11 -13 49 -22 85 -9 36 -21 76 -28 90 -7 14 -18
48 -25 75 -7 28 -16 66 -21 85 -4 19 -11 60 -15 90 -4 30 -9 64 -12 75 -2 11
-5 26 -7 33 -1 7 -10 22 -20 34 -10 11 -15 29 -13 40 3 11 3 17 0 14 -12 -12
-30 39 -21 62 4 13 4 21 -1 18 -9 -6 -24 150 -22 231 1 29 -3 54 -10 58 -8 6
-8 10 2 15 10 7 9 14 -4 34 -18 28 -70 59 -81 49 -3 -4 -6 -1 -6 6 0 7 -4 10
-9 7 -4 -3 -17 1 -27 9 -11 8 -42 15 -72 15 -32 0 -51 4 -47 10 3 5 0 7 -8 4
-8 -3 -18 -1 -22 5 -3 6 -15 11 -26 11 -13 0 -18 4 -13 12 4 7 3 8 -5 4 -13
-8 -51 1 -51 13 0 4 11 14 25 21 13 7 22 17 19 22 -4 5 3 16 15 24 12 8 21 19
21 25 0 5 23 31 50 57 28 26 50 52 50 56 0 5 16 30 35 56 19 26 35 53 35 60 0
6 22 53 49 104 27 50 52 106 55 123 4 18 16 50 27 72 10 22 19 44 19 49 0 4
10 28 22 53 12 24 21 53 20 63 0 10 6 28 14 40 7 11 14 29 14 38 0 10 4 26 9
36 20 38 65 199 66 237 1 23 4 46 8 52 4 6 4 18 1 26 -3 8 -1 18 5 22 6 3 11
17 11 30 0 13 4 26 9 29 4 3 11 31 15 63 8 71 25 161 36 188 8 19 24 102 34
175 15 108 46 291 55 333 6 26 12 78 12 115 1 37 4 72 7 77 4 6 7 82 8 170 2
185 13 291 31 288 8 -2 11 11 10 37 -1 27 -6 40 -15 40 -10 0 -12 6 -7 23 12
33 9 86 -10 179 -15 75 -50 175 -65 188 -3 3 -21 29 -39 58 -18 29 -41 58 -50
65 -9 7 -23 27 -31 45 -7 19 -37 58 -66 87 -39 39 -62 54 -92 58 -21 4 -47 16
-58 28 -10 12 -31 27 -46 35 -16 8 -28 19 -28 24 0 26 -82 144 -147 210 -133
136 -147 149 -170 155 -13 3 -23 10 -23 15 0 13 -138 119 -179 136 -20 9 -61
20 -90 25 -30 5 -59 15 -63 24 -10 16 -83 39 -103 31 -7 -2 -31 2 -53 10 -23
7 -76 15 -119 18 -43 2 -89 7 -103 10 -43 12 -94 17 -135 15 -22 -1 -49 -2
-60 -1 -144 6 -185 9 -210 15 -17 4 -37 3 -45 -2z m1290 -1105 c8 -17 29 -41
45 -55 17 -14 48 -45 71 -69 32 -34 40 -49 36 -69 -3 -18 1 -31 15 -42 25 -19
44 -129 44 -247 0 -91 -22 -249 -39 -281 -7 -12 -12 -32 -12 -45 0 -13 -7 -32
-15 -42 -8 -11 -15 -28 -15 -39 0 -33 -68 -161 -113 -209 -26 -30 -51 -48 -65
-48 -12 0 -22 -6 -22 -14 0 -7 -22 -23 -50 -35 -27 -12 -50 -26 -50 -31 0 -16
39 -21 80 -10 55 15 119 -12 120 -49 0 -27 -26 -61 -47 -61 -9 0 -12 -7 -7
-25 4 -17 -3 -41 -25 -80 -17 -30 -31 -60 -31 -67 0 -18 -39 -95 -56 -108 -7
-7 -14 -18 -14 -24 0 -7 -47 -59 -105 -116 -57 -58 -112 -119 -120 -137 -11
-22 -50 -55 -128 -107 -61 -41 -119 -76 -129 -78 -22 -4 -73 68 -52 76 29 11
13 26 -28 26 -38 0 -40 1 -26 18 33 37 30 64 -11 103 -41 38 -85 53 -135 44
-15 -3 -34 -1 -42 6 -19 15 -129 2 -174 -22 -19 -10 -51 -21 -70 -24 -20 -3
-71 -26 -115 -51 -44 -26 -92 -53 -106 -60 -15 -8 -32 -21 -39 -29 -7 -8 -18
-15 -24 -15 -7 0 -22 -11 -33 -23 -22 -26 -125 -91 -160 -101 -16 -5 -26 -2
-35 13 -7 12 -20 21 -29 21 -25 0 -36 19 -57 95 -17 65 -22 72 -70 105 -39 27
-51 42 -54 65 -2 25 -7 29 -25 27 -17 -2 -24 3 -28 25 -4 15 -11 41 -15 56 -5
15 -7 41 -3 57 3 19 1 30 -6 30 -6 0 -11 -7 -11 -15 0 -25 -29 -17 -44 13 -8
15 -24 36 -36 47 -24 22 -60 90 -60 115 0 9 -5 21 -11 27 -7 7 -13 29 -16 49
-2 21 -12 57 -22 79 -13 29 -17 56 -14 92 4 34 0 59 -11 82 -15 27 -19 30 -37
20 -15 -8 -19 -17 -15 -32 4 -12 9 -34 13 -50 5 -26 5 -27 -21 -17 -15 5 -47
10 -72 10 -72 0 -104 43 -104 137 0 64 18 95 67 114 28 10 40 5 66 -28 10 -13
27 -23 38 -23 10 0 19 -5 19 -11 0 -22 47 5 110 65 36 33 78 67 92 75 34 18
72 8 85 -22 13 -28 75 -41 126 -26 43 13 215 0 251 -18 25 -13 27 -17 13 -25
-9 -5 -28 -29 -43 -53 -14 -25 -29 -45 -33 -45 -4 0 -19 -18 -34 -40 -18 -28
-21 -38 -10 -31 11 6 21 4 30 -5 22 -22 110 -43 222 -54 l103 -10 67 36 c36
20 70 40 76 45 19 18 -13 9 -59 -17 -96 -54 -314 -42 -372 21 l-24 26 26 38
c29 44 113 101 150 101 29 0 31 -15 4 -30 -35 -19 -26 -65 23 -116 57 -60 95
-67 137 -26 23 23 30 39 30 69 0 21 -4 45 -9 53 -6 8 -7 18 -5 22 9 15 61 -20
109 -74 l48 -53 -23 42 c-23 42 -101 116 -148 141 -14 6 -38 12 -56 12 l-31 1
23 19 c20 16 38 19 125 18 123 -1 147 5 147 37 0 13 5 27 12 31 7 5 5 11 -7
21 -27 19 -45 16 -45 -7 0 -17 -7 -20 -37 -20 -36 1 -37 1 -18 16 11 9 38 25
60 36 45 24 190 121 212 143 8 8 19 15 25 15 5 0 23 10 40 21 28 21 38 22 157
16 93 -4 136 -2 165 8 27 9 65 12 127 8 79 -5 89 -4 89 11 0 22 -9 24 -116 34
-63 5 -100 4 -120 -4 -19 -8 -64 -10 -128 -6 l-100 5 25 21 c14 12 40 42 59
68 37 50 55 62 73 51 13 -8 147 -6 202 3 97 16 242 115 261 178 10 34 58 131
66 134 4 2 8 14 8 27 0 33 32 86 50 83 8 -2 21 -16 30 -32z m-800 -1882 c31
-21 50 -44 50 -60 0 -22 -160 -101 -175 -86 -2 3 -10 0 -17 -5 -7 -6 -53 -32
-103 -58 -49 -26 -108 -60 -130 -76 -59 -41 -231 -129 -255 -129 -11 0 -20 -4
-20 -10 0 -5 -10 -10 -22 -10 -13 -1 -47 -14 -76 -29 -44 -24 -50 -30 -37 -41
8 -7 15 -18 15 -26 0 -7 6 -17 14 -21 8 -4 52 -44 98 -88 81 -79 175 -151 184
-143 7 8 -48 72 -116 134 -119 109 -142 133 -137 141 3 4 33 22 68 38 136 65
335 168 349 180 8 7 44 25 80 39 36 15 88 37 115 50 79 36 162 59 182 51 14
-5 -1 -16 -67 -49 -93 -45 -196 -118 -205 -145 -3 -9 -20 -25 -37 -35 -18 -11
-50 -32 -70 -48 -21 -16 -64 -43 -95 -59 -62 -31 -173 -115 -173 -130 0 -14
33 -24 37 -12 10 30 102 98 213 156 19 10 42 27 52 38 9 10 21 19 28 19 6 0
22 12 36 28 14 15 49 42 77 60 69 43 210 111 220 105 15 -9 6 -23 -18 -29 -30
-7 -55 -40 -55 -71 0 -13 -3 -23 -8 -23 -4 0 -15 -15 -25 -32 -23 -43 -83
-108 -127 -138 -43 -31 -137 -127 -167 -172 -67 -99 -94 -137 -101 -142 -5 -3
-5 -29 -1 -58 6 -35 5 -62 -2 -81 -7 -16 -9 -52 -6 -87 9 -91 1 -112 -70 -187
-88 -92 -97 -106 -83 -133 10 -19 6 -27 -32 -69 -62 -69 -108 -128 -108 -139
0 -17 -105 -196 -125 -212 -8 -7 -15 -19 -15 -27 0 -8 -14 -35 -30 -60 -42
-61 -60 -99 -60 -122 0 -11 -14 -59 -31 -108 -17 -48 -44 -124 -59 -168 -16
-45 -45 -117 -65 -160 -20 -44 -40 -89 -44 -100 -5 -11 -20 -45 -35 -75 -14
-30 -26 -59 -26 -64 0 -4 -15 -29 -34 -55 -18 -25 -50 -77 -71 -116 -20 -38
-47 -81 -60 -95 -13 -14 -32 -43 -44 -65 -27 -54 -158 -204 -201 -232 -19 -13
-40 -27 -46 -32 -47 -39 -191 -54 -292 -30 -96 21 -227 182 -277 338 -26 80
-27 91 -22 230 8 214 18 242 125 349 23 23 39 42 35 42 -15 0 94 92 140 117
34 19 47 32 47 49 0 12 6 24 13 27 8 3 42 40 76 84 100 127 132 164 198 233
35 36 76 79 92 95 15 17 31 38 34 48 4 9 12 17 19 17 19 0 298 276 336 333 18
26 37 47 42 47 5 0 13 12 16 28 4 15 15 36 24 47 10 11 30 44 45 72 19 37 39
60 66 75 23 13 38 27 35 35 -3 7 6 20 19 29 14 9 33 32 42 52 16 33 16 38 -1
86 -10 28 -44 106 -77 173 -32 67 -59 124 -59 127 0 4 -18 29 -40 57 -22 28
-40 54 -40 58 0 21 104 101 133 101 16 0 41 -26 50 -52 9 -25 22 -23 86 16 31
18 75 43 97 55 23 11 48 26 55 34 33 31 170 127 183 127 8 0 18 5 21 10 3 6
14 10 24 10 10 0 24 7 31 15 7 8 24 15 39 15 29 0 134 51 167 82 24 22 109 57
139 58 11 0 32 -7 45 -16z m-1105 -192 c-3 -7 0 -10 6 -6 16 9 1 -82 -22 -135
-10 -24 -19 -49 -19 -55 0 -7 -7 -21 -16 -32 -8 -10 -12 -13 -8 -5 4 9 3 12
-4 7 -6 -4 -8 -14 -5 -23 4 -11 3 -14 -5 -9 -7 4 -10 2 -7 -6 2 -7 -8 -27 -23
-43 -15 -17 -22 -24 -17 -15 9 13 8 13 -7 1 -10 -7 -15 -17 -13 -22 3 -4 -3
-17 -13 -27 -10 -10 -25 -27 -33 -39 -8 -11 -30 -33 -49 -49 -21 -17 -29 -21
-20 -9 14 18 14 19 -2 7 -9 -8 -14 -20 -11 -27 3 -9 -5 -19 -21 -26 -14 -7
-33 -23 -42 -36 -8 -14 -18 -22 -21 -19 -3 3 -14 -6 -25 -19 -11 -14 -25 -25
-31 -24 -8 0 -8 2 1 6 6 2 12 9 12 15 0 6 8 18 18 27 9 9 25 30 34 46 10 17
21 29 26 28 5 -1 7 9 5 22 -4 16 1 27 16 35 12 6 26 8 31 5 6 -4 9 -3 8 2 -2
5 4 17 12 26 43 53 68 76 73 71 3 -3 3 4 0 17 -4 13 -2 20 4 16 5 -3 9 2 9 11
-1 9 4 19 9 21 6 2 16 17 24 32 7 16 17 27 21 24 5 -3 6 5 2 17 -3 14 -1 19 6
14 8 -5 10 -2 6 8 -7 17 16 76 30 76 4 0 6 11 4 25 -3 14 -2 25 1 25 4 0 8 10
8 22 1 13 8 33 15 46 11 22 13 22 25 6 8 -10 11 -24 8 -32z m45 -377 c17 -23
60 -124 60 -142 0 -7 12 -37 27 -65 42 -82 43 -86 43 -115 0 -50 -39 -132 -85
-180 -31 -32 -44 -52 -40 -64 4 -12 -6 -31 -30 -57 -19 -22 -35 -47 -35 -56 0
-9 -7 -19 -15 -22 -8 -3 -31 -28 -51 -55 -20 -27 -43 -49 -52 -49 -24 0 -102
31 -102 41 0 5 -7 9 -15 9 -8 0 -15 -4 -15 -9 0 -6 -17 -7 -37 -4 -56 8 -29
-14 43 -36 88 -28 90 -40 19 -112 -120 -121 -149 -149 -160 -149 -16 0 -221
-217 -239 -252 -8 -18 -47 -66 -84 -107 l-69 -74 8 49 c4 27 8 75 8 107 1 35
5 57 12 57 8 0 9 14 5 44 -5 32 -3 54 9 76 9 17 13 34 11 39 -3 5 1 29 8 55
14 46 12 86 -5 86 -12 0 -37 -53 -32 -67 2 -6 -7 -19 -20 -28 -14 -9 -27 -25
-30 -37 -5 -17 -9 -19 -20 -10 -10 9 -18 9 -31 -1 -20 -15 -17 -54 3 -49 10 2
12 -5 6 -25 -3 -15 -7 -39 -7 -53 0 -14 -6 -32 -14 -41 -14 -16 -28 -171 -26
-280 2 -42 -1 -47 -40 -75 -22 -16 -54 -41 -70 -56 -16 -15 -44 -32 -63 -37
-19 -5 -48 -19 -64 -30 -16 -12 -35 -21 -43 -21 -26 0 -148 -161 -148 -197 0
-8 20 -1 50 17 57 33 58 32 41 -57 -6 -27 -10 -110 -10 -184 -1 -176 -1 -169
10 -169 5 0 27 -37 50 -82 23 -46 56 -101 74 -123 18 -22 40 -56 50 -75 45
-89 191 -209 257 -211 23 0 23 0 -2 -10 -14 -6 -34 -18 -45 -28 -20 -18 -148
-46 -164 -36 -12 7 -134 -31 -180 -56 -49 -26 -101 -26 -101 1 0 11 -4 20 -10
20 -5 0 -10 -9 -10 -20 0 -11 -4 -20 -9 -20 -5 0 -7 9 -4 20 3 11 1 20 -5 20
-6 0 -22 20 -36 44 -14 24 -36 50 -49 59 -13 9 -46 57 -72 107 -26 51 -58 108
-70 126 -13 19 -33 63 -45 98 -15 48 -27 65 -43 70 -18 5 -19 8 -8 15 11 7 12
17 4 43 -5 18 -15 32 -22 30 -7 -1 -9 2 -6 8 4 6 0 19 -7 28 -18 21 -48 140
-74 297 -11 65 -13 153 -4 130 7 -15 9 -10 9 23 1 27 -3 41 -9 37 -6 -4 -10
10 -9 37 1 24 -1 92 -3 151 -3 59 -1 110 4 113 4 3 8 38 8 79 0 41 5 86 10
100 6 15 13 90 16 168 7 165 10 207 17 262 3 22 8 65 12 95 3 30 10 64 15 75
18 43 38 126 33 144 -3 10 5 37 16 59 12 23 21 48 21 57 0 8 7 15 16 15 9 0
34 16 57 35 37 32 154 95 176 95 5 0 16 16 25 35 9 19 21 35 25 35 5 0 25 -12
47 -26 28 -20 46 -25 70 -21 23 4 31 2 28 -7 -9 -23 115 -52 199 -47 35 2 54
-2 67 -14 15 -13 30 -16 60 -12 39 5 44 2 82 -39 22 -24 72 -65 112 -90 39
-26 85 -60 103 -75 42 -36 131 -80 138 -68 7 11 -2 29 -15 29 -6 0 -32 14 -58
30 -27 17 -56 30 -65 30 -9 0 -20 6 -24 14 -4 7 -30 30 -58 51 -61 46 -125
106 -125 118 0 5 21 -7 48 -27 26 -20 63 -45 82 -56 19 -11 75 -45 124 -75 49
-30 92 -55 97 -55 4 0 9 -4 11 -8 6 -15 90 -72 99 -66 10 6 -43 58 -91 89 -19
12 -69 57 -110 98 -59 60 -79 75 -96 71 -24 -6 -53 6 -90 39 -23 20 -24 23 -8
34 14 10 22 8 50 -14 38 -29 44 -23 14 15 -23 28 -19 34 27 50 37 12 43 8 43
-31 0 -37 25 -67 56 -67 42 0 47 77 6 95 -12 5 -22 15 -22 22 0 32 77 36 112
6 17 -15 48 -11 79 11 81 56 233 206 296 292 50 68 56 69 93 19z m973 -217
c11 -26 13 -51 7 -113 -4 -44 -3 -84 2 -89 4 -6 8 -16 8 -24 0 -13 48 -83 74
-107 44 -42 48 -52 33 -87 -9 -18 -18 -47 -22 -63 -6 -31 -18 -45 -117 -135
-42 -38 -69 -75 -102 -141 -25 -49 -61 -110 -80 -136 -18 -27 -46 -73 -61
-103 -15 -30 -48 -93 -73 -140 -73 -133 -130 -267 -158 -365 -26 -94 -60 -175
-73 -175 -4 0 -13 18 -20 39 -6 22 -32 64 -57 93 -45 52 -113 174 -141 252
-15 44 -5 115 22 166 8 14 24 46 36 72 11 26 27 53 35 59 8 6 18 28 24 49 5
20 25 56 42 80 18 24 38 50 43 59 13 19 55 68 113 130 23 25 42 52 42 59 0 7
7 24 17 38 9 14 16 39 15 56 -1 24 8 38 40 67 42 36 64 58 84 84 13 15 37 174
29 187 -3 4 2 26 9 48 8 22 12 43 9 46 -4 3 1 6 10 6 10 0 17 6 18 13 0 10 2
10 6 0 7 -18 23 -16 23 2 0 8 12 22 26 31 14 10 39 30 56 46 40 37 62 36 81
-4z m840 -528 c26 -12 50 -26 53 -31 3 -5 25 -9 49 -9 24 0 47 -4 50 -10 3 -5
14 -10 24 -10 10 0 38 -10 62 -23 l44 -24 1 -96 c1 -54 5 -105 8 -114 4 -9 9
-45 11 -81 3 -35 10 -72 15 -82 6 -10 10 -29 10 -42 0 -13 4 -28 8 -33 5 -6
14 -30 21 -55 7 -25 24 -64 37 -87 13 -23 24 -53 24 -67 0 -14 9 -41 20 -61
11 -20 20 -49 20 -66 0 -16 6 -45 14 -63 7 -18 17 -53 21 -77 4 -24 11 -48 15
-54 14 -19 37 -140 34 -180 -1 -22 2 -45 8 -52 5 -7 7 -16 4 -22 -3 -5 0 -11
8 -14 7 -3 19 -27 25 -54 7 -26 19 -56 28 -65 9 -10 13 -28 11 -42 -3 -14 -2
-23 3 -21 13 8 19 -10 20 -61 1 -27 6 -60 11 -74 6 -14 11 -41 13 -60 3 -31 9
-65 15 -80 4 -11 7 -26 8 -48 1 -15 10 -26 22 -29 11 -3 19 -10 18 -17 -2 -17
22 -98 37 -122 7 -11 15 -43 18 -71 3 -27 13 -65 22 -84 12 -23 14 -34 6 -37
-6 -2 -11 -10 -11 -18 0 -9 5 -12 11 -8 7 4 10 -9 8 -40 -2 -26 2 -51 9 -58 7
-7 12 -22 12 -34 0 -20 -23 -34 -65 -39 -90 -11 -183 -43 -232 -81 -17 -13
-50 -52 -72 -87 -42 -64 -87 -96 -115 -80 -8 5 -40 32 -69 60 -64 62 -69 77
-71 228 -2 88 -6 120 -23 157 -12 25 -18 49 -15 53 4 3 1 10 -6 14 -9 5 -14
51 -18 142 -7 155 -10 188 -17 209 -7 19 -15 67 -28 160 -6 41 -14 84 -18 95
-27 68 -48 195 -52 315 0 8 -5 26 -10 40 -26 70 -60 254 -62 337 -1 34 -6 65
-10 69 -10 11 -27 -15 -27 -42 0 -11 -11 -31 -24 -43 -23 -22 -24 -24 -9 -58
8 -20 12 -45 9 -57 -3 -12 1 -40 9 -62 7 -22 16 -58 19 -80 7 -54 20 -100 44
-159 11 -27 29 -93 41 -145 12 -52 26 -103 32 -112 5 -10 9 -37 9 -61 0 -24 3
-47 6 -50 4 -4 9 -42 11 -84 3 -43 9 -96 15 -118 16 -65 10 -198 -13 -241 -10
-21 -19 -44 -19 -50 0 -27 -32 -69 -115 -148 -94 -89 -132 -107 -248 -120 -27
-3 -54 -9 -60 -13 -7 -4 -19 -9 -27 -10 -8 -1 -24 -4 -35 -6 -11 -1 -30 -8
-42 -15 -12 -7 -34 -12 -50 -12 -15 -1 -39 -7 -53 -15 -14 -8 -34 -14 -45 -15
-17 0 -129 -52 -230 -107 -11 -6 -38 -16 -60 -23 -54 -17 -128 -52 -140 -66
-5 -6 -31 -17 -57 -24 -50 -13 -54 -24 -14 -34 17 -4 36 1 60 18 20 13 57 27
84 30 26 4 63 9 82 11 56 7 93 20 98 33 2 8 -6 10 -30 5 l-33 -6 29 26 c15 14
44 31 64 38 21 6 83 33 139 60 56 27 109 46 117 43 7 -3 29 1 47 9 31 12 108
29 182 40 15 2 27 1 27 -3 0 -9 -39 -25 -100 -41 -60 -15 -66 -20 -45 -35 16
-12 12 -15 -31 -36 -27 -12 -55 -23 -64 -23 -41 -4 -48 -6 -54 -21 -5 -13 0
-15 36 -9 39 7 41 6 29 -9 -7 -9 -21 -16 -31 -16 -25 0 -108 -96 -142 -165
-11 -22 -26 -51 -34 -65 -19 -35 -17 -50 7 -50 15 0 19 5 15 15 -4 10 1 15 14
15 11 0 20 4 20 9 0 5 7 11 15 15 21 8 19 4 -12 -32 -16 -17 -39 -45 -52 -62
-18 -24 -26 -28 -33 -18 -7 10 -11 10 -21 -3 -12 -16 -25 -16 -162 -2 -83 8
-187 12 -232 10 -80 -4 -110 6 -58 19 23 6 32 23 19 37 -3 3 -24 -1 -47 -8
-86 -28 -140 -35 -255 -35 -65 0 -121 3 -124 6 -13 12 -275 19 -618 17 -261
-2 -519 3 -526 10 -4 4 -18 7 -31 7 -14 0 -23 6 -23 16 0 8 5 12 10 9 6 -3 10
-1 10 4 0 6 -5 11 -11 11 -6 0 -8 7 -5 17 21 53 -5 389 -34 458 -11 26 -31
104 -33 129 -2 15 11 22 60 37 34 9 76 27 92 38 16 12 40 21 53 21 61 1 277
107 299 147 7 12 30 35 51 49 22 15 53 46 71 68 18 22 44 54 60 71 15 16 32
46 37 66 6 20 17 42 25 49 7 6 22 33 32 58 9 26 30 59 45 74 15 14 28 33 28
42 0 9 4 16 8 16 7 0 74 127 117 220 9 19 27 55 40 80 13 25 24 52 24 61 1 9
8 22 16 29 8 7 15 18 15 24 0 24 54 182 67 198 8 9 17 35 20 57 3 23 9 43 12
45 4 3 28 -37 54 -88 25 -50 62 -110 82 -133 19 -23 48 -69 64 -103 47 -98
100 -143 128 -107 19 23 71 174 102 291 50 191 235 553 370 723 27 34 60 60
118 91 45 23 88 42 96 42 12 0 79 75 106 118 8 14 77 0 225 -44 87 -26 139
-16 197 36 47 41 44 41 132 0z m1540 -2074 c7 -17 -3 -50 -50 -162 -18 -45
-33 -89 -33 -98 0 -9 -4 -16 -10 -16 -5 0 -10 -7 -10 -16 0 -15 -51 -122 -129
-269 -27 -52 -65 -110 -88 -133 -7 -7 -13 -17 -13 -22 0 -4 -11 -11 -25 -14
-13 -3 -29 -15 -35 -26 -6 -11 -16 -20 -22 -20 -6 0 -33 -16 -60 -36 -28 -19
-53 -33 -56 -29 -3 3 7 30 23 61 26 50 31 54 56 49 38 -9 55 22 38 70 -12 31
-10 36 18 68 16 19 40 55 52 81 13 25 31 51 41 56 9 5 23 24 31 42 7 18 23 47
36 64 13 17 23 38 23 47 0 9 6 20 13 24 16 9 76 111 106 179 23 52 67 114 80
114 5 0 11 -6 14 -14z m-4411 -252 c9 -32 17 -59 18 -59 3 0 8 -29 15 -93 3
-29 9 -63 14 -75 4 -12 7 -73 6 -136 -1 -95 -4 -115 -18 -126 -9 -7 -17 -19
-17 -28 0 -9 -9 -21 -20 -27 -17 -9 -20 -8 -20 12 -1 13 -9 41 -20 63 -11 22
-20 47 -20 55 0 15 -37 89 -84 170 -14 25 -29 52 -32 60 -4 8 -15 26 -24 40
-9 14 -24 50 -32 81 l-16 56 37 10 c20 6 68 22 106 36 39 15 75 25 80 23 6 -1
18 -29 27 -62z m2944 -86 c4 -7 9 -19 10 -28 4 -27 9 -45 16 -55 3 -5 9 -26
13 -45 4 -19 12 -38 17 -41 5 -3 5 -17 -2 -33 -7 -20 -7 -25 2 -20 8 5 9 2 5
-10 -4 -10 -3 -15 3 -11 5 3 13 -9 18 -27 9 -33 5 -61 -7 -54 -3 2 -6 -13 -6
-34 0 -21 4 -36 9 -32 5 3 7 -5 4 -16 -4 -12 -2 -20 2 -17 5 3 12 -9 15 -27 4
-18 12 -39 17 -45 6 -7 8 -22 5 -33 -3 -11 -2 -18 3 -15 4 3 11 -2 14 -11 10
-26 7 -36 -10 -30 -8 3 -13 2 -10 -3 3 -5 -1 -12 -9 -15 -19 -7 -66 14 -59 26
4 5 -8 2 -26 -7 -18 -9 -41 -15 -51 -12 -11 3 -17 1 -13 -4 3 -5 -2 -9 -11 -9
-9 0 -14 4 -11 8 2 4 -4 8 -14 8 -10 0 -16 -4 -14 -8 3 -4 -25 -8 -61 -8 -36
0 -64 3 -62 8 3 4 -17 7 -43 7 -27 0 -46 -4 -42 -9 3 -5 -2 -6 -12 -3 -10 4
-31 7 -47 7 -34 0 -37 15 -13 61 11 22 20 29 32 24 9 -3 13 -3 10 1 -4 4 -1
15 6 26 8 11 12 28 9 39 -3 11 1 21 11 25 9 3 14 10 11 14 -7 12 23 33 39 27
19 -7 42 21 38 45 -2 11 5 29 15 40 12 14 18 35 17 69 0 31 4 50 13 53 7 3 13
16 13 30 0 24 14 40 35 41 6 1 9 7 7 14 -1 7 16 33 38 58 22 26 43 58 47 72
l6 26 8 -27 c4 -14 10 -32 15 -40z m784 -73 c0 -18 17 -20 23 -2 4 10 7 10 18
0 11 -11 10 -13 -3 -13 -9 0 -18 -7 -22 -15 -3 -8 -15 -15 -26 -15 -12 0 -42
-9 -68 -20 -26 -10 -67 -24 -92 -30 -25 -7 -49 -15 -55 -20 -5 -4 -24 -11 -41
-14 -42 -9 -116 -81 -112 -109 5 -33 32 -31 80 5 25 19 60 40 79 47 19 7 54
22 79 34 24 12 48 21 53 19 4 -1 28 4 53 13 49 16 98 21 76 6 -10 -6 -6 -10
15 -15 15 -4 46 -27 68 -53 39 -45 39 -45 19 -62 -11 -9 -19 -21 -17 -26 1 -6
-17 -23 -42 -40 -24 -16 -45 -33 -45 -37 0 -10 -56 -39 -62 -32 -13 12 -99
-38 -129 -75 -18 -23 -43 -44 -56 -47 -13 -4 -44 -31 -69 -60 -48 -56 -74 -68
-74 -35 0 10 -7 24 -14 31 -8 6 -29 34 -46 61 -18 27 -38 49 -46 49 -12 0 -12
-4 0 -29 9 -16 27 -43 42 -60 l27 -32 -29 6 c-68 15 -78 25 -116 105 -21 43
-38 85 -38 94 0 8 -9 20 -20 26 -16 8 -19 20 -18 65 1 45 4 52 15 43 17 -14
29 -3 16 14 -13 17 -23 58 -14 58 4 0 18 -12 32 -26 34 -36 77 -52 117 -43 19
4 34 9 35 11 2 1 19 28 40 59 20 30 37 60 37 66 0 19 73 61 150 87 86 29 180
35 180 11z m-1145 -245 c7 -23 -8 -54 -27 -56 -7 0 -21 -2 -30 -2 -10 -1 -18
-9 -18 -18 0 -8 -4 -13 -9 -10 -5 4 -7 -4 -3 -16 4 -17 2 -20 -11 -15 -9 3
-19 1 -23 -5 -5 -7 -2 -8 6 -3 9 6 11 4 6 -4 -5 -7 -14 -10 -20 -8 -9 4 -11
-2 -8 -18 3 -17 -3 -28 -25 -41 -15 -10 -31 -23 -34 -28 -4 -5 -12 -5 -19 -1
-8 5 -11 4 -6 -3 8 -13 -29 -26 -45 -16 -7 4 -9 3 -6 -4 8 -11 -70 -28 -81
-17 -9 9 20 25 32 18 5 -3 6 -1 2 5 -9 15 124 164 141 158 8 -3 10 1 6 11 -5
12 -2 15 10 10 9 -3 21 1 29 11 12 16 11 16 -7 2 -19 -15 -19 -15 0 11 11 15
24 25 29 22 4 -3 12 1 17 8 6 10 9 11 9 2 0 -21 37 -15 43 7 7 26 34 26 42 0z
m1818 -87 c-15 -13 -33 -23 -39 -23 -6 0 -19 -9 -29 -20 -10 -11 -64 -43 -121
-71 -57 -28 -104 -56 -104 -60 0 -5 -7 -9 -15 -9 -8 0 -15 -3 -15 -7 0 -5 -24
-21 -53 -37 -28 -16 -66 -44 -84 -62 -26 -26 -127 -84 -146 -84 -3 0 -3 28 0
63 5 60 7 64 62 115 31 30 74 66 95 80 21 15 45 31 52 37 17 12 31 -2 16 -17
-20 -20 -14 -40 10 -36 28 4 88 82 88 114 0 13 3 24 8 25 4 0 27 3 52 5 25 3
59 10 75 16 56 21 138 25 158 9 18 -15 17 -17 -10 -38z m-681 -164 c23 -45 23
-46 -13 -64 -26 -14 -30 -20 -24 -43 4 -15 11 -30 17 -33 7 -4 6 -9 -2 -14 -7
-4 -9 -18 -5 -37 5 -20 3 -33 -5 -38 -9 -6 -9 -13 -1 -28 13 -25 15 -92 2 -92
-5 0 -11 -10 -14 -21 -11 -40 -51 26 -65 104 -14 76 -3 138 30 170 22 22 23
53 3 73 -13 13 -13 18 4 36 12 12 25 17 32 13 8 -6 10 -4 4 5 -5 8 -3 11 6 8
8 -2 22 -20 31 -39z m578 -29 c20 -10 42 -30 50 -44 12 -24 11 -30 -16 -69
-16 -23 -44 -51 -62 -62 -17 -11 -31 -25 -32 -30 0 -6 -15 -19 -32 -30 -33
-18 -78 -53 -133 -104 -38 -34 -233 -133 -246 -125 -12 7 -2 43 17 62 8 7 14
18 14 25 0 15 41 57 57 57 7 0 13 -4 13 -10 0 -5 9 -10 20 -10 26 0 26 25 -1
43 -20 15 -20 15 17 67 23 32 37 63 37 82 0 33 46 76 132 123 28 16 59 34 70
41 21 15 40 12 95 -16z m-740 -61 c0 -6 -6 -9 -12 -6 -10 3 -12 -22 -10 -112
2 -63 7 -120 12 -126 11 -13 -16 -92 -43 -125 -11 -14 -17 -18 -15 -10 3 8 -3
29 -12 45 -19 32 -23 57 -21 143 1 30 6 52 12 52 18 0 41 30 35 45 -3 8 -10
15 -16 15 -5 0 -10 7 -10 15 0 8 5 15 10 15 6 0 10 5 10 12 0 16 31 48 47 48
7 0 13 -5 13 -11z m844 -214 c25 -38 20 -60 -31 -122 -61 -76 -93 -105 -151
-140 -109 -65 -132 -67 -132 -11 -1 18 -2 61 -4 96 -1 34 1 62 5 62 4 0 49 32
100 70 87 66 95 70 144 70 45 0 55 -4 69 -25z m166 -40 c8 -2 19 -4 23 -4 5
-1 6 -5 3 -10 -4 -5 4 -7 16 -3 14 3 19 1 14 -6 -5 -8 -2 -10 8 -6 10 4 16 1
16 -9 0 -19 -26 -41 -39 -32 -7 4 -8 -1 -4 -11 5 -13 3 -16 -10 -11 -11 4 -14
2 -10 -9 4 -10 -2 -14 -20 -14 -14 0 -29 -5 -33 -11 -3 -6 -17 -9 -30 -6 -14
2 -21 0 -17 -6 4 -6 -4 -8 -20 -5 -15 3 -24 1 -21 -3 3 -5 2 -9 -3 -10 -50 -5
-63 -3 -63 9 0 7 4 11 9 7 5 -3 12 -1 16 5 3 5 15 10 25 10 23 0 75 101 66
127 -6 16 -2 16 74 -2z m-3595 -24 c44 -4 152 -6 240 -5 141 2 325 -13 341
-28 2 -3 -13 -8 -35 -12 -22 -3 -52 -11 -68 -18 -15 -6 -39 -13 -51 -14 -39
-5 -102 -51 -102 -75 0 -6 -16 -29 -35 -50 -19 -22 -35 -47 -35 -58 0 -27 49
-111 66 -111 19 0 18 40 -1 67 -15 21 -13 25 20 71 19 27 35 54 35 60 0 17 64
49 142 73 40 11 78 24 83 28 22 16 123 39 175 40 31 1 82 6 115 11 33 5 101 6
154 2 119 -9 208 -8 381 3 171 10 181 10 265 1 81 -10 333 -9 485 0 58 4 139
7 180 8 l74 1 14 -65 c8 -36 18 -73 23 -82 12 -24 12 -25 -12 -31 -20 -5 -20
-7 -4 -31 16 -24 16 -27 -4 -55 -12 -16 -21 -35 -21 -41 0 -7 -20 -41 -45 -77
-25 -35 -45 -70 -45 -77 0 -7 11 -23 25 -36 34 -32 31 -55 -12 -109 -21 -25
-38 -50 -38 -56 0 -5 -16 -9 -35 -8 -19 0 -98 -6 -175 -14 -161 -18 -282 -23
-483 -23 -82 0 -141 -4 -138 -9 7 -10 85 -31 120 -31 13 0 26 -5 28 -12 4 -11
125 -13 213 -2 17 2 50 5 75 8 25 2 116 12 203 21 86 9 165 14 175 11 31 -10
77 9 77 32 0 11 16 38 36 59 37 39 69 95 69 121 0 8 11 30 25 48 14 18 25 39
25 48 0 8 4 18 10 21 5 3 17 21 26 40 20 42 32 43 84 9 40 -27 102 -37 109
-19 2 6 -10 16 -28 24 -34 16 -41 31 -14 31 14 0 14 2 -2 20 -10 11 -23 20
-28 20 -13 0 -47 30 -47 42 0 13 71 88 85 88 6 0 20 -9 29 -19 10 -11 30 -21
44 -23 21 -2 28 -10 33 -38 4 -19 12 -36 18 -38 6 -2 11 -10 11 -17 0 -7 16
-25 36 -40 32 -25 40 -26 95 -20 55 6 62 5 75 -14 21 -29 30 -26 40 12 9 28
14 32 44 32 18 0 35 -5 37 -11 7 -20 -133 -93 -178 -94 -8 0 -37 11 -64 25
-53 26 -71 25 -55 -6 27 -49 171 -85 226 -56 101 53 99 52 131 29 16 -11 41
-24 56 -27 15 -4 30 -11 33 -16 3 -5 21 -16 40 -24 43 -18 211 -126 385 -249
72 -51 79 -54 125 -49 44 5 47 4 30 -9 -19 -15 -15 -38 7 -38 7 0 39 -26 72
-58 101 -97 231 -200 395 -311 56 -38 142 -109 231 -193 14 -13 46 -41 72 -62
26 -21 47 -44 47 -50 0 -9 -28 -12 -97 -12 -54 1 -106 -3 -117 -7 -10 -5 -57
-9 -105 -8 -58 0 -110 -6 -161 -20 -134 -36 -144 -39 -235 -54 -49 -8 -175
-17 -280 -20 -104 -3 -206 -9 -225 -13 -35 -6 -132 -12 -180 -11 -118 4 -546
-12 -570 -21 -69 -26 -184 -29 -350 -10 -52 6 -104 8 -115 5 -42 -13 -143 -15
-230 -4 -49 6 -141 13 -203 15 -61 2 -121 8 -131 14 -11 5 -47 10 -80 10 -58
0 -62 2 -98 41 -21 22 -42 53 -48 67 -18 47 -34 69 -55 75 -25 6 -36 -9 -20
-28 14 -17 -1 -20 -17 -4 -6 6 -16 8 -22 4 -7 -4 4 -19 29 -40 82 -68 124
-141 46 -78 -20 15 -36 31 -36 34 0 4 -25 25 -55 48 -35 27 -64 59 -77 86 -18
37 -28 45 -64 54 -35 9 -57 27 -121 97 -43 47 -84 97 -91 112 -7 15 -30 39
-50 55 -20 15 -77 68 -127 118 -49 50 -107 108 -128 128 -126 119 -174 162
-189 167 -9 3 -20 13 -23 23 -3 10 -15 29 -26 42 -17 20 -18 24 -4 29 12 4 9
12 -16 43 -17 21 -37 36 -44 34 -18 -8 -77 44 -240 210 -83 84 -164 163 -182
176 -17 13 -62 56 -100 97 l-68 73 45 -7 c25 -4 81 -11 125 -15z m4450 -1601
c-4 -7 3 -7 20 0 40 15 118 12 141 -6 10 -8 13 -12 5 -8 -9 4 -12 3 -7 -4 4
-6 14 -8 23 -5 11 4 14 3 9 -5 -5 -8 -2 -10 8 -6 9 3 16 2 16 -4 0 -5 11 -13
25 -16 14 -4 25 -11 25 -16 0 -6 6 -10 14 -10 8 0 16 -5 18 -11 2 -6 15 -12
29 -12 27 -2 71 -46 47 -48 -138 -7 -233 -7 -323 1 -94 9 -170 12 -235 10 -8
0 -55 3 -105 8 -49 5 -95 5 -101 1 -5 -5 -40 -3 -76 3 -58 9 -69 9 -83 -6 -18
-18 -28 -20 -39 -8 -8 7 -210 16 -306 13 -72 -3 -174 6 -177 15 -2 7 54 11
159 11 256 2 409 11 426 25 12 10 16 10 19 1 6 -17 28 -16 78 1 21 8 56 13 76
12 20 0 36 2 34 5 -6 9 93 31 106 23 8 -5 9 -3 4 6 -6 10 -3 12 13 8 12 -4 20
-3 17 2 -6 10 73 23 87 14 7 -4 8 -2 4 4 -5 8 3 12 24 12 18 0 29 -4 25 -10z"/>
<path d="M4280 8695 c0 -8 8 -19 19 -24 36 -20 168 -42 281 -48 84 -4 125 -11
153 -25 42 -21 108 -21 115 -1 2 8 -15 22 -40 33 -24 12 -54 27 -68 35 -17 10
-48 13 -100 11 -41 -2 -133 5 -205 15 -157 23 -155 23 -155 4z"/>
<path d="M4247 8538 c-51 -55 -80 -114 -73 -144 4 -13 13 -24 20 -24 8 0 37
-15 66 -34 28 -18 70 -37 93 -40 23 -4 52 -13 64 -21 31 -21 91 -12 137 19 21
14 47 26 56 26 15 0 17 5 11 33 -9 37 -27 74 -49 100 -26 29 -6 31 44 3 57
-32 64 -33 27 -3 -71 59 -236 127 -307 127 -47 0 -54 -3 -89 -42z m30 -66 c0
-56 24 -85 89 -109 59 -21 63 -21 95 -5 21 11 37 29 43 49 l11 32 37 -32 c43
-38 59 -76 31 -78 -10 -1 -26 0 -36 1 -10 1 -25 -4 -33 -10 -7 -7 -32 -12 -54
-12 -22 0 -42 -3 -45 -8 -15 -25 -205 63 -205 95 0 34 41 105 60 105 4 0 7
-12 7 -28z"/>
<path d="M4004 8358 c4 -39 70 -217 96 -261 6 -10 8 -22 4 -28 -3 -6 2 -19 12
-30 12 -13 17 -37 18 -81 l1 -63 -42 3 c-23 2 -51 1 -62 -3 -17 -5 -19 -9 -8
-25 29 -47 116 -53 158 -11 25 25 29 36 27 82 0 44 -10 71 -58 158 -31 58 -74
150 -95 204 -21 53 -42 97 -47 97 -5 0 -7 -19 -4 -42z"/>
<path d="M4506 2732 c-3 -6 -4 -17 0 -25 4 -13 -16 -16 -130 -22 -74 -4 -143
-5 -151 -1 -9 3 -38 0 -63 -8 -26 -8 -87 -18 -137 -23 -88 -8 -90 -8 -93 -35
-2 -16 1 -28 7 -28 6 0 11 6 11 14 0 9 25 15 92 20 50 4 99 11 109 17 10 5 78
11 151 14 73 3 147 7 163 9 17 2 38 5 48 5 11 1 21 10 24 21 6 24 -1 24 98 4
105 -21 107 -21 112 -8 6 16 -16 23 -117 34 -49 6 -95 13 -103 16 -8 3 -18 1
-21 -4z"/>
<path d="M6034 2210 c-6 -6 -69 -11 -153 -11 -113 0 -148 -3 -167 -15 -17 -12
-75 -19 -206 -29 -101 -6 -195 -17 -209 -23 -28 -11 -141 -18 -429 -27 -199
-6 -220 -9 -220 -29 0 -34 24 -37 201 -21 96 8 233 18 304 21 72 3 144 10 160
15 43 12 86 17 255 25 125 6 154 10 172 25 17 15 39 19 112 20 134 3 168 6
199 18 34 13 119 14 207 1 62 -9 80 -7 67 6 -7 7 -204 33 -252 34 -17 0 -36
-5 -41 -10z"/>
<path d="M6282 2011 c-8 -4 -12 -17 -10 -27 3 -17 -5 -19 -92 -21 -52 -2 -117
-10 -145 -17 -115 -33 -145 -37 -285 -34 -123 3 -150 0 -177 -14 -36 -20 -118
-24 -173 -8 -26 8 -51 5 -110 -10 -48 -12 -124 -21 -210 -24 -74 -3 -151 -10
-170 -16 -19 -6 -69 -15 -110 -21 -81 -12 -140 -32 -140 -48 0 -16 159 -4 263
20 49 11 148 24 220 29 73 5 148 14 167 20 19 6 87 10 150 9 72 -1 126 3 145
10 17 7 89 15 160 17 135 6 247 24 296 49 18 10 59 15 116 15 102 0 133 7 133
27 0 23 91 7 183 -32 10 -4 17 -3 17 3 0 13 -102 52 -135 52 -16 0 -25 6 -25
15 0 17 -46 21 -68 6z"/>
<path d="M6568 3194 c-36 -19 -42 -51 -14 -78 17 -18 39 -24 101 -30 44 -4
107 -11 140 -17 33 -5 112 -15 175 -23 63 -8 162 -24 220 -36 58 -11 137 -25
175 -31 39 -5 97 -14 130 -19 33 -5 98 -13 145 -19 129 -16 201 -31 250 -51
25 -10 90 -32 145 -50 102 -32 175 -70 285 -150 169 -122 202 -145 291 -205
55 -37 107 -81 123 -103 14 -21 71 -83 126 -137 94 -91 102 -97 132 -91 17 3
40 14 50 23 36 32 23 59 -71 149 -49 46 -101 103 -117 125 -15 23 -76 75 -138
119 -249 178 -282 203 -306 225 -23 22 -186 125 -196 125 -3 0 -29 11 -57 24
-29 14 -83 32 -122 41 -38 10 -82 24 -97 31 -31 16 -151 39 -248 48 -36 4 -94
11 -130 16 -218 33 -329 53 -379 66 -31 8 -159 23 -286 34 -126 11 -246 21
-266 23 -19 3 -47 -1 -61 -9z"/>
</g>
</svg>
