<?xml version="1.0" standalone="no"?>
<!DOCTYPE svg PUBLIC "-//W3C//DTD SVG 20010904//EN"
 "http://www.w3.org/TR/2001/REC-SVG-20010904/DTD/svg10.dtd">
<svg version="1.0" xmlns="http://www.w3.org/2000/svg"
 width="1141.000000pt" height="1125.000000pt" viewBox="0 0 1141.000000 1125.000000"
 preserveAspectRatio="xMidYMid meet">
<metadata>
Created by potrace 1.16, written by Peter Selinger 2001-2019
</metadata>
<g transform="translate(0.000000,1125.000000) scale(0.100000,-0.100000)"
fill="#000000" stroke="none">
<path d="M1995 10479 c-11 -4 -32 -8 -47 -8 -25 -1 -33 -10 -29 -33 0 -3 -12
-11 -28 -16 -23 -8 -29 -17 -34 -53 -5 -40 -2 -66 18 -154 3 -16 -1 -81 -9
-143 -9 -62 -16 -175 -16 -252 0 -82 -4 -141 -10 -145 -6 -3 -12 0 -15 7 -2 7
-6 180 -9 383 -2 204 -7 377 -11 387 -4 11 -22 18 -53 20 -55 5 -82 -5 -82
-32 0 -10 -4 -22 -10 -25 -5 -3 -10 -17 -10 -30 0 -12 -7 -26 -16 -29 -13 -5
-15 -21 -12 -96 1 -50 8 -94 14 -98 15 -10 34 -69 34 -108 0 -45 -21 -135 -37
-159 -19 -29 -18 -164 2 -171 20 -8 19 -37 -1 -80 -18 -38 -16 -162 3 -186 23
-29 48 -640 35 -832 l-5 -69 -39 -15 c-21 -8 -38 -18 -38 -22 0 -4 -33 -10
-72 -14 -61 -5 -77 -10 -95 -31 -33 -38 -75 -42 -130 -14 l-45 23 6 45 c3 25
13 56 22 69 12 19 14 37 9 84 -6 48 -4 63 9 77 9 10 19 42 23 70 4 34 12 55
23 61 10 5 21 22 25 37 12 42 6 379 -7 448 -13 67 -28 84 -74 85 -37 0 -40 -7
-54 -128 -5 -46 -15 -91 -22 -99 -9 -11 -13 -58 -14 -157 -2 -140 -5 -155 -48
-273 -11 -29 -17 -88 -19 -180 -4 -132 -5 -138 -27 -150 -30 -15 -53 -69 -40
-91 5 -10 21 -28 35 -41 23 -21 25 -30 25 -112 0 -86 1 -89 25 -95 14 -3 42 1
62 9 38 15 38 15 41 78 2 35 7 68 12 73 15 15 91 25 95 12 2 -6 9 -82 14 -170
8 -120 14 -163 26 -176 9 -9 23 -49 32 -89 15 -62 20 -71 40 -71 16 0 23 -6
23 -19 0 -23 14 -34 68 -51 24 -8 49 -21 55 -31 7 -9 21 -18 32 -20 20 -4 20
-14 23 -444 1 -309 -1 -448 -9 -467 l-11 -28 -189 5 c-104 2 -194 7 -199 10
-6 3 -10 -3 -10 -14 0 -20 5 -21 155 -21 97 0 155 -4 155 -10 0 -5 12 -10 26
-10 22 0 25 -2 14 -15 -13 -15 -96 -22 -86 -7 2 4 -14 6 -36 4 -25 -3 -38 -1
-35 5 4 7 -11 7 -41 2 -26 -4 -70 -9 -98 -12 -45 -3 -51 -2 -47 14 6 22 -27
33 -73 24 -25 -4 -34 -11 -34 -26 0 -16 -2 -18 -14 -7 -8 7 -10 15 -6 18 5 3
12 18 15 33 4 15 11 27 17 27 5 0 7 -4 4 -9 -4 -5 3 -7 15 -4 18 5 20 12 17
45 -3 33 0 40 19 44 35 9 35 37 24 1027 l-1 57 -49 0 c-39 0 -50 -4 -53 -18
-9 -32 3 -315 13 -334 11 -21 3 -61 -11 -53 -10 6 -6 -663 4 -687 5 -11 0 -35
-14 -64 -19 -38 -27 -45 -45 -41 -18 3 -22 0 -17 -11 3 -10 1 -13 -6 -8 -8 4
-10 2 -6 -8 3 -8 18 -19 33 -25 30 -13 47 -60 58 -163 4 -44 3 -62 -7 -68 -9
-5 -13 -32 -14 -82 -1 -130 16 -423 26 -435 5 -7 6 -18 2 -24 -5 -8 -3 -9 6
-4 10 6 12 4 7 -9 -4 -10 -3 -15 3 -11 17 10 19 -31 23 -443 l5 -403 -25 -10
c-13 -5 -43 -9 -66 -9 -53 -1 -76 -18 -84 -64 l-6 -36 39 -1 c22 0 59 -1 84
-2 l45 -2 2 -890 c2 -877 -3 -1065 -26 -1088 -12 -12 -194 -15 -377 -8 -55 2
-78 -1 -98 -14 -26 -17 -26 -18 -7 -31 11 -8 21 -27 23 -42 3 -24 8 -27 43
-30 67 -4 85 -11 85 -32 0 -19 7 -20 143 -21 159 0 210 -11 215 -46 2 -13 0
-23 -5 -23 -4 0 -8 -51 -9 -112 0 -63 -8 -154 -18 -206 -16 -86 -16 -94 -1
-125 12 -23 19 -74 25 -182 5 -82 9 -151 9 -152 1 -2 13 -3 29 -3 16 0 41 13
60 31 33 30 34 32 28 92 -9 87 -6 443 4 556 6 67 5 99 -3 112 -35 56 63 75
186 38 39 -12 95 -23 122 -23 62 -1 75 -9 75 -46 0 -16 6 -33 14 -37 8 -5 16
-36 20 -80 l6 -73 -52 -1 c-95 -2 -111 -9 -121 -53 -13 -52 5 -109 38 -124 24
-11 25 -15 25 -106 0 -96 -11 -126 -45 -126 -7 0 -20 -21 -29 -47 -19 -54 -20
-67 -6 -58 6 4 10 -15 10 -50 0 -67 20 -121 49 -130 12 -3 21 -15 21 -26 0
-12 10 -23 25 -29 35 -13 45 -47 43 -137 -2 -61 1 -78 14 -87 18 -11 48 7 48
30 0 7 8 15 19 19 11 3 21 19 25 37 l6 31 71 -7 c81 -7 109 -19 109 -45 0 -20
26 -31 71 -31 43 0 99 -28 109 -56 14 -36 40 -42 59 -14 9 14 24 31 34 39 9 9
17 28 17 42 0 33 10 60 19 55 4 -3 5 11 3 29 -4 30 -1 35 22 41 15 3 31 15 37
25 13 25 51 24 74 -1 10 -11 24 -20 32 -20 7 0 13 -9 13 -21 0 -24 68 -109 88
-109 8 0 22 -10 32 -22 34 -42 200 -36 237 10 9 11 53 15 226 17 215 3 309 16
379 51 15 8 52 14 83 14 30 0 55 5 55 10 0 6 6 10 14 10 7 0 24 15 37 34 34
50 110 58 209 21 19 -7 63 -16 98 -20 46 -5 70 -14 89 -31 16 -15 38 -24 58
-24 38 0 71 -15 103 -48 12 -12 34 -22 48 -22 14 0 23 -4 19 -9 -9 -15 36 -41
70 -41 21 0 33 -6 40 -22 7 -14 26 -25 58 -33 26 -7 58 -22 70 -33 13 -12 32
-23 42 -25 34 -7 75 -26 75 -35 0 -5 23 -12 51 -15 28 -4 66 -12 84 -18 29
-11 37 -10 53 4 10 9 26 17 35 17 37 0 15 32 -38 56 -30 14 -55 29 -55 34 0 4
-24 14 -52 21 -29 6 -60 20 -69 31 -9 10 -24 18 -33 18 -17 0 -66 27 -77 43
-3 4 -19 11 -35 16 -17 4 -31 15 -33 27 -5 26 -19 34 -64 34 -50 0 -117 22
-117 38 0 7 -14 15 -31 19 -18 3 -34 14 -36 24 -5 18 -51 39 -85 39 -11 0 -22
8 -25 18 -3 14 -22 20 -91 30 -61 8 -91 17 -100 29 -11 15 -39 19 -200 25
-299 13 -353 20 -398 54 -40 30 -61 54 -79 89 -6 11 -23 26 -38 33 -15 7 -27
21 -27 31 0 12 -10 21 -24 25 -19 5 -26 15 -31 48 -4 24 -16 49 -26 56 -11 7
-19 24 -19 37 0 13 -4 27 -10 30 -16 10 -12 42 6 49 21 8 65 -17 101 -58 48
-54 67 -60 181 -61 102 0 104 1 126 28 12 15 29 27 39 27 9 0 23 13 32 30 9
17 24 30 35 30 13 0 20 8 22 27 2 20 10 29 28 33 18 4 26 13 28 35 2 16 11 34
19 40 12 9 14 21 9 52 -6 35 -12 42 -47 56 -32 13 -39 20 -39 42 0 17 -6 29
-18 31 -17 5 -42 47 -42 71 0 8 -11 18 -24 23 -13 5 -27 18 -31 29 -3 12 -12
21 -20 21 -7 0 -23 13 -35 30 -12 16 -27 30 -34 30 -7 0 -30 14 -51 30 -37 29
-40 30 -154 30 -95 0 -121 3 -141 18 -14 9 -56 24 -95 32 -49 10 -71 20 -73
31 -2 13 9 18 51 23 40 5 60 14 76 32 11 13 28 24 36 24 9 0 20 12 25 26 6 14
14 23 19 19 5 -3 12 -1 16 5 3 5 16 10 28 10 13 0 34 13 49 30 18 21 35 30 56
30 43 0 62 -9 62 -30 0 -13 11 -20 38 -24 64 -12 72 -16 72 -42 0 -19 5 -24
23 -24 15 0 28 -9 35 -24 6 -15 23 -27 41 -31 17 -4 31 -13 31 -21 0 -7 13
-20 29 -28 16 -9 31 -25 34 -36 5 -19 12 -21 64 -18 l58 3 3 47 3 47 73 -1
c82 -2 96 4 96 38 0 17 -6 24 -19 24 -22 0 -38 37 -23 52 13 13 52 -7 52 -26
0 -9 16 -17 43 -21 44 -8 77 -29 77 -52 0 -8 11 -13 29 -13 20 0 32 -6 35 -18
3 -10 19 -23 36 -29 16 -6 30 -18 30 -27 0 -9 15 -22 33 -29 17 -8 58 -39 89
-70 32 -30 66 -58 78 -62 11 -3 20 -12 20 -20 0 -8 9 -17 20 -20 11 -4 27 -21
36 -38 11 -24 11 -28 1 -14 -19 24 -44 21 -50 -5 -8 -28 9 -48 38 -48 41 0 55
-11 81 -67 14 -30 29 -52 32 -49 9 9 32 -15 32 -33 0 -10 28 -48 63 -85 61
-67 86 -106 67 -106 -9 0 -14 14 -11 33 0 4 -11 7 -25 7 -26 0 -26 -2 -20 -42
9 -52 13 -57 59 -65 26 -4 44 0 62 11 24 16 27 16 52 -4 14 -11 32 -20 39 -20
8 0 16 -11 20 -24 5 -20 14 -25 56 -31 28 -4 52 -13 55 -21 3 -8 15 -14 27
-14 11 0 39 -7 61 -14 49 -17 59 -43 18 -48 -22 -2 -28 -8 -28 -28 0 -20 6
-26 28 -28 41 -5 51 -33 21 -65 -28 -30 -30 -37 -9 -37 8 0 21 -13 30 -30 12
-23 22 -30 45 -30 37 0 45 13 20 35 -11 10 -20 30 -20 45 0 14 -4 30 -8 36 -5
5 -3 20 4 34 14 25 14 25 14 -12 0 -20 6 -41 13 -45 18 -11 47 -87 47 -123 0
-16 6 -33 14 -37 21 -12 40 -127 41 -243 1 -144 4 -150 69 -150 47 0 54 3 64
26 7 14 16 23 21 20 5 -3 15 2 22 11 10 11 15 56 18 150 4 155 -3 216 -27 240
-23 23 -42 80 -42 131 0 31 -4 42 -15 42 -8 0 -15 9 -15 19 0 11 -5 23 -11 27
-8 4 -10 32 -7 81 4 57 10 79 27 96 11 13 21 31 21 40 0 9 5 17 10 17 6 0 10
26 10 58 1 31 7 68 15 82 19 34 19 124 0 140 -18 15 -21 100 -4 100 6 0 13 -9
16 -19 3 -12 17 -23 34 -26 18 -4 29 -13 29 -23 0 -9 16 -33 36 -52 30 -29 35
-40 31 -67 -3 -18 -1 -35 4 -38 5 -4 9 0 9 7 0 7 9 -2 20 -20 20 -33 21 -33
88 -30 66 3 67 4 84 38 35 72 16 182 -34 199 -15 6 -28 17 -28 25 0 8 -13 23
-29 32 -19 11 -31 28 -35 48 -4 22 -15 35 -36 44 -18 8 -30 21 -30 32 0 19
-50 50 -81 50 -14 0 -19 9 -21 42 -3 39 -7 45 -42 63 -48 25 -53 38 -28 63 19
19 19 19 -13 31 -17 6 -43 11 -57 11 -43 0 -58 10 -58 39 0 17 -10 36 -25 49
-28 25 -32 42 -10 42 8 0 15 6 15 14 0 17 -43 32 -118 41 -43 6 -55 11 -62 30
-6 15 -20 25 -43 29 -19 4 -45 15 -57 26 -13 11 -31 20 -40 20 -21 0 -97 37
-102 49 -1 6 -27 16 -55 24 -29 7 -59 20 -65 29 -7 8 -31 18 -53 22 -22 3 -46
14 -55 25 -10 13 -33 22 -68 27 -29 4 -55 11 -58 15 -3 5 -12 9 -21 9 -9 0
-24 6 -32 14 -9 7 -42 21 -73 30 -39 11 -59 22 -63 36 -4 12 -15 20 -29 20
-13 0 -29 6 -35 14 -7 8 -44 20 -84 27 -83 15 -114 38 -95 69 18 28 3 36 -97
50 -62 9 -88 17 -108 36 -15 14 -38 24 -55 24 -16 0 -37 9 -47 20 -10 11 -26
20 -37 20 -10 0 -18 4 -18 9 0 6 -15 11 -32 13 -25 2 -34 8 -36 25 -5 34 -58
59 -166 78 -75 14 -105 24 -120 40 -12 12 -31 25 -43 29 -13 4 -23 14 -23 22
0 7 -16 20 -35 28 -19 8 -35 22 -35 30 0 9 -16 22 -35 30 -19 8 -35 22 -35 30
0 10 -9 16 -24 16 -13 0 -29 7 -36 15 -7 8 -19 15 -26 15 -21 0 -17 30 4 30 9
0 26 8 37 16 20 15 20 15 1 30 -15 10 -50 14 -131 14 -122 0 -171 11 -180 41
-4 10 -17 22 -30 25 -13 3 -29 18 -35 35 -7 16 -18 29 -24 29 -15 0 -40 67
-38 102 3 31 -16 44 -77 54 -35 6 -41 10 -41 30 0 20 -5 24 -30 24 -27 0 -30
3 -30 31 0 22 -5 32 -20 36 -38 10 -23 40 25 52 46 12 64 41 25 41 -12 0 -37
15 -56 34 -19 18 -48 36 -64 40 -36 7 -50 36 -50 103 0 58 39 203 57 210 7 3
13 18 13 34 0 22 6 32 24 38 14 6 30 26 39 50 9 22 28 48 42 57 15 9 25 26 25
39 0 17 8 26 30 34 18 6 30 17 30 27 0 10 29 46 65 80 36 34 65 67 65 73 0 6
17 19 38 29 20 9 45 27 55 39 9 12 31 24 47 28 17 4 30 11 30 16 0 6 9 7 20 4
11 -4 20 -2 20 4 0 6 -7 11 -15 11 -22 0 -18 36 7 60 12 11 25 20 29 20 4 0 9
10 11 22 2 14 12 24 28 28 14 3 29 16 35 28 5 12 15 22 21 22 6 0 17 6 23 14
6 7 22 11 36 8 20 -3 25 0 25 16 0 11 -8 23 -17 25 -17 4 -17 5 -1 6 10 0 20
12 24 27 4 14 17 30 31 35 14 5 27 17 30 27 5 21 73 56 73 38 0 -6 4 -4 10 4
5 8 5 19 0 25 -6 7 7 28 37 59 38 39 48 44 55 32 11 -19 61 -21 76 -3 15 17 2
34 -28 38 -23 4 -22 7 34 62 38 37 66 57 82 57 17 0 24 6 24 20 0 29 30 40
108 40 53 0 71 4 76 15 7 19 -23 35 -71 36 -35 0 -36 1 -15 11 12 6 22 15 22
20 0 5 16 16 35 24 23 9 35 21 35 34 0 13 9 22 25 26 13 3 27 15 31 26 3 10
16 24 29 30 13 6 26 20 28 32 3 17 5 16 6 -5 0 -15 8 -30 17 -33 16 -6 65 6
111 27 21 9 21 11 6 22 -14 11 -3 13 65 16 44 2 86 9 92 15 6 6 12 31 13 55 2
43 2 44 -30 44 -28 0 -33 4 -33 22 0 33 -47 33 -53 1 l-4 -23 -2 23 c0 12 -7
22 -13 22 -7 0 -5 5 5 11 9 5 17 18 17 28 0 12 10 21 25 25 14 4 25 14 25 23
0 15 2 14 14 -2 12 -17 12 -21 -1 -30 -8 -6 -13 -22 -11 -36 3 -22 7 -24 52
-23 41 0 52 5 76 32 15 18 32 32 38 32 12 0 22 24 22 50 0 11 8 20 22 22 43 6
30 26 -22 33 -52 7 -87 -6 -73 -27 3 -6 0 -8 -8 -6 -8 3 -21 -3 -29 -12 -13
-14 -19 -14 -40 -3 -19 10 -21 13 -7 13 10 0 21 8 24 18 4 9 16 24 28 33 11 9
30 37 43 62 12 25 28 47 35 50 6 2 18 25 26 51 7 26 21 52 30 59 9 6 23 32 32
57 10 28 23 46 36 50 31 8 143 111 149 137 8 29 111 79 185 89 37 5 57 15 83
40 20 19 49 37 66 40 16 4 30 10 30 15 0 4 25 11 55 14 30 4 65 16 77 26 13
10 28 23 34 28 6 5 25 12 42 15 16 4 33 14 36 22 3 8 14 14 25 14 11 0 23 5
26 10 3 6 43 10 87 10 71 0 85 3 105 22 24 22 25 22 54 5 45 -25 109 -34 123
-16 19 25 117 51 215 56 82 5 94 8 99 26 4 16 11 18 41 14 43 -5 127 -60 136
-87 4 -14 15 -20 35 -20 15 0 30 -6 33 -14 8 -20 87 -32 98 -15 7 11 9 10 9
-3 0 -11 -10 -20 -26 -24 -39 -10 -145 4 -164 21 -9 8 -24 15 -33 15 -11 0
-17 8 -17 24 0 41 -11 56 -40 56 -33 0 -47 -26 -27 -49 8 -9 19 -32 26 -51 15
-45 2 -56 -82 -65 -36 -4 -74 -16 -90 -27 -17 -13 -55 -24 -95 -28 -89 -10
-119 -19 -126 -36 -4 -9 -22 -14 -55 -14 -43 0 -53 -4 -67 -25 -9 -13 -25 -27
-35 -30 -12 -4 -22 -19 -26 -36 -4 -20 -12 -29 -24 -29 -28 0 -27 -56 1 -63
12 -3 20 -14 20 -26 0 -12 0 -24 0 -27 0 -4 -26 -7 -57 -7 -58 0 -58 1 -61 32
-3 25 -8 31 -28 31 -20 0 -24 5 -24 30 0 27 -3 30 -30 30 -29 0 -30 1 -30 50
0 49 -1 50 -30 50 -25 0 -30 -4 -30 -24 0 -19 -4 -23 -20 -19 -11 3 -31 -2
-45 -11 -13 -9 -45 -16 -70 -16 -33 0 -45 -4 -45 -15 0 -10 -11 -15 -32 -16
-18 -1 -40 -2 -48 -3 -8 -2 -23 -3 -32 -4 -12 -1 -18 -11 -18 -27 0 -15 -6
-25 -14 -25 -7 0 -19 -7 -26 -15 -10 -12 -10 -18 0 -30 10 -13 9 -15 -9 -15
-18 0 -21 -6 -21 -36 l0 -37 -49 7 c-27 4 -52 3 -54 -1 -3 -5 -8 -27 -12 -51
-7 -43 -7 -44 21 -40 21 2 28 8 26 21 -2 10 3 17 13 17 8 0 15 5 15 10 0 6 11
10 25 10 15 0 25 6 25 14 0 20 21 31 30 16 6 -9 13 -9 31 3 13 9 45 18 71 22
34 5 48 12 51 26 4 16 15 19 62 19 48 0 58 -3 62 -20 4 -16 14 -20 50 -20 68
0 130 -19 136 -41 4 -16 15 -19 76 -19 55 0 71 3 71 14 0 8 -6 17 -12 19 -7 3
-3 6 8 6 12 1 33 -8 47 -19 32 -25 34 -25 41 5 5 21 9 23 29 14 13 -6 27 -20
32 -32 6 -12 20 -23 33 -25 12 -2 27 -12 32 -23 13 -23 -2 -26 -20 -4 -17 20
-30 19 -31 -2 0 -14 -2 -13 -9 4 -6 15 -18 23 -32 22 -13 0 -36 3 -51 7 -26 6
-28 4 -25 -17 2 -17 11 -25 28 -27 14 -2 38 -17 54 -34 17 -16 42 -36 58 -44
36 -18 40 -59 6 -48 -13 4 -33 17 -44 30 -12 12 -38 26 -59 30 -25 4 -39 14
-45 29 -7 20 -19 24 -67 30 -32 3 -78 15 -103 27 -31 14 -74 22 -141 25 -93 6
-96 5 -115 -19 -11 -14 -32 -27 -47 -30 -23 -4 -27 -2 -27 17 0 18 -9 24 -55
34 -49 11 -57 10 -79 -6 -14 -10 -26 -22 -26 -26 0 -5 -7 -15 -15 -24 -25 -25
-14 -47 28 -54 36 -6 63 -19 39 -19 -7 0 -12 -6 -12 -14 0 -8 -13 -17 -29 -21
-35 -7 -111 -75 -111 -98 0 -10 -7 -17 -15 -17 -8 0 -21 -16 -30 -36 -8 -20
-24 -38 -35 -41 -11 -3 -20 -12 -20 -19 0 -8 -13 -17 -30 -21 -16 -3 -30 -12
-30 -20 0 -16 -39 -74 -57 -86 -7 -4 -13 -18 -13 -31 0 -52 -13 -88 -35 -96
-17 -7 -25 -20 -30 -52 -5 -29 -16 -50 -33 -64 -23 -19 -27 -31 -30 -94 l-4
-72 -42 6 c-22 3 -42 5 -43 5 -2 1 -3 7 -3 15 0 14 -36 26 -58 18 -21 -7 -13
-32 13 -42 14 -5 28 -18 31 -27 3 -10 10 -26 15 -35 11 -22 -38 -107 -63 -108
-15 0 -18 -10 -18 -69 0 -67 -10 -93 -40 -103 -6 -2 -15 -37 -21 -78 -7 -55
-15 -80 -30 -92 -14 -12 -23 -38 -30 -85 -5 -37 -13 -70 -17 -73 -10 -7 -30
-53 -49 -110 -8 -25 -25 -54 -38 -65 -16 -14 -25 -33 -27 -60 -2 -30 -9 -42
-25 -50 -13 -5 -27 -21 -32 -36 -8 -24 -17 -27 -87 -38 -58 -9 -96 -10 -144
-2 -98 16 -274 14 -316 -4 -30 -12 -34 -18 -28 -37 20 -64 18 -63 103 -75 45
-7 102 -21 128 -33 38 -17 67 -20 180 -20 130 0 181 -10 167 -32 -9 -15 16
-28 56 -28 39 0 50 -6 66 -35 6 -11 21 -21 33 -23 12 -2 25 -10 28 -18 6 -15
77 -54 99 -54 7 0 17 -7 21 -15 5 -9 38 -19 87 -26 60 -9 80 -16 83 -29 4 -13
24 -20 86 -28 63 -9 85 -17 96 -32 7 -11 21 -20 30 -21 10 0 11 -2 4 -6 -25
-10 -12 -21 32 -27 34 -6 52 -3 74 10 27 16 41 16 131 7 56 -5 105 -15 109
-21 3 -6 53 -16 109 -21 62 -7 121 -19 148 -31 44 -21 167 -40 252 -40 23 0
50 -7 60 -15 64 -57 79 -65 92 -50 9 11 28 14 68 12 46 -3 57 -7 63 -25 6 -15
17 -22 34 -22 26 0 58 -15 83 -37 7 -7 22 -13 31 -13 10 0 24 -7 31 -15 7 -8
19 -15 26 -15 8 0 14 -4 14 -10 0 -5 18 -14 39 -20 24 -6 42 -18 46 -30 4 -14
19 -20 61 -26 34 -4 59 -13 67 -23 20 -29 75 -41 189 -41 97 0 114 3 141 22
18 12 34 25 37 29 3 3 55 9 115 11 93 5 117 9 156 31 26 14 58 27 70 29 16 2
25 11 27 24 2 16 12 24 37 28 42 8 93 49 97 79 2 17 10 22 30 22 14 -1 24 3
22 7 -3 4 16 26 41 50 25 23 45 48 45 54 0 6 6 17 14 23 14 12 28 74 15 66 -4
-3 -9 1 -11 8 -6 15 1 38 11 33 10 -7 0 67 -12 82 -7 9 -6 11 5 7 10 -4 17 1
21 14 5 22 37 20 37 -3 0 -15 38 -85 56 -103 8 -8 14 -23 14 -33 0 -10 8 -25
18 -32 10 -7 28 -34 41 -60 22 -47 23 -48 71 -48 26 0 61 3 78 6 27 5 30 11
36 55 5 40 12 52 31 61 16 7 25 19 25 35 0 12 9 32 19 42 19 19 19 20 0 37
-14 12 -20 30 -19 54 3 58 1 70 -13 70 -8 0 -19 11 -25 25 -15 32 -16 105 -1
105 18 0 39 -27 45 -59 5 -21 12 -31 25 -31 13 0 22 -12 30 -42 7 -24 24 -52
37 -64 29 -24 25 -53 -8 -61 -29 -8 -24 -16 21 -37 51 -23 81 -55 74 -78 -8
-24 12 -58 34 -58 15 0 20 -10 26 -46 l6 -46 97 3 c53 1 100 4 105 6 4 2 0 11
-8 19 -16 16 -19 42 -9 68 7 18 49 22 59 6 3 -6 15 -10 25 -10 11 0 24 -9 29
-19 12 -22 1 -35 -42 -45 -33 -8 -27 -26 9 -26 13 0 32 -4 42 -9 9 -5 25 -12
35 -15 9 -3 17 -15 17 -26 0 -13 7 -20 20 -20 11 0 28 -9 37 -20 14 -16 30
-20 85 -20 39 0 68 4 68 10 0 6 -4 10 -10 10 -5 0 -10 5 -10 10 0 6 29 10 67
10 63 0 77 11 28 23 -11 3 6 5 38 6 57 1 67 -5 45 -27 -9 -9 1 -12 48 -12 56
0 64 -3 97 -35 21 -20 37 -45 37 -55 0 -14 7 -20 23 -20 28 0 47 -17 47 -42 0
-15 9 -18 59 -18 33 0 71 4 85 10 32 12 35 45 5 47 -30 3 -50 23 -47 47 2 16
11 22 36 24 27 3 38 -3 64 -32 l32 -36 99 0 c98 0 99 0 93 -23 -4 -17 -1 -23
12 -24 79 -7 112 -17 112 -32 0 -26 21 -41 57 -41 20 0 40 -8 53 -22 11 -12
28 -23 38 -23 9 -1 34 -2 54 -3 27 -2 38 -7 43 -21 3 -11 16 -23 27 -27 12 -3
26 -10 32 -15 6 -5 26 -21 44 -35 18 -15 36 -24 39 -20 8 8 43 -23 43 -39 0
-6 24 -16 53 -21 43 -7 53 -13 55 -31 3 -18 10 -23 32 -23 21 0 29 -6 34 -25
5 -18 15 -27 36 -32 23 -4 30 -11 30 -28 0 -17 9 -26 30 -34 20 -6 30 -17 30
-30 0 -11 6 -26 14 -34 11 -11 12 -17 3 -26 -9 -10 -9 -15 3 -24 21 -17 36
-47 45 -87 4 -19 11 -39 15 -45 9 -12 18 -67 25 -155 12 -139 25 -263 31 -271
3 -5 12 -9 20 -9 9 0 14 -10 15 -27 0 -16 2 -107 5 -203 6 -182 -9 -433 -28
-485 -20 -56 -26 -157 -11 -195 8 -19 18 -37 23 -40 4 -3 14 -43 20 -90 6 -46
16 -92 21 -102 6 -11 6 -51 -1 -110 -18 -146 -28 -329 -29 -500 l-1 -156 40
-41 c24 -24 50 -41 63 -41 48 1 87 56 87 124 0 23 4 46 8 51 16 18 32 141 32
239 0 77 3 98 15 102 12 5 15 30 15 141 0 74 -4 142 -10 152 -9 18 -35 125
-50 214 -5 28 -18 56 -30 67 -13 11 -20 30 -20 52 0 39 25 108 39 108 5 0 11
58 13 129 3 112 6 133 24 158 41 56 45 86 38 301 -6 164 -10 207 -23 219 -14
15 -24 66 -37 203 -4 36 -12 70 -18 75 -19 16 -46 76 -46 102 0 13 -7 26 -15
29 -15 6 -45 58 -45 77 0 6 -9 20 -19 31 -10 12 -26 42 -35 67 -8 26 -27 60
-41 75 -15 16 -29 41 -32 56 -4 21 -11 28 -29 28 -19 0 -24 5 -24 24 0 19 -6
25 -27 28 -22 2 -29 9 -31 31 -4 31 -39 53 -134 82 -33 11 -58 25 -61 34 -2
10 -25 22 -55 31 -29 7 -52 19 -52 25 0 7 -16 20 -35 31 -19 10 -35 24 -35 31
0 13 -14 18 -75 29 -22 4 -45 11 -51 16 -7 5 -18 7 -25 6 -8 -2 -13 2 -12 9 2
8 -19 14 -57 19 -51 6 -64 11 -81 35 -13 19 -29 29 -45 29 -30 0 -66 17 -77
36 -4 8 -16 14 -27 14 -28 0 -50 11 -50 25 0 7 -16 22 -36 34 -19 12 -32 26
-29 31 3 6 -1 10 -10 10 -10 0 -23 16 -32 40 -9 22 -22 40 -29 40 -7 0 -18 9
-24 19 -5 11 -20 21 -32 23 -20 3 -24 12 -35 98 -6 52 -12 126 -12 163 -1 45
-6 76 -17 92 -18 27 -19 59 -30 548 -4 191 -2 272 6 282 14 16 75 2 105 -25
11 -10 43 -20 70 -23 28 -3 70 -8 95 -12 25 -3 66 0 92 6 45 10 46 12 50 52 8
73 6 75 -148 79 -115 2 -138 6 -148 21 -7 9 -21 17 -30 17 -35 0 -86 29 -86
49 0 10 5 21 11 23 9 3 8 23 -1 74 -16 90 -9 228 13 271 14 27 17 66 17 254 0
150 -4 234 -12 256 -10 27 -10 38 0 53 17 27 16 149 -2 169 -8 10 -16 54 -20
113 -7 90 -6 97 13 107 28 15 104 14 148 -3 71 -27 92 -28 110 -6 10 11 25 20
35 20 34 0 33 44 -2 55 -11 3 -22 15 -25 25 -7 24 -53 37 -155 46 -41 4 -81
12 -89 17 -7 6 -23 16 -35 22 -21 11 -21 11 -19 405 2 217 0 419 -3 448 -5 49
-7 52 -33 52 -45 0 -65 -21 -57 -61 16 -77 18 -109 7 -109 -6 0 -11 -10 -11
-23 0 -13 -5 -28 -12 -35 -7 -7 -12 -83 -14 -234 -2 -123 -6 -260 -10 -306 -5
-76 -8 -84 -30 -92 -13 -5 -24 -14 -24 -20 0 -15 -47 -12 -64 5 -21 22 -281
22 -322 0 -17 -9 -22 -15 -13 -15 24 0 123 -32 130 -42 3 -5 34 -13 70 -19 64
-11 124 -32 133 -48 3 -5 25 -12 48 -15 77 -12 72 11 78 -348 4 -253 8 -328
19 -344 12 -18 12 -28 -3 -69 -13 -40 -16 -95 -16 -323 0 -319 -1 -322 -72
-294 -33 13 -49 14 -96 4 -30 -6 -59 -17 -62 -23 -12 -19 -83 -29 -170 -23
-48 4 -89 12 -95 19 -10 12 -70 22 -265 46 -52 6 -96 15 -98 20 -2 5 -10 9
-18 9 -8 0 -20 12 -26 26 -11 23 -10 29 10 44 20 16 22 27 22 110 0 59 -5 102
-14 118 -30 59 -38 81 -32 90 3 5 -6 20 -19 32 -14 13 -25 29 -25 37 0 7 -4
13 -9 13 -5 0 -12 9 -16 19 -3 11 -14 23 -25 26 -10 3 -21 19 -25 34 -3 16
-16 33 -29 39 -18 8 -25 22 -30 56 -5 33 -12 47 -27 51 -12 4 -27 22 -35 41
-8 19 -18 34 -22 34 -8 0 -52 135 -52 160 0 7 -7 21 -16 31 -9 10 -21 42 -28
71 -9 43 -16 54 -34 56 -12 2 -22 10 -22 19 0 8 -13 27 -29 42 -27 25 -28 32
-35 141 -4 63 -9 134 -13 158 -5 41 -4 42 26 48 17 4 36 13 42 20 15 19 39 18
53 -2 10 -13 37 -16 147 -19 74 -1 142 1 152 6 20 11 24 68 5 87 -8 8 -55 12
-145 12 -135 0 -137 0 -166 43 -7 11 -30 21 -55 24 -51 7 -50 3 -55 228 -4
161 -10 192 -47 221 -22 18 -20 146 3 168 23 23 23 135 1 178 -13 24 -15 52
-12 124 2 51 9 98 16 106 9 12 9 34 0 99 -28 189 3 442 55 462 29 11 183 -3
243 -22 42 -14 115 -25 216 -32 93 -6 175 -18 208 -29 30 -9 92 -20 138 -24
46 -4 91 -10 100 -15 9 -4 31 -16 49 -25 26 -13 65 -16 230 -16 179 -1 200 -2
221 -19 12 -11 22 -24 22 -29 0 -6 5 -12 11 -14 8 -3 11 -31 10 -80 -2 -69 0
-77 19 -83 36 -12 43 3 37 81 l-7 73 51 16 c38 13 57 15 73 7 35 -17 82 -21
285 -24 178 -2 194 -1 207 16 9 13 10 24 4 37 -6 10 -10 27 -10 38 0 29 -60
42 -183 41 -56 -1 -109 0 -117 3 -34 11 -159 37 -215 44 -49 7 -62 12 -71 32
-7 13 -18 27 -25 31 -12 8 -70 4 -99 -7 -8 -4 -18 -7 -22 -7 -3 -1 -10 -4 -13
-8 -4 -4 -15 -4 -24 0 -19 8 -52 9 -66 1 -14 -8 -101 -5 -305 13 -96 9 -195
16 -220 17 -25 1 -63 8 -85 15 -22 8 -78 17 -125 20 -113 9 -300 38 -300 46 0
4 -35 10 -77 14 -148 12 -160 16 -172 45 -6 14 -13 47 -15 73 -3 25 -9 55 -14
65 -15 27 -22 120 -12 154 9 32 3 62 -10 54 -4 -3 -11 11 -14 30 -6 29 -11 35
-31 35 -16 0 -25 -6 -25 -15 0 -9 -13 -24 -30 -33 -29 -16 -30 -19 -30 -90 0
-57 5 -85 25 -126 64 -135 56 -140 -206 -134 -139 3 -194 7 -197 16 -8 26 -51
37 -167 43 -90 4 -134 11 -175 28 -48 19 -80 23 -270 28 -206 6 -215 7 -237
29 -17 17 -44 26 -104 35 -45 7 -87 18 -93 25 -11 11 -155 20 -248 16 -34 -2
-38 -5 -50 -44 l-12 -41 44 -39 c47 -39 86 -49 96 -23 4 8 14 15 24 15 10 0
23 -7 30 -15 7 -8 23 -15 36 -15 12 0 25 -4 28 -8 2 -4 8 -63 12 -131 7 -125
16 -148 48 -122 7 6 15 8 19 5 14 -15 36 49 43 124 5 66 10 82 23 82 19 0 77
21 108 38 12 7 42 12 68 12 39 0 47 -3 55 -25 8 -21 16 -25 48 -25 22 0 52 -4
68 -9 16 -5 61 -14 99 -21 39 -7 75 -17 81 -22 6 -4 49 -11 95 -15 46 -3 89
-10 96 -15 8 -6 40 -5 88 3 60 9 79 9 84 0 14 -23 189 -51 319 -51 101 0 122
-3 122 -15 0 -8 13 -21 28 -29 l29 -15 1 -203 c1 -236 -2 -272 -31 -299 -20
-18 -22 -30 -20 -108 1 -68 7 -100 26 -142 23 -53 24 -59 26 -411 1 -229 -2
-358 -8 -358 -5 0 -13 -9 -16 -20 -5 -16 -15 -20 -48 -20 -30 0 -48 6 -60 20
-14 17 -29 20 -96 20 -79 0 -129 11 -142 32 -9 14 -76 38 -106 38 -13 0 -23 6
-23 14 0 7 -27 23 -60 36 -33 12 -60 27 -60 32 0 5 -13 14 -30 19 -30 11 -31
14 -34 84 -1 13 -9 21 -24 23 -14 2 -22 10 -22 23 0 10 -12 29 -26 42 -15 12
-32 27 -38 33 -21 20 -50 24 -70 9 -15 -12 -17 -17 -7 -29 7 -8 11 -35 9 -63
-3 -55 -24 -67 -58 -33 -15 15 -31 20 -60 18 -22 -1 -40 -6 -40 -10 0 -4 -16
-8 -35 -8 -19 0 -35 4 -35 9 0 6 -15 11 -32 13 l-33 3 -3 84 c-2 73 -5 84 -22
88 -11 3 -20 13 -20 23 0 10 -7 20 -15 24 -8 3 -15 16 -15 29 0 27 -28 37
-105 37 -68 0 -75 -6 -75 -59 1 -36 7 -53 30 -81 17 -19 30 -42 30 -52 0 -10
9 -26 21 -36 32 -26 51 -71 44 -100 l-6 -25 -91 7 c-50 3 -118 6 -150 6 -51 0
-59 2 -56 17 2 10 16 24 31 31 21 10 27 20 27 46 0 17 -5 37 -12 44 -7 7 -9
12 -5 12 3 0 -5 11 -18 25 -14 13 -25 30 -25 38 0 31 -109 36 -136 6 -15 -16
-16 -24 -6 -39 7 -11 12 -44 12 -73 0 -61 8 -71 83 -106 26 -13 47 -26 47 -31
0 -10 -71 -22 -135 -24 -37 -1 -50 3 -52 14 -1 8 -5 45 -8 82 -5 50 -10 67
-23 70 -11 3 -23 25 -32 58 -10 39 -20 54 -38 61 -16 6 -22 15 -18 25 4 10 -6
22 -29 35 -19 12 -33 25 -30 29 11 17 -56 26 -102 14 -33 -9 -29 -46 7 -87 17
-20 30 -46 30 -61 0 -15 7 -29 15 -32 8 -4 15 -12 15 -20 0 -8 6 -14 14 -14 8
0 17 -13 21 -29 3 -17 13 -31 22 -33 15 -3 43 -67 43 -101 0 -10 5 -15 10 -12
13 8 40 -12 40 -29 0 -7 -24 -20 -52 -31 -29 -10 -58 -22 -64 -27 -7 -5 -38
-13 -69 -18 -32 -5 -65 -16 -75 -25 -21 -19 -40 -19 -40 0 0 8 -9 15 -21 15
-15 0 -26 13 -42 50 -12 27 -30 52 -39 56 -10 3 -21 16 -24 30 -6 22 -11 24
-64 24 -56 0 -59 1 -62 27 -2 18 -10 29 -23 32 -27 5 -35 19 -35 64 0 29 4 37
18 37 28 0 72 42 72 68 0 18 6 22 34 22 30 0 35 -4 50 -42 10 -28 27 -49 47
-60 41 -24 79 -24 79 0 0 10 6 27 14 38 21 30 -2 98 -35 102 -13 2 -32 10 -42
17 -16 11 -26 10 -65 -11 -72 -39 -98 -29 -109 40 -3 21 -11 36 -19 36 -8 0
-14 6 -14 14 0 8 -6 16 -14 19 -8 3 -16 18 -18 34 -2 22 -9 29 -30 31 -29 3
-43 31 -36 69 5 29 104 31 130 4 10 -12 26 -21 34 -21 8 0 25 -6 37 -14 19
-13 27 -13 61 3 21 10 41 23 45 30 13 20 0 73 -20 78 -12 3 -22 22 -30 56 -7
29 -17 60 -23 69 -7 12 -7 29 0 56 9 35 8 41 -13 60 -18 16 -23 31 -23 65 l0
45 68 7 c37 3 76 7 87 8 11 1 24 12 30 24 5 12 17 24 27 26 23 6 23 35 1 59
-15 17 -15 20 12 48 58 60 87 31 78 -78 l-6 -71 37 -15 c20 -8 36 -21 36 -28
0 -7 10 -18 22 -23 13 -6 29 -22 36 -37 7 -16 20 -28 28 -28 8 0 20 -13 25
-30 10 -28 15 -30 60 -30 l49 0 0 50 c0 39 -4 52 -20 60 -11 6 -20 20 -20 31
0 10 -15 34 -33 52 -39 38 -47 56 -36 78 7 14 21 16 94 11 l85 -5 0 68 c0 56
-2 66 -15 61 -10 -4 -19 3 -27 19 -6 13 -23 28 -38 33 -35 13 -50 69 -50 191
0 85 -1 91 -20 91 -13 0 -24 10 -30 26 -6 14 -19 28 -29 31 -14 3 -20 17 -24
56 -5 36 -13 57 -31 71 -13 12 -26 29 -29 39 -4 11 -17 17 -34 17 -17 0 -40
12 -60 30 -18 17 -41 30 -52 30 -11 0 -28 11 -39 25 -11 14 -25 25 -30 25 -16
0 -82 41 -82 50 0 4 -11 11 -24 14 -13 3 -31 17 -40 31 -10 16 -26 25 -41 25
-15 0 -25 6 -25 14 0 9 -22 21 -57 31 -32 8 -76 24 -98 34 -22 11 -89 27 -150
37 -64 10 -113 23 -118 31 -4 7 -21 13 -37 13 -16 0 -32 5 -35 10 -3 6 -28 10
-54 10 -31 0 -53 5 -61 15 -17 21 -232 22 -252 1 -8 -7 -61 -21 -119 -31 -57
-10 -113 -24 -124 -31 -10 -8 -41 -17 -68 -20 -32 -5 -51 -13 -58 -25 -10 -20
-45 -26 -51 -10 -1 5 -31 13 -66 17 -59 6 -64 5 -69 -15 -3 -11 -8 -19 -12
-16 -4 2 -5 -10 -3 -26 4 -25 0 -31 -17 -36 -12 -3 -28 -18 -37 -34 -13 -25
-20 -29 -59 -29 -24 0 -46 4 -50 9 -3 6 -20 17 -38 26 -26 14 -71 17 -260 20
-205 2 -230 1 -249 -15 -19 -15 -21 -21 -10 -44 6 -15 23 -28 39 -32 15 -4 34
-11 40 -17 7 -5 61 -13 120 -18 121 -9 173 -18 173 -29 0 -4 14 -13 30 -19 17
-5 30 -17 30 -25 0 -8 -13 -20 -30 -28 -17 -7 -30 -21 -30 -30 0 -11 -10 -20
-26 -24 -16 -4 -30 -17 -36 -34 -5 -16 -18 -30 -29 -33 -11 -3 -23 -15 -26
-26 -3 -11 -15 -21 -27 -23 -14 -2 -24 -14 -31 -35 -5 -18 -13 -33 -17 -33 -4
0 -8 -6 -8 -14 0 -7 -9 -16 -20 -19 -11 -3 -24 -17 -30 -32 -6 -15 -19 -29
-30 -32 -11 -3 -23 -16 -26 -28 -3 -13 -19 -29 -35 -35 -17 -7 -29 -20 -29
-30 0 -11 -12 -22 -29 -28 -17 -6 -31 -20 -35 -35 -3 -13 -15 -27 -26 -30 -11
-3 -24 -16 -29 -30 -5 -13 -19 -27 -30 -30 -12 -3 -21 -13 -21 -24 0 -22 -52
-79 -81 -88 -10 -4 -19 -12 -19 -20 0 -7 -7 -15 -15 -19 -8 -3 -15 -15 -15
-26 0 -15 -11 -26 -35 -36 -27 -11 -35 -20 -35 -39 0 -31 -27 -75 -46 -75 -8
0 -14 -9 -14 -20 0 -13 -12 -28 -30 -38 -16 -9 -32 -27 -35 -40 -10 -40 -30
-18 -38 44 -5 32 -6 185 -2 339 3 154 5 326 5 382 -1 85 2 109 20 150 20 43
23 74 32 287 5 146 6 242 0 248 -12 12 -211 18 -237 7z m171 -18 c-3 -4 5 -6
18 -4 19 4 24 0 30 -27 9 -48 7 -132 -3 -126 -5 4 -7 -3 -4 -14 3 -11 -2 -38
-11 -60 -12 -29 -12 -39 -3 -37 20 4 21 -106 1 -145 -10 -20 -19 -66 -22 -120
-2 -48 -9 -85 -13 -82 -5 3 -4 -7 1 -21 18 -49 7 -271 -13 -258 -6 3 -7 2 -4
-4 4 -6 3 -49 -1 -96 -4 -47 -5 -84 -2 -82 4 2 7 -55 7 -128 0 -73 6 -170 13
-217 7 -47 13 -92 13 -101 2 -28 47 -10 54 21 3 18 13 30 27 34 13 3 29 21 40
46 10 23 25 44 35 47 21 8 31 23 31 46 0 11 12 32 28 47 46 48 61 68 55 74 -3
3 6 11 21 17 15 7 25 18 22 25 -3 7 8 17 24 22 21 8 29 18 32 39 2 20 9 29 26
31 16 3 22 10 22 28 0 17 7 25 25 30 15 4 28 16 31 29 3 12 19 33 36 45 17 13
27 17 23 10 -5 -8 -4 -11 3 -7 5 4 8 16 5 27 -3 12 0 20 7 20 17 0 60 42 60
59 0 7 6 11 14 8 10 -4 13 -1 9 9 -4 10 2 17 14 20 12 3 26 17 32 31 8 16 17
23 27 19 8 -3 12 -2 9 4 -3 6 -1 10 4 10 6 0 11 -11 11 -25 0 -23 -10 -30 -34
-26 -14 3 -36 -21 -36 -39 0 -11 -10 -20 -25 -24 -18 -5 -27 -15 -32 -36 -3
-17 -9 -30 -13 -30 -5 0 -22 -14 -39 -31 -17 -17 -38 -29 -45 -26 -10 4 -12 0
-9 -14 3 -11 -1 -21 -10 -25 -8 -3 -18 -16 -21 -29 -3 -13 -15 -27 -27 -30
-14 -5 -19 -13 -16 -26 3 -10 1 -19 -5 -19 -5 0 -6 -4 -3 -10 3 -5 -2 -10 -13
-10 -10 0 -24 -11 -30 -24 -6 -14 -21 -26 -34 -28 -17 -2 -24 -11 -26 -31 -3
-20 -8 -27 -18 -23 -9 3 -12 1 -9 -4 3 -6 1 -10 -6 -10 -19 0 -38 -32 -39 -64
0 -23 -3 -27 -20 -23 -11 3 -18 1 -14 -4 3 -5 1 -9 -4 -9 -6 0 -15 -13 -21
-30 -5 -16 -17 -30 -25 -30 -13 0 -29 -30 -46 -85 -3 -11 -15 -20 -25 -20 -14
0 -21 -8 -23 -27 -5 -41 -27 -54 -57 -34 -14 9 -25 23 -25 31 0 24 -1 28 -16
63 -26 62 -31 664 -5 648 11 -7 12 129 1 158 -11 29 5 100 21 90 4 -2 5 4 2
14 -2 10 3 60 12 111 10 57 13 114 10 149 -4 31 -2 96 4 145 11 93 8 117 -16
117 -8 0 -12 4 -9 8 2 4 -4 8 -14 8 -10 0 -16 -4 -13 -10 3 -5 -5 -7 -19 -4
-19 3 -25 1 -24 -11 1 -9 -8 -17 -21 -19 -20 -3 -22 -10 -25 -70 -2 -38 -7
-66 -13 -65 -6 1 -10 -25 -10 -62 0 -35 3 -61 8 -58 4 2 7 -3 7 -12 0 -9 -4
-14 -9 -11 -5 4 -7 -4 -3 -16 3 -11 1 -19 -4 -16 -5 4 -9 -11 -9 -32 0 -21 3
-36 8 -33 4 2 7 -3 7 -12 0 -9 -4 -14 -9 -11 -4 3 -6 -6 -3 -21 3 -14 1 -23
-4 -20 -5 3 -7 -17 -5 -45 2 -32 -1 -48 -7 -44 -9 5 2 -66 13 -84 2 -4 -3 -16
-11 -26 -9 -10 -12 -12 -8 -4 4 8 4 12 0 9 -3 -3 -7 -226 -9 -496 -2 -479 -2
-490 17 -485 15 4 18 1 13 -12 -4 -11 -3 -15 4 -11 7 5 9 -8 7 -37 -2 -36 -6
-43 -23 -42 -18 0 -20 -5 -17 -29 4 -23 2 -28 -8 -22 -8 5 -11 4 -7 -2 3 -5 2
-26 -3 -46 -4 -21 -4 -35 1 -31 5 3 9 -4 9 -14 0 -25 -25 -46 -45 -38 -9 3
-13 2 -10 -4 3 -6 -3 -10 -15 -10 -13 0 -19 4 -14 12 4 6 3 8 -3 5 -5 -3 -26
-2 -46 4 -29 8 -38 16 -45 42 -9 36 -40 49 -54 23 -5 -9 -16 -16 -23 -16 -8 0
-15 -7 -15 -15 0 -9 -8 -19 -17 -22 -10 -4 -22 -12 -26 -20 -4 -7 -17 -13 -27
-13 -11 0 -20 -4 -20 -8 0 -4 -26 -13 -57 -20 -32 -7 -71 -19 -87 -27 -25 -14
-27 -14 -16 0 7 8 19 15 26 15 8 0 14 7 14 15 0 19 31 35 69 35 40 0 73 13
104 43 l27 24 2 415 c2 229 0 414 -4 411 -7 -4 -15 355 -10 442 9 172 9 384 0
379 -7 -5 -8 28 -3 102 9 143 24 171 66 123 10 -11 23 -18 28 -14 15 9 14
-100 0 -127 -8 -15 -8 -19 1 -13 9 5 11 -12 8 -68 -2 -41 0 -73 5 -70 4 2 7
-45 7 -106 0 -62 -4 -112 -10 -116 -5 -3 -10 -15 -10 -26 0 -11 -4 -18 -8 -15
-4 2 -6 -10 -4 -28 2 -18 -1 -49 -6 -70 -6 -21 -7 -34 -1 -31 5 4 9 -7 9 -24
0 -16 5 -33 10 -36 6 -3 10 -26 10 -51 0 -32 -3 -43 -12 -38 -6 4 -8 3 -5 -3
3 -5 2 -26 -3 -46 -5 -24 -4 -39 3 -44 6 -4 7 -1 2 8 -6 11 -5 11 4 3 9 -8 11
-46 9 -127 -2 -63 0 -113 3 -111 9 5 21 -336 17 -478 -1 -64 0 -114 5 -111 4
2 7 -14 7 -37 0 -29 -4 -39 -12 -34 -7 4 -8 3 -4 -4 3 -6 7 -27 8 -47 1 -20 4
-31 8 -25 4 7 29 10 59 9 l53 -3 1 96 c1 54 -2 94 -7 91 -5 -3 -7 8 -4 25 2
17 1 29 -4 26 -11 -7 -10 80 1 91 12 12 19 255 9 248 -5 -2 -8 8 -8 22 0 14 3
24 8 22 4 -3 7 8 7 23 0 15 -4 26 -9 22 -5 -3 -7 2 -3 11 3 9 1 19 -5 23 -7 5
-8 2 -3 -6 5 -8 4 -11 -2 -7 -7 4 -10 58 -9 144 1 125 3 138 18 137 10 -1 16
2 13 6 -3 5 -7 85 -8 179 -2 94 -7 174 -12 178 -4 5 -5 2 0 -6 5 -9 4 -12 -3
-7 -18 11 -15 83 3 90 12 4 15 25 15 96 0 50 3 89 8 87 4 -3 7 21 7 53 0 32
-3 56 -6 54 -9 -5 -21 44 -14 56 3 5 0 12 -6 16 -8 5 -9 3 -4 -6 5 -9 4 -11
-3 -6 -7 4 -12 18 -12 32 0 18 5 24 17 22 14 -2 17 3 15 27 -3 27 0 30 30 32
18 2 34 7 36 13 10 28 37 42 78 38 23 -1 40 0 37 5 -2 4 12 7 32 7 20 0 34 -4
31 -9z m2022 -51 c154 -1 183 -4 194 -18 11 -13 11 -14 -1 -7 -9 5 -12 4 -7
-3 4 -6 13 -9 20 -6 8 3 17 0 22 -7 5 -8 3 -10 -7 -4 -8 5 -11 4 -6 -1 4 -4
24 -7 44 -5 21 2 33 -1 29 -7 -4 -6 2 -8 14 -5 26 7 72 -5 65 -17 -3 -6 1 -7
10 -4 8 4 21 2 28 -4 12 -10 55 -20 112 -25 17 -2 36 -7 43 -11 7 -4 17 -4 23
-1 6 4 13 -2 16 -14 3 -13 14 -21 27 -21 11 0 34 -14 50 -30 22 -22 25 -30 13
-30 -9 0 -20 7 -24 15 -19 34 -133 72 -133 45 0 -22 2 -25 17 -22 8 2 12 -1 9
-6 -4 -6 3 -8 16 -4 15 4 19 2 13 -7 -4 -8 -20 -11 -36 -9 -15 3 -26 1 -23 -4
3 -4 -18 -8 -46 -8 -28 0 -49 3 -47 8 3 4 -9 7 -25 7 -18 0 -33 6 -36 14 -3
10 1 12 16 8 18 -4 20 -2 12 13 -6 11 -27 21 -51 25 -57 10 -41 18 31 16 36
-1 60 3 60 9 0 5 -23 10 -51 10 -27 0 -48 4 -45 8 3 5 -9 6 -26 4 -19 -3 -28
-1 -25 5 4 6 -4 8 -20 5 -14 -3 -23 -1 -20 4 3 5 -8 9 -23 9 -15 0 -26 -4 -23
-8 3 -5 -31 -7 -75 -5 -44 2 -78 0 -75 -4 2 -5 -37 -8 -87 -8 -50 0 -89 3 -87
8 4 5 -127 2 -251 -7 -21 -2 -3 -21 19 -21 10 0 19 -7 19 -15 0 -8 -8 -15 -17
-15 -10 0 -27 -12 -38 -26 -19 -24 -26 -26 -99 -25 -42 0 -82 4 -88 7 -7 4 -8
2 -4 -4 5 -9 -8 -12 -44 -12 -44 0 -51 3 -48 18 2 9 13 18 26 20 33 5 27 22
-8 22 -23 0 -33 -6 -40 -24 -5 -15 -26 -30 -54 -42 -26 -11 -49 -27 -52 -36
-7 -22 -54 -25 -54 -3 0 8 9 15 20 15 11 0 20 5 20 10 0 6 11 10 24 10 30 0
41 14 55 68 7 23 16 40 21 37 20 -12 169 13 194 33 14 11 47 23 73 26 60 9
115 27 128 43 8 10 107 23 126 16 4 -2 88 -3 187 -3z m112 -143 c14 -9 43 -17
67 -17 23 0 45 -5 49 -12 5 -7 3 -8 -6 -3 -8 5 -11 4 -6 -3 4 -6 14 -8 22 -5
9 3 28 -4 44 -16 16 -11 36 -21 45 -21 8 0 23 -4 33 -9 9 -5 25 -12 35 -15 10
-3 17 -13 15 -23 -3 -14 4 -17 41 -14 25 1 41 -1 37 -7 -3 -5 5 -7 19 -4 23 4
25 1 25 -36 0 -36 -3 -41 -30 -51 -21 -7 -30 -17 -30 -32 0 -16 -5 -20 -20
-16 -13 3 -18 1 -13 -6 4 -6 -2 -8 -15 -5 -12 4 -20 2 -16 -3 3 -5 -5 -9 -16
-9 -14 0 -20 5 -17 13 3 7 -4 12 -18 12 -13 0 -21 -4 -18 -9 3 -4 -13 -7 -35
-4 -22 2 -38 0 -36 -4 3 -5 -2 -8 -11 -8 -9 0 -14 3 -11 8 2 4 -14 6 -36 4
-28 -3 -38 -1 -34 7 4 6 2 9 -7 5 -10 -4 -16 5 -21 31 -4 19 -5 39 -2 44 3 5
-2 15 -12 22 -16 13 -16 13 -2 -6 14 -19 14 -19 -2 -6 -10 7 -18 26 -18 42 0
24 -4 28 -32 31 -21 2 -33 8 -33 18 0 12 13 15 60 14 86 -1 131 -15 122 -38
-3 -7 12 -11 44 -11 45 0 47 1 32 18 -9 9 -21 17 -28 17 -7 0 -20 10 -31 23
l-19 22 25 -20 25 -20 -17 21 c-13 15 -26 19 -54 16 -28 -3 -35 -1 -29 8 5 9
4 11 -3 6 -6 -4 -29 2 -51 14 -29 14 -59 20 -111 20 -82 0 -103 -8 -146 -58
-31 -36 -34 -37 -110 -39 -44 -1 -143 -6 -221 -10 -95 -5 -139 -5 -132 2 23
23 73 31 136 23 39 -6 69 -5 76 0 7 5 27 13 44 17 18 3 39 16 47 27 9 12 21
18 30 15 11 -4 13 -1 9 10 -5 12 -3 14 7 8 9 -5 11 -4 6 4 -21 34 -1 38 166
37 136 -2 168 -5 188 -19z m-1095 -87 c3 -5 15 -10 26 -10 12 0 19 -7 19 -20
0 -16 7 -20 35 -20 19 0 35 -5 35 -11 0 -5 -4 -7 -10 -4 -6 4 -7 -1 -3 -11 5
-14 3 -16 -11 -11 -10 4 -15 3 -11 -3 3 -6 2 -10 -4 -10 -6 0 -26 -14 -46 -31
-23 -21 -42 -29 -55 -26 -11 3 -23 0 -27 -5 -3 -7 -1 -8 5 -4 17 10 15 -9 -2
-23 -8 -6 -19 -24 -26 -40 -6 -16 -22 -34 -36 -41 -13 -8 -24 -22 -24 -32 0
-11 -7 -18 -20 -18 -11 0 -23 -7 -26 -15 -4 -8 -9 -13 -14 -10 -4 2 -5 -6 -3
-20 4 -20 2 -23 -15 -19 -15 4 -22 -1 -30 -25 -8 -23 -17 -31 -35 -31 -20 0
-23 4 -19 25 3 16 11 25 23 25 12 0 23 10 29 25 5 14 21 30 35 35 16 6 25 17
25 31 0 14 10 24 29 32 16 6 32 19 35 30 2 10 14 21 25 24 11 3 23 15 27 27 7
24 43 66 57 66 5 0 17 10 27 23 19 23 23 6 5 -23 -7 -13 -6 -13 7 -2 15 12 16
57 3 71 -3 2 -46 6 -97 8 -51 2 -104 6 -118 10 -14 3 -29 7 -34 7 -23 2 -14
25 11 29 58 9 202 7 208 -3z m1741 -77 c-3 -8 -1 -11 4 -8 6 3 10 1 10 -5 0
-15 61 -50 74 -43 6 4 2 -4 -9 -18 -11 -13 -21 -26 -22 -28 -5 -8 -196 -31
-206 -24 -6 4 -7 1 -2 -7 6 -10 4 -12 -8 -7 -9 3 -21 -1 -29 -11 -12 -16 -11
-16 7 -2 18 14 19 14 6 -2 -19 -25 -77 -35 -166 -29 l-30 3 30 13 c17 8 40 14
52 15 14 0 24 9 31 29 9 26 17 30 59 36 101 13 113 16 113 31 0 8 6 30 14 48
12 29 17 32 45 28 23 -3 31 -9 27 -19z m-1277 -49 c17 -6 5 -19 -17 -19 -9 0
-22 -11 -29 -25 -7 -14 -20 -25 -30 -25 -28 -1 -42 -13 -36 -34 5 -19 -28 -47
-41 -34 -3 3 -9 -8 -12 -26 -6 -27 -11 -32 -33 -29 -21 2 -25 -1 -23 -16 2
-10 -1 -16 -6 -13 -4 4 -8 -4 -8 -16 1 -17 -4 -21 -21 -19 -14 2 -23 -4 -28
-18 -3 -11 -11 -18 -16 -15 -5 3 -6 -1 -2 -10 5 -14 0 -16 -23 -14 -20 3 -28
0 -26 -10 4 -19 -19 -43 -34 -37 -8 3 -13 2 -11 -2 1 -4 -1 -8 -5 -10 -4 -1
-19 -14 -33 -28 -14 -14 -29 -23 -34 -19 -5 3 -13 0 -17 -6 -5 -8 -3 -9 6 -4
9 6 11 4 6 -4 -5 -7 -14 -10 -21 -7 -7 2 -12 -3 -11 -12 0 -10 -6 -17 -16 -17
-9 0 -20 -4 -25 -9 -5 -5 -2 -6 7 -2 8 4 6 1 -4 -8 -10 -8 -22 -13 -27 -11 -4
3 -10 -3 -14 -14 -3 -11 -19 -22 -35 -26 -17 -4 -30 -11 -30 -16 0 -6 -4 -8
-9 -5 -5 4 -7 -4 -4 -15 5 -19 3 -21 -25 -17 -17 2 -31 2 -30 -1 3 -34 -5 -50
-32 -60 -23 -7 -30 -16 -30 -36 0 -20 -6 -27 -30 -31 -23 -5 -30 -12 -30 -30
0 -15 -6 -24 -15 -24 -8 0 -15 -7 -15 -15 0 -9 -6 -18 -14 -21 -8 -3 -17 -15
-20 -27 -3 -12 -19 -28 -36 -35 -21 -10 -30 -21 -30 -38 0 -19 -5 -24 -25 -24
-20 0 -25 5 -25 26 0 14 4 23 9 20 5 -4 7 2 4 13 -3 14 3 21 26 29 23 8 31 17
31 36 0 14 5 28 12 32 7 5 8 3 3 -6 -5 -8 -4 -11 3 -6 6 4 8 14 5 22 -4 11 0
15 12 12 13 -2 18 5 21 25 4 35 23 60 41 53 8 -4 11 -1 8 5 -4 6 1 9 11 7 15
-2 18 2 16 25 -3 25 5 32 30 28 4 0 15 15 23 35 12 30 19 36 39 32 19 -4 22
-1 18 14 -6 23 15 49 33 41 9 -3 17 5 21 21 3 14 10 23 15 20 5 -3 6 3 2 12
-4 10 -2 15 4 11 5 -3 9 4 9 16 -1 16 5 22 21 21 12 0 20 3 17 7 -8 14 8 60
20 56 20 -8 43 22 38 49 -4 21 -9 25 -29 21 -24 -4 -24 -3 7 24 17 16 36 27
41 24 5 -3 6 0 3 8 -7 19 51 61 72 53 8 -3 12 -2 9 4 -3 6 0 10 8 10 8 0 20 6
27 14 6 8 21 16 33 18 13 2 23 12 27 27 3 16 15 27 32 32 24 6 26 5 19 -15 -4
-11 -20 -27 -34 -34 -15 -7 -27 -21 -27 -30 0 -12 -9 -18 -26 -20 -14 -1 -37
-11 -51 -22 -31 -25 -47 -26 -39 -3 4 10 3 14 -1 9 -4 -4 -8 -17 -8 -29 -1
-19 5 -22 41 -22 32 0 40 3 36 14 -4 10 -1 13 12 8 11 -5 15 -3 10 5 -5 7 0 9
14 6 12 -4 25 -1 29 4 4 7 1 8 -7 3 -9 -6 -11 -4 -5 4 4 7 18 11 31 8 13 -2
22 -1 20 2 -10 15 23 39 72 51 40 11 52 18 52 33 0 12 11 23 30 30 17 6 30 15
30 18 0 4 7 15 16 23 14 15 36 15 83 0z m1907 -162 c-3 -5 16 -5 42 -1 115 19
209 5 200 -29 -4 -15 0 -17 30 -14 26 4 33 1 27 -8 -5 -9 -4 -11 4 -6 17 11
61 -2 61 -18 0 -19 -32 -26 -134 -26 l-88 0 4 25 c3 15 1 22 -5 18 -6 -4 -8 2
-5 13 5 18 -1 19 -94 16 -79 -3 -98 -1 -98 11 0 7 3 17 7 20 9 10 55 9 49 -1z
m-580 -197 c19 -18 34 -39 34 -44 0 -10 -40 -37 -51 -34 -3 1 -5 -8 -5 -20 1
-20 -5 -22 -56 -25 -56 -3 -58 -2 -58 23 0 14 -4 25 -10 25 -5 0 -10 8 -10 18
1 18 22 52 34 52 4 0 16 9 28 20 31 29 56 25 94 -15z m-280 -83 c-2 -4 13 -6
35 -4 34 4 39 1 39 -16 0 -12 7 -25 16 -30 11 -6 15 -18 12 -34 -4 -21 -2 -24
15 -20 16 4 19 1 15 -15 -4 -16 -1 -19 12 -16 10 3 27 -4 39 -16 12 -12 30
-21 42 -21 14 0 19 -5 17 -17 -2 -14 -15 -19 -51 -21 -46 -3 -47 -3 -47 27 0
27 -3 31 -29 31 -16 0 -31 6 -34 13 -7 17 -123 37 -136 24 -5 -5 -7 -16 -4
-24 5 -13 -1 -15 -30 -11 -19 2 -33 0 -31 -4 3 -4 -4 -8 -16 -8 -12 0 -18 4
-15 10 3 6 -1 7 -9 4 -13 -5 -16 2 -16 39 0 48 9 60 48 62 13 0 28 8 33 18 6
10 22 17 39 17 17 0 30 5 30 10 0 6 7 10 16 10 8 0 13 -3 10 -8z m-1213 -194
c4 -46 7 -106 7 -133 0 -54 12 -75 42 -75 10 0 18 -7 18 -15 0 -24 51 -19 57
5 3 10 14 22 24 25 23 7 79 -15 79 -31 0 -19 44 -51 81 -58 19 -3 50 -1 67 5
28 9 35 8 61 -13 16 -12 34 -35 39 -49 14 -38 61 -78 100 -85 18 -4 39 -15 45
-25 7 -11 17 -19 23 -19 10 0 21 -19 47 -80 6 -14 16 -32 23 -40 6 -8 17 -38
23 -66 9 -38 19 -54 37 -62 13 -7 24 -18 24 -27 0 -10 10 -15 30 -15 24 0 31
-5 36 -27 4 -16 16 -34 26 -41 10 -7 18 -20 18 -28 0 -8 5 -14 10 -14 6 0 10
-11 10 -25 0 -31 9 -35 97 -43 l68 -7 3 -44 c3 -44 -22 -121 -40 -121 -4 0 -8
-7 -8 -15 0 -8 -9 -15 -21 -15 -11 0 -33 -15 -50 -32 -29 -33 -30 -33 -124
-33 -52 0 -95 4 -95 9 0 4 -15 6 -33 4 -20 -2 -39 2 -46 9 -18 20 -45 15 -56
-9 -6 -13 -20 -27 -32 -33 -26 -11 -31 -35 -8 -35 9 0 26 -10 38 -23 41 -42
56 -49 114 -53 38 -4 62 -11 71 -22 10 -13 34 -18 100 -22 84 -5 87 -6 90 -30
2 -14 9 -29 16 -35 18 -14 40 -79 33 -98 -3 -8 -23 -18 -44 -21 -24 -5 -46
-16 -58 -33 -11 -14 -35 -40 -52 -57 -18 -18 -33 -40 -33 -49 0 -10 -11 -22
-25 -27 -13 -5 -27 -20 -31 -34 -3 -14 -9 -25 -13 -24 -25 3 -41 -5 -47 -24
-4 -13 -17 -32 -29 -44 -21 -20 -55 -111 -55 -149 0 -11 -5 -15 -14 -12 -16 6
-40 -45 -28 -59 4 -4 1 -4 -6 0 -9 5 -15 1 -19 -12 -3 -11 -15 -23 -28 -26
-23 -6 -42 -31 -66 -89 -7 -18 -21 -30 -39 -34 -19 -3 -30 -13 -34 -28 -3 -13
-15 -27 -27 -30 -11 -4 -24 -18 -30 -32 -5 -14 -18 -27 -28 -30 -12 -3 -24
-21 -33 -50 -7 -25 -20 -49 -29 -54 -9 -5 -20 -20 -23 -34 -4 -14 -16 -27 -29
-31 -13 -3 -30 -22 -41 -46 l-19 -41 -18 24 c-16 21 -19 45 -19 187 0 170 -11
222 -46 222 -13 0 -15 9 -9 53 4 28 12 57 18 62 33 29 36 54 35 297 -1 281 10
538 24 555 6 7 6 19 0 30 -19 36 -23 99 -21 277 4 235 2 313 -10 334 -6 11
-22 17 -44 17 -19 0 -33 -3 -30 -7 2 -5 0 -8 -6 -8 -23 0 -32 -105 -23 -285 5
-120 5 -192 -2 -215 -6 -21 -11 -185 -12 -410 -2 -776 -2 -754 -15 -758 -5 -2
-9 -20 -9 -39 0 -20 -5 -53 -12 -74 -9 -30 -8 -58 2 -124 11 -71 11 -89 0
-110 -11 -20 -11 -33 -1 -65 6 -22 16 -40 21 -40 11 0 13 -43 4 -77 -7 -25
-39 -31 -47 -10 -4 11 -56 15 -230 21 -124 3 -232 3 -241 0 -16 -6 -21 -41
-10 -79 6 -22 54 -41 129 -52 24 -3 46 -11 49 -18 2 -7 29 -16 60 -19 31 -4
58 -11 61 -16 10 -16 -8 -40 -30 -40 -13 0 -29 -10 -39 -24 -8 -14 -25 -27
-36 -31 -13 -4 -20 -15 -20 -30 0 -18 -7 -26 -24 -31 -14 -3 -27 -15 -30 -30
-4 -13 -16 -26 -29 -29 -13 -4 -30 -23 -42 -48 -11 -23 -29 -46 -40 -52 -32
-16 -85 -67 -85 -81 0 -13 -41 -36 -87 -49 -13 -3 -23 -13 -23 -21 0 -8 -11
-19 -24 -25 -13 -6 -34 -33 -46 -59 -15 -33 -31 -50 -46 -54 -13 -4 -24 -13
-24 -21 0 -9 -11 -20 -24 -25 -18 -6 -27 -20 -32 -45 -3 -20 -15 -42 -25 -48
-11 -7 -19 -17 -19 -24 0 -7 -4 -13 -9 -13 -5 0 -12 -8 -15 -18 -4 -11 -18
-25 -31 -32 -14 -7 -25 -19 -25 -27 0 -7 -11 -19 -25 -25 -14 -6 -25 -17 -25
-25 0 -7 -16 -29 -35 -49 -27 -26 -35 -43 -35 -69 0 -32 -3 -35 -29 -35 -23 0
-30 -5 -33 -22 -6 -42 -26 -30 -32 19 -7 59 -17 600 -17 903 0 933 1 1169 7
1183 3 10 11 17 17 17 28 0 140 65 150 87 13 30 79 63 124 63 60 0 125 21 131
42 2 11 15 23 27 28 37 14 49 94 41 277 -8 193 -14 243 -31 243 -7 0 -18 26
-26 62 -8 35 -22 71 -31 80 -18 18 -78 38 -115 38 -32 0 -38 18 -14 44 12 13
25 40 28 60 4 27 12 40 29 47 13 4 24 15 24 22 0 8 15 30 33 49 47 52 57 66
57 78 0 5 6 10 14 10 7 0 21 15 30 34 9 18 25 36 36 39 12 3 20 14 20 26 0 13
11 26 30 36 17 9 30 22 30 30 0 8 14 21 30 30 17 9 30 20 30 25 0 6 19 30 43
54 23 23 58 60 78 82 48 51 97 94 107 94 5 0 32 24 60 54 27 30 69 66 92 81
22 14 43 32 47 40 3 8 14 15 24 15 10 0 25 13 34 30 9 17 21 30 29 30 7 0 25
11 40 25 15 14 31 25 35 25 4 0 11 -37 14 -82z m-803 -117 c0 -12 -9 -21 -25
-25 -17 -4 -25 -12 -23 -24 2 -11 -8 -22 -29 -31 -23 -10 -33 -22 -38 -48 -3
-18 -3 -38 0 -43 3 -6 1 -10 -5 -10 -6 0 -8 -4 -5 -10 3 -5 1 -10 -5 -10 -6 0
-8 -5 -5 -10 3 -6 0 -13 -8 -16 -8 -3 -18 -21 -21 -39 -5 -25 -13 -35 -29 -37
-14 -2 -23 -11 -25 -26 -2 -12 -12 -27 -23 -32 -10 -6 -19 -17 -19 -25 0 -13
-10 -18 -30 -17 -3 0 -4 -33 -2 -75 2 -45 0 -73 -6 -69 -5 3 -7 -5 -4 -19 3
-20 10 -25 33 -25 16 0 32 7 38 18 6 9 11 13 11 8 0 -11 -78 -85 -84 -79 -2 2
-1 -8 2 -23 4 -23 2 -26 -12 -21 -11 5 -15 3 -10 -5 5 -8 2 -9 -9 -5 -9 3 -16
3 -16 -1 3 -20 -3 -40 -17 -58 -8 -10 -12 -13 -8 -5 4 9 3 12 -4 7 -6 -4 -8
-14 -5 -23 5 -12 2 -15 -10 -10 -21 8 -32 -10 -28 -45 3 -35 -12 -42 -54 -27
-38 14 -46 29 -16 29 16 0 24 13 37 60 9 33 22 60 29 60 8 0 15 21 20 55 5 46
10 56 29 61 20 5 25 16 35 74 6 38 11 85 11 105 0 28 6 42 25 57 14 11 25 28
25 39 0 11 7 19 16 19 8 0 13 4 9 9 -3 5 6 18 20 29 14 11 25 25 25 30 0 6 11
22 25 36 14 14 25 36 25 50 0 18 13 34 48 60 26 19 54 46 61 60 8 14 18 23 22
20 5 -3 6 2 3 10 -4 11 0 16 10 16 9 0 16 -8 16 -19z m-1396 -877 c23 -9 10
-43 -32 -82 -23 -22 -42 -46 -42 -55 0 -8 -6 -20 -13 -26 -8 -6 -20 -29 -27
-51 -16 -47 -22 -50 -36 -12 -14 40 -7 62 22 62 34 0 33 37 -1 46 -18 4 -25
13 -25 30 0 13 -10 32 -22 44 -12 11 -16 20 -10 20 7 0 12 6 12 14 0 8 6 17
13 20 13 6 140 -2 161 -10z m307 -154 c3 -19 11 -45 17 -57 15 -27 15 -66 1
-80 -6 -6 -14 -43 -17 -81 -4 -57 -8 -71 -23 -75 -23 -6 -41 15 -37 45 2 17
-1 22 -14 20 -13 -2 -18 8 -23 43 -4 24 -5 52 -1 60 3 9 2 13 -4 10 -12 -7
-14 137 -3 149 4 4 28 6 53 4 43 -3 45 -5 51 -38z m665 11 c-4 -5 4 -7 16 -3
14 3 19 1 14 -6 -4 -8 -2 -10 7 -6 9 3 22 -4 30 -16 9 -14 20 -19 28 -15 9 6
11 1 7 -19 -3 -14 -1 -29 5 -33 6 -4 7 -1 2 8 -6 11 -5 12 6 1 17 -15 0 -48
-24 -46 -9 1 -13 -4 -10 -11 7 -19 -15 -55 -32 -55 -8 0 -15 -6 -15 -13 0 -21
-37 -50 -55 -43 -11 4 -14 2 -9 -6 5 -7 0 -9 -14 -6 -14 4 -19 2 -16 -7 7 -18
-7 -24 -61 -27 -26 -1 -53 -7 -60 -15 -16 -16 -59 -17 -86 -3 -25 14 -29 116
-3 106 9 -3 12 -2 8 5 -4 7 3 9 17 7 21 -3 24 1 21 24 -2 19 3 30 20 39 13 7
27 12 31 11 4 -1 3 6 -3 17 -5 11 -10 31 -10 46 0 21 8 29 38 42 67 29 160 44
148 24z m4943 -440 c8 -6 12 -19 9 -35 -3 -15 -1 -29 5 -33 6 -4 7 -1 2 8 -7
12 -6 12 6 0 11 -10 11 -15 2 -18 -8 -3 -13 -22 -13 -46 0 -55 -13 -76 -34
-58 -9 8 -16 20 -16 27 0 8 -9 14 -19 14 -25 0 -54 28 -47 46 3 8 0 11 -10 7
-35 -13 -61 56 -32 85 14 14 126 16 147 3z m-5313 -227 c-3 -8 -2 -12 4 -9 6
3 10 -3 10 -15 0 -12 -4 -19 -9 -15 -6 3 -6 -8 -1 -27 12 -47 23 -251 13 -245
-4 3 -6 -22 -5 -55 2 -33 0 -58 -5 -55 -12 7 1 -744 13 -768 7 -14 7 -63 0
-157 -6 -75 -8 -134 -4 -132 5 3 8 -4 8 -16 0 -12 -3 -19 -7 -17 -5 3 -8 -12
-8 -33 0 -21 3 -36 8 -33 4 2 7 -5 7 -17 0 -12 -3 -19 -7 -17 -5 3 -8 -30 -8
-73 0 -43 3 -76 7 -74 8 5 21 -92 14 -105 -4 -5 -1 -13 5 -17 8 -5 9 -3 4 6
-5 9 -4 11 3 6 15 -9 15 -33 0 -42 -7 -5 -8 -2 -3 7 5 8 4 11 0 6 -11 -10 -6
-131 6 -135 5 -2 9 -17 9 -33 0 -17 -4 -28 -10 -24 -6 3 -7 -1 -4 -10 8 -21
-6 -186 -15 -181 -10 7 -7 -152 4 -161 4 -5 5 -2 0 6 -5 9 -4 12 3 7 7 -4 12
-18 12 -32 0 -14 -4 -23 -9 -20 -11 7 -4 -29 11 -61 6 -12 8 -29 4 -38 -3 -9
-2 -14 3 -11 16 10 21 -25 21 -154 0 -101 3 -130 15 -140 8 -7 15 -17 15 -22
0 -12 -26 -38 -32 -32 -3 3 -3 -8 -1 -23 3 -15 12 -33 20 -40 16 -13 10 -69
-6 -59 -4 3 -6 -6 -3 -21 4 -19 2 -24 -8 -18 -8 5 -11 4 -7 -1 3 -5 7 -101 8
-212 2 -118 7 -206 12 -209 6 -4 7 -1 2 7 -6 9 -4 11 4 5 8 -4 11 -21 9 -40
-2 -19 -1 -32 3 -29 10 6 19 -35 19 -95 0 -44 -3 -52 -16 -47 -9 3 -12 2 -9
-5 11 -16 -4 -61 -17 -53 -6 4 -8 3 -5 -2 9 -16 8 -186 -2 -344 -5 -80 -10
-151 -10 -158 -1 -7 -5 -11 -9 -8 -5 3 -6 -9 -4 -26 3 -17 1 -28 -4 -25 -5 3
-10 -9 -11 -26 -1 -17 -8 -35 -14 -41 -9 -8 -10 -7 -4 4 5 8 5 12 1 8 -11 -9
-13 -207 -2 -201 5 3 7 -6 4 -20 -3 -15 -2 -24 2 -22 9 5 20 -19 20 -41 0 -9
-3 -13 -8 -10 -11 6 -9 -191 2 -201 5 -5 6 -2 1 6 -5 9 -4 12 3 7 7 -4 12 -16
12 -27 0 -11 -4 -18 -8 -15 -5 3 -7 -8 -4 -23 2 -16 -1 -32 -7 -35 -19 -12
-12 -54 10 -70 15 -10 20 -21 16 -35 -3 -12 -1 -19 5 -15 6 4 8 -30 7 -90 -1
-53 2 -100 6 -104 5 -4 5 -2 2 4 -4 7 3 14 17 16 42 8 18 -19 -28 -32 -38 -10
-47 -10 -70 5 -15 10 -24 20 -21 23 3 3 15 -3 27 -14 l23 -19 -18 22 c-11 12
-16 26 -13 32 4 5 1 13 -5 17 -8 5 -9 3 -4 -6 5 -9 4 -11 -3 -6 -7 4 -12 36
-13 79 0 40 -4 108 -8 152 -6 51 -5 87 1 99 7 13 7 16 -1 12 -7 -5 -11 1 -11
14 0 12 3 19 8 17 4 -3 7 12 7 33 0 21 -3 36 -7 33 -5 -2 -8 11 -8 31 0 19 -3
42 -7 52 -4 10 -2 15 3 11 5 -3 8 12 6 35 -3 26 -1 38 6 34 6 -4 7 6 2 29 -4
19 -6 150 -3 292 4 226 4 473 -1 1635 -1 135 -4 244 -8 241 -7 -3 -12 69 -12
159 0 9 -4 14 -9 11 -6 -4 -8 5 -5 20 3 15 1 24 -3 21 -5 -3 -9 4 -9 16 0 12
4 19 8 16 5 -3 7 8 4 23 -2 15 1 44 6 65 6 20 6 34 2 31 -12 -8 -24 39 -18 70
3 13 1 22 -4 19 -5 -3 -8 76 -6 189 2 107 0 193 -4 190 -5 -2 -8 35 -8 82 0
63 3 84 12 79 6 -4 8 -3 5 3 -9 14 -17 294 -9 289 4 -2 6 198 4 446 -2 300 1
447 8 443 5 -3 8 0 6 7 -9 29 -16 199 -8 194 5 -3 8 5 8 17 -1 15 5 22 16 21
9 -1 14 4 12 11 -3 7 0 16 7 21 8 5 10 3 4 -6 -5 -8 -4 -11 3 -6 6 4 9 13 5
21 -3 11 2 15 17 15 16 0 20 -4 16 -16z m4567 -245 c9 -10 17 -27 17 -39 0
-17 51 -76 104 -118 9 -7 16 -25 16 -40 0 -32 16 -52 42 -52 10 0 24 -15 34
-36 10 -22 22 -33 30 -30 11 4 14 -6 14 -44 0 -47 2 -50 35 -64 32 -14 35 -19
35 -54 0 -26 -5 -42 -15 -46 -12 -4 -14 0 -9 22 4 15 3 24 -1 20 -12 -11 -35
11 -35 33 0 11 -6 19 -14 19 -20 0 -36 24 -39 58 -1 21 -6 28 -16 24 -9 -3
-12 -1 -7 6 5 8 1 10 -10 5 -14 -5 -16 -1 -12 25 2 17 2 29 -2 27 -3 -2 -12
10 -19 26 -7 16 -17 27 -21 24 -10 -6 -24 31 -15 44 7 12 -13 25 -39 26 -12 0
-23 14 -35 45 -12 32 -23 46 -41 50 -16 4 -26 14 -28 29 -3 18 -9 22 -35 21
-50 -3 -52 -1 -24 24 29 27 60 25 90 -5z m-4693 -111 c0 -38 -4 -67 -9 -64 -4
3 -6 -6 -3 -21 3 -18 1 -24 -6 -19 -8 5 -10 2 -6 -8 3 -9 1 -16 -5 -16 -6 0
-11 -13 -11 -30 0 -19 5 -30 14 -30 16 0 33 -79 22 -106 -9 -24 -31 -11 -34
20 -2 16 0 26 5 23 5 -3 7 8 5 25 -3 19 -12 32 -23 35 -17 5 -19 16 -19 90 0
48 4 82 9 79 5 -4 7 3 4 14 -3 12 1 22 11 26 10 4 16 18 16 35 0 21 4 27 15
23 11 -5 15 -23 15 -76z m4157 -372 c-4 -11 -1 -13 10 -9 11 4 14 2 9 -5 -5
-8 -1 -10 10 -5 14 5 16 2 12 -14 -4 -16 -2 -19 13 -16 11 3 19 0 19 -7 0 -24
52 -62 77 -57 26 5 49 -23 39 -49 -4 -10 -2 -12 6 -8 7 5 9 2 5 -9 -4 -10 -2
-14 6 -11 16 6 40 -51 35 -81 -3 -14 -1 -22 3 -19 5 3 9 -4 9 -16 0 -12 -4
-18 -10 -15 -6 4 -7 -1 -3 -11 5 -14 2 -16 -19 -12 -20 4 -24 1 -21 -12 5 -18
-39 -46 -55 -36 -6 4 -8 -2 -4 -16 4 -17 2 -20 -12 -15 -10 4 -15 3 -11 -3 7
-11 -6 -13 -29 -4 -9 3 -16 12 -16 19 0 7 -9 15 -20 18 -28 7 -25 33 5 53 25
16 26 19 23 123 l-3 106 -30 5 c-19 4 -30 11 -29 22 1 10 -5 14 -17 11 -12 -4
-19 0 -19 10 0 8 -7 17 -15 21 -18 7 -19 28 -3 44 17 17 41 15 35 -2z m-4478
-246 c12 0 21 -4 21 -10 0 -6 30 -10 70 -10 54 0 70 3 70 14 0 8 5 18 12 22 7
5 8 3 3 -7 -7 -11 -5 -11 10 1 17 14 18 13 13 -8 -4 -12 -2 -20 3 -16 5 3 9 4
10 2 0 -2 3 -160 5 -351 2 -201 8 -357 14 -367 13 -25 13 -63 -1 -77 -14 -14
-1 -593 13 -593 5 0 6 -29 2 -69 -4 -46 -3 -71 5 -75 6 -4 11 -32 11 -62 0
-54 0 -54 -32 -56 -67 -3 -134 4 -168 19 -19 8 -72 17 -117 20 l-83 6 -2 151
c-1 83 -2 253 -2 378 -1 214 -2 228 -22 255 -12 16 -24 37 -27 48 -8 27 -29
261 -28 308 1 20 -3 37 -8 37 -6 0 -8 6 -5 14 3 7 -2 16 -10 19 -15 6 -13 34
6 74 6 12 8 35 6 52 -3 17 -1 31 4 31 4 0 7 28 7 63 -1 34 2 83 6 110 6 40 11
48 34 53 14 3 49 14 76 23 31 11 56 15 67 9 9 -4 26 -8 37 -8z m3771 -327 c24
-4 30 -11 36 -46 6 -41 23 -67 43 -67 7 0 11 -30 11 -81 0 -60 -3 -80 -12 -76
-7 2 -13 20 -13 39 0 20 -3 34 -7 31 -5 -2 -8 0 -8 6 0 5 -13 18 -30 28 -28
16 -30 21 -30 80 0 49 -3 63 -15 63 -11 0 -15 10 -14 38 1 24 3 29 6 14 3 -15
14 -25 33 -29z m-689 -31 c9 -27 15 -31 75 -62 16 -8 32 -18 35 -23 3 -4 19
-9 35 -11 25 -3 29 -8 29 -34 0 -16 3 -28 7 -25 5 2 8 -9 8 -25 0 -36 17 -51
67 -59 46 -7 53 -16 53 -66 0 -29 7 -46 31 -69 16 -17 32 -43 36 -58 4 -24 11
-28 53 -34 40 -5 49 -11 54 -30 6 -23 10 -24 98 -25 80 -1 93 -4 105 -21 8
-12 23 -28 33 -38 9 -9 21 -35 25 -57 4 -22 12 -43 18 -47 17 -11 95 -10 101
1 3 5 3 29 0 54 -5 37 -11 47 -28 49 -15 2 -22 11 -24 31 -3 24 0 27 25 27 74
0 86 -16 84 -113 -1 -62 19 -121 45 -131 7 -3 11 -11 8 -19 -10 -26 22 -39 76
-32 27 4 53 12 57 18 11 19 3 148 -12 185 -8 17 -21 32 -30 32 -13 0 -15 15
-13 108 l3 107 45 1 c116 1 126 3 138 29 7 14 20 25 31 25 24 0 37 17 45 60 7
42 -14 80 -46 80 -12 0 -32 10 -45 22 l-23 21 -47 -25 c-29 -16 -53 -38 -62
-56 -8 -17 -22 -33 -32 -35 -11 -3 -19 -14 -19 -26 0 -30 -29 -26 -41 6 -16
43 -8 76 21 83 17 4 26 15 31 38 7 34 25 62 41 62 5 0 21 11 35 24 37 35 70
41 102 19 14 -10 44 -25 66 -34 35 -15 41 -22 50 -61 6 -25 18 -53 28 -62 9
-10 17 -27 18 -39 6 -208 6 -222 -14 -244 -21 -24 -35 -88 -36 -161 -1 -36 -5
-44 -27 -52 -14 -6 -35 -10 -47 -10 -13 0 -30 -9 -40 -20 -9 -11 -25 -20 -35
-20 -11 0 -27 -9 -36 -19 -16 -17 -16 -23 -4 -60 12 -34 23 -45 67 -67 38 -19
49 -29 39 -35 -7 -5 -8 -9 -2 -9 6 0 14 3 18 7 4 4 32 6 62 5 40 -1 56 2 60
13 4 8 14 15 25 15 10 0 28 4 41 9 13 5 35 12 51 15 19 5 27 13 27 28 0 26 53
78 80 78 12 0 22 -9 25 -23 3 -12 21 -37 40 -56 19 -18 37 -42 41 -53 3 -10
16 -23 29 -28 13 -5 25 -19 27 -31 2 -17 14 -25 52 -34 27 -7 55 -19 60 -28 6
-8 26 -18 44 -21 17 -4 32 -12 32 -17 0 -5 7 -9 15 -9 8 0 15 -7 15 -16 0 -8
14 -20 31 -26 17 -6 34 -21 39 -34 7 -17 17 -24 35 -24 18 0 28 -7 35 -24 4
-13 20 -26 34 -30 l26 -6 0 -154 0 -153 -43 -17 c-23 -9 -46 -16 -50 -16 -4 0
-17 -9 -29 -20 -17 -16 -36 -20 -84 -20 -75 0 -94 -6 -94 -31 0 -13 -7 -19
-24 -19 -34 0 -86 -20 -108 -42 -28 -28 -89 -24 -146 12 -27 17 -61 30 -75 30
-14 0 -32 7 -41 15 -8 8 -19 15 -25 15 -6 0 -11 5 -11 10 0 6 -13 10 -30 10
-19 0 -33 7 -40 19 -5 11 -27 25 -47 31 -21 7 -47 23 -58 36 -17 21 -46 30
-102 33 -6 1 -15 10 -18 21 -4 12 -15 20 -27 20 -38 0 -96 23 -101 39 -5 21
-112 44 -183 40 -34 -1 -63 4 -93 19 -37 18 -63 22 -145 22 -107 0 -175 15
-203 43 -16 16 -15 17 17 17 19 1 49 7 65 14 l30 13 -43 6 c-35 6 -47 14 -63
42 -12 19 -25 35 -30 35 -5 0 -15 11 -21 25 -10 23 -17 25 -70 25 -58 0 -58 0
-58 30 0 20 -5 30 -15 30 -26 0 -37 50 -40 188 -2 72 -6 136 -9 141 -3 4 -33
16 -67 25 -33 10 -58 20 -55 23 10 10 -15 32 -30 26 -10 -4 -14 3 -14 26 0 26
4 31 25 31 14 0 25 5 25 10 0 22 2 26 21 46 10 11 17 23 14 26 -7 7 48 48 63
48 11 0 24 68 16 82 -3 4 -38 8 -77 8 -93 0 -147 15 -147 40 0 18 9 21 135 33
26 3 36 67 11 67 -9 0 -16 -4 -16 -10 0 -6 -31 -10 -72 -10 -71 0 -73 1 -94
33 -12 18 -24 44 -28 57 -3 14 -3 19 0 13 3 -7 11 -13 17 -13 17 0 47 32 47
51 0 18 -9 22 -67 34 -47 9 -41 27 17 53 28 13 50 27 50 32 0 22 32 8 41 -18z
m3665 -141 c-3 -4 8 -7 22 -6 21 0 27 -5 26 -21 0 -16 4 -20 14 -16 9 3 13 1
10 -4 -7 -10 10 -12 163 -16 107 -3 159 9 159 37 0 12 55 35 84 35 9 0 15 -4
12 -9 -4 -5 3 -7 14 -4 14 4 20 0 20 -11 0 -10 -5 -14 -11 -10 -6 3 -4 -7 4
-22 17 -33 12 -148 -6 -137 -5 3 -8 2 -5 -3 3 -5 3 -46 -1 -91 -4 -49 -3 -79
3 -75 5 3 6 -2 3 -12 -5 -11 -3 -15 5 -10 8 5 9 2 5 -10 -4 -10 -3 -15 3 -11
20 12 29 -81 31 -337 2 -147 5 -265 8 -263 2 3 13 -2 23 -12 14 -12 18 -31 18
-78 0 -34 -3 -65 -7 -68 -10 -11 -32 13 -26 29 4 10 -3 14 -26 14 -21 0 -38 8
-53 25 -12 14 -28 25 -35 25 -9 0 -13 16 -13 54 0 62 -5 66 -80 66 -73 0 -80
-5 -80 -60 0 -27 5 -52 10 -55 6 -4 7 -11 4 -17 -4 -6 -2 -8 4 -4 6 3 13 2 17
-4 3 -5 15 -10 27 -10 15 0 19 -5 15 -20 -3 -11 -1 -18 4 -14 5 3 9 1 9 -5 0
-5 3 -16 6 -25 5 -12 -1 -16 -24 -16 -26 0 -31 4 -34 28 -3 25 -7 27 -60 32
-32 3 -54 1 -51 -4 4 -5 -3 -7 -14 -4 -17 4 -19 1 -15 -20 3 -14 -3 -40 -14
-59 -16 -30 -22 -34 -49 -30 -16 3 -24 3 -17 0 14 -6 16 -23 3 -23 -5 0 -13 9
-16 20 -4 14 -15 20 -36 20 -18 0 -29 5 -29 14 0 7 -13 19 -30 26 -29 12 -30
15 -30 75 l0 63 48 6 c71 8 71 8 64 24 -3 9 -1 13 5 9 6 -4 8 3 6 17 -3 13 0
34 7 46 7 13 8 20 2 16 -13 -8 -26 29 -16 45 5 8 3 9 -6 4 -9 -6 -12 1 -8 27
3 28 0 34 -12 31 -17 -4 -40 38 -40 74 0 17 -6 23 -21 23 -16 0 -20 5 -16 20
3 11 1 18 -4 14 -5 -3 -9 9 -9 26 0 37 21 37 30 0 5 -21 37 -42 51 -34 4 2 9
-19 13 -46 6 -44 10 -50 30 -50 13 0 29 -7 36 -15 7 -8 17 -12 23 -8 6 4 8 -2
5 -14 -4 -15 -1 -20 11 -19 12 1 16 -8 16 -34 l0 -35 43 4 c28 2 42 8 42 18 0
8 4 12 10 8 5 -3 5 7 -2 25 -5 17 -8 41 -6 54 4 18 1 23 -10 18 -9 -3 -13 -1
-9 5 4 6 -3 8 -18 5 -22 -4 -25 -1 -25 22 0 16 4 25 10 21 7 -4 7 3 0 20 -6
15 -7 31 -4 37 5 7 2 8 -6 3 -10 -6 -12 -3 -7 14 3 13 3 20 0 17 -4 -3 -12 3
-20 14 -8 11 -21 20 -29 20 -24 0 -19 67 6 75 11 3 24 4 29 0 5 -3 13 0 17 6
9 16 11 88 2 82 -5 -2 -8 9 -8 26 0 28 -2 30 -52 35 -74 7 -87 5 -80 -12 3 -9
1 -13 -5 -9 -6 4 -8 -3 -5 -18 3 -18 0 -25 -12 -25 -18 0 -32 42 -20 61 4 7 3
9 -4 5 -6 -3 -13 3 -17 14 -3 11 -12 19 -18 17 -7 -1 -11 6 -11 15 1 10 -3 15
-9 11 -6 -4 -8 4 -5 20 3 17 1 24 -5 20 -6 -4 -8 0 -4 9 4 11 1 15 -11 12 -9
-2 -22 -1 -28 3 -13 9 -29 97 -16 89 4 -2 6 12 4 31 -4 32 -2 35 15 31 16 -4
19 1 21 26 1 17 -2 37 -7 45 -7 11 -1 19 22 31 30 16 62 17 53 1z m-3908 -246
c2 -16 12 -41 21 -55 36 -52 61 -240 49 -370 -12 -138 -3 -201 33 -236 16 -15
29 -34 29 -41 0 -7 11 -13 26 -13 16 0 28 -7 31 -18 4 -16 63 -42 97 -42 7 0
16 -10 19 -21 6 -21 3 -21 -56 -16 -33 3 -66 12 -72 19 -17 22 -63 38 -111 38
-37 0 -47 4 -51 19 -3 14 -17 21 -46 26 -69 11 -111 26 -136 51 -13 13 -32 24
-42 24 -12 0 -19 7 -19 20 0 16 -7 20 -34 20 -25 0 -35 5 -39 19 -9 35 7 85
31 96 12 5 22 17 22 27 0 9 5 20 10 23 6 3 10 20 10 36 0 34 16 68 38 85 8 6
17 33 19 61 4 38 10 53 23 56 12 3 24 29 38 83 12 43 26 80 32 82 6 2 17 17
26 34 19 37 48 34 52 -7z m3695 -80 c12 -6 23 -17 24 -25 10 -77 15 -90 33
-90 21 0 37 -40 24 -61 -4 -8 -3 -9 4 -5 7 4 12 1 12 -8 0 -9 7 -16 15 -16 8
0 15 -9 15 -21 0 -11 5 -17 10 -14 6 3 10 0 10 -8 0 -16 -24 -30 -34 -20 -3 4
-6 17 -6 29 0 18 -6 23 -32 26 -25 2 -34 8 -36 26 -3 20 -9 22 -61 22 -47 0
-61 4 -78 23 -25 27 -38 120 -19 136 7 6 16 8 19 4 4 -3 10 3 13 13 15 42 27
48 47 23 10 -12 28 -28 40 -34z m873 -192 c4 -10 9 -107 12 -217 3 -153 1
-200 -9 -206 -17 -11 -39 -1 -33 15 3 7 1 16 -5 19 -6 4 -8 13 -4 21 5 16 -15
75 -26 75 -11 0 -4 72 8 79 7 5 12 31 13 62 1 154 3 169 19 169 9 0 20 -8 25
-17z m46 -720 c18 -3 25 -10 21 -19 -8 -21 16 -44 44 -44 24 0 53 -20 53 -37
0 -6 -156 -1 -201 6 -3 1 -4 13 -1 27 3 16 -1 30 -9 35 -12 8 -12 11 1 19 8 5
11 10 5 10 -5 0 -3 5 5 10 8 6 24 8 35 4 11 -3 32 -8 47 -11z m-7417 -13 c76
-7 113 -15 121 -25 6 -8 20 -15 31 -15 11 0 33 -3 49 -6 l29 -6 4 -221 c6
-319 3 -997 -5 -1165 -5 -110 -10 -145 -21 -149 -11 -4 -14 -36 -12 -164 0
-87 -2 -163 -6 -169 -4 -6 -71 -10 -184 -10 -162 0 -179 2 -182 18 -2 9 -1
188 4 397 4 209 7 403 7 430 -1 28 -3 279 -6 559 -2 281 -2 516 0 523 6 16 28
16 171 3z m813 -230 c11 0 25 -14 35 -35 9 -19 21 -35 27 -35 5 0 10 -7 10
-15 0 -8 6 -15 14 -15 8 0 17 -9 21 -19 3 -10 19 -24 35 -31 19 -8 30 -20 30
-31 0 -11 11 -24 25 -31 14 -6 25 -19 25 -28 0 -9 11 -29 24 -43 14 -15 33
-40 42 -57 10 -16 24 -30 30 -30 13 0 24 -22 24 -50 0 -13 9 -20 28 -22 19 -2
28 -9 30 -25 2 -16 11 -23 35 -25 24 -2 33 -8 35 -25 3 -17 14 -26 45 -34 23
-7 52 -22 64 -35 12 -13 28 -24 35 -24 17 -1 48 -24 48 -37 0 -10 65 -33 94
-33 9 0 16 -8 16 -19 0 -16 9 -21 45 -27 44 -6 75 -25 75 -45 0 -5 11 -9 23
-9 28 0 80 -24 97 -45 7 -8 23 -15 37 -15 28 0 83 -26 83 -40 0 -5 15 -13 33
-18 l32 -8 3 -134 c1 -74 7 -139 13 -146 7 -9 7 -19 0 -33 -6 -11 -11 -41 -11
-68 0 -26 -4 -54 -9 -62 -15 -23 -90 -3 -148 40 -29 21 -56 39 -61 39 -5 0
-12 9 -15 19 -3 11 -21 27 -42 35 -20 9 -34 19 -31 24 9 14 -346 37 -371 23
-12 -6 -31 -11 -42 -11 -11 0 -26 -6 -33 -12 -22 -20 -56 -38 -73 -38 -9 0
-20 -11 -25 -25 -5 -14 -22 -30 -37 -36 -14 -5 -31 -16 -37 -24 -6 -7 -20 -15
-31 -17 -11 -2 -24 -12 -30 -23 -5 -11 -20 -30 -32 -43 -13 -12 -23 -31 -23
-42 0 -13 -7 -20 -19 -20 -25 0 -37 -17 -45 -65 -11 -62 -29 -105 -43 -105 -8
0 -18 -11 -23 -25 -5 -14 -14 -25 -20 -25 -28 0 -32 70 -37 670 -4 606 -5 615
-25 631 -22 18 -18 53 7 63 21 8 21 92 0 100 -8 3 -15 16 -15 29 0 14 7 30 15
37 8 7 15 20 15 30 0 10 -7 20 -15 24 -11 4 -15 22 -15 71 l0 65 20 -20 c11
-11 28 -20 38 -20z m1462 -1014 c25 -7 46 -19 48 -27 1 -8 23 -23 48 -34 25
-11 50 -26 56 -32 6 -7 23 -13 39 -13 15 0 31 -4 34 -10 3 -5 15 -10 27 -10
11 0 22 -8 25 -20 3 -12 14 -20 25 -20 19 0 77 -27 88 -41 3 -4 31 -9 63 -13
53 -7 87 -25 87 -46 0 -5 27 -12 60 -16 33 -4 60 -11 60 -15 0 -5 6 -9 14 -9
7 0 19 -7 26 -15 7 -8 21 -15 32 -15 10 0 29 -10 41 -23 25 -26 63 -42 121
-52 21 -4 45 -13 53 -21 8 -8 25 -14 39 -14 16 0 28 -8 35 -22 5 -13 30 -32
54 -43 30 -13 45 -26 45 -38 0 -16 -7 -18 -47 -16 -30 2 -48 -1 -51 -9 -2 -7
-13 -12 -23 -12 -11 0 -29 -5 -40 -10 -11 -6 -79 -13 -152 -15 -160 -4 -192
-10 -212 -41 -8 -13 -21 -24 -27 -24 -22 0 -78 52 -92 85 -8 18 -20 32 -28 32
-22 -3 -88 26 -88 39 0 13 -22 24 -47 24 -8 0 -34 14 -58 31 -28 20 -51 30
-64 26 -14 -3 -22 1 -26 13 -3 10 -25 24 -48 32 -23 8 -55 20 -72 25 -16 6
-46 17 -65 24 -80 28 -81 29 -74 74 4 32 1 53 -15 85 -22 46 -28 124 -11 135
6 3 10 15 10 25 0 20 25 39 50 40 8 0 35 -6 60 -14z m1120 -747 c41 -6 80 -15
85 -19 6 -4 32 -11 59 -15 82 -12 88 -15 71 -49 -22 -42 -19 -71 9 -86 28 -14
32 -27 41 -125 4 -38 13 -80 21 -92 19 -30 19 -152 0 -159 -8 -3 -17 -28 -21
-62 -4 -31 -12 -60 -17 -63 -6 -4 -25 -3 -42 2 -17 5 -48 9 -68 9 -27 0 -41 6
-50 20 -7 11 -20 20 -30 20 -22 0 -85 37 -91 54 -3 7 -19 16 -36 19 -22 5 -31
12 -31 26 0 12 -11 23 -30 30 -19 6 -30 17 -30 29 0 10 -16 36 -35 58 -19 21
-35 44 -35 51 0 7 -8 16 -17 21 -9 6 -24 34 -33 63 -13 41 -22 55 -39 57 -15
3 -21 10 -21 30 0 19 -15 42 -49 77 -58 59 -77 75 -89 75 -6 0 -12 10 -14 23
l-4 22 210 -2 c116 -2 245 -8 286 -14z"/>
<path d="M2330 6734 c-44 -9 -59 -54 -26 -76 6 -4 11 -12 11 -18 0 -5 3 -10 8
-10 4 0 12 0 17 0 16 0 12 27 -5 34 -20 7 -19 32 1 40 26 10 144 7 165 -4 10
-6 19 -17 19 -25 0 -11 20 -15 93 -17 89 -3 92 -4 90 -25 -3 -24 20 -32 32
-13 4 6 11 8 16 5 5 -3 6 0 3 8 -3 8 2 20 11 27 12 10 22 49 13 50 -2 1 -66 5
-143 10 -77 5 -171 11 -210 14 -38 2 -81 2 -95 0z"/>
<path d="M1274 10243 c-3 -10 -10 -26 -15 -35 -13 -25 -14 -457 0 -490 13 -34
50 -38 58 -8 3 11 9 20 13 20 4 0 10 37 13 83 4 45 11 98 17 117 11 38 13 201
3 238 -3 13 -16 27 -29 32 -12 5 -24 19 -26 31 -4 28 -26 36 -34 12z"/>
<path d="M5710 9180 c0 -5 -7 -10 -15 -10 -8 0 -15 -5 -15 -11 0 -5 -5 -7 -10
-4 -6 4 -5 -5 2 -19 6 -14 14 -26 18 -26 4 0 10 -13 14 -30 4 -22 11 -30 26
-30 12 0 24 -9 30 -24 5 -13 22 -28 38 -34 17 -6 33 -20 37 -31 9 -30 49 -27
74 5 26 34 27 60 1 76 -11 7 -20 20 -20 29 0 9 -13 22 -29 29 -16 6 -31 20
-34 29 -2 10 -24 28 -49 39 -49 24 -68 27 -68 12z"/>
<path d="M5129 9093 c-30 -5 -39 -31 -39 -110 0 -36 4 -46 20 -50 27 -7 35
-40 15 -63 -9 -10 -14 -23 -11 -29 10 -16 36 -1 36 20 0 11 7 19 16 19 24 0
54 -19 54 -35 0 -7 13 -16 30 -20 16 -3 32 -15 35 -25 10 -31 108 -43 119 -14
18 47 -8 140 -41 149 -15 3 -23 13 -23 28 0 14 -11 28 -31 40 -20 11 -29 22
-25 32 4 10 -1 15 -15 15 -11 0 -30 11 -43 25 -23 24 -38 27 -97 18z"/>
<path d="M6016 8768 c-10 -40 6 -101 31 -122 13 -10 22 -21 19 -23 -10 -10 23
-33 46 -33 13 0 29 -5 36 -12 9 -9 16 -7 32 7 35 32 21 135 -19 135 -13 0 -21
8 -23 23 -2 16 -11 23 -33 25 -16 2 -34 8 -39 13 -18 16 -44 9 -50 -13z"/>
</g>
</svg>
