<?xml version="1.0" standalone="no"?>
<!DOCTYPE svg PUBLIC "-//W3C//DTD SVG 20010904//EN"
 "http://www.w3.org/TR/2001/REC-SVG-20010904/DTD/svg10.dtd">
<svg version="1.0" xmlns="http://www.w3.org/2000/svg"
 width="1277.000000pt" height="827.000000pt" viewBox="0 0 1277.000000 827.000000"
 preserveAspectRatio="xMidYMid meet">
<metadata>
Created by potrace 1.16, written by Peter Selinger 2001-2019
</metadata>
<g transform="translate(0.000000,827.000000) scale(0.100000,-0.100000)"
fill="#000000" stroke="none">
<path d="M6809 6316 c-2 -2 -33 -7 -69 -10 -36 -3 -76 -8 -90 -11 -97 -19
-127 -22 -148 -14 -36 14 -61 11 -84 -11 -11 -10 -35 -22 -52 -26 -50 -11
-148 -56 -186 -85 -19 -15 -62 -37 -95 -49 -33 -12 -78 -30 -100 -40 -68 -33
-209 -91 -230 -97 -22 -5 -33 -10 -126 -52 -36 -16 -78 -33 -92 -36 -15 -4
-44 -16 -64 -26 -49 -25 -65 -24 -119 6 -25 14 -51 25 -58 25 -7 0 -39 8 -72
19 -32 10 -84 26 -114 35 -30 9 -118 26 -195 37 l-140 21 -155 -26 c-188 -31
-361 -64 -368 -71 -4 -4 26 -8 48 -7 3 0 41 3 85 7 202 15 577 -7 650 -40 16
-7 58 -19 93 -25 34 -7 65 -17 68 -21 3 -5 15 -9 28 -9 12 0 30 -6 40 -13 24
-18 9 -29 -74 -55 -70 -21 -116 -29 -225 -37 -120 -9 -171 -31 -247 -107 -38
-38 -68 -74 -68 -80 0 -7 -14 -27 -30 -45 -17 -18 -30 -37 -30 -42 0 -10 -77
-177 -116 -253 -8 -14 -14 -32 -14 -40 0 -7 -7 -26 -16 -43 -9 -16 -27 -59
-41 -95 -14 -36 -32 -83 -40 -105 -28 -73 -104 -289 -119 -340 -8 -27 -19 -59
-24 -70 -5 -11 -12 -40 -15 -65 -4 -25 -13 -58 -20 -75 -31 -75 -35 -88 -35
-114 0 -15 -7 -41 -15 -58 -8 -17 -18 -59 -21 -94 -5 -56 -35 -189 -64 -284
-18 -59 -72 -523 -75 -649 -2 -71 -7 -152 -11 -180 -9 -67 -12 -437 -3 -456 4
-8 3 -25 -2 -37 -7 -20 -12 -21 -96 -17 -48 3 -139 12 -202 20 -63 8 -153 17
-200 20 -98 6 -139 9 -231 18 -146 14 -259 18 -540 21 -162 1 -313 5 -335 9
-68 11 -384 33 -505 35 -63 2 -117 4 -120 6 -3 2 -75 6 -160 10 -85 4 -186 10
-225 15 -96 10 -135 -5 -135 -53 0 -63 17 -69 186 -64 82 2 311 -4 509 -15
200 -11 529 -21 740 -22 247 -2 392 -6 415 -14 19 -6 127 -13 239 -17 112 -3
232 -9 265 -15 67 -10 247 -27 371 -35 44 -2 143 -14 220 -26 77 -12 165 -25
195 -29 30 -4 73 -12 95 -18 22 -6 108 -18 190 -28 118 -14 155 -22 172 -37
16 -14 26 -17 35 -10 9 8 40 7 103 -3 50 -7 144 -20 210 -29 66 -8 224 -29
350 -46 127 -16 255 -36 285 -44 30 -7 100 -19 155 -25 89 -10 630 -82 825
-110 41 -6 190 -26 330 -44 140 -19 266 -39 280 -44 14 -5 54 -12 90 -16 58
-6 167 -29 270 -56 19 -5 73 -18 120 -28 47 -11 130 -34 185 -52 55 -17 125
-38 155 -46 30 -8 64 -19 75 -23 32 -14 102 -29 215 -47 58 -8 112 -18 120
-21 8 -4 24 -8 35 -9 11 -2 85 -12 165 -23 180 -24 394 -47 570 -61 74 -6 171
-16 215 -22 44 -5 107 -12 140 -14 62 -4 129 -12 357 -45 76 -11 159 -22 185
-24 27 -3 75 -9 108 -14 33 -6 152 -22 265 -36 113 -14 212 -29 220 -34 8 -4
60 -14 115 -21 55 -7 104 -17 110 -22 5 -4 30 -8 55 -8 25 0 61 -5 80 -11 53
-16 278 -49 338 -49 50 0 53 2 50 22 -3 25 -7 26 -173 52 -93 15 -209 39 -235
50 -8 3 -55 13 -105 22 -49 9 -124 23 -165 30 -41 8 -185 30 -320 48 -135 19
-290 42 -345 51 -248 41 -506 76 -515 70 -4 -3 -65 4 -137 15 -71 10 -162 22
-203 24 -41 3 -100 8 -130 10 -30 3 -93 8 -139 11 -138 9 -514 65 -681 100
-36 8 -87 17 -115 20 -47 6 -91 18 -190 49 -22 8 -76 23 -120 36 -105 30 -126
40 -120 59 2 9 1 22 -4 30 -10 15 -94 51 -167 71 -27 7 -62 23 -79 34 -37 26
-66 43 -85 51 -26 11 -139 68 -170 87 -14 8 -57 28 -105 49 -11 5 -27 13 -35
18 -8 6 -44 23 -80 40 -36 17 -88 43 -115 58 -55 31 -238 155 -270 184 -55 49
-100 98 -128 139 -17 25 -33 47 -37 50 -11 9 -70 120 -64 120 4 0 1 6 -5 14
-14 17 -61 149 -67 190 -3 17 -7 45 -9 63 -2 18 -6 36 -9 41 -6 11 -21 191
-19 243 0 20 14 60 31 90 16 30 52 97 78 149 27 52 54 101 61 108 7 7 13 18
13 23 0 11 41 72 53 77 4 2 7 9 7 14 0 6 17 34 38 62 21 28 60 81 88 118 54
74 61 77 139 52 28 -9 66 -20 85 -26 19 -5 44 -13 55 -17 90 -37 114 -49 144
-68 19 -13 38 -23 43 -23 15 0 6 -342 -9 -358 -18 -19 -1 -47 40 -66 19 -9 78
-17 142 -21 108 -6 231 -21 246 -31 5 -3 80 -12 166 -20 87 -8 174 -19 193
-23 l35 -9 -30 -2 c-26 -1 -27 -3 -10 -10 11 -5 34 -9 52 -9 17 -1 35 -5 38
-11 3 -5 19 -10 34 -10 16 0 48 -7 71 -15 23 -8 53 -15 65 -15 13 0 36 -7 51
-15 16 -8 37 -15 46 -15 9 0 20 -4 23 -10 3 -6 15 -10 26 -10 37 0 154 -42
169 -61 14 -18 22 -18 100 -8 47 5 105 15 129 20 24 5 65 12 90 15 25 3 55 8
66 11 11 3 31 7 45 9 14 1 41 5 60 8 19 3 51 8 70 12 19 3 44 7 55 9 18 4 235
40 295 50 48 7 75 12 105 18 17 4 46 9 65 11 64 9 364 56 415 65 155 30 259
48 320 56 22 2 49 6 60 9 11 2 83 13 160 25 77 12 165 27 195 34 30 6 60 12
65 13 6 0 24 6 40 13 17 7 84 32 150 57 66 24 129 49 140 54 11 5 40 16 65 24
114 39 227 80 265 97 11 5 47 17 80 27 52 15 60 21 63 44 3 22 14 31 65 52 34
14 96 35 137 47 104 30 130 40 130 50 0 17 -20 17 -116 -2 -100 -21 -199 -54
-265 -89 -36 -20 -69 -27 -55 -12 4 4 13 7 19 7 7 0 14 11 15 24 2 13 15 41
28 62 22 35 23 46 21 165 -2 111 0 130 16 150 10 13 22 37 27 54 8 29 8 30
-28 30 l-36 0 24 17 c14 9 28 22 32 27 13 18 9 96 -6 124 -16 30 -95 107 -168
166 -41 32 -46 40 -38 57 18 33 -7 125 -47 171 -14 15 -13 22 6 61 22 45 28
130 12 156 -7 11 -3 21 14 37 13 12 27 38 30 57 5 24 14 37 27 40 16 5 19 10
13 24 -5 10 -12 52 -15 93 -7 75 -25 138 -54 182 -17 25 -24 113 -12 140 6 13
2 19 -21 24 -34 8 -116 54 -109 61 11 11 76 -9 111 -33 21 -14 38 -24 39 -22
2 2 12 19 24 39 21 34 21 37 4 51 -47 39 -79 51 -149 56 -64 4 -77 2 -117 -22
l-45 -26 -53 20 c-65 24 -114 26 -126 4 -9 -15 -13 -15 -53 -1 -94 33 -185 68
-214 81 -16 8 -48 19 -70 26 -22 7 -51 21 -65 30 -59 42 -257 122 -340 138
-30 6 -100 16 -155 22 -55 7 -119 16 -142 21 -71 15 -164 11 -204 -10 -31 -17
-39 -17 -74 -5 -53 18 -293 38 -378 31 -38 -3 -79 -12 -90 -20 -12 -8 -39 -14
-59 -15 -38 -1 -89 -22 -120 -49 -12 -11 -29 -14 -60 -9 -178 26 -262 14 -374
-54 -45 -28 -97 -56 -115 -64 -37 -16 -79 -51 -79 -67 0 -6 -4 -8 -9 -4 -5 3
-12 1 -16 -5 -3 -5 1 -10 10 -10 13 0 15 -5 10 -17 -5 -10 -11 -43 -14 -73 -4
-30 -10 -62 -15 -70 -5 -8 -6 -12 -2 -8 4 3 16 -2 26 -12 31 -31 20 -84 -26
-125 -22 -19 -45 -34 -51 -35 -7 0 -13 -6 -13 -12 0 -7 -12 -24 -27 -38 -24
-23 -33 -25 -127 -25 -127 1 -175 21 -196 84 -15 47 -1 96 31 106 23 8 87 -11
111 -32 27 -24 68 -12 102 30 60 75 36 162 -64 232 -33 23 -56 30 -104 33
-107 7 -181 -42 -231 -152 -53 -119 -107 -225 -119 -235 -10 -8 -16 10 -31 82
-29 146 -49 222 -68 250 -9 15 -17 29 -17 33 0 3 -18 28 -40 54 -46 55 -48 61
-19 57 12 -1 24 4 26 10 3 9 -4 11 -26 7 -27 -6 -31 -4 -31 15 0 22 -16 29
-22 9 -3 -8 -10 -7 -24 5 -82 73 -170 127 -205 127 -10 0 -28 4 -41 9 -94 36
-446 79 -469 57z m264 -120 c31 -5 60 -12 63 -17 3 -5 14 -9 24 -9 11 0 43
-11 72 -24 29 -14 73 -30 98 -36 57 -15 104 -43 158 -94 62 -59 80 -92 112
-212 18 -67 36 -113 49 -125 16 -15 21 -32 21 -69 0 -27 5 -61 10 -75 17 -44
24 -125 11 -125 -6 0 -20 -14 -30 -31 -21 -34 -19 -71 5 -141 8 -23 9 -40 3
-43 -5 -4 -9 -14 -9 -24 0 -9 -13 -42 -28 -72 -89 -171 -211 -337 -366 -497
-113 -116 -117 -120 -143 -162 -12 -19 -52 -64 -88 -100 -66 -64 -226 -270
-295 -380 -19 -30 -38 -59 -43 -65 -37 -47 -153 -239 -190 -315 -25 -52 -64
-128 -87 -169 -22 -41 -40 -78 -40 -82 0 -5 -18 -48 -41 -96 -49 -105 -88
-190 -99 -218 -4 -11 -24 -56 -45 -100 -20 -44 -40 -89 -45 -100 -52 -119 -86
-185 -115 -227 -23 -32 -34 -56 -30 -68 5 -16 1 -18 -32 -13 -48 6 -138 -18
-205 -55 -47 -25 -53 -32 -56 -64 -4 -47 19 -70 66 -66 22 2 37 -2 40 -10 7
-22 37 -12 64 21 24 31 31 34 85 36 56 1 115 -13 248 -59 33 -11 112 -34 175
-50 63 -17 124 -34 135 -39 25 -11 118 -37 165 -47 19 -3 40 -9 45 -13 6 -4
48 -17 95 -30 47 -13 94 -27 105 -31 11 -5 38 -14 60 -20 22 -6 49 -15 60 -20
11 -5 59 -21 108 -35 98 -29 108 -46 20 -34 -74 10 -448 59 -758 100 -132 17
-262 35 -290 40 -27 6 -126 21 -220 35 -93 14 -210 31 -260 39 -191 30 -372
56 -425 61 -30 2 -125 15 -210 27 l-155 23 1 29 c3 60 23 311 28 340 3 17 10
68 17 115 15 115 60 281 100 375 5 11 18 54 28 95 23 86 27 100 76 235 20 55
39 110 42 122 3 12 11 28 19 34 8 6 14 20 14 30 0 10 9 38 19 61 11 24 29 66
41 93 12 28 26 58 31 67 5 10 9 29 9 42 0 14 4 28 10 31 12 7 53 95 70 150 6
22 30 78 53 125 22 47 42 90 43 95 9 33 32 87 42 97 7 7 12 16 12 21 0 6 9 28
19 51 11 23 36 82 56 131 20 50 42 104 49 120 8 17 17 37 20 45 3 8 10 22 15
30 5 8 19 40 32 70 13 30 39 78 58 105 85 121 164 307 198 465 3 14 12 34 19
45 8 11 14 26 14 33 0 7 7 20 15 28 20 21 19 73 -1 81 -20 7 -95 -71 -114
-119 -20 -52 -89 -218 -116 -276 -13 -29 -24 -57 -24 -63 0 -5 -9 -27 -19 -47
-37 -71 -81 -172 -81 -185 0 -7 -7 -22 -15 -33 -8 -10 -15 -27 -15 -36 0 -26
-20 -32 -35 -12 -7 11 -12 22 -9 25 2 3 -5 15 -15 26 -24 25 -68 170 -76 248
-3 33 -6 99 -5 147 0 80 6 110 40 193 4 11 15 40 24 64 9 24 28 58 41 76 14
17 25 34 25 37 0 15 114 126 133 131 32 7 153 54 211 81 28 13 69 29 91 36 22
7 52 19 67 26 14 8 33 14 42 14 9 0 16 5 16 10 0 6 7 10 15 10 8 0 23 4 33 10
9 5 37 17 62 25 297 102 361 120 475 134 69 8 238 7 308 -3z m2554 -273 c-3
-4 8 -8 23 -8 15 0 26 3 23 8 -2 4 19 7 47 7 28 0 49 -3 46 -8 -2 -4 14 -6 36
-4 31 3 39 1 33 -8 -5 -9 -4 -11 4 -6 14 9 143 -3 137 -13 -2 -3 26 -7 63 -8
36 -2 75 -7 86 -12 46 -21 82 -31 118 -33 28 -2 36 -7 31 -18 -11 -28 -9 -35
7 -32 9 1 23 -6 30 -15 13 -17 13 -17 -6 -3 -19 14 -19 14 -6 -2 7 -10 17 -15
22 -13 8 5 58 -42 60 -57 1 -5 2 -12 3 -17 0 -5 5 -13 10 -18 5 -5 6 -2 2 7
-12 23 29 -30 49 -63 l18 -30 -24 7 c-13 4 -32 9 -41 10 -10 1 -21 6 -25 11
-5 4 -2 5 6 0 9 -5 12 -4 8 3 -4 5 -16 8 -26 5 -10 -3 -22 0 -25 6 -4 6 -16
11 -26 11 -10 0 -22 5 -26 12 -5 7 -3 8 6 3 8 -5 11 -4 7 3 -4 5 -17 8 -29 4
-14 -3 -19 -1 -14 6 4 8 2 10 -8 6 -16 -6 -124 22 -143 38 -7 5 -25 8 -40 7
-44 -4 -172 12 -179 22 -3 5 -16 9 -30 9 -17 0 -23 4 -18 12 4 7 3 8 -5 4 -14
-9 -143 3 -137 13 2 3 -15 7 -37 7 -23 1 -94 12 -157 23 -63 12 -149 24 -190
26 -133 9 -194 21 -184 36 3 5 15 7 25 4 11 -4 26 -1 34 5 8 7 24 10 35 7 11
-3 18 -1 14 4 -5 8 24 13 78 13 9 0 14 4 11 9 -3 5 22 7 60 5 36 -1 63 0 61 4
-5 8 22 12 114 16 41 2 72 0 69 -5z m-570 -123 c13 0 22 -4 19 -8 -2 -4 11 -6
31 -4 27 4 34 1 28 -8 -5 -9 -4 -11 4 -6 16 10 142 -4 135 -15 -3 -5 2 -6 10
-3 8 3 82 -4 165 -16 83 -12 156 -18 161 -15 6 3 10 2 10 -4 0 -5 21 -10 48
-10 45 1 248 -26 285 -37 9 -3 14 -10 11 -16 -4 -7 -2 -8 4 -4 13 8 113 -4
108 -13 -2 -3 14 -7 37 -9 23 -1 44 -7 47 -12 3 -4 19 -11 35 -15 62 -13 104
-28 99 -36 -3 -5 3 -6 12 -2 12 4 15 3 10 -5 -5 -8 -2 -10 9 -6 15 6 79 -21
116 -49 11 -8 18 -31 20 -64 4 -56 6 -56 -49 -5 -20 18 -88 52 -105 52 -8 0
-21 8 -28 18 -13 16 -13 16 6 2 18 -14 19 -14 7 1 -7 10 -21 15 -33 12 -11 -3
-27 1 -37 10 -22 19 -89 47 -113 47 -11 0 -19 5 -19 10 0 6 -11 10 -24 10 -35
0 -57 10 -49 23 3 6 1 7 -6 3 -6 -4 -17 -3 -24 2 -7 6 -34 15 -62 21 -109 23
-160 36 -165 41 -3 3 -23 5 -45 6 -82 2 -284 24 -309 34 -18 6 -25 6 -21 0 4
-6 -8 -10 -30 -10 -21 0 -34 4 -30 10 3 5 0 8 -7 6 -7 -3 -51 -7 -97 -11 -58
-5 -81 -3 -77 4 5 8 -1 8 -21 0 -15 -6 -64 -13 -108 -15 -147 -9 -233 -19
-277 -33 -87 -26 -110 -30 -98 -16 6 8 24 17 40 20 16 3 34 13 41 21 6 8 17
14 23 14 7 0 39 14 71 30 33 17 65 28 73 25 8 -3 10 0 6 7 -5 8 -2 9 10 5 9
-4 14 -3 11 2 -8 14 24 20 74 15 24 -2 55 -4 68 -4z m-3537 -93 c0 -7 -7 -22
-16 -33 -8 -10 -12 -13 -8 -5 4 9 3 12 -3 8 -6 -4 -8 -19 -5 -33 3 -19 1 -25
-6 -20 -8 4 -10 2 -6 -8 3 -8 -2 -25 -10 -38 -26 -39 -58 -279 -50 -370 4 -43
10 -81 14 -83 5 -3 6 -14 3 -26 -3 -11 -1 -31 6 -45 6 -13 16 -35 22 -48 7
-14 9 -34 6 -45 -3 -12 0 -24 5 -28 7 -3 8 -1 4 5 -4 7 -5 12 -2 12 10 0 38
-69 32 -79 -4 -6 2 -16 14 -23 11 -7 20 -18 20 -25 0 -7 5 -13 10 -13 6 0 10
-11 10 -25 0 -14 -3 -25 -7 -25 -12 0 -47 -63 -45 -80 1 -8 -8 -26 -19 -40
-11 -14 -17 -19 -13 -11 4 9 3 12 -4 8 -5 -4 -8 -16 -5 -26 3 -10 -1 -22 -8
-26 -8 -6 -10 -4 -4 5 5 8 4 11 -3 6 -6 -4 -9 -12 -7 -19 6 -15 -39 -110 -47
-101 -4 3 -4 -4 -1 -17 5 -17 3 -20 -7 -14 -9 5 -11 4 -6 -3 8 -13 -29 -54
-39 -44 -3 4 -3 -2 1 -12 4 -12 4 -17 -2 -13 -6 3 -10 -2 -11 -12 -2 -25 -43
-92 -53 -86 -4 3 -6 -3 -3 -14 3 -10 -1 -22 -8 -26 -8 -6 -10 -4 -4 5 5 8 4
11 -3 6 -6 -4 -8 -14 -5 -23 5 -12 3 -14 -7 -8 -8 5 -11 4 -7 -3 4 -5 -2 -27
-12 -49 -40 -80 -52 -115 -47 -130 4 -10 2 -13 -7 -10 -10 4 -13 -2 -9 -20 3
-15 1 -23 -4 -20 -6 3 -10 -2 -11 -11 -5 -43 -16 -83 -26 -89 -6 -4 -7 -1 -2
7 5 8 4 11 -2 7 -6 -4 -8 -18 -5 -33 2 -14 0 -29 -5 -33 -11 -7 -49 -153 -59
-224 -3 -26 -11 -50 -17 -54 -6 -4 -7 -1 -2 7 5 8 4 11 -2 7 -6 -4 -8 -19 -5
-33 3 -17 1 -25 -5 -21 -6 4 -10 1 -10 -6 2 -32 -16 -96 -26 -90 -5 3 -7 1 -4
-4 8 -13 -44 -204 -53 -198 -4 3 -5 -7 -2 -22 4 -19 2 -24 -8 -18 -9 5 -11 4
-6 -4 10 -15 -13 -73 -25 -65 -5 3 -6 -3 -2 -12 5 -13 3 -15 -7 -9 -8 5 -11 4
-6 -3 3 -6 -3 -34 -14 -63 -12 -29 -19 -58 -16 -66 3 -7 1 -13 -5 -13 -5 0 -9
-19 -8 -42 3 -88 -1 -159 -10 -154 -4 3 -6 -6 -3 -21 3 -15 1 -24 -5 -20 -5 3
-9 -2 -9 -11 0 -56 -5 -93 -12 -88 -4 2 -6 -14 -4 -36 3 -31 1 -39 -8 -33 -8
5 -11 4 -6 -3 3 -6 3 -48 0 -94 l-7 -83 -73 9 c-40 5 -72 12 -69 15 2 4 -15 5
-37 3 -31 -3 -39 -1 -33 8 6 9 4 11 -4 5 -15 -8 -123 3 -117 13 2 4 -20 7 -50
8 -30 0 -64 6 -76 12 -20 9 -166 34 -186 31 -19 -3 -33 2 -28 10 4 5 -9 6 -29
1 -54 -12 -59 2 -57 148 3 129 3 144 0 185 -1 29 11 294 17 372 3 33 8 104 12
157 3 54 9 96 12 94 4 -3 5 14 3 36 -3 23 0 38 5 35 5 -3 7 10 5 30 -3 20 0
33 4 30 5 -3 8 12 6 33 -2 21 1 41 7 44 6 4 11 21 11 37 0 17 4 28 10 24 6 -3
7 1 4 9 -7 18 13 177 26 216 5 14 11 46 15 73 3 26 10 45 14 42 5 -2 6 7 3 20
-5 30 6 78 17 71 4 -3 6 6 3 19 -2 14 3 41 13 60 9 20 19 53 22 73 2 20 11 53
18 72 7 19 16 59 20 87 4 29 12 56 17 60 7 4 8 1 3 -7 -5 -8 -4 -11 3 -7 5 4
8 17 4 29 -3 14 -1 19 6 14 8 -4 10 -2 6 7 -7 19 13 94 28 103 7 5 8 3 3 -6
-5 -8 -4 -11 3 -7 5 4 8 15 6 25 -3 9 3 35 13 57 18 42 20 48 22 81 0 11 8 29
17 40 8 10 12 13 8 5 -4 -9 -3 -12 3 -8 6 4 8 19 5 33 -3 17 -1 25 6 20 6 -3
8 1 5 12 -2 10 3 24 11 31 9 8 16 22 16 33 0 10 4 17 9 14 5 -4 7 2 4 13 -3
10 0 22 6 25 6 4 11 16 11 27 0 10 5 19 11 19 5 0 9 10 7 23 -2 13 2 21 9 20
8 -2 10 4 6 14 -4 10 -2 14 4 10 7 -4 9 0 6 11 -2 10 4 27 14 38 10 11 14 13
8 4 -8 -13 -8 -13 6 -2 11 8 14 21 11 39 -4 19 -2 24 8 18 8 -5 11 -4 6 3 -4
6 -2 19 4 29 5 10 14 31 20 46 5 16 14 25 20 22 6 -3 7 1 4 9 -5 14 31 106 42
106 3 0 2 -5 -2 -12 -4 -7 -3 -8 5 -4 6 4 9 12 5 17 -12 21 20 38 84 45 36 4
73 13 80 21 8 8 21 12 29 9 9 -4 11 -2 7 6 -5 7 0 9 14 6 12 -4 20 -2 17 3 -3
4 7 11 22 15 15 4 34 11 40 17 7 5 22 7 33 4 11 -3 18 -2 15 3 -6 10 70 31
115 32 19 0 68 9 108 19 40 11 78 16 84 13 7 -4 8 -2 4 4 -5 8 2 12 19 12 14
0 40 7 56 16 17 8 37 13 45 10 10 -4 12 -2 8 6 -5 7 0 9 14 6 12 -4 25 -1 29
4 4 7 1 8 -8 4 -8 -4 -5 0 5 8 24 19 36 20 36 3z m5076 -22 c9 -8 24 -15 35
-15 13 0 19 -6 17 -17 -2 -10 3 -18 12 -18 24 -1 60 -16 60 -25 0 -5 9 -12 21
-15 12 -4 18 -13 15 -20 -3 -9 0 -12 8 -9 7 3 19 -3 27 -13 13 -17 13 -17 -6
-3 -19 14 -19 14 -6 -2 7 -10 18 -15 23 -12 5 3 18 -2 29 -12 22 -20 10 -44
-22 -44 -10 0 -22 -7 -27 -15 -8 -16 -109 -38 -126 -27 -5 3 -6 0 -2 -6 4 -7
2 -12 -3 -12 -6 0 -11 6 -11 14 0 7 -11 21 -25 30 -21 14 -26 24 -25 59 1 46
-10 100 -29 135 -20 37 6 57 35 27z m-1048 -30 c34 -4 60 -10 58 -13 -2 -4 17
-7 42 -7 26 0 65 -5 87 -12 22 -6 76 -19 120 -28 81 -17 129 -34 120 -43 -2
-3 -17 0 -32 6 -30 12 -222 44 -245 41 -41 -5 -89 2 -82 13 4 6 3 8 -4 4 -10
-6 -82 -9 -185 -7 -29 1 -46 5 -42 11 4 7 -3 6 -20 0 -15 -6 -68 -13 -119 -15
-165 -9 -227 -14 -237 -20 -5 -4 -19 -8 -32 -10 -42 -8 -102 -16 -124 -18 -11
-1 -19 -5 -16 -9 2 -5 -14 -8 -36 -8 -22 0 -43 -4 -46 -10 -3 -5 -17 -10 -31
-10 -14 0 -23 3 -20 8 2 4 -14 6 -36 4 -28 -3 -38 -1 -34 7 5 7 1 9 -9 5 -8
-4 -37 -3 -63 1 l-47 8 35 14 c19 8 58 16 87 17 28 0 50 5 50 9 -1 5 21 11 48
13 28 3 68 10 90 15 75 21 157 28 178 17 14 -7 17 -7 13 1 -4 6 -4 11 1 11 4
0 19 3 32 7 14 3 22 2 19 -3 -4 -5 4 -9 17 -9 13 0 21 3 19 7 -9 14 309 16
444 3z m-1672 -278 c10 -6 12 -13 4 -27 -7 -13 -7 -21 2 -26 7 -5 8 -3 3 6 -6
9 -4 11 4 6 7 -5 10 -14 7 -21 -2 -7 2 -12 12 -11 9 0 22 -11 29 -26 8 -15 27
-37 44 -49 17 -12 28 -27 25 -34 -3 -9 2 -11 16 -7 14 3 19 1 14 -6 -4 -8 -2
-10 7 -6 10 3 16 -3 19 -20 4 -18 1 -26 -8 -26 -8 0 -23 -9 -33 -19 -11 -11
-22 -16 -26 -13 -3 4 -3 -2 1 -12 5 -13 4 -17 -3 -13 -7 5 -8 -4 -3 -28 7 -31
6 -35 -22 -44 -16 -6 -32 -20 -35 -31 -3 -11 -9 -18 -13 -15 -4 3 -4 -12 1
-33 5 -20 9 -40 9 -44 0 -10 -64 3 -71 14 -3 6 -10 10 -15 11 -5 1 -8 7 -8 14
1 7 -1 11 -5 10 -3 -1 -7 3 -8 8 -2 11 -43 24 -55 18 -4 -2 -1 -20 7 -38 13
-32 12 -36 -5 -45 -15 -8 -20 -6 -25 10 -3 11 -4 24 -1 29 3 5 -3 7 -14 4 -11
-3 -23 -17 -26 -32 -3 -14 -7 -32 -10 -39 -2 -7 0 -11 5 -8 5 3 11 -3 14 -14
6 -22 -3 -26 -21 -8 -22 22 -41 -9 -39 -68 1 -29 -3 -56 -8 -58 -17 -6 -105
18 -105 29 0 20 58 68 72 59 7 -4 10 -3 5 1 -4 5 2 19 14 31 12 13 32 53 45
91 12 37 27 67 33 66 6 -2 7 5 4 14 -5 12 -2 15 10 10 16 -6 30 6 33 31 2 8
10 19 18 25 9 7 19 34 22 62 4 28 12 55 18 60 7 6 15 18 19 28 3 9 14 17 22
17 9 0 14 -4 11 -9 -11 -17 32 1 50 21 24 26 8 52 -35 56 -17 2 -29 7 -26 12
3 4 -3 6 -12 4 -15 -4 -19 2 -21 34 -2 28 2 41 13 46 8 3 16 18 16 33 2 27 2
27 6 3 3 -14 11 -29 19 -33z m1281 -146 c50 -17 107 -41 128 -56 21 -14 56
-28 77 -31 21 -4 41 -11 44 -15 3 -5 13 -9 23 -9 10 0 48 -15 85 -34 48 -25
85 -36 139 -41 39 -4 81 -12 92 -19 11 -7 42 -18 69 -25 87 -22 277 -123 324
-174 l23 -24 -48 -24 c-126 -63 -207 -137 -214 -194 -6 -49 25 -106 98 -179
70 -70 73 -75 62 -100 -17 -36 12 -97 68 -143 32 -26 43 -43 43 -63 0 -24 -5
-28 -39 -34 -38 -6 -51 -20 -51 -54 0 -22 30 -52 52 -52 24 0 98 -37 98 -50 0
-5 26 -29 59 -55 49 -39 62 -56 85 -113 37 -96 32 -201 -9 -186 -8 4 -15 2
-15 -4 0 -11 -58 -33 -95 -38 -54 -6 -140 -20 -175 -28 -14 -3 -65 -11 -115
-16 -49 -6 -106 -15 -125 -20 -19 -5 -82 -16 -140 -24 -58 -9 -125 -21 -150
-26 -25 -5 -108 -19 -185 -31 -77 -12 -148 -23 -158 -25 -10 -2 -78 -12 -150
-24 -73 -11 -154 -25 -182 -31 -115 -25 -138 -29 -149 -20 -6 4 -24 11 -40 15
-15 4 -47 15 -70 25 -22 10 -59 23 -81 30 -22 6 -67 19 -100 30 -33 10 -76 22
-95 26 -19 4 -52 16 -73 27 -21 10 -41 17 -45 14 -4 -3 -53 1 -107 9 -55 7
-139 16 -187 20 -48 4 -126 14 -174 24 -72 15 -89 22 -102 43 -18 30 -62 38
-203 38 -47 0 -88 2 -90 4 -2 2 -1 82 2 178 6 156 10 183 38 272 17 54 45 126
62 160 36 71 120 198 158 241 38 41 126 156 139 181 10 18 18 20 63 16 62 -6
116 18 126 56 5 21 10 24 42 19 43 -6 98 10 136 40 25 21 27 27 21 70 -3 27
-7 59 -8 71 -3 20 8 30 62 60 36 19 67 39 68 44 2 4 8 8 14 8 6 0 47 18 92 39
112 54 275 118 322 127 21 4 54 14 73 21 45 19 70 11 123 -39 63 -60 201 -166
231 -177 17 -7 29 -23 37 -48 7 -21 23 -57 35 -80 13 -23 27 -57 30 -75 4 -18
16 -43 26 -56 10 -13 20 -49 24 -80 8 -76 20 -103 41 -95 14 5 16 1 12 -23 -3
-16 -9 -37 -13 -48 -6 -14 -4 -17 11 -14 14 2 21 15 25 48 23 161 30 129 -61
310 -57 111 -99 181 -133 219 -28 31 -55 58 -61 60 -20 7 -56 44 -56 58 0 7
-4 13 -9 13 -20 0 -19 -17 0 -50 l21 -34 -29 18 c-15 10 -38 29 -51 42 -13 13
-29 24 -36 24 -7 0 -30 13 -50 29 l-37 29 58 17 c32 9 69 20 83 25 42 15 73
11 167 -19z m2323 -110 c0 -65 -10 -78 -49 -61 -33 13 -61 8 -61 -12 0 -7 16
-30 35 -51 37 -40 79 -107 90 -144 8 -27 -15 -32 -35 -8 -17 21 -67 19 -79 -3
-14 -27 4 -50 62 -77 29 -13 77 -46 107 -74 l55 -50 -37 -1 c-39 0 -88 -18
-88 -31 0 -5 6 -6 13 -3 7 2 24 -7 37 -21 33 -35 21 -31 -64 21 -63 39 -81 57
-120 117 -25 40 -59 85 -76 100 -40 38 -39 74 3 125 43 52 128 170 146 202 31
56 61 42 61 -29z m-4036 -516 c34 -63 62 -95 101 -115 25 -13 45 -26 45 -29
-1 -3 -12 -24 -25 -46 -14 -22 -28 -46 -32 -54 -3 -8 -34 -55 -68 -106 -52
-76 -125 -232 -125 -266 0 -4 -24 5 -52 22 -65 39 -189 87 -243 96 -43 6 -65
19 -65 37 0 6 26 39 58 73 140 150 288 315 337 376 33 40 52 43 69 12z m2975
-403 c93 -90 111 -122 97 -176 l-6 -24 -65 31 c-52 25 -62 33 -53 44 9 11 7
20 -9 41 -15 21 -33 29 -74 36 -56 9 -106 39 -134 83 l-17 26 65 -7 c60 -7 67
-6 79 13 7 12 16 21 20 21 3 0 47 -40 97 -88z m-3978 -1004 c1 -60 6 -133 13
-168 3 -19 7 -46 9 -60 2 -14 8 -34 13 -45 5 -11 9 -32 8 -48 0 -15 1 -25 4
-22 9 8 33 -56 25 -68 -3 -6 -1 -7 5 -3 7 4 14 -4 18 -21 4 -15 11 -33 15 -39
5 -6 10 -19 12 -30 7 -32 19 -58 48 -94 l27 -35 -29 0 c-16 0 -29 3 -29 7 0 4
-57 7 -127 7 -71 -1 -141 4 -156 10 -17 7 -26 7 -22 1 4 -6 -7 -10 -25 -10
-17 0 -29 4 -26 8 2 4 -4 8 -14 8 -10 0 -16 -4 -14 -8 3 -4 -4 -8 -15 -8 -11
0 -23 5 -26 10 -3 6 -2 10 2 10 5 0 15 27 22 60 8 33 17 60 22 60 5 0 9 11 9
24 0 14 5 28 12 32 7 5 8 3 3 -6 -5 -8 -4 -11 3 -6 6 4 8 14 5 23 -4 10 -2 14
4 10 7 -4 9 0 7 10 -3 10 2 27 11 38 9 11 13 14 9 6 -4 -9 -3 -12 4 -8 5 4 8
17 4 29 -3 14 -1 19 6 14 8 -4 10 -2 6 7 -3 8 4 32 15 53 12 21 21 45 21 52 0
7 4 10 10 7 5 -3 7 0 4 8 -6 15 30 90 38 81 3 -2 3 6 1 19 -3 14 1 28 8 32 8
6 10 4 4 -6 -5 -8 -4 -11 1 -6 5 5 9 12 9 15 2 21 28 82 36 82 5 0 9 -15 10
-32z m136 -743 c35 -4 61 -10 59 -14 -3 -3 14 -5 36 -3 22 3 38 0 35 -4 -3 -5
11 -9 31 -9 28 0 37 -4 36 -17 -1 -11 4 -14 14 -11 9 4 13 2 9 -4 -3 -5 12
-20 33 -32 22 -12 40 -25 40 -27 0 -3 -5 -2 -12 2 -7 4 -8 3 -4 -5 4 -6 12 -9
17 -5 5 3 23 -6 40 -20 17 -14 35 -26 40 -26 6 0 7 -4 4 -10 -3 -6 1 -7 9 -4
9 3 16 2 16 -4 0 -5 18 -17 41 -26 25 -10 37 -21 33 -28 -4 -6 -3 -8 4 -4 14
8 62 -11 62 -25 0 -8 -4 -8 -12 -2 -7 6 -24 13 -38 16 -14 3 -49 14 -78 25
-28 11 -50 17 -47 12 3 -4 -4 -6 -15 -3 -11 3 -23 9 -26 14 -3 5 -18 9 -34 9
-16 0 -32 5 -36 12 -5 7 -3 8 6 3 8 -5 11 -4 6 3 -4 6 -14 8 -23 5 -9 -4 -14
-2 -11 3 4 5 -6 10 -20 11 -37 2 -280 67 -289 78 -5 4 -2 5 6 0 9 -5 12 -4 7
3 -4 6 -14 8 -23 5 -10 -4 -14 -2 -10 4 5 7 -1 9 -15 5 -13 -3 -19 -1 -15 5 5
7 0 9 -12 6 -10 -3 -22 0 -25 6 -4 6 -18 11 -32 11 -14 0 -23 3 -21 8 3 4 -9
8 -26 9 -18 2 -33 7 -35 13 -2 5 -10 10 -18 10 -8 0 -14 4 -14 9 0 10 213 7
307 -4z"/>
<path d="M8690 5075 c-10 -12 -10 -21 -1 -41 6 -14 11 -33 11 -43 0 -11 16
-54 36 -97 108 -234 112 -241 170 -298 59 -59 114 -95 114 -76 0 6 -7 13 -15
16 -9 4 -40 36 -70 73 -96 114 -185 314 -170 379 4 20 -1 38 -17 62 -28 40
-41 46 -58 25z"/>
<path d="M7820 4381 c0 -13 -13 -40 -29 -60 -51 -65 -56 -81 -55 -176 1 -70 8
-115 33 -202 69 -244 128 -321 326 -422 33 -17 60 -31 60 -31 0 0 -1 20 -1 43
-1 24 7 95 17 158 32 194 25 244 -40 302 -28 24 -31 33 -31 83 0 83 2 80 -145
204 -55 46 -108 93 -117 105 -17 20 -17 20 -18 -4z"/>
<path d="M9040 4338 c-19 -5 -163 -13 -320 -17 -272 -7 -288 -9 -359 -34 -79
-28 -108 -48 -96 -67 5 -8 11 -7 23 3 58 51 170 69 435 69 220 0 385 19 380
43 -3 14 -22 15 -63 3z"/>
<path d="M9510 4190 c0 -5 8 -14 18 -19 16 -10 16 -10 -1 -11 -10 0 -31 7 -48
15 -29 16 -55 12 -44 -6 4 -5 -1 -9 -10 -9 -34 0 -7 -24 41 -36 39 -10 60 -24
102 -69 111 -119 152 -204 202 -421 27 -116 51 -174 72 -174 6 0 8 10 4 23
-17 58 -18 77 -6 77 9 0 10 9 5 33 -4 17 -8 55 -9 82 -2 53 -20 109 -67 213
-16 34 -29 66 -29 70 0 5 -22 41 -50 80 -27 39 -50 74 -50 77 0 8 -56 56 -84
72 -25 15 -46 16 -46 3z"/>
<path d="M9315 3990 c-7 -11 24 -166 52 -253 8 -26 26 -68 40 -92 26 -47 189
-205 211 -205 26 0 10 29 -35 64 -63 49 -138 137 -170 200 -14 28 -37 102 -49
165 -24 114 -35 143 -49 121z"/>
<path d="M3225 5739 c-143 -22 -319 -54 -390 -70 -113 -27 -136 -30 -172 -20
-23 6 -44 15 -47 20 -5 8 -451 5 -609 -4 -48 -3 -142 -16 -210 -31 -85 -18
-163 -27 -256 -29 l-134 -4 -44 -43 c-36 -36 -41 -44 -27 -51 9 -5 117 -7 248
-4 173 4 258 10 341 26 61 11 157 23 215 26 58 3 150 8 205 11 55 4 118 8 140
9 97 6 227 23 335 45 25 5 88 17 140 25 52 9 102 19 110 22 8 4 24 7 35 8 11
2 72 15 135 29 63 15 152 35 197 45 83 17 118 32 72 30 -13 -1 -141 -19 -284
-40z"/>
</g>
</svg>
