<?xml version="1.0" standalone="no"?>
<!DOCTYPE svg PUBLIC "-//W3C//DTD SVG 20010904//EN"
 "http://www.w3.org/TR/2001/REC-SVG-20010904/DTD/svg10.dtd">
<svg version="1.0" xmlns="http://www.w3.org/2000/svg"
 width="733.000000pt" height="1125.000000pt" viewBox="0 0 733.000000 1125.000000"
 preserveAspectRatio="xMidYMid meet">
<metadata>
Created by potrace 1.16, written by Peter Selinger 2001-2019
</metadata>
<g transform="translate(0.000000,1125.000000) scale(0.100000,-0.100000)"
fill="#000000" stroke="none">
<path d="M4900 10640 c-8 -5 -28 -10 -43 -10 -20 0 -41 -12 -65 -37 -28 -27
-44 -36 -65 -34 -35 3 -87 -46 -87 -84 0 -16 -7 -28 -17 -31 -109 -35 -251
-118 -293 -171 -11 -15 -49 -57 -83 -93 -34 -37 -102 -111 -152 -166 -49 -54
-120 -130 -157 -168 -57 -59 -68 -66 -74 -50 -26 81 -56 114 -103 114 -83 0
-171 -132 -171 -258 0 -31 -6 -47 -22 -60 -155 -123 -238 -252 -294 -455 -35
-127 -44 -353 -20 -515 44 -300 160 -578 332 -796 l62 -79 -23 -66 c-13 -36
-28 -79 -34 -94 l-11 -29 -58 33 c-31 17 -73 41 -92 52 -70 39 -286 171 -341
208 -70 47 -96 77 -201 231 l-85 123 5 91 c5 100 -8 143 -51 165 -31 17 -37
28 -37 72 0 21 -7 51 -15 66 -16 31 -77 61 -124 61 -15 0 -35 8 -43 18 -20 24
-119 183 -162 263 l-36 66 5 104 c3 61 9 104 15 103 5 -1 14 -2 20 -2 5 -1 27
-37 47 -79 51 -103 126 -184 211 -225 62 -31 74 -33 167 -33 92 1 105 3 160
32 72 37 162 129 200 203 52 103 67 159 72 280 5 98 2 127 -16 193 -45 166
-137 289 -260 350 -60 29 -73 32 -161 31 -77 0 -105 -4 -145 -23 -64 -29 -126
-80 -175 -145 l-40 -52 -71 7 c-39 5 -72 9 -73 11 -1 2 -7 34 -13 71 -25 154
-122 210 -217 127 -19 -17 -36 -30 -39 -30 -3 0 -19 14 -37 30 -36 34 -86 40
-130 16 -21 -12 -29 -12 -52 0 -38 20 -87 17 -127 -7 -28 -17 -39 -19 -58 -10
-38 18 -120 13 -162 -9 -21 -10 -54 -38 -73 -60 l-34 -42 -124 12 -124 12 -33
-35 c-65 -72 -79 -199 -32 -308 20 -45 24 -49 73 -59 28 -6 123 -26 211 -44
88 -19 178 -37 200 -40 l40 -7 77 -152 c87 -172 162 -293 202 -325 15 -11 47
-24 71 -28 25 -3 48 -11 53 -18 5 -6 57 -111 115 -232 l107 -222 -7 -81 -6
-82 45 -43 c34 -33 46 -53 52 -85 14 -87 68 -157 140 -181 25 -8 43 -26 72
-73 86 -140 190 -294 228 -336 46 -50 218 -195 379 -319 l107 -84 -31 -56
c-18 -32 -92 -157 -166 -279 -73 -121 -133 -229 -133 -238 0 -44 75 -144 154
-203 l28 -22 -51 -242 c-29 -132 -55 -270 -58 -305 -5 -58 -9 -65 -35 -79 -43
-22 -54 -54 -34 -95 14 -29 15 -43 5 -111 -10 -70 -14 -80 -45 -103 l-34 -26
0 -107 c0 -100 -2 -114 -35 -192 -36 -89 -42 -119 -25 -136 10 -10 -3 -46
-140 -404 -140 -366 -348 -952 -375 -1055 -27 -106 -25 -145 16 -269 30 -91
140 -316 219 -445 70 -116 136 -245 186 -365 30 -70 32 -82 19 -96 -13 -14
-83 -182 -100 -239 -7 -23 -9 -24 -79 -15 -126 14 -207 9 -256 -17 -23 -13
-63 -34 -87 -47 -38 -19 -49 -33 -83 -104 -22 -45 -40 -96 -40 -114 0 -39 23
-58 143 -114 68 -32 110 -43 237 -64 306 -49 702 -96 813 -96 114 0 360 28
420 48 75 25 85 50 53 138 -18 48 -22 73 -15 85 15 30 11 58 -35 209 -68 226
-81 249 -133 250 -13 1 -47 56 -127 206 -140 264 -305 515 -468 715 l-48 58
18 30 c16 29 16 32 -2 65 -22 42 -32 14 111 331 57 126 134 286 172 355 74
133 164 268 185 276 7 3 29 -1 49 -8 32 -11 75 -65 335 -414 164 -220 340
-453 391 -517 117 -150 120 -156 327 -654 107 -259 118 -280 254 -511 111
-190 113 -195 101 -225 -24 -58 -23 -81 14 -227 68 -276 92 -337 136 -352 13
-4 -9 -121 -61 -327 -15 -58 -1 -75 87 -100 43 -12 139 -41 213 -64 l135 -42
215 1 c204 0 218 1 275 25 82 33 88 48 70 174 -8 55 -19 116 -25 136 -10 35
-45 77 -59 71 -3 -2 -7 5 -9 15 -2 10 -21 78 -43 151 -30 101 -37 137 -29 147
26 32 8 97 -94 340 -63 149 -86 187 -123 205 -27 13 -39 33 -89 150 -205 482
-348 732 -640 1118 -77 101 -149 200 -161 220 -13 20 -73 145 -134 277 -213
457 -349 745 -404 856 -46 93 -54 116 -49 147 6 42 -50 216 -87 266 -18 24
-24 57 -39 235 -27 311 -34 530 -17 537 8 3 47 -4 88 -16 79 -21 164 -26 174
-10 4 6 31 144 61 307 30 164 56 298 57 299 4 4 250 -146 362 -221 108 -72
170 -136 286 -294 l28 -38 -26 -74 c-31 -88 -27 -131 16 -175 16 -16 35 -49
42 -73 7 -24 28 -59 45 -78 26 -28 39 -34 64 -31 l32 3 83 -205 84 -205 -84
-78 c-92 -85 -77 -57 -189 -358 -46 -123 -47 -128 -32 -162 18 -45 60 -67 124
-67 86 0 121 35 174 173 20 50 30 63 69 85 25 14 53 23 61 19 9 -3 66 -80 128
-172 l112 -167 35 -131 c74 -282 141 -378 238 -341 44 17 55 117 36 320 -8 77
-16 104 -51 173 -23 46 -39 86 -36 89 3 3 42 -17 87 -44 74 -45 85 -57 119
-119 97 -177 193 -252 250 -195 20 20 22 30 17 76 l-6 54 40 -2 c53 -2 64 12
63 80 -1 96 -84 310 -127 329 -21 10 -26 22 -37 94 -6 46 -18 95 -26 110 -14
28 -70 63 -379 239 -99 56 -191 111 -205 120 -21 15 -38 55 -89 217 -34 109
-69 218 -77 242 -13 40 -12 47 6 75 10 18 23 50 28 72 12 55 -5 92 -56 123
l-40 24 5 56 c7 91 -38 144 -125 147 l-47 1 -60 90 c-86 128 -136 193 -191
248 -47 47 -435 373 -601 505 l-82 65 0 52 -1 53 -70 57 c-38 32 -70 63 -70
69 0 7 9 33 20 59 18 41 23 46 43 41 76 -23 242 -57 302 -62 l70 -6 0 -88 c0
-49 4 -92 8 -96 4 -5 19 6 33 24 14 18 30 32 35 32 5 0 9 -24 10 -52 0 -29 4
-61 8 -72 6 -15 11 -9 25 30 22 57 66 108 118 135 20 10 87 26 148 34 191 27
331 83 431 173 53 48 57 44 39 -33 -5 -22 -7 -41 -5 -43 6 -6 69 30 113 65
l42 34 0 -37 0 -38 30 34 c17 19 53 71 81 115 l51 80 -7 -75 c-3 -41 -9 -83
-11 -92 -9 -33 14 -19 66 40 141 155 239 374 275 616 4 21 10 35 15 30 5 -5
26 -51 47 -103 22 -52 45 -97 51 -99 18 -6 15 159 -4 280 -8 54 -14 104 -12
110 10 28 182 -311 234 -459 10 -29 21 -53 24 -53 8 0 -6 235 -20 335 -10 72
-10 124 0 263 38 514 -88 982 -360 1342 -32 41 -110 127 -174 190 -82 81 -129
137 -160 190 -115 199 -285 361 -497 474 l-84 46 -130 0 c-71 0 -137 -5 -145
-10z m-230 -259 c0 -5 41 -52 90 -106 50 -53 99 -113 110 -134 36 -70 71 -101
128 -114 45 -10 67 -25 158 -107 216 -194 297 -314 423 -630 34 -85 81 -197
103 -249 l41 -93 -12 -81 c-54 -348 -273 -635 -559 -732 l-67 -23 0 -53 0 -54
50 -13 c68 -18 93 -36 116 -85 23 -53 23 -71 -1 -124 -28 -62 -68 -83 -160
-83 -127 0 -210 60 -210 154 0 30 -3 37 -10 26 -16 -25 -11 -93 9 -126 11 -18
33 -40 50 -50 17 -10 31 -21 31 -25 0 -4 -21 -20 -47 -35 -66 -38 -146 -115
-210 -202 l-54 -72 -57 6 c-106 11 -298 53 -388 85 -479 169 -779 536 -895
1094 -32 156 -33 410 -1 537 28 113 63 197 118 280 62 92 134 155 251 216 141
75 239 156 409 343 322 353 353 381 478 430 73 29 106 35 106 20z m-2880 -468
c0 -7 -9 -31 -19 -52 -39 -75 -50 -243 -24 -348 4 -20 1 -23 -22 -23 -67 0
-134 129 -121 234 13 97 71 192 129 207 30 8 57 -1 57 -18z m399 17 c23 -12
51 -80 51 -125 0 -33 -1 -34 -42 -37 -35 -2 -46 -9 -65 -36 -12 -18 -23 -37
-25 -43 -4 -12 -148 11 -148 24 0 28 62 130 106 175 54 53 84 64 123 42z
m-219 -18 l23 -18 -36 -75 c-19 -41 -38 -82 -41 -91 -4 -14 -16 -18 -48 -18
-24 0 -54 -7 -66 -16 -21 -15 -22 -14 -22 19 0 101 72 217 135 217 18 0 43 -8
55 -18z m-361 -8 c3 -2 -2 -19 -11 -37 -8 -17 -19 -48 -23 -67 -13 -64 -76
-110 -149 -110 -105 0 -37 183 82 220 25 8 91 4 101 -6z m1331 -25 c276 -128
339 -599 112 -836 -69 -72 -138 -105 -232 -111 -101 -5 -170 20 -249 93 -165
153 -208 434 -99 655 42 87 135 180 208 208 76 30 183 26 260 -9z m859 -43
c22 -27 25 -85 6 -106 -21 -23 -45 -26 -45 -7 0 7 -7 22 -15 33 -14 18 -15 16
-9 -19 4 -24 2 -43 -7 -53 -12 -15 -81 -54 -95 -54 -4 0 -4 20 -1 45 8 55 49
138 79 159 28 20 72 21 87 2z m-1776 -203 c48 -8 96 -23 107 -32 25 -21 93
-160 137 -280 32 -88 34 -103 31 -188 -4 -111 -15 -127 -102 -145 -52 -11 -64
-10 -119 9 l-62 22 30 -25 c17 -13 54 -32 83 -40 49 -15 57 -14 100 1 26 9 54
18 62 21 11 3 26 -18 54 -72 22 -42 79 -137 128 -211 48 -75 88 -141 88 -147
0 -6 -11 -34 -24 -61 -43 -93 -127 -155 -211 -155 -56 0 -43 -20 -205 322
l-125 264 -60 12 c-50 9 -66 17 -92 47 -33 39 -208 373 -200 382 3 2 66 -8
141 -23 l136 -28 1 -50 0 -51 24 80 c13 44 24 83 25 87 0 3 -19 15 -42 27
-134 64 -187 181 -111 241 29 23 39 22 206 -7z m620 -1044 c12 -7 25 -17 29
-23 13 -19 9 -141 -7 -192 -18 -60 -18 -59 0 -44 8 7 20 30 27 51 13 44 28 49
59 18 20 -20 21 -29 16 -96 -13 -168 -133 -303 -285 -319 -82 -9 -148 42 -159
124 l-6 41 35 -6 c40 -6 139 20 157 41 10 12 6 13 -26 5 -62 -14 -114 -10
-172 14 -70 28 -96 62 -87 112 l7 36 30 -26 c39 -32 87 -33 155 -1 95 44 180
183 153 252 -8 22 -6 24 22 24 17 0 40 -5 52 -11z m179 -496 c86 -129 154
-217 191 -250 41 -36 245 -164 405 -254 62 -35 112 -67 112 -72 0 -4 -19 -29
-43 -55 -46 -49 -184 -214 -228 -270 l-25 -33 -95 72 c-286 219 -396 321 -478
443 -96 143 -171 264 -171 276 0 5 8 10 18 10 9 0 44 13 78 29 62 29 123 88
152 149 9 17 19 32 24 32 4 0 31 -35 60 -77z m1045 -527 c27 -18 62 -41 78
-49 59 -32 58 -27 25 -118 -19 -50 -44 -97 -62 -116 -73 -76 -186 -44 -203 57
-6 34 0 52 50 149 31 61 59 111 61 111 2 0 25 -15 51 -34z m-168 -271 c24 -68
97 -99 166 -71 21 9 40 15 41 13 3 -3 -44 -132 -243 -665 -58 -156 -104 -284
-102 -286 2 -2 40 -23 84 -46 151 -82 200 -116 197 -136 -22 -133 -2 -702 33
-961 l6 -42 -68 -22 c-96 -30 -295 -37 -417 -15 -91 18 -127 16 -59 -3 140
-40 405 -41 500 -4 40 16 56 18 67 9 19 -14 76 -168 76 -206 0 -36 -14 -39
-205 -46 -183 -7 -267 5 -519 76 -214 60 -316 80 -402 80 -35 0 -64 4 -64 10
0 5 12 40 26 77 23 59 27 82 26 171 l-1 103 29 10 c33 12 35 16 50 125 7 44
15 86 19 93 11 17 229 -37 375 -94 66 -25 120 -44 122 -42 6 6 -168 89 -249
118 -62 23 -219 59 -257 59 -4 0 -11 7 -14 15 -4 11 5 22 28 36 32 18 33 23
39 92 3 39 19 137 37 217 52 241 102 465 106 469 2 2 42 -11 89 -29 50 -19 89
-29 94 -24 10 10 146 381 219 594 51 149 140 360 151 360 4 0 13 -16 20 -35z
m1019 -623 c128 -107 261 -226 297 -265 57 -62 189 -246 197 -275 2 -5 -24
-28 -58 -51 -33 -22 -84 -66 -114 -96 -43 -46 -55 -54 -65 -43 -7 7 -57 70
-113 139 -87 109 -113 135 -194 189 -89 61 -417 262 -505 310 -24 13 -43 30
-43 37 0 62 70 293 116 385 l24 48 113 -92 c61 -51 217 -180 345 -286z m639
-592 c37 -22 49 -54 34 -93 -10 -25 -15 -27 -66 -27 -54 0 -117 -18 -129 -38
-3 -6 20 -7 63 -4 76 5 124 -7 188 -47 47 -29 51 -43 26 -96 -20 -42 -33 -45
-33 -6 0 39 -24 56 -79 55 -121 -2 -269 -145 -259 -251 3 -36 2 -38 -27 -38
-26 0 -33 7 -55 50 -20 40 -25 65 -25 122 1 77 -11 88 -22 21 l-6 -41 -18 22
c-22 27 -19 50 22 139 20 44 50 85 96 131 111 110 216 147 290 101z m40 -292
c6 -7 36 -96 68 -198 68 -220 107 -340 129 -396 16 -38 29 -47 224 -159 114
-65 248 -143 299 -173 90 -55 92 -57 103 -104 11 -52 13 -98 5 -98 -13 0 -145
94 -145 104 0 6 -4 4 -10 -4 -13 -21 -1 -31 111 -101 54 -33 108 -72 118 -85
19 -24 85 -211 94 -267 6 -38 -6 -42 -57 -17 -35 18 -47 32 -65 74 -11 28 -38
80 -59 115 -31 54 -50 72 -120 117 -45 30 -85 54 -87 54 -3 0 -5 -6 -5 -14 0
-8 35 -35 78 -60 69 -40 82 -53 120 -116 52 -87 78 -164 87 -257 7 -72 7 -73
-15 -73 -30 0 -94 67 -139 146 -67 116 -78 129 -142 168 -35 21 -78 47 -94 57
-31 18 -31 18 -63 -4 -17 -12 -32 -25 -32 -28 0 -4 23 -55 51 -114 51 -107 51
-108 60 -244 12 -171 8 -191 -34 -191 -18 0 -37 4 -43 8 -27 18 -81 160 -123
327 -25 96 -37 124 -88 201 -100 152 -142 210 -181 254 l-38 43 -44 -23 c-88
-44 -107 -65 -132 -142 -27 -84 -59 -122 -111 -132 -45 -8 -107 17 -107 44 0
10 10 42 23 71 13 30 43 109 67 177 l43 123 91 82 c50 45 92 87 94 93 3 10
-33 107 -77 209 -77 178 -132 331 -126 353 16 62 107 154 180 180 41 14 81 14
92 0z m-2933 -3813 c51 -12 65 -21 103 -64 46 -52 95 -76 143 -69 36 5 36 37
0 86 -16 23 -30 44 -30 46 0 2 19 2 43 -1 51 -6 72 -25 89 -78 l13 -40 78 -3
c83 -3 87 0 62 48 -20 39 -29 39 207 -10 230 -48 377 -92 404 -121 18 -21 18
-21 -1 -35 -61 -45 -259 -77 -475 -77 -249 0 -320 22 -580 179 -104 62 -222
114 -260 114 -30 0 -24 19 8 26 15 3 32 7 37 9 24 8 105 3 159 -10z m3141
-463 c61 -8 60 -8 119 -214 32 -113 41 -156 32 -164 -22 -22 -80 -34 -166 -34
-73 0 -108 6 -221 41 -160 49 -298 62 -361 36 -21 -9 -38 -13 -38 -9 1 12 48
173 51 175 8 5 80 37 83 37 2 0 1 -12 -2 -27 -4 -24 -3 -25 19 -19 125 35 291
30 414 -13 32 -12 61 -21 62 -21 7 0 2 58 -8 95 -24 87 -65 106 -204 95 -55
-4 -102 -6 -104 -4 -2 1 19 9 45 18 51 15 191 19 279 8z"/>
<path d="M4193 10010 c-18 -11 -33 -23 -33 -27 0 -17 64 -43 170 -70 102 -26
112 -27 138 -13 32 19 40 48 15 57 -10 3 -37 14 -60 24 -23 11 -48 19 -56 19
-8 0 -28 7 -43 15 -40 21 -93 19 -131 -5z"/>
<path d="M4837 9723 c-15 -14 -5 -41 29 -81 20 -23 37 -52 39 -65 2 -12 8 -35
14 -52 36 -102 83 -269 91 -325 5 -36 20 -108 33 -160 20 -80 27 -96 45 -98
13 -2 25 5 33 19 19 36 4 234 -27 364 -43 176 -56 214 -86 259 -15 22 -28 49
-28 58 0 11 -19 27 -49 43 -27 13 -52 29 -56 35 -7 11 -28 13 -38 3z"/>
<path d="M3988 9669 c-34 -19 -18 -99 20 -99 7 0 32 -13 55 -29 23 -15 52 -31
65 -35 12 -4 57 -41 98 -81 42 -41 81 -72 85 -69 23 14 4 49 -58 106 -37 35
-85 82 -107 105 -47 48 -125 113 -134 113 -4 0 -15 -5 -24 -11z"/>
<path d="M4270 9225 c-19 -7 -47 -16 -63 -19 -15 -4 -36 -15 -46 -25 -10 -10
-35 -30 -55 -43 -20 -14 -47 -40 -60 -59 -35 -48 -103 -188 -111 -227 -7 -36
19 -135 41 -153 23 -19 29 19 10 70 -18 52 -21 91 -6 91 6 0 10 9 10 20 0 21
26 80 40 90 3 3 20 25 37 50 17 25 48 62 70 82 37 36 169 108 198 108 8 0 15
7 15 15 0 19 -33 19 -80 0z"/>
<path d="M4552 9128 c-22 -22 -13 -60 24 -95 32 -32 154 -263 154 -293 0 -6 6
-10 13 -7 8 3 11 24 10 65 -2 70 -31 144 -89 225 -20 28 -43 65 -50 84 -15 34
-40 43 -62 21z"/>
<path d="M3453 8844 c-3 -8 -1 -25 5 -37 21 -44 31 -94 36 -200 6 -110 19
-185 37 -219 6 -11 25 -73 43 -138 19 -65 46 -140 61 -168 34 -63 128 -160
163 -168 15 -4 38 -15 52 -24 37 -26 119 -40 233 -40 114 0 167 14 251 68 32
20 63 32 85 32 81 1 94 60 21 94 -36 17 -42 26 -56 75 -14 51 -27 67 -153 192
-119 118 -143 137 -184 147 -25 7 -50 11 -54 10 -5 -2 -62 52 -128 118 -67 67
-136 129 -155 139 -19 10 -51 30 -70 45 -32 25 -157 90 -174 90 -4 0 -9 -7
-13 -16z m128 -84 c10 0 49 -26 86 -58 38 -32 102 -87 143 -121 41 -34 89 -85
107 -112 19 -27 38 -49 43 -49 6 0 10 -9 10 -20 0 -16 7 -20 30 -20 47 0 158
-70 232 -147 44 -45 108 -140 108 -158 0 -7 5 -15 11 -17 8 -3 6 -15 -6 -38
l-18 -34 -19 41 c-29 63 -287 306 -363 343 -16 8 -39 23 -50 33 -30 28 -202
147 -211 147 -5 0 -22 12 -39 26 -16 14 -44 32 -61 40 -25 12 -33 24 -42 65
-17 71 -16 93 4 85 9 -3 24 -6 35 -6z m164 -621 c56 -53 217 -159 240 -159 8
0 37 -11 63 -23 26 -13 63 -31 82 -40 l35 -16 -65 5 c-152 12 -190 23 -281 80
-95 60 -122 93 -158 189 l-23 60 29 -25 c15 -13 51 -46 78 -71z"/>
</g>
</svg>
