<?xml version="1.0" standalone="no"?>
<!DOCTYPE svg PUBLIC "-//W3C//DTD SVG 20010904//EN"
 "http://www.w3.org/TR/2001/REC-SVG-20010904/DTD/svg10.dtd">
<svg version="1.0" xmlns="http://www.w3.org/2000/svg"
 width="962.000000pt" height="1029.000000pt" viewBox="0 0 962.000000 1029.000000"
 preserveAspectRatio="xMidYMid meet">
<metadata>
Created by potrace 1.16, written by Peter Selinger 2001-2019
</metadata>
<g transform="translate(0.000000,1029.000000) scale(0.100000,-0.100000)"
fill="#000000" stroke="none">
<path d="M1893 9603 c-13 -2 -23 -9 -23 -14 0 -5 -11 -9 -25 -9 -14 0 -25 -6
-25 -12 0 -7 -18 -24 -40 -37 -22 -14 -43 -36 -48 -51 -5 -14 -23 -41 -41 -60
-76 -85 -91 -103 -91 -111 0 -5 -6 -9 -14 -9 -7 0 -19 -14 -27 -31 -7 -18 -23
-42 -36 -55 -13 -13 -23 -32 -23 -42 0 -11 -6 -22 -14 -25 -8 -3 -18 -29 -23
-59 -7 -48 -12 -55 -46 -71 -20 -9 -37 -24 -37 -33 0 -9 -6 -14 -13 -11 -8 3
-30 -12 -49 -32 -47 -51 -55 -104 -21 -145 13 -16 22 -34 19 -41 -2 -7 4 -21
14 -30 10 -9 21 -32 25 -51 3 -19 10 -32 14 -29 11 6 21 -19 21 -51 0 -15 6
-24 15 -24 8 0 15 -7 15 -15 0 -8 7 -15 15 -15 8 0 15 -5 15 -11 0 -11 24 -39
34 -39 3 0 17 -11 32 -25 15 -14 33 -25 39 -25 7 0 15 -7 19 -15 3 -8 11 -15
19 -15 7 0 24 -11 37 -25 13 -14 33 -25 46 -25 12 0 27 -6 33 -14 25 -30 121
-31 121 0 0 8 6 14 13 14 7 0 18 20 25 45 7 28 18 45 27 45 9 0 20 11 24 24 5
13 17 26 27 30 9 4 14 9 11 13 -4 3 -2 15 4 25 10 18 19 20 83 16 52 -2 78 -8
90 -21 10 -9 37 -22 62 -28 24 -6 44 -16 44 -21 0 -5 25 -33 55 -63 37 -36 55
-61 55 -78 0 -14 7 -27 15 -31 8 -3 18 -23 21 -46 4 -22 10 -40 15 -40 5 0 9
-11 9 -25 0 -17 18 -43 58 -82 31 -32 57 -62 57 -68 0 -5 11 -12 25 -13 14 -2
37 -15 51 -28 19 -18 35 -24 60 -23 40 3 59 -6 59 -27 0 -8 6 -14 13 -14 30
-1 50 -51 49 -124 -1 -67 15 -165 29 -176 10 -8 33 -55 31 -63 -1 -4 -6 -37
-11 -73 -6 -36 -16 -73 -24 -83 -9 -10 -13 -28 -10 -49 3 -19 -1 -49 -10 -70
-29 -70 -43 -276 -19 -291 33 -20 49 -74 44 -149 l-5 -74 34 -29 c19 -16 37
-29 41 -29 4 0 10 -10 13 -22 13 -45 37 -89 51 -95 8 -3 14 -10 14 -17 1 -15
46 -66 60 -66 5 0 10 -7 10 -15 0 -8 9 -15 19 -15 28 0 52 -11 45 -21 -3 -5 0
-9 6 -9 22 0 71 -65 76 -102 4 -20 11 -36 17 -35 6 1 14 -18 19 -43 4 -25 12
-46 18 -48 5 -2 10 -22 10 -45 0 -23 7 -60 15 -82 8 -22 14 -59 15 -83 0 -24
5 -53 12 -65 14 -25 16 -57 22 -261 3 -105 8 -151 16 -156 10 -6 11 -34 6
-113 -5 -81 -4 -106 6 -109 16 -6 15 -281 -1 -368 -27 -147 -32 -181 -26 -189
6 -11 -15 -61 -26 -61 -5 0 -10 -15 -13 -32 -2 -18 -10 -71 -17 -118 -11 -79
-14 -87 -45 -110 -18 -14 -34 -33 -34 -42 0 -10 -6 -18 -13 -18 -10 0 -36 -64
-41 -102 -1 -3 -4 -10 -8 -14 -5 -4 -8 -18 -8 -31 0 -12 -4 -23 -9 -23 -5 0
-15 -17 -22 -37 -6 -21 -18 -41 -25 -46 -19 -11 -37 -108 -25 -140 17 -43 -12
-116 -59 -152 -21 -16 -39 -36 -40 -43 0 -7 -7 -15 -15 -18 -8 -4 -15 -11 -15
-18 -1 -15 -36 -56 -49 -56 -6 0 -13 -23 -17 -50 -5 -35 -13 -55 -28 -65 -11
-8 -17 -15 -13 -15 5 0 -6 -15 -22 -33 -17 -17 -31 -39 -31 -48 0 -9 -8 -24
-19 -33 -12 -11 -20 -35 -23 -69 -2 -29 -12 -70 -22 -92 -31 -70 -34 -79 -41
-125 -3 -24 -14 -58 -25 -75 -10 -16 -21 -48 -25 -70 -8 -46 -25 -98 -37 -105
-4 -3 -12 -46 -17 -94 -8 -67 -16 -95 -31 -111 -11 -12 -23 -38 -27 -58 -3
-20 -14 -44 -24 -53 -11 -9 -19 -28 -19 -41 0 -13 -9 -43 -20 -65 -11 -23 -20
-51 -20 -62 0 -12 -7 -34 -15 -50 -19 -36 -19 -45 1 -84 14 -29 54 -46 54 -24
0 5 11 15 25 22 14 7 25 22 25 32 0 18 13 22 58 18 15 -1 22 3 20 12 -4 22 24
110 39 115 7 3 13 13 13 23 0 11 5 22 10 25 6 3 10 19 10 35 0 15 6 30 14 33
7 3 17 18 20 33 4 15 15 38 26 51 12 16 20 48 24 106 10 123 14 137 39 137 16
0 28 12 42 43 11 23 28 49 37 57 17 15 42 115 33 130 -3 5 4 11 14 15 20 6 24
14 36 73 4 18 13 36 21 39 7 3 16 21 20 41 7 43 26 92 35 92 4 0 9 18 13 40 4
26 11 40 21 40 8 0 15 7 15 16 0 20 40 87 48 80 2 -3 0 -11 -5 -18 -5 -7 -10
-29 -10 -49 -1 -20 -8 -50 -17 -67 -9 -17 -16 -38 -16 -47 0 -8 -4 -15 -10
-15 -5 0 -10 -9 -10 -19 0 -11 -4 -23 -10 -26 -6 -3 -10 -33 -10 -65 0 -49 -4
-64 -25 -86 -14 -15 -25 -36 -25 -48 0 -12 -9 -46 -20 -76 -11 -30 -20 -65
-20 -77 0 -12 -5 -25 -10 -28 -6 -3 -10 -21 -10 -38 0 -18 -11 -54 -25 -82
-14 -28 -25 -68 -25 -91 0 -27 -5 -44 -14 -47 -8 -3 -18 -22 -22 -41 -3 -20
-10 -36 -15 -36 -5 0 -9 -5 -9 -11 0 -6 -9 -22 -20 -36 -11 -14 -20 -40 -20
-57 0 -20 -7 -36 -20 -43 -21 -13 -36 -70 -26 -100 7 -23 54 -44 82 -37 16 4
23 16 28 45 4 25 12 39 21 39 9 0 15 9 15 23 0 26 10 41 30 49 9 3 33 50 53
104 21 55 47 121 58 148 10 27 19 66 19 88 0 23 8 51 19 66 10 15 21 50 25 77
22 162 29 193 42 188 10 -3 14 3 14 19 0 14 5 50 11 81 9 45 16 57 30 57 17 0
23 22 18 66 0 3 9 14 20 23 12 10 21 28 21 39 0 11 5 24 10 27 10 6 14 -6 11
-37 -2 -20 -3 -20 57 -22 27 -2 42 2 42 10 0 6 11 14 25 17 25 4 26 3 19 -39
-7 -47 -3 -51 39 -35 21 8 25 18 30 75 6 64 37 153 49 140 3 -3 9 5 13 17 4
12 16 32 26 43 11 11 19 25 19 31 0 14 40 52 41 39 7 -81 -15 -310 -32 -330
-16 -20 -58 -171 -66 -239 -3 -27 -10 -53 -15 -56 -5 -3 -14 -34 -20 -70 -7
-35 -15 -66 -19 -69 -4 -3 -10 -23 -12 -45 -9 -74 -19 -115 -29 -115 -6 0 -8
-18 -6 -40 2 -22 1 -40 -2 -40 -18 0 -50 -142 -50 -221 0 -26 -5 -51 -10 -54
-19 -12 -41 -80 -47 -146 -5 -54 -3 -68 12 -83 33 -33 98 0 110 56 4 16 13 32
20 34 14 6 26 61 30 143 3 48 15 70 37 71 4 0 10 -9 13 -20 3 -11 13 -20 21
-20 21 0 17 -17 -6 -23 -23 -6 -39 -39 -22 -45 7 -2 12 -12 12 -22 0 -19 26
-30 73 -30 31 0 33 -8 12 -68 -9 -26 -13 -57 -9 -81 5 -34 10 -40 35 -43 16
-3 29 -2 29 2 0 4 11 13 25 20 14 7 25 21 25 31 0 9 9 19 20 22 11 3 23 13 26
24 4 10 18 42 30 71 15 31 24 72 24 101 0 38 5 52 25 71 14 13 25 29 25 37 0
7 4 13 9 13 5 0 23 12 40 27 25 23 41 28 93 29 77 3 111 11 102 25 -4 7 20 9
77 4 110 -8 129 -13 129 -30 0 -8 7 -15 15 -15 8 0 15 -7 15 -16 0 -8 6 -22
14 -29 7 -8 17 -35 20 -60 4 -25 14 -61 22 -80 8 -19 14 -52 14 -74 0 -22 5
-43 11 -47 8 -4 10 -32 7 -80 -6 -82 -4 -84 68 -84 37 0 44 3 44 20 0 11 6 20
14 20 7 0 16 9 19 20 7 28 50 26 70 -2 11 -18 24 -23 60 -23 54 0 84 23 90 69
3 26 4 24 5 -11 2 -50 17 -55 69 -23 32 19 33 19 43 1 12 -23 72 -35 115 -23
24 7 31 15 33 38 1 16 7 55 12 86 13 69 14 239 3 247 -9 6 -28 101 -37 184 -3
26 -10 56 -16 67 -5 10 -10 43 -10 73 0 37 -4 57 -14 60 -12 5 -33 97 -27 122
5 22 -11 75 -21 69 -7 -5 -8 16 -3 70 6 63 4 77 -9 82 -10 4 -15 18 -14 43 0
46 -9 80 -29 103 -8 9 -12 21 -9 27 8 12 -31 111 -49 126 -6 6 -14 18 -18 28
-5 13 -18 17 -51 17 -25 0 -48 -5 -51 -10 -4 -6 -4 -44 0 -85 5 -54 13 -80 28
-96 15 -17 20 -33 18 -64 -1 -27 3 -48 12 -57 10 -9 15 -33 14 -64 -1 -48 4
-80 22 -158 6 -22 7 -52 4 -68 -3 -17 1 -37 10 -51 8 -13 17 -49 21 -81 3 -32
10 -64 15 -70 5 -6 9 -33 9 -60 0 -27 5 -52 10 -55 15 -9 26 -71 13 -71 -6 0
-11 5 -11 10 0 6 -7 10 -15 10 -8 0 -15 8 -15 18 -1 56 -46 132 -80 132 -14 0
-31 4 -39 9 -11 7 -10 12 6 28 12 12 18 32 18 55 -1 24 2 35 10 31 7 -2 15 6
19 19 10 39 7 48 -19 48 -15 0 -25 -6 -25 -15 0 -8 -6 -12 -14 -9 -10 4 -16
-6 -21 -35 -9 -56 -25 -41 -25 24 0 29 -5 55 -11 57 -6 2 -11 31 -10 71 0 52
-3 67 -14 67 -9 0 -15 10 -15 25 0 21 5 25 28 25 33 0 52 16 52 43 0 14 -5 18
-20 14 -15 -4 -20 0 -20 13 0 11 -4 21 -10 25 -5 3 -7 12 -4 19 6 14 -22 30
-37 20 -5 -3 -9 -1 -9 5 0 5 4 13 10 16 6 3 10 24 10 47 0 39 -1 40 -30 36
-20 -3 -30 0 -30 8 0 24 12 44 27 44 9 0 13 8 11 23 -2 15 -13 25 -35 31 -31
10 -53 34 -30 33 53 -1 60 2 54 33 -5 20 -3 30 6 30 6 0 25 7 40 15 26 13 30
13 49 -4 16 -15 43 -21 134 -26 109 -7 115 -7 132 15 14 17 23 20 45 15 21 -6
26 -12 22 -26 -4 -13 -1 -19 9 -19 10 0 17 -13 21 -37 3 -21 10 -56 15 -78 6
-22 14 -69 20 -103 5 -35 13 -69 18 -75 5 -7 12 -37 15 -67 15 -132 21 -165
34 -178 8 -8 13 -30 11 -53 -1 -22 3 -44 10 -51 7 -7 12 -23 12 -37 0 -39 11
-71 24 -71 7 0 12 -27 14 -72 2 -40 9 -86 16 -103 6 -16 13 -48 15 -70 1 -22
8 -49 16 -60 8 -13 13 -50 12 -95 0 -41 5 -91 11 -110 7 -22 9 -75 6 -145 -10
-203 -10 -197 9 -209 23 -15 71 11 75 42 2 13 13 24 28 28 13 3 24 10 24 14 0
5 9 12 20 15 36 11 18 65 -21 65 -22 0 -29 20 -29 79 0 43 2 48 23 47 31 -1
38 43 8 51 -12 3 -21 14 -21 24 0 11 -4 19 -9 19 -8 0 -12 68 -12 182 0 20 -4
40 -9 43 -6 3 -10 32 -10 64 0 68 -9 123 -20 116 -4 -2 -8 30 -9 72 -1 43 -7
80 -13 84 -6 4 -13 31 -16 60 -3 30 -8 56 -12 59 -4 3 -10 31 -14 62 -7 54 -6
57 16 60 17 2 24 11 26 32 4 28 2 29 -32 23 -31 -5 -36 -3 -36 14 0 11 -6 22
-12 24 -9 4 -13 28 -13 70 -1 43 -6 70 -17 82 -8 10 -18 37 -21 60 -3 23 -12
50 -21 58 -9 9 -16 30 -16 46 0 18 -5 29 -14 29 -7 0 -16 12 -19 26 -4 24 -3
25 37 22 31 -2 41 1 41 12 0 11 20 19 65 27 76 13 140 16 139 6 -2 -16 14 -53
22 -53 5 0 9 -9 9 -19 0 -11 4 -22 10 -26 5 -3 7 -12 4 -19 -3 -8 -1 -17 5
-21 6 -3 11 -26 11 -51 0 -33 7 -54 25 -79 22 -28 25 -39 19 -75 -6 -35 -4
-45 11 -56 15 -11 18 -26 17 -81 -1 -37 2 -69 7 -73 6 -3 12 -126 15 -293 4
-229 8 -294 20 -318 10 -21 13 -45 9 -79 -4 -33 -2 -50 5 -50 16 0 26 -39 24
-96 -2 -36 2 -53 11 -57 10 -4 15 -26 16 -70 2 -77 13 -119 38 -146 19 -20 19
-20 48 5 27 23 35 25 90 19 54 -5 61 -4 73 15 8 13 11 33 7 50 -4 16 -2 37 3
46 7 13 11 10 16 -20 4 -20 11 -36 16 -36 6 0 10 -7 10 -15 0 -39 86 -86 104
-57 10 17 19 192 10 192 -9 0 -35 171 -40 270 -2 25 -9 49 -18 55 -9 7 -17 34
-19 64 -3 30 -9 56 -14 60 -4 3 -9 29 -9 56 -3 94 -4 106 -13 101 -13 -9 -20
32 -16 97 3 46 1 58 -9 54 -10 -4 -15 10 -19 54 -3 33 -11 66 -17 74 -7 8 -11
34 -9 59 2 24 0 42 -5 39 -14 -9 -26 19 -26 60 0 21 -7 45 -15 53 -10 11 -15
36 -15 84 0 40 -4 70 -11 72 -6 2 -11 25 -11 52 0 38 -3 49 -18 53 -14 4 -18
14 -17 50 0 33 -5 50 -17 59 -13 9 -16 20 -12 41 5 23 1 35 -19 57 -14 15 -25
36 -25 47 0 10 -7 19 -15 19 -11 0 -14 14 -13 63 0 35 -4 73 -11 84 -6 12 -11
29 -11 38 0 9 -10 31 -22 47 -18 25 -22 49 -26 142 -7 153 -6 178 17 456 11
135 17 257 14 273 -3 15 -1 33 5 40 6 6 14 65 18 130 3 65 11 120 15 123 5 3
9 25 9 50 0 39 13 80 31 94 4 3 14 82 23 175 28 289 38 359 50 375 23 29 36
71 36 120 0 40 4 50 20 55 11 3 20 11 20 16 0 5 5 9 10 9 6 0 10 -16 10 -35 0
-31 3 -35 36 -41 29 -5 38 -3 50 15 8 11 22 21 30 21 8 0 17 7 20 15 4 8 12
15 19 15 6 0 20 9 30 20 10 11 26 20 36 20 10 0 24 7 33 15 8 8 17 15 21 15
18 0 105 74 105 89 0 5 14 21 31 34 30 23 32 30 36 98 4 67 2 76 -19 99 -13
14 -22 33 -20 43 2 11 -3 17 -15 17 -13 0 -19 9 -20 32 -2 18 -7 34 -13 36
-17 6 -11 26 10 40 11 7 20 23 20 36 0 12 9 31 20 41 11 10 20 28 20 40 0 12
9 34 20 48 11 14 20 29 20 34 0 12 57 73 68 73 5 0 15 7 22 15 7 8 21 15 31
15 11 0 19 5 19 10 0 15 52 59 69 60 25 0 90 35 91 48 0 6 7 12 15 12 8 0 18
16 24 38 10 38 32 236 35 309 0 23 3 43 6 45 33 24 87 36 169 37 76 2 97 5
107 19 17 23 25 99 18 155 -5 34 -3 47 6 47 7 0 10 6 7 14 -3 8 2 16 15 19 11
3 17 10 13 16 -3 6 -1 11 4 11 6 0 11 6 11 13 0 6 22 22 49 34 26 13 54 30 61
38 7 8 19 15 27 15 7 0 25 7 39 17 21 13 43 15 138 10 73 -4 117 -2 123 4 22
22 45 3 70 -61 14 -36 32 -69 40 -73 7 -4 13 -17 13 -27 0 -11 6 -20 14 -20 8
0 18 -9 21 -20 3 -11 13 -20 21 -20 8 0 14 -9 14 -20 0 -11 3 -20 8 -20 8 0
32 -49 32 -67 0 -7 7 -13 15 -13 8 0 15 -6 15 -14 0 -8 9 -17 20 -21 11 -3 19
-9 19 -13 -3 -20 2 -32 14 -32 6 0 18 -12 24 -28 23 -51 66 -67 176 -65 63 2
105 7 117 16 11 8 37 12 60 10 31 -2 43 1 52 17 7 11 18 20 24 20 6 0 17 7 24
15 7 8 29 15 50 15 25 0 40 5 44 16 3 8 11 12 17 9 6 -4 13 2 16 14 3 12 12
21 19 21 8 0 14 5 14 11 0 6 11 24 25 41 14 16 25 36 25 43 0 8 7 18 15 23 9
4 22 30 29 58 7 27 25 72 39 99 15 27 27 60 27 72 0 14 6 23 15 23 8 0 17 12
21 28 3 15 8 34 10 43 5 20 -5 49 -17 49 -17 0 -98 64 -99 78 0 6 -6 12 -14
12 -7 0 -16 9 -19 19 -5 20 -30 27 -152 37 -43 3 -74 11 -81 20 -6 8 -19 14
-28 14 -9 0 -16 7 -16 16 0 9 -9 18 -20 21 -26 7 -28 59 -2 67 26 9 39 54 30
106 -4 25 -12 46 -18 48 -5 2 -10 10 -10 18 0 8 -7 17 -15 20 -8 4 -15 12 -15
20 0 7 -6 17 -13 21 -8 4 -16 16 -20 26 -3 9 -13 17 -22 17 -8 0 -15 6 -15 13
0 14 -49 39 -61 31 -5 -3 -13 6 -19 20 -17 46 -123 75 -133 37 -3 -13 0 -18 8
-15 7 3 19 -2 28 -10 9 -9 20 -16 26 -16 6 0 11 -7 11 -15 0 -9 7 -18 15 -21
8 -4 15 -12 15 -20 0 -8 10 -14 25 -14 14 0 25 -3 25 -6 0 -13 -34 -38 -56
-40 -13 -1 -33 -12 -46 -23 -12 -12 -30 -21 -40 -21 -10 0 -18 -4 -18 -10 0
-5 -11 -12 -25 -16 -14 -3 -22 -11 -19 -16 4 -5 -8 -25 -26 -43 -24 -25 -33
-44 -36 -82 -5 -46 -3 -51 17 -56 31 -8 34 -4 49 49 9 30 20 48 32 52 10 2 18
13 18 23 0 11 6 19 14 19 8 0 16 7 20 15 3 8 14 15 24 15 10 0 23 5 30 12 14
14 80 38 107 38 31 0 55 -35 55 -79 0 -29 -5 -40 -19 -44 -13 -3 -20 -17 -24
-53 -3 -27 -10 -50 -16 -52 -33 -11 20 -62 64 -62 10 0 15 -9 15 -27 0 -39
-14 -56 -47 -60 -15 -2 -33 -10 -39 -18 -6 -8 -19 -15 -28 -15 -9 0 -16 -8
-16 -20 0 -11 -7 -20 -15 -20 -9 0 -18 -7 -21 -15 -4 -8 -15 -15 -25 -15 -10
0 -19 -6 -19 -13 0 -8 -11 -24 -25 -37 -14 -13 -25 -35 -25 -48 0 -16 -15 -41
-40 -66 -71 -72 -77 -80 -89 -117 -15 -47 -45 -43 -61 7 -7 19 -18 34 -26 34
-8 0 -14 9 -14 19 0 11 -5 21 -12 23 -7 3 -13 35 -15 84 -3 73 -6 81 -33 106
-17 15 -30 32 -30 38 0 5 -12 10 -27 10 -19 0 -39 13 -68 44 l-40 44 -190 16
c-175 14 -192 14 -214 -1 -14 -9 -50 -18 -81 -20 -30 -3 -56 -9 -58 -14 -2 -5
-18 -9 -35 -9 -20 0 -40 -9 -54 -24 -12 -13 -44 -29 -70 -36 -27 -7 -53 -20
-60 -28 -9 -10 -23 -13 -48 -9 -28 5 -41 1 -56 -14 -10 -10 -25 -19 -33 -19
-22 0 -41 -56 -26 -75 16 -19 47 -19 57 -1 5 8 26 17 48 19 32 4 39 8 37 22
-3 13 1 16 13 12 9 -4 18 -1 21 7 3 9 23 13 65 12 38 -1 64 3 71 11 6 7 17 13
24 13 8 0 14 5 14 10 0 6 7 10 15 10 8 0 15 4 15 9 0 5 14 12 30 16 17 4 30
11 30 16 0 9 187 8 192 -2 2 -2 13 -23 26 -46 22 -42 22 -43 3 -43 -11 0 -22
-4 -25 -9 -9 -13 -89 -51 -110 -51 -9 0 -28 12 -41 26 -14 15 -25 23 -26 18 0
-5 -4 1 -10 14 -7 19 -15 23 -46 20 -47 -4 -58 -33 -18 -48 14 -5 29 -18 32
-27 4 -10 13 -24 20 -31 18 -19 16 -43 -7 -72 -15 -19 -26 -24 -54 -22 -34 3
-36 2 -36 -27 0 -16 7 -36 15 -45 9 -9 15 -33 15 -61 0 -38 -3 -46 -15 -41 -9
3 -15 0 -15 -9 0 -14 -37 -20 -97 -15 -13 1 -33 -6 -45 -14 -12 -9 -35 -16
-50 -16 -17 0 -28 -5 -28 -14 0 -7 -8 -16 -18 -18 -22 -6 -32 -74 -32 -222 -1
-89 -20 -193 -33 -180 -4 4 -9 -1 -13 -10 -3 -9 -16 -16 -28 -16 -11 0 -32 -9
-46 -20 -14 -11 -33 -20 -42 -20 -9 0 -22 -8 -27 -17 -9 -16 -12 -16 -21 -3
-5 8 -11 18 -12 21 -2 4 -58 10 -125 14 -116 7 -123 6 -123 -11 0 -19 39 -44
69 -44 9 -1 34 -9 56 -20 22 -11 46 -19 54 -20 8 0 -4 -18 -27 -40 -23 -21
-42 -48 -42 -59 0 -11 -18 -39 -40 -62 -27 -29 -40 -52 -40 -71 0 -15 -4 -28
-10 -28 -9 0 -14 17 -13 48 1 6 -2 12 -6 12 -4 0 -8 6 -8 13 0 27 -33 87 -47
87 -9 0 -16 5 -16 10 0 14 -43 12 -74 -4 -22 -11 -37 -11 -90 0 -74 15 -172
59 -180 80 -3 9 -20 14 -46 14 -23 0 -39 4 -35 9 3 6 -10 17 -30 27 -19 9 -35
23 -35 30 0 8 -6 14 -14 14 -8 0 -30 14 -48 30 -18 17 -40 30 -50 30 -10 0
-18 4 -18 9 0 5 -13 14 -30 20 -16 5 -30 14 -30 20 0 22 -52 61 -80 61 -18 0
-30 5 -30 13 0 7 -19 21 -42 31 -24 9 -61 26 -83 36 -22 10 -57 21 -79 25 -21
3 -48 15 -59 26 -14 13 -35 19 -66 19 -64 0 -174 19 -182 31 -3 6 -55 15 -115
21 -60 5 -126 14 -146 20 -23 7 -77 9 -138 5 -61 -4 -100 -2 -100 3 0 6 -29
10 -64 10 -36 0 -67 4 -70 9 -8 12 -47 2 -65 -17 -9 -9 -25 -12 -43 -8 -17 3
-39 1 -51 -6 -12 -6 -50 -11 -84 -10 -34 1 -74 -3 -90 -9 -15 -7 -49 -13 -75
-15 -60 -5 -192 -40 -196 -52 -2 -6 -21 -8 -42 -5 -24 3 -40 2 -40 -4 0 -6
-20 -16 -45 -23 -25 -7 -45 -17 -45 -22 0 -4 -11 -13 -25 -18 -14 -5 -25 -14
-25 -20 0 -5 -14 -10 -31 -10 -22 0 -32 -5 -36 -20 -3 -10 -14 -22 -24 -25
-11 -4 -17 -10 -14 -15 3 -4 -6 -11 -20 -14 -14 -4 -25 -11 -25 -16 0 -6 -11
-10 -25 -10 -16 0 -25 -6 -25 -15 0 -8 -6 -15 -14 -15 -8 0 -16 -7 -20 -15 -3
-8 -12 -15 -20 -15 -7 0 -16 -7 -20 -15 -3 -8 -12 -15 -21 -15 -8 0 -15 -3
-15 -7 0 -12 -52 -33 -63 -26 -6 3 -7 1 -3 -5 5 -8 0 -12 -13 -12 -12 0 -21
-7 -21 -15 0 -8 -5 -15 -10 -15 -6 0 -8 20 -4 54 4 31 2 56 -3 59 -12 7 -5 57
7 57 5 0 11 19 15 43 8 48 18 57 61 57 17 0 37 6 43 14 7 8 23 17 36 20 14 4
25 11 25 16 0 6 11 10 23 10 13 0 32 9 42 20 10 11 24 20 31 20 7 0 18 9 24
20 6 11 20 20 30 20 11 0 20 7 20 15 0 8 9 15 20 15 11 0 20 6 20 13 0 8 23
19 56 27 31 8 64 21 73 30 17 16 63 40 119 60 17 7 32 16 32 20 0 4 11 5 24 3
29 -6 69 14 60 29 -5 8 11 9 53 4 64 -7 90 5 77 38 -5 13 -21 16 -75 16 -47 0
-71 -4 -74 -12 -4 -9 -21 -12 -53 -10 -39 3 -56 -2 -90 -24 -23 -15 -42 -30
-42 -33 0 -3 -14 -7 -30 -8 -17 -1 -43 -11 -57 -23 -14 -11 -34 -20 -44 -20
-11 0 -19 -4 -19 -10 0 -5 -14 -10 -30 -10 -18 0 -33 -6 -36 -15 -4 -8 -15
-15 -25 -15 -10 0 -19 -7 -19 -15 0 -8 -9 -15 -20 -15 -11 0 -23 -7 -26 -15
-3 -8 -24 -20 -45 -25 -21 -6 -39 -16 -39 -21 0 -6 -7 -8 -15 -5 -9 3 -18 -1
-21 -8 -3 -8 -14 -16 -24 -19 -36 -9 -1 27 46 48 24 11 44 23 44 28 0 4 4 6 9
3 5 -3 11 1 15 9 3 8 17 15 31 15 15 0 25 6 25 14 0 7 9 16 20 19 11 3 20 12
20 21 0 9 5 16 10 16 6 0 10 6 10 14 0 8 6 16 14 19 7 3 16 22 20 41 5 27 12
36 26 36 14 0 20 7 20 21 0 16 5 20 19 16 12 -3 18 0 15 7 -6 14 40 56 61 56
9 0 18 7 21 15 4 8 15 15 25 15 11 0 22 7 25 15 5 11 21 15 60 15 37 0 54 4
54 13 0 9 28 10 130 3 137 -9 160 -4 160 34 0 20 -33 26 -210 36 -103 5 -120
4 -162 -15 -25 -12 -49 -27 -51 -34 -3 -6 -6 -2 -6 10 -1 21 35 67 54 69 6 1
15 11 22 24 17 34 32 40 91 38 42 -2 56 1 63 15 6 9 21 17 34 17 14 0 25 6 25
13 0 9 10 12 31 9 24 -4 31 0 36 16 3 12 11 18 19 15 8 -3 18 5 25 21 7 14 18
26 25 26 7 0 15 8 18 18 3 9 19 26 35 37 16 10 27 23 24 28 -3 4 4 11 15 14
14 3 22 16 26 45 4 22 16 52 26 66 24 30 26 75 5 92 -21 17 -3 30 43 30 30 0
37 -7 33 -38 -1 -7 5 -15 14 -18 8 -3 15 -15 15 -25 0 -12 15 -25 44 -39 25
-11 50 -20 55 -20 6 0 11 -6 11 -14 0 -12 77 -56 99 -56 5 0 22 -7 37 -15 16
-8 49 -15 74 -16 59 -2 105 -13 103 -25 -1 -5 8 -10 20 -11 79 -7 152 -24 188
-42 23 -12 49 -21 58 -19 9 1 30 -3 46 -9 17 -6 69 -15 118 -18 48 -4 87 -10
87 -13 0 -4 14 -13 30 -20 32 -14 147 -12 171 4 8 4 40 7 71 7 39 -1 58 2 58
10 0 8 29 13 92 14 56 1 94 6 96 12 2 7 18 9 43 5 26 -5 39 -3 39 5 0 6 11 16
25 21 14 5 25 14 25 19 0 6 6 8 14 5 17 -7 36 25 36 60 0 26 14 35 25 16 3 -5
20 -10 36 -10 31 0 79 -40 79 -66 0 -8 3 -13 8 -11 4 1 21 -10 37 -26 32 -30
81 -47 132 -47 l33 0 -22 -25 c-12 -14 -27 -25 -34 -25 -6 0 -14 -6 -17 -13
-3 -9 -16 -12 -34 -10 -38 5 -53 -7 -59 -49 -5 -31 -3 -36 17 -41 15 -4 40 2
66 14 23 11 47 18 53 14 5 -3 10 0 10 7 0 12 23 18 86 22 12 0 19 6 17 13 -4
11 72 53 96 53 6 0 11 4 11 9 0 5 14 12 30 16 19 4 36 17 45 35 8 16 25 36 37
44 12 9 18 16 13 16 -11 0 31 26 58 36 9 3 17 11 17 18 0 16 56 66 74 66 9 0
16 7 16 16 0 8 5 12 11 9 6 -4 17 2 25 14 8 12 22 21 30 21 8 0 14 7 14 15 0
9 9 15 25 15 24 0 25 -3 25 -54 0 -56 8 -68 48 -81 17 -5 29 -1 43 14 20 21
26 51 10 51 -18 0 -18 49 0 65 9 9 20 27 23 41 4 13 11 24 16 24 5 0 16 16 24
35 8 19 22 35 30 35 9 0 16 7 16 15 0 10 11 15 35 15 24 0 35 5 35 15 0 8 4
15 8 15 5 0 7 -13 4 -30 -2 -16 -9 -30 -15 -30 -7 0 -8 -31 -3 -92 11 -132 16
-155 43 -171 7 -4 13 -14 13 -21 0 -20 27 -27 40 -10 7 8 15 34 17 58 5 38 2
45 -15 50 -17 6 -19 11 -11 44 5 20 9 58 9 83 0 33 6 51 20 64 11 10 20 24 20
32 0 7 7 13 15 13 8 0 15 7 15 15 0 9 11 21 25 27 14 6 25 18 25 25 0 8 4 12
9 9 11 -7 28 13 32 39 2 10 14 22 27 25 13 3 22 8 20 13 -3 7 47 37 63 37 4 0
20 11 35 25 22 21 36 24 93 24 36 0 80 0 96 0 17 0 44 -1 60 -2 24 -2 31 2 33
21 2 13 -2 22 -10 23 -284 15 -291 15 -296 0 -2 -6 -10 -11 -18 -11 -13 0 -53
-19 -64 -30 -15 -16 -59 -38 -88 -44 -17 -4 -32 -11 -32 -16 0 -4 -9 -6 -20
-3 -11 3 -20 1 -20 -5 0 -6 -17 -14 -37 -18 -40 -6 -113 -48 -113 -63 0 -5
-13 -12 -29 -16 -16 -3 -32 -13 -35 -21 -3 -8 -12 -14 -19 -14 -8 0 -20 -7
-27 -15 -7 -8 -19 -15 -28 -15 -21 0 -122 -50 -147 -73 -33 -30 -77 -48 -133
-54 -29 -3 -55 -10 -58 -14 -3 -5 -14 -9 -24 -9 -10 0 -22 -9 -25 -20 -4 -11
-11 -18 -16 -14 -6 3 -13 -3 -16 -14 -2 -11 -12 -23 -21 -26 -39 -15 -72 -38
-72 -51 0 -10 -12 -13 -41 -11 -29 2 -42 -1 -46 -12 -9 -22 -167 -8 -201 19
-17 13 -40 19 -73 19 -43 0 -49 3 -49 21 0 16 -5 20 -27 17 -24 -3 -28 -7 -25
-30 3 -20 -1 -28 -12 -28 -9 0 -16 7 -16 15 0 8 -9 15 -19 15 -14 0 -18 5 -14
19 6 25 -32 68 -67 76 -15 3 -44 21 -65 40 -21 19 -41 35 -46 35 -4 0 -11 9
-14 20 -3 11 -11 20 -17 20 -5 0 -22 8 -36 19 -15 10 -45 21 -67 24 -78 11
-209 38 -227 48 -10 5 -48 12 -86 15 -37 3 -82 12 -100 20 -18 8 -36 13 -41
10 -5 -3 -11 0 -14 8 -3 8 -25 17 -49 20 -204 30 -628 53 -628 34 0 -7 -34 -9
-100 -5 -78 4 -100 2 -100 -8 0 -7 -9 -15 -20 -18 -11 -3 -20 -12 -20 -20 0
-17 -30 -77 -31 -62 0 6 -4 0 -9 -12 -6 -15 -15 -21 -25 -17 -8 4 -27 -2 -42
-11 -20 -13 -39 -16 -79 -12 -31 3 -75 0 -106 -8 -73 -20 -314 -2 -340 25 -10
10 -26 21 -38 25 -11 3 -20 11 -20 17 0 12 -47 58 -58 58 -4 0 -13 14 -19 31
-7 17 -17 28 -22 24 -6 -3 -11 1 -11 9 0 19 -46 66 -65 66 -8 0 -15 6 -15 14
0 13 -48 26 -102 26 -16 0 -28 5 -28 10 0 6 -7 10 -15 10 -8 0 -15 4 -15 9 0
5 -44 12 -97 16 -104 8 -133 17 -133 41 0 8 -7 17 -15 20 -8 4 -15 15 -15 25
0 10 -7 19 -15 19 -8 0 -15 7 -15 15 0 8 -6 15 -14 15 -7 0 -16 8 -20 18 -8
25 -28 54 -53 79 -13 12 -23 29 -23 38 0 9 -7 18 -15 21 -8 4 -15 12 -15 19 0
8 -8 16 -19 20 -10 3 -31 17 -45 30 -15 14 -34 25 -42 25 -7 0 -14 7 -14 15 0
8 -6 15 -13 15 -7 0 -23 9 -35 20 -12 11 -26 20 -33 20 -7 0 -25 14 -41 30
-15 17 -35 30 -43 30 -8 0 -23 8 -33 18 -11 11 -40 21 -70 25 -31 4 -59 14
-70 25 -16 16 -40 22 -109 27 -48 3 -99 8 -113 9 -14 2 -35 1 -47 -1z m258
-162 c46 -23 93 -41 103 -41 11 0 33 -10 50 -23 17 -13 39 -26 49 -30 10 -4
15 -11 12 -17 -3 -5 0 -10 9 -10 8 0 28 -11 44 -25 17 -14 33 -25 37 -25 4 0
16 -11 27 -25 11 -14 25 -25 33 -25 7 0 15 -9 18 -20 3 -11 12 -20 21 -20 9 0
16 -4 16 -9 0 -5 6 -16 14 -23 7 -8 21 -29 30 -46 9 -18 21 -30 26 -27 6 4 10
-2 10 -12 0 -11 6 -25 13 -32 6 -7 8 -11 2 -10 -16 4 -55 -11 -55 -22 0 -5
-11 -9 -25 -9 -16 0 -25 -6 -25 -15 0 -9 -8 -19 -17 -22 -10 -4 -22 -12 -26
-20 -4 -7 -13 -13 -19 -13 -15 0 -58 -48 -58 -66 0 -8 -4 -13 -9 -9 -13 8 -41
-23 -41 -45 0 -10 -3 -20 -7 -22 -14 -6 -43 -66 -43 -88 0 -12 8 -24 18 -26
12 -4 17 -14 15 -37 -1 -18 -2 -60 -2 -94 -1 -49 -4 -63 -16 -63 -12 0 -13 4
-3 25 10 21 8 29 -9 48 -11 12 -24 32 -27 44 -4 13 -12 22 -18 20 -7 -1 -13
18 -15 48 -2 28 -8 75 -13 106 -19 103 -1 299 27 299 7 0 13 7 13 15 0 23 30
65 46 65 17 0 18 24 4 51 -11 20 -40 27 -40 9 0 -5 -7 -10 -16 -10 -8 0 -13
-4 -9 -9 3 -5 -4 -12 -15 -16 -11 -3 -20 -15 -20 -26 0 -12 -7 -19 -19 -19
-14 0 -20 -10 -25 -40 -3 -22 -10 -40 -15 -40 -5 0 -17 -29 -26 -63 -16 -60
-16 -66 -1 -96 12 -23 18 -62 19 -137 1 -57 1 -104 -1 -104 -1 0 -19 17 -40
38 -20 21 -45 42 -55 45 -10 4 -25 21 -35 38 -9 18 -25 39 -34 48 -10 8 -18
21 -18 27 0 7 -5 14 -12 16 -6 2 -11 20 -10 39 0 18 -5 43 -12 54 -20 32 -39
207 -32 293 3 42 2 83 -3 91 -10 16 -61 7 -61 -11 0 -6 -7 -16 -16 -22 -28
-21 -48 -179 -24 -188 5 -1 14 -30 19 -63 24 -151 56 -264 77 -272 8 -3 14
-14 14 -24 0 -10 9 -24 20 -31 11 -7 20 -18 20 -25 0 -6 8 -14 18 -17 9 -3
-10 -3 -43 -1 -38 3 -64 10 -71 20 -6 8 -16 15 -23 15 -6 0 -11 7 -11 15 0 9
-12 20 -26 25 -22 9 -24 13 -14 25 7 8 9 15 4 15 -5 0 -3 4 5 9 17 11 5 31
-19 31 -10 0 -22 9 -25 20 -3 11 -13 20 -21 20 -8 0 -14 6 -14 14 0 17 -22 26
-65 26 -30 0 -33 -3 -38 -37 -3 -25 0 -42 9 -49 8 -6 14 -18 14 -27 0 -9 9
-19 20 -22 11 -3 20 -13 20 -21 0 -8 7 -17 15 -20 8 -4 15 -11 15 -17 0 -6 12
-24 27 -39 15 -15 21 -28 15 -28 -7 0 -12 5 -12 10 0 6 -8 14 -17 17 -21 8
-62 54 -63 69 0 7 -7 14 -15 18 -8 3 -15 15 -15 26 0 11 -7 20 -15 20 -8 0
-15 5 -15 10 0 6 -9 19 -20 30 -11 11 -20 27 -20 35 0 8 -5 15 -11 15 -5 0
-16 15 -24 33 -11 26 -11 41 -2 75 6 23 15 42 19 42 4 0 8 7 8 15 0 8 4 15 8
15 5 0 14 11 20 25 6 14 18 25 26 25 8 0 17 13 21 29 3 16 13 32 21 35 8 3 20
19 25 36 6 16 15 30 21 30 14 0 38 27 38 43 0 8 7 17 15 21 8 3 15 12 15 21 0
8 7 15 16 15 8 0 20 14 25 30 6 17 14 30 18 30 3 0 23 15 44 33 35 30 42 32
105 30 57 -1 82 -8 153 -42z m640 -540 c16 -7 41 -10 54 -7 16 4 25 2 25 -5 0
-7 3 -9 6 -6 4 3 15 2 26 -4 15 -8 17 -13 8 -25 -7 -7 -16 -11 -21 -8 -5 3
-12 -2 -15 -10 -3 -9 -14 -16 -23 -16 -9 0 -25 -7 -35 -15 -11 -8 -28 -15 -38
-15 -16 0 -27 -7 -80 -56 -9 -9 -21 -13 -27 -9 -6 3 -11 -1 -11 -9 0 -8 -9
-20 -20 -26 -10 -6 -22 -26 -26 -45 -3 -20 -12 -35 -20 -35 -22 0 -31 -37 -39
-157 -6 -90 -5 -111 7 -115 7 -3 15 -21 16 -39 1 -19 9 -39 17 -45 8 -6 15
-16 15 -23 0 -6 3 -11 8 -11 4 0 12 -10 17 -22 6 -13 19 -23 30 -23 16 0 20 6
18 30 -1 16 -7 31 -13 33 -5 2 -10 15 -10 28 0 17 6 24 20 24 25 0 28 41 5 64
-26 25 -13 196 15 196 5 0 12 16 16 35 4 25 11 35 25 35 11 0 19 4 19 9 0 5 8
11 18 15 9 3 41 19 71 36 30 16 57 30 62 30 23 0 85 55 95 83 15 46 55 58 94
29 16 -12 40 -22 54 -22 18 0 24 -4 20 -15 -4 -10 0 -15 10 -15 9 0 22 -11 28
-25 6 -14 17 -25 25 -25 7 0 13 -9 13 -19 0 -10 7 -21 15 -25 29 -11 3 -36
-45 -42 -38 -5 -50 -11 -59 -31 -6 -13 -25 -29 -41 -35 -17 -5 -30 -14 -30
-18 0 -4 -11 -11 -25 -14 -14 -4 -25 -12 -25 -19 0 -7 -9 -18 -20 -25 -11 -7
-20 -19 -20 -26 0 -8 -14 -24 -30 -36 -17 -12 -28 -25 -25 -30 3 -4 -2 -10
-10 -14 -8 -3 -20 -25 -26 -50 -6 -25 -17 -47 -25 -50 -8 -3 -14 -16 -14 -30
0 -14 -4 -28 -10 -31 -5 -3 -10 -15 -10 -25 0 -10 -7 -25 -15 -34 -22 -22 -18
-59 9 -85 21 -20 27 -21 45 -9 12 7 19 18 17 25 -3 7 -1 15 4 18 6 4 10 22 10
41 0 19 3 34 8 34 4 0 16 23 26 52 10 28 24 58 32 65 8 8 14 22 14 31 0 10 10
22 23 27 12 6 23 20 25 33 2 12 10 22 17 22 8 0 32 18 54 40 22 22 44 40 50
40 6 0 11 3 11 8 0 4 15 13 33 20 17 8 44 20 59 28 14 8 35 14 46 14 12 0 24
5 27 11 21 33 101 23 92 -12 -3 -12 0 -15 15 -11 10 2 27 -3 37 -13 15 -13 24
-14 40 -6 12 7 46 9 89 5 61 -6 69 -9 65 -25 -3 -11 -1 -19 3 -19 5 0 19 -3
32 -6 17 -5 22 -2 22 12 0 12 3 15 8 8 8 -13 90 -24 94 -13 2 4 17 9 33 11 28
3 30 1 33 -36 3 -33 -1 -43 -27 -67 -17 -15 -31 -35 -31 -43 0 -9 -6 -16 -14
-16 -8 0 -17 -13 -21 -30 -5 -21 -13 -30 -26 -30 -10 0 -19 -4 -19 -10 0 -5
-6 -10 -14 -10 -7 0 -21 -11 -30 -25 -12 -19 -22 -24 -39 -20 -15 4 -32 -1
-49 -14 -32 -26 -76 -44 -108 -46 -72 -4 -80 -6 -80 -20 0 -8 -7 -15 -15 -15
-9 0 -18 -6 -21 -14 -3 -8 -19 -18 -35 -21 -16 -4 -26 -11 -23 -16 3 -6 -3
-13 -15 -16 -12 -3 -21 -9 -21 -14 0 -9 -86 -95 -117 -116 -13 -8 -23 -22 -23
-29 0 -8 -9 -14 -20 -14 -16 0 -20 -7 -20 -30 0 -23 -4 -30 -20 -30 -13 0 -20
-7 -20 -18 0 -10 -3 -22 -7 -25 -3 -4 -14 -30 -24 -58 -23 -66 -35 -79 -70
-79 -17 0 -28 -5 -26 -12 1 -6 -6 -14 -17 -16 -12 -2 -16 0 -11 7 4 7 -1 24
-10 38 -12 18 -17 45 -16 82 1 88 -19 190 -41 202 -10 5 -18 16 -18 25 0 8 -7
17 -15 20 -8 3 -17 14 -20 25 -4 10 -15 19 -25 19 -9 0 -20 9 -23 20 -4 16
-14 20 -45 20 -60 0 -102 11 -102 26 0 8 -9 14 -20 14 -11 0 -20 4 -20 10 0 5
-16 20 -35 32 -21 14 -35 31 -35 44 0 11 -4 24 -9 30 -5 5 -12 38 -15 74 -7
87 -7 90 -22 90 -8 0 -11 11 -8 33 2 17 8 84 13 147 13 153 18 178 41 193 11
6 20 20 20 29 0 10 7 18 15 18 7 0 18 6 22 13 10 17 75 47 102 47 13 0 21 6
21 18 0 9 12 25 28 34 25 16 27 16 30 0 1 -10 16 -23 33 -31z m-1328 -25 c9
-7 17 -19 17 -25 0 -7 9 -21 20 -33 11 -12 20 -29 20 -39 0 -9 9 -19 20 -22
14 -3 18 -10 14 -22 -5 -11 0 -18 13 -21 10 -3 25 -17 31 -32 21 -46 39 -73
71 -108 17 -18 31 -37 31 -43 0 -6 6 -11 14 -11 8 0 17 -4 21 -9 10 -17 -11
-20 -39 -5 -16 7 -35 14 -42 14 -8 0 -14 7 -14 15 0 8 -9 15 -20 15 -11 0 -20
6 -20 13 0 6 -14 18 -32 26 -51 23 -75 49 -76 83 0 17 -5 34 -10 37 -15 11
-51 95 -52 126 -4 60 1 65 33 41z m3131 -270 c55 -13 156 -9 172 6 3 4 22 -1
42 -9 20 -9 58 -17 84 -19 31 -2 55 -11 68 -24 13 -13 33 -20 58 -20 26 0 44
-7 61 -26 13 -14 29 -23 36 -20 6 2 18 0 26 -6 9 -6 -5 -8 -46 -5 -33 3 -95 0
-137 -6 -70 -9 -80 -8 -98 8 -13 12 -28 15 -45 11 -14 -3 -37 -9 -52 -12 -17
-5 -30 -2 -37 7 -14 18 -106 42 -128 34 -21 -8 -95 12 -105 29 -4 8 -17 15
-28 18 -11 2 -18 7 -15 12 3 4 -8 14 -25 21 -29 13 -27 13 40 14 39 0 96 -6
129 -13z m1387 -266 c4 0 6 -7 3 -15 -5 -12 3 -15 32 -17 77 -3 130 -7 167
-12 29 -5 37 -3 37 9 0 11 12 15 46 15 38 0 45 -3 40 -16 -3 -9 -6 -20 -6 -25
0 -5 -7 -9 -16 -9 -8 0 -25 -5 -37 -12 -12 -7 -28 -13 -36 -14 -8 -2 -21 -9
-29 -17 -13 -13 -18 -12 -43 15 -21 20 -38 28 -57 27 -36 -3 -110 31 -116 55
-2 10 -9 15 -15 11 -6 -3 -11 -1 -11 5 0 7 7 9 16 6 9 -3 20 -6 25 -6z m2435
-128 c6 -4 13 -17 16 -29 6 -22 3 -23 -43 -23 -27 0 -49 -4 -49 -10 0 -5 -18
-13 -40 -16 -22 -4 -40 -10 -40 -14 0 -4 -12 -11 -27 -15 -15 -3 -33 -15 -41
-26 -7 -10 -20 -19 -28 -19 -8 0 -14 -4 -14 -10 0 -5 -10 -12 -23 -15 -13 -4
-29 -20 -36 -38 -8 -18 -19 -35 -25 -39 -6 -4 -11 -12 -11 -17 0 -5 -11 -19
-24 -30 -20 -18 -25 -33 -29 -84 -3 -55 -32 -140 -53 -152 -3 -3 -9 13 -13 35
-4 28 -11 40 -23 40 -25 0 -11 100 17 119 11 7 20 20 20 27 0 8 4 14 9 14 21
0 41 34 41 69 0 31 5 40 25 49 14 6 25 16 25 22 0 5 7 10 16 10 8 0 20 14 25
30 6 17 15 30 20 30 5 0 18 9 29 20 14 14 28 18 45 14 15 -4 25 -2 25 4 0 6
15 13 33 17 17 3 41 10 52 16 16 7 73 22 105 28 3 0 10 -3 16 -7z m94 -97 c0
-8 5 -15 10 -15 18 0 11 -18 -10 -25 -11 -3 -20 -14 -20 -24 0 -10 -7 -24 -15
-31 -19 -16 -65 -113 -65 -138 -1 -21 -23 -52 -39 -52 -6 0 -11 -14 -11 -31 0
-22 -5 -32 -20 -36 -11 -3 -29 -21 -41 -39 -11 -19 -32 -37 -45 -40 -13 -3
-24 -10 -24 -14 0 -4 -15 -11 -34 -14 -19 -4 -39 -13 -46 -21 -7 -8 -21 -15
-31 -15 -11 0 -19 -4 -19 -10 0 -5 -21 -10 -46 -10 -25 0 -54 -5 -65 -11 -16
-8 -26 -7 -46 6 -33 22 -14 37 31 24 87 -25 112 -2 127 114 6 45 17 87 24 92
7 6 16 25 19 43 4 17 11 32 16 32 5 0 18 15 29 34 15 24 27 33 40 29 11 -3 24
3 32 14 8 10 21 19 29 21 8 2 16 8 18 13 6 16 94 49 132 49 35 0 38 2 44 35 7
34 26 49 26 20z m-4086 -621 c8 -11 39 -19 97 -25 46 -5 109 -14 140 -19 30
-6 76 -10 102 -10 25 0 49 -4 52 -10 3 -5 26 -10 49 -10 25 0 48 -6 55 -14 8
-9 45 -17 106 -21 52 -4 95 -11 95 -16 0 -7 21 -18 93 -47 15 -7 27 -16 27
-22 0 -5 6 -10 14 -10 8 0 18 -9 21 -20 3 -11 15 -20 25 -20 29 0 50 -11 50
-26 0 -8 6 -14 14 -14 8 0 16 -7 18 -16 3 -16 53 -50 113 -77 17 -8 36 -21 44
-30 7 -10 24 -17 36 -17 13 0 25 -7 29 -15 3 -8 11 -15 19 -15 7 0 24 -11 37
-25 16 -17 34 -25 57 -25 21 0 36 -6 40 -16 6 -15 50 -39 66 -36 4 1 10 -5 13
-13 4 -9 19 -15 39 -15 19 0 37 -4 40 -10 3 -5 22 -10 41 -10 24 0 34 -4 34
-16 0 -9 9 -18 19 -21 12 -3 17 -11 14 -20 -3 -8 -2 -18 4 -22 11 -7 89 -142
98 -169 3 -11 12 -26 20 -32 8 -7 15 -23 15 -36 0 -15 6 -24 15 -24 11 0 15
-12 15 -45 0 -33 -4 -45 -15 -45 -8 0 -20 -9 -27 -20 -7 -11 -23 -20 -35 -20
-16 0 -23 6 -23 20 0 11 -5 20 -10 20 -13 0 -51 61 -44 72 3 4 1 8 -4 8 -5 0
-8 10 -8 23 1 15 -5 22 -19 22 -11 1 -19 6 -17 13 1 7 -9 17 -23 24 -13 6 -22
15 -19 20 3 4 -11 15 -30 23 -20 9 -36 20 -36 25 0 6 -11 15 -25 20 -14 5 -25
16 -25 25 0 8 -6 15 -13 15 -18 0 -89 39 -110 61 -10 11 -27 19 -37 19 -11 0
-20 7 -20 15 0 8 -9 15 -20 15 -11 0 -20 4 -20 9 0 19 -156 161 -178 161 -6 0
-23 11 -38 25 -15 14 -31 25 -35 25 -5 0 -9 6 -9 13 0 7 -21 24 -47 37 -27 14
-65 38 -86 54 -26 19 -46 27 -62 23 -14 -2 -25 0 -25 4 0 5 -8 9 -17 9 -10 0
-31 9 -48 20 -16 11 -41 20 -55 20 -14 0 -30 8 -37 19 -8 12 -32 22 -75 30
-35 6 -68 18 -74 26 -6 8 -26 15 -44 15 -24 0 -33 5 -37 21 -5 18 -13 20 -57
19 -28 -2 -53 -2 -56 0 -3 1 -104 3 -225 4 -155 2 -231 0 -257 -9 -21 -7 -38
-9 -38 -6 0 15 -71 29 -129 25 -36 -2 -76 2 -102 11 -53 19 -77 19 -95 0 -21
-21 -33 -19 -27 5 4 15 14 20 42 20 20 0 41 4 47 9 5 5 41 12 79 15 110 9 155
17 155 28 0 10 86 7 217 -8 43 -5 54 -3 59 10 8 21 53 21 68 0z m191 -194 c73
-7 136 -17 145 -24 8 -7 28 -18 43 -24 15 -7 26 -16 23 -20 -3 -5 25 -15 61
-22 59 -13 63 -15 37 -22 -16 -4 -37 -5 -46 -2 -10 3 -18 1 -18 -4 0 -29 -104
-18 -185 19 -11 5 -55 13 -97 18 -54 6 -83 15 -98 29 -12 11 -40 24 -61 27
-30 5 -39 11 -39 27 0 19 4 20 53 14 28 -3 110 -11 182 -16z m-540 -6 c18 -12
42 -15 91 -13 l66 4 3 -32 c3 -32 27 -65 58 -76 9 -4 17 -13 17 -22 0 -8 6
-15 14 -15 7 0 16 -9 19 -20 3 -11 12 -20 21 -20 9 0 25 -8 35 -17 59 -55 72
-62 138 -69 41 -4 72 -13 79 -22 8 -11 21 -13 55 -8 24 4 60 8 79 9 39 2 54
13 64 45 5 14 15 22 30 22 13 0 29 6 36 14 6 8 28 16 48 18 34 3 37 6 40 36 3
25 7 32 20 28 9 -2 29 -7 45 -10 15 -4 27 -12 27 -20 0 -9 18 -15 55 -18 35
-3 60 -11 68 -21 6 -9 24 -18 38 -19 28 -4 59 -24 59 -40 0 -5 -20 -30 -44
-55 -25 -26 -43 -50 -40 -55 3 -4 -4 -8 -14 -8 -11 0 -22 -9 -25 -19 -5 -19
-16 -22 -162 -37 -33 -3 -67 -12 -75 -18 -34 -27 -79 -40 -153 -43 -43 -1 -85
-7 -95 -12 -10 -5 -77 -5 -167 1 -125 8 -154 13 -175 29 -14 11 -33 22 -42 26
-10 3 -18 12 -18 19 0 8 -7 14 -16 14 -8 0 -30 11 -48 25 -18 13 -47 26 -65
27 -22 2 -36 9 -42 23 -10 24 -34 55 -42 55 -15 0 -47 36 -47 51 0 9 -16 47
-35 84 -19 37 -37 86 -40 109 -7 41 -6 43 27 53 49 16 86 15 113 -3z m-428
-101 c-4 -3 1 -15 10 -25 9 -10 18 -38 19 -61 0 -23 2 -45 3 -49 0 -5 16 -8
34 -8 17 0 48 -3 68 -6 36 -6 37 -7 32 -44 -5 -36 -4 -38 32 -44 20 -4 40 -5
43 -2 3 3 13 -4 24 -16 16 -19 17 -23 3 -38 -20 -22 -19 -37 5 -52 11 -7 20
-18 20 -25 0 -7 7 -13 16 -13 8 0 12 -4 9 -10 -3 -6 1 -7 9 -4 12 5 16 -1 16
-22 0 -15 7 -34 15 -43 57 -63 55 -57 55 -151 0 -73 3 -90 15 -90 8 0 15 -4
15 -9 0 -15 52 -37 78 -33 12 2 22 9 22 17 0 7 5 15 12 17 12 4 15 169 3 189
-9 13 -33 109 -28 109 2 0 9 -13 14 -30 6 -16 15 -30 20 -30 6 0 15 -13 20
-30 6 -16 15 -30 20 -30 5 0 9 -7 9 -15 0 -24 46 -48 80 -42 16 4 97 0 180 -9
148 -14 151 -14 177 6 14 11 34 20 44 20 11 0 19 7 19 16 0 10 6 13 19 9 10
-3 30 -1 45 4 14 6 26 8 26 5 0 -10 -44 -43 -58 -44 -7 0 -16 -8 -19 -17 -7
-17 -22 -36 -59 -76 -28 -29 -64 -101 -64 -127 0 -18 6 -20 70 -20 40 0 70 4
70 10 0 5 4 9 8 7 12 -3 72 56 72 70 0 7 9 13 20 13 11 0 20 4 20 10 0 5 18
13 41 16 27 5 38 11 35 20 -3 7 4 16 15 19 10 4 19 10 19 13 0 4 20 18 45 32
41 23 69 64 70 105 0 21 36 45 75 51 22 4 40 12 40 19 0 7 8 16 18 19 39 15
72 38 72 52 0 7 5 14 11 14 5 0 7 -5 3 -11 -4 -7 3 -19 16 -29 25 -19 69 -15
77 6 3 8 16 14 29 14 17 0 25 -7 30 -25 3 -14 10 -22 15 -19 5 3 2 -11 -8 -30
-13 -29 -14 -40 -5 -61 10 -22 14 -24 32 -13 11 7 20 23 20 35 0 28 -3 27 44
3 21 -10 44 -30 50 -42 6 -13 25 -30 43 -38 23 -11 33 -23 35 -44 3 -25 10
-32 46 -44 46 -15 55 -39 22 -60 -13 -8 -20 -23 -20 -42 0 -18 -5 -30 -13 -30
-18 0 -61 -94 -54 -119 2 -11 -1 -22 -8 -24 -7 -3 -15 -19 -18 -35 -3 -16 -13
-37 -22 -45 -8 -9 -15 -33 -15 -54 0 -22 -5 -44 -10 -49 -6 -6 -16 -55 -21
-110 -6 -54 -20 -130 -32 -169 -11 -38 -22 -97 -24 -130 -2 -33 -8 -70 -13
-82 -43 -100 -49 -129 -49 -213 0 -41 -4 -120 -9 -175 -5 -55 -8 -203 -7 -330
1 -126 -2 -241 -7 -255 -5 -14 -9 -83 -8 -155 3 -207 1 -246 -10 -259 -5 -7
-8 -15 -5 -18 9 -8 -70 -85 -83 -80 -7 2 -15 -3 -18 -12 -4 -11 -19 -16 -53
-16 -27 0 -56 -7 -70 -16 -18 -13 -38 -15 -93 -11 -51 4 -76 2 -92 -8 -14 -10
-50 -14 -116 -13 -58 1 -104 -3 -118 -11 -17 -9 -48 -10 -130 -2 -69 6 -123 6
-152 0 -54 -12 -152 -11 -160 1 -3 4 -32 10 -65 13 -33 3 -103 14 -155 26 -52
11 -109 21 -126 21 -17 0 -37 6 -43 14 -6 8 -26 16 -44 19 -18 3 -51 10 -73
16 -23 6 -63 13 -89 15 -25 3 -57 12 -70 20 -13 9 -50 19 -82 22 -32 4 -64 13
-71 21 -7 7 -25 15 -40 18 -64 13 -102 26 -102 35 0 5 -17 13 -39 16 -33 5
-38 9 -33 27 3 13 1 18 -6 13 -17 -10 -27 43 -13 65 6 10 11 36 11 58 0 21 7
52 15 67 8 16 15 43 15 61 0 17 5 35 10 38 6 3 10 17 10 30 0 13 7 30 15 39
18 18 35 99 35 167 0 26 5 51 10 54 6 3 10 19 10 34 0 15 5 32 12 39 20 20 10
312 -11 352 -9 15 -13 52 -12 102 1 49 -4 97 -13 126 -17 53 -17 62 -5 227 7
97 6 129 -6 169 -8 26 -12 52 -9 57 2 5 -2 19 -11 32 -13 20 -14 33 -5 73 12
51 -2 144 -22 144 -5 0 -7 4 -4 8 8 13 -13 79 -30 96 -9 10 -12 24 -9 39 4 16
1 30 -11 41 -9 9 -16 29 -16 44 0 29 -25 93 -41 103 -6 4 -7 14 -4 22 3 9 0
21 -8 27 -7 6 -16 23 -20 38 -4 15 -11 30 -16 33 -6 3 -11 21 -11 38 -1 20 -7
35 -17 39 -29 12 -23 32 9 32 32 0 36 6 44 53 3 20 1 27 -11 27 -14 0 -14 2 1
23 9 12 20 31 25 42 5 12 16 27 25 34 21 17 22 71 1 71 -8 0 -15 7 -15 15 0 8
9 15 19 15 11 0 23 5 26 10 3 6 17 10 31 10 13 0 24 5 24 10 0 6 7 10 15 10 8
0 15 5 15 10 0 7 7 7 20 0 23 -12 90 4 90 21 0 5 5 9 10 9 6 0 10 -15 10 -34
0 -32 2 -34 42 -40 52 -8 63 2 63 60 0 31 4 44 14 44 8 0 11 -3 8 -7z m1894
-3118 c1 6 5 -12 9 -40 7 -43 5 -52 -12 -67 -11 -10 -31 -18 -44 -18 -12 0
-25 -4 -28 -9 -3 -4 -24 -11 -47 -15 -23 -4 -51 -12 -63 -18 -21 -12 -27 -14
-58 -16 -10 -1 -18 -9 -18 -18 0 -8 -5 -12 -10 -9 -6 4 -36 -1 -68 -11 -31 -9
-77 -19 -102 -21 -24 -3 -53 -9 -63 -15 -11 -5 -36 -10 -56 -9 -52 0 -92 -9
-85 -21 4 -6 -14 -8 -52 -4 -33 4 -83 9 -112 12 -50 5 -75 19 -84 46 -3 7 -31
13 -69 16 -51 3 -68 1 -78 -12 -18 -21 -29 -20 -49 4 -14 16 -37 22 -127 30
-151 14 -212 13 -218 -3 -8 -20 -75 -9 -88 14 -8 15 -21 19 -64 19 -42 0 -55
3 -55 15 0 8 -3 15 -7 15 -5 0 -13 11 -20 25 -20 45 29 71 80 43 24 -12 66
-23 162 -40 33 -5 71 -16 85 -23 16 -8 46 -11 82 -8 38 4 73 0 104 -11 57 -19
118 -21 136 -3 8 8 35 11 78 9 160 -9 200 -9 200 -2 0 9 117 26 140 20 46 -12
344 31 360 51 4 5 50 16 88 21 6 1 12 5 12 9 0 4 10 11 23 15 12 4 24 9 27 13
3 3 19 13 35 22 27 14 31 14 42 0 7 -9 13 -11 14 -6z m-1554 -311 c3 -8 11
-14 18 -14 8 0 15 -10 17 -22 2 -18 9 -22 28 -20 13 1 27 6 30 11 3 5 27 19
53 31 57 27 74 18 53 -26 -22 -46 -29 -193 -11 -228 12 -23 13 -44 6 -110 -5
-44 -6 -103 -1 -130 4 -27 5 -57 2 -68 -2 -10 2 -25 9 -34 9 -11 13 -40 11
-90 -1 -41 1 -74 6 -74 4 0 13 -9 20 -20 11 -18 10 -21 -11 -29 -20 -8 -26
-20 -32 -63 -5 -29 -7 -57 -6 -61 1 -5 -4 -7 -11 -5 -7 3 -14 15 -16 27 -3 17
-9 21 -26 19 -13 -1 -31 5 -40 15 -10 9 -22 17 -27 17 -5 0 -9 7 -9 15 0 23
-28 30 -49 11 -10 -9 -29 -19 -42 -21 -13 -3 -25 -9 -27 -15 -2 -6 -8 -8 -13
-4 -5 3 -9 -3 -9 -13 0 -10 -7 -29 -16 -41 -9 -13 -14 -32 -11 -42 6 -22 -10
-30 -64 -30 -21 0 -39 -3 -38 -7 3 -19 -15 -53 -27 -53 -7 0 -18 -9 -24 -20
-6 -11 -17 -20 -25 -20 -8 0 -15 -8 -15 -18 0 -10 -6 -27 -14 -37 -13 -18 -14
-18 -25 3 -24 45 -50 19 -52 -53 0 -29 -1 -29 -11 -7 -6 12 -17 22 -25 22 -7
0 -22 9 -33 20 -12 12 -26 17 -36 13 -15 -5 -16 2 -9 68 4 41 11 82 16 91 5 9
9 30 9 47 0 17 4 31 8 31 4 0 13 37 20 83 20 130 36 202 45 208 5 4 11 30 13
59 2 30 9 57 15 61 7 4 14 30 17 58 2 27 9 49 14 48 14 -3 25 34 33 106 5 42
12 60 26 67 24 13 27 81 4 100 -8 7 -14 20 -14 29 1 15 2 15 6 0 2 -10 14 -16
29 -16 14 0 27 -3 30 -6 3 -3 1 -63 -5 -134 -6 -70 -13 -177 -16 -238 -6 -167
-17 -299 -25 -310 -7 -9 -15 -129 -11 -162 2 -20 51 -16 58 5 4 9 14 23 24 29
20 15 49 94 49 134 0 15 8 32 20 40 18 13 20 29 25 153 4 77 8 144 11 148 3 4
5 38 5 74 0 36 6 82 13 102 7 20 19 101 26 178 12 131 15 141 32 136 11 -3 22
-11 25 -18z m340 -53 c6 -16 8 -41 6 -55 -3 -16 1 -32 12 -42 13 -14 16 -28
11 -61 -4 -34 -3 -43 9 -43 11 0 15 -11 15 -39 0 -31 4 -41 20 -46 11 -3 19
-9 18 -13 -3 -15 15 -62 23 -62 5 0 9 -15 9 -32 1 -41 16 -109 27 -117 4 -3 9
-31 10 -61 1 -30 7 -56 12 -58 6 -2 11 -23 11 -46 0 -24 6 -56 14 -72 14 -28
11 -144 -3 -144 -3 0 -21 14 -40 31 -33 31 -33 32 -27 95 6 55 4 66 -13 83
-13 13 -17 23 -9 27 7 5 8 27 3 68 -9 74 -9 81 0 129 7 33 5 37 -13 37 -26 0
-34 23 -26 77 6 42 6 43 -25 49 -17 4 -31 12 -31 19 0 7 -9 15 -21 18 -17 5
-19 11 -14 39 3 18 7 66 8 106 2 61 -1 75 -15 83 -10 6 -18 21 -18 34 0 36 33
33 47 -4z m1293 -88 c0 -27 6 -44 21 -57 16 -13 20 -26 17 -49 -6 -39 -1 -57
17 -57 10 0 12 -15 8 -65 -4 -55 -1 -70 17 -95 12 -17 29 -29 38 -28 13 3 15
-7 13 -54 -2 -47 1 -58 13 -58 13 0 16 -13 18 -57 1 -32 1 -74 0 -92 -1 -19 4
-38 10 -42 8 -5 12 -36 11 -93 -2 -82 1 -91 28 -88 3 1 4 -33 1 -74 -3 -53 -1
-74 7 -74 7 0 11 -6 9 -12 -4 -24 13 -108 23 -108 5 0 9 -40 9 -89 0 -62 4
-91 13 -94 6 -2 9 -8 4 -12 -17 -18 -28 16 -28 82 l0 71 -32 5 c-51 8 -96 -3
-102 -24 -4 -10 -15 -19 -25 -19 -23 0 -35 52 -26 110 4 27 2 41 -7 47 -25 14
-25 50 -6 275 22 267 22 278 7 278 -9 0 -14 22 -15 70 -1 38 -5 75 -9 81 -7
11 -10 37 -16 116 -2 18 -6 33 -10 33 -5 0 -8 24 -8 54 0 34 -5 60 -14 69 -8
7 -17 40 -21 73 l-7 59 21 -22 c14 -15 21 -35 21 -60z"/>
<path d="M3872 5964 c-54 -38 -53 -102 2 -122 52 -19 94 -15 121 13 31 30 31
45 2 77 -46 49 -86 60 -125 32z"/>
<path d="M5030 5860 c-8 -5 -30 -10 -47 -10 -25 0 -33 -4 -33 -18 0 -10 -6
-24 -12 -31 -11 -11 -10 -14 0 -18 6 -3 10 -8 7 -13 -7 -11 56 -21 119 -19 53
2 55 3 61 37 3 19 5 35 3 36 -2 1 -16 12 -32 24 -32 24 -44 26 -66 12z"/>
<path d="M4316 4365 c-9 -9 -34 -15 -65 -15 -44 0 -51 -3 -51 -19 0 -11 -5
-21 -11 -23 -7 -2 -9 -13 -5 -25 5 -17 22 -25 74 -37 37 -8 79 -13 92 -10 102
24 100 23 100 58 0 26 -5 35 -21 39 -12 3 -18 10 -15 16 17 27 -72 41 -98 16z"/>
<path d="M8045 7053 c-16 -9 -64 -31 -105 -49 -273 -117 -387 -172 -467 -226
-23 -15 -48 -28 -56 -28 -8 0 -41 -17 -72 -39 -50 -33 -114 -92 -355 -324 -44
-42 -139 -174 -190 -262 -14 -24 -55 -88 -92 -143 -38 -56 -68 -104 -68 -109
0 -5 -11 -25 -24 -44 -14 -20 -28 -49 -32 -65 -3 -16 -15 -55 -25 -86 -26 -80
-25 -123 6 -153 47 -48 92 -24 123 65 40 112 52 140 82 188 16 27 30 54 30 61
0 6 11 16 25 21 25 10 69 83 154 259 14 29 38 65 53 80 14 15 40 51 58 79 17
29 36 52 42 52 5 0 29 18 51 40 75 72 167 150 177 150 5 0 37 25 71 55 34 31
80 64 103 76 88 43 121 62 164 95 25 19 49 34 53 34 5 0 35 17 67 38 52 33 91
53 212 105 62 26 120 75 120 100 0 47 -48 61 -105 30z"/>
<path d="M6502 6663 c-17 -25 -21 -59 -31 -298 -15 -330 -29 -466 -76 -725
-51 -286 -114 -474 -184 -551 -17 -18 -31 -42 -31 -52 0 -10 -13 -38 -30 -62
-36 -52 -36 -56 -7 -83 30 -28 63 -28 85 0 9 12 67 72 128 133 60 60 131 137
157 170 25 33 61 69 79 79 18 11 49 33 70 50 49 42 112 86 162 114 22 13 50
32 61 42 11 9 38 23 60 30 90 28 199 103 339 233 160 149 229 197 281 197 19
0 45 5 58 12 12 6 29 14 37 18 22 10 24 39 4 61 -21 24 -80 25 -153 3 -61 -18
-90 -35 -152 -86 -65 -55 -136 -103 -203 -137 -33 -17 -66 -37 -75 -44 -25
-21 -168 -107 -177 -107 -5 0 -35 -23 -67 -50 -32 -28 -62 -50 -65 -50 -4 0
-23 -14 -42 -31 -19 -17 -51 -43 -70 -57 -19 -14 -60 -49 -90 -78 -31 -30 -80
-64 -112 -78 -32 -14 -58 -24 -58 -22 0 2 8 32 19 67 10 35 26 98 36 139 9 41
21 91 26 111 5 20 9 48 9 63 0 15 5 36 11 47 14 28 36 165 44 279 3 52 10 111
15 130 5 19 12 100 15 180 2 80 10 189 16 243 10 89 10 100 -6 117 -26 28 -60
25 -83 -7z"/>
</g>
</svg>
