<?xml version="1.0" standalone="no"?>
<!DOCTYPE svg PUBLIC "-//W3C//DTD SVG 20010904//EN"
 "http://www.w3.org/TR/2001/REC-SVG-20010904/DTD/svg10.dtd">
<svg version="1.0" xmlns="http://www.w3.org/2000/svg"
 width="1150.000000pt" height="1125.000000pt" viewBox="0 0 1150.000000 1125.000000"
 preserveAspectRatio="xMidYMid meet">
<metadata>
Created by potrace 1.16, written by Peter Selinger 2001-2019
</metadata>
<g transform="translate(0.000000,1125.000000) scale(0.100000,-0.100000)"
fill="#000000" stroke="none">
<path d="M3690 10820 c-17 -17 -23 -18 -41 -8 -18 11 -23 10 -41 -12 -14 -17
-28 -24 -46 -21 -19 2 -33 -6 -58 -36 l-33 -38 -1 30 c-1 20 -4 25 -8 14 -11
-24 -54 -71 -90 -97 l-32 -22 6 32 6 33 -29 -42 c-15 -24 -33 -43 -39 -43 -7
0 -25 -15 -42 -34 -16 -19 -39 -39 -51 -45 -20 -11 -46 -81 -38 -104 2 -7 -2
-25 -10 -40 -20 -40 -20 -137 0 -168 13 -20 17 -51 16 -147 0 -69 5 -130 11
-141 6 -12 13 -42 15 -68 2 -27 7 -66 10 -88 4 -22 0 -67 -8 -102 -15 -66 -9
-93 23 -93 11 0 27 11 36 25 23 36 31 31 39 -22 3 -27 13 -58 21 -70 12 -19
12 -26 0 -50 -8 -15 -19 -39 -26 -53 -6 -14 -32 -36 -57 -50 -44 -23 -45 -24
-22 -34 71 -28 127 -57 139 -71 7 -8 18 -15 25 -15 11 0 57 -43 127 -121 35
-38 138 -184 138 -195 0 -3 15 -29 34 -57 18 -29 46 -77 61 -107 15 -30 35
-68 44 -85 13 -25 16 -71 16 -275 0 -256 -4 -296 -56 -504 -18 -70 -19 -85 -8
-130 7 -28 13 -53 14 -56 0 -3 9 -25 18 -50 18 -44 42 -69 123 -126 27 -19 32
-25 17 -21 -13 3 -23 2 -23 -2 0 -4 21 -12 48 -18 55 -13 438 -145 471 -163
50 -26 268 -94 341 -106 36 -6 39 -9 28 -23 -46 -57 -89 -193 -95 -299 l-6
-82 -51 28 c-28 16 -78 37 -111 46 -33 9 -89 28 -125 42 -36 13 -74 24 -84 24
-10 0 -37 9 -60 19 -23 10 -77 29 -121 41 -44 12 -103 30 -130 41 -28 10 -62
19 -75 18 -21 0 -19 -3 16 -19 57 -25 347 -122 479 -160 204 -59 261 -83 270
-110 4 -12 18 -17 50 -18 56 0 58 11 5 27 -36 11 -40 15 -40 46 0 19 4 37 10
40 6 3 10 -2 10 -12 0 -14 2 -15 9 -4 7 11 9 11 14 0 3 -8 6 -4 6 9 1 13 5 21
10 17 5 -3 7 -22 4 -43 -3 -21 -2 -34 3 -29 5 5 11 59 14 120 l5 112 31 3 c25
2 33 -1 37 -19 3 -11 1 -32 -4 -46 -5 -13 -9 -42 -9 -64 0 -22 -4 -48 -9 -58
-5 -9 -11 -35 -13 -57 -2 -21 -9 -41 -16 -44 -8 -3 -13 -9 -13 -13 1 -4 3 -6
6 -4 2 1 10 -6 17 -15 11 -15 19 -16 52 -7 33 9 41 8 60 -9 50 -47 89 -62 160
-62 64 0 70 2 100 33 17 17 41 45 52 61 l21 29 69 -13 c38 -6 111 -18 162 -25
52 -7 95 -15 96 -17 17 -20 62 -110 90 -180 19 -47 51 -108 70 -135 19 -27 44
-70 55 -95 27 -64 58 -73 221 -65 69 3 130 3 136 -1 6 -4 14 -24 18 -44 4 -21
13 -38 20 -38 12 0 28 -47 196 -607 22 -73 57 -190 79 -260 34 -111 83 -274
203 -673 16 -52 44 -147 63 -210 18 -63 42 -144 53 -180 28 -96 64 -160 117
-209 l47 -43 -21 -67 c-12 -37 -21 -71 -21 -76 0 -5 -11 -25 -24 -44 -14 -20
-55 -106 -91 -191 -36 -85 -81 -191 -100 -235 -53 -123 -59 -157 -41 -218 32
-108 113 -167 229 -167 l67 0 0 -30 0 -31 68 3 c65 3 67 4 70 31 l3 27 1230 0
c1164 0 1229 -1 1229 -17 0 -12 -24 -30 -71 -52 -83 -41 -138 -97 -176 -178
-22 -49 -27 -72 -27 -148 0 -82 3 -96 31 -150 36 -71 115 -148 181 -178 37
-17 66 -22 142 -22 85 0 101 3 155 29 73 36 138 103 173 176 21 46 26 70 26
145 1 77 -3 98 -26 147 -14 31 -45 76 -67 101 -39 42 -151 107 -185 107 -9 0
-16 8 -16 20 0 19 7 20 94 20 90 0 96 1 115 26 27 35 27 65 -2 92 l-23 22
-1508 0 c-1303 0 -1511 2 -1535 15 -30 15 -41 33 -41 67 0 19 137 351 190 464
11 23 20 49 20 58 0 9 19 57 43 107 l42 89 35 -5 c19 -3 94 -1 165 5 72 5 222
17 335 25 113 8 320 24 460 35 140 11 359 27 485 35 127 8 273 19 325 24 52 5
147 13 210 16 183 10 781 54 825 61 80 13 167 74 209 148 29 50 40 102 66 321
11 94 29 235 40 315 11 80 27 201 36 270 8 69 29 224 45 345 62 465 61 455 44
481 -8 13 -29 25 -47 28 -47 8 -297 33 -563 56 -126 11 -270 24 -320 30 -49 5
-157 14 -240 20 -82 6 -206 18 -275 25 -69 8 -190 19 -270 25 -80 6 -235 19
-345 30 -193 19 -470 45 -813 75 -89 8 -282 26 -430 39 -147 14 -307 28 -357
31 -49 3 -146 13 -215 21 -196 23 -352 29 -485 18 l-71 -5 -29 53 c-59 109
-95 185 -114 238 -11 30 -31 84 -43 120 -18 50 -31 69 -57 83 -28 17 -37 18
-70 7 -28 -9 -47 -9 -77 -1 -21 6 -55 11 -74 11 -49 0 -80 10 -80 25 0 23 -49
73 -83 84 -51 17 -206 48 -272 55 -152 16 -145 14 -145 47 0 18 -4 28 -10 24
-5 -3 -10 1 -10 10 0 10 5 13 12 9 7 -5 8 -3 2 7 -4 8 -8 23 -9 33 0 13 -9 22
-25 26 l-25 7 25 5 c20 4 18 6 -11 7 -36 1 -157 38 -200 62 -22 11 -23 11 -10
-4 7 -10 45 -27 82 -38 72 -22 93 -36 37 -24 -46 10 -297 93 -317 106 -24 15
62 0 126 -22 29 -10 53 -14 53 -10 0 9 -130 46 -195 56 -22 3 -112 29 -200 57
-235 74 -244 78 -239 92 3 8 -13 16 -46 24 -70 16 -137 72 -146 120 -4 21 -15
58 -25 83 -10 26 -16 48 -14 50 2 2 19 84 39 183 35 171 36 187 36 392 0 225
-15 381 -50 514 -12 48 -16 78 -10 84 6 6 10 33 10 60 0 37 -3 47 -10 36 -5
-8 -10 -30 -10 -48 0 -37 -16 -39 -34 -7 -6 11 -26 43 -43 72 -18 30 -33 56
-33 59 0 3 -16 26 -36 52 -40 53 -114 114 -189 157 -96 55 -98 60 -60 141 20
41 35 59 66 74 66 34 112 122 113 220 1 34 2 35 44 36 30 1 50 7 64 22 l21 20
24 -26 24 -26 24 29 c14 15 25 41 25 56 0 15 11 59 25 97 14 38 25 78 25 89 0
25 52 83 74 83 10 0 41 18 68 40 58 46 68 48 86 19 19 -29 54 -21 72 18 8 17
25 34 36 37 32 8 88 76 75 89 -6 6 -11 27 -11 47 0 19 -8 49 -18 65 -10 17
-27 51 -36 77 -10 26 -26 48 -36 51 -10 3 -20 15 -22 28 -2 18 -10 25 -33 27
-20 2 -34 11 -40 25 -9 19 -16 22 -57 19 -37 -3 -51 1 -67 17 -12 12 -30 21
-40 21 -11 0 -23 9 -26 20 -3 11 -18 23 -33 27 -15 3 -33 15 -40 25 -17 23
-27 23 -52 -2z m1485 -3825 c58 -15 108 -34 120 -45 19 -20 19 -20 -22 -20
-51 0 -84 -25 -87 -68 -2 -17 -7 -37 -13 -44 -5 -7 -22 -38 -36 -69 -28 -59
-43 -69 -102 -69 -30 0 -57 13 -129 58 l-36 24 0 137 c0 76 2 140 5 143 9 8
198 -21 300 -47z m1264 -767 c44 0 83 2 88 5 4 2 42 1 83 -4 91 -10 406 -39
424 -39 10 0 22 -44 41 -147 14 -82 35 -188 45 -238 11 -49 22 -113 25 -141
l6 -51 -48 3 c-26 2 -172 9 -323 14 -151 6 -277 14 -281 18 -3 4 -32 93 -63
197 -32 105 -69 224 -81 265 -38 122 -39 133 -16 125 11 -3 56 -6 100 -7z
m976 -73 c99 -9 254 -22 344 -29 90 -8 167 -18 172 -23 5 -5 14 -86 19 -179 5
-93 12 -207 15 -253 l5 -84 -267 7 c-148 4 -298 9 -334 12 l-66 6 -22 117
c-12 64 -35 185 -52 269 -34 180 -35 185 -11 178 9 -2 98 -12 197 -21z m895
-80 c80 -7 204 -19 275 -25 72 -6 140 -13 153 -16 l23 -5 -7 -232 c-3 -128 -9
-234 -13 -238 -6 -5 -172 1 -486 18 l-140 8 -12 195 c-6 107 -14 221 -16 253
l-5 57 41 0 c23 0 107 -7 187 -15z m865 -80 c143 -14 281 -25 307 -25 26 0 49
-3 51 -7 2 -5 -4 -98 -14 -208 -10 -110 -18 -205 -18 -212 -1 -12 -109 -11
-468 3 l-143 6 0 92 c0 136 12 376 19 376 3 0 123 -11 266 -25z m805 -70 c118
-10 217 -19 218 -21 4 -3 -23 -263 -36 -354 -5 -31 -12 -45 -22 -45 -129 2
-480 19 -487 24 -6 4 -4 80 8 211 10 113 18 207 18 209 1 2 20 1 44 -2 23 -3
139 -13 257 -22z m-2854 -454 l58 -6 22 -120 c12 -66 31 -174 43 -240 11 -66
29 -153 38 -192 9 -40 14 -75 12 -78 -3 -3 -130 -8 -282 -12 l-275 -6 -12 44
c-6 24 -32 112 -57 194 -25 83 -56 187 -68 232 -13 46 -26 86 -28 90 -3 5 -12
32 -21 62 l-16 53 264 -7 c145 -4 290 -10 322 -14z m439 -15 c99 -4 232 -9
296 -12 l116 -7 17 -251 c9 -138 16 -272 16 -298 l0 -48 -215 -2 c-118 -1
-245 -3 -282 -3 l-67 0 -42 230 c-24 127 -49 266 -57 310 -8 44 -13 83 -10 88
2 4 14 5 26 3 12 -3 103 -7 202 -10z m1150 -41 c21 -4 21 -9 17 -277 -2 -150
-5 -274 -7 -276 -1 -2 -129 -6 -283 -9 l-280 -6 -6 64 c-11 114 -26 362 -26
444 l0 80 282 -8 c156 -4 292 -10 303 -12z m585 -24 l185 -6 -2 -50 c-4 -86
-35 -450 -39 -454 -1 -2 -131 -6 -288 -9 l-286 -5 6 259 c3 142 7 265 10 272
3 9 30 11 116 6 62 -3 196 -9 298 -13z m824 -32 c6 -5 4 -47 -3 -106 -7 -54
-21 -156 -30 -228 l-16 -130 -239 -8 c-131 -5 -240 -7 -242 -5 -3 4 3 87 27
355 l13 142 241 -6 c132 -3 244 -9 249 -14z m-78 -666 c-4 -27 -13 -109 -22
-183 -25 -220 -52 -242 -320 -258 -82 -5 -152 -6 -156 -3 -7 6 3 161 23 358
13 119 14 122 39 126 14 2 119 5 234 6 l209 1 -7 -47z m-620 -75 c-12 -207
-30 -380 -41 -384 -5 -1 -104 -10 -220 -19 -115 -8 -234 -18 -263 -21 l-53 -6
6 203 c3 112 8 232 11 266 l6 62 151 4 c84 1 210 4 281 5 l129 2 -7 -112z
m-706 -16 c0 -66 -3 -187 -7 -270 l-6 -150 -96 -7 c-53 -3 -163 -12 -246 -20
-82 -7 -153 -10 -158 -6 -6 6 -36 442 -37 533 l0 28 223 3 c122 1 246 3 275 5
l52 2 0 -118z m-696 76 c6 -33 38 -539 34 -543 -2 -2 -77 -8 -168 -14 -91 -6
-197 -14 -235 -17 l-70 -7 -18 89 c-9 49 -28 152 -41 229 -14 77 -29 160 -35
185 -22 94 -29 89 122 93 409 9 406 9 411 -15z m-689 -20 c3 -13 16 -86 30
-163 13 -77 35 -198 49 -270 13 -71 23 -133 20 -136 -2 -4 -78 -10 -168 -14
-193 -9 -216 -4 -284 64 -39 38 -51 60 -69 121 -25 86 -100 331 -114 374 -5
16 -9 30 -9 32 0 8 77 11 297 13 l243 1 5 -22z m2345 -1923 c16 -8 40 -30 54
-48 34 -45 36 -123 4 -175 -23 -37 -85 -71 -132 -72 -40 0 -103 38 -128 78
-29 47 -22 140 13 178 47 52 131 69 189 39z"/>
<path d="M4171 10177 c-2 -57 -33 -167 -46 -167 -7 0 -15 7 -19 15 -3 10 -19
15 -48 15 -33 0 -39 -3 -30 -12 7 -7 12 -22 12 -35 0 -19 -5 -23 -30 -23 -18
0 -33 6 -36 15 -4 8 -10 12 -16 9 -14 -9 10 -32 41 -39 16 -3 47 1 72 10 24 8
48 17 53 18 5 1 13 -11 18 -28 5 -16 20 -55 34 -86 13 -31 24 -72 24 -91 0
-30 -4 -35 -32 -43 -23 -7 -34 -17 -36 -32 -3 -22 -2 -22 25 -8 15 7 36 16 46
19 25 8 23 94 -3 138 -10 18 -26 58 -33 88 -13 49 -12 61 3 115 12 42 15 74
10 105 -5 31 -8 36 -9 17z"/>
<path d="M3085 9288 c-75 -52 -137 -110 -173 -163 -15 -22 -29 -42 -32 -45
-12 -12 -58 -88 -75 -125 -11 -22 -21 -42 -24 -45 -22 -19 -143 -337 -139
-364 2 -13 11 2 25 44 68 200 174 430 211 453 6 4 12 13 12 18 0 17 51 80 106
134 75 71 93 85 130 101 35 15 53 34 32 34 -7 0 -40 -19 -73 -42z"/>
<path d="M3099 9045 c-100 -36 -186 -118 -221 -209 -19 -50 -23 -79 -22 -161
1 -110 35 -282 78 -395 49 -131 80 -200 88 -200 5 0 7 3 5 8 -11 20 -47 102
-47 106 0 9 196 106 213 106 7 0 17 4 22 9 6 5 64 30 130 56 189 74 226 87
230 83 2 -2 14 -55 27 -118 12 -63 24 -106 26 -95 3 10 -3 55 -11 100 -9 44
-18 118 -20 165 -3 54 -14 113 -30 160 -13 41 -27 86 -30 100 -4 14 -22 49
-42 78 -19 30 -35 56 -35 59 0 14 -69 82 -114 111 -83 53 -169 66 -247 37z"/>
<path d="M2612 8425 c-42 -189 -62 -419 -62 -732 0 -158 3 -284 6 -281 3 4 9
165 14 360 9 346 28 554 61 668 6 20 9 47 7 60 -2 15 -12 -16 -26 -75z"/>
<path d="M3410 7368 c-1 -19 68 -104 107 -131 23 -17 43 -34 43 -39 0 -4 8 -8
18 -8 43 -1 43 0 27 -321 -14 -275 -14 -331 1 -584 9 -154 18 -282 21 -285 3
-3 3 42 -1 100 -15 269 -18 617 -6 835 6 127 13 231 15 233 2 2 23 -5 47 -16
66 -30 160 -63 165 -59 2 3 -25 15 -59 28 -174 64 -285 134 -355 225 -12 16
-22 26 -23 22z"/>
<path d="M2457 6976 c-9 -52 -13 -63 -63 -174 -47 -103 -73 -191 -84 -291 -11
-96 -12 -313 -2 -381 6 -39 11 -45 40 -54 31 -9 32 -11 32 -62 0 -60 46 -198
63 -187 5 3 7 1 4 -4 -4 -6 0 -33 8 -61 38 -125 34 -780 -6 -1027 -11 -71 -27
-137 -35 -146 -8 -8 -14 -18 -14 -22 0 -8 -49 -55 -125 -122 -31 -27 -66 -58
-76 -67 -10 -10 -20 -17 -21 -16 -4 2 -61 -34 -68 -43 -10 -12 -70 -39 -70
-32 0 5 -4 3 -8 -3 -4 -6 -43 -31 -87 -55 -44 -24 -89 -51 -99 -61 -11 -10
-23 -18 -26 -18 -13 0 -165 -122 -162 -131 1 -5 -6 -9 -15 -9 -10 0 -39 -19
-65 -43 -67 -61 -110 -97 -113 -97 -2 0 -24 -19 -48 -42 -54 -53 -139 -127
-268 -232 -13 -11 -33 -25 -46 -31 -13 -7 -34 -24 -47 -38 -21 -23 -32 -25
-142 -31 -151 -8 -262 -25 -280 -43 -21 -21 -17 -53 27 -218 22 -82 43 -170
47 -195 10 -58 18 -70 47 -70 44 0 74 -19 89 -55 14 -32 14 -39 -1 -70 -16
-33 -16 -37 5 -82 30 -66 49 -123 77 -228 30 -116 39 -137 76 -191 17 -25 37
-64 45 -88 16 -47 35 -70 98 -117 68 -51 163 -35 128 22 -7 10 -12 51 -12 91
0 40 -5 91 -11 113 -29 116 -29 159 2 330 15 83 55 170 85 184 13 6 24 18 24
27 0 10 3 14 6 11 4 -3 16 -1 28 5 22 11 24 13 100 83 27 25 51 45 55 45 3 0
25 17 47 38 47 42 74 65 124 104 19 15 53 43 75 63 22 19 67 56 100 82 33 26
62 51 63 55 2 4 8 8 14 8 6 0 30 16 54 35 23 19 45 35 49 35 3 0 13 6 20 13
26 22 40 32 120 87 44 30 82 57 85 60 3 3 55 41 117 85 62 43 109 83 106 88
-3 6 -1 7 5 3 7 -4 22 2 34 13 12 12 26 21 30 21 5 0 6 5 2 12 -4 7 -3 8 4 4
6 -4 33 10 59 30 26 19 60 45 75 56 15 11 25 25 21 31 -3 6 -1 7 5 3 11 -7 37
11 128 88 19 15 31 33 27 40 -3 6 -3 8 2 4 4 -4 14 -3 22 4 7 6 15 9 18 6 2
-2 -4 -64 -15 -138 -23 -168 -34 -281 -66 -685 -14 -176 -31 -382 -39 -458 -8
-76 -12 -144 -9 -152 3 -8 -2 -27 -13 -42 -21 -32 -57 -104 -74 -148 -10 -27
-21 -104 -34 -257 l-4 -48 49 -25 c47 -24 58 -25 213 -25 l164 0 18 40 c17 38
20 40 58 36 40 -3 76 -34 77 -63 0 -16 150 -18 150 -3 0 13 93 13 107 -1 7 -7
81 -11 204 -12 168 -2 198 0 226 16 34 18 83 66 83 80 0 5 12 24 27 43 l26 35
-20 27 c-18 24 -27 27 -89 29 -84 2 -271 51 -354 93 -57 29 -90 63 -120 124
-8 16 -25 36 -38 44 -48 31 -48 38 -41 492 4 234 10 438 13 453 3 15 2 26 -3
23 -4 -3 -4 16 1 42 4 26 9 81 11 123 1 42 4 75 7 74 6 -4 64 423 75 545 3 36
11 108 16 160 11 109 14 973 3 1188 -6 134 -6 142 12 142 16 0 15 2 -6 17 -17
12 -73 22 -199 35 -419 42 -781 103 -917 154 -36 13 -65 19 -70 14 -6 -6 -19
-4 -34 3 l-25 13 0 214 c0 248 13 326 74 450 47 96 73 180 69 222 -3 30 -4 29
-11 -16z m304 -1162 c30 -8 71 -20 92 -26 20 -6 37 -15 37 -20 0 -4 5 -8 11
-8 19 0 109 -93 109 -112 0 -10 4 -18 8 -18 5 0 18 -17 29 -37 15 -28 23 -66
29 -138 l7 -100 23 75 c13 41 24 85 24 98 0 12 4 30 9 40 6 9 13 35 18 57 l7
40 4 -45 c2 -25 -1 -95 -7 -156 -6 -60 -11 -147 -11 -191 0 -45 -4 -85 -10
-88 -5 -3 -10 -27 -10 -53 0 -43 -17 -156 -41 -272 -5 -25 -13 -72 -18 -105
-5 -33 -19 -87 -31 -120 -12 -33 -25 -73 -30 -90 -17 -62 -42 -121 -65 -157
-14 -21 -37 -57 -52 -80 -30 -44 -79 -104 -102 -122 -7 -6 -32 -28 -54 -49
-21 -20 -72 -58 -111 -84 -39 -26 -72 -51 -74 -55 -2 -4 -10 -8 -18 -8 -8 0
-14 -4 -14 -9 0 -5 -12 -12 -27 -16 -15 -3 -30 -10 -33 -14 -4 -7 -135 -71
-185 -91 -72 -28 -72 -29 -47 -29 13 -1 54 4 92 10 105 16 113 10 44 -36 -32
-22 -64 -44 -70 -50 -6 -5 -27 -19 -47 -30 -20 -11 -37 -23 -37 -27 0 -5 -6
-8 -13 -8 -8 0 -25 -9 -38 -21 -13 -11 -44 -33 -69 -47 -25 -14 -66 -41 -91
-59 -26 -18 -51 -33 -56 -33 -6 0 -17 -7 -24 -16 -7 -9 -22 -20 -34 -25 -19
-9 -98 -62 -140 -95 -11 -9 -30 -20 -42 -25 -13 -5 -23 -12 -23 -16 0 -5 -15
-15 -32 -22 -32 -14 -138 -80 -148 -92 -3 -3 -22 -14 -42 -24 -21 -9 -38 -21
-38 -26 0 -14 -78 -30 -114 -24 -21 4 -42 18 -57 38 -20 27 -24 44 -24 107 0
63 5 84 29 133 16 31 35 62 43 68 7 7 13 17 13 23 1 13 46 66 56 66 4 0 16 8
27 18 20 16 20 16 14 -1 -17 -45 -20 -70 -8 -63 6 4 11 12 11 17 0 5 23 40 50
77 123 162 206 253 300 327 25 19 50 39 55 43 6 4 17 11 25 15 8 4 29 16 45
27 47 30 158 90 168 90 10 0 166 64 216 88 19 9 64 36 99 60 36 23 69 42 73
42 5 0 9 6 9 13 0 7 13 28 28 47 38 47 77 116 92 165 7 22 16 45 20 50 5 6 17
56 29 112 18 85 21 137 21 321 0 213 -12 393 -30 460 -5 18 -5 32 0 32 10 0
35 -76 46 -138 4 -20 10 -41 14 -47 4 -5 11 -25 15 -43 4 -18 9 -31 13 -28 5
6 -9 107 -29 196 -16 76 -29 252 -23 303 6 43 9 47 34 47 15 0 52 -7 81 -16z
m592 -1108 c13 -32 37 -160 37 -192 0 -17 3 -34 7 -38 11 -11 12 -35 2 -42 -5
-3 -9 -20 -9 -38 0 -18 -4 -57 -9 -87 -6 -30 -15 -99 -21 -154 -6 -55 -17
-159 -25 -230 -11 -96 -15 -247 -15 -566 l0 -436 -67 -6 c-38 -4 -98 -15 -135
-25 -37 -11 -70 -17 -73 -14 -3 3 -16 -5 -30 -18 -14 -13 -27 -21 -30 -19 -5
6 23 418 30 437 3 8 10 125 15 260 9 215 18 331 35 459 3 18 12 51 21 75 17
49 33 101 40 138 3 14 9 34 14 45 11 28 39 137 54 215 7 36 15 72 18 80 4 8
14 49 23 90 45 215 39 205 78 139 18 -30 36 -62 40 -73z"/>
<path d="M6970 2910 c-146 -19 -277 -146 -305 -297 -48 -256 157 -473 419
-442 124 15 225 88 283 206 35 71 37 81 36 164 -1 76 -5 97 -31 151 -43 92
-91 142 -175 182 -78 38 -140 47 -227 36z m150 -225 c56 -29 89 -108 76 -181
-9 -47 -65 -107 -116 -124 -50 -17 -121 -2 -159 33 -39 36 -64 103 -57 151 8
49 55 112 100 132 37 17 112 12 156 -11z"/>
</g>
</svg>
